<?xml version="1.0" encoding="UTF-8" standalone="no"?>
<!DOCTYPE svg PUBLIC "-//W3C//DTD SVG 1.1//EN"
 "http://www.w3.org/Graphics/SVG/1.1/DTD/svg11.dtd">
<!-- Generated by graphviz version 2.36.0 (20140111.2315)
 -->
<!-- Title: gk_getfilestats Pages: 1 -->
<svg width="342pt" height="218pt"
 viewBox="0.00 0.00 342.00 218.00" xmlns="http://www.w3.org/2000/svg" xmlns:xlink="http://www.w3.org/1999/xlink">
<g id="graph0" class="graph" transform="scale(1 1) rotate(0) translate(4 214)">
<title>gk_getfilestats</title>
<polygon fill="white" stroke="none" points="-4,4 -4,-214 338,-214 338,4 -4,4"/>
<!-- Node921 -->
<g id="node1" class="node"><title>Node921</title>
<polygon fill="#bfbfbf" stroke="black" points="0,-95.5 0,-114.5 80,-114.5 80,-95.5 0,-95.5"/>
<text text-anchor="middle" x="40" y="-102.5" font-family="Helvetica,sans-Serif" font-size="10.00">gk_getfilestats</text>
</g>
<!-- Node922 -->
<g id="node2" class="node"><title>Node922</title>
<g id="a_node2"><a xlink:href="$a00077.html#a8ebc19fe9a291bdf67677ebdaae56592" xlink:title="gk_csr_Read">
<polygon fill="white" stroke="black" points="150.5,-190.5 150.5,-209.5 225.5,-209.5 225.5,-190.5 150.5,-190.5"/>
<text text-anchor="middle" x="188" y="-197.5" font-family="Helvetica,sans-Serif" font-size="10.00">gk_csr_Read</text>
</a>
</g>
</g>
<!-- Node921&#45;&gt;Node922 -->
<g id="edge1" class="edge"><title>Node921&#45;&gt;Node922</title>
<path fill="none" stroke="midnightblue" d="M53.8901,-122.726C67.4468,-140.099 90.3456,-166.08 116,-181 126.369,-187.03 138.695,-191.193 150.145,-194.048"/>
<polygon fill="midnightblue" stroke="midnightblue" points="56.5127,-120.391 47.6872,-114.53 50.931,-124.616 56.5127,-120.391"/>
</g>
<!-- Node924 -->
<g id="node4" class="node"><title>Node924</title>
<g id="a_node4"><a xlink:href="$a00858.html#ad13e689608e193482a6f30b1ade87814" xlink:title="gk_readfile">
<polygon fill="white" stroke="black" points="155.5,-152.5 155.5,-171.5 220.5,-171.5 220.5,-152.5 155.5,-152.5"/>
<text text-anchor="middle" x="188" y="-159.5" font-family="Helvetica,sans-Serif" font-size="10.00">gk_readfile</text>
</a>
</g>
</g>
<!-- Node921&#45;&gt;Node924 -->
<g id="edge3" class="edge"><title>Node921&#45;&gt;Node924</title>
<path fill="none" stroke="midnightblue" d="M66.6655,-119.676C80.8777,-127.372 99.0512,-136.519 116,-143 128.634,-147.831 142.978,-151.919 155.45,-155.05"/>
<polygon fill="midnightblue" stroke="midnightblue" points="67.9693,-116.398 57.5229,-114.631 64.5871,-122.527 67.9693,-116.398"/>
</g>
<!-- Node925 -->
<g id="node5" class="node"><title>Node925</title>
<g id="a_node5"><a xlink:href="$a00858.html#a201c46a9a2bf9c06a917f259d109b7ee" xlink:title="gk_i32readfile">
<polygon fill="white" stroke="black" points="148.5,-114.5 148.5,-133.5 227.5,-133.5 227.5,-114.5 148.5,-114.5"/>
<text text-anchor="middle" x="188" y="-121.5" font-family="Helvetica,sans-Serif" font-size="10.00">gk_i32readfile</text>
</a>
</g>
</g>
<!-- Node921&#45;&gt;Node925 -->
<g id="edge4" class="edge"><title>Node921&#45;&gt;Node925</title>
<path fill="none" stroke="midnightblue" d="M90.08,-111.387C109.042,-113.855 130.425,-116.638 148.273,-118.96"/>
<polygon fill="midnightblue" stroke="midnightblue" points="90.4934,-107.911 80.1253,-110.092 89.59,-114.853 90.4934,-107.911"/>
</g>
<!-- Node926 -->
<g id="node6" class="node"><title>Node926</title>
<g id="a_node6"><a xlink:href="$a00858.html#a8cb19aa95a831aa745f6e04e1cc0b204" xlink:title="gk_i64readfile">
<polygon fill="white" stroke="black" points="148.5,-76.5 148.5,-95.5 227.5,-95.5 227.5,-76.5 148.5,-76.5"/>
<text text-anchor="middle" x="188" y="-83.5" font-family="Helvetica,sans-Serif" font-size="10.00">gk_i64readfile</text>
</a>
</g>
</g>
<!-- Node921&#45;&gt;Node926 -->
<g id="edge5" class="edge"><title>Node921&#45;&gt;Node926</title>
<path fill="none" stroke="midnightblue" d="M90.08,-98.6129C109.042,-96.1452 130.425,-93.3624 148.273,-91.0398"/>
<polygon fill="midnightblue" stroke="midnightblue" points="89.59,-95.147 80.1253,-99.9083 90.4934,-102.089 89.59,-95.147"/>
</g>
<!-- Node927 -->
<g id="node7" class="node"><title>Node927</title>
<g id="a_node7"><a xlink:href="$a00951.html#aef01a8b2c6432d21be77abeabeeeced8" xlink:title="ReadMesh">
<polygon fill="white" stroke="black" points="155.5,-38.5 155.5,-57.5 220.5,-57.5 220.5,-38.5 155.5,-38.5"/>
<text text-anchor="middle" x="188" y="-45.5" font-family="Helvetica,sans-Serif" font-size="10.00">ReadMesh</text>
</a>
</g>
</g>
<!-- Node921&#45;&gt;Node927 -->
<g id="edge6" class="edge"><title>Node921&#45;&gt;Node927</title>
<path fill="none" stroke="midnightblue" d="M66.6655,-90.3239C80.8777,-82.6281 99.0512,-73.4808 116,-67 128.634,-62.1692 142.978,-58.0814 155.45,-54.9495"/>
<polygon fill="midnightblue" stroke="midnightblue" points="64.5871,-87.4732 57.5229,-95.3693 67.9693,-93.602 64.5871,-87.4732"/>
</g>
<!-- Node929 -->
<g id="node9" class="node"><title>Node929</title>
<g id="a_node9"><a xlink:href="$a00137.html#ad44124c9b40b8ffda2276f877526a261" xlink:title="This function reads a pssm in the format of gkmod pssm. ">
<polygon fill="white" stroke="black" points="116,-0.5 116,-19.5 260,-19.5 260,-0.5 116,-0.5"/>
<text text-anchor="middle" x="188" y="-7.5" font-family="Helvetica,sans-Serif" font-size="10.00">gk_seq_ReadGKMODPSSM</text>
</a>
</g>
</g>
<!-- Node921&#45;&gt;Node929 -->
<g id="edge8" class="edge"><title>Node921&#45;&gt;Node929</title>
<path fill="none" stroke="midnightblue" d="M53.8901,-87.2741C67.4468,-69.901 90.3456,-43.9195 116,-29 122.618,-25.1511 130.034,-22.0627 137.511,-19.5897"/>
<polygon fill="midnightblue" stroke="midnightblue" points="50.931,-85.3842 47.6872,-95.4703 56.5127,-89.6085 50.931,-85.3842"/>
</g>
<!-- Node923 -->
<g id="node3" class="node"><title>Node923</title>
<g id="a_node3"><a xlink:href="$a00867.html#a0ddf1224851353fc92bfbff6f499fa97" xlink:title="main">
<polygon fill="white" stroke="black" points="296,-190.5 296,-209.5 334,-209.5 334,-190.5 296,-190.5"/>
<text text-anchor="middle" x="315" y="-197.5" font-family="Helvetica,sans-Serif" font-size="10.00">main</text>
</a>
</g>
</g>
<!-- Node922&#45;&gt;Node923 -->
<g id="edge2" class="edge"><title>Node922&#45;&gt;Node923</title>
<path fill="none" stroke="midnightblue" d="M235.84,-200C256.734,-200 280.123,-200 295.824,-200"/>
<polygon fill="midnightblue" stroke="midnightblue" points="235.828,-196.5 225.828,-200 235.828,-203.5 235.828,-196.5"/>
</g>
<!-- Node928 -->
<g id="node8" class="node"><title>Node928</title>
<g id="a_node8"><a xlink:href="$a00317.html#a0ddf1224851353fc92bfbff6f499fa97" xlink:title="main">
<polygon fill="white" stroke="black" points="296,-38.5 296,-57.5 334,-57.5 334,-38.5 296,-38.5"/>
<text text-anchor="middle" x="315" y="-45.5" font-family="Helvetica,sans-Serif" font-size="10.00">main</text>
</a>
</g>
</g>
<!-- Node927&#45;&gt;Node928 -->
<g id="edge7" class="edge"><title>Node927&#45;&gt;Node928</title>
<path fill="none" stroke="midnightblue" d="M230.668,-48C252.705,-48 278.643,-48 295.657,-48"/>
<polygon fill="midnightblue" stroke="midnightblue" points="230.543,-44.5001 220.543,-48 230.543,-51.5001 230.543,-44.5001"/>
</g>
</g>
</svg>
