<?xml version="1.0" encoding="UTF-8" standalone="no"?>
<!DOCTYPE svg PUBLIC "-//W3C//DTD SVG 1.1//EN"
 "http://www.w3.org/Graphics/SVG/1.1/DTD/svg11.dtd">
<!-- Generated by graphviz version 2.36.0 (20140111.2315)
 -->
<!-- Title: gk_csr_Prune Pages: 1 -->
<svg width="594pt" height="237pt"
 viewBox="0.00 0.00 594.00 236.72" xmlns="http://www.w3.org/2000/svg" xmlns:xlink="http://www.w3.org/1999/xlink">
<g id="graph0" class="graph" transform="scale(1 1) rotate(0) translate(4 232.718)">
<title>gk_csr_Prune</title>
<polygon fill="white" stroke="none" points="-4,4 -4,-232.718 590,-232.718 590,4 -4,4"/>
<!-- Node241 -->
<g id="node1" class="node"><title>Node241</title>
<polygon fill="#bfbfbf" stroke="black" points="0,-95.5 0,-114.5 78,-114.5 78,-95.5 0,-95.5"/>
<text text-anchor="middle" x="39" y="-102.5" font-family="Helvetica,sans-Serif" font-size="10.00">gk_csr_Prune</text>
</g>
<!-- Node242 -->
<g id="node2" class="node"><title>Node242</title>
<g id="a_node2"><a xlink:href="$a00023.html#a82b885bbed5bd18c26629c35ce5d37e4" xlink:title="gk_csr_Create">
<polygon fill="white" stroke="black" points="114,-152.5 114,-171.5 196,-171.5 196,-152.5 114,-152.5"/>
<text text-anchor="middle" x="155" y="-159.5" font-family="Helvetica,sans-Serif" font-size="10.00">gk_csr_Create</text>
</a>
</g>
</g>
<!-- Node241&#45;&gt;Node242 -->
<g id="edge1" class="edge"><title>Node241&#45;&gt;Node242</title>
<path fill="none" stroke="midnightblue" d="M59.081,-114.541C77.3299,-123.665 105.069,-137.534 125.855,-147.927"/>
<polygon fill="midnightblue" stroke="midnightblue" points="124.347,-151.087 134.857,-152.428 127.478,-144.826 124.347,-151.087"/>
</g>
<!-- Node247 -->
<g id="node7" class="node"><title>Node247</title>
<g id="a_node7"><a xlink:href="$a00026.html#a4c320c13bcdc9967613253ef4c73f59f" xlink:title="gk_errexit">
<polygon fill="white" stroke="black" points="414,-114.5 414,-133.5 474,-133.5 474,-114.5 414,-114.5"/>
<text text-anchor="middle" x="444" y="-121.5" font-family="Helvetica,sans-Serif" font-size="10.00">gk_errexit</text>
</a>
</g>
</g>
<!-- Node241&#45;&gt;Node247 -->
<g id="edge14" class="edge"><title>Node241&#45;&gt;Node247</title>
<path fill="none" stroke="midnightblue" d="M78.2766,-106.805C154.838,-110.414 326.123,-118.49 403.6,-122.142"/>
<polygon fill="midnightblue" stroke="midnightblue" points="403.737,-125.653 413.891,-122.628 404.067,-118.66 403.737,-125.653"/>
</g>
<!-- Node249 -->
<g id="node9" class="node"><title>Node249</title>
<g id="a_node9"><a xlink:href="$a00077.html#ac8df62c4e3d0910711a9874f9cc58884" xlink:title="gk_free">
<polygon fill="white" stroke="black" points="419,-38.5 419,-57.5 469,-57.5 469,-38.5 419,-38.5"/>
<text text-anchor="middle" x="444" y="-45.5" font-family="Helvetica,sans-Serif" font-size="10.00">gk_free</text>
</a>
</g>
</g>
<!-- Node241&#45;&gt;Node249 -->
<g id="edge9" class="edge"><title>Node241&#45;&gt;Node249</title>
<path fill="none" stroke="midnightblue" d="M78.2766,-99.5862C156.554,-88.5147 333.849,-63.4382 408.667,-52.8561"/>
<polygon fill="midnightblue" stroke="midnightblue" points="409.527,-56.2694 418.938,-51.4033 408.546,-49.3384 409.527,-56.2694"/>
</g>
<!-- Node250 -->
<g id="node10" class="node"><title>Node250</title>
<g id="a_node10"><a xlink:href="$a00023.html#ac3736361b8d6b391356f273c960c203b" xlink:title="gk_csr_Free">
<polygon fill="white" stroke="black" points="119,-38.5 119,-57.5 191,-57.5 191,-38.5 119,-38.5"/>
<text text-anchor="middle" x="155" y="-45.5" font-family="Helvetica,sans-Serif" font-size="10.00">gk_csr_Free</text>
</a>
</g>
</g>
<!-- Node241&#45;&gt;Node250 -->
<g id="edge10" class="edge"><title>Node241&#45;&gt;Node250</title>
<path fill="none" stroke="midnightblue" d="M59.081,-95.4595C77.3299,-86.335 105.069,-72.4656 125.855,-62.0726"/>
<polygon fill="midnightblue" stroke="midnightblue" points="127.478,-65.1743 134.857,-57.5716 124.347,-58.9133 127.478,-65.1743"/>
</g>
<!-- Node243 -->
<g id="node3" class="node"><title>Node243</title>
<g id="a_node3"><a xlink:href="$a00077.html#aba6f76f5c67b9b7e9c2e45988d3d3e9d" xlink:title="gk_malloc">
<polygon fill="white" stroke="black" points="257,-190.5 257,-209.5 319,-209.5 319,-190.5 257,-190.5"/>
<text text-anchor="middle" x="288" y="-197.5" font-family="Helvetica,sans-Serif" font-size="10.00">gk_malloc</text>
</a>
</g>
</g>
<!-- Node242&#45;&gt;Node243 -->
<g id="edge2" class="edge"><title>Node242&#45;&gt;Node243</title>
<path fill="none" stroke="midnightblue" d="M189.057,-171.589C206.661,-176.696 228.448,-183.016 247.001,-188.397"/>
<polygon fill="midnightblue" stroke="midnightblue" points="246.068,-191.771 256.648,-191.195 248.019,-185.048 246.068,-191.771"/>
</g>
<!-- Node248 -->
<g id="node8" class="node"><title>Node248</title>
<g id="a_node8"><a xlink:href="$a00023.html#a47a303d88c3316bd821219cae39d0461" xlink:title="gk_csr_Init">
<polygon fill="white" stroke="black" points="255.5,-152.5 255.5,-171.5 320.5,-171.5 320.5,-152.5 255.5,-152.5"/>
<text text-anchor="middle" x="288" y="-159.5" font-family="Helvetica,sans-Serif" font-size="10.00">gk_csr_Init</text>
</a>
</g>
</g>
<!-- Node242&#45;&gt;Node248 -->
<g id="edge8" class="edge"><title>Node242&#45;&gt;Node248</title>
<path fill="none" stroke="midnightblue" d="M196.016,-162C211.422,-162 229.057,-162 244.674,-162"/>
<polygon fill="midnightblue" stroke="midnightblue" points="245.111,-165.5 255.111,-162 245.111,-158.5 245.111,-165.5"/>
</g>
<!-- Node244 -->
<g id="node4" class="node"><title>Node244</title>
<g id="a_node4"><a xlink:href="$a01017.html#a2e311a777ffe9c80e405efa7cd2757be" xlink:title="fprintf">
<polygon fill="white" stroke="black" points="544,-171.5 544,-190.5 586,-190.5 586,-171.5 544,-171.5"/>
<text text-anchor="middle" x="565" y="-178.5" font-family="Helvetica,sans-Serif" font-size="10.00">fprintf</text>
</a>
</g>
</g>
<!-- Node243&#45;&gt;Node244 -->
<g id="edge3" class="edge"><title>Node243&#45;&gt;Node244</title>
<path fill="none" stroke="midnightblue" d="M318.797,-209.568C361.647,-221.78 442.7,-239.064 508,-219 522.039,-214.686 535.719,-205.525 546.044,-197.279"/>
<polygon fill="midnightblue" stroke="midnightblue" points="548.469,-199.813 553.862,-190.694 543.959,-194.46 548.469,-199.813"/>
</g>
<!-- Node245 -->
<g id="node5" class="node"><title>Node245</title>
<g id="a_node5"><a xlink:href="$a00110.html#ad2327b94227019b6753b6b09400c0522" xlink:title="gk_GetCurMemoryUsed">
<polygon fill="white" stroke="black" points="382,-190.5 382,-209.5 506,-209.5 506,-190.5 382,-190.5"/>
<text text-anchor="middle" x="444" y="-197.5" font-family="Helvetica,sans-Serif" font-size="10.00">gk_GetCurMemoryUsed</text>
</a>
</g>
</g>
<!-- Node243&#45;&gt;Node245 -->
<g id="edge4" class="edge"><title>Node243&#45;&gt;Node245</title>
<path fill="none" stroke="midnightblue" d="M319.058,-200C334.125,-200 353.069,-200 371.581,-200"/>
<polygon fill="midnightblue" stroke="midnightblue" points="371.793,-203.5 381.793,-200 371.793,-196.5 371.793,-203.5"/>
</g>
<!-- Node246 -->
<g id="node6" class="node"><title>Node246</title>
<g id="a_node6"><a xlink:href="$a00110.html#a656fd5266ae12a96e53125486f8fea52" xlink:title="gk_GetMaxMemoryUsed">
<polygon fill="white" stroke="black" points="380.5,-152.5 380.5,-171.5 507.5,-171.5 507.5,-152.5 380.5,-152.5"/>
<text text-anchor="middle" x="444" y="-159.5" font-family="Helvetica,sans-Serif" font-size="10.00">gk_GetMaxMemoryUsed</text>
</a>
</g>
</g>
<!-- Node243&#45;&gt;Node246 -->
<g id="edge5" class="edge"><title>Node243&#45;&gt;Node246</title>
<path fill="none" stroke="midnightblue" d="M319.058,-192.583C340.446,-187.306 369.646,-180.1 394.332,-174.009"/>
<polygon fill="midnightblue" stroke="midnightblue" points="395.376,-177.356 404.246,-171.563 393.699,-170.56 395.376,-177.356"/>
</g>
<!-- Node243&#45;&gt;Node247 -->
<g id="edge6" class="edge"><title>Node243&#45;&gt;Node247</title>
<path fill="none" stroke="midnightblue" d="M319.031,-192.511C327.492,-189.651 336.443,-185.871 344,-181 363.555,-168.396 360.199,-155.213 380,-143 387.338,-138.474 395.825,-134.965 404.145,-132.267"/>
<polygon fill="midnightblue" stroke="midnightblue" points="405.139,-135.623 413.757,-129.46 403.177,-128.904 405.139,-135.623"/>
</g>
<!-- Node247&#45;&gt;Node244 -->
<g id="edge7" class="edge"><title>Node247&#45;&gt;Node244</title>
<path fill="none" stroke="midnightblue" d="M474.228,-130.825C485.104,-133.876 497.377,-137.94 508,-143 520.634,-149.018 533.634,-157.663 543.925,-165.186"/>
<polygon fill="midnightblue" stroke="midnightblue" points="542.101,-168.194 552.194,-171.415 546.313,-162.603 542.101,-168.194"/>
</g>
<!-- Node250&#45;&gt;Node249 -->
<g id="edge13" class="edge"><title>Node250&#45;&gt;Node249</title>
<path fill="none" stroke="midnightblue" d="M191.192,-48C246.621,-48 353.595,-48 408.556,-48"/>
<polygon fill="midnightblue" stroke="midnightblue" points="408.824,-51.5001 418.824,-48 408.824,-44.5001 408.824,-51.5001"/>
</g>
<!-- Node251 -->
<g id="node11" class="node"><title>Node251</title>
<g id="a_node11"><a xlink:href="$a00023.html#a9646f29b0605ba264bf373c441a6826d" xlink:title="gk_csr_FreeContents">
<polygon fill="white" stroke="black" points="232,-0.5 232,-19.5 344,-19.5 344,-0.5 232,-0.5"/>
<text text-anchor="middle" x="288" y="-7.5" font-family="Helvetica,sans-Serif" font-size="10.00">gk_csr_FreeContents</text>
</a>
</g>
</g>
<!-- Node250&#45;&gt;Node251 -->
<g id="edge11" class="edge"><title>Node250&#45;&gt;Node251</title>
<path fill="none" stroke="midnightblue" d="M189.057,-38.411C205.813,-33.5506 226.358,-27.5909 244.297,-22.3873"/>
<polygon fill="midnightblue" stroke="midnightblue" points="245.325,-25.7334 253.954,-19.5859 243.375,-19.0105 245.325,-25.7334"/>
</g>
<!-- Node251&#45;&gt;Node249 -->
<g id="edge12" class="edge"><title>Node251&#45;&gt;Node249</title>
<path fill="none" stroke="midnightblue" d="M327.861,-19.589C352.81,-25.7453 384.906,-33.6651 408.87,-39.5784"/>
<polygon fill="midnightblue" stroke="midnightblue" points="408.051,-42.9811 418.598,-41.9788 409.728,-36.185 408.051,-42.9811"/>
</g>
</g>
</svg>
