<?xml version="1.0" encoding="UTF-8" standalone="no"?>
<!DOCTYPE svg PUBLIC "-//W3C//DTD SVG 1.1//EN"
 "http://www.w3.org/Graphics/SVG/1.1/DTD/svg11.dtd">
<!-- Generated by graphviz version 2.36.0 (20140111.2315)
 -->
<!-- Title: gk_csr_Create Pages: 1 -->
<svg width="434pt" height="125pt"
 viewBox="0.00 0.00 434.00 124.79" xmlns="http://www.w3.org/2000/svg" xmlns:xlink="http://www.w3.org/1999/xlink">
<g id="graph0" class="graph" transform="scale(1 1) rotate(0) translate(4 120.791)">
<title>gk_csr_Create</title>
<polygon fill="white" stroke="none" points="-4,4 -4,-120.791 430,-120.791 430,4 -4,4"/>
<!-- Node115 -->
<g id="node1" class="node"><title>Node115</title>
<polygon fill="#bfbfbf" stroke="black" points="0,-38.5 0,-57.5 82,-57.5 82,-38.5 0,-38.5"/>
<text text-anchor="middle" x="41" y="-45.5" font-family="Helvetica,sans-Serif" font-size="10.00">gk_csr_Create</text>
</g>
<!-- Node116 -->
<g id="node2" class="node"><title>Node116</title>
<g id="a_node2"><a xlink:href="$a00077.html#aba6f76f5c67b9b7e9c2e45988d3d3e9d" xlink:title="gk_malloc">
<polygon fill="white" stroke="black" points="120,-57.5 120,-76.5 182,-76.5 182,-57.5 120,-57.5"/>
<text text-anchor="middle" x="151" y="-64.5" font-family="Helvetica,sans-Serif" font-size="10.00">gk_malloc</text>
</a>
</g>
</g>
<!-- Node115&#45;&gt;Node116 -->
<g id="edge1" class="edge"><title>Node115&#45;&gt;Node116</title>
<path fill="none" stroke="midnightblue" d="M82.2152,-55.0749C91.2786,-56.6694 100.897,-58.3615 109.954,-59.9548"/>
<polygon fill="midnightblue" stroke="midnightblue" points="109.425,-63.4155 119.88,-61.7011 110.638,-56.5213 109.425,-63.4155"/>
</g>
<!-- Node121 -->
<g id="node7" class="node"><title>Node121</title>
<g id="a_node7"><a xlink:href="$a00023.html#a47a303d88c3316bd821219cae39d0461" xlink:title="gk_csr_Init">
<polygon fill="white" stroke="black" points="118.5,-19.5 118.5,-38.5 183.5,-38.5 183.5,-19.5 118.5,-19.5"/>
<text text-anchor="middle" x="151" y="-26.5" font-family="Helvetica,sans-Serif" font-size="10.00">gk_csr_Init</text>
</a>
</g>
</g>
<!-- Node115&#45;&gt;Node121 -->
<g id="edge7" class="edge"><title>Node115&#45;&gt;Node121</title>
<path fill="none" stroke="midnightblue" d="M82.2152,-40.9251C90.6573,-39.4399 99.5811,-37.87 108.084,-36.3742"/>
<polygon fill="midnightblue" stroke="midnightblue" points="108.943,-39.7769 118.185,-34.5971 107.73,-32.8827 108.943,-39.7769"/>
</g>
<!-- Node117 -->
<g id="node3" class="node"><title>Node117</title>
<g id="a_node3"><a xlink:href="$a01017.html#a2e311a777ffe9c80e405efa7cd2757be" xlink:title="fprintf">
<polygon fill="white" stroke="black" points="384,-57.5 384,-76.5 426,-76.5 426,-57.5 384,-57.5"/>
<text text-anchor="middle" x="405" y="-64.5" font-family="Helvetica,sans-Serif" font-size="10.00">fprintf</text>
</a>
</g>
</g>
<!-- Node116&#45;&gt;Node117 -->
<g id="edge2" class="edge"><title>Node116&#45;&gt;Node117</title>
<path fill="none" stroke="midnightblue" d="M164.682,-76.7226C177.733,-86.0659 199.06,-99.5461 220,-105 275.052,-119.339 293.62,-121.709 348,-105 362.039,-100.686 375.719,-91.5255 386.044,-83.2793"/>
<polygon fill="midnightblue" stroke="midnightblue" points="388.469,-85.8134 393.862,-76.6941 383.959,-80.4595 388.469,-85.8134"/>
</g>
<!-- Node118 -->
<g id="node4" class="node"><title>Node118</title>
<g id="a_node4"><a xlink:href="$a00110.html#ad2327b94227019b6753b6b09400c0522" xlink:title="gk_GetCurMemoryUsed">
<polygon fill="white" stroke="black" points="222,-76.5 222,-95.5 346,-95.5 346,-76.5 222,-76.5"/>
<text text-anchor="middle" x="284" y="-83.5" font-family="Helvetica,sans-Serif" font-size="10.00">gk_GetCurMemoryUsed</text>
</a>
</g>
</g>
<!-- Node116&#45;&gt;Node118 -->
<g id="edge3" class="edge"><title>Node116&#45;&gt;Node118</title>
<path fill="none" stroke="midnightblue" d="M182.054,-71.359C191.041,-72.6625 201.303,-74.1508 211.761,-75.6676"/>
<polygon fill="midnightblue" stroke="midnightblue" points="211.414,-79.1538 221.813,-77.1255 212.419,-72.2263 211.414,-79.1538"/>
</g>
<!-- Node119 -->
<g id="node5" class="node"><title>Node119</title>
<g id="a_node5"><a xlink:href="$a00110.html#a656fd5266ae12a96e53125486f8fea52" xlink:title="gk_GetMaxMemoryUsed">
<polygon fill="white" stroke="black" points="220.5,-38.5 220.5,-57.5 347.5,-57.5 347.5,-38.5 220.5,-38.5"/>
<text text-anchor="middle" x="284" y="-45.5" font-family="Helvetica,sans-Serif" font-size="10.00">gk_GetMaxMemoryUsed</text>
</a>
</g>
</g>
<!-- Node116&#45;&gt;Node119 -->
<g id="edge4" class="edge"><title>Node116&#45;&gt;Node119</title>
<path fill="none" stroke="midnightblue" d="M182.054,-62.641C190.665,-61.392 200.447,-59.9734 210.45,-58.5226"/>
<polygon fill="midnightblue" stroke="midnightblue" points="211.097,-61.9653 220.491,-57.0661 210.093,-55.0378 211.097,-61.9653"/>
</g>
<!-- Node120 -->
<g id="node6" class="node"><title>Node120</title>
<g id="a_node6"><a xlink:href="$a00026.html#a4c320c13bcdc9967613253ef4c73f59f" xlink:title="gk_errexit">
<polygon fill="white" stroke="black" points="254,-0.5 254,-19.5 314,-19.5 314,-0.5 254,-0.5"/>
<text text-anchor="middle" x="284" y="-7.5" font-family="Helvetica,sans-Serif" font-size="10.00">gk_errexit</text>
</a>
</g>
</g>
<!-- Node116&#45;&gt;Node120 -->
<g id="edge5" class="edge"><title>Node116&#45;&gt;Node120</title>
<path fill="none" stroke="midnightblue" d="M168.079,-57.4824C184.755,-47.7083 209.791,-33.3313 220,-29 227.701,-25.7327 236.151,-22.78 244.292,-20.2292"/>
<polygon fill="midnightblue" stroke="midnightblue" points="245.421,-23.5447 253.996,-17.3231 243.413,-16.8389 245.421,-23.5447"/>
</g>
<!-- Node120&#45;&gt;Node117 -->
<g id="edge6" class="edge"><title>Node120&#45;&gt;Node117</title>
<path fill="none" stroke="midnightblue" d="M314.228,-16.8252C325.104,-19.8755 337.377,-23.9396 348,-29 360.634,-35.0184 373.634,-43.6626 383.925,-51.1863"/>
<polygon fill="midnightblue" stroke="midnightblue" points="382.101,-54.1937 392.194,-57.4154 386.313,-48.6027 382.101,-54.1937"/>
</g>
</g>
</svg>
