<?xml version="1.0" encoding="UTF-8" standalone="no"?>
<!DOCTYPE svg PUBLIC "-//W3C//DTD SVG 1.1//EN"
 "http://www.w3.org/Graphics/SVG/1.1/DTD/svg11.dtd">
<!-- Generated by graphviz version 2.36.0 (20140111.2315)
 -->
<!-- Title: gk_mcoreAdd Pages: 1 -->
<svg width="458pt" height="142pt"
 viewBox="0.00 0.00 458.00 142.00" xmlns="http://www.w3.org/2000/svg" xmlns:xlink="http://www.w3.org/1999/xlink">
<g id="graph0" class="graph" transform="scale(1 1) rotate(0) translate(4 138)">
<title>gk_mcoreAdd</title>
<polygon fill="white" stroke="none" points="-4,4 -4,-138 454,-138 454,4 -4,4"/>
<!-- Node1457 -->
<g id="node1" class="node"><title>Node1457</title>
<polygon fill="#bfbfbf" stroke="black" points="0,-38.5 0,-57.5 78,-57.5 78,-38.5 0,-38.5"/>
<text text-anchor="middle" x="39" y="-45.5" font-family="Helvetica,sans-Serif" font-size="10.00">gk_mcoreAdd</text>
</g>
<!-- Node1458 -->
<g id="node2" class="node"><title>Node1458</title>
<g id="a_node2"><a xlink:href="$a00107.html#ab7a380f0696a0d5421653fad336bcae0" xlink:title="gk_mcoreMalloc">
<polygon fill="white" stroke="black" points="114.5,-57.5 114.5,-76.5 203.5,-76.5 203.5,-57.5 114.5,-57.5"/>
<text text-anchor="middle" x="159" y="-64.5" font-family="Helvetica,sans-Serif" font-size="10.00">gk_mcoreMalloc</text>
</a>
</g>
</g>
<!-- Node1457&#45;&gt;Node1458 -->
<g id="edge1" class="edge"><title>Node1457&#45;&gt;Node1458</title>
<path fill="none" stroke="midnightblue" d="M88.2003,-55.7611C96.7868,-57.1436 105.689,-58.5771 114.146,-59.9388"/>
<polygon fill="midnightblue" stroke="midnightblue" points="88.7405,-52.303 78.3112,-54.1688 87.6276,-59.214 88.7405,-52.303"/>
</g>
<!-- Node1464 -->
<g id="node8" class="node"><title>Node1464</title>
<g id="a_node8"><a xlink:href="$a00107.html#a07579694837248c1f2908860edc643c0" xlink:title="gk_mcorePush">
<polygon fill="white" stroke="black" points="117.5,-19.5 117.5,-38.5 200.5,-38.5 200.5,-19.5 117.5,-19.5"/>
<text text-anchor="middle" x="159" y="-26.5" font-family="Helvetica,sans-Serif" font-size="10.00">gk_mcorePush</text>
</a>
</g>
</g>
<!-- Node1457&#45;&gt;Node1464 -->
<g id="edge7" class="edge"><title>Node1457&#45;&gt;Node1464</title>
<path fill="none" stroke="midnightblue" d="M88.2299,-40.2342C97.9317,-38.672 108.036,-37.0451 117.444,-35.5302"/>
<polygon fill="midnightblue" stroke="midnightblue" points="87.6276,-36.786 78.3112,-41.8312 88.7405,-43.697 87.6276,-36.786"/>
</g>
<!-- Node1459 -->
<g id="node3" class="node"><title>Node1459</title>
<g id="a_node3"><a xlink:href="$a00954.html#a555f2ae3f4e5561c9b1ef592bf0f8476" xlink:title="wspacemalloc">
<polygon fill="white" stroke="black" points="240.5,-57.5 240.5,-76.5 319.5,-76.5 319.5,-57.5 240.5,-57.5"/>
<text text-anchor="middle" x="280" y="-64.5" font-family="Helvetica,sans-Serif" font-size="10.00">wspacemalloc</text>
</a>
</g>
</g>
<!-- Node1458&#45;&gt;Node1459 -->
<g id="edge2" class="edge"><title>Node1458&#45;&gt;Node1459</title>
<path fill="none" stroke="midnightblue" d="M213.705,-67C222.731,-67 231.936,-67 240.48,-67"/>
<polygon fill="midnightblue" stroke="midnightblue" points="213.636,-63.5001 203.635,-67 213.635,-70.5001 213.636,-63.5001"/>
</g>
<!-- Node1460 -->
<g id="node4" class="node"><title>Node1460</title>
<g id="a_node4"><a xlink:href="$a00984.html#a24ba749ade92aef079e88d233317c068" xlink:title="iwspacemalloc">
<polygon fill="white" stroke="black" points="362,-114.5 362,-133.5 444,-133.5 444,-114.5 362,-114.5"/>
<text text-anchor="middle" x="403" y="-121.5" font-family="Helvetica,sans-Serif" font-size="10.00">iwspacemalloc</text>
</a>
</g>
</g>
<!-- Node1459&#45;&gt;Node1460 -->
<g id="edge3" class="edge"><title>Node1459&#45;&gt;Node1460</title>
<path fill="none" stroke="midnightblue" d="M308.16,-81.3986C322.297,-88.7304 339.94,-97.628 356,-105 363.067,-108.244 370.851,-111.556 377.974,-114.486"/>
<polygon fill="midnightblue" stroke="midnightblue" points="309.479,-78.1391 298.995,-76.611 306.238,-84.3435 309.479,-78.1391"/>
</g>
<!-- Node1461 -->
<g id="node5" class="node"><title>Node1461</title>
<g id="a_node5"><a xlink:href="$a00984.html#a194ce386758eefa7996960b928c5d0aa" xlink:title="rwspacemalloc">
<polygon fill="white" stroke="black" points="361.5,-76.5 361.5,-95.5 444.5,-95.5 444.5,-76.5 361.5,-76.5"/>
<text text-anchor="middle" x="403" y="-83.5" font-family="Helvetica,sans-Serif" font-size="10.00">rwspacemalloc</text>
</a>
</g>
</g>
<!-- Node1459&#45;&gt;Node1461 -->
<g id="edge4" class="edge"><title>Node1459&#45;&gt;Node1461</title>
<path fill="none" stroke="midnightblue" d="M329.508,-74.617C340.031,-76.2693 351.058,-78.0008 361.246,-79.6006"/>
<polygon fill="midnightblue" stroke="midnightblue" points="330.04,-71.1576 319.618,-73.064 328.954,-78.0729 330.04,-71.1576"/>
</g>
<!-- Node1462 -->
<g id="node6" class="node"><title>Node1462</title>
<g id="a_node6"><a xlink:href="$a00984.html#a84ec1bdf52bc3f92ae3f2e43c42545ca" xlink:title="ikvwspacemalloc">
<polygon fill="white" stroke="black" points="357,-38.5 357,-57.5 449,-57.5 449,-38.5 357,-38.5"/>
<text text-anchor="middle" x="403" y="-45.5" font-family="Helvetica,sans-Serif" font-size="10.00">ikvwspacemalloc</text>
</a>
</g>
</g>
<!-- Node1459&#45;&gt;Node1462 -->
<g id="edge5" class="edge"><title>Node1459&#45;&gt;Node1462</title>
<path fill="none" stroke="midnightblue" d="M329.505,-59.3835C338.438,-57.9809 347.734,-56.5212 356.572,-55.1334"/>
<polygon fill="midnightblue" stroke="midnightblue" points="328.954,-55.9271 319.618,-60.936 330.04,-62.8424 328.954,-55.9271"/>
</g>
<!-- Node1463 -->
<g id="node7" class="node"><title>Node1463</title>
<g id="a_node7"><a xlink:href="$a00987.html#adfa1dc5e723d63f32672d993e3f52e4f" xlink:title="rkvwspacemalloc">
<polygon fill="white" stroke="black" points="356.5,-0.5 356.5,-19.5 449.5,-19.5 449.5,-0.5 356.5,-0.5"/>
<text text-anchor="middle" x="403" y="-7.5" font-family="Helvetica,sans-Serif" font-size="10.00">rkvwspacemalloc</text>
</a>
</g>
</g>
<!-- Node1459&#45;&gt;Node1463 -->
<g id="edge6" class="edge"><title>Node1459&#45;&gt;Node1463</title>
<path fill="none" stroke="midnightblue" d="M310.134,-52.934C313.469,-51.2862 316.814,-49.6164 320,-48 336.134,-39.8149 339.621,-36.684 356,-29 362.884,-25.7705 370.47,-22.5162 377.463,-19.6357"/>
<polygon fill="midnightblue" stroke="midnightblue" points="308.342,-49.9147 300.902,-57.4575 311.422,-56.2008 308.342,-49.9147"/>
</g>
<!-- Node1465 -->
<g id="node9" class="node"><title>Node1465</title>
<g id="a_node9"><a xlink:href="$a00984.html#a90d838f5af71d196b117d443432e4646" xlink:title="wspacepush">
<polygon fill="white" stroke="black" points="244,-19.5 244,-38.5 316,-38.5 316,-19.5 244,-19.5"/>
<text text-anchor="middle" x="280" y="-26.5" font-family="Helvetica,sans-Serif" font-size="10.00">wspacepush</text>
</a>
</g>
</g>
<!-- Node1464&#45;&gt;Node1465 -->
<g id="edge8" class="edge"><title>Node1464&#45;&gt;Node1465</title>
<path fill="none" stroke="midnightblue" d="M210.678,-29C221.809,-29 233.361,-29 243.729,-29"/>
<polygon fill="midnightblue" stroke="midnightblue" points="210.62,-25.5001 200.62,-29 210.62,-32.5001 210.62,-25.5001"/>
</g>
</g>
</svg>
