<?xml version="1.0" encoding="UTF-8" standalone="no"?>
<!DOCTYPE svg PUBLIC "-//W3C//DTD SVG 1.1//EN"
 "http://www.w3.org/Graphics/SVG/1.1/DTD/svg11.dtd">
<!-- Generated by graphviz version 2.36.0 (20140111.2315)
 -->
<!-- Title: HTable_Insert Pages: 1 -->
<svg width="210pt" height="28pt"
 viewBox="0.00 0.00 210.00 28.00" xmlns="http://www.w3.org/2000/svg" xmlns:xlink="http://www.w3.org/1999/xlink">
<g id="graph0" class="graph" transform="scale(1 1) rotate(0) translate(4 24)">
<title>HTable_Insert</title>
<polygon fill="white" stroke="none" points="-4,4 -4,-24 206,-24 206,4 -4,4"/>
<!-- Node30 -->
<g id="node1" class="node"><title>Node30</title>
<polygon fill="#bfbfbf" stroke="black" points="0.5,-0.5 0.5,-19.5 79.5,-19.5 79.5,-0.5 0.5,-0.5"/>
<text text-anchor="middle" x="40" y="-7.5" font-family="Helvetica,sans-Serif" font-size="10.00">HTable_Insert</text>
</g>
<!-- Node31 -->
<g id="node2" class="node"><title>Node31</title>
<g id="a_node2"><a xlink:href="$a00098.html#ad79cb786b03a73481fb3e5846d345801" xlink:title="HTable_Resize">
<polygon fill="white" stroke="black" points="116.5,-0.5 116.5,-19.5 201.5,-19.5 201.5,-0.5 116.5,-0.5"/>
<text text-anchor="middle" x="159" y="-7.5" font-family="Helvetica,sans-Serif" font-size="10.00">HTable_Resize</text>
</a>
</g>
</g>
<!-- Node30&#45;&gt;Node31 -->
<g id="edge1" class="edge"><title>Node30&#45;&gt;Node31</title>
<path fill="none" stroke="midnightblue" d="M89.7558,-3.33393C98.5376,-3.18138 107.621,-3.23679 116.184,-3.50014"/>
<polygon fill="midnightblue" stroke="midnightblue" points="89.5358,0.161488 79.6344,-3.60853 89.7257,-6.83594 89.5358,0.161488"/>
</g>
<!-- Node31&#45;&gt;Node30 -->
<g id="edge2" class="edge"><title>Node31&#45;&gt;Node30</title>
<path fill="none" stroke="midnightblue" d="M105.942,-16.7135C97.0975,-16.8141 88.0545,-16.7068 79.6344,-16.3915"/>
<polygon fill="midnightblue" stroke="midnightblue" points="106.259,-20.2077 116.184,-16.4999 106.113,-13.2093 106.259,-20.2077"/>
</g>
</g>
</svg>
