<?xml version="1.0" encoding="UTF-8" standalone="no"?>
<!DOCTYPE svg PUBLIC "-//W3C//DTD SVG 1.1//EN"
 "http://www.w3.org/Graphics/SVG/1.1/DTD/svg11.dtd">
<!-- Generated by graphviz version 2.36.0 (20140111.2315)
 -->
<!-- Title: gk_csr_Free Pages: 1 -->
<svg width="404pt" height="268pt"
 viewBox="0.00 0.00 404.00 268.00" xmlns="http://www.w3.org/2000/svg" xmlns:xlink="http://www.w3.org/1999/xlink">
<g id="graph0" class="graph" transform="scale(1 1) rotate(0) translate(4 264)">
<title>gk_csr_Free</title>
<polygon fill="white" stroke="none" points="-4,4 -4,-264 400,-264 400,4 -4,4"/>
<!-- Node86 -->
<g id="node1" class="node"><title>Node86</title>
<polygon fill="#bfbfbf" stroke="black" points="0,-126.5 0,-145.5 72,-145.5 72,-126.5 0,-126.5"/>
<text text-anchor="middle" x="36" y="-133.5" font-family="Helvetica,sans-Serif" font-size="10.00">gk_csr_Free</text>
</g>
<!-- Node87 -->
<g id="node2" class="node"><title>Node87</title>
<g id="a_node2"><a xlink:href="$a00077.html#a06edc174c5986841b589900ffce6600f" xlink:title="gk_csr_Prune">
<polygon fill="white" stroke="black" points="128,-240.5 128,-259.5 206,-259.5 206,-240.5 128,-240.5"/>
<text text-anchor="middle" x="167" y="-247.5" font-family="Helvetica,sans-Serif" font-size="10.00">gk_csr_Prune</text>
</a>
</g>
</g>
<!-- Node86&#45;&gt;Node87 -->
<g id="edge1" class="edge"><title>Node86&#45;&gt;Node87</title>
<path fill="none" stroke="midnightblue" d="M46.37,-154.677C58.0176,-176.075 79.8456,-210.782 108,-231 113.939,-235.265 120.889,-238.611 127.876,-241.223"/>
<polygon fill="midnightblue" stroke="midnightblue" points="49.364,-152.85 41.6174,-145.622 43.1659,-156.103 49.364,-152.85"/>
</g>
<!-- Node88 -->
<g id="node3" class="node"><title>Node88</title>
<g id="a_node3"><a xlink:href="$a00077.html#a66729af11e7dee3585d6191661757c37" xlink:title="gk_csr_LowFilter">
<polygon fill="white" stroke="black" points="121,-202.5 121,-221.5 213,-221.5 213,-202.5 121,-202.5"/>
<text text-anchor="middle" x="167" y="-209.5" font-family="Helvetica,sans-Serif" font-size="10.00">gk_csr_LowFilter</text>
</a>
</g>
</g>
<!-- Node86&#45;&gt;Node88 -->
<g id="edge2" class="edge"><title>Node86&#45;&gt;Node88</title>
<path fill="none" stroke="midnightblue" d="M54.3595,-152.933C67.9971,-165.455 87.9732,-182.15 108,-193 114.801,-196.685 122.44,-199.813 129.885,-202.402"/>
<polygon fill="midnightblue" stroke="midnightblue" points="56.4243,-150.07 46.7435,-145.765 51.6267,-155.168 56.4243,-150.07"/>
</g>
<!-- Node89 -->
<g id="node4" class="node"><title>Node89</title>
<g id="a_node4"><a xlink:href="$a00077.html#ad6f2c5699b47e1bc2285a1b391d7c7da" xlink:title="gk_csr_TopKPlusFilter">
<polygon fill="white" stroke="black" points="108.5,-164.5 108.5,-183.5 225.5,-183.5 225.5,-164.5 108.5,-164.5"/>
<text text-anchor="middle" x="167" y="-171.5" font-family="Helvetica,sans-Serif" font-size="10.00">gk_csr_TopKPlusFilter</text>
</a>
</g>
</g>
<!-- Node86&#45;&gt;Node89 -->
<g id="edge3" class="edge"><title>Node86&#45;&gt;Node89</title>
<path fill="none" stroke="midnightblue" d="M79.554,-148.535C97.103,-153.705 117.113,-159.599 133.458,-164.414"/>
<polygon fill="midnightblue" stroke="midnightblue" points="80.1336,-145.057 69.5521,-145.589 78.1556,-151.772 80.1336,-145.057"/>
</g>
<!-- Node90 -->
<g id="node5" class="node"><title>Node90</title>
<g id="a_node5"><a xlink:href="$a00077.html#a193f32ef7dd91c2c633157bafea26080" xlink:title="gk_csr_ZScoreFilter">
<polygon fill="white" stroke="black" points="114,-126.5 114,-145.5 220,-145.5 220,-126.5 114,-126.5"/>
<text text-anchor="middle" x="167" y="-133.5" font-family="Helvetica,sans-Serif" font-size="10.00">gk_csr_ZScoreFilter</text>
</a>
</g>
</g>
<!-- Node86&#45;&gt;Node90 -->
<g id="edge4" class="edge"><title>Node86&#45;&gt;Node90</title>
<path fill="none" stroke="midnightblue" d="M82.5171,-136C92.6535,-136 103.477,-136 113.856,-136"/>
<polygon fill="midnightblue" stroke="midnightblue" points="82.2499,-132.5 72.2498,-136 82.2498,-139.5 82.2499,-132.5"/>
</g>
<!-- Node91 -->
<g id="node6" class="node"><title>Node91</title>
<g id="a_node6"><a xlink:href="$a00104.html#abc9e8f6a3efe2f0f3ec79b5d8883b246" xlink:title="gk_find_frequent_itemsets">
<polygon fill="white" stroke="black" points="262,-66.5 262,-85.5 396,-85.5 396,-66.5 262,-66.5"/>
<text text-anchor="middle" x="329" y="-73.5" font-family="Helvetica,sans-Serif" font-size="10.00">gk_find_frequent_itemsets</text>
</a>
</g>
</g>
<!-- Node86&#45;&gt;Node91 -->
<g id="edge5" class="edge"><title>Node86&#45;&gt;Node91</title>
<path fill="none" stroke="midnightblue" d="M80.1583,-123.88C89.3174,-121.469 98.9524,-119.05 108,-117 162.563,-104.634 225.352,-93.2074 269.849,-85.5757"/>
<polygon fill="midnightblue" stroke="midnightblue" points="79.2117,-120.51 70.4567,-126.477 81.0217,-127.272 79.2117,-120.51"/>
</g>
<!-- Node92 -->
<g id="node7" class="node"><title>Node92</title>
<g id="a_node7"><a xlink:href="$a00104.html#ab19ae99e1e3ba575373cf0fe846a8cd9" xlink:title="itemsets_find_frequent\l_itemsets">
<polygon fill="white" stroke="black" points="108,-39 108,-69 226,-69 226,-39 108,-39"/>
<text text-anchor="start" x="116" y="-57" font-family="Helvetica,sans-Serif" font-size="10.00">itemsets_find_frequent</text>
<text text-anchor="middle" x="167" y="-46" font-family="Helvetica,sans-Serif" font-size="10.00">_itemsets</text>
</a>
</g>
</g>
<!-- Node86&#45;&gt;Node92 -->
<g id="edge6" class="edge"><title>Node86&#45;&gt;Node92</title>
<path fill="none" stroke="midnightblue" d="M56.8347,-120.189C70.7629,-109.41 90.0387,-95.1297 108,-84 116.48,-78.7453 125.984,-73.5582 134.805,-69.0133"/>
<polygon fill="midnightblue" stroke="midnightblue" points="54.6312,-117.469 48.9131,-126.388 58.9453,-122.982 54.6312,-117.469"/>
</g>
<!-- Node93 -->
<g id="node8" class="node"><title>Node93</title>
<g id="a_node8"><a xlink:href="$a00867.html#a0ddf1224851353fc92bfbff6f499fa97" xlink:title="main">
<polygon fill="white" stroke="black" points="148,-0.5 148,-19.5 186,-19.5 186,-0.5 148,-0.5"/>
<text text-anchor="middle" x="167" y="-7.5" font-family="Helvetica,sans-Serif" font-size="10.00">main</text>
</a>
</g>
</g>
<!-- Node86&#45;&gt;Node93 -->
<g id="edge8" class="edge"><title>Node86&#45;&gt;Node93</title>
<path fill="none" stroke="midnightblue" d="M45.0767,-116.957C56.0226,-93.3274 77.7346,-53.3121 108,-30 119.645,-21.0305 135.589,-15.9195 147.814,-13.1134"/>
<polygon fill="midnightblue" stroke="midnightblue" points="41.8031,-115.705 40.9317,-126.263 48.1975,-118.553 41.8031,-115.705"/>
</g>
<!-- Node92&#45;&gt;Node91 -->
<g id="edge7" class="edge"><title>Node92&#45;&gt;Node91</title>
<path fill="none" stroke="midnightblue" d="M236.15,-63.3707C244.705,-64.547 253.446,-65.7488 261.967,-66.9205"/>
<polygon fill="midnightblue" stroke="midnightblue" points="236.6,-59.8996 226.216,-62.0047 235.646,-66.8344 236.6,-59.8996"/>
</g>
</g>
</svg>
