<?xml version="1.0" encoding="UTF-8" standalone="no"?>
<!DOCTYPE svg PUBLIC "-//W3C//DTD SVG 1.1//EN"
 "http://www.w3.org/Graphics/SVG/1.1/DTD/svg11.dtd">
<!-- Generated by graphviz version 2.36.0 (20140111.2315)
 -->
<!-- Title: ArcSyn3sis/3rdParty/parmetis&#45;4.0.3/metis/GKlib/GKlib.h Pages: 1 -->
<svg width="2603pt" height="162pt"
 viewBox="0.00 0.00 2603.00 162.00" xmlns="http://www.w3.org/2000/svg" xmlns:xlink="http://www.w3.org/1999/xlink">
<g id="graph0" class="graph" transform="scale(1 1) rotate(0) translate(4 158)">
<title>ArcSyn3sis/3rdParty/parmetis&#45;4.0.3/metis/GKlib/GKlib.h</title>
<polygon fill="white" stroke="none" points="-4,4 -4,-158 2599,-158 2599,4 -4,4"/>
<!-- Node0 -->
<g id="node1" class="node"><title>Node0</title>
<polygon fill="#bfbfbf" stroke="black" points="1141,-112.5 1141,-153.5 1251,-153.5 1251,-112.5 1141,-112.5"/>
<text text-anchor="start" x="1149" y="-141.5" font-family="Helvetica,sans-Serif" font-size="10.00">ArcSyn3sis/3rdParty</text>
<text text-anchor="start" x="1149" y="-130.5" font-family="Helvetica,sans-Serif" font-size="10.00">/parmetis&#45;4.0.3/metis</text>
<text text-anchor="middle" x="1196" y="-119.5" font-family="Helvetica,sans-Serif" font-size="10.00">/GKlib/GKlib.h</text>
</g>
<!-- Node1 -->
<g id="node2" class="node"><title>Node1</title>
<g id="a_node2"><a xlink:href="$a00041.html" xlink:title="This file contains various architecture&#45;specific declerations. ">
<polygon fill="white" stroke="black" points="147,-56.5 147,-75.5 207,-75.5 207,-56.5 147,-56.5"/>
<text text-anchor="middle" x="177" y="-63.5" font-family="Helvetica,sans-Serif" font-size="10.00">gk_arch.h</text>
</a>
</g>
</g>
<!-- Node0&#45;&gt;Node1 -->
<g id="edge1" class="edge"><title>Node0&#45;&gt;Node1</title>
<path fill="none" stroke="midnightblue" d="M1140.96,-132.117C992.845,-131.735 573.513,-126.07 217.133,-75.9081"/>
<polygon fill="midnightblue" stroke="midnightblue" points="217.532,-72.4297 207.138,-74.4872 216.546,-79.36 217.532,-72.4297"/>
</g>
<!-- Node7 -->
<g id="node8" class="node"><title>Node7</title>
<polygon fill="white" stroke="#bfbfbf" points="225,-56.5 225,-75.5 277,-75.5 277,-56.5 225,-56.5"/>
<text text-anchor="middle" x="251" y="-63.5" font-family="Helvetica,sans-Serif" font-size="10.00">stddef.h</text>
</g>
<!-- Node0&#45;&gt;Node7 -->
<g id="edge7" class="edge"><title>Node0&#45;&gt;Node7</title>
<path fill="none" stroke="midnightblue" d="M1140.99,-132.243C1000.13,-132.092 615.105,-126.802 287.427,-75.9203"/>
<polygon fill="midnightblue" stroke="midnightblue" points="287.683,-72.4177 277.261,-74.3241 286.597,-79.333 287.683,-72.4177"/>
</g>
<!-- Node8 -->
<g id="node9" class="node"><title>Node8</title>
<polygon fill="white" stroke="#bfbfbf" points="295,-56.5 295,-75.5 343,-75.5 343,-56.5 295,-56.5"/>
<text text-anchor="middle" x="319" y="-63.5" font-family="Helvetica,sans-Serif" font-size="10.00">stdlib.h</text>
</g>
<!-- Node0&#45;&gt;Node8 -->
<g id="edge8" class="edge"><title>Node0&#45;&gt;Node8</title>
<path fill="none" stroke="midnightblue" d="M1140.85,-131.992C1005.62,-131.183 647.191,-124.247 353,-76 352.898,-75.9833 352.796,-75.9665 352.695,-75.9495"/>
<polygon fill="midnightblue" stroke="midnightblue" points="353.521,-72.5461 343.022,-73.9709 352.118,-79.404 353.521,-72.5461"/>
</g>
<!-- Node9 -->
<g id="node10" class="node"><title>Node9</title>
<polygon fill="white" stroke="#bfbfbf" points="361.5,-56.5 361.5,-75.5 414.5,-75.5 414.5,-56.5 361.5,-56.5"/>
<text text-anchor="middle" x="388" y="-63.5" font-family="Helvetica,sans-Serif" font-size="10.00">stdarg.h</text>
</g>
<!-- Node0&#45;&gt;Node9 -->
<g id="edge9" class="edge"><title>Node0&#45;&gt;Node9</title>
<path fill="none" stroke="midnightblue" d="M1140.87,-131.258C1015.26,-128.868 698.243,-118.879 424.749,-75.8134"/>
<polygon fill="midnightblue" stroke="midnightblue" points="425.057,-72.3183 414.63,-74.2016 423.955,-79.2312 425.057,-72.3183"/>
</g>
<!-- Node10 -->
<g id="node11" class="node"><title>Node10</title>
<polygon fill="white" stroke="#bfbfbf" points="433,-56.5 433,-75.5 479,-75.5 479,-56.5 433,-56.5"/>
<text text-anchor="middle" x="456" y="-63.5" font-family="Helvetica,sans-Serif" font-size="10.00">stdio.h</text>
</g>
<!-- Node0&#45;&gt;Node10 -->
<g id="edge10" class="edge"><title>Node0&#45;&gt;Node10</title>
<path fill="none" stroke="midnightblue" d="M1140.91,-131.291C1022.75,-128.985 736.327,-119.195 489.18,-75.874"/>
<polygon fill="midnightblue" stroke="midnightblue" points="489.754,-72.4212 479.296,-74.1196 488.531,-79.3135 489.754,-72.4212"/>
</g>
<!-- Node11 -->
<g id="node12" class="node"><title>Node11</title>
<polygon fill="white" stroke="#bfbfbf" points="497,-56.5 497,-75.5 545,-75.5 545,-56.5 497,-56.5"/>
<text text-anchor="middle" x="521" y="-63.5" font-family="Helvetica,sans-Serif" font-size="10.00">errno.h</text>
</g>
<!-- Node0&#45;&gt;Node11 -->
<g id="edge11" class="edge"><title>Node0&#45;&gt;Node11</title>
<path fill="none" stroke="midnightblue" d="M1140.71,-130.362C1029.18,-126.357 769.582,-113.488 555,-76 554.898,-75.9823 554.797,-75.9644 554.695,-75.9463"/>
<polygon fill="midnightblue" stroke="midnightblue" points="555.54,-72.5476 545.033,-73.9077 554.095,-79.3968 555.54,-72.5476"/>
</g>
<!-- Node12 -->
<g id="node13" class="node"><title>Node12</title>
<polygon fill="white" stroke="#bfbfbf" points="563.5,-56.5 563.5,-75.5 612.5,-75.5 612.5,-56.5 563.5,-56.5"/>
<text text-anchor="middle" x="588" y="-63.5" font-family="Helvetica,sans-Serif" font-size="10.00">ctype.h</text>
</g>
<!-- Node0&#45;&gt;Node12 -->
<g id="edge12" class="edge"><title>Node0&#45;&gt;Node12</title>
<path fill="none" stroke="midnightblue" d="M1140.99,-129.593C1039.99,-124.53 818.233,-110.431 622.66,-75.8242"/>
<polygon fill="midnightblue" stroke="midnightblue" points="623.239,-72.3723 612.779,-74.054 622.005,-79.2626 623.239,-72.3723"/>
</g>
<!-- Node13 -->
<g id="node14" class="node"><title>Node13</title>
<polygon fill="white" stroke="#bfbfbf" points="630.5,-56.5 630.5,-75.5 677.5,-75.5 677.5,-56.5 630.5,-56.5"/>
<text text-anchor="middle" x="654" y="-63.5" font-family="Helvetica,sans-Serif" font-size="10.00">math.h</text>
</g>
<!-- Node0&#45;&gt;Node13 -->
<g id="edge13" class="edge"><title>Node0&#45;&gt;Node13</title>
<path fill="none" stroke="midnightblue" d="M1140.97,-128.781C1048.95,-122.78 857.988,-107.687 687.589,-75.8132"/>
<polygon fill="midnightblue" stroke="midnightblue" points="688.166,-72.3604 677.689,-73.9379 686.863,-79.2381 688.166,-72.3604"/>
</g>
<!-- Node14 -->
<g id="node15" class="node"><title>Node14</title>
<polygon fill="white" stroke="#bfbfbf" points="696,-56.5 696,-75.5 740,-75.5 740,-56.5 696,-56.5"/>
<text text-anchor="middle" x="718" y="-63.5" font-family="Helvetica,sans-Serif" font-size="10.00">float.h</text>
</g>
<!-- Node0&#45;&gt;Node14 -->
<g id="edge14" class="edge"><title>Node0&#45;&gt;Node14</title>
<path fill="none" stroke="midnightblue" d="M1140.84,-127.911C1057.89,-121.143 896.073,-105.541 750.269,-75.9746"/>
<polygon fill="midnightblue" stroke="midnightblue" points="750.745,-72.4994 740.246,-73.9144 749.336,-79.3561 750.745,-72.4994"/>
</g>
<!-- Node15 -->
<g id="node16" class="node"><title>Node15</title>
<polygon fill="white" stroke="#bfbfbf" points="758,-56.5 758,-75.5 802,-75.5 802,-56.5 758,-56.5"/>
<text text-anchor="middle" x="780" y="-63.5" font-family="Helvetica,sans-Serif" font-size="10.00">time.h</text>
</g>
<!-- Node0&#45;&gt;Node15 -->
<g id="edge15" class="edge"><title>Node0&#45;&gt;Node15</title>
<path fill="none" stroke="midnightblue" d="M1140.92,-126.236C1067.96,-118.101 935.216,-101.561 812.255,-75.7806"/>
<polygon fill="midnightblue" stroke="midnightblue" points="812.797,-72.3177 802.288,-73.6658 811.344,-79.1653 812.797,-72.3177"/>
</g>
<!-- Node16 -->
<g id="node17" class="node"><title>Node16</title>
<polygon fill="white" stroke="#bfbfbf" points="820.5,-56.5 820.5,-75.5 869.5,-75.5 869.5,-56.5 820.5,-56.5"/>
<text text-anchor="middle" x="845" y="-63.5" font-family="Helvetica,sans-Serif" font-size="10.00">string.h</text>
</g>
<!-- Node0&#45;&gt;Node16 -->
<g id="edge16" class="edge"><title>Node0&#45;&gt;Node16</title>
<path fill="none" stroke="midnightblue" d="M1140.75,-123.681C1079.38,-114.119 977.212,-97.2448 879.837,-76.0294"/>
<polygon fill="midnightblue" stroke="midnightblue" points="880.342,-72.5568 869.824,-73.8283 878.839,-79.3936 880.342,-72.5568"/>
</g>
<!-- Node17 -->
<g id="node18" class="node"><title>Node17</title>
<polygon fill="white" stroke="#bfbfbf" points="888,-56.5 888,-75.5 936,-75.5 936,-56.5 888,-56.5"/>
<text text-anchor="middle" x="912" y="-63.5" font-family="Helvetica,sans-Serif" font-size="10.00">limits.h</text>
</g>
<!-- Node0&#45;&gt;Node17 -->
<g id="edge17" class="edge"><title>Node0&#45;&gt;Node17</title>
<path fill="none" stroke="midnightblue" d="M1140.75,-120.261C1089.99,-109.327 1012.76,-92.3058 946,-76 945.9,-75.9756 945.8,-75.951 945.699,-75.9264"/>
<polygon fill="midnightblue" stroke="midnightblue" points="946.669,-72.5617 936.117,-73.5062 944.955,-79.3485 946.669,-72.5617"/>
</g>
<!-- Node18 -->
<g id="node19" class="node"><title>Node18</title>
<polygon fill="white" stroke="#bfbfbf" points="954.5,-56.5 954.5,-75.5 1005.5,-75.5 1005.5,-56.5 954.5,-56.5"/>
<text text-anchor="middle" x="980" y="-63.5" font-family="Helvetica,sans-Serif" font-size="10.00">signal.h</text>
</g>
<!-- Node0&#45;&gt;Node18 -->
<g id="edge18" class="edge"><title>Node0&#45;&gt;Node18</title>
<path fill="none" stroke="midnightblue" d="M1140.94,-115.43C1101.52,-103.567 1049.6,-87.9437 1015.53,-77.6931"/>
<polygon fill="midnightblue" stroke="midnightblue" points="1016.15,-74.2247 1005.57,-74.6945 1014.14,-80.9278 1016.15,-74.2247"/>
</g>
<!-- Node19 -->
<g id="node20" class="node"><title>Node19</title>
<polygon fill="white" stroke="#bfbfbf" points="1024,-56.5 1024,-75.5 1078,-75.5 1078,-56.5 1024,-56.5"/>
<text text-anchor="middle" x="1051" y="-63.5" font-family="Helvetica,sans-Serif" font-size="10.00">setjmp.h</text>
</g>
<!-- Node0&#45;&gt;Node19 -->
<g id="edge19" class="edge"><title>Node0&#45;&gt;Node19</title>
<path fill="none" stroke="midnightblue" d="M1152.5,-112.498C1128.87,-101.909 1100.34,-89.1169 1079.55,-79.7968"/>
<polygon fill="midnightblue" stroke="midnightblue" points="1080.86,-76.5493 1070.3,-75.6525 1078,-82.9369 1080.86,-76.5493"/>
</g>
<!-- Node20 -->
<g id="node21" class="node"><title>Node20</title>
<polygon fill="white" stroke="#bfbfbf" points="1096,-56.5 1096,-75.5 1148,-75.5 1148,-56.5 1096,-56.5"/>
<text text-anchor="middle" x="1122" y="-63.5" font-family="Helvetica,sans-Serif" font-size="10.00">assert.h</text>
</g>
<!-- Node0&#45;&gt;Node20 -->
<g id="edge20" class="edge"><title>Node0&#45;&gt;Node20</title>
<path fill="none" stroke="midnightblue" d="M1173.8,-112.498C1162.78,-102.82 1149.66,-91.3002 1139.39,-82.274"/>
<polygon fill="midnightblue" stroke="midnightblue" points="1141.67,-79.6223 1131.85,-75.6525 1137.05,-84.8816 1141.67,-79.6223"/>
</g>
<!-- Node21 -->
<g id="node22" class="node"><title>Node21</title>
<polygon fill="white" stroke="#bfbfbf" points="1166.5,-56.5 1166.5,-75.5 1225.5,-75.5 1225.5,-56.5 1166.5,-56.5"/>
<text text-anchor="middle" x="1196" y="-63.5" font-family="Helvetica,sans-Serif" font-size="10.00">sys/stat.h</text>
</g>
<!-- Node0&#45;&gt;Node21 -->
<g id="edge21" class="edge"><title>Node0&#45;&gt;Node21</title>
<path fill="none" stroke="midnightblue" d="M1196,-112.498C1196,-104.065 1196,-94.2351 1196,-85.874"/>
<polygon fill="midnightblue" stroke="midnightblue" points="1199.5,-85.6525 1196,-75.6525 1192.5,-85.6525 1199.5,-85.6525"/>
</g>
<!-- Node22 -->
<g id="node23" class="node"><title>Node22</title>
<polygon fill="white" stroke="#bfbfbf" points="1244,-56.5 1244,-75.5 1294,-75.5 1294,-56.5 1244,-56.5"/>
<text text-anchor="middle" x="1269" y="-63.5" font-family="Helvetica,sans-Serif" font-size="10.00">regex.h</text>
</g>
<!-- Node0&#45;&gt;Node22 -->
<g id="edge22" class="edge"><title>Node0&#45;&gt;Node22</title>
<path fill="none" stroke="midnightblue" d="M1217.9,-112.498C1228.66,-102.915 1241.45,-91.5281 1251.54,-82.5428"/>
<polygon fill="midnightblue" stroke="midnightblue" points="1254.14,-84.9165 1259.28,-75.6525 1249.49,-79.6885 1254.14,-84.9165"/>
</g>
<!-- Node23 -->
<g id="node24" class="node"><title>Node23</title>
<g id="a_node24"><a xlink:href="$a00083.html" xlink:title="This file contains basic scalar datatype used in GKlib. ">
<polygon fill="white" stroke="black" points="1312.5,-56.5 1312.5,-75.5 1377.5,-75.5 1377.5,-56.5 1312.5,-56.5"/>
<text text-anchor="middle" x="1345" y="-63.5" font-family="Helvetica,sans-Serif" font-size="10.00">gk_types.h</text>
</a>
</g>
</g>
<!-- Node0&#45;&gt;Node23 -->
<g id="edge23" class="edge"><title>Node0&#45;&gt;Node23</title>
<path fill="none" stroke="midnightblue" d="M1240.7,-112.498C1265.09,-101.861 1294.57,-89.001 1315.96,-79.6705"/>
<polygon fill="midnightblue" stroke="midnightblue" points="1317.4,-82.8591 1325.17,-75.6525 1314.6,-76.443 1317.4,-82.8591"/>
</g>
<!-- Node24 -->
<g id="node25" class="node"><title>Node24</title>
<g id="a_node25"><a xlink:href="$a00080.html" xlink:title="This file contains various datastructures used/provided by GKlib. ">
<polygon fill="white" stroke="black" points="1395.5,-56.5 1395.5,-75.5 1460.5,-75.5 1460.5,-56.5 1395.5,-56.5"/>
<text text-anchor="middle" x="1428" y="-63.5" font-family="Helvetica,sans-Serif" font-size="10.00">gk_struct.h</text>
</a>
</g>
</g>
<!-- Node0&#45;&gt;Node24 -->
<g id="edge24" class="edge"><title>Node0&#45;&gt;Node24</title>
<path fill="none" stroke="midnightblue" d="M1251.28,-116.513C1293.35,-104.725 1350.27,-88.7769 1388.01,-78.2028"/>
<polygon fill="midnightblue" stroke="midnightblue" points="1388.96,-81.5717 1397.65,-75.5036 1387.08,-74.8313 1388.96,-81.5717"/>
</g>
<!-- Node25 -->
<g id="node26" class="node"><title>Node25</title>
<g id="a_node26"><a xlink:href="$a00047.html" xlink:title="This file contains definitions of external variables created by GKlib. ">
<polygon fill="white" stroke="black" points="1479,-56.5 1479,-75.5 1553,-75.5 1553,-56.5 1479,-56.5"/>
<text text-anchor="middle" x="1516" y="-63.5" font-family="Helvetica,sans-Serif" font-size="10.00">gk_externs.h</text>
</a>
</g>
</g>
<!-- Node0&#45;&gt;Node25 -->
<g id="edge25" class="edge"><title>Node0&#45;&gt;Node25</title>
<path fill="none" stroke="midnightblue" d="M1251.01,-120.826C1312.37,-108.362 1410.62,-88.4057 1468.67,-76.613"/>
<polygon fill="midnightblue" stroke="midnightblue" points="1469.58,-80.0012 1478.68,-74.5805 1468.18,-73.1413 1469.58,-80.0012"/>
</g>
<!-- Node26 -->
<g id="node27" class="node"><title>Node26</title>
<g id="a_node27"><a xlink:href="$a00044.html" xlink:title="This file contains various constants definitions. ">
<polygon fill="white" stroke="black" points="1571,-56.5 1571,-75.5 1631,-75.5 1631,-56.5 1571,-56.5"/>
<text text-anchor="middle" x="1601" y="-63.5" font-family="Helvetica,sans-Serif" font-size="10.00">gk_defs.h</text>
</a>
</g>
</g>
<!-- Node0&#45;&gt;Node26 -->
<g id="edge26" class="edge"><title>Node0&#45;&gt;Node26</title>
<path fill="none" stroke="midnightblue" d="M1251.1,-124.881C1320.88,-115.573 1445.02,-98.0467 1560.72,-76.1289"/>
<polygon fill="midnightblue" stroke="midnightblue" points="1561.65,-79.5152 1570.81,-74.2014 1560.33,-72.6394 1561.65,-79.5152"/>
</g>
<!-- Node27 -->
<g id="node28" class="node"><title>Node27</title>
<g id="a_node28"><a xlink:href="$a00053.html" xlink:title="This file contains various macros. ">
<polygon fill="white" stroke="black" points="1649,-56.5 1649,-75.5 1723,-75.5 1723,-56.5 1649,-56.5"/>
<text text-anchor="middle" x="1686" y="-63.5" font-family="Helvetica,sans-Serif" font-size="10.00">gk_macros.h</text>
</a>
</g>
</g>
<!-- Node0&#45;&gt;Node27 -->
<g id="edge27" class="edge"><title>Node0&#45;&gt;Node27</title>
<path fill="none" stroke="midnightblue" d="M1251.2,-126.254C1333.44,-117.426 1493.2,-99.2452 1638.86,-76.0902"/>
<polygon fill="midnightblue" stroke="midnightblue" points="1639.56,-79.5233 1648.88,-74.4863 1638.45,-72.6114 1639.56,-79.5233"/>
</g>
<!-- Node28 -->
<g id="node29" class="node"><title>Node28</title>
<g id="a_node29"><a xlink:href="$a00050.html" xlink:title="This file contains GNU&#39;s externs/structs/prototypes. ">
<polygon fill="white" stroke="black" points="1741.5,-56.5 1741.5,-75.5 1810.5,-75.5 1810.5,-56.5 1741.5,-56.5"/>
<text text-anchor="middle" x="1776" y="-63.5" font-family="Helvetica,sans-Serif" font-size="10.00">gk_getopt.h</text>
</a>
</g>
</g>
<!-- Node0&#45;&gt;Node28 -->
<g id="edge28" class="edge"><title>Node0&#45;&gt;Node28</title>
<path fill="none" stroke="midnightblue" d="M1251.01,-128.036C1346.61,-120.758 1549.72,-103.574 1731.46,-75.9312"/>
<polygon fill="midnightblue" stroke="midnightblue" points="1732.12,-79.3716 1741.47,-74.3948 1731.05,-72.4526 1732.12,-79.3716"/>
</g>
<!-- Node29 -->
<g id="node30" class="node"><title>Node29</title>
<g id="a_node30"><a xlink:href="$a00071.html" xlink:title="Templates for the qsort routine. ">
<polygon fill="white" stroke="black" points="1828.5,-56.5 1828.5,-75.5 1899.5,-75.5 1899.5,-56.5 1828.5,-56.5"/>
<text text-anchor="middle" x="1864" y="-63.5" font-family="Helvetica,sans-Serif" font-size="10.00">gk_mksort.h</text>
</a>
</g>
</g>
<!-- Node0&#45;&gt;Node29 -->
<g id="edge29" class="edge"><title>Node0&#45;&gt;Node29</title>
<path fill="none" stroke="midnightblue" d="M1251.24,-129.039C1358.58,-122.85 1602.95,-106.634 1818.29,-75.9471"/>
<polygon fill="midnightblue" stroke="midnightblue" points="1818.8,-79.4101 1828.2,-74.5219 1817.8,-72.4814 1818.8,-79.4101"/>
</g>
<!-- Node30 -->
<g id="node31" class="node"><title>Node30</title>
<g id="a_node31"><a xlink:href="$a00056.html" xlink:title="Templates for BLAS&#45;like routines. ">
<polygon fill="white" stroke="black" points="1917.5,-56.5 1917.5,-75.5 1990.5,-75.5 1990.5,-56.5 1917.5,-56.5"/>
<text text-anchor="middle" x="1954" y="-63.5" font-family="Helvetica,sans-Serif" font-size="10.00">gk_mkblas.h</text>
</a>
</g>
</g>
<!-- Node0&#45;&gt;Node30 -->
<g id="edge30" class="edge"><title>Node0&#45;&gt;Node30</title>
<path fill="none" stroke="midnightblue" d="M1251.17,-129.819C1369.54,-124.673 1656.74,-109.694 1907.38,-75.9167"/>
<polygon fill="midnightblue" stroke="midnightblue" points="1907.97,-79.369 1917.4,-74.5529 1907.02,-72.4329 1907.97,-79.369"/>
</g>
<!-- Node31 -->
<g id="node32" class="node"><title>Node31</title>
<g id="a_node32"><a xlink:href="$a00059.html" xlink:title="Templates for memory allocation routines. ">
<polygon fill="white" stroke="black" points="2009,-56.5 2009,-75.5 2099,-75.5 2099,-56.5 2009,-56.5"/>
<text text-anchor="middle" x="2054" y="-63.5" font-family="Helvetica,sans-Serif" font-size="10.00">gk_mkmemory.h</text>
</a>
</g>
</g>
<!-- Node0&#45;&gt;Node31 -->
<g id="edge31" class="edge"><title>Node0&#45;&gt;Node31</title>
<path fill="none" stroke="midnightblue" d="M1251.17,-129.914C1380.05,-124.663 1711.07,-108.981 1998.52,-75.9323"/>
<polygon fill="midnightblue" stroke="midnightblue" points="1999.2,-79.3774 2008.73,-74.7493 1998.39,-72.424 1999.2,-79.3774"/>
</g>
<!-- Node32 -->
<g id="node33" class="node"><title>Node32</title>
<g id="a_node33"><a xlink:href="$a00062.html" xlink:title="Templates for priority queues. ">
<polygon fill="white" stroke="black" points="2117,-56.5 2117,-75.5 2205,-75.5 2205,-56.5 2117,-56.5"/>
<text text-anchor="middle" x="2161" y="-63.5" font-family="Helvetica,sans-Serif" font-size="10.00">gk_mkpqueue.h</text>
</a>
</g>
</g>
<!-- Node0&#45;&gt;Node32 -->
<g id="edge32" class="edge"><title>Node0&#45;&gt;Node32</title>
<path fill="none" stroke="midnightblue" d="M1251.18,-130.666C1392.05,-126.82 1776.56,-113.561 2106.57,-76.0422"/>
<polygon fill="midnightblue" stroke="midnightblue" points="2107.27,-79.4846 2116.8,-74.8682 2106.47,-72.5302 2107.27,-79.4846"/>
</g>
<!-- Node33 -->
<g id="node34" class="node"><title>Node33</title>
<g id="a_node34"><a xlink:href="$a00065.html" xlink:title="Templates for priority queues that do not utilize locators and as such they can use different types o...">
<polygon fill="white" stroke="black" points="2223.5,-56.5 2223.5,-75.5 2316.5,-75.5 2316.5,-56.5 2223.5,-56.5"/>
<text text-anchor="middle" x="2270" y="-63.5" font-family="Helvetica,sans-Serif" font-size="10.00">gk_mkpqueue2.h</text>
</a>
</g>
</g>
<!-- Node0&#45;&gt;Node33 -->
<g id="edge33" class="edge"><title>Node0&#45;&gt;Node33</title>
<path fill="none" stroke="midnightblue" d="M1251.06,-130.991C1402.77,-127.778 1839.73,-115.621 2213.1,-75.9706"/>
<polygon fill="midnightblue" stroke="midnightblue" points="2213.73,-79.424 2223.3,-74.8795 2212.98,-72.4637 2213.73,-79.424"/>
</g>
<!-- Node34 -->
<g id="node35" class="node"><title>Node34</title>
<g id="a_node35"><a xlink:href="$a00068.html" xlink:title="Templates for portable random number generation. ">
<polygon fill="white" stroke="black" points="2335,-56.5 2335,-75.5 2423,-75.5 2423,-56.5 2335,-56.5"/>
<text text-anchor="middle" x="2379" y="-63.5" font-family="Helvetica,sans-Serif" font-size="10.00">gk_mkrandom.h</text>
</a>
</g>
</g>
<!-- Node0&#45;&gt;Node34 -->
<g id="edge34" class="edge"><title>Node0&#45;&gt;Node34</title>
<path fill="none" stroke="midnightblue" d="M1251.1,-131.52C1413.75,-129.623 1906.01,-120.439 2324.67,-75.8776"/>
<polygon fill="midnightblue" stroke="midnightblue" points="2325.28,-79.3316 2334.85,-74.7848 2324.54,-72.3715 2325.28,-79.3316"/>
</g>
<!-- Node35 -->
<g id="node36" class="node"><title>Node35</title>
<g id="a_node36"><a xlink:href="$a00074.html" xlink:title="Templates for various utility routines. ">
<polygon fill="white" stroke="black" points="2441,-56.5 2441,-75.5 2513,-75.5 2513,-56.5 2441,-56.5"/>
<text text-anchor="middle" x="2477" y="-63.5" font-family="Helvetica,sans-Serif" font-size="10.00">gk_mkutils.h</text>
</a>
</g>
</g>
<!-- Node0&#45;&gt;Node35 -->
<g id="edge35" class="edge"><title>Node0&#45;&gt;Node35</title>
<path fill="none" stroke="midnightblue" d="M1251.07,-132.481C1423.8,-133.36 1970.28,-131.344 2430.55,-75.9811"/>
<polygon fill="midnightblue" stroke="midnightblue" points="2431.22,-79.4258 2440.73,-74.747 2430.38,-72.4768 2431.22,-79.4258"/>
</g>
<!-- Node36 -->
<g id="node37" class="node"><title>Node36</title>
<g id="a_node37"><a xlink:href="$a00077.html" xlink:title="This file contains function prototypes. ">
<polygon fill="white" stroke="black" points="2531,-56.5 2531,-75.5 2595,-75.5 2595,-56.5 2531,-56.5"/>
<text text-anchor="middle" x="2563" y="-63.5" font-family="Helvetica,sans-Serif" font-size="10.00">gk_proto.h</text>
</a>
</g>
</g>
<!-- Node0&#45;&gt;Node36 -->
<g id="edge36" class="edge"><title>Node0&#45;&gt;Node36</title>
<path fill="none" stroke="midnightblue" d="M1251.26,-130.948C1466.53,-126.654 2249.99,-109.15 2520.68,-75.8982"/>
<polygon fill="midnightblue" stroke="midnightblue" points="2521.38,-79.337 2530.86,-74.6077 2520.5,-72.3925 2521.38,-79.337"/>
</g>
<!-- Node2 -->
<g id="node3" class="node"><title>Node2</title>
<polygon fill="white" stroke="#bfbfbf" points="-0.5,-0.5 -0.5,-19.5 48.5,-19.5 48.5,-0.5 -0.5,-0.5"/>
<text text-anchor="middle" x="24" y="-7.5" font-family="Helvetica,sans-Serif" font-size="10.00">stdint.h</text>
</g>
<!-- Node1&#45;&gt;Node2 -->
<g id="edge2" class="edge"><title>Node1&#45;&gt;Node2</title>
<path fill="none" stroke="midnightblue" d="M152.757,-56.4435C127.129,-47.3986 86.5148,-33.064 57.7616,-22.9158"/>
<polygon fill="midnightblue" stroke="midnightblue" points="58.7247,-19.5442 48.1299,-19.5164 56.3949,-26.1452 58.7247,-19.5442"/>
</g>
<!-- Node3 -->
<g id="node4" class="node"><title>Node3</title>
<polygon fill="white" stroke="#bfbfbf" points="66.5,-0.5 66.5,-19.5 125.5,-19.5 125.5,-0.5 66.5,-0.5"/>
<text text-anchor="middle" x="96" y="-7.5" font-family="Helvetica,sans-Serif" font-size="10.00">inttypes.h</text>
</g>
<!-- Node1&#45;&gt;Node3 -->
<g id="edge3" class="edge"><title>Node1&#45;&gt;Node3</title>
<path fill="none" stroke="midnightblue" d="M163.986,-56.324C151.468,-47.979 132.318,-35.2122 117.529,-25.3524"/>
<polygon fill="midnightblue" stroke="midnightblue" points="119.244,-22.2894 108.982,-19.6545 115.361,-28.1137 119.244,-22.2894"/>
</g>
<!-- Node4 -->
<g id="node5" class="node"><title>Node4</title>
<polygon fill="white" stroke="#bfbfbf" points="143.5,-0.5 143.5,-19.5 210.5,-19.5 210.5,-0.5 143.5,-0.5"/>
<text text-anchor="middle" x="177" y="-7.5" font-family="Helvetica,sans-Serif" font-size="10.00">sys/types.h</text>
</g>
<!-- Node1&#45;&gt;Node4 -->
<g id="edge4" class="edge"><title>Node1&#45;&gt;Node4</title>
<path fill="none" stroke="midnightblue" d="M177,-56.083C177,-49.0059 177,-38.8611 177,-29.9865"/>
<polygon fill="midnightblue" stroke="midnightblue" points="180.5,-29.751 177,-19.7511 173.5,-29.7511 180.5,-29.751"/>
</g>
<!-- Node5 -->
<g id="node6" class="node"><title>Node5</title>
<polygon fill="white" stroke="#bfbfbf" points="229,-0.5 229,-19.5 311,-19.5 311,-0.5 229,-0.5"/>
<text text-anchor="middle" x="270" y="-7.5" font-family="Helvetica,sans-Serif" font-size="10.00">sys/resource.h</text>
</g>
<!-- Node1&#45;&gt;Node5 -->
<g id="edge5" class="edge"><title>Node1&#45;&gt;Node5</title>
<path fill="none" stroke="midnightblue" d="M191.942,-56.324C206.585,-47.8215 229.134,-34.7288 246.238,-24.7975"/>
<polygon fill="midnightblue" stroke="midnightblue" points="248.205,-27.7027 255.095,-19.6545 244.69,-21.6491 248.205,-27.7027"/>
</g>
<!-- Node6 -->
<g id="node7" class="node"><title>Node6</title>
<polygon fill="white" stroke="#bfbfbf" points="329,-0.5 329,-19.5 391,-19.5 391,-0.5 329,-0.5"/>
<text text-anchor="middle" x="360" y="-7.5" font-family="Helvetica,sans-Serif" font-size="10.00">sys/time.h</text>
</g>
<!-- Node1&#45;&gt;Node6 -->
<g id="edge6" class="edge"><title>Node1&#45;&gt;Node6</title>
<path fill="none" stroke="midnightblue" d="M205.997,-56.4435C237.185,-47.2406 286.93,-32.5617 321.408,-22.3879"/>
<polygon fill="midnightblue" stroke="midnightblue" points="322.538,-25.7036 331.139,-19.5164 320.557,-18.9898 322.538,-25.7036"/>
</g>
</g>
</svg>
