<?xml version="1.0" encoding="UTF-8" standalone="no"?>
<!DOCTYPE svg PUBLIC "-//W3C//DTD SVG 1.1//EN"
 "http://www.w3.org/Graphics/SVG/1.1/DTD/svg11.dtd">
<!-- Generated by graphviz version 2.36.0 (20140111.2315)
 -->
<!-- Title: gk_getline Pages: 1 -->
<svg width="268pt" height="294pt"
 viewBox="0.00 0.00 268.00 294.00" xmlns="http://www.w3.org/2000/svg" xmlns:xlink="http://www.w3.org/1999/xlink">
<g id="graph0" class="graph" transform="scale(1 1) rotate(0) translate(4 290)">
<title>gk_getline</title>
<polygon fill="white" stroke="none" points="-4,4 -4,-290 264,-290 264,4 -4,4"/>
<!-- Node943 -->
<g id="node1" class="node"><title>Node943</title>
<polygon fill="#bfbfbf" stroke="black" points="0,-133.5 0,-152.5 62,-152.5 62,-133.5 0,-133.5"/>
<text text-anchor="middle" x="31" y="-140.5" font-family="Helvetica,sans-Serif" font-size="10.00">gk_getline</text>
</g>
<!-- Node944 -->
<g id="node2" class="node"><title>Node944</title>
<g id="a_node2"><a xlink:href="$a00077.html#a8ebc19fe9a291bdf67677ebdaae56592" xlink:title="gk_csr_Read">
<polygon fill="white" stroke="black" points="104.5,-266.5 104.5,-285.5 179.5,-285.5 179.5,-266.5 104.5,-266.5"/>
<text text-anchor="middle" x="142" y="-273.5" font-family="Helvetica,sans-Serif" font-size="10.00">gk_csr_Read</text>
</a>
</g>
</g>
<!-- Node943&#45;&gt;Node944 -->
<g id="edge1" class="edge"><title>Node943&#45;&gt;Node944</title>
<path fill="none" stroke="midnightblue" d="M38.6924,-161.991C48.3034,-186.819 68.2048,-230.28 98,-257 102.132,-260.705 107.103,-263.783 112.175,-266.304"/>
<polygon fill="midnightblue" stroke="midnightblue" points="41.9658,-160.752 35.2046,-152.595 35.4033,-163.188 41.9658,-160.752"/>
</g>
<!-- Node946 -->
<g id="node4" class="node"><title>Node946</title>
<g id="a_node4"><a xlink:href="$a00849.html#a432baae7f5c91c3604b42efb324b4131" xlink:title="gk_graph_Read">
<polygon fill="white" stroke="black" points="98,-228.5 98,-247.5 186,-247.5 186,-228.5 98,-228.5"/>
<text text-anchor="middle" x="142" y="-235.5" font-family="Helvetica,sans-Serif" font-size="10.00">gk_graph_Read</text>
</a>
</g>
</g>
<!-- Node943&#45;&gt;Node946 -->
<g id="edge3" class="edge"><title>Node943&#45;&gt;Node946</title>
<path fill="none" stroke="midnightblue" d="M44.0879,-161.017C56.1196,-177.833 75.935,-202.712 98,-219 102.99,-222.684 108.808,-225.855 114.521,-228.493"/>
<polygon fill="midnightblue" stroke="midnightblue" points="46.8235,-158.82 38.2396,-152.61 41.0771,-162.817 46.8235,-158.82"/>
</g>
<!-- Node948 -->
<g id="node6" class="node"><title>Node948</title>
<g id="a_node6"><a xlink:href="$a00858.html#ad13e689608e193482a6f30b1ade87814" xlink:title="gk_readfile">
<polygon fill="white" stroke="black" points="109.5,-190.5 109.5,-209.5 174.5,-209.5 174.5,-190.5 109.5,-190.5"/>
<text text-anchor="middle" x="142" y="-197.5" font-family="Helvetica,sans-Serif" font-size="10.00">gk_readfile</text>
</a>
</g>
</g>
<!-- Node943&#45;&gt;Node948 -->
<g id="edge5" class="edge"><title>Node943&#45;&gt;Node948</title>
<path fill="none" stroke="midnightblue" d="M56.253,-157.79C68.5825,-165.096 83.904,-173.853 98,-181 104.406,-184.248 111.489,-187.508 118.026,-190.388"/>
<polygon fill="midnightblue" stroke="midnightblue" points="57.8555,-154.67 47.4777,-152.537 54.2601,-160.676 57.8555,-154.67"/>
</g>
<!-- Node949 -->
<g id="node7" class="node"><title>Node949</title>
<g id="a_node7"><a xlink:href="$a00858.html#a201c46a9a2bf9c06a917f259d109b7ee" xlink:title="gk_i32readfile">
<polygon fill="white" stroke="black" points="102.5,-152.5 102.5,-171.5 181.5,-171.5 181.5,-152.5 102.5,-152.5"/>
<text text-anchor="middle" x="142" y="-159.5" font-family="Helvetica,sans-Serif" font-size="10.00">gk_i32readfile</text>
</a>
</g>
</g>
<!-- Node943&#45;&gt;Node949 -->
<g id="edge6" class="edge"><title>Node943&#45;&gt;Node949</title>
<path fill="none" stroke="midnightblue" d="M72.0922,-149.989C82.0023,-151.716 92.5971,-153.563 102.433,-155.277"/>
<polygon fill="midnightblue" stroke="midnightblue" points="72.5258,-146.511 62.0733,-148.242 71.3237,-153.407 72.5258,-146.511"/>
</g>
<!-- Node950 -->
<g id="node8" class="node"><title>Node950</title>
<g id="a_node8"><a xlink:href="$a00858.html#a8cb19aa95a831aa745f6e04e1cc0b204" xlink:title="gk_i64readfile">
<polygon fill="white" stroke="black" points="102.5,-114.5 102.5,-133.5 181.5,-133.5 181.5,-114.5 102.5,-114.5"/>
<text text-anchor="middle" x="142" y="-121.5" font-family="Helvetica,sans-Serif" font-size="10.00">gk_i64readfile</text>
</a>
</g>
</g>
<!-- Node943&#45;&gt;Node950 -->
<g id="edge7" class="edge"><title>Node943&#45;&gt;Node950</title>
<path fill="none" stroke="midnightblue" d="M72.0922,-136.011C82.0023,-134.284 92.5971,-132.437 102.433,-130.723"/>
<polygon fill="midnightblue" stroke="midnightblue" points="71.3237,-132.593 62.0733,-137.758 72.5258,-139.489 71.3237,-132.593"/>
</g>
<!-- Node951 -->
<g id="node9" class="node"><title>Node951</title>
<g id="a_node9"><a xlink:href="$a00951.html#ac8fe4a21ae3e0e01afdba3fedf1c6123" xlink:title="ReadGraph">
<polygon fill="white" stroke="black" points="108,-76.5 108,-95.5 176,-95.5 176,-76.5 108,-76.5"/>
<text text-anchor="middle" x="142" y="-83.5" font-family="Helvetica,sans-Serif" font-size="10.00">ReadGraph</text>
</a>
</g>
</g>
<!-- Node943&#45;&gt;Node951 -->
<g id="edge8" class="edge"><title>Node943&#45;&gt;Node951</title>
<path fill="none" stroke="midnightblue" d="M56.253,-128.21C68.5825,-120.904 83.904,-112.147 98,-105 104.406,-101.752 111.489,-98.4921 118.026,-95.612"/>
<polygon fill="midnightblue" stroke="midnightblue" points="54.2601,-125.324 47.4777,-133.463 57.8555,-131.33 54.2601,-125.324"/>
</g>
<!-- Node953 -->
<g id="node11" class="node"><title>Node953</title>
<g id="a_node11"><a xlink:href="$a00951.html#aef01a8b2c6432d21be77abeabeeeced8" xlink:title="ReadMesh">
<polygon fill="white" stroke="black" points="109.5,-38.5 109.5,-57.5 174.5,-57.5 174.5,-38.5 109.5,-38.5"/>
<text text-anchor="middle" x="142" y="-45.5" font-family="Helvetica,sans-Serif" font-size="10.00">ReadMesh</text>
</a>
</g>
</g>
<!-- Node943&#45;&gt;Node953 -->
<g id="edge10" class="edge"><title>Node943&#45;&gt;Node953</title>
<path fill="none" stroke="midnightblue" d="M44.0879,-124.983C56.1196,-108.167 75.935,-83.2876 98,-67 102.99,-63.3162 108.808,-60.1451 114.521,-57.507"/>
<polygon fill="midnightblue" stroke="midnightblue" points="41.0771,-123.183 38.2396,-133.39 46.8235,-127.18 41.0771,-123.183"/>
</g>
<!-- Node955 -->
<g id="node13" class="node"><title>Node955</title>
<g id="a_node13"><a xlink:href="$a00951.html#a12b940ccee061b8787088fbe16245f46" xlink:title="ReadTPwgts">
<polygon fill="white" stroke="black" points="105,-0.5 105,-19.5 179,-19.5 179,-0.5 105,-0.5"/>
<text text-anchor="middle" x="142" y="-7.5" font-family="Helvetica,sans-Serif" font-size="10.00">ReadTPwgts</text>
</a>
</g>
</g>
<!-- Node943&#45;&gt;Node955 -->
<g id="edge12" class="edge"><title>Node943&#45;&gt;Node955</title>
<path fill="none" stroke="midnightblue" d="M38.6924,-124.009C48.3034,-99.1808 68.2048,-55.7197 98,-29 102.132,-25.2947 107.103,-22.2173 112.175,-19.6956"/>
<polygon fill="midnightblue" stroke="midnightblue" points="35.4033,-122.812 35.2046,-133.405 41.9658,-125.248 35.4033,-122.812"/>
</g>
<!-- Node945 -->
<g id="node3" class="node"><title>Node945</title>
<g id="a_node3"><a xlink:href="$a00867.html#a0ddf1224851353fc92bfbff6f499fa97" xlink:title="main">
<polygon fill="white" stroke="black" points="222,-266.5 222,-285.5 260,-285.5 260,-266.5 222,-266.5"/>
<text text-anchor="middle" x="241" y="-273.5" font-family="Helvetica,sans-Serif" font-size="10.00">main</text>
</a>
</g>
</g>
<!-- Node944&#45;&gt;Node945 -->
<g id="edge2" class="edge"><title>Node944&#45;&gt;Node945</title>
<path fill="none" stroke="midnightblue" d="M189.954,-276C201.262,-276 212.681,-276 221.751,-276"/>
<polygon fill="midnightblue" stroke="midnightblue" points="189.672,-272.5 179.672,-276 189.672,-279.5 189.672,-272.5"/>
</g>
<!-- Node947 -->
<g id="node5" class="node"><title>Node947</title>
<g id="a_node5"><a xlink:href="$a00149.html#a0ddf1224851353fc92bfbff6f499fa97" xlink:title="main">
<polygon fill="white" stroke="black" points="222,-228.5 222,-247.5 260,-247.5 260,-228.5 222,-228.5"/>
<text text-anchor="middle" x="241" y="-235.5" font-family="Helvetica,sans-Serif" font-size="10.00">main</text>
</a>
</g>
</g>
<!-- Node946&#45;&gt;Node947 -->
<g id="edge4" class="edge"><title>Node946&#45;&gt;Node947</title>
<path fill="none" stroke="midnightblue" d="M196.149,-238C205.377,-238 214.379,-238 221.801,-238"/>
<polygon fill="midnightblue" stroke="midnightblue" points="196.111,-234.5 186.111,-238 196.11,-241.5 196.111,-234.5"/>
</g>
<!-- Node952 -->
<g id="node10" class="node"><title>Node952</title>
<g id="a_node10"><a xlink:href="$a00308.html#a0ddf1224851353fc92bfbff6f499fa97" xlink:title="main">
<polygon fill="white" stroke="black" points="222,-76.5 222,-95.5 260,-95.5 260,-76.5 222,-76.5"/>
<text text-anchor="middle" x="241" y="-83.5" font-family="Helvetica,sans-Serif" font-size="10.00">main</text>
</a>
</g>
</g>
<!-- Node951&#45;&gt;Node952 -->
<g id="edge9" class="edge"><title>Node951&#45;&gt;Node952</title>
<path fill="none" stroke="midnightblue" d="M186.376,-86C198.81,-86 211.699,-86 221.724,-86"/>
<polygon fill="midnightblue" stroke="midnightblue" points="186.111,-82.5001 176.111,-86 186.111,-89.5001 186.111,-82.5001"/>
</g>
<!-- Node954 -->
<g id="node12" class="node"><title>Node954</title>
<g id="a_node12"><a xlink:href="$a00317.html#a0ddf1224851353fc92bfbff6f499fa97" xlink:title="main">
<polygon fill="white" stroke="black" points="222,-38.5 222,-57.5 260,-57.5 260,-38.5 222,-38.5"/>
<text text-anchor="middle" x="241" y="-45.5" font-family="Helvetica,sans-Serif" font-size="10.00">main</text>
</a>
</g>
</g>
<!-- Node953&#45;&gt;Node954 -->
<g id="edge11" class="edge"><title>Node953&#45;&gt;Node954</title>
<path fill="none" stroke="midnightblue" d="M184.901,-48C197.802,-48 211.338,-48 221.766,-48"/>
<polygon fill="midnightblue" stroke="midnightblue" points="184.761,-44.5001 174.761,-48 184.761,-51.5001 184.761,-44.5001"/>
</g>
<!-- Node956 -->
<g id="node14" class="node"><title>Node956</title>
<g id="a_node14"><a xlink:href="$a00311.html#a0ddf1224851353fc92bfbff6f499fa97" xlink:title="main">
<polygon fill="white" stroke="black" points="222,-0.5 222,-19.5 260,-19.5 260,-0.5 222,-0.5"/>
<text text-anchor="middle" x="241" y="-7.5" font-family="Helvetica,sans-Serif" font-size="10.00">main</text>
</a>
</g>
</g>
<!-- Node955&#45;&gt;Node956 -->
<g id="edge13" class="edge"><title>Node955&#45;&gt;Node956</title>
<path fill="none" stroke="midnightblue" d="M189.183,-10C200.762,-10 212.517,-10 221.801,-10"/>
<polygon fill="midnightblue" stroke="midnightblue" points="189.119,-6.5001 179.119,-10 189.119,-13.5001 189.119,-6.5001"/>
</g>
</g>
</svg>
