<?xml version="1.0" encoding="UTF-8" standalone="no"?>
<!DOCTYPE svg PUBLIC "-//W3C//DTD SVG 1.1//EN"
 "http://www.w3.org/Graphics/SVG/1.1/DTD/svg11.dtd">
<!-- Generated by graphviz version 2.36.0 (20140111.2315)
 -->
<!-- Title: HTable_Insert Pages: 1 -->
<svg width="462pt" height="116pt"
 viewBox="0.00 0.00 462.00 116.30" xmlns="http://www.w3.org/2000/svg" xmlns:xlink="http://www.w3.org/1999/xlink">
<g id="graph0" class="graph" transform="scale(1 1) rotate(0) translate(4 112.304)">
<title>HTable_Insert</title>
<polygon fill="white" stroke="none" points="-4,4 -4,-112.304 458,-112.304 458,4 -4,4"/>
<!-- Node1815 -->
<g id="node1" class="node"><title>Node1815</title>
<polygon fill="#bfbfbf" stroke="black" points="0.5,-12.8045 0.5,-31.8045 79.5,-31.8045 79.5,-12.8045 0.5,-12.8045"/>
<text text-anchor="middle" x="40" y="-19.8045" font-family="Helvetica,sans-Serif" font-size="10.00">HTable_Insert</text>
</g>
<!-- Node1816 -->
<g id="node2" class="node"><title>Node1816</title>
<g id="a_node2"><a xlink:href="$a00098.html#ad79cb786b03a73481fb3e5846d345801" xlink:title="HTable_Resize">
<polygon fill="white" stroke="black" points="116.5,-50.8045 116.5,-69.8045 201.5,-69.8045 201.5,-50.8045 116.5,-50.8045"/>
<text text-anchor="middle" x="159" y="-57.8045" font-family="Helvetica,sans-Serif" font-size="10.00">HTable_Resize</text>
</a>
</g>
</g>
<!-- Node1815&#45;&gt;Node1816 -->
<g id="edge1" class="edge"><title>Node1815&#45;&gt;Node1816</title>
<path fill="none" stroke="midnightblue" d="M70.524,-31.8935C85.2119,-36.6639 103.16,-42.4932 118.968,-47.6273"/>
<polygon fill="midnightblue" stroke="midnightblue" points="117.893,-50.9583 128.485,-50.7185 120.056,-44.3006 117.893,-50.9583"/>
</g>
<!-- Node1819 -->
<g id="node5" class="node"><title>Node1819</title>
<g id="a_node5"><a xlink:href="$a00098.html#afe255e126a6c4eec5efb11c3691b3155" xlink:title="HTable_HFunction">
<polygon fill="white" stroke="black" points="354,-12.8045 354,-31.8045 454,-31.8045 454,-12.8045 354,-12.8045"/>
<text text-anchor="middle" x="404" y="-19.8045" font-family="Helvetica,sans-Serif" font-size="10.00">HTable_HFunction</text>
</a>
</g>
</g>
<!-- Node1815&#45;&gt;Node1819 -->
<g id="edge7" class="edge"><title>Node1815&#45;&gt;Node1819</title>
<path fill="none" stroke="midnightblue" d="M79.6278,-15.3183C133.242,-6.60878 233.195,6.05816 318,-3.30447 331.283,-4.7709 345.524,-7.48915 358.48,-10.4202"/>
<polygon fill="midnightblue" stroke="midnightblue" points="358.015,-13.9065 368.551,-12.7966 359.622,-7.09357 358.015,-13.9065"/>
</g>
<!-- Node1817 -->
<g id="node3" class="node"><title>Node1817</title>
<g id="a_node3"><a xlink:href="$a00623.html#ad1e7380d51df1e0043d24d3c8a860e0a" xlink:title="for">
<polygon fill="white" stroke="black" points="263.5,-88.8045 263.5,-107.804 292.5,-107.804 292.5,-88.8045 263.5,-88.8045"/>
<text text-anchor="middle" x="278" y="-95.8045" font-family="Helvetica,sans-Serif" font-size="10.00">for</text>
</a>
</g>
</g>
<!-- Node1816&#45;&gt;Node1817 -->
<g id="edge2" class="edge"><title>Node1816&#45;&gt;Node1817</title>
<path fill="none" stroke="midnightblue" d="M189.524,-69.8935C209.423,-76.3564 235.306,-84.7628 253.743,-90.751"/>
<polygon fill="midnightblue" stroke="midnightblue" points="252.793,-94.1224 263.386,-93.8827 254.956,-87.4647 252.793,-94.1224"/>
</g>
<!-- Node1818 -->
<g id="node4" class="node"><title>Node1818</title>
<g id="a_node4"><a xlink:href="$a00098.html#a39853dc7129323e7846d895c9026ad6f" xlink:title="HTable_Insert">
<polygon fill="white" stroke="black" points="238.5,-50.8045 238.5,-69.8045 317.5,-69.8045 317.5,-50.8045 238.5,-50.8045"/>
<text text-anchor="middle" x="278" y="-57.8045" font-family="Helvetica,sans-Serif" font-size="10.00">HTable_Insert</text>
</a>
</g>
</g>
<!-- Node1816&#45;&gt;Node1818 -->
<g id="edge3" class="edge"><title>Node1816&#45;&gt;Node1818</title>
<path fill="none" stroke="midnightblue" d="M201.579,-53.812C210.171,-53.5435 219.296,-53.485 228.121,-53.6363"/>
<polygon fill="midnightblue" stroke="midnightblue" points="228.201,-57.1396 238.292,-53.9102 228.39,-50.1421 228.201,-57.1396"/>
</g>
<!-- Node1820 -->
<g id="node6" class="node"><title>Node1820</title>
<g id="a_node6"><a xlink:href="$a00077.html#ac8df62c4e3d0910711a9874f9cc58884" xlink:title="gk_free">
<polygon fill="white" stroke="black" points="253,-12.8045 253,-31.8045 303,-31.8045 303,-12.8045 253,-12.8045"/>
<text text-anchor="middle" x="278" y="-19.8045" font-family="Helvetica,sans-Serif" font-size="10.00">gk_free</text>
</a>
</g>
</g>
<!-- Node1816&#45;&gt;Node1820 -->
<g id="edge6" class="edge"><title>Node1816&#45;&gt;Node1820</title>
<path fill="none" stroke="midnightblue" d="M189.524,-50.7155C205.935,-45.3854 226.416,-38.7334 243.434,-33.2062"/>
<polygon fill="midnightblue" stroke="midnightblue" points="244.567,-36.5183 252.997,-30.1004 242.405,-29.8607 244.567,-36.5183"/>
</g>
<!-- Node1818&#45;&gt;Node1816 -->
<g id="edge4" class="edge"><title>Node1818&#45;&gt;Node1816</title>
<path fill="none" stroke="midnightblue" d="M238.292,-66.6987C229.83,-67.0142 220.742,-67.1199 211.86,-67.0157"/>
<polygon fill="midnightblue" stroke="midnightblue" points="211.651,-63.5105 201.579,-66.797 211.503,-70.5089 211.651,-63.5105"/>
</g>
<!-- Node1818&#45;&gt;Node1819 -->
<g id="edge5" class="edge"><title>Node1818&#45;&gt;Node1819</title>
<path fill="none" stroke="midnightblue" d="M310.29,-50.7155C326.004,-45.9 345.238,-40.0056 362.106,-34.8365"/>
<polygon fill="midnightblue" stroke="midnightblue" points="363.184,-38.1669 371.72,-31.8904 361.133,-31.4741 363.184,-38.1669"/>
</g>
</g>
</svg>
