<?xml version="1.0" encoding="UTF-8" standalone="no"?>
<!DOCTYPE svg PUBLIC "-//W3C//DTD SVG 1.1//EN"
 "http://www.w3.org/Graphics/SVG/1.1/DTD/svg11.dtd">
<!-- Generated by graphviz version 2.36.0 (20140111.2315)
 -->
<!-- Title: gk_realloc Pages: 1 -->
<svg width="422pt" height="370pt"
 viewBox="0.00 0.00 422.00 370.00" xmlns="http://www.w3.org/2000/svg" xmlns:xlink="http://www.w3.org/1999/xlink">
<g id="graph0" class="graph" transform="scale(1 1) rotate(0) translate(4 366)">
<title>gk_realloc</title>
<polygon fill="white" stroke="none" points="-4,4 -4,-366 418,-366 418,4 -4,4"/>
<!-- Node1563 -->
<g id="node1" class="node"><title>Node1563</title>
<polygon fill="#bfbfbf" stroke="black" points="0,-133.5 0,-152.5 62,-152.5 62,-133.5 0,-133.5"/>
<text text-anchor="middle" x="31" y="-140.5" font-family="Helvetica,sans-Serif" font-size="10.00">gk_realloc</text>
</g>
<!-- Node1564 -->
<g id="node2" class="node"><title>Node1564</title>
<g id="a_node2"><a xlink:href="$a00954.html#a245110080c4fe1712c5cac4a52e61e69" xlink:title="CommUpdateNnbrs">
<polygon fill="white" stroke="black" points="98.5,-285.5 98.5,-304.5 203.5,-304.5 203.5,-285.5 98.5,-285.5"/>
<text text-anchor="middle" x="151" y="-292.5" font-family="Helvetica,sans-Serif" font-size="10.00">CommUpdateNnbrs</text>
</a>
</g>
</g>
<!-- Node1563&#45;&gt;Node1564 -->
<g id="edge1" class="edge"><title>Node1563&#45;&gt;Node1564</title>
<path fill="none" stroke="midnightblue" d="M45.6733,-160.613C70.7401,-192.903 123.254,-260.548 142.621,-285.495"/>
<polygon fill="midnightblue" stroke="midnightblue" points="48.2784,-158.261 39.3814,-152.508 42.749,-162.554 48.2784,-158.261"/>
</g>
<!-- Node1566 -->
<g id="node4" class="node"><title>Node1566</title>
<g id="a_node4"><a xlink:href="$a00858.html#ad8263f64108434d7ebab9799b5ab9632" xlink:title="gk_getline">
<polygon fill="white" stroke="black" points="120,-171.5 120,-190.5 182,-190.5 182,-171.5 120,-171.5"/>
<text text-anchor="middle" x="151" y="-178.5" font-family="Helvetica,sans-Serif" font-size="10.00">gk_getline</text>
</a>
</g>
</g>
<!-- Node1563&#45;&gt;Node1566 -->
<g id="edge3" class="edge"><title>Node1563&#45;&gt;Node1566</title>
<path fill="none" stroke="midnightblue" d="M71.3761,-155.68C87.3198,-160.815 105.421,-166.644 120.233,-171.414"/>
<polygon fill="midnightblue" stroke="midnightblue" points="72.3679,-152.323 61.7764,-152.589 70.2221,-158.986 72.3679,-152.323"/>
</g>
<!-- Node1580 -->
<g id="node18" class="node"><title>Node1580</title>
<g id="a_node18"><a xlink:href="$a00143.html#a46e5cf8f76a1ece74adf1b8b9dfcb275" xlink:title="Regex&#45;based search&#45;and&#45;replace function. ">
<polygon fill="white" stroke="black" points="104.5,-133.5 104.5,-152.5 197.5,-152.5 197.5,-133.5 104.5,-133.5"/>
<text text-anchor="middle" x="151" y="-140.5" font-family="Helvetica,sans-Serif" font-size="10.00">gk_strstr_replace</text>
</a>
</g>
</g>
<!-- Node1563&#45;&gt;Node1580 -->
<g id="edge17" class="edge"><title>Node1563&#45;&gt;Node1580</title>
<path fill="none" stroke="midnightblue" d="M72.1096,-143C82.4826,-143 93.7266,-143 104.36,-143"/>
<polygon fill="midnightblue" stroke="midnightblue" points="72.0817,-139.5 62.0817,-143 72.0817,-146.5 72.0817,-139.5"/>
</g>
<!-- Node1583 -->
<g id="node21" class="node"><title>Node1583</title>
<g id="a_node21"><a xlink:href="$a00954.html#a5c7982f300512c943ce53a0531529ae8" xlink:title="cnbrpoolGetNext">
<polygon fill="white" stroke="black" points="105,-95.5 105,-114.5 197,-114.5 197,-95.5 105,-95.5"/>
<text text-anchor="middle" x="151" y="-102.5" font-family="Helvetica,sans-Serif" font-size="10.00">cnbrpoolGetNext</text>
</a>
</g>
</g>
<!-- Node1563&#45;&gt;Node1583 -->
<g id="edge20" class="edge"><title>Node1563&#45;&gt;Node1583</title>
<path fill="none" stroke="midnightblue" d="M71.3761,-130.32C87.3198,-125.185 105.421,-119.356 120.233,-114.586"/>
<polygon fill="midnightblue" stroke="midnightblue" points="70.2221,-127.014 61.7764,-133.411 72.3679,-133.677 70.2221,-127.014"/>
</g>
<!-- Node1584 -->
<g id="node22" class="node"><title>Node1584</title>
<g id="a_node22"><a xlink:href="$a00984.html#a371b41152c6e40d6866b357a4ffee5f1" xlink:title="vnbrpoolGetNext">
<polygon fill="white" stroke="black" points="105,-57.5 105,-76.5 197,-76.5 197,-57.5 105,-57.5"/>
<text text-anchor="middle" x="151" y="-64.5" font-family="Helvetica,sans-Serif" font-size="10.00">vnbrpoolGetNext</text>
</a>
</g>
</g>
<!-- Node1563&#45;&gt;Node1584 -->
<g id="edge21" class="edge"><title>Node1563&#45;&gt;Node1584</title>
<path fill="none" stroke="midnightblue" d="M48.0271,-126.183C60.6467,-113.723 79.1919,-97.0538 98,-86 104.215,-82.3475 111.251,-79.2043 118.095,-76.5856"/>
<polygon fill="midnightblue" stroke="midnightblue" points="45.5243,-123.737 40.9861,-133.31 50.504,-128.656 45.5243,-123.737"/>
</g>
<!-- Node1565 -->
<g id="node3" class="node"><title>Node1565</title>
<g id="a_node3"><a xlink:href="$a00954.html#a2d2b821917225cdad1e5422fae14556e" xlink:title="CommSetup">
<polygon fill="white" stroke="black" points="254,-342.5 254,-361.5 326,-361.5 326,-342.5 254,-342.5"/>
<text text-anchor="middle" x="290" y="-349.5" font-family="Helvetica,sans-Serif" font-size="10.00">CommSetup</text>
</a>
</g>
</g>
<!-- Node1564&#45;&gt;Node1565 -->
<g id="edge2" class="edge"><title>Node1564&#45;&gt;Node1565</title>
<path fill="none" stroke="midnightblue" d="M182.946,-308.702C199.758,-316.06 220.948,-325.196 240,-333 247.683,-336.147 256.096,-339.458 263.748,-342.418"/>
<polygon fill="midnightblue" stroke="midnightblue" points="184.166,-305.415 173.602,-304.598 181.351,-311.824 184.166,-305.415"/>
</g>
<!-- Node1567 -->
<g id="node5" class="node"><title>Node1567</title>
<g id="a_node5"><a xlink:href="$a00077.html#a8ebc19fe9a291bdf67677ebdaae56592" xlink:title="gk_csr_Read">
<polygon fill="white" stroke="black" points="252.5,-304.5 252.5,-323.5 327.5,-323.5 327.5,-304.5 252.5,-304.5"/>
<text text-anchor="middle" x="290" y="-311.5" font-family="Helvetica,sans-Serif" font-size="10.00">gk_csr_Read</text>
</a>
</g>
</g>
<!-- Node1566&#45;&gt;Node1567 -->
<g id="edge4" class="edge"><title>Node1566&#45;&gt;Node1567</title>
<path fill="none" stroke="midnightblue" d="M161.946,-199.486C176.192,-224.375 204.635,-268.578 240,-295 245.043,-298.768 250.928,-301.885 256.834,-304.429"/>
<polygon fill="midnightblue" stroke="midnightblue" points="164.965,-197.714 157.04,-190.682 158.85,-201.121 164.965,-197.714"/>
</g>
<!-- Node1569 -->
<g id="node7" class="node"><title>Node1569</title>
<g id="a_node7"><a xlink:href="$a00849.html#a432baae7f5c91c3604b42efb324b4131" xlink:title="gk_graph_Read">
<polygon fill="white" stroke="black" points="246,-266.5 246,-285.5 334,-285.5 334,-266.5 246,-266.5"/>
<text text-anchor="middle" x="290" y="-273.5" font-family="Helvetica,sans-Serif" font-size="10.00">gk_graph_Read</text>
</a>
</g>
</g>
<!-- Node1566&#45;&gt;Node1569 -->
<g id="edge6" class="edge"><title>Node1566&#45;&gt;Node1569</title>
<path fill="none" stroke="midnightblue" d="M168.213,-198.077C184.916,-214.884 212.343,-240.379 240,-257 246.022,-260.619 252.854,-263.78 259.465,-266.431"/>
<polygon fill="midnightblue" stroke="midnightblue" points="170.41,-195.316 160.922,-190.601 165.399,-200.204 170.41,-195.316"/>
</g>
<!-- Node1571 -->
<g id="node9" class="node"><title>Node1571</title>
<g id="a_node9"><a xlink:href="$a00858.html#ad13e689608e193482a6f30b1ade87814" xlink:title="gk_readfile">
<polygon fill="white" stroke="black" points="257.5,-228.5 257.5,-247.5 322.5,-247.5 322.5,-228.5 257.5,-228.5"/>
<text text-anchor="middle" x="290" y="-235.5" font-family="Helvetica,sans-Serif" font-size="10.00">gk_readfile</text>
</a>
</g>
</g>
<!-- Node1566&#45;&gt;Node1571 -->
<g id="edge8" class="edge"><title>Node1566&#45;&gt;Node1571</title>
<path fill="none" stroke="midnightblue" d="M182.946,-194.702C199.758,-202.06 220.948,-211.196 240,-219 247.683,-222.147 256.096,-225.458 263.748,-228.418"/>
<polygon fill="midnightblue" stroke="midnightblue" points="184.166,-191.415 173.602,-190.598 181.351,-197.824 184.166,-191.415"/>
</g>
<!-- Node1572 -->
<g id="node10" class="node"><title>Node1572</title>
<g id="a_node10"><a xlink:href="$a00858.html#a201c46a9a2bf9c06a917f259d109b7ee" xlink:title="gk_i32readfile">
<polygon fill="white" stroke="black" points="250.5,-190.5 250.5,-209.5 329.5,-209.5 329.5,-190.5 250.5,-190.5"/>
<text text-anchor="middle" x="290" y="-197.5" font-family="Helvetica,sans-Serif" font-size="10.00">gk_i32readfile</text>
</a>
</g>
</g>
<!-- Node1566&#45;&gt;Node1572 -->
<g id="edge9" class="edge"><title>Node1566&#45;&gt;Node1572</title>
<path fill="none" stroke="midnightblue" d="M192.17,-186.571C210.545,-189.119 232.221,-192.126 250.401,-194.647"/>
<polygon fill="midnightblue" stroke="midnightblue" points="192.451,-183.077 182.065,-185.17 191.49,-190.01 192.451,-183.077"/>
</g>
<!-- Node1573 -->
<g id="node11" class="node"><title>Node1573</title>
<g id="a_node11"><a xlink:href="$a00858.html#a8cb19aa95a831aa745f6e04e1cc0b204" xlink:title="gk_i64readfile">
<polygon fill="white" stroke="black" points="250.5,-152.5 250.5,-171.5 329.5,-171.5 329.5,-152.5 250.5,-152.5"/>
<text text-anchor="middle" x="290" y="-159.5" font-family="Helvetica,sans-Serif" font-size="10.00">gk_i64readfile</text>
</a>
</g>
</g>
<!-- Node1566&#45;&gt;Node1573 -->
<g id="edge10" class="edge"><title>Node1566&#45;&gt;Node1573</title>
<path fill="none" stroke="midnightblue" d="M192.17,-175.429C210.545,-172.881 232.221,-169.874 250.401,-167.353"/>
<polygon fill="midnightblue" stroke="midnightblue" points="191.49,-171.99 182.065,-176.83 192.451,-178.923 191.49,-171.99"/>
</g>
<!-- Node1574 -->
<g id="node12" class="node"><title>Node1574</title>
<g id="a_node12"><a xlink:href="$a00951.html#ac8fe4a21ae3e0e01afdba3fedf1c6123" xlink:title="ReadGraph">
<polygon fill="white" stroke="black" points="256,-114.5 256,-133.5 324,-133.5 324,-114.5 256,-114.5"/>
<text text-anchor="middle" x="290" y="-121.5" font-family="Helvetica,sans-Serif" font-size="10.00">ReadGraph</text>
</a>
</g>
</g>
<!-- Node1566&#45;&gt;Node1574 -->
<g id="edge11" class="edge"><title>Node1566&#45;&gt;Node1574</title>
<path fill="none" stroke="midnightblue" d="M189.995,-167.796C194.75,-165.945 199.515,-163.992 204,-162 220.534,-154.657 223.538,-150.505 240,-143 247.306,-139.669 255.379,-136.383 262.828,-133.505"/>
<polygon fill="midnightblue" stroke="midnightblue" points="188.469,-164.631 180.344,-171.431 190.936,-171.182 188.469,-164.631"/>
</g>
<!-- Node1576 -->
<g id="node14" class="node"><title>Node1576</title>
<g id="a_node14"><a xlink:href="$a00951.html#aef01a8b2c6432d21be77abeabeeeced8" xlink:title="ReadMesh">
<polygon fill="white" stroke="black" points="257.5,-76.5 257.5,-95.5 322.5,-95.5 322.5,-76.5 257.5,-76.5"/>
<text text-anchor="middle" x="290" y="-83.5" font-family="Helvetica,sans-Serif" font-size="10.00">ReadMesh</text>
</a>
</g>
</g>
<!-- Node1566&#45;&gt;Node1576 -->
<g id="edge13" class="edge"><title>Node1566&#45;&gt;Node1576</title>
<path fill="none" stroke="midnightblue" d="M191.434,-169.814C195.917,-167.629 200.225,-165.046 204,-162 227.319,-143.185 216.866,-124.042 240,-105 245.072,-100.825 251.167,-97.4955 257.308,-94.8662"/>
<polygon fill="midnightblue" stroke="midnightblue" points="189.946,-166.643 182.098,-173.76 192.672,-173.091 189.946,-166.643"/>
</g>
<!-- Node1578 -->
<g id="node16" class="node"><title>Node1578</title>
<g id="a_node16"><a xlink:href="$a00951.html#a12b940ccee061b8787088fbe16245f46" xlink:title="ReadTPwgts">
<polygon fill="white" stroke="black" points="253,-38.5 253,-57.5 327,-57.5 327,-38.5 253,-38.5"/>
<text text-anchor="middle" x="290" y="-45.5" font-family="Helvetica,sans-Serif" font-size="10.00">ReadTPwgts</text>
</a>
</g>
</g>
<!-- Node1566&#45;&gt;Node1578 -->
<g id="edge15" class="edge"><title>Node1566&#45;&gt;Node1578</title>
<path fill="none" stroke="midnightblue" d="M191.237,-170.944C195.922,-168.562 200.334,-165.623 204,-162 236.117,-130.263 208.195,-99.0497 240,-67 243.856,-63.1141 248.596,-60.0061 253.594,-57.5247"/>
<polygon fill="midnightblue" stroke="midnightblue" points="189.845,-167.733 182.018,-174.873 192.589,-174.172 189.845,-167.733"/>
</g>
<!-- Node1568 -->
<g id="node6" class="node"><title>Node1568</title>
<g id="a_node6"><a xlink:href="$a00867.html#a0ddf1224851353fc92bfbff6f499fa97" xlink:title="main">
<polygon fill="white" stroke="black" points="376,-304.5 376,-323.5 414,-323.5 414,-304.5 376,-304.5"/>
<text text-anchor="middle" x="395" y="-311.5" font-family="Helvetica,sans-Serif" font-size="10.00">main</text>
</a>
</g>
</g>
<!-- Node1567&#45;&gt;Node1568 -->
<g id="edge5" class="edge"><title>Node1567&#45;&gt;Node1568</title>
<path fill="none" stroke="midnightblue" d="M337.822,-314C351.377,-314 365.367,-314 375.996,-314"/>
<polygon fill="midnightblue" stroke="midnightblue" points="337.604,-310.5 327.604,-314 337.604,-317.5 337.604,-310.5"/>
</g>
<!-- Node1570 -->
<g id="node8" class="node"><title>Node1570</title>
<g id="a_node8"><a xlink:href="$a00149.html#a0ddf1224851353fc92bfbff6f499fa97" xlink:title="main">
<polygon fill="white" stroke="black" points="376,-266.5 376,-285.5 414,-285.5 414,-266.5 376,-266.5"/>
<text text-anchor="middle" x="395" y="-273.5" font-family="Helvetica,sans-Serif" font-size="10.00">main</text>
</a>
</g>
</g>
<!-- Node1569&#45;&gt;Node1570 -->
<g id="edge7" class="edge"><title>Node1569&#45;&gt;Node1570</title>
<path fill="none" stroke="midnightblue" d="M344.138,-276C355.611,-276 366.976,-276 375.952,-276"/>
<polygon fill="midnightblue" stroke="midnightblue" points="344.085,-272.5 334.084,-276 344.084,-279.5 344.085,-272.5"/>
</g>
<!-- Node1575 -->
<g id="node13" class="node"><title>Node1575</title>
<g id="a_node13"><a xlink:href="$a00308.html#a0ddf1224851353fc92bfbff6f499fa97" xlink:title="main">
<polygon fill="white" stroke="black" points="376,-114.5 376,-133.5 414,-133.5 414,-114.5 376,-114.5"/>
<text text-anchor="middle" x="395" y="-121.5" font-family="Helvetica,sans-Serif" font-size="10.00">main</text>
</a>
</g>
</g>
<!-- Node1574&#45;&gt;Node1575 -->
<g id="edge12" class="edge"><title>Node1574&#45;&gt;Node1575</title>
<path fill="none" stroke="midnightblue" d="M334.509,-124C349.03,-124 364.42,-124 375.908,-124"/>
<polygon fill="midnightblue" stroke="midnightblue" points="334.157,-120.5 324.157,-124 334.157,-127.5 334.157,-120.5"/>
</g>
<!-- Node1577 -->
<g id="node15" class="node"><title>Node1577</title>
<g id="a_node15"><a xlink:href="$a00317.html#a0ddf1224851353fc92bfbff6f499fa97" xlink:title="main">
<polygon fill="white" stroke="black" points="376,-76.5 376,-95.5 414,-95.5 414,-76.5 376,-76.5"/>
<text text-anchor="middle" x="395" y="-83.5" font-family="Helvetica,sans-Serif" font-size="10.00">main</text>
</a>
</g>
</g>
<!-- Node1576&#45;&gt;Node1577 -->
<g id="edge14" class="edge"><title>Node1576&#45;&gt;Node1577</title>
<path fill="none" stroke="midnightblue" d="M332.898,-86C347.921,-86 364.074,-86 375.996,-86"/>
<polygon fill="midnightblue" stroke="midnightblue" points="332.744,-82.5001 322.744,-86 332.744,-89.5001 332.744,-82.5001"/>
</g>
<!-- Node1579 -->
<g id="node17" class="node"><title>Node1579</title>
<g id="a_node17"><a xlink:href="$a00311.html#a0ddf1224851353fc92bfbff6f499fa97" xlink:title="main">
<polygon fill="white" stroke="black" points="376,-38.5 376,-57.5 414,-57.5 414,-38.5 376,-38.5"/>
<text text-anchor="middle" x="395" y="-45.5" font-family="Helvetica,sans-Serif" font-size="10.00">main</text>
</a>
</g>
</g>
<!-- Node1578&#45;&gt;Node1579 -->
<g id="edge16" class="edge"><title>Node1578&#45;&gt;Node1579</title>
<path fill="none" stroke="midnightblue" d="M337.288,-48C350.92,-48 365.043,-48 375.786,-48"/>
<polygon fill="midnightblue" stroke="midnightblue" points="337.024,-44.5001 327.024,-48 337.024,-51.5001 337.024,-44.5001"/>
</g>
<!-- Node1581 -->
<g id="node19" class="node"><title>Node1581</title>
<g id="a_node19"><a xlink:href="$a00155.html#a3666be16b4df33d86374ee780353af54" xlink:title="test_strstr_replace">
<polygon fill="white" stroke="black" points="240.5,-0.5 240.5,-19.5 339.5,-19.5 339.5,-0.5 240.5,-0.5"/>
<text text-anchor="middle" x="290" y="-7.5" font-family="Helvetica,sans-Serif" font-size="10.00">test_strstr_replace</text>
</a>
</g>
</g>
<!-- Node1580&#45;&gt;Node1581 -->
<g id="edge18" class="edge"><title>Node1580&#45;&gt;Node1581</title>
<path fill="none" stroke="midnightblue" d="M199.29,-128.014C200.959,-126.779 202.539,-125.444 204,-124 236.117,-92.2633 208.195,-61.0497 240,-29 243.856,-25.1141 248.596,-22.0061 253.594,-19.5247"/>
<polygon fill="midnightblue" stroke="midnightblue" points="197.118,-125.236 190.35,-133.387 200.724,-131.236 197.118,-125.236"/>
</g>
<!-- Node1582 -->
<g id="node20" class="node"><title>Node1582</title>
<g id="a_node20"><a xlink:href="$a00155.html#ae66f6b31b5ad750f1fe042a706a4e3d4" xlink:title="main">
<polygon fill="white" stroke="black" points="376,-0.5 376,-19.5 414,-19.5 414,-0.5 376,-0.5"/>
<text text-anchor="middle" x="395" y="-7.5" font-family="Helvetica,sans-Serif" font-size="10.00">main</text>
</a>
</g>
</g>
<!-- Node1581&#45;&gt;Node1582 -->
<g id="edge19" class="edge"><title>Node1581&#45;&gt;Node1582</title>
<path fill="none" stroke="midnightblue" d="M350.048,-10C359.439,-10 368.487,-10 375.908,-10"/>
<polygon fill="midnightblue" stroke="midnightblue" points="349.785,-6.5001 339.785,-10 349.785,-13.5001 349.785,-6.5001"/>
</g>
</g>
</svg>
