<?xml version="1.0" encoding="UTF-8" standalone="no"?>
<!DOCTYPE svg PUBLIC "-//W3C//DTD SVG 1.1//EN"
 "http://www.w3.org/Graphics/SVG/1.1/DTD/svg11.dtd">
<!-- Generated by graphviz version 2.36.0 (20140111.2315)
 -->
<!-- Title: gk_dreadfilebin Pages: 1 -->
<svg width="370pt" height="180pt"
 viewBox="0.00 0.00 370.00 180.00" xmlns="http://www.w3.org/2000/svg" xmlns:xlink="http://www.w3.org/1999/xlink">
<g id="graph0" class="graph" transform="scale(1 1) rotate(0) translate(4 176)">
<title>gk_dreadfilebin</title>
<polygon fill="white" stroke="none" points="-4,4 -4,-176 366,-176 366,4 -4,4"/>
<!-- Node340 -->
<g id="node1" class="node"><title>Node340</title>
<polygon fill="#bfbfbf" stroke="black" points="0,-76.5 0,-95.5 84,-95.5 84,-76.5 0,-76.5"/>
<text text-anchor="middle" x="42" y="-83.5" font-family="Helvetica,sans-Serif" font-size="10.00">gk_dreadfilebin</text>
</g>
<!-- Node341 -->
<g id="node2" class="node"><title>Node341</title>
<g id="a_node2"><a xlink:href="$a00035.html#ab8e9c3fc4ed1161501b51e445afde0e5" xlink:title="Returns the size of the file in bytes. ">
<polygon fill="white" stroke="black" points="120.5,-152.5 120.5,-171.5 187.5,-171.5 187.5,-152.5 120.5,-152.5"/>
<text text-anchor="middle" x="154" y="-159.5" font-family="Helvetica,sans-Serif" font-size="10.00">gk_getfsize</text>
</a>
</g>
</g>
<!-- Node340&#45;&gt;Node341 -->
<g id="edge1" class="edge"><title>Node340&#45;&gt;Node341</title>
<path fill="none" stroke="midnightblue" d="M56.9316,-95.6255C75.5283,-108.474 108.679,-131.378 130.755,-146.63"/>
<polygon fill="midnightblue" stroke="midnightblue" points="128.965,-149.648 139.182,-152.453 132.944,-143.889 128.965,-149.648"/>
</g>
<!-- Node342 -->
<g id="node3" class="node"><title>Node342</title>
<g id="a_node3"><a xlink:href="$a00026.html#a4c320c13bcdc9967613253ef4c73f59f" xlink:title="gk_errexit">
<polygon fill="white" stroke="black" points="224,-114.5 224,-133.5 284,-133.5 284,-114.5 224,-114.5"/>
<text text-anchor="middle" x="254" y="-121.5" font-family="Helvetica,sans-Serif" font-size="10.00">gk_errexit</text>
</a>
</g>
</g>
<!-- Node340&#45;&gt;Node342 -->
<g id="edge2" class="edge"><title>Node340&#45;&gt;Node342</title>
<path fill="none" stroke="midnightblue" d="M78.4875,-95.5442C91.4836,-98.8306 106.349,-102.348 120,-105 151.331,-111.088 187.167,-116.096 213.741,-119.439"/>
<polygon fill="midnightblue" stroke="midnightblue" points="213.448,-122.93 223.801,-120.681 214.306,-115.982 213.448,-122.93"/>
</g>
<!-- Node344 -->
<g id="node5" class="node"><title>Node344</title>
<g id="a_node5"><a xlink:href="$a00858.html#abff04948821f625a3e59666e61c70e2f" xlink:title="gk_fopen">
<polygon fill="white" stroke="black" points="125,-76.5 125,-95.5 183,-95.5 183,-76.5 125,-76.5"/>
<text text-anchor="middle" x="154" y="-83.5" font-family="Helvetica,sans-Serif" font-size="10.00">gk_fopen</text>
</a>
</g>
</g>
<!-- Node340&#45;&gt;Node344 -->
<g id="edge4" class="edge"><title>Node340&#45;&gt;Node344</title>
<path fill="none" stroke="midnightblue" d="M84.2729,-86C94.2117,-86 104.789,-86 114.592,-86"/>
<polygon fill="midnightblue" stroke="midnightblue" points="114.856,-89.5001 124.856,-86 114.856,-82.5001 114.856,-89.5001"/>
</g>
<!-- Node347 -->
<g id="node8" class="node"><title>Node347</title>
<g id="a_node8"><a xlink:href="$a00077.html#ac8df62c4e3d0910711a9874f9cc58884" xlink:title="gk_free">
<polygon fill="white" stroke="black" points="129,-38.5 129,-57.5 179,-57.5 179,-38.5 129,-38.5"/>
<text text-anchor="middle" x="154" y="-45.5" font-family="Helvetica,sans-Serif" font-size="10.00">gk_free</text>
</a>
</g>
</g>
<!-- Node340&#45;&gt;Node347 -->
<g id="edge8" class="edge"><title>Node340&#45;&gt;Node347</title>
<path fill="none" stroke="midnightblue" d="M70.7576,-76.411C85.4807,-71.3249 103.688,-65.035 119.226,-59.6674"/>
<polygon fill="midnightblue" stroke="midnightblue" points="120.678,-62.8687 128.987,-56.2952 118.393,-56.2523 120.678,-62.8687"/>
</g>
<!-- Node348 -->
<g id="node9" class="node"><title>Node348</title>
<g id="a_node9"><a xlink:href="$a00858.html#a70dec19fefaf0c84f3948b4679a73fec" xlink:title="gk_fclose">
<polygon fill="white" stroke="black" points="124.5,-0.5 124.5,-19.5 183.5,-19.5 183.5,-0.5 124.5,-0.5"/>
<text text-anchor="middle" x="154" y="-7.5" font-family="Helvetica,sans-Serif" font-size="10.00">gk_fclose</text>
</a>
</g>
</g>
<!-- Node340&#45;&gt;Node348 -->
<g id="edge9" class="edge"><title>Node340&#45;&gt;Node348</title>
<path fill="none" stroke="midnightblue" d="M54.9603,-76.4746C69.8441,-64.7799 96.2072,-44.5822 120,-29 122.129,-27.6055 124.364,-26.2008 126.625,-24.8204"/>
<polygon fill="midnightblue" stroke="midnightblue" points="128.477,-27.7915 135.305,-19.6902 124.916,-21.7654 128.477,-27.7915"/>
</g>
<!-- Node343 -->
<g id="node4" class="node"><title>Node343</title>
<g id="a_node4"><a xlink:href="$a01017.html#a2e311a777ffe9c80e405efa7cd2757be" xlink:title="fprintf">
<polygon fill="white" stroke="black" points="320,-76.5 320,-95.5 362,-95.5 362,-76.5 320,-76.5"/>
<text text-anchor="middle" x="341" y="-83.5" font-family="Helvetica,sans-Serif" font-size="10.00">fprintf</text>
</a>
</g>
</g>
<!-- Node342&#45;&gt;Node343 -->
<g id="edge3" class="edge"><title>Node342&#45;&gt;Node343</title>
<path fill="none" stroke="midnightblue" d="M276.449,-114.411C286.719,-109.82 299.184,-104.247 310.344,-99.2579"/>
<polygon fill="midnightblue" stroke="midnightblue" points="312.027,-102.339 319.728,-95.0627 309.17,-95.9488 312.027,-102.339"/>
</g>
<!-- Node345 -->
<g id="node6" class="node"><title>Node345</title>
<g id="a_node6"><a xlink:href="$a00575.html#ae6aab5c308faac0fc539cc9c6da9fbd0" xlink:title="sprintf">
<polygon fill="white" stroke="black" points="232,-76.5 232,-95.5 276,-95.5 276,-76.5 232,-76.5"/>
<text text-anchor="middle" x="254" y="-83.5" font-family="Helvetica,sans-Serif" font-size="10.00">sprintf</text>
</a>
</g>
</g>
<!-- Node344&#45;&gt;Node345 -->
<g id="edge5" class="edge"><title>Node344&#45;&gt;Node345</title>
<path fill="none" stroke="midnightblue" d="M183.083,-86C195.069,-86 209.111,-86 221.454,-86"/>
<polygon fill="midnightblue" stroke="midnightblue" points="221.769,-89.5001 231.768,-86 221.768,-82.5001 221.769,-89.5001"/>
</g>
<!-- Node346 -->
<g id="node7" class="node"><title>Node346</title>
<g id="a_node7"><a xlink:href="$a00026.html#a56d0f2cc40cd8633a784582d6200d8b5" xlink:title="errexit">
<polygon fill="white" stroke="black" points="232,-38.5 232,-57.5 276,-57.5 276,-38.5 232,-38.5"/>
<text text-anchor="middle" x="254" y="-45.5" font-family="Helvetica,sans-Serif" font-size="10.00">errexit</text>
</a>
</g>
</g>
<!-- Node344&#45;&gt;Node346 -->
<g id="edge6" class="edge"><title>Node344&#45;&gt;Node346</title>
<path fill="none" stroke="midnightblue" d="M179.73,-76.411C192.688,-71.3863 208.676,-65.1869 222.407,-59.8625"/>
<polygon fill="midnightblue" stroke="midnightblue" points="223.873,-63.0481 231.931,-56.1695 221.342,-56.5215 223.873,-63.0481"/>
</g>
<!-- Node346&#45;&gt;Node343 -->
<g id="edge7" class="edge"><title>Node346&#45;&gt;Node343</title>
<path fill="none" stroke="midnightblue" d="M276.011,-57.3933C286.458,-62.0636 299.256,-67.785 310.653,-72.8804"/>
<polygon fill="midnightblue" stroke="midnightblue" points="309.258,-76.0903 319.816,-76.9765 312.115,-69.6999 309.258,-76.0903"/>
</g>
<!-- Node349 -->
<g id="node10" class="node"><title>Node349</title>
<g id="a_node10"><a xlink:href="$a01017.html#a355ed4cdac2a27aa04a6689ac2d7e86e" xlink:title="fclose">
<polygon fill="white" stroke="black" points="232.5,-0.5 232.5,-19.5 275.5,-19.5 275.5,-0.5 232.5,-0.5"/>
<text text-anchor="middle" x="254" y="-7.5" font-family="Helvetica,sans-Serif" font-size="10.00">fclose</text>
</a>
</g>
</g>
<!-- Node348&#45;&gt;Node349 -->
<g id="edge10" class="edge"><title>Node348&#45;&gt;Node349</title>
<path fill="none" stroke="midnightblue" d="M183.609,-10C195.669,-10 209.735,-10 222.038,-10"/>
<polygon fill="midnightblue" stroke="midnightblue" points="222.301,-13.5001 232.301,-10 222.301,-6.5001 222.301,-13.5001"/>
</g>
</g>
</svg>
