<?xml version="1.0" encoding="UTF-8" standalone="no"?>
<!DOCTYPE svg PUBLIC "-//W3C//DTD SVG 1.1//EN"
 "http://www.w3.org/Graphics/SVG/1.1/DTD/svg11.dtd">
<!-- Generated by graphviz version 2.36.0 (20140111.2315)
 -->
<!-- Title: HTable_HFunction Pages: 1 -->
<svg width="400pt" height="180pt"
 viewBox="0.00 0.00 400.00 180.00" xmlns="http://www.w3.org/2000/svg" xmlns:xlink="http://www.w3.org/1999/xlink">
<g id="graph0" class="graph" transform="scale(1 1) rotate(0) translate(4 176)">
<title>HTable_HFunction</title>
<polygon fill="white" stroke="none" points="-4,4 -4,-176 396,-176 396,4 -4,4"/>
<!-- Node18 -->
<g id="node1" class="node"><title>Node18</title>
<polygon fill="#bfbfbf" stroke="black" points="0,-76.5 0,-95.5 100,-95.5 100,-76.5 0,-76.5"/>
<text text-anchor="middle" x="50" y="-83.5" font-family="Helvetica,sans-Serif" font-size="10.00">HTable_HFunction</text>
</g>
<!-- Node19 -->
<g id="node2" class="node"><title>Node19</title>
<g id="a_node2"><a xlink:href="$a00098.html#a39853dc7129323e7846d895c9026ad6f" xlink:title="HTable_Insert">
<polygon fill="white" stroke="black" points="163.5,-152.5 163.5,-171.5 242.5,-171.5 242.5,-152.5 163.5,-152.5"/>
<text text-anchor="middle" x="203" y="-159.5" font-family="Helvetica,sans-Serif" font-size="10.00">HTable_Insert</text>
</a>
</g>
</g>
<!-- Node18&#45;&gt;Node19 -->
<g id="edge1" class="edge"><title>Node18&#45;&gt;Node19</title>
<path fill="none" stroke="midnightblue" d="M71.0058,-102.04C87.5887,-114.669 112.214,-131.932 136,-143 144.54,-146.974 154.095,-150.305 163.225,-153.01"/>
<polygon fill="midnightblue" stroke="midnightblue" points="72.721,-98.9399 62.6769,-95.5685 68.4263,-104.468 72.721,-98.9399"/>
</g>
<!-- Node21 -->
<g id="node4" class="node"><title>Node21</title>
<g id="a_node4"><a xlink:href="$a00098.html#a19564e2cf9bc13d7ba8b8d4ed2e9b1d1" xlink:title="HTable_Delete">
<polygon fill="white" stroke="black" points="161.5,-114.5 161.5,-133.5 244.5,-133.5 244.5,-114.5 161.5,-114.5"/>
<text text-anchor="middle" x="203" y="-121.5" font-family="Helvetica,sans-Serif" font-size="10.00">HTable_Delete</text>
</a>
</g>
</g>
<!-- Node18&#45;&gt;Node21 -->
<g id="edge4" class="edge"><title>Node18&#45;&gt;Node21</title>
<path fill="none" stroke="midnightblue" d="M98.8431,-98.04C119.939,-103.349 144.377,-109.499 164.17,-114.48"/>
<polygon fill="midnightblue" stroke="midnightblue" points="99.6555,-94.6354 89.1037,-95.589 97.9471,-101.424 99.6555,-94.6354"/>
</g>
<!-- Node22 -->
<g id="node5" class="node"><title>Node22</title>
<g id="a_node5"><a xlink:href="$a00098.html#a2b610fbd6017e0ef2e393c563b4809a5" xlink:title="HTable_Search">
<polygon fill="white" stroke="black" points="160,-76.5 160,-95.5 246,-95.5 246,-76.5 160,-76.5"/>
<text text-anchor="middle" x="203" y="-83.5" font-family="Helvetica,sans-Serif" font-size="10.00">HTable_Search</text>
</a>
</g>
</g>
<!-- Node18&#45;&gt;Node22 -->
<g id="edge5" class="edge"><title>Node18&#45;&gt;Node22</title>
<path fill="none" stroke="midnightblue" d="M110.175,-86C126.754,-86 144.436,-86 159.813,-86"/>
<polygon fill="midnightblue" stroke="midnightblue" points="110.025,-82.5001 100.025,-86 110.025,-89.5001 110.025,-82.5001"/>
</g>
<!-- Node23 -->
<g id="node6" class="node"><title>Node23</title>
<g id="a_node6"><a xlink:href="$a00098.html#a226d34f299950350235ed2f54146c292" xlink:title="HTable_GetNext">
<polygon fill="white" stroke="black" points="157.5,-38.5 157.5,-57.5 248.5,-57.5 248.5,-38.5 157.5,-38.5"/>
<text text-anchor="middle" x="203" y="-45.5" font-family="Helvetica,sans-Serif" font-size="10.00">HTable_GetNext</text>
</a>
</g>
</g>
<!-- Node18&#45;&gt;Node23 -->
<g id="edge6" class="edge"><title>Node18&#45;&gt;Node23</title>
<path fill="none" stroke="midnightblue" d="M98.8431,-73.96C119.939,-68.6512 144.377,-62.5012 164.17,-57.5201"/>
<polygon fill="midnightblue" stroke="midnightblue" points="97.9471,-70.5763 89.1037,-76.411 99.6555,-77.3646 97.9471,-70.5763"/>
</g>
<!-- Node24 -->
<g id="node7" class="node"><title>Node24</title>
<g id="a_node7"><a xlink:href="$a00098.html#acb372a5e2569817f3a10cbeababda100" xlink:title="HTable_SearchAndDelete">
<polygon fill="white" stroke="black" points="136.5,-0.5 136.5,-19.5 269.5,-19.5 269.5,-0.5 136.5,-0.5"/>
<text text-anchor="middle" x="203" y="-7.5" font-family="Helvetica,sans-Serif" font-size="10.00">HTable_SearchAndDelete</text>
</a>
</g>
</g>
<!-- Node18&#45;&gt;Node24 -->
<g id="edge7" class="edge"><title>Node18&#45;&gt;Node24</title>
<path fill="none" stroke="midnightblue" d="M71.0058,-69.9605C87.5887,-57.3309 112.214,-40.0679 136,-29 144,-25.2776 152.89,-22.1197 161.486,-19.5108"/>
<polygon fill="midnightblue" stroke="midnightblue" points="68.4263,-67.5323 62.6769,-76.4315 72.721,-73.0601 68.4263,-67.5323"/>
</g>
<!-- Node20 -->
<g id="node3" class="node"><title>Node20</title>
<g id="a_node3"><a xlink:href="$a00098.html#ad79cb786b03a73481fb3e5846d345801" xlink:title="HTable_Resize">
<polygon fill="white" stroke="black" points="306.5,-152.5 306.5,-171.5 391.5,-171.5 391.5,-152.5 306.5,-152.5"/>
<text text-anchor="middle" x="349" y="-159.5" font-family="Helvetica,sans-Serif" font-size="10.00">HTable_Resize</text>
</a>
</g>
</g>
<!-- Node19&#45;&gt;Node20 -->
<g id="edge2" class="edge"><title>Node19&#45;&gt;Node20</title>
<path fill="none" stroke="midnightblue" d="M253.064,-155.564C270.363,-155.075 289.635,-155.157 306.271,-155.811"/>
<polygon fill="midnightblue" stroke="midnightblue" points="252.456,-152.084 242.589,-155.943 252.709,-159.079 252.456,-152.084"/>
</g>
<!-- Node20&#45;&gt;Node19 -->
<g id="edge3" class="edge"><title>Node20&#45;&gt;Node19</title>
<path fill="none" stroke="midnightblue" d="M296.109,-168.51C278.445,-168.942 259.025,-168.791 242.589,-168.057"/>
<polygon fill="midnightblue" stroke="midnightblue" points="296.386,-172.003 306.271,-168.189 296.165,-165.007 296.386,-172.003"/>
</g>
</g>
</svg>
