<?xml version="1.0" encoding="UTF-8" standalone="no"?>
<!DOCTYPE svg PUBLIC "-//W3C//DTD SVG 1.1//EN"
 "http://www.w3.org/Graphics/SVG/1.1/DTD/svg11.dtd">
<!-- Generated by graphviz version 2.36.0 (20140111.2315)
 -->
<!-- Title: gk_strdup Pages: 1 -->
<svg width="452pt" height="408pt"
 viewBox="0.00 0.00 452.00 408.00" xmlns="http://www.w3.org/2000/svg" xmlns:xlink="http://www.w3.org/1999/xlink">
<g id="graph0" class="graph" transform="scale(1 1) rotate(0) translate(4 404)">
<title>gk_strdup</title>
<polygon fill="white" stroke="none" points="-4,4 -4,-404 448,-404 448,4 -4,4"/>
<!-- Node1689 -->
<g id="node1" class="node"><title>Node1689</title>
<polygon fill="#bfbfbf" stroke="black" points="0,-190.5 0,-209.5 60,-209.5 60,-190.5 0,-190.5"/>
<text text-anchor="middle" x="30" y="-197.5" font-family="Helvetica,sans-Serif" font-size="10.00">gk_strdup</text>
</g>
<!-- Node1690 -->
<g id="node2" class="node"><title>Node1690</title>
<g id="a_node2"><a xlink:href="$a00077.html#ad732cbb6372e1eb9b396792f700091a5" xlink:title="gk_getbasename">
<polygon fill="white" stroke="black" points="96.5,-152.5 96.5,-171.5 189.5,-171.5 189.5,-152.5 96.5,-152.5"/>
<text text-anchor="middle" x="143" y="-159.5" font-family="Helvetica,sans-Serif" font-size="10.00">gk_getbasename</text>
</a>
</g>
</g>
<!-- Node1689&#45;&gt;Node1690 -->
<g id="edge1" class="edge"><title>Node1689&#45;&gt;Node1690</title>
<path fill="none" stroke="midnightblue" d="M68.8913,-187.028C83.6795,-181.966 100.329,-176.266 113.999,-171.586"/>
<polygon fill="midnightblue" stroke="midnightblue" points="67.3373,-183.861 59.01,-190.411 69.6046,-190.483 67.3373,-183.861"/>
</g>
<!-- Node1692 -->
<g id="node4" class="node"><title>Node1692</title>
<g id="a_node4"><a xlink:href="$a00077.html#a4d728cd9869792eb93b315f949819d99" xlink:title="gk_getextname">
<polygon fill="white" stroke="black" points="100.5,-342.5 100.5,-361.5 185.5,-361.5 185.5,-342.5 100.5,-342.5"/>
<text text-anchor="middle" x="143" y="-349.5" font-family="Helvetica,sans-Serif" font-size="10.00">gk_getextname</text>
</a>
</g>
</g>
<!-- Node1689&#45;&gt;Node1692 -->
<g id="edge3" class="edge"><title>Node1689&#45;&gt;Node1692</title>
<path fill="none" stroke="midnightblue" d="M35.8558,-219.788C43.8226,-248.39 62.2591,-301.317 96,-333 100.031,-336.785 104.922,-339.866 109.99,-342.357"/>
<polygon fill="midnightblue" stroke="midnightblue" points="39.1547,-218.571 33.2253,-209.791 32.3851,-220.352 39.1547,-218.571"/>
</g>
<!-- Node1693 -->
<g id="node5" class="node"><title>Node1693</title>
<g id="a_node5"><a xlink:href="$a00077.html#a742e52c08aa7e46acd66cde95045d935" xlink:title="gk_getfilename">
<polygon fill="white" stroke="black" points="101,-304.5 101,-323.5 185,-323.5 185,-304.5 101,-304.5"/>
<text text-anchor="middle" x="143" y="-311.5" font-family="Helvetica,sans-Serif" font-size="10.00">gk_getfilename</text>
</a>
</g>
</g>
<!-- Node1689&#45;&gt;Node1693 -->
<g id="edge4" class="edge"><title>Node1689&#45;&gt;Node1693</title>
<path fill="none" stroke="midnightblue" d="M39.7597,-218.949C50.3799,-240.074 70.119,-274.019 96,-295 100.564,-298.7 105.949,-301.775 111.397,-304.296"/>
<polygon fill="midnightblue" stroke="midnightblue" points="42.7999,-217.197 35.2916,-209.721 36.4996,-220.247 42.7999,-217.197"/>
</g>
<!-- Node1694 -->
<g id="node6" class="node"><title>Node1694</title>
<g id="a_node6"><a xlink:href="$a00035.html#abae64e0957b2369082de428989501f5f" xlink:title="getpathname">
<polygon fill="white" stroke="black" points="105.5,-266.5 105.5,-285.5 180.5,-285.5 180.5,-266.5 105.5,-266.5"/>
<text text-anchor="middle" x="143" y="-273.5" font-family="Helvetica,sans-Serif" font-size="10.00">getpathname</text>
</a>
</g>
</g>
<!-- Node1689&#45;&gt;Node1694 -->
<g id="edge5" class="edge"><title>Node1689&#45;&gt;Node1694</title>
<path fill="none" stroke="midnightblue" d="M47.2257,-216.962C59.69,-229.278 77.8016,-245.697 96,-257 101.725,-260.556 108.232,-263.709 114.512,-266.374"/>
<polygon fill="midnightblue" stroke="midnightblue" points="49.4251,-214.209 39.9062,-209.557 44.4465,-219.13 49.4251,-214.209"/>
</g>
<!-- Node1695 -->
<g id="node7" class="node"><title>Node1695</title>
<g id="a_node7"><a xlink:href="$a00858.html#ad13e689608e193482a6f30b1ade87814" xlink:title="gk_readfile">
<polygon fill="white" stroke="black" points="110.5,-228.5 110.5,-247.5 175.5,-247.5 175.5,-228.5 110.5,-228.5"/>
<text text-anchor="middle" x="143" y="-235.5" font-family="Helvetica,sans-Serif" font-size="10.00">gk_readfile</text>
</a>
</g>
</g>
<!-- Node1689&#45;&gt;Node1695 -->
<g id="edge6" class="edge"><title>Node1689&#45;&gt;Node1695</title>
<path fill="none" stroke="midnightblue" d="M68.8913,-212.972C83.6795,-218.034 100.329,-223.734 113.999,-228.414"/>
<polygon fill="midnightblue" stroke="midnightblue" points="69.6046,-209.517 59.01,-209.589 67.3373,-216.139 69.6046,-209.517"/>
</g>
<!-- Node1696 -->
<g id="node8" class="node"><title>Node1696</title>
<g id="a_node8"><a xlink:href="$a00125.html#a297ec0561d579a1772f424fce8886d96" xlink:title="Reads a pdb file into a pdbf structure. ">
<polygon fill="white" stroke="black" points="102,-190.5 102,-209.5 184,-209.5 184,-190.5 102,-190.5"/>
<text text-anchor="middle" x="143" y="-197.5" font-family="Helvetica,sans-Serif" font-size="10.00">gk_readpdbfile</text>
</a>
</g>
</g>
<!-- Node1689&#45;&gt;Node1696 -->
<g id="edge7" class="edge"><title>Node1689&#45;&gt;Node1696</title>
<path fill="none" stroke="midnightblue" d="M70.4152,-200C80.5882,-200 91.5504,-200 101.765,-200"/>
<polygon fill="midnightblue" stroke="midnightblue" points="70.164,-196.5 60.1639,-200 70.1639,-203.5 70.164,-196.5"/>
</g>
<!-- Node1697 -->
<g id="node9" class="node"><title>Node1697</title>
<g id="a_node9"><a xlink:href="$a00143.html#a46e5cf8f76a1ece74adf1b8b9dfcb275" xlink:title="Regex&#45;based search&#45;and&#45;replace function. ">
<polygon fill="white" stroke="black" points="96.5,-76.5 96.5,-95.5 189.5,-95.5 189.5,-76.5 96.5,-76.5"/>
<text text-anchor="middle" x="143" y="-83.5" font-family="Helvetica,sans-Serif" font-size="10.00">gk_strstr_replace</text>
</a>
</g>
</g>
<!-- Node1689&#45;&gt;Node1697 -->
<g id="edge8" class="edge"><title>Node1689&#45;&gt;Node1697</title>
<path fill="none" stroke="midnightblue" d="M39.7597,-181.051C50.3799,-159.926 70.119,-125.981 96,-105 100.564,-101.3 105.949,-98.2249 111.397,-95.704"/>
<polygon fill="midnightblue" stroke="midnightblue" points="36.4996,-179.753 35.2916,-190.279 42.7999,-182.803 36.4996,-179.753"/>
</g>
<!-- Node1700 -->
<g id="node12" class="node"><title>Node1700</title>
<g id="a_node12"><a xlink:href="$a00146.html#a0ddf1224851353fc92bfbff6f499fa97" xlink:title="main">
<polygon fill="white" stroke="black" points="124,-114.5 124,-133.5 162,-133.5 162,-114.5 124,-114.5"/>
<text text-anchor="middle" x="143" y="-121.5" font-family="Helvetica,sans-Serif" font-size="10.00">main</text>
</a>
</g>
</g>
<!-- Node1689&#45;&gt;Node1700 -->
<g id="edge11" class="edge"><title>Node1689&#45;&gt;Node1700</title>
<path fill="none" stroke="midnightblue" d="M47.2257,-183.038C59.69,-170.722 77.8016,-154.303 96,-143 104.661,-137.62 115.111,-133.163 123.861,-129.921"/>
<polygon fill="midnightblue" stroke="midnightblue" points="44.4465,-180.87 39.9062,-190.443 49.4251,-185.791 44.4465,-180.87"/>
</g>
<!-- Node1701 -->
<g id="node13" class="node"><title>Node1701</title>
<g id="a_node13"><a xlink:href="$a00951.html#a0e7ce196a2f8882777957bf898739f6f" xlink:title="parse_cmdline">
<polygon fill="white" stroke="black" points="102,-38.5 102,-57.5 184,-57.5 184,-38.5 102,-38.5"/>
<text text-anchor="middle" x="143" y="-45.5" font-family="Helvetica,sans-Serif" font-size="10.00">parse_cmdline</text>
</a>
</g>
</g>
<!-- Node1689&#45;&gt;Node1701 -->
<g id="edge12" class="edge"><title>Node1689&#45;&gt;Node1701</title>
<path fill="none" stroke="midnightblue" d="M35.8558,-180.212C43.8226,-151.61 62.2591,-98.6831 96,-67 100.031,-63.2146 104.922,-60.1344 109.99,-57.6434"/>
<polygon fill="midnightblue" stroke="midnightblue" points="32.3851,-179.648 33.2253,-190.209 39.1547,-181.429 32.3851,-179.648"/>
</g>
<!-- Node1703 -->
<g id="node15" class="node"><title>Node1703</title>
<g id="a_node15"><a xlink:href="$a00152.html#ae2471bde9a7e9419d330392c2e2b35fd" xlink:title="test_skvsort">
<polygon fill="white" stroke="black" points="108,-0.5 108,-19.5 178,-19.5 178,-0.5 108,-0.5"/>
<text text-anchor="middle" x="143" y="-7.5" font-family="Helvetica,sans-Serif" font-size="10.00">test_skvsort</text>
</a>
</g>
</g>
<!-- Node1689&#45;&gt;Node1703 -->
<g id="edge14" class="edge"><title>Node1689&#45;&gt;Node1703</title>
<path fill="none" stroke="midnightblue" d="M33.3821,-180.154C38.5789,-145.175 54.0369,-72.1743 96,-29 99.7338,-25.1584 104.357,-22.0632 109.22,-19.5781"/>
<polygon fill="midnightblue" stroke="midnightblue" points="29.8601,-180.082 31.9896,-190.461 36.7971,-181.02 29.8601,-180.082"/>
</g>
<!-- Node1705 -->
<g id="node17" class="node"><title>Node1705</title>
<g id="a_node17"><a xlink:href="$a00161.html#a551670b0d23e97d4655a827762c6bacd" xlink:title="gk_strtokenize">
<polygon fill="white" stroke="black" points="102.5,-380.5 102.5,-399.5 183.5,-399.5 183.5,-380.5 102.5,-380.5"/>
<text text-anchor="middle" x="143" y="-387.5" font-family="Helvetica,sans-Serif" font-size="10.00">gk_strtokenize</text>
</a>
</g>
</g>
<!-- Node1689&#45;&gt;Node1705 -->
<g id="edge16" class="edge"><title>Node1689&#45;&gt;Node1705</title>
<path fill="none" stroke="midnightblue" d="M33.3821,-219.846C38.5789,-254.825 54.0369,-327.826 96,-371 99.7338,-374.842 104.357,-377.937 109.22,-380.422"/>
<polygon fill="midnightblue" stroke="midnightblue" points="36.7971,-218.98 31.9896,-209.539 29.8601,-219.918 36.7971,-218.98"/>
</g>
<!-- Node1691 -->
<g id="node3" class="node"><title>Node1691</title>
<g id="a_node3"><a xlink:href="$a00137.html#ad44124c9b40b8ffda2276f877526a261" xlink:title="This function reads a pssm in the format of gkmod pssm. ">
<polygon fill="white" stroke="black" points="226,-266.5 226,-285.5 370,-285.5 370,-266.5 226,-266.5"/>
<text text-anchor="middle" x="298" y="-273.5" font-family="Helvetica,sans-Serif" font-size="10.00">gk_seq_ReadGKMODPSSM</text>
</a>
</g>
</g>
<!-- Node1690&#45;&gt;Node1691 -->
<g id="edge2" class="edge"><title>Node1690&#45;&gt;Node1691</title>
<path fill="none" stroke="midnightblue" d="M180.671,-175.813C183.898,-177.425 187.054,-179.157 190,-181 230.86,-206.554 271.24,-247.934 288.402,-266.479"/>
<polygon fill="midnightblue" stroke="midnightblue" points="182.051,-172.596 171.503,-171.6 179.128,-178.956 182.051,-172.596"/>
</g>
<!-- Node1698 -->
<g id="node10" class="node"><title>Node1698</title>
<g id="a_node10"><a xlink:href="$a00155.html#a3666be16b4df33d86374ee780353af54" xlink:title="test_strstr_replace">
<polygon fill="white" stroke="black" points="248.5,-76.5 248.5,-95.5 347.5,-95.5 347.5,-76.5 248.5,-76.5"/>
<text text-anchor="middle" x="298" y="-83.5" font-family="Helvetica,sans-Serif" font-size="10.00">test_strstr_replace</text>
</a>
</g>
</g>
<!-- Node1697&#45;&gt;Node1698 -->
<g id="edge9" class="edge"><title>Node1697&#45;&gt;Node1698</title>
<path fill="none" stroke="midnightblue" d="M200.114,-86C215.974,-86 233.095,-86 248.468,-86"/>
<polygon fill="midnightblue" stroke="midnightblue" points="199.905,-82.5001 189.905,-86 199.905,-89.5001 199.905,-82.5001"/>
</g>
<!-- Node1699 -->
<g id="node11" class="node"><title>Node1699</title>
<g id="a_node11"><a xlink:href="$a00155.html#ae66f6b31b5ad750f1fe042a706a4e3d4" xlink:title="main">
<polygon fill="white" stroke="black" points="406,-76.5 406,-95.5 444,-95.5 444,-76.5 406,-76.5"/>
<text text-anchor="middle" x="425" y="-83.5" font-family="Helvetica,sans-Serif" font-size="10.00">main</text>
</a>
</g>
</g>
<!-- Node1698&#45;&gt;Node1699 -->
<g id="edge10" class="edge"><title>Node1698&#45;&gt;Node1699</title>
<path fill="none" stroke="midnightblue" d="M357.867,-86C375.302,-86 393.115,-86 405.855,-86"/>
<polygon fill="midnightblue" stroke="midnightblue" points="357.686,-82.5001 347.686,-86 357.686,-89.5001 357.686,-82.5001"/>
</g>
<!-- Node1702 -->
<g id="node14" class="node"><title>Node1702</title>
<g id="a_node14"><a xlink:href="$a00867.html#a0ddf1224851353fc92bfbff6f499fa97" xlink:title="main">
<polygon fill="white" stroke="black" points="279,-38.5 279,-57.5 317,-57.5 317,-38.5 279,-38.5"/>
<text text-anchor="middle" x="298" y="-45.5" font-family="Helvetica,sans-Serif" font-size="10.00">main</text>
</a>
</g>
</g>
<!-- Node1701&#45;&gt;Node1702 -->
<g id="edge13" class="edge"><title>Node1701&#45;&gt;Node1702</title>
<path fill="none" stroke="midnightblue" d="M194.577,-48C223.536,-48 258.115,-48 278.777,-48"/>
<polygon fill="midnightblue" stroke="midnightblue" points="194.199,-44.5001 184.199,-48 194.199,-51.5001 194.199,-44.5001"/>
</g>
<!-- Node1704 -->
<g id="node16" class="node"><title>Node1704</title>
<g id="a_node16"><a xlink:href="$a00152.html#ae66f6b31b5ad750f1fe042a706a4e3d4" xlink:title="main">
<polygon fill="white" stroke="black" points="279,-0.5 279,-19.5 317,-19.5 317,-0.5 279,-0.5"/>
<text text-anchor="middle" x="298" y="-7.5" font-family="Helvetica,sans-Serif" font-size="10.00">main</text>
</a>
</g>
</g>
<!-- Node1703&#45;&gt;Node1704 -->
<g id="edge15" class="edge"><title>Node1703&#45;&gt;Node1704</title>
<path fill="none" stroke="midnightblue" d="M188.619,-10C218.749,-10 256.914,-10 278.984,-10"/>
<polygon fill="midnightblue" stroke="midnightblue" points="188.336,-6.5001 178.336,-10 188.336,-13.5001 188.336,-6.5001"/>
</g>
<!-- Node1705&#45;&gt;Node1691 -->
<g id="edge17" class="edge"><title>Node1705&#45;&gt;Node1691</title>
<path fill="none" stroke="midnightblue" d="M180.671,-376.187C183.898,-374.575 187.054,-372.843 190,-371 230.86,-345.446 271.24,-304.066 288.402,-285.521"/>
<polygon fill="midnightblue" stroke="midnightblue" points="179.128,-373.044 171.503,-380.4 182.051,-379.404 179.128,-373.044"/>
</g>
</g>
</svg>
