<?xml version="1.0" encoding="UTF-8" standalone="no"?>
<!DOCTYPE svg PUBLIC "-//W3C//DTD SVG 1.1//EN"
 "http://www.w3.org/Graphics/SVG/1.1/DTD/svg11.dtd">
<!-- Generated by graphviz version 2.36.0 (20140111.2315)
 -->
<!-- Title: gk_csr_Split Pages: 1 -->
<svg width="542pt" height="125pt"
 viewBox="0.00 0.00 542.00 124.79" xmlns="http://www.w3.org/2000/svg" xmlns:xlink="http://www.w3.org/1999/xlink">
<g id="graph0" class="graph" transform="scale(1 1) rotate(0) translate(4 120.791)">
<title>gk_csr_Split</title>
<polygon fill="white" stroke="none" points="-4,4 -4,-120.791 538,-120.791 538,4 -4,4"/>
<!-- Node187 -->
<g id="node1" class="node"><title>Node187</title>
<polygon fill="#bfbfbf" stroke="black" points="0.5,-38.5 0.5,-57.5 71.5,-57.5 71.5,-38.5 0.5,-38.5"/>
<text text-anchor="middle" x="36" y="-45.5" font-family="Helvetica,sans-Serif" font-size="10.00">gk_csr_Split</text>
</g>
<!-- Node188 -->
<g id="node2" class="node"><title>Node188</title>
<g id="a_node2"><a xlink:href="$a00077.html#aba6f76f5c67b9b7e9c2e45988d3d3e9d" xlink:title="gk_malloc">
<polygon fill="white" stroke="black" points="228,-57.5 228,-76.5 290,-76.5 290,-57.5 228,-57.5"/>
<text text-anchor="middle" x="259" y="-64.5" font-family="Helvetica,sans-Serif" font-size="10.00">gk_malloc</text>
</a>
</g>
</g>
<!-- Node187&#45;&gt;Node188 -->
<g id="edge1" class="edge"><title>Node187&#45;&gt;Node188</title>
<path fill="none" stroke="midnightblue" d="M71.5312,-50.9688C111.149,-54.3748 176.019,-59.9518 217.854,-63.5486"/>
<polygon fill="midnightblue" stroke="midnightblue" points="217.702,-67.0483 227.965,-64.4178 218.302,-60.074 217.702,-67.0483"/>
</g>
<!-- Node193 -->
<g id="node7" class="node"><title>Node193</title>
<g id="a_node7"><a xlink:href="$a00023.html#a82b885bbed5bd18c26629c35ce5d37e4" xlink:title="gk_csr_Create">
<polygon fill="white" stroke="black" points="108,-19.5 108,-38.5 190,-38.5 190,-19.5 108,-19.5"/>
<text text-anchor="middle" x="149" y="-26.5" font-family="Helvetica,sans-Serif" font-size="10.00">gk_csr_Create</text>
</a>
</g>
</g>
<!-- Node187&#45;&gt;Node193 -->
<g id="edge7" class="edge"><title>Node187&#45;&gt;Node193</title>
<path fill="none" stroke="midnightblue" d="M71.5126,-42.0924C79.8357,-40.6678 88.8973,-39.1167 97.777,-37.5967"/>
<polygon fill="midnightblue" stroke="midnightblue" points="98.4102,-41.0393 107.676,-35.9023 97.2291,-34.1397 98.4102,-41.0393"/>
</g>
<!-- Node189 -->
<g id="node3" class="node"><title>Node189</title>
<g id="a_node3"><a xlink:href="$a01017.html#a2e311a777ffe9c80e405efa7cd2757be" xlink:title="fprintf">
<polygon fill="white" stroke="black" points="492,-57.5 492,-76.5 534,-76.5 534,-57.5 492,-57.5"/>
<text text-anchor="middle" x="513" y="-64.5" font-family="Helvetica,sans-Serif" font-size="10.00">fprintf</text>
</a>
</g>
</g>
<!-- Node188&#45;&gt;Node189 -->
<g id="edge2" class="edge"><title>Node188&#45;&gt;Node189</title>
<path fill="none" stroke="midnightblue" d="M272.682,-76.7226C285.733,-86.0659 307.06,-99.5461 328,-105 383.052,-119.339 401.62,-121.709 456,-105 470.039,-100.686 483.719,-91.5255 494.044,-83.2793"/>
<polygon fill="midnightblue" stroke="midnightblue" points="496.469,-85.8134 501.862,-76.6941 491.959,-80.4595 496.469,-85.8134"/>
</g>
<!-- Node190 -->
<g id="node4" class="node"><title>Node190</title>
<g id="a_node4"><a xlink:href="$a00110.html#ad2327b94227019b6753b6b09400c0522" xlink:title="gk_GetCurMemoryUsed">
<polygon fill="white" stroke="black" points="330,-76.5 330,-95.5 454,-95.5 454,-76.5 330,-76.5"/>
<text text-anchor="middle" x="392" y="-83.5" font-family="Helvetica,sans-Serif" font-size="10.00">gk_GetCurMemoryUsed</text>
</a>
</g>
</g>
<!-- Node188&#45;&gt;Node190 -->
<g id="edge3" class="edge"><title>Node188&#45;&gt;Node190</title>
<path fill="none" stroke="midnightblue" d="M290.054,-71.359C299.041,-72.6625 309.303,-74.1508 319.761,-75.6676"/>
<polygon fill="midnightblue" stroke="midnightblue" points="319.414,-79.1538 329.813,-77.1255 320.419,-72.2263 319.414,-79.1538"/>
</g>
<!-- Node191 -->
<g id="node5" class="node"><title>Node191</title>
<g id="a_node5"><a xlink:href="$a00110.html#a656fd5266ae12a96e53125486f8fea52" xlink:title="gk_GetMaxMemoryUsed">
<polygon fill="white" stroke="black" points="328.5,-38.5 328.5,-57.5 455.5,-57.5 455.5,-38.5 328.5,-38.5"/>
<text text-anchor="middle" x="392" y="-45.5" font-family="Helvetica,sans-Serif" font-size="10.00">gk_GetMaxMemoryUsed</text>
</a>
</g>
</g>
<!-- Node188&#45;&gt;Node191 -->
<g id="edge4" class="edge"><title>Node188&#45;&gt;Node191</title>
<path fill="none" stroke="midnightblue" d="M290.054,-62.641C298.665,-61.392 308.447,-59.9734 318.45,-58.5226"/>
<polygon fill="midnightblue" stroke="midnightblue" points="319.097,-61.9653 328.491,-57.0661 318.093,-55.0378 319.097,-61.9653"/>
</g>
<!-- Node192 -->
<g id="node6" class="node"><title>Node192</title>
<g id="a_node6"><a xlink:href="$a00026.html#a4c320c13bcdc9967613253ef4c73f59f" xlink:title="gk_errexit">
<polygon fill="white" stroke="black" points="362,-0.5 362,-19.5 422,-19.5 422,-0.5 362,-0.5"/>
<text text-anchor="middle" x="392" y="-7.5" font-family="Helvetica,sans-Serif" font-size="10.00">gk_errexit</text>
</a>
</g>
</g>
<!-- Node188&#45;&gt;Node192 -->
<g id="edge5" class="edge"><title>Node188&#45;&gt;Node192</title>
<path fill="none" stroke="midnightblue" d="M276.079,-57.4824C292.755,-47.7083 317.791,-33.3313 328,-29 335.701,-25.7327 344.151,-22.78 352.292,-20.2292"/>
<polygon fill="midnightblue" stroke="midnightblue" points="353.421,-23.5447 361.996,-17.3231 351.413,-16.8389 353.421,-23.5447"/>
</g>
<!-- Node192&#45;&gt;Node189 -->
<g id="edge6" class="edge"><title>Node192&#45;&gt;Node189</title>
<path fill="none" stroke="midnightblue" d="M422.228,-16.8252C433.104,-19.8755 445.377,-23.9396 456,-29 468.634,-35.0184 481.634,-43.6626 491.925,-51.1863"/>
<polygon fill="midnightblue" stroke="midnightblue" points="490.101,-54.1937 500.194,-57.4154 494.313,-48.6027 490.101,-54.1937"/>
</g>
<!-- Node193&#45;&gt;Node188 -->
<g id="edge8" class="edge"><title>Node193&#45;&gt;Node188</title>
<path fill="none" stroke="midnightblue" d="M177.253,-38.589C190.555,-43.2694 206.754,-48.9692 221.142,-54.0315"/>
<polygon fill="midnightblue" stroke="midnightblue" points="220.161,-57.3965 230.756,-57.4141 222.484,-50.7933 220.161,-57.3965"/>
</g>
<!-- Node194 -->
<g id="node8" class="node"><title>Node194</title>
<g id="a_node8"><a xlink:href="$a00023.html#a47a303d88c3316bd821219cae39d0461" xlink:title="gk_csr_Init">
<polygon fill="white" stroke="black" points="226.5,-19.5 226.5,-38.5 291.5,-38.5 291.5,-19.5 226.5,-19.5"/>
<text text-anchor="middle" x="259" y="-26.5" font-family="Helvetica,sans-Serif" font-size="10.00">gk_csr_Init</text>
</a>
</g>
</g>
<!-- Node193&#45;&gt;Node194 -->
<g id="edge9" class="edge"><title>Node193&#45;&gt;Node194</title>
<path fill="none" stroke="midnightblue" d="M190.215,-29C198.657,-29 207.581,-29 216.084,-29"/>
<polygon fill="midnightblue" stroke="midnightblue" points="216.185,-32.5001 226.185,-29 216.185,-25.5001 216.185,-32.5001"/>
</g>
</g>
</svg>
