<?xml version="1.0" encoding="UTF-8" standalone="no"?>
<!DOCTYPE svg PUBLIC "-//W3C//DTD SVG 1.1//EN"
 "http://www.w3.org/Graphics/SVG/1.1/DTD/svg11.dtd">
<!-- Generated by graphviz version 2.36.0 (20140111.2315)
 -->
<!-- Title: gk_isortd Pages: 1 -->
<svg width="234pt" height="28pt"
 viewBox="0.00 0.00 234.00 28.00" xmlns="http://www.w3.org/2000/svg" xmlns:xlink="http://www.w3.org/1999/xlink">
<g id="graph0" class="graph" transform="scale(1 1) rotate(0) translate(4 24)">
<title>gk_isortd</title>
<polygon fill="white" stroke="none" points="-4,4 -4,-24 230,-24 230,4 -4,4"/>
<!-- Node1290 -->
<g id="node1" class="node"><title>Node1290</title>
<polygon fill="#bfbfbf" stroke="black" points="0.5,-0.5 0.5,-19.5 57.5,-19.5 57.5,-0.5 0.5,-0.5"/>
<text text-anchor="middle" x="29" y="-7.5" font-family="Helvetica,sans-Serif" font-size="10.00">gk_isortd</text>
</g>
<!-- Node1291 -->
<g id="node2" class="node"><title>Node1291</title>
<g id="a_node2"><a xlink:href="$a00152.html#a8de21ffeb988c6322635a778ecdd4066" xlink:title="test_isort">
<polygon fill="white" stroke="black" points="94.5,-0.5 94.5,-19.5 151.5,-19.5 151.5,-0.5 94.5,-0.5"/>
<text text-anchor="middle" x="123" y="-7.5" font-family="Helvetica,sans-Serif" font-size="10.00">test_isort</text>
</a>
</g>
</g>
<!-- Node1290&#45;&gt;Node1291 -->
<g id="edge1" class="edge"><title>Node1290&#45;&gt;Node1291</title>
<path fill="none" stroke="midnightblue" d="M67.7908,-10C76.7071,-10 86.0487,-10 94.4164,-10"/>
<polygon fill="midnightblue" stroke="midnightblue" points="67.6031,-6.5001 57.603,-10 67.603,-13.5001 67.6031,-6.5001"/>
</g>
<!-- Node1292 -->
<g id="node3" class="node"><title>Node1292</title>
<g id="a_node3"><a xlink:href="$a00152.html#ae66f6b31b5ad750f1fe042a706a4e3d4" xlink:title="main">
<polygon fill="white" stroke="black" points="188,-0.5 188,-19.5 226,-19.5 226,-0.5 188,-0.5"/>
<text text-anchor="middle" x="207" y="-7.5" font-family="Helvetica,sans-Serif" font-size="10.00">main</text>
</a>
</g>
</g>
<!-- Node1291&#45;&gt;Node1292 -->
<g id="edge2" class="edge"><title>Node1291&#45;&gt;Node1292</title>
<path fill="none" stroke="midnightblue" d="M161.797,-10C170.849,-10 180.11,-10 187.802,-10"/>
<polygon fill="midnightblue" stroke="midnightblue" points="161.761,-6.5001 151.761,-10 161.761,-13.5001 161.761,-6.5001"/>
</g>
</g>
</svg>
