<?xml version="1.0" encoding="UTF-8" standalone="no"?>
<!DOCTYPE svg PUBLIC "-//W3C//DTD SVG 1.1//EN"
 "http://www.w3.org/Graphics/SVG/1.1/DTD/svg11.dtd">
<!-- Generated by graphviz version 2.36.0 (20140111.2315)
 -->
<!-- Title: gk_csr_LowFilter Pages: 1 -->
<svg width="608pt" height="275pt"
 viewBox="0.00 0.00 608.00 274.72" xmlns="http://www.w3.org/2000/svg" xmlns:xlink="http://www.w3.org/1999/xlink">
<g id="graph0" class="graph" transform="scale(1 1) rotate(0) translate(4 270.718)">
<title>gk_csr_LowFilter</title>
<polygon fill="white" stroke="none" points="-4,4 -4,-270.718 604,-270.718 604,4 -4,4"/>
<!-- Node129 -->
<g id="node1" class="node"><title>Node129</title>
<polygon fill="#bfbfbf" stroke="black" points="0,-114.5 0,-133.5 92,-133.5 92,-114.5 0,-114.5"/>
<text text-anchor="middle" x="46" y="-121.5" font-family="Helvetica,sans-Serif" font-size="10.00">gk_csr_LowFilter</text>
</g>
<!-- Node130 -->
<g id="node2" class="node"><title>Node130</title>
<g id="a_node2"><a xlink:href="$a00023.html#a82b885bbed5bd18c26629c35ce5d37e4" xlink:title="gk_csr_Create">
<polygon fill="white" stroke="black" points="128,-190.5 128,-209.5 210,-209.5 210,-190.5 128,-190.5"/>
<text text-anchor="middle" x="169" y="-197.5" font-family="Helvetica,sans-Serif" font-size="10.00">gk_csr_Create</text>
</a>
</g>
</g>
<!-- Node129&#45;&gt;Node130 -->
<g id="edge1" class="edge"><title>Node129&#45;&gt;Node130</title>
<path fill="none" stroke="midnightblue" d="M61.5483,-133.528C77.6965,-144.059 104.574,-161.457 128,-176 132.816,-178.99 137.99,-182.139 142.964,-185.137"/>
<polygon fill="midnightblue" stroke="midnightblue" points="141.208,-188.165 151.584,-190.303 144.806,-182.16 141.208,-188.165"/>
</g>
<!-- Node135 -->
<g id="node7" class="node"><title>Node135</title>
<g id="a_node7"><a xlink:href="$a00026.html#a4c320c13bcdc9967613253ef4c73f59f" xlink:title="gk_errexit">
<polygon fill="white" stroke="black" points="428,-152.5 428,-171.5 488,-171.5 488,-152.5 428,-152.5"/>
<text text-anchor="middle" x="458" y="-159.5" font-family="Helvetica,sans-Serif" font-size="10.00">gk_errexit</text>
</a>
</g>
</g>
<!-- Node129&#45;&gt;Node135 -->
<g id="edge9" class="edge"><title>Node129&#45;&gt;Node135</title>
<path fill="none" stroke="midnightblue" d="M81.8331,-133.562C96.0449,-137.098 112.705,-140.781 128,-143 231.837,-158.061 355.741,-161.294 417.673,-161.917"/>
<polygon fill="midnightblue" stroke="midnightblue" points="417.755,-165.417 427.784,-162 417.813,-158.417 417.755,-165.417"/>
</g>
<!-- Node137 -->
<g id="node9" class="node"><title>Node137</title>
<g id="a_node9"><a xlink:href="$a00077.html#aa28cb87d9cb87860a5b1e23a94d7bba8" xlink:title="gk_fkvsortd">
<polygon fill="white" stroke="black" points="135,-114.5 135,-133.5 203,-133.5 203,-114.5 135,-114.5"/>
<text text-anchor="middle" x="169" y="-121.5" font-family="Helvetica,sans-Serif" font-size="10.00">gk_fkvsortd</text>
</a>
</g>
</g>
<!-- Node129&#45;&gt;Node137 -->
<g id="edge10" class="edge"><title>Node129&#45;&gt;Node137</title>
<path fill="none" stroke="midnightblue" d="M92.0559,-124C102.639,-124 113.897,-124 124.414,-124"/>
<polygon fill="midnightblue" stroke="midnightblue" points="124.631,-127.5 134.631,-124 124.631,-120.5 124.631,-127.5"/>
</g>
<!-- Node138 -->
<g id="node10" class="node"><title>Node138</title>
<g id="a_node10"><a xlink:href="$a00077.html#ac8df62c4e3d0910711a9874f9cc58884" xlink:title="gk_free">
<polygon fill="white" stroke="black" points="433,-38.5 433,-57.5 483,-57.5 483,-38.5 433,-38.5"/>
<text text-anchor="middle" x="458" y="-45.5" font-family="Helvetica,sans-Serif" font-size="10.00">gk_free</text>
</a>
</g>
</g>
<!-- Node129&#45;&gt;Node138 -->
<g id="edge11" class="edge"><title>Node129&#45;&gt;Node138</title>
<path fill="none" stroke="midnightblue" d="M85.627,-114.45C99.0086,-111.272 114.13,-107.826 128,-105 235.17,-83.1667 363.074,-62.5551 422.939,-53.2235"/>
<polygon fill="midnightblue" stroke="midnightblue" points="423.622,-56.6595 432.967,-51.6669 422.548,-49.7423 423.622,-56.6595"/>
</g>
<!-- Node139 -->
<g id="node11" class="node"><title>Node139</title>
<g id="a_node11"><a xlink:href="$a00023.html#ac3736361b8d6b391356f273c960c203b" xlink:title="gk_csr_Free">
<polygon fill="white" stroke="black" points="133,-38.5 133,-57.5 205,-57.5 205,-38.5 133,-38.5"/>
<text text-anchor="middle" x="169" y="-45.5" font-family="Helvetica,sans-Serif" font-size="10.00">gk_csr_Free</text>
</a>
</g>
</g>
<!-- Node129&#45;&gt;Node139 -->
<g id="edge12" class="edge"><title>Node129&#45;&gt;Node139</title>
<path fill="none" stroke="midnightblue" d="M61.5483,-114.472C77.6965,-103.941 104.574,-86.5427 128,-72 132.816,-69.01 137.99,-65.8608 142.964,-62.8629"/>
<polygon fill="midnightblue" stroke="midnightblue" points="144.806,-65.8398 151.584,-57.6973 141.208,-59.8353 144.806,-65.8398"/>
</g>
<!-- Node131 -->
<g id="node3" class="node"><title>Node131</title>
<g id="a_node3"><a xlink:href="$a00077.html#aba6f76f5c67b9b7e9c2e45988d3d3e9d" xlink:title="gk_malloc">
<polygon fill="white" stroke="black" points="271,-228.5 271,-247.5 333,-247.5 333,-228.5 271,-228.5"/>
<text text-anchor="middle" x="302" y="-235.5" font-family="Helvetica,sans-Serif" font-size="10.00">gk_malloc</text>
</a>
</g>
</g>
<!-- Node130&#45;&gt;Node131 -->
<g id="edge2" class="edge"><title>Node130&#45;&gt;Node131</title>
<path fill="none" stroke="midnightblue" d="M203.057,-209.589C220.661,-214.696 242.448,-221.016 261.001,-226.397"/>
<polygon fill="midnightblue" stroke="midnightblue" points="260.068,-229.771 270.648,-229.195 262.019,-223.048 260.068,-229.771"/>
</g>
<!-- Node136 -->
<g id="node8" class="node"><title>Node136</title>
<g id="a_node8"><a xlink:href="$a00023.html#a47a303d88c3316bd821219cae39d0461" xlink:title="gk_csr_Init">
<polygon fill="white" stroke="black" points="269.5,-190.5 269.5,-209.5 334.5,-209.5 334.5,-190.5 269.5,-190.5"/>
<text text-anchor="middle" x="302" y="-197.5" font-family="Helvetica,sans-Serif" font-size="10.00">gk_csr_Init</text>
</a>
</g>
</g>
<!-- Node130&#45;&gt;Node136 -->
<g id="edge8" class="edge"><title>Node130&#45;&gt;Node136</title>
<path fill="none" stroke="midnightblue" d="M210.016,-200C225.422,-200 243.057,-200 258.674,-200"/>
<polygon fill="midnightblue" stroke="midnightblue" points="259.111,-203.5 269.111,-200 259.111,-196.5 259.111,-203.5"/>
</g>
<!-- Node132 -->
<g id="node4" class="node"><title>Node132</title>
<g id="a_node4"><a xlink:href="$a01017.html#a2e311a777ffe9c80e405efa7cd2757be" xlink:title="fprintf">
<polygon fill="white" stroke="black" points="558,-209.5 558,-228.5 600,-228.5 600,-209.5 558,-209.5"/>
<text text-anchor="middle" x="579" y="-216.5" font-family="Helvetica,sans-Serif" font-size="10.00">fprintf</text>
</a>
</g>
</g>
<!-- Node131&#45;&gt;Node132 -->
<g id="edge3" class="edge"><title>Node131&#45;&gt;Node132</title>
<path fill="none" stroke="midnightblue" d="M332.797,-247.568C375.647,-259.78 456.7,-277.064 522,-257 536.039,-252.686 549.719,-243.525 560.044,-235.279"/>
<polygon fill="midnightblue" stroke="midnightblue" points="562.469,-237.813 567.862,-228.694 557.959,-232.46 562.469,-237.813"/>
</g>
<!-- Node133 -->
<g id="node5" class="node"><title>Node133</title>
<g id="a_node5"><a xlink:href="$a00110.html#ad2327b94227019b6753b6b09400c0522" xlink:title="gk_GetCurMemoryUsed">
<polygon fill="white" stroke="black" points="396,-228.5 396,-247.5 520,-247.5 520,-228.5 396,-228.5"/>
<text text-anchor="middle" x="458" y="-235.5" font-family="Helvetica,sans-Serif" font-size="10.00">gk_GetCurMemoryUsed</text>
</a>
</g>
</g>
<!-- Node131&#45;&gt;Node133 -->
<g id="edge4" class="edge"><title>Node131&#45;&gt;Node133</title>
<path fill="none" stroke="midnightblue" d="M333.058,-238C348.125,-238 367.069,-238 385.581,-238"/>
<polygon fill="midnightblue" stroke="midnightblue" points="385.793,-241.5 395.793,-238 385.793,-234.5 385.793,-241.5"/>
</g>
<!-- Node134 -->
<g id="node6" class="node"><title>Node134</title>
<g id="a_node6"><a xlink:href="$a00110.html#a656fd5266ae12a96e53125486f8fea52" xlink:title="gk_GetMaxMemoryUsed">
<polygon fill="white" stroke="black" points="394.5,-190.5 394.5,-209.5 521.5,-209.5 521.5,-190.5 394.5,-190.5"/>
<text text-anchor="middle" x="458" y="-197.5" font-family="Helvetica,sans-Serif" font-size="10.00">gk_GetMaxMemoryUsed</text>
</a>
</g>
</g>
<!-- Node131&#45;&gt;Node134 -->
<g id="edge5" class="edge"><title>Node131&#45;&gt;Node134</title>
<path fill="none" stroke="midnightblue" d="M333.058,-230.583C354.446,-225.306 383.646,-218.1 408.332,-212.009"/>
<polygon fill="midnightblue" stroke="midnightblue" points="409.376,-215.356 418.246,-209.563 407.699,-208.56 409.376,-215.356"/>
</g>
<!-- Node131&#45;&gt;Node135 -->
<g id="edge6" class="edge"><title>Node131&#45;&gt;Node135</title>
<path fill="none" stroke="midnightblue" d="M333.031,-230.511C341.492,-227.651 350.443,-223.871 358,-219 377.555,-206.396 374.199,-193.213 394,-181 401.338,-176.474 409.825,-172.965 418.145,-170.267"/>
<polygon fill="midnightblue" stroke="midnightblue" points="419.139,-173.623 427.757,-167.46 417.177,-166.904 419.139,-173.623"/>
</g>
<!-- Node135&#45;&gt;Node132 -->
<g id="edge7" class="edge"><title>Node135&#45;&gt;Node132</title>
<path fill="none" stroke="midnightblue" d="M488.228,-168.825C499.104,-171.876 511.377,-175.94 522,-181 534.634,-187.018 547.634,-195.663 557.925,-203.186"/>
<polygon fill="midnightblue" stroke="midnightblue" points="556.101,-206.194 566.194,-209.415 560.313,-200.603 556.101,-206.194"/>
</g>
<!-- Node139&#45;&gt;Node138 -->
<g id="edge15" class="edge"><title>Node139&#45;&gt;Node138</title>
<path fill="none" stroke="midnightblue" d="M205.192,-48C260.621,-48 367.595,-48 422.556,-48"/>
<polygon fill="midnightblue" stroke="midnightblue" points="422.824,-51.5001 432.824,-48 422.824,-44.5001 422.824,-51.5001"/>
</g>
<!-- Node140 -->
<g id="node12" class="node"><title>Node140</title>
<g id="a_node12"><a xlink:href="$a00023.html#a9646f29b0605ba264bf373c441a6826d" xlink:title="gk_csr_FreeContents">
<polygon fill="white" stroke="black" points="246,-0.5 246,-19.5 358,-19.5 358,-0.5 246,-0.5"/>
<text text-anchor="middle" x="302" y="-7.5" font-family="Helvetica,sans-Serif" font-size="10.00">gk_csr_FreeContents</text>
</a>
</g>
</g>
<!-- Node139&#45;&gt;Node140 -->
<g id="edge13" class="edge"><title>Node139&#45;&gt;Node140</title>
<path fill="none" stroke="midnightblue" d="M203.057,-38.411C219.813,-33.5506 240.358,-27.5909 258.297,-22.3873"/>
<polygon fill="midnightblue" stroke="midnightblue" points="259.325,-25.7334 267.954,-19.5859 257.375,-19.0105 259.325,-25.7334"/>
</g>
<!-- Node140&#45;&gt;Node138 -->
<g id="edge14" class="edge"><title>Node140&#45;&gt;Node138</title>
<path fill="none" stroke="midnightblue" d="M341.861,-19.589C366.81,-25.7453 398.906,-33.6651 422.87,-39.5784"/>
<polygon fill="midnightblue" stroke="midnightblue" points="422.051,-42.9811 432.598,-41.9788 423.728,-36.185 422.051,-42.9811"/>
</g>
</g>
</svg>
