<?xml version="1.0" encoding="UTF-8" standalone="no"?>
<!DOCTYPE svg PUBLIC "-//W3C//DTD SVG 1.1//EN"
 "http://www.w3.org/Graphics/SVG/1.1/DTD/svg11.dtd">
<!-- Generated by graphviz version 2.36.0 (20140111.2315)
 -->
<!-- Title: gk_csr_CreateIndex Pages: 1 -->
<svg width="284pt" height="66pt"
 viewBox="0.00 0.00 284.00 66.00" xmlns="http://www.w3.org/2000/svg" xmlns:xlink="http://www.w3.org/1999/xlink">
<g id="graph0" class="graph" transform="scale(1 1) rotate(0) translate(4 62)">
<title>gk_csr_CreateIndex</title>
<polygon fill="white" stroke="none" points="-4,4 -4,-62 280,-62 280,4 -4,4"/>
<!-- Node141 -->
<g id="node1" class="node"><title>Node141</title>
<polygon fill="#bfbfbf" stroke="black" points="0,-19.5 0,-38.5 106,-38.5 106,-19.5 0,-19.5"/>
<text text-anchor="middle" x="53" y="-26.5" font-family="Helvetica,sans-Serif" font-size="10.00">gk_csr_CreateIndex</text>
</g>
<!-- Node142 -->
<g id="node2" class="node"><title>Node142</title>
<g id="a_node2"><a xlink:href="$a00104.html#abc9e8f6a3efe2f0f3ec79b5d8883b246" xlink:title="gk_find_frequent_itemsets">
<polygon fill="white" stroke="black" points="142,-38.5 142,-57.5 276,-57.5 276,-38.5 142,-38.5"/>
<text text-anchor="middle" x="209" y="-45.5" font-family="Helvetica,sans-Serif" font-size="10.00">gk_find_frequent_itemsets</text>
</a>
</g>
</g>
<!-- Node141&#45;&gt;Node142 -->
<g id="edge1" class="edge"><title>Node141&#45;&gt;Node142</title>
<path fill="none" stroke="midnightblue" d="M116.305,-36.687C124.765,-37.7307 133.47,-38.8048 141.992,-39.8562"/>
<polygon fill="midnightblue" stroke="midnightblue" points="116.491,-33.1834 106.137,-35.4325 115.634,-40.1308 116.491,-33.1834"/>
</g>
<!-- Node143 -->
<g id="node3" class="node"><title>Node143</title>
<g id="a_node3"><a xlink:href="$a00146.html#a0ddf1224851353fc92bfbff6f499fa97" xlink:title="main">
<polygon fill="white" stroke="black" points="190,-0.5 190,-19.5 228,-19.5 228,-0.5 190,-0.5"/>
<text text-anchor="middle" x="209" y="-7.5" font-family="Helvetica,sans-Serif" font-size="10.00">main</text>
</a>
</g>
</g>
<!-- Node141&#45;&gt;Node143 -->
<g id="edge2" class="edge"><title>Node141&#45;&gt;Node143</title>
<path fill="none" stroke="midnightblue" d="M116.158,-21.3312C142.686,-18.0582 171.658,-14.4838 189.824,-12.2424"/>
<polygon fill="midnightblue" stroke="midnightblue" points="115.634,-17.8692 106.137,-22.5675 116.491,-24.8166 115.634,-17.8692"/>
</g>
</g>
</svg>
