<?xml version="1.0" encoding="UTF-8" standalone="no"?>
<!DOCTYPE svg PUBLIC "-//W3C//DTD SVG 1.1//EN"
 "http://www.w3.org/Graphics/SVG/1.1/DTD/svg11.dtd">
<!-- Generated by graphviz version 2.36.0 (20140111.2315)
 -->
<!-- Title: HTable_Resize Pages: 1 -->
<svg width="332pt" height="28pt"
 viewBox="0.00 0.00 332.00 28.00" xmlns="http://www.w3.org/2000/svg" xmlns:xlink="http://www.w3.org/1999/xlink">
<g id="graph0" class="graph" transform="scale(1 1) rotate(0) translate(4 24)">
<title>HTable_Resize</title>
<polygon fill="white" stroke="none" points="-4,4 -4,-24 328,-24 328,4 -4,4"/>
<!-- Node1833 -->
<g id="node1" class="node"><title>Node1833</title>
<polygon fill="#bfbfbf" stroke="black" points="0.5,-0.5 0.5,-19.5 85.5,-19.5 85.5,-0.5 0.5,-0.5"/>
<text text-anchor="middle" x="43" y="-7.5" font-family="Helvetica,sans-Serif" font-size="10.00">HTable_Resize</text>
</g>
<!-- Node1834 -->
<g id="node2" class="node"><title>Node1834</title>
<g id="a_node2"><a xlink:href="$a00098.html#a39853dc7129323e7846d895c9026ad6f" xlink:title="HTable_Insert">
<polygon fill="white" stroke="black" points="122.5,-0.5 122.5,-19.5 201.5,-19.5 201.5,-0.5 122.5,-0.5"/>
<text text-anchor="middle" x="162" y="-7.5" font-family="Helvetica,sans-Serif" font-size="10.00">HTable_Insert</text>
</a>
</g>
</g>
<!-- Node1833&#45;&gt;Node1834 -->
<g id="edge1" class="edge"><title>Node1833&#45;&gt;Node1834</title>
<path fill="none" stroke="midnightblue" d="M95.8604,-10C104.742,-10 113.83,-10 122.292,-10"/>
<polygon fill="midnightblue" stroke="midnightblue" points="95.5793,-6.5001 85.5793,-10 95.5792,-13.5001 95.5793,-6.5001"/>
</g>
<!-- Node1835 -->
<g id="node3" class="node"><title>Node1835</title>
<g id="a_node3"><a xlink:href="$a00098.html#ad79cb786b03a73481fb3e5846d345801" xlink:title="HTable_Resize">
<polygon fill="white" stroke="black" points="238.5,-0.5 238.5,-19.5 323.5,-19.5 323.5,-0.5 238.5,-0.5"/>
<text text-anchor="middle" x="281" y="-7.5" font-family="Helvetica,sans-Serif" font-size="10.00">HTable_Resize</text>
</a>
</g>
</g>
<!-- Node1834&#45;&gt;Node1835 -->
<g id="edge2" class="edge"><title>Node1834&#45;&gt;Node1835</title>
<path fill="none" stroke="midnightblue" d="M211.756,-3.33393C220.538,-3.18138 229.621,-3.23679 238.184,-3.50014"/>
<polygon fill="midnightblue" stroke="midnightblue" points="211.536,0.161488 201.634,-3.60853 211.726,-6.83594 211.536,0.161488"/>
</g>
<!-- Node1835&#45;&gt;Node1834 -->
<g id="edge3" class="edge"><title>Node1835&#45;&gt;Node1834</title>
<path fill="none" stroke="midnightblue" d="M227.942,-16.7135C219.098,-16.8141 210.054,-16.7068 201.634,-16.3915"/>
<polygon fill="midnightblue" stroke="midnightblue" points="228.259,-20.2077 238.184,-16.4999 228.113,-13.2093 228.259,-20.2077"/>
</g>
</g>
</svg>
