<?xml version="1.0" encoding="UTF-8" standalone="no"?>
<!DOCTYPE svg PUBLIC "-//W3C//DTD SVG 1.1//EN"
 "http://www.w3.org/Graphics/SVG/1.1/DTD/svg11.dtd">
<!-- Generated by graphviz version 2.36.0 (20140111.2315)
 -->
<!-- Title: gk_graph_Create Pages: 1 -->
<svg width="458pt" height="124pt"
 viewBox="0.00 0.00 458.00 124.49" xmlns="http://www.w3.org/2000/svg" xmlns:xlink="http://www.w3.org/1999/xlink">
<g id="graph0" class="graph" transform="scale(1 1) rotate(0) translate(4 120.487)">
<title>gk_graph_Create</title>
<polygon fill="white" stroke="none" points="-4,4 -4,-120.487 454,-120.487 454,4 -4,4"/>
<!-- Node1089 -->
<g id="node1" class="node"><title>Node1089</title>
<polygon fill="#bfbfbf" stroke="black" points="0,-38.5 0,-57.5 94,-57.5 94,-38.5 0,-38.5"/>
<text text-anchor="middle" x="47" y="-45.5" font-family="Helvetica,sans-Serif" font-size="10.00">gk_graph_Create</text>
</g>
<!-- Node1090 -->
<g id="node2" class="node"><title>Node1090</title>
<g id="a_node2"><a xlink:href="$a00077.html#aba6f76f5c67b9b7e9c2e45988d3d3e9d" xlink:title="gk_malloc">
<polygon fill="white" stroke="black" points="138,-57.5 138,-76.5 200,-76.5 200,-57.5 138,-57.5"/>
<text text-anchor="middle" x="169" y="-64.5" font-family="Helvetica,sans-Serif" font-size="10.00">gk_malloc</text>
</a>
</g>
</g>
<!-- Node1089&#45;&gt;Node1090 -->
<g id="edge1" class="edge"><title>Node1089&#45;&gt;Node1090</title>
<path fill="none" stroke="midnightblue" d="M94.0519,-55.2916C105.171,-57.0521 116.967,-58.9198 127.795,-60.6342"/>
<polygon fill="midnightblue" stroke="midnightblue" points="127.401,-64.1154 137.825,-62.2224 128.496,-57.2015 127.401,-64.1154"/>
</g>
<!-- Node1095 -->
<g id="node7" class="node"><title>Node1095</title>
<g id="a_node7"><a xlink:href="$a00849.html#ab017e0e6f2436f3ad24ea01d8b2c588c" xlink:title="gk_graph_Init">
<polygon fill="white" stroke="black" points="130.5,-19.5 130.5,-38.5 207.5,-38.5 207.5,-19.5 130.5,-19.5"/>
<text text-anchor="middle" x="169" y="-26.5" font-family="Helvetica,sans-Serif" font-size="10.00">gk_graph_Init</text>
</a>
</g>
</g>
<!-- Node1089&#45;&gt;Node1095 -->
<g id="edge7" class="edge"><title>Node1089&#45;&gt;Node1095</title>
<path fill="none" stroke="midnightblue" d="M94.0519,-40.7084C102.698,-39.3395 111.753,-37.9058 120.444,-36.5297"/>
<polygon fill="midnightblue" stroke="midnightblue" points="121.103,-39.9691 130.432,-34.9482 120.008,-33.0552 121.103,-39.9691"/>
</g>
<!-- Node1091 -->
<g id="node3" class="node"><title>Node1091</title>
<g id="a_node3"><a xlink:href="$a01017.html#a2e311a777ffe9c80e405efa7cd2757be" xlink:title="fprintf">
<polygon fill="white" stroke="black" points="408,-57.5 408,-76.5 450,-76.5 450,-57.5 408,-57.5"/>
<text text-anchor="middle" x="429" y="-64.5" font-family="Helvetica,sans-Serif" font-size="10.00">fprintf</text>
</a>
</g>
</g>
<!-- Node1090&#45;&gt;Node1091 -->
<g id="edge2" class="edge"><title>Node1090&#45;&gt;Node1091</title>
<path fill="none" stroke="midnightblue" d="M183.671,-76.5579C197.957,-85.915 221.399,-99.5362 244,-105 299.296,-118.368 317.62,-121.709 372,-105 386.039,-100.686 399.719,-91.5255 410.044,-83.2793"/>
<polygon fill="midnightblue" stroke="midnightblue" points="412.469,-85.8134 417.862,-76.6941 407.959,-80.4595 412.469,-85.8134"/>
</g>
<!-- Node1092 -->
<g id="node4" class="node"><title>Node1092</title>
<g id="a_node4"><a xlink:href="$a00110.html#ad2327b94227019b6753b6b09400c0522" xlink:title="gk_GetCurMemoryUsed">
<polygon fill="white" stroke="black" points="246,-76.5 246,-95.5 370,-95.5 370,-76.5 246,-76.5"/>
<text text-anchor="middle" x="308" y="-83.5" font-family="Helvetica,sans-Serif" font-size="10.00">gk_GetCurMemoryUsed</text>
</a>
</g>
</g>
<!-- Node1090&#45;&gt;Node1092 -->
<g id="edge3" class="edge"><title>Node1090&#45;&gt;Node1092</title>
<path fill="none" stroke="midnightblue" d="M200.065,-71.1696C210.693,-72.6436 223.146,-74.3706 235.724,-76.115"/>
<polygon fill="midnightblue" stroke="midnightblue" points="235.419,-79.6062 245.806,-77.5132 236.381,-72.6726 235.419,-79.6062"/>
</g>
<!-- Node1093 -->
<g id="node5" class="node"><title>Node1093</title>
<g id="a_node5"><a xlink:href="$a00110.html#a656fd5266ae12a96e53125486f8fea52" xlink:title="gk_GetMaxMemoryUsed">
<polygon fill="white" stroke="black" points="244.5,-38.5 244.5,-57.5 371.5,-57.5 371.5,-38.5 244.5,-38.5"/>
<text text-anchor="middle" x="308" y="-45.5" font-family="Helvetica,sans-Serif" font-size="10.00">gk_GetMaxMemoryUsed</text>
</a>
</g>
</g>
<!-- Node1090&#45;&gt;Node1093 -->
<g id="edge4" class="edge"><title>Node1090&#45;&gt;Node1093</title>
<path fill="none" stroke="midnightblue" d="M200.065,-62.8304C210.28,-61.4137 222.181,-59.7632 234.259,-58.0882"/>
<polygon fill="midnightblue" stroke="midnightblue" points="234.988,-61.5207 244.412,-56.6801 234.026,-54.5871 234.988,-61.5207"/>
</g>
<!-- Node1094 -->
<g id="node6" class="node"><title>Node1094</title>
<g id="a_node6"><a xlink:href="$a00026.html#a4c320c13bcdc9967613253ef4c73f59f" xlink:title="gk_errexit">
<polygon fill="white" stroke="black" points="278,-0.5 278,-19.5 338,-19.5 338,-0.5 278,-0.5"/>
<text text-anchor="middle" x="308" y="-7.5" font-family="Helvetica,sans-Serif" font-size="10.00">gk_errexit</text>
</a>
</g>
</g>
<!-- Node1090&#45;&gt;Node1094 -->
<g id="edge5" class="edge"><title>Node1090&#45;&gt;Node1094</title>
<path fill="none" stroke="midnightblue" d="M189.373,-57.4161C195.359,-54.4273 201.964,-51.1012 208,-48 224.092,-39.7319 227.262,-35.866 244,-29 251.664,-25.856 260.042,-22.9687 268.113,-20.4448"/>
<polygon fill="midnightblue" stroke="midnightblue" points="269.168,-23.7826 277.738,-17.5538 267.154,-17.0785 269.168,-23.7826"/>
</g>
<!-- Node1094&#45;&gt;Node1091 -->
<g id="edge6" class="edge"><title>Node1094&#45;&gt;Node1091</title>
<path fill="none" stroke="midnightblue" d="M338.228,-16.8252C349.104,-19.8755 361.377,-23.9396 372,-29 384.634,-35.0184 397.634,-43.6626 407.925,-51.1863"/>
<polygon fill="midnightblue" stroke="midnightblue" points="406.101,-54.1937 416.194,-57.4154 410.313,-48.6027 406.101,-54.1937"/>
</g>
</g>
</svg>
