<?xml version="1.0" encoding="UTF-8" standalone="no"?>
<!DOCTYPE svg PUBLIC "-//W3C//DTD SVG 1.1//EN"
 "http://www.w3.org/Graphics/SVG/1.1/DTD/svg11.dtd">
<!-- Generated by graphviz version 2.36.0 (20140111.2315)
 -->
<!-- Title: gk_graph_FreeContents Pages: 1 -->
<svg width="326pt" height="28pt"
 viewBox="0.00 0.00 326.00 28.00" xmlns="http://www.w3.org/2000/svg" xmlns:xlink="http://www.w3.org/1999/xlink">
<g id="graph0" class="graph" transform="scale(1 1) rotate(0) translate(4 24)">
<title>gk_graph_FreeContents</title>
<polygon fill="white" stroke="none" points="-4,4 -4,-24 322,-24 322,4 -4,4"/>
<!-- Node1130 -->
<g id="node1" class="node"><title>Node1130</title>
<polygon fill="#bfbfbf" stroke="black" points="0,-0.5 0,-19.5 124,-19.5 124,-0.5 0,-0.5"/>
<text text-anchor="middle" x="62" y="-7.5" font-family="Helvetica,sans-Serif" font-size="10.00">gk_graph_FreeContents</text>
</g>
<!-- Node1131 -->
<g id="node2" class="node"><title>Node1131</title>
<g id="a_node2"><a xlink:href="$a00849.html#a1c12a8da8ea4064302668e0ce94ad462" xlink:title="gk_graph_Free">
<polygon fill="white" stroke="black" points="160,-0.5 160,-19.5 244,-19.5 244,-0.5 160,-0.5"/>
<text text-anchor="middle" x="202" y="-7.5" font-family="Helvetica,sans-Serif" font-size="10.00">gk_graph_Free</text>
</a>
</g>
</g>
<!-- Node1130&#45;&gt;Node1131 -->
<g id="edge1" class="edge"><title>Node1130&#45;&gt;Node1131</title>
<path fill="none" stroke="midnightblue" d="M134.456,-10C143.088,-10 151.668,-10 159.655,-10"/>
<polygon fill="midnightblue" stroke="midnightblue" points="134.332,-6.5001 124.332,-10 134.332,-13.5001 134.332,-6.5001"/>
</g>
<!-- Node1132 -->
<g id="node3" class="node"><title>Node1132</title>
<g id="a_node3"><a xlink:href="$a00149.html#a0ddf1224851353fc92bfbff6f499fa97" xlink:title="main">
<polygon fill="white" stroke="black" points="280,-0.5 280,-19.5 318,-19.5 318,-0.5 280,-0.5"/>
<text text-anchor="middle" x="299" y="-7.5" font-family="Helvetica,sans-Serif" font-size="10.00">main</text>
</a>
</g>
</g>
<!-- Node1131&#45;&gt;Node1132 -->
<g id="edge2" class="edge"><title>Node1131&#45;&gt;Node1132</title>
<path fill="none" stroke="midnightblue" d="M254.379,-10C263.462,-10 272.353,-10 279.715,-10"/>
<polygon fill="midnightblue" stroke="midnightblue" points="254.116,-6.5001 244.116,-10 254.116,-13.5001 254.116,-6.5001"/>
</g>
</g>
</svg>
