<?xml version="1.0" encoding="UTF-8" standalone="no"?>
<!DOCTYPE svg PUBLIC "-//W3C//DTD SVG 1.1//EN"
 "http://www.w3.org/Graphics/SVG/1.1/DTD/svg11.dtd">
<!-- Generated by graphviz version 2.36.0 (20140111.2315)
 -->
<!-- Title: gk_graph_ComputeBestFOrdering Pages: 1 -->
<svg width="352pt" height="66pt"
 viewBox="0.00 0.00 352.00 66.00" xmlns="http://www.w3.org/2000/svg" xmlns:xlink="http://www.w3.org/1999/xlink">
<g id="graph0" class="graph" transform="scale(1 1) rotate(0) translate(4 62)">
<title>gk_graph_ComputeBestFOrdering</title>
<polygon fill="white" stroke="none" points="-4,4 -4,-62 348,-62 348,4 -4,4"/>
<!-- Node1074 -->
<g id="node1" class="node"><title>Node1074</title>
<polygon fill="#bfbfbf" stroke="black" points="0.5,-19.5 0.5,-38.5 169.5,-38.5 169.5,-19.5 0.5,-19.5"/>
<text text-anchor="middle" x="85" y="-26.5" font-family="Helvetica,sans-Serif" font-size="10.00">gk_graph_ComputeBestFOrdering</text>
</g>
<!-- Node1075 -->
<g id="node2" class="node"><title>Node1075</title>
<g id="a_node2"><a xlink:href="$a00026.html#a4c320c13bcdc9967613253ef4c73f59f" xlink:title="gk_errexit">
<polygon fill="white" stroke="black" points="206,-38.5 206,-57.5 266,-57.5 266,-38.5 206,-38.5"/>
<text text-anchor="middle" x="236" y="-45.5" font-family="Helvetica,sans-Serif" font-size="10.00">gk_errexit</text>
</a>
</g>
</g>
<!-- Node1074&#45;&gt;Node1075 -->
<g id="edge1" class="edge"><title>Node1074&#45;&gt;Node1075</title>
<path fill="none" stroke="midnightblue" d="M160.937,-38.5557C172.894,-40.0804 184.836,-41.6033 195.531,-42.9671"/>
<polygon fill="midnightblue" stroke="midnightblue" points="195.403,-46.4789 205.765,-44.2721 196.288,-39.5352 195.403,-46.4789"/>
</g>
<!-- Node1077 -->
<g id="node4" class="node"><title>Node1077</title>
<g id="a_node4"><a xlink:href="$a00077.html#ac8df62c4e3d0910711a9874f9cc58884" xlink:title="gk_free">
<polygon fill="white" stroke="black" points="211,-0.5 211,-19.5 261,-19.5 261,-0.5 211,-0.5"/>
<text text-anchor="middle" x="236" y="-7.5" font-family="Helvetica,sans-Serif" font-size="10.00">gk_free</text>
</a>
</g>
</g>
<!-- Node1074&#45;&gt;Node1077 -->
<g id="edge3" class="edge"><title>Node1074&#45;&gt;Node1077</title>
<path fill="none" stroke="midnightblue" d="M160.937,-19.4443C174.949,-17.6575 188.941,-15.8733 200.929,-14.3446"/>
<polygon fill="midnightblue" stroke="midnightblue" points="201.422,-17.8102 210.899,-13.0733 200.536,-10.8664 201.422,-17.8102"/>
</g>
<!-- Node1076 -->
<g id="node3" class="node"><title>Node1076</title>
<g id="a_node3"><a xlink:href="$a01017.html#a2e311a777ffe9c80e405efa7cd2757be" xlink:title="fprintf">
<polygon fill="white" stroke="black" points="302,-38.5 302,-57.5 344,-57.5 344,-38.5 302,-38.5"/>
<text text-anchor="middle" x="323" y="-45.5" font-family="Helvetica,sans-Serif" font-size="10.00">fprintf</text>
</a>
</g>
</g>
<!-- Node1075&#45;&gt;Node1076 -->
<g id="edge2" class="edge"><title>Node1075&#45;&gt;Node1076</title>
<path fill="none" stroke="midnightblue" d="M266.252,-48C274.491,-48 283.468,-48 291.763,-48"/>
<polygon fill="midnightblue" stroke="midnightblue" points="291.799,-51.5001 301.799,-48 291.799,-44.5001 291.799,-51.5001"/>
</g>
</g>
</svg>
