<?xml version="1.0" encoding="UTF-8" standalone="no"?>
<!DOCTYPE svg PUBLIC "-//W3C//DTD SVG 1.1//EN"
 "http://www.w3.org/Graphics/SVG/1.1/DTD/svg11.dtd">
<!-- Generated by graphviz version 2.36.0 (20140111.2315)
 -->
<!-- Title: gk_csr_GetSimilarRows Pages: 1 -->
<svg width="328pt" height="142pt"
 viewBox="0.00 0.00 328.00 142.00" xmlns="http://www.w3.org/2000/svg" xmlns:xlink="http://www.w3.org/1999/xlink">
<g id="graph0" class="graph" transform="scale(1 1) rotate(0) translate(4 138)">
<title>gk_csr_GetSimilarRows</title>
<polygon fill="white" stroke="none" points="-4,4 -4,-138 324,-138 324,4 -4,4"/>
<!-- Node105 -->
<g id="node1" class="node"><title>Node105</title>
<polygon fill="#bfbfbf" stroke="black" points="0.5,-57.5 0.5,-76.5 123.5,-76.5 123.5,-57.5 0.5,-57.5"/>
<text text-anchor="middle" x="62" y="-64.5" font-family="Helvetica,sans-Serif" font-size="10.00">gk_csr_GetSimilarRows</text>
</g>
<!-- Node106 -->
<g id="node2" class="node"><title>Node106</title>
<g id="a_node2"><a xlink:href="$a00026.html#a4c320c13bcdc9967613253ef4c73f59f" xlink:title="gk_errexit">
<polygon fill="white" stroke="black" points="171,-114.5 171,-133.5 231,-133.5 231,-114.5 171,-114.5"/>
<text text-anchor="middle" x="201" y="-121.5" font-family="Helvetica,sans-Serif" font-size="10.00">gk_errexit</text>
</a>
</g>
</g>
<!-- Node105&#45;&gt;Node106 -->
<g id="edge1" class="edge"><title>Node105&#45;&gt;Node106</title>
<path fill="none" stroke="midnightblue" d="M85.9307,-76.5405C108.257,-85.8294 142.402,-100.036 167.518,-110.486"/>
<polygon fill="midnightblue" stroke="midnightblue" points="166.417,-113.818 176.994,-114.428 169.106,-107.355 166.417,-113.818"/>
</g>
<!-- Node108 -->
<g id="node4" class="node"><title>Node108</title>
<g id="a_node4"><a xlink:href="$a00032.html#a5883bd40338c9bc48b10124cf32ad7ba" xlink:title="gk_dfkvkselect">
<polygon fill="white" stroke="black" points="160,-76.5 160,-95.5 242,-95.5 242,-76.5 160,-76.5"/>
<text text-anchor="middle" x="201" y="-83.5" font-family="Helvetica,sans-Serif" font-size="10.00">gk_dfkvkselect</text>
</a>
</g>
</g>
<!-- Node105&#45;&gt;Node108 -->
<g id="edge3" class="edge"><title>Node105&#45;&gt;Node108</title>
<path fill="none" stroke="midnightblue" d="M123.888,-75.4443C132.525,-76.6422 141.326,-77.8627 149.731,-79.0284"/>
<polygon fill="midnightblue" stroke="midnightblue" points="149.364,-82.511 159.75,-80.418 150.326,-75.5773 149.364,-82.511"/>
</g>
<!-- Node109 -->
<g id="node5" class="node"><title>Node109</title>
<g id="a_node5"><a xlink:href="$a00077.html#aa28cb87d9cb87860a5b1e23a94d7bba8" xlink:title="gk_fkvsortd">
<polygon fill="white" stroke="black" points="167,-38.5 167,-57.5 235,-57.5 235,-38.5 167,-38.5"/>
<text text-anchor="middle" x="201" y="-45.5" font-family="Helvetica,sans-Serif" font-size="10.00">gk_fkvsortd</text>
</a>
</g>
</g>
<!-- Node105&#45;&gt;Node109 -->
<g id="edge4" class="edge"><title>Node105&#45;&gt;Node109</title>
<path fill="none" stroke="midnightblue" d="M123.888,-58.5557C134.929,-57.0244 146.237,-55.4561 156.646,-54.0126"/>
<polygon fill="midnightblue" stroke="midnightblue" points="157.287,-57.4572 166.712,-52.6166 156.326,-50.5236 157.287,-57.4572"/>
</g>
<!-- Node110 -->
<g id="node6" class="node"><title>Node110</title>
<g id="a_node6"><a xlink:href="$a00077.html#ac8df62c4e3d0910711a9874f9cc58884" xlink:title="gk_free">
<polygon fill="white" stroke="black" points="176,-0.5 176,-19.5 226,-19.5 226,-0.5 176,-0.5"/>
<text text-anchor="middle" x="201" y="-7.5" font-family="Helvetica,sans-Serif" font-size="10.00">gk_free</text>
</a>
</g>
</g>
<!-- Node105&#45;&gt;Node110 -->
<g id="edge5" class="edge"><title>Node105&#45;&gt;Node110</title>
<path fill="none" stroke="midnightblue" d="M85.9307,-57.4595C108.257,-48.1706 142.402,-33.9642 167.518,-23.5143"/>
<polygon fill="midnightblue" stroke="midnightblue" points="169.106,-26.6445 176.994,-19.5716 166.417,-20.1816 169.106,-26.6445"/>
</g>
<!-- Node107 -->
<g id="node3" class="node"><title>Node107</title>
<g id="a_node3"><a xlink:href="$a01017.html#a2e311a777ffe9c80e405efa7cd2757be" xlink:title="fprintf">
<polygon fill="white" stroke="black" points="278,-114.5 278,-133.5 320,-133.5 320,-114.5 278,-114.5"/>
<text text-anchor="middle" x="299" y="-121.5" font-family="Helvetica,sans-Serif" font-size="10.00">fprintf</text>
</a>
</g>
</g>
<!-- Node106&#45;&gt;Node107 -->
<g id="edge2" class="edge"><title>Node106&#45;&gt;Node107</title>
<path fill="none" stroke="midnightblue" d="M231.064,-124C242.641,-124 255.968,-124 267.668,-124"/>
<polygon fill="midnightblue" stroke="midnightblue" points="267.858,-127.5 277.858,-124 267.858,-120.5 267.858,-127.5"/>
</g>
</g>
</svg>
