<?xml version="1.0" encoding="UTF-8" standalone="no"?>
<!DOCTYPE svg PUBLIC "-//W3C//DTD SVG 1.1//EN"
 "http://www.w3.org/Graphics/SVG/1.1/DTD/svg11.dtd">
<!-- Generated by graphviz version 2.36.0 (20140111.2315)
 -->
<!-- Title: gk_csr_Create Pages: 1 -->
<svg width="578pt" height="495pt"
 viewBox="0.00 0.00 578.00 495.00" xmlns="http://www.w3.org/2000/svg" xmlns:xlink="http://www.w3.org/1999/xlink">
<g id="graph0" class="graph" transform="scale(1 1) rotate(0) translate(4 491)">
<title>gk_csr_Create</title>
<polygon fill="white" stroke="none" points="-4,4 -4,-491 574,-491 574,4 -4,4"/>
<!-- Node25 -->
<g id="node1" class="node"><title>Node25</title>
<polygon fill="#bfbfbf" stroke="black" points="0,-258.5 0,-277.5 82,-277.5 82,-258.5 0,-258.5"/>
<text text-anchor="middle" x="41" y="-265.5" font-family="Helvetica,sans-Serif" font-size="10.00">gk_csr_Create</text>
</g>
<!-- Node26 -->
<g id="node2" class="node"><title>Node26</title>
<g id="a_node2"><a xlink:href="$a00077.html#a24144cf4c30d5ec4ed8b488d371476b3" xlink:title="gk_csr_Dup">
<polygon fill="white" stroke="black" points="147,-467.5 147,-486.5 217,-486.5 217,-467.5 147,-467.5"/>
<text text-anchor="middle" x="182" y="-474.5" font-family="Helvetica,sans-Serif" font-size="10.00">gk_csr_Dup</text>
</a>
</g>
</g>
<!-- Node25&#45;&gt;Node26 -->
<g id="edge1" class="edge"><title>Node25&#45;&gt;Node26</title>
<path fill="none" stroke="midnightblue" d="M44.2764,-287.88C49.7487,-326.392 67.1937,-411.46 118,-458 125.919,-465.254 136.516,-469.742 146.757,-472.518"/>
<polygon fill="midnightblue" stroke="midnightblue" points="47.6902,-286.987 42.9387,-277.517 40.7478,-287.883 47.6902,-286.987"/>
</g>
<!-- Node27 -->
<g id="node3" class="node"><title>Node27</title>
<g id="a_node3"><a xlink:href="$a00077.html#a0b106b838c4dc370c32a47aaaf990375" xlink:title="gk_csr_ExtractSubmatrix">
<polygon fill="white" stroke="black" points="118,-429.5 118,-448.5 246,-448.5 246,-429.5 118,-429.5"/>
<text text-anchor="middle" x="182" y="-436.5" font-family="Helvetica,sans-Serif" font-size="10.00">gk_csr_ExtractSubmatrix</text>
</a>
</g>
</g>
<!-- Node25&#45;&gt;Node27 -->
<g id="edge2" class="edge"><title>Node25&#45;&gt;Node27</title>
<path fill="none" stroke="midnightblue" d="M46.5168,-287.916C54.913,-320.383 76.0149,-384.634 118,-420 122.631,-423.901 128.044,-427.001 133.718,-429.464"/>
<polygon fill="midnightblue" stroke="midnightblue" points="49.8334,-286.743 44.0635,-277.858 43.0328,-288.402 49.8334,-286.743"/>
</g>
<!-- Node28 -->
<g id="node4" class="node"><title>Node28</title>
<g id="a_node4"><a xlink:href="$a00077.html#aaa2391cce5eb8291e65f6dc4d8e252fd" xlink:title="gk_csr_ExtractRows">
<polygon fill="white" stroke="black" points="128,-391.5 128,-410.5 236,-410.5 236,-391.5 128,-391.5"/>
<text text-anchor="middle" x="182" y="-398.5" font-family="Helvetica,sans-Serif" font-size="10.00">gk_csr_ExtractRows</text>
</a>
</g>
</g>
<!-- Node25&#45;&gt;Node28 -->
<g id="edge3" class="edge"><title>Node25&#45;&gt;Node28</title>
<path fill="none" stroke="midnightblue" d="M49.6471,-286.852C60.8828,-312.202 84.2409,-356.977 118,-382 123.231,-385.878 129.256,-388.97 135.462,-391.436"/>
<polygon fill="midnightblue" stroke="midnightblue" points="52.8375,-285.411 45.6978,-277.583 46.3976,-288.154 52.8375,-285.411"/>
</g>
<!-- Node29 -->
<g id="node5" class="node"><title>Node29</title>
<g id="a_node5"><a xlink:href="$a00077.html#ac59047c4a89fa4680d746fcdce4aa1a7" xlink:title="gk_csr_ExtractPartition">
<polygon fill="white" stroke="black" points="122.5,-353.5 122.5,-372.5 241.5,-372.5 241.5,-353.5 122.5,-353.5"/>
<text text-anchor="middle" x="182" y="-360.5" font-family="Helvetica,sans-Serif" font-size="10.00">gk_csr_ExtractPartition</text>
</a>
</g>
</g>
<!-- Node25&#45;&gt;Node29 -->
<g id="edge4" class="edge"><title>Node25&#45;&gt;Node29</title>
<path fill="none" stroke="midnightblue" d="M55.4358,-285.826C69.3178,-303.061 92.501,-328.744 118,-344 124.372,-347.812 131.57,-350.914 138.764,-353.419"/>
<polygon fill="midnightblue" stroke="midnightblue" points="57.9815,-283.4 49.0613,-277.683 52.4695,-287.715 57.9815,-283.4"/>
</g>
<!-- Node30 -->
<g id="node6" class="node"><title>Node30</title>
<g id="a_node6"><a xlink:href="$a00077.html#ac438fca404c3f1ff6989aa68f83ed241" xlink:title="gk_csr_Split">
<polygon fill="white" stroke="black" points="146.5,-315.5 146.5,-334.5 217.5,-334.5 217.5,-315.5 146.5,-315.5"/>
<text text-anchor="middle" x="182" y="-322.5" font-family="Helvetica,sans-Serif" font-size="10.00">gk_csr_Split</text>
</a>
</g>
</g>
<!-- Node25&#45;&gt;Node30 -->
<g id="edge5" class="edge"><title>Node25&#45;&gt;Node30</title>
<path fill="none" stroke="midnightblue" d="M67.9827,-282.375C82.435,-290.016 100.907,-299.207 118,-306 127.024,-309.586 137.001,-312.886 146.303,-315.693"/>
<polygon fill="midnightblue" stroke="midnightblue" points="69.587,-279.264 59.1207,-277.619 66.2764,-285.432 69.587,-279.264"/>
</g>
<!-- Node31 -->
<g id="node7" class="node"><title>Node31</title>
<g id="a_node7"><a xlink:href="$a00077.html#a8ebc19fe9a291bdf67677ebdaae56592" xlink:title="gk_csr_Read">
<polygon fill="white" stroke="black" points="144.5,-277.5 144.5,-296.5 219.5,-296.5 219.5,-277.5 144.5,-277.5"/>
<text text-anchor="middle" x="182" y="-284.5" font-family="Helvetica,sans-Serif" font-size="10.00">gk_csr_Read</text>
</a>
</g>
</g>
<!-- Node25&#45;&gt;Node31 -->
<g id="edge6" class="edge"><title>Node25&#45;&gt;Node31</title>
<path fill="none" stroke="midnightblue" d="M92.5872,-274.915C109.671,-277.25 128.404,-279.811 144.212,-281.971"/>
<polygon fill="midnightblue" stroke="midnightblue" points="92.5865,-271.382 82.2046,-273.496 91.6384,-278.318 92.5865,-271.382"/>
</g>
<!-- Node33 -->
<g id="node9" class="node"><title>Node33</title>
<g id="a_node9"><a xlink:href="$a00077.html#a06edc174c5986841b589900ffce6600f" xlink:title="gk_csr_Prune">
<polygon fill="white" stroke="black" points="143,-239.5 143,-258.5 221,-258.5 221,-239.5 143,-239.5"/>
<text text-anchor="middle" x="182" y="-246.5" font-family="Helvetica,sans-Serif" font-size="10.00">gk_csr_Prune</text>
</a>
</g>
</g>
<!-- Node25&#45;&gt;Node33 -->
<g id="edge8" class="edge"><title>Node25&#45;&gt;Node33</title>
<path fill="none" stroke="midnightblue" d="M92.3258,-261.121C108.972,-258.845 127.211,-256.352 142.796,-254.222"/>
<polygon fill="midnightblue" stroke="midnightblue" points="91.6384,-257.682 82.2046,-262.504 92.5865,-264.618 91.6384,-257.682"/>
</g>
<!-- Node34 -->
<g id="node10" class="node"><title>Node34</title>
<g id="a_node10"><a xlink:href="$a00077.html#a66729af11e7dee3585d6191661757c37" xlink:title="gk_csr_LowFilter">
<polygon fill="white" stroke="black" points="136,-201.5 136,-220.5 228,-220.5 228,-201.5 136,-201.5"/>
<text text-anchor="middle" x="182" y="-208.5" font-family="Helvetica,sans-Serif" font-size="10.00">gk_csr_LowFilter</text>
</a>
</g>
</g>
<!-- Node25&#45;&gt;Node34 -->
<g id="edge9" class="edge"><title>Node25&#45;&gt;Node34</title>
<path fill="none" stroke="midnightblue" d="M67.9827,-253.625C82.435,-245.984 100.907,-236.793 118,-230 126.812,-226.498 136.532,-223.27 145.645,-220.506"/>
<polygon fill="midnightblue" stroke="midnightblue" points="66.2764,-250.568 59.1207,-258.381 69.587,-256.736 66.2764,-250.568"/>
</g>
<!-- Node35 -->
<g id="node11" class="node"><title>Node35</title>
<g id="a_node11"><a xlink:href="$a00077.html#ad6f2c5699b47e1bc2285a1b391d7c7da" xlink:title="gk_csr_TopKPlusFilter">
<polygon fill="white" stroke="black" points="123.5,-163.5 123.5,-182.5 240.5,-182.5 240.5,-163.5 123.5,-163.5"/>
<text text-anchor="middle" x="182" y="-170.5" font-family="Helvetica,sans-Serif" font-size="10.00">gk_csr_TopKPlusFilter</text>
</a>
</g>
</g>
<!-- Node25&#45;&gt;Node35 -->
<g id="edge10" class="edge"><title>Node25&#45;&gt;Node35</title>
<path fill="none" stroke="midnightblue" d="M55.4358,-250.174C69.3178,-232.939 92.501,-207.256 118,-192 124.372,-188.188 131.57,-185.086 138.764,-182.581"/>
<polygon fill="midnightblue" stroke="midnightblue" points="52.4695,-248.285 49.0613,-258.317 57.9815,-252.6 52.4695,-248.285"/>
</g>
<!-- Node36 -->
<g id="node12" class="node"><title>Node36</title>
<g id="a_node12"><a xlink:href="$a00077.html#a193f32ef7dd91c2c633157bafea26080" xlink:title="gk_csr_ZScoreFilter">
<polygon fill="white" stroke="black" points="129,-125.5 129,-144.5 235,-144.5 235,-125.5 129,-125.5"/>
<text text-anchor="middle" x="182" y="-132.5" font-family="Helvetica,sans-Serif" font-size="10.00">gk_csr_ZScoreFilter</text>
</a>
</g>
</g>
<!-- Node25&#45;&gt;Node36 -->
<g id="edge11" class="edge"><title>Node25&#45;&gt;Node36</title>
<path fill="none" stroke="midnightblue" d="M49.6471,-249.148C60.8828,-223.798 84.2409,-179.023 118,-154 123.231,-150.122 129.256,-147.03 135.462,-144.564"/>
<polygon fill="midnightblue" stroke="midnightblue" points="46.3976,-247.846 45.6978,-258.417 52.8375,-250.589 46.3976,-247.846"/>
</g>
<!-- Node37 -->
<g id="node13" class="node"><title>Node37</title>
<g id="a_node13"><a xlink:href="$a00104.html#abc9e8f6a3efe2f0f3ec79b5d8883b246" xlink:title="gk_find_frequent_itemsets">
<polygon fill="white" stroke="black" points="436,-49.5 436,-68.5 570,-68.5 570,-49.5 436,-49.5"/>
<text text-anchor="middle" x="503" y="-56.5" font-family="Helvetica,sans-Serif" font-size="10.00">gk_find_frequent_itemsets</text>
</a>
</g>
</g>
<!-- Node25&#45;&gt;Node37 -->
<g id="edge12" class="edge"><title>Node25&#45;&gt;Node37</title>
<path fill="none" stroke="midnightblue" d="M45.7593,-248.295C53.2032,-215.109 73.1458,-148.516 118,-116 121.206,-113.676 326.797,-84.0249 435.791,-68.4367"/>
<polygon fill="midnightblue" stroke="midnightblue" points="42.3151,-247.666 43.6961,-258.171 49.1672,-249.098 42.3151,-247.666"/>
</g>
<!-- Node38 -->
<g id="node14" class="node"><title>Node38</title>
<g id="a_node14"><a xlink:href="$a00104.html#ab348ad8f89d70692400d7602e3a824bf" xlink:title="itemsets_project_matrix">
<polygon fill="white" stroke="black" points="121,-49.5 121,-68.5 243,-68.5 243,-49.5 121,-49.5"/>
<text text-anchor="middle" x="182" y="-56.5" font-family="Helvetica,sans-Serif" font-size="10.00">itemsets_project_matrix</text>
</a>
</g>
</g>
<!-- Node25&#45;&gt;Node38 -->
<g id="edge13" class="edge"><title>Node25&#45;&gt;Node38</title>
<path fill="none" stroke="midnightblue" d="M44.8198,-248.418C51.1753,-211.196 69.998,-129.779 118,-83 124.454,-76.7101 132.726,-72.0327 141.137,-68.5669"/>
<polygon fill="midnightblue" stroke="midnightblue" points="41.3362,-248.04 43.2291,-258.464 48.2501,-249.134 41.3362,-248.04"/>
</g>
<!-- Node32 -->
<g id="node8" class="node"><title>Node32</title>
<g id="a_node8"><a xlink:href="$a00867.html#a0ddf1224851353fc92bfbff6f499fa97" xlink:title="main">
<polygon fill="white" stroke="black" points="322,-277.5 322,-296.5 360,-296.5 360,-277.5 322,-277.5"/>
<text text-anchor="middle" x="341" y="-284.5" font-family="Helvetica,sans-Serif" font-size="10.00">main</text>
</a>
</g>
</g>
<!-- Node31&#45;&gt;Node32 -->
<g id="edge7" class="edge"><title>Node31&#45;&gt;Node32</title>
<path fill="none" stroke="midnightblue" d="M229.955,-287C260.86,-287 299.589,-287 321.893,-287"/>
<polygon fill="midnightblue" stroke="midnightblue" points="229.81,-283.5 219.81,-287 229.809,-290.5 229.81,-283.5"/>
</g>
<!-- Node38&#45;&gt;Node37 -->
<g id="edge14" class="edge"><title>Node38&#45;&gt;Node37</title>
<path fill="none" stroke="midnightblue" d="M253.261,-59C307.701,-59 382.592,-59 435.941,-59"/>
<polygon fill="midnightblue" stroke="midnightblue" points="253.001,-55.5001 243.001,-59 253.001,-62.5001 253.001,-55.5001"/>
</g>
<!-- Node39 -->
<g id="node15" class="node"><title>Node39</title>
<g id="a_node15"><a xlink:href="$a00104.html#ab19ae99e1e3ba575373cf0fe846a8cd9" xlink:title="itemsets_find_frequent\l_itemsets">
<polygon fill="white" stroke="black" points="282,-0 282,-30 400,-30 400,-0 282,-0"/>
<text text-anchor="start" x="290" y="-18" font-family="Helvetica,sans-Serif" font-size="10.00">itemsets_find_frequent</text>
<text text-anchor="middle" x="341" y="-7" font-family="Helvetica,sans-Serif" font-size="10.00">_itemsets</text>
</a>
</g>
</g>
<!-- Node38&#45;&gt;Node39 -->
<g id="edge15" class="edge"><title>Node38&#45;&gt;Node39</title>
<path fill="none" stroke="midnightblue" d="M226.931,-46.6882C245.334,-41.5306 266.905,-35.4852 286.244,-30.0654"/>
<polygon fill="midnightblue" stroke="midnightblue" points="225.751,-43.3839 217.067,-49.4527 227.64,-50.1242 225.751,-43.3839"/>
</g>
<!-- Node39&#45;&gt;Node37 -->
<g id="edge16" class="edge"><title>Node39&#45;&gt;Node37</title>
<path fill="none" stroke="midnightblue" d="M406.352,-32.6969C427.128,-38.4101 449.368,-44.5262 467.17,-49.4217"/>
<polygon fill="midnightblue" stroke="midnightblue" points="407.186,-29.2962 396.615,-30.0192 405.329,-36.0456 407.186,-29.2962"/>
</g>
</g>
</svg>
