<?xml version="1.0" encoding="UTF-8" standalone="no"?>
<!DOCTYPE svg PUBLIC "-//W3C//DTD SVG 1.1//EN"
 "http://www.w3.org/Graphics/SVG/1.1/DTD/svg11.dtd">
<!-- Generated by graphviz version 2.36.0 (20140111.2315)
 -->
<!-- Title: gk_gkmcoreDel Pages: 1 -->
<svg width="268pt" height="28pt"
 viewBox="0.00 0.00 268.00 28.00" xmlns="http://www.w3.org/2000/svg" xmlns:xlink="http://www.w3.org/1999/xlink">
<g id="graph0" class="graph" transform="scale(1 1) rotate(0) translate(4 24)">
<title>gk_gkmcoreDel</title>
<polygon fill="white" stroke="none" points="-4,4 -4,-24 264,-24 264,4 -4,4"/>
<!-- Node1059 -->
<g id="node1" class="node"><title>Node1059</title>
<polygon fill="#bfbfbf" stroke="black" points="0,-0.5 0,-19.5 86,-19.5 86,-0.5 0,-0.5"/>
<text text-anchor="middle" x="43" y="-7.5" font-family="Helvetica,sans-Serif" font-size="10.00">gk_gkmcoreDel</text>
</g>
<!-- Node1060 -->
<g id="node2" class="node"><title>Node1060</title>
<g id="a_node2"><a xlink:href="$a00026.html#a4c320c13bcdc9967613253ef4c73f59f" xlink:title="gk_errexit">
<polygon fill="white" stroke="black" points="122,-0.5 122,-19.5 182,-19.5 182,-0.5 122,-0.5"/>
<text text-anchor="middle" x="152" y="-7.5" font-family="Helvetica,sans-Serif" font-size="10.00">gk_errexit</text>
</a>
</g>
</g>
<!-- Node1059&#45;&gt;Node1060 -->
<g id="edge1" class="edge"><title>Node1059&#45;&gt;Node1060</title>
<path fill="none" stroke="midnightblue" d="M86.2892,-10C94.6681,-10 103.431,-10 111.705,-10"/>
<polygon fill="midnightblue" stroke="midnightblue" points="111.859,-13.5001 121.859,-10 111.859,-6.5001 111.859,-13.5001"/>
</g>
<!-- Node1061 -->
<g id="node3" class="node"><title>Node1061</title>
<g id="a_node3"><a xlink:href="$a01017.html#a2e311a777ffe9c80e405efa7cd2757be" xlink:title="fprintf">
<polygon fill="white" stroke="black" points="218,-0.5 218,-19.5 260,-19.5 260,-0.5 218,-0.5"/>
<text text-anchor="middle" x="239" y="-7.5" font-family="Helvetica,sans-Serif" font-size="10.00">fprintf</text>
</a>
</g>
</g>
<!-- Node1060&#45;&gt;Node1061 -->
<g id="edge2" class="edge"><title>Node1060&#45;&gt;Node1061</title>
<path fill="none" stroke="midnightblue" d="M182.252,-10C190.491,-10 199.468,-10 207.763,-10"/>
<polygon fill="midnightblue" stroke="midnightblue" points="207.799,-13.5001 217.799,-10 207.799,-6.5001 207.799,-13.5001"/>
</g>
</g>
</svg>
