<?xml version="1.0" encoding="UTF-8" standalone="no"?>
<!DOCTYPE svg PUBLIC "-//W3C//DTD SVG 1.1//EN"
 "http://www.w3.org/Graphics/SVG/1.1/DTD/svg11.dtd">
<!-- Generated by graphviz version 2.36.0 (20140111.2315)
 -->
<!-- Title: gk_getfsize Pages: 1 -->
<svg width="204pt" height="142pt"
 viewBox="0.00 0.00 204.00 142.00" xmlns="http://www.w3.org/2000/svg" xmlns:xlink="http://www.w3.org/1999/xlink">
<g id="graph0" class="graph" transform="scale(1 1) rotate(0) translate(4 138)">
<title>gk_getfsize</title>
<polygon fill="white" stroke="none" points="-4,4 -4,-138 200,-138 200,4 -4,4"/>
<!-- Node931 -->
<g id="node1" class="node"><title>Node931</title>
<polygon fill="#bfbfbf" stroke="black" points="0.5,-57.5 0.5,-76.5 67.5,-76.5 67.5,-57.5 0.5,-57.5"/>
<text text-anchor="middle" x="34" y="-64.5" font-family="Helvetica,sans-Serif" font-size="10.00">gk_getfsize</text>
</g>
<!-- Node932 -->
<g id="node2" class="node"><title>Node932</title>
<g id="a_node2"><a xlink:href="$a00858.html#afbb9b4e2327d298a79924028441a0fdb" xlink:title="gk_i32readfilebin">
<polygon fill="white" stroke="black" points="104,-114.5 104,-133.5 196,-133.5 196,-114.5 104,-114.5"/>
<text text-anchor="middle" x="150" y="-121.5" font-family="Helvetica,sans-Serif" font-size="10.00">gk_i32readfilebin</text>
</a>
</g>
</g>
<!-- Node931&#45;&gt;Node932 -->
<g id="edge1" class="edge"><title>Node931&#45;&gt;Node932</title>
<path fill="none" stroke="midnightblue" d="M60.0007,-81.5884C72.9608,-88.9401 89.1468,-97.7984 104,-105 110.715,-108.256 118.131,-111.518 124.972,-114.398"/>
<polygon fill="midnightblue" stroke="midnightblue" points="61.6161,-78.4801 51.1992,-76.5466 58.1367,-84.5542 61.6161,-78.4801"/>
</g>
<!-- Node933 -->
<g id="node3" class="node"><title>Node933</title>
<g id="a_node3"><a xlink:href="$a00858.html#aca460764497638a612f886a089662416" xlink:title="gk_i64readfilebin">
<polygon fill="white" stroke="black" points="104,-76.5 104,-95.5 196,-95.5 196,-76.5 104,-76.5"/>
<text text-anchor="middle" x="150" y="-83.5" font-family="Helvetica,sans-Serif" font-size="10.00">gk_i64readfilebin</text>
</a>
</g>
</g>
<!-- Node931&#45;&gt;Node933 -->
<g id="edge2" class="edge"><title>Node931&#45;&gt;Node933</title>
<path fill="none" stroke="midnightblue" d="M77.6987,-74.1164C86.1491,-75.5248 95.0478,-77.008 103.585,-78.4308"/>
<polygon fill="midnightblue" stroke="midnightblue" points="78.1072,-70.6363 67.6678,-72.4446 76.9563,-77.5411 78.1072,-70.6363"/>
</g>
<!-- Node934 -->
<g id="node4" class="node"><title>Node934</title>
<g id="a_node4"><a xlink:href="$a00858.html#a825d4634e2e656bc3dc9f3af0c9b1d5d" xlink:title="gk_freadfilebin">
<polygon fill="white" stroke="black" points="109,-38.5 109,-57.5 191,-57.5 191,-38.5 109,-38.5"/>
<text text-anchor="middle" x="150" y="-45.5" font-family="Helvetica,sans-Serif" font-size="10.00">gk_freadfilebin</text>
</a>
</g>
</g>
<!-- Node931&#45;&gt;Node934 -->
<g id="edge3" class="edge"><title>Node931&#45;&gt;Node934</title>
<path fill="none" stroke="midnightblue" d="M77.5643,-59.9059C87.7318,-58.2114 98.5554,-56.4074 108.621,-54.7298"/>
<polygon fill="midnightblue" stroke="midnightblue" points="76.9563,-56.4589 67.6678,-61.5554 78.1072,-63.3637 76.9563,-56.4589"/>
</g>
<!-- Node935 -->
<g id="node5" class="node"><title>Node935</title>
<g id="a_node5"><a xlink:href="$a00858.html#a2a9dbcb6a3f167b0fd20e431612e5aa9" xlink:title="gk_dreadfilebin">
<polygon fill="white" stroke="black" points="108,-0.5 108,-19.5 192,-19.5 192,-0.5 108,-0.5"/>
<text text-anchor="middle" x="150" y="-7.5" font-family="Helvetica,sans-Serif" font-size="10.00">gk_dreadfilebin</text>
</a>
</g>
</g>
<!-- Node931&#45;&gt;Node935 -->
<g id="edge4" class="edge"><title>Node931&#45;&gt;Node935</title>
<path fill="none" stroke="midnightblue" d="M60.0007,-52.4116C72.9608,-45.0599 89.1468,-36.2016 104,-29 110.715,-25.7442 118.131,-22.4816 124.972,-19.6017"/>
<polygon fill="midnightblue" stroke="midnightblue" points="58.1367,-49.4458 51.1992,-57.4534 61.6161,-55.5199 58.1367,-49.4458"/>
</g>
</g>
</svg>
