<?xml version="1.0" encoding="UTF-8" standalone="no"?>
<!DOCTYPE svg PUBLIC "-//W3C//DTD SVG 1.1//EN"
 "http://www.w3.org/Graphics/SVG/1.1/DTD/svg11.dtd">
<!-- Generated by graphviz version 2.36.0 (20140111.2315)
 -->
<!-- Title: gk_idxkvsorti Pages: 1 -->
<svg width="270pt" height="28pt"
 viewBox="0.00 0.00 270.00 28.00" xmlns="http://www.w3.org/2000/svg" xmlns:xlink="http://www.w3.org/1999/xlink">
<g id="graph0" class="graph" transform="scale(1 1) rotate(0) translate(4 24)">
<title>gk_idxkvsorti</title>
<polygon fill="white" stroke="none" points="-4,4 -4,-24 266,-24 266,4 -4,4"/>
<!-- Node1263 -->
<g id="node1" class="node"><title>Node1263</title>
<polygon fill="#bfbfbf" stroke="black" points="0,-0.5 0,-19.5 74,-19.5 74,-0.5 0,-0.5"/>
<text text-anchor="middle" x="37" y="-7.5" font-family="Helvetica,sans-Serif" font-size="10.00">gk_idxkvsorti</text>
</g>
<!-- Node1264 -->
<g id="node2" class="node"><title>Node1264</title>
<g id="a_node2"><a xlink:href="$a00152.html#ab63d10c508d01adca7672ac341b950ba" xlink:title="test_idxkvsort">
<polygon fill="white" stroke="black" points="110,-0.5 110,-19.5 188,-19.5 188,-0.5 110,-0.5"/>
<text text-anchor="middle" x="149" y="-7.5" font-family="Helvetica,sans-Serif" font-size="10.00">test_idxkvsort</text>
</a>
</g>
</g>
<!-- Node1263&#45;&gt;Node1264 -->
<g id="edge1" class="edge"><title>Node1263&#45;&gt;Node1264</title>
<path fill="none" stroke="midnightblue" d="M84.1622,-10C92.6415,-10 101.409,-10 109.629,-10"/>
<polygon fill="midnightblue" stroke="midnightblue" points="84.0181,-6.5001 74.0181,-10 84.0181,-13.5001 84.0181,-6.5001"/>
</g>
<!-- Node1265 -->
<g id="node3" class="node"><title>Node1265</title>
<g id="a_node3"><a xlink:href="$a00152.html#ae66f6b31b5ad750f1fe042a706a4e3d4" xlink:title="main">
<polygon fill="white" stroke="black" points="224,-0.5 224,-19.5 262,-19.5 262,-0.5 224,-0.5"/>
<text text-anchor="middle" x="243" y="-7.5" font-family="Helvetica,sans-Serif" font-size="10.00">main</text>
</a>
</g>
</g>
<!-- Node1264&#45;&gt;Node1265 -->
<g id="edge2" class="edge"><title>Node1264&#45;&gt;Node1265</title>
<path fill="none" stroke="midnightblue" d="M198.357,-10C207.358,-10 216.238,-10 223.614,-10"/>
<polygon fill="midnightblue" stroke="midnightblue" points="198.217,-6.5001 188.217,-10 198.217,-13.5001 198.217,-6.5001"/>
</g>
</g>
</svg>
