<?xml version="1.0" encoding="UTF-8" standalone="no"?>
<!DOCTYPE svg PUBLIC "-//W3C//DTD SVG 1.1//EN"
 "http://www.w3.org/Graphics/SVG/1.1/DTD/svg11.dtd">
<!-- Generated by graphviz version 2.36.0 (20140111.2315)
 -->
<!-- Title: gk_readfile Pages: 1 -->
<svg width="530pt" height="332pt"
 viewBox="0.00 0.00 530.00 332.00" xmlns="http://www.w3.org/2000/svg" xmlns:xlink="http://www.w3.org/1999/xlink">
<g id="graph0" class="graph" transform="scale(1 1) rotate(0) translate(4 328)">
<title>gk_readfile</title>
<polygon fill="white" stroke="none" points="-4,4 -4,-328 526,-328 526,4 -4,4"/>
<!-- Node1529 -->
<g id="node1" class="node"><title>Node1529</title>
<polygon fill="#bfbfbf" stroke="black" points="0.5,-133.5 0.5,-152.5 65.5,-152.5 65.5,-133.5 0.5,-133.5"/>
<text text-anchor="middle" x="33" y="-140.5" font-family="Helvetica,sans-Serif" font-size="10.00">gk_readfile</text>
</g>
<!-- Node1530 -->
<g id="node2" class="node"><title>Node1530</title>
<g id="a_node2"><a xlink:href="$a00035.html#a739112cb142f2e96d6952140c66cd31c" xlink:title="gk_getfilestats">
<polygon fill="white" stroke="black" points="102,-228.5 102,-247.5 182,-247.5 182,-228.5 102,-228.5"/>
<text text-anchor="middle" x="142" y="-235.5" font-family="Helvetica,sans-Serif" font-size="10.00">gk_getfilestats</text>
</a>
</g>
</g>
<!-- Node1529&#45;&gt;Node1530 -->
<g id="edge1" class="edge"><title>Node1529&#45;&gt;Node1530</title>
<path fill="none" stroke="midnightblue" d="M42.1013,-152.954C54.1901,-167.438 78.0981,-194.698 102,-214 105.893,-217.144 110.229,-220.192 114.555,-223.002"/>
<polygon fill="midnightblue" stroke="midnightblue" points="112.928,-226.111 123.275,-228.39 116.607,-220.156 112.928,-226.111"/>
</g>
<!-- Node1537 -->
<g id="node9" class="node"><title>Node1537</title>
<g id="a_node9"><a xlink:href="$a00077.html#aba6f76f5c67b9b7e9c2e45988d3d3e9d" xlink:title="gk_malloc">
<polygon fill="white" stroke="black" points="218,-114.5 218,-133.5 280,-133.5 280,-114.5 218,-114.5"/>
<text text-anchor="middle" x="249" y="-121.5" font-family="Helvetica,sans-Serif" font-size="10.00">gk_malloc</text>
</a>
</g>
</g>
<!-- Node1529&#45;&gt;Node1537 -->
<g id="edge8" class="edge"><title>Node1529&#45;&gt;Node1537</title>
<path fill="none" stroke="midnightblue" d="M65.5764,-140.196C103.304,-136.847 166.487,-131.237 207.703,-127.578"/>
<polygon fill="midnightblue" stroke="midnightblue" points="208.028,-131.063 217.68,-126.692 207.409,-124.09 208.028,-131.063"/>
</g>
<!-- Node1541 -->
<g id="node13" class="node"><title>Node1541</title>
<g id="a_node13"><a xlink:href="$a00858.html#abff04948821f625a3e59666e61c70e2f" xlink:title="gk_fopen">
<polygon fill="white" stroke="black" points="220,-190.5 220,-209.5 278,-209.5 278,-190.5 220,-190.5"/>
<text text-anchor="middle" x="249" y="-197.5" font-family="Helvetica,sans-Serif" font-size="10.00">gk_fopen</text>
</a>
</g>
</g>
<!-- Node1529&#45;&gt;Node1541 -->
<g id="edge14" class="edge"><title>Node1529&#45;&gt;Node1541</title>
<path fill="none" stroke="midnightblue" d="M47.5991,-152.661C60.8334,-161.55 81.8421,-174.331 102,-181 137.384,-192.706 179.824,-197.241 209.804,-198.976"/>
<polygon fill="midnightblue" stroke="midnightblue" points="209.693,-202.475 219.856,-199.481 210.044,-195.484 209.693,-202.475"/>
</g>
<!-- Node1542 -->
<g id="node14" class="node"><title>Node1542</title>
<g id="a_node14"><a xlink:href="$a00858.html#ad8263f64108434d7ebab9799b5ab9632" xlink:title="gk_getline">
<polygon fill="white" stroke="black" points="111,-152.5 111,-171.5 173,-171.5 173,-152.5 111,-152.5"/>
<text text-anchor="middle" x="142" y="-159.5" font-family="Helvetica,sans-Serif" font-size="10.00">gk_getline</text>
</a>
</g>
</g>
<!-- Node1529&#45;&gt;Node1542 -->
<g id="edge17" class="edge"><title>Node1529&#45;&gt;Node1542</title>
<path fill="none" stroke="midnightblue" d="M65.5248,-148.598C76.5863,-150.562 89.1647,-152.796 100.838,-154.868"/>
<polygon fill="midnightblue" stroke="midnightblue" points="100.345,-158.336 110.803,-156.638 101.569,-151.443 100.345,-158.336"/>
</g>
<!-- Node1544 -->
<g id="node16" class="node"><title>Node1544</title>
<g id="a_node16"><a xlink:href="$a00077.html#a3090611e4e08f52edd87b455dcb420c8" xlink:title="Prunes characters from the end of the string. ">
<polygon fill="white" stroke="black" points="106,-38.5 106,-57.5 178,-57.5 178,-38.5 106,-38.5"/>
<text text-anchor="middle" x="142" y="-45.5" font-family="Helvetica,sans-Serif" font-size="10.00">gk_strtprune</text>
</a>
</g>
</g>
<!-- Node1529&#45;&gt;Node1544 -->
<g id="edge20" class="edge"><title>Node1529&#45;&gt;Node1544</title>
<path fill="none" stroke="midnightblue" d="M40.9433,-133.007C52.2513,-117.309 76.0092,-86.6404 102,-67 104.051,-65.4505 106.247,-63.9764 108.515,-62.5853"/>
<polygon fill="midnightblue" stroke="midnightblue" points="110.393,-65.5463 117.453,-57.6464 107.008,-59.4195 110.393,-65.5463"/>
</g>
<!-- Node1545 -->
<g id="node17" class="node"><title>Node1545</title>
<g id="a_node17"><a xlink:href="$a00077.html#af62038e97ca55f14ec2557a01bd85ca2" xlink:title="Duplicates a string. ">
<polygon fill="white" stroke="black" points="112,-76.5 112,-95.5 172,-95.5 172,-76.5 112,-76.5"/>
<text text-anchor="middle" x="142" y="-83.5" font-family="Helvetica,sans-Serif" font-size="10.00">gk_strdup</text>
</a>
</g>
</g>
<!-- Node1529&#45;&gt;Node1545 -->
<g id="edge21" class="edge"><title>Node1529&#45;&gt;Node1545</title>
<path fill="none" stroke="midnightblue" d="M52.1511,-133.331C69.1626,-124.269 94.8049,-110.609 114.176,-100.289"/>
<polygon fill="midnightblue" stroke="midnightblue" points="115.937,-103.317 123.117,-95.5265 112.646,-97.1391 115.937,-103.317"/>
</g>
<!-- Node1546 -->
<g id="node18" class="node"><title>Node1546</title>
<g id="a_node18"><a xlink:href="$a00858.html#a70dec19fefaf0c84f3948b4679a73fec" xlink:title="gk_fclose">
<polygon fill="white" stroke="black" points="219.5,-304.5 219.5,-323.5 278.5,-323.5 278.5,-304.5 219.5,-304.5"/>
<text text-anchor="middle" x="249" y="-311.5" font-family="Helvetica,sans-Serif" font-size="10.00">gk_fclose</text>
</a>
</g>
</g>
<!-- Node1529&#45;&gt;Node1546 -->
<g id="edge23" class="edge"><title>Node1529&#45;&gt;Node1546</title>
<path fill="none" stroke="midnightblue" d="M37.2886,-152.703C45.1071,-174.39 66.825,-227.217 102,-257 133.106,-283.338 177.795,-298.369 209.523,-306.308"/>
<polygon fill="midnightblue" stroke="midnightblue" points="208.796,-309.732 219.335,-308.641 210.416,-302.922 208.796,-309.732"/>
</g>
<!-- Node1547 -->
<g id="node19" class="node"><title>Node1547</title>
<g id="a_node19"><a xlink:href="$a00077.html#ac8df62c4e3d0910711a9874f9cc58884" xlink:title="gk_free">
<polygon fill="white" stroke="black" points="117,-0.5 117,-19.5 167,-19.5 167,-0.5 117,-0.5"/>
<text text-anchor="middle" x="142" y="-7.5" font-family="Helvetica,sans-Serif" font-size="10.00">gk_free</text>
</a>
</g>
</g>
<!-- Node1529&#45;&gt;Node1547 -->
<g id="edge25" class="edge"><title>Node1529&#45;&gt;Node1547</title>
<path fill="none" stroke="midnightblue" d="M37.4661,-133.498C45.6481,-112.224 68.0617,-60.1853 102,-29 103.893,-27.261 105.973,-25.648 108.159,-24.1583"/>
<polygon fill="midnightblue" stroke="midnightblue" points="110.072,-27.0943 116.929,-19.0182 106.532,-21.055 110.072,-27.0943"/>
</g>
<!-- Node1531 -->
<g id="node3" class="node"><title>Node1531</title>
<g id="a_node3"><a xlink:href="$a00077.html#ab2b996e10c5bccb30204d81804adfd24" xlink:title="gk_fopen">
<polygon fill="white" stroke="black" points="220,-228.5 220,-247.5 278,-247.5 278,-228.5 220,-228.5"/>
<text text-anchor="middle" x="249" y="-235.5" font-family="Helvetica,sans-Serif" font-size="10.00">gk_fopen</text>
</a>
</g>
</g>
<!-- Node1530&#45;&gt;Node1531 -->
<g id="edge2" class="edge"><title>Node1530&#45;&gt;Node1531</title>
<path fill="none" stroke="midnightblue" d="M182.098,-238C191.066,-238 200.594,-238 209.535,-238"/>
<polygon fill="midnightblue" stroke="midnightblue" points="209.694,-241.5 219.694,-238 209.694,-234.5 209.694,-241.5"/>
</g>
<!-- Node1535 -->
<g id="node7" class="node"><title>Node1535</title>
<g id="a_node7"><a xlink:href="$a00077.html#a0fd03cab5187904b005485109d9fa2b5" xlink:title="gk_fclose">
<polygon fill="white" stroke="black" points="219.5,-266.5 219.5,-285.5 278.5,-285.5 278.5,-266.5 219.5,-266.5"/>
<text text-anchor="middle" x="249" y="-273.5" font-family="Helvetica,sans-Serif" font-size="10.00">gk_fclose</text>
</a>
</g>
</g>
<!-- Node1530&#45;&gt;Node1535 -->
<g id="edge6" class="edge"><title>Node1530&#45;&gt;Node1535</title>
<path fill="none" stroke="midnightblue" d="M169.496,-247.589C182.304,-252.224 197.875,-257.86 211.762,-262.885"/>
<polygon fill="midnightblue" stroke="midnightblue" points="210.918,-266.302 221.513,-266.414 213.3,-259.72 210.918,-266.302"/>
</g>
<!-- Node1532 -->
<g id="node4" class="node"><title>Node1532</title>
<g id="a_node4"><a xlink:href="$a00575.html#ae6aab5c308faac0fc539cc9c6da9fbd0" xlink:title="sprintf">
<polygon fill="white" stroke="black" points="358,-228.5 358,-247.5 402,-247.5 402,-228.5 358,-228.5"/>
<text text-anchor="middle" x="380" y="-235.5" font-family="Helvetica,sans-Serif" font-size="10.00">sprintf</text>
</a>
</g>
</g>
<!-- Node1531&#45;&gt;Node1532 -->
<g id="edge3" class="edge"><title>Node1531&#45;&gt;Node1532</title>
<path fill="none" stroke="midnightblue" d="M278.31,-238C298.866,-238 326.675,-238 347.859,-238"/>
<polygon fill="midnightblue" stroke="midnightblue" points="347.962,-241.5 357.962,-238 347.962,-234.5 347.962,-241.5"/>
</g>
<!-- Node1533 -->
<g id="node5" class="node"><title>Node1533</title>
<g id="a_node5"><a xlink:href="$a00026.html#a56d0f2cc40cd8633a784582d6200d8b5" xlink:title="errexit">
<polygon fill="white" stroke="black" points="358,-190.5 358,-209.5 402,-209.5 402,-190.5 358,-190.5"/>
<text text-anchor="middle" x="380" y="-197.5" font-family="Helvetica,sans-Serif" font-size="10.00">errexit</text>
</a>
</g>
</g>
<!-- Node1531&#45;&gt;Node1533 -->
<g id="edge4" class="edge"><title>Node1531&#45;&gt;Node1533</title>
<path fill="none" stroke="midnightblue" d="M278.31,-229.661C298.96,-223.578 326.929,-215.339 348.149,-209.088"/>
<polygon fill="midnightblue" stroke="midnightblue" points="349.359,-212.38 357.962,-206.197 347.381,-205.666 349.359,-212.38"/>
</g>
<!-- Node1534 -->
<g id="node6" class="node"><title>Node1534</title>
<g id="a_node6"><a xlink:href="$a01017.html#a2e311a777ffe9c80e405efa7cd2757be" xlink:title="fprintf">
<polygon fill="white" stroke="black" points="480,-152.5 480,-171.5 522,-171.5 522,-152.5 480,-152.5"/>
<text text-anchor="middle" x="501" y="-159.5" font-family="Helvetica,sans-Serif" font-size="10.00">fprintf</text>
</a>
</g>
</g>
<!-- Node1533&#45;&gt;Node1534 -->
<g id="edge5" class="edge"><title>Node1533&#45;&gt;Node1534</title>
<path fill="none" stroke="midnightblue" d="M402.056,-193.846C414.324,-190.211 430.074,-185.461 444,-181 452.573,-178.254 461.844,-175.16 470.328,-172.278"/>
<polygon fill="midnightblue" stroke="midnightblue" points="471.507,-175.574 479.837,-169.027 469.243,-168.95 471.507,-175.574"/>
</g>
<!-- Node1536 -->
<g id="node8" class="node"><title>Node1536</title>
<g id="a_node8"><a xlink:href="$a01017.html#a355ed4cdac2a27aa04a6689ac2d7e86e" xlink:title="fclose">
<polygon fill="white" stroke="black" points="358.5,-285.5 358.5,-304.5 401.5,-304.5 401.5,-285.5 358.5,-285.5"/>
<text text-anchor="middle" x="380" y="-292.5" font-family="Helvetica,sans-Serif" font-size="10.00">fclose</text>
</a>
</g>
</g>
<!-- Node1535&#45;&gt;Node1536 -->
<g id="edge7" class="edge"><title>Node1535&#45;&gt;Node1536</title>
<path fill="none" stroke="midnightblue" d="M278.629,-280.217C299.33,-283.266 327.259,-287.379 348.4,-290.493"/>
<polygon fill="midnightblue" stroke="midnightblue" points="348.063,-293.981 358.466,-291.976 349.083,-287.056 348.063,-293.981"/>
</g>
<!-- Node1537&#45;&gt;Node1534 -->
<g id="edge9" class="edge"><title>Node1537&#45;&gt;Node1534</title>
<path fill="none" stroke="midnightblue" d="M257.244,-114.424C268.205,-100.822 290.458,-76.5027 316,-67 369.318,-47.1631 394.605,-38.7787 444,-67 472.286,-83.1607 487.71,-119.808 494.874,-142.569"/>
<polygon fill="midnightblue" stroke="midnightblue" points="491.6,-143.847 497.748,-152.476 498.323,-141.897 491.6,-143.847"/>
</g>
<!-- Node1538 -->
<g id="node10" class="node"><title>Node1538</title>
<g id="a_node10"><a xlink:href="$a00110.html#ad2327b94227019b6753b6b09400c0522" xlink:title="gk_GetCurMemoryUsed">
<polygon fill="white" stroke="black" points="318,-76.5 318,-95.5 442,-95.5 442,-76.5 318,-76.5"/>
<text text-anchor="middle" x="380" y="-83.5" font-family="Helvetica,sans-Serif" font-size="10.00">gk_GetCurMemoryUsed</text>
</a>
</g>
</g>
<!-- Node1537&#45;&gt;Node1538 -->
<g id="edge10" class="edge"><title>Node1537&#45;&gt;Node1538</title>
<path fill="none" stroke="midnightblue" d="M280.245,-115.091C297.162,-110.107 318.509,-103.819 337.024,-98.3651"/>
<polygon fill="midnightblue" stroke="midnightblue" points="338.086,-101.701 346.69,-95.5178 336.108,-94.9861 338.086,-101.701"/>
</g>
<!-- Node1539 -->
<g id="node11" class="node"><title>Node1539</title>
<g id="a_node11"><a xlink:href="$a00110.html#a656fd5266ae12a96e53125486f8fea52" xlink:title="gk_GetMaxMemoryUsed">
<polygon fill="white" stroke="black" points="316.5,-114.5 316.5,-133.5 443.5,-133.5 443.5,-114.5 316.5,-114.5"/>
<text text-anchor="middle" x="380" y="-121.5" font-family="Helvetica,sans-Serif" font-size="10.00">gk_GetMaxMemoryUsed</text>
</a>
</g>
</g>
<!-- Node1537&#45;&gt;Node1539 -->
<g id="edge11" class="edge"><title>Node1537&#45;&gt;Node1539</title>
<path fill="none" stroke="midnightblue" d="M280.245,-124C288.229,-124 297.2,-124 306.395,-124"/>
<polygon fill="midnightblue" stroke="midnightblue" points="306.423,-127.5 316.423,-124 306.423,-120.5 306.423,-127.5"/>
</g>
<!-- Node1540 -->
<g id="node12" class="node"><title>Node1540</title>
<g id="a_node12"><a xlink:href="$a00026.html#a4c320c13bcdc9967613253ef4c73f59f" xlink:title="gk_errexit">
<polygon fill="white" stroke="black" points="350,-152.5 350,-171.5 410,-171.5 410,-152.5 350,-152.5"/>
<text text-anchor="middle" x="380" y="-159.5" font-family="Helvetica,sans-Serif" font-size="10.00">gk_errexit</text>
</a>
</g>
</g>
<!-- Node1537&#45;&gt;Node1540 -->
<g id="edge12" class="edge"><title>Node1537&#45;&gt;Node1540</title>
<path fill="none" stroke="midnightblue" d="M280.245,-132.909C298.128,-138.177 320.96,-144.903 340.165,-150.56"/>
<polygon fill="midnightblue" stroke="midnightblue" points="339.251,-153.94 349.832,-153.408 341.229,-147.225 339.251,-153.94"/>
</g>
<!-- Node1540&#45;&gt;Node1534 -->
<g id="edge13" class="edge"><title>Node1540&#45;&gt;Node1534</title>
<path fill="none" stroke="midnightblue" d="M410.111,-162C428.172,-162 451.339,-162 469.631,-162"/>
<polygon fill="midnightblue" stroke="midnightblue" points="469.762,-165.5 479.762,-162 469.762,-158.5 469.762,-165.5"/>
</g>
<!-- Node1541&#45;&gt;Node1532 -->
<g id="edge15" class="edge"><title>Node1541&#45;&gt;Node1532</title>
<path fill="none" stroke="midnightblue" d="M278.31,-208.339C298.96,-214.422 326.929,-222.661 348.149,-228.912"/>
<polygon fill="midnightblue" stroke="midnightblue" points="347.381,-232.334 357.962,-231.803 349.359,-225.62 347.381,-232.334"/>
</g>
<!-- Node1541&#45;&gt;Node1533 -->
<g id="edge16" class="edge"><title>Node1541&#45;&gt;Node1533</title>
<path fill="none" stroke="midnightblue" d="M278.31,-200C298.866,-200 326.675,-200 347.859,-200"/>
<polygon fill="midnightblue" stroke="midnightblue" points="347.962,-203.5 357.962,-200 347.962,-196.5 347.962,-203.5"/>
</g>
<!-- Node1542&#45;&gt;Node1537 -->
<g id="edge18" class="edge"><title>Node1542&#45;&gt;Node1537</title>
<path fill="none" stroke="midnightblue" d="M169.496,-152.411C182.304,-147.776 197.875,-142.14 211.762,-137.115"/>
<polygon fill="midnightblue" stroke="midnightblue" points="213.3,-140.28 221.513,-133.586 210.918,-133.698 213.3,-140.28"/>
</g>
<!-- Node1543 -->
<g id="node15" class="node"><title>Node1543</title>
<g id="a_node15"><a xlink:href="$a00077.html#ab76a07ccd25288dd9acc99f5f24a7600" xlink:title="gk_realloc">
<polygon fill="white" stroke="black" points="218,-152.5 218,-171.5 280,-171.5 280,-152.5 218,-152.5"/>
<text text-anchor="middle" x="249" y="-159.5" font-family="Helvetica,sans-Serif" font-size="10.00">gk_realloc</text>
</a>
</g>
</g>
<!-- Node1542&#45;&gt;Node1543 -->
<g id="edge19" class="edge"><title>Node1542&#45;&gt;Node1543</title>
<path fill="none" stroke="midnightblue" d="M173.089,-162C183.853,-162 196.164,-162 207.654,-162"/>
<polygon fill="midnightblue" stroke="midnightblue" points="207.907,-165.5 217.907,-162 207.907,-158.5 207.907,-165.5"/>
</g>
<!-- Node1545&#45;&gt;Node1537 -->
<g id="edge22" class="edge"><title>Node1545&#45;&gt;Node1537</title>
<path fill="none" stroke="midnightblue" d="M169.496,-95.589C182.304,-100.224 197.875,-105.86 211.762,-110.885"/>
<polygon fill="midnightblue" stroke="midnightblue" points="210.918,-114.302 221.513,-114.414 213.3,-107.72 210.918,-114.302"/>
</g>
<!-- Node1546&#45;&gt;Node1536 -->
<g id="edge24" class="edge"><title>Node1546&#45;&gt;Node1536</title>
<path fill="none" stroke="midnightblue" d="M278.629,-309.783C299.33,-306.734 327.259,-302.621 348.4,-299.507"/>
<polygon fill="midnightblue" stroke="midnightblue" points="349.083,-302.944 358.466,-298.024 348.063,-296.019 349.083,-302.944"/>
</g>
</g>
</svg>
