<?xml version="1.0" encoding="UTF-8" standalone="no"?>
<!DOCTYPE svg PUBLIC "-//W3C//DTD SVG 1.1//EN"
 "http://www.w3.org/Graphics/SVG/1.1/DTD/svg11.dtd">
<!-- Generated by graphviz version 2.36.0 (20140111.2315)
 -->
<!-- Title: gk_fopen Pages: 1 -->
<svg width="224pt" height="66pt"
 viewBox="0.00 0.00 224.00 66.00" xmlns="http://www.w3.org/2000/svg" xmlns:xlink="http://www.w3.org/1999/xlink">
<g id="graph0" class="graph" transform="scale(1 1) rotate(0) translate(4 62)">
<title>gk_fopen</title>
<polygon fill="white" stroke="none" points="-4,4 -4,-62 220,-62 220,4 -4,4"/>
<!-- Node562 -->
<g id="node1" class="node"><title>Node562</title>
<polygon fill="#bfbfbf" stroke="black" points="0,-19.5 0,-38.5 58,-38.5 58,-19.5 0,-19.5"/>
<text text-anchor="middle" x="29" y="-26.5" font-family="Helvetica,sans-Serif" font-size="10.00">gk_fopen</text>
</g>
<!-- Node563 -->
<g id="node2" class="node"><title>Node563</title>
<g id="a_node2"><a xlink:href="$a00575.html#ae6aab5c308faac0fc539cc9c6da9fbd0" xlink:title="sprintf">
<polygon fill="white" stroke="black" points="94,-38.5 94,-57.5 138,-57.5 138,-38.5 94,-38.5"/>
<text text-anchor="middle" x="116" y="-45.5" font-family="Helvetica,sans-Serif" font-size="10.00">sprintf</text>
</a>
</g>
</g>
<!-- Node562&#45;&gt;Node563 -->
<g id="edge1" class="edge"><title>Node562&#45;&gt;Node563</title>
<path fill="none" stroke="midnightblue" d="M58.3038,-35.3267C66.5439,-37.1686 75.5885,-39.1904 83.9862,-41.0675"/>
<polygon fill="midnightblue" stroke="midnightblue" points="83.2885,-44.4979 93.8112,-43.2637 84.8156,-37.6664 83.2885,-44.4979"/>
</g>
<!-- Node564 -->
<g id="node3" class="node"><title>Node564</title>
<g id="a_node3"><a xlink:href="$a00026.html#a56d0f2cc40cd8633a784582d6200d8b5" xlink:title="errexit">
<polygon fill="white" stroke="black" points="94,-0.5 94,-19.5 138,-19.5 138,-0.5 94,-0.5"/>
<text text-anchor="middle" x="116" y="-7.5" font-family="Helvetica,sans-Serif" font-size="10.00">errexit</text>
</a>
</g>
</g>
<!-- Node562&#45;&gt;Node564 -->
<g id="edge2" class="edge"><title>Node562&#45;&gt;Node564</title>
<path fill="none" stroke="midnightblue" d="M58.3038,-22.6733C66.5439,-20.8314 75.5885,-18.8096 83.9862,-16.9325"/>
<polygon fill="midnightblue" stroke="midnightblue" points="84.8156,-20.3336 93.8112,-14.7363 83.2885,-13.5021 84.8156,-20.3336"/>
</g>
<!-- Node565 -->
<g id="node4" class="node"><title>Node565</title>
<g id="a_node4"><a xlink:href="$a01017.html#a2e311a777ffe9c80e405efa7cd2757be" xlink:title="fprintf">
<polygon fill="white" stroke="black" points="174,-0.5 174,-19.5 216,-19.5 216,-0.5 174,-0.5"/>
<text text-anchor="middle" x="195" y="-7.5" font-family="Helvetica,sans-Serif" font-size="10.00">fprintf</text>
</a>
</g>
</g>
<!-- Node564&#45;&gt;Node565 -->
<g id="edge3" class="edge"><title>Node564&#45;&gt;Node565</title>
<path fill="none" stroke="midnightblue" d="M138.041,-10C145.955,-10 155.118,-10 163.709,-10"/>
<polygon fill="midnightblue" stroke="midnightblue" points="163.782,-13.5001 173.782,-10 163.782,-6.5001 163.782,-13.5001"/>
</g>
</g>
</svg>
