<?xml version="1.0" encoding="UTF-8" standalone="no"?>
<!DOCTYPE svg PUBLIC "-//W3C//DTD SVG 1.1//EN"
 "http://www.w3.org/Graphics/SVG/1.1/DTD/svg11.dtd">
<!-- Generated by graphviz version 2.36.0 (20140111.2315)
 -->
<!-- Title: gk_GetCurMemoryUsed Pages: 1 -->
<svg width="868pt" height="1241pt"
 viewBox="0.00 0.00 868.00 1241.40" xmlns="http://www.w3.org/2000/svg" xmlns:xlink="http://www.w3.org/1999/xlink">
<g id="graph0" class="graph" transform="scale(1 1) rotate(0) translate(4 1237.4)">
<title>gk_GetCurMemoryUsed</title>
<polygon fill="white" stroke="none" points="-4,4 -4,-1237.4 864,-1237.4 864,4 -4,4"/>
<!-- Node803 -->
<g id="node1" class="node"><title>Node803</title>
<polygon fill="#bfbfbf" stroke="black" points="0,-646.5 0,-665.5 124,-665.5 124,-646.5 0,-646.5"/>
<text text-anchor="middle" x="62" y="-653.5" font-family="Helvetica,sans-Serif" font-size="10.00">gk_GetCurMemoryUsed</text>
</g>
<!-- Node804 -->
<g id="node2" class="node"><title>Node804</title>
<g id="a_node2"><a xlink:href="$a00846.html#ac00c3da2cf618cbfa9158463a851491e" xlink:title="ParMETIS_V3_AdaptiveRepart">
<polygon fill="white" stroke="black" points="160.5,-817.5 160.5,-836.5 315.5,-836.5 315.5,-817.5 160.5,-817.5"/>
<text text-anchor="middle" x="238" y="-824.5" font-family="Helvetica,sans-Serif" font-size="10.00">ParMETIS_V3_AdaptiveRepart</text>
</a>
</g>
</g>
<!-- Node803&#45;&gt;Node804 -->
<g id="edge1" class="edge"><title>Node803&#45;&gt;Node804</title>
<path fill="none" stroke="midnightblue" d="M69.8198,-675.332C82.356,-707.958 112.24,-773.733 160,-808 165.37,-811.853 171.433,-814.929 177.741,-817.384"/>
<polygon fill="midnightblue" stroke="midnightblue" points="72.9839,-673.797 66.2326,-665.632 66.4185,-676.225 72.9839,-673.797"/>
</g>
<!-- Node805 -->
<g id="node3" class="node"><title>Node805</title>
<g id="a_node3"><a xlink:href="$a00846.html#a6df93293cf3d1ccb4659bd1b3091623d" xlink:title="ParMETIS_V3_PartGeomKway">
<polygon fill="white" stroke="black" points="160,-779.5 160,-798.5 316,-798.5 316,-779.5 160,-779.5"/>
<text text-anchor="middle" x="238" y="-786.5" font-family="Helvetica,sans-Serif" font-size="10.00">ParMETIS_V3_PartGeomKway</text>
</a>
</g>
</g>
<!-- Node803&#45;&gt;Node805 -->
<g id="edge2" class="edge"><title>Node803&#45;&gt;Node805</title>
<path fill="none" stroke="midnightblue" d="M73.5105,-674.425C89.0494,-699.942 120.608,-745.639 160,-770 166.324,-773.911 173.406,-777.017 180.645,-779.484"/>
<polygon fill="midnightblue" stroke="midnightblue" points="76.4631,-672.542 68.3565,-665.721 70.4397,-676.109 76.4631,-672.542"/>
</g>
<!-- Node806 -->
<g id="node4" class="node"><title>Node806</title>
<g id="a_node4"><a xlink:href="$a00846.html#aab31b6450a3228063206eddded9de65e" xlink:title="ParMETIS_V3_PartGeom">
<polygon fill="white" stroke="black" points="172,-741.5 172,-760.5 304,-760.5 304,-741.5 172,-741.5"/>
<text text-anchor="middle" x="238" y="-748.5" font-family="Helvetica,sans-Serif" font-size="10.00">ParMETIS_V3_PartGeom</text>
</a>
</g>
</g>
<!-- Node803&#45;&gt;Node806 -->
<g id="edge3" class="edge"><title>Node803&#45;&gt;Node806</title>
<path fill="none" stroke="midnightblue" d="M79.6805,-672.747C97.8853,-690.084 128.644,-716.727 160,-732 167.922,-735.859 176.696,-738.976 185.4,-741.481"/>
<polygon fill="midnightblue" stroke="midnightblue" points="81.8506,-669.975 72.2424,-665.51 76.9693,-674.992 81.8506,-669.975"/>
</g>
<!-- Node807 -->
<g id="node5" class="node"><title>Node807</title>
<g id="a_node5"><a xlink:href="$a00846.html#a2ae9750ec09afdc4243b7cb7c5118666" xlink:title="ParMETIS_V3_PartMeshKway">
<polygon fill="white" stroke="black" points="161.5,-703.5 161.5,-722.5 314.5,-722.5 314.5,-703.5 161.5,-703.5"/>
<text text-anchor="middle" x="238" y="-710.5" font-family="Helvetica,sans-Serif" font-size="10.00">ParMETIS_V3_PartMeshKway</text>
</a>
</g>
</g>
<!-- Node803&#45;&gt;Node807 -->
<g id="edge4" class="edge"><title>Node803&#45;&gt;Node807</title>
<path fill="none" stroke="midnightblue" d="M94.3232,-669.482C113.141,-677.276 137.689,-686.911 160,-694 170.892,-697.461 182.815,-700.675 193.956,-703.438"/>
<polygon fill="midnightblue" stroke="midnightblue" points="95.6227,-666.232 85.0469,-665.597 92.9187,-672.688 95.6227,-666.232"/>
</g>
<!-- Node808 -->
<g id="node6" class="node"><title>Node808</title>
<g id="a_node6"><a xlink:href="$a00846.html#ad40a7809c9bdf183926da011220bad75" xlink:title="ParMETIS_V3_RefineKway">
<polygon fill="white" stroke="black" points="168.5,-665.5 168.5,-684.5 307.5,-684.5 307.5,-665.5 168.5,-665.5"/>
<text text-anchor="middle" x="238" y="-672.5" font-family="Helvetica,sans-Serif" font-size="10.00">ParMETIS_V3_RefineKway</text>
</a>
</g>
</g>
<!-- Node803&#45;&gt;Node808 -->
<g id="edge5" class="edge"><title>Node803&#45;&gt;Node808</title>
<path fill="none" stroke="midnightblue" d="M134.464,-663.804C145.613,-665.021 157.114,-666.277 168.202,-667.488"/>
<polygon fill="midnightblue" stroke="midnightblue" points="134.667,-660.305 124.346,-662.699 133.907,-667.264 134.667,-660.305"/>
</g>
<!-- Node809 -->
<g id="node7" class="node"><title>Node809</title>
<g id="a_node7"><a xlink:href="$a00110.html#aba6f76f5c67b9b7e9c2e45988d3d3e9d" xlink:title="gk_malloc">
<polygon fill="white" stroke="black" points="207,-589.5 207,-608.5 269,-608.5 269,-589.5 207,-589.5"/>
<text text-anchor="middle" x="238" y="-596.5" font-family="Helvetica,sans-Serif" font-size="10.00">gk_malloc</text>
</a>
</g>
</g>
<!-- Node803&#45;&gt;Node809 -->
<g id="edge6" class="edge"><title>Node803&#45;&gt;Node809</title>
<path fill="none" stroke="midnightblue" d="M94.3232,-642.518C113.141,-634.724 137.689,-625.089 160,-618 175.222,-613.163 192.459,-608.809 206.759,-605.493"/>
<polygon fill="midnightblue" stroke="midnightblue" points="92.9187,-639.312 85.0469,-646.403 95.6227,-645.768 92.9187,-639.312"/>
</g>
<!-- Node895 -->
<g id="node47" class="node"><title>Node895</title>
<g id="a_node47"><a xlink:href="$a00867.html#a702976a4c55992ddbfc1918ec1b70943" xlink:title="print_final_info">
<polygon fill="white" stroke="black" points="197,-627.5 197,-646.5 279,-646.5 279,-627.5 197,-627.5"/>
<text text-anchor="middle" x="238" y="-634.5" font-family="Helvetica,sans-Serif" font-size="10.00">print_final_info</text>
</a>
</g>
</g>
<!-- Node803&#45;&gt;Node895 -->
<g id="edge56" class="edge"><title>Node803&#45;&gt;Node895</title>
<path fill="none" stroke="midnightblue" d="M134.358,-648.208C155.682,-645.88 178.302,-643.41 196.864,-641.383"/>
<polygon fill="midnightblue" stroke="midnightblue" points="133.907,-644.736 124.346,-649.301 134.667,-651.695 133.907,-644.736"/>
</g>
<!-- Node896 -->
<g id="node48" class="node"><title>Node896</title>
<g id="a_node48"><a xlink:href="$a00846.html#af418d1e76eaf4f80116da4caf51bd54e" xlink:title="ParMETIS_V3_PartKway">
<polygon fill="white" stroke="black" points="173.5,-551.5 173.5,-570.5 302.5,-570.5 302.5,-551.5 173.5,-551.5"/>
<text text-anchor="middle" x="238" y="-558.5" font-family="Helvetica,sans-Serif" font-size="10.00">ParMETIS_V3_PartKway</text>
</a>
</g>
</g>
<!-- Node803&#45;&gt;Node896 -->
<g id="edge58" class="edge"><title>Node803&#45;&gt;Node896</title>
<path fill="none" stroke="midnightblue" d="M79.6805,-639.253C97.8853,-621.916 128.644,-595.273 160,-580 167.922,-576.141 176.696,-573.024 185.4,-570.519"/>
<polygon fill="midnightblue" stroke="midnightblue" points="76.9693,-637.008 72.2424,-646.49 81.8506,-642.025 76.9693,-637.008"/>
</g>
<!-- Node897 -->
<g id="node49" class="node"><title>Node897</title>
<g id="a_node49"><a xlink:href="$a00846.html#a2f9e316d7e0c46037cf231cd82cf9d97" xlink:title="ParMETIS_V3_Mesh2Dual">
<polygon fill="white" stroke="black" points="169.5,-513.5 169.5,-532.5 306.5,-532.5 306.5,-513.5 169.5,-513.5"/>
<text text-anchor="middle" x="238" y="-520.5" font-family="Helvetica,sans-Serif" font-size="10.00">ParMETIS_V3_Mesh2Dual</text>
</a>
</g>
</g>
<!-- Node803&#45;&gt;Node897 -->
<g id="edge59" class="edge"><title>Node803&#45;&gt;Node897</title>
<path fill="none" stroke="midnightblue" d="M73.5105,-637.575C89.0494,-612.058 120.608,-566.361 160,-542 166.324,-538.089 173.406,-534.983 180.645,-532.516"/>
<polygon fill="midnightblue" stroke="midnightblue" points="70.4397,-635.891 68.3565,-646.279 76.4631,-639.458 70.4397,-635.891"/>
</g>
<!-- Node850 -->
<g id="node50" class="node"><title>Node850</title>
<g id="a_node50"><a xlink:href="$a00311.html#a0ddf1224851353fc92bfbff6f499fa97" xlink:title="main">
<polygon fill="white" stroke="black" points="219,-475.5 219,-494.5 257,-494.5 257,-475.5 219,-475.5"/>
<text text-anchor="middle" x="238" y="-482.5" font-family="Helvetica,sans-Serif" font-size="10.00">main</text>
</a>
</g>
</g>
<!-- Node803&#45;&gt;Node850 -->
<g id="edge60" class="edge"><title>Node803&#45;&gt;Node850</title>
<path fill="none" stroke="midnightblue" d="M69.8198,-636.668C82.356,-604.042 112.24,-538.267 160,-504 177.452,-491.478 202.228,-487.162 218.92,-485.701"/>
<polygon fill="midnightblue" stroke="midnightblue" points="66.4185,-635.775 66.2326,-646.368 72.9839,-638.203 66.4185,-635.775"/>
</g>
<!-- Node810 -->
<g id="node8" class="node"><title>Node810</title>
<g id="a_node8"><a xlink:href="$a00954.html#aa24ead3c2c8fb3e58110f1f79453ce29" xlink:title="Balance_Partition">
<polygon fill="white" stroke="black" points="382.5,-988.5 382.5,-1007.5 477.5,-1007.5 477.5,-988.5 382.5,-988.5"/>
<text text-anchor="middle" x="430" y="-995.5" font-family="Helvetica,sans-Serif" font-size="10.00">Balance_Partition</text>
</a>
</g>
</g>
<!-- Node809&#45;&gt;Node810 -->
<g id="edge7" class="edge"><title>Node809&#45;&gt;Node810</title>
<path fill="none" stroke="midnightblue" d="M279.402,-599.889C292.929,-602.296 306.873,-607.47 316,-618 421.607,-739.843 246.393,-857.157 352,-979 359.756,-987.948 370.99,-993.028 382.491,-995.83"/>
<polygon fill="midnightblue" stroke="midnightblue" points="279.599,-596.385 269.227,-598.545 278.682,-603.325 279.599,-596.385"/>
</g>
<!-- Node811 -->
<g id="node9" class="node"><title>Node811</title>
<g id="a_node9"><a xlink:href="$a00954.html#a5a01a370c18ddee7517dbbf9e5827f89" xlink:title="Mc_Diffusion">
<polygon fill="white" stroke="black" points="393,-950.5 393,-969.5 467,-969.5 467,-950.5 393,-950.5"/>
<text text-anchor="middle" x="430" y="-957.5" font-family="Helvetica,sans-Serif" font-size="10.00">Mc_Diffusion</text>
</a>
</g>
</g>
<!-- Node809&#45;&gt;Node811 -->
<g id="edge8" class="edge"><title>Node809&#45;&gt;Node811</title>
<path fill="none" stroke="midnightblue" d="M279.335,-599.948C292.855,-602.361 306.812,-607.523 316,-618 411.238,-726.6 256.762,-832.4 352,-941 362.168,-952.594 378.177,-957.68 392.97,-959.734"/>
<polygon fill="midnightblue" stroke="midnightblue" points="279.542,-596.445 269.168,-598.596 278.62,-603.384 279.542,-596.445"/>
</g>
<!-- Node812 -->
<g id="node10" class="node"><title>Node812</title>
<g id="a_node10"><a xlink:href="$a00380.html#aec1a4bd83e832be7befbf6b03e9513ad" xlink:title="CreateMesh">
<polygon fill="white" stroke="black" points="394.5,-1026.5 394.5,-1045.5 465.5,-1045.5 465.5,-1026.5 394.5,-1026.5"/>
<text text-anchor="middle" x="430" y="-1033.5" font-family="Helvetica,sans-Serif" font-size="10.00">CreateMesh</text>
</a>
</g>
</g>
<!-- Node809&#45;&gt;Node812 -->
<g id="edge9" class="edge"><title>Node809&#45;&gt;Node812</title>
<path fill="none" stroke="midnightblue" d="M279.457,-599.842C292.989,-602.245 306.923,-607.427 316,-618 373.992,-685.548 294.008,-949.452 352,-1017 362.404,-1029.12 379.189,-1034.16 394.437,-1036.04"/>
<polygon fill="midnightblue" stroke="midnightblue" points="279.645,-596.337 269.274,-598.504 278.733,-603.278 279.645,-596.337"/>
</g>
<!-- Node814 -->
<g id="node12" class="node"><title>Node814</title>
<g id="a_node12"><a xlink:href="$a00954.html#afedcf14063f4d8678a3746a1152dd71c" xlink:title="AllocateNodePartitionParams">
<polygon fill="white" stroke="black" points="356.5,-874.5 356.5,-893.5 503.5,-893.5 503.5,-874.5 356.5,-874.5"/>
<text text-anchor="middle" x="430" y="-881.5" font-family="Helvetica,sans-Serif" font-size="10.00">AllocateNodePartitionParams</text>
</a>
</g>
</g>
<!-- Node809&#45;&gt;Node814 -->
<g id="edge11" class="edge"><title>Node809&#45;&gt;Node814</title>
<path fill="none" stroke="midnightblue" d="M279.143,-600.119C292.643,-602.55 306.637,-607.68 316,-618 390.542,-700.163 277.458,-782.837 352,-865 355.423,-868.773 359.465,-871.852 363.876,-874.36"/>
<polygon fill="midnightblue" stroke="midnightblue" points="279.38,-596.62 269.001,-598.746 278.44,-603.556 279.38,-596.62"/>
</g>
<!-- Node815 -->
<g id="node13" class="node"><title>Node815</title>
<g id="a_node13"><a xlink:href="$a00413.html#a82c7423dfb045f99c1ef26e9fd09976a" xlink:title="WavefrontDiffusion">
<polygon fill="white" stroke="black" points="379.5,-836.5 379.5,-855.5 480.5,-855.5 480.5,-836.5 379.5,-836.5"/>
<text text-anchor="middle" x="430" y="-843.5" font-family="Helvetica,sans-Serif" font-size="10.00">WavefrontDiffusion</text>
</a>
</g>
</g>
<!-- Node809&#45;&gt;Node815 -->
<g id="edge12" class="edge"><title>Node809&#45;&gt;Node815</title>
<path fill="none" stroke="midnightblue" d="M279.293,-600.333C292.678,-602.801 306.558,-607.901 316,-618 378.876,-685.253 291.177,-752.884 352,-822 359.123,-830.094 368.927,-835.49 379.155,-839.079"/>
<polygon fill="midnightblue" stroke="midnightblue" points="279.626,-596.845 269.236,-598.919 278.651,-603.777 279.626,-596.845"/>
</g>
<!-- Node816 -->
<g id="node14" class="node"><title>Node816</title>
<g id="a_node14"><a xlink:href="$a00077.html#a82b885bbed5bd18c26629c35ce5d37e4" xlink:title="gk_csr_Create">
<polygon fill="white" stroke="red" points="389,-912.5 389,-931.5 471,-931.5 471,-912.5 389,-912.5"/>
<text text-anchor="middle" x="430" y="-919.5" font-family="Helvetica,sans-Serif" font-size="10.00">gk_csr_Create</text>
</a>
</g>
</g>
<!-- Node809&#45;&gt;Node816 -->
<g id="edge13" class="edge"><title>Node809&#45;&gt;Node816</title>
<path fill="none" stroke="midnightblue" d="M279.252,-600.022C292.763,-602.442 306.736,-607.591 316,-618 400.881,-713.371 267.119,-807.629 352,-903 361.246,-913.388 375.181,-918.537 388.667,-920.963"/>
<polygon fill="midnightblue" stroke="midnightblue" points="279.472,-596.52 269.095,-598.661 278.542,-603.458 279.472,-596.52"/>
</g>
<!-- Node821 -->
<g id="node19" class="node"><title>Node821</title>
<g id="a_node19"><a xlink:href="$a00077.html#ac438fca404c3f1ff6989aa68f83ed241" xlink:title="gk_csr_Split">
<polygon fill="white" stroke="black" points="576.5,-798.5 576.5,-817.5 647.5,-817.5 647.5,-798.5 576.5,-798.5"/>
<text text-anchor="middle" x="612" y="-805.5" font-family="Helvetica,sans-Serif" font-size="10.00">gk_csr_Split</text>
</a>
</g>
</g>
<!-- Node809&#45;&gt;Node821 -->
<g id="edge22" class="edge"><title>Node809&#45;&gt;Node821</title>
<path fill="none" stroke="midnightblue" d="M279.111,-600.506C292.478,-602.991 306.394,-608.057 316,-618 369.965,-673.855 293.521,-737.89 352,-789 384.505,-817.409 513.309,-813.947 576.151,-810.4"/>
<polygon fill="midnightblue" stroke="midnightblue" points="279.472,-597.022 269.077,-599.07 278.48,-603.951 279.472,-597.022"/>
</g>
<!-- Node831 -->
<g id="node23" class="node"><title>Node831</title>
<g id="a_node23"><a xlink:href="$a00849.html#a0d092a371d797437de53ae1a64bd78f4" xlink:title="gk_graph_Create">
<polygon fill="white" stroke="red" points="383,-418.5 383,-437.5 477,-437.5 477,-418.5 383,-418.5"/>
<text text-anchor="middle" x="430" y="-425.5" font-family="Helvetica,sans-Serif" font-size="10.00">gk_graph_Create</text>
</a>
</g>
</g>
<!-- Node809&#45;&gt;Node831 -->
<g id="edge23" class="edge"><title>Node809&#45;&gt;Node831</title>
<path fill="none" stroke="midnightblue" d="M279.067,-597.073C292.304,-594.533 306.147,-589.541 316,-580 358.456,-538.892 310.801,-494.368 352,-452 360.297,-443.467 371.574,-437.955 382.936,-434.398"/>
<polygon fill="midnightblue" stroke="midnightblue" points="278.505,-593.618 269.14,-598.571 279.55,-600.539 278.505,-593.618"/>
</g>
<!-- Node837 -->
<g id="node24" class="node"><title>Node837</title>
<g id="a_node24"><a xlink:href="$a00954.html#a01903fa912de9fc7f01dace993a3fc85" xlink:title="CreateGraph">
<polygon fill="white" stroke="red" points="393,-380.5 393,-399.5 467,-399.5 467,-380.5 393,-380.5"/>
<text text-anchor="middle" x="430" y="-387.5" font-family="Helvetica,sans-Serif" font-size="10.00">CreateGraph</text>
</a>
</g>
</g>
<!-- Node809&#45;&gt;Node837 -->
<g id="edge24" class="edge"><title>Node809&#45;&gt;Node837</title>
<path fill="none" stroke="midnightblue" d="M279.111,-597.494C292.478,-595.009 306.394,-589.943 316,-580 369.965,-524.145 298.035,-464.855 352,-409 362.524,-398.107 378.22,-393.068 392.701,-390.862"/>
<polygon fill="midnightblue" stroke="midnightblue" points="278.48,-594.049 269.077,-598.93 279.472,-600.978 278.48,-594.049"/>
</g>
<!-- Node840 -->
<g id="node25" class="node"><title>Node840</title>
<g id="a_node25"><a xlink:href="$a00098.html#a8dc2b324b10c45883dacbf58ac0b7efd" xlink:title="HTable_Create">
<polygon fill="white" stroke="black" points="388,-342.5 388,-361.5 472,-361.5 472,-342.5 388,-342.5"/>
<text text-anchor="middle" x="430" y="-349.5" font-family="Helvetica,sans-Serif" font-size="10.00">HTable_Create</text>
</a>
</g>
</g>
<!-- Node809&#45;&gt;Node840 -->
<g id="edge25" class="edge"><title>Node809&#45;&gt;Node840</title>
<path fill="none" stroke="midnightblue" d="M279.316,-597.689C292.703,-595.222 306.579,-590.118 316,-580 380.23,-511.016 287.77,-439.984 352,-371 361.195,-361.124 374.634,-356.025 387.72,-353.493"/>
<polygon fill="midnightblue" stroke="midnightblue" points="278.673,-594.245 269.256,-599.1 279.646,-601.177 278.673,-594.245"/>
</g>
<!-- Node841 -->
<g id="node26" class="node"><title>Node841</title>
<g id="a_node26"><a xlink:href="$a00858.html#ad8263f64108434d7ebab9799b5ab9632" xlink:title="gk_getline">
<polygon fill="white" stroke="red" points="399,-760.5 399,-779.5 461,-779.5 461,-760.5 399,-760.5"/>
<text text-anchor="middle" x="430" y="-767.5" font-family="Helvetica,sans-Serif" font-size="10.00">gk_getline</text>
</a>
</g>
</g>
<!-- Node809&#45;&gt;Node841 -->
<g id="edge26" class="edge"><title>Node809&#45;&gt;Node841</title>
<path fill="none" stroke="midnightblue" d="M279.12,-600.873C292.361,-603.408 306.194,-608.411 316,-618 359.785,-660.814 308.215,-708.186 352,-751 364.306,-763.033 382.953,-767.845 398.814,-769.619"/>
<polygon fill="midnightblue" stroke="midnightblue" points="279.595,-597.405 269.186,-599.381 278.555,-604.328 279.595,-597.405"/>
</g>
<!-- Node842 -->
<g id="node27" class="node"><title>Node842</title>
<g id="a_node27"><a xlink:href="$a00858.html#ad13e689608e193482a6f30b1ade87814" xlink:title="gk_readfile">
<polygon fill="white" stroke="black" points="579.5,-684.5 579.5,-703.5 644.5,-703.5 644.5,-684.5 579.5,-684.5"/>
<text text-anchor="middle" x="612" y="-691.5" font-family="Helvetica,sans-Serif" font-size="10.00">gk_readfile</text>
</a>
</g>
</g>
<!-- Node809&#45;&gt;Node842 -->
<g id="edge29" class="edge"><title>Node809&#45;&gt;Node842</title>
<path fill="none" stroke="midnightblue" d="M279.241,-604.225C291.639,-607.04 304.928,-611.364 316,-618 336.515,-630.296 330.875,-646.785 352,-658 426.18,-697.381 528.405,-698.644 579.402,-696.316"/>
<polygon fill="midnightblue" stroke="midnightblue" points="279.598,-600.727 269.105,-602.198 278.225,-607.591 279.598,-600.727"/>
</g>
<!-- Node851 -->
<g id="node28" class="node"><title>Node851</title>
<g id="a_node28"><a xlink:href="$a00107.html#aba5df0f5155d88c0331fd6c996b483ed" xlink:title="gk_mcoreCreate">
<polygon fill="white" stroke="red" points="385,-304.5 385,-323.5 475,-323.5 475,-304.5 385,-304.5"/>
<text text-anchor="middle" x="430" y="-311.5" font-family="Helvetica,sans-Serif" font-size="10.00">gk_mcoreCreate</text>
</a>
</g>
</g>
<!-- Node809&#45;&gt;Node851 -->
<g id="edge30" class="edge"><title>Node809&#45;&gt;Node851</title>
<path fill="none" stroke="midnightblue" d="M279.143,-597.881C292.643,-595.45 306.637,-590.32 316,-580 390.542,-497.837 277.458,-415.163 352,-333 360.419,-323.72 372.582,-318.637 384.764,-315.939"/>
<polygon fill="midnightblue" stroke="midnightblue" points="278.44,-594.444 269.001,-599.254 279.38,-601.38 278.44,-594.444"/>
</g>
<!-- Node854 -->
<g id="node29" class="node"><title>Node854</title>
<g id="a_node29"><a xlink:href="$a00107.html#ab7a380f0696a0d5421653fad336bcae0" xlink:title="gk_mcoreMalloc">
<polygon fill="white" stroke="red" points="385.5,-266.5 385.5,-285.5 474.5,-285.5 474.5,-266.5 385.5,-266.5"/>
<text text-anchor="middle" x="430" y="-273.5" font-family="Helvetica,sans-Serif" font-size="10.00">gk_mcoreMalloc</text>
</a>
</g>
</g>
<!-- Node809&#45;&gt;Node854 -->
<g id="edge31" class="edge"><title>Node809&#45;&gt;Node854</title>
<path fill="none" stroke="midnightblue" d="M279.252,-597.978C292.763,-595.558 306.736,-590.409 316,-580 400.881,-484.629 267.119,-390.371 352,-295 360.513,-285.435 373.003,-280.312 385.457,-277.666"/>
<polygon fill="midnightblue" stroke="midnightblue" points="278.542,-594.542 269.095,-599.339 279.472,-601.48 278.542,-594.542"/>
</g>
<!-- Node860 -->
<g id="node30" class="node"><title>Node860</title>
<g id="a_node30"><a xlink:href="$a00110.html#af59ba46496f920cc424b8088f4cd7818" xlink:title="gk_AllocMatrix">
<polygon fill="white" stroke="black" points="389,-228.5 389,-247.5 471,-247.5 471,-228.5 389,-228.5"/>
<text text-anchor="middle" x="430" y="-235.5" font-family="Helvetica,sans-Serif" font-size="10.00">gk_AllocMatrix</text>
</a>
</g>
</g>
<!-- Node809&#45;&gt;Node860 -->
<g id="edge32" class="edge"><title>Node809&#45;&gt;Node860</title>
<path fill="none" stroke="midnightblue" d="M279.335,-598.052C292.855,-595.639 306.812,-590.477 316,-580 411.238,-471.4 256.762,-365.6 352,-257 361.26,-246.441 375.365,-241.28 388.984,-238.891"/>
<polygon fill="midnightblue" stroke="midnightblue" points="278.62,-594.616 269.168,-599.404 279.542,-601.555 278.62,-594.616"/>
</g>
<!-- Node861 -->
<g id="node31" class="node"><title>Node861</title>
<g id="a_node31"><a xlink:href="$a00125.html#a297ec0561d579a1772f424fce8886d96" xlink:title="Reads a pdb file into a pdbf structure. ">
<polygon fill="white" stroke="black" points="571,-627.5 571,-646.5 653,-646.5 653,-627.5 571,-627.5"/>
<text text-anchor="middle" x="612" y="-634.5" font-family="Helvetica,sans-Serif" font-size="10.00">gk_readpdbfile</text>
</a>
</g>
</g>
<!-- Node809&#45;&gt;Node861 -->
<g id="edge33" class="edge"><title>Node809&#45;&gt;Node861</title>
<path fill="none" stroke="midnightblue" d="M278.974,-606.91C291.059,-609.819 304.238,-613.522 316,-618 332.908,-624.437 334.439,-632.65 352,-637 427.508,-655.703 519.242,-649.128 570.789,-642.898"/>
<polygon fill="midnightblue" stroke="midnightblue" points="279.664,-603.477 269.135,-604.652 278.099,-610.3 279.664,-603.477"/>
</g>
<!-- Node862 -->
<g id="node32" class="node"><title>Node862</title>
<g id="a_node32"><a xlink:href="$a00867.html#a0e7ce196a2f8882777957bf898739f6f" xlink:title="parse_cmdline">
<polygon fill="white" stroke="black" points="571,-1152.5 571,-1171.5 653,-1171.5 653,-1152.5 571,-1152.5"/>
<text text-anchor="middle" x="612" y="-1159.5" font-family="Helvetica,sans-Serif" font-size="10.00">parse_cmdline</text>
</a>
</g>
</g>
<!-- Node809&#45;&gt;Node862 -->
<g id="edge34" class="edge"><title>Node809&#45;&gt;Node862</title>
<path fill="none" stroke="midnightblue" d="M279.582,-599.736C293.127,-602.127 307.037,-607.33 316,-618 391.216,-707.541 269.508,-1060.11 352,-1143 411.634,-1202.92 522.852,-1185.26 578.101,-1171.52"/>
<polygon fill="midnightblue" stroke="midnightblue" points="279.751,-596.229 269.383,-598.412 278.849,-603.17 279.751,-596.229"/>
</g>
<!-- Node863 -->
<g id="node33" class="node"><title>Node863</title>
<g id="a_node33"><a xlink:href="$a00137.html#a8b9f1e33d58df397a7f0f923a25ec256" xlink:title="This function creates the localizations for the various sequences. ">
<polygon fill="white" stroke="black" points="544.5,-494.5 544.5,-513.5 679.5,-513.5 679.5,-494.5 544.5,-494.5"/>
<text text-anchor="middle" x="612" y="-501.5" font-family="Helvetica,sans-Serif" font-size="10.00">gk_i2cc2i_create_common</text>
</a>
</g>
</g>
<!-- Node809&#45;&gt;Node863 -->
<g id="edge36" class="edge"><title>Node809&#45;&gt;Node863</title>
<path fill="none" stroke="midnightblue" d="M279.027,-592.038C291.212,-589.154 304.433,-585.227 316,-580 333.751,-571.978 334.063,-562.598 352,-555 414.243,-528.632 490.742,-515.719 544.406,-509.509"/>
<polygon fill="midnightblue" stroke="midnightblue" points="278.111,-588.656 269.095,-594.222 279.614,-595.493 278.111,-588.656"/>
</g>
<!-- Node864 -->
<g id="node34" class="node"><title>Node864</title>
<g id="a_node34"><a xlink:href="$a00137.html#ad44124c9b40b8ffda2276f877526a261" xlink:title="This function reads a pssm in the format of gkmod pssm. ">
<polygon fill="white" stroke="black" points="716,-494.5 716,-513.5 860,-513.5 860,-494.5 716,-494.5"/>
<text text-anchor="middle" x="788" y="-501.5" font-family="Helvetica,sans-Serif" font-size="10.00">gk_seq_ReadGKMODPSSM</text>
</a>
</g>
</g>
<!-- Node809&#45;&gt;Node864 -->
<g id="edge38" class="edge"><title>Node809&#45;&gt;Node864</title>
<path fill="none" stroke="midnightblue" d="M279.322,-595.567C292.074,-592.866 305.552,-588.157 316,-580 342.954,-558.955 324.006,-531.64 352,-512 479.221,-422.741 682.933,-471.791 758.004,-494.486"/>
<polygon fill="midnightblue" stroke="midnightblue" points="278.562,-592.147 269.322,-597.33 279.778,-599.04 278.562,-592.147"/>
</g>
<!-- Node865 -->
<g id="node35" class="node"><title>Node865</title>
<g id="a_node35"><a xlink:href="$a00143.html#af62038e97ca55f14ec2557a01bd85ca2" xlink:title="Duplicates a string. ">
<polygon fill="white" stroke="red" points="400,-608.5 400,-627.5 460,-627.5 460,-608.5 400,-608.5"/>
<text text-anchor="middle" x="430" y="-615.5" font-family="Helvetica,sans-Serif" font-size="10.00">gk_strdup</text>
</a>
</g>
</g>
<!-- Node809&#45;&gt;Node865 -->
<g id="edge39" class="edge"><title>Node809&#45;&gt;Node865</title>
<path fill="none" stroke="midnightblue" d="M279.318,-603.032C315.505,-606.65 367.741,-611.874 399.969,-615.097"/>
<polygon fill="midnightblue" stroke="midnightblue" points="279.405,-599.523 269.106,-602.011 278.708,-606.488 279.405,-599.523"/>
</g>
<!-- Node873 -->
<g id="node36" class="node"><title>Node873</title>
<g id="a_node36"><a xlink:href="$a00146.html#a0ddf1224851353fc92bfbff6f499fa97" xlink:title="main">
<polygon fill="white" stroke="black" points="593,-579.5 593,-598.5 631,-598.5 631,-579.5 593,-579.5"/>
<text text-anchor="middle" x="612" y="-586.5" font-family="Helvetica,sans-Serif" font-size="10.00">main</text>
</a>
</g>
</g>
<!-- Node809&#45;&gt;Node873 -->
<g id="edge45" class="edge"><title>Node809&#45;&gt;Node873</title>
<path fill="none" stroke="midnightblue" d="M279.314,-597.916C359.408,-595.763 535.762,-591.023 592.81,-589.489"/>
<polygon fill="midnightblue" stroke="midnightblue" points="279.03,-594.423 269.127,-598.19 279.218,-601.42 279.03,-594.423"/>
</g>
<!-- Node877 -->
<g id="node37" class="node"><title>Node877</title>
<g id="a_node37"><a xlink:href="$a00161.html#a551670b0d23e97d4655a827762c6bacd" xlink:title="gk_strtokenize">
<polygon fill="white" stroke="black" points="571.5,-532.5 571.5,-551.5 652.5,-551.5 652.5,-532.5 571.5,-532.5"/>
<text text-anchor="middle" x="612" y="-539.5" font-family="Helvetica,sans-Serif" font-size="10.00">gk_strtokenize</text>
</a>
</g>
</g>
<!-- Node809&#45;&gt;Node877 -->
<g id="edge46" class="edge"><title>Node809&#45;&gt;Node877</title>
<path fill="none" stroke="midnightblue" d="M279.129,-592.851C350.86,-581.86 500.222,-558.974 571.498,-548.053"/>
<polygon fill="midnightblue" stroke="midnightblue" points="278.482,-589.409 269.127,-594.384 279.542,-596.329 278.482,-589.409"/>
</g>
<!-- Node878 -->
<g id="node38" class="node"><title>Node878</title>
<g id="a_node38"><a xlink:href="$a00948.html#a681b2f4a615da39347c928c127760d07" xlink:title="FixGraph">
<polygon fill="white" stroke="black" points="401,-190.5 401,-209.5 459,-209.5 459,-190.5 401,-190.5"/>
<text text-anchor="middle" x="430" y="-197.5" font-family="Helvetica,sans-Serif" font-size="10.00">FixGraph</text>
</a>
</g>
</g>
<!-- Node809&#45;&gt;Node878 -->
<g id="edge47" class="edge"><title>Node809&#45;&gt;Node878</title>
<path fill="none" stroke="midnightblue" d="M279.402,-598.111C292.929,-595.704 306.873,-590.53 316,-580 421.607,-458.157 246.393,-340.843 352,-219 363.904,-205.266 384.004,-200.643 400.683,-199.388"/>
<polygon fill="midnightblue" stroke="midnightblue" points="278.682,-594.675 269.227,-599.455 279.599,-601.615 278.682,-594.675"/>
</g>
<!-- Node879 -->
<g id="node39" class="node"><title>Node879</title>
<g id="a_node39"><a xlink:href="$a00948.html#a5882ab0f565a5e97581ad5c4847effbc" xlink:title="GrowBisectionNode">
<polygon fill="white" stroke="red" points="377.5,-152.5 377.5,-171.5 482.5,-171.5 482.5,-152.5 377.5,-152.5"/>
<text text-anchor="middle" x="430" y="-159.5" font-family="Helvetica,sans-Serif" font-size="10.00">GrowBisectionNode</text>
</a>
</g>
</g>
<!-- Node809&#45;&gt;Node879 -->
<g id="edge48" class="edge"><title>Node809&#45;&gt;Node879</title>
<path fill="none" stroke="midnightblue" d="M279.457,-598.158C292.989,-595.755 306.923,-590.573 316,-580 373.992,-512.452 294.008,-248.548 352,-181 358.547,-173.374 367.622,-168.552 377.25,-165.555"/>
<polygon fill="midnightblue" stroke="midnightblue" points="278.733,-594.722 269.274,-599.496 279.645,-601.663 278.733,-594.722"/>
</g>
<!-- Node881 -->
<g id="node40" class="node"><title>Node881</title>
<g id="a_node40"><a xlink:href="$a00948.html#a3668b93d256689991e65a85536f533c5" xlink:title="GrowBisectionNode2">
<polygon fill="white" stroke="black" points="375,-114.5 375,-133.5 485,-133.5 485,-114.5 375,-114.5"/>
<text text-anchor="middle" x="430" y="-121.5" font-family="Helvetica,sans-Serif" font-size="10.00">GrowBisectionNode2</text>
</a>
</g>
</g>
<!-- Node809&#45;&gt;Node881 -->
<g id="edge49" class="edge"><title>Node809&#45;&gt;Node881</title>
<path fill="none" stroke="midnightblue" d="M279.502,-598.196C293.039,-595.798 306.964,-590.608 316,-580 379.184,-505.822 288.816,-217.178 352,-143 357.982,-135.977 366.107,-131.329 374.844,-128.293"/>
<polygon fill="midnightblue" stroke="midnightblue" points="278.775,-594.761 269.313,-599.529 279.683,-601.702 278.775,-594.761"/>
</g>
<!-- Node882 -->
<g id="node41" class="node"><title>Node882</title>
<g id="a_node41"><a xlink:href="$a00948.html#a22a23a687ef7ed0d4f66ab58e3a81d12" xlink:title="AllocateKWayPartitionMemory">
<polygon fill="white" stroke="red" points="354,-76.5 354,-95.5 506,-95.5 506,-76.5 354,-76.5"/>
<text text-anchor="middle" x="430" y="-83.5" font-family="Helvetica,sans-Serif" font-size="10.00">AllocateKWayPartitionMemory</text>
</a>
</g>
</g>
<!-- Node809&#45;&gt;Node882 -->
<g id="edge50" class="edge"><title>Node809&#45;&gt;Node882</title>
<path fill="none" stroke="midnightblue" d="M279.54,-598.229C293.081,-595.834 306.999,-590.638 316,-580 384.379,-499.189 283.621,-185.811 352,-105 355.202,-101.216 359.026,-98.1206 363.234,-95.5948"/>
<polygon fill="midnightblue" stroke="midnightblue" points="278.81,-594.794 269.347,-599.557 279.715,-601.735 278.81,-594.794"/>
</g>
<!-- Node885 -->
<g id="node42" class="node"><title>Node885</title>
<g id="a_node42"><a xlink:href="$a00954.html#ad1ea0dae24c2f47fd0813124bff0b66e" xlink:title="ComputePartitionParams">
<polygon fill="white" stroke="black" points="366,-38.5 366,-57.5 494,-57.5 494,-38.5 366,-38.5"/>
<text text-anchor="middle" x="430" y="-45.5" font-family="Helvetica,sans-Serif" font-size="10.00">ComputePartitionParams</text>
</a>
</g>
</g>
<!-- Node809&#45;&gt;Node885 -->
<g id="edge51" class="edge"><title>Node809&#45;&gt;Node885</title>
<path fill="none" stroke="midnightblue" d="M279.573,-598.256C293.117,-595.864 307.029,-590.663 316,-580 389.575,-492.554 278.425,-154.446 352,-67 355.812,-62.4696 360.516,-58.9251 365.704,-56.163"/>
<polygon fill="midnightblue" stroke="midnightblue" points="278.841,-594.822 269.375,-599.581 279.743,-601.763 278.841,-594.822"/>
</g>
<!-- Node886 -->
<g id="node43" class="node"><title>Node886</title>
<g id="a_node43"><a xlink:href="$a00948.html#a52a083cfb474124f22728e79cfba695f" xlink:title="SplitGraphOrderCC">
<polygon fill="white" stroke="red" points="378,-0.5 378,-19.5 482,-19.5 482,-0.5 378,-0.5"/>
<text text-anchor="middle" x="430" y="-7.5" font-family="Helvetica,sans-Serif" font-size="10.00">SplitGraphOrderCC</text>
</a>
</g>
</g>
<!-- Node809&#45;&gt;Node886 -->
<g id="edge52" class="edge"><title>Node809&#45;&gt;Node886</title>
<path fill="none" stroke="midnightblue" d="M279.281,-598.336C292.929,-595.972 306.984,-590.768 316,-580 394.773,-485.918 273.227,-123.082 352,-29 358.629,-21.0821 367.983,-16.1729 377.896,-13.1889"/>
<polygon fill="midnightblue" stroke="midnightblue" points="278.496,-594.907 269.014,-599.635 279.375,-601.852 278.496,-594.907"/>
</g>
<!-- Node890 -->
<g id="node44" class="node"><title>Node890</title>
<g id="a_node44"><a xlink:href="$a00948.html#a1420c4ffbe28e4c3349678037adcb918" xlink:title="SetupCtrl">
<polygon fill="white" stroke="black" points="401,-1114.5 401,-1133.5 459,-1133.5 459,-1114.5 401,-1114.5"/>
<text text-anchor="middle" x="430" y="-1121.5" font-family="Helvetica,sans-Serif" font-size="10.00">SetupCtrl</text>
</a>
</g>
</g>
<!-- Node809&#45;&gt;Node890 -->
<g id="edge53" class="edge"><title>Node809&#45;&gt;Node890</title>
<path fill="none" stroke="midnightblue" d="M279.55,-599.763C293.092,-602.157 307.008,-607.355 316,-618 385.883,-700.731 282.623,-1020.84 352,-1104 363.768,-1118.11 384.091,-1122.95 400.905,-1124.35"/>
<polygon fill="midnightblue" stroke="midnightblue" points="279.724,-596.256 269.355,-598.435 278.82,-603.197 279.724,-596.256"/>
</g>
<!-- Node891 -->
<g id="node45" class="node"><title>Node891</title>
<g id="a_node45"><a xlink:href="$a00278.html#a843a5692564dc695b281647dc690c887" xlink:title="Allocate2WayNodePartition\lMemory">
<polygon fill="white" stroke="red" points="361,-1065 361,-1095 499,-1095 499,-1065 361,-1065"/>
<text text-anchor="start" x="369" y="-1083" font-family="Helvetica,sans-Serif" font-size="10.00">Allocate2WayNodePartition</text>
<text text-anchor="middle" x="430" y="-1072" font-family="Helvetica,sans-Serif" font-size="10.00">Memory</text>
</a>
</g>
</g>
<!-- Node809&#45;&gt;Node891 -->
<g id="edge54" class="edge"><title>Node809&#45;&gt;Node891</title>
<path fill="none" stroke="midnightblue" d="M279.502,-599.804C293.039,-602.202 306.964,-607.392 316,-618 379.184,-692.178 291.527,-978.596 352,-1055 355.053,-1058.86 358.71,-1062.13 362.75,-1064.9"/>
<polygon fill="midnightblue" stroke="midnightblue" points="279.683,-596.298 269.313,-598.471 278.775,-603.239 279.683,-596.298"/>
</g>
<!-- Node894 -->
<g id="node46" class="node"><title>Node894</title>
<g id="a_node46"><a xlink:href="$a00954.html#a2b337cc68be55b7e8b6d2218fcea855d" xlink:title="AllocateRefinementWorkSpace">
<polygon fill="white" stroke="black" points="352.5,-722.5 352.5,-741.5 507.5,-741.5 507.5,-722.5 352.5,-722.5"/>
<text text-anchor="middle" x="430" y="-729.5" font-family="Helvetica,sans-Serif" font-size="10.00">AllocateRefinementWorkSpace</text>
</a>
</g>
</g>
<!-- Node809&#45;&gt;Node894 -->
<g id="edge55" class="edge"><title>Node809&#45;&gt;Node894</title>
<path fill="none" stroke="midnightblue" d="M279.217,-601.669C292.195,-604.297 305.837,-609.156 316,-618 348.499,-646.281 320.367,-678.754 352,-708 358.889,-714.369 367.446,-719.048 376.326,-722.485"/>
<polygon fill="midnightblue" stroke="midnightblue" points="279.464,-598.163 269.031,-600.006 278.336,-605.071 279.464,-598.163"/>
</g>
<!-- Node813 -->
<g id="node11" class="node"><title>Node813</title>
<g id="a_node11"><a xlink:href="$a00954.html#a9f9b575b1270719a1d7ae34f89ed2dc5" xlink:title="SetUpMesh">
<polygon fill="white" stroke="black" points="577.5,-1026.5 577.5,-1045.5 646.5,-1045.5 646.5,-1026.5 577.5,-1026.5"/>
<text text-anchor="middle" x="612" y="-1033.5" font-family="Helvetica,sans-Serif" font-size="10.00">SetUpMesh</text>
</a>
</g>
</g>
<!-- Node812&#45;&gt;Node813 -->
<g id="edge10" class="edge"><title>Node812&#45;&gt;Node813</title>
<path fill="none" stroke="midnightblue" d="M475.955,-1036C507.388,-1036 548.7,-1036 577.315,-1036"/>
<polygon fill="midnightblue" stroke="midnightblue" points="475.706,-1032.5 465.706,-1036 475.706,-1039.5 475.706,-1032.5"/>
</g>
<!-- Node817 -->
<g id="node15" class="node"><title>Node817</title>
<g id="a_node15"><a xlink:href="$a00077.html#a24144cf4c30d5ec4ed8b488d371476b3" xlink:title="gk_csr_Dup">
<polygon fill="white" stroke="black" points="577,-912.5 577,-931.5 647,-931.5 647,-912.5 577,-912.5"/>
<text text-anchor="middle" x="612" y="-919.5" font-family="Helvetica,sans-Serif" font-size="10.00">gk_csr_Dup</text>
</a>
</g>
</g>
<!-- Node816&#45;&gt;Node817 -->
<g id="edge14" class="edge"><title>Node816&#45;&gt;Node817</title>
<path fill="none" stroke="midnightblue" d="M481.403,-922C511.843,-922 549.832,-922 576.791,-922"/>
<polygon fill="midnightblue" stroke="midnightblue" points="481.396,-918.5 471.396,-922 481.395,-925.5 481.396,-918.5"/>
</g>
<!-- Node818 -->
<g id="node16" class="node"><title>Node818</title>
<g id="a_node16"><a xlink:href="$a00077.html#a0b106b838c4dc370c32a47aaaf990375" xlink:title="gk_csr_ExtractSubmatrix">
<polygon fill="white" stroke="black" points="548,-874.5 548,-893.5 676,-893.5 676,-874.5 548,-874.5"/>
<text text-anchor="middle" x="612" y="-881.5" font-family="Helvetica,sans-Serif" font-size="10.00">gk_csr_ExtractSubmatrix</text>
</a>
</g>
</g>
<!-- Node816&#45;&gt;Node818 -->
<g id="edge15" class="edge"><title>Node816&#45;&gt;Node818</title>
<path fill="none" stroke="midnightblue" d="M481.277,-911.386C507.865,-905.773 540.241,-898.938 565.997,-893.501"/>
<polygon fill="midnightblue" stroke="midnightblue" points="480.457,-907.982 471.396,-913.472 481.903,-914.831 480.457,-907.982"/>
</g>
<!-- Node819 -->
<g id="node17" class="node"><title>Node819</title>
<g id="a_node17"><a xlink:href="$a00077.html#aaa2391cce5eb8291e65f6dc4d8e252fd" xlink:title="gk_csr_ExtractRows">
<polygon fill="white" stroke="black" points="558,-836.5 558,-855.5 666,-855.5 666,-836.5 558,-836.5"/>
<text text-anchor="middle" x="612" y="-843.5" font-family="Helvetica,sans-Serif" font-size="10.00">gk_csr_ExtractRows</text>
</a>
</g>
</g>
<!-- Node816&#45;&gt;Node819 -->
<g id="edge16" class="edge"><title>Node816&#45;&gt;Node819</title>
<path fill="none" stroke="midnightblue" d="M480.78,-914.137C490.202,-911.442 499.698,-907.833 508,-903 528.106,-891.296 524.098,-877.048 544,-865 550.413,-861.118 557.649,-858.002 564.934,-855.508"/>
<polygon fill="midnightblue" stroke="midnightblue" points="479.863,-910.759 471.041,-916.626 481.596,-917.541 479.863,-910.759"/>
</g>
<!-- Node820 -->
<g id="node18" class="node"><title>Node820</title>
<g id="a_node18"><a xlink:href="$a00077.html#ac59047c4a89fa4680d746fcdce4aa1a7" xlink:title="gk_csr_ExtractPartition">
<polygon fill="white" stroke="black" points="552.5,-988.5 552.5,-1007.5 671.5,-1007.5 671.5,-988.5 552.5,-988.5"/>
<text text-anchor="middle" x="612" y="-995.5" font-family="Helvetica,sans-Serif" font-size="10.00">gk_csr_ExtractPartition</text>
</a>
</g>
</g>
<!-- Node816&#45;&gt;Node820 -->
<g id="edge17" class="edge"><title>Node816&#45;&gt;Node820</title>
<path fill="none" stroke="midnightblue" d="M480.78,-929.863C490.202,-932.558 499.698,-936.167 508,-941 528.106,-952.704 524.098,-966.952 544,-979 550.413,-982.882 557.649,-985.998 564.934,-988.492"/>
<polygon fill="midnightblue" stroke="midnightblue" points="481.596,-926.459 471.041,-927.374 479.863,-933.241 481.596,-926.459"/>
</g>
<!-- Node816&#45;&gt;Node821 -->
<g id="edge18" class="edge"><title>Node816&#45;&gt;Node821</title>
<path fill="none" stroke="midnightblue" d="M480.956,-916.475C490.677,-913.609 500.244,-909.339 508,-903 536.94,-879.348 515.471,-851.146 544,-827 553.044,-819.345 564.983,-814.767 576.274,-812.031"/>
<polygon fill="midnightblue" stroke="midnightblue" points="480.101,-913.081 471.245,-918.897 481.795,-919.873 480.101,-913.081"/>
</g>
<!-- Node822 -->
<g id="node20" class="node"><title>Node822</title>
<g id="a_node20"><a xlink:href="$a00077.html#a8ebc19fe9a291bdf67677ebdaae56592" xlink:title="gk_csr_Read">
<polygon fill="white" stroke="black" points="574.5,-760.5 574.5,-779.5 649.5,-779.5 649.5,-760.5 574.5,-760.5"/>
<text text-anchor="middle" x="612" y="-767.5" font-family="Helvetica,sans-Serif" font-size="10.00">gk_csr_Read</text>
</a>
</g>
</g>
<!-- Node816&#45;&gt;Node822 -->
<g id="edge19" class="edge"><title>Node816&#45;&gt;Node822</title>
<path fill="none" stroke="midnightblue" d="M481.05,-917.444C490.935,-914.53 500.543,-909.994 508,-903 546.753,-866.65 505.878,-826.011 544,-789 552.154,-781.083 563.354,-776.419 574.262,-773.685"/>
<polygon fill="midnightblue" stroke="midnightblue" points="480.034,-914.089 471.142,-919.849 481.686,-920.891 480.034,-914.089"/>
</g>
<!-- Node824 -->
<g id="node22" class="node"><title>Node824</title>
<g id="a_node22"><a xlink:href="$a00077.html#a06edc174c5986841b589900ffce6600f" xlink:title="gk_csr_Prune">
<polygon fill="white" stroke="black" points="573,-950.5 573,-969.5 651,-969.5 651,-950.5 573,-950.5"/>
<text text-anchor="middle" x="612" y="-957.5" font-family="Helvetica,sans-Serif" font-size="10.00">gk_csr_Prune</text>
</a>
</g>
</g>
<!-- Node816&#45;&gt;Node824 -->
<g id="edge21" class="edge"><title>Node816&#45;&gt;Node824</title>
<path fill="none" stroke="midnightblue" d="M481.344,-932.628C510.355,-938.753 546.238,-946.328 572.895,-951.956"/>
<polygon fill="midnightblue" stroke="midnightblue" points="481.903,-929.169 471.396,-930.528 480.457,-936.018 481.903,-929.169"/>
</g>
<!-- Node823 -->
<g id="node21" class="node"><title>Node823</title>
<g id="a_node21"><a xlink:href="$a00867.html#a0ddf1224851353fc92bfbff6f499fa97" xlink:title="main">
<polygon fill="white" stroke="black" points="769,-1152.5 769,-1171.5 807,-1171.5 807,-1152.5 769,-1152.5"/>
<text text-anchor="middle" x="788" y="-1159.5" font-family="Helvetica,sans-Serif" font-size="10.00">main</text>
</a>
</g>
</g>
<!-- Node822&#45;&gt;Node823 -->
<g id="edge20" class="edge"><title>Node822&#45;&gt;Node823</title>
<path fill="none" stroke="midnightblue" d="M659.324,-776.45C666.984,-779.278 674.281,-783.298 680,-789 787.823,-896.496 788.662,-1104.89 787.378,-1152.26"/>
<polygon fill="midnightblue" stroke="midnightblue" points="660.102,-773.029 649.516,-773.47 658.066,-779.727 660.102,-773.029"/>
</g>
<!-- Node841&#45;&gt;Node822 -->
<g id="edge27" class="edge"><title>Node841&#45;&gt;Node822</title>
<path fill="none" stroke="midnightblue" d="M471.521,-770C502.337,-770 544.383,-770 574.233,-770"/>
<polygon fill="midnightblue" stroke="midnightblue" points="471.128,-766.5 461.128,-770 471.128,-773.5 471.128,-766.5"/>
</g>
<!-- Node841&#45;&gt;Node842 -->
<g id="edge28" class="edge"><title>Node841&#45;&gt;Node842</title>
<path fill="none" stroke="midnightblue" d="M471.029,-762.235C483.116,-759.33 496.283,-755.594 508,-751 541.297,-737.944 577.203,-716.102 596.591,-703.587"/>
<polygon fill="midnightblue" stroke="midnightblue" points="470.157,-758.844 461.186,-764.48 471.714,-765.668 470.157,-758.844"/>
</g>
<!-- Node862&#45;&gt;Node823 -->
<g id="edge35" class="edge"><title>Node862&#45;&gt;Node823</title>
<path fill="none" stroke="midnightblue" d="M663.496,-1162C698.801,-1162 743.903,-1162 768.667,-1162"/>
<polygon fill="midnightblue" stroke="midnightblue" points="663.356,-1158.5 653.356,-1162 663.356,-1165.5 663.356,-1158.5"/>
</g>
<!-- Node863&#45;&gt;Node864 -->
<g id="edge37" class="edge"><title>Node863&#45;&gt;Node864</title>
<path fill="none" stroke="midnightblue" d="M689.825,-504C698.457,-504 707.224,-504 715.78,-504"/>
<polygon fill="midnightblue" stroke="midnightblue" points="689.775,-500.5 679.775,-504 689.775,-507.5 689.775,-500.5"/>
</g>
<!-- Node865&#45;&gt;Node842 -->
<g id="edge40" class="edge"><title>Node865&#45;&gt;Node842</title>
<path fill="none" stroke="midnightblue" d="M463.367,-631.666C499.442,-646.898 556.84,-671.133 588.388,-684.453"/>
<polygon fill="midnightblue" stroke="midnightblue" points="464.371,-628.291 453.797,-627.625 461.648,-634.74 464.371,-628.291"/>
</g>
<!-- Node865&#45;&gt;Node861 -->
<g id="edge41" class="edge"><title>Node865&#45;&gt;Node861</title>
<path fill="none" stroke="midnightblue" d="M470.369,-622.156C500.173,-625.302 540.958,-629.607 570.932,-632.771"/>
<polygon fill="midnightblue" stroke="midnightblue" points="470.633,-618.664 460.321,-621.095 469.898,-625.625 470.633,-618.664"/>
</g>
<!-- Node865&#45;&gt;Node873 -->
<g id="edge42" class="edge"><title>Node865&#45;&gt;Node873</title>
<path fill="none" stroke="midnightblue" d="M470.522,-611.633C508.487,-605.516 564.163,-596.546 592.682,-591.951"/>
<polygon fill="midnightblue" stroke="midnightblue" points="469.637,-608.23 460.321,-613.276 470.75,-615.141 469.637,-608.23"/>
</g>
<!-- Node865&#45;&gt;Node877 -->
<g id="edge43" class="edge"><title>Node865&#45;&gt;Node877</title>
<path fill="none" stroke="midnightblue" d="M462.943,-604.373C485.562,-594.737 516.624,-581.535 544,-570 558.638,-563.832 575.098,-556.953 588.039,-551.557"/>
<polygon fill="midnightblue" stroke="midnightblue" points="461.323,-601.259 453.495,-608.399 464.067,-607.698 461.323,-601.259"/>
</g>
<!-- Node877&#45;&gt;Node864 -->
<g id="edge44" class="edge"><title>Node877&#45;&gt;Node864</title>
<path fill="none" stroke="midnightblue" d="M662.737,-531.138C688.154,-525.587 718.801,-518.894 743.3,-513.544"/>
<polygon fill="midnightblue" stroke="midnightblue" points="661.942,-527.729 652.919,-533.282 663.436,-534.568 661.942,-527.729"/>
</g>
<!-- Node895&#45;&gt;Node823 -->
<g id="edge57" class="edge"><title>Node895&#45;&gt;Node823</title>
<path fill="none" stroke="midnightblue" d="M289.17,-639.938C299.421,-642.892 309.153,-647.852 316,-656 390.806,-745.017 267.622,-1098 352,-1178 471.553,-1291.35 702.936,-1200.05 768.994,-1170.45"/>
<polygon fill="midnightblue" stroke="midnightblue" points="289.787,-636.489 279.26,-637.682 288.233,-643.315 289.787,-636.489"/>
</g>
</g>
</svg>
