<?xml version="1.0" encoding="UTF-8" standalone="no"?>
<!DOCTYPE svg PUBLIC "-//W3C//DTD SVG 1.1//EN"
 "http://www.w3.org/Graphics/SVG/1.1/DTD/svg11.dtd">
<!-- Generated by graphviz version 2.36.0 (20140111.2315)
 -->
<!-- Title: gk_siguntrap Pages: 1 -->
<svg width="990pt" height="522pt"
 viewBox="0.00 0.00 990.00 522.00" xmlns="http://www.w3.org/2000/svg" xmlns:xlink="http://www.w3.org/1999/xlink">
<g id="graph0" class="graph" transform="scale(1 1) rotate(0) translate(4 518)">
<title>gk_siguntrap</title>
<polygon fill="white" stroke="none" points="-4,4 -4,-518 986,-518 986,4 -4,4"/>
<!-- Node232 -->
<g id="node1" class="node"><title>Node232</title>
<polygon fill="#bfbfbf" stroke="black" points="0,-152.5 0,-171.5 74,-171.5 74,-152.5 0,-152.5"/>
<text text-anchor="middle" x="37" y="-159.5" font-family="Helvetica,sans-Serif" font-size="10.00">gk_siguntrap</text>
</g>
<!-- Node233 -->
<g id="node2" class="node"><title>Node233</title>
<g id="a_node2"><a xlink:href="$a00912.html#af89851458c047aba436b36ed567441e4" xlink:title="METIS_PartGraphKway">
<polygon fill="white" stroke="black" points="592.5,-380.5 592.5,-399.5 715.5,-399.5 715.5,-380.5 592.5,-380.5"/>
<text text-anchor="middle" x="654" y="-387.5" font-family="Helvetica,sans-Serif" font-size="10.00">METIS_PartGraphKway</text>
</a>
</g>
</g>
<!-- Node232&#45;&gt;Node233 -->
<g id="edge1" class="edge"><title>Node232&#45;&gt;Node233</title>
<path fill="none" stroke="midnightblue" d="M41.2222,-181.387C47.9584,-216.176 66.6551,-289.612 110,-333 171.374,-394.435 204.888,-391.768 290,-409 405.871,-432.459 438.33,-420.416 556,-409 575.13,-407.144 596.087,-403.275 613.612,-399.51"/>
<polygon fill="midnightblue" stroke="midnightblue" points="44.6644,-180.753 39.4393,-171.536 37.7764,-182 44.6644,-180.753"/>
</g>
<!-- Node239 -->
<g id="node8" class="node"><title>Node239</title>
<g id="a_node8"><a xlink:href="$a00236.html#ade1e7e23ad687989a6343b4fb8d61ba7" xlink:title="METIS_PartMeshNodal">
<polygon fill="white" stroke="black" points="769,-228.5 769,-247.5 891,-247.5 891,-228.5 769,-228.5"/>
<text text-anchor="middle" x="830" y="-235.5" font-family="Helvetica,sans-Serif" font-size="10.00">METIS_PartMeshNodal</text>
</a>
</g>
</g>
<!-- Node232&#45;&gt;Node239 -->
<g id="edge18" class="edge"><title>Node232&#45;&gt;Node239</title>
<path fill="none" stroke="midnightblue" d="M79.0359,-174.166C89.0879,-176.774 99.8699,-179.264 110,-181 212.407,-198.546 239.101,-200 343,-200 343,-200 343,-200 496,-200 596.228,-200 712.338,-217.204 777.581,-228.46"/>
<polygon fill="midnightblue" stroke="midnightblue" points="79.8442,-170.759 69.2783,-171.542 78.0261,-177.519 79.8442,-170.759"/>
</g>
<!-- Node241 -->
<g id="node10" class="node"><title>Node241</title>
<g id="a_node10"><a xlink:href="$a00236.html#a8f496ac1cd2246b124da246b5c6f9193" xlink:title="METIS_PartMeshDual">
<polygon fill="white" stroke="black" points="772,-190.5 772,-209.5 888,-209.5 888,-190.5 772,-190.5"/>
<text text-anchor="middle" x="830" y="-197.5" font-family="Helvetica,sans-Serif" font-size="10.00">METIS_PartMeshDual</text>
</a>
</g>
</g>
<!-- Node232&#45;&gt;Node241 -->
<g id="edge19" class="edge"><title>Node232&#45;&gt;Node241</title>
<path fill="none" stroke="midnightblue" d="M54.5576,-145.431C68.2958,-132.59 88.9281,-115.303 110,-105 205.773,-58.1702 236.391,-48 343,-48 343,-48 343,-48 496,-48 597.586,-48 625.597,-63.6639 716,-110 759.076,-132.079 801.428,-172.02 819.664,-190.342"/>
<polygon fill="midnightblue" stroke="midnightblue" points="52.0999,-142.938 47.3142,-152.391 56.95,-147.986 52.0999,-142.938"/>
</g>
<!-- Node243 -->
<g id="node12" class="node"><title>Node243</title>
<g id="a_node12"><a xlink:href="$a00930.html#a2cf4672355fcfed039c04a2d1d134136" xlink:title="METIS_MeshToDual">
<polygon fill="white" stroke="black" points="127.5,-114.5 127.5,-133.5 236.5,-133.5 236.5,-114.5 127.5,-114.5"/>
<text text-anchor="middle" x="182" y="-121.5" font-family="Helvetica,sans-Serif" font-size="10.00">METIS_MeshToDual</text>
</a>
</g>
</g>
<!-- Node232&#45;&gt;Node243 -->
<g id="edge12" class="edge"><title>Node232&#45;&gt;Node243</title>
<path fill="none" stroke="midnightblue" d="M83.8133,-149.826C103.587,-144.571 126.384,-138.513 144.927,-133.586"/>
<polygon fill="midnightblue" stroke="midnightblue" points="82.8506,-146.46 74.0849,-152.411 84.6484,-153.225 82.8506,-146.46"/>
</g>
<!-- Node245 -->
<g id="node14" class="node"><title>Node245</title>
<g id="a_node14"><a xlink:href="$a00930.html#ae9390485cd2d3654742f779a7188c125" xlink:title="METIS_MeshToNodal">
<polygon fill="white" stroke="black" points="124.5,-152.5 124.5,-171.5 239.5,-171.5 239.5,-152.5 124.5,-152.5"/>
<text text-anchor="middle" x="182" y="-159.5" font-family="Helvetica,sans-Serif" font-size="10.00">METIS_MeshToNodal</text>
</a>
</g>
</g>
<!-- Node232&#45;&gt;Node245 -->
<g id="edge15" class="edge"><title>Node232&#45;&gt;Node245</title>
<path fill="none" stroke="midnightblue" d="M84.445,-162C97.1678,-162 111.102,-162 124.329,-162"/>
<polygon fill="midnightblue" stroke="midnightblue" points="84.085,-158.5 74.0849,-162 84.0849,-165.5 84.085,-158.5"/>
</g>
<!-- Node246 -->
<g id="node15" class="node"><title>Node246</title>
<g id="a_node15"><a xlink:href="$a00936.html#a8304f0dd6d180587f73b0b70de3b01b7" xlink:title="METIS_NodeND">
<polygon fill="white" stroke="black" points="136.5,-0.5 136.5,-19.5 227.5,-19.5 227.5,-0.5 136.5,-0.5"/>
<text text-anchor="middle" x="182" y="-7.5" font-family="Helvetica,sans-Serif" font-size="10.00">METIS_NodeND</text>
</a>
</g>
</g>
<!-- Node232&#45;&gt;Node246 -->
<g id="edge20" class="edge"><title>Node232&#45;&gt;Node246</title>
<path fill="none" stroke="midnightblue" d="M43.9127,-142.643C53.4041,-114.726 74.6501,-63.3058 110,-34 117.613,-27.6887 126.963,-23.0096 136.348,-19.5496"/>
<polygon fill="midnightblue" stroke="midnightblue" points="40.5006,-141.819 40.7488,-152.411 47.16,-143.976 40.5006,-141.819"/>
</g>
<!-- Node248 -->
<g id="node17" class="node"><title>Node248</title>
<g id="a_node17"><a xlink:href="$a00260.html#a25fc90fd934931239b3c98ac4bdbce76" xlink:title="Recursive partitioning routine. ">
<polygon fill="white" stroke="black" points="110.5,-304.5 110.5,-323.5 253.5,-323.5 253.5,-304.5 110.5,-304.5"/>
<text text-anchor="middle" x="182" y="-311.5" font-family="Helvetica,sans-Serif" font-size="10.00">METIS_PartGraphRecursive</text>
</a>
</g>
</g>
<!-- Node232&#45;&gt;Node248 -->
<g id="edge22" class="edge"><title>Node232&#45;&gt;Node248</title>
<path fill="none" stroke="midnightblue" d="M53.7987,-178.793C83.857,-210.743 148.387,-279.335 172.058,-304.495"/>
<polygon fill="midnightblue" stroke="midnightblue" points="56.3467,-176.393 46.9453,-171.508 51.2483,-181.19 56.3467,-176.393"/>
</g>
<!-- Node234 -->
<g id="node3" class="node"><title>Node234</title>
<g id="a_node3"><a xlink:href="$a00846.html#a6df93293cf3d1ccb4659bd1b3091623d" xlink:title="ParMETIS_V3_PartGeomKway">
<polygon fill="white" stroke="black" points="752,-456.5 752,-475.5 908,-475.5 908,-456.5 752,-456.5"/>
<text text-anchor="middle" x="830" y="-463.5" font-family="Helvetica,sans-Serif" font-size="10.00">ParMETIS_V3_PartGeomKway</text>
</a>
</g>
</g>
<!-- Node233&#45;&gt;Node234 -->
<g id="edge2" class="edge"><title>Node233&#45;&gt;Node234</title>
<path fill="none" stroke="midnightblue" d="M695.179,-403.366C702.341,-406.424 709.563,-409.979 716,-414 734.408,-425.5 732.869,-436.748 752,-447 759.16,-450.837 767.11,-453.915 775.105,-456.379"/>
<polygon fill="midnightblue" stroke="midnightblue" points="696.113,-399.97 685.529,-399.506 693.513,-406.469 696.113,-399.97"/>
</g>
<!-- Node235 -->
<g id="node4" class="node"><title>Node235</title>
<g id="a_node4"><a xlink:href="$a00954.html#aa24ead3c2c8fb3e58110f1f79453ce29" xlink:title="Balance_Partition">
<polygon fill="white" stroke="black" points="782.5,-342.5 782.5,-361.5 877.5,-361.5 877.5,-342.5 782.5,-342.5"/>
<text text-anchor="middle" x="830" y="-349.5" font-family="Helvetica,sans-Serif" font-size="10.00">Balance_Partition</text>
</a>
</g>
</g>
<!-- Node233&#45;&gt;Node235 -->
<g id="edge3" class="edge"><title>Node233&#45;&gt;Node235</title>
<path fill="none" stroke="midnightblue" d="M708.814,-378.247C733.418,-372.874 762.187,-366.591 785.408,-361.52"/>
<polygon fill="midnightblue" stroke="midnightblue" points="707.93,-374.858 698.908,-380.411 709.424,-381.697 707.93,-374.858"/>
</g>
<!-- Node236 -->
<g id="node5" class="node"><title>Node236</title>
<g id="a_node5"><a xlink:href="$a00416.html#af4fae82dc1fc688ae704c61e647d33e4" xlink:title="PartitionSmallGraph">
<polygon fill="white" stroke="black" points="777,-418.5 777,-437.5 883,-437.5 883,-418.5 777,-418.5"/>
<text text-anchor="middle" x="830" y="-425.5" font-family="Helvetica,sans-Serif" font-size="10.00">PartitionSmallGraph</text>
</a>
</g>
</g>
<!-- Node233&#45;&gt;Node236 -->
<g id="edge4" class="edge"><title>Node233&#45;&gt;Node236</title>
<path fill="none" stroke="midnightblue" d="M708.814,-401.753C733.418,-407.126 762.187,-413.409 785.408,-418.48"/>
<polygon fill="midnightblue" stroke="midnightblue" points="709.424,-398.303 698.908,-399.589 707.93,-405.142 709.424,-398.303"/>
</g>
<!-- Node237 -->
<g id="node6" class="node"><title>Node237</title>
<g id="a_node6"><a xlink:href="$a00954.html#a5358042c354702d9e8128f7cc342a322" xlink:title="InitPartition">
<polygon fill="white" stroke="black" points="796.5,-304.5 796.5,-323.5 863.5,-323.5 863.5,-304.5 796.5,-304.5"/>
<text text-anchor="middle" x="830" y="-311.5" font-family="Helvetica,sans-Serif" font-size="10.00">InitPartition</text>
</a>
</g>
</g>
<!-- Node233&#45;&gt;Node237 -->
<g id="edge5" class="edge"><title>Node233&#45;&gt;Node237</title>
<path fill="none" stroke="midnightblue" d="M676.754,-374.73C695.815,-361.971 724.669,-344.126 752,-333 766.156,-327.237 782.512,-322.9 796.499,-319.835"/>
<polygon fill="midnightblue" stroke="midnightblue" points="674.776,-371.842 668.479,-380.363 678.715,-377.629 674.776,-371.842"/>
</g>
<!-- Node238 -->
<g id="node7" class="node"><title>Node238</title>
<g id="a_node7"><a xlink:href="$a00846.html#af418d1e76eaf4f80116da4caf51bd54e" xlink:title="ParMETIS_V3_PartKway">
<polygon fill="white" stroke="black" points="765.5,-380.5 765.5,-399.5 894.5,-399.5 894.5,-380.5 765.5,-380.5"/>
<text text-anchor="middle" x="830" y="-387.5" font-family="Helvetica,sans-Serif" font-size="10.00">ParMETIS_V3_PartKway</text>
</a>
</g>
</g>
<!-- Node233&#45;&gt;Node238 -->
<g id="edge6" class="edge"><title>Node233&#45;&gt;Node238</title>
<path fill="none" stroke="midnightblue" d="M726.116,-390C739.066,-390 752.502,-390 765.224,-390"/>
<polygon fill="midnightblue" stroke="midnightblue" points="725.857,-386.5 715.857,-390 725.857,-393.5 725.857,-386.5"/>
</g>
<!-- Node233&#45;&gt;Node239 -->
<g id="edge7" class="edge"><title>Node233&#45;&gt;Node239</title>
<path fill="none" stroke="midnightblue" d="M670.867,-373.105C689.56,-353.528 721.892,-320.676 752,-295 773.008,-277.085 799.147,-258.436 814.93,-247.539"/>
<polygon fill="midnightblue" stroke="midnightblue" points="668.302,-370.723 663.959,-380.387 673.381,-375.541 668.302,-370.723"/>
</g>
<!-- Node233&#45;&gt;Node241 -->
<g id="edge9" class="edge"><title>Node233&#45;&gt;Node241</title>
<path fill="none" stroke="midnightblue" d="M660.341,-370.771C671.284,-335.074 699.732,-258.599 752,-219 757.926,-214.51 764.779,-211.069 771.903,-208.434"/>
<polygon fill="midnightblue" stroke="midnightblue" points="656.957,-369.873 657.5,-380.454 663.674,-371.844 656.957,-369.873"/>
</g>
<!-- Node242 -->
<g id="node11" class="node"><title>Node242</title>
<g id="a_node11"><a xlink:href="$a00311.html#a0ddf1224851353fc92bfbff6f499fa97" xlink:title="main">
<polygon fill="white" stroke="black" points="811,-494.5 811,-513.5 849,-513.5 849,-494.5 811,-494.5"/>
<text text-anchor="middle" x="830" y="-501.5" font-family="Helvetica,sans-Serif" font-size="10.00">main</text>
</a>
</g>
</g>
<!-- Node233&#45;&gt;Node242 -->
<g id="edge11" class="edge"><title>Node233&#45;&gt;Node242</title>
<path fill="none" stroke="midnightblue" d="M701.167,-403.863C706.528,-406.677 711.632,-410.026 716,-414 742.17,-437.809 724.306,-462.982 752,-485 768.921,-498.453 794.048,-502.551 810.952,-503.709"/>
<polygon fill="midnightblue" stroke="midnightblue" points="702.53,-400.637 691.985,-399.616 699.592,-406.991 702.53,-400.637"/>
</g>
<!-- Node240 -->
<g id="node9" class="node"><title>Node240</title>
<g id="a_node9"><a xlink:href="$a00323.html#a0ddf1224851353fc92bfbff6f499fa97" xlink:title="main">
<polygon fill="white" stroke="black" points="944,-209.5 944,-228.5 982,-228.5 982,-209.5 944,-209.5"/>
<text text-anchor="middle" x="963" y="-216.5" font-family="Helvetica,sans-Serif" font-size="10.00">main</text>
</a>
</g>
</g>
<!-- Node239&#45;&gt;Node240 -->
<g id="edge8" class="edge"><title>Node239&#45;&gt;Node240</title>
<path fill="none" stroke="midnightblue" d="M901.451,-227.782C917.128,-225.508 932.424,-223.29 943.72,-221.651"/>
<polygon fill="midnightblue" stroke="midnightblue" points="900.526,-224.379 891.132,-229.279 901.531,-231.307 900.526,-224.379"/>
</g>
<!-- Node241&#45;&gt;Node240 -->
<g id="edge10" class="edge"><title>Node241&#45;&gt;Node240</title>
<path fill="none" stroke="midnightblue" d="M898.039,-209.723C914.991,-212.182 931.804,-214.62 943.935,-216.38"/>
<polygon fill="midnightblue" stroke="midnightblue" points="898.476,-206.25 888.077,-208.278 897.471,-213.178 898.476,-206.25"/>
</g>
<!-- Node243&#45;&gt;Node241 -->
<g id="edge13" class="edge"><title>Node243&#45;&gt;Node241</title>
<path fill="none" stroke="midnightblue" d="M236.775,-112.548C253.723,-109.453 272.568,-106.536 290,-105 479.561,-88.3004 533.266,-94.8907 716,-148 751.876,-158.427 790.868,-178.509 812.381,-190.434"/>
<polygon fill="midnightblue" stroke="midnightblue" points="235.676,-109.194 226.498,-114.488 236.974,-116.073 235.676,-109.194"/>
</g>
<!-- Node244 -->
<g id="node13" class="node"><title>Node244</title>
<g id="a_node13"><a xlink:href="$a00317.html#a0ddf1224851353fc92bfbff6f499fa97" xlink:title="main">
<polygon fill="white" stroke="black" points="325,-114.5 325,-133.5 363,-133.5 363,-114.5 325,-114.5"/>
<text text-anchor="middle" x="344" y="-121.5" font-family="Helvetica,sans-Serif" font-size="10.00">main</text>
</a>
</g>
</g>
<!-- Node243&#45;&gt;Node244 -->
<g id="edge14" class="edge"><title>Node243&#45;&gt;Node244</title>
<path fill="none" stroke="midnightblue" d="M246.911,-124C274.975,-124 305.794,-124 324.773,-124"/>
<polygon fill="midnightblue" stroke="midnightblue" points="246.723,-120.5 236.723,-124 246.723,-127.5 246.723,-120.5"/>
</g>
<!-- Node245&#45;&gt;Node239 -->
<g id="edge16" class="edge"><title>Node245&#45;&gt;Node239</title>
<path fill="none" stroke="midnightblue" d="M249.749,-159.393C373.543,-155.475 633.621,-151.803 716,-186 736.046,-194.322 732.869,-208.748 752,-219 759.16,-222.837 767.11,-225.915 775.105,-228.379"/>
<polygon fill="midnightblue" stroke="midnightblue" points="249.519,-155.899 239.638,-159.723 249.747,-162.895 249.519,-155.899"/>
</g>
<!-- Node245&#45;&gt;Node244 -->
<g id="edge17" class="edge"><title>Node245&#45;&gt;Node244</title>
<path fill="none" stroke="midnightblue" d="M233.228,-150.071C264.429,-142.661 302.677,-133.577 324.802,-128.322"/>
<polygon fill="midnightblue" stroke="midnightblue" points="232.295,-146.695 223.375,-152.411 233.913,-153.505 232.295,-146.695"/>
</g>
<!-- Node247 -->
<g id="node16" class="node"><title>Node247</title>
<g id="a_node16"><a xlink:href="$a00326.html#a0ddf1224851353fc92bfbff6f499fa97" xlink:title="main">
<polygon fill="white" stroke="black" points="325,-0.5 325,-19.5 363,-19.5 363,-0.5 325,-0.5"/>
<text text-anchor="middle" x="344" y="-7.5" font-family="Helvetica,sans-Serif" font-size="10.00">main</text>
</a>
</g>
</g>
<!-- Node246&#45;&gt;Node247 -->
<g id="edge21" class="edge"><title>Node246&#45;&gt;Node247</title>
<path fill="none" stroke="midnightblue" d="M237.641,-10C268.041,-10 303.891,-10 324.962,-10"/>
<polygon fill="midnightblue" stroke="midnightblue" points="237.569,-6.5001 227.569,-10 237.569,-13.5001 237.569,-6.5001"/>
</g>
<!-- Node248&#45;&gt;Node235 -->
<g id="edge23" class="edge"><title>Node248&#45;&gt;Node235</title>
<path fill="none" stroke="midnightblue" d="M258.795,-324.734C269.262,-325.977 279.888,-327.115 290,-328 471.726,-343.905 688.893,-349.5 782.409,-351.267"/>
<polygon fill="midnightblue" stroke="midnightblue" points="259.18,-321.255 248.829,-323.514 258.329,-328.203 259.18,-321.255"/>
</g>
<!-- Node248&#45;&gt;Node237 -->
<g id="edge24" class="edge"><title>Node248&#45;&gt;Node237</title>
<path fill="none" stroke="midnightblue" d="M263.699,-314C406.596,-314 698.292,-314 796.157,-314"/>
<polygon fill="midnightblue" stroke="midnightblue" points="263.672,-310.5 253.672,-314 263.672,-317.5 263.672,-310.5"/>
</g>
<!-- Node248&#45;&gt;Node239 -->
<g id="edge28" class="edge"><title>Node248&#45;&gt;Node239</title>
<path fill="none" stroke="midnightblue" d="M263.873,-304.783C368.329,-292.834 555.771,-271.244 716,-252 733.174,-249.937 751.809,-247.649 768.9,-245.531"/>
<polygon fill="midnightblue" stroke="midnightblue" points="263.255,-301.331 253.718,-305.944 264.051,-308.285 263.255,-301.331"/>
</g>
<!-- Node248&#45;&gt;Node241 -->
<g id="edge29" class="edge"><title>Node248&#45;&gt;Node241</title>
<path fill="none" stroke="midnightblue" d="M224.237,-301.703C244.008,-296.096 268.102,-289.68 290,-285 464.165,-247.78 673.211,-219.386 771.979,-206.927"/>
<polygon fill="midnightblue" stroke="midnightblue" points="223.264,-298.341 214.618,-304.464 225.195,-305.069 223.264,-298.341"/>
</g>
<!-- Node248&#45;&gt;Node242 -->
<g id="edge30" class="edge"><title>Node248&#45;&gt;Node242</title>
<path fill="none" stroke="midnightblue" d="M197.237,-331.573C216.033,-353.474 251.3,-390.293 290,-409 477.779,-499.768 739.804,-504.724 810.705,-504.293"/>
<polygon fill="midnightblue" stroke="midnightblue" points="199.76,-329.134 190.654,-323.717 194.394,-333.63 199.76,-329.134"/>
</g>
<!-- Node249 -->
<g id="node18" class="node"><title>Node249</title>
<g id="a_node18"><a xlink:href="$a00948.html#a870e37cc14eb1033c62d83d3a7c33a91" xlink:title="InitKWayPartitioning">
<polygon fill="white" stroke="black" points="290.5,-380.5 290.5,-399.5 397.5,-399.5 397.5,-380.5 290.5,-380.5"/>
<text text-anchor="middle" x="344" y="-387.5" font-family="Helvetica,sans-Serif" font-size="10.00">InitKWayPartitioning</text>
</a>
</g>
</g>
<!-- Node248&#45;&gt;Node249 -->
<g id="edge25" class="edge"><title>Node248&#45;&gt;Node249</title>
<path fill="none" stroke="midnightblue" d="M211.472,-328.097C232.973,-338.68 263.247,-353.445 290,-366 300.333,-370.849 311.87,-376.094 321.535,-380.439"/>
<polygon fill="midnightblue" stroke="midnightblue" points="212.771,-324.836 202.254,-323.552 209.675,-331.114 212.771,-324.836"/>
</g>
<!-- Node250 -->
<g id="node19" class="node"><title>Node250</title>
<g id="a_node19"><a xlink:href="$a00948.html#a7973c78504ad6711d3516082b1112805" xlink:title="MlevelKWayPartitioning">
<polygon fill="white" stroke="black" points="434,-380.5 434,-399.5 556,-399.5 556,-380.5 434,-380.5"/>
<text text-anchor="middle" x="495" y="-387.5" font-family="Helvetica,sans-Serif" font-size="10.00">MlevelKWayPartitioning</text>
</a>
</g>
</g>
<!-- Node249&#45;&gt;Node250 -->
<g id="edge26" class="edge"><title>Node249&#45;&gt;Node250</title>
<path fill="none" stroke="midnightblue" d="M407.589,-390C416.268,-390 425.168,-390 433.802,-390"/>
<polygon fill="midnightblue" stroke="midnightblue" points="407.532,-386.5 397.532,-390 407.532,-393.5 407.532,-386.5"/>
</g>
<!-- Node250&#45;&gt;Node233 -->
<g id="edge27" class="edge"><title>Node250&#45;&gt;Node233</title>
<path fill="none" stroke="midnightblue" d="M566.361,-390C575.047,-390 583.868,-390 592.391,-390"/>
<polygon fill="midnightblue" stroke="midnightblue" points="566.251,-386.5 556.251,-390 566.251,-393.5 566.251,-386.5"/>
</g>
</g>
</svg>
