<?xml version="1.0" encoding="UTF-8" standalone="no"?>
<!DOCTYPE svg PUBLIC "-//W3C//DTD SVG 1.1//EN"
 "http://www.w3.org/Graphics/SVG/1.1/DTD/svg11.dtd">
<!-- Generated by graphviz version 2.36.0 (20140111.2315)
 -->
<!-- Title: gk_csr_ExtractPartition Pages: 1 -->
<svg width="590pt" height="125pt"
 viewBox="0.00 0.00 590.00 124.79" xmlns="http://www.w3.org/2000/svg" xmlns:xlink="http://www.w3.org/1999/xlink">
<g id="graph0" class="graph" transform="scale(1 1) rotate(0) translate(4 120.791)">
<title>gk_csr_ExtractPartition</title>
<polygon fill="white" stroke="none" points="-4,4 -4,-120.791 586,-120.791 586,4 -4,4"/>
<!-- Node56 -->
<g id="node1" class="node"><title>Node56</title>
<polygon fill="#bfbfbf" stroke="black" points="0.5,-38.5 0.5,-57.5 119.5,-57.5 119.5,-38.5 0.5,-38.5"/>
<text text-anchor="middle" x="60" y="-45.5" font-family="Helvetica,sans-Serif" font-size="10.00">gk_csr_ExtractPartition</text>
</g>
<!-- Node57 -->
<g id="node2" class="node"><title>Node57</title>
<g id="a_node2"><a xlink:href="$a00023.html#a82b885bbed5bd18c26629c35ce5d37e4" xlink:title="gk_csr_Create">
<polygon fill="white" stroke="black" points="156,-38.5 156,-57.5 238,-57.5 238,-38.5 156,-38.5"/>
<text text-anchor="middle" x="197" y="-45.5" font-family="Helvetica,sans-Serif" font-size="10.00">gk_csr_Create</text>
</a>
</g>
</g>
<!-- Node56&#45;&gt;Node57 -->
<g id="edge1" class="edge"><title>Node56&#45;&gt;Node57</title>
<path fill="none" stroke="midnightblue" d="M119.82,-48C128.408,-48 137.186,-48 145.586,-48"/>
<polygon fill="midnightblue" stroke="midnightblue" points="145.607,-51.5001 155.607,-48 145.607,-44.5001 145.607,-51.5001"/>
</g>
<!-- Node58 -->
<g id="node3" class="node"><title>Node58</title>
<g id="a_node3"><a xlink:href="$a00077.html#aba6f76f5c67b9b7e9c2e45988d3d3e9d" xlink:title="gk_malloc">
<polygon fill="white" stroke="black" points="276,-57.5 276,-76.5 338,-76.5 338,-57.5 276,-57.5"/>
<text text-anchor="middle" x="307" y="-64.5" font-family="Helvetica,sans-Serif" font-size="10.00">gk_malloc</text>
</a>
</g>
</g>
<!-- Node57&#45;&gt;Node58 -->
<g id="edge2" class="edge"><title>Node57&#45;&gt;Node58</title>
<path fill="none" stroke="midnightblue" d="M238.215,-55.0749C247.279,-56.6694 256.897,-58.3615 265.954,-59.9548"/>
<polygon fill="midnightblue" stroke="midnightblue" points="265.425,-63.4155 275.88,-61.7011 266.638,-56.5213 265.425,-63.4155"/>
</g>
<!-- Node63 -->
<g id="node8" class="node"><title>Node63</title>
<g id="a_node8"><a xlink:href="$a00023.html#a47a303d88c3316bd821219cae39d0461" xlink:title="gk_csr_Init">
<polygon fill="white" stroke="black" points="274.5,-19.5 274.5,-38.5 339.5,-38.5 339.5,-19.5 274.5,-19.5"/>
<text text-anchor="middle" x="307" y="-26.5" font-family="Helvetica,sans-Serif" font-size="10.00">gk_csr_Init</text>
</a>
</g>
</g>
<!-- Node57&#45;&gt;Node63 -->
<g id="edge8" class="edge"><title>Node57&#45;&gt;Node63</title>
<path fill="none" stroke="midnightblue" d="M238.215,-40.9251C246.657,-39.4399 255.581,-37.87 264.084,-36.3742"/>
<polygon fill="midnightblue" stroke="midnightblue" points="264.943,-39.7769 274.185,-34.5971 263.73,-32.8827 264.943,-39.7769"/>
</g>
<!-- Node59 -->
<g id="node4" class="node"><title>Node59</title>
<g id="a_node4"><a xlink:href="$a01017.html#a2e311a777ffe9c80e405efa7cd2757be" xlink:title="fprintf">
<polygon fill="white" stroke="black" points="540,-57.5 540,-76.5 582,-76.5 582,-57.5 540,-57.5"/>
<text text-anchor="middle" x="561" y="-64.5" font-family="Helvetica,sans-Serif" font-size="10.00">fprintf</text>
</a>
</g>
</g>
<!-- Node58&#45;&gt;Node59 -->
<g id="edge3" class="edge"><title>Node58&#45;&gt;Node59</title>
<path fill="none" stroke="midnightblue" d="M320.682,-76.7226C333.733,-86.0659 355.06,-99.5461 376,-105 431.052,-119.339 449.62,-121.709 504,-105 518.039,-100.686 531.719,-91.5255 542.044,-83.2793"/>
<polygon fill="midnightblue" stroke="midnightblue" points="544.469,-85.8134 549.862,-76.6941 539.959,-80.4595 544.469,-85.8134"/>
</g>
<!-- Node60 -->
<g id="node5" class="node"><title>Node60</title>
<g id="a_node5"><a xlink:href="$a00110.html#ad2327b94227019b6753b6b09400c0522" xlink:title="gk_GetCurMemoryUsed">
<polygon fill="white" stroke="black" points="378,-76.5 378,-95.5 502,-95.5 502,-76.5 378,-76.5"/>
<text text-anchor="middle" x="440" y="-83.5" font-family="Helvetica,sans-Serif" font-size="10.00">gk_GetCurMemoryUsed</text>
</a>
</g>
</g>
<!-- Node58&#45;&gt;Node60 -->
<g id="edge4" class="edge"><title>Node58&#45;&gt;Node60</title>
<path fill="none" stroke="midnightblue" d="M338.054,-71.359C347.041,-72.6625 357.303,-74.1508 367.761,-75.6676"/>
<polygon fill="midnightblue" stroke="midnightblue" points="367.414,-79.1538 377.813,-77.1255 368.419,-72.2263 367.414,-79.1538"/>
</g>
<!-- Node61 -->
<g id="node6" class="node"><title>Node61</title>
<g id="a_node6"><a xlink:href="$a00110.html#a656fd5266ae12a96e53125486f8fea52" xlink:title="gk_GetMaxMemoryUsed">
<polygon fill="white" stroke="black" points="376.5,-38.5 376.5,-57.5 503.5,-57.5 503.5,-38.5 376.5,-38.5"/>
<text text-anchor="middle" x="440" y="-45.5" font-family="Helvetica,sans-Serif" font-size="10.00">gk_GetMaxMemoryUsed</text>
</a>
</g>
</g>
<!-- Node58&#45;&gt;Node61 -->
<g id="edge5" class="edge"><title>Node58&#45;&gt;Node61</title>
<path fill="none" stroke="midnightblue" d="M338.054,-62.641C346.665,-61.392 356.447,-59.9734 366.45,-58.5226"/>
<polygon fill="midnightblue" stroke="midnightblue" points="367.097,-61.9653 376.491,-57.0661 366.093,-55.0378 367.097,-61.9653"/>
</g>
<!-- Node62 -->
<g id="node7" class="node"><title>Node62</title>
<g id="a_node7"><a xlink:href="$a00026.html#a4c320c13bcdc9967613253ef4c73f59f" xlink:title="gk_errexit">
<polygon fill="white" stroke="black" points="410,-0.5 410,-19.5 470,-19.5 470,-0.5 410,-0.5"/>
<text text-anchor="middle" x="440" y="-7.5" font-family="Helvetica,sans-Serif" font-size="10.00">gk_errexit</text>
</a>
</g>
</g>
<!-- Node58&#45;&gt;Node62 -->
<g id="edge6" class="edge"><title>Node58&#45;&gt;Node62</title>
<path fill="none" stroke="midnightblue" d="M324.079,-57.4824C340.755,-47.7083 365.791,-33.3313 376,-29 383.701,-25.7327 392.151,-22.78 400.292,-20.2292"/>
<polygon fill="midnightblue" stroke="midnightblue" points="401.421,-23.5447 409.996,-17.3231 399.413,-16.8389 401.421,-23.5447"/>
</g>
<!-- Node62&#45;&gt;Node59 -->
<g id="edge7" class="edge"><title>Node62&#45;&gt;Node59</title>
<path fill="none" stroke="midnightblue" d="M470.228,-16.8252C481.104,-19.8755 493.377,-23.9396 504,-29 516.634,-35.0184 529.634,-43.6626 539.925,-51.1863"/>
<polygon fill="midnightblue" stroke="midnightblue" points="538.101,-54.1937 548.194,-57.4154 542.313,-48.6027 538.101,-54.1937"/>
</g>
</g>
</svg>
