<?xml version="1.0" encoding="UTF-8" standalone="no"?>
<!DOCTYPE svg PUBLIC "-//W3C//DTD SVG 1.1//EN"
 "http://www.w3.org/Graphics/SVG/1.1/DTD/svg11.dtd">
<!-- Generated by graphviz version 2.36.0 (20140111.2315)
 -->
<!-- Title: gk_csr_Free Pages: 1 -->
<svg width="314pt" height="47pt"
 viewBox="0.00 0.00 314.00 47.00" xmlns="http://www.w3.org/2000/svg" xmlns:xlink="http://www.w3.org/1999/xlink">
<g id="graph0" class="graph" transform="scale(1 1) rotate(0) translate(4 43)">
<title>gk_csr_Free</title>
<polygon fill="white" stroke="none" points="-4,4 -4,-43 310,-43 310,4 -4,4"/>
<!-- Node83 -->
<g id="node1" class="node"><title>Node83</title>
<polygon fill="#bfbfbf" stroke="black" points="0,-0.5 0,-19.5 72,-19.5 72,-0.5 0,-0.5"/>
<text text-anchor="middle" x="36" y="-7.5" font-family="Helvetica,sans-Serif" font-size="10.00">gk_csr_Free</text>
</g>
<!-- Node84 -->
<g id="node2" class="node"><title>Node84</title>
<g id="a_node2"><a xlink:href="$a00023.html#a9646f29b0605ba264bf373c441a6826d" xlink:title="gk_csr_FreeContents">
<polygon fill="white" stroke="black" points="108,-19.5 108,-38.5 220,-38.5 220,-19.5 108,-19.5"/>
<text text-anchor="middle" x="164" y="-26.5" font-family="Helvetica,sans-Serif" font-size="10.00">gk_csr_FreeContents</text>
</a>
</g>
</g>
<!-- Node83&#45;&gt;Node84 -->
<g id="edge1" class="edge"><title>Node83&#45;&gt;Node84</title>
<path fill="none" stroke="midnightblue" d="M72.098,-15.2926C80.1398,-16.5052 88.9416,-17.8325 97.8015,-19.1685"/>
<polygon fill="midnightblue" stroke="midnightblue" points="97.3817,-22.6447 107.792,-20.675 98.4255,-15.7229 97.3817,-22.6447"/>
</g>
<!-- Node85 -->
<g id="node3" class="node"><title>Node85</title>
<g id="a_node3"><a xlink:href="$a00077.html#ac8df62c4e3d0910711a9874f9cc58884" xlink:title="gk_free">
<polygon fill="white" stroke="black" points="256,-0.5 256,-19.5 306,-19.5 306,-0.5 256,-0.5"/>
<text text-anchor="middle" x="281" y="-7.5" font-family="Helvetica,sans-Serif" font-size="10.00">gk_free</text>
</a>
</g>
</g>
<!-- Node83&#45;&gt;Node85 -->
<g id="edge3" class="edge"><title>Node83&#45;&gt;Node85</title>
<path fill="none" stroke="midnightblue" d="M72.0748,-10C118.532,-10 199.942,-10 245.903,-10"/>
<polygon fill="midnightblue" stroke="midnightblue" points="245.965,-13.5001 255.965,-10 245.965,-6.5001 245.965,-13.5001"/>
</g>
<!-- Node84&#45;&gt;Node85 -->
<g id="edge2" class="edge"><title>Node84&#45;&gt;Node85</title>
<path fill="none" stroke="midnightblue" d="M220.142,-19.8896C228.88,-18.4459 237.69,-16.9903 245.764,-15.6563"/>
<polygon fill="midnightblue" stroke="midnightblue" points="246.591,-19.0673 255.887,-13.9839 245.45,-12.1609 246.591,-19.0673"/>
</g>
</g>
</svg>
