<?xml version="1.0" encoding="UTF-8" standalone="no"?>
<!DOCTYPE svg PUBLIC "-//W3C//DTD SVG 1.1//EN"
 "http://www.w3.org/Graphics/SVG/1.1/DTD/svg11.dtd">
<!-- Generated by graphviz version 2.36.0 (20140111.2315)
 -->
<!-- Title: gk_csr_Read Pages: 1 -->
<svg width="546pt" height="408pt"
 viewBox="0.00 0.00 546.00 408.00" xmlns="http://www.w3.org/2000/svg" xmlns:xlink="http://www.w3.org/1999/xlink">
<g id="graph0" class="graph" transform="scale(1 1) rotate(0) translate(4 404)">
<title>gk_csr_Read</title>
<polygon fill="white" stroke="none" points="-4,4 -4,-404 542,-404 542,4 -4,4"/>
<!-- Node253 -->
<g id="node1" class="node"><title>Node253</title>
<polygon fill="#bfbfbf" stroke="black" points="0.5,-171.5 0.5,-190.5 75.5,-190.5 75.5,-171.5 0.5,-171.5"/>
<text text-anchor="middle" x="38" y="-178.5" font-family="Helvetica,sans-Serif" font-size="10.00">gk_csr_Read</text>
</g>
<!-- Node254 -->
<g id="node2" class="node"><title>Node254</title>
<g id="a_node2"><a xlink:href="$a00035.html#a627221a374552b5b6659d855b7446187" xlink:title="gk_fexists">
<polygon fill="white" stroke="black" points="122.5,-380.5 122.5,-399.5 183.5,-399.5 183.5,-380.5 122.5,-380.5"/>
<text text-anchor="middle" x="153" y="-387.5" font-family="Helvetica,sans-Serif" font-size="10.00">gk_fexists</text>
</a>
</g>
</g>
<!-- Node253&#45;&gt;Node254 -->
<g id="edge1" class="edge"><title>Node253&#45;&gt;Node254</title>
<path fill="none" stroke="midnightblue" d="M40.5336,-190.568C45.6675,-219.934 64.6698,-310.161 112,-366 114.769,-369.267 118.1,-372.208 121.644,-374.818"/>
<polygon fill="midnightblue" stroke="midnightblue" points="119.834,-377.816 130.132,-380.308 123.636,-371.938 119.834,-377.816"/>
</g>
<!-- Node255 -->
<g id="node3" class="node"><title>Node255</title>
<g id="a_node3"><a xlink:href="$a00026.html#a4c320c13bcdc9967613253ef4c73f59f" xlink:title="gk_errexit">
<polygon fill="white" stroke="black" points="366,-342.5 366,-361.5 426,-361.5 426,-342.5 366,-342.5"/>
<text text-anchor="middle" x="396" y="-349.5" font-family="Helvetica,sans-Serif" font-size="10.00">gk_errexit</text>
</a>
</g>
</g>
<!-- Node253&#45;&gt;Node255 -->
<g id="edge2" class="edge"><title>Node253&#45;&gt;Node255</title>
<path fill="none" stroke="midnightblue" d="M42.4787,-190.533C50.9178,-212.335 74.5777,-266.172 112,-295 184.288,-350.686 296.898,-355.995 355.911,-354.417"/>
<polygon fill="midnightblue" stroke="midnightblue" points="356.069,-357.914 365.941,-354.068 355.825,-350.918 356.069,-357.914"/>
</g>
<!-- Node257 -->
<g id="node5" class="node"><title>Node257</title>
<g id="a_node5"><a xlink:href="$a00023.html#a82b885bbed5bd18c26629c35ce5d37e4" xlink:title="gk_csr_Create">
<polygon fill="white" stroke="black" points="112,-266.5 112,-285.5 194,-285.5 194,-266.5 112,-266.5"/>
<text text-anchor="middle" x="153" y="-273.5" font-family="Helvetica,sans-Serif" font-size="10.00">gk_csr_Create</text>
</a>
</g>
</g>
<!-- Node253&#45;&gt;Node257 -->
<g id="edge4" class="edge"><title>Node253&#45;&gt;Node257</title>
<path fill="none" stroke="midnightblue" d="M46.5944,-190.983C58.9264,-206.667 84.6904,-237.318 112,-257 114.204,-258.589 116.563,-260.101 118.99,-261.527"/>
<polygon fill="midnightblue" stroke="midnightblue" points="117.463,-264.68 127.933,-266.302 120.76,-258.505 117.463,-264.68"/>
</g>
<!-- Node262 -->
<g id="node10" class="node"><title>Node262</title>
<g id="a_node10"><a xlink:href="$a00077.html#ab2b996e10c5bccb30204d81804adfd24" xlink:title="gk_fopen">
<polygon fill="white" stroke="black" points="234,-133.5 234,-152.5 292,-152.5 292,-133.5 234,-133.5"/>
<text text-anchor="middle" x="263" y="-140.5" font-family="Helvetica,sans-Serif" font-size="10.00">gk_fopen</text>
</a>
</g>
</g>
<!-- Node253&#45;&gt;Node262 -->
<g id="edge11" class="edge"><title>Node253&#45;&gt;Node262</title>
<path fill="none" stroke="midnightblue" d="M75.8239,-174.725C116.765,-167.749 182.567,-156.536 223.984,-149.478"/>
<polygon fill="midnightblue" stroke="midnightblue" points="224.688,-152.909 233.958,-147.778 223.512,-146.008 224.688,-152.909"/>
</g>
<!-- Node263 -->
<g id="node11" class="node"><title>Node263</title>
<g id="a_node11"><a xlink:href="$a00575.html#ae6aab5c308faac0fc539cc9c6da9fbd0" xlink:title="sprintf">
<polygon fill="white" stroke="black" points="374,-95.5 374,-114.5 418,-114.5 418,-95.5 374,-95.5"/>
<text text-anchor="middle" x="396" y="-102.5" font-family="Helvetica,sans-Serif" font-size="10.00">sprintf</text>
</a>
</g>
</g>
<!-- Node253&#45;&gt;Node263 -->
<g id="edge20" class="edge"><title>Node253&#45;&gt;Node263</title>
<path fill="none" stroke="midnightblue" d="M44.5112,-171.438C55.0392,-154.261 79.8524,-118.697 112,-105 196.963,-68.8011 309.73,-85.7605 363.665,-97.3307"/>
<polygon fill="midnightblue" stroke="midnightblue" points="363.12,-100.795 373.642,-99.5556 364.644,-93.9629 363.12,-100.795"/>
</g>
<!-- Node264 -->
<g id="node12" class="node"><title>Node264</title>
<g id="a_node12"><a xlink:href="$a00026.html#a56d0f2cc40cd8633a784582d6200d8b5" xlink:title="errexit">
<polygon fill="white" stroke="black" points="374,-190.5 374,-209.5 418,-209.5 418,-190.5 374,-190.5"/>
<text text-anchor="middle" x="396" y="-197.5" font-family="Helvetica,sans-Serif" font-size="10.00">errexit</text>
</a>
</g>
</g>
<!-- Node253&#45;&gt;Node264 -->
<g id="edge24" class="edge"><title>Node253&#45;&gt;Node264</title>
<path fill="none" stroke="midnightblue" d="M75.7574,-182.962C145.931,-186.707 297.845,-194.815 363.605,-198.324"/>
<polygon fill="midnightblue" stroke="midnightblue" points="363.585,-201.828 373.758,-198.866 363.958,-194.838 363.585,-201.828"/>
</g>
<!-- Node265 -->
<g id="node13" class="node"><title>Node265</title>
<g id="a_node13"><a xlink:href="$a00077.html#a0fd03cab5187904b005485109d9fa2b5" xlink:title="gk_fclose">
<polygon fill="white" stroke="black" points="233.5,-38.5 233.5,-57.5 292.5,-57.5 292.5,-38.5 233.5,-38.5"/>
<text text-anchor="middle" x="263" y="-45.5" font-family="Helvetica,sans-Serif" font-size="10.00">gk_fclose</text>
</a>
</g>
</g>
<!-- Node253&#45;&gt;Node265 -->
<g id="edge15" class="edge"><title>Node253&#45;&gt;Node265</title>
<path fill="none" stroke="midnightblue" d="M42.3227,-171.487C50.4335,-149.805 73.4506,-96.6909 112,-72 145.221,-50.7219 190.835,-46.1162 223.015,-45.9636"/>
<polygon fill="midnightblue" stroke="midnightblue" points="223.342,-49.4669 233.376,-46.065 223.411,-42.4672 223.342,-49.4669"/>
</g>
<!-- Node267 -->
<g id="node15" class="node"><title>Node267</title>
<g id="a_node15"><a xlink:href="$a00077.html#ad8263f64108434d7ebab9799b5ab9632" xlink:title="gk_getline">
<polygon fill="white" stroke="black" points="122,-228.5 122,-247.5 184,-247.5 184,-228.5 122,-228.5"/>
<text text-anchor="middle" x="153" y="-235.5" font-family="Helvetica,sans-Serif" font-size="10.00">gk_getline</text>
</a>
</g>
</g>
<!-- Node253&#45;&gt;Node267 -->
<g id="edge17" class="edge"><title>Node253&#45;&gt;Node267</title>
<path fill="none" stroke="midnightblue" d="M57.9137,-190.541C75.921,-199.624 103.251,-213.41 123.823,-223.787"/>
<polygon fill="midnightblue" stroke="midnightblue" points="122.52,-227.05 133.025,-228.428 125.673,-220.8 122.52,-227.05"/>
</g>
<!-- Node269 -->
<g id="node17" class="node"><title>Node269</title>
<g id="a_node17"><a xlink:href="$a00035.html#a739112cb142f2e96d6952140c66cd31c" xlink:title="gk_getfilestats">
<polygon fill="white" stroke="black" points="113,-114.5 113,-133.5 193,-133.5 193,-114.5 113,-114.5"/>
<text text-anchor="middle" x="153" y="-121.5" font-family="Helvetica,sans-Serif" font-size="10.00">gk_getfilestats</text>
</a>
</g>
</g>
<!-- Node253&#45;&gt;Node269 -->
<g id="edge21" class="edge"><title>Node253&#45;&gt;Node269</title>
<path fill="none" stroke="midnightblue" d="M57.9137,-171.459C75.921,-162.376 103.251,-148.59 123.823,-138.213"/>
<polygon fill="midnightblue" stroke="midnightblue" points="125.673,-141.2 133.025,-133.572 122.52,-134.95 125.673,-141.2"/>
</g>
<!-- Node270 -->
<g id="node18" class="node"><title>Node270</title>
<g id="a_node18"><a xlink:href="$a00077.html#ac8df62c4e3d0910711a9874f9cc58884" xlink:title="gk_free">
<polygon fill="white" stroke="black" points="128,-0.5 128,-19.5 178,-19.5 178,-0.5 128,-0.5"/>
<text text-anchor="middle" x="153" y="-7.5" font-family="Helvetica,sans-Serif" font-size="10.00">gk_free</text>
</a>
</g>
</g>
<!-- Node253&#45;&gt;Node270 -->
<g id="edge25" class="edge"><title>Node253&#45;&gt;Node270</title>
<path fill="none" stroke="midnightblue" d="M41.7089,-171.303C49.1746,-146.031 72.176,-77.1227 112,-34 114.967,-30.7872 118.462,-27.862 122.13,-25.2459"/>
<polygon fill="midnightblue" stroke="midnightblue" points="124.275,-28.0303 130.838,-19.713 120.52,-22.1223 124.275,-28.0303"/>
</g>
<!-- Node256 -->
<g id="node4" class="node"><title>Node256</title>
<g id="a_node4"><a xlink:href="$a01017.html#a2e311a777ffe9c80e405efa7cd2757be" xlink:title="fprintf">
<polygon fill="white" stroke="black" points="496,-228.5 496,-247.5 538,-247.5 538,-228.5 496,-228.5"/>
<text text-anchor="middle" x="517" y="-235.5" font-family="Helvetica,sans-Serif" font-size="10.00">fprintf</text>
</a>
</g>
</g>
<!-- Node255&#45;&gt;Node256 -->
<g id="edge3" class="edge"><title>Node255&#45;&gt;Node256</title>
<path fill="none" stroke="midnightblue" d="M426.092,-347.93C437.566,-345.19 450.295,-340.618 460,-333 485.122,-313.279 501.282,-278.921 509.493,-257.375"/>
<polygon fill="midnightblue" stroke="midnightblue" points="512.887,-258.279 512.979,-247.685 506.3,-255.91 512.887,-258.279"/>
</g>
<!-- Node258 -->
<g id="node6" class="node"><title>Node258</title>
<g id="a_node6"><a xlink:href="$a00077.html#aba6f76f5c67b9b7e9c2e45988d3d3e9d" xlink:title="gk_malloc">
<polygon fill="white" stroke="black" points="232,-266.5 232,-285.5 294,-285.5 294,-266.5 232,-266.5"/>
<text text-anchor="middle" x="263" y="-273.5" font-family="Helvetica,sans-Serif" font-size="10.00">gk_malloc</text>
</a>
</g>
</g>
<!-- Node257&#45;&gt;Node258 -->
<g id="edge5" class="edge"><title>Node257&#45;&gt;Node258</title>
<path fill="none" stroke="midnightblue" d="M194.215,-276C203.181,-276 212.69,-276 221.661,-276"/>
<polygon fill="midnightblue" stroke="midnightblue" points="221.88,-279.5 231.88,-276 221.88,-272.5 221.88,-279.5"/>
</g>
<!-- Node261 -->
<g id="node9" class="node"><title>Node261</title>
<g id="a_node9"><a xlink:href="$a00023.html#a47a303d88c3316bd821219cae39d0461" xlink:title="gk_csr_Init">
<polygon fill="white" stroke="black" points="230.5,-304.5 230.5,-323.5 295.5,-323.5 295.5,-304.5 230.5,-304.5"/>
<text text-anchor="middle" x="263" y="-311.5" font-family="Helvetica,sans-Serif" font-size="10.00">gk_csr_Init</text>
</a>
</g>
</g>
<!-- Node257&#45;&gt;Node261 -->
<g id="edge10" class="edge"><title>Node257&#45;&gt;Node261</title>
<path fill="none" stroke="midnightblue" d="M181.253,-285.589C194.555,-290.269 210.754,-295.969 225.142,-301.032"/>
<polygon fill="midnightblue" stroke="midnightblue" points="224.161,-304.397 234.756,-304.414 226.484,-297.793 224.161,-304.397"/>
</g>
<!-- Node258&#45;&gt;Node255 -->
<g id="edge9" class="edge"><title>Node258&#45;&gt;Node255</title>
<path fill="none" stroke="midnightblue" d="M282.183,-285.618C286.857,-288.402 291.76,-291.612 296,-295 314.176,-309.522 312.199,-320.787 332,-333 339.338,-337.526 347.825,-341.035 356.145,-343.733"/>
<polygon fill="midnightblue" stroke="midnightblue" points="355.177,-347.096 365.757,-346.54 357.139,-340.377 355.177,-347.096"/>
</g>
<!-- Node258&#45;&gt;Node256 -->
<g id="edge6" class="edge"><title>Node258&#45;&gt;Node256</title>
<path fill="none" stroke="midnightblue" d="M293.868,-266.473C305.644,-263.029 319.355,-259.401 332,-257 385.698,-246.802 449.326,-241.766 485.944,-239.536"/>
<polygon fill="midnightblue" stroke="midnightblue" points="486.182,-243.028 495.963,-238.955 485.777,-236.039 486.182,-243.028"/>
</g>
<!-- Node259 -->
<g id="node7" class="node"><title>Node259</title>
<g id="a_node7"><a xlink:href="$a00110.html#ad2327b94227019b6753b6b09400c0522" xlink:title="gk_GetCurMemoryUsed">
<polygon fill="white" stroke="black" points="334,-304.5 334,-323.5 458,-323.5 458,-304.5 334,-304.5"/>
<text text-anchor="middle" x="396" y="-311.5" font-family="Helvetica,sans-Serif" font-size="10.00">gk_GetCurMemoryUsed</text>
</a>
</g>
</g>
<!-- Node258&#45;&gt;Node259 -->
<g id="edge7" class="edge"><title>Node258&#45;&gt;Node259</title>
<path fill="none" stroke="midnightblue" d="M294.054,-284.718C311.293,-289.719 333.22,-296.079 352.231,-301.594"/>
<polygon fill="midnightblue" stroke="midnightblue" points="351.287,-304.964 361.866,-304.389 353.237,-298.241 351.287,-304.964"/>
</g>
<!-- Node260 -->
<g id="node8" class="node"><title>Node260</title>
<g id="a_node8"><a xlink:href="$a00110.html#a656fd5266ae12a96e53125486f8fea52" xlink:title="gk_GetMaxMemoryUsed">
<polygon fill="white" stroke="black" points="332.5,-266.5 332.5,-285.5 459.5,-285.5 459.5,-266.5 332.5,-266.5"/>
<text text-anchor="middle" x="396" y="-273.5" font-family="Helvetica,sans-Serif" font-size="10.00">gk_GetMaxMemoryUsed</text>
</a>
</g>
</g>
<!-- Node258&#45;&gt;Node260 -->
<g id="edge8" class="edge"><title>Node258&#45;&gt;Node260</title>
<path fill="none" stroke="midnightblue" d="M294.054,-276C302.665,-276 312.447,-276 322.45,-276"/>
<polygon fill="midnightblue" stroke="midnightblue" points="322.491,-279.5 332.491,-276 322.491,-272.5 322.491,-279.5"/>
</g>
<!-- Node262&#45;&gt;Node263 -->
<g id="edge12" class="edge"><title>Node262&#45;&gt;Node263</title>
<path fill="none" stroke="midnightblue" d="M292.103,-134.848C313.261,-128.711 342.248,-120.302 364.065,-113.974"/>
<polygon fill="midnightblue" stroke="midnightblue" points="365.202,-117.288 373.831,-111.141 363.252,-110.565 365.202,-117.288"/>
</g>
<!-- Node262&#45;&gt;Node264 -->
<g id="edge13" class="edge"><title>Node262&#45;&gt;Node264</title>
<path fill="none" stroke="midnightblue" d="M285.926,-152.541C307.436,-161.9 340.419,-176.251 364.485,-186.722"/>
<polygon fill="midnightblue" stroke="midnightblue" points="363.305,-190.026 373.871,-190.806 366.098,-183.607 363.305,-190.026"/>
</g>
<!-- Node264&#45;&gt;Node256 -->
<g id="edge14" class="edge"><title>Node264&#45;&gt;Node256</title>
<path fill="none" stroke="midnightblue" d="M418.001,-206.706C436.809,-212.712 464.61,-221.59 485.802,-228.357"/>
<polygon fill="midnightblue" stroke="midnightblue" points="485.016,-231.78 495.607,-231.488 487.145,-225.112 485.016,-231.78"/>
</g>
<!-- Node266 -->
<g id="node14" class="node"><title>Node266</title>
<g id="a_node14"><a xlink:href="$a01017.html#a355ed4cdac2a27aa04a6689ac2d7e86e" xlink:title="fclose">
<polygon fill="white" stroke="black" points="374.5,-38.5 374.5,-57.5 417.5,-57.5 417.5,-38.5 374.5,-38.5"/>
<text text-anchor="middle" x="396" y="-45.5" font-family="Helvetica,sans-Serif" font-size="10.00">fclose</text>
</a>
</g>
</g>
<!-- Node265&#45;&gt;Node266 -->
<g id="edge16" class="edge"><title>Node265&#45;&gt;Node266</title>
<path fill="none" stroke="midnightblue" d="M292.749,-48C313.882,-48 342.562,-48 364.17,-48"/>
<polygon fill="midnightblue" stroke="midnightblue" points="364.446,-51.5001 374.446,-48 364.446,-44.5001 364.446,-51.5001"/>
</g>
<!-- Node267&#45;&gt;Node258 -->
<g id="edge18" class="edge"><title>Node267&#45;&gt;Node258</title>
<path fill="none" stroke="midnightblue" d="M181.253,-247.589C194.555,-252.269 210.754,-257.969 225.142,-263.032"/>
<polygon fill="midnightblue" stroke="midnightblue" points="224.161,-266.397 234.756,-266.414 226.484,-259.793 224.161,-266.397"/>
</g>
<!-- Node268 -->
<g id="node16" class="node"><title>Node268</title>
<g id="a_node16"><a xlink:href="$a00077.html#ab76a07ccd25288dd9acc99f5f24a7600" xlink:title="gk_realloc">
<polygon fill="white" stroke="black" points="232,-228.5 232,-247.5 294,-247.5 294,-228.5 232,-228.5"/>
<text text-anchor="middle" x="263" y="-235.5" font-family="Helvetica,sans-Serif" font-size="10.00">gk_realloc</text>
</a>
</g>
</g>
<!-- Node267&#45;&gt;Node268 -->
<g id="edge19" class="edge"><title>Node267&#45;&gt;Node268</title>
<path fill="none" stroke="midnightblue" d="M184.084,-238C195.689,-238 209.141,-238 221.568,-238"/>
<polygon fill="midnightblue" stroke="midnightblue" points="221.703,-241.5 231.703,-238 221.703,-234.5 221.703,-241.5"/>
</g>
<!-- Node269&#45;&gt;Node262 -->
<g id="edge22" class="edge"><title>Node269&#45;&gt;Node262</title>
<path fill="none" stroke="midnightblue" d="M193.296,-130.913C203.233,-132.661 213.89,-134.536 223.774,-136.275"/>
<polygon fill="midnightblue" stroke="midnightblue" points="223.276,-139.741 233.731,-138.027 224.489,-132.847 223.276,-139.741"/>
</g>
<!-- Node269&#45;&gt;Node265 -->
<g id="edge23" class="edge"><title>Node269&#45;&gt;Node265</title>
<path fill="none" stroke="midnightblue" d="M167.678,-114.375C185.937,-101.526 218.485,-78.6219 240.159,-63.3695"/>
<polygon fill="midnightblue" stroke="midnightblue" points="242.269,-66.1646 248.433,-57.5473 238.24,-60.4399 242.269,-66.1646"/>
</g>
</g>
</svg>
