<?xml version="1.0" encoding="UTF-8" standalone="no"?>
<!DOCTYPE svg PUBLIC "-//W3C//DTD SVG 1.1//EN"
 "http://www.w3.org/Graphics/SVG/1.1/DTD/svg11.dtd">
<!-- Generated by graphviz version 2.36.0 (20140111.2315)
 -->
<!-- Title: gk_csr_FreeContents Pages: 1 -->
<svg width="552pt" height="268pt"
 viewBox="0.00 0.00 552.00 268.00" xmlns="http://www.w3.org/2000/svg" xmlns:xlink="http://www.w3.org/1999/xlink">
<g id="graph0" class="graph" transform="scale(1 1) rotate(0) translate(4 264)">
<title>gk_csr_FreeContents</title>
<polygon fill="white" stroke="none" points="-4,4 -4,-264 548,-264 548,4 -4,4"/>
<!-- Node96 -->
<g id="node1" class="node"><title>Node96</title>
<polygon fill="#bfbfbf" stroke="black" points="0,-126.5 0,-145.5 112,-145.5 112,-126.5 0,-126.5"/>
<text text-anchor="middle" x="56" y="-133.5" font-family="Helvetica,sans-Serif" font-size="10.00">gk_csr_FreeContents</text>
</g>
<!-- Node97 -->
<g id="node2" class="node"><title>Node97</title>
<g id="a_node2"><a xlink:href="$a00077.html#ac3736361b8d6b391356f273c960c203b" xlink:title="gk_csr_Free">
<polygon fill="white" stroke="black" points="148,-126.5 148,-145.5 220,-145.5 220,-126.5 148,-126.5"/>
<text text-anchor="middle" x="184" y="-133.5" font-family="Helvetica,sans-Serif" font-size="10.00">gk_csr_Free</text>
</a>
</g>
</g>
<!-- Node96&#45;&gt;Node97 -->
<g id="edge1" class="edge"><title>Node96&#45;&gt;Node97</title>
<path fill="none" stroke="midnightblue" d="M122.47,-136C131.172,-136 139.812,-136 147.723,-136"/>
<polygon fill="midnightblue" stroke="midnightblue" points="122.265,-132.5 112.265,-136 122.265,-139.5 122.265,-132.5"/>
</g>
<!-- Node98 -->
<g id="node3" class="node"><title>Node98</title>
<g id="a_node3"><a xlink:href="$a00077.html#a06edc174c5986841b589900ffce6600f" xlink:title="gk_csr_Prune">
<polygon fill="white" stroke="black" points="276,-240.5 276,-259.5 354,-259.5 354,-240.5 276,-240.5"/>
<text text-anchor="middle" x="315" y="-247.5" font-family="Helvetica,sans-Serif" font-size="10.00">gk_csr_Prune</text>
</a>
</g>
</g>
<!-- Node97&#45;&gt;Node98 -->
<g id="edge2" class="edge"><title>Node97&#45;&gt;Node98</title>
<path fill="none" stroke="midnightblue" d="M194.37,-154.677C206.018,-176.075 227.846,-210.782 256,-231 261.939,-235.265 268.889,-238.611 275.876,-241.223"/>
<polygon fill="midnightblue" stroke="midnightblue" points="197.364,-152.85 189.617,-145.622 191.166,-156.103 197.364,-152.85"/>
</g>
<!-- Node99 -->
<g id="node4" class="node"><title>Node99</title>
<g id="a_node4"><a xlink:href="$a00077.html#a66729af11e7dee3585d6191661757c37" xlink:title="gk_csr_LowFilter">
<polygon fill="white" stroke="black" points="269,-202.5 269,-221.5 361,-221.5 361,-202.5 269,-202.5"/>
<text text-anchor="middle" x="315" y="-209.5" font-family="Helvetica,sans-Serif" font-size="10.00">gk_csr_LowFilter</text>
</a>
</g>
</g>
<!-- Node97&#45;&gt;Node99 -->
<g id="edge3" class="edge"><title>Node97&#45;&gt;Node99</title>
<path fill="none" stroke="midnightblue" d="M202.36,-152.933C215.997,-165.455 235.973,-182.15 256,-193 262.801,-196.685 270.44,-199.813 277.885,-202.402"/>
<polygon fill="midnightblue" stroke="midnightblue" points="204.424,-150.07 194.743,-145.765 199.627,-155.168 204.424,-150.07"/>
</g>
<!-- Node100 -->
<g id="node5" class="node"><title>Node100</title>
<g id="a_node5"><a xlink:href="$a00077.html#ad6f2c5699b47e1bc2285a1b391d7c7da" xlink:title="gk_csr_TopKPlusFilter">
<polygon fill="white" stroke="black" points="256.5,-164.5 256.5,-183.5 373.5,-183.5 373.5,-164.5 256.5,-164.5"/>
<text text-anchor="middle" x="315" y="-171.5" font-family="Helvetica,sans-Serif" font-size="10.00">gk_csr_TopKPlusFilter</text>
</a>
</g>
</g>
<!-- Node97&#45;&gt;Node100 -->
<g id="edge4" class="edge"><title>Node97&#45;&gt;Node100</title>
<path fill="none" stroke="midnightblue" d="M227.554,-148.535C245.103,-153.705 265.113,-159.599 281.458,-164.414"/>
<polygon fill="midnightblue" stroke="midnightblue" points="228.134,-145.057 217.552,-145.589 226.156,-151.772 228.134,-145.057"/>
</g>
<!-- Node101 -->
<g id="node6" class="node"><title>Node101</title>
<g id="a_node6"><a xlink:href="$a00077.html#a193f32ef7dd91c2c633157bafea26080" xlink:title="gk_csr_ZScoreFilter">
<polygon fill="white" stroke="black" points="262,-126.5 262,-145.5 368,-145.5 368,-126.5 262,-126.5"/>
<text text-anchor="middle" x="315" y="-133.5" font-family="Helvetica,sans-Serif" font-size="10.00">gk_csr_ZScoreFilter</text>
</a>
</g>
</g>
<!-- Node97&#45;&gt;Node101 -->
<g id="edge5" class="edge"><title>Node97&#45;&gt;Node101</title>
<path fill="none" stroke="midnightblue" d="M230.517,-136C240.653,-136 251.477,-136 261.856,-136"/>
<polygon fill="midnightblue" stroke="midnightblue" points="230.25,-132.5 220.25,-136 230.25,-139.5 230.25,-132.5"/>
</g>
<!-- Node102 -->
<g id="node7" class="node"><title>Node102</title>
<g id="a_node7"><a xlink:href="$a00104.html#abc9e8f6a3efe2f0f3ec79b5d8883b246" xlink:title="gk_find_frequent_itemsets">
<polygon fill="white" stroke="black" points="410,-66.5 410,-85.5 544,-85.5 544,-66.5 410,-66.5"/>
<text text-anchor="middle" x="477" y="-73.5" font-family="Helvetica,sans-Serif" font-size="10.00">gk_find_frequent_itemsets</text>
</a>
</g>
</g>
<!-- Node97&#45;&gt;Node102 -->
<g id="edge6" class="edge"><title>Node97&#45;&gt;Node102</title>
<path fill="none" stroke="midnightblue" d="M228.158,-123.88C237.317,-121.469 246.952,-119.05 256,-117 310.563,-104.634 373.352,-93.2074 417.849,-85.5757"/>
<polygon fill="midnightblue" stroke="midnightblue" points="227.212,-120.51 218.457,-126.477 229.022,-127.272 227.212,-120.51"/>
</g>
<!-- Node103 -->
<g id="node8" class="node"><title>Node103</title>
<g id="a_node8"><a xlink:href="$a00104.html#ab19ae99e1e3ba575373cf0fe846a8cd9" xlink:title="itemsets_find_frequent\l_itemsets">
<polygon fill="white" stroke="black" points="256,-39 256,-69 374,-69 374,-39 256,-39"/>
<text text-anchor="start" x="264" y="-57" font-family="Helvetica,sans-Serif" font-size="10.00">itemsets_find_frequent</text>
<text text-anchor="middle" x="315" y="-46" font-family="Helvetica,sans-Serif" font-size="10.00">_itemsets</text>
</a>
</g>
</g>
<!-- Node97&#45;&gt;Node103 -->
<g id="edge7" class="edge"><title>Node97&#45;&gt;Node103</title>
<path fill="none" stroke="midnightblue" d="M204.835,-120.189C218.763,-109.41 238.039,-95.1297 256,-84 264.48,-78.7453 273.984,-73.5582 282.805,-69.0133"/>
<polygon fill="midnightblue" stroke="midnightblue" points="202.631,-117.469 196.913,-126.388 206.945,-122.982 202.631,-117.469"/>
</g>
<!-- Node104 -->
<g id="node9" class="node"><title>Node104</title>
<g id="a_node9"><a xlink:href="$a00867.html#a0ddf1224851353fc92bfbff6f499fa97" xlink:title="main">
<polygon fill="white" stroke="black" points="296,-0.5 296,-19.5 334,-19.5 334,-0.5 296,-0.5"/>
<text text-anchor="middle" x="315" y="-7.5" font-family="Helvetica,sans-Serif" font-size="10.00">main</text>
</a>
</g>
</g>
<!-- Node97&#45;&gt;Node104 -->
<g id="edge9" class="edge"><title>Node97&#45;&gt;Node104</title>
<path fill="none" stroke="midnightblue" d="M193.077,-116.957C204.023,-93.3274 225.735,-53.3121 256,-30 267.645,-21.0305 283.589,-15.9195 295.814,-13.1134"/>
<polygon fill="midnightblue" stroke="midnightblue" points="189.803,-115.705 188.932,-126.263 196.198,-118.553 189.803,-115.705"/>
</g>
<!-- Node103&#45;&gt;Node102 -->
<g id="edge8" class="edge"><title>Node103&#45;&gt;Node102</title>
<path fill="none" stroke="midnightblue" d="M384.15,-63.3707C392.705,-64.547 401.446,-65.7488 409.967,-66.9205"/>
<polygon fill="midnightblue" stroke="midnightblue" points="384.6,-59.8996 374.216,-62.0047 383.646,-66.8344 384.6,-59.8996"/>
</g>
</g>
</svg>
