<?xml version="1.0" encoding="UTF-8" standalone="no"?>
<!DOCTYPE svg PUBLIC "-//W3C//DTD SVG 1.1//EN"
 "http://www.w3.org/Graphics/SVG/1.1/DTD/svg11.dtd">
<!-- Generated by graphviz version 2.36.0 (20140111.2315)
 -->
<!-- Title: HTable_Resize Pages: 1 -->
<svg width="432pt" height="99pt"
 viewBox="0.00 0.00 432.00 98.98" xmlns="http://www.w3.org/2000/svg" xmlns:xlink="http://www.w3.org/1999/xlink">
<g id="graph0" class="graph" transform="scale(1 1) rotate(0) translate(4 94.9764)">
<title>HTable_Resize</title>
<polygon fill="white" stroke="none" points="-4,4 -4,-94.9764 428,-94.9764 428,4 -4,4"/>
<!-- Node1827 -->
<g id="node1" class="node"><title>Node1827</title>
<polygon fill="#bfbfbf" stroke="black" points="0.5,-52.4764 0.5,-71.4764 85.5,-71.4764 85.5,-52.4764 0.5,-52.4764"/>
<text text-anchor="middle" x="43" y="-59.4764" font-family="Helvetica,sans-Serif" font-size="10.00">HTable_Resize</text>
</g>
<!-- Node1828 -->
<g id="node2" class="node"><title>Node1828</title>
<g id="a_node2"><a xlink:href="$a00623.html#ad1e7380d51df1e0043d24d3c8a860e0a" xlink:title="for">
<polygon fill="white" stroke="black" points="384.5,-71.4764 384.5,-90.4764 413.5,-90.4764 413.5,-71.4764 384.5,-71.4764"/>
<text text-anchor="middle" x="399" y="-78.4764" font-family="Helvetica,sans-Serif" font-size="10.00">for</text>
</a>
</g>
</g>
<!-- Node1827&#45;&gt;Node1828 -->
<g id="edge1" class="edge"><title>Node1827&#45;&gt;Node1828</title>
<path fill="none" stroke="midnightblue" d="M75.5626,-71.4824C89.6341,-75.2466 106.501,-79.1159 122,-80.9764 214.713,-92.1057 326.21,-86.2909 374.167,-82.8797"/>
<polygon fill="midnightblue" stroke="midnightblue" points="374.721,-86.3483 384.434,-82.1157 374.202,-79.3676 374.721,-86.3483"/>
</g>
<!-- Node1829 -->
<g id="node3" class="node"><title>Node1829</title>
<g id="a_node3"><a xlink:href="$a00098.html#a39853dc7129323e7846d895c9026ad6f" xlink:title="HTable_Insert">
<polygon fill="white" stroke="black" points="122.5,-52.4764 122.5,-71.4764 201.5,-71.4764 201.5,-52.4764 122.5,-52.4764"/>
<text text-anchor="middle" x="162" y="-59.4764" font-family="Helvetica,sans-Serif" font-size="10.00">HTable_Insert</text>
</a>
</g>
</g>
<!-- Node1827&#45;&gt;Node1829 -->
<g id="edge2" class="edge"><title>Node1827&#45;&gt;Node1829</title>
<path fill="none" stroke="midnightblue" d="M85.5793,-61.9764C94.1713,-61.9764 103.296,-61.9764 112.121,-61.9764"/>
<polygon fill="midnightblue" stroke="midnightblue" points="112.292,-65.4765 122.292,-61.9764 112.292,-58.4765 112.292,-65.4765"/>
</g>
<!-- Node1831 -->
<g id="node5" class="node"><title>Node1831</title>
<g id="a_node5"><a xlink:href="$a00077.html#ac8df62c4e3d0910711a9874f9cc58884" xlink:title="gk_free">
<polygon fill="white" stroke="black" points="374,-14.4764 374,-33.4764 424,-33.4764 424,-14.4764 374,-14.4764"/>
<text text-anchor="middle" x="399" y="-21.4764" font-family="Helvetica,sans-Serif" font-size="10.00">gk_free</text>
</a>
</g>
</g>
<!-- Node1827&#45;&gt;Node1831 -->
<g id="edge8" class="edge"><title>Node1827&#45;&gt;Node1831</title>
<path fill="none" stroke="midnightblue" d="M68.3035,-52.3818C104.562,-38.6352 175.283,-13.9993 238,-4.9764 281.992,1.35251 294.077,1.81195 338,-4.9764 346.693,-6.31986 355.851,-8.69714 364.323,-11.3252"/>
<polygon fill="midnightblue" stroke="midnightblue" points="363.291,-14.6702 373.884,-14.4787 365.484,-8.02245 363.291,-14.6702"/>
</g>
<!-- Node1830 -->
<g id="node4" class="node"><title>Node1830</title>
<g id="a_node4"><a xlink:href="$a00098.html#ad79cb786b03a73481fb3e5846d345801" xlink:title="HTable_Resize">
<polygon fill="white" stroke="black" points="245.5,-52.4764 245.5,-71.4764 330.5,-71.4764 330.5,-52.4764 245.5,-52.4764"/>
<text text-anchor="middle" x="288" y="-59.4764" font-family="Helvetica,sans-Serif" font-size="10.00">HTable_Resize</text>
</a>
</g>
</g>
<!-- Node1829&#45;&gt;Node1830 -->
<g id="edge3" class="edge"><title>Node1829&#45;&gt;Node1830</title>
<path fill="none" stroke="midnightblue" d="M201.555,-55.6751C212.223,-55.2474 223.978,-55.1255 235.266,-55.3093"/>
<polygon fill="midnightblue" stroke="midnightblue" points="235.372,-58.813 245.457,-55.5642 235.547,-51.8152 235.372,-58.813"/>
</g>
<!-- Node1832 -->
<g id="node6" class="node"><title>Node1832</title>
<g id="a_node6"><a xlink:href="$a00098.html#afe255e126a6c4eec5efb11c3691b3155" xlink:title="HTable_HFunction">
<polygon fill="white" stroke="black" points="238,-14.4764 238,-33.4764 338,-33.4764 338,-14.4764 238,-14.4764"/>
<text text-anchor="middle" x="288" y="-21.4764" font-family="Helvetica,sans-Serif" font-size="10.00">HTable_HFunction</text>
</a>
</g>
</g>
<!-- Node1829&#45;&gt;Node1832 -->
<g id="edge7" class="edge"><title>Node1829&#45;&gt;Node1832</title>
<path fill="none" stroke="midnightblue" d="M194.29,-52.3874C210.004,-47.572 229.238,-41.6776 246.106,-36.5084"/>
<polygon fill="midnightblue" stroke="midnightblue" points="247.184,-39.8388 255.72,-33.5623 245.133,-33.146 247.184,-39.8388"/>
</g>
<!-- Node1830&#45;&gt;Node1828 -->
<g id="edge4" class="edge"><title>Node1830&#45;&gt;Node1828</title>
<path fill="none" stroke="midnightblue" d="M330.519,-69.2137C345.372,-71.8027 361.59,-74.6298 374.404,-76.8634"/>
<polygon fill="midnightblue" stroke="midnightblue" points="373.81,-80.3125 384.262,-78.5818 375.012,-73.4165 373.81,-80.3125"/>
</g>
<!-- Node1830&#45;&gt;Node1829 -->
<g id="edge5" class="edge"><title>Node1830&#45;&gt;Node1829</title>
<path fill="none" stroke="midnightblue" d="M245.457,-68.3886C234.6,-68.7597 222.801,-68.825 211.613,-68.5846"/>
<polygon fill="midnightblue" stroke="midnightblue" points="211.657,-65.0844 201.555,-68.2778 211.443,-72.0811 211.657,-65.0844"/>
</g>
<!-- Node1830&#45;&gt;Node1831 -->
<g id="edge6" class="edge"><title>Node1830&#45;&gt;Node1831</title>
<path fill="none" stroke="midnightblue" d="M316.505,-52.3874C330.991,-47.3373 348.881,-41.1006 364.205,-35.7582"/>
<polygon fill="midnightblue" stroke="midnightblue" points="365.553,-38.995 373.843,-32.398 363.248,-32.3851 365.553,-38.995"/>
</g>
</g>
</svg>
