<?xml version="1.0" encoding="UTF-8" standalone="no"?>
<!DOCTYPE svg PUBLIC "-//W3C//DTD SVG 1.1//EN"
 "http://www.w3.org/Graphics/SVG/1.1/DTD/svg11.dtd">
<!-- Generated by graphviz version 2.36.0 (20140111.2315)
 -->
<!-- Title: getpathname Pages: 1 -->
<svg width="520pt" height="125pt"
 viewBox="0.00 0.00 520.00 124.90" xmlns="http://www.w3.org/2000/svg" xmlns:xlink="http://www.w3.org/1999/xlink">
<g id="graph0" class="graph" transform="scale(1 1) rotate(0) translate(4 120.901)">
<title>getpathname</title>
<polygon fill="white" stroke="none" points="-4,4 -4,-120.901 516,-120.901 516,4 -4,4"/>
<!-- Node0 -->
<g id="node1" class="node"><title>Node0</title>
<polygon fill="#bfbfbf" stroke="black" points="0.5,-57.5 0.5,-76.5 75.5,-76.5 75.5,-57.5 0.5,-57.5"/>
<text text-anchor="middle" x="38" y="-64.5" font-family="Helvetica,sans-Serif" font-size="10.00">getpathname</text>
</g>
<!-- Node1 -->
<g id="node2" class="node"><title>Node1</title>
<g id="a_node2"><a xlink:href="$a00077.html#af62038e97ca55f14ec2557a01bd85ca2" xlink:title="Duplicates a string. ">
<polygon fill="white" stroke="black" points="112,-57.5 112,-76.5 172,-76.5 172,-57.5 112,-57.5"/>
<text text-anchor="middle" x="142" y="-64.5" font-family="Helvetica,sans-Serif" font-size="10.00">gk_strdup</text>
</a>
</g>
</g>
<!-- Node0&#45;&gt;Node1 -->
<g id="edge1" class="edge"><title>Node0&#45;&gt;Node1</title>
<path fill="none" stroke="midnightblue" d="M75.5362,-67C83.9893,-67 93.0203,-67 101.59,-67"/>
<polygon fill="midnightblue" stroke="midnightblue" points="101.745,-70.5001 111.745,-67 101.745,-63.5001 101.745,-70.5001"/>
</g>
<!-- Node2 -->
<g id="node3" class="node"><title>Node2</title>
<g id="a_node3"><a xlink:href="$a00077.html#aba6f76f5c67b9b7e9c2e45988d3d3e9d" xlink:title="gk_malloc">
<polygon fill="white" stroke="black" points="208,-57.5 208,-76.5 270,-76.5 270,-57.5 208,-57.5"/>
<text text-anchor="middle" x="239" y="-64.5" font-family="Helvetica,sans-Serif" font-size="10.00">gk_malloc</text>
</a>
</g>
</g>
<!-- Node1&#45;&gt;Node2 -->
<g id="edge2" class="edge"><title>Node1&#45;&gt;Node2</title>
<path fill="none" stroke="midnightblue" d="M172.019,-67C180.088,-67 189,-67 197.595,-67"/>
<polygon fill="midnightblue" stroke="midnightblue" points="197.844,-70.5001 207.844,-67 197.843,-63.5001 197.844,-70.5001"/>
</g>
<!-- Node3 -->
<g id="node4" class="node"><title>Node3</title>
<g id="a_node4"><a xlink:href="$a01017.html#a2e311a777ffe9c80e405efa7cd2757be" xlink:title="fprintf">
<polygon fill="white" stroke="black" points="470,-57.5 470,-76.5 512,-76.5 512,-57.5 470,-57.5"/>
<text text-anchor="middle" x="491" y="-64.5" font-family="Helvetica,sans-Serif" font-size="10.00">fprintf</text>
</a>
</g>
</g>
<!-- Node2&#45;&gt;Node3 -->
<g id="edge3" class="edge"><title>Node2&#45;&gt;Node3</title>
<path fill="none" stroke="midnightblue" d="M252.261,-76.7187C264.891,-86.0589 285.563,-99.5369 306,-105 360.959,-119.691 379.62,-121.709 434,-105 448.039,-100.686 461.719,-91.5255 472.044,-83.2793"/>
<polygon fill="midnightblue" stroke="midnightblue" points="474.469,-85.8134 479.862,-76.6941 469.959,-80.4595 474.469,-85.8134"/>
</g>
<!-- Node4 -->
<g id="node5" class="node"><title>Node4</title>
<g id="a_node5"><a xlink:href="$a00110.html#ad2327b94227019b6753b6b09400c0522" xlink:title="gk_GetCurMemoryUsed">
<polygon fill="white" stroke="black" points="308,-76.5 308,-95.5 432,-95.5 432,-76.5 308,-76.5"/>
<text text-anchor="middle" x="370" y="-83.5" font-family="Helvetica,sans-Serif" font-size="10.00">gk_GetCurMemoryUsed</text>
</a>
</g>
</g>
<!-- Node2&#45;&gt;Node4 -->
<g id="edge4" class="edge"><title>Node2&#45;&gt;Node4</title>
<path fill="none" stroke="midnightblue" d="M270.245,-71.4547C278.646,-72.692 288.139,-74.0903 297.836,-75.5184"/>
<polygon fill="midnightblue" stroke="midnightblue" points="297.573,-79.0175 307.977,-77.0121 298.593,-72.0922 297.573,-79.0175"/>
</g>
<!-- Node5 -->
<g id="node6" class="node"><title>Node5</title>
<g id="a_node6"><a xlink:href="$a00110.html#a656fd5266ae12a96e53125486f8fea52" xlink:title="gk_GetMaxMemoryUsed">
<polygon fill="white" stroke="black" points="306.5,-38.5 306.5,-57.5 433.5,-57.5 433.5,-38.5 306.5,-38.5"/>
<text text-anchor="middle" x="370" y="-45.5" font-family="Helvetica,sans-Serif" font-size="10.00">gk_GetMaxMemoryUsed</text>
</a>
</g>
</g>
<!-- Node2&#45;&gt;Node5 -->
<g id="edge5" class="edge"><title>Node2&#45;&gt;Node5</title>
<path fill="none" stroke="midnightblue" d="M270.245,-62.5453C278.229,-61.3693 287.2,-60.048 296.395,-58.6938"/>
<polygon fill="midnightblue" stroke="midnightblue" points="297.04,-62.1366 306.423,-57.2167 296.02,-55.2113 297.04,-62.1366"/>
</g>
<!-- Node6 -->
<g id="node7" class="node"><title>Node6</title>
<g id="a_node7"><a xlink:href="$a00026.html#a4c320c13bcdc9967613253ef4c73f59f" xlink:title="gk_errexit">
<polygon fill="white" stroke="black" points="340,-0.5 340,-19.5 400,-19.5 400,-0.5 340,-0.5"/>
<text text-anchor="middle" x="370" y="-7.5" font-family="Helvetica,sans-Serif" font-size="10.00">gk_errexit</text>
</a>
</g>
</g>
<!-- Node2&#45;&gt;Node6 -->
<g id="edge6" class="edge"><title>Node2&#45;&gt;Node6</title>
<path fill="none" stroke="midnightblue" d="M254.436,-57.3905C267.481,-49.027 287.428,-37.0202 306,-29 313.68,-25.6834 322.121,-22.7096 330.259,-20.1539"/>
<polygon fill="midnightblue" stroke="midnightblue" points="331.388,-23.4695 339.965,-17.2488 329.381,-16.7634 331.388,-23.4695"/>
</g>
<!-- Node6&#45;&gt;Node3 -->
<g id="edge7" class="edge"><title>Node6&#45;&gt;Node3</title>
<path fill="none" stroke="midnightblue" d="M400.228,-16.8252C411.104,-19.8755 423.377,-23.9396 434,-29 446.634,-35.0184 459.634,-43.6626 469.925,-51.1863"/>
<polygon fill="midnightblue" stroke="midnightblue" points="468.101,-54.1937 478.194,-57.4154 472.313,-48.6027 468.101,-54.1937"/>
</g>
</g>
</svg>
