<?xml version="1.0" encoding="UTF-8" standalone="no"?>
<!DOCTYPE svg PUBLIC "-//W3C//DTD SVG 1.1//EN"
 "http://www.w3.org/Graphics/SVG/1.1/DTD/svg11.dtd">
<!-- Generated by graphviz version 2.36.0 (20140111.2315)
 -->
<!-- Title: gk_graph_Init Pages: 1 -->
<svg width="464pt" height="142pt"
 viewBox="0.00 0.00 464.00 142.00" xmlns="http://www.w3.org/2000/svg" xmlns:xlink="http://www.w3.org/1999/xlink">
<g id="graph0" class="graph" transform="scale(1 1) rotate(0) translate(4 138)">
<title>gk_graph_Init</title>
<polygon fill="white" stroke="none" points="-4,4 -4,-138 460,-138 460,4 -4,4"/>
<!-- Node1134 -->
<g id="node1" class="node"><title>Node1134</title>
<polygon fill="#bfbfbf" stroke="black" points="0.5,-57.5 0.5,-76.5 77.5,-76.5 77.5,-57.5 0.5,-57.5"/>
<text text-anchor="middle" x="39" y="-64.5" font-family="Helvetica,sans-Serif" font-size="10.00">gk_graph_Init</text>
</g>
<!-- Node1135 -->
<g id="node2" class="node"><title>Node1135</title>
<g id="a_node2"><a xlink:href="$a00849.html#a0d092a371d797437de53ae1a64bd78f4" xlink:title="gk_graph_Create">
<polygon fill="white" stroke="black" points="114,-57.5 114,-76.5 208,-76.5 208,-57.5 114,-57.5"/>
<text text-anchor="middle" x="161" y="-64.5" font-family="Helvetica,sans-Serif" font-size="10.00">gk_graph_Create</text>
</a>
</g>
</g>
<!-- Node1134&#45;&gt;Node1135 -->
<g id="edge1" class="edge"><title>Node1134&#45;&gt;Node1135</title>
<path fill="none" stroke="midnightblue" d="M87.8009,-67C96.3104,-67 105.162,-67 113.63,-67"/>
<polygon fill="midnightblue" stroke="midnightblue" points="87.6395,-63.5001 77.6395,-67 87.6395,-70.5001 87.6395,-63.5001"/>
</g>
<!-- Node1136 -->
<g id="node3" class="node"><title>Node1136</title>
<g id="a_node3"><a xlink:href="$a00849.html#a432baae7f5c91c3604b42efb324b4131" xlink:title="gk_graph_Read">
<polygon fill="white" stroke="black" points="269,-114.5 269,-133.5 357,-133.5 357,-114.5 269,-114.5"/>
<text text-anchor="middle" x="313" y="-121.5" font-family="Helvetica,sans-Serif" font-size="10.00">gk_graph_Read</text>
</a>
</g>
</g>
<!-- Node1135&#45;&gt;Node1136 -->
<g id="edge2" class="edge"><title>Node1135&#45;&gt;Node1136</title>
<path fill="none" stroke="midnightblue" d="M189.657,-81.1777C205.336,-88.8676 225.469,-98.1682 244,-105 253.431,-108.477 263.797,-111.676 273.531,-114.418"/>
<polygon fill="midnightblue" stroke="midnightblue" points="191.037,-77.9548 180.525,-76.6343 187.919,-84.2221 191.037,-77.9548"/>
</g>
<!-- Node1138 -->
<g id="node5" class="node"><title>Node1138</title>
<g id="a_node5"><a xlink:href="$a00849.html#a24db906b45a9848fc26c49cb967d68c8" xlink:title="gk_graph_Dup">
<polygon fill="white" stroke="black" points="272,-76.5 272,-95.5 354,-95.5 354,-76.5 272,-76.5"/>
<text text-anchor="middle" x="313" y="-83.5" font-family="Helvetica,sans-Serif" font-size="10.00">gk_graph_Dup</text>
</a>
</g>
</g>
<!-- Node1135&#45;&gt;Node1138 -->
<g id="edge4" class="edge"><title>Node1135&#45;&gt;Node1138</title>
<path fill="none" stroke="midnightblue" d="M218.463,-74.152C236.19,-76.3974 255.391,-78.8295 271.757,-80.9025"/>
<polygon fill="midnightblue" stroke="midnightblue" points="218.589,-70.6401 208.229,-72.8557 217.71,-77.5846 218.589,-70.6401"/>
</g>
<!-- Node1139 -->
<g id="node6" class="node"><title>Node1139</title>
<g id="a_node6"><a xlink:href="$a00849.html#a1d2e1fe0550575de31f32a8c146f6643" xlink:title="gk_graph_ExtractSubgraph">
<polygon fill="white" stroke="black" points="244,-38.5 244,-57.5 382,-57.5 382,-38.5 244,-38.5"/>
<text text-anchor="middle" x="313" y="-45.5" font-family="Helvetica,sans-Serif" font-size="10.00">gk_graph_ExtractSubgraph</text>
</a>
</g>
</g>
<!-- Node1135&#45;&gt;Node1139 -->
<g id="edge5" class="edge"><title>Node1135&#45;&gt;Node1139</title>
<path fill="none" stroke="midnightblue" d="M218.234,-59.8771C226.596,-58.8178 235.291,-57.7164 243.866,-56.6304"/>
<polygon fill="midnightblue" stroke="midnightblue" points="217.71,-56.4154 208.229,-61.1443 218.589,-63.3599 217.71,-56.4154"/>
</g>
<!-- Node1140 -->
<g id="node7" class="node"><title>Node1140</title>
<g id="a_node7"><a xlink:href="$a00849.html#aab929d2134ffb92863867c93a0ce1f27" xlink:title="gk_graph_Reorder">
<polygon fill="white" stroke="black" points="263,-0.5 263,-19.5 363,-19.5 363,-0.5 263,-0.5"/>
<text text-anchor="middle" x="313" y="-7.5" font-family="Helvetica,sans-Serif" font-size="10.00">gk_graph_Reorder</text>
</a>
</g>
</g>
<!-- Node1135&#45;&gt;Node1140 -->
<g id="edge6" class="edge"><title>Node1135&#45;&gt;Node1140</title>
<path fill="none" stroke="midnightblue" d="M189.657,-52.8223C205.336,-45.1324 225.469,-35.8318 244,-29 253.431,-25.5231 263.797,-22.3242 273.531,-19.582"/>
<polygon fill="midnightblue" stroke="midnightblue" points="187.919,-49.7779 180.525,-57.3657 191.037,-56.0452 187.919,-49.7779"/>
</g>
<!-- Node1137 -->
<g id="node4" class="node"><title>Node1137</title>
<g id="a_node4"><a xlink:href="$a00149.html#a0ddf1224851353fc92bfbff6f499fa97" xlink:title="main">
<polygon fill="white" stroke="black" points="418,-57.5 418,-76.5 456,-76.5 456,-57.5 418,-57.5"/>
<text text-anchor="middle" x="437" y="-64.5" font-family="Helvetica,sans-Serif" font-size="10.00">main</text>
</a>
</g>
</g>
<!-- Node1136&#45;&gt;Node1137 -->
<g id="edge3" class="edge"><title>Node1136&#45;&gt;Node1137</title>
<path fill="none" stroke="midnightblue" d="M366.503,-111.293C371.831,-109.424 377.085,-107.331 382,-105 397.951,-97.4352 414.252,-85.2205 424.71,-76.6878"/>
<polygon fill="midnightblue" stroke="midnightblue" points="365.319,-107.998 356.89,-114.416 367.482,-114.655 365.319,-107.998"/>
</g>
<!-- Node1140&#45;&gt;Node1137 -->
<g id="edge7" class="edge"><title>Node1140&#45;&gt;Node1137</title>
<path fill="none" stroke="midnightblue" d="M366.503,-22.7069C371.831,-24.5756 377.085,-26.6692 382,-29 397.951,-36.5648 414.252,-48.7795 424.71,-57.3122"/>
<polygon fill="midnightblue" stroke="midnightblue" points="367.482,-19.3449 356.89,-19.5836 365.319,-26.0024 367.482,-19.3449"/>
</g>
</g>
</svg>
