<?xml version="1.0" encoding="UTF-8" standalone="no"?>
<!DOCTYPE svg PUBLIC "-//W3C//DTD SVG 1.1//EN"
 "http://www.w3.org/Graphics/SVG/1.1/DTD/svg11.dtd">
<!-- Generated by graphviz version 2.36.0 (20140111.2315)
 -->
<!-- Title: HTable_Create Pages: 1 -->
<svg width="450pt" height="124pt"
 viewBox="0.00 0.00 450.00 124.44" xmlns="http://www.w3.org/2000/svg" xmlns:xlink="http://www.w3.org/1999/xlink">
<g id="graph0" class="graph" transform="scale(1 1) rotate(0) translate(4 120.44)">
<title>HTable_Create</title>
<polygon fill="white" stroke="none" points="-4,4 -4,-120.44 446,-120.44 446,4 -4,4"/>
<!-- Node0 -->
<g id="node1" class="node"><title>Node0</title>
<polygon fill="#bfbfbf" stroke="black" points="0,-38.5 0,-57.5 84,-57.5 84,-38.5 0,-38.5"/>
<text text-anchor="middle" x="42" y="-45.5" font-family="Helvetica,sans-Serif" font-size="10.00">HTable_Create</text>
</g>
<!-- Node1 -->
<g id="node2" class="node"><title>Node1</title>
<g id="a_node2"><a xlink:href="$a00077.html#aba6f76f5c67b9b7e9c2e45988d3d3e9d" xlink:title="gk_malloc">
<polygon fill="white" stroke="black" points="129,-57.5 129,-76.5 191,-76.5 191,-57.5 129,-57.5"/>
<text text-anchor="middle" x="160" y="-64.5" font-family="Helvetica,sans-Serif" font-size="10.00">gk_malloc</text>
</a>
</g>
</g>
<!-- Node0&#45;&gt;Node1 -->
<g id="edge1" class="edge"><title>Node0&#45;&gt;Node1</title>
<path fill="none" stroke="midnightblue" d="M84.2239,-54.7522C95.4918,-56.5978 107.684,-58.5948 118.889,-60.4301"/>
<polygon fill="midnightblue" stroke="midnightblue" points="118.412,-63.8986 128.846,-62.0611 119.544,-56.9906 118.412,-63.8986"/>
</g>
<!-- Node6 -->
<g id="node7" class="node"><title>Node6</title>
<g id="a_node7"><a xlink:href="$a00098.html#a8a914231592293527bd1f42cdfb346d4" xlink:title="HTable_Reset">
<polygon fill="white" stroke="black" points="120,-19.5 120,-38.5 200,-38.5 200,-19.5 120,-19.5"/>
<text text-anchor="middle" x="160" y="-26.5" font-family="Helvetica,sans-Serif" font-size="10.00">HTable_Reset</text>
</a>
</g>
</g>
<!-- Node0&#45;&gt;Node6 -->
<g id="edge7" class="edge"><title>Node0&#45;&gt;Node6</title>
<path fill="none" stroke="midnightblue" d="M84.2239,-41.2478C92.5552,-39.8832 101.392,-38.4358 109.961,-37.0322"/>
<polygon fill="midnightblue" stroke="midnightblue" points="110.549,-40.4827 119.852,-35.4123 109.417,-33.5748 110.549,-40.4827"/>
</g>
<!-- Node2 -->
<g id="node3" class="node"><title>Node2</title>
<g id="a_node3"><a xlink:href="$a01017.html#a2e311a777ffe9c80e405efa7cd2757be" xlink:title="fprintf">
<polygon fill="white" stroke="black" points="400,-57.5 400,-76.5 442,-76.5 442,-57.5 400,-57.5"/>
<text text-anchor="middle" x="421" y="-64.5" font-family="Helvetica,sans-Serif" font-size="10.00">fprintf</text>
</a>
</g>
</g>
<!-- Node1&#45;&gt;Node2 -->
<g id="edge2" class="edge"><title>Node1&#45;&gt;Node2</title>
<path fill="none" stroke="midnightblue" d="M174.876,-76.5594C189.371,-85.9176 213.142,-99.5398 236,-105 291.332,-118.218 309.62,-121.709 364,-105 378.039,-100.686 391.719,-91.5255 402.044,-83.2793"/>
<polygon fill="midnightblue" stroke="midnightblue" points="404.469,-85.8134 409.862,-76.6941 399.959,-80.4595 404.469,-85.8134"/>
</g>
<!-- Node3 -->
<g id="node4" class="node"><title>Node3</title>
<g id="a_node4"><a xlink:href="$a00110.html#ad2327b94227019b6753b6b09400c0522" xlink:title="gk_GetCurMemoryUsed">
<polygon fill="white" stroke="black" points="238,-76.5 238,-95.5 362,-95.5 362,-76.5 238,-76.5"/>
<text text-anchor="middle" x="300" y="-83.5" font-family="Helvetica,sans-Serif" font-size="10.00">gk_GetCurMemoryUsed</text>
</a>
</g>
</g>
<!-- Node1&#45;&gt;Node3 -->
<g id="edge3" class="edge"><title>Node1&#45;&gt;Node3</title>
<path fill="none" stroke="midnightblue" d="M191.285,-71.1696C202.115,-72.6608 214.828,-74.411 227.648,-76.1762"/>
<polygon fill="midnightblue" stroke="midnightblue" points="227.536,-79.6936 237.92,-77.5904 228.49,-72.7591 227.536,-79.6936"/>
</g>
<!-- Node4 -->
<g id="node5" class="node"><title>Node4</title>
<g id="a_node5"><a xlink:href="$a00110.html#a656fd5266ae12a96e53125486f8fea52" xlink:title="gk_GetMaxMemoryUsed">
<polygon fill="white" stroke="black" points="236.5,-38.5 236.5,-57.5 363.5,-57.5 363.5,-38.5 236.5,-38.5"/>
<text text-anchor="middle" x="300" y="-45.5" font-family="Helvetica,sans-Serif" font-size="10.00">gk_GetMaxMemoryUsed</text>
</a>
</g>
</g>
<!-- Node1&#45;&gt;Node4 -->
<g id="edge4" class="edge"><title>Node1&#45;&gt;Node4</title>
<path fill="none" stroke="midnightblue" d="M191.285,-62.8304C201.74,-61.3909 213.948,-59.71 226.315,-58.0074"/>
<polygon fill="midnightblue" stroke="midnightblue" points="226.807,-61.4727 236.236,-56.6414 225.852,-54.5381 226.807,-61.4727"/>
</g>
<!-- Node5 -->
<g id="node6" class="node"><title>Node5</title>
<g id="a_node6"><a xlink:href="$a00026.html#a4c320c13bcdc9967613253ef4c73f59f" xlink:title="gk_errexit">
<polygon fill="white" stroke="black" points="270,-0.5 270,-19.5 330,-19.5 330,-0.5 270,-0.5"/>
<text text-anchor="middle" x="300" y="-7.5" font-family="Helvetica,sans-Serif" font-size="10.00">gk_errexit</text>
</a>
</g>
</g>
<!-- Node1&#45;&gt;Node5 -->
<g id="edge5" class="edge"><title>Node1&#45;&gt;Node5</title>
<path fill="none" stroke="midnightblue" d="M180.902,-57.4575C187.046,-54.4704 193.821,-51.1349 200,-48 216.134,-39.8149 219.262,-35.866 236,-29 243.664,-25.856 252.042,-22.9687 260.113,-20.4448"/>
<polygon fill="midnightblue" stroke="midnightblue" points="261.168,-23.7826 269.738,-17.5538 259.154,-17.0785 261.168,-23.7826"/>
</g>
<!-- Node5&#45;&gt;Node2 -->
<g id="edge6" class="edge"><title>Node5&#45;&gt;Node2</title>
<path fill="none" stroke="midnightblue" d="M330.228,-16.8252C341.104,-19.8755 353.377,-23.9396 364,-29 376.634,-35.0184 389.634,-43.6626 399.925,-51.1863"/>
<polygon fill="midnightblue" stroke="midnightblue" points="398.101,-54.1937 408.194,-57.4154 402.313,-48.6027 398.101,-54.1937"/>
</g>
</g>
</svg>
