<?xml version="1.0" encoding="UTF-8" standalone="no"?>
<!DOCTYPE svg PUBLIC "-//W3C//DTD SVG 1.1//EN"
 "http://www.w3.org/Graphics/SVG/1.1/DTD/svg11.dtd">
<!-- Generated by graphviz version 2.36.0 (20140111.2315)
 -->
<!-- Title: gk_idxsorti Pages: 1 -->
<svg width="250pt" height="28pt"
 viewBox="0.00 0.00 250.00 28.00" xmlns="http://www.w3.org/2000/svg" xmlns:xlink="http://www.w3.org/1999/xlink">
<g id="graph0" class="graph" transform="scale(1 1) rotate(0) translate(4 24)">
<title>gk_idxsorti</title>
<polygon fill="white" stroke="none" points="-4,4 -4,-24 246,-24 246,4 -4,4"/>
<!-- Node1271 -->
<g id="node1" class="node"><title>Node1271</title>
<polygon fill="#bfbfbf" stroke="black" points="0,-0.5 0,-19.5 64,-19.5 64,-0.5 0,-0.5"/>
<text text-anchor="middle" x="32" y="-7.5" font-family="Helvetica,sans-Serif" font-size="10.00">gk_idxsorti</text>
</g>
<!-- Node1272 -->
<g id="node2" class="node"><title>Node1272</title>
<g id="a_node2"><a xlink:href="$a00152.html#a3a4da1d3370fc7c176261dfc8eef5691" xlink:title="test_idxsort">
<polygon fill="white" stroke="black" points="100,-0.5 100,-19.5 168,-19.5 168,-0.5 100,-0.5"/>
<text text-anchor="middle" x="134" y="-7.5" font-family="Helvetica,sans-Serif" font-size="10.00">test_idxsort</text>
</a>
</g>
</g>
<!-- Node1271&#45;&gt;Node1272 -->
<g id="edge1" class="edge"><title>Node1271&#45;&gt;Node1272</title>
<path fill="none" stroke="midnightblue" d="M74.2497,-10C82.7763,-10 91.6533,-10 99.8469,-10"/>
<polygon fill="midnightblue" stroke="midnightblue" points="74.0925,-6.5001 64.0925,-10 74.0924,-13.5001 74.0925,-6.5001"/>
</g>
<!-- Node1273 -->
<g id="node3" class="node"><title>Node1273</title>
<g id="a_node3"><a xlink:href="$a00152.html#ae66f6b31b5ad750f1fe042a706a4e3d4" xlink:title="main">
<polygon fill="white" stroke="black" points="204,-0.5 204,-19.5 242,-19.5 242,-0.5 204,-0.5"/>
<text text-anchor="middle" x="223" y="-7.5" font-family="Helvetica,sans-Serif" font-size="10.00">main</text>
</a>
</g>
</g>
<!-- Node1272&#45;&gt;Node1273 -->
<g id="edge2" class="edge"><title>Node1272&#45;&gt;Node1273</title>
<path fill="none" stroke="midnightblue" d="M178.458,-10C187.452,-10 196.447,-10 203.908,-10"/>
<polygon fill="midnightblue" stroke="midnightblue" points="178.388,-6.5001 168.388,-10 178.388,-13.5001 178.388,-6.5001"/>
</g>
</g>
</svg>
