<?xml version="1.0" encoding="UTF-8" standalone="no"?>
<!DOCTYPE svg PUBLIC "-//W3C//DTD SVG 1.1//EN"
 "http://www.w3.org/Graphics/SVG/1.1/DTD/svg11.dtd">
<!-- Generated by graphviz version 2.36.0 (20140111.2315)
 -->
<!-- Title: HTable_SearchAndDelete Pages: 1 -->
<svg width="356pt" height="66pt"
 viewBox="0.00 0.00 356.00 66.00" xmlns="http://www.w3.org/2000/svg" xmlns:xlink="http://www.w3.org/1999/xlink">
<g id="graph0" class="graph" transform="scale(1 1) rotate(0) translate(4 62)">
<title>HTable_SearchAndDelete</title>
<polygon fill="white" stroke="none" points="-4,4 -4,-62 352,-62 352,4 -4,4"/>
<!-- Node45 -->
<g id="node1" class="node"><title>Node45</title>
<polygon fill="#bfbfbf" stroke="black" points="0.5,-19.5 0.5,-38.5 133.5,-38.5 133.5,-19.5 0.5,-19.5"/>
<text text-anchor="middle" x="67" y="-26.5" font-family="Helvetica,sans-Serif" font-size="10.00">HTable_SearchAndDelete</text>
</g>
<!-- Node46 -->
<g id="node2" class="node"><title>Node46</title>
<g id="a_node2"><a xlink:href="$a00098.html#afe255e126a6c4eec5efb11c3691b3155" xlink:title="HTable_HFunction">
<polygon fill="white" stroke="black" points="170,-38.5 170,-57.5 270,-57.5 270,-38.5 170,-38.5"/>
<text text-anchor="middle" x="220" y="-45.5" font-family="Helvetica,sans-Serif" font-size="10.00">HTable_HFunction</text>
</a>
</g>
</g>
<!-- Node45&#45;&gt;Node46 -->
<g id="edge1" class="edge"><title>Node45&#45;&gt;Node46</title>
<path fill="none" stroke="midnightblue" d="M133.792,-37.2784C142.38,-38.3591 151.139,-39.4611 159.613,-40.5275"/>
<polygon fill="midnightblue" stroke="midnightblue" points="159.42,-44.0307 169.779,-41.8066 160.294,-37.0855 159.42,-44.0307"/>
</g>
<!-- Node47 -->
<g id="node3" class="node"><title>Node47</title>
<g id="a_node3"><a xlink:href="$a00026.html#a4c320c13bcdc9967613253ef4c73f59f" xlink:title="gk_errexit">
<polygon fill="white" stroke="black" points="190,-0.5 190,-19.5 250,-19.5 250,-0.5 190,-0.5"/>
<text text-anchor="middle" x="220" y="-7.5" font-family="Helvetica,sans-Serif" font-size="10.00">gk_errexit</text>
</a>
</g>
</g>
<!-- Node45&#45;&gt;Node47 -->
<g id="edge2" class="edge"><title>Node45&#45;&gt;Node47</title>
<path fill="none" stroke="midnightblue" d="M133.792,-20.7216C149.371,-18.7612 165.512,-16.7303 179.5,-14.9702"/>
<polygon fill="midnightblue" stroke="midnightblue" points="180.247,-18.4039 189.732,-13.6827 179.373,-11.4586 180.247,-18.4039"/>
</g>
<!-- Node48 -->
<g id="node4" class="node"><title>Node48</title>
<g id="a_node4"><a xlink:href="$a01017.html#a2e311a777ffe9c80e405efa7cd2757be" xlink:title="fprintf">
<polygon fill="white" stroke="black" points="306,-0.5 306,-19.5 348,-19.5 348,-0.5 306,-0.5"/>
<text text-anchor="middle" x="327" y="-7.5" font-family="Helvetica,sans-Serif" font-size="10.00">fprintf</text>
</a>
</g>
</g>
<!-- Node47&#45;&gt;Node48 -->
<g id="edge3" class="edge"><title>Node47&#45;&gt;Node48</title>
<path fill="none" stroke="midnightblue" d="M250.248,-10C264.368,-10 281.3,-10 295.571,-10"/>
<polygon fill="midnightblue" stroke="midnightblue" points="295.875,-13.5001 305.875,-10 295.875,-6.5001 295.875,-13.5001"/>
</g>
</g>
</svg>
