<?xml version="1.0" encoding="UTF-8" standalone="no"?>
<!DOCTYPE svg PUBLIC "-//W3C//DTD SVG 1.1//EN"
 "http://www.w3.org/Graphics/SVG/1.1/DTD/svg11.dtd">
<!-- Generated by graphviz version 2.36.0 (20140111.2315)
 -->
<!-- Title: gk_graph_Read Pages: 1 -->
<svg width="582pt" height="294pt"
 viewBox="0.00 0.00 582.00 294.00" xmlns="http://www.w3.org/2000/svg" xmlns:xlink="http://www.w3.org/1999/xlink">
<g id="graph0" class="graph" transform="scale(1 1) rotate(0) translate(4 290)">
<title>gk_graph_Read</title>
<polygon fill="white" stroke="none" points="-4,4 -4,-290 578,-290 578,4 -4,4"/>
<!-- Node1141 -->
<g id="node1" class="node"><title>Node1141</title>
<polygon fill="#bfbfbf" stroke="black" points="0,-133.5 0,-152.5 88,-152.5 88,-133.5 0,-133.5"/>
<text text-anchor="middle" x="44" y="-140.5" font-family="Helvetica,sans-Serif" font-size="10.00">gk_graph_Read</text>
</g>
<!-- Node1142 -->
<g id="node2" class="node"><title>Node1142</title>
<g id="a_node2"><a xlink:href="$a00035.html#a627221a374552b5b6659d855b7446187" xlink:title="gk_fexists">
<polygon fill="white" stroke="black" points="140.5,-266.5 140.5,-285.5 201.5,-285.5 201.5,-266.5 140.5,-266.5"/>
<text text-anchor="middle" x="171" y="-273.5" font-family="Helvetica,sans-Serif" font-size="10.00">gk_fexists</text>
</a>
</g>
</g>
<!-- Node1141&#45;&gt;Node1142 -->
<g id="edge1" class="edge"><title>Node1141&#45;&gt;Node1142</title>
<path fill="none" stroke="midnightblue" d="M49.3036,-152.641C59.376,-174.2 86.5,-226.784 124,-257 126.271,-258.83 128.742,-260.507 131.322,-262.041"/>
<polygon fill="midnightblue" stroke="midnightblue" points="129.885,-265.238 140.377,-266.713 133.095,-259.017 129.885,-265.238"/>
</g>
<!-- Node1143 -->
<g id="node3" class="node"><title>Node1143</title>
<g id="a_node3"><a xlink:href="$a00026.html#a4c320c13bcdc9967613253ef4c73f59f" xlink:title="gk_errexit">
<polygon fill="white" stroke="black" points="402,-152.5 402,-171.5 462,-171.5 462,-152.5 402,-152.5"/>
<text text-anchor="middle" x="432" y="-159.5" font-family="Helvetica,sans-Serif" font-size="10.00">gk_errexit</text>
</a>
</g>
</g>
<!-- Node1141&#45;&gt;Node1143 -->
<g id="edge2" class="edge"><title>Node1141&#45;&gt;Node1143</title>
<path fill="none" stroke="midnightblue" d="M88.1555,-145.124C163.721,-148.844 318.866,-156.48 391.657,-160.063"/>
<polygon fill="midnightblue" stroke="midnightblue" points="391.62,-163.566 401.78,-160.562 391.964,-156.574 391.62,-163.566"/>
</g>
<!-- Node1145 -->
<g id="node5" class="node"><title>Node1145</title>
<g id="a_node5"><a xlink:href="$a00077.html#ab2b996e10c5bccb30204d81804adfd24" xlink:title="gk_fopen">
<polygon fill="white" stroke="black" points="142,-228.5 142,-247.5 200,-247.5 200,-228.5 142,-228.5"/>
<text text-anchor="middle" x="171" y="-235.5" font-family="Helvetica,sans-Serif" font-size="10.00">gk_fopen</text>
</a>
</g>
</g>
<!-- Node1141&#45;&gt;Node1145 -->
<g id="edge4" class="edge"><title>Node1141&#45;&gt;Node1145</title>
<path fill="none" stroke="midnightblue" d="M54.0744,-152.573C68.1286,-167.055 96.4242,-194.87 124,-214 128.931,-217.421 134.411,-220.687 139.82,-223.646"/>
<polygon fill="midnightblue" stroke="midnightblue" points="138.264,-226.782 148.748,-228.312 141.506,-220.578 138.264,-226.782"/>
</g>
<!-- Node1146 -->
<g id="node6" class="node"><title>Node1146</title>
<g id="a_node6"><a xlink:href="$a00575.html#ae6aab5c308faac0fc539cc9c6da9fbd0" xlink:title="sprintf">
<polygon fill="white" stroke="black" points="271,-190.5 271,-209.5 315,-209.5 315,-190.5 271,-190.5"/>
<text text-anchor="middle" x="293" y="-197.5" font-family="Helvetica,sans-Serif" font-size="10.00">sprintf</text>
</a>
</g>
</g>
<!-- Node1141&#45;&gt;Node1146 -->
<g id="edge15" class="edge"><title>Node1141&#45;&gt;Node1146</title>
<path fill="none" stroke="midnightblue" d="M63.9936,-152.545C79.7013,-160.041 102.792,-170.158 124,-176 170.648,-188.85 226.584,-195.09 260.693,-197.912"/>
<polygon fill="midnightblue" stroke="midnightblue" points="260.72,-201.425 270.962,-198.713 261.264,-194.446 260.72,-201.425"/>
</g>
<!-- Node1148 -->
<g id="node8" class="node"><title>Node1148</title>
<g id="a_node8"><a xlink:href="$a00077.html#ad8263f64108434d7ebab9799b5ab9632" xlink:title="gk_getline">
<polygon fill="white" stroke="black" points="140,-114.5 140,-133.5 202,-133.5 202,-114.5 140,-114.5"/>
<text text-anchor="middle" x="171" y="-121.5" font-family="Helvetica,sans-Serif" font-size="10.00">gk_getline</text>
</a>
</g>
</g>
<!-- Node1141&#45;&gt;Node1148 -->
<g id="edge8" class="edge"><title>Node1141&#45;&gt;Node1148</title>
<path fill="none" stroke="midnightblue" d="M88.0179,-136.461C101.503,-134.412 116.333,-132.157 129.629,-130.136"/>
<polygon fill="midnightblue" stroke="midnightblue" points="130.547,-133.537 139.908,-128.574 129.495,-126.617 130.547,-133.537"/>
</g>
<!-- Node1153 -->
<g id="node13" class="node"><title>Node1153</title>
<g id="a_node13"><a xlink:href="$a00849.html#a0d092a371d797437de53ae1a64bd78f4" xlink:title="gk_graph_Create">
<polygon fill="white" stroke="black" points="124,-76.5 124,-95.5 218,-95.5 218,-76.5 124,-76.5"/>
<text text-anchor="middle" x="171" y="-83.5" font-family="Helvetica,sans-Serif" font-size="10.00">gk_graph_Create</text>
</a>
</g>
</g>
<!-- Node1141&#45;&gt;Node1153 -->
<g id="edge16" class="edge"><title>Node1141&#45;&gt;Node1153</title>
<path fill="none" stroke="midnightblue" d="M64.0147,-133.48C79.9291,-125.603 103.294,-114.247 124,-105 128.105,-103.167 132.442,-101.294 136.746,-99.473"/>
<polygon fill="midnightblue" stroke="midnightblue" points="138.134,-102.686 146.015,-95.6061 135.439,-96.2261 138.134,-102.686"/>
</g>
<!-- Node1155 -->
<g id="node15" class="node"><title>Node1155</title>
<g id="a_node15"><a xlink:href="$a00077.html#a0fd03cab5187904b005485109d9fa2b5" xlink:title="gk_fclose">
<polygon fill="white" stroke="black" points="141.5,-38.5 141.5,-57.5 200.5,-57.5 200.5,-38.5 141.5,-38.5"/>
<text text-anchor="middle" x="171" y="-45.5" font-family="Helvetica,sans-Serif" font-size="10.00">gk_fclose</text>
</a>
</g>
</g>
<!-- Node1141&#45;&gt;Node1155 -->
<g id="edge19" class="edge"><title>Node1141&#45;&gt;Node1155</title>
<path fill="none" stroke="midnightblue" d="M52.8433,-133.404C66.0917,-117.711 94.3684,-86.366 124,-67 126.748,-65.2037 129.695,-63.5221 132.719,-61.9606"/>
<polygon fill="midnightblue" stroke="midnightblue" points="134.346,-65.0631 141.908,-57.6422 131.369,-58.7278 134.346,-65.0631"/>
</g>
<!-- Node1157 -->
<g id="node17" class="node"><title>Node1157</title>
<g id="a_node17"><a xlink:href="$a00077.html#ac8df62c4e3d0910711a9874f9cc58884" xlink:title="gk_free">
<polygon fill="white" stroke="black" points="146,-0.5 146,-19.5 196,-19.5 196,-0.5 146,-0.5"/>
<text text-anchor="middle" x="171" y="-7.5" font-family="Helvetica,sans-Serif" font-size="10.00">gk_free</text>
</a>
</g>
</g>
<!-- Node1141&#45;&gt;Node1157 -->
<g id="edge21" class="edge"><title>Node1141&#45;&gt;Node1157</title>
<path fill="none" stroke="midnightblue" d="M49.3036,-133.359C59.376,-111.8 86.5,-59.2163 124,-29 127.755,-25.9742 132.059,-23.3647 136.495,-21.1337"/>
<polygon fill="midnightblue" stroke="midnightblue" points="137.927,-24.3274 145.649,-17.074 135.089,-17.9284 137.927,-24.3274"/>
</g>
<!-- Node1144 -->
<g id="node4" class="node"><title>Node1144</title>
<g id="a_node4"><a xlink:href="$a01017.html#a2e311a777ffe9c80e405efa7cd2757be" xlink:title="fprintf">
<polygon fill="white" stroke="black" points="532,-152.5 532,-171.5 574,-171.5 574,-152.5 532,-152.5"/>
<text text-anchor="middle" x="553" y="-159.5" font-family="Helvetica,sans-Serif" font-size="10.00">fprintf</text>
</a>
</g>
</g>
<!-- Node1143&#45;&gt;Node1144 -->
<g id="edge3" class="edge"><title>Node1143&#45;&gt;Node1144</title>
<path fill="none" stroke="midnightblue" d="M462.111,-162C480.172,-162 503.339,-162 521.631,-162"/>
<polygon fill="midnightblue" stroke="midnightblue" points="521.762,-165.5 531.762,-162 521.762,-158.5 521.762,-165.5"/>
</g>
<!-- Node1145&#45;&gt;Node1146 -->
<g id="edge5" class="edge"><title>Node1145&#45;&gt;Node1146</title>
<path fill="none" stroke="midnightblue" d="M200.135,-229.091C218.456,-223.289 242.36,-215.719 261.192,-209.756"/>
<polygon fill="midnightblue" stroke="midnightblue" points="262.316,-213.071 270.792,-206.716 260.202,-206.398 262.316,-213.071"/>
</g>
<!-- Node1147 -->
<g id="node7" class="node"><title>Node1147</title>
<g id="a_node7"><a xlink:href="$a00026.html#a56d0f2cc40cd8633a784582d6200d8b5" xlink:title="errexit">
<polygon fill="white" stroke="black" points="410,-209.5 410,-228.5 454,-228.5 454,-209.5 410,-209.5"/>
<text text-anchor="middle" x="432" y="-216.5" font-family="Helvetica,sans-Serif" font-size="10.00">errexit</text>
</a>
</g>
</g>
<!-- Node1145&#45;&gt;Node1147 -->
<g id="edge6" class="edge"><title>Node1145&#45;&gt;Node1147</title>
<path fill="none" stroke="midnightblue" d="M200.211,-235.93C249.049,-232.348 348.985,-225.017 399.816,-221.288"/>
<polygon fill="midnightblue" stroke="midnightblue" points="400.164,-224.772 409.881,-220.549 399.652,-217.79 400.164,-224.772"/>
</g>
<!-- Node1147&#45;&gt;Node1144 -->
<g id="edge7" class="edge"><title>Node1147&#45;&gt;Node1144</title>
<path fill="none" stroke="midnightblue" d="M452.918,-209.459C472.053,-200.294 501.184,-186.341 522.913,-175.932"/>
<polygon fill="midnightblue" stroke="midnightblue" points="524.51,-179.048 532.017,-171.572 521.486,-172.735 524.51,-179.048"/>
</g>
<!-- Node1149 -->
<g id="node9" class="node"><title>Node1149</title>
<g id="a_node9"><a xlink:href="$a00077.html#aba6f76f5c67b9b7e9c2e45988d3d3e9d" xlink:title="gk_malloc">
<polygon fill="white" stroke="black" points="262,-76.5 262,-95.5 324,-95.5 324,-76.5 262,-76.5"/>
<text text-anchor="middle" x="293" y="-83.5" font-family="Helvetica,sans-Serif" font-size="10.00">gk_malloc</text>
</a>
</g>
</g>
<!-- Node1148&#45;&gt;Node1149 -->
<g id="edge9" class="edge"><title>Node1148&#45;&gt;Node1149</title>
<path fill="none" stroke="midnightblue" d="M202.281,-114.411C217.346,-109.641 235.754,-103.811 251.967,-98.6771"/>
<polygon fill="midnightblue" stroke="midnightblue" points="253.252,-101.942 261.729,-95.5859 251.139,-95.2682 253.252,-101.942"/>
</g>
<!-- Node1152 -->
<g id="node12" class="node"><title>Node1152</title>
<g id="a_node12"><a xlink:href="$a00077.html#ab76a07ccd25288dd9acc99f5f24a7600" xlink:title="gk_realloc">
<polygon fill="white" stroke="black" points="262,-114.5 262,-133.5 324,-133.5 324,-114.5 262,-114.5"/>
<text text-anchor="middle" x="293" y="-121.5" font-family="Helvetica,sans-Serif" font-size="10.00">gk_realloc</text>
</a>
</g>
</g>
<!-- Node1148&#45;&gt;Node1152 -->
<g id="edge14" class="edge"><title>Node1148&#45;&gt;Node1152</title>
<path fill="none" stroke="midnightblue" d="M202.281,-124C217.203,-124 235.407,-124 251.508,-124"/>
<polygon fill="midnightblue" stroke="midnightblue" points="251.729,-127.5 261.729,-124 251.729,-120.5 251.729,-127.5"/>
</g>
<!-- Node1149&#45;&gt;Node1143 -->
<g id="edge13" class="edge"><title>Node1149&#45;&gt;Node1143</title>
<path fill="none" stroke="midnightblue" d="M315.896,-95.6482C321.328,-98.3892 327.018,-101.571 332,-105 349.88,-117.306 349.53,-126.6 368,-138 375.445,-142.595 383.914,-146.553 392.173,-149.854"/>
<polygon fill="midnightblue" stroke="midnightblue" points="391.107,-153.192 401.7,-153.426 393.565,-146.638 391.107,-153.192"/>
</g>
<!-- Node1149&#45;&gt;Node1144 -->
<g id="edge10" class="edge"><title>Node1149&#45;&gt;Node1144</title>
<path fill="none" stroke="midnightblue" d="M324.261,-94.011C363.89,-104.623 435.448,-124.199 496,-143 504.598,-145.67 513.876,-148.74 522.359,-151.622"/>
<polygon fill="midnightblue" stroke="midnightblue" points="521.27,-154.949 531.865,-154.885 523.543,-148.328 521.27,-154.949"/>
</g>
<!-- Node1150 -->
<g id="node10" class="node"><title>Node1150</title>
<g id="a_node10"><a xlink:href="$a00110.html#ad2327b94227019b6753b6b09400c0522" xlink:title="gk_GetCurMemoryUsed">
<polygon fill="white" stroke="black" points="370,-76.5 370,-95.5 494,-95.5 494,-76.5 370,-76.5"/>
<text text-anchor="middle" x="432" y="-83.5" font-family="Helvetica,sans-Serif" font-size="10.00">gk_GetCurMemoryUsed</text>
</a>
</g>
</g>
<!-- Node1149&#45;&gt;Node1150 -->
<g id="edge11" class="edge"><title>Node1149&#45;&gt;Node1150</title>
<path fill="none" stroke="midnightblue" d="M324.065,-86C334.693,-86 347.146,-86 359.724,-86"/>
<polygon fill="midnightblue" stroke="midnightblue" points="359.806,-89.5001 369.806,-86 359.805,-82.5001 359.806,-89.5001"/>
</g>
<!-- Node1151 -->
<g id="node11" class="node"><title>Node1151</title>
<g id="a_node11"><a xlink:href="$a00110.html#a656fd5266ae12a96e53125486f8fea52" xlink:title="gk_GetMaxMemoryUsed">
<polygon fill="white" stroke="black" points="368.5,-38.5 368.5,-57.5 495.5,-57.5 495.5,-38.5 368.5,-38.5"/>
<text text-anchor="middle" x="432" y="-45.5" font-family="Helvetica,sans-Serif" font-size="10.00">gk_GetMaxMemoryUsed</text>
</a>
</g>
</g>
<!-- Node1149&#45;&gt;Node1151 -->
<g id="edge12" class="edge"><title>Node1149&#45;&gt;Node1151</title>
<path fill="none" stroke="midnightblue" d="M324.065,-77.6607C342.477,-72.5539 366.366,-65.9278 386.893,-60.2341"/>
<polygon fill="midnightblue" stroke="midnightblue" points="387.96,-63.5702 396.661,-57.5246 386.089,-56.8249 387.96,-63.5702"/>
</g>
<!-- Node1153&#45;&gt;Node1149 -->
<g id="edge17" class="edge"><title>Node1153&#45;&gt;Node1149</title>
<path fill="none" stroke="midnightblue" d="M218.052,-86C229.171,-86 240.967,-86 251.795,-86"/>
<polygon fill="midnightblue" stroke="midnightblue" points="251.825,-89.5001 261.825,-86 251.825,-82.5001 251.825,-89.5001"/>
</g>
<!-- Node1154 -->
<g id="node14" class="node"><title>Node1154</title>
<g id="a_node14"><a xlink:href="$a00849.html#ab017e0e6f2436f3ad24ea01d8b2c588c" xlink:title="gk_graph_Init">
<polygon fill="white" stroke="black" points="254.5,-38.5 254.5,-57.5 331.5,-57.5 331.5,-38.5 254.5,-38.5"/>
<text text-anchor="middle" x="293" y="-45.5" font-family="Helvetica,sans-Serif" font-size="10.00">gk_graph_Init</text>
</a>
</g>
</g>
<!-- Node1153&#45;&gt;Node1154 -->
<g id="edge18" class="edge"><title>Node1153&#45;&gt;Node1154</title>
<path fill="none" stroke="midnightblue" d="M202.281,-76.411C217.346,-71.6406 235.754,-65.8112 251.967,-60.6771"/>
<polygon fill="midnightblue" stroke="midnightblue" points="253.252,-63.9416 261.729,-57.5859 251.139,-57.2682 253.252,-63.9416"/>
</g>
<!-- Node1156 -->
<g id="node16" class="node"><title>Node1156</title>
<g id="a_node16"><a xlink:href="$a01017.html#a355ed4cdac2a27aa04a6689ac2d7e86e" xlink:title="fclose">
<polygon fill="white" stroke="black" points="271.5,-0.5 271.5,-19.5 314.5,-19.5 314.5,-0.5 271.5,-0.5"/>
<text text-anchor="middle" x="293" y="-7.5" font-family="Helvetica,sans-Serif" font-size="10.00">fclose</text>
</a>
</g>
</g>
<!-- Node1155&#45;&gt;Node1156 -->
<g id="edge20" class="edge"><title>Node1155&#45;&gt;Node1156</title>
<path fill="none" stroke="midnightblue" d="M200.743,-38.8981C219.113,-33.0808 242.907,-25.5462 261.592,-19.6291"/>
<polygon fill="midnightblue" stroke="midnightblue" points="262.904,-22.8851 271.381,-16.5294 260.791,-16.2117 262.904,-22.8851"/>
</g>
</g>
</svg>
