<?xml version="1.0" encoding="UTF-8" standalone="no"?>
<!DOCTYPE svg PUBLIC "-//W3C//DTD SVG 1.1//EN"
 "http://www.w3.org/Graphics/SVG/1.1/DTD/svg11.dtd">
<!-- Generated by graphviz version 2.36.0 (20140111.2315)
 -->
<!-- Title: gk_csr_ZScoreFilter Pages: 1 -->
<svg width="622pt" height="180pt"
 viewBox="0.00 0.00 622.00 179.72" xmlns="http://www.w3.org/2000/svg" xmlns:xlink="http://www.w3.org/1999/xlink">
<g id="graph0" class="graph" transform="scale(1 1) rotate(0) translate(4 175.718)">
<title>gk_csr_ZScoreFilter</title>
<polygon fill="white" stroke="none" points="-4,4 -4,-175.718 618,-175.718 618,4 -4,4"/>
<!-- Node315 -->
<g id="node1" class="node"><title>Node315</title>
<polygon fill="#bfbfbf" stroke="black" points="0,-57.5 0,-76.5 106,-76.5 106,-57.5 0,-57.5"/>
<text text-anchor="middle" x="53" y="-64.5" font-family="Helvetica,sans-Serif" font-size="10.00">gk_csr_ZScoreFilter</text>
</g>
<!-- Node316 -->
<g id="node2" class="node"><title>Node316</title>
<g id="a_node2"><a xlink:href="$a00023.html#a82b885bbed5bd18c26629c35ce5d37e4" xlink:title="gk_csr_Create">
<polygon fill="white" stroke="black" points="142,-95.5 142,-114.5 224,-114.5 224,-95.5 142,-95.5"/>
<text text-anchor="middle" x="183" y="-102.5" font-family="Helvetica,sans-Serif" font-size="10.00">gk_csr_Create</text>
</a>
</g>
</g>
<!-- Node315&#45;&gt;Node316 -->
<g id="edge1" class="edge"><title>Node315&#45;&gt;Node316</title>
<path fill="none" stroke="midnightblue" d="M86.2998,-76.589C102.52,-81.4044 122.375,-87.2988 139.787,-92.468"/>
<polygon fill="midnightblue" stroke="midnightblue" points="139.128,-95.9233 149.711,-95.4141 141.12,-89.2127 139.128,-95.9233"/>
</g>
<!-- Node321 -->
<g id="node7" class="node"><title>Node321</title>
<g id="a_node7"><a xlink:href="$a00026.html#a4c320c13bcdc9967613253ef4c73f59f" xlink:title="gk_errexit">
<polygon fill="white" stroke="black" points="442,-57.5 442,-76.5 502,-76.5 502,-57.5 442,-57.5"/>
<text text-anchor="middle" x="472" y="-64.5" font-family="Helvetica,sans-Serif" font-size="10.00">gk_errexit</text>
</a>
</g>
</g>
<!-- Node315&#45;&gt;Node321 -->
<g id="edge9" class="edge"><title>Node315&#45;&gt;Node321</title>
<path fill="none" stroke="midnightblue" d="M106.391,-67C191.108,-67 356.278,-67 431.718,-67"/>
<polygon fill="midnightblue" stroke="midnightblue" points="431.75,-70.5001 441.75,-67 431.75,-63.5001 431.75,-70.5001"/>
</g>
<!-- Node323 -->
<g id="node9" class="node"><title>Node323</title>
<g id="a_node9"><a xlink:href="$a00023.html#ac3736361b8d6b391356f273c960c203b" xlink:title="gk_csr_Free">
<polygon fill="white" stroke="black" points="147,-19.5 147,-38.5 219,-38.5 219,-19.5 147,-19.5"/>
<text text-anchor="middle" x="183" y="-26.5" font-family="Helvetica,sans-Serif" font-size="10.00">gk_csr_Free</text>
</a>
</g>
</g>
<!-- Node315&#45;&gt;Node323 -->
<g id="edge10" class="edge"><title>Node315&#45;&gt;Node323</title>
<path fill="none" stroke="midnightblue" d="M86.2998,-57.411C102.52,-52.5956 122.375,-46.7012 139.787,-41.532"/>
<polygon fill="midnightblue" stroke="midnightblue" points="141.12,-44.7873 149.711,-38.5859 139.128,-38.0767 141.12,-44.7873"/>
</g>
<!-- Node317 -->
<g id="node3" class="node"><title>Node317</title>
<g id="a_node3"><a xlink:href="$a00077.html#aba6f76f5c67b9b7e9c2e45988d3d3e9d" xlink:title="gk_malloc">
<polygon fill="white" stroke="black" points="285,-133.5 285,-152.5 347,-152.5 347,-133.5 285,-133.5"/>
<text text-anchor="middle" x="316" y="-140.5" font-family="Helvetica,sans-Serif" font-size="10.00">gk_malloc</text>
</a>
</g>
</g>
<!-- Node316&#45;&gt;Node317 -->
<g id="edge2" class="edge"><title>Node316&#45;&gt;Node317</title>
<path fill="none" stroke="midnightblue" d="M217.057,-114.589C234.661,-119.696 256.448,-126.016 275.001,-131.397"/>
<polygon fill="midnightblue" stroke="midnightblue" points="274.068,-134.771 284.648,-134.195 276.019,-128.048 274.068,-134.771"/>
</g>
<!-- Node322 -->
<g id="node8" class="node"><title>Node322</title>
<g id="a_node8"><a xlink:href="$a00023.html#a47a303d88c3316bd821219cae39d0461" xlink:title="gk_csr_Init">
<polygon fill="white" stroke="black" points="283.5,-95.5 283.5,-114.5 348.5,-114.5 348.5,-95.5 283.5,-95.5"/>
<text text-anchor="middle" x="316" y="-102.5" font-family="Helvetica,sans-Serif" font-size="10.00">gk_csr_Init</text>
</a>
</g>
</g>
<!-- Node316&#45;&gt;Node322 -->
<g id="edge8" class="edge"><title>Node316&#45;&gt;Node322</title>
<path fill="none" stroke="midnightblue" d="M224.016,-105C239.422,-105 257.057,-105 272.674,-105"/>
<polygon fill="midnightblue" stroke="midnightblue" points="273.111,-108.5 283.111,-105 273.111,-101.5 273.111,-108.5"/>
</g>
<!-- Node318 -->
<g id="node4" class="node"><title>Node318</title>
<g id="a_node4"><a xlink:href="$a01017.html#a2e311a777ffe9c80e405efa7cd2757be" xlink:title="fprintf">
<polygon fill="white" stroke="black" points="572,-114.5 572,-133.5 614,-133.5 614,-114.5 572,-114.5"/>
<text text-anchor="middle" x="593" y="-121.5" font-family="Helvetica,sans-Serif" font-size="10.00">fprintf</text>
</a>
</g>
</g>
<!-- Node317&#45;&gt;Node318 -->
<g id="edge3" class="edge"><title>Node317&#45;&gt;Node318</title>
<path fill="none" stroke="midnightblue" d="M346.797,-152.568C389.647,-164.78 470.7,-182.064 536,-162 550.039,-157.686 563.719,-148.525 574.044,-140.279"/>
<polygon fill="midnightblue" stroke="midnightblue" points="576.469,-142.813 581.862,-133.694 571.959,-137.46 576.469,-142.813"/>
</g>
<!-- Node319 -->
<g id="node5" class="node"><title>Node319</title>
<g id="a_node5"><a xlink:href="$a00110.html#ad2327b94227019b6753b6b09400c0522" xlink:title="gk_GetCurMemoryUsed">
<polygon fill="white" stroke="black" points="410,-133.5 410,-152.5 534,-152.5 534,-133.5 410,-133.5"/>
<text text-anchor="middle" x="472" y="-140.5" font-family="Helvetica,sans-Serif" font-size="10.00">gk_GetCurMemoryUsed</text>
</a>
</g>
</g>
<!-- Node317&#45;&gt;Node319 -->
<g id="edge4" class="edge"><title>Node317&#45;&gt;Node319</title>
<path fill="none" stroke="midnightblue" d="M347.058,-143C362.125,-143 381.069,-143 399.581,-143"/>
<polygon fill="midnightblue" stroke="midnightblue" points="399.793,-146.5 409.793,-143 399.793,-139.5 399.793,-146.5"/>
</g>
<!-- Node320 -->
<g id="node6" class="node"><title>Node320</title>
<g id="a_node6"><a xlink:href="$a00110.html#a656fd5266ae12a96e53125486f8fea52" xlink:title="gk_GetMaxMemoryUsed">
<polygon fill="white" stroke="black" points="408.5,-95.5 408.5,-114.5 535.5,-114.5 535.5,-95.5 408.5,-95.5"/>
<text text-anchor="middle" x="472" y="-102.5" font-family="Helvetica,sans-Serif" font-size="10.00">gk_GetMaxMemoryUsed</text>
</a>
</g>
</g>
<!-- Node317&#45;&gt;Node320 -->
<g id="edge5" class="edge"><title>Node317&#45;&gt;Node320</title>
<path fill="none" stroke="midnightblue" d="M347.058,-135.583C368.446,-130.306 397.646,-123.1 422.332,-117.009"/>
<polygon fill="midnightblue" stroke="midnightblue" points="423.376,-120.356 432.246,-114.563 421.699,-113.56 423.376,-120.356"/>
</g>
<!-- Node317&#45;&gt;Node321 -->
<g id="edge6" class="edge"><title>Node317&#45;&gt;Node321</title>
<path fill="none" stroke="midnightblue" d="M347.031,-135.511C355.492,-132.651 364.443,-128.871 372,-124 391.555,-111.396 388.199,-98.2129 408,-86 415.338,-81.474 423.825,-77.9653 432.145,-75.2675"/>
<polygon fill="midnightblue" stroke="midnightblue" points="433.139,-78.6234 441.757,-72.4605 431.177,-71.904 433.139,-78.6234"/>
</g>
<!-- Node321&#45;&gt;Node318 -->
<g id="edge7" class="edge"><title>Node321&#45;&gt;Node318</title>
<path fill="none" stroke="midnightblue" d="M502.228,-73.8252C513.104,-76.8755 525.377,-80.9396 536,-86 548.634,-92.0184 561.634,-100.663 571.925,-108.186"/>
<polygon fill="midnightblue" stroke="midnightblue" points="570.101,-111.194 580.194,-114.415 574.313,-105.603 570.101,-111.194"/>
</g>
<!-- Node324 -->
<g id="node10" class="node"><title>Node324</title>
<g id="a_node10"><a xlink:href="$a00023.html#a9646f29b0605ba264bf373c441a6826d" xlink:title="gk_csr_FreeContents">
<polygon fill="white" stroke="black" points="260,-19.5 260,-38.5 372,-38.5 372,-19.5 260,-19.5"/>
<text text-anchor="middle" x="316" y="-26.5" font-family="Helvetica,sans-Serif" font-size="10.00">gk_csr_FreeContents</text>
</a>
</g>
</g>
<!-- Node323&#45;&gt;Node324 -->
<g id="edge11" class="edge"><title>Node323&#45;&gt;Node324</title>
<path fill="none" stroke="midnightblue" d="M219.106,-29C228.582,-29 239.149,-29 249.709,-29"/>
<polygon fill="midnightblue" stroke="midnightblue" points="249.796,-32.5001 259.796,-29 249.796,-25.5001 249.796,-32.5001"/>
</g>
<!-- Node325 -->
<g id="node11" class="node"><title>Node325</title>
<g id="a_node11"><a xlink:href="$a00077.html#ac8df62c4e3d0910711a9874f9cc58884" xlink:title="gk_free">
<polygon fill="white" stroke="black" points="447,-0.5 447,-19.5 497,-19.5 497,-0.5 447,-0.5"/>
<text text-anchor="middle" x="472" y="-7.5" font-family="Helvetica,sans-Serif" font-size="10.00">gk_free</text>
</a>
</g>
</g>
<!-- Node323&#45;&gt;Node325 -->
<g id="edge13" class="edge"><title>Node323&#45;&gt;Node325</title>
<path fill="none" stroke="midnightblue" d="M214.737,-19.4947C228.445,-15.7305 244.882,-11.8612 260,-10 321.875,-2.38282 394.732,-4.89325 436.625,-7.43223"/>
<polygon fill="midnightblue" stroke="midnightblue" points="436.629,-10.9397 446.834,-8.08926 437.079,-3.95411 436.629,-10.9397"/>
</g>
<!-- Node324&#45;&gt;Node325 -->
<g id="edge12" class="edge"><title>Node324&#45;&gt;Node325</title>
<path fill="none" stroke="midnightblue" d="M372.163,-22.1942C393.717,-19.5349 417.761,-16.5684 436.737,-14.2272"/>
<polygon fill="midnightblue" stroke="midnightblue" points="437.214,-17.6951 446.71,-12.9968 436.356,-10.7478 437.214,-17.6951"/>
</g>
</g>
</svg>
