<?xml version="1.0" encoding="UTF-8" standalone="no"?>
<!DOCTYPE svg PUBLIC "-//W3C//DTD SVG 1.1//EN"
 "http://www.w3.org/Graphics/SVG/1.1/DTD/svg11.dtd">
<!-- Generated by graphviz version 2.36.0 (20140111.2315)
 -->
<!-- Title: gk_fexists Pages: 1 -->
<svg width="268pt" height="180pt"
 viewBox="0.00 0.00 268.00 180.00" xmlns="http://www.w3.org/2000/svg" xmlns:xlink="http://www.w3.org/1999/xlink">
<g id="graph0" class="graph" transform="scale(1 1) rotate(0) translate(4 176)">
<title>gk_fexists</title>
<polygon fill="white" stroke="none" points="-4,4 -4,-176 264,-176 264,4 -4,4"/>
<!-- Node533 -->
<g id="node1" class="node"><title>Node533</title>
<polygon fill="#bfbfbf" stroke="black" points="0.5,-76.5 0.5,-95.5 61.5,-95.5 61.5,-76.5 0.5,-76.5"/>
<text text-anchor="middle" x="31" y="-83.5" font-family="Helvetica,sans-Serif" font-size="10.00">gk_fexists</text>
</g>
<!-- Node534 -->
<g id="node2" class="node"><title>Node534</title>
<g id="a_node2"><a xlink:href="$a00077.html#a8ebc19fe9a291bdf67677ebdaae56592" xlink:title="gk_csr_Read">
<polygon fill="white" stroke="black" points="104.5,-152.5 104.5,-171.5 179.5,-171.5 179.5,-152.5 104.5,-152.5"/>
<text text-anchor="middle" x="142" y="-159.5" font-family="Helvetica,sans-Serif" font-size="10.00">gk_csr_Read</text>
</a>
</g>
</g>
<!-- Node533&#45;&gt;Node534 -->
<g id="edge1" class="edge"><title>Node533&#45;&gt;Node534</title>
<path fill="none" stroke="midnightblue" d="M49.044,-103.238C61.7473,-115.431 79.9492,-131.577 98,-143 103.517,-146.492 109.785,-149.656 115.796,-152.358"/>
<polygon fill="midnightblue" stroke="midnightblue" points="51.1374,-100.389 41.5471,-95.8856 46.2361,-105.386 51.1374,-100.389"/>
</g>
<!-- Node536 -->
<g id="node4" class="node"><title>Node536</title>
<g id="a_node4"><a xlink:href="$a00849.html#a432baae7f5c91c3604b42efb324b4131" xlink:title="gk_graph_Read">
<polygon fill="white" stroke="black" points="98,-114.5 98,-133.5 186,-133.5 186,-114.5 98,-114.5"/>
<text text-anchor="middle" x="142" y="-121.5" font-family="Helvetica,sans-Serif" font-size="10.00">gk_graph_Read</text>
</a>
</g>
</g>
<!-- Node533&#45;&gt;Node536 -->
<g id="edge3" class="edge"><title>Node533&#45;&gt;Node536</title>
<path fill="none" stroke="midnightblue" d="M69.2085,-98.9718C83.7303,-104.034 100.079,-109.734 113.503,-114.414"/>
<polygon fill="midnightblue" stroke="midnightblue" points="70.1001,-95.5761 59.5053,-95.589 67.7957,-102.186 70.1001,-95.5761"/>
</g>
<!-- Node538 -->
<g id="node6" class="node"><title>Node538</title>
<g id="a_node6"><a xlink:href="$a00951.html#ac8fe4a21ae3e0e01afdba3fedf1c6123" xlink:title="ReadGraph">
<polygon fill="white" stroke="black" points="108,-76.5 108,-95.5 176,-95.5 176,-76.5 108,-76.5"/>
<text text-anchor="middle" x="142" y="-83.5" font-family="Helvetica,sans-Serif" font-size="10.00">ReadGraph</text>
</a>
</g>
</g>
<!-- Node533&#45;&gt;Node538 -->
<g id="edge5" class="edge"><title>Node533&#45;&gt;Node538</title>
<path fill="none" stroke="midnightblue" d="M71.8457,-86C83.655,-86 96.4559,-86 107.797,-86"/>
<polygon fill="midnightblue" stroke="midnightblue" points="71.7848,-82.5001 61.7847,-86 71.7847,-89.5001 71.7848,-82.5001"/>
</g>
<!-- Node540 -->
<g id="node8" class="node"><title>Node540</title>
<g id="a_node8"><a xlink:href="$a00951.html#aef01a8b2c6432d21be77abeabeeeced8" xlink:title="ReadMesh">
<polygon fill="white" stroke="black" points="109.5,-38.5 109.5,-57.5 174.5,-57.5 174.5,-38.5 109.5,-38.5"/>
<text text-anchor="middle" x="142" y="-45.5" font-family="Helvetica,sans-Serif" font-size="10.00">ReadMesh</text>
</a>
</g>
</g>
<!-- Node533&#45;&gt;Node540 -->
<g id="edge7" class="edge"><title>Node533&#45;&gt;Node540</title>
<path fill="none" stroke="midnightblue" d="M69.2085,-73.0282C83.7303,-67.9656 100.079,-62.2659 113.503,-57.5859"/>
<polygon fill="midnightblue" stroke="midnightblue" points="67.7957,-69.8141 59.5053,-76.411 70.1001,-76.4239 67.7957,-69.8141"/>
</g>
<!-- Node542 -->
<g id="node10" class="node"><title>Node542</title>
<g id="a_node10"><a xlink:href="$a00951.html#a12b940ccee061b8787088fbe16245f46" xlink:title="ReadTPwgts">
<polygon fill="white" stroke="black" points="105,-0.5 105,-19.5 179,-19.5 179,-0.5 105,-0.5"/>
<text text-anchor="middle" x="142" y="-7.5" font-family="Helvetica,sans-Serif" font-size="10.00">ReadTPwgts</text>
</a>
</g>
</g>
<!-- Node533&#45;&gt;Node542 -->
<g id="edge9" class="edge"><title>Node533&#45;&gt;Node542</title>
<path fill="none" stroke="midnightblue" d="M49.044,-68.7621C61.7473,-56.5691 79.9492,-40.4231 98,-29 103.517,-25.5085 109.785,-22.3437 115.796,-19.6424"/>
<polygon fill="midnightblue" stroke="midnightblue" points="46.2361,-66.6136 41.5471,-76.1144 51.1374,-71.6114 46.2361,-66.6136"/>
</g>
<!-- Node535 -->
<g id="node3" class="node"><title>Node535</title>
<g id="a_node3"><a xlink:href="$a00867.html#a0ddf1224851353fc92bfbff6f499fa97" xlink:title="main">
<polygon fill="white" stroke="black" points="222,-152.5 222,-171.5 260,-171.5 260,-152.5 222,-152.5"/>
<text text-anchor="middle" x="241" y="-159.5" font-family="Helvetica,sans-Serif" font-size="10.00">main</text>
</a>
</g>
</g>
<!-- Node534&#45;&gt;Node535 -->
<g id="edge2" class="edge"><title>Node534&#45;&gt;Node535</title>
<path fill="none" stroke="midnightblue" d="M189.954,-162C201.262,-162 212.681,-162 221.751,-162"/>
<polygon fill="midnightblue" stroke="midnightblue" points="189.672,-158.5 179.672,-162 189.672,-165.5 189.672,-158.5"/>
</g>
<!-- Node537 -->
<g id="node5" class="node"><title>Node537</title>
<g id="a_node5"><a xlink:href="$a00149.html#a0ddf1224851353fc92bfbff6f499fa97" xlink:title="main">
<polygon fill="white" stroke="black" points="222,-114.5 222,-133.5 260,-133.5 260,-114.5 222,-114.5"/>
<text text-anchor="middle" x="241" y="-121.5" font-family="Helvetica,sans-Serif" font-size="10.00">main</text>
</a>
</g>
</g>
<!-- Node536&#45;&gt;Node537 -->
<g id="edge4" class="edge"><title>Node536&#45;&gt;Node537</title>
<path fill="none" stroke="midnightblue" d="M196.149,-124C205.377,-124 214.379,-124 221.801,-124"/>
<polygon fill="midnightblue" stroke="midnightblue" points="196.111,-120.5 186.111,-124 196.11,-127.5 196.111,-120.5"/>
</g>
<!-- Node539 -->
<g id="node7" class="node"><title>Node539</title>
<g id="a_node7"><a xlink:href="$a00308.html#a0ddf1224851353fc92bfbff6f499fa97" xlink:title="main">
<polygon fill="white" stroke="black" points="222,-76.5 222,-95.5 260,-95.5 260,-76.5 222,-76.5"/>
<text text-anchor="middle" x="241" y="-83.5" font-family="Helvetica,sans-Serif" font-size="10.00">main</text>
</a>
</g>
</g>
<!-- Node538&#45;&gt;Node539 -->
<g id="edge6" class="edge"><title>Node538&#45;&gt;Node539</title>
<path fill="none" stroke="midnightblue" d="M186.376,-86C198.81,-86 211.699,-86 221.724,-86"/>
<polygon fill="midnightblue" stroke="midnightblue" points="186.111,-82.5001 176.111,-86 186.111,-89.5001 186.111,-82.5001"/>
</g>
<!-- Node541 -->
<g id="node9" class="node"><title>Node541</title>
<g id="a_node9"><a xlink:href="$a00317.html#a0ddf1224851353fc92bfbff6f499fa97" xlink:title="main">
<polygon fill="white" stroke="black" points="222,-38.5 222,-57.5 260,-57.5 260,-38.5 222,-38.5"/>
<text text-anchor="middle" x="241" y="-45.5" font-family="Helvetica,sans-Serif" font-size="10.00">main</text>
</a>
</g>
</g>
<!-- Node540&#45;&gt;Node541 -->
<g id="edge8" class="edge"><title>Node540&#45;&gt;Node541</title>
<path fill="none" stroke="midnightblue" d="M184.901,-48C197.802,-48 211.338,-48 221.766,-48"/>
<polygon fill="midnightblue" stroke="midnightblue" points="184.761,-44.5001 174.761,-48 184.761,-51.5001 184.761,-44.5001"/>
</g>
<!-- Node543 -->
<g id="node11" class="node"><title>Node543</title>
<g id="a_node11"><a xlink:href="$a00311.html#a0ddf1224851353fc92bfbff6f499fa97" xlink:title="main">
<polygon fill="white" stroke="black" points="222,-0.5 222,-19.5 260,-19.5 260,-0.5 222,-0.5"/>
<text text-anchor="middle" x="241" y="-7.5" font-family="Helvetica,sans-Serif" font-size="10.00">main</text>
</a>
</g>
</g>
<!-- Node542&#45;&gt;Node543 -->
<g id="edge10" class="edge"><title>Node542&#45;&gt;Node543</title>
<path fill="none" stroke="midnightblue" d="M189.183,-10C200.762,-10 212.517,-10 221.801,-10"/>
<polygon fill="midnightblue" stroke="midnightblue" points="189.119,-6.5001 179.119,-10 189.119,-13.5001 189.119,-6.5001"/>
</g>
</g>
</svg>
