<?xml version="1.0" encoding="UTF-8" standalone="no"?>
<!DOCTYPE svg PUBLIC "-//W3C//DTD SVG 1.1//EN"
 "http://www.w3.org/Graphics/SVG/1.1/DTD/svg11.dtd">
<!-- Generated by graphviz version 2.36.0 (20140111.2315)
 -->
<!-- Title: gk_dkvsorti Pages: 1 -->
<svg width="256pt" height="28pt"
 viewBox="0.00 0.00 256.00 28.00" xmlns="http://www.w3.org/2000/svg" xmlns:xlink="http://www.w3.org/1999/xlink">
<g id="graph0" class="graph" transform="scale(1 1) rotate(0) translate(4 24)">
<title>gk_dkvsorti</title>
<polygon fill="white" stroke="none" points="-4,4 -4,-24 252,-24 252,4 -4,4"/>
<!-- Node337 -->
<g id="node1" class="node"><title>Node337</title>
<polygon fill="#bfbfbf" stroke="black" points="0.5,-0.5 0.5,-19.5 67.5,-19.5 67.5,-0.5 0.5,-0.5"/>
<text text-anchor="middle" x="34" y="-7.5" font-family="Helvetica,sans-Serif" font-size="10.00">gk_dkvsorti</text>
</g>
<!-- Node338 -->
<g id="node2" class="node"><title>Node338</title>
<g id="a_node2"><a xlink:href="$a00152.html#a91e0ce6fc88d5ab6695cda68dc4e79b5" xlink:title="test_dkvsort">
<polygon fill="white" stroke="black" points="104,-0.5 104,-19.5 174,-19.5 174,-0.5 104,-0.5"/>
<text text-anchor="middle" x="139" y="-7.5" font-family="Helvetica,sans-Serif" font-size="10.00">test_dkvsort</text>
</a>
</g>
</g>
<!-- Node337&#45;&gt;Node338 -->
<g id="edge1" class="edge"><title>Node337&#45;&gt;Node338</title>
<path fill="none" stroke="midnightblue" d="M77.6236,-10C86.3619,-10 95.4518,-10 103.846,-10"/>
<polygon fill="midnightblue" stroke="midnightblue" points="77.5899,-6.5001 67.5898,-10 77.5898,-13.5001 77.5899,-6.5001"/>
</g>
<!-- Node339 -->
<g id="node3" class="node"><title>Node339</title>
<g id="a_node3"><a xlink:href="$a00152.html#ae66f6b31b5ad750f1fe042a706a4e3d4" xlink:title="main">
<polygon fill="white" stroke="black" points="210,-0.5 210,-19.5 248,-19.5 248,-0.5 210,-0.5"/>
<text text-anchor="middle" x="229" y="-7.5" font-family="Helvetica,sans-Serif" font-size="10.00">main</text>
</a>
</g>
</g>
<!-- Node338&#45;&gt;Node339 -->
<g id="edge2" class="edge"><title>Node338&#45;&gt;Node339</title>
<path fill="none" stroke="midnightblue" d="M184.181,-10C193.247,-10 202.302,-10 209.808,-10"/>
<polygon fill="midnightblue" stroke="midnightblue" points="184.023,-6.5001 174.023,-10 184.023,-13.5001 184.023,-6.5001"/>
</g>
</g>
</svg>
