<?xml version="1.0" encoding="UTF-8" standalone="no"?>
<!DOCTYPE svg PUBLIC "-//W3C//DTD SVG 1.1//EN"
 "http://www.w3.org/Graphics/SVG/1.1/DTD/svg11.dtd">
<!-- Generated by graphviz version 2.36.0 (20140111.2315)
 -->
<!-- Title: gk_csr_ExtractRows Pages: 1 -->
<svg width="578pt" height="125pt"
 viewBox="0.00 0.00 578.00 124.79" xmlns="http://www.w3.org/2000/svg" xmlns:xlink="http://www.w3.org/1999/xlink">
<g id="graph0" class="graph" transform="scale(1 1) rotate(0) translate(4 120.791)">
<title>gk_csr_ExtractRows</title>
<polygon fill="white" stroke="none" points="-4,4 -4,-120.791 574,-120.791 574,4 -4,4"/>
<!-- Node65 -->
<g id="node1" class="node"><title>Node65</title>
<polygon fill="#bfbfbf" stroke="black" points="0,-38.5 0,-57.5 108,-57.5 108,-38.5 0,-38.5"/>
<text text-anchor="middle" x="54" y="-45.5" font-family="Helvetica,sans-Serif" font-size="10.00">gk_csr_ExtractRows</text>
</g>
<!-- Node66 -->
<g id="node2" class="node"><title>Node66</title>
<g id="a_node2"><a xlink:href="$a00023.html#a82b885bbed5bd18c26629c35ce5d37e4" xlink:title="gk_csr_Create">
<polygon fill="white" stroke="black" points="144,-38.5 144,-57.5 226,-57.5 226,-38.5 144,-38.5"/>
<text text-anchor="middle" x="185" y="-45.5" font-family="Helvetica,sans-Serif" font-size="10.00">gk_csr_Create</text>
</a>
</g>
</g>
<!-- Node65&#45;&gt;Node66 -->
<g id="edge1" class="edge"><title>Node65&#45;&gt;Node66</title>
<path fill="none" stroke="midnightblue" d="M108.214,-48C116.701,-48 125.457,-48 133.869,-48"/>
<polygon fill="midnightblue" stroke="midnightblue" points="133.918,-51.5001 143.918,-48 133.918,-44.5001 133.918,-51.5001"/>
</g>
<!-- Node67 -->
<g id="node3" class="node"><title>Node67</title>
<g id="a_node3"><a xlink:href="$a00077.html#aba6f76f5c67b9b7e9c2e45988d3d3e9d" xlink:title="gk_malloc">
<polygon fill="white" stroke="black" points="264,-57.5 264,-76.5 326,-76.5 326,-57.5 264,-57.5"/>
<text text-anchor="middle" x="295" y="-64.5" font-family="Helvetica,sans-Serif" font-size="10.00">gk_malloc</text>
</a>
</g>
</g>
<!-- Node66&#45;&gt;Node67 -->
<g id="edge2" class="edge"><title>Node66&#45;&gt;Node67</title>
<path fill="none" stroke="midnightblue" d="M226.215,-55.0749C235.279,-56.6694 244.897,-58.3615 253.954,-59.9548"/>
<polygon fill="midnightblue" stroke="midnightblue" points="253.425,-63.4155 263.88,-61.7011 254.638,-56.5213 253.425,-63.4155"/>
</g>
<!-- Node72 -->
<g id="node8" class="node"><title>Node72</title>
<g id="a_node8"><a xlink:href="$a00023.html#a47a303d88c3316bd821219cae39d0461" xlink:title="gk_csr_Init">
<polygon fill="white" stroke="black" points="262.5,-19.5 262.5,-38.5 327.5,-38.5 327.5,-19.5 262.5,-19.5"/>
<text text-anchor="middle" x="295" y="-26.5" font-family="Helvetica,sans-Serif" font-size="10.00">gk_csr_Init</text>
</a>
</g>
</g>
<!-- Node66&#45;&gt;Node72 -->
<g id="edge8" class="edge"><title>Node66&#45;&gt;Node72</title>
<path fill="none" stroke="midnightblue" d="M226.215,-40.9251C234.657,-39.4399 243.581,-37.87 252.084,-36.3742"/>
<polygon fill="midnightblue" stroke="midnightblue" points="252.943,-39.7769 262.185,-34.5971 251.73,-32.8827 252.943,-39.7769"/>
</g>
<!-- Node68 -->
<g id="node4" class="node"><title>Node68</title>
<g id="a_node4"><a xlink:href="$a01017.html#a2e311a777ffe9c80e405efa7cd2757be" xlink:title="fprintf">
<polygon fill="white" stroke="black" points="528,-57.5 528,-76.5 570,-76.5 570,-57.5 528,-57.5"/>
<text text-anchor="middle" x="549" y="-64.5" font-family="Helvetica,sans-Serif" font-size="10.00">fprintf</text>
</a>
</g>
</g>
<!-- Node67&#45;&gt;Node68 -->
<g id="edge3" class="edge"><title>Node67&#45;&gt;Node68</title>
<path fill="none" stroke="midnightblue" d="M308.682,-76.7226C321.733,-86.0659 343.06,-99.5461 364,-105 419.052,-119.339 437.62,-121.709 492,-105 506.039,-100.686 519.719,-91.5255 530.044,-83.2793"/>
<polygon fill="midnightblue" stroke="midnightblue" points="532.469,-85.8134 537.862,-76.6941 527.959,-80.4595 532.469,-85.8134"/>
</g>
<!-- Node69 -->
<g id="node5" class="node"><title>Node69</title>
<g id="a_node5"><a xlink:href="$a00110.html#ad2327b94227019b6753b6b09400c0522" xlink:title="gk_GetCurMemoryUsed">
<polygon fill="white" stroke="black" points="366,-76.5 366,-95.5 490,-95.5 490,-76.5 366,-76.5"/>
<text text-anchor="middle" x="428" y="-83.5" font-family="Helvetica,sans-Serif" font-size="10.00">gk_GetCurMemoryUsed</text>
</a>
</g>
</g>
<!-- Node67&#45;&gt;Node69 -->
<g id="edge4" class="edge"><title>Node67&#45;&gt;Node69</title>
<path fill="none" stroke="midnightblue" d="M326.054,-71.359C335.041,-72.6625 345.303,-74.1508 355.761,-75.6676"/>
<polygon fill="midnightblue" stroke="midnightblue" points="355.414,-79.1538 365.813,-77.1255 356.419,-72.2263 355.414,-79.1538"/>
</g>
<!-- Node70 -->
<g id="node6" class="node"><title>Node70</title>
<g id="a_node6"><a xlink:href="$a00110.html#a656fd5266ae12a96e53125486f8fea52" xlink:title="gk_GetMaxMemoryUsed">
<polygon fill="white" stroke="black" points="364.5,-38.5 364.5,-57.5 491.5,-57.5 491.5,-38.5 364.5,-38.5"/>
<text text-anchor="middle" x="428" y="-45.5" font-family="Helvetica,sans-Serif" font-size="10.00">gk_GetMaxMemoryUsed</text>
</a>
</g>
</g>
<!-- Node67&#45;&gt;Node70 -->
<g id="edge5" class="edge"><title>Node67&#45;&gt;Node70</title>
<path fill="none" stroke="midnightblue" d="M326.054,-62.641C334.665,-61.392 344.447,-59.9734 354.45,-58.5226"/>
<polygon fill="midnightblue" stroke="midnightblue" points="355.097,-61.9653 364.491,-57.0661 354.093,-55.0378 355.097,-61.9653"/>
</g>
<!-- Node71 -->
<g id="node7" class="node"><title>Node71</title>
<g id="a_node7"><a xlink:href="$a00026.html#a4c320c13bcdc9967613253ef4c73f59f" xlink:title="gk_errexit">
<polygon fill="white" stroke="black" points="398,-0.5 398,-19.5 458,-19.5 458,-0.5 398,-0.5"/>
<text text-anchor="middle" x="428" y="-7.5" font-family="Helvetica,sans-Serif" font-size="10.00">gk_errexit</text>
</a>
</g>
</g>
<!-- Node67&#45;&gt;Node71 -->
<g id="edge6" class="edge"><title>Node67&#45;&gt;Node71</title>
<path fill="none" stroke="midnightblue" d="M312.079,-57.4824C328.755,-47.7083 353.791,-33.3313 364,-29 371.701,-25.7327 380.151,-22.78 388.292,-20.2292"/>
<polygon fill="midnightblue" stroke="midnightblue" points="389.421,-23.5447 397.996,-17.3231 387.413,-16.8389 389.421,-23.5447"/>
</g>
<!-- Node71&#45;&gt;Node68 -->
<g id="edge7" class="edge"><title>Node71&#45;&gt;Node68</title>
<path fill="none" stroke="midnightblue" d="M458.228,-16.8252C469.104,-19.8755 481.377,-23.9396 492,-29 504.634,-35.0184 517.634,-43.6626 527.925,-51.1863"/>
<polygon fill="midnightblue" stroke="midnightblue" points="526.101,-54.1937 536.194,-57.4154 530.313,-48.6027 526.101,-54.1937"/>
</g>
</g>
</svg>
