<?xml version="1.0" encoding="UTF-8" standalone="no"?>
<!DOCTYPE svg PUBLIC "-//W3C//DTD SVG 1.1//EN"
 "http://www.w3.org/Graphics/SVG/1.1/DTD/svg11.dtd">
<!-- Generated by graphviz version 2.36.0 (20140111.2315)
 -->
<!-- Title: HTable_Resize Pages: 1 -->
<svg width="346pt" height="104pt"
 viewBox="0.00 0.00 346.00 104.00" xmlns="http://www.w3.org/2000/svg" xmlns:xlink="http://www.w3.org/1999/xlink">
<g id="graph0" class="graph" transform="scale(1 1) rotate(0) translate(4 100)">
<title>HTable_Resize</title>
<polygon fill="white" stroke="none" points="-4,4 -4,-100 342,-100 342,4 -4,4"/>
<!-- Node35 -->
<g id="node1" class="node"><title>Node35</title>
<polygon fill="#bfbfbf" stroke="black" points="0.5,-38.5 0.5,-57.5 85.5,-57.5 85.5,-38.5 0.5,-38.5"/>
<text text-anchor="middle" x="43" y="-45.5" font-family="Helvetica,sans-Serif" font-size="10.00">HTable_Resize</text>
</g>
<!-- Node36 -->
<g id="node2" class="node"><title>Node36</title>
<g id="a_node2"><a xlink:href="$a00623.html#ad1e7380d51df1e0043d24d3c8a860e0a" xlink:title="for">
<polygon fill="white" stroke="black" points="147.5,-76.5 147.5,-95.5 176.5,-95.5 176.5,-76.5 147.5,-76.5"/>
<text text-anchor="middle" x="162" y="-83.5" font-family="Helvetica,sans-Serif" font-size="10.00">for</text>
</a>
</g>
</g>
<!-- Node35&#45;&gt;Node36 -->
<g id="edge1" class="edge"><title>Node35&#45;&gt;Node36</title>
<path fill="none" stroke="midnightblue" d="M73.524,-57.589C93.4229,-64.0519 119.306,-72.4583 137.743,-78.4465"/>
<polygon fill="midnightblue" stroke="midnightblue" points="136.793,-81.8179 147.386,-81.5782 138.956,-75.1603 136.793,-81.8179"/>
</g>
<!-- Node37 -->
<g id="node3" class="node"><title>Node37</title>
<g id="a_node3"><a xlink:href="$a00098.html#a39853dc7129323e7846d895c9026ad6f" xlink:title="HTable_Insert">
<polygon fill="white" stroke="black" points="122.5,-38.5 122.5,-57.5 201.5,-57.5 201.5,-38.5 122.5,-38.5"/>
<text text-anchor="middle" x="162" y="-45.5" font-family="Helvetica,sans-Serif" font-size="10.00">HTable_Insert</text>
</a>
</g>
</g>
<!-- Node35&#45;&gt;Node37 -->
<g id="edge2" class="edge"><title>Node35&#45;&gt;Node37</title>
<path fill="none" stroke="midnightblue" d="M85.5793,-41.5075C94.1713,-41.2391 103.296,-41.1805 112.121,-41.3318"/>
<polygon fill="midnightblue" stroke="midnightblue" points="112.201,-44.8351 122.292,-41.6058 112.39,-37.8377 112.201,-44.8351"/>
</g>
<!-- Node39 -->
<g id="node5" class="node"><title>Node39</title>
<g id="a_node5"><a xlink:href="$a00077.html#ac8df62c4e3d0910711a9874f9cc58884" xlink:title="gk_free">
<polygon fill="white" stroke="black" points="137,-0.5 137,-19.5 187,-19.5 187,-0.5 137,-0.5"/>
<text text-anchor="middle" x="162" y="-7.5" font-family="Helvetica,sans-Serif" font-size="10.00">gk_free</text>
</a>
</g>
</g>
<!-- Node35&#45;&gt;Node39 -->
<g id="edge5" class="edge"><title>Node35&#45;&gt;Node39</title>
<path fill="none" stroke="midnightblue" d="M73.524,-38.411C89.935,-33.0809 110.416,-26.429 127.434,-20.9018"/>
<polygon fill="midnightblue" stroke="midnightblue" points="128.567,-24.2138 136.997,-17.7959 126.405,-17.5562 128.567,-24.2138"/>
</g>
<!-- Node37&#45;&gt;Node35 -->
<g id="edge3" class="edge"><title>Node37&#45;&gt;Node35</title>
<path fill="none" stroke="midnightblue" d="M122.292,-54.3942C113.83,-54.7097 104.742,-54.8154 95.8604,-54.7112"/>
<polygon fill="midnightblue" stroke="midnightblue" points="95.6515,-51.2061 85.5793,-54.4925 95.5025,-58.2045 95.6515,-51.2061"/>
</g>
<!-- Node38 -->
<g id="node4" class="node"><title>Node38</title>
<g id="a_node4"><a xlink:href="$a00098.html#afe255e126a6c4eec5efb11c3691b3155" xlink:title="HTable_HFunction">
<polygon fill="white" stroke="black" points="238,-38.5 238,-57.5 338,-57.5 338,-38.5 238,-38.5"/>
<text text-anchor="middle" x="288" y="-45.5" font-family="Helvetica,sans-Serif" font-size="10.00">HTable_HFunction</text>
</a>
</g>
</g>
<!-- Node37&#45;&gt;Node38 -->
<g id="edge4" class="edge"><title>Node37&#45;&gt;Node38</title>
<path fill="none" stroke="midnightblue" d="M201.555,-48C209.923,-48 218.959,-48 227.914,-48"/>
<polygon fill="midnightblue" stroke="midnightblue" points="227.95,-51.5001 237.95,-48 227.95,-44.5001 227.95,-51.5001"/>
</g>
</g>
</svg>
