<?xml version="1.0" encoding="UTF-8" standalone="no"?>
<!DOCTYPE svg PUBLIC "-//W3C//DTD SVG 1.1//EN"
 "http://www.w3.org/Graphics/SVG/1.1/DTD/svg11.dtd">
<!-- Generated by graphviz version 2.36.0 (20140111.2315)
 -->
<!-- Title: gk_mcoreDel Pages: 1 -->
<svg width="258pt" height="28pt"
 viewBox="0.00 0.00 258.00 28.00" xmlns="http://www.w3.org/2000/svg" xmlns:xlink="http://www.w3.org/1999/xlink">
<g id="graph0" class="graph" transform="scale(1 1) rotate(0) translate(4 24)">
<title>gk_mcoreDel</title>
<polygon fill="white" stroke="none" points="-4,4 -4,-24 254,-24 254,4 -4,4"/>
<!-- Node1475 -->
<g id="node1" class="node"><title>Node1475</title>
<polygon fill="#bfbfbf" stroke="black" points="0.5,-0.5 0.5,-19.5 75.5,-19.5 75.5,-0.5 0.5,-0.5"/>
<text text-anchor="middle" x="38" y="-7.5" font-family="Helvetica,sans-Serif" font-size="10.00">gk_mcoreDel</text>
</g>
<!-- Node1476 -->
<g id="node2" class="node"><title>Node1476</title>
<g id="a_node2"><a xlink:href="$a00026.html#a4c320c13bcdc9967613253ef4c73f59f" xlink:title="gk_errexit">
<polygon fill="white" stroke="black" points="112,-0.5 112,-19.5 172,-19.5 172,-0.5 112,-0.5"/>
<text text-anchor="middle" x="142" y="-7.5" font-family="Helvetica,sans-Serif" font-size="10.00">gk_errexit</text>
</a>
</g>
</g>
<!-- Node1475&#45;&gt;Node1476 -->
<g id="edge1" class="edge"><title>Node1475&#45;&gt;Node1476</title>
<path fill="none" stroke="midnightblue" d="M75.5362,-10C83.9893,-10 93.0203,-10 101.59,-10"/>
<polygon fill="midnightblue" stroke="midnightblue" points="101.745,-13.5001 111.745,-10 101.745,-6.5001 101.745,-13.5001"/>
</g>
<!-- Node1477 -->
<g id="node3" class="node"><title>Node1477</title>
<g id="a_node3"><a xlink:href="$a01017.html#a2e311a777ffe9c80e405efa7cd2757be" xlink:title="fprintf">
<polygon fill="white" stroke="black" points="208,-0.5 208,-19.5 250,-19.5 250,-0.5 208,-0.5"/>
<text text-anchor="middle" x="229" y="-7.5" font-family="Helvetica,sans-Serif" font-size="10.00">fprintf</text>
</a>
</g>
</g>
<!-- Node1476&#45;&gt;Node1477 -->
<g id="edge2" class="edge"><title>Node1476&#45;&gt;Node1477</title>
<path fill="none" stroke="midnightblue" d="M172.252,-10C180.491,-10 189.468,-10 197.763,-10"/>
<polygon fill="midnightblue" stroke="midnightblue" points="197.799,-13.5001 207.799,-10 197.799,-6.5001 197.799,-13.5001"/>
</g>
</g>
</svg>
