<?xml version="1.0" encoding="UTF-8" standalone="no"?>
<!DOCTYPE svg PUBLIC "-//W3C//DTD SVG 1.1//EN"
 "http://www.w3.org/Graphics/SVG/1.1/DTD/svg11.dtd">
<!-- Generated by graphviz version 2.36.0 (20140111.2315)
 -->
<!-- Title: gk_strstr_replace Pages: 1 -->
<svg width="540pt" height="256pt"
 viewBox="0.00 0.00 540.00 256.00" xmlns="http://www.w3.org/2000/svg" xmlns:xlink="http://www.w3.org/1999/xlink">
<g id="graph0" class="graph" transform="scale(1 1) rotate(0) translate(4 252)">
<title>gk_strstr_replace</title>
<polygon fill="white" stroke="none" points="-4,4 -4,-252 536,-252 536,4 -4,4"/>
<!-- Node1712 -->
<g id="node1" class="node"><title>Node1712</title>
<polygon fill="#bfbfbf" stroke="black" points="0.5,-114.5 0.5,-133.5 93.5,-133.5 93.5,-114.5 0.5,-114.5"/>
<text text-anchor="middle" x="47" y="-121.5" font-family="Helvetica,sans-Serif" font-size="10.00">gk_strstr_replace</text>
</g>
<!-- Node1713 -->
<g id="node2" class="node"><title>Node1713</title>
<g id="a_node2"><a xlink:href="$a00092.html#a430f0c9389ac6c08be2286257691317b" xlink:title="regcomp">
<polygon fill="white" stroke="black" points="133.5,-228.5 133.5,-247.5 188.5,-247.5 188.5,-228.5 133.5,-228.5"/>
<text text-anchor="middle" x="161" y="-235.5" font-family="Helvetica,sans-Serif" font-size="10.00">regcomp</text>
</a>
</g>
</g>
<!-- Node1712&#45;&gt;Node1713 -->
<g id="edge1" class="edge"><title>Node1712&#45;&gt;Node1713</title>
<path fill="none" stroke="midnightblue" d="M54.8727,-133.721C68.0356,-151.903 98.3212,-191.681 130,-219 131.348,-220.163 132.774,-221.305 134.242,-222.416"/>
<polygon fill="midnightblue" stroke="midnightblue" points="132.662,-225.578 142.881,-228.375 136.637,-219.816 132.662,-225.578"/>
</g>
<!-- Node1714 -->
<g id="node3" class="node"><title>Node1714</title>
<g id="a_node3"><a xlink:href="$a00092.html#a0284fc25f2802396427939f37caccc1c" xlink:title="regerror">
<polygon fill="white" stroke="black" points="135,-190.5 135,-209.5 187,-209.5 187,-190.5 135,-190.5"/>
<text text-anchor="middle" x="161" y="-197.5" font-family="Helvetica,sans-Serif" font-size="10.00">regerror</text>
</a>
</g>
</g>
<!-- Node1712&#45;&gt;Node1714 -->
<g id="edge2" class="edge"><title>Node1712&#45;&gt;Node1714</title>
<path fill="none" stroke="midnightblue" d="M61.5162,-133.66C77.6714,-145.145 105.588,-164.796 130,-181 131.92,-182.274 133.918,-183.581 135.932,-184.885"/>
<polygon fill="midnightblue" stroke="midnightblue" points="134.346,-188.025 144.657,-190.46 138.115,-182.126 134.346,-188.025"/>
</g>
<!-- Node1715 -->
<g id="node4" class="node"><title>Node1715</title>
<g id="a_node4"><a xlink:href="$a00092.html#a179877eb45bb29da01e5101325554d73" xlink:title="regexec">
<polygon fill="white" stroke="black" points="135,-152.5 135,-171.5 187,-171.5 187,-152.5 135,-152.5"/>
<text text-anchor="middle" x="161" y="-159.5" font-family="Helvetica,sans-Serif" font-size="10.00">regexec</text>
</a>
</g>
</g>
<!-- Node1712&#45;&gt;Node1715 -->
<g id="edge3" class="edge"><title>Node1712&#45;&gt;Node1715</title>
<path fill="none" stroke="midnightblue" d="M76.2623,-133.589C91.0404,-138.603 109.266,-144.787 124.937,-150.104"/>
<polygon fill="midnightblue" stroke="midnightblue" points="124.21,-153.553 134.804,-153.451 126.459,-146.924 124.21,-153.553"/>
</g>
<!-- Node1716 -->
<g id="node5" class="node"><title>Node1716</title>
<g id="a_node5"><a xlink:href="$a00077.html#ac8df62c4e3d0910711a9874f9cc58884" xlink:title="gk_free">
<polygon fill="white" stroke="black" points="136,-114.5 136,-133.5 186,-133.5 186,-114.5 136,-114.5"/>
<text text-anchor="middle" x="161" y="-121.5" font-family="Helvetica,sans-Serif" font-size="10.00">gk_free</text>
</a>
</g>
</g>
<!-- Node1712&#45;&gt;Node1716 -->
<g id="edge4" class="edge"><title>Node1712&#45;&gt;Node1716</title>
<path fill="none" stroke="midnightblue" d="M93.5547,-124C104.342,-124 115.666,-124 125.847,-124"/>
<polygon fill="midnightblue" stroke="midnightblue" points="125.973,-127.5 135.973,-124 125.973,-120.5 125.973,-127.5"/>
</g>
<!-- Node1717 -->
<g id="node6" class="node"><title>Node1717</title>
<g id="a_node6"><a xlink:href="$a00143.html#af62038e97ca55f14ec2557a01bd85ca2" xlink:title="Duplicates a string. ">
<polygon fill="white" stroke="black" points="131,-76.5 131,-95.5 191,-95.5 191,-76.5 131,-76.5"/>
<text text-anchor="middle" x="161" y="-83.5" font-family="Helvetica,sans-Serif" font-size="10.00">gk_strdup</text>
</a>
</g>
</g>
<!-- Node1712&#45;&gt;Node1717 -->
<g id="edge5" class="edge"><title>Node1712&#45;&gt;Node1717</title>
<path fill="none" stroke="midnightblue" d="M76.2623,-114.411C90.1899,-109.686 107.18,-103.921 122.207,-98.8226"/>
<polygon fill="midnightblue" stroke="midnightblue" points="123.401,-102.113 131.747,-95.5859 121.152,-95.4845 123.401,-102.113"/>
</g>
<!-- Node1723 -->
<g id="node12" class="node"><title>Node1723</title>
<g id="a_node12"><a xlink:href="$a00092.html#a87e79b6d048a32ffbfdb234c4166e769" xlink:title="regfree">
<polygon fill="white" stroke="black" points="137,-38.5 137,-57.5 185,-57.5 185,-38.5 137,-38.5"/>
<text text-anchor="middle" x="161" y="-45.5" font-family="Helvetica,sans-Serif" font-size="10.00">regfree</text>
</a>
</g>
</g>
<!-- Node1712&#45;&gt;Node1723 -->
<g id="edge12" class="edge"><title>Node1712&#45;&gt;Node1723</title>
<path fill="none" stroke="midnightblue" d="M61.5162,-114.34C77.6714,-102.855 105.588,-83.2044 130,-67 131.92,-65.7257 133.918,-64.4185 135.932,-63.1152"/>
<polygon fill="midnightblue" stroke="midnightblue" points="138.115,-65.874 144.657,-57.5402 134.346,-59.9753 138.115,-65.874"/>
</g>
<!-- Node1724 -->
<g id="node13" class="node"><title>Node1724</title>
<g id="a_node13"><a xlink:href="$a00077.html#ab76a07ccd25288dd9acc99f5f24a7600" xlink:title="gk_realloc">
<polygon fill="white" stroke="black" points="130,-0.5 130,-19.5 192,-19.5 192,-0.5 130,-0.5"/>
<text text-anchor="middle" x="161" y="-7.5" font-family="Helvetica,sans-Serif" font-size="10.00">gk_realloc</text>
</a>
</g>
</g>
<!-- Node1712&#45;&gt;Node1724 -->
<g id="edge13" class="edge"><title>Node1712&#45;&gt;Node1724</title>
<path fill="none" stroke="midnightblue" d="M54.8727,-114.279C68.0356,-96.0972 98.3212,-56.3193 130,-29 131.348,-27.8374 132.774,-26.6954 134.242,-25.584"/>
<polygon fill="midnightblue" stroke="midnightblue" points="136.637,-28.1844 142.881,-19.6254 132.662,-22.4221 136.637,-28.1844"/>
</g>
<!-- Node1718 -->
<g id="node7" class="node"><title>Node1718</title>
<g id="a_node7"><a xlink:href="$a00077.html#aba6f76f5c67b9b7e9c2e45988d3d3e9d" xlink:title="gk_malloc">
<polygon fill="white" stroke="black" points="228,-76.5 228,-95.5 290,-95.5 290,-76.5 228,-76.5"/>
<text text-anchor="middle" x="259" y="-83.5" font-family="Helvetica,sans-Serif" font-size="10.00">gk_malloc</text>
</a>
</g>
</g>
<!-- Node1717&#45;&gt;Node1718 -->
<g id="edge6" class="edge"><title>Node1717&#45;&gt;Node1718</title>
<path fill="none" stroke="midnightblue" d="M191.064,-86C199.393,-86 208.629,-86 217.513,-86"/>
<polygon fill="midnightblue" stroke="midnightblue" points="217.704,-89.5001 227.704,-86 217.704,-82.5001 217.704,-89.5001"/>
</g>
<!-- Node1719 -->
<g id="node8" class="node"><title>Node1719</title>
<g id="a_node8"><a xlink:href="$a01017.html#a2e311a777ffe9c80e405efa7cd2757be" xlink:title="fprintf">
<polygon fill="white" stroke="black" points="490,-76.5 490,-95.5 532,-95.5 532,-76.5 490,-76.5"/>
<text text-anchor="middle" x="511" y="-83.5" font-family="Helvetica,sans-Serif" font-size="10.00">fprintf</text>
</a>
</g>
</g>
<!-- Node1718&#45;&gt;Node1719 -->
<g id="edge7" class="edge"><title>Node1718&#45;&gt;Node1719</title>
<path fill="none" stroke="midnightblue" d="M272.261,-95.7187C284.891,-105.059 305.563,-118.537 326,-124 380.959,-138.691 399.62,-140.709 454,-124 468.039,-119.686 481.719,-110.525 492.044,-102.279"/>
<polygon fill="midnightblue" stroke="midnightblue" points="494.469,-104.813 499.862,-95.6941 489.959,-99.4595 494.469,-104.813"/>
</g>
<!-- Node1720 -->
<g id="node9" class="node"><title>Node1720</title>
<g id="a_node9"><a xlink:href="$a00110.html#ad2327b94227019b6753b6b09400c0522" xlink:title="gk_GetCurMemoryUsed">
<polygon fill="white" stroke="black" points="328,-95.5 328,-114.5 452,-114.5 452,-95.5 328,-95.5"/>
<text text-anchor="middle" x="390" y="-102.5" font-family="Helvetica,sans-Serif" font-size="10.00">gk_GetCurMemoryUsed</text>
</a>
</g>
</g>
<!-- Node1718&#45;&gt;Node1720 -->
<g id="edge8" class="edge"><title>Node1718&#45;&gt;Node1720</title>
<path fill="none" stroke="midnightblue" d="M290.245,-90.4547C298.646,-91.692 308.139,-93.0903 317.836,-94.5184"/>
<polygon fill="midnightblue" stroke="midnightblue" points="317.573,-98.0175 327.977,-96.0121 318.593,-91.0922 317.573,-98.0175"/>
</g>
<!-- Node1721 -->
<g id="node10" class="node"><title>Node1721</title>
<g id="a_node10"><a xlink:href="$a00110.html#a656fd5266ae12a96e53125486f8fea52" xlink:title="gk_GetMaxMemoryUsed">
<polygon fill="white" stroke="black" points="326.5,-57.5 326.5,-76.5 453.5,-76.5 453.5,-57.5 326.5,-57.5"/>
<text text-anchor="middle" x="390" y="-64.5" font-family="Helvetica,sans-Serif" font-size="10.00">gk_GetMaxMemoryUsed</text>
</a>
</g>
</g>
<!-- Node1718&#45;&gt;Node1721 -->
<g id="edge9" class="edge"><title>Node1718&#45;&gt;Node1721</title>
<path fill="none" stroke="midnightblue" d="M290.245,-81.5453C298.229,-80.3693 307.2,-79.048 316.395,-77.6938"/>
<polygon fill="midnightblue" stroke="midnightblue" points="317.04,-81.1366 326.423,-76.2167 316.02,-74.2113 317.04,-81.1366"/>
</g>
<!-- Node1722 -->
<g id="node11" class="node"><title>Node1722</title>
<g id="a_node11"><a xlink:href="$a00026.html#a4c320c13bcdc9967613253ef4c73f59f" xlink:title="gk_errexit">
<polygon fill="white" stroke="black" points="360,-19.5 360,-38.5 420,-38.5 420,-19.5 360,-19.5"/>
<text text-anchor="middle" x="390" y="-26.5" font-family="Helvetica,sans-Serif" font-size="10.00">gk_errexit</text>
</a>
</g>
</g>
<!-- Node1718&#45;&gt;Node1722 -->
<g id="edge10" class="edge"><title>Node1718&#45;&gt;Node1722</title>
<path fill="none" stroke="midnightblue" d="M274.436,-76.3905C287.481,-68.027 307.428,-56.0202 326,-48 333.68,-44.6834 342.121,-41.7096 350.259,-39.1539"/>
<polygon fill="midnightblue" stroke="midnightblue" points="351.388,-42.4695 359.965,-36.2488 349.381,-35.7634 351.388,-42.4695"/>
</g>
<!-- Node1722&#45;&gt;Node1719 -->
<g id="edge11" class="edge"><title>Node1722&#45;&gt;Node1719</title>
<path fill="none" stroke="midnightblue" d="M420.228,-35.8252C431.104,-38.8755 443.377,-42.9396 454,-48 466.634,-54.0184 479.634,-62.6626 489.925,-70.1863"/>
<polygon fill="midnightblue" stroke="midnightblue" points="488.101,-73.1937 498.194,-76.4154 492.313,-67.6027 488.101,-73.1937"/>
</g>
</g>
</svg>
