<?xml version="1.0" encoding="UTF-8" standalone="no"?>
<!DOCTYPE svg PUBLIC "-//W3C//DTD SVG 1.1//EN"
 "http://www.w3.org/Graphics/SVG/1.1/DTD/svg11.dtd">
<!-- Generated by graphviz version 2.36.0 (20140111.2315)
 -->
<!-- Title: gk_fopen Pages: 1 -->
<svg width="476pt" height="1101pt"
 viewBox="0.00 0.00 476.00 1100.63" xmlns="http://www.w3.org/2000/svg" xmlns:xlink="http://www.w3.org/1999/xlink">
<g id="graph0" class="graph" transform="scale(1 1) rotate(0) translate(4 1096.63)">
<title>gk_fopen</title>
<polygon fill="white" stroke="none" points="-4,4 -4,-1096.63 472,-1096.63 472,4 -4,4"/>
<!-- Node566 -->
<g id="node1" class="node"><title>Node566</title>
<polygon fill="#bfbfbf" stroke="black" points="0,-532.5 0,-551.5 58,-551.5 58,-532.5 0,-532.5"/>
<text text-anchor="middle" x="29" y="-539.5" font-family="Helvetica,sans-Serif" font-size="10.00">gk_fopen</text>
</g>
<!-- Node567 -->
<g id="node2" class="node"><title>Node567</title>
<g id="a_node2"><a xlink:href="$a00077.html#a8ebc19fe9a291bdf67677ebdaae56592" xlink:title="gk_csr_Read">
<polygon fill="white" stroke="black" points="284.5,-1026.5 284.5,-1045.5 359.5,-1045.5 359.5,-1026.5 284.5,-1026.5"/>
<text text-anchor="middle" x="322" y="-1033.5" font-family="Helvetica,sans-Serif" font-size="10.00">gk_csr_Read</text>
</a>
</g>
</g>
<!-- Node566&#45;&gt;Node567 -->
<g id="edge1" class="edge"><title>Node566&#45;&gt;Node567</title>
<path fill="none" stroke="midnightblue" d="M29.7193,-561.857C29.0222,-642.034 30.7706,-940.619 94,-1004 143.893,-1054.01 233.728,-1050.06 284.131,-1042.93"/>
<polygon fill="midnightblue" stroke="midnightblue" points="33.2211,-561.705 29.8329,-551.667 26.2215,-561.627 33.2211,-561.705"/>
</g>
<!-- Node568 -->
<g id="node3" class="node"><title>Node568</title>
<g id="a_node3"><a xlink:href="$a00867.html#a0ddf1224851353fc92bfbff6f499fa97" xlink:title="main">
<polygon fill="white" stroke="black" points="430,-1045.5 430,-1064.5 468,-1064.5 468,-1045.5 430,-1045.5"/>
<text text-anchor="middle" x="449" y="-1052.5" font-family="Helvetica,sans-Serif" font-size="10.00">main</text>
</a>
</g>
</g>
<!-- Node566&#45;&gt;Node568 -->
<g id="edge45" class="edge"><title>Node566&#45;&gt;Node568</title>
<path fill="none" stroke="midnightblue" d="M31.1182,-561.826C36.2882,-650.157 59.1168,-1005.01 94,-1039 188.07,-1130.67 371.452,-1080.57 429.748,-1061.4"/>
<polygon fill="midnightblue" stroke="midnightblue" points="34.5982,-561.376 30.5292,-551.594 27.6098,-561.778 34.5982,-561.376"/>
</g>
<!-- Node569 -->
<g id="node4" class="node"><title>Node569</title>
<g id="a_node4"><a xlink:href="$a00077.html#a6eee009c30261b4b9450016267b4567c" xlink:title="gk_csr_Write">
<polygon fill="white" stroke="black" points="116.5,-760.5 116.5,-779.5 191.5,-779.5 191.5,-760.5 116.5,-760.5"/>
<text text-anchor="middle" x="154" y="-767.5" font-family="Helvetica,sans-Serif" font-size="10.00">gk_csr_Write</text>
</a>
</g>
</g>
<!-- Node566&#45;&gt;Node569 -->
<g id="edge3" class="edge"><title>Node566&#45;&gt;Node569</title>
<path fill="none" stroke="midnightblue" d="M30.2809,-562.001C31.9575,-603.154 41.6474,-697.888 94,-751 100.043,-757.131 108.071,-761.286 116.253,-764.1"/>
<polygon fill="midnightblue" stroke="midnightblue" points="33.7764,-561.79 29.9917,-551.894 26.7792,-561.99 33.7764,-561.79"/>
</g>
<!-- Node570 -->
<g id="node5" class="node"><title>Node570</title>
<g id="a_node5"><a xlink:href="$a00077.html#a739112cb142f2e96d6952140c66cd31c" xlink:title="gk_getfilestats">
<polygon fill="white" stroke="black" points="114,-912.5 114,-931.5 194,-931.5 194,-912.5 114,-912.5"/>
<text text-anchor="middle" x="154" y="-919.5" font-family="Helvetica,sans-Serif" font-size="10.00">gk_getfilestats</text>
</a>
</g>
</g>
<!-- Node566&#45;&gt;Node570 -->
<g id="edge4" class="edge"><title>Node566&#45;&gt;Node570</title>
<path fill="none" stroke="midnightblue" d="M31.0711,-561.496C35.0912,-628.087 51.2929,-845.314 94,-898 99.1528,-904.357 106.257,-909.044 113.753,-912.496"/>
<polygon fill="midnightblue" stroke="midnightblue" points="34.5653,-561.293 30.4929,-551.512 27.577,-561.698 34.5653,-561.293"/>
</g>
<!-- Node571 -->
<g id="node6" class="node"><title>Node571</title>
<g id="a_node6"><a xlink:href="$a00858.html#ad13e689608e193482a6f30b1ade87814" xlink:title="gk_readfile">
<polygon fill="white" stroke="black" points="289.5,-986.5 289.5,-1005.5 354.5,-1005.5 354.5,-986.5 289.5,-986.5"/>
<text text-anchor="middle" x="322" y="-993.5" font-family="Helvetica,sans-Serif" font-size="10.00">gk_readfile</text>
</a>
</g>
</g>
<!-- Node566&#45;&gt;Node571 -->
<g id="edge16" class="edge"><title>Node566&#45;&gt;Node571</title>
<path fill="none" stroke="midnightblue" d="M29.9002,-561.949C29.9588,-638.718 34.3897,-913.636 94,-971 146.423,-1021.45 240.325,-1012.42 289.307,-1003.26"/>
<polygon fill="midnightblue" stroke="midnightblue" points="33.4004,-561.756 29.9188,-551.749 26.4004,-561.743 33.4004,-561.756"/>
</g>
<!-- Node572 -->
<g id="node7" class="node"><title>Node572</title>
<g id="a_node7"><a xlink:href="$a00858.html#a201c46a9a2bf9c06a917f259d109b7ee" xlink:title="gk_i32readfile">
<polygon fill="white" stroke="black" points="282.5,-943.5 282.5,-962.5 361.5,-962.5 361.5,-943.5 282.5,-943.5"/>
<text text-anchor="middle" x="322" y="-950.5" font-family="Helvetica,sans-Serif" font-size="10.00">gk_i32readfile</text>
</a>
</g>
</g>
<!-- Node566&#45;&gt;Node572 -->
<g id="edge17" class="edge"><title>Node566&#45;&gt;Node572</title>
<path fill="none" stroke="midnightblue" d="M30.05,-562.059C30.6886,-635.739 37.0492,-889.799 94,-941 147.56,-989.152 240.12,-974.749 288.854,-962.508"/>
<polygon fill="midnightblue" stroke="midnightblue" points="33.5487,-561.821 29.9898,-551.842 26.5489,-561.862 33.5487,-561.821"/>
</g>
<!-- Node573 -->
<g id="node8" class="node"><title>Node573</title>
<g id="a_node8"><a xlink:href="$a00858.html#a8cb19aa95a831aa745f6e04e1cc0b204" xlink:title="gk_i64readfile">
<polygon fill="white" stroke="black" points="282.5,-896.5 282.5,-915.5 361.5,-915.5 361.5,-896.5 282.5,-896.5"/>
<text text-anchor="middle" x="322" y="-903.5" font-family="Helvetica,sans-Serif" font-size="10.00">gk_i64readfile</text>
</a>
</g>
</g>
<!-- Node566&#45;&gt;Node573 -->
<g id="edge18" class="edge"><title>Node566&#45;&gt;Node573</title>
<path fill="none" stroke="midnightblue" d="M31.3573,-562.002C35.9685,-623.95 53.0805,-810.985 94,-853 119.836,-879.528 224.732,-895.212 282.455,-902"/>
<polygon fill="midnightblue" stroke="midnightblue" points="34.822,-561.381 30.6185,-551.656 27.8398,-561.88 34.822,-561.381"/>
</g>
<!-- Node574 -->
<g id="node9" class="node"><title>Node574</title>
<g id="a_node9"><a xlink:href="$a00951.html#aef01a8b2c6432d21be77abeabeeeced8" xlink:title="ReadMesh">
<polygon fill="white" stroke="black" points="289.5,-839.5 289.5,-858.5 354.5,-858.5 354.5,-839.5 289.5,-839.5"/>
<text text-anchor="middle" x="322" y="-846.5" font-family="Helvetica,sans-Serif" font-size="10.00">ReadMesh</text>
</a>
</g>
</g>
<!-- Node566&#45;&gt;Node574 -->
<g id="edge26" class="edge"><title>Node566&#45;&gt;Node574</title>
<path fill="none" stroke="midnightblue" d="M31.6847,-561.91C36.9929,-619.605 55.3591,-785.014 94,-820 147.897,-868.798 240.735,-862.649 289.3,-855.175"/>
<polygon fill="midnightblue" stroke="midnightblue" points="35.14,-561.249 30.7712,-551.597 28.1673,-561.867 35.14,-561.249"/>
</g>
<!-- Node576 -->
<g id="node11" class="node"><title>Node576</title>
<g id="a_node11"><a xlink:href="$a00137.html#ad44124c9b40b8ffda2276f877526a261" xlink:title="This function reads a pssm in the format of gkmod pssm. ">
<polygon fill="white" stroke="black" points="250,-799.5 250,-818.5 394,-818.5 394,-799.5 250,-799.5"/>
<text text-anchor="middle" x="322" y="-806.5" font-family="Helvetica,sans-Serif" font-size="10.00">gk_seq_ReadGKMODPSSM</text>
</a>
</g>
</g>
<!-- Node566&#45;&gt;Node576 -->
<g id="edge46" class="edge"><title>Node566&#45;&gt;Node576</title>
<path fill="none" stroke="midnightblue" d="M32.2205,-561.842C38.6127,-615.117 58.8814,-759.265 94,-789 145.178,-832.332 228.099,-827.051 278.293,-818.534"/>
<polygon fill="midnightblue" stroke="midnightblue" points="35.6686,-561.193 31.0371,-551.664 28.7155,-562.001 35.6686,-561.193"/>
</g>
<!-- Node577 -->
<g id="node12" class="node"><title>Node577</title>
<g id="a_node12"><a xlink:href="$a00849.html#a432baae7f5c91c3604b42efb324b4131" xlink:title="gk_graph_Read">
<polygon fill="white" stroke="black" points="110,-684.5 110,-703.5 198,-703.5 198,-684.5 110,-684.5"/>
<text text-anchor="middle" x="154" y="-691.5" font-family="Helvetica,sans-Serif" font-size="10.00">gk_graph_Read</text>
</a>
</g>
</g>
<!-- Node566&#45;&gt;Node577 -->
<g id="edge12" class="edge"><title>Node566&#45;&gt;Node577</title>
<path fill="none" stroke="midnightblue" d="M34.261,-561.722C41.5252,-590.672 59.0415,-644.529 94,-675 98.6239,-679.03 104.114,-682.208 109.854,-684.713"/>
<polygon fill="midnightblue" stroke="midnightblue" points="37.5835,-560.56 31.8932,-551.623 30.7683,-562.158 37.5835,-560.56"/>
</g>
<!-- Node579 -->
<g id="node14" class="node"><title>Node579</title>
<g id="a_node14"><a xlink:href="$a00849.html#a92bfa3f7bc76f9fb591ad67f665383e9" xlink:title="gk_graph_Write">
<polygon fill="white" stroke="black" points="110.5,-722.5 110.5,-741.5 197.5,-741.5 197.5,-722.5 110.5,-722.5"/>
<text text-anchor="middle" x="154" y="-729.5" font-family="Helvetica,sans-Serif" font-size="10.00">gk_graph_Write</text>
</a>
</g>
</g>
<!-- Node566&#45;&gt;Node579 -->
<g id="edge14" class="edge"><title>Node566&#45;&gt;Node579</title>
<path fill="none" stroke="midnightblue" d="M31.8536,-561.725C36.223,-597.057 50.342,-671.33 94,-713 98.6706,-717.458 104.393,-720.87 110.417,-723.481"/>
<polygon fill="midnightblue" stroke="midnightblue" points="35.3247,-561.27 30.7524,-551.713 28.3667,-562.036 35.3247,-561.27"/>
</g>
<!-- Node580 -->
<g id="node15" class="node"><title>Node580</title>
<g id="a_node15"><a xlink:href="$a00858.html#afbb9b4e2327d298a79924028441a0fdb" xlink:title="gk_i32readfilebin">
<polygon fill="white" stroke="black" points="108,-646.5 108,-665.5 200,-665.5 200,-646.5 108,-646.5"/>
<text text-anchor="middle" x="154" y="-653.5" font-family="Helvetica,sans-Serif" font-size="10.00">gk_i32readfilebin</text>
</a>
</g>
</g>
<!-- Node566&#45;&gt;Node580 -->
<g id="edge19" class="edge"><title>Node566&#45;&gt;Node580</title>
<path fill="none" stroke="midnightblue" d="M38.0984,-561.003C48.176,-582.456 67.3645,-616.971 94,-637 99.1605,-640.88 105.143,-643.986 111.279,-646.466"/>
<polygon fill="midnightblue" stroke="midnightblue" points="41.1825,-559.327 33.8903,-551.641 34.7979,-562.197 41.1825,-559.327"/>
</g>
<!-- Node581 -->
<g id="node16" class="node"><title>Node581</title>
<g id="a_node16"><a xlink:href="$a00858.html#aca460764497638a612f886a089662416" xlink:title="gk_i64readfilebin">
<polygon fill="white" stroke="black" points="108,-608.5 108,-627.5 200,-627.5 200,-608.5 108,-608.5"/>
<text text-anchor="middle" x="154" y="-615.5" font-family="Helvetica,sans-Serif" font-size="10.00">gk_i64readfilebin</text>
</a>
</g>
</g>
<!-- Node566&#45;&gt;Node581 -->
<g id="edge20" class="edge"><title>Node566&#45;&gt;Node581</title>
<path fill="none" stroke="midnightblue" d="M45.6729,-559.408C57.7918,-571.95 75.5653,-588.455 94,-599 100.539,-602.74 107.913,-605.855 115.177,-608.408"/>
<polygon fill="midnightblue" stroke="midnightblue" points="47.9696,-556.741 38.5755,-551.841 42.8641,-561.53 47.9696,-556.741"/>
</g>
<!-- Node582 -->
<g id="node17" class="node"><title>Node582</title>
<g id="a_node17"><a xlink:href="$a00858.html#a825d4634e2e656bc3dc9f3af0c9b1d5d" xlink:title="gk_freadfilebin">
<polygon fill="white" stroke="black" points="113,-570.5 113,-589.5 195,-589.5 195,-570.5 113,-570.5"/>
<text text-anchor="middle" x="154" y="-577.5" font-family="Helvetica,sans-Serif" font-size="10.00">gk_freadfilebin</text>
</a>
</g>
</g>
<!-- Node566&#45;&gt;Node582 -->
<g id="edge21" class="edge"><title>Node566&#45;&gt;Node582</title>
<path fill="none" stroke="midnightblue" d="M68.0133,-553.744C85.3075,-559.087 105.518,-565.331 121.89,-570.389"/>
<polygon fill="midnightblue" stroke="midnightblue" points="68.8063,-550.326 58.2187,-550.718 66.74,-557.014 68.8063,-550.326"/>
</g>
<!-- Node583 -->
<g id="node18" class="node"><title>Node583</title>
<g id="a_node18"><a xlink:href="$a00858.html#a44ee9129d983bd435f96f9c1404f603d" xlink:title="gk_fwritefilebin">
<polygon fill="white" stroke="black" points="112.5,-532.5 112.5,-551.5 195.5,-551.5 195.5,-532.5 112.5,-532.5"/>
<text text-anchor="middle" x="154" y="-539.5" font-family="Helvetica,sans-Serif" font-size="10.00">gk_fwritefilebin</text>
</a>
</g>
</g>
<!-- Node566&#45;&gt;Node583 -->
<g id="edge22" class="edge"><title>Node566&#45;&gt;Node583</title>
<path fill="none" stroke="midnightblue" d="M68.4626,-542C82.4052,-542 98.1944,-542 112.322,-542"/>
<polygon fill="midnightblue" stroke="midnightblue" points="68.2187,-538.5 58.2187,-542 68.2187,-545.5 68.2187,-538.5"/>
</g>
<!-- Node584 -->
<g id="node19" class="node"><title>Node584</title>
<g id="a_node19"><a xlink:href="$a00858.html#a2a9dbcb6a3f167b0fd20e431612e5aa9" xlink:title="gk_dreadfilebin">
<polygon fill="white" stroke="black" points="112,-494.5 112,-513.5 196,-513.5 196,-494.5 112,-494.5"/>
<text text-anchor="middle" x="154" y="-501.5" font-family="Helvetica,sans-Serif" font-size="10.00">gk_dreadfilebin</text>
</a>
</g>
</g>
<!-- Node566&#45;&gt;Node584 -->
<g id="edge23" class="edge"><title>Node566&#45;&gt;Node584</title>
<path fill="none" stroke="midnightblue" d="M68.0133,-530.256C85.3075,-524.913 105.518,-518.669 121.89,-513.611"/>
<polygon fill="midnightblue" stroke="midnightblue" points="66.74,-526.986 58.2187,-533.282 68.8063,-533.674 66.74,-526.986"/>
</g>
<!-- Node585 -->
<g id="node20" class="node"><title>Node585</title>
<g id="a_node20"><a xlink:href="$a00951.html#ac8fe4a21ae3e0e01afdba3fedf1c6123" xlink:title="ReadGraph">
<polygon fill="white" stroke="black" points="120,-418.5 120,-437.5 188,-437.5 188,-418.5 120,-418.5"/>
<text text-anchor="middle" x="154" y="-425.5" font-family="Helvetica,sans-Serif" font-size="10.00">ReadGraph</text>
</a>
</g>
</g>
<!-- Node566&#45;&gt;Node585 -->
<g id="edge24" class="edge"><title>Node566&#45;&gt;Node585</title>
<path fill="none" stroke="midnightblue" d="M38.0984,-522.997C48.176,-501.544 67.3645,-467.029 94,-447 101.569,-441.309 110.906,-437.285 119.901,-434.455"/>
<polygon fill="midnightblue" stroke="midnightblue" points="34.7979,-521.803 33.8903,-532.359 41.1825,-524.673 34.7979,-521.803"/>
</g>
<!-- Node587 -->
<g id="node22" class="node"><title>Node587</title>
<g id="a_node22"><a xlink:href="$a00951.html#a12b940ccee061b8787088fbe16245f46" xlink:title="ReadTPwgts">
<polygon fill="white" stroke="black" points="117,-342.5 117,-361.5 191,-361.5 191,-342.5 117,-342.5"/>
<text text-anchor="middle" x="154" y="-349.5" font-family="Helvetica,sans-Serif" font-size="10.00">ReadTPwgts</text>
</a>
</g>
</g>
<!-- Node566&#45;&gt;Node587 -->
<g id="edge27" class="edge"><title>Node566&#45;&gt;Node587</title>
<path fill="none" stroke="midnightblue" d="M31.8536,-522.275C36.223,-486.943 50.342,-412.67 94,-371 100.305,-364.982 108.527,-360.87 116.822,-358.06"/>
<polygon fill="midnightblue" stroke="midnightblue" points="28.3667,-521.964 30.7524,-532.287 35.3247,-522.73 28.3667,-521.964"/>
</g>
<!-- Node589 -->
<g id="node24" class="node"><title>Node589</title>
<g id="a_node24"><a xlink:href="$a00951.html#a65a7c382444e5132dafddb75b6117754" xlink:title="ReadPOVector">
<polygon fill="white" stroke="black" points="112,-456.5 112,-475.5 196,-475.5 196,-456.5 112,-456.5"/>
<text text-anchor="middle" x="154" y="-463.5" font-family="Helvetica,sans-Serif" font-size="10.00">ReadPOVector</text>
</a>
</g>
</g>
<!-- Node566&#45;&gt;Node589 -->
<g id="edge29" class="edge"><title>Node566&#45;&gt;Node589</title>
<path fill="none" stroke="midnightblue" d="M45.6729,-524.592C57.7918,-512.05 75.5653,-495.545 94,-485 100.539,-481.26 107.913,-478.145 115.177,-475.592"/>
<polygon fill="midnightblue" stroke="midnightblue" points="42.8641,-522.47 38.5755,-532.159 47.9696,-527.259 42.8641,-522.47"/>
</g>
<!-- Node590 -->
<g id="node25" class="node"><title>Node590</title>
<g id="a_node25"><a xlink:href="$a00951.html#ad05062397a736c5602a72c2419deffbf" xlink:title="WritePartition">
<polygon fill="white" stroke="black" points="115.5,-380.5 115.5,-399.5 192.5,-399.5 192.5,-380.5 115.5,-380.5"/>
<text text-anchor="middle" x="154" y="-387.5" font-family="Helvetica,sans-Serif" font-size="10.00">WritePartition</text>
</a>
</g>
</g>
<!-- Node566&#45;&gt;Node590 -->
<g id="edge31" class="edge"><title>Node566&#45;&gt;Node590</title>
<path fill="none" stroke="midnightblue" d="M34.261,-522.278C41.5252,-493.328 59.0415,-439.471 94,-409 100.084,-403.697 107.667,-399.87 115.349,-397.11"/>
<polygon fill="midnightblue" stroke="midnightblue" points="30.7683,-521.842 31.8932,-532.377 37.5835,-523.44 30.7683,-521.842"/>
</g>
<!-- Node591 -->
<g id="node26" class="node"><title>Node591</title>
<g id="a_node26"><a xlink:href="$a00951.html#ac8ce682e47fbcfad378ee4100ab091ca" xlink:title="WriteMeshPartition">
<polygon fill="white" stroke="black" points="103.5,-304.5 103.5,-323.5 204.5,-323.5 204.5,-304.5 103.5,-304.5"/>
<text text-anchor="middle" x="154" y="-311.5" font-family="Helvetica,sans-Serif" font-size="10.00">WriteMeshPartition</text>
</a>
</g>
</g>
<!-- Node566&#45;&gt;Node591 -->
<g id="edge33" class="edge"><title>Node566&#45;&gt;Node591</title>
<path fill="none" stroke="midnightblue" d="M30.2809,-521.999C31.9575,-480.846 41.6474,-386.112 94,-333 97.8527,-329.091 102.512,-325.986 107.503,-323.519"/>
<polygon fill="midnightblue" stroke="midnightblue" points="26.7792,-522.01 29.9917,-532.106 33.7764,-522.21 26.7792,-522.01"/>
</g>
<!-- Node593 -->
<g id="node28" class="node"><title>Node593</title>
<g id="a_node28"><a xlink:href="$a00951.html#a1c37c9f8d06b4dea85ac0ab2abe762eb" xlink:title="WritePermutation">
<polygon fill="white" stroke="black" points="107,-266.5 107,-285.5 201,-285.5 201,-266.5 107,-266.5"/>
<text text-anchor="middle" x="154" y="-273.5" font-family="Helvetica,sans-Serif" font-size="10.00">WritePermutation</text>
</a>
</g>
</g>
<!-- Node566&#45;&gt;Node593 -->
<g id="edge35" class="edge"><title>Node566&#45;&gt;Node593</title>
<path fill="none" stroke="midnightblue" d="M29.1427,-522.278C28.249,-476.118 32.6216,-360.047 94,-295 97.6927,-291.087 102.194,-287.977 107.046,-285.507"/>
<polygon fill="midnightblue" stroke="midnightblue" points="25.6491,-522.545 29.4519,-532.434 32.6459,-522.332 25.6491,-522.545"/>
</g>
<!-- Node595 -->
<g id="node30" class="node"><title>Node595</title>
<g id="a_node30"><a xlink:href="$a00951.html#a91b3b24f2b508da8f2e2df7bc2c94cc6" xlink:title="WriteGraph">
<polygon fill="white" stroke="black" points="120,-228.5 120,-247.5 188,-247.5 188,-228.5 120,-228.5"/>
<text text-anchor="middle" x="154" y="-235.5" font-family="Helvetica,sans-Serif" font-size="10.00">WriteGraph</text>
</a>
</g>
</g>
<!-- Node566&#45;&gt;Node595 -->
<g id="edge37" class="edge"><title>Node566&#45;&gt;Node595</title>
<path fill="none" stroke="midnightblue" d="M31.8984,-522.288C37.8508,-464.4 57.933,-296.494 94,-257 100.749,-249.61 110.38,-245.082 119.91,-242.311"/>
<polygon fill="midnightblue" stroke="midnightblue" points="28.4069,-522.03 30.8957,-532.328 35.3722,-522.725 28.4069,-522.03"/>
</g>
<!-- Node597 -->
<g id="node32" class="node"><title>Node597</title>
<g id="a_node32"><a xlink:href="$a00125.html#a297ec0561d579a1772f424fce8886d96" xlink:title="Reads a pdb file into a pdbf structure. ">
<polygon fill="white" stroke="black" points="113,-190.5 113,-209.5 195,-209.5 195,-190.5 113,-190.5"/>
<text text-anchor="middle" x="154" y="-197.5" font-family="Helvetica,sans-Serif" font-size="10.00">gk_readpdbfile</text>
</a>
</g>
</g>
<!-- Node566&#45;&gt;Node597 -->
<g id="edge39" class="edge"><title>Node566&#45;&gt;Node597</title>
<path fill="none" stroke="midnightblue" d="M31.3378,-522.194C35.9802,-459.152 53.3832,-264.622 94,-219 99.0089,-213.374 105.69,-209.404 112.754,-206.605"/>
<polygon fill="midnightblue" stroke="midnightblue" points="27.8325,-522.147 30.6168,-532.37 34.815,-522.642 27.8325,-522.147"/>
</g>
<!-- Node598 -->
<g id="node33" class="node"><title>Node598</title>
<g id="a_node33"><a xlink:href="$a00125.html#a39b1b4f30c03454894d5218edd8296e0" xlink:title="Writes the sequence of residues from a pdb file. ">
<polygon fill="white" stroke="black" points="98,-152.5 98,-171.5 210,-171.5 210,-152.5 98,-152.5"/>
<text text-anchor="middle" x="154" y="-159.5" font-family="Helvetica,sans-Serif" font-size="10.00">gk_writefastafrompdb</text>
</a>
</g>
</g>
<!-- Node566&#45;&gt;Node598 -->
<g id="edge40" class="edge"><title>Node566&#45;&gt;Node598</title>
<path fill="none" stroke="midnightblue" d="M30.8891,-522.111C34.3147,-454.197 48.8079,-232.802 94,-181 97.3957,-177.108 101.592,-174.007 106.17,-171.538"/>
<polygon fill="midnightblue" stroke="midnightblue" points="27.3839,-522.139 30.4019,-532.295 34.3759,-522.474 27.3839,-522.139"/>
</g>
<!-- Node599 -->
<g id="node34" class="node"><title>Node599</title>
<g id="a_node34"><a xlink:href="$a00125.html#a6be4d6cf94a1dace5677865e8958b7b3" xlink:title="Writes all centers of mass in pdb&#45;format to file fname. ">
<polygon fill="white" stroke="black" points="94.5,-114.5 94.5,-133.5 213.5,-133.5 213.5,-114.5 94.5,-114.5"/>
<text text-anchor="middle" x="154" y="-121.5" font-family="Helvetica,sans-Serif" font-size="10.00">gk_writecentersofmass</text>
</a>
</g>
</g>
<!-- Node566&#45;&gt;Node599 -->
<g id="edge41" class="edge"><title>Node566&#45;&gt;Node599</title>
<path fill="none" stroke="midnightblue" d="M30.5243,-521.943C32.82,-449.274 44.2329,-201 94,-143 97.2935,-139.162 101.366,-136.092 105.821,-133.639"/>
<polygon fill="midnightblue" stroke="midnightblue" points="27.0129,-522.286 30.2206,-532.384 34.01,-522.49 27.0129,-522.286"/>
</g>
<!-- Node600 -->
<g id="node35" class="node"><title>Node600</title>
<g id="a_node35"><a xlink:href="$a00125.html#a786192984ea62e6824ae9a2d1b902574" xlink:title="Writes all atoms in p in pdb&#45;format to file fname. ">
<polygon fill="white" stroke="black" points="109.5,-76.5 109.5,-95.5 198.5,-95.5 198.5,-76.5 109.5,-76.5"/>
<text text-anchor="middle" x="154" y="-83.5" font-family="Helvetica,sans-Serif" font-size="10.00">gk_writefullatom</text>
</a>
</g>
</g>
<!-- Node566&#45;&gt;Node600 -->
<g id="edge42" class="edge"><title>Node566&#45;&gt;Node600</title>
<path fill="none" stroke="midnightblue" d="M30.213,-522.032C31.4305,-445.142 39.5821,-169.302 94,-105 98.1015,-100.154 103.446,-96.5318 109.243,-93.8277"/>
<polygon fill="midnightblue" stroke="midnightblue" points="26.7105,-522.199 30.075,-532.245 33.7099,-522.294 26.7105,-522.199"/>
</g>
<!-- Node601 -->
<g id="node36" class="node"><title>Node601</title>
<g id="a_node36"><a xlink:href="$a00125.html#a04817c574e29493f0363ef81b41f82df" xlink:title="Writes out all the backbone atoms of a structure in pdb format. ">
<polygon fill="white" stroke="black" points="105.5,-38.5 105.5,-57.5 202.5,-57.5 202.5,-38.5 105.5,-38.5"/>
<text text-anchor="middle" x="154" y="-45.5" font-family="Helvetica,sans-Serif" font-size="10.00">gk_writebackbone</text>
</a>
</g>
</g>
<!-- Node566&#45;&gt;Node601 -->
<g id="edge43" class="edge"><title>Node566&#45;&gt;Node601</title>
<path fill="none" stroke="midnightblue" d="M29.9532,-521.885C30.1671,-440.623 34.9726,-137.567 94,-67 97.2451,-63.1206 101.287,-60.0252 105.725,-57.5567"/>
<polygon fill="midnightblue" stroke="midnightblue" points="26.4532,-522.209 29.9491,-532.211 33.4532,-522.212 26.4532,-522.209"/>
</g>
<!-- Node602 -->
<g id="node37" class="node"><title>Node602</title>
<g id="a_node37"><a xlink:href="$a00125.html#ad0eef52d1d7e2da669accced22e821a4" xlink:title="Writes out all the alpha carbon atoms of a structure. ">
<polygon fill="white" stroke="black" points="97,-0.5 97,-19.5 211,-19.5 211,-0.5 97,-0.5"/>
<text text-anchor="middle" x="154" y="-7.5" font-family="Helvetica,sans-Serif" font-size="10.00">gk_writealphacarbons</text>
</a>
</g>
</g>
<!-- Node566&#45;&gt;Node602 -->
<g id="edge44" class="edge"><title>Node566&#45;&gt;Node602</title>
<path fill="none" stroke="midnightblue" d="M29.7318,-522.194C28.9827,-437.425 30.2376,-105.992 94,-29 97.226,-25.1047 101.256,-21.9992 105.686,-19.525"/>
<polygon fill="midnightblue" stroke="midnightblue" points="26.2328,-522.31 29.842,-532.272 33.2324,-522.234 26.2328,-522.31"/>
</g>
<!-- Node567&#45;&gt;Node568 -->
<g id="edge2" class="edge"><title>Node567&#45;&gt;Node568</title>
<path fill="none" stroke="midnightblue" d="M369.84,-1043.12C390.734,-1046.3 414.123,-1049.85 429.824,-1052.24"/>
<polygon fill="midnightblue" stroke="midnightblue" points="370.24,-1039.64 359.828,-1041.6 369.188,-1046.56 370.24,-1039.64"/>
</g>
<!-- Node570&#45;&gt;Node567 -->
<g id="edge5" class="edge"><title>Node570&#45;&gt;Node567</title>
<path fill="none" stroke="midnightblue" d="M168.581,-939.798C185.468,-960.737 216.219,-995.154 250,-1015 260.418,-1021.12 272.758,-1025.58 284.204,-1028.77"/>
<polygon fill="midnightblue" stroke="midnightblue" points="171.163,-937.42 162.224,-931.731 165.665,-941.752 171.163,-937.42"/>
</g>
<!-- Node570&#45;&gt;Node571 -->
<g id="edge6" class="edge"><title>Node570&#45;&gt;Node571</title>
<path fill="none" stroke="midnightblue" d="M180.265,-936.706C199.105,-947.322 225.676,-961.566 250,-972 262.675,-977.437 277.027,-982.487 289.493,-986.537"/>
<polygon fill="midnightblue" stroke="midnightblue" points="181.848,-933.58 171.426,-931.672 178.384,-939.662 181.848,-933.58"/>
</g>
<!-- Node570&#45;&gt;Node572 -->
<g id="edge7" class="edge"><title>Node570&#45;&gt;Node572</title>
<path fill="none" stroke="midnightblue" d="M204.325,-931.211C229.224,-935.861 258.993,-941.42 282.229,-945.76"/>
<polygon fill="midnightblue" stroke="midnightblue" points="204.812,-927.742 194.34,-929.347 203.527,-934.623 204.812,-927.742"/>
</g>
<!-- Node570&#45;&gt;Node573 -->
<g id="edge8" class="edge"><title>Node570&#45;&gt;Node573</title>
<path fill="none" stroke="midnightblue" d="M204.325,-917.246C229.224,-914.846 258.993,-911.977 282.229,-909.737"/>
<polygon fill="midnightblue" stroke="midnightblue" points="203.958,-913.765 194.34,-918.208 204.629,-920.733 203.958,-913.765"/>
</g>
<!-- Node570&#45;&gt;Node574 -->
<g id="edge9" class="edge"><title>Node570&#45;&gt;Node574</title>
<path fill="none" stroke="midnightblue" d="M185.894,-908.414C218.891,-893.903 270.335,-871.28 299.293,-858.546"/>
<polygon fill="midnightblue" stroke="midnightblue" points="184.447,-905.227 176.702,-912.457 187.265,-911.635 184.447,-905.227"/>
</g>
<!-- Node570&#45;&gt;Node576 -->
<g id="edge11" class="edge"><title>Node570&#45;&gt;Node576</title>
<path fill="none" stroke="midnightblue" d="M168.623,-904.4C185.551,-883.692 216.343,-849.651 250,-830 258.104,-825.269 267.359,-821.528 276.45,-818.598"/>
<polygon fill="midnightblue" stroke="midnightblue" points="165.757,-902.38 162.249,-912.377 171.226,-906.749 165.757,-902.38"/>
</g>
<!-- Node575 -->
<g id="node10" class="node"><title>Node575</title>
<g id="a_node10"><a xlink:href="$a00317.html#a0ddf1224851353fc92bfbff6f499fa97" xlink:title="main">
<polygon fill="white" stroke="black" points="430,-839.5 430,-858.5 468,-858.5 468,-839.5 430,-839.5"/>
<text text-anchor="middle" x="449" y="-846.5" font-family="Helvetica,sans-Serif" font-size="10.00">main</text>
</a>
</g>
</g>
<!-- Node574&#45;&gt;Node575 -->
<g id="edge10" class="edge"><title>Node574&#45;&gt;Node575</title>
<path fill="none" stroke="midnightblue" d="M364.668,-849C386.705,-849 412.643,-849 429.657,-849"/>
<polygon fill="midnightblue" stroke="midnightblue" points="364.543,-845.5 354.543,-849 364.543,-852.5 364.543,-845.5"/>
</g>
<!-- Node578 -->
<g id="node13" class="node"><title>Node578</title>
<g id="a_node13"><a xlink:href="$a00149.html#a0ddf1224851353fc92bfbff6f499fa97" xlink:title="main">
<polygon fill="white" stroke="black" points="303,-703.5 303,-722.5 341,-722.5 341,-703.5 303,-703.5"/>
<text text-anchor="middle" x="322" y="-710.5" font-family="Helvetica,sans-Serif" font-size="10.00">main</text>
</a>
</g>
</g>
<!-- Node577&#45;&gt;Node578 -->
<g id="edge13" class="edge"><title>Node577&#45;&gt;Node578</title>
<path fill="none" stroke="midnightblue" d="M208.448,-700.118C240.915,-703.834 280.32,-708.344 302.846,-710.922"/>
<polygon fill="midnightblue" stroke="midnightblue" points="208.514,-696.602 198.181,-698.942 207.718,-703.557 208.514,-696.602"/>
</g>
<!-- Node579&#45;&gt;Node578 -->
<g id="edge15" class="edge"><title>Node579&#45;&gt;Node578</title>
<path fill="none" stroke="midnightblue" d="M208.022,-725.931C240.522,-722.211 280.107,-717.681 302.748,-715.089"/>
<polygon fill="midnightblue" stroke="midnightblue" points="207.286,-722.492 197.749,-727.107 208.082,-729.447 207.286,-722.492"/>
</g>
<!-- Node586 -->
<g id="node21" class="node"><title>Node586</title>
<g id="a_node21"><a xlink:href="$a00308.html#a0ddf1224851353fc92bfbff6f499fa97" xlink:title="main">
<polygon fill="white" stroke="black" points="303,-437.5 303,-456.5 341,-456.5 341,-437.5 303,-437.5"/>
<text text-anchor="middle" x="322" y="-444.5" font-family="Helvetica,sans-Serif" font-size="10.00">main</text>
</a>
</g>
</g>
<!-- Node585&#45;&gt;Node586 -->
<g id="edge25" class="edge"><title>Node585&#45;&gt;Node586</title>
<path fill="none" stroke="midnightblue" d="M198.323,-432.959C232.275,-436.845 277.81,-442.057 302.758,-444.912"/>
<polygon fill="midnightblue" stroke="midnightblue" points="198.527,-429.459 188.194,-431.799 197.731,-436.414 198.527,-429.459"/>
</g>
<!-- Node588 -->
<g id="node23" class="node"><title>Node588</title>
<g id="a_node23"><a xlink:href="$a00311.html#a0ddf1224851353fc92bfbff6f499fa97" xlink:title="main">
<polygon fill="white" stroke="black" points="303,-361.5 303,-380.5 341,-380.5 341,-361.5 303,-361.5"/>
<text text-anchor="middle" x="322" y="-368.5" font-family="Helvetica,sans-Serif" font-size="10.00">main</text>
</a>
</g>
</g>
<!-- Node587&#45;&gt;Node588 -->
<g id="edge28" class="edge"><title>Node587&#45;&gt;Node588</title>
<path fill="none" stroke="midnightblue" d="M201.121,-357.279C234.831,-361.137 278.728,-366.162 302.956,-368.935"/>
<polygon fill="midnightblue" stroke="midnightblue" points="201.353,-353.783 191.02,-356.123 200.557,-360.737 201.353,-353.783"/>
</g>
<!-- Node589&#45;&gt;Node586 -->
<g id="edge30" class="edge"><title>Node589&#45;&gt;Node586</title>
<path fill="none" stroke="midnightblue" d="M206.384,-460.119C239.2,-456.363 279.769,-451.719 302.785,-449.085"/>
<polygon fill="midnightblue" stroke="midnightblue" points="205.571,-456.689 196.034,-461.303 206.367,-463.643 205.571,-456.689"/>
</g>
<!-- Node590&#45;&gt;Node588 -->
<g id="edge32" class="edge"><title>Node590&#45;&gt;Node588</title>
<path fill="none" stroke="midnightblue" d="M202.718,-384.538C236.175,-380.709 279.029,-375.804 302.889,-373.073"/>
<polygon fill="midnightblue" stroke="midnightblue" points="202.205,-381.074 192.668,-385.689 203.001,-388.029 202.205,-381.074"/>
</g>
<!-- Node592 -->
<g id="node27" class="node"><title>Node592</title>
<g id="a_node27"><a xlink:href="$a00323.html#a0ddf1224851353fc92bfbff6f499fa97" xlink:title="main">
<polygon fill="white" stroke="black" points="303,-304.5 303,-323.5 341,-323.5 341,-304.5 303,-304.5"/>
<text text-anchor="middle" x="322" y="-311.5" font-family="Helvetica,sans-Serif" font-size="10.00">main</text>
</a>
</g>
</g>
<!-- Node591&#45;&gt;Node592 -->
<g id="edge34" class="edge"><title>Node591&#45;&gt;Node592</title>
<path fill="none" stroke="midnightblue" d="M215.106,-314C246.081,-314 281.672,-314 302.698,-314"/>
<polygon fill="midnightblue" stroke="midnightblue" points="214.806,-310.5 204.805,-314 214.805,-317.5 214.806,-310.5"/>
</g>
<!-- Node594 -->
<g id="node29" class="node"><title>Node594</title>
<g id="a_node29"><a xlink:href="$a00326.html#a0ddf1224851353fc92bfbff6f499fa97" xlink:title="main">
<polygon fill="white" stroke="black" points="303,-266.5 303,-285.5 341,-285.5 341,-266.5 303,-266.5"/>
<text text-anchor="middle" x="322" y="-273.5" font-family="Helvetica,sans-Serif" font-size="10.00">main</text>
</a>
</g>
</g>
<!-- Node593&#45;&gt;Node594 -->
<g id="edge36" class="edge"><title>Node593&#45;&gt;Node594</title>
<path fill="none" stroke="midnightblue" d="M211.338,-276C243.155,-276 280.82,-276 302.703,-276"/>
<polygon fill="midnightblue" stroke="midnightblue" points="211.24,-272.5 201.24,-276 211.24,-279.5 211.24,-272.5"/>
</g>
<!-- Node596 -->
<g id="node31" class="node"><title>Node596</title>
<g id="a_node31"><a xlink:href="$a00314.html#a0ddf1224851353fc92bfbff6f499fa97" xlink:title="main">
<polygon fill="white" stroke="black" points="303,-228.5 303,-247.5 341,-247.5 341,-228.5 303,-228.5"/>
<text text-anchor="middle" x="322" y="-235.5" font-family="Helvetica,sans-Serif" font-size="10.00">main</text>
</a>
</g>
</g>
<!-- Node595&#45;&gt;Node596 -->
<g id="edge38" class="edge"><title>Node595&#45;&gt;Node596</title>
<path fill="none" stroke="midnightblue" d="M198.323,-238C232.275,-238 277.81,-238 302.758,-238"/>
<polygon fill="midnightblue" stroke="midnightblue" points="198.194,-234.5 188.194,-238 198.194,-241.5 198.194,-234.5"/>
</g>
</g>
</svg>
