<?xml version="1.0" encoding="UTF-8" standalone="no"?>
<!DOCTYPE svg PUBLIC "-//W3C//DTD SVG 1.1//EN"
 "http://www.w3.org/Graphics/SVG/1.1/DTD/svg11.dtd">
<!-- Generated by graphviz version 2.36.0 (20140111.2315)
 -->
<!-- Title: gk_mcoreAdd Pages: 1 -->
<svg width="260pt" height="28pt"
 viewBox="0.00 0.00 260.00 28.00" xmlns="http://www.w3.org/2000/svg" xmlns:xlink="http://www.w3.org/1999/xlink">
<g id="graph0" class="graph" transform="scale(1 1) rotate(0) translate(4 24)">
<title>gk_mcoreAdd</title>
<polygon fill="white" stroke="none" points="-4,4 -4,-24 256,-24 256,4 -4,4"/>
<!-- Node1454 -->
<g id="node1" class="node"><title>Node1454</title>
<polygon fill="#bfbfbf" stroke="black" points="0,-0.5 0,-19.5 78,-19.5 78,-0.5 0,-0.5"/>
<text text-anchor="middle" x="39" y="-7.5" font-family="Helvetica,sans-Serif" font-size="10.00">gk_mcoreAdd</text>
</g>
<!-- Node1455 -->
<g id="node2" class="node"><title>Node1455</title>
<g id="a_node2"><a xlink:href="$a00026.html#a4c320c13bcdc9967613253ef4c73f59f" xlink:title="gk_errexit">
<polygon fill="white" stroke="black" points="114,-0.5 114,-19.5 174,-19.5 174,-0.5 114,-0.5"/>
<text text-anchor="middle" x="144" y="-7.5" font-family="Helvetica,sans-Serif" font-size="10.00">gk_errexit</text>
</a>
</g>
</g>
<!-- Node1454&#45;&gt;Node1455 -->
<g id="edge1" class="edge"><title>Node1454&#45;&gt;Node1455</title>
<path fill="none" stroke="midnightblue" d="M78.0608,-10C86.3612,-10 95.1625,-10 103.517,-10"/>
<polygon fill="midnightblue" stroke="midnightblue" points="103.789,-13.5001 113.789,-10 103.789,-6.5001 103.789,-13.5001"/>
</g>
<!-- Node1456 -->
<g id="node3" class="node"><title>Node1456</title>
<g id="a_node3"><a xlink:href="$a01017.html#a2e311a777ffe9c80e405efa7cd2757be" xlink:title="fprintf">
<polygon fill="white" stroke="black" points="210,-0.5 210,-19.5 252,-19.5 252,-0.5 210,-0.5"/>
<text text-anchor="middle" x="231" y="-7.5" font-family="Helvetica,sans-Serif" font-size="10.00">fprintf</text>
</a>
</g>
</g>
<!-- Node1455&#45;&gt;Node1456 -->
<g id="edge2" class="edge"><title>Node1455&#45;&gt;Node1456</title>
<path fill="none" stroke="midnightblue" d="M174.252,-10C182.491,-10 191.468,-10 199.763,-10"/>
<polygon fill="midnightblue" stroke="midnightblue" points="199.799,-13.5001 209.799,-10 199.799,-6.5001 199.799,-13.5001"/>
</g>
</g>
</svg>
