<?xml version="1.0" encoding="UTF-8" standalone="no"?>
<!DOCTYPE svg PUBLIC "-//W3C//DTD SVG 1.1//EN"
 "http://www.w3.org/Graphics/SVG/1.1/DTD/svg11.dtd">
<!-- Generated by graphviz version 2.36.0 (20140111.2315)
 -->
<!-- Title: HTable_Insert Pages: 1 -->
<svg width="326pt" height="28pt"
 viewBox="0.00 0.00 326.00 28.00" xmlns="http://www.w3.org/2000/svg" xmlns:xlink="http://www.w3.org/1999/xlink">
<g id="graph0" class="graph" transform="scale(1 1) rotate(0) translate(4 24)">
<title>HTable_Insert</title>
<polygon fill="white" stroke="none" points="-4,4 -4,-24 322,-24 322,4 -4,4"/>
<!-- Node1821 -->
<g id="node1" class="node"><title>Node1821</title>
<polygon fill="#bfbfbf" stroke="black" points="0.5,-0.5 0.5,-19.5 79.5,-19.5 79.5,-0.5 0.5,-0.5"/>
<text text-anchor="middle" x="40" y="-7.5" font-family="Helvetica,sans-Serif" font-size="10.00">HTable_Insert</text>
</g>
<!-- Node1822 -->
<g id="node2" class="node"><title>Node1822</title>
<g id="a_node2"><a xlink:href="$a00098.html#ad79cb786b03a73481fb3e5846d345801" xlink:title="HTable_Resize">
<polygon fill="white" stroke="black" points="116.5,-0.5 116.5,-19.5 201.5,-19.5 201.5,-0.5 116.5,-0.5"/>
<text text-anchor="middle" x="159" y="-7.5" font-family="Helvetica,sans-Serif" font-size="10.00">HTable_Resize</text>
</a>
</g>
</g>
<!-- Node1821&#45;&gt;Node1822 -->
<g id="edge1" class="edge"><title>Node1821&#45;&gt;Node1822</title>
<path fill="none" stroke="midnightblue" d="M89.7558,-10C98.5376,-10 107.621,-10 116.184,-10"/>
<polygon fill="midnightblue" stroke="midnightblue" points="89.6345,-6.5001 79.6344,-10 89.6344,-13.5001 89.6345,-6.5001"/>
</g>
<!-- Node1823 -->
<g id="node3" class="node"><title>Node1823</title>
<g id="a_node3"><a xlink:href="$a00098.html#a39853dc7129323e7846d895c9026ad6f" xlink:title="HTable_Insert">
<polygon fill="white" stroke="black" points="238.5,-0.5 238.5,-19.5 317.5,-19.5 317.5,-0.5 238.5,-0.5"/>
<text text-anchor="middle" x="278" y="-7.5" font-family="Helvetica,sans-Serif" font-size="10.00">HTable_Insert</text>
</a>
</g>
</g>
<!-- Node1822&#45;&gt;Node1823 -->
<g id="edge2" class="edge"><title>Node1822&#45;&gt;Node1823</title>
<path fill="none" stroke="midnightblue" d="M211.86,-3.28879C220.742,-3.18461 229.83,-3.29027 238.292,-3.60578"/>
<polygon fill="midnightblue" stroke="midnightblue" points="211.503,0.204482 201.579,-3.50749 211.651,-6.79394 211.503,0.204482"/>
</g>
<!-- Node1823&#45;&gt;Node1822 -->
<g id="edge3" class="edge"><title>Node1823&#45;&gt;Node1822</title>
<path fill="none" stroke="midnightblue" d="M228.121,-16.6682C219.296,-16.8195 210.171,-16.7609 201.579,-16.4925"/>
<polygon fill="midnightblue" stroke="midnightblue" points="228.39,-20.1623 238.292,-16.3942 228.201,-13.1649 228.39,-20.1623"/>
</g>
</g>
</svg>
