<?xml version="1.0" encoding="UTF-8" standalone="no"?>
<!DOCTYPE svg PUBLIC "-//W3C//DTD SVG 1.1//EN"
 "http://www.w3.org/Graphics/SVG/1.1/DTD/svg11.dtd">
<!-- Generated by graphviz version 2.36.0 (20140111.2315)
 -->
<!-- Title: gk_csr_Init Pages: 1 -->
<svg width="680pt" height="495pt"
 viewBox="0.00 0.00 680.00 495.00" xmlns="http://www.w3.org/2000/svg" xmlns:xlink="http://www.w3.org/1999/xlink">
<g id="graph0" class="graph" transform="scale(1 1) rotate(0) translate(4 491)">
<title>gk_csr_Init</title>
<polygon fill="white" stroke="none" points="-4,4 -4,-491 676,-491 676,4 -4,4"/>
<!-- Node113 -->
<g id="node1" class="node"><title>Node113</title>
<polygon fill="#bfbfbf" stroke="black" points="0.5,-258.5 0.5,-277.5 65.5,-277.5 65.5,-258.5 0.5,-258.5"/>
<text text-anchor="middle" x="33" y="-265.5" font-family="Helvetica,sans-Serif" font-size="10.00">gk_csr_Init</text>
</g>
<!-- Node114 -->
<g id="node2" class="node"><title>Node114</title>
<g id="a_node2"><a xlink:href="$a00077.html#a82b885bbed5bd18c26629c35ce5d37e4" xlink:title="gk_csr_Create">
<polygon fill="white" stroke="black" points="102,-258.5 102,-277.5 184,-277.5 184,-258.5 102,-258.5"/>
<text text-anchor="middle" x="143" y="-265.5" font-family="Helvetica,sans-Serif" font-size="10.00">gk_csr_Create</text>
</a>
</g>
</g>
<!-- Node113&#45;&gt;Node114 -->
<g id="edge1" class="edge"><title>Node113&#45;&gt;Node114</title>
<path fill="none" stroke="midnightblue" d="M75.6956,-268C84.2591,-268 93.2586,-268 101.769,-268"/>
<polygon fill="midnightblue" stroke="midnightblue" points="75.5284,-264.5 65.5284,-268 75.5284,-271.5 75.5284,-264.5"/>
</g>
<!-- Node115 -->
<g id="node3" class="node"><title>Node115</title>
<g id="a_node3"><a xlink:href="$a00077.html#a24144cf4c30d5ec4ed8b488d371476b3" xlink:title="gk_csr_Dup">
<polygon fill="white" stroke="black" points="249,-467.5 249,-486.5 319,-486.5 319,-467.5 249,-467.5"/>
<text text-anchor="middle" x="284" y="-474.5" font-family="Helvetica,sans-Serif" font-size="10.00">gk_csr_Dup</text>
</a>
</g>
</g>
<!-- Node114&#45;&gt;Node115 -->
<g id="edge2" class="edge"><title>Node114&#45;&gt;Node115</title>
<path fill="none" stroke="midnightblue" d="M146.276,-287.88C151.749,-326.392 169.194,-411.46 220,-458 227.919,-465.254 238.516,-469.742 248.757,-472.518"/>
<polygon fill="midnightblue" stroke="midnightblue" points="149.69,-286.987 144.939,-277.517 142.748,-287.883 149.69,-286.987"/>
</g>
<!-- Node116 -->
<g id="node4" class="node"><title>Node116</title>
<g id="a_node4"><a xlink:href="$a00077.html#a0b106b838c4dc370c32a47aaaf990375" xlink:title="gk_csr_ExtractSubmatrix">
<polygon fill="white" stroke="black" points="220,-429.5 220,-448.5 348,-448.5 348,-429.5 220,-429.5"/>
<text text-anchor="middle" x="284" y="-436.5" font-family="Helvetica,sans-Serif" font-size="10.00">gk_csr_ExtractSubmatrix</text>
</a>
</g>
</g>
<!-- Node114&#45;&gt;Node116 -->
<g id="edge3" class="edge"><title>Node114&#45;&gt;Node116</title>
<path fill="none" stroke="midnightblue" d="M148.517,-287.916C156.913,-320.383 178.015,-384.634 220,-420 224.631,-423.901 230.044,-427.001 235.718,-429.464"/>
<polygon fill="midnightblue" stroke="midnightblue" points="151.833,-286.743 146.063,-277.858 145.033,-288.402 151.833,-286.743"/>
</g>
<!-- Node117 -->
<g id="node5" class="node"><title>Node117</title>
<g id="a_node5"><a xlink:href="$a00077.html#aaa2391cce5eb8291e65f6dc4d8e252fd" xlink:title="gk_csr_ExtractRows">
<polygon fill="white" stroke="black" points="230,-391.5 230,-410.5 338,-410.5 338,-391.5 230,-391.5"/>
<text text-anchor="middle" x="284" y="-398.5" font-family="Helvetica,sans-Serif" font-size="10.00">gk_csr_ExtractRows</text>
</a>
</g>
</g>
<!-- Node114&#45;&gt;Node117 -->
<g id="edge4" class="edge"><title>Node114&#45;&gt;Node117</title>
<path fill="none" stroke="midnightblue" d="M151.647,-286.852C162.883,-312.202 186.241,-356.977 220,-382 225.231,-385.878 231.256,-388.97 237.462,-391.436"/>
<polygon fill="midnightblue" stroke="midnightblue" points="154.837,-285.411 147.698,-277.583 148.398,-288.154 154.837,-285.411"/>
</g>
<!-- Node118 -->
<g id="node6" class="node"><title>Node118</title>
<g id="a_node6"><a xlink:href="$a00077.html#ac59047c4a89fa4680d746fcdce4aa1a7" xlink:title="gk_csr_ExtractPartition">
<polygon fill="white" stroke="black" points="224.5,-353.5 224.5,-372.5 343.5,-372.5 343.5,-353.5 224.5,-353.5"/>
<text text-anchor="middle" x="284" y="-360.5" font-family="Helvetica,sans-Serif" font-size="10.00">gk_csr_ExtractPartition</text>
</a>
</g>
</g>
<!-- Node114&#45;&gt;Node118 -->
<g id="edge5" class="edge"><title>Node114&#45;&gt;Node118</title>
<path fill="none" stroke="midnightblue" d="M157.436,-285.826C171.318,-303.061 194.501,-328.744 220,-344 226.372,-347.812 233.57,-350.914 240.764,-353.419"/>
<polygon fill="midnightblue" stroke="midnightblue" points="159.981,-283.4 151.061,-277.683 154.47,-287.715 159.981,-283.4"/>
</g>
<!-- Node119 -->
<g id="node7" class="node"><title>Node119</title>
<g id="a_node7"><a xlink:href="$a00077.html#ac438fca404c3f1ff6989aa68f83ed241" xlink:title="gk_csr_Split">
<polygon fill="white" stroke="black" points="248.5,-315.5 248.5,-334.5 319.5,-334.5 319.5,-315.5 248.5,-315.5"/>
<text text-anchor="middle" x="284" y="-322.5" font-family="Helvetica,sans-Serif" font-size="10.00">gk_csr_Split</text>
</a>
</g>
</g>
<!-- Node114&#45;&gt;Node119 -->
<g id="edge6" class="edge"><title>Node114&#45;&gt;Node119</title>
<path fill="none" stroke="midnightblue" d="M169.983,-282.375C184.435,-290.016 202.907,-299.207 220,-306 229.024,-309.586 239.001,-312.886 248.303,-315.693"/>
<polygon fill="midnightblue" stroke="midnightblue" points="171.587,-279.264 161.121,-277.619 168.276,-285.432 171.587,-279.264"/>
</g>
<!-- Node120 -->
<g id="node8" class="node"><title>Node120</title>
<g id="a_node8"><a xlink:href="$a00077.html#a8ebc19fe9a291bdf67677ebdaae56592" xlink:title="gk_csr_Read">
<polygon fill="white" stroke="black" points="246.5,-277.5 246.5,-296.5 321.5,-296.5 321.5,-277.5 246.5,-277.5"/>
<text text-anchor="middle" x="284" y="-284.5" font-family="Helvetica,sans-Serif" font-size="10.00">gk_csr_Read</text>
</a>
</g>
</g>
<!-- Node114&#45;&gt;Node120 -->
<g id="edge7" class="edge"><title>Node114&#45;&gt;Node120</title>
<path fill="none" stroke="midnightblue" d="M194.587,-274.915C211.671,-277.25 230.404,-279.811 246.212,-281.971"/>
<polygon fill="midnightblue" stroke="midnightblue" points="194.586,-271.382 184.205,-273.496 193.638,-278.318 194.586,-271.382"/>
</g>
<!-- Node122 -->
<g id="node10" class="node"><title>Node122</title>
<g id="a_node10"><a xlink:href="$a00077.html#a06edc174c5986841b589900ffce6600f" xlink:title="gk_csr_Prune">
<polygon fill="white" stroke="black" points="245,-239.5 245,-258.5 323,-258.5 323,-239.5 245,-239.5"/>
<text text-anchor="middle" x="284" y="-246.5" font-family="Helvetica,sans-Serif" font-size="10.00">gk_csr_Prune</text>
</a>
</g>
</g>
<!-- Node114&#45;&gt;Node122 -->
<g id="edge9" class="edge"><title>Node114&#45;&gt;Node122</title>
<path fill="none" stroke="midnightblue" d="M194.326,-261.121C210.972,-258.845 229.211,-256.352 244.796,-254.222"/>
<polygon fill="midnightblue" stroke="midnightblue" points="193.638,-257.682 184.205,-262.504 194.586,-264.618 193.638,-257.682"/>
</g>
<!-- Node123 -->
<g id="node11" class="node"><title>Node123</title>
<g id="a_node11"><a xlink:href="$a00077.html#a66729af11e7dee3585d6191661757c37" xlink:title="gk_csr_LowFilter">
<polygon fill="white" stroke="black" points="238,-201.5 238,-220.5 330,-220.5 330,-201.5 238,-201.5"/>
<text text-anchor="middle" x="284" y="-208.5" font-family="Helvetica,sans-Serif" font-size="10.00">gk_csr_LowFilter</text>
</a>
</g>
</g>
<!-- Node114&#45;&gt;Node123 -->
<g id="edge10" class="edge"><title>Node114&#45;&gt;Node123</title>
<path fill="none" stroke="midnightblue" d="M169.983,-253.625C184.435,-245.984 202.907,-236.793 220,-230 228.812,-226.498 238.532,-223.27 247.645,-220.506"/>
<polygon fill="midnightblue" stroke="midnightblue" points="168.276,-250.568 161.121,-258.381 171.587,-256.736 168.276,-250.568"/>
</g>
<!-- Node124 -->
<g id="node12" class="node"><title>Node124</title>
<g id="a_node12"><a xlink:href="$a00077.html#ad6f2c5699b47e1bc2285a1b391d7c7da" xlink:title="gk_csr_TopKPlusFilter">
<polygon fill="white" stroke="black" points="225.5,-163.5 225.5,-182.5 342.5,-182.5 342.5,-163.5 225.5,-163.5"/>
<text text-anchor="middle" x="284" y="-170.5" font-family="Helvetica,sans-Serif" font-size="10.00">gk_csr_TopKPlusFilter</text>
</a>
</g>
</g>
<!-- Node114&#45;&gt;Node124 -->
<g id="edge11" class="edge"><title>Node114&#45;&gt;Node124</title>
<path fill="none" stroke="midnightblue" d="M157.436,-250.174C171.318,-232.939 194.501,-207.256 220,-192 226.372,-188.188 233.57,-185.086 240.764,-182.581"/>
<polygon fill="midnightblue" stroke="midnightblue" points="154.47,-248.285 151.061,-258.317 159.981,-252.6 154.47,-248.285"/>
</g>
<!-- Node125 -->
<g id="node13" class="node"><title>Node125</title>
<g id="a_node13"><a xlink:href="$a00077.html#a193f32ef7dd91c2c633157bafea26080" xlink:title="gk_csr_ZScoreFilter">
<polygon fill="white" stroke="black" points="231,-125.5 231,-144.5 337,-144.5 337,-125.5 231,-125.5"/>
<text text-anchor="middle" x="284" y="-132.5" font-family="Helvetica,sans-Serif" font-size="10.00">gk_csr_ZScoreFilter</text>
</a>
</g>
</g>
<!-- Node114&#45;&gt;Node125 -->
<g id="edge12" class="edge"><title>Node114&#45;&gt;Node125</title>
<path fill="none" stroke="midnightblue" d="M151.647,-249.148C162.883,-223.798 186.241,-179.023 220,-154 225.231,-150.122 231.256,-147.03 237.462,-144.564"/>
<polygon fill="midnightblue" stroke="midnightblue" points="148.398,-247.846 147.698,-258.417 154.837,-250.589 148.398,-247.846"/>
</g>
<!-- Node126 -->
<g id="node14" class="node"><title>Node126</title>
<g id="a_node14"><a xlink:href="$a00104.html#abc9e8f6a3efe2f0f3ec79b5d8883b246" xlink:title="gk_find_frequent_itemsets">
<polygon fill="white" stroke="black" points="538,-49.5 538,-68.5 672,-68.5 672,-49.5 538,-49.5"/>
<text text-anchor="middle" x="605" y="-56.5" font-family="Helvetica,sans-Serif" font-size="10.00">gk_find_frequent_itemsets</text>
</a>
</g>
</g>
<!-- Node114&#45;&gt;Node126 -->
<g id="edge13" class="edge"><title>Node114&#45;&gt;Node126</title>
<path fill="none" stroke="midnightblue" d="M147.759,-248.295C155.203,-215.109 175.146,-148.516 220,-116 223.206,-113.676 428.797,-84.0249 537.791,-68.4367"/>
<polygon fill="midnightblue" stroke="midnightblue" points="144.315,-247.666 145.696,-258.171 151.167,-249.098 144.315,-247.666"/>
</g>
<!-- Node127 -->
<g id="node15" class="node"><title>Node127</title>
<g id="a_node15"><a xlink:href="$a00104.html#ab348ad8f89d70692400d7602e3a824bf" xlink:title="itemsets_project_matrix">
<polygon fill="white" stroke="black" points="223,-49.5 223,-68.5 345,-68.5 345,-49.5 223,-49.5"/>
<text text-anchor="middle" x="284" y="-56.5" font-family="Helvetica,sans-Serif" font-size="10.00">itemsets_project_matrix</text>
</a>
</g>
</g>
<!-- Node114&#45;&gt;Node127 -->
<g id="edge14" class="edge"><title>Node114&#45;&gt;Node127</title>
<path fill="none" stroke="midnightblue" d="M146.82,-248.418C153.175,-211.196 171.998,-129.779 220,-83 226.454,-76.7101 234.726,-72.0327 243.137,-68.5669"/>
<polygon fill="midnightblue" stroke="midnightblue" points="143.336,-248.04 145.229,-258.464 150.25,-249.134 143.336,-248.04"/>
</g>
<!-- Node121 -->
<g id="node9" class="node"><title>Node121</title>
<g id="a_node9"><a xlink:href="$a00867.html#a0ddf1224851353fc92bfbff6f499fa97" xlink:title="main">
<polygon fill="white" stroke="black" points="424,-277.5 424,-296.5 462,-296.5 462,-277.5 424,-277.5"/>
<text text-anchor="middle" x="443" y="-284.5" font-family="Helvetica,sans-Serif" font-size="10.00">main</text>
</a>
</g>
</g>
<!-- Node120&#45;&gt;Node121 -->
<g id="edge8" class="edge"><title>Node120&#45;&gt;Node121</title>
<path fill="none" stroke="midnightblue" d="M331.955,-287C362.86,-287 401.589,-287 423.893,-287"/>
<polygon fill="midnightblue" stroke="midnightblue" points="331.81,-283.5 321.81,-287 331.809,-290.5 331.81,-283.5"/>
</g>
<!-- Node127&#45;&gt;Node126 -->
<g id="edge15" class="edge"><title>Node127&#45;&gt;Node126</title>
<path fill="none" stroke="midnightblue" d="M355.261,-59C409.701,-59 484.592,-59 537.941,-59"/>
<polygon fill="midnightblue" stroke="midnightblue" points="355.001,-55.5001 345.001,-59 355.001,-62.5001 355.001,-55.5001"/>
</g>
<!-- Node128 -->
<g id="node16" class="node"><title>Node128</title>
<g id="a_node16"><a xlink:href="$a00104.html#ab19ae99e1e3ba575373cf0fe846a8cd9" xlink:title="itemsets_find_frequent\l_itemsets">
<polygon fill="white" stroke="black" points="384,-0 384,-30 502,-30 502,-0 384,-0"/>
<text text-anchor="start" x="392" y="-18" font-family="Helvetica,sans-Serif" font-size="10.00">itemsets_find_frequent</text>
<text text-anchor="middle" x="443" y="-7" font-family="Helvetica,sans-Serif" font-size="10.00">_itemsets</text>
</a>
</g>
</g>
<!-- Node127&#45;&gt;Node128 -->
<g id="edge16" class="edge"><title>Node127&#45;&gt;Node128</title>
<path fill="none" stroke="midnightblue" d="M328.931,-46.6882C347.334,-41.5306 368.905,-35.4852 388.244,-30.0654"/>
<polygon fill="midnightblue" stroke="midnightblue" points="327.751,-43.3839 319.067,-49.4527 329.64,-50.1242 327.751,-43.3839"/>
</g>
<!-- Node128&#45;&gt;Node126 -->
<g id="edge17" class="edge"><title>Node128&#45;&gt;Node126</title>
<path fill="none" stroke="midnightblue" d="M508.352,-32.6969C529.128,-38.4101 551.368,-44.5262 569.17,-49.4217"/>
<polygon fill="midnightblue" stroke="midnightblue" points="509.186,-29.2962 498.615,-30.0192 507.329,-36.0456 509.186,-29.2962"/>
</g>
</g>
</svg>
