<?xml version="1.0" encoding="UTF-8" standalone="no"?>
<!DOCTYPE svg PUBLIC "-//W3C//DTD SVG 1.1//EN"
 "http://www.w3.org/Graphics/SVG/1.1/DTD/svg11.dtd">
<!-- Generated by graphviz version 2.36.0 (20140111.2315)
 -->
<!-- Title: HTable_Insert Pages: 1 -->
<svg width="310pt" height="85pt"
 viewBox="0.00 0.00 310.00 85.00" xmlns="http://www.w3.org/2000/svg" xmlns:xlink="http://www.w3.org/1999/xlink">
<g id="graph0" class="graph" transform="scale(1 1) rotate(0) translate(4 81)">
<title>HTable_Insert</title>
<polygon fill="white" stroke="none" points="-4,4 -4,-81 306,-81 306,4 -4,4"/>
<!-- Node25 -->
<g id="node1" class="node"><title>Node25</title>
<polygon fill="#bfbfbf" stroke="black" points="0.5,-38.5 0.5,-57.5 79.5,-57.5 79.5,-38.5 0.5,-38.5"/>
<text text-anchor="middle" x="40" y="-45.5" font-family="Helvetica,sans-Serif" font-size="10.00">HTable_Insert</text>
</g>
<!-- Node26 -->
<g id="node2" class="node"><title>Node26</title>
<g id="a_node2"><a xlink:href="$a00098.html#ad79cb786b03a73481fb3e5846d345801" xlink:title="HTable_Resize">
<polygon fill="white" stroke="black" points="123.5,-38.5 123.5,-57.5 208.5,-57.5 208.5,-38.5 123.5,-38.5"/>
<text text-anchor="middle" x="166" y="-45.5" font-family="Helvetica,sans-Serif" font-size="10.00">HTable_Resize</text>
</a>
</g>
</g>
<!-- Node25&#45;&gt;Node26 -->
<g id="edge1" class="edge"><title>Node25&#45;&gt;Node26</title>
<path fill="none" stroke="midnightblue" d="M79.5547,-41.6987C90.2233,-41.271 101.978,-41.1491 113.266,-41.3329"/>
<polygon fill="midnightblue" stroke="midnightblue" points="113.372,-44.8366 123.457,-41.5878 113.547,-37.8388 113.372,-44.8366"/>
</g>
<!-- Node29 -->
<g id="node5" class="node"><title>Node29</title>
<g id="a_node5"><a xlink:href="$a00098.html#afe255e126a6c4eec5efb11c3691b3155" xlink:title="HTable_HFunction">
<polygon fill="white" stroke="black" points="116,-0.5 116,-19.5 216,-19.5 216,-0.5 116,-0.5"/>
<text text-anchor="middle" x="166" y="-7.5" font-family="Helvetica,sans-Serif" font-size="10.00">HTable_HFunction</text>
</a>
</g>
</g>
<!-- Node25&#45;&gt;Node29 -->
<g id="edge5" class="edge"><title>Node25&#45;&gt;Node29</title>
<path fill="none" stroke="midnightblue" d="M72.2904,-38.411C88.0039,-33.5956 107.238,-27.7012 124.106,-22.532"/>
<polygon fill="midnightblue" stroke="midnightblue" points="125.184,-25.8624 133.72,-19.5859 123.133,-19.1696 125.184,-25.8624"/>
</g>
<!-- Node26&#45;&gt;Node25 -->
<g id="edge3" class="edge"><title>Node26&#45;&gt;Node25</title>
<path fill="none" stroke="midnightblue" d="M123.457,-54.4122C112.6,-54.7833 100.801,-54.8486 89.6132,-54.6082"/>
<polygon fill="midnightblue" stroke="midnightblue" points="89.6568,-51.108 79.5547,-54.3013 89.4433,-58.1047 89.6568,-51.108"/>
</g>
<!-- Node27 -->
<g id="node3" class="node"><title>Node27</title>
<g id="a_node3"><a xlink:href="$a00623.html#ad1e7380d51df1e0043d24d3c8a860e0a" xlink:title="for">
<polygon fill="white" stroke="black" points="262.5,-57.5 262.5,-76.5 291.5,-76.5 291.5,-57.5 262.5,-57.5"/>
<text text-anchor="middle" x="277" y="-64.5" font-family="Helvetica,sans-Serif" font-size="10.00">for</text>
</a>
</g>
</g>
<!-- Node26&#45;&gt;Node27 -->
<g id="edge2" class="edge"><title>Node26&#45;&gt;Node27</title>
<path fill="none" stroke="midnightblue" d="M208.519,-55.2373C223.372,-57.8263 239.59,-60.6533 252.404,-62.887"/>
<polygon fill="midnightblue" stroke="midnightblue" points="251.81,-66.3361 262.262,-64.6054 253.012,-59.44 251.81,-66.3361"/>
</g>
<!-- Node28 -->
<g id="node4" class="node"><title>Node28</title>
<g id="a_node4"><a xlink:href="$a00077.html#ac8df62c4e3d0910711a9874f9cc58884" xlink:title="gk_free">
<polygon fill="white" stroke="black" points="252,-19.5 252,-38.5 302,-38.5 302,-19.5 252,-19.5"/>
<text text-anchor="middle" x="277" y="-26.5" font-family="Helvetica,sans-Serif" font-size="10.00">gk_free</text>
</a>
</g>
</g>
<!-- Node26&#45;&gt;Node28 -->
<g id="edge4" class="edge"><title>Node26&#45;&gt;Node28</title>
<path fill="none" stroke="midnightblue" d="M208.519,-40.7627C219.529,-38.8436 231.289,-36.7936 241.857,-34.9516"/>
<polygon fill="midnightblue" stroke="midnightblue" points="242.705,-38.3566 251.955,-33.1913 241.503,-31.4606 242.705,-38.3566"/>
</g>
</g>
</svg>
