<?xml version="1.0" encoding="UTF-8" standalone="no"?>
<!DOCTYPE svg PUBLIC "-//W3C//DTD SVG 1.1//EN"
 "http://www.w3.org/Graphics/SVG/1.1/DTD/svg11.dtd">
<!-- Generated by graphviz version 2.36.0 (20140111.2315)
 -->
<!-- Title: gk_csr_TopKPlusFilter Pages: 1 -->
<svg width="634pt" height="275pt"
 viewBox="0.00 0.00 634.00 274.72" xmlns="http://www.w3.org/2000/svg" xmlns:xlink="http://www.w3.org/1999/xlink">
<g id="graph0" class="graph" transform="scale(1 1) rotate(0) translate(4 270.718)">
<title>gk_csr_TopKPlusFilter</title>
<polygon fill="white" stroke="none" points="-4,4 -4,-270.718 630,-270.718 630,4 -4,4"/>
<!-- Node196 -->
<g id="node1" class="node"><title>Node196</title>
<polygon fill="#bfbfbf" stroke="black" points="0.5,-114.5 0.5,-133.5 117.5,-133.5 117.5,-114.5 0.5,-114.5"/>
<text text-anchor="middle" x="59" y="-121.5" font-family="Helvetica,sans-Serif" font-size="10.00">gk_csr_TopKPlusFilter</text>
</g>
<!-- Node197 -->
<g id="node2" class="node"><title>Node197</title>
<g id="a_node2"><a xlink:href="$a00023.html#a82b885bbed5bd18c26629c35ce5d37e4" xlink:title="gk_csr_Create">
<polygon fill="white" stroke="black" points="154,-190.5 154,-209.5 236,-209.5 236,-190.5 154,-190.5"/>
<text text-anchor="middle" x="195" y="-197.5" font-family="Helvetica,sans-Serif" font-size="10.00">gk_csr_Create</text>
</a>
</g>
</g>
<!-- Node196&#45;&gt;Node197 -->
<g id="edge1" class="edge"><title>Node196&#45;&gt;Node197</title>
<path fill="none" stroke="midnightblue" d="M76.9712,-133.625C100.028,-146.703 141.45,-170.196 168.322,-185.437"/>
<polygon fill="midnightblue" stroke="midnightblue" points="166.742,-188.564 177.167,-190.453 170.195,-182.475 166.742,-188.564"/>
</g>
<!-- Node202 -->
<g id="node7" class="node"><title>Node202</title>
<g id="a_node7"><a xlink:href="$a00026.html#a4c320c13bcdc9967613253ef4c73f59f" xlink:title="gk_errexit">
<polygon fill="white" stroke="black" points="454,-152.5 454,-171.5 514,-171.5 514,-152.5 454,-152.5"/>
<text text-anchor="middle" x="484" y="-159.5" font-family="Helvetica,sans-Serif" font-size="10.00">gk_errexit</text>
</a>
</g>
</g>
<!-- Node196&#45;&gt;Node202 -->
<g id="edge9" class="edge"><title>Node196&#45;&gt;Node202</title>
<path fill="none" stroke="midnightblue" d="M100.971,-133.595C117.373,-137.091 136.497,-140.737 154,-143 258.058,-156.452 381.866,-160.381 443.726,-161.528"/>
<polygon fill="midnightblue" stroke="midnightblue" points="443.766,-165.029 453.825,-161.701 443.886,-158.03 443.766,-165.029"/>
</g>
<!-- Node204 -->
<g id="node9" class="node"><title>Node204</title>
<g id="a_node9"><a xlink:href="$a00077.html#aa28cb87d9cb87860a5b1e23a94d7bba8" xlink:title="gk_fkvsortd">
<polygon fill="white" stroke="black" points="161,-114.5 161,-133.5 229,-133.5 229,-114.5 161,-114.5"/>
<text text-anchor="middle" x="195" y="-121.5" font-family="Helvetica,sans-Serif" font-size="10.00">gk_fkvsortd</text>
</a>
</g>
</g>
<!-- Node196&#45;&gt;Node204 -->
<g id="edge10" class="edge"><title>Node196&#45;&gt;Node204</title>
<path fill="none" stroke="midnightblue" d="M117.606,-124C128.672,-124 140.086,-124 150.61,-124"/>
<polygon fill="midnightblue" stroke="midnightblue" points="150.79,-127.5 160.79,-124 150.79,-120.5 150.79,-127.5"/>
</g>
<!-- Node205 -->
<g id="node10" class="node"><title>Node205</title>
<g id="a_node10"><a xlink:href="$a00077.html#ac8df62c4e3d0910711a9874f9cc58884" xlink:title="gk_free">
<polygon fill="white" stroke="black" points="459,-38.5 459,-57.5 509,-57.5 509,-38.5 459,-38.5"/>
<text text-anchor="middle" x="484" y="-45.5" font-family="Helvetica,sans-Serif" font-size="10.00">gk_free</text>
</a>
</g>
</g>
<!-- Node196&#45;&gt;Node205 -->
<g id="edge11" class="edge"><title>Node196&#45;&gt;Node205</title>
<path fill="none" stroke="midnightblue" d="M105.848,-114.466C121.145,-111.357 138.291,-107.948 154,-105 261.226,-84.8788 388.606,-63.5361 448.557,-53.6425"/>
<polygon fill="midnightblue" stroke="midnightblue" points="449.309,-57.0659 458.607,-51.987 448.171,-50.1589 449.309,-57.0659"/>
</g>
<!-- Node206 -->
<g id="node11" class="node"><title>Node206</title>
<g id="a_node11"><a xlink:href="$a00023.html#ac3736361b8d6b391356f273c960c203b" xlink:title="gk_csr_Free">
<polygon fill="white" stroke="black" points="159,-38.5 159,-57.5 231,-57.5 231,-38.5 159,-38.5"/>
<text text-anchor="middle" x="195" y="-45.5" font-family="Helvetica,sans-Serif" font-size="10.00">gk_csr_Free</text>
</a>
</g>
</g>
<!-- Node196&#45;&gt;Node206 -->
<g id="edge12" class="edge"><title>Node196&#45;&gt;Node206</title>
<path fill="none" stroke="midnightblue" d="M76.9712,-114.375C100.028,-101.297 141.45,-77.8043 168.322,-62.5634"/>
<polygon fill="midnightblue" stroke="midnightblue" points="170.195,-65.5252 177.167,-57.5473 166.742,-59.4363 170.195,-65.5252"/>
</g>
<!-- Node198 -->
<g id="node3" class="node"><title>Node198</title>
<g id="a_node3"><a xlink:href="$a00077.html#aba6f76f5c67b9b7e9c2e45988d3d3e9d" xlink:title="gk_malloc">
<polygon fill="white" stroke="black" points="297,-228.5 297,-247.5 359,-247.5 359,-228.5 297,-228.5"/>
<text text-anchor="middle" x="328" y="-235.5" font-family="Helvetica,sans-Serif" font-size="10.00">gk_malloc</text>
</a>
</g>
</g>
<!-- Node197&#45;&gt;Node198 -->
<g id="edge2" class="edge"><title>Node197&#45;&gt;Node198</title>
<path fill="none" stroke="midnightblue" d="M229.057,-209.589C246.661,-214.696 268.448,-221.016 287.001,-226.397"/>
<polygon fill="midnightblue" stroke="midnightblue" points="286.068,-229.771 296.648,-229.195 288.019,-223.048 286.068,-229.771"/>
</g>
<!-- Node203 -->
<g id="node8" class="node"><title>Node203</title>
<g id="a_node8"><a xlink:href="$a00023.html#a47a303d88c3316bd821219cae39d0461" xlink:title="gk_csr_Init">
<polygon fill="white" stroke="black" points="295.5,-190.5 295.5,-209.5 360.5,-209.5 360.5,-190.5 295.5,-190.5"/>
<text text-anchor="middle" x="328" y="-197.5" font-family="Helvetica,sans-Serif" font-size="10.00">gk_csr_Init</text>
</a>
</g>
</g>
<!-- Node197&#45;&gt;Node203 -->
<g id="edge8" class="edge"><title>Node197&#45;&gt;Node203</title>
<path fill="none" stroke="midnightblue" d="M236.016,-200C251.422,-200 269.057,-200 284.674,-200"/>
<polygon fill="midnightblue" stroke="midnightblue" points="285.111,-203.5 295.111,-200 285.111,-196.5 285.111,-203.5"/>
</g>
<!-- Node199 -->
<g id="node4" class="node"><title>Node199</title>
<g id="a_node4"><a xlink:href="$a01017.html#a2e311a777ffe9c80e405efa7cd2757be" xlink:title="fprintf">
<polygon fill="white" stroke="black" points="584,-209.5 584,-228.5 626,-228.5 626,-209.5 584,-209.5"/>
<text text-anchor="middle" x="605" y="-216.5" font-family="Helvetica,sans-Serif" font-size="10.00">fprintf</text>
</a>
</g>
</g>
<!-- Node198&#45;&gt;Node199 -->
<g id="edge3" class="edge"><title>Node198&#45;&gt;Node199</title>
<path fill="none" stroke="midnightblue" d="M358.797,-247.568C401.647,-259.78 482.7,-277.064 548,-257 562.039,-252.686 575.719,-243.525 586.044,-235.279"/>
<polygon fill="midnightblue" stroke="midnightblue" points="588.469,-237.813 593.862,-228.694 583.959,-232.46 588.469,-237.813"/>
</g>
<!-- Node200 -->
<g id="node5" class="node"><title>Node200</title>
<g id="a_node5"><a xlink:href="$a00110.html#ad2327b94227019b6753b6b09400c0522" xlink:title="gk_GetCurMemoryUsed">
<polygon fill="white" stroke="black" points="422,-228.5 422,-247.5 546,-247.5 546,-228.5 422,-228.5"/>
<text text-anchor="middle" x="484" y="-235.5" font-family="Helvetica,sans-Serif" font-size="10.00">gk_GetCurMemoryUsed</text>
</a>
</g>
</g>
<!-- Node198&#45;&gt;Node200 -->
<g id="edge4" class="edge"><title>Node198&#45;&gt;Node200</title>
<path fill="none" stroke="midnightblue" d="M359.058,-238C374.125,-238 393.069,-238 411.581,-238"/>
<polygon fill="midnightblue" stroke="midnightblue" points="411.793,-241.5 421.793,-238 411.793,-234.5 411.793,-241.5"/>
</g>
<!-- Node201 -->
<g id="node6" class="node"><title>Node201</title>
<g id="a_node6"><a xlink:href="$a00110.html#a656fd5266ae12a96e53125486f8fea52" xlink:title="gk_GetMaxMemoryUsed">
<polygon fill="white" stroke="black" points="420.5,-190.5 420.5,-209.5 547.5,-209.5 547.5,-190.5 420.5,-190.5"/>
<text text-anchor="middle" x="484" y="-197.5" font-family="Helvetica,sans-Serif" font-size="10.00">gk_GetMaxMemoryUsed</text>
</a>
</g>
</g>
<!-- Node198&#45;&gt;Node201 -->
<g id="edge5" class="edge"><title>Node198&#45;&gt;Node201</title>
<path fill="none" stroke="midnightblue" d="M359.058,-230.583C380.446,-225.306 409.646,-218.1 434.332,-212.009"/>
<polygon fill="midnightblue" stroke="midnightblue" points="435.376,-215.356 444.246,-209.563 433.699,-208.56 435.376,-215.356"/>
</g>
<!-- Node198&#45;&gt;Node202 -->
<g id="edge6" class="edge"><title>Node198&#45;&gt;Node202</title>
<path fill="none" stroke="midnightblue" d="M359.031,-230.511C367.492,-227.651 376.443,-223.871 384,-219 403.555,-206.396 400.199,-193.213 420,-181 427.338,-176.474 435.825,-172.965 444.145,-170.267"/>
<polygon fill="midnightblue" stroke="midnightblue" points="445.139,-173.623 453.757,-167.46 443.177,-166.904 445.139,-173.623"/>
</g>
<!-- Node202&#45;&gt;Node199 -->
<g id="edge7" class="edge"><title>Node202&#45;&gt;Node199</title>
<path fill="none" stroke="midnightblue" d="M514.228,-168.825C525.104,-171.876 537.377,-175.94 548,-181 560.634,-187.018 573.634,-195.663 583.925,-203.186"/>
<polygon fill="midnightblue" stroke="midnightblue" points="582.101,-206.194 592.194,-209.415 586.313,-200.603 582.101,-206.194"/>
</g>
<!-- Node206&#45;&gt;Node205 -->
<g id="edge15" class="edge"><title>Node206&#45;&gt;Node205</title>
<path fill="none" stroke="midnightblue" d="M231.192,-48C286.621,-48 393.595,-48 448.556,-48"/>
<polygon fill="midnightblue" stroke="midnightblue" points="448.824,-51.5001 458.824,-48 448.824,-44.5001 448.824,-51.5001"/>
</g>
<!-- Node207 -->
<g id="node12" class="node"><title>Node207</title>
<g id="a_node12"><a xlink:href="$a00023.html#a9646f29b0605ba264bf373c441a6826d" xlink:title="gk_csr_FreeContents">
<polygon fill="white" stroke="black" points="272,-0.5 272,-19.5 384,-19.5 384,-0.5 272,-0.5"/>
<text text-anchor="middle" x="328" y="-7.5" font-family="Helvetica,sans-Serif" font-size="10.00">gk_csr_FreeContents</text>
</a>
</g>
</g>
<!-- Node206&#45;&gt;Node207 -->
<g id="edge13" class="edge"><title>Node206&#45;&gt;Node207</title>
<path fill="none" stroke="midnightblue" d="M229.057,-38.411C245.813,-33.5506 266.358,-27.5909 284.297,-22.3873"/>
<polygon fill="midnightblue" stroke="midnightblue" points="285.325,-25.7334 293.954,-19.5859 283.375,-19.0105 285.325,-25.7334"/>
</g>
<!-- Node207&#45;&gt;Node205 -->
<g id="edge14" class="edge"><title>Node207&#45;&gt;Node205</title>
<path fill="none" stroke="midnightblue" d="M367.861,-19.589C392.81,-25.7453 424.906,-33.6651 448.87,-39.5784"/>
<polygon fill="midnightblue" stroke="midnightblue" points="448.051,-42.9811 458.598,-41.9788 449.728,-36.185 448.051,-42.9811"/>
</g>
</g>
</svg>
