<?xml version="1.0" encoding="UTF-8" standalone="no"?>
<!DOCTYPE svg PUBLIC "-//W3C//DTD SVG 1.1//EN"
 "http://www.w3.org/Graphics/SVG/1.1/DTD/svg11.dtd">
<!-- Generated by graphviz version 2.36.0 (20140111.2315)
 -->
<!-- Title: gk_csr_ExtractSubmatrix Pages: 1 -->
<svg width="598pt" height="125pt"
 viewBox="0.00 0.00 598.00 124.79" xmlns="http://www.w3.org/2000/svg" xmlns:xlink="http://www.w3.org/1999/xlink">
<g id="graph0" class="graph" transform="scale(1 1) rotate(0) translate(4 120.791)">
<title>gk_csr_ExtractSubmatrix</title>
<polygon fill="white" stroke="none" points="-4,4 -4,-120.791 594,-120.791 594,4 -4,4"/>
<!-- Node74 -->
<g id="node1" class="node"><title>Node74</title>
<polygon fill="#bfbfbf" stroke="black" points="0,-38.5 0,-57.5 128,-57.5 128,-38.5 0,-38.5"/>
<text text-anchor="middle" x="64" y="-45.5" font-family="Helvetica,sans-Serif" font-size="10.00">gk_csr_ExtractSubmatrix</text>
</g>
<!-- Node75 -->
<g id="node2" class="node"><title>Node75</title>
<g id="a_node2"><a xlink:href="$a00023.html#a82b885bbed5bd18c26629c35ce5d37e4" xlink:title="gk_csr_Create">
<polygon fill="white" stroke="black" points="164,-38.5 164,-57.5 246,-57.5 246,-38.5 164,-38.5"/>
<text text-anchor="middle" x="205" y="-45.5" font-family="Helvetica,sans-Serif" font-size="10.00">gk_csr_Create</text>
</a>
</g>
</g>
<!-- Node74&#45;&gt;Node75 -->
<g id="edge1" class="edge"><title>Node74&#45;&gt;Node75</title>
<path fill="none" stroke="midnightblue" d="M128.399,-48C136.856,-48 145.436,-48 153.63,-48"/>
<polygon fill="midnightblue" stroke="midnightblue" points="153.766,-51.5001 163.766,-48 153.766,-44.5001 153.766,-51.5001"/>
</g>
<!-- Node76 -->
<g id="node3" class="node"><title>Node76</title>
<g id="a_node3"><a xlink:href="$a00077.html#aba6f76f5c67b9b7e9c2e45988d3d3e9d" xlink:title="gk_malloc">
<polygon fill="white" stroke="black" points="284,-57.5 284,-76.5 346,-76.5 346,-57.5 284,-57.5"/>
<text text-anchor="middle" x="315" y="-64.5" font-family="Helvetica,sans-Serif" font-size="10.00">gk_malloc</text>
</a>
</g>
</g>
<!-- Node75&#45;&gt;Node76 -->
<g id="edge2" class="edge"><title>Node75&#45;&gt;Node76</title>
<path fill="none" stroke="midnightblue" d="M246.215,-55.0749C255.279,-56.6694 264.897,-58.3615 273.954,-59.9548"/>
<polygon fill="midnightblue" stroke="midnightblue" points="273.425,-63.4155 283.88,-61.7011 274.638,-56.5213 273.425,-63.4155"/>
</g>
<!-- Node81 -->
<g id="node8" class="node"><title>Node81</title>
<g id="a_node8"><a xlink:href="$a00023.html#a47a303d88c3316bd821219cae39d0461" xlink:title="gk_csr_Init">
<polygon fill="white" stroke="black" points="282.5,-19.5 282.5,-38.5 347.5,-38.5 347.5,-19.5 282.5,-19.5"/>
<text text-anchor="middle" x="315" y="-26.5" font-family="Helvetica,sans-Serif" font-size="10.00">gk_csr_Init</text>
</a>
</g>
</g>
<!-- Node75&#45;&gt;Node81 -->
<g id="edge8" class="edge"><title>Node75&#45;&gt;Node81</title>
<path fill="none" stroke="midnightblue" d="M246.215,-40.9251C254.657,-39.4399 263.581,-37.87 272.084,-36.3742"/>
<polygon fill="midnightblue" stroke="midnightblue" points="272.943,-39.7769 282.185,-34.5971 271.73,-32.8827 272.943,-39.7769"/>
</g>
<!-- Node77 -->
<g id="node4" class="node"><title>Node77</title>
<g id="a_node4"><a xlink:href="$a01017.html#a2e311a777ffe9c80e405efa7cd2757be" xlink:title="fprintf">
<polygon fill="white" stroke="black" points="548,-57.5 548,-76.5 590,-76.5 590,-57.5 548,-57.5"/>
<text text-anchor="middle" x="569" y="-64.5" font-family="Helvetica,sans-Serif" font-size="10.00">fprintf</text>
</a>
</g>
</g>
<!-- Node76&#45;&gt;Node77 -->
<g id="edge3" class="edge"><title>Node76&#45;&gt;Node77</title>
<path fill="none" stroke="midnightblue" d="M328.682,-76.7226C341.733,-86.0659 363.06,-99.5461 384,-105 439.052,-119.339 457.62,-121.709 512,-105 526.039,-100.686 539.719,-91.5255 550.044,-83.2793"/>
<polygon fill="midnightblue" stroke="midnightblue" points="552.469,-85.8134 557.862,-76.6941 547.959,-80.4595 552.469,-85.8134"/>
</g>
<!-- Node78 -->
<g id="node5" class="node"><title>Node78</title>
<g id="a_node5"><a xlink:href="$a00110.html#ad2327b94227019b6753b6b09400c0522" xlink:title="gk_GetCurMemoryUsed">
<polygon fill="white" stroke="black" points="386,-76.5 386,-95.5 510,-95.5 510,-76.5 386,-76.5"/>
<text text-anchor="middle" x="448" y="-83.5" font-family="Helvetica,sans-Serif" font-size="10.00">gk_GetCurMemoryUsed</text>
</a>
</g>
</g>
<!-- Node76&#45;&gt;Node78 -->
<g id="edge4" class="edge"><title>Node76&#45;&gt;Node78</title>
<path fill="none" stroke="midnightblue" d="M346.054,-71.359C355.041,-72.6625 365.303,-74.1508 375.761,-75.6676"/>
<polygon fill="midnightblue" stroke="midnightblue" points="375.414,-79.1538 385.813,-77.1255 376.419,-72.2263 375.414,-79.1538"/>
</g>
<!-- Node79 -->
<g id="node6" class="node"><title>Node79</title>
<g id="a_node6"><a xlink:href="$a00110.html#a656fd5266ae12a96e53125486f8fea52" xlink:title="gk_GetMaxMemoryUsed">
<polygon fill="white" stroke="black" points="384.5,-38.5 384.5,-57.5 511.5,-57.5 511.5,-38.5 384.5,-38.5"/>
<text text-anchor="middle" x="448" y="-45.5" font-family="Helvetica,sans-Serif" font-size="10.00">gk_GetMaxMemoryUsed</text>
</a>
</g>
</g>
<!-- Node76&#45;&gt;Node79 -->
<g id="edge5" class="edge"><title>Node76&#45;&gt;Node79</title>
<path fill="none" stroke="midnightblue" d="M346.054,-62.641C354.665,-61.392 364.447,-59.9734 374.45,-58.5226"/>
<polygon fill="midnightblue" stroke="midnightblue" points="375.097,-61.9653 384.491,-57.0661 374.093,-55.0378 375.097,-61.9653"/>
</g>
<!-- Node80 -->
<g id="node7" class="node"><title>Node80</title>
<g id="a_node7"><a xlink:href="$a00026.html#a4c320c13bcdc9967613253ef4c73f59f" xlink:title="gk_errexit">
<polygon fill="white" stroke="black" points="418,-0.5 418,-19.5 478,-19.5 478,-0.5 418,-0.5"/>
<text text-anchor="middle" x="448" y="-7.5" font-family="Helvetica,sans-Serif" font-size="10.00">gk_errexit</text>
</a>
</g>
</g>
<!-- Node76&#45;&gt;Node80 -->
<g id="edge6" class="edge"><title>Node76&#45;&gt;Node80</title>
<path fill="none" stroke="midnightblue" d="M332.079,-57.4824C348.755,-47.7083 373.791,-33.3313 384,-29 391.701,-25.7327 400.151,-22.78 408.292,-20.2292"/>
<polygon fill="midnightblue" stroke="midnightblue" points="409.421,-23.5447 417.996,-17.3231 407.413,-16.8389 409.421,-23.5447"/>
</g>
<!-- Node80&#45;&gt;Node77 -->
<g id="edge7" class="edge"><title>Node80&#45;&gt;Node77</title>
<path fill="none" stroke="midnightblue" d="M478.228,-16.8252C489.104,-19.8755 501.377,-23.9396 512,-29 524.634,-35.0184 537.634,-43.6626 547.925,-51.1863"/>
<polygon fill="midnightblue" stroke="midnightblue" points="546.101,-54.1937 556.194,-57.4154 550.313,-48.6027 546.101,-54.1937"/>
</g>
</g>
</svg>
