<?xml version="1.0" encoding="UTF-8" standalone="no"?>
<!DOCTYPE svg PUBLIC "-//W3C//DTD SVG 1.1//EN"
 "http://www.w3.org/Graphics/SVG/1.1/DTD/svg11.dtd">
<!-- Generated by graphviz version 2.36.0 (20140111.2315)
 -->
<!-- Title: gk_csr_ComputeSquaredNorms Pages: 1 -->
<svg width="342pt" height="66pt"
 viewBox="0.00 0.00 342.00 66.00" xmlns="http://www.w3.org/2000/svg" xmlns:xlink="http://www.w3.org/1999/xlink">
<g id="graph0" class="graph" transform="scale(1 1) rotate(0) translate(4 62)">
<title>gk_csr_ComputeSquaredNorms</title>
<polygon fill="white" stroke="none" points="-4,4 -4,-62 338,-62 338,4 -4,4"/>
<!-- Node105 -->
<g id="node1" class="node"><title>Node105</title>
<polygon fill="#bfbfbf" stroke="black" points="0.5,-19.5 0.5,-38.5 159.5,-38.5 159.5,-19.5 0.5,-19.5"/>
<text text-anchor="middle" x="80" y="-26.5" font-family="Helvetica,sans-Serif" font-size="10.00">gk_csr_ComputeSquaredNorms</text>
</g>
<!-- Node106 -->
<g id="node2" class="node"><title>Node106</title>
<g id="a_node2"><a xlink:href="$a00077.html#ac8df62c4e3d0910711a9874f9cc58884" xlink:title="gk_free">
<polygon fill="white" stroke="black" points="201,-38.5 201,-57.5 251,-57.5 251,-38.5 201,-38.5"/>
<text text-anchor="middle" x="226" y="-45.5" font-family="Helvetica,sans-Serif" font-size="10.00">gk_free</text>
</a>
</g>
</g>
<!-- Node105&#45;&gt;Node106 -->
<g id="edge1" class="edge"><title>Node105&#45;&gt;Node106</title>
<path fill="none" stroke="midnightblue" d="M153.422,-38.5557C166.372,-40.2644 179.304,-41.9707 190.542,-43.4535"/>
<polygon fill="midnightblue" stroke="midnightblue" points="190.371,-46.9611 200.743,-44.7994 191.287,-40.0213 190.371,-46.9611"/>
</g>
<!-- Node107 -->
<g id="node3" class="node"><title>Node107</title>
<g id="a_node3"><a xlink:href="$a00026.html#a4c320c13bcdc9967613253ef4c73f59f" xlink:title="gk_errexit">
<polygon fill="white" stroke="black" points="196,-0.5 196,-19.5 256,-19.5 256,-0.5 196,-0.5"/>
<text text-anchor="middle" x="226" y="-7.5" font-family="Helvetica,sans-Serif" font-size="10.00">gk_errexit</text>
</a>
</g>
</g>
<!-- Node105&#45;&gt;Node107 -->
<g id="edge2" class="edge"><title>Node105&#45;&gt;Node107</title>
<path fill="none" stroke="midnightblue" d="M153.422,-19.4443C164.546,-17.9766 175.656,-16.5107 185.691,-15.1866"/>
<polygon fill="midnightblue" stroke="midnightblue" points="186.258,-18.6422 195.714,-13.8641 185.342,-11.7023 186.258,-18.6422"/>
</g>
<!-- Node108 -->
<g id="node4" class="node"><title>Node108</title>
<g id="a_node4"><a xlink:href="$a01017.html#a2e311a777ffe9c80e405efa7cd2757be" xlink:title="fprintf">
<polygon fill="white" stroke="black" points="292,-0.5 292,-19.5 334,-19.5 334,-0.5 292,-0.5"/>
<text text-anchor="middle" x="313" y="-7.5" font-family="Helvetica,sans-Serif" font-size="10.00">fprintf</text>
</a>
</g>
</g>
<!-- Node107&#45;&gt;Node108 -->
<g id="edge3" class="edge"><title>Node107&#45;&gt;Node108</title>
<path fill="none" stroke="midnightblue" d="M256.252,-10C264.491,-10 273.468,-10 281.763,-10"/>
<polygon fill="midnightblue" stroke="midnightblue" points="281.799,-13.5001 291.799,-10 281.799,-6.5001 281.799,-13.5001"/>
</g>
</g>
</svg>
