<?xml version="1.0" encoding="UTF-8" standalone="no"?>
<!DOCTYPE svg PUBLIC "-//W3C//DTD SVG 1.1//EN"
 "http://www.w3.org/Graphics/SVG/1.1/DTD/svg11.dtd">
<!-- Generated by graphviz version 2.36.0 (20140111.2315)
 -->
<!-- Title: gk_ikvsorti Pages: 1 -->
<svg width="554pt" height="110pt"
 viewBox="0.00 0.00 554.00 110.00" xmlns="http://www.w3.org/2000/svg" xmlns:xlink="http://www.w3.org/1999/xlink">
<g id="graph0" class="graph" transform="scale(1 1) rotate(0) translate(4 106)">
<title>gk_ikvsorti</title>
<polygon fill="white" stroke="none" points="-4,4 -4,-106 550,-106 550,4 -4,4"/>
<!-- Node1282 -->
<g id="node1" class="node"><title>Node1282</title>
<polygon fill="#bfbfbf" stroke="black" points="0,-44.5 0,-63.5 64,-63.5 64,-44.5 0,-44.5"/>
<text text-anchor="middle" x="32" y="-51.5" font-family="Helvetica,sans-Serif" font-size="10.00">gk_ikvsorti</text>
</g>
<!-- Node1283 -->
<g id="node2" class="node"><title>Node1283</title>
<g id="a_node2"><a xlink:href="$a00077.html#a06ffa04d1369de42ae3b7d2a9f85b91d" xlink:title="gk_csr_SortIndices">
<polygon fill="white" stroke="black" points="110,-82.5 110,-101.5 212,-101.5 212,-82.5 110,-82.5"/>
<text text-anchor="middle" x="161" y="-89.5" font-family="Helvetica,sans-Serif" font-size="10.00">gk_csr_SortIndices</text>
</a>
</g>
</g>
<!-- Node1282&#45;&gt;Node1283 -->
<g id="edge1" class="edge"><title>Node1282&#45;&gt;Node1283</title>
<path fill="none" stroke="midnightblue" d="M74.0068,-66.2698C91.4811,-71.4983 111.565,-77.5077 127.927,-82.4033"/>
<polygon fill="midnightblue" stroke="midnightblue" points="74.6514,-62.8094 64.0677,-63.2958 72.6447,-69.5156 74.6514,-62.8094"/>
</g>
<!-- Node1284 -->
<g id="node3" class="node"><title>Node1284</title>
<g id="a_node3"><a xlink:href="$a00104.html#ab348ad8f89d70692400d7602e3a824bf" xlink:title="itemsets_project_matrix">
<polygon fill="white" stroke="black" points="100,-44.5 100,-63.5 222,-63.5 222,-44.5 100,-44.5"/>
<text text-anchor="middle" x="161" y="-51.5" font-family="Helvetica,sans-Serif" font-size="10.00">itemsets_project_matrix</text>
</a>
</g>
</g>
<!-- Node1282&#45;&gt;Node1284 -->
<g id="edge2" class="edge"><title>Node1282&#45;&gt;Node1284</title>
<path fill="none" stroke="midnightblue" d="M74.1554,-54C82.4021,-54 91.2251,-54 99.9605,-54"/>
<polygon fill="midnightblue" stroke="midnightblue" points="74.0677,-50.5001 64.0677,-54 74.0677,-57.5001 74.0677,-50.5001"/>
</g>
<!-- Node1287 -->
<g id="node6" class="node"><title>Node1287</title>
<g id="a_node6"><a xlink:href="$a00152.html#a03d0ef2537e50ad38d65892cc9c28118" xlink:title="test_ikvsort">
<polygon fill="white" stroke="black" points="127.5,-3.5 127.5,-22.5 194.5,-22.5 194.5,-3.5 127.5,-3.5"/>
<text text-anchor="middle" x="161" y="-10.5" font-family="Helvetica,sans-Serif" font-size="10.00">test_ikvsort</text>
</a>
</g>
</g>
<!-- Node1282&#45;&gt;Node1287 -->
<g id="edge6" class="edge"><title>Node1282&#45;&gt;Node1287</title>
<path fill="none" stroke="midnightblue" d="M72.1809,-41.351C90.9022,-35.3071 112.946,-28.1908 130.264,-22.5997"/>
<polygon fill="midnightblue" stroke="midnightblue" points="70.8967,-38.0877 62.4556,-44.4907 73.0473,-44.7492 70.8967,-38.0877"/>
</g>
<!-- Node1285 -->
<g id="node4" class="node"><title>Node1285</title>
<g id="a_node4"><a xlink:href="$a00104.html#abc9e8f6a3efe2f0f3ec79b5d8883b246" xlink:title="gk_find_frequent_itemsets">
<polygon fill="white" stroke="black" points="412,-66.5 412,-85.5 546,-85.5 546,-66.5 412,-66.5"/>
<text text-anchor="middle" x="479" y="-73.5" font-family="Helvetica,sans-Serif" font-size="10.00">gk_find_frequent_itemsets</text>
</a>
</g>
</g>
<!-- Node1284&#45;&gt;Node1285 -->
<g id="edge3" class="edge"><title>Node1284&#45;&gt;Node1285</title>
<path fill="none" stroke="midnightblue" d="M201.987,-66.3243C219.064,-70.9777 239.328,-75.7014 258,-78 309.368,-84.3237 367.992,-83.3928 411.8,-81.1155"/>
<polygon fill="midnightblue" stroke="midnightblue" points="202.91,-62.9483 192.336,-63.6114 201.016,-69.6871 202.91,-62.9483"/>
</g>
<!-- Node1286 -->
<g id="node5" class="node"><title>Node1286</title>
<g id="a_node5"><a xlink:href="$a00104.html#ab19ae99e1e3ba575373cf0fe846a8cd9" xlink:title="itemsets_find_frequent\l_itemsets">
<polygon fill="white" stroke="black" points="258,-39 258,-69 376,-69 376,-39 258,-39"/>
<text text-anchor="start" x="266" y="-57" font-family="Helvetica,sans-Serif" font-size="10.00">itemsets_find_frequent</text>
<text text-anchor="middle" x="317" y="-46" font-family="Helvetica,sans-Serif" font-size="10.00">_itemsets</text>
</a>
</g>
</g>
<!-- Node1284&#45;&gt;Node1286 -->
<g id="edge4" class="edge"><title>Node1284&#45;&gt;Node1286</title>
<path fill="none" stroke="midnightblue" d="M232.613,-54C241.03,-54 249.551,-54 257.767,-54"/>
<polygon fill="midnightblue" stroke="midnightblue" points="232.423,-50.5001 222.423,-54 232.423,-57.5001 232.423,-50.5001"/>
</g>
<!-- Node1286&#45;&gt;Node1285 -->
<g id="edge5" class="edge"><title>Node1286&#45;&gt;Node1285</title>
<path fill="none" stroke="midnightblue" d="M386.15,-63.3707C394.705,-64.547 403.446,-65.7488 411.967,-66.9205"/>
<polygon fill="midnightblue" stroke="midnightblue" points="386.6,-59.8996 376.216,-62.0047 385.646,-66.8344 386.6,-59.8996"/>
</g>
<!-- Node1288 -->
<g id="node7" class="node"><title>Node1288</title>
<g id="a_node7"><a xlink:href="$a00152.html#ae66f6b31b5ad750f1fe042a706a4e3d4" xlink:title="main">
<polygon fill="white" stroke="black" points="298,-0.5 298,-19.5 336,-19.5 336,-0.5 298,-0.5"/>
<text text-anchor="middle" x="317" y="-7.5" font-family="Helvetica,sans-Serif" font-size="10.00">main</text>
</a>
</g>
</g>
<!-- Node1287&#45;&gt;Node1288 -->
<g id="edge7" class="edge"><title>Node1287&#45;&gt;Node1288</title>
<path fill="none" stroke="midnightblue" d="M204.661,-12.1689C235.296,-11.5722 275.051,-10.7977 297.824,-10.3541"/>
<polygon fill="midnightblue" stroke="midnightblue" points="204.589,-8.66957 194.659,-12.3638 204.726,-15.6682 204.589,-8.66957"/>
</g>
</g>
</svg>
