<?xml version="1.0" encoding="UTF-8" standalone="no"?>
<!DOCTYPE svg PUBLIC "-//W3C//DTD SVG 1.1//EN"
 "http://www.w3.org/Graphics/SVG/1.1/DTD/svg11.dtd">
<!-- Generated by graphviz version 2.36.0 (20140111.2315)
 -->
<!-- Title: gk_sigtrap Pages: 1 -->
<svg width="980pt" height="522pt"
 viewBox="0.00 0.00 980.00 522.00" xmlns="http://www.w3.org/2000/svg" xmlns:xlink="http://www.w3.org/1999/xlink">
<g id="graph0" class="graph" transform="scale(1 1) rotate(0) translate(4 518)">
<title>gk_sigtrap</title>
<polygon fill="white" stroke="none" points="-4,4 -4,-518 976,-518 976,4 -4,4"/>
<!-- Node212 -->
<g id="node1" class="node"><title>Node212</title>
<polygon fill="#bfbfbf" stroke="black" points="0.5,-152.5 0.5,-171.5 63.5,-171.5 63.5,-152.5 0.5,-152.5"/>
<text text-anchor="middle" x="32" y="-159.5" font-family="Helvetica,sans-Serif" font-size="10.00">gk_sigtrap</text>
</g>
<!-- Node213 -->
<g id="node2" class="node"><title>Node213</title>
<g id="a_node2"><a xlink:href="$a00912.html#af89851458c047aba436b36ed567441e4" xlink:title="METIS_PartGraphKway">
<polygon fill="white" stroke="black" points="582.5,-380.5 582.5,-399.5 705.5,-399.5 705.5,-380.5 582.5,-380.5"/>
<text text-anchor="middle" x="644" y="-387.5" font-family="Helvetica,sans-Serif" font-size="10.00">METIS_PartGraphKway</text>
</a>
</g>
</g>
<!-- Node212&#45;&gt;Node213 -->
<g id="edge1" class="edge"><title>Node212&#45;&gt;Node213</title>
<path fill="none" stroke="midnightblue" d="M35.6725,-181.822C41.3699,-216.762 57.8205,-289.706 100,-333 160.598,-395.2 194.888,-391.768 280,-409 395.871,-432.459 428.33,-420.416 546,-409 565.13,-407.144 586.087,-403.275 603.612,-399.51"/>
<polygon fill="midnightblue" stroke="midnightblue" points="39.0733,-180.898 34.131,-171.527 32.1505,-181.935 39.0733,-180.898"/>
</g>
<!-- Node219 -->
<g id="node8" class="node"><title>Node219</title>
<g id="a_node8"><a xlink:href="$a00236.html#ade1e7e23ad687989a6343b4fb8d61ba7" xlink:title="METIS_PartMeshNodal">
<polygon fill="white" stroke="black" points="759,-228.5 759,-247.5 881,-247.5 881,-228.5 759,-228.5"/>
<text text-anchor="middle" x="820" y="-235.5" font-family="Helvetica,sans-Serif" font-size="10.00">METIS_PartMeshNodal</text>
</a>
</g>
</g>
<!-- Node212&#45;&gt;Node219 -->
<g id="edge18" class="edge"><title>Node212&#45;&gt;Node219</title>
<path fill="none" stroke="midnightblue" d="M71.726,-174.365C80.9142,-176.913 90.7383,-179.326 100,-181 202.242,-199.483 229.101,-200 333,-200 333,-200 333,-200 486,-200 586.228,-200 702.338,-217.204 767.581,-228.46"/>
<polygon fill="midnightblue" stroke="midnightblue" points="72.6405,-170.987 62.0621,-171.577 70.6997,-177.712 72.6405,-170.987"/>
</g>
<!-- Node221 -->
<g id="node10" class="node"><title>Node221</title>
<g id="a_node10"><a xlink:href="$a00236.html#a8f496ac1cd2246b124da246b5c6f9193" xlink:title="METIS_PartMeshDual">
<polygon fill="white" stroke="black" points="762,-190.5 762,-209.5 878,-209.5 878,-190.5 762,-190.5"/>
<text text-anchor="middle" x="820" y="-197.5" font-family="Helvetica,sans-Serif" font-size="10.00">METIS_PartMeshDual</text>
</a>
</g>
</g>
<!-- Node212&#45;&gt;Node221 -->
<g id="edge19" class="edge"><title>Node212&#45;&gt;Node221</title>
<path fill="none" stroke="midnightblue" d="M48.5479,-145.026C61.2103,-132.2 80.1793,-115.129 100,-105 194.932,-56.4878 226.391,-48 333,-48 333,-48 333,-48 486,-48 587.586,-48 615.597,-63.6639 706,-110 749.076,-132.079 791.428,-172.02 809.664,-190.342"/>
<polygon fill="midnightblue" stroke="midnightblue" points="45.9121,-142.718 41.5275,-152.363 50.9698,-147.557 45.9121,-142.718"/>
</g>
<!-- Node223 -->
<g id="node12" class="node"><title>Node223</title>
<g id="a_node12"><a xlink:href="$a00930.html#a2cf4672355fcfed039c04a2d1d134136" xlink:title="METIS_MeshToDual">
<polygon fill="white" stroke="black" points="117.5,-114.5 117.5,-133.5 226.5,-133.5 226.5,-114.5 117.5,-114.5"/>
<text text-anchor="middle" x="172" y="-121.5" font-family="Helvetica,sans-Serif" font-size="10.00">METIS_MeshToDual</text>
</a>
</g>
</g>
<!-- Node212&#45;&gt;Node223 -->
<g id="edge12" class="edge"><title>Node212&#45;&gt;Node223</title>
<path fill="none" stroke="midnightblue" d="M73.3238,-150.46C82.1099,-147.975 91.3617,-145.381 100,-143 111.317,-139.881 123.67,-136.55 134.852,-133.562"/>
<polygon fill="midnightblue" stroke="midnightblue" points="72.3242,-147.106 63.6593,-153.202 74.235,-153.84 72.3242,-147.106"/>
</g>
<!-- Node225 -->
<g id="node14" class="node"><title>Node225</title>
<g id="a_node14"><a xlink:href="$a00930.html#ae9390485cd2d3654742f779a7188c125" xlink:title="METIS_MeshToNodal">
<polygon fill="white" stroke="black" points="114.5,-152.5 114.5,-171.5 229.5,-171.5 229.5,-152.5 114.5,-152.5"/>
<text text-anchor="middle" x="172" y="-159.5" font-family="Helvetica,sans-Serif" font-size="10.00">METIS_MeshToNodal</text>
</a>
</g>
</g>
<!-- Node212&#45;&gt;Node225 -->
<g id="edge15" class="edge"><title>Node212&#45;&gt;Node225</title>
<path fill="none" stroke="midnightblue" d="M73.8797,-162C86.5718,-162 100.795,-162 114.36,-162"/>
<polygon fill="midnightblue" stroke="midnightblue" points="73.6267,-158.5 63.6267,-162 73.6266,-165.5 73.6267,-158.5"/>
</g>
<!-- Node226 -->
<g id="node15" class="node"><title>Node226</title>
<g id="a_node15"><a xlink:href="$a00936.html#a8304f0dd6d180587f73b0b70de3b01b7" xlink:title="METIS_NodeND">
<polygon fill="white" stroke="black" points="126.5,-0.5 126.5,-19.5 217.5,-19.5 217.5,-0.5 126.5,-0.5"/>
<text text-anchor="middle" x="172" y="-7.5" font-family="Helvetica,sans-Serif" font-size="10.00">METIS_NodeND</text>
</a>
</g>
</g>
<!-- Node212&#45;&gt;Node226 -->
<g id="edge20" class="edge"><title>Node212&#45;&gt;Node226</title>
<path fill="none" stroke="midnightblue" d="M38.1218,-142.655C46.4794,-114.753 65.6632,-63.351 100,-34 107.517,-27.5746 116.828,-22.8491 126.206,-19.3804"/>
<polygon fill="midnightblue" stroke="midnightblue" points="34.7144,-141.842 35.3558,-152.417 41.4493,-143.75 34.7144,-141.842"/>
</g>
<!-- Node228 -->
<g id="node17" class="node"><title>Node228</title>
<g id="a_node17"><a xlink:href="$a00260.html#a25fc90fd934931239b3c98ac4bdbce76" xlink:title="Recursive partitioning routine. ">
<polygon fill="white" stroke="black" points="100.5,-304.5 100.5,-323.5 243.5,-323.5 243.5,-304.5 100.5,-304.5"/>
<text text-anchor="middle" x="172" y="-311.5" font-family="Helvetica,sans-Serif" font-size="10.00">METIS_PartGraphRecursive</text>
</a>
</g>
</g>
<!-- Node212&#45;&gt;Node228 -->
<g id="edge22" class="edge"><title>Node212&#45;&gt;Node228</title>
<path fill="none" stroke="midnightblue" d="M48.6168,-179.201C77.7806,-211.324 139.625,-279.442 162.371,-304.495"/>
<polygon fill="midnightblue" stroke="midnightblue" points="50.9458,-176.559 41.6325,-171.508 45.7631,-181.265 50.9458,-176.559"/>
</g>
<!-- Node214 -->
<g id="node3" class="node"><title>Node214</title>
<g id="a_node3"><a xlink:href="$a00846.html#a6df93293cf3d1ccb4659bd1b3091623d" xlink:title="ParMETIS_V3_PartGeomKway">
<polygon fill="white" stroke="black" points="742,-456.5 742,-475.5 898,-475.5 898,-456.5 742,-456.5"/>
<text text-anchor="middle" x="820" y="-463.5" font-family="Helvetica,sans-Serif" font-size="10.00">ParMETIS_V3_PartGeomKway</text>
</a>
</g>
</g>
<!-- Node213&#45;&gt;Node214 -->
<g id="edge2" class="edge"><title>Node213&#45;&gt;Node214</title>
<path fill="none" stroke="midnightblue" d="M685.179,-403.366C692.341,-406.424 699.563,-409.979 706,-414 724.408,-425.5 722.869,-436.748 742,-447 749.16,-450.837 757.11,-453.915 765.105,-456.379"/>
<polygon fill="midnightblue" stroke="midnightblue" points="686.113,-399.97 675.529,-399.506 683.513,-406.469 686.113,-399.97"/>
</g>
<!-- Node215 -->
<g id="node4" class="node"><title>Node215</title>
<g id="a_node4"><a xlink:href="$a00954.html#aa24ead3c2c8fb3e58110f1f79453ce29" xlink:title="Balance_Partition">
<polygon fill="white" stroke="black" points="772.5,-342.5 772.5,-361.5 867.5,-361.5 867.5,-342.5 772.5,-342.5"/>
<text text-anchor="middle" x="820" y="-349.5" font-family="Helvetica,sans-Serif" font-size="10.00">Balance_Partition</text>
</a>
</g>
</g>
<!-- Node213&#45;&gt;Node215 -->
<g id="edge3" class="edge"><title>Node213&#45;&gt;Node215</title>
<path fill="none" stroke="midnightblue" d="M698.814,-378.247C723.418,-372.874 752.187,-366.591 775.408,-361.52"/>
<polygon fill="midnightblue" stroke="midnightblue" points="697.93,-374.858 688.908,-380.411 699.424,-381.697 697.93,-374.858"/>
</g>
<!-- Node216 -->
<g id="node5" class="node"><title>Node216</title>
<g id="a_node5"><a xlink:href="$a00416.html#af4fae82dc1fc688ae704c61e647d33e4" xlink:title="PartitionSmallGraph">
<polygon fill="white" stroke="black" points="767,-418.5 767,-437.5 873,-437.5 873,-418.5 767,-418.5"/>
<text text-anchor="middle" x="820" y="-425.5" font-family="Helvetica,sans-Serif" font-size="10.00">PartitionSmallGraph</text>
</a>
</g>
</g>
<!-- Node213&#45;&gt;Node216 -->
<g id="edge4" class="edge"><title>Node213&#45;&gt;Node216</title>
<path fill="none" stroke="midnightblue" d="M698.814,-401.753C723.418,-407.126 752.187,-413.409 775.408,-418.48"/>
<polygon fill="midnightblue" stroke="midnightblue" points="699.424,-398.303 688.908,-399.589 697.93,-405.142 699.424,-398.303"/>
</g>
<!-- Node217 -->
<g id="node6" class="node"><title>Node217</title>
<g id="a_node6"><a xlink:href="$a00954.html#a5358042c354702d9e8128f7cc342a322" xlink:title="InitPartition">
<polygon fill="white" stroke="black" points="786.5,-304.5 786.5,-323.5 853.5,-323.5 853.5,-304.5 786.5,-304.5"/>
<text text-anchor="middle" x="820" y="-311.5" font-family="Helvetica,sans-Serif" font-size="10.00">InitPartition</text>
</a>
</g>
</g>
<!-- Node213&#45;&gt;Node217 -->
<g id="edge5" class="edge"><title>Node213&#45;&gt;Node217</title>
<path fill="none" stroke="midnightblue" d="M666.754,-374.73C685.815,-361.971 714.669,-344.126 742,-333 756.156,-327.237 772.512,-322.9 786.499,-319.835"/>
<polygon fill="midnightblue" stroke="midnightblue" points="664.776,-371.842 658.479,-380.363 668.715,-377.629 664.776,-371.842"/>
</g>
<!-- Node218 -->
<g id="node7" class="node"><title>Node218</title>
<g id="a_node7"><a xlink:href="$a00846.html#af418d1e76eaf4f80116da4caf51bd54e" xlink:title="ParMETIS_V3_PartKway">
<polygon fill="white" stroke="black" points="755.5,-380.5 755.5,-399.5 884.5,-399.5 884.5,-380.5 755.5,-380.5"/>
<text text-anchor="middle" x="820" y="-387.5" font-family="Helvetica,sans-Serif" font-size="10.00">ParMETIS_V3_PartKway</text>
</a>
</g>
</g>
<!-- Node213&#45;&gt;Node218 -->
<g id="edge6" class="edge"><title>Node213&#45;&gt;Node218</title>
<path fill="none" stroke="midnightblue" d="M716.116,-390C729.066,-390 742.502,-390 755.224,-390"/>
<polygon fill="midnightblue" stroke="midnightblue" points="715.857,-386.5 705.857,-390 715.857,-393.5 715.857,-386.5"/>
</g>
<!-- Node213&#45;&gt;Node219 -->
<g id="edge7" class="edge"><title>Node213&#45;&gt;Node219</title>
<path fill="none" stroke="midnightblue" d="M660.867,-373.105C679.56,-353.528 711.892,-320.676 742,-295 763.008,-277.085 789.147,-258.436 804.93,-247.539"/>
<polygon fill="midnightblue" stroke="midnightblue" points="658.302,-370.723 653.959,-380.387 663.381,-375.541 658.302,-370.723"/>
</g>
<!-- Node213&#45;&gt;Node221 -->
<g id="edge9" class="edge"><title>Node213&#45;&gt;Node221</title>
<path fill="none" stroke="midnightblue" d="M650.341,-370.771C661.284,-335.074 689.732,-258.599 742,-219 747.926,-214.51 754.779,-211.069 761.903,-208.434"/>
<polygon fill="midnightblue" stroke="midnightblue" points="646.957,-369.873 647.5,-380.454 653.674,-371.844 646.957,-369.873"/>
</g>
<!-- Node222 -->
<g id="node11" class="node"><title>Node222</title>
<g id="a_node11"><a xlink:href="$a00311.html#a0ddf1224851353fc92bfbff6f499fa97" xlink:title="main">
<polygon fill="white" stroke="black" points="801,-494.5 801,-513.5 839,-513.5 839,-494.5 801,-494.5"/>
<text text-anchor="middle" x="820" y="-501.5" font-family="Helvetica,sans-Serif" font-size="10.00">main</text>
</a>
</g>
</g>
<!-- Node213&#45;&gt;Node222 -->
<g id="edge11" class="edge"><title>Node213&#45;&gt;Node222</title>
<path fill="none" stroke="midnightblue" d="M691.167,-403.863C696.528,-406.677 701.632,-410.026 706,-414 732.17,-437.809 714.306,-462.982 742,-485 758.921,-498.453 784.048,-502.551 800.952,-503.709"/>
<polygon fill="midnightblue" stroke="midnightblue" points="692.53,-400.637 681.985,-399.616 689.592,-406.991 692.53,-400.637"/>
</g>
<!-- Node220 -->
<g id="node9" class="node"><title>Node220</title>
<g id="a_node9"><a xlink:href="$a00323.html#a0ddf1224851353fc92bfbff6f499fa97" xlink:title="main">
<polygon fill="white" stroke="black" points="934,-209.5 934,-228.5 972,-228.5 972,-209.5 934,-209.5"/>
<text text-anchor="middle" x="953" y="-216.5" font-family="Helvetica,sans-Serif" font-size="10.00">main</text>
</a>
</g>
</g>
<!-- Node219&#45;&gt;Node220 -->
<g id="edge8" class="edge"><title>Node219&#45;&gt;Node220</title>
<path fill="none" stroke="midnightblue" d="M891.451,-227.782C907.128,-225.508 922.424,-223.29 933.72,-221.651"/>
<polygon fill="midnightblue" stroke="midnightblue" points="890.526,-224.379 881.132,-229.279 891.531,-231.307 890.526,-224.379"/>
</g>
<!-- Node221&#45;&gt;Node220 -->
<g id="edge10" class="edge"><title>Node221&#45;&gt;Node220</title>
<path fill="none" stroke="midnightblue" d="M888.039,-209.723C904.991,-212.182 921.804,-214.62 933.935,-216.38"/>
<polygon fill="midnightblue" stroke="midnightblue" points="888.476,-206.25 878.077,-208.278 887.471,-213.178 888.476,-206.25"/>
</g>
<!-- Node223&#45;&gt;Node221 -->
<g id="edge13" class="edge"><title>Node223&#45;&gt;Node221</title>
<path fill="none" stroke="midnightblue" d="M226.775,-112.548C243.723,-109.453 262.568,-106.536 280,-105 469.561,-88.3004 523.266,-94.8907 706,-148 741.876,-158.427 780.868,-178.509 802.381,-190.434"/>
<polygon fill="midnightblue" stroke="midnightblue" points="225.676,-109.194 216.498,-114.488 226.974,-116.073 225.676,-109.194"/>
</g>
<!-- Node224 -->
<g id="node13" class="node"><title>Node224</title>
<g id="a_node13"><a xlink:href="$a00317.html#a0ddf1224851353fc92bfbff6f499fa97" xlink:title="main">
<polygon fill="white" stroke="black" points="315,-114.5 315,-133.5 353,-133.5 353,-114.5 315,-114.5"/>
<text text-anchor="middle" x="334" y="-121.5" font-family="Helvetica,sans-Serif" font-size="10.00">main</text>
</a>
</g>
</g>
<!-- Node223&#45;&gt;Node224 -->
<g id="edge14" class="edge"><title>Node223&#45;&gt;Node224</title>
<path fill="none" stroke="midnightblue" d="M236.911,-124C264.975,-124 295.794,-124 314.773,-124"/>
<polygon fill="midnightblue" stroke="midnightblue" points="236.723,-120.5 226.723,-124 236.723,-127.5 236.723,-120.5"/>
</g>
<!-- Node225&#45;&gt;Node219 -->
<g id="edge16" class="edge"><title>Node225&#45;&gt;Node219</title>
<path fill="none" stroke="midnightblue" d="M239.749,-159.393C363.543,-155.475 623.621,-151.803 706,-186 726.046,-194.322 722.869,-208.748 742,-219 749.16,-222.837 757.11,-225.915 765.105,-228.379"/>
<polygon fill="midnightblue" stroke="midnightblue" points="239.519,-155.899 229.638,-159.723 239.747,-162.895 239.519,-155.899"/>
</g>
<!-- Node225&#45;&gt;Node224 -->
<g id="edge17" class="edge"><title>Node225&#45;&gt;Node224</title>
<path fill="none" stroke="midnightblue" d="M223.228,-150.071C254.429,-142.661 292.677,-133.577 314.802,-128.322"/>
<polygon fill="midnightblue" stroke="midnightblue" points="222.295,-146.695 213.375,-152.411 223.913,-153.505 222.295,-146.695"/>
</g>
<!-- Node227 -->
<g id="node16" class="node"><title>Node227</title>
<g id="a_node16"><a xlink:href="$a00326.html#a0ddf1224851353fc92bfbff6f499fa97" xlink:title="main">
<polygon fill="white" stroke="black" points="315,-0.5 315,-19.5 353,-19.5 353,-0.5 315,-0.5"/>
<text text-anchor="middle" x="334" y="-7.5" font-family="Helvetica,sans-Serif" font-size="10.00">main</text>
</a>
</g>
</g>
<!-- Node226&#45;&gt;Node227 -->
<g id="edge21" class="edge"><title>Node226&#45;&gt;Node227</title>
<path fill="none" stroke="midnightblue" d="M227.641,-10C258.041,-10 293.891,-10 314.962,-10"/>
<polygon fill="midnightblue" stroke="midnightblue" points="227.569,-6.5001 217.569,-10 227.569,-13.5001 227.569,-6.5001"/>
</g>
<!-- Node228&#45;&gt;Node215 -->
<g id="edge23" class="edge"><title>Node228&#45;&gt;Node215</title>
<path fill="none" stroke="midnightblue" d="M248.795,-324.734C259.262,-325.977 269.888,-327.115 280,-328 461.726,-343.905 678.893,-349.5 772.409,-351.267"/>
<polygon fill="midnightblue" stroke="midnightblue" points="249.18,-321.255 238.829,-323.514 248.329,-328.203 249.18,-321.255"/>
</g>
<!-- Node228&#45;&gt;Node217 -->
<g id="edge24" class="edge"><title>Node228&#45;&gt;Node217</title>
<path fill="none" stroke="midnightblue" d="M253.699,-314C396.596,-314 688.292,-314 786.157,-314"/>
<polygon fill="midnightblue" stroke="midnightblue" points="253.672,-310.5 243.672,-314 253.672,-317.5 253.672,-310.5"/>
</g>
<!-- Node228&#45;&gt;Node219 -->
<g id="edge28" class="edge"><title>Node228&#45;&gt;Node219</title>
<path fill="none" stroke="midnightblue" d="M253.873,-304.783C358.329,-292.834 545.771,-271.244 706,-252 723.174,-249.937 741.809,-247.649 758.9,-245.531"/>
<polygon fill="midnightblue" stroke="midnightblue" points="253.255,-301.331 243.718,-305.944 254.051,-308.285 253.255,-301.331"/>
</g>
<!-- Node228&#45;&gt;Node221 -->
<g id="edge29" class="edge"><title>Node228&#45;&gt;Node221</title>
<path fill="none" stroke="midnightblue" d="M214.237,-301.703C234.008,-296.096 258.102,-289.68 280,-285 454.165,-247.78 663.211,-219.386 761.979,-206.927"/>
<polygon fill="midnightblue" stroke="midnightblue" points="213.264,-298.341 204.618,-304.464 215.195,-305.069 213.264,-298.341"/>
</g>
<!-- Node228&#45;&gt;Node222 -->
<g id="edge30" class="edge"><title>Node228&#45;&gt;Node222</title>
<path fill="none" stroke="midnightblue" d="M187.237,-331.573C206.033,-353.474 241.3,-390.293 280,-409 467.779,-499.768 729.804,-504.724 800.705,-504.293"/>
<polygon fill="midnightblue" stroke="midnightblue" points="189.76,-329.134 180.654,-323.717 184.394,-333.63 189.76,-329.134"/>
</g>
<!-- Node229 -->
<g id="node18" class="node"><title>Node229</title>
<g id="a_node18"><a xlink:href="$a00948.html#a870e37cc14eb1033c62d83d3a7c33a91" xlink:title="InitKWayPartitioning">
<polygon fill="white" stroke="black" points="280.5,-380.5 280.5,-399.5 387.5,-399.5 387.5,-380.5 280.5,-380.5"/>
<text text-anchor="middle" x="334" y="-387.5" font-family="Helvetica,sans-Serif" font-size="10.00">InitKWayPartitioning</text>
</a>
</g>
</g>
<!-- Node228&#45;&gt;Node229 -->
<g id="edge25" class="edge"><title>Node228&#45;&gt;Node229</title>
<path fill="none" stroke="midnightblue" d="M201.472,-328.097C222.973,-338.68 253.247,-353.445 280,-366 290.333,-370.849 301.87,-376.094 311.535,-380.439"/>
<polygon fill="midnightblue" stroke="midnightblue" points="202.771,-324.836 192.254,-323.552 199.675,-331.114 202.771,-324.836"/>
</g>
<!-- Node230 -->
<g id="node19" class="node"><title>Node230</title>
<g id="a_node19"><a xlink:href="$a00948.html#a7973c78504ad6711d3516082b1112805" xlink:title="MlevelKWayPartitioning">
<polygon fill="white" stroke="black" points="424,-380.5 424,-399.5 546,-399.5 546,-380.5 424,-380.5"/>
<text text-anchor="middle" x="485" y="-387.5" font-family="Helvetica,sans-Serif" font-size="10.00">MlevelKWayPartitioning</text>
</a>
</g>
</g>
<!-- Node229&#45;&gt;Node230 -->
<g id="edge26" class="edge"><title>Node229&#45;&gt;Node230</title>
<path fill="none" stroke="midnightblue" d="M397.589,-390C406.268,-390 415.168,-390 423.802,-390"/>
<polygon fill="midnightblue" stroke="midnightblue" points="397.532,-386.5 387.532,-390 397.532,-393.5 397.532,-386.5"/>
</g>
<!-- Node230&#45;&gt;Node213 -->
<g id="edge27" class="edge"><title>Node230&#45;&gt;Node213</title>
<path fill="none" stroke="midnightblue" d="M556.361,-390C565.047,-390 573.868,-390 582.391,-390"/>
<polygon fill="midnightblue" stroke="midnightblue" points="556.251,-386.5 546.251,-390 556.251,-393.5 556.251,-386.5"/>
</g>
</g>
</svg>
