<?xml version="1.0" encoding="UTF-8" standalone="no"?>
<!DOCTYPE svg PUBLIC "-//W3C//DTD SVG 1.1//EN"
 "http://www.w3.org/Graphics/SVG/1.1/DTD/svg11.dtd">
<!-- Generated by graphviz version 2.36.0 (20140111.2315)
 -->
<!-- Title: errexit Pages: 1 -->
<svg width="640pt" height="1586pt"
 viewBox="0.00 0.00 640.00 1586.00" xmlns="http://www.w3.org/2000/svg" xmlns:xlink="http://www.w3.org/1999/xlink">
<g id="graph0" class="graph" transform="scale(1 1) rotate(0) translate(4 1582)">
<title>errexit</title>
<polygon fill="white" stroke="none" points="-4,4 -4,-1582 636,-1582 636,4 -4,4"/>
<!-- Node20 -->
<g id="node1" class="node"><title>Node20</title>
<polygon fill="#bfbfbf" stroke="black" points="0,-323.5 0,-342.5 44,-342.5 44,-323.5 0,-323.5"/>
<text text-anchor="middle" x="22" y="-330.5" font-family="Helvetica,sans-Serif" font-size="10.00">errexit</text>
</g>
<!-- Node21 -->
<g id="node2" class="node"><title>Node21</title>
<g id="a_node2"><a xlink:href="$a00954.html#add46f66d0e9d6c06e9bf36b386918c83" xlink:title="CreateCoarseGraph_Global">
<polygon fill="white" stroke="black" points="80.5,-1558.5 80.5,-1577.5 221.5,-1577.5 221.5,-1558.5 80.5,-1558.5"/>
<text text-anchor="middle" x="151" y="-1565.5" font-family="Helvetica,sans-Serif" font-size="10.00">CreateCoarseGraph_Global</text>
</a>
</g>
</g>
<!-- Node20&#45;&gt;Node21 -->
<g id="edge1" class="edge"><title>Node20&#45;&gt;Node21</title>
<path fill="none" stroke="midnightblue" d="M23.3039,-352.916C25.721,-506.238 42.717,-1494.32 80,-1544 84.7037,-1550.27 91.1403,-1554.91 98.2169,-1558.35"/>
<polygon fill="midnightblue" stroke="midnightblue" points="26.7996,-352.609 23.1446,-342.664 19.8005,-352.717 26.7996,-352.609"/>
</g>
<!-- Node23 -->
<g id="node4" class="node"><title>Node23</title>
<g id="a_node4"><a xlink:href="$a00077.html#a8ebc19fe9a291bdf67677ebdaae56592" xlink:title="gk_csr_Read">
<polygon fill="white" stroke="black" points="448.5,-1368.5 448.5,-1387.5 523.5,-1387.5 523.5,-1368.5 448.5,-1368.5"/>
<text text-anchor="middle" x="486" y="-1375.5" font-family="Helvetica,sans-Serif" font-size="10.00">gk_csr_Read</text>
</a>
</g>
</g>
<!-- Node20&#45;&gt;Node23 -->
<g id="edge3" class="edge"><title>Node20&#45;&gt;Node23</title>
<path fill="none" stroke="midnightblue" d="M23.0347,-352.821C23.4335,-459.739 28.0728,-968.282 80,-1115 126.236,-1245.64 136.189,-1304.92 258,-1371 318.131,-1403.62 401.023,-1395.24 448.204,-1386.45"/>
<polygon fill="midnightblue" stroke="midnightblue" points="26.5347,-352.76 23.006,-342.77 19.5347,-352.78 26.5347,-352.76"/>
</g>
<!-- Node25 -->
<g id="node6" class="node"><title>Node25</title>
<g id="a_node6"><a xlink:href="$a00858.html#abff04948821f625a3e59666e61c70e2f" xlink:title="gk_fopen">
<polygon fill="white" stroke="black" points="122,-855.5 122,-874.5 180,-874.5 180,-855.5 122,-855.5"/>
<text text-anchor="middle" x="151" y="-862.5" font-family="Helvetica,sans-Serif" font-size="10.00">gk_fopen</text>
</a>
</g>
</g>
<!-- Node20&#45;&gt;Node25 -->
<g id="edge5" class="edge"><title>Node20&#45;&gt;Node25</title>
<path fill="none" stroke="midnightblue" d="M27.6767,-352.591C48.5056,-439.842 132.47,-791.569 147.644,-855.129"/>
<polygon fill="midnightblue" stroke="midnightblue" points="31.0391,-351.602 25.3127,-342.688 24.2304,-353.227 31.0391,-351.602"/>
</g>
<!-- Node31 -->
<g id="node12" class="node"><title>Node31</title>
<g id="a_node12"><a xlink:href="$a00951.html#aef01a8b2c6432d21be77abeabeeeced8" xlink:title="ReadMesh">
<polygon fill="white" stroke="black" points="453.5,-1444.5 453.5,-1463.5 518.5,-1463.5 518.5,-1444.5 453.5,-1444.5"/>
<text text-anchor="middle" x="486" y="-1451.5" font-family="Helvetica,sans-Serif" font-size="10.00">ReadMesh</text>
</a>
</g>
</g>
<!-- Node20&#45;&gt;Node31 -->
<g id="edge47" class="edge"><title>Node20&#45;&gt;Node31</title>
<path fill="none" stroke="midnightblue" d="M23.308,-352.574C25.3962,-477.667 38.6643,-1162.58 80,-1245 126.507,-1337.73 165.83,-1348.39 258,-1396 322.688,-1429.42 407.896,-1444.46 453.301,-1450.48"/>
<polygon fill="midnightblue" stroke="midnightblue" points="26.8069,-352.472 23.1446,-342.53 19.8078,-352.586 26.8069,-352.472"/>
</g>
<!-- Node33 -->
<g id="node14" class="node"><title>Node33</title>
<g id="a_node14"><a xlink:href="$a00137.html#ad44124c9b40b8ffda2276f877526a261" xlink:title="This function reads a pssm in the format of gkmod pssm. ">
<polygon fill="white" stroke="black" points="414,-1330.5 414,-1349.5 558,-1349.5 558,-1330.5 414,-1330.5"/>
<text text-anchor="middle" x="486" y="-1337.5" font-family="Helvetica,sans-Serif" font-size="10.00">gk_seq_ReadGKMODPSSM</text>
</a>
</g>
</g>
<!-- Node20&#45;&gt;Node33 -->
<g id="edge60" class="edge"><title>Node20&#45;&gt;Node33</title>
<path fill="none" stroke="midnightblue" d="M23.2007,-352.932C24.3193,-425.299 31.6723,-680.591 80,-884 131.44,-1100.51 74.7956,-1225.67 258,-1352 285.697,-1371.1 377.193,-1359.43 435.22,-1349.51"/>
<polygon fill="midnightblue" stroke="midnightblue" points="26.696,-352.541 23.0658,-342.587 19.6966,-352.632 26.696,-352.541"/>
</g>
<!-- Node42 -->
<g id="node22" class="node"><title>Node42</title>
<g id="a_node22"><a xlink:href="$a00951.html#ac8fe4a21ae3e0e01afdba3fedf1c6123" xlink:title="ReadGraph">
<polygon fill="white" stroke="black" points="284,-342.5 284,-361.5 352,-361.5 352,-342.5 284,-342.5"/>
<text text-anchor="middle" x="318" y="-349.5" font-family="Helvetica,sans-Serif" font-size="10.00">ReadGraph</text>
</a>
</g>
</g>
<!-- Node20&#45;&gt;Node42 -->
<g id="edge46" class="edge"><title>Node20&#45;&gt;Node42</title>
<path fill="none" stroke="midnightblue" d="M41.3241,-349.284C51.8479,-357.531 65.7713,-366.692 80,-371 151.507,-392.651 240.373,-374.188 286.306,-361.512"/>
<polygon fill="midnightblue" stroke="midnightblue" points="43.2902,-346.368 33.3516,-342.697 38.8318,-351.764 43.2902,-346.368"/>
</g>
<!-- Node44 -->
<g id="node24" class="node"><title>Node44</title>
<g id="a_node24"><a xlink:href="$a00951.html#a12b940ccee061b8787088fbe16245f46" xlink:title="ReadTPwgts">
<polygon fill="white" stroke="black" points="281,-418.5 281,-437.5 355,-437.5 355,-418.5 281,-418.5"/>
<text text-anchor="middle" x="318" y="-425.5" font-family="Helvetica,sans-Serif" font-size="10.00">ReadTPwgts</text>
</a>
</g>
</g>
<!-- Node20&#45;&gt;Node44 -->
<g id="edge48" class="edge"><title>Node20&#45;&gt;Node44</title>
<path fill="none" stroke="midnightblue" d="M30.8604,-352.05C39.7523,-370.894 56.1675,-398.776 80,-412 143.466,-447.216 231.685,-441.573 280.625,-434.606"/>
<polygon fill="midnightblue" stroke="midnightblue" points="33.9498,-350.383 26.6951,-342.661 27.5512,-353.222 33.9498,-350.383"/>
</g>
<!-- Node46 -->
<g id="node26" class="node"><title>Node46</title>
<g id="a_node26"><a xlink:href="$a00951.html#a65a7c382444e5132dafddb75b6117754" xlink:title="ReadPOVector">
<polygon fill="white" stroke="black" points="276,-380.5 276,-399.5 360,-399.5 360,-380.5 276,-380.5"/>
<text text-anchor="middle" x="318" y="-387.5" font-family="Helvetica,sans-Serif" font-size="10.00">ReadPOVector</text>
</a>
</g>
</g>
<!-- Node20&#45;&gt;Node46 -->
<g id="edge49" class="edge"><title>Node20&#45;&gt;Node46</title>
<path fill="none" stroke="midnightblue" d="M34.7282,-350.738C44.8778,-364.344 60.9087,-382.092 80,-390 144.243,-416.61 226.951,-408.087 275.747,-399.22"/>
<polygon fill="midnightblue" stroke="midnightblue" points="37.5643,-348.686 28.9347,-342.539 31.8477,-352.726 37.5643,-348.686"/>
</g>
<!-- Node60 -->
<g id="node37" class="node"><title>Node60</title>
<g id="a_node37"><a xlink:href="$a00957.html#a7ced85ce3eee74389db1e96de523bb13" xlink:title="Mc_ParallelWriteGraph">
<polygon fill="white" stroke="black" points="91,-304.5 91,-323.5 211,-323.5 211,-304.5 91,-304.5"/>
<text text-anchor="middle" x="151" y="-311.5" font-family="Helvetica,sans-Serif" font-size="10.00">Mc_ParallelWriteGraph</text>
</a>
</g>
</g>
<!-- Node20&#45;&gt;Node60 -->
<g id="edge50" class="edge"><title>Node20&#45;&gt;Node60</title>
<path fill="none" stroke="midnightblue" d="M54.2721,-328.321C65.3562,-326.663 78.223,-324.738 90.8586,-322.848"/>
<polygon fill="midnightblue" stroke="midnightblue" points="53.629,-324.879 44.2569,-329.82 54.6648,-331.802 53.629,-324.879"/>
</g>
<!-- Node61 -->
<g id="node38" class="node"><title>Node61</title>
<g id="a_node38"><a xlink:href="$a00957.html#a612a9ac7e28ee021871b62eec92bed0b" xlink:title="ReadTestCoordinates">
<polygon fill="white" stroke="black" points="94,-228.5 94,-247.5 208,-247.5 208,-228.5 94,-228.5"/>
<text text-anchor="middle" x="151" y="-235.5" font-family="Helvetica,sans-Serif" font-size="10.00">ReadTestCoordinates</text>
</a>
</g>
</g>
<!-- Node20&#45;&gt;Node61 -->
<g id="edge51" class="edge"><title>Node20&#45;&gt;Node61</title>
<path fill="none" stroke="midnightblue" d="M32.3381,-314.268C41.9559,-296.88 58.5515,-271.553 80,-257 85.7311,-253.111 92.2307,-250.017 98.904,-247.554"/>
<polygon fill="midnightblue" stroke="midnightblue" points="29.0663,-312.969 27.4976,-323.447 35.2581,-316.234 29.0663,-312.969"/>
</g>
<!-- Node66 -->
<g id="node42" class="node"><title>Node66</title>
<g id="a_node42"><a xlink:href="$a00957.html#a19b5376612558b2381990f2e7a06bffc" xlink:title="WritePVector">
<polygon fill="white" stroke="black" points="113.5,-266.5 113.5,-285.5 188.5,-285.5 188.5,-266.5 113.5,-266.5"/>
<text text-anchor="middle" x="151" y="-273.5" font-family="Helvetica,sans-Serif" font-size="10.00">WritePVector</text>
</a>
</g>
</g>
<!-- Node20&#45;&gt;Node66 -->
<g id="edge55" class="edge"><title>Node20&#45;&gt;Node66</title>
<path fill="none" stroke="midnightblue" d="M43.0852,-317.28C53.6007,-309.668 66.9728,-300.92 80,-295 90.4325,-290.259 102.293,-286.488 113.249,-283.596"/>
<polygon fill="midnightblue" stroke="midnightblue" points="40.9149,-314.532 34.9943,-323.318 45.1018,-320.142 40.9149,-314.532"/>
</g>
<!-- Node67 -->
<g id="node43" class="node"><title>Node67</title>
<g id="a_node43"><a xlink:href="$a00957.html#a9ff4864d8e906761bd6c55597c085e3b" xlink:title="WriteOVector">
<polygon fill="white" stroke="black" points="112.5,-190.5 112.5,-209.5 189.5,-209.5 189.5,-190.5 112.5,-190.5"/>
<text text-anchor="middle" x="151" y="-197.5" font-family="Helvetica,sans-Serif" font-size="10.00">WriteOVector</text>
</a>
</g>
</g>
<!-- Node20&#45;&gt;Node67 -->
<g id="edge57" class="edge"><title>Node20&#45;&gt;Node67</title>
<path fill="none" stroke="midnightblue" d="M27.499,-313.391C34.3879,-287.842 50.0232,-243.545 80,-219 89.1585,-211.501 101.029,-206.947 112.385,-204.187"/>
<polygon fill="midnightblue" stroke="midnightblue" points="24.0324,-312.826 24.9972,-323.377 30.8226,-314.527 24.0324,-312.826"/>
</g>
<!-- Node69 -->
<g id="node45" class="node"><title>Node69</title>
<g id="a_node45"><a xlink:href="$a00107.html#ac7b3189a2be11b6736dc4c27d3d30f3a" xlink:title="gk_mcorePop">
<polygon fill="white" stroke="red" points="112,-152.5 112,-171.5 190,-171.5 190,-152.5 112,-152.5"/>
<text text-anchor="middle" x="151" y="-159.5" font-family="Helvetica,sans-Serif" font-size="10.00">gk_mcorePop</text>
</a>
</g>
</g>
<!-- Node20&#45;&gt;Node69 -->
<g id="edge59" class="edge"><title>Node20&#45;&gt;Node69</title>
<path fill="none" stroke="midnightblue" d="M24.756,-313.069C28.7031,-280.582 41.2239,-216.302 80,-181 88.7529,-173.031 100.516,-168.353 111.898,-165.623"/>
<polygon fill="midnightblue" stroke="midnightblue" points="21.2627,-312.821 23.6884,-323.135 28.2237,-313.56 21.2627,-312.821"/>
</g>
<!-- Node71 -->
<g id="node46" class="node"><title>Node71</title>
<g id="a_node46"><a xlink:href="$a00146.html#a0ddf1224851353fc92bfbff6f499fa97" xlink:title="main">
<polygon fill="white" stroke="black" points="132,-114.5 132,-133.5 170,-133.5 170,-114.5 132,-114.5"/>
<text text-anchor="middle" x="151" y="-121.5" font-family="Helvetica,sans-Serif" font-size="10.00">main</text>
</a>
</g>
</g>
<!-- Node20&#45;&gt;Node71 -->
<g id="edge61" class="edge"><title>Node20&#45;&gt;Node71</title>
<path fill="none" stroke="midnightblue" d="M22.9896,-313.13C24.088,-274.637 32.1533,-189.599 80,-143 93.8022,-129.558 116.11,-125.396 131.826,-124.224"/>
<polygon fill="midnightblue" stroke="midnightblue" points="19.4847,-313.437 22.836,-323.488 26.484,-313.541 19.4847,-313.437"/>
</g>
<!-- Node72 -->
<g id="node47" class="node"><title>Node72</title>
<g id="a_node47"><a xlink:href="$a00149.html#a1a7121f82ee758732f18aedf847fe88a" xlink:title="reorder_centroid">
<polygon fill="white" stroke="red" points="106,-76.5 106,-95.5 196,-95.5 196,-76.5 106,-76.5"/>
<text text-anchor="middle" x="151" y="-83.5" font-family="Helvetica,sans-Serif" font-size="10.00">reorder_centroid</text>
</a>
</g>
</g>
<!-- Node20&#45;&gt;Node72 -->
<g id="edge62" class="edge"><title>Node20&#45;&gt;Node72</title>
<path fill="none" stroke="midnightblue" d="M25.3539,-313.374C31.6937,-263.723 50.6554,-134.939 80,-105 86.9634,-97.8954 96.2952,-93.3664 105.871,-90.4998"/>
<polygon fill="midnightblue" stroke="midnightblue" points="21.8615,-313.097 24.1032,-323.452 28.8083,-313.959 21.8615,-313.097"/>
</g>
<!-- Node73 -->
<g id="node48" class="node"><title>Node73</title>
<g id="a_node48"><a xlink:href="$a00876.html#a650e5c092bae3edafdbdfd11340fe0a3" xlink:title="BSearch">
<polygon fill="white" stroke="black" points="123.5,-38.5 123.5,-57.5 178.5,-57.5 178.5,-38.5 123.5,-38.5"/>
<text text-anchor="middle" x="151" y="-45.5" font-family="Helvetica,sans-Serif" font-size="10.00">BSearch</text>
</a>
</g>
</g>
<!-- Node20&#45;&gt;Node73 -->
<g id="edge63" class="edge"><title>Node20&#45;&gt;Node73</title>
<path fill="none" stroke="midnightblue" d="M24.6171,-313.117C29.5246,-257.634 46.035,-102.849 80,-67 91.0859,-55.2993 108.586,-50.5493 123.314,-48.7245"/>
<polygon fill="midnightblue" stroke="midnightblue" points="21.1051,-313.109 23.7439,-323.37 28.0799,-313.703 21.1051,-313.109"/>
</g>
<!-- Node74 -->
<g id="node49" class="node"><title>Node74</title>
<g id="a_node49"><a xlink:href="$a00296.html#a0e7ce196a2f8882777957bf898739f6f" xlink:title="parse_cmdline">
<polygon fill="white" stroke="black" points="110,-0.5 110,-19.5 192,-19.5 192,-0.5 110,-0.5"/>
<text text-anchor="middle" x="151" y="-7.5" font-family="Helvetica,sans-Serif" font-size="10.00">parse_cmdline</text>
</a>
</g>
</g>
<!-- Node20&#45;&gt;Node74 -->
<g id="edge64" class="edge"><title>Node20&#45;&gt;Node74</title>
<path fill="none" stroke="midnightblue" d="M24.0347,-313.124C27.5958,-252.397 41.3296,-70.8819 80,-29 87.7736,-20.5808 98.8658,-15.7463 109.935,-13.0119"/>
<polygon fill="midnightblue" stroke="midnightblue" points="20.5301,-313.112 23.469,-323.291 27.5193,-313.501 20.5301,-313.112"/>
</g>
<!-- Node75 -->
<g id="node50" class="node"><title>Node75</title>
<g id="a_node50"><a xlink:href="$a00329.html#a929cf6af13d6bf71bc61657211472eed" xlink:title="ComputeFillIn">
<polygon fill="white" stroke="red" points="112,-342.5 112,-361.5 190,-361.5 190,-342.5 112,-342.5"/>
<text text-anchor="middle" x="151" y="-349.5" font-family="Helvetica,sans-Serif" font-size="10.00">ComputeFillIn</text>
</a>
</g>
</g>
<!-- Node20&#45;&gt;Node75 -->
<g id="edge65" class="edge"><title>Node20&#45;&gt;Node75</title>
<path fill="none" stroke="midnightblue" d="M54.4606,-337.707C71.8624,-340.31 93.6141,-343.564 111.965,-346.31"/>
<polygon fill="midnightblue" stroke="midnightblue" points="54.6648,-334.198 44.2569,-336.18 53.629,-341.121 54.6648,-334.198"/>
</g>
<!-- Node22 -->
<g id="node3" class="node"><title>Node22</title>
<g id="a_node3"><a xlink:href="$a00954.html#a52c5a0edb61660b28b0b90629a76adea" xlink:title="Match_Global">
<polygon fill="white" stroke="black" points="279,-1558.5 279,-1577.5 357,-1577.5 357,-1558.5 279,-1558.5"/>
<text text-anchor="middle" x="318" y="-1565.5" font-family="Helvetica,sans-Serif" font-size="10.00">Match_Global</text>
</a>
</g>
</g>
<!-- Node21&#45;&gt;Node22 -->
<g id="edge2" class="edge"><title>Node21&#45;&gt;Node22</title>
<path fill="none" stroke="midnightblue" d="M232.091,-1568C248.401,-1568 264.836,-1568 278.844,-1568"/>
<polygon fill="midnightblue" stroke="midnightblue" points="231.975,-1564.5 221.975,-1568 231.975,-1571.5 231.975,-1564.5"/>
</g>
<!-- Node24 -->
<g id="node5" class="node"><title>Node24</title>
<g id="a_node5"><a xlink:href="$a00867.html#a0ddf1224851353fc92bfbff6f499fa97" xlink:title="main">
<polygon fill="white" stroke="black" points="594,-1140.5 594,-1159.5 632,-1159.5 632,-1140.5 594,-1140.5"/>
<text text-anchor="middle" x="613" y="-1147.5" font-family="Helvetica,sans-Serif" font-size="10.00">main</text>
</a>
</g>
</g>
<!-- Node23&#45;&gt;Node24 -->
<g id="edge4" class="edge"><title>Node23&#45;&gt;Node24</title>
<path fill="none" stroke="midnightblue" d="M533.489,-1373.03C542.574,-1370.14 551.337,-1365.72 558,-1359 586.958,-1329.79 605.957,-1197.02 610.786,-1159.75"/>
<polygon fill="midnightblue" stroke="midnightblue" points="532.386,-1369.7 523.587,-1375.6 534.146,-1376.48 532.386,-1369.7"/>
</g>
<!-- Node25&#45;&gt;Node23 -->
<g id="edge6" class="edge"><title>Node25&#45;&gt;Node23</title>
<path fill="none" stroke="midnightblue" d="M153.339,-885.017C159.351,-968.496 186.749,-1287.56 258,-1352 310.073,-1399.1 398.654,-1393.5 448.367,-1385.56"/>
<polygon fill="midnightblue" stroke="midnightblue" points="156.817,-884.584 152.63,-874.852 149.834,-885.071 156.817,-884.584"/>
</g>
<!-- Node25&#45;&gt;Node24 -->
<g id="edge44" class="edge"><title>Node25&#45;&gt;Node24</title>
<path fill="none" stroke="midnightblue" d="M187.61,-878.142C208.126,-885.62 234.441,-895.05 258,-903 394.541,-949.075 457.666,-922.562 558,-1026 591.024,-1060.05 605.553,-1117.57 610.214,-1140.32"/>
<polygon fill="midnightblue" stroke="midnightblue" points="188.635,-874.791 178.042,-874.644 186.231,-881.365 188.635,-874.791"/>
</g>
<!-- Node26 -->
<g id="node7" class="node"><title>Node26</title>
<g id="a_node7"><a xlink:href="$a00077.html#a6eee009c30261b4b9450016267b4567c" xlink:title="gk_csr_Write">
<polygon fill="white" stroke="black" points="280.5,-456.5 280.5,-475.5 355.5,-475.5 355.5,-456.5 280.5,-456.5"/>
<text text-anchor="middle" x="318" y="-463.5" font-family="Helvetica,sans-Serif" font-size="10.00">gk_csr_Write</text>
</a>
</g>
</g>
<!-- Node25&#45;&gt;Node26 -->
<g id="edge7" class="edge"><title>Node25&#45;&gt;Node26</title>
<path fill="none" stroke="midnightblue" d="M151.408,-845.153C150.669,-783.009 157.003,-590.069 258,-485 264.041,-478.716 272.165,-474.506 280.45,-471.688"/>
<polygon fill="midnightblue" stroke="midnightblue" points="147.915,-845.553 151.616,-855.48 154.914,-845.412 147.915,-845.553"/>
</g>
<!-- Node27 -->
<g id="node8" class="node"><title>Node27</title>
<g id="a_node8"><a xlink:href="$a00077.html#a739112cb142f2e96d6952140c66cd31c" xlink:title="gk_getfilestats">
<polygon fill="white" stroke="black" points="278,-1254.5 278,-1273.5 358,-1273.5 358,-1254.5 278,-1254.5"/>
<text text-anchor="middle" x="318" y="-1261.5" font-family="Helvetica,sans-Serif" font-size="10.00">gk_getfilestats</text>
</a>
</g>
</g>
<!-- Node25&#45;&gt;Node27 -->
<g id="edge8" class="edge"><title>Node25&#45;&gt;Node27</title>
<path fill="none" stroke="midnightblue" d="M151.408,-884.847C150.669,-946.991 157.003,-1139.93 258,-1245 263.369,-1250.59 270.385,-1254.53 277.697,-1257.32"/>
<polygon fill="midnightblue" stroke="midnightblue" points="154.914,-884.588 151.616,-874.52 147.915,-884.447 154.914,-884.588"/>
</g>
<!-- Node28 -->
<g id="node9" class="node"><title>Node28</title>
<g id="a_node9"><a xlink:href="$a00858.html#ad13e689608e193482a6f30b1ade87814" xlink:title="gk_readfile">
<polygon fill="white" stroke="black" points="453.5,-1216.5 453.5,-1235.5 518.5,-1235.5 518.5,-1216.5 453.5,-1216.5"/>
<text text-anchor="middle" x="486" y="-1223.5" font-family="Helvetica,sans-Serif" font-size="10.00">gk_readfile</text>
</a>
</g>
</g>
<!-- Node25&#45;&gt;Node28 -->
<g id="edge18" class="edge"><title>Node25&#45;&gt;Node28</title>
<path fill="none" stroke="midnightblue" d="M152.744,-884.972C155.886,-939.25 172.298,-1090.64 258,-1169 272.469,-1182.23 394.143,-1207.91 453.152,-1219.75"/>
<polygon fill="midnightblue" stroke="midnightblue" points="156.224,-884.478 152.244,-874.659 149.232,-884.817 156.224,-884.478"/>
</g>
<!-- Node29 -->
<g id="node10" class="node"><title>Node29</title>
<g id="a_node10"><a xlink:href="$a00858.html#a201c46a9a2bf9c06a917f259d109b7ee" xlink:title="gk_i32readfile">
<polygon fill="white" stroke="black" points="446.5,-1121.5 446.5,-1140.5 525.5,-1140.5 525.5,-1121.5 446.5,-1121.5"/>
<text text-anchor="middle" x="486" y="-1128.5" font-family="Helvetica,sans-Serif" font-size="10.00">gk_i32readfile</text>
</a>
</g>
</g>
<!-- Node25&#45;&gt;Node29 -->
<g id="edge19" class="edge"><title>Node25&#45;&gt;Node29</title>
<path fill="none" stroke="midnightblue" d="M157.507,-884.425C169.372,-922.77 200.993,-1008.49 258,-1055 301.349,-1090.36 324.967,-1075.19 378,-1093 405.658,-1102.29 437.099,-1113.54 458.704,-1121.38"/>
<polygon fill="midnightblue" stroke="midnightblue" points="160.772,-883.125 154.566,-874.538 154.062,-885.121 160.772,-883.125"/>
</g>
<!-- Node30 -->
<g id="node11" class="node"><title>Node30</title>
<g id="a_node11"><a xlink:href="$a00858.html#a8cb19aa95a831aa745f6e04e1cc0b204" xlink:title="gk_i64readfile">
<polygon fill="white" stroke="black" points="446.5,-1035.5 446.5,-1054.5 525.5,-1054.5 525.5,-1035.5 446.5,-1035.5"/>
<text text-anchor="middle" x="486" y="-1042.5" font-family="Helvetica,sans-Serif" font-size="10.00">gk_i64readfile</text>
</a>
</g>
</g>
<!-- Node25&#45;&gt;Node30 -->
<g id="edge20" class="edge"><title>Node25&#45;&gt;Node30</title>
<path fill="none" stroke="midnightblue" d="M163.819,-882.841C181.396,-907.988 216.815,-953.616 258,-979 274.334,-989.067 387.929,-1019.64 447.977,-1035.39"/>
<polygon fill="midnightblue" stroke="midnightblue" points="166.704,-880.86 158.172,-874.578 160.925,-884.809 166.704,-880.86"/>
</g>
<!-- Node25&#45;&gt;Node31 -->
<g id="edge28" class="edge"><title>Node25&#45;&gt;Node31</title>
<path fill="none" stroke="midnightblue" d="M153.363,-884.632C159.677,-970.11 188.778,-1308.95 258,-1385 309.014,-1441.05 403.964,-1452.17 453.338,-1454"/>
<polygon fill="midnightblue" stroke="midnightblue" points="156.842,-884.224 152.635,-874.501 149.86,-884.726 156.842,-884.224"/>
</g>
<!-- Node25&#45;&gt;Node33 -->
<g id="edge45" class="edge"><title>Node25&#45;&gt;Node33</title>
<path fill="none" stroke="midnightblue" d="M153.581,-884.81C160.393,-964.765 190.025,-1262.22 258,-1321 309.454,-1365.49 394.238,-1358.77 444.338,-1349.58"/>
<polygon fill="midnightblue" stroke="midnightblue" points="157.053,-884.323 152.74,-874.646 150.077,-884.901 157.053,-884.323"/>
</g>
<!-- Node34 -->
<g id="node15" class="node"><title>Node34</title>
<g id="a_node15"><a xlink:href="$a00849.html#a432baae7f5c91c3604b42efb324b4131" xlink:title="gk_graph_Read">
<polygon fill="white" stroke="red" points="274,-1140.5 274,-1159.5 362,-1159.5 362,-1140.5 274,-1140.5"/>
<text text-anchor="middle" x="318" y="-1147.5" font-family="Helvetica,sans-Serif" font-size="10.00">gk_graph_Read</text>
</a>
</g>
</g>
<!-- Node25&#45;&gt;Node34 -->
<g id="edge16" class="edge"><title>Node25&#45;&gt;Node34</title>
<path fill="none" stroke="midnightblue" d="M154.16,-884.799C160.557,-933.788 183.857,-1061.71 258,-1131 262.56,-1135.26 268.082,-1138.57 273.897,-1141.13"/>
<polygon fill="midnightblue" stroke="midnightblue" points="157.603,-884.117 152.93,-874.609 150.654,-884.957 157.603,-884.117"/>
</g>
<!-- Node36 -->
<g id="node16" class="node"><title>Node36</title>
<g id="a_node16"><a xlink:href="$a00849.html#a92bfa3f7bc76f9fb591ad67f665383e9" xlink:title="gk_graph_Write">
<polygon fill="white" stroke="red" points="274.5,-1102.5 274.5,-1121.5 361.5,-1121.5 361.5,-1102.5 274.5,-1102.5"/>
<text text-anchor="middle" x="318" y="-1109.5" font-family="Helvetica,sans-Serif" font-size="10.00">gk_graph_Write</text>
</a>
</g>
</g>
<!-- Node25&#45;&gt;Node36 -->
<g id="edge17" class="edge"><title>Node25&#45;&gt;Node36</title>
<path fill="none" stroke="midnightblue" d="M156.17,-884.405C166.268,-926.965 195.913,-1029.38 258,-1088 264.593,-1094.23 273.016,-1098.92 281.42,-1102.44"/>
<polygon fill="midnightblue" stroke="midnightblue" points="159.549,-883.48 153.922,-874.503 152.723,-885.03 159.549,-883.48"/>
</g>
<!-- Node37 -->
<g id="node17" class="node"><title>Node37</title>
<g id="a_node17"><a xlink:href="$a00858.html#afbb9b4e2327d298a79924028441a0fdb" xlink:title="gk_i32readfilebin">
<polygon fill="white" stroke="black" points="272,-1026.5 272,-1045.5 364,-1045.5 364,-1026.5 272,-1026.5"/>
<text text-anchor="middle" x="318" y="-1033.5" font-family="Helvetica,sans-Serif" font-size="10.00">gk_i32readfilebin</text>
</a>
</g>
</g>
<!-- Node25&#45;&gt;Node37 -->
<g id="edge21" class="edge"><title>Node25&#45;&gt;Node37</title>
<path fill="none" stroke="midnightblue" d="M161.128,-883.861C176.891,-914.636 211.996,-975.837 258,-1012 265.737,-1018.08 275.226,-1022.84 284.313,-1026.45"/>
<polygon fill="midnightblue" stroke="midnightblue" points="164.137,-882.052 156.536,-874.671 157.875,-885.181 164.137,-882.052"/>
</g>
<!-- Node38 -->
<g id="node18" class="node"><title>Node38</title>
<g id="a_node18"><a xlink:href="$a00858.html#aca460764497638a612f886a089662416" xlink:title="gk_i64readfilebin">
<polygon fill="white" stroke="black" points="272,-950.5 272,-969.5 364,-969.5 364,-950.5 272,-950.5"/>
<text text-anchor="middle" x="318" y="-957.5" font-family="Helvetica,sans-Serif" font-size="10.00">gk_i64readfilebin</text>
</a>
</g>
</g>
<!-- Node25&#45;&gt;Node38 -->
<g id="edge22" class="edge"><title>Node25&#45;&gt;Node38</title>
<path fill="none" stroke="midnightblue" d="M172.628,-880.668C193.435,-896.018 226.848,-919.454 258,-936 268.254,-941.447 280.022,-946.463 290.337,-950.485"/>
<polygon fill="midnightblue" stroke="midnightblue" points="174.636,-877.799 164.526,-874.628 170.452,-883.411 174.636,-877.799"/>
</g>
<!-- Node39 -->
<g id="node19" class="node"><title>Node39</title>
<g id="a_node19"><a xlink:href="$a00858.html#a825d4634e2e656bc3dc9f3af0c9b1d5d" xlink:title="gk_freadfilebin">
<polygon fill="white" stroke="black" points="277,-874.5 277,-893.5 359,-893.5 359,-874.5 277,-874.5"/>
<text text-anchor="middle" x="318" y="-881.5" font-family="Helvetica,sans-Serif" font-size="10.00">gk_freadfilebin</text>
</a>
</g>
</g>
<!-- Node25&#45;&gt;Node39 -->
<g id="edge23" class="edge"><title>Node25&#45;&gt;Node39</title>
<path fill="none" stroke="midnightblue" d="M190.589,-869.444C216.555,-872.434 250.712,-876.367 276.973,-879.391"/>
<polygon fill="midnightblue" stroke="midnightblue" points="190.699,-865.933 180.365,-868.266 189.898,-872.887 190.699,-865.933"/>
</g>
<!-- Node40 -->
<g id="node20" class="node"><title>Node40</title>
<g id="a_node20"><a xlink:href="$a00858.html#a44ee9129d983bd435f96f9c1404f603d" xlink:title="gk_fwritefilebin">
<polygon fill="white" stroke="black" points="276.5,-836.5 276.5,-855.5 359.5,-855.5 359.5,-836.5 276.5,-836.5"/>
<text text-anchor="middle" x="318" y="-843.5" font-family="Helvetica,sans-Serif" font-size="10.00">gk_fwritefilebin</text>
</a>
</g>
</g>
<!-- Node25&#45;&gt;Node40 -->
<g id="edge24" class="edge"><title>Node25&#45;&gt;Node40</title>
<path fill="none" stroke="midnightblue" d="M190.515,-860.565C216.286,-857.597 250.149,-853.698 276.352,-850.681"/>
<polygon fill="midnightblue" stroke="midnightblue" points="189.898,-857.113 180.365,-861.734 190.699,-864.067 189.898,-857.113"/>
</g>
<!-- Node41 -->
<g id="node21" class="node"><title>Node41</title>
<g id="a_node21"><a xlink:href="$a00858.html#a2a9dbcb6a3f167b0fd20e431612e5aa9" xlink:title="gk_dreadfilebin">
<polygon fill="white" stroke="black" points="276,-798.5 276,-817.5 360,-817.5 360,-798.5 276,-798.5"/>
<text text-anchor="middle" x="318" y="-805.5" font-family="Helvetica,sans-Serif" font-size="10.00">gk_dreadfilebin</text>
</a>
</g>
</g>
<!-- Node25&#45;&gt;Node41 -->
<g id="edge25" class="edge"><title>Node25&#45;&gt;Node41</title>
<path fill="none" stroke="midnightblue" d="M187.625,-851.901C208.146,-844.438 234.46,-835.007 258,-827 267.271,-823.846 277.406,-820.534 286.619,-817.574"/>
<polygon fill="midnightblue" stroke="midnightblue" points="186.249,-848.677 178.054,-855.392 188.648,-855.254 186.249,-848.677"/>
</g>
<!-- Node25&#45;&gt;Node42 -->
<g id="edge26" class="edge"><title>Node25&#45;&gt;Node42</title>
<path fill="none" stroke="midnightblue" d="M153.651,-845.057C160.922,-761.835 192.67,-443.226 258,-371 264.713,-363.578 274.336,-359.041 283.867,-356.272"/>
<polygon fill="midnightblue" stroke="midnightblue" points="150.149,-844.926 152.786,-855.188 157.124,-845.521 150.149,-844.926"/>
</g>
<!-- Node25&#45;&gt;Node44 -->
<g id="edge29" class="edge"><title>Node25&#45;&gt;Node44</title>
<path fill="none" stroke="midnightblue" d="M154.454,-845.325C164.123,-770.771 201.83,-506.837 258,-447 264.113,-440.488 272.464,-436.201 280.959,-433.382"/>
<polygon fill="midnightblue" stroke="midnightblue" points="150.981,-844.894 153.188,-855.257 157.925,-845.78 150.981,-844.894"/>
</g>
<!-- Node25&#45;&gt;Node46 -->
<g id="edge31" class="edge"><title>Node25&#45;&gt;Node46</title>
<path fill="none" stroke="midnightblue" d="M154.032,-845.09C162.486,-765.98 197.285,-474.986 258,-409 262.882,-403.694 269.25,-399.864 275.991,-397.101"/>
<polygon fill="midnightblue" stroke="midnightblue" points="150.537,-844.862 152.976,-855.172 157.499,-845.591 150.537,-844.862"/>
</g>
<!-- Node47 -->
<g id="node27" class="node"><title>Node47</title>
<g id="a_node27"><a xlink:href="$a00951.html#ad05062397a736c5602a72c2419deffbf" xlink:title="WritePartition">
<polygon fill="white" stroke="black" points="279.5,-494.5 279.5,-513.5 356.5,-513.5 356.5,-494.5 279.5,-494.5"/>
<text text-anchor="middle" x="318" y="-501.5" font-family="Helvetica,sans-Serif" font-size="10.00">WritePartition</text>
</a>
</g>
</g>
<!-- Node25&#45;&gt;Node47 -->
<g id="edge33" class="edge"><title>Node25&#45;&gt;Node47</title>
<path fill="none" stroke="midnightblue" d="M152.136,-845.22C153.626,-787.252 165.999,-616.018 258,-523 263.827,-517.109 271.486,-513.043 279.348,-510.236"/>
<polygon fill="midnightblue" stroke="midnightblue" points="148.636,-845.188 151.962,-855.247 155.635,-845.309 148.636,-845.188"/>
</g>
<!-- Node48 -->
<g id="node28" class="node"><title>Node48</title>
<g id="a_node28"><a xlink:href="$a00951.html#ac8ce682e47fbcfad378ee4100ab091ca" xlink:title="WriteMeshPartition">
<polygon fill="white" stroke="red" points="267.5,-760.5 267.5,-779.5 368.5,-779.5 368.5,-760.5 267.5,-760.5"/>
<text text-anchor="middle" x="318" y="-767.5" font-family="Helvetica,sans-Serif" font-size="10.00">WriteMeshPartition</text>
</a>
</g>
</g>
<!-- Node25&#45;&gt;Node48 -->
<g id="edge35" class="edge"><title>Node25&#45;&gt;Node48</title>
<path fill="none" stroke="midnightblue" d="M170.847,-848.696C191.182,-831.799 225.089,-805.585 258,-789 265.303,-785.32 273.47,-782.15 281.345,-779.512"/>
<polygon fill="midnightblue" stroke="midnightblue" points="168.392,-846.188 163.005,-855.312 172.906,-851.539 168.392,-846.188"/>
</g>
<!-- Node50 -->
<g id="node29" class="node"><title>Node50</title>
<g id="a_node29"><a xlink:href="$a00951.html#a1c37c9f8d06b4dea85ac0ab2abe762eb" xlink:title="WritePermutation">
<polygon fill="white" stroke="red" points="271,-722.5 271,-741.5 365,-741.5 365,-722.5 271,-722.5"/>
<text text-anchor="middle" x="318" y="-729.5" font-family="Helvetica,sans-Serif" font-size="10.00">WritePermutation</text>
</a>
</g>
</g>
<!-- Node25&#45;&gt;Node50 -->
<g id="edge36" class="edge"><title>Node25&#45;&gt;Node50</title>
<path fill="none" stroke="midnightblue" d="M164.184,-846.944C181.971,-821.914 217.385,-776.841 258,-751 263.992,-747.187 270.816,-744.078 277.645,-741.562"/>
<polygon fill="midnightblue" stroke="midnightblue" points="161.288,-844.979 158.451,-855.187 167.034,-848.975 161.288,-844.979"/>
</g>
<!-- Node52 -->
<g id="node30" class="node"><title>Node52</title>
<g id="a_node30"><a xlink:href="$a00951.html#a91b3b24f2b508da8f2e2df7bc2c94cc6" xlink:title="WriteGraph">
<polygon fill="white" stroke="red" points="284,-684.5 284,-703.5 352,-703.5 352,-684.5 284,-684.5"/>
<text text-anchor="middle" x="318" y="-691.5" font-family="Helvetica,sans-Serif" font-size="10.00">WriteGraph</text>
</a>
</g>
</g>
<!-- Node25&#45;&gt;Node52 -->
<g id="edge37" class="edge"><title>Node25&#45;&gt;Node52</title>
<path fill="none" stroke="midnightblue" d="M160.244,-845.975C175.112,-813.862 209.448,-748.9 258,-713 265.614,-707.37 274.965,-703.365 283.96,-700.534"/>
<polygon fill="midnightblue" stroke="midnightblue" points="157.019,-844.613 156.107,-855.169 163.402,-847.485 157.019,-844.613"/>
</g>
<!-- Node54 -->
<g id="node31" class="node"><title>Node54</title>
<g id="a_node31"><a xlink:href="$a00125.html#a297ec0561d579a1772f424fce8886d96" xlink:title="Reads a pdb file into a pdbf structure. ">
<polygon fill="white" stroke="black" points="277,-646.5 277,-665.5 359,-665.5 359,-646.5 277,-646.5"/>
<text text-anchor="middle" x="318" y="-653.5" font-family="Helvetica,sans-Serif" font-size="10.00">gk_readpdbfile</text>
</a>
</g>
</g>
<!-- Node25&#45;&gt;Node54 -->
<g id="edge38" class="edge"><title>Node25&#45;&gt;Node54</title>
<path fill="none" stroke="midnightblue" d="M157.526,-845.599C169.426,-807.296 201.106,-721.644 258,-675 263.492,-670.497 270.074,-667.053 276.819,-664.421"/>
<polygon fill="midnightblue" stroke="midnightblue" points="154.085,-844.891 154.576,-855.474 160.792,-846.895 154.085,-844.891"/>
</g>
<!-- Node55 -->
<g id="node32" class="node"><title>Node55</title>
<g id="a_node32"><a xlink:href="$a00125.html#a39b1b4f30c03454894d5218edd8296e0" xlink:title="Writes the sequence of residues from a pdb file. ">
<polygon fill="white" stroke="black" points="262,-608.5 262,-627.5 374,-627.5 374,-608.5 262,-608.5"/>
<text text-anchor="middle" x="318" y="-615.5" font-family="Helvetica,sans-Serif" font-size="10.00">gk_writefastafrompdb</text>
</a>
</g>
</g>
<!-- Node25&#45;&gt;Node55 -->
<g id="edge39" class="edge"><title>Node25&#45;&gt;Node55</title>
<path fill="none" stroke="midnightblue" d="M155.656,-845.092C164.783,-801.046 192.694,-694.693 258,-637 262.355,-633.153 267.498,-630.083 272.903,-627.634"/>
<polygon fill="midnightblue" stroke="midnightblue" points="152.183,-844.617 153.688,-855.104 159.051,-845.967 152.183,-844.617"/>
</g>
<!-- Node56 -->
<g id="node33" class="node"><title>Node56</title>
<g id="a_node33"><a xlink:href="$a00125.html#a6be4d6cf94a1dace5677865e8958b7b3" xlink:title="Writes all centers of mass in pdb&#45;format to file fname. ">
<polygon fill="white" stroke="black" points="258.5,-570.5 258.5,-589.5 377.5,-589.5 377.5,-570.5 258.5,-570.5"/>
<text text-anchor="middle" x="318" y="-577.5" font-family="Helvetica,sans-Serif" font-size="10.00">gk_writecentersofmass</text>
</a>
</g>
</g>
<!-- Node25&#45;&gt;Node56 -->
<g id="edge40" class="edge"><title>Node25&#45;&gt;Node56</title>
<path fill="none" stroke="midnightblue" d="M154.16,-845.201C160.557,-796.212 183.857,-668.289 258,-599 262.167,-595.106 267.137,-592.01 272.4,-589.548"/>
<polygon fill="midnightblue" stroke="midnightblue" points="150.654,-845.043 152.93,-855.391 157.603,-845.883 150.654,-845.043"/>
</g>
<!-- Node57 -->
<g id="node34" class="node"><title>Node57</title>
<g id="a_node34"><a xlink:href="$a00125.html#a786192984ea62e6824ae9a2d1b902574" xlink:title="Writes all atoms in p in pdb&#45;format to file fname. ">
<polygon fill="white" stroke="black" points="273.5,-532.5 273.5,-551.5 362.5,-551.5 362.5,-532.5 273.5,-532.5"/>
<text text-anchor="middle" x="318" y="-539.5" font-family="Helvetica,sans-Serif" font-size="10.00">gk_writefullatom</text>
</a>
</g>
</g>
<!-- Node25&#45;&gt;Node57 -->
<g id="edge41" class="edge"><title>Node25&#45;&gt;Node57</title>
<path fill="none" stroke="midnightblue" d="M153.022,-845.323C156.871,-791.792 174.911,-642.122 258,-561 262.389,-556.715 267.748,-553.396 273.429,-550.826"/>
<polygon fill="midnightblue" stroke="midnightblue" points="149.517,-845.289 152.384,-855.489 156.504,-845.727 149.517,-845.289"/>
</g>
<!-- Node58 -->
<g id="node35" class="node"><title>Node58</title>
<g id="a_node35"><a xlink:href="$a00125.html#a04817c574e29493f0363ef81b41f82df" xlink:title="Writes out all the backbone atoms of a structure in pdb format. ">
<polygon fill="white" stroke="black" points="269.5,-1292.5 269.5,-1311.5 366.5,-1311.5 366.5,-1292.5 269.5,-1292.5"/>
<text text-anchor="middle" x="318" y="-1299.5" font-family="Helvetica,sans-Serif" font-size="10.00">gk_writebackbone</text>
</a>
</g>
</g>
<!-- Node25&#45;&gt;Node58 -->
<g id="edge42" class="edge"><title>Node25&#45;&gt;Node58</title>
<path fill="none" stroke="midnightblue" d="M154.454,-884.675C164.123,-959.229 201.83,-1223.16 258,-1283 261.609,-1286.84 265.998,-1289.91 270.736,-1292.36"/>
<polygon fill="midnightblue" stroke="midnightblue" points="157.925,-884.22 153.188,-874.743 150.981,-885.106 157.925,-884.22"/>
</g>
<!-- Node59 -->
<g id="node36" class="node"><title>Node59</title>
<g id="a_node36"><a xlink:href="$a00125.html#ad0eef52d1d7e2da669accced22e821a4" xlink:title="Writes out all the alpha carbon atoms of a structure. ">
<polygon fill="white" stroke="black" points="261,-1216.5 261,-1235.5 375,-1235.5 375,-1216.5 261,-1216.5"/>
<text text-anchor="middle" x="318" y="-1223.5" font-family="Helvetica,sans-Serif" font-size="10.00">gk_writealphacarbons</text>
</a>
</g>
</g>
<!-- Node25&#45;&gt;Node59 -->
<g id="edge43" class="edge"><title>Node25&#45;&gt;Node59</title>
<path fill="none" stroke="midnightblue" d="M152.6,-884.914C155.368,-941.883 170.897,-1107.48 258,-1202 263.77,-1208.26 271.407,-1212.93 279.265,-1216.39"/>
<polygon fill="midnightblue" stroke="midnightblue" points="156.09,-884.596 152.19,-874.745 149.096,-884.878 156.09,-884.596"/>
</g>
<!-- Node27&#45;&gt;Node23 -->
<g id="edge9" class="edge"><title>Node27&#45;&gt;Node23</title>
<path fill="none" stroke="midnightblue" d="M367.399,-1275.79C371.213,-1277.82 374.814,-1280.21 378,-1283 406.1,-1307.64 385.292,-1335.07 414,-1359 423.605,-1367.01 436.261,-1371.67 448.224,-1374.37"/>
<polygon fill="midnightblue" stroke="midnightblue" points="368.765,-1272.56 358.21,-1271.65 365.89,-1278.95 368.765,-1272.56"/>
</g>
<!-- Node27&#45;&gt;Node28 -->
<g id="edge10" class="edge"><title>Node27&#45;&gt;Node28</title>
<path fill="none" stroke="midnightblue" d="M368.201,-1252.74C395.783,-1246.42 429.371,-1238.73 453.436,-1233.23"/>
<polygon fill="midnightblue" stroke="midnightblue" points="367.307,-1249.35 358.34,-1254.99 368.869,-1256.17 367.307,-1249.35"/>
</g>
<!-- Node27&#45;&gt;Node29 -->
<g id="edge11" class="edge"><title>Node27&#45;&gt;Node29</title>
<path fill="none" stroke="midnightblue" d="M367.382,-1250.7C371.082,-1249 374.668,-1247.11 378,-1245 379.505,-1244.05 450.543,-1167.95 476.023,-1140.63"/>
<polygon fill="midnightblue" stroke="midnightblue" points="365.959,-1247.5 358.03,-1254.53 368.61,-1253.98 365.959,-1247.5"/>
</g>
<!-- Node27&#45;&gt;Node30 -->
<g id="edge12" class="edge"><title>Node27&#45;&gt;Node30</title>
<path fill="none" stroke="midnightblue" d="M367.159,-1253.25C371.161,-1251.01 374.865,-1248.29 378,-1245 420.268,-1200.69 382.549,-1164.54 414,-1112 428.623,-1087.57 454.631,-1066.35 470.783,-1054.65"/>
<polygon fill="midnightblue" stroke="midnightblue" points="365.644,-1250.1 358.031,-1257.47 368.578,-1256.46 365.644,-1250.1"/>
</g>
<!-- Node27&#45;&gt;Node31 -->
<g id="edge13" class="edge"><title>Node27&#45;&gt;Node31</title>
<path fill="none" stroke="midnightblue" d="M367.504,-1275.15C371.35,-1277.32 374.927,-1279.91 378,-1283 415.464,-1320.68 383.994,-1353.15 414,-1397 428.104,-1417.61 451.844,-1434.49 467.953,-1444.4"/>
<polygon fill="midnightblue" stroke="midnightblue" points="368.702,-1271.85 358.157,-1270.82 365.759,-1278.2 368.702,-1271.85"/>
</g>
<!-- Node27&#45;&gt;Node33 -->
<g id="edge15" class="edge"><title>Node27&#45;&gt;Node33</title>
<path fill="none" stroke="midnightblue" d="M361.909,-1276.82C367.38,-1278.75 372.859,-1280.82 378,-1283 411.531,-1297.2 448.608,-1318.24 469.125,-1330.39"/>
<polygon fill="midnightblue" stroke="midnightblue" points="362.741,-1273.41 352.147,-1273.53 360.505,-1280.04 362.741,-1273.41"/>
</g>
<!-- Node32 -->
<g id="node13" class="node"><title>Node32</title>
<g id="a_node13"><a xlink:href="$a00317.html#a0ddf1224851353fc92bfbff6f499fa97" xlink:title="main">
<polygon fill="white" stroke="black" points="594,-1444.5 594,-1463.5 632,-1463.5 632,-1444.5 594,-1444.5"/>
<text text-anchor="middle" x="613" y="-1451.5" font-family="Helvetica,sans-Serif" font-size="10.00">main</text>
</a>
</g>
</g>
<!-- Node31&#45;&gt;Node32 -->
<g id="edge14" class="edge"><title>Node31&#45;&gt;Node32</title>
<path fill="none" stroke="midnightblue" d="M528.668,-1454C550.705,-1454 576.643,-1454 593.657,-1454"/>
<polygon fill="midnightblue" stroke="midnightblue" points="528.543,-1450.5 518.543,-1454 528.543,-1457.5 528.543,-1450.5"/>
</g>
<!-- Node43 -->
<g id="node23" class="node"><title>Node43</title>
<g id="a_node23"><a xlink:href="$a00308.html#a0ddf1224851353fc92bfbff6f499fa97" xlink:title="main">
<polygon fill="white" stroke="black" points="467,-342.5 467,-361.5 505,-361.5 505,-342.5 467,-342.5"/>
<text text-anchor="middle" x="486" y="-349.5" font-family="Helvetica,sans-Serif" font-size="10.00">main</text>
</a>
</g>
</g>
<!-- Node42&#45;&gt;Node43 -->
<g id="edge27" class="edge"><title>Node42&#45;&gt;Node43</title>
<path fill="none" stroke="midnightblue" d="M362.323,-352C396.275,-352 441.81,-352 466.758,-352"/>
<polygon fill="midnightblue" stroke="midnightblue" points="362.194,-348.5 352.194,-352 362.194,-355.5 362.194,-348.5"/>
</g>
<!-- Node45 -->
<g id="node25" class="node"><title>Node45</title>
<g id="a_node25"><a xlink:href="$a00311.html#a0ddf1224851353fc92bfbff6f499fa97" xlink:title="main">
<polygon fill="white" stroke="black" points="467,-456.5 467,-475.5 505,-475.5 505,-456.5 467,-456.5"/>
<text text-anchor="middle" x="486" y="-463.5" font-family="Helvetica,sans-Serif" font-size="10.00">main</text>
</a>
</g>
</g>
<!-- Node44&#45;&gt;Node45 -->
<g id="edge30" class="edge"><title>Node44&#45;&gt;Node45</title>
<path fill="none" stroke="midnightblue" d="M365.121,-438.558C398.831,-446.275 442.728,-456.323 466.956,-461.869"/>
<polygon fill="midnightblue" stroke="midnightblue" points="365.548,-435.065 355.02,-436.245 363.986,-441.889 365.548,-435.065"/>
</g>
<!-- Node46&#45;&gt;Node43 -->
<g id="edge32" class="edge"><title>Node46&#45;&gt;Node43</title>
<path fill="none" stroke="midnightblue" d="M369.958,-378.335C402.849,-370.806 443.669,-361.461 466.785,-356.17"/>
<polygon fill="midnightblue" stroke="midnightblue" points="369.001,-374.963 360.034,-380.607 370.563,-381.787 369.001,-374.963"/>
</g>
<!-- Node47&#45;&gt;Node45 -->
<g id="edge34" class="edge"><title>Node47&#45;&gt;Node45</title>
<path fill="none" stroke="midnightblue" d="M366.718,-493.077C400.175,-485.418 443.029,-475.608 466.889,-470.146"/>
<polygon fill="midnightblue" stroke="midnightblue" points="365.635,-489.734 356.668,-495.377 367.197,-496.557 365.635,-489.734"/>
</g>
<!-- Node62 -->
<g id="node39" class="node"><title>Node62</title>
<g id="a_node39"><a xlink:href="$a00945.html#a0ddf1224851353fc92bfbff6f499fa97" xlink:title="main">
<polygon fill="white" stroke="black" points="299,-266.5 299,-285.5 337,-285.5 337,-266.5 299,-266.5"/>
<text text-anchor="middle" x="318" y="-273.5" font-family="Helvetica,sans-Serif" font-size="10.00">main</text>
</a>
</g>
</g>
<!-- Node61&#45;&gt;Node62 -->
<g id="edge52" class="edge"><title>Node61&#45;&gt;Node62</title>
<path fill="none" stroke="midnightblue" d="M203.437,-249.846C235.881,-257.318 275.83,-266.518 298.662,-271.777"/>
<polygon fill="midnightblue" stroke="midnightblue" points="204.167,-246.423 193.636,-247.589 202.596,-253.244 204.167,-246.423"/>
</g>
<!-- Node63 -->
<g id="node40" class="node"><title>Node63</title>
<g id="a_node40"><a xlink:href="$a00428.html#ac0ca0065f1dc35b0f4fe4d1968313dca" xlink:title="TestParMetis">
<polygon fill="white" stroke="black" points="280.5,-228.5 280.5,-247.5 355.5,-247.5 355.5,-228.5 280.5,-228.5"/>
<text text-anchor="middle" x="318" y="-235.5" font-family="Helvetica,sans-Serif" font-size="10.00">TestParMetis</text>
</a>
</g>
</g>
<!-- Node61&#45;&gt;Node63 -->
<g id="edge53" class="edge"><title>Node61&#45;&gt;Node63</title>
<path fill="none" stroke="midnightblue" d="M218.492,-238C239.495,-238 261.937,-238 280.088,-238"/>
<polygon fill="midnightblue" stroke="midnightblue" points="218.322,-234.5 208.322,-238 218.322,-241.5 218.322,-234.5"/>
</g>
<!-- Node64 -->
<g id="node41" class="node"><title>Node64</title>
<g id="a_node41"><a xlink:href="$a00437.html#adb0c2dc0c5138f35c71739328c702074" xlink:title="TestParMetis_GPart">
<polygon fill="white" stroke="red" points="264.5,-190.5 264.5,-209.5 371.5,-209.5 371.5,-190.5 264.5,-190.5"/>
<text text-anchor="middle" x="318" y="-197.5" font-family="Helvetica,sans-Serif" font-size="10.00">TestParMetis_GPart</text>
</a>
</g>
</g>
<!-- Node61&#45;&gt;Node64 -->
<g id="edge54" class="edge"><title>Node61&#45;&gt;Node64</title>
<path fill="none" stroke="midnightblue" d="M203.654,-226.104C226.846,-220.763 253.838,-214.546 275.663,-209.52"/>
<polygon fill="midnightblue" stroke="midnightblue" points="202.596,-222.756 193.636,-228.411 204.167,-229.577 202.596,-222.756"/>
</g>
<!-- Node66&#45;&gt;Node62 -->
<g id="edge56" class="edge"><title>Node66&#45;&gt;Node62</title>
<path fill="none" stroke="midnightblue" d="M199.037,-276C232.262,-276 274.963,-276 298.811,-276"/>
<polygon fill="midnightblue" stroke="midnightblue" points="198.619,-272.5 188.619,-276 198.619,-279.5 198.619,-272.5"/>
</g>
<!-- Node68 -->
<g id="node44" class="node"><title>Node68</title>
<g id="a_node44"><a xlink:href="$a00434.html#a0ddf1224851353fc92bfbff6f499fa97" xlink:title="main">
<polygon fill="white" stroke="black" points="299,-152.5 299,-171.5 337,-171.5 337,-152.5 299,-152.5"/>
<text text-anchor="middle" x="318" y="-159.5" font-family="Helvetica,sans-Serif" font-size="10.00">main</text>
</a>
</g>
</g>
<!-- Node67&#45;&gt;Node68 -->
<g id="edge58" class="edge"><title>Node67&#45;&gt;Node68</title>
<path fill="none" stroke="midnightblue" d="M199.787,-188.995C232.829,-181.385 274.958,-171.682 298.656,-166.225"/>
<polygon fill="midnightblue" stroke="midnightblue" points="198.814,-185.627 189.854,-191.282 200.385,-192.448 198.814,-185.627"/>
</g>
<!-- Node75&#45;&gt;Node43 -->
<g id="edge66" class="edge"><title>Node75&#45;&gt;Node43</title>
<path fill="none" stroke="midnightblue" d="M200.061,-341.525C218.132,-338.079 238.919,-334.697 258,-333 311.124,-328.277 324.872,-328.32 378,-333 409.574,-335.782 445.788,-343.095 466.955,-347.794"/>
<polygon fill="midnightblue" stroke="midnightblue" points="199.187,-338.13 190.049,-343.493 200.537,-344.999 199.187,-338.13"/>
</g>
</g>
</svg>
