<?xml version="1.0" encoding="UTF-8" standalone="no"?>
<!DOCTYPE svg PUBLIC "-//W3C//DTD SVG 1.1//EN"
 "http://www.w3.org/Graphics/SVG/1.1/DTD/svg11.dtd">
<!-- Generated by graphviz version 2.36.0 (20140111.2315)
 -->
<!-- Title: gk_fsortd Pages: 1 -->
<svg width="234pt" height="28pt"
 viewBox="0.00 0.00 234.00 28.00" xmlns="http://www.w3.org/2000/svg" xmlns:xlink="http://www.w3.org/1999/xlink">
<g id="graph0" class="graph" transform="scale(1 1) rotate(0) translate(4 24)">
<title>gk_fsortd</title>
<polygon fill="white" stroke="none" points="-4,4 -4,-24 230,-24 230,4 -4,4"/>
<!-- Node778 -->
<g id="node1" class="node"><title>Node778</title>
<polygon fill="#bfbfbf" stroke="black" points="0,-0.5 0,-19.5 58,-19.5 58,-0.5 0,-0.5"/>
<text text-anchor="middle" x="29" y="-7.5" font-family="Helvetica,sans-Serif" font-size="10.00">gk_fsortd</text>
</g>
<!-- Node779 -->
<g id="node2" class="node"><title>Node779</title>
<g id="a_node2"><a xlink:href="$a00152.html#a92bfe9a7c6bec5eab568c71eda7eb1f1" xlink:title="test_fsort">
<polygon fill="white" stroke="black" points="94,-0.5 94,-19.5 152,-19.5 152,-0.5 94,-0.5"/>
<text text-anchor="middle" x="123" y="-7.5" font-family="Helvetica,sans-Serif" font-size="10.00">test_fsort</text>
</a>
</g>
</g>
<!-- Node778&#45;&gt;Node779 -->
<g id="edge1" class="edge"><title>Node778&#45;&gt;Node779</title>
<path fill="none" stroke="midnightblue" d="M68.2557,-10C76.7957,-10 85.7023,-10 93.7521,-10"/>
<polygon fill="midnightblue" stroke="midnightblue" points="68.103,-6.5001 58.1029,-10 68.1029,-13.5001 68.103,-6.5001"/>
</g>
<!-- Node780 -->
<g id="node3" class="node"><title>Node780</title>
<g id="a_node3"><a xlink:href="$a00152.html#ae66f6b31b5ad750f1fe042a706a4e3d4" xlink:title="main">
<polygon fill="white" stroke="black" points="188,-0.5 188,-19.5 226,-19.5 226,-0.5 188,-0.5"/>
<text text-anchor="middle" x="207" y="-7.5" font-family="Helvetica,sans-Serif" font-size="10.00">main</text>
</a>
</g>
</g>
<!-- Node779&#45;&gt;Node780 -->
<g id="edge2" class="edge"><title>Node779&#45;&gt;Node780</title>
<path fill="none" stroke="midnightblue" d="M162.338,-10C171.103,-10 180.032,-10 187.511,-10"/>
<polygon fill="midnightblue" stroke="midnightblue" points="162.22,-6.5001 152.22,-10 162.22,-13.5001 162.22,-6.5001"/>
</g>
</g>
</svg>
