<?xml version="1.0" encoding="UTF-8" standalone="no"?>
<!DOCTYPE svg PUBLIC "-//W3C//DTD SVG 1.1//EN"
 "http://www.w3.org/Graphics/SVG/1.1/DTD/svg11.dtd">
<!-- Generated by graphviz version 2.36.0 (20140111.2315)
 -->
<!-- Title: ArcSyn3sis/3rdParty/parmetis&#45;4.0.3/metis/GKlib/gk_arch.h Pages: 1 -->
<svg width="399pt" height="106pt"
 viewBox="0.00 0.00 399.00 106.00" xmlns="http://www.w3.org/2000/svg" xmlns:xlink="http://www.w3.org/1999/xlink">
<g id="graph0" class="graph" transform="scale(1 1) rotate(0) translate(4 102)">
<title>ArcSyn3sis/3rdParty/parmetis&#45;4.0.3/metis/GKlib/gk_arch.h</title>
<polygon fill="white" stroke="none" points="-4,4 -4,-102 395,-102 395,4 -4,4"/>
<!-- Node0 -->
<g id="node1" class="node"><title>Node0</title>
<polygon fill="#bfbfbf" stroke="black" points="122,-56.5 122,-97.5 232,-97.5 232,-56.5 122,-56.5"/>
<text text-anchor="start" x="130" y="-85.5" font-family="Helvetica,sans-Serif" font-size="10.00">ArcSyn3sis/3rdParty</text>
<text text-anchor="start" x="130" y="-74.5" font-family="Helvetica,sans-Serif" font-size="10.00">/parmetis&#45;4.0.3/metis</text>
<text text-anchor="middle" x="177" y="-63.5" font-family="Helvetica,sans-Serif" font-size="10.00">/GKlib/gk_arch.h</text>
</g>
<!-- Node1 -->
<g id="node2" class="node"><title>Node1</title>
<polygon fill="white" stroke="#bfbfbf" points="-0.5,-0.5 -0.5,-19.5 48.5,-19.5 48.5,-0.5 -0.5,-0.5"/>
<text text-anchor="middle" x="24" y="-7.5" font-family="Helvetica,sans-Serif" font-size="10.00">stdint.h</text>
</g>
<!-- Node0&#45;&gt;Node1 -->
<g id="edge1" class="edge"><title>Node0&#45;&gt;Node1</title>
<path fill="none" stroke="midnightblue" d="M131.095,-56.4979C106.058,-45.8614 75.7871,-33.001 53.8243,-23.6705"/>
<polygon fill="midnightblue" stroke="midnightblue" points="54.9391,-20.3413 44.3666,-19.6525 52.2019,-26.784 54.9391,-20.3413"/>
</g>
<!-- Node2 -->
<g id="node3" class="node"><title>Node2</title>
<polygon fill="white" stroke="#bfbfbf" points="66.5,-0.5 66.5,-19.5 125.5,-19.5 125.5,-0.5 66.5,-0.5"/>
<text text-anchor="middle" x="96" y="-7.5" font-family="Helvetica,sans-Serif" font-size="10.00">inttypes.h</text>
</g>
<!-- Node0&#45;&gt;Node2 -->
<g id="edge2" class="edge"><title>Node0&#45;&gt;Node2</title>
<path fill="none" stroke="midnightblue" d="M152.697,-56.4979C140.517,-46.7238 125.997,-35.0719 114.701,-26.0066"/>
<polygon fill="midnightblue" stroke="midnightblue" points="116.772,-23.1815 106.782,-19.6525 112.391,-28.641 116.772,-23.1815"/>
</g>
<!-- Node3 -->
<g id="node4" class="node"><title>Node3</title>
<polygon fill="white" stroke="#bfbfbf" points="143.5,-0.5 143.5,-19.5 210.5,-19.5 210.5,-0.5 143.5,-0.5"/>
<text text-anchor="middle" x="177" y="-7.5" font-family="Helvetica,sans-Serif" font-size="10.00">sys/types.h</text>
</g>
<!-- Node0&#45;&gt;Node3 -->
<g id="edge3" class="edge"><title>Node0&#45;&gt;Node3</title>
<path fill="none" stroke="midnightblue" d="M177,-56.4979C177,-48.0653 177,-38.2351 177,-29.874"/>
<polygon fill="midnightblue" stroke="midnightblue" points="180.5,-29.6525 177,-19.6525 173.5,-29.6525 180.5,-29.6525"/>
</g>
<!-- Node4 -->
<g id="node5" class="node"><title>Node4</title>
<polygon fill="white" stroke="#bfbfbf" points="229,-0.5 229,-19.5 311,-19.5 311,-0.5 229,-0.5"/>
<text text-anchor="middle" x="270" y="-7.5" font-family="Helvetica,sans-Serif" font-size="10.00">sys/resource.h</text>
</g>
<!-- Node0&#45;&gt;Node4 -->
<g id="edge4" class="edge"><title>Node0&#45;&gt;Node4</title>
<path fill="none" stroke="midnightblue" d="M204.903,-56.4979C219.162,-46.5321 236.213,-34.6142 249.288,-25.4764"/>
<polygon fill="midnightblue" stroke="midnightblue" points="251.429,-28.25 257.62,-19.6525 247.419,-22.5125 251.429,-28.25"/>
</g>
<!-- Node5 -->
<g id="node6" class="node"><title>Node5</title>
<polygon fill="white" stroke="#bfbfbf" points="329,-0.5 329,-19.5 391,-19.5 391,-0.5 329,-0.5"/>
<text text-anchor="middle" x="360" y="-7.5" font-family="Helvetica,sans-Serif" font-size="10.00">sys/time.h</text>
</g>
<!-- Node0&#45;&gt;Node5 -->
<g id="edge5" class="edge"><title>Node0&#45;&gt;Node5</title>
<path fill="none" stroke="midnightblue" d="M231.906,-56.4979C262.526,-45.6218 299.693,-32.4206 326.087,-23.0455"/>
<polygon fill="midnightblue" stroke="midnightblue" points="327.388,-26.2977 335.64,-19.6525 325.045,-19.7015 327.388,-26.2977"/>
</g>
</g>
</svg>
