<?xml version="1.0" encoding="UTF-8" standalone="no"?>
<!DOCTYPE svg PUBLIC "-//W3C//DTD SVG 1.1//EN"
 "http://www.w3.org/Graphics/SVG/1.1/DTD/svg11.dtd">
<!-- Generated by graphviz version 2.36.0 (20140111.2315)
 -->
<!-- Title: gk_mcoreCreate Pages: 1 -->
<svg width="438pt" height="125pt"
 viewBox="0.00 0.00 438.00 124.90" xmlns="http://www.w3.org/2000/svg" xmlns:xlink="http://www.w3.org/1999/xlink">
<g id="graph0" class="graph" transform="scale(1 1) rotate(0) translate(4 120.901)">
<title>gk_mcoreCreate</title>
<polygon fill="white" stroke="none" points="-4,4 -4,-120.901 434,-120.901 434,4 -4,4"/>
<!-- Node1466 -->
<g id="node1" class="node"><title>Node1466</title>
<polygon fill="#bfbfbf" stroke="black" points="0,-57.5 0,-76.5 90,-76.5 90,-57.5 0,-57.5"/>
<text text-anchor="middle" x="45" y="-64.5" font-family="Helvetica,sans-Serif" font-size="10.00">gk_mcoreCreate</text>
</g>
<!-- Node1467 -->
<g id="node2" class="node"><title>Node1467</title>
<g id="a_node2"><a xlink:href="$a00077.html#aba6f76f5c67b9b7e9c2e45988d3d3e9d" xlink:title="gk_malloc">
<polygon fill="white" stroke="black" points="126,-57.5 126,-76.5 188,-76.5 188,-57.5 126,-57.5"/>
<text text-anchor="middle" x="157" y="-64.5" font-family="Helvetica,sans-Serif" font-size="10.00">gk_malloc</text>
</a>
</g>
</g>
<!-- Node1466&#45;&gt;Node1467 -->
<g id="edge1" class="edge"><title>Node1466&#45;&gt;Node1467</title>
<path fill="none" stroke="midnightblue" d="M90.1074,-67C98.5127,-67 107.272,-67 115.556,-67"/>
<polygon fill="midnightblue" stroke="midnightblue" points="115.733,-70.5001 125.733,-67 115.733,-63.5001 115.733,-70.5001"/>
</g>
<!-- Node1468 -->
<g id="node3" class="node"><title>Node1468</title>
<g id="a_node3"><a xlink:href="$a01017.html#a2e311a777ffe9c80e405efa7cd2757be" xlink:title="fprintf">
<polygon fill="white" stroke="black" points="388,-57.5 388,-76.5 430,-76.5 430,-57.5 388,-57.5"/>
<text text-anchor="middle" x="409" y="-64.5" font-family="Helvetica,sans-Serif" font-size="10.00">fprintf</text>
</a>
</g>
</g>
<!-- Node1467&#45;&gt;Node1468 -->
<g id="edge2" class="edge"><title>Node1467&#45;&gt;Node1468</title>
<path fill="none" stroke="midnightblue" d="M170.261,-76.7187C182.891,-86.0589 203.563,-99.5369 224,-105 278.959,-119.691 297.62,-121.709 352,-105 366.039,-100.686 379.719,-91.5255 390.044,-83.2793"/>
<polygon fill="midnightblue" stroke="midnightblue" points="392.469,-85.8134 397.862,-76.6941 387.959,-80.4595 392.469,-85.8134"/>
</g>
<!-- Node1469 -->
<g id="node4" class="node"><title>Node1469</title>
<g id="a_node4"><a xlink:href="$a00110.html#ad2327b94227019b6753b6b09400c0522" xlink:title="gk_GetCurMemoryUsed">
<polygon fill="white" stroke="black" points="226,-76.5 226,-95.5 350,-95.5 350,-76.5 226,-76.5"/>
<text text-anchor="middle" x="288" y="-83.5" font-family="Helvetica,sans-Serif" font-size="10.00">gk_GetCurMemoryUsed</text>
</a>
</g>
</g>
<!-- Node1467&#45;&gt;Node1469 -->
<g id="edge3" class="edge"><title>Node1467&#45;&gt;Node1469</title>
<path fill="none" stroke="midnightblue" d="M188.245,-71.4547C196.646,-72.692 206.139,-74.0903 215.836,-75.5184"/>
<polygon fill="midnightblue" stroke="midnightblue" points="215.573,-79.0175 225.977,-77.0121 216.593,-72.0922 215.573,-79.0175"/>
</g>
<!-- Node1470 -->
<g id="node5" class="node"><title>Node1470</title>
<g id="a_node5"><a xlink:href="$a00110.html#a656fd5266ae12a96e53125486f8fea52" xlink:title="gk_GetMaxMemoryUsed">
<polygon fill="white" stroke="black" points="224.5,-38.5 224.5,-57.5 351.5,-57.5 351.5,-38.5 224.5,-38.5"/>
<text text-anchor="middle" x="288" y="-45.5" font-family="Helvetica,sans-Serif" font-size="10.00">gk_GetMaxMemoryUsed</text>
</a>
</g>
</g>
<!-- Node1467&#45;&gt;Node1470 -->
<g id="edge4" class="edge"><title>Node1467&#45;&gt;Node1470</title>
<path fill="none" stroke="midnightblue" d="M188.245,-62.5453C196.229,-61.3693 205.2,-60.048 214.395,-58.6938"/>
<polygon fill="midnightblue" stroke="midnightblue" points="215.04,-62.1366 224.423,-57.2167 214.02,-55.2113 215.04,-62.1366"/>
</g>
<!-- Node1471 -->
<g id="node6" class="node"><title>Node1471</title>
<g id="a_node6"><a xlink:href="$a00026.html#a4c320c13bcdc9967613253ef4c73f59f" xlink:title="gk_errexit">
<polygon fill="white" stroke="black" points="258,-0.5 258,-19.5 318,-19.5 318,-0.5 258,-0.5"/>
<text text-anchor="middle" x="288" y="-7.5" font-family="Helvetica,sans-Serif" font-size="10.00">gk_errexit</text>
</a>
</g>
</g>
<!-- Node1467&#45;&gt;Node1471 -->
<g id="edge5" class="edge"><title>Node1467&#45;&gt;Node1471</title>
<path fill="none" stroke="midnightblue" d="M172.436,-57.3905C185.481,-49.027 205.428,-37.0202 224,-29 231.68,-25.6834 240.121,-22.7096 248.259,-20.1539"/>
<polygon fill="midnightblue" stroke="midnightblue" points="249.388,-23.4695 257.965,-17.2488 247.381,-16.7634 249.388,-23.4695"/>
</g>
<!-- Node1471&#45;&gt;Node1468 -->
<g id="edge6" class="edge"><title>Node1471&#45;&gt;Node1468</title>
<path fill="none" stroke="midnightblue" d="M318.228,-16.8252C329.104,-19.8755 341.377,-23.9396 352,-29 364.634,-35.0184 377.634,-43.6626 387.925,-51.1863"/>
<polygon fill="midnightblue" stroke="midnightblue" points="386.101,-54.1937 396.194,-57.4154 390.313,-48.6027 386.101,-54.1937"/>
</g>
</g>
</svg>
