<?xml version="1.0" encoding="UTF-8" standalone="no"?>
<!DOCTYPE svg PUBLIC "-//W3C//DTD SVG 1.1//EN"
 "http://www.w3.org/Graphics/SVG/1.1/DTD/svg11.dtd">
<!-- Generated by graphviz version 2.36.0 (20140111.2315)
 -->
<!-- Title: gk_GetMaxMemoryUsed Pages: 1 -->
<svg width="798pt" height="1315pt"
 viewBox="0.00 0.00 798.00 1314.94" xmlns="http://www.w3.org/2000/svg" xmlns:xlink="http://www.w3.org/1999/xlink">
<g id="graph0" class="graph" transform="scale(1 1) rotate(0) translate(4 1310.94)">
<title>gk_GetMaxMemoryUsed</title>
<polygon fill="white" stroke="none" points="-4,4 -4,-1310.94 794,-1310.94 794,4 -4,4"/>
<!-- Node958 -->
<g id="node1" class="node"><title>Node958</title>
<polygon fill="#bfbfbf" stroke="black" points="0.5,-589.5 0.5,-608.5 127.5,-608.5 127.5,-589.5 0.5,-589.5"/>
<text text-anchor="middle" x="64" y="-596.5" font-family="Helvetica,sans-Serif" font-size="10.00">gk_GetMaxMemoryUsed</text>
</g>
<!-- Node959 -->
<g id="node2" class="node"><title>Node959</title>
<g id="a_node2"><a xlink:href="$a00110.html#aba6f76f5c67b9b7e9c2e45988d3d3e9d" xlink:title="gk_malloc">
<polygon fill="white" stroke="black" points="174,-589.5 174,-608.5 236,-608.5 236,-589.5 174,-589.5"/>
<text text-anchor="middle" x="205" y="-596.5" font-family="Helvetica,sans-Serif" font-size="10.00">gk_malloc</text>
</a>
</g>
</g>
<!-- Node958&#45;&gt;Node959 -->
<g id="edge1" class="edge"><title>Node958&#45;&gt;Node959</title>
<path fill="none" stroke="midnightblue" d="M137.836,-599C150.615,-599 163.244,-599 173.989,-599"/>
<polygon fill="midnightblue" stroke="midnightblue" points="137.587,-595.5 127.587,-599 137.587,-602.5 137.587,-595.5"/>
</g>
<!-- Node1045 -->
<g id="node49" class="node"><title>Node1045</title>
<g id="a_node49"><a xlink:href="$a00867.html#a702976a4c55992ddbfc1918ec1b70943" xlink:title="print_final_info">
<polygon fill="white" stroke="black" points="164,-950.5 164,-969.5 246,-969.5 246,-950.5 164,-950.5"/>
<text text-anchor="middle" x="205" y="-957.5" font-family="Helvetica,sans-Serif" font-size="10.00">print_final_info</text>
</a>
</g>
</g>
<!-- Node958&#45;&gt;Node1045 -->
<g id="edge60" class="edge"><title>Node958&#45;&gt;Node1045</title>
<path fill="none" stroke="midnightblue" d="M72.4233,-618.279C97.9796,-684.652 181.769,-902.264 200.335,-950.482"/>
<polygon fill="midnightblue" stroke="midnightblue" points="75.5775,-616.73 68.7179,-608.656 69.045,-619.246 75.5775,-616.73"/>
</g>
<!-- Node1000 -->
<g id="node50" class="node"><title>Node1000</title>
<g id="a_node50"><a xlink:href="$a00311.html#a0ddf1224851353fc92bfbff6f499fa97" xlink:title="main">
<polygon fill="white" stroke="black" points="186,-551.5 186,-570.5 224,-570.5 224,-551.5 186,-551.5"/>
<text text-anchor="middle" x="205" y="-558.5" font-family="Helvetica,sans-Serif" font-size="10.00">main</text>
</a>
</g>
</g>
<!-- Node958&#45;&gt;Node1000 -->
<g id="edge62" class="edge"><title>Node958&#45;&gt;Node1000</title>
<path fill="none" stroke="midnightblue" d="M110.041,-586.687C135.85,-579.631 166.816,-571.165 185.953,-565.934"/>
<polygon fill="midnightblue" stroke="midnightblue" points="108.799,-583.398 100.076,-589.411 110.645,-590.15 108.799,-583.398"/>
</g>
<!-- Node960 -->
<g id="node3" class="node"><title>Node960</title>
<g id="a_node3"><a xlink:href="$a00954.html#aa24ead3c2c8fb3e58110f1f79453ce29" xlink:title="Balance_Partition">
<polygon fill="white" stroke="black" points="312.5,-988.5 312.5,-1007.5 407.5,-1007.5 407.5,-988.5 312.5,-988.5"/>
<text text-anchor="middle" x="360" y="-995.5" font-family="Helvetica,sans-Serif" font-size="10.00">Balance_Partition</text>
</a>
</g>
</g>
<!-- Node959&#45;&gt;Node960 -->
<g id="edge2" class="edge"><title>Node959&#45;&gt;Node960</title>
<path fill="none" stroke="midnightblue" d="M207.215,-618.71C211.948,-689.022 231.452,-926.15 282,-979 289.994,-987.358 301.033,-992.277 312.257,-995.114"/>
<polygon fill="midnightblue" stroke="midnightblue" points="210.698,-618.332 206.559,-608.579 203.713,-618.784 210.698,-618.332"/>
</g>
<!-- Node961 -->
<g id="node4" class="node"><title>Node961</title>
<g id="a_node4"><a xlink:href="$a00954.html#a5a01a370c18ddee7517dbbf9e5827f89" xlink:title="Mc_Diffusion">
<polygon fill="white" stroke="black" points="323,-950.5 323,-969.5 397,-969.5 397,-950.5 323,-950.5"/>
<text text-anchor="middle" x="360" y="-957.5" font-family="Helvetica,sans-Serif" font-size="10.00">Mc_Diffusion</text>
</a>
</g>
</g>
<!-- Node959&#45;&gt;Node961 -->
<g id="edge3" class="edge"><title>Node959&#45;&gt;Node961</title>
<path fill="none" stroke="midnightblue" d="M207.7,-618.829C213.74,-684.627 236.288,-894.213 282,-941 292.585,-951.834 308.29,-956.865 322.761,-959.08"/>
<polygon fill="midnightblue" stroke="midnightblue" points="211.163,-618.249 206.79,-608.599 204.19,-618.87 211.163,-618.249"/>
</g>
<!-- Node962 -->
<g id="node5" class="node"><title>Node962</title>
<g id="a_node5"><a xlink:href="$a00380.html#aec1a4bd83e832be7befbf6b03e9513ad" xlink:title="CreateMesh">
<polygon fill="white" stroke="black" points="324.5,-1200.5 324.5,-1219.5 395.5,-1219.5 395.5,-1200.5 324.5,-1200.5"/>
<text text-anchor="middle" x="360" y="-1207.5" font-family="Helvetica,sans-Serif" font-size="10.00">CreateMesh</text>
</a>
</g>
</g>
<!-- Node959&#45;&gt;Node962 -->
<g id="edge4" class="edge"><title>Node959&#45;&gt;Node962</title>
<path fill="none" stroke="midnightblue" d="M208.261,-618.723C219.334,-714.826 267.878,-1130.39 282,-1154 294.897,-1175.56 319.624,-1191.26 337.587,-1200.46"/>
<polygon fill="midnightblue" stroke="midnightblue" points="211.721,-618.169 207.101,-608.634 204.766,-618.969 211.721,-618.169"/>
</g>
<!-- Node964 -->
<g id="node7" class="node"><title>Node964</title>
<g id="a_node7"><a xlink:href="$a00954.html#afedcf14063f4d8678a3746a1152dd71c" xlink:title="AllocateNodePartitionParams">
<polygon fill="white" stroke="black" points="286.5,-912.5 286.5,-931.5 433.5,-931.5 433.5,-912.5 286.5,-912.5"/>
<text text-anchor="middle" x="360" y="-919.5" font-family="Helvetica,sans-Serif" font-size="10.00">AllocateNodePartitionParams</text>
</a>
</g>
</g>
<!-- Node959&#45;&gt;Node964 -->
<g id="edge6" class="edge"><title>Node959&#45;&gt;Node964</title>
<path fill="none" stroke="midnightblue" d="M208.311,-618.973C215.766,-679.981 241.101,-862.225 282,-903 285.803,-906.791 290.234,-909.868 295.014,-912.361"/>
<polygon fill="midnightblue" stroke="midnightblue" points="211.752,-618.273 207.093,-608.758 204.802,-619.102 211.752,-618.273"/>
</g>
<!-- Node965 -->
<g id="node8" class="node"><title>Node965</title>
<g id="a_node8"><a xlink:href="$a00413.html#a82c7423dfb045f99c1ef26e9fd09976a" xlink:title="WavefrontDiffusion">
<polygon fill="white" stroke="black" points="309.5,-874.5 309.5,-893.5 410.5,-893.5 410.5,-874.5 309.5,-874.5"/>
<text text-anchor="middle" x="360" y="-881.5" font-family="Helvetica,sans-Serif" font-size="10.00">WavefrontDiffusion</text>
</a>
</g>
</g>
<!-- Node959&#45;&gt;Node965 -->
<g id="edge7" class="edge"><title>Node959&#45;&gt;Node965</title>
<path fill="none" stroke="midnightblue" d="M205.404,-618.951C205.078,-668.289 211.424,-796.946 282,-865 289.434,-872.168 299.121,-876.767 309.103,-879.687"/>
<polygon fill="midnightblue" stroke="midnightblue" points="208.908,-618.745 205.581,-608.686 201.909,-618.624 208.908,-618.745"/>
</g>
<!-- Node966 -->
<g id="node9" class="node"><title>Node966</title>
<g id="a_node9"><a xlink:href="$a00077.html#a82b885bbed5bd18c26629c35ce5d37e4" xlink:title="gk_csr_Create">
<polygon fill="white" stroke="black" points="319,-836.5 319,-855.5 401,-855.5 401,-836.5 319,-836.5"/>
<text text-anchor="middle" x="360" y="-843.5" font-family="Helvetica,sans-Serif" font-size="10.00">gk_csr_Create</text>
</a>
</g>
</g>
<!-- Node959&#45;&gt;Node966 -->
<g id="edge8" class="edge"><title>Node959&#45;&gt;Node966</title>
<path fill="none" stroke="midnightblue" d="M206.944,-618.667C210.084,-661.752 223.634,-765.151 282,-822 291.93,-831.672 305.696,-837.453 318.845,-840.905"/>
<polygon fill="midnightblue" stroke="midnightblue" points="210.435,-618.404 206.327,-608.638 203.448,-618.834 210.435,-618.404"/>
</g>
<!-- Node971 -->
<g id="node14" class="node"><title>Node971</title>
<g id="a_node14"><a xlink:href="$a00077.html#ac438fca404c3f1ff6989aa68f83ed241" xlink:title="gk_csr_Split">
<polygon fill="white" stroke="black" points="506.5,-1178.5 506.5,-1197.5 577.5,-1197.5 577.5,-1178.5 506.5,-1178.5"/>
<text text-anchor="middle" x="542" y="-1185.5" font-family="Helvetica,sans-Serif" font-size="10.00">gk_csr_Split</text>
</a>
</g>
</g>
<!-- Node959&#45;&gt;Node971 -->
<g id="edge23" class="edge"><title>Node959&#45;&gt;Node971</title>
<path fill="none" stroke="midnightblue" d="M208.379,-618.769C219.42,-709.913 265.82,-1085.98 282,-1105 338.905,-1171.9 449.844,-1185.4 506.26,-1187.78"/>
<polygon fill="midnightblue" stroke="midnightblue" points="211.835,-618.196 207.161,-608.688 204.886,-619.035 211.835,-618.196"/>
</g>
<!-- Node981 -->
<g id="node23" class="node"><title>Node981</title>
<g id="a_node23"><a xlink:href="$a00849.html#a0d092a371d797437de53ae1a64bd78f4" xlink:title="gk_graph_Create">
<polygon fill="white" stroke="red" points="313,-684.5 313,-703.5 407,-703.5 407,-684.5 313,-684.5"/>
<text text-anchor="middle" x="360" y="-691.5" font-family="Helvetica,sans-Serif" font-size="10.00">gk_graph_Create</text>
</a>
</g>
</g>
<!-- Node959&#45;&gt;Node981 -->
<g id="edge24" class="edge"><title>Node959&#45;&gt;Node981</title>
<path fill="none" stroke="midnightblue" d="M220.397,-616.343C234.554,-632.366 257.543,-655.776 282,-670 292.531,-676.124 304.797,-680.858 316.402,-684.439"/>
<polygon fill="midnightblue" stroke="midnightblue" points="223.015,-614.02 213.838,-608.726 217.711,-618.588 223.015,-614.02"/>
</g>
<!-- Node987 -->
<g id="node26" class="node"><title>Node987</title>
<g id="a_node26"><a xlink:href="$a00954.html#a01903fa912de9fc7f01dace993a3fc85" xlink:title="CreateGraph">
<polygon fill="white" stroke="red" points="323,-380.5 323,-399.5 397,-399.5 397,-380.5 323,-380.5"/>
<text text-anchor="middle" x="360" y="-387.5" font-family="Helvetica,sans-Serif" font-size="10.00">CreateGraph</text>
</a>
</g>
</g>
<!-- Node959&#45;&gt;Node987 -->
<g id="edge27" class="edge"><title>Node959&#45;&gt;Node987</title>
<path fill="none" stroke="midnightblue" d="M242.87,-583.401C243.994,-582.337 245.045,-581.205 246,-580 292.907,-520.848 231.035,-469.693 282,-414 292.493,-402.534 308.363,-396.499 322.974,-393.341"/>
<polygon fill="midnightblue" stroke="midnightblue" points="240.584,-580.738 234.591,-589.475 244.724,-586.382 240.584,-580.738"/>
</g>
<!-- Node990 -->
<g id="node27" class="node"><title>Node990</title>
<g id="a_node27"><a xlink:href="$a00098.html#a8dc2b324b10c45883dacbf58ac0b7efd" xlink:title="HTable_Create">
<polygon fill="white" stroke="black" points="318,-342.5 318,-361.5 402,-361.5 402,-342.5 318,-342.5"/>
<text text-anchor="middle" x="360" y="-349.5" font-family="Helvetica,sans-Serif" font-size="10.00">HTable_Create</text>
</a>
</g>
</g>
<!-- Node959&#45;&gt;Node990 -->
<g id="edge28" class="edge"><title>Node959&#45;&gt;Node990</title>
<path fill="none" stroke="midnightblue" d="M243.358,-583.035C244.304,-582.079 245.19,-581.068 246,-580 302.965,-504.904 217.77,-439.984 282,-371 291.195,-361.124 304.634,-356.025 317.72,-353.493"/>
<polygon fill="midnightblue" stroke="midnightblue" points="240.937,-580.481 235.135,-589.346 245.199,-586.034 240.937,-580.481"/>
</g>
<!-- Node991 -->
<g id="node28" class="node"><title>Node991</title>
<g id="a_node28"><a xlink:href="$a00858.html#ad8263f64108434d7ebab9799b5ab9632" xlink:title="gk_getline">
<polygon fill="white" stroke="red" points="329,-722.5 329,-741.5 391,-741.5 391,-722.5 329,-722.5"/>
<text text-anchor="middle" x="360" y="-729.5" font-family="Helvetica,sans-Serif" font-size="10.00">gk_getline</text>
</a>
</g>
</g>
<!-- Node959&#45;&gt;Node991 -->
<g id="edge29" class="edge"><title>Node959&#45;&gt;Node991</title>
<path fill="none" stroke="midnightblue" d="M213.466,-618.102C224.494,-643.741 247.614,-688.846 282,-713 295.633,-722.576 313.581,-727.345 328.719,-729.711"/>
<polygon fill="midnightblue" stroke="midnightblue" points="216.646,-616.631 209.599,-608.719 210.174,-619.299 216.646,-616.631"/>
</g>
<!-- Node992 -->
<g id="node29" class="node"><title>Node992</title>
<g id="a_node29"><a xlink:href="$a00858.html#ad13e689608e193482a6f30b1ade87814" xlink:title="gk_readfile">
<polygon fill="white" stroke="black" points="509.5,-608.5 509.5,-627.5 574.5,-627.5 574.5,-608.5 509.5,-608.5"/>
<text text-anchor="middle" x="542" y="-615.5" font-family="Helvetica,sans-Serif" font-size="10.00">gk_readfile</text>
</a>
</g>
</g>
<!-- Node959&#45;&gt;Node992 -->
<g id="edge33" class="edge"><title>Node959&#45;&gt;Node992</title>
<path fill="none" stroke="midnightblue" d="M231.743,-613.326C246.067,-620.477 264.492,-628.363 282,-632 362.464,-648.715 459.831,-634.483 509.108,-624.933"/>
<polygon fill="midnightblue" stroke="midnightblue" points="233.032,-610.052 222.544,-608.554 229.809,-616.265 233.032,-610.052"/>
</g>
<!-- Node1001 -->
<g id="node30" class="node"><title>Node1001</title>
<g id="a_node30"><a xlink:href="$a00107.html#aba5df0f5155d88c0331fd6c996b483ed" xlink:title="gk_mcoreCreate">
<polygon fill="white" stroke="red" points="315,-304.5 315,-323.5 405,-323.5 405,-304.5 315,-304.5"/>
<text text-anchor="middle" x="360" y="-311.5" font-family="Helvetica,sans-Serif" font-size="10.00">gk_mcoreCreate</text>
</a>
</g>
</g>
<!-- Node959&#45;&gt;Node1001 -->
<g id="edge34" class="edge"><title>Node959&#45;&gt;Node1001</title>
<path fill="none" stroke="midnightblue" d="M243.394,-583.062C244.33,-582.098 245.204,-581.078 246,-580 311.898,-490.756 207.458,-415.163 282,-333 290.419,-323.72 302.582,-318.637 314.764,-315.939"/>
<polygon fill="midnightblue" stroke="midnightblue" points="240.971,-580.512 235.22,-589.41 245.265,-586.041 240.971,-580.512"/>
</g>
<!-- Node1004 -->
<g id="node31" class="node"><title>Node1004</title>
<g id="a_node31"><a xlink:href="$a00107.html#ab7a380f0696a0d5421653fad336bcae0" xlink:title="gk_mcoreMalloc">
<polygon fill="white" stroke="red" points="315.5,-266.5 315.5,-285.5 404.5,-285.5 404.5,-266.5 315.5,-266.5"/>
<text text-anchor="middle" x="360" y="-273.5" font-family="Helvetica,sans-Serif" font-size="10.00">gk_mcoreMalloc</text>
</a>
</g>
</g>
<!-- Node959&#45;&gt;Node1004 -->
<g id="edge35" class="edge"><title>Node959&#45;&gt;Node1004</title>
<path fill="none" stroke="midnightblue" d="M243.421,-583.082C244.349,-582.112 245.214,-581.086 246,-580 320.856,-476.574 197.119,-390.371 282,-295 290.513,-285.435 303.003,-280.312 315.457,-277.666"/>
<polygon fill="midnightblue" stroke="midnightblue" points="240.997,-580.534 235.283,-589.456 245.314,-586.045 240.997,-580.534"/>
</g>
<!-- Node1010 -->
<g id="node32" class="node"><title>Node1010</title>
<g id="a_node32"><a xlink:href="$a00110.html#af59ba46496f920cc424b8088f4cd7818" xlink:title="gk_AllocMatrix">
<polygon fill="white" stroke="black" points="319,-228.5 319,-247.5 401,-247.5 401,-228.5 319,-228.5"/>
<text text-anchor="middle" x="360" y="-235.5" font-family="Helvetica,sans-Serif" font-size="10.00">gk_AllocMatrix</text>
</a>
</g>
</g>
<!-- Node959&#45;&gt;Node1010 -->
<g id="edge36" class="edge"><title>Node959&#45;&gt;Node1010</title>
<path fill="none" stroke="midnightblue" d="M243.442,-583.097C244.364,-582.123 245.222,-581.092 246,-580 329.83,-462.37 186.762,-365.6 282,-257 291.26,-246.441 305.365,-241.28 318.984,-238.891"/>
<polygon fill="midnightblue" stroke="midnightblue" points="241.017,-580.551 235.332,-589.491 245.352,-586.048 241.017,-580.551"/>
</g>
<!-- Node1011 -->
<g id="node33" class="node"><title>Node1011</title>
<g id="a_node33"><a xlink:href="$a00125.html#a297ec0561d579a1772f424fce8886d96" xlink:title="Reads a pdb file into a pdbf structure. ">
<polygon fill="white" stroke="black" points="501,-570.5 501,-589.5 583,-589.5 583,-570.5 501,-570.5"/>
<text text-anchor="middle" x="542" y="-577.5" font-family="Helvetica,sans-Serif" font-size="10.00">gk_readpdbfile</text>
</a>
</g>
</g>
<!-- Node959&#45;&gt;Node1011 -->
<g id="edge37" class="edge"><title>Node959&#45;&gt;Node1011</title>
<path fill="none" stroke="midnightblue" d="M246.343,-601.222C292.704,-603.26 371.019,-605.126 438,-599 458.824,-597.095 481.724,-593.068 500.633,-589.209"/>
<polygon fill="midnightblue" stroke="midnightblue" points="246.263,-597.714 236.112,-600.746 245.938,-604.707 246.263,-597.714"/>
</g>
<!-- Node1012 -->
<g id="node34" class="node"><title>Node1012</title>
<g id="a_node34"><a xlink:href="$a00867.html#a0e7ce196a2f8882777957bf898739f6f" xlink:title="parse_cmdline">
<polygon fill="white" stroke="black" points="501,-722.5 501,-741.5 583,-741.5 583,-722.5 501,-722.5"/>
<text text-anchor="middle" x="542" y="-729.5" font-family="Helvetica,sans-Serif" font-size="10.00">parse_cmdline</text>
</a>
</g>
</g>
<!-- Node959&#45;&gt;Node1012 -->
<g id="edge38" class="edge"><title>Node959&#45;&gt;Node1012</title>
<path fill="none" stroke="midnightblue" d="M207.06,-618.921C210.407,-659.231 224.309,-749.941 282,-789 339.413,-827.87 374.309,-816.396 438,-789 459.371,-779.808 454.098,-763.048 474,-751 482.171,-746.053 491.679,-742.35 500.921,-739.595"/>
<polygon fill="midnightblue" stroke="midnightblue" points="210.539,-618.499 206.357,-608.764 203.556,-618.982 210.539,-618.499"/>
</g>
<!-- Node1013 -->
<g id="node35" class="node"><title>Node1013</title>
<g id="a_node35"><a xlink:href="$a00137.html#a8b9f1e33d58df397a7f0f923a25ec256" xlink:title="This function creates the localizations for the various sequences. ">
<polygon fill="white" stroke="black" points="474.5,-418.5 474.5,-437.5 609.5,-437.5 609.5,-418.5 474.5,-418.5"/>
<text text-anchor="middle" x="542" y="-425.5" font-family="Helvetica,sans-Serif" font-size="10.00">gk_i2cc2i_create_common</text>
</a>
</g>
</g>
<!-- Node959&#45;&gt;Node1013 -->
<g id="edge40" class="edge"><title>Node959&#45;&gt;Node1013</title>
<path fill="none" stroke="midnightblue" d="M242.778,-583.326C243.928,-582.283 245.009,-581.175 246,-580 284.105,-534.83 236.593,-489.822 282,-452 342.721,-401.422 441.456,-408.778 497.857,-418.497"/>
<polygon fill="midnightblue" stroke="midnightblue" points="240.498,-580.654 234.396,-589.315 244.567,-586.349 240.498,-580.654"/>
</g>
<!-- Node1014 -->
<g id="node36" class="node"><title>Node1014</title>
<g id="a_node36"><a xlink:href="$a00137.html#ad44124c9b40b8ffda2276f877526a261" xlink:title="This function reads a pssm in the format of gkmod pssm. ">
<polygon fill="white" stroke="black" points="646,-456.5 646,-475.5 790,-475.5 790,-456.5 646,-456.5"/>
<text text-anchor="middle" x="718" y="-463.5" font-family="Helvetica,sans-Serif" font-size="10.00">gk_seq_ReadGKMODPSSM</text>
</a>
</g>
</g>
<!-- Node959&#45;&gt;Node1014 -->
<g id="edge42" class="edge"><title>Node959&#45;&gt;Node1014</title>
<path fill="none" stroke="midnightblue" d="M241.575,-583.957C243.15,-582.727 244.638,-581.41 246,-580 273.942,-551.086 249.189,-520.243 282,-497 338.684,-456.845 537.608,-458.328 645.734,-462.389"/>
<polygon fill="midnightblue" stroke="midnightblue" points="239.658,-581.028 233.155,-589.392 243.455,-586.909 239.658,-581.028"/>
</g>
<!-- Node1015 -->
<g id="node37" class="node"><title>Node1015</title>
<g id="a_node37"><a xlink:href="$a00143.html#af62038e97ca55f14ec2557a01bd85ca2" xlink:title="Duplicates a string. ">
<polygon fill="white" stroke="red" points="330,-570.5 330,-589.5 390,-589.5 390,-570.5 330,-570.5"/>
<text text-anchor="middle" x="360" y="-577.5" font-family="Helvetica,sans-Serif" font-size="10.00">gk_strdup</text>
</a>
</g>
</g>
<!-- Node959&#45;&gt;Node1015 -->
<g id="edge43" class="edge"><title>Node959&#45;&gt;Node1015</title>
<path fill="none" stroke="midnightblue" d="M246.254,-594.001C272.515,-590.74 306.189,-586.558 329.873,-583.617"/>
<polygon fill="midnightblue" stroke="midnightblue" points="245.72,-590.54 236.228,-595.246 246.583,-597.487 245.72,-590.54"/>
</g>
<!-- Node1023 -->
<g id="node38" class="node"><title>Node1023</title>
<g id="a_node38"><a xlink:href="$a00146.html#a0ddf1224851353fc92bfbff6f499fa97" xlink:title="main">
<polygon fill="white" stroke="black" points="523,-532.5 523,-551.5 561,-551.5 561,-532.5 523,-532.5"/>
<text text-anchor="middle" x="542" y="-539.5" font-family="Helvetica,sans-Serif" font-size="10.00">main</text>
</a>
</g>
</g>
<!-- Node959&#45;&gt;Node1023 -->
<g id="edge49" class="edge"><title>Node959&#45;&gt;Node1023</title>
<path fill="none" stroke="midnightblue" d="M235.586,-585.119C239.106,-583.417 242.641,-581.683 246,-580 262.174,-571.895 264.61,-565.99 282,-561 369.542,-535.882 480.19,-538.573 522.975,-540.827"/>
<polygon fill="midnightblue" stroke="midnightblue" points="233.94,-582.026 226.43,-589.499 236.961,-588.341 233.94,-582.026"/>
</g>
<!-- Node1027 -->
<g id="node39" class="node"><title>Node1027</title>
<g id="a_node39"><a xlink:href="$a00161.html#a551670b0d23e97d4655a827762c6bacd" xlink:title="gk_strtokenize">
<polygon fill="white" stroke="black" points="501.5,-494.5 501.5,-513.5 582.5,-513.5 582.5,-494.5 501.5,-494.5"/>
<text text-anchor="middle" x="542" y="-501.5" font-family="Helvetica,sans-Serif" font-size="10.00">gk_strtokenize</text>
</a>
</g>
</g>
<!-- Node959&#45;&gt;Node1027 -->
<g id="edge50" class="edge"><title>Node959&#45;&gt;Node1027</title>
<path fill="none" stroke="midnightblue" d="M239.559,-584.432C241.807,-583.043 243.978,-581.564 246,-580 265.711,-564.746 260.13,-548.955 282,-537 352.003,-498.734 448.17,-497.486 501.438,-500.443"/>
<polygon fill="midnightblue" stroke="midnightblue" points="237.733,-581.442 230.664,-589.333 241.111,-587.573 237.733,-581.442"/>
</g>
<!-- Node1028 -->
<g id="node40" class="node"><title>Node1028</title>
<g id="a_node40"><a xlink:href="$a00948.html#a681b2f4a615da39347c928c127760d07" xlink:title="FixGraph">
<polygon fill="white" stroke="black" points="331,-190.5 331,-209.5 389,-209.5 389,-190.5 331,-190.5"/>
<text text-anchor="middle" x="360" y="-197.5" font-family="Helvetica,sans-Serif" font-size="10.00">FixGraph</text>
</a>
</g>
</g>
<!-- Node959&#45;&gt;Node1028 -->
<g id="edge51" class="edge"><title>Node959&#45;&gt;Node1028</title>
<path fill="none" stroke="midnightblue" d="M243.839,-582.695C244.613,-581.841 245.336,-580.943 246,-580 292.407,-514.076 229.197,-279.921 282,-219 293.904,-205.266 314.004,-200.643 330.683,-199.388"/>
<polygon fill="midnightblue" stroke="midnightblue" points="241.308,-580.243 235.769,-589.275 245.731,-585.669 241.308,-580.243"/>
</g>
<!-- Node1029 -->
<g id="node41" class="node"><title>Node1029</title>
<g id="a_node41"><a xlink:href="$a00948.html#a5882ab0f565a5e97581ad5c4847effbc" xlink:title="GrowBisectionNode">
<polygon fill="white" stroke="red" points="307.5,-152.5 307.5,-171.5 412.5,-171.5 412.5,-152.5 307.5,-152.5"/>
<text text-anchor="middle" x="360" y="-159.5" font-family="Helvetica,sans-Serif" font-size="10.00">GrowBisectionNode</text>
</a>
</g>
</g>
<!-- Node959&#45;&gt;Node1029 -->
<g id="edge52" class="edge"><title>Node959&#45;&gt;Node1029</title>
<path fill="none" stroke="midnightblue" d="M243.851,-582.703C244.621,-581.847 245.341,-580.946 246,-580 296.903,-506.961 224.008,-248.548 282,-181 288.547,-173.374 297.622,-168.552 307.25,-165.555"/>
<polygon fill="midnightblue" stroke="midnightblue" points="241.319,-580.253 235.8,-589.297 245.754,-585.669 241.319,-580.253"/>
</g>
<!-- Node1031 -->
<g id="node42" class="node"><title>Node1031</title>
<g id="a_node42"><a xlink:href="$a00948.html#a3668b93d256689991e65a85536f533c5" xlink:title="GrowBisectionNode2">
<polygon fill="white" stroke="black" points="305,-114.5 305,-133.5 415,-133.5 415,-114.5 305,-114.5"/>
<text text-anchor="middle" x="360" y="-121.5" font-family="Helvetica,sans-Serif" font-size="10.00">GrowBisectionNode2</text>
</a>
</g>
</g>
<!-- Node959&#45;&gt;Node1031 -->
<g id="edge53" class="edge"><title>Node959&#45;&gt;Node1031</title>
<path fill="none" stroke="midnightblue" d="M243.861,-582.71C244.628,-581.851 245.344,-580.949 246,-580 301.402,-499.843 218.816,-217.178 282,-143 287.982,-135.977 296.107,-131.329 304.844,-128.293"/>
<polygon fill="midnightblue" stroke="midnightblue" points="241.329,-580.261 235.826,-589.315 245.774,-585.669 241.329,-580.261"/>
</g>
<!-- Node1032 -->
<g id="node43" class="node"><title>Node1032</title>
<g id="a_node43"><a xlink:href="$a00948.html#a22a23a687ef7ed0d4f66ab58e3a81d12" xlink:title="AllocateKWayPartitionMemory">
<polygon fill="white" stroke="red" points="284,-76.5 284,-95.5 436,-95.5 436,-76.5 284,-76.5"/>
<text text-anchor="middle" x="360" y="-83.5" font-family="Helvetica,sans-Serif" font-size="10.00">AllocateKWayPartitionMemory</text>
</a>
</g>
</g>
<!-- Node959&#45;&gt;Node1032 -->
<g id="edge54" class="edge"><title>Node959&#45;&gt;Node1032</title>
<path fill="none" stroke="midnightblue" d="M243.869,-582.716C244.634,-581.855 245.347,-580.951 246,-580 305.903,-492.721 213.621,-185.811 282,-105 285.202,-101.216 289.026,-98.1206 293.234,-95.5948"/>
<polygon fill="midnightblue" stroke="midnightblue" points="241.337,-580.268 235.848,-589.33 245.79,-585.669 241.337,-580.268"/>
</g>
<!-- Node1035 -->
<g id="node44" class="node"><title>Node1035</title>
<g id="a_node44"><a xlink:href="$a00954.html#ad1ea0dae24c2f47fd0813124bff0b66e" xlink:title="ComputePartitionParams">
<polygon fill="white" stroke="black" points="296,-38.5 296,-57.5 424,-57.5 424,-38.5 296,-38.5"/>
<text text-anchor="middle" x="360" y="-45.5" font-family="Helvetica,sans-Serif" font-size="10.00">ComputePartitionParams</text>
</a>
</g>
</g>
<!-- Node959&#45;&gt;Node1035 -->
<g id="edge55" class="edge"><title>Node959&#45;&gt;Node1035</title>
<path fill="none" stroke="midnightblue" d="M243.876,-582.721C244.639,-581.859 245.35,-580.953 246,-580 310.405,-485.597 208.425,-154.446 282,-67 285.812,-62.4696 290.516,-58.9251 295.704,-56.163"/>
<polygon fill="midnightblue" stroke="midnightblue" points="241.343,-580.273 235.867,-589.343 245.804,-585.668 241.343,-580.273"/>
</g>
<!-- Node1036 -->
<g id="node45" class="node"><title>Node1036</title>
<g id="a_node45"><a xlink:href="$a00948.html#a52a083cfb474124f22728e79cfba695f" xlink:title="SplitGraphOrderCC">
<polygon fill="white" stroke="red" points="308,-0.5 308,-19.5 412,-19.5 412,-0.5 308,-0.5"/>
<text text-anchor="middle" x="360" y="-7.5" font-family="Helvetica,sans-Serif" font-size="10.00">SplitGraphOrderCC</text>
</a>
</g>
</g>
<!-- Node959&#45;&gt;Node1036 -->
<g id="edge56" class="edge"><title>Node959&#45;&gt;Node1036</title>
<path fill="none" stroke="midnightblue" d="M243.882,-582.725C244.643,-581.862 245.352,-580.954 246,-580 314.909,-478.471 203.227,-123.082 282,-29 288.629,-21.0821 297.983,-16.1729 307.896,-13.1889"/>
<polygon fill="midnightblue" stroke="midnightblue" points="241.349,-580.278 235.883,-589.354 245.816,-585.668 241.349,-580.278"/>
</g>
<!-- Node1040 -->
<g id="node46" class="node"><title>Node1040</title>
<g id="a_node46"><a xlink:href="$a00948.html#a1420c4ffbe28e4c3349678037adcb918" xlink:title="SetupCtrl">
<polygon fill="white" stroke="black" points="331,-1076.5 331,-1095.5 389,-1095.5 389,-1076.5 331,-1076.5"/>
<text text-anchor="middle" x="360" y="-1083.5" font-family="Helvetica,sans-Serif" font-size="10.00">SetupCtrl</text>
</a>
</g>
</g>
<!-- Node959&#45;&gt;Node1040 -->
<g id="edge57" class="edge"><title>Node959&#45;&gt;Node1040</title>
<path fill="none" stroke="midnightblue" d="M207.953,-618.864C216.453,-703.618 251.188,-1032.19 282,-1066 294.28,-1079.48 314.368,-1084.37 330.947,-1085.95"/>
<polygon fill="midnightblue" stroke="midnightblue" points="211.422,-618.38 206.95,-608.775 204.456,-619.072 211.422,-618.38"/>
</g>
<!-- Node1041 -->
<g id="node47" class="node"><title>Node1041</title>
<g id="a_node47"><a xlink:href="$a00278.html#a843a5692564dc695b281647dc690c887" xlink:title="Allocate2WayNodePartition\lMemory">
<polygon fill="white" stroke="red" points="291,-1027 291,-1057 429,-1057 429,-1027 291,-1027"/>
<text text-anchor="start" x="299" y="-1045" font-family="Helvetica,sans-Serif" font-size="10.00">Allocate2WayNodePartition</text>
<text text-anchor="middle" x="360" y="-1034" font-family="Helvetica,sans-Serif" font-size="10.00">Memory</text>
</a>
</g>
</g>
<!-- Node959&#45;&gt;Node1041 -->
<g id="edge58" class="edge"><title>Node959&#45;&gt;Node1041</title>
<path fill="none" stroke="midnightblue" d="M206.984,-619.071C211.049,-694.011 228.894,-956.249 282,-1017 285.33,-1020.81 289.246,-1024.04 293.518,-1026.78"/>
<polygon fill="midnightblue" stroke="midnightblue" points="210.46,-618.516 206.447,-608.711 203.469,-618.879 210.46,-618.516"/>
</g>
<!-- Node1044 -->
<g id="node48" class="node"><title>Node1044</title>
<g id="a_node48"><a xlink:href="$a00954.html#a2b337cc68be55b7e8b6d2218fcea855d" xlink:title="AllocateRefinementWorkSpace">
<polygon fill="white" stroke="black" points="282.5,-760.5 282.5,-779.5 437.5,-779.5 437.5,-760.5 282.5,-760.5"/>
<text text-anchor="middle" x="360" y="-767.5" font-family="Helvetica,sans-Serif" font-size="10.00">AllocateRefinementWorkSpace</text>
</a>
</g>
</g>
<!-- Node959&#45;&gt;Node1044 -->
<g id="edge59" class="edge"><title>Node959&#45;&gt;Node1044</title>
<path fill="none" stroke="midnightblue" d="M210.202,-618.688C218.229,-651.351 238.921,-716.551 282,-751 286.839,-754.87 292.356,-757.966 298.163,-760.441"/>
<polygon fill="midnightblue" stroke="midnightblue" points="213.532,-617.553 207.875,-608.595 206.711,-619.126 213.532,-617.553"/>
</g>
<!-- Node963 -->
<g id="node6" class="node"><title>Node963</title>
<g id="a_node6"><a xlink:href="$a00954.html#a9f9b575b1270719a1d7ae34f89ed2dc5" xlink:title="SetUpMesh">
<polygon fill="white" stroke="black" points="507.5,-1216.5 507.5,-1235.5 576.5,-1235.5 576.5,-1216.5 507.5,-1216.5"/>
<text text-anchor="middle" x="542" y="-1223.5" font-family="Helvetica,sans-Serif" font-size="10.00">SetUpMesh</text>
</a>
</g>
</g>
<!-- Node962&#45;&gt;Node963 -->
<g id="edge5" class="edge"><title>Node962&#45;&gt;Node963</title>
<path fill="none" stroke="midnightblue" d="M405.955,-1214C437.388,-1216.79 478.7,-1220.46 507.315,-1223.01"/>
<polygon fill="midnightblue" stroke="midnightblue" points="405.976,-1210.48 395.706,-1213.08 405.357,-1217.46 405.976,-1210.48"/>
</g>
<!-- Node967 -->
<g id="node10" class="node"><title>Node967</title>
<g id="a_node10"><a xlink:href="$a00077.html#a24144cf4c30d5ec4ed8b488d371476b3" xlink:title="gk_csr_Dup">
<polygon fill="white" stroke="black" points="507,-836.5 507,-855.5 577,-855.5 577,-836.5 507,-836.5"/>
<text text-anchor="middle" x="542" y="-843.5" font-family="Helvetica,sans-Serif" font-size="10.00">gk_csr_Dup</text>
</a>
</g>
</g>
<!-- Node966&#45;&gt;Node967 -->
<g id="edge9" class="edge"><title>Node966&#45;&gt;Node967</title>
<path fill="none" stroke="midnightblue" d="M411.403,-846C441.843,-846 479.832,-846 506.791,-846"/>
<polygon fill="midnightblue" stroke="midnightblue" points="411.396,-842.5 401.396,-846 411.395,-849.5 411.396,-842.5"/>
</g>
<!-- Node968 -->
<g id="node11" class="node"><title>Node968</title>
<g id="a_node11"><a xlink:href="$a00077.html#a0b106b838c4dc370c32a47aaaf990375" xlink:title="gk_csr_ExtractSubmatrix">
<polygon fill="white" stroke="black" points="478,-798.5 478,-817.5 606,-817.5 606,-798.5 478,-798.5"/>
<text text-anchor="middle" x="542" y="-805.5" font-family="Helvetica,sans-Serif" font-size="10.00">gk_csr_ExtractSubmatrix</text>
</a>
</g>
</g>
<!-- Node966&#45;&gt;Node968 -->
<g id="edge10" class="edge"><title>Node966&#45;&gt;Node968</title>
<path fill="none" stroke="midnightblue" d="M411.277,-835.386C437.865,-829.773 470.241,-822.938 495.997,-817.501"/>
<polygon fill="midnightblue" stroke="midnightblue" points="410.457,-831.982 401.396,-837.472 411.903,-838.831 410.457,-831.982"/>
</g>
<!-- Node969 -->
<g id="node12" class="node"><title>Node969</title>
<g id="a_node12"><a xlink:href="$a00077.html#aaa2391cce5eb8291e65f6dc4d8e252fd" xlink:title="gk_csr_ExtractRows">
<polygon fill="white" stroke="black" points="488,-1064.5 488,-1083.5 596,-1083.5 596,-1064.5 488,-1064.5"/>
<text text-anchor="middle" x="542" y="-1071.5" font-family="Helvetica,sans-Serif" font-size="10.00">gk_csr_ExtractRows</text>
</a>
</g>
</g>
<!-- Node966&#45;&gt;Node969 -->
<g id="edge11" class="edge"><title>Node966&#45;&gt;Node969</title>
<path fill="none" stroke="midnightblue" d="M411.398,-849.817C421.351,-852.765 430.9,-857.501 438,-865 497.09,-927.412 415.992,-991.581 474,-1055 477.917,-1059.28 482.72,-1062.63 487.94,-1065.23"/>
<polygon fill="midnightblue" stroke="midnightblue" points="411.925,-846.345 401.386,-847.429 410.301,-853.154 411.925,-846.345"/>
</g>
<!-- Node970 -->
<g id="node13" class="node"><title>Node970</title>
<g id="a_node13"><a xlink:href="$a00077.html#ac59047c4a89fa4680d746fcdce4aa1a7" xlink:title="gk_csr_ExtractPartition">
<polygon fill="white" stroke="black" points="482.5,-1026.5 482.5,-1045.5 601.5,-1045.5 601.5,-1026.5 482.5,-1026.5"/>
<text text-anchor="middle" x="542" y="-1033.5" font-family="Helvetica,sans-Serif" font-size="10.00">gk_csr_ExtractPartition</text>
</a>
</g>
</g>
<!-- Node966&#45;&gt;Node970 -->
<g id="edge12" class="edge"><title>Node966&#45;&gt;Node970</title>
<path fill="none" stroke="midnightblue" d="M411.146,-850.061C421.114,-852.995 430.732,-857.664 438,-865 486.86,-914.32 425.996,-966.847 474,-1017 477.678,-1020.84 482.072,-1023.93 486.825,-1026.4"/>
<polygon fill="midnightblue" stroke="midnightblue" points="411.675,-846.589 401.136,-847.671 410.049,-853.398 411.675,-846.589"/>
</g>
<!-- Node966&#45;&gt;Node971 -->
<g id="edge13" class="edge"><title>Node966&#45;&gt;Node971</title>
<path fill="none" stroke="midnightblue" d="M411.171,-849.284C421.326,-852.236 431.017,-857.107 438,-865 526.695,-965.243 390.533,-1059.36 474,-1164 481.936,-1173.95 494.332,-1179.78 506.314,-1183.19"/>
<polygon fill="midnightblue" stroke="midnightblue" points="411.899,-845.86 401.366,-847.007 410.315,-852.679 411.899,-845.86"/>
</g>
<!-- Node972 -->
<g id="node15" class="node"><title>Node972</title>
<g id="a_node15"><a xlink:href="$a00077.html#a8ebc19fe9a291bdf67677ebdaae56592" xlink:title="gk_csr_Read">
<polygon fill="white" stroke="black" points="504.5,-760.5 504.5,-779.5 579.5,-779.5 579.5,-760.5 504.5,-760.5"/>
<text text-anchor="middle" x="542" y="-767.5" font-family="Helvetica,sans-Serif" font-size="10.00">gk_csr_Read</text>
</a>
</g>
</g>
<!-- Node966&#45;&gt;Node972 -->
<g id="edge14" class="edge"><title>Node966&#45;&gt;Node972</title>
<path fill="none" stroke="midnightblue" d="M410.819,-834.006C420.165,-830.785 429.622,-826.819 438,-822 456.814,-811.177 455.048,-799.58 474,-789 483.29,-783.814 494.11,-779.948 504.311,-777.108"/>
<polygon fill="midnightblue" stroke="midnightblue" points="409.624,-830.714 401.169,-837.098 411.76,-837.38 409.624,-830.714"/>
</g>
<!-- Node974 -->
<g id="node17" class="node"><title>Node974</title>
<g id="a_node17"><a xlink:href="$a00077.html#a06edc174c5986841b589900ffce6600f" xlink:title="gk_csr_Prune">
<polygon fill="white" stroke="black" points="503,-988.5 503,-1007.5 581,-1007.5 581,-988.5 503,-988.5"/>
<text text-anchor="middle" x="542" y="-995.5" font-family="Helvetica,sans-Serif" font-size="10.00">gk_csr_Prune</text>
</a>
</g>
</g>
<!-- Node966&#45;&gt;Node974 -->
<g id="edge16" class="edge"><title>Node966&#45;&gt;Node974</title>
<path fill="none" stroke="midnightblue" d="M411.05,-850.556C420.935,-853.47 430.543,-858.006 438,-865 476.753,-901.35 435.878,-941.989 474,-979 481.807,-986.58 492.406,-991.179 502.868,-993.955"/>
<polygon fill="midnightblue" stroke="midnightblue" points="411.686,-847.109 401.142,-848.151 410.034,-853.911 411.686,-847.109"/>
</g>
<!-- Node975 -->
<g id="node18" class="node"><title>Node975</title>
<g id="a_node18"><a xlink:href="$a00077.html#a66729af11e7dee3585d6191661757c37" xlink:title="gk_csr_LowFilter">
<polygon fill="white" stroke="black" points="496,-950.5 496,-969.5 588,-969.5 588,-950.5 496,-950.5"/>
<text text-anchor="middle" x="542" y="-957.5" font-family="Helvetica,sans-Serif" font-size="10.00">gk_csr_LowFilter</text>
</a>
</g>
</g>
<!-- Node966&#45;&gt;Node975 -->
<g id="edge17" class="edge"><title>Node966&#45;&gt;Node975</title>
<path fill="none" stroke="midnightblue" d="M410.956,-851.525C420.677,-854.391 430.244,-858.661 438,-865 466.94,-888.652 445.471,-916.854 474,-941 480.276,-946.311 487.945,-950.142 495.824,-952.903"/>
<polygon fill="midnightblue" stroke="midnightblue" points="411.795,-848.127 401.245,-849.103 410.101,-854.919 411.795,-848.127"/>
</g>
<!-- Node976 -->
<g id="node19" class="node"><title>Node976</title>
<g id="a_node19"><a xlink:href="$a00077.html#ad6f2c5699b47e1bc2285a1b391d7c7da" xlink:title="gk_csr_TopKPlusFilter">
<polygon fill="white" stroke="black" points="483.5,-912.5 483.5,-931.5 600.5,-931.5 600.5,-912.5 483.5,-912.5"/>
<text text-anchor="middle" x="542" y="-919.5" font-family="Helvetica,sans-Serif" font-size="10.00">gk_csr_TopKPlusFilter</text>
</a>
</g>
</g>
<!-- Node966&#45;&gt;Node976 -->
<g id="edge18" class="edge"><title>Node966&#45;&gt;Node976</title>
<path fill="none" stroke="midnightblue" d="M410.78,-853.863C420.202,-856.558 429.698,-860.167 438,-865 458.106,-876.704 454.098,-890.952 474,-903 480.413,-906.882 487.649,-909.998 494.934,-912.492"/>
<polygon fill="midnightblue" stroke="midnightblue" points="411.596,-850.459 401.041,-851.374 409.863,-857.241 411.596,-850.459"/>
</g>
<!-- Node977 -->
<g id="node20" class="node"><title>Node977</title>
<g id="a_node20"><a xlink:href="$a00077.html#a193f32ef7dd91c2c633157bafea26080" xlink:title="gk_csr_ZScoreFilter">
<polygon fill="white" stroke="black" points="489,-874.5 489,-893.5 595,-893.5 595,-874.5 489,-874.5"/>
<text text-anchor="middle" x="542" y="-881.5" font-family="Helvetica,sans-Serif" font-size="10.00">gk_csr_ZScoreFilter</text>
</a>
</g>
</g>
<!-- Node966&#45;&gt;Node977 -->
<g id="edge19" class="edge"><title>Node966&#45;&gt;Node977</title>
<path fill="none" stroke="midnightblue" d="M411.277,-856.614C437.865,-862.227 470.241,-869.062 495.997,-874.499"/>
<polygon fill="midnightblue" stroke="midnightblue" points="411.903,-853.169 401.396,-854.528 410.457,-860.018 411.903,-853.169"/>
</g>
<!-- Node978 -->
<g id="node21" class="node"><title>Node978</title>
<g id="a_node21"><a xlink:href="$a00104.html#abc9e8f6a3efe2f0f3ec79b5d8883b246" xlink:title="gk_find_frequent_itemsets">
<polygon fill="white" stroke="black" points="651,-1121.5 651,-1140.5 785,-1140.5 785,-1121.5 651,-1121.5"/>
<text text-anchor="middle" x="718" y="-1128.5" font-family="Helvetica,sans-Serif" font-size="10.00">gk_find_frequent_itemsets</text>
</a>
</g>
</g>
<!-- Node966&#45;&gt;Node978 -->
<g id="edge20" class="edge"><title>Node966&#45;&gt;Node978</title>
<path fill="none" stroke="midnightblue" d="M411.086,-849.36C421.245,-852.308 430.959,-857.159 438,-865 517.708,-953.764 384.163,-1052.5 474,-1131 535.472,-1184.71 642.847,-1157.23 691.613,-1140.6"/>
<polygon fill="midnightblue" stroke="midnightblue" points="411.815,-845.936 401.282,-847.082 410.23,-852.755 411.815,-845.936"/>
</g>
<!-- Node979 -->
<g id="node22" class="node"><title>Node979</title>
<g id="a_node22"><a xlink:href="$a00104.html#ab348ad8f89d70692400d7602e3a824bf" xlink:title="itemsets_project_matrix">
<polygon fill="white" stroke="red" points="481,-1102.5 481,-1121.5 603,-1121.5 603,-1102.5 481,-1102.5"/>
<text text-anchor="middle" x="542" y="-1109.5" font-family="Helvetica,sans-Serif" font-size="10.00">itemsets_project_matrix</text>
</a>
</g>
</g>
<!-- Node966&#45;&gt;Node979 -->
<g id="edge21" class="edge"><title>Node966&#45;&gt;Node979</title>
<path fill="none" stroke="midnightblue" d="M410.959,-849.476C421.124,-852.418 430.873,-857.237 438,-865 507.382,-940.569 405.929,-1016.25 474,-1093 477.369,-1096.8 481.437,-1099.86 485.882,-1102.33"/>
<polygon fill="midnightblue" stroke="midnightblue" points="411.69,-846.052 401.157,-847.195 410.104,-852.87 411.69,-846.052"/>
</g>
<!-- Node973 -->
<g id="node16" class="node"><title>Node973</title>
<g id="a_node16"><a xlink:href="$a00867.html#a0ddf1224851353fc92bfbff6f499fa97" xlink:title="main">
<polygon fill="white" stroke="black" points="699,-760.5 699,-779.5 737,-779.5 737,-760.5 699,-760.5"/>
<text text-anchor="middle" x="718" y="-767.5" font-family="Helvetica,sans-Serif" font-size="10.00">main</text>
</a>
</g>
</g>
<!-- Node972&#45;&gt;Node973 -->
<g id="edge15" class="edge"><title>Node972&#45;&gt;Node973</title>
<path fill="none" stroke="midnightblue" d="M590.142,-770C625.969,-770 673.301,-770 698.82,-770"/>
<polygon fill="midnightblue" stroke="midnightblue" points="589.901,-766.5 579.901,-770 589.901,-773.5 589.901,-766.5"/>
</g>
<!-- Node979&#45;&gt;Node978 -->
<g id="edge22" class="edge"><title>Node979&#45;&gt;Node978</title>
<path fill="none" stroke="midnightblue" d="M613.569,-1119.71C625.867,-1121.05 638.62,-1122.44 650.795,-1123.77"/>
<polygon fill="midnightblue" stroke="midnightblue" points="613.689,-1116.2 603.368,-1118.59 612.929,-1123.16 613.689,-1116.2"/>
</g>
<!-- Node982 -->
<g id="node24" class="node"><title>Node982</title>
<g id="a_node24"><a xlink:href="$a00849.html#a432baae7f5c91c3604b42efb324b4131" xlink:title="gk_graph_Read">
<polygon fill="white" stroke="red" points="498,-684.5 498,-703.5 586,-703.5 586,-684.5 498,-684.5"/>
<text text-anchor="middle" x="542" y="-691.5" font-family="Helvetica,sans-Serif" font-size="10.00">gk_graph_Read</text>
</a>
</g>
</g>
<!-- Node981&#45;&gt;Node982 -->
<g id="edge25" class="edge"><title>Node981&#45;&gt;Node982</title>
<path fill="none" stroke="midnightblue" d="M417.449,-694C443.436,-694 473.78,-694 497.893,-694"/>
<polygon fill="midnightblue" stroke="midnightblue" points="417.355,-690.5 407.354,-694 417.354,-697.5 417.355,-690.5"/>
</g>
<!-- Node984 -->
<g id="node25" class="node"><title>Node984</title>
<g id="a_node25"><a xlink:href="$a00849.html#a24db906b45a9848fc26c49cb967d68c8" xlink:title="gk_graph_Dup">
<polygon fill="white" stroke="black" points="501,-646.5 501,-665.5 583,-665.5 583,-646.5 501,-646.5"/>
<text text-anchor="middle" x="542" y="-653.5" font-family="Helvetica,sans-Serif" font-size="10.00">gk_graph_Dup</text>
</a>
</g>
</g>
<!-- Node981&#45;&gt;Node984 -->
<g id="edge26" class="edge"><title>Node981&#45;&gt;Node984</title>
<path fill="none" stroke="midnightblue" d="M416.231,-682.34C443.537,-676.575 475.89,-669.745 500.808,-664.485"/>
<polygon fill="midnightblue" stroke="midnightblue" points="415.483,-678.921 406.422,-684.411 416.929,-685.77 415.483,-678.921"/>
</g>
<!-- Node991&#45;&gt;Node972 -->
<g id="edge30" class="edge"><title>Node991&#45;&gt;Node972</title>
<path fill="none" stroke="midnightblue" d="M401.118,-740.469C431.97,-746.983 474.252,-755.909 504.233,-762.238"/>
<polygon fill="midnightblue" stroke="midnightblue" points="401.635,-737.001 391.128,-738.36 400.189,-743.851 401.635,-737.001"/>
</g>
<!-- Node991&#45;&gt;Node982 -->
<g id="edge31" class="edge"><title>Node991&#45;&gt;Node982</title>
<path fill="none" stroke="midnightblue" d="M401.235,-723.506C429.976,-717.438 468.594,-709.286 497.953,-703.088"/>
<polygon fill="midnightblue" stroke="midnightblue" points="400.189,-720.149 391.128,-725.64 401.635,-726.999 400.189,-720.149"/>
</g>
<!-- Node991&#45;&gt;Node992 -->
<g id="edge32" class="edge"><title>Node991&#45;&gt;Node992</title>
<path fill="none" stroke="midnightblue" d="M401.223,-728.902C414.084,-726.232 427.653,-721.456 438,-713 466.94,-689.348 445.471,-661.146 474,-637 483.875,-628.642 497.2,-623.952 509.366,-621.323"/>
<polygon fill="midnightblue" stroke="midnightblue" points="400.405,-725.491 391.136,-730.622 401.582,-732.391 400.405,-725.491"/>
</g>
<!-- Node1012&#45;&gt;Node973 -->
<g id="edge39" class="edge"><title>Node1012&#45;&gt;Node973</title>
<path fill="none" stroke="midnightblue" d="M593.496,-743.028C628.801,-750.738 673.903,-760.588 698.667,-765.996"/>
<polygon fill="midnightblue" stroke="midnightblue" points="593.873,-739.528 583.356,-740.813 592.379,-746.367 593.873,-739.528"/>
</g>
<!-- Node1013&#45;&gt;Node1014 -->
<g id="edge41" class="edge"><title>Node1013&#45;&gt;Node1014</title>
<path fill="none" stroke="midnightblue" d="M596.814,-439.753C621.418,-445.126 650.187,-451.409 673.408,-456.48"/>
<polygon fill="midnightblue" stroke="midnightblue" points="597.424,-436.303 586.908,-437.589 595.93,-443.142 597.424,-436.303"/>
</g>
<!-- Node1015&#45;&gt;Node992 -->
<g id="edge44" class="edge"><title>Node1015&#45;&gt;Node992</title>
<path fill="none" stroke="midnightblue" d="M400.429,-588.324C433.097,-595.221 478.928,-604.896 509.266,-611.301"/>
<polygon fill="midnightblue" stroke="midnightblue" points="400.828,-584.831 390.321,-586.19 399.382,-591.68 400.828,-584.831"/>
</g>
<!-- Node1015&#45;&gt;Node1011 -->
<g id="edge45" class="edge"><title>Node1015&#45;&gt;Node1011</title>
<path fill="none" stroke="midnightblue" d="M400.369,-580C430.173,-580 470.958,-580 500.932,-580"/>
<polygon fill="midnightblue" stroke="midnightblue" points="400.321,-576.5 390.321,-580 400.321,-583.5 400.321,-576.5"/>
</g>
<!-- Node1015&#45;&gt;Node1023 -->
<g id="edge46" class="edge"><title>Node1015&#45;&gt;Node1023</title>
<path fill="none" stroke="midnightblue" d="M400.522,-571.657C438.487,-563.642 494.163,-551.888 522.682,-545.867"/>
<polygon fill="midnightblue" stroke="midnightblue" points="399.382,-568.32 390.321,-573.81 400.828,-575.169 399.382,-568.32"/>
</g>
<!-- Node1015&#45;&gt;Node1027 -->
<g id="edge47" class="edge"><title>Node1015&#45;&gt;Node1027</title>
<path fill="none" stroke="midnightblue" d="M386.278,-565.49C408.769,-553.011 442.832,-535.152 474,-523 483.124,-519.443 493.182,-516.234 502.67,-513.51"/>
<polygon fill="midnightblue" stroke="midnightblue" points="384.399,-562.531 377.39,-570.477 387.824,-568.636 384.399,-562.531"/>
</g>
<!-- Node1027&#45;&gt;Node1014 -->
<g id="edge48" class="edge"><title>Node1027&#45;&gt;Node1014</title>
<path fill="none" stroke="midnightblue" d="M592.737,-493.138C618.154,-487.587 648.801,-480.894 673.3,-475.544"/>
<polygon fill="midnightblue" stroke="midnightblue" points="591.942,-489.729 582.919,-495.282 593.436,-496.568 591.942,-489.729"/>
</g>
<!-- Node1045&#45;&gt;Node973 -->
<g id="edge61" class="edge"><title>Node1045&#45;&gt;Node973</title>
<path fill="none" stroke="midnightblue" d="M208.667,-979.771C216.72,-1036.29 242.672,-1196.59 282,-1229 394.63,-1321.82 496.02,-1336.16 610,-1245 619.655,-1237.28 701.059,-846.805 714.979,-779.75"/>
<polygon fill="midnightblue" stroke="midnightblue" points="212.103,-979.065 207.259,-969.642 205.17,-980.029 212.103,-979.065"/>
</g>
</g>
</svg>
