<?xml version="1.0" encoding="UTF-8" standalone="no"?>
<!DOCTYPE svg PUBLIC "-//W3C//DTD SVG 1.1//EN"
 "http://www.w3.org/Graphics/SVG/1.1/DTD/svg11.dtd">
<!-- Generated by graphviz version 2.36.0 (20140111.2315)
 -->
<!-- Title: regexec Pages: 1 -->
<svg width="400pt" height="28pt"
 viewBox="0.00 0.00 400.00 28.00" xmlns="http://www.w3.org/2000/svg" xmlns:xlink="http://www.w3.org/1999/xlink">
<g id="graph0" class="graph" transform="scale(1 1) rotate(0) translate(4 24)">
<title>regexec</title>
<polygon fill="white" stroke="none" points="-4,4 -4,-24 396,-24 396,4 -4,4"/>
<!-- Node27 -->
<g id="node1" class="node"><title>Node27</title>
<polygon fill="#bfbfbf" stroke="black" points="0,-0.5 0,-19.5 52,-19.5 52,-0.5 0,-0.5"/>
<text text-anchor="middle" x="26" y="-7.5" font-family="Helvetica,sans-Serif" font-size="10.00">regexec</text>
</g>
<!-- Node28 -->
<g id="node2" class="node"><title>Node28</title>
<g id="a_node2"><a xlink:href="$a00143.html#a46e5cf8f76a1ece74adf1b8b9dfcb275" xlink:title="Regex&#45;based search&#45;and&#45;replace function. ">
<polygon fill="white" stroke="black" points="88.5,-0.5 88.5,-19.5 181.5,-19.5 181.5,-0.5 88.5,-0.5"/>
<text text-anchor="middle" x="135" y="-7.5" font-family="Helvetica,sans-Serif" font-size="10.00">gk_strstr_replace</text>
</a>
</g>
</g>
<!-- Node27&#45;&gt;Node28 -->
<g id="edge1" class="edge"><title>Node27&#45;&gt;Node28</title>
<path fill="none" stroke="midnightblue" d="M62.1581,-10C70.4473,-10 79.4049,-10 88.09,-10"/>
<polygon fill="midnightblue" stroke="midnightblue" points="62.0868,-6.5001 52.0867,-10 62.0867,-13.5001 62.0868,-6.5001"/>
</g>
<!-- Node29 -->
<g id="node3" class="node"><title>Node29</title>
<g id="a_node3"><a xlink:href="$a00155.html#a3666be16b4df33d86374ee780353af54" xlink:title="test_strstr_replace">
<polygon fill="white" stroke="black" points="218.5,-0.5 218.5,-19.5 317.5,-19.5 317.5,-0.5 218.5,-0.5"/>
<text text-anchor="middle" x="268" y="-7.5" font-family="Helvetica,sans-Serif" font-size="10.00">test_strstr_replace</text>
</a>
</g>
</g>
<!-- Node28&#45;&gt;Node29 -->
<g id="edge2" class="edge"><title>Node28&#45;&gt;Node29</title>
<path fill="none" stroke="midnightblue" d="M191.963,-10C200.729,-10 209.728,-10 218.314,-10"/>
<polygon fill="midnightblue" stroke="midnightblue" points="191.817,-6.5001 181.817,-10 191.817,-13.5001 191.817,-6.5001"/>
</g>
<!-- Node30 -->
<g id="node4" class="node"><title>Node30</title>
<g id="a_node4"><a xlink:href="$a00155.html#ae66f6b31b5ad750f1fe042a706a4e3d4" xlink:title="main">
<polygon fill="white" stroke="black" points="354,-0.5 354,-19.5 392,-19.5 392,-0.5 354,-0.5"/>
<text text-anchor="middle" x="373" y="-7.5" font-family="Helvetica,sans-Serif" font-size="10.00">main</text>
</a>
</g>
</g>
<!-- Node29&#45;&gt;Node30 -->
<g id="edge3" class="edge"><title>Node29&#45;&gt;Node30</title>
<path fill="none" stroke="midnightblue" d="M328.048,-10C337.439,-10 346.487,-10 353.908,-10"/>
<polygon fill="midnightblue" stroke="midnightblue" points="327.785,-6.5001 317.785,-10 327.785,-13.5001 327.785,-6.5001"/>
</g>
</g>
</svg>
