<?xml version="1.0" encoding="UTF-8" standalone="no"?>
<!DOCTYPE svg PUBLIC "-//W3C//DTD SVG 1.1//EN"
 "http://www.w3.org/Graphics/SVG/1.1/DTD/svg11.dtd">
<!-- Generated by graphviz version 2.36.0 (20140111.2315)
 -->
<!-- Title: gk_getfilename Pages: 1 -->
<svg width="528pt" height="125pt"
 viewBox="0.00 0.00 528.00 124.90" xmlns="http://www.w3.org/2000/svg" xmlns:xlink="http://www.w3.org/1999/xlink">
<g id="graph0" class="graph" transform="scale(1 1) rotate(0) translate(4 120.901)">
<title>gk_getfilename</title>
<polygon fill="white" stroke="none" points="-4,4 -4,-120.901 524,-120.901 524,4 -4,4"/>
<!-- Node906 -->
<g id="node1" class="node"><title>Node906</title>
<polygon fill="#bfbfbf" stroke="black" points="0,-57.5 0,-76.5 84,-76.5 84,-57.5 0,-57.5"/>
<text text-anchor="middle" x="42" y="-64.5" font-family="Helvetica,sans-Serif" font-size="10.00">gk_getfilename</text>
</g>
<!-- Node907 -->
<g id="node2" class="node"><title>Node907</title>
<g id="a_node2"><a xlink:href="$a00077.html#af62038e97ca55f14ec2557a01bd85ca2" xlink:title="Duplicates a string. ">
<polygon fill="white" stroke="black" points="120,-57.5 120,-76.5 180,-76.5 180,-57.5 120,-57.5"/>
<text text-anchor="middle" x="150" y="-64.5" font-family="Helvetica,sans-Serif" font-size="10.00">gk_strdup</text>
</a>
</g>
</g>
<!-- Node906&#45;&gt;Node907 -->
<g id="edge1" class="edge"><title>Node906&#45;&gt;Node907</title>
<path fill="none" stroke="midnightblue" d="M84.2859,-67C92.624,-67 101.369,-67 109.639,-67"/>
<polygon fill="midnightblue" stroke="midnightblue" points="109.794,-70.5001 119.794,-67 109.794,-63.5001 109.794,-70.5001"/>
</g>
<!-- Node908 -->
<g id="node3" class="node"><title>Node908</title>
<g id="a_node3"><a xlink:href="$a00077.html#aba6f76f5c67b9b7e9c2e45988d3d3e9d" xlink:title="gk_malloc">
<polygon fill="white" stroke="black" points="216,-57.5 216,-76.5 278,-76.5 278,-57.5 216,-57.5"/>
<text text-anchor="middle" x="247" y="-64.5" font-family="Helvetica,sans-Serif" font-size="10.00">gk_malloc</text>
</a>
</g>
</g>
<!-- Node907&#45;&gt;Node908 -->
<g id="edge2" class="edge"><title>Node907&#45;&gt;Node908</title>
<path fill="none" stroke="midnightblue" d="M180.019,-67C188.088,-67 197,-67 205.595,-67"/>
<polygon fill="midnightblue" stroke="midnightblue" points="205.844,-70.5001 215.844,-67 205.843,-63.5001 205.844,-70.5001"/>
</g>
<!-- Node909 -->
<g id="node4" class="node"><title>Node909</title>
<g id="a_node4"><a xlink:href="$a01017.html#a2e311a777ffe9c80e405efa7cd2757be" xlink:title="fprintf">
<polygon fill="white" stroke="black" points="478,-57.5 478,-76.5 520,-76.5 520,-57.5 478,-57.5"/>
<text text-anchor="middle" x="499" y="-64.5" font-family="Helvetica,sans-Serif" font-size="10.00">fprintf</text>
</a>
</g>
</g>
<!-- Node908&#45;&gt;Node909 -->
<g id="edge3" class="edge"><title>Node908&#45;&gt;Node909</title>
<path fill="none" stroke="midnightblue" d="M260.261,-76.7187C272.891,-86.0589 293.563,-99.5369 314,-105 368.959,-119.691 387.62,-121.709 442,-105 456.039,-100.686 469.719,-91.5255 480.044,-83.2793"/>
<polygon fill="midnightblue" stroke="midnightblue" points="482.469,-85.8134 487.862,-76.6941 477.959,-80.4595 482.469,-85.8134"/>
</g>
<!-- Node910 -->
<g id="node5" class="node"><title>Node910</title>
<g id="a_node5"><a xlink:href="$a00110.html#ad2327b94227019b6753b6b09400c0522" xlink:title="gk_GetCurMemoryUsed">
<polygon fill="white" stroke="black" points="316,-76.5 316,-95.5 440,-95.5 440,-76.5 316,-76.5"/>
<text text-anchor="middle" x="378" y="-83.5" font-family="Helvetica,sans-Serif" font-size="10.00">gk_GetCurMemoryUsed</text>
</a>
</g>
</g>
<!-- Node908&#45;&gt;Node910 -->
<g id="edge4" class="edge"><title>Node908&#45;&gt;Node910</title>
<path fill="none" stroke="midnightblue" d="M278.245,-71.4547C286.646,-72.692 296.139,-74.0903 305.836,-75.5184"/>
<polygon fill="midnightblue" stroke="midnightblue" points="305.573,-79.0175 315.977,-77.0121 306.593,-72.0922 305.573,-79.0175"/>
</g>
<!-- Node911 -->
<g id="node6" class="node"><title>Node911</title>
<g id="a_node6"><a xlink:href="$a00110.html#a656fd5266ae12a96e53125486f8fea52" xlink:title="gk_GetMaxMemoryUsed">
<polygon fill="white" stroke="black" points="314.5,-38.5 314.5,-57.5 441.5,-57.5 441.5,-38.5 314.5,-38.5"/>
<text text-anchor="middle" x="378" y="-45.5" font-family="Helvetica,sans-Serif" font-size="10.00">gk_GetMaxMemoryUsed</text>
</a>
</g>
</g>
<!-- Node908&#45;&gt;Node911 -->
<g id="edge5" class="edge"><title>Node908&#45;&gt;Node911</title>
<path fill="none" stroke="midnightblue" d="M278.245,-62.5453C286.229,-61.3693 295.2,-60.048 304.395,-58.6938"/>
<polygon fill="midnightblue" stroke="midnightblue" points="305.04,-62.1366 314.423,-57.2167 304.02,-55.2113 305.04,-62.1366"/>
</g>
<!-- Node912 -->
<g id="node7" class="node"><title>Node912</title>
<g id="a_node7"><a xlink:href="$a00026.html#a4c320c13bcdc9967613253ef4c73f59f" xlink:title="gk_errexit">
<polygon fill="white" stroke="black" points="348,-0.5 348,-19.5 408,-19.5 408,-0.5 348,-0.5"/>
<text text-anchor="middle" x="378" y="-7.5" font-family="Helvetica,sans-Serif" font-size="10.00">gk_errexit</text>
</a>
</g>
</g>
<!-- Node908&#45;&gt;Node912 -->
<g id="edge6" class="edge"><title>Node908&#45;&gt;Node912</title>
<path fill="none" stroke="midnightblue" d="M262.436,-57.3905C275.481,-49.027 295.428,-37.0202 314,-29 321.68,-25.6834 330.121,-22.7096 338.259,-20.1539"/>
<polygon fill="midnightblue" stroke="midnightblue" points="339.388,-23.4695 347.965,-17.2488 337.381,-16.7634 339.388,-23.4695"/>
</g>
<!-- Node912&#45;&gt;Node909 -->
<g id="edge7" class="edge"><title>Node912&#45;&gt;Node909</title>
<path fill="none" stroke="midnightblue" d="M408.228,-16.8252C419.104,-19.8755 431.377,-23.9396 442,-29 454.634,-35.0184 467.634,-43.6626 477.925,-51.1863"/>
<polygon fill="midnightblue" stroke="midnightblue" points="476.101,-54.1937 486.194,-57.4154 480.313,-48.6027 476.101,-54.1937"/>
</g>
</g>
</svg>
