<?xml version="1.0" encoding="UTF-8" standalone="no"?>
<!DOCTYPE svg PUBLIC "-//W3C//DTD SVG 1.1//EN"
 "http://www.w3.org/Graphics/SVG/1.1/DTD/svg11.dtd">
<!-- Generated by graphviz version 2.36.0 (20140111.2315)
 -->
<!-- Title: gk_graph_Write Pages: 1 -->
<svg width="350pt" height="180pt"
 viewBox="0.00 0.00 350.00 180.00" xmlns="http://www.w3.org/2000/svg" xmlns:xlink="http://www.w3.org/1999/xlink">
<g id="graph0" class="graph" transform="scale(1 1) rotate(0) translate(4 176)">
<title>gk_graph_Write</title>
<polygon fill="white" stroke="none" points="-4,4 -4,-176 346,-176 346,4 -4,4"/>
<!-- Node1174 -->
<g id="node1" class="node"><title>Node1174</title>
<polygon fill="#bfbfbf" stroke="black" points="0.5,-95.5 0.5,-114.5 87.5,-114.5 87.5,-95.5 0.5,-95.5"/>
<text text-anchor="middle" x="44" y="-102.5" font-family="Helvetica,sans-Serif" font-size="10.00">gk_graph_Write</text>
</g>
<!-- Node1175 -->
<g id="node2" class="node"><title>Node1175</title>
<g id="a_node2"><a xlink:href="$a00026.html#a4c320c13bcdc9967613253ef4c73f59f" xlink:title="gk_errexit">
<polygon fill="white" stroke="black" points="124,-152.5 124,-171.5 184,-171.5 184,-152.5 124,-152.5"/>
<text text-anchor="middle" x="154" y="-159.5" font-family="Helvetica,sans-Serif" font-size="10.00">gk_errexit</text>
</a>
</g>
</g>
<!-- Node1174&#45;&gt;Node1175 -->
<g id="edge1" class="edge"><title>Node1174&#45;&gt;Node1175</title>
<path fill="none" stroke="midnightblue" d="M63.3207,-114.669C80.4912,-123.731 106.373,-137.391 125.926,-147.711"/>
<polygon fill="midnightblue" stroke="midnightblue" points="124.472,-150.901 134.95,-152.474 127.74,-144.711 124.472,-150.901"/>
</g>
<!-- Node1176 -->
<g id="node3" class="node"><title>Node1176</title>
<g id="a_node3"><a xlink:href="$a01017.html#a2e311a777ffe9c80e405efa7cd2757be" xlink:title="fprintf">
<polygon fill="white" stroke="black" points="300,-114.5 300,-133.5 342,-133.5 342,-114.5 300,-114.5"/>
<text text-anchor="middle" x="321" y="-121.5" font-family="Helvetica,sans-Serif" font-size="10.00">fprintf</text>
</a>
</g>
</g>
<!-- Node1174&#45;&gt;Node1176 -->
<g id="edge7" class="edge"><title>Node1174&#45;&gt;Node1176</title>
<path fill="none" stroke="midnightblue" d="M87.667,-107.948C143.629,-111.814 240.454,-118.504 289.557,-121.897"/>
<polygon fill="midnightblue" stroke="midnightblue" points="289.623,-125.41 299.841,-122.607 290.106,-118.426 289.623,-125.41"/>
</g>
<!-- Node1177 -->
<g id="node4" class="node"><title>Node1177</title>
<g id="a_node4"><a xlink:href="$a00077.html#ab2b996e10c5bccb30204d81804adfd24" xlink:title="gk_fopen">
<polygon fill="white" stroke="black" points="125,-76.5 125,-95.5 183,-95.5 183,-76.5 125,-76.5"/>
<text text-anchor="middle" x="154" y="-83.5" font-family="Helvetica,sans-Serif" font-size="10.00">gk_fopen</text>
</a>
</g>
</g>
<!-- Node1174&#45;&gt;Node1177 -->
<g id="edge3" class="edge"><title>Node1174&#45;&gt;Node1177</title>
<path fill="none" stroke="midnightblue" d="M87.6845,-97.4907C96.6686,-95.9102 106.09,-94.2526 114.893,-92.704"/>
<polygon fill="midnightblue" stroke="midnightblue" points="115.638,-96.1269 124.88,-90.9471 114.425,-89.2327 115.638,-96.1269"/>
</g>
<!-- Node1180 -->
<g id="node7" class="node"><title>Node1180</title>
<g id="a_node7"><a xlink:href="$a00077.html#a0fd03cab5187904b005485109d9fa2b5" xlink:title="gk_fclose">
<polygon fill="white" stroke="black" points="124.5,-19.5 124.5,-38.5 183.5,-38.5 183.5,-19.5 124.5,-19.5"/>
<text text-anchor="middle" x="154" y="-26.5" font-family="Helvetica,sans-Serif" font-size="10.00">gk_fclose</text>
</a>
</g>
</g>
<!-- Node1174&#45;&gt;Node1180 -->
<g id="edge8" class="edge"><title>Node1174&#45;&gt;Node1180</title>
<path fill="none" stroke="midnightblue" d="M58.6783,-95.3745C76.9369,-82.5259 109.485,-59.6219 131.159,-44.3695"/>
<polygon fill="midnightblue" stroke="midnightblue" points="133.269,-47.1646 139.433,-38.5473 129.24,-41.4399 133.269,-47.1646"/>
</g>
<!-- Node1175&#45;&gt;Node1176 -->
<g id="edge2" class="edge"><title>Node1175&#45;&gt;Node1176</title>
<path fill="none" stroke="midnightblue" d="M184.197,-155.806C206.176,-151.086 237.026,-144.34 264,-138 272.461,-136.011 281.618,-133.763 290.026,-131.659"/>
<polygon fill="midnightblue" stroke="midnightblue" points="290.974,-135.03 299.816,-129.192 289.263,-128.242 290.974,-135.03"/>
</g>
<!-- Node1178 -->
<g id="node5" class="node"><title>Node1178</title>
<g id="a_node5"><a xlink:href="$a00575.html#ae6aab5c308faac0fc539cc9c6da9fbd0" xlink:title="sprintf">
<polygon fill="white" stroke="black" points="220,-76.5 220,-95.5 264,-95.5 264,-76.5 220,-76.5"/>
<text text-anchor="middle" x="242" y="-83.5" font-family="Helvetica,sans-Serif" font-size="10.00">sprintf</text>
</a>
</g>
</g>
<!-- Node1177&#45;&gt;Node1178 -->
<g id="edge4" class="edge"><title>Node1177&#45;&gt;Node1178</title>
<path fill="none" stroke="midnightblue" d="M183.16,-86C191.657,-86 201.036,-86 209.724,-86"/>
<polygon fill="midnightblue" stroke="midnightblue" points="209.873,-89.5001 219.873,-86 209.873,-82.5001 209.873,-89.5001"/>
</g>
<!-- Node1179 -->
<g id="node6" class="node"><title>Node1179</title>
<g id="a_node6"><a xlink:href="$a00026.html#a56d0f2cc40cd8633a784582d6200d8b5" xlink:title="errexit">
<polygon fill="white" stroke="black" points="220,-38.5 220,-57.5 264,-57.5 264,-38.5 220,-38.5"/>
<text text-anchor="middle" x="242" y="-45.5" font-family="Helvetica,sans-Serif" font-size="10.00">errexit</text>
</a>
</g>
</g>
<!-- Node1177&#45;&gt;Node1179 -->
<g id="edge5" class="edge"><title>Node1177&#45;&gt;Node1179</title>
<path fill="none" stroke="midnightblue" d="M176.701,-76.411C186.939,-71.8876 199.331,-66.4121 210.493,-61.48"/>
<polygon fill="midnightblue" stroke="midnightblue" points="212.168,-64.5663 219.9,-57.3232 209.339,-58.1635 212.168,-64.5663"/>
</g>
<!-- Node1179&#45;&gt;Node1176 -->
<g id="edge6" class="edge"><title>Node1179&#45;&gt;Node1176</title>
<path fill="none" stroke="midnightblue" d="M253.795,-57.546C257.106,-60.5332 260.737,-63.868 264,-67 277.662,-80.1118 292.676,-95.4465 303.716,-106.906"/>
<polygon fill="midnightblue" stroke="midnightblue" points="301.211,-109.35 310.659,-114.145 306.263,-104.505 301.211,-109.35"/>
</g>
<!-- Node1181 -->
<g id="node8" class="node"><title>Node1181</title>
<g id="a_node8"><a xlink:href="$a01017.html#a355ed4cdac2a27aa04a6689ac2d7e86e" xlink:title="fclose">
<polygon fill="white" stroke="black" points="220.5,-0.5 220.5,-19.5 263.5,-19.5 263.5,-0.5 220.5,-0.5"/>
<text text-anchor="middle" x="242" y="-7.5" font-family="Helvetica,sans-Serif" font-size="10.00">fclose</text>
</a>
</g>
</g>
<!-- Node1180&#45;&gt;Node1181 -->
<g id="edge9" class="edge"><title>Node1180&#45;&gt;Node1181</title>
<path fill="none" stroke="midnightblue" d="M183.637,-22.6733C192.276,-20.7646 201.79,-18.6628 210.543,-16.7289"/>
<polygon fill="midnightblue" stroke="midnightblue" points="211.362,-20.1323 220.372,-14.5574 209.852,-13.2972 211.362,-20.1323"/>
</g>
</g>
</svg>
