<?xml version="1.0" encoding="UTF-8" standalone="no"?>
<!DOCTYPE svg PUBLIC "-//W3C//DTD SVG 1.1//EN"
 "http://www.w3.org/Graphics/SVG/1.1/DTD/svg11.dtd">
<!-- Generated by graphviz version 2.36.0 (20140111.2315)
 -->
<!-- Title: gk_fsorti Pages: 1 -->
<svg width="230pt" height="28pt"
 viewBox="0.00 0.00 230.00 28.00" xmlns="http://www.w3.org/2000/svg" xmlns:xlink="http://www.w3.org/1999/xlink">
<g id="graph0" class="graph" transform="scale(1 1) rotate(0) translate(4 24)">
<title>gk_fsorti</title>
<polygon fill="white" stroke="none" points="-4,4 -4,-24 226,-24 226,4 -4,4"/>
<!-- Node782 -->
<g id="node1" class="node"><title>Node782</title>
<polygon fill="#bfbfbf" stroke="black" points="0,-0.5 0,-19.5 54,-19.5 54,-0.5 0,-0.5"/>
<text text-anchor="middle" x="27" y="-7.5" font-family="Helvetica,sans-Serif" font-size="10.00">gk_fsorti</text>
</g>
<!-- Node783 -->
<g id="node2" class="node"><title>Node783</title>
<g id="a_node2"><a xlink:href="$a00152.html#a92bfe9a7c6bec5eab568c71eda7eb1f1" xlink:title="test_fsort">
<polygon fill="white" stroke="black" points="90,-0.5 90,-19.5 148,-19.5 148,-0.5 90,-0.5"/>
<text text-anchor="middle" x="119" y="-7.5" font-family="Helvetica,sans-Serif" font-size="10.00">test_fsort</text>
</a>
</g>
</g>
<!-- Node782&#45;&gt;Node783 -->
<g id="edge1" class="edge"><title>Node782&#45;&gt;Node783</title>
<path fill="none" stroke="midnightblue" d="M64.1508,-10C72.6986,-10 81.6899,-10 89.8243,-10"/>
<polygon fill="midnightblue" stroke="midnightblue" points="64.0318,-6.5001 54.0317,-10 64.0317,-13.5001 64.0318,-6.5001"/>
</g>
<!-- Node784 -->
<g id="node3" class="node"><title>Node784</title>
<g id="a_node3"><a xlink:href="$a00152.html#ae66f6b31b5ad750f1fe042a706a4e3d4" xlink:title="main">
<polygon fill="white" stroke="black" points="184,-0.5 184,-19.5 222,-19.5 222,-0.5 184,-0.5"/>
<text text-anchor="middle" x="203" y="-7.5" font-family="Helvetica,sans-Serif" font-size="10.00">main</text>
</a>
</g>
</g>
<!-- Node783&#45;&gt;Node784 -->
<g id="edge2" class="edge"><title>Node783&#45;&gt;Node784</title>
<path fill="none" stroke="midnightblue" d="M158.338,-10C167.103,-10 176.032,-10 183.511,-10"/>
<polygon fill="midnightblue" stroke="midnightblue" points="158.22,-6.5001 148.22,-10 158.22,-13.5001 158.22,-6.5001"/>
</g>
</g>
</svg>
