<?xml version="1.0" encoding="UTF-8" standalone="no"?>
<!DOCTYPE svg PUBLIC "-//W3C//DTD SVG 1.1//EN"
 "http://www.w3.org/Graphics/SVG/1.1/DTD/svg11.dtd">
<!-- Generated by graphviz version 2.36.0 (20140111.2315)
 -->
<!-- Title: gk_fclose Pages: 1 -->
<svg width="460pt" height="868pt"
 viewBox="0.00 0.00 460.00 867.50" xmlns="http://www.w3.org/2000/svg" xmlns:xlink="http://www.w3.org/1999/xlink">
<g id="graph0" class="graph" transform="scale(1 1) rotate(0) translate(4 863.502)">
<title>gk_fclose</title>
<polygon fill="white" stroke="none" points="-4,4 -4,-863.502 456,-863.502 456,4 -4,4"/>
<!-- Node501 -->
<g id="node1" class="node"><title>Node501</title>
<polygon fill="#bfbfbf" stroke="black" points="0.5,-418.5 0.5,-437.5 59.5,-437.5 59.5,-418.5 0.5,-418.5"/>
<text text-anchor="middle" x="30" y="-425.5" font-family="Helvetica,sans-Serif" font-size="10.00">gk_fclose</text>
</g>
<!-- Node502 -->
<g id="node2" class="node"><title>Node502</title>
<g id="a_node2"><a xlink:href="$a00077.html#a8ebc19fe9a291bdf67677ebdaae56592" xlink:title="gk_csr_Read">
<polygon fill="white" stroke="black" points="268.5,-798.5 268.5,-817.5 343.5,-817.5 343.5,-798.5 268.5,-798.5"/>
<text text-anchor="middle" x="306" y="-805.5" font-family="Helvetica,sans-Serif" font-size="10.00">gk_csr_Read</text>
</a>
</g>
</g>
<!-- Node501&#45;&gt;Node502 -->
<g id="edge1" class="edge"><title>Node501&#45;&gt;Node502</title>
<path fill="none" stroke="midnightblue" d="M31.8254,-447.757C35.0223,-514.201 48.8599,-727.998 96,-774 141.779,-818.675 221.88,-818.327 268.498,-813.52"/>
<polygon fill="midnightblue" stroke="midnightblue" points="35.3218,-447.597 31.373,-437.766 28.329,-447.914 35.3218,-447.597"/>
</g>
<!-- Node503 -->
<g id="node3" class="node"><title>Node503</title>
<g id="a_node3"><a xlink:href="$a00867.html#a0ddf1224851353fc92bfbff6f499fa97" xlink:title="main">
<polygon fill="white" stroke="black" points="414,-817.5 414,-836.5 452,-836.5 452,-817.5 414,-817.5"/>
<text text-anchor="middle" x="433" y="-824.5" font-family="Helvetica,sans-Serif" font-size="10.00">main</text>
</a>
</g>
</g>
<!-- Node501&#45;&gt;Node503 -->
<g id="edge39" class="edge"><title>Node501&#45;&gt;Node503</title>
<path fill="none" stroke="midnightblue" d="M31.4429,-447.8C33.4507,-518.409 44.0269,-756.357 96,-807 184.938,-893.661 357.739,-850.232 413.896,-832.97"/>
<polygon fill="midnightblue" stroke="midnightblue" points="34.9372,-447.531 31.1816,-437.624 27.9395,-447.711 34.9372,-447.531"/>
</g>
<!-- Node504 -->
<g id="node4" class="node"><title>Node504</title>
<g id="a_node4"><a xlink:href="$a00077.html#a6eee009c30261b4b9450016267b4567c" xlink:title="gk_csr_Write">
<polygon fill="white" stroke="black" points="109.5,-532.5 109.5,-551.5 184.5,-551.5 184.5,-532.5 109.5,-532.5"/>
<text text-anchor="middle" x="147" y="-539.5" font-family="Helvetica,sans-Serif" font-size="10.00">gk_csr_Write</text>
</a>
</g>
</g>
<!-- Node501&#45;&gt;Node504 -->
<g id="edge3" class="edge"><title>Node501&#45;&gt;Node504</title>
<path fill="none" stroke="midnightblue" d="M39.4893,-446.757C49.9705,-467.982 69.6872,-502.284 96,-523 100.816,-526.791 106.471,-529.891 112.214,-532.403"/>
<polygon fill="midnightblue" stroke="midnightblue" points="42.5477,-445.038 35.0975,-437.505 36.224,-448.04 42.5477,-445.038"/>
</g>
<!-- Node505 -->
<g id="node5" class="node"><title>Node505</title>
<g id="a_node5"><a xlink:href="$a00077.html#a739112cb142f2e96d6952140c66cd31c" xlink:title="gk_getfilestats">
<polygon fill="white" stroke="black" points="107,-684.5 107,-703.5 187,-703.5 187,-684.5 107,-684.5"/>
<text text-anchor="middle" x="147" y="-691.5" font-family="Helvetica,sans-Serif" font-size="10.00">gk_getfilestats</text>
</a>
</g>
</g>
<!-- Node501&#45;&gt;Node505 -->
<g id="edge4" class="edge"><title>Node501&#45;&gt;Node505</title>
<path fill="none" stroke="midnightblue" d="M30.9844,-447.699C31.9687,-492.408 40.2763,-602.873 96,-670 101.166,-676.223 108.325,-680.947 115.613,-684.484"/>
<polygon fill="midnightblue" stroke="midnightblue" points="34.483,-447.549 30.8674,-437.59 27.4834,-447.63 34.483,-447.549"/>
</g>
<!-- Node506 -->
<g id="node6" class="node"><title>Node506</title>
<g id="a_node6"><a xlink:href="$a00858.html#ad13e689608e193482a6f30b1ade87814" xlink:title="gk_readfile">
<polygon fill="white" stroke="black" points="273.5,-758.5 273.5,-777.5 338.5,-777.5 338.5,-758.5 273.5,-758.5"/>
<text text-anchor="middle" x="306" y="-765.5" font-family="Helvetica,sans-Serif" font-size="10.00">gk_readfile</text>
</a>
</g>
</g>
<!-- Node501&#45;&gt;Node506 -->
<g id="edge16" class="edge"><title>Node501&#45;&gt;Node506</title>
<path fill="none" stroke="midnightblue" d="M32.1569,-447.583C36.259,-509.865 52.2838,-701.663 96,-742 144.371,-786.632 228.047,-781.354 273.466,-774.287"/>
<polygon fill="midnightblue" stroke="midnightblue" points="35.6453,-447.287 31.5257,-437.526 28.659,-447.726 35.6453,-447.287"/>
</g>
<!-- Node507 -->
<g id="node7" class="node"><title>Node507</title>
<g id="a_node7"><a xlink:href="$a00858.html#a201c46a9a2bf9c06a917f259d109b7ee" xlink:title="gk_i32readfile">
<polygon fill="white" stroke="black" points="266.5,-715.5 266.5,-734.5 345.5,-734.5 345.5,-715.5 266.5,-715.5"/>
<text text-anchor="middle" x="306" y="-722.5" font-family="Helvetica,sans-Serif" font-size="10.00">gk_i32readfile</text>
</a>
</g>
</g>
<!-- Node501&#45;&gt;Node507 -->
<g id="edge17" class="edge"><title>Node501&#45;&gt;Node507</title>
<path fill="none" stroke="midnightblue" d="M32.5011,-447.778C37.4024,-506.575 55.0385,-678.361 96,-713 144.427,-753.952 223.943,-744.65 269.664,-734.577"/>
<polygon fill="midnightblue" stroke="midnightblue" points="35.9732,-447.288 31.6875,-437.599 28.9955,-447.846 35.9732,-447.288"/>
</g>
<!-- Node508 -->
<g id="node8" class="node"><title>Node508</title>
<g id="a_node8"><a xlink:href="$a00858.html#a8cb19aa95a831aa745f6e04e1cc0b204" xlink:title="gk_i64readfile">
<polygon fill="white" stroke="black" points="266.5,-668.5 266.5,-687.5 345.5,-687.5 345.5,-668.5 266.5,-668.5"/>
<text text-anchor="middle" x="306" y="-675.5" font-family="Helvetica,sans-Serif" font-size="10.00">gk_i64readfile</text>
</a>
</g>
</g>
<!-- Node501&#45;&gt;Node508 -->
<g id="edge18" class="edge"><title>Node501&#45;&gt;Node508</title>
<path fill="none" stroke="midnightblue" d="M31.8655,-448.113C34.6535,-487.071 46.4142,-573.103 96,-620 142.646,-664.116 219.866,-675.196 266.243,-677.675"/>
<polygon fill="midnightblue" stroke="midnightblue" points="35.3306,-447.41 31.2564,-437.63 28.3424,-447.816 35.3306,-447.41"/>
</g>
<!-- Node509 -->
<g id="node9" class="node"><title>Node509</title>
<g id="a_node9"><a xlink:href="$a00951.html#aef01a8b2c6432d21be77abeabeeeced8" xlink:title="ReadMesh">
<polygon fill="white" stroke="black" points="273.5,-611.5 273.5,-630.5 338.5,-630.5 338.5,-611.5 273.5,-611.5"/>
<text text-anchor="middle" x="306" y="-618.5" font-family="Helvetica,sans-Serif" font-size="10.00">ReadMesh</text>
</a>
</g>
</g>
<!-- Node501&#45;&gt;Node509 -->
<g id="edge26" class="edge"><title>Node501&#45;&gt;Node509</title>
<path fill="none" stroke="midnightblue" d="M32.8076,-447.733C37.1028,-482.31 51.1926,-553.537 96,-589 147.378,-629.663 228.72,-629.178 273.26,-625.158"/>
<polygon fill="midnightblue" stroke="midnightblue" points="36.2572,-447.079 31.6962,-437.516 29.2982,-447.836 36.2572,-447.079"/>
</g>
<!-- Node511 -->
<g id="node11" class="node"><title>Node511</title>
<g id="a_node11"><a xlink:href="$a00137.html#ad44124c9b40b8ffda2276f877526a261" xlink:title="This function reads a pssm in the format of gkmod pssm. ">
<polygon fill="white" stroke="black" points="234,-571.5 234,-590.5 378,-590.5 378,-571.5 234,-571.5"/>
<text text-anchor="middle" x="306" y="-578.5" font-family="Helvetica,sans-Serif" font-size="10.00">gk_seq_ReadGKMODPSSM</text>
</a>
</g>
</g>
<!-- Node501&#45;&gt;Node511 -->
<g id="edge40" class="edge"><title>Node501&#45;&gt;Node511</title>
<path fill="none" stroke="midnightblue" d="M34.4456,-447.909C40.7965,-477.97 57.409,-534.268 96,-561 136.901,-589.332 193.604,-593.136 237.631,-590.515"/>
<polygon fill="midnightblue" stroke="midnightblue" points="37.8237,-446.943 32.4895,-437.789 30.9509,-448.271 37.8237,-446.943"/>
</g>
<!-- Node512 -->
<g id="node12" class="node"><title>Node512</title>
<g id="a_node12"><a xlink:href="$a00849.html#a432baae7f5c91c3604b42efb324b4131" xlink:title="gk_graph_Read">
<polygon fill="white" stroke="black" points="103,-456.5 103,-475.5 191,-475.5 191,-456.5 103,-456.5"/>
<text text-anchor="middle" x="147" y="-463.5" font-family="Helvetica,sans-Serif" font-size="10.00">gk_graph_Read</text>
</a>
</g>
</g>
<!-- Node501&#45;&gt;Node512 -->
<g id="edge12" class="edge"><title>Node501&#45;&gt;Node512</title>
<path fill="none" stroke="midnightblue" d="M69.602,-440.755C85.1767,-445.902 102.833,-451.736 117.245,-456.498"/>
<polygon fill="midnightblue" stroke="midnightblue" points="70.3159,-437.305 59.7227,-437.491 68.1196,-443.952 70.3159,-437.305"/>
</g>
<!-- Node514 -->
<g id="node14" class="node"><title>Node514</title>
<g id="a_node14"><a xlink:href="$a00849.html#a92bfa3f7bc76f9fb591ad67f665383e9" xlink:title="gk_graph_Write">
<polygon fill="white" stroke="black" points="103.5,-494.5 103.5,-513.5 190.5,-513.5 190.5,-494.5 103.5,-494.5"/>
<text text-anchor="middle" x="147" y="-501.5" font-family="Helvetica,sans-Serif" font-size="10.00">gk_graph_Write</text>
</a>
</g>
</g>
<!-- Node501&#45;&gt;Node514 -->
<g id="edge14" class="edge"><title>Node501&#45;&gt;Node514</title>
<path fill="none" stroke="midnightblue" d="M47.132,-445.116C59.5489,-457.509 77.6421,-473.957 96,-485 102.048,-488.638 108.911,-491.79 115.573,-494.425"/>
<polygon fill="midnightblue" stroke="midnightblue" points="49.337,-442.364 39.8464,-437.655 44.3287,-447.255 49.337,-442.364"/>
</g>
<!-- Node515 -->
<g id="node15" class="node"><title>Node515</title>
<g id="a_node15"><a xlink:href="$a00858.html#afbb9b4e2327d298a79924028441a0fdb" xlink:title="gk_i32readfilebin">
<polygon fill="white" stroke="black" points="101,-418.5 101,-437.5 193,-437.5 193,-418.5 101,-418.5"/>
<text text-anchor="middle" x="147" y="-425.5" font-family="Helvetica,sans-Serif" font-size="10.00">gk_i32readfilebin</text>
</a>
</g>
</g>
<!-- Node501&#45;&gt;Node515 -->
<g id="edge19" class="edge"><title>Node501&#45;&gt;Node515</title>
<path fill="none" stroke="midnightblue" d="M70.0272,-428C79.8743,-428 90.5302,-428 100.659,-428"/>
<polygon fill="midnightblue" stroke="midnightblue" points="69.7227,-424.5 59.7227,-428 69.7227,-431.5 69.7227,-424.5"/>
</g>
<!-- Node516 -->
<g id="node16" class="node"><title>Node516</title>
<g id="a_node16"><a xlink:href="$a00858.html#aca460764497638a612f886a089662416" xlink:title="gk_i64readfilebin">
<polygon fill="white" stroke="black" points="101,-380.5 101,-399.5 193,-399.5 193,-380.5 101,-380.5"/>
<text text-anchor="middle" x="147" y="-387.5" font-family="Helvetica,sans-Serif" font-size="10.00">gk_i64readfilebin</text>
</a>
</g>
</g>
<!-- Node501&#45;&gt;Node516 -->
<g id="edge20" class="edge"><title>Node501&#45;&gt;Node516</title>
<path fill="none" stroke="midnightblue" d="M69.602,-415.245C85.1767,-410.098 102.833,-404.264 117.245,-399.502"/>
<polygon fill="midnightblue" stroke="midnightblue" points="68.1196,-412.048 59.7227,-418.509 70.3159,-418.695 68.1196,-412.048"/>
</g>
<!-- Node517 -->
<g id="node17" class="node"><title>Node517</title>
<g id="a_node17"><a xlink:href="$a00858.html#a825d4634e2e656bc3dc9f3af0c9b1d5d" xlink:title="gk_freadfilebin">
<polygon fill="white" stroke="black" points="106,-342.5 106,-361.5 188,-361.5 188,-342.5 106,-342.5"/>
<text text-anchor="middle" x="147" y="-349.5" font-family="Helvetica,sans-Serif" font-size="10.00">gk_freadfilebin</text>
</a>
</g>
</g>
<!-- Node501&#45;&gt;Node517 -->
<g id="edge21" class="edge"><title>Node501&#45;&gt;Node517</title>
<path fill="none" stroke="midnightblue" d="M47.132,-410.884C59.5489,-398.491 77.6421,-382.043 96,-371 102.048,-367.362 108.911,-364.21 115.573,-361.575"/>
<polygon fill="midnightblue" stroke="midnightblue" points="44.3287,-408.745 39.8464,-418.345 49.337,-413.636 44.3287,-408.745"/>
</g>
<!-- Node518 -->
<g id="node18" class="node"><title>Node518</title>
<g id="a_node18"><a xlink:href="$a00858.html#a44ee9129d983bd435f96f9c1404f603d" xlink:title="gk_fwritefilebin">
<polygon fill="white" stroke="black" points="105.5,-304.5 105.5,-323.5 188.5,-323.5 188.5,-304.5 105.5,-304.5"/>
<text text-anchor="middle" x="147" y="-311.5" font-family="Helvetica,sans-Serif" font-size="10.00">gk_fwritefilebin</text>
</a>
</g>
</g>
<!-- Node501&#45;&gt;Node518 -->
<g id="edge22" class="edge"><title>Node501&#45;&gt;Node518</title>
<path fill="none" stroke="midnightblue" d="M39.4893,-409.243C49.9705,-388.018 69.6872,-353.716 96,-333 100.816,-329.209 106.471,-326.109 112.214,-323.597"/>
<polygon fill="midnightblue" stroke="midnightblue" points="36.224,-407.96 35.0975,-418.495 42.5477,-410.962 36.224,-407.96"/>
</g>
<!-- Node519 -->
<g id="node19" class="node"><title>Node519</title>
<g id="a_node19"><a xlink:href="$a00858.html#a2a9dbcb6a3f167b0fd20e431612e5aa9" xlink:title="gk_dreadfilebin">
<polygon fill="white" stroke="black" points="105,-266.5 105,-285.5 189,-285.5 189,-266.5 105,-266.5"/>
<text text-anchor="middle" x="147" y="-273.5" font-family="Helvetica,sans-Serif" font-size="10.00">gk_dreadfilebin</text>
</a>
</g>
</g>
<!-- Node501&#45;&gt;Node519 -->
<g id="edge23" class="edge"><title>Node501&#45;&gt;Node519</title>
<path fill="none" stroke="midnightblue" d="M35.6232,-408.505C43.3778,-379.844 61.6426,-326.351 96,-295 100.253,-291.119 105.379,-288.004 110.705,-285.51"/>
<polygon fill="midnightblue" stroke="midnightblue" points="32.155,-407.941 33.0776,-418.496 38.9383,-409.67 32.155,-407.941"/>
</g>
<!-- Node520 -->
<g id="node20" class="node"><title>Node520</title>
<g id="a_node20"><a xlink:href="$a00951.html#ac8fe4a21ae3e0e01afdba3fedf1c6123" xlink:title="ReadGraph">
<polygon fill="white" stroke="black" points="113,-190.5 113,-209.5 181,-209.5 181,-190.5 113,-190.5"/>
<text text-anchor="middle" x="147" y="-197.5" font-family="Helvetica,sans-Serif" font-size="10.00">ReadGraph</text>
</a>
</g>
</g>
<!-- Node501&#45;&gt;Node520 -->
<g id="edge24" class="edge"><title>Node501&#45;&gt;Node520</title>
<path fill="none" stroke="midnightblue" d="M31.612,-408.208C33.9257,-367.448 44.8472,-273.406 96,-219 100.643,-214.061 106.704,-210.394 112.997,-207.675"/>
<polygon fill="midnightblue" stroke="midnightblue" points="28.1149,-408.067 31.1614,-418.215 35.1078,-408.382 28.1149,-408.067"/>
</g>
<!-- Node522 -->
<g id="node22" class="node"><title>Node522</title>
<g id="a_node22"><a xlink:href="$a00951.html#a12b940ccee061b8787088fbe16245f46" xlink:title="ReadTPwgts">
<polygon fill="white" stroke="black" points="110,-114.5 110,-133.5 184,-133.5 184,-114.5 110,-114.5"/>
<text text-anchor="middle" x="147" y="-121.5" font-family="Helvetica,sans-Serif" font-size="10.00">ReadTPwgts</text>
</a>
</g>
</g>
<!-- Node501&#45;&gt;Node522 -->
<g id="edge27" class="edge"><title>Node501&#45;&gt;Node522</title>
<path fill="none" stroke="midnightblue" d="M33.0675,-408.371C39.5017,-350.713 60.87,-183.383 96,-143 99.7788,-138.656 104.66,-135.302 109.888,-132.713"/>
<polygon fill="midnightblue" stroke="midnightblue" points="29.5819,-408.05 31.9801,-418.37 36.5408,-408.807 29.5819,-408.05"/>
</g>
<!-- Node524 -->
<g id="node24" class="node"><title>Node524</title>
<g id="a_node24"><a xlink:href="$a00951.html#a65a7c382444e5132dafddb75b6117754" xlink:title="ReadPOVector">
<polygon fill="white" stroke="black" points="105,-228.5 105,-247.5 189,-247.5 189,-228.5 105,-228.5"/>
<text text-anchor="middle" x="147" y="-235.5" font-family="Helvetica,sans-Serif" font-size="10.00">ReadPOVector</text>
</a>
</g>
</g>
<!-- Node501&#45;&gt;Node524 -->
<g id="edge29" class="edge"><title>Node501&#45;&gt;Node524</title>
<path fill="none" stroke="midnightblue" d="M33.2585,-408.032C38.2612,-372.862 53.4248,-299.571 96,-257 99.8743,-253.126 104.619,-250.029 109.626,-247.555"/>
<polygon fill="midnightblue" stroke="midnightblue" points="29.7295,-408.034 31.9265,-418.399 36.6725,-408.926 29.7295,-408.034"/>
</g>
<!-- Node525 -->
<g id="node25" class="node"><title>Node525</title>
<g id="a_node25"><a xlink:href="$a00951.html#ad05062397a736c5602a72c2419deffbf" xlink:title="WritePartition">
<polygon fill="white" stroke="black" points="108.5,-152.5 108.5,-171.5 185.5,-171.5 185.5,-152.5 108.5,-152.5"/>
<text text-anchor="middle" x="147" y="-159.5" font-family="Helvetica,sans-Serif" font-size="10.00">WritePartition</text>
</a>
</g>
</g>
<!-- Node501&#45;&gt;Node525 -->
<g id="edge31" class="edge"><title>Node501&#45;&gt;Node525</title>
<path fill="none" stroke="midnightblue" d="M30.4583,-407.851C30.3214,-361.707 36.408,-247.257 96,-181 99.4775,-177.134 103.826,-174.049 108.499,-171.591"/>
<polygon fill="midnightblue" stroke="midnightblue" points="26.9612,-408.089 30.5985,-418.04 33.9605,-407.992 26.9612,-408.089"/>
</g>
<!-- Node526 -->
<g id="node26" class="node"><title>Node526</title>
<g id="a_node26"><a xlink:href="$a00951.html#ac8ce682e47fbcfad378ee4100ab091ca" xlink:title="WriteMeshPartition">
<polygon fill="white" stroke="black" points="96.5,-76.5 96.5,-95.5 197.5,-95.5 197.5,-76.5 96.5,-76.5"/>
<text text-anchor="middle" x="147" y="-83.5" font-family="Helvetica,sans-Serif" font-size="10.00">WriteMeshPartition</text>
</a>
</g>
</g>
<!-- Node501&#45;&gt;Node526 -->
<g id="edge33" class="edge"><title>Node501&#45;&gt;Node526</title>
<path fill="none" stroke="midnightblue" d="M32.5006,-408.276C37.646,-345.483 56.4808,-151.623 96,-105 99.2424,-101.175 103.342,-98.1179 107.792,-95.6755"/>
<polygon fill="midnightblue" stroke="midnightblue" points="28.9985,-408.166 31.6973,-418.411 35.9766,-408.719 28.9985,-408.166"/>
</g>
<!-- Node528 -->
<g id="node28" class="node"><title>Node528</title>
<g id="a_node28"><a xlink:href="$a00951.html#a1c37c9f8d06b4dea85ac0ab2abe762eb" xlink:title="WritePermutation">
<polygon fill="white" stroke="black" points="100,-38.5 100,-57.5 194,-57.5 194,-38.5 100,-38.5"/>
<text text-anchor="middle" x="147" y="-45.5" font-family="Helvetica,sans-Serif" font-size="10.00">WritePermutation</text>
</a>
</g>
</g>
<!-- Node501&#45;&gt;Node528 -->
<g id="edge35" class="edge"><title>Node501&#45;&gt;Node528</title>
<path fill="none" stroke="midnightblue" d="M32.0469,-408.193C35.9963,-340.545 52.0672,-119.917 96,-67 99.2031,-63.1418 103.28,-60.0659 107.719,-57.6139"/>
<polygon fill="midnightblue" stroke="midnightblue" points="28.5437,-408.156 31.4802,-418.336 35.5328,-408.547 28.5437,-408.156"/>
</g>
<!-- Node530 -->
<g id="node30" class="node"><title>Node530</title>
<g id="a_node30"><a xlink:href="$a00951.html#a91b3b24f2b508da8f2e2df7bc2c94cc6" xlink:title="WriteGraph">
<polygon fill="white" stroke="black" points="113,-0.5 113,-19.5 181,-19.5 181,-0.5 113,-0.5"/>
<text text-anchor="middle" x="147" y="-7.5" font-family="Helvetica,sans-Serif" font-size="10.00">WriteGraph</text>
</a>
</g>
</g>
<!-- Node501&#45;&gt;Node530 -->
<g id="edge37" class="edge"><title>Node501&#45;&gt;Node530</title>
<path fill="none" stroke="midnightblue" d="M31.6788,-408.025C34.5191,-335.64 47.6543,-88.2293 96,-29 100.404,-23.6046 106.519,-19.7397 112.965,-16.9718"/>
<polygon fill="midnightblue" stroke="midnightblue" points="28.1663,-408.302 31.2959,-418.424 35.1616,-408.559 28.1663,-408.302"/>
</g>
<!-- Node502&#45;&gt;Node503 -->
<g id="edge2" class="edge"><title>Node502&#45;&gt;Node503</title>
<path fill="none" stroke="midnightblue" d="M353.84,-815.12C374.734,-818.296 398.123,-821.851 413.824,-824.237"/>
<polygon fill="midnightblue" stroke="midnightblue" points="354.24,-811.64 343.828,-813.598 353.188,-818.561 354.24,-811.64"/>
</g>
<!-- Node505&#45;&gt;Node502 -->
<g id="edge5" class="edge"><title>Node505&#45;&gt;Node502</title>
<path fill="none" stroke="midnightblue" d="M160.111,-712.129C175.068,-733.14 202.435,-767.385 234,-787 244.372,-793.445 256.823,-797.999 268.383,-801.177"/>
<polygon fill="midnightblue" stroke="midnightblue" points="162.885,-709.987 154.313,-703.76 157.131,-713.973 162.885,-709.987"/>
</g>
<!-- Node505&#45;&gt;Node506 -->
<g id="edge6" class="edge"><title>Node505&#45;&gt;Node506</title>
<path fill="none" stroke="midnightblue" d="M171.083,-709.13C188.022,-719.804 211.843,-733.937 234,-744 246.558,-749.703 260.889,-754.798 273.372,-758.811"/>
<polygon fill="midnightblue" stroke="midnightblue" points="172.745,-706.039 162.434,-703.603 168.976,-711.937 172.745,-706.039"/>
</g>
<!-- Node505&#45;&gt;Node507 -->
<g id="edge7" class="edge"><title>Node505&#45;&gt;Node507</title>
<path fill="none" stroke="midnightblue" d="M197.161,-703.707C219.447,-708.107 245.417,-713.235 266.287,-717.356"/>
<polygon fill="midnightblue" stroke="midnightblue" points="197.701,-700.246 187.213,-701.743 196.345,-707.114 197.701,-700.246"/>
</g>
<!-- Node505&#45;&gt;Node508 -->
<g id="edge8" class="edge"><title>Node505&#45;&gt;Node508</title>
<path fill="none" stroke="midnightblue" d="M197.463,-688.959C219.681,-686.695 245.511,-684.063 266.287,-681.945"/>
<polygon fill="midnightblue" stroke="midnightblue" points="196.806,-685.508 187.213,-690.004 197.516,-692.472 196.806,-685.508"/>
</g>
<!-- Node505&#45;&gt;Node509 -->
<g id="edge9" class="edge"><title>Node505&#45;&gt;Node509</title>
<path fill="none" stroke="midnightblue" d="M177.622,-680.227C208.844,-665.709 257.199,-643.226 284.47,-630.546"/>
<polygon fill="midnightblue" stroke="midnightblue" points="176.117,-677.067 168.525,-684.457 179.068,-683.414 176.117,-677.067"/>
</g>
<!-- Node505&#45;&gt;Node511 -->
<g id="edge11" class="edge"><title>Node505&#45;&gt;Node511</title>
<path fill="none" stroke="midnightblue" d="M160.156,-676.071C175.156,-655.289 202.565,-621.417 234,-602 241.765,-597.204 250.684,-593.453 259.519,-590.536"/>
<polygon fill="midnightblue" stroke="midnightblue" points="157.226,-674.153 154.34,-684.347 162.953,-678.178 157.226,-674.153"/>
</g>
<!-- Node510 -->
<g id="node10" class="node"><title>Node510</title>
<g id="a_node10"><a xlink:href="$a00317.html#a0ddf1224851353fc92bfbff6f499fa97" xlink:title="main">
<polygon fill="white" stroke="black" points="414,-611.5 414,-630.5 452,-630.5 452,-611.5 414,-611.5"/>
<text text-anchor="middle" x="433" y="-618.5" font-family="Helvetica,sans-Serif" font-size="10.00">main</text>
</a>
</g>
</g>
<!-- Node509&#45;&gt;Node510 -->
<g id="edge10" class="edge"><title>Node509&#45;&gt;Node510</title>
<path fill="none" stroke="midnightblue" d="M348.668,-621C370.705,-621 396.643,-621 413.657,-621"/>
<polygon fill="midnightblue" stroke="midnightblue" points="348.543,-617.5 338.543,-621 348.543,-624.5 348.543,-617.5"/>
</g>
<!-- Node513 -->
<g id="node13" class="node"><title>Node513</title>
<g id="a_node13"><a xlink:href="$a00149.html#a0ddf1224851353fc92bfbff6f499fa97" xlink:title="main">
<polygon fill="white" stroke="black" points="287,-475.5 287,-494.5 325,-494.5 325,-475.5 287,-475.5"/>
<text text-anchor="middle" x="306" y="-482.5" font-family="Helvetica,sans-Serif" font-size="10.00">main</text>
</a>
</g>
</g>
<!-- Node512&#45;&gt;Node513 -->
<g id="edge13" class="edge"><title>Node512&#45;&gt;Node513</title>
<path fill="none" stroke="midnightblue" d="M201.537,-472.479C231.147,-476.062 266.045,-480.286 286.802,-482.798"/>
<polygon fill="midnightblue" stroke="midnightblue" points="201.665,-468.969 191.317,-471.242 200.824,-475.918 201.665,-468.969"/>
</g>
<!-- Node514&#45;&gt;Node513 -->
<g id="edge15" class="edge"><title>Node514&#45;&gt;Node513</title>
<path fill="none" stroke="midnightblue" d="M201.13,-497.57C230.779,-493.982 265.837,-489.739 286.702,-487.214"/>
<polygon fill="midnightblue" stroke="midnightblue" points="200.408,-494.132 190.901,-498.808 201.249,-501.081 200.408,-494.132"/>
</g>
<!-- Node521 -->
<g id="node21" class="node"><title>Node521</title>
<g id="a_node21"><a xlink:href="$a00308.html#a0ddf1224851353fc92bfbff6f499fa97" xlink:title="main">
<polygon fill="white" stroke="black" points="287,-209.5 287,-228.5 325,-228.5 325,-209.5 287,-209.5"/>
<text text-anchor="middle" x="306" y="-216.5" font-family="Helvetica,sans-Serif" font-size="10.00">main</text>
</a>
</g>
</g>
<!-- Node520&#45;&gt;Node521 -->
<g id="edge25" class="edge"><title>Node520&#45;&gt;Node521</title>
<path fill="none" stroke="midnightblue" d="M191.552,-205.271C222.971,-209.073 263.775,-214.011 286.904,-216.81"/>
<polygon fill="midnightblue" stroke="midnightblue" points="191.644,-201.756 181.296,-204.029 190.803,-208.706 191.644,-201.756"/>
</g>
<!-- Node523 -->
<g id="node23" class="node"><title>Node523</title>
<g id="a_node23"><a xlink:href="$a00311.html#a0ddf1224851353fc92bfbff6f499fa97" xlink:title="main">
<polygon fill="white" stroke="black" points="287,-133.5 287,-152.5 325,-152.5 325,-133.5 287,-133.5"/>
<text text-anchor="middle" x="306" y="-140.5" font-family="Helvetica,sans-Serif" font-size="10.00">main</text>
</a>
</g>
</g>
<!-- Node522&#45;&gt;Node523 -->
<g id="edge28" class="edge"><title>Node522&#45;&gt;Node523</title>
<path fill="none" stroke="midnightblue" d="M194.166,-129.587C225.111,-133.332 264.179,-138.06 286.703,-140.786"/>
<polygon fill="midnightblue" stroke="midnightblue" points="194.367,-126.086 184.019,-128.359 193.526,-133.035 194.367,-126.086"/>
</g>
<!-- Node524&#45;&gt;Node521 -->
<g id="edge30" class="edge"><title>Node524&#45;&gt;Node521</title>
<path fill="none" stroke="midnightblue" d="M199.178,-231.807C229.231,-228.17 265.388,-223.794 286.712,-221.213"/>
<polygon fill="midnightblue" stroke="midnightblue" points="198.757,-228.332 189.25,-233.008 199.598,-235.281 198.757,-228.332"/>
</g>
<!-- Node525&#45;&gt;Node523 -->
<g id="edge32" class="edge"><title>Node525&#45;&gt;Node523</title>
<path fill="none" stroke="midnightblue" d="M195.689,-156.229C226.364,-152.516 264.501,-147.901 286.664,-145.219"/>
<polygon fill="midnightblue" stroke="midnightblue" points="195.112,-152.773 185.605,-157.449 195.954,-159.722 195.112,-152.773"/>
</g>
<!-- Node527 -->
<g id="node27" class="node"><title>Node527</title>
<g id="a_node27"><a xlink:href="$a00323.html#a0ddf1224851353fc92bfbff6f499fa97" xlink:title="main">
<polygon fill="white" stroke="black" points="287,-76.5 287,-95.5 325,-95.5 325,-76.5 287,-76.5"/>
<text text-anchor="middle" x="306" y="-83.5" font-family="Helvetica,sans-Serif" font-size="10.00">main</text>
</a>
</g>
</g>
<!-- Node526&#45;&gt;Node527 -->
<g id="edge34" class="edge"><title>Node526&#45;&gt;Node527</title>
<path fill="none" stroke="midnightblue" d="M207.85,-86C235.96,-86 267.457,-86 286.76,-86"/>
<polygon fill="midnightblue" stroke="midnightblue" points="207.676,-82.5001 197.676,-86 207.676,-89.5001 207.676,-82.5001"/>
</g>
<!-- Node529 -->
<g id="node29" class="node"><title>Node529</title>
<g id="a_node29"><a xlink:href="$a00326.html#a0ddf1224851353fc92bfbff6f499fa97" xlink:title="main">
<polygon fill="white" stroke="black" points="287,-38.5 287,-57.5 325,-57.5 325,-38.5 287,-38.5"/>
<text text-anchor="middle" x="306" y="-45.5" font-family="Helvetica,sans-Serif" font-size="10.00">main</text>
</a>
</g>
</g>
<!-- Node528&#45;&gt;Node529 -->
<g id="edge36" class="edge"><title>Node528&#45;&gt;Node529</title>
<path fill="none" stroke="midnightblue" d="M204.285,-48C233.237,-48 266.584,-48 286.712,-48"/>
<polygon fill="midnightblue" stroke="midnightblue" points="204.256,-44.5001 194.256,-48 204.256,-51.5001 204.256,-44.5001"/>
</g>
<!-- Node531 -->
<g id="node31" class="node"><title>Node531</title>
<g id="a_node31"><a xlink:href="$a00314.html#a0ddf1224851353fc92bfbff6f499fa97" xlink:title="main">
<polygon fill="white" stroke="black" points="287,-0.5 287,-19.5 325,-19.5 325,-0.5 287,-0.5"/>
<text text-anchor="middle" x="306" y="-7.5" font-family="Helvetica,sans-Serif" font-size="10.00">main</text>
</a>
</g>
</g>
<!-- Node530&#45;&gt;Node531 -->
<g id="edge38" class="edge"><title>Node530&#45;&gt;Node531</title>
<path fill="none" stroke="midnightblue" d="M191.552,-10C222.971,-10 263.775,-10 286.904,-10"/>
<polygon fill="midnightblue" stroke="midnightblue" points="191.296,-6.5001 181.296,-10 191.296,-13.5001 191.296,-6.5001"/>
</g>
</g>
</svg>
