<?xml version="1.0" encoding="UTF-8" standalone="no"?>
<!DOCTYPE svg PUBLIC "-//W3C//DTD SVG 1.1//EN"
 "http://www.w3.org/Graphics/SVG/1.1/DTD/svg11.dtd">
<!-- Generated by graphviz version 2.36.0 (20140111.2315)
 -->
<!-- Title: gk_malloc Pages: 1 -->
<svg width="312pt" height="125pt"
 viewBox="0.00 0.00 312.00 124.90" xmlns="http://www.w3.org/2000/svg" xmlns:xlink="http://www.w3.org/1999/xlink">
<g id="graph0" class="graph" transform="scale(1 1) rotate(0) translate(4 120.901)">
<title>gk_malloc</title>
<polygon fill="white" stroke="none" points="-4,4 -4,-120.901 308,-120.901 308,4 -4,4"/>
<!-- Node1313 -->
<g id="node1" class="node"><title>Node1313</title>
<polygon fill="#bfbfbf" stroke="black" points="0,-57.5 0,-76.5 62,-76.5 62,-57.5 0,-57.5"/>
<text text-anchor="middle" x="31" y="-64.5" font-family="Helvetica,sans-Serif" font-size="10.00">gk_malloc</text>
</g>
<!-- Node1314 -->
<g id="node2" class="node"><title>Node1314</title>
<g id="a_node2"><a xlink:href="$a01017.html#a2e311a777ffe9c80e405efa7cd2757be" xlink:title="fprintf">
<polygon fill="white" stroke="black" points="262,-57.5 262,-76.5 304,-76.5 304,-57.5 262,-57.5"/>
<text text-anchor="middle" x="283" y="-64.5" font-family="Helvetica,sans-Serif" font-size="10.00">fprintf</text>
</a>
</g>
</g>
<!-- Node1313&#45;&gt;Node1314 -->
<g id="edge1" class="edge"><title>Node1313&#45;&gt;Node1314</title>
<path fill="none" stroke="midnightblue" d="M44.2608,-76.7187C56.8907,-86.0589 77.5626,-99.5369 98,-105 152.959,-119.691 171.62,-121.709 226,-105 240.039,-100.686 253.719,-91.5255 264.044,-83.2793"/>
<polygon fill="midnightblue" stroke="midnightblue" points="266.469,-85.8134 271.862,-76.6941 261.959,-80.4595 266.469,-85.8134"/>
</g>
<!-- Node1315 -->
<g id="node3" class="node"><title>Node1315</title>
<g id="a_node3"><a xlink:href="$a00110.html#ad2327b94227019b6753b6b09400c0522" xlink:title="gk_GetCurMemoryUsed">
<polygon fill="white" stroke="black" points="100,-76.5 100,-95.5 224,-95.5 224,-76.5 100,-76.5"/>
<text text-anchor="middle" x="162" y="-83.5" font-family="Helvetica,sans-Serif" font-size="10.00">gk_GetCurMemoryUsed</text>
</a>
</g>
</g>
<!-- Node1313&#45;&gt;Node1315 -->
<g id="edge2" class="edge"><title>Node1313&#45;&gt;Node1315</title>
<path fill="none" stroke="midnightblue" d="M62.2448,-71.4547C70.6459,-72.692 80.1393,-74.0903 89.8357,-75.5184"/>
<polygon fill="midnightblue" stroke="midnightblue" points="89.5733,-79.0175 99.9766,-77.0121 90.5934,-72.0922 89.5733,-79.0175"/>
</g>
<!-- Node1316 -->
<g id="node4" class="node"><title>Node1316</title>
<g id="a_node4"><a xlink:href="$a00110.html#a656fd5266ae12a96e53125486f8fea52" xlink:title="gk_GetMaxMemoryUsed">
<polygon fill="white" stroke="black" points="98.5,-38.5 98.5,-57.5 225.5,-57.5 225.5,-38.5 98.5,-38.5"/>
<text text-anchor="middle" x="162" y="-45.5" font-family="Helvetica,sans-Serif" font-size="10.00">gk_GetMaxMemoryUsed</text>
</a>
</g>
</g>
<!-- Node1313&#45;&gt;Node1316 -->
<g id="edge3" class="edge"><title>Node1313&#45;&gt;Node1316</title>
<path fill="none" stroke="midnightblue" d="M62.2448,-62.5453C70.2293,-61.3693 79.2005,-60.048 88.3949,-58.6938"/>
<polygon fill="midnightblue" stroke="midnightblue" points="89.0401,-62.1366 98.4233,-57.2167 88.0201,-55.2113 89.0401,-62.1366"/>
</g>
<!-- Node1317 -->
<g id="node5" class="node"><title>Node1317</title>
<g id="a_node5"><a xlink:href="$a00026.html#a4c320c13bcdc9967613253ef4c73f59f" xlink:title="gk_errexit">
<polygon fill="white" stroke="black" points="132,-0.5 132,-19.5 192,-19.5 192,-0.5 132,-0.5"/>
<text text-anchor="middle" x="162" y="-7.5" font-family="Helvetica,sans-Serif" font-size="10.00">gk_errexit</text>
</a>
</g>
</g>
<!-- Node1313&#45;&gt;Node1317 -->
<g id="edge4" class="edge"><title>Node1313&#45;&gt;Node1317</title>
<path fill="none" stroke="midnightblue" d="M46.4358,-57.3905C59.4809,-49.027 79.4284,-37.0202 98,-29 105.68,-25.6834 114.121,-22.7096 122.259,-20.1539"/>
<polygon fill="midnightblue" stroke="midnightblue" points="123.388,-23.4695 131.965,-17.2488 121.381,-16.7634 123.388,-23.4695"/>
</g>
<!-- Node1317&#45;&gt;Node1314 -->
<g id="edge5" class="edge"><title>Node1317&#45;&gt;Node1314</title>
<path fill="none" stroke="midnightblue" d="M192.228,-16.8252C203.104,-19.8755 215.377,-23.9396 226,-29 238.634,-35.0184 251.634,-43.6626 261.925,-51.1863"/>
<polygon fill="midnightblue" stroke="midnightblue" points="260.101,-54.1937 270.194,-57.4154 264.313,-48.6027 260.101,-54.1937"/>
</g>
</g>
</svg>
