<?xml version="1.0" encoding="UTF-8" standalone="no"?>
<!DOCTYPE svg PUBLIC "-//W3C//DTD SVG 1.1//EN"
 "http://www.w3.org/Graphics/SVG/1.1/DTD/svg11.dtd">
<!-- Generated by graphviz version 2.36.0 (20140111.2315)
 -->
<!-- Title: HTable_Resize Pages: 1 -->
<svg width="210pt" height="28pt"
 viewBox="0.00 0.00 210.00 28.00" xmlns="http://www.w3.org/2000/svg" xmlns:xlink="http://www.w3.org/1999/xlink">
<g id="graph0" class="graph" transform="scale(1 1) rotate(0) translate(4 24)">
<title>HTable_Resize</title>
<polygon fill="white" stroke="none" points="-4,4 -4,-24 206,-24 206,4 -4,4"/>
<!-- Node40 -->
<g id="node1" class="node"><title>Node40</title>
<polygon fill="#bfbfbf" stroke="black" points="0.5,-0.5 0.5,-19.5 85.5,-19.5 85.5,-0.5 0.5,-0.5"/>
<text text-anchor="middle" x="43" y="-7.5" font-family="Helvetica,sans-Serif" font-size="10.00">HTable_Resize</text>
</g>
<!-- Node41 -->
<g id="node2" class="node"><title>Node41</title>
<g id="a_node2"><a xlink:href="$a00098.html#a39853dc7129323e7846d895c9026ad6f" xlink:title="HTable_Insert">
<polygon fill="white" stroke="black" points="122.5,-0.5 122.5,-19.5 201.5,-19.5 201.5,-0.5 122.5,-0.5"/>
<text text-anchor="middle" x="162" y="-7.5" font-family="Helvetica,sans-Serif" font-size="10.00">HTable_Insert</text>
</a>
</g>
</g>
<!-- Node40&#45;&gt;Node41 -->
<g id="edge1" class="edge"><title>Node40&#45;&gt;Node41</title>
<path fill="none" stroke="midnightblue" d="M95.8604,-3.28879C104.742,-3.18461 113.83,-3.29027 122.292,-3.60578"/>
<polygon fill="midnightblue" stroke="midnightblue" points="95.5025,0.204482 85.5793,-3.50749 95.6515,-6.79394 95.5025,0.204482"/>
</g>
<!-- Node41&#45;&gt;Node40 -->
<g id="edge2" class="edge"><title>Node41&#45;&gt;Node40</title>
<path fill="none" stroke="midnightblue" d="M112.121,-16.6682C103.296,-16.8195 94.1713,-16.7609 85.5793,-16.4925"/>
<polygon fill="midnightblue" stroke="midnightblue" points="112.39,-20.1623 122.292,-16.3942 112.201,-13.1649 112.39,-20.1623"/>
</g>
</g>
</svg>
