<?xml version="1.0" encoding="UTF-8" standalone="no"?>
<!DOCTYPE svg PUBLIC "-//W3C//DTD SVG 1.1//EN"
 "http://www.w3.org/Graphics/SVG/1.1/DTD/svg11.dtd">
<!-- Generated by graphviz version 2.36.0 (20140111.2315)
 -->
<!-- Title: gk_mcoreDestroy Pages: 1 -->
<svg width="230pt" height="66pt"
 viewBox="0.00 0.00 230.00 66.00" xmlns="http://www.w3.org/2000/svg" xmlns:xlink="http://www.w3.org/1999/xlink">
<g id="graph0" class="graph" transform="scale(1 1) rotate(0) translate(4 62)">
<title>gk_mcoreDestroy</title>
<polygon fill="white" stroke="none" points="-4,4 -4,-62 226,-62 226,4 -4,4"/>
<!-- Node1481 -->
<g id="node1" class="node"><title>Node1481</title>
<polygon fill="#bfbfbf" stroke="black" points="0.5,-19.5 0.5,-38.5 95.5,-38.5 95.5,-19.5 0.5,-19.5"/>
<text text-anchor="middle" x="48" y="-26.5" font-family="Helvetica,sans-Serif" font-size="10.00">gk_mcoreDestroy</text>
</g>
<!-- Node1482 -->
<g id="node2" class="node"><title>Node1482</title>
<g id="a_node2"><a xlink:href="$a00984.html#a0176e7569d59bfac1b0fc2d2fa9ac2f9" xlink:title="FreeWorkSpace">
<polygon fill="white" stroke="black" points="132.5,-38.5 132.5,-57.5 221.5,-57.5 221.5,-38.5 132.5,-38.5"/>
<text text-anchor="middle" x="177" y="-45.5" font-family="Helvetica,sans-Serif" font-size="10.00">FreeWorkSpace</text>
</a>
</g>
</g>
<!-- Node1481&#45;&gt;Node1482 -->
<g id="edge1" class="edge"><title>Node1481&#45;&gt;Node1482</title>
<path fill="none" stroke="midnightblue" d="M105.599,-37.4675C114.587,-38.8122 123.761,-40.1848 132.391,-41.4758"/>
<polygon fill="midnightblue" stroke="midnightblue" points="105.977,-33.9852 95.569,-35.967 104.941,-40.9082 105.977,-33.9852"/>
</g>
<!-- Node1483 -->
<g id="node3" class="node"><title>Node1483</title>
<g id="a_node3"><a xlink:href="$a00987.html#a184692abde6fa16ba8d429796e888cd9" xlink:title="FreeWSpace">
<polygon fill="white" stroke="black" points="139.5,-0.5 139.5,-19.5 214.5,-19.5 214.5,-0.5 139.5,-0.5"/>
<text text-anchor="middle" x="177" y="-7.5" font-family="Helvetica,sans-Serif" font-size="10.00">FreeWSpace</text>
</a>
</g>
</g>
<!-- Node1481&#45;&gt;Node1483 -->
<g id="edge2" class="edge"><title>Node1481&#45;&gt;Node1483</title>
<path fill="none" stroke="midnightblue" d="M105.541,-20.5412C117.021,-18.8236 128.809,-17.0601 139.378,-15.4789"/>
<polygon fill="midnightblue" stroke="midnightblue" points="104.941,-17.0918 95.569,-22.033 105.977,-24.0148 104.941,-17.0918"/>
</g>
</g>
</svg>
