<?xml version="1.0" encoding="UTF-8" standalone="no"?>
<!DOCTYPE svg PUBLIC "-//W3C//DTD SVG 1.1//EN"
 "http://www.w3.org/Graphics/SVG/1.1/DTD/svg11.dtd">
<!-- Generated by graphviz version 2.36.0 (20140111.2315)
 -->
<!-- Title: gk_csr_SortIndices Pages: 1 -->
<svg width="288pt" height="104pt"
 viewBox="0.00 0.00 288.00 104.00" xmlns="http://www.w3.org/2000/svg" xmlns:xlink="http://www.w3.org/1999/xlink">
<g id="graph0" class="graph" transform="scale(1 1) rotate(0) translate(4 100)">
<title>gk_csr_SortIndices</title>
<polygon fill="white" stroke="none" points="-4,4 -4,-100 284,-100 284,4 -4,4"/>
<!-- Node181 -->
<g id="node1" class="node"><title>Node181</title>
<polygon fill="#bfbfbf" stroke="black" points="0,-38.5 0,-57.5 102,-57.5 102,-38.5 0,-38.5"/>
<text text-anchor="middle" x="51" y="-45.5" font-family="Helvetica,sans-Serif" font-size="10.00">gk_csr_SortIndices</text>
</g>
<!-- Node182 -->
<g id="node2" class="node"><title>Node182</title>
<g id="a_node2"><a xlink:href="$a00026.html#a4c320c13bcdc9967613253ef4c73f59f" xlink:title="gk_errexit">
<polygon fill="white" stroke="black" points="140,-76.5 140,-95.5 200,-95.5 200,-76.5 140,-76.5"/>
<text text-anchor="middle" x="170" y="-83.5" font-family="Helvetica,sans-Serif" font-size="10.00">gk_errexit</text>
</a>
</g>
</g>
<!-- Node181&#45;&gt;Node182 -->
<g id="edge1" class="edge"><title>Node181&#45;&gt;Node182</title>
<path fill="none" stroke="midnightblue" d="M81.524,-57.589C96.3241,-62.3958 114.434,-68.2778 130.329,-73.4403"/>
<polygon fill="midnightblue" stroke="midnightblue" points="129.299,-76.7854 139.891,-76.5457 131.461,-70.1278 129.299,-76.7854"/>
</g>
<!-- Node184 -->
<g id="node4" class="node"><title>Node184</title>
<g id="a_node4"><a xlink:href="$a00077.html#a87b4cd1adb002c1987c1537130e8ee31" xlink:title="gk_ikvsorti">
<polygon fill="white" stroke="black" points="138,-38.5 138,-57.5 202,-57.5 202,-38.5 138,-38.5"/>
<text text-anchor="middle" x="170" y="-45.5" font-family="Helvetica,sans-Serif" font-size="10.00">gk_ikvsorti</text>
</a>
</g>
</g>
<!-- Node181&#45;&gt;Node184 -->
<g id="edge3" class="edge"><title>Node181&#45;&gt;Node184</title>
<path fill="none" stroke="midnightblue" d="M102.298,-48C110.746,-48 119.427,-48 127.618,-48"/>
<polygon fill="midnightblue" stroke="midnightblue" points="127.675,-51.5001 137.675,-48 127.675,-44.5001 127.675,-51.5001"/>
</g>
<!-- Node185 -->
<g id="node5" class="node"><title>Node185</title>
<g id="a_node5"><a xlink:href="$a00077.html#ac8df62c4e3d0910711a9874f9cc58884" xlink:title="gk_free">
<polygon fill="white" stroke="black" points="145,-0.5 145,-19.5 195,-19.5 195,-0.5 145,-0.5"/>
<text text-anchor="middle" x="170" y="-7.5" font-family="Helvetica,sans-Serif" font-size="10.00">gk_free</text>
</a>
</g>
</g>
<!-- Node181&#45;&gt;Node185 -->
<g id="edge4" class="edge"><title>Node181&#45;&gt;Node185</title>
<path fill="none" stroke="midnightblue" d="M81.524,-38.411C97.935,-33.0809 118.416,-26.429 135.434,-20.9018"/>
<polygon fill="midnightblue" stroke="midnightblue" points="136.567,-24.2138 144.997,-17.7959 134.405,-17.5562 136.567,-24.2138"/>
</g>
<!-- Node183 -->
<g id="node3" class="node"><title>Node183</title>
<g id="a_node3"><a xlink:href="$a01017.html#a2e311a777ffe9c80e405efa7cd2757be" xlink:title="fprintf">
<polygon fill="white" stroke="black" points="238,-76.5 238,-95.5 280,-95.5 280,-76.5 238,-76.5"/>
<text text-anchor="middle" x="259" y="-83.5" font-family="Helvetica,sans-Serif" font-size="10.00">fprintf</text>
</a>
</g>
</g>
<!-- Node182&#45;&gt;Node183 -->
<g id="edge2" class="edge"><title>Node182&#45;&gt;Node183</title>
<path fill="none" stroke="midnightblue" d="M200.454,-86C209.216,-86 218.829,-86 227.647,-86"/>
<polygon fill="midnightblue" stroke="midnightblue" points="227.897,-89.5001 237.897,-86 227.897,-82.5001 227.897,-89.5001"/>
</g>
</g>
</svg>
