<?xml version="1.0" encoding="UTF-8" standalone="no"?>
<!DOCTYPE svg PUBLIC "-//W3C//DTD SVG 1.1//EN"
 "http://www.w3.org/Graphics/SVG/1.1/DTD/svg11.dtd">
<!-- Generated by graphviz version 2.36.0 (20140111.2315)
 -->
<!-- Title: gk_csr_Dup Pages: 1 -->
<svg width="540pt" height="125pt"
 viewBox="0.00 0.00 540.00 124.79" xmlns="http://www.w3.org/2000/svg" xmlns:xlink="http://www.w3.org/1999/xlink">
<g id="graph0" class="graph" transform="scale(1 1) rotate(0) translate(4 120.791)">
<title>gk_csr_Dup</title>
<polygon fill="white" stroke="none" points="-4,4 -4,-120.791 536,-120.791 536,4 -4,4"/>
<!-- Node47 -->
<g id="node1" class="node"><title>Node47</title>
<polygon fill="#bfbfbf" stroke="black" points="0,-38.5 0,-57.5 70,-57.5 70,-38.5 0,-38.5"/>
<text text-anchor="middle" x="35" y="-45.5" font-family="Helvetica,sans-Serif" font-size="10.00">gk_csr_Dup</text>
</g>
<!-- Node48 -->
<g id="node2" class="node"><title>Node48</title>
<g id="a_node2"><a xlink:href="$a00023.html#a82b885bbed5bd18c26629c35ce5d37e4" xlink:title="gk_csr_Create">
<polygon fill="white" stroke="black" points="106,-38.5 106,-57.5 188,-57.5 188,-38.5 106,-38.5"/>
<text text-anchor="middle" x="147" y="-45.5" font-family="Helvetica,sans-Serif" font-size="10.00">gk_csr_Create</text>
</a>
</g>
</g>
<!-- Node47&#45;&gt;Node48 -->
<g id="edge1" class="edge"><title>Node47&#45;&gt;Node48</title>
<path fill="none" stroke="midnightblue" d="M70.2017,-48C78.1828,-48 86.849,-48 95.3742,-48"/>
<polygon fill="midnightblue" stroke="midnightblue" points="95.6477,-51.5001 105.648,-48 95.6476,-44.5001 95.6477,-51.5001"/>
</g>
<!-- Node49 -->
<g id="node3" class="node"><title>Node49</title>
<g id="a_node3"><a xlink:href="$a00077.html#aba6f76f5c67b9b7e9c2e45988d3d3e9d" xlink:title="gk_malloc">
<polygon fill="white" stroke="black" points="226,-57.5 226,-76.5 288,-76.5 288,-57.5 226,-57.5"/>
<text text-anchor="middle" x="257" y="-64.5" font-family="Helvetica,sans-Serif" font-size="10.00">gk_malloc</text>
</a>
</g>
</g>
<!-- Node48&#45;&gt;Node49 -->
<g id="edge2" class="edge"><title>Node48&#45;&gt;Node49</title>
<path fill="none" stroke="midnightblue" d="M188.215,-55.0749C197.279,-56.6694 206.897,-58.3615 215.954,-59.9548"/>
<polygon fill="midnightblue" stroke="midnightblue" points="215.425,-63.4155 225.88,-61.7011 216.638,-56.5213 215.425,-63.4155"/>
</g>
<!-- Node54 -->
<g id="node8" class="node"><title>Node54</title>
<g id="a_node8"><a xlink:href="$a00023.html#a47a303d88c3316bd821219cae39d0461" xlink:title="gk_csr_Init">
<polygon fill="white" stroke="black" points="224.5,-19.5 224.5,-38.5 289.5,-38.5 289.5,-19.5 224.5,-19.5"/>
<text text-anchor="middle" x="257" y="-26.5" font-family="Helvetica,sans-Serif" font-size="10.00">gk_csr_Init</text>
</a>
</g>
</g>
<!-- Node48&#45;&gt;Node54 -->
<g id="edge8" class="edge"><title>Node48&#45;&gt;Node54</title>
<path fill="none" stroke="midnightblue" d="M188.215,-40.9251C196.657,-39.4399 205.581,-37.87 214.084,-36.3742"/>
<polygon fill="midnightblue" stroke="midnightblue" points="214.943,-39.7769 224.185,-34.5971 213.73,-32.8827 214.943,-39.7769"/>
</g>
<!-- Node50 -->
<g id="node4" class="node"><title>Node50</title>
<g id="a_node4"><a xlink:href="$a01017.html#a2e311a777ffe9c80e405efa7cd2757be" xlink:title="fprintf">
<polygon fill="white" stroke="black" points="490,-57.5 490,-76.5 532,-76.5 532,-57.5 490,-57.5"/>
<text text-anchor="middle" x="511" y="-64.5" font-family="Helvetica,sans-Serif" font-size="10.00">fprintf</text>
</a>
</g>
</g>
<!-- Node49&#45;&gt;Node50 -->
<g id="edge3" class="edge"><title>Node49&#45;&gt;Node50</title>
<path fill="none" stroke="midnightblue" d="M270.682,-76.7226C283.733,-86.0659 305.06,-99.5461 326,-105 381.052,-119.339 399.62,-121.709 454,-105 468.039,-100.686 481.719,-91.5255 492.044,-83.2793"/>
<polygon fill="midnightblue" stroke="midnightblue" points="494.469,-85.8134 499.862,-76.6941 489.959,-80.4595 494.469,-85.8134"/>
</g>
<!-- Node51 -->
<g id="node5" class="node"><title>Node51</title>
<g id="a_node5"><a xlink:href="$a00110.html#ad2327b94227019b6753b6b09400c0522" xlink:title="gk_GetCurMemoryUsed">
<polygon fill="white" stroke="black" points="328,-76.5 328,-95.5 452,-95.5 452,-76.5 328,-76.5"/>
<text text-anchor="middle" x="390" y="-83.5" font-family="Helvetica,sans-Serif" font-size="10.00">gk_GetCurMemoryUsed</text>
</a>
</g>
</g>
<!-- Node49&#45;&gt;Node51 -->
<g id="edge4" class="edge"><title>Node49&#45;&gt;Node51</title>
<path fill="none" stroke="midnightblue" d="M288.054,-71.359C297.041,-72.6625 307.303,-74.1508 317.761,-75.6676"/>
<polygon fill="midnightblue" stroke="midnightblue" points="317.414,-79.1538 327.813,-77.1255 318.419,-72.2263 317.414,-79.1538"/>
</g>
<!-- Node52 -->
<g id="node6" class="node"><title>Node52</title>
<g id="a_node6"><a xlink:href="$a00110.html#a656fd5266ae12a96e53125486f8fea52" xlink:title="gk_GetMaxMemoryUsed">
<polygon fill="white" stroke="black" points="326.5,-38.5 326.5,-57.5 453.5,-57.5 453.5,-38.5 326.5,-38.5"/>
<text text-anchor="middle" x="390" y="-45.5" font-family="Helvetica,sans-Serif" font-size="10.00">gk_GetMaxMemoryUsed</text>
</a>
</g>
</g>
<!-- Node49&#45;&gt;Node52 -->
<g id="edge5" class="edge"><title>Node49&#45;&gt;Node52</title>
<path fill="none" stroke="midnightblue" d="M288.054,-62.641C296.665,-61.392 306.447,-59.9734 316.45,-58.5226"/>
<polygon fill="midnightblue" stroke="midnightblue" points="317.097,-61.9653 326.491,-57.0661 316.093,-55.0378 317.097,-61.9653"/>
</g>
<!-- Node53 -->
<g id="node7" class="node"><title>Node53</title>
<g id="a_node7"><a xlink:href="$a00026.html#a4c320c13bcdc9967613253ef4c73f59f" xlink:title="gk_errexit">
<polygon fill="white" stroke="black" points="360,-0.5 360,-19.5 420,-19.5 420,-0.5 360,-0.5"/>
<text text-anchor="middle" x="390" y="-7.5" font-family="Helvetica,sans-Serif" font-size="10.00">gk_errexit</text>
</a>
</g>
</g>
<!-- Node49&#45;&gt;Node53 -->
<g id="edge6" class="edge"><title>Node49&#45;&gt;Node53</title>
<path fill="none" stroke="midnightblue" d="M274.079,-57.4824C290.755,-47.7083 315.791,-33.3313 326,-29 333.701,-25.7327 342.151,-22.78 350.292,-20.2292"/>
<polygon fill="midnightblue" stroke="midnightblue" points="351.421,-23.5447 359.996,-17.3231 349.413,-16.8389 351.421,-23.5447"/>
</g>
<!-- Node53&#45;&gt;Node50 -->
<g id="edge7" class="edge"><title>Node53&#45;&gt;Node50</title>
<path fill="none" stroke="midnightblue" d="M420.228,-16.8252C431.104,-19.8755 443.377,-23.9396 454,-29 466.634,-35.0184 479.634,-43.6626 489.925,-51.1863"/>
<polygon fill="midnightblue" stroke="midnightblue" points="488.101,-54.1937 498.194,-57.4154 492.313,-48.6027 488.101,-54.1937"/>
</g>
</g>
</svg>
