<?xml version="1.0" encoding="UTF-8" standalone="no"?>
<!DOCTYPE svg PUBLIC "-//W3C//DTD SVG 1.1//EN"
 "http://www.w3.org/Graphics/SVG/1.1/DTD/svg11.dtd">
<!-- Generated by graphviz version 2.36.0 (20140111.2315)
 -->
<!-- Title: Normals2d Pages: 1 -->
<svg width="366pt" height="104pt"
 viewBox="0.00 0.00 366.00 104.00" xmlns="http://www.w3.org/2000/svg" xmlns:xlink="http://www.w3.org/1999/xlink">
<g id="graph0" class="graph" transform="scale(1 1) rotate(0) translate(4 100)">
<title>Normals2d</title>
<polygon fill="white" stroke="none" points="-4,4 -4,-100 362,-100 362,4 -4,4"/>
<!-- Node162 -->
<g id="node1" class="node"><title>Node162</title>
<polygon fill="#bfbfbf" stroke="black" points="0.5,-38.5 0.5,-57.5 65.5,-57.5 65.5,-38.5 0.5,-38.5"/>
<text text-anchor="middle" x="33" y="-45.5" font-family="Helvetica,sans-Serif" font-size="10.00">Normals2d</text>
</g>
<!-- Node163 -->
<g id="node2" class="node"><title>Node163</title>
<g id="a_node2"><a xlink:href="a00209.html#a0dee5ebc8cec6627fc23083e47b4ca11" target="_top" xlink:title="InitOCCA2D">
<polygon fill="white" stroke="black" points="212,-76.5 212,-95.5 284,-95.5 284,-76.5 212,-76.5"/>
<text text-anchor="middle" x="248" y="-83.5" font-family="Helvetica,sans-Serif" font-size="10.00">InitOCCA2D</text>
</a>
</g>
</g>
<!-- Node162&#45;&gt;Node163 -->
<g id="edge1" class="edge"><title>Node162&#45;&gt;Node163</title>
<path fill="none" stroke="midnightblue" d="M75.7104,-56.8552C84.3872,-58.622 93.4823,-60.4189 102,-62 139.38,-68.9388 182.368,-75.9307 211.773,-80.5632"/>
<polygon fill="midnightblue" stroke="midnightblue" points="76.2769,-53.3985 65.7764,-54.8096 74.865,-60.2546 76.2769,-53.3985"/>
</g>
<!-- Node165 -->
<g id="node4" class="node"><title>Node165</title>
<g id="a_node4"><a xlink:href="a00221.html#a35ba318a20f8b83eefe63eeb1e1ac4b0" target="_top" xlink:title="StartUp2d">
<polygon fill="white" stroke="black" points="217,-38.5 217,-57.5 279,-57.5 279,-38.5 217,-38.5"/>
<text text-anchor="middle" x="248" y="-45.5" font-family="Helvetica,sans-Serif" font-size="10.00">StartUp2d</text>
</a>
</g>
</g>
<!-- Node162&#45;&gt;Node165 -->
<g id="edge3" class="edge"><title>Node162&#45;&gt;Node165</title>
<path fill="none" stroke="midnightblue" d="M75.9732,-48C117.536,-48 180.144,-48 216.962,-48"/>
<polygon fill="midnightblue" stroke="midnightblue" points="75.8883,-44.5001 65.8883,-48 75.8882,-51.5001 75.8883,-44.5001"/>
</g>
<!-- Node166 -->
<g id="node5" class="node"><title>Node166</title>
<g id="a_node5"><a xlink:href="a00221.html#ac0114aa8a9d094bad20943e1b79ba473" target="_top" xlink:title="BuildMaps2d">
<polygon fill="white" stroke="black" points="102,-0.5 102,-19.5 176,-19.5 176,-0.5 102,-0.5"/>
<text text-anchor="middle" x="139" y="-7.5" font-family="Helvetica,sans-Serif" font-size="10.00">BuildMaps2d</text>
</a>
</g>
</g>
<!-- Node162&#45;&gt;Node166 -->
<g id="edge5" class="edge"><title>Node162&#45;&gt;Node166</title>
<path fill="none" stroke="midnightblue" d="M69.9019,-34.882C83.6571,-29.8561 99.0796,-24.2209 111.765,-19.5859"/>
<polygon fill="midnightblue" stroke="midnightblue" points="68.435,-31.6916 60.2436,-38.411 70.8374,-38.2664 68.435,-31.6916"/>
</g>
<!-- Node164 -->
<g id="node3" class="node"><title>Node164</title>
<g id="a_node3"><a xlink:href="a00179.html#a3c04138a5bfe5d72780bb7e82a18e627" target="_top" xlink:title="main">
<polygon fill="white" stroke="black" points="320,-57.5 320,-76.5 358,-76.5 358,-57.5 320,-57.5"/>
<text text-anchor="middle" x="339" y="-64.5" font-family="Helvetica,sans-Serif" font-size="10.00">main</text>
</a>
</g>
</g>
<!-- Node163&#45;&gt;Node164 -->
<g id="edge2" class="edge"><title>Node163&#45;&gt;Node164</title>
<path fill="none" stroke="midnightblue" d="M294.067,-76.3789C303.24,-74.4207 312.38,-72.4694 319.929,-70.8578"/>
<polygon fill="midnightblue" stroke="midnightblue" points="293.224,-72.98 284.175,-78.4907 294.686,-79.8257 293.224,-72.98"/>
</g>
<!-- Node165&#45;&gt;Node164 -->
<g id="edge4" class="edge"><title>Node165&#45;&gt;Node164</title>
<path fill="none" stroke="midnightblue" d="M289.217,-56.5857C299.929,-58.8726 310.976,-61.2307 319.842,-63.1236"/>
<polygon fill="midnightblue" stroke="midnightblue" points="289.642,-53.0975 279.131,-54.4325 288.18,-59.9433 289.642,-53.0975"/>
</g>
<!-- Node166&#45;&gt;Node165 -->
<g id="edge6" class="edge"><title>Node166&#45;&gt;Node165</title>
<path fill="none" stroke="midnightblue" d="M176.526,-22.9718C190.781,-28.0344 206.83,-33.7341 220.008,-38.4141"/>
<polygon fill="midnightblue" stroke="midnightblue" points="177.595,-19.6375 167.001,-19.589 175.253,-26.2339 177.595,-19.6375"/>
</g>
</g>
</svg>
