<?xml version="1.0" encoding="UTF-8" standalone="no"?>
<!DOCTYPE svg PUBLIC "-//W3C//DTD SVG 1.1//EN"
 "http://www.w3.org/Graphics/SVG/1.1/DTD/svg11.dtd">
<!-- Generated by graphviz version 2.36.0 (20140111.2315)
 -->
<!-- Title: gk_strdup Pages: 1 -->
<svg width="408pt" height="125pt"
 viewBox="0.00 0.00 408.00 124.90" xmlns="http://www.w3.org/2000/svg" xmlns:xlink="http://www.w3.org/1999/xlink">
<g id="graph0" class="graph" transform="scale(1 1) rotate(0) translate(4 120.901)">
<title>gk_strdup</title>
<polygon fill="white" stroke="none" points="-4,4 -4,-120.901 404,-120.901 404,4 -4,4"/>
<!-- Node14 -->
<g id="node1" class="node"><title>Node14</title>
<polygon fill="#bfbfbf" stroke="black" points="0,-57.5 0,-76.5 60,-76.5 60,-57.5 0,-57.5"/>
<text text-anchor="middle" x="30" y="-64.5" font-family="Helvetica,sans-Serif" font-size="10.00">gk_strdup</text>
</g>
<!-- Node15 -->
<g id="node2" class="node"><title>Node15</title>
<g id="a_node2"><a xlink:href="$a00077.html#aba6f76f5c67b9b7e9c2e45988d3d3e9d" xlink:title="gk_malloc">
<polygon fill="white" stroke="black" points="96,-57.5 96,-76.5 158,-76.5 158,-57.5 96,-57.5"/>
<text text-anchor="middle" x="127" y="-64.5" font-family="Helvetica,sans-Serif" font-size="10.00">gk_malloc</text>
</a>
</g>
</g>
<!-- Node14&#45;&gt;Node15 -->
<g id="edge1" class="edge"><title>Node14&#45;&gt;Node15</title>
<path fill="none" stroke="midnightblue" d="M60.0193,-67C68.0883,-67 77.0001,-67 85.595,-67"/>
<polygon fill="midnightblue" stroke="midnightblue" points="85.8436,-70.5001 95.8435,-67 85.8435,-63.5001 85.8436,-70.5001"/>
</g>
<!-- Node16 -->
<g id="node3" class="node"><title>Node16</title>
<g id="a_node3"><a xlink:href="$a01017.html#a2e311a777ffe9c80e405efa7cd2757be" xlink:title="fprintf">
<polygon fill="white" stroke="black" points="358,-57.5 358,-76.5 400,-76.5 400,-57.5 358,-57.5"/>
<text text-anchor="middle" x="379" y="-64.5" font-family="Helvetica,sans-Serif" font-size="10.00">fprintf</text>
</a>
</g>
</g>
<!-- Node15&#45;&gt;Node16 -->
<g id="edge2" class="edge"><title>Node15&#45;&gt;Node16</title>
<path fill="none" stroke="midnightblue" d="M140.261,-76.7187C152.891,-86.0589 173.563,-99.5369 194,-105 248.959,-119.691 267.62,-121.709 322,-105 336.039,-100.686 349.719,-91.5255 360.044,-83.2793"/>
<polygon fill="midnightblue" stroke="midnightblue" points="362.469,-85.8134 367.862,-76.6941 357.959,-80.4595 362.469,-85.8134"/>
</g>
<!-- Node17 -->
<g id="node4" class="node"><title>Node17</title>
<g id="a_node4"><a xlink:href="$a00110.html#ad2327b94227019b6753b6b09400c0522" xlink:title="gk_GetCurMemoryUsed">
<polygon fill="white" stroke="black" points="196,-76.5 196,-95.5 320,-95.5 320,-76.5 196,-76.5"/>
<text text-anchor="middle" x="258" y="-83.5" font-family="Helvetica,sans-Serif" font-size="10.00">gk_GetCurMemoryUsed</text>
</a>
</g>
</g>
<!-- Node15&#45;&gt;Node17 -->
<g id="edge3" class="edge"><title>Node15&#45;&gt;Node17</title>
<path fill="none" stroke="midnightblue" d="M158.245,-71.4547C166.646,-72.692 176.139,-74.0903 185.836,-75.5184"/>
<polygon fill="midnightblue" stroke="midnightblue" points="185.573,-79.0175 195.977,-77.0121 186.593,-72.0922 185.573,-79.0175"/>
</g>
<!-- Node18 -->
<g id="node5" class="node"><title>Node18</title>
<g id="a_node5"><a xlink:href="$a00110.html#a656fd5266ae12a96e53125486f8fea52" xlink:title="gk_GetMaxMemoryUsed">
<polygon fill="white" stroke="black" points="194.5,-38.5 194.5,-57.5 321.5,-57.5 321.5,-38.5 194.5,-38.5"/>
<text text-anchor="middle" x="258" y="-45.5" font-family="Helvetica,sans-Serif" font-size="10.00">gk_GetMaxMemoryUsed</text>
</a>
</g>
</g>
<!-- Node15&#45;&gt;Node18 -->
<g id="edge4" class="edge"><title>Node15&#45;&gt;Node18</title>
<path fill="none" stroke="midnightblue" d="M158.245,-62.5453C166.229,-61.3693 175.2,-60.048 184.395,-58.6938"/>
<polygon fill="midnightblue" stroke="midnightblue" points="185.04,-62.1366 194.423,-57.2167 184.02,-55.2113 185.04,-62.1366"/>
</g>
<!-- Node19 -->
<g id="node6" class="node"><title>Node19</title>
<g id="a_node6"><a xlink:href="$a00026.html#a4c320c13bcdc9967613253ef4c73f59f" xlink:title="gk_errexit">
<polygon fill="white" stroke="black" points="228,-0.5 228,-19.5 288,-19.5 288,-0.5 228,-0.5"/>
<text text-anchor="middle" x="258" y="-7.5" font-family="Helvetica,sans-Serif" font-size="10.00">gk_errexit</text>
</a>
</g>
</g>
<!-- Node15&#45;&gt;Node19 -->
<g id="edge5" class="edge"><title>Node15&#45;&gt;Node19</title>
<path fill="none" stroke="midnightblue" d="M142.436,-57.3905C155.481,-49.027 175.428,-37.0202 194,-29 201.68,-25.6834 210.121,-22.7096 218.259,-20.1539"/>
<polygon fill="midnightblue" stroke="midnightblue" points="219.388,-23.4695 227.965,-17.2488 217.381,-16.7634 219.388,-23.4695"/>
</g>
<!-- Node19&#45;&gt;Node16 -->
<g id="edge6" class="edge"><title>Node19&#45;&gt;Node16</title>
<path fill="none" stroke="midnightblue" d="M288.228,-16.8252C299.104,-19.8755 311.377,-23.9396 322,-29 334.634,-35.0184 347.634,-43.6626 357.925,-51.1863"/>
<polygon fill="midnightblue" stroke="midnightblue" points="356.101,-54.1937 366.194,-57.4154 360.313,-48.6027 356.101,-54.1937"/>
</g>
</g>
</svg>
