<?xml version="1.0" encoding="UTF-8" standalone="no"?>
<!DOCTYPE svg PUBLIC "-//W3C//DTD SVG 1.1//EN"
 "http://www.w3.org/Graphics/SVG/1.1/DTD/svg11.dtd">
<!-- Generated by graphviz version 2.36.0 (20140111.2315)
 -->
<!-- Title: FindSepInducedComponents Pages: 1 -->
<svg width="240pt" height="66pt"
 viewBox="0.00 0.00 240.00 66.00" xmlns="http://www.w3.org/2000/svg" xmlns:xlink="http://www.w3.org/1999/xlink">
<g id="graph0" class="graph" transform="scale(1 1) rotate(0) translate(4 62)">
<title>FindSepInducedComponents</title>
<polygon fill="white" stroke="none" points="-4,4 -4,-62 236,-62 236,4 -4,4"/>
<!-- Node15 -->
<g id="node1" class="node"><title>Node15</title>
<polygon fill="#bfbfbf" stroke="black" points="0,-19.5 0,-38.5 146,-38.5 146,-19.5 0,-19.5"/>
<text text-anchor="middle" x="73" y="-26.5" font-family="Helvetica,sans-Serif" font-size="10.00">FindSepInducedComponents</text>
</g>
<!-- Node16 -->
<g id="node2" class="node"><title>Node16</title>
<g id="a_node2"><a xlink:href="a00623.html#ad1e7380d51df1e0043d24d3c8a860e0a" target="_top" xlink:title="for">
<polygon fill="white" stroke="black" points="192.5,-38.5 192.5,-57.5 221.5,-57.5 221.5,-38.5 192.5,-38.5"/>
<text text-anchor="middle" x="207" y="-45.5" font-family="Helvetica,sans-Serif" font-size="10.00">for</text>
</a>
</g>
</g>
<!-- Node15&#45;&gt;Node16 -->
<g id="edge1" class="edge"><title>Node15&#45;&gt;Node16</title>
<path fill="none" stroke="midnightblue" d="M140.387,-38.5557C155.526,-40.7348 170.638,-42.91 182.537,-44.6227"/>
<polygon fill="midnightblue" stroke="midnightblue" points="182.072,-48.0919 192.469,-46.0524 183.07,-41.1633 182.072,-48.0919"/>
</g>
<!-- Node17 -->
<g id="node3" class="node"><title>Node17</title>
<g id="a_node3"><a xlink:href="a00077.html#ac8df62c4e3d0910711a9874f9cc58884" target="_top" xlink:title="gk_free">
<polygon fill="white" stroke="black" points="182,-0.5 182,-19.5 232,-19.5 232,-0.5 182,-0.5"/>
<text text-anchor="middle" x="207" y="-7.5" font-family="Helvetica,sans-Serif" font-size="10.00">gk_free</text>
</a>
</g>
</g>
<!-- Node15&#45;&gt;Node17 -->
<g id="edge2" class="edge"><title>Node15&#45;&gt;Node17</title>
<path fill="none" stroke="midnightblue" d="M140.387,-19.4443C151.325,-17.8699 162.249,-16.2975 171.957,-14.9001"/>
<polygon fill="midnightblue" stroke="midnightblue" points="172.558,-18.3498 181.957,-13.4607 171.56,-11.4212 172.558,-18.3498"/>
</g>
</g>
</svg>
