<?xml version="1.0" encoding="UTF-8" standalone="no"?>
<!DOCTYPE svg PUBLIC "-//W3C//DTD SVG 1.1//EN"
 "http://www.w3.org/Graphics/SVG/1.1/DTD/svg11.dtd">
<!-- Generated by graphviz version 2.36.0 (20140111.2315)
 -->
<!-- Title: gk_find_frequent_itemsets Pages: 1 -->
<svg width="946pt" height="259pt"
 viewBox="0.00 0.00 946.00 259.00" xmlns="http://www.w3.org/2000/svg" xmlns:xlink="http://www.w3.org/1999/xlink">
<g id="graph0" class="graph" transform="scale(1 1) rotate(0) translate(4 255)">
<title>gk_find_frequent_itemsets</title>
<polygon fill="white" stroke="none" points="-4,4 -4,-255 942,-255 942,4 -4,4"/>
<!-- Node0 -->
<g id="node1" class="node"><title>Node0</title>
<polygon fill="#bfbfbf" stroke="black" points="0,-98.5 0,-117.5 134,-117.5 134,-98.5 0,-98.5"/>
<text text-anchor="middle" x="67" y="-105.5" font-family="Helvetica,sans-Serif" font-size="10.00">gk_find_frequent_itemsets</text>
</g>
<!-- Node1 -->
<g id="node2" class="node"><title>Node1</title>
<g id="a_node2"><a xlink:href="$a00023.html#a82b885bbed5bd18c26629c35ce5d37e4" xlink:title="gk_csr_Create">
<polygon fill="white" stroke="black" points="497,-193.5 497,-212.5 579,-212.5 579,-193.5 497,-193.5"/>
<text text-anchor="middle" x="538" y="-200.5" font-family="Helvetica,sans-Serif" font-size="10.00">gk_csr_Create</text>
</a>
</g>
</g>
<!-- Node0&#45;&gt;Node1 -->
<g id="edge1" class="edge"><title>Node0&#45;&gt;Node1</title>
<path fill="none" stroke="midnightblue" d="M78.3354,-117.517C95.7408,-132.897 132.671,-162.824 170,-176 277.807,-214.054 414.222,-212.1 486.573,-207.476"/>
<polygon fill="midnightblue" stroke="midnightblue" points="487.034,-210.953 496.772,-206.779 486.556,-203.97 487.034,-210.953"/>
</g>
<!-- Node8 -->
<g id="node9" class="node"><title>Node8</title>
<g id="a_node9"><a xlink:href="$a00023.html#a8bdd383ab80fe76507463f59c3d2863a" xlink:title="gk_csr_CreateIndex">
<polygon fill="white" stroke="black" points="485,-0.5 485,-19.5 591,-19.5 591,-0.5 485,-0.5"/>
<text text-anchor="middle" x="538" y="-7.5" font-family="Helvetica,sans-Serif" font-size="10.00">gk_csr_CreateIndex</text>
</a>
</g>
</g>
<!-- Node0&#45;&gt;Node8 -->
<g id="edge9" class="edge"><title>Node0&#45;&gt;Node8</title>
<path fill="none" stroke="midnightblue" d="M77.311,-98.3322C94.0465,-81.684 131.108,-48.0411 170,-34 271.813,2.75734 399.721,1.35696 474.516,-3.78314"/>
<polygon fill="midnightblue" stroke="midnightblue" points="474.48,-7.2898 484.709,-4.52967 474.991,-0.308497 474.48,-7.2898"/>
</g>
<!-- Node9 -->
<g id="node10" class="node"><title>Node9</title>
<g id="a_node10"><a xlink:href="$a00077.html#ac8df62c4e3d0910711a9874f9cc58884" xlink:title="gk_free">
<polygon fill="white" stroke="black" points="638,-57.5 638,-76.5 688,-76.5 688,-57.5 638,-57.5"/>
<text text-anchor="middle" x="663" y="-64.5" font-family="Helvetica,sans-Serif" font-size="10.00">gk_free</text>
</a>
</g>
</g>
<!-- Node0&#45;&gt;Node9 -->
<g id="edge22" class="edge"><title>Node0&#45;&gt;Node9</title>
<path fill="none" stroke="midnightblue" d="M134.175,-99.4124C215.783,-89.2924 358.823,-73.0844 482,-67 532.708,-64.4952 591.549,-65.1696 627.778,-65.9968"/>
<polygon fill="midnightblue" stroke="midnightblue" points="627.733,-69.4967 637.816,-66.2433 627.905,-62.4988 627.733,-69.4967"/>
</g>
<!-- Node10 -->
<g id="node11" class="node"><title>Node10</title>
<g id="a_node11"><a xlink:href="$a00104.html#ab348ad8f89d70692400d7602e3a824bf" xlink:title="itemsets_project_matrix">
<polygon fill="white" stroke="black" points="324,-161.5 324,-180.5 446,-180.5 446,-161.5 324,-161.5"/>
<text text-anchor="middle" x="385" y="-168.5" font-family="Helvetica,sans-Serif" font-size="10.00">itemsets_project_matrix</text>
</a>
</g>
</g>
<!-- Node0&#45;&gt;Node10 -->
<g id="edge12" class="edge"><title>Node0&#45;&gt;Node10</title>
<path fill="none" stroke="midnightblue" d="M84.6668,-117.691C104.341,-128.607 138.391,-145.879 170,-154 216.854,-166.037 271.209,-170.238 313.414,-171.455"/>
<polygon fill="midnightblue" stroke="midnightblue" points="313.515,-174.958 323.595,-171.698 313.682,-167.96 313.515,-174.958"/>
</g>
<!-- Node12 -->
<g id="node13" class="node"><title>Node12</title>
<g id="a_node13"><a xlink:href="$a00023.html#ac3736361b8d6b391356f273c960c203b" xlink:title="gk_csr_Free">
<polygon fill="white" stroke="black" points="349,-95.5 349,-114.5 421,-114.5 421,-95.5 349,-95.5"/>
<text text-anchor="middle" x="385" y="-102.5" font-family="Helvetica,sans-Serif" font-size="10.00">gk_csr_Free</text>
</a>
</g>
</g>
<!-- Node0&#45;&gt;Node12 -->
<g id="edge15" class="edge"><title>Node0&#45;&gt;Node12</title>
<path fill="none" stroke="midnightblue" d="M134.11,-105.772C146.055,-105.45 158.397,-105.171 170,-105 228.171,-104.145 295.246,-104.336 338.567,-104.613"/>
<polygon fill="midnightblue" stroke="midnightblue" points="338.757,-108.114 348.781,-104.683 338.805,-101.115 338.757,-108.114"/>
</g>
<!-- Node14 -->
<g id="node15" class="node"><title>Node14</title>
<g id="a_node15"><a xlink:href="$a00104.html#ab19ae99e1e3ba575373cf0fe846a8cd9" xlink:title="itemsets_find_frequent\l_itemsets">
<polygon fill="white" stroke="black" points="170,-115 170,-145 288,-145 288,-115 170,-115"/>
<text text-anchor="start" x="178" y="-133" font-family="Helvetica,sans-Serif" font-size="10.00">itemsets_find_frequent</text>
<text text-anchor="middle" x="229" y="-122" font-family="Helvetica,sans-Serif" font-size="10.00">_itemsets</text>
</a>
</g>
</g>
<!-- Node0&#45;&gt;Node14 -->
<g id="edge19" class="edge"><title>Node0&#45;&gt;Node14</title>
<path fill="none" stroke="midnightblue" d="M134.002,-117.075C142.54,-118.249 151.298,-119.453 159.87,-120.632"/>
<polygon fill="midnightblue" stroke="midnightblue" points="159.439,-124.106 169.823,-122.001 160.393,-117.171 159.439,-124.106"/>
</g>
<!-- Node2 -->
<g id="node3" class="node"><title>Node2</title>
<g id="a_node3"><a xlink:href="$a00077.html#aba6f76f5c67b9b7e9c2e45988d3d3e9d" xlink:title="gk_malloc">
<polygon fill="white" stroke="black" points="632,-193.5 632,-212.5 694,-212.5 694,-193.5 632,-193.5"/>
<text text-anchor="middle" x="663" y="-200.5" font-family="Helvetica,sans-Serif" font-size="10.00">gk_malloc</text>
</a>
</g>
</g>
<!-- Node1&#45;&gt;Node2 -->
<g id="edge2" class="edge"><title>Node1&#45;&gt;Node2</title>
<path fill="none" stroke="midnightblue" d="M579.275,-203C592.898,-203 608.104,-203 621.727,-203"/>
<polygon fill="midnightblue" stroke="midnightblue" points="621.783,-206.5 631.783,-203 621.783,-199.5 621.783,-206.5"/>
</g>
<!-- Node7 -->
<g id="node8" class="node"><title>Node7</title>
<g id="a_node8"><a xlink:href="$a00023.html#a47a303d88c3316bd821219cae39d0461" xlink:title="gk_csr_Init">
<polygon fill="white" stroke="black" points="630.5,-155.5 630.5,-174.5 695.5,-174.5 695.5,-155.5 630.5,-155.5"/>
<text text-anchor="middle" x="663" y="-162.5" font-family="Helvetica,sans-Serif" font-size="10.00">gk_csr_Init</text>
</a>
</g>
</g>
<!-- Node1&#45;&gt;Node7 -->
<g id="edge8" class="edge"><title>Node1&#45;&gt;Node7</title>
<path fill="none" stroke="midnightblue" d="M570.038,-193.411C585.479,-188.641 604.348,-182.811 620.966,-177.677"/>
<polygon fill="midnightblue" stroke="midnightblue" points="622.451,-180.882 630.972,-174.586 620.384,-174.194 622.451,-180.882"/>
</g>
<!-- Node3 -->
<g id="node4" class="node"><title>Node3</title>
<g id="a_node4"><a xlink:href="$a01017.html#a2e311a777ffe9c80e405efa7cd2757be" xlink:title="fprintf">
<polygon fill="white" stroke="black" points="896,-136.5 896,-155.5 938,-155.5 938,-136.5 896,-136.5"/>
<text text-anchor="middle" x="917" y="-143.5" font-family="Helvetica,sans-Serif" font-size="10.00">fprintf</text>
</a>
</g>
</g>
<!-- Node2&#45;&gt;Node3 -->
<g id="edge3" class="edge"><title>Node2&#45;&gt;Node3</title>
<path fill="none" stroke="midnightblue" d="M694.011,-194.135C705.805,-190.777 719.492,-187.035 732,-184 785.807,-170.943 849.155,-158.495 885.735,-151.588"/>
<polygon fill="midnightblue" stroke="midnightblue" points="886.567,-154.993 895.751,-149.71 885.277,-148.113 886.567,-154.993"/>
</g>
<!-- Node4 -->
<g id="node5" class="node"><title>Node4</title>
<g id="a_node5"><a xlink:href="$a00110.html#ad2327b94227019b6753b6b09400c0522" xlink:title="gk_GetCurMemoryUsed">
<polygon fill="white" stroke="black" points="734,-231.5 734,-250.5 858,-250.5 858,-231.5 734,-231.5"/>
<text text-anchor="middle" x="796" y="-238.5" font-family="Helvetica,sans-Serif" font-size="10.00">gk_GetCurMemoryUsed</text>
</a>
</g>
</g>
<!-- Node2&#45;&gt;Node4 -->
<g id="edge4" class="edge"><title>Node2&#45;&gt;Node4</title>
<path fill="none" stroke="midnightblue" d="M694.054,-211.718C711.293,-216.719 733.22,-223.079 752.231,-228.594"/>
<polygon fill="midnightblue" stroke="midnightblue" points="751.287,-231.964 761.866,-231.389 753.237,-225.241 751.287,-231.964"/>
</g>
<!-- Node5 -->
<g id="node6" class="node"><title>Node5</title>
<g id="a_node6"><a xlink:href="$a00110.html#a656fd5266ae12a96e53125486f8fea52" xlink:title="gk_GetMaxMemoryUsed">
<polygon fill="white" stroke="black" points="732.5,-193.5 732.5,-212.5 859.5,-212.5 859.5,-193.5 732.5,-193.5"/>
<text text-anchor="middle" x="796" y="-200.5" font-family="Helvetica,sans-Serif" font-size="10.00">gk_GetMaxMemoryUsed</text>
</a>
</g>
</g>
<!-- Node2&#45;&gt;Node5 -->
<g id="edge5" class="edge"><title>Node2&#45;&gt;Node5</title>
<path fill="none" stroke="midnightblue" d="M694.054,-203C702.665,-203 712.447,-203 722.45,-203"/>
<polygon fill="midnightblue" stroke="midnightblue" points="722.491,-206.5 732.491,-203 722.491,-199.5 722.491,-206.5"/>
</g>
<!-- Node6 -->
<g id="node7" class="node"><title>Node6</title>
<g id="a_node7"><a xlink:href="$a00026.html#a4c320c13bcdc9967613253ef4c73f59f" xlink:title="gk_errexit">
<polygon fill="white" stroke="black" points="766,-117.5 766,-136.5 826,-136.5 826,-117.5 766,-117.5"/>
<text text-anchor="middle" x="796" y="-124.5" font-family="Helvetica,sans-Serif" font-size="10.00">gk_errexit</text>
</a>
</g>
</g>
<!-- Node2&#45;&gt;Node6 -->
<g id="edge6" class="edge"><title>Node2&#45;&gt;Node6</title>
<path fill="none" stroke="midnightblue" d="M681.691,-193.375C686.464,-190.545 691.539,-187.313 696,-184 713.424,-171.057 713.53,-162.4 732,-151 739.445,-146.405 747.914,-142.447 756.173,-139.146"/>
<polygon fill="midnightblue" stroke="midnightblue" points="757.565,-142.362 765.7,-135.574 755.107,-135.808 757.565,-142.362"/>
</g>
<!-- Node6&#45;&gt;Node3 -->
<g id="edge7" class="edge"><title>Node6&#45;&gt;Node3</title>
<path fill="none" stroke="midnightblue" d="M826.111,-131.648C844.172,-134.532 867.339,-138.231 885.631,-141.151"/>
<polygon fill="midnightblue" stroke="midnightblue" points="885.335,-144.648 895.762,-142.769 886.439,-137.736 885.335,-144.648"/>
</g>
<!-- Node8&#45;&gt;Node6 -->
<g id="edge11" class="edge"><title>Node8&#45;&gt;Node6</title>
<path fill="none" stroke="midnightblue" d="M591.143,-16.7729C622.67,-22.2673 663.008,-31.8391 696,-48 728.511,-63.9254 760.151,-92.041 778.595,-110.081"/>
<polygon fill="midnightblue" stroke="midnightblue" points="776.327,-112.763 785.875,-117.356 781.275,-107.811 776.327,-112.763"/>
</g>
<!-- Node8&#45;&gt;Node9 -->
<g id="edge10" class="edge"><title>Node8&#45;&gt;Node9</title>
<path fill="none" stroke="midnightblue" d="M561.569,-19.6047C571.55,-23.9146 583.402,-29.1185 594,-34 607.072,-40.0212 621.425,-46.9404 633.562,-52.8829"/>
<polygon fill="midnightblue" stroke="midnightblue" points="632.235,-56.1307 642.753,-57.4034 635.325,-49.8493 632.235,-56.1307"/>
</g>
<!-- Node10&#45;&gt;Node1 -->
<g id="edge13" class="edge"><title>Node10&#45;&gt;Node1</title>
<path fill="none" stroke="midnightblue" d="M430.896,-180.514C448.574,-184.261 468.946,-188.578 487.084,-192.422"/>
<polygon fill="midnightblue" stroke="midnightblue" points="486.391,-195.853 496.9,-194.502 487.842,-189.005 486.391,-195.853"/>
</g>
<!-- Node11 -->
<g id="node12" class="node"><title>Node11</title>
<g id="a_node12"><a xlink:href="$a00077.html#a87b4cd1adb002c1987c1537130e8ee31" xlink:title="gk_ikvsorti">
<polygon fill="white" stroke="black" points="506,-155.5 506,-174.5 570,-174.5 570,-155.5 506,-155.5"/>
<text text-anchor="middle" x="538" y="-162.5" font-family="Helvetica,sans-Serif" font-size="10.00">gk_ikvsorti</text>
</a>
</g>
</g>
<!-- Node10&#45;&gt;Node11 -->
<g id="edge14" class="edge"><title>Node10&#45;&gt;Node11</title>
<path fill="none" stroke="midnightblue" d="M446.113,-168.611C462.685,-167.953 480.29,-167.253 495.549,-166.647"/>
<polygon fill="midnightblue" stroke="midnightblue" points="495.842,-170.138 505.696,-166.244 495.564,-163.144 495.842,-170.138"/>
</g>
<!-- Node12&#45;&gt;Node9 -->
<g id="edge18" class="edge"><title>Node12&#45;&gt;Node9</title>
<path fill="none" stroke="midnightblue" d="M421.278,-110.33C463.212,-115.455 534.943,-120.382 594,-105 610.85,-100.611 627.951,-91.0254 640.789,-82.58"/>
<polygon fill="midnightblue" stroke="midnightblue" points="643.056,-85.2687 649.318,-76.7226 639.093,-79.4982 643.056,-85.2687"/>
</g>
<!-- Node13 -->
<g id="node14" class="node"><title>Node13</title>
<g id="a_node14"><a xlink:href="$a00023.html#a9646f29b0605ba264bf373c441a6826d" xlink:title="gk_csr_FreeContents">
<polygon fill="white" stroke="black" points="482,-76.5 482,-95.5 594,-95.5 594,-76.5 482,-76.5"/>
<text text-anchor="middle" x="538" y="-83.5" font-family="Helvetica,sans-Serif" font-size="10.00">gk_csr_FreeContents</text>
</a>
</g>
</g>
<!-- Node12&#45;&gt;Node13 -->
<g id="edge16" class="edge"><title>Node12&#45;&gt;Node13</title>
<path fill="none" stroke="midnightblue" d="M421.022,-100.593C436.098,-98.6963 454.23,-96.4147 471.632,-94.2251"/>
<polygon fill="midnightblue" stroke="midnightblue" points="472.28,-97.6713 481.764,-92.9502 471.406,-90.7261 472.28,-97.6713"/>
</g>
<!-- Node13&#45;&gt;Node9 -->
<g id="edge17" class="edge"><title>Node13&#45;&gt;Node9</title>
<path fill="none" stroke="midnightblue" d="M594.024,-77.5003C605.538,-75.7218 617.357,-73.896 627.845,-72.276"/>
<polygon fill="midnightblue" stroke="midnightblue" points="628.479,-75.7196 637.828,-70.7339 627.41,-68.8017 628.479,-75.7196"/>
</g>
<!-- Node14&#45;&gt;Node10 -->
<g id="edge20" class="edge"><title>Node14&#45;&gt;Node10</title>
<path fill="none" stroke="midnightblue" d="M286.469,-145.034C303.531,-149.576 322.043,-154.505 338.308,-158.835"/>
<polygon fill="midnightblue" stroke="midnightblue" points="337.549,-162.255 348.112,-161.446 339.35,-155.491 337.549,-162.255"/>
</g>
<!-- Node14&#45;&gt;Node12 -->
<g id="edge21" class="edge"><title>Node14&#45;&gt;Node12</title>
<path fill="none" stroke="midnightblue" d="M288.221,-120.549C304.99,-117.826 323.024,-114.899 338.872,-112.326"/>
<polygon fill="midnightblue" stroke="midnightblue" points="339.625,-115.75 348.935,-110.692 338.503,-108.84 339.625,-115.75"/>
</g>
</g>
</svg>
