<?xml version="1.0" encoding="UTF-8" standalone="no"?>
<!DOCTYPE svg PUBLIC "-//W3C//DTD SVG 1.1//EN"
 "http://www.w3.org/Graphics/SVG/1.1/DTD/svg11.dtd">
<!-- Generated by graphviz version 2.36.0 (20140111.2315)
 -->
<!-- Title: gk_writefastafrompdb Pages: 1 -->
<svg width="372pt" height="142pt"
 viewBox="0.00 0.00 372.00 142.00" xmlns="http://www.w3.org/2000/svg" xmlns:xlink="http://www.w3.org/1999/xlink">
<g id="graph0" class="graph" transform="scale(1 1) rotate(0) translate(4 138)">
<title>gk_writefastafrompdb</title>
<polygon fill="white" stroke="none" points="-4,4 -4,-138 368,-138 368,4 -4,4"/>
<!-- Node42 -->
<g id="node1" class="node"><title>Node42</title>
<polygon fill="#bfbfbf" stroke="black" points="0,-38.5 0,-57.5 112,-57.5 112,-38.5 0,-38.5"/>
<text text-anchor="middle" x="56" y="-45.5" font-family="Helvetica,sans-Serif" font-size="10.00">gk_writefastafrompdb</text>
</g>
<!-- Node43 -->
<g id="node2" class="node"><title>Node43</title>
<g id="a_node2"><a xlink:href="$a00077.html#ab2b996e10c5bccb30204d81804adfd24" xlink:title="gk_fopen">
<polygon fill="white" stroke="black" points="148,-76.5 148,-95.5 206,-95.5 206,-76.5 148,-76.5"/>
<text text-anchor="middle" x="177" y="-83.5" font-family="Helvetica,sans-Serif" font-size="10.00">gk_fopen</text>
</a>
</g>
</g>
<!-- Node42&#45;&gt;Node43 -->
<g id="edge1" class="edge"><title>Node42&#45;&gt;Node43</title>
<path fill="none" stroke="midnightblue" d="M87.0287,-57.589C102.424,-62.5051 121.341,-68.5457 137.767,-73.7912"/>
<polygon fill="midnightblue" stroke="midnightblue" points="137.029,-77.2294 147.619,-76.9373 139.158,-70.5611 137.029,-77.2294"/>
</g>
<!-- Node46 -->
<g id="node5" class="node"><title>Node46</title>
<g id="a_node5"><a xlink:href="$a01017.html#a2e311a777ffe9c80e405efa7cd2757be" xlink:title="fprintf">
<polygon fill="white" stroke="black" points="322,-57.5 322,-76.5 364,-76.5 364,-57.5 322,-57.5"/>
<text text-anchor="middle" x="343" y="-64.5" font-family="Helvetica,sans-Serif" font-size="10.00">fprintf</text>
</a>
</g>
</g>
<!-- Node42&#45;&gt;Node46 -->
<g id="edge5" class="edge"><title>Node42&#45;&gt;Node46</title>
<path fill="none" stroke="midnightblue" d="M112.289,-51.6859C171.759,-55.6506 264.155,-61.8104 311.607,-64.9738"/>
<polygon fill="midnightblue" stroke="midnightblue" points="311.63,-68.483 321.84,-65.656 312.095,-61.4985 311.63,-68.483"/>
</g>
<!-- Node47 -->
<g id="node6" class="node"><title>Node47</title>
<g id="a_node6"><a xlink:href="$a01017.html#a355ed4cdac2a27aa04a6689ac2d7e86e" xlink:title="fclose">
<polygon fill="white" stroke="black" points="155.5,-0.5 155.5,-19.5 198.5,-19.5 198.5,-0.5 155.5,-0.5"/>
<text text-anchor="middle" x="177" y="-7.5" font-family="Helvetica,sans-Serif" font-size="10.00">fclose</text>
</a>
</g>
</g>
<!-- Node42&#45;&gt;Node47 -->
<g id="edge6" class="edge"><title>Node42&#45;&gt;Node47</title>
<path fill="none" stroke="midnightblue" d="M87.0287,-38.411C104.955,-32.6867 127.655,-25.4378 145.64,-19.6948"/>
<polygon fill="midnightblue" stroke="midnightblue" points="146.887,-22.9708 155.348,-16.5947 144.757,-16.3026 146.887,-22.9708"/>
</g>
<!-- Node44 -->
<g id="node3" class="node"><title>Node44</title>
<g id="a_node3"><a xlink:href="$a00575.html#ae6aab5c308faac0fc539cc9c6da9fbd0" xlink:title="sprintf">
<polygon fill="white" stroke="black" points="242,-114.5 242,-133.5 286,-133.5 286,-114.5 242,-114.5"/>
<text text-anchor="middle" x="264" y="-121.5" font-family="Helvetica,sans-Serif" font-size="10.00">sprintf</text>
</a>
</g>
</g>
<!-- Node43&#45;&gt;Node44 -->
<g id="edge2" class="edge"><title>Node43&#45;&gt;Node44</title>
<path fill="none" stroke="midnightblue" d="M199.449,-95.589C209.491,-100.078 221.631,-105.506 232.598,-110.409"/>
<polygon fill="midnightblue" stroke="midnightblue" points="231.295,-113.66 241.852,-114.546 234.151,-107.269 231.295,-113.66"/>
</g>
<!-- Node45 -->
<g id="node4" class="node"><title>Node45</title>
<g id="a_node4"><a xlink:href="$a00026.html#a56d0f2cc40cd8633a784582d6200d8b5" xlink:title="errexit">
<polygon fill="white" stroke="black" points="242,-76.5 242,-95.5 286,-95.5 286,-76.5 242,-76.5"/>
<text text-anchor="middle" x="264" y="-83.5" font-family="Helvetica,sans-Serif" font-size="10.00">errexit</text>
</a>
</g>
</g>
<!-- Node43&#45;&gt;Node45 -->
<g id="edge3" class="edge"><title>Node43&#45;&gt;Node45</title>
<path fill="none" stroke="midnightblue" d="M206.304,-86C214.453,-86 223.39,-86 231.709,-86"/>
<polygon fill="midnightblue" stroke="midnightblue" points="231.811,-89.5001 241.811,-86 231.811,-82.5001 231.811,-89.5001"/>
</g>
<!-- Node45&#45;&gt;Node46 -->
<g id="edge4" class="edge"><title>Node45&#45;&gt;Node46</title>
<path fill="none" stroke="midnightblue" d="M286.041,-80.8082C294.042,-78.8339 303.319,-76.5446 311.992,-74.4047"/>
<polygon fill="midnightblue" stroke="midnightblue" points="312.911,-77.7828 321.782,-71.9889 311.234,-70.9866 312.911,-77.7828"/>
</g>
</g>
</svg>
