<?xml version="1.0" encoding="UTF-8" standalone="no"?>
<!DOCTYPE svg PUBLIC "-//W3C//DTD SVG 1.1//EN"
 "http://www.w3.org/Graphics/SVG/1.1/DTD/svg11.dtd">
<!-- Generated by graphviz version 2.36.0 (20140111.2315)
 -->
<!-- Title: main Pages: 1 -->
<svg width="414pt" height="826pt"
 viewBox="0.00 0.00 414.00 826.00" xmlns="http://www.w3.org/2000/svg" xmlns:xlink="http://www.w3.org/1999/xlink">
<g id="graph0" class="graph" transform="scale(1 1) rotate(0) translate(4 822)">
<title>main</title>
<polygon fill="white" stroke="none" points="-4,4 -4,-822 410,-822 410,4 -4,4"/>
<!-- Node0 -->
<g id="node1" class="node"><title>Node0</title>
<polygon fill="#bfbfbf" stroke="black" points="0,-171.5 0,-190.5 38,-190.5 38,-171.5 0,-171.5"/>
<text text-anchor="middle" x="19" y="-178.5" font-family="Helvetica,sans-Serif" font-size="10.00">main</text>
</g>
<!-- Node1 -->
<g id="node2" class="node"><title>Node1</title>
<g id="a_node2"><a xlink:href="a00155.html#af31fd6654ededed596d98c090d8748b5" target="_top" xlink:title="ReadMesh2d">
<polygon fill="white" stroke="black" points="81,-570.5 81,-589.5 157,-589.5 157,-570.5 81,-570.5"/>
<text text-anchor="middle" x="119" y="-577.5" font-family="Helvetica,sans-Serif" font-size="10.00">ReadMesh2d</text>
</a>
</g>
</g>
<!-- Node0&#45;&gt;Node1 -->
<g id="edge1" class="edge"><title>Node0&#45;&gt;Node1</title>
<path fill="none" stroke="midnightblue" d="M22.4225,-190.863C35.2925,-243.262 95.7237,-489.304 113.234,-560.597"/>
<polygon fill="midnightblue" stroke="midnightblue" points="109.878,-561.605 115.662,-570.482 116.676,-559.936 109.878,-561.605"/>
</g>
<!-- Node8 -->
<g id="node9" class="node"><title>Node8</title>
<g id="a_node9"><a xlink:href="a00155.html#a73ad96b82acf2bf80fd24823a58b3f14" target="_top" xlink:title="FacePair2d">
<polygon fill="white" stroke="black" points="85,-722.5 85,-741.5 153,-741.5 153,-722.5 85,-722.5"/>
<text text-anchor="middle" x="119" y="-729.5" font-family="Helvetica,sans-Serif" font-size="10.00">FacePair2d</text>
</a>
</g>
</g>
<!-- Node0&#45;&gt;Node8 -->
<g id="edge8" class="edge"><title>Node0&#45;&gt;Node8</title>
<path fill="none" stroke="midnightblue" d="M20.5562,-190.535C23.3677,-236.333 37.35,-438.118 74,-599 83.4537,-640.499 100.544,-687.412 110.412,-712.945"/>
<polygon fill="midnightblue" stroke="midnightblue" points="107.249,-714.466 114.156,-722.5 113.766,-711.912 107.249,-714.466"/>
</g>
<!-- Node11 -->
<g id="node12" class="node"><title>Node11</title>
<g id="a_node12"><a xlink:href="a00155.html#a35ba318a20f8b83eefe63eeb1e1ac4b0" target="_top" xlink:title="StartUp2d">
<polygon fill="white" stroke="black" points="88,-342.5 88,-361.5 150,-361.5 150,-342.5 88,-342.5"/>
<text text-anchor="middle" x="119" y="-349.5" font-family="Helvetica,sans-Serif" font-size="10.00">StartUp2d</text>
</a>
</g>
</g>
<!-- Node0&#45;&gt;Node11 -->
<g id="edge13" class="edge"><title>Node0&#45;&gt;Node11</title>
<path fill="none" stroke="midnightblue" d="M25.5497,-190.684C41.3164,-218.195 86.5747,-297.166 107.347,-333.411"/>
<polygon fill="midnightblue" stroke="midnightblue" points="104.502,-335.487 112.511,-342.423 110.575,-332.006 104.502,-335.487"/>
</g>
<!-- Node21 -->
<g id="node22" class="node"><title>Node21</title>
<g id="a_node22"><a xlink:href="a00209.html#a0dee5ebc8cec6627fc23083e47b4ca11" target="_top" xlink:title="InitOCCA2D">
<polygon fill="white" stroke="black" points="83,-190.5 83,-209.5 155,-209.5 155,-190.5 83,-190.5"/>
<text text-anchor="middle" x="119" y="-197.5" font-family="Helvetica,sans-Serif" font-size="10.00">InitOCCA2D</text>
</a>
</g>
</g>
<!-- Node0&#45;&gt;Node21 -->
<g id="edge30" class="edge"><title>Node0&#45;&gt;Node21</title>
<path fill="none" stroke="midnightblue" d="M38.4331,-184.574C48.2227,-186.472 60.7226,-188.895 72.8993,-191.256"/>
<polygon fill="midnightblue" stroke="midnightblue" points="72.5017,-194.744 82.9851,-193.211 73.8341,-187.872 72.5017,-194.744"/>
</g>
<!-- Node22 -->
<g id="node23" class="node"><title>Node22</title>
<g id="a_node23"><a xlink:href="a00155.html#a21a02761bc746f8e6205d02f662aee16" target="_top" xlink:title="rk_run_2d">
<polygon fill="white" stroke="black" points="88,-152.5 88,-171.5 150,-171.5 150,-152.5 88,-152.5"/>
<text text-anchor="middle" x="119" y="-159.5" font-family="Helvetica,sans-Serif" font-size="10.00">rk_run_2d</text>
</a>
</g>
</g>
<!-- Node0&#45;&gt;Node22 -->
<g id="edge32" class="edge"><title>Node0&#45;&gt;Node22</title>
<path fill="none" stroke="midnightblue" d="M38.4331,-177.426C49.4789,-175.285 63.9751,-172.474 77.5644,-169.84"/>
<polygon fill="midnightblue" stroke="midnightblue" points="78.5562,-173.213 87.7072,-167.873 77.2239,-166.34 78.5562,-173.213"/>
</g>
<!-- Node25 -->
<g id="node26" class="node"><title>Node25</title>
<g id="a_node26"><a xlink:href="a00155.html#ad512c37561b25c93d8d7c7717a500df4" target="_top" xlink:title="gpu_set_data3d">
<polygon fill="white" stroke="black" points="75,-114.5 75,-133.5 163,-133.5 163,-114.5 75,-114.5"/>
<text text-anchor="middle" x="119" y="-121.5" font-family="Helvetica,sans-Serif" font-size="10.00">gpu_set_data3d</text>
</a>
</g>
</g>
<!-- Node0&#45;&gt;Node25 -->
<g id="edge37" class="edge"><title>Node0&#45;&gt;Node25</title>
<path fill="none" stroke="midnightblue" d="M31.9676,-171.496C42.6099,-163.313 58.7963,-151.513 74,-143 77.2398,-141.186 80.6871,-139.427 84.1711,-137.759"/>
<polygon fill="midnightblue" stroke="midnightblue" points="85.7067,-140.906 93.3619,-133.581 82.8099,-134.533 85.7067,-140.906"/>
</g>
<!-- Node26 -->
<g id="node27" class="node"><title>Node26</title>
<g id="a_node27"><a xlink:href="a00155.html#a630113a871c79c54d968c6c233e59145" target="_top" xlink:title="MaxwellsRun3d">
<polygon fill="white" stroke="black" points="75.5,-76.5 75.5,-95.5 162.5,-95.5 162.5,-76.5 75.5,-76.5"/>
<text text-anchor="middle" x="119" y="-83.5" font-family="Helvetica,sans-Serif" font-size="10.00">MaxwellsRun3d</text>
</a>
</g>
</g>
<!-- Node0&#45;&gt;Node26 -->
<g id="edge38" class="edge"><title>Node0&#45;&gt;Node26</title>
<path fill="none" stroke="midnightblue" d="M24.655,-171.308C32.6952,-155.477 50.5969,-123.938 74,-105 75.9809,-103.397 78.1175,-101.906 80.3443,-100.522"/>
<polygon fill="midnightblue" stroke="midnightblue" points="82.1084,-103.547 89.2407,-95.7127 78.7794,-97.3895 82.1084,-103.547"/>
</g>
<!-- Node27 -->
<g id="node28" class="node"><title>Node27</title>
<g id="a_node28"><a xlink:href="a00155.html#aa1ecfe5bfbcdb9a59cb6c3c39f62f744" target="_top" xlink:title="gpu_get_data3d">
<polygon fill="white" stroke="black" points="74.5,-38.5 74.5,-57.5 163.5,-57.5 163.5,-38.5 74.5,-38.5"/>
<text text-anchor="middle" x="119" y="-45.5" font-family="Helvetica,sans-Serif" font-size="10.00">gpu_get_data3d</text>
</a>
</g>
</g>
<!-- Node0&#45;&gt;Node27 -->
<g id="edge39" class="edge"><title>Node0&#45;&gt;Node27</title>
<path fill="none" stroke="midnightblue" d="M22.0989,-171.389C27.2579,-149.892 42.4957,-97.4283 74,-67 75.6047,-65.4501 77.3559,-64.0164 79.2054,-62.6917"/>
<polygon fill="midnightblue" stroke="midnightblue" points="81.0058,-65.6931 87.7933,-57.5579 77.4141,-59.6848 81.0058,-65.6931"/>
</g>
<!-- Node2 -->
<g id="node3" class="node"><title>Node2</title>
<g id="a_node3"><a xlink:href="a00155.html#a990278305dbeaf8e4441cf4146bfdc62" target="_top" xlink:title="BuildVector">
<polygon fill="white" stroke="black" points="211,-494.5 211,-513.5 279,-513.5 279,-494.5 211,-494.5"/>
<text text-anchor="middle" x="245" y="-501.5" font-family="Helvetica,sans-Serif" font-size="10.00">BuildVector</text>
</a>
</g>
</g>
<!-- Node1&#45;&gt;Node2 -->
<g id="edge2" class="edge"><title>Node1&#45;&gt;Node2</title>
<path fill="none" stroke="midnightblue" d="M131.671,-570.479C146.801,-558.426 174.3,-537.489 200,-523 203.234,-521.177 206.678,-519.411 210.16,-517.74"/>
<polygon fill="midnightblue" stroke="midnightblue" points="211.697,-520.886 219.348,-513.557 208.797,-514.515 211.697,-520.886"/>
</g>
<!-- Node3 -->
<g id="node4" class="node"><title>Node3</title>
<g id="a_node4"><a xlink:href="a00155.html#a77f751d54b396015520a882d7a318e57" target="_top" xlink:title="BuildIntMatrix">
<polygon fill="white" stroke="black" points="206.5,-608.5 206.5,-627.5 283.5,-627.5 283.5,-608.5 206.5,-608.5"/>
<text text-anchor="middle" x="245" y="-615.5" font-family="Helvetica,sans-Serif" font-size="10.00">BuildIntMatrix</text>
</a>
</g>
</g>
<!-- Node1&#45;&gt;Node3 -->
<g id="edge3" class="edge"><title>Node1&#45;&gt;Node3</title>
<path fill="none" stroke="midnightblue" d="M151.29,-589.589C167.004,-594.404 186.238,-600.299 203.106,-605.468"/>
<polygon fill="midnightblue" stroke="midnightblue" points="202.133,-608.83 212.72,-608.414 204.184,-602.138 202.133,-608.83"/>
</g>
<!-- Node4 -->
<g id="node5" class="node"><title>Node4</title>
<g id="a_node5"><a xlink:href="a00155.html#a4bf6e503687187059ced10b812beaab3" target="_top" xlink:title="BuildMatrix">
<polygon fill="white" stroke="black" points="333,-85.5 333,-104.5 399,-104.5 399,-85.5 333,-85.5"/>
<text text-anchor="middle" x="366" y="-92.5" font-family="Helvetica,sans-Serif" font-size="10.00">BuildMatrix</text>
</a>
</g>
</g>
<!-- Node1&#45;&gt;Node4 -->
<g id="edge4" class="edge"><title>Node1&#45;&gt;Node4</title>
<path fill="none" stroke="midnightblue" d="M157.295,-587.993C196.209,-593.92 256.169,-595.83 290,-561 357.89,-491.104 278.704,-209.192 326,-124 328.816,-118.928 332.932,-114.489 337.447,-110.709"/>
<polygon fill="midnightblue" stroke="midnightblue" points="339.785,-113.336 345.81,-104.62 335.665,-107.676 339.785,-113.336"/>
</g>
<!-- Node5 -->
<g id="node6" class="node"><title>Node5</title>
<g id="a_node6"><a xlink:href="a00155.html#a0f24d8056fa979af4888469ea90576ff" target="_top" xlink:title="BuildIntVector">
<polygon fill="white" stroke="black" points="326.5,-570.5 326.5,-589.5 405.5,-589.5 405.5,-570.5 326.5,-570.5"/>
<text text-anchor="middle" x="366" y="-577.5" font-family="Helvetica,sans-Serif" font-size="10.00">BuildIntVector</text>
</a>
</g>
</g>
<!-- Node1&#45;&gt;Node5 -->
<g id="edge5" class="edge"><title>Node1&#45;&gt;Node5</title>
<path fill="none" stroke="midnightblue" d="M124.498,-589.646C134.604,-610.01 161.291,-656.991 200,-675 236.267,-691.873 254.004,-692.444 290,-675 322.615,-659.195 345.326,-621.564 356.674,-598.692"/>
<polygon fill="midnightblue" stroke="midnightblue" points="359.85,-600.162 360.961,-589.626 353.522,-597.17 359.85,-600.162"/>
</g>
<!-- Node6 -->
<g id="node7" class="node"><title>Node6</title>
<g id="a_node7"><a xlink:href="a00155.html#a6031ee45d6b3d95665a885b7128c311c" target="_top" xlink:title="Build3Tensor">
<polygon fill="white" stroke="black" points="207.5,-532.5 207.5,-551.5 282.5,-551.5 282.5,-532.5 207.5,-532.5"/>
<text text-anchor="middle" x="245" y="-539.5" font-family="Helvetica,sans-Serif" font-size="10.00">Build3Tensor</text>
</a>
</g>
</g>
<!-- Node1&#45;&gt;Node6 -->
<g id="edge6" class="edge"><title>Node1&#45;&gt;Node6</title>
<path fill="none" stroke="midnightblue" d="M151.29,-570.411C167.004,-565.596 186.238,-559.701 203.106,-554.532"/>
<polygon fill="midnightblue" stroke="midnightblue" points="204.184,-557.862 212.72,-551.586 202.133,-551.17 204.184,-557.862"/>
</g>
<!-- Node7 -->
<g id="node8" class="node"><title>Node7</title>
<g id="a_node8"><a xlink:href="a00300.html#a355ed4cdac2a27aa04a6689ac2d7e86e" target="_top" xlink:title="fclose">
<polygon fill="white" stroke="black" points="223.5,-646.5 223.5,-665.5 266.5,-665.5 266.5,-646.5 223.5,-646.5"/>
<text text-anchor="middle" x="245" y="-653.5" font-family="Helvetica,sans-Serif" font-size="10.00">fclose</text>
</a>
</g>
</g>
<!-- Node1&#45;&gt;Node7 -->
<g id="edge7" class="edge"><title>Node1&#45;&gt;Node7</title>
<path fill="none" stroke="midnightblue" d="M131.671,-589.521C146.801,-601.574 174.3,-622.511 200,-637 204.39,-639.475 209.165,-641.842 213.898,-644.014"/>
<polygon fill="midnightblue" stroke="midnightblue" points="212.85,-647.376 223.415,-648.17 215.652,-640.961 212.85,-647.376"/>
</g>
<!-- Node8&#45;&gt;Node3 -->
<g id="edge12" class="edge"><title>Node8&#45;&gt;Node3</title>
<path fill="none" stroke="midnightblue" d="M125.897,-722.374C137.797,-703.645 166.43,-661.956 200,-637 202.316,-635.278 204.813,-633.674 207.398,-632.187"/>
<polygon fill="midnightblue" stroke="midnightblue" points="209.087,-635.255 216.397,-627.585 205.9,-629.022 209.087,-635.255"/>
</g>
<!-- Node8&#45;&gt;Node5 -->
<g id="edge11" class="edge"><title>Node8&#45;&gt;Node5</title>
<path fill="none" stroke="midnightblue" d="M153.285,-732.035C189.851,-730.525 248.844,-723.374 290,-695 324.84,-670.98 347.428,-624.966 358.001,-599.017"/>
<polygon fill="midnightblue" stroke="midnightblue" points="361.323,-600.132 361.688,-589.544 354.799,-597.594 361.323,-600.132"/>
</g>
<!-- Node9 -->
<g id="node10" class="node"><title>Node9</title>
<g id="a_node10"><a xlink:href="a00233.html#a9109c446b437fff787b51f7eb55988c3" target="_top" xlink:title="face">
<polygon fill="white" stroke="black" points="227.5,-760.5 227.5,-779.5 262.5,-779.5 262.5,-760.5 227.5,-760.5"/>
<text text-anchor="middle" x="245" y="-767.5" font-family="Helvetica,sans-Serif" font-size="10.00">face</text>
</a>
</g>
</g>
<!-- Node8&#45;&gt;Node9 -->
<g id="edge9" class="edge"><title>Node8&#45;&gt;Node9</title>
<path fill="none" stroke="midnightblue" d="M151.29,-741.589C171.725,-747.851 198.113,-755.938 217.508,-761.881"/>
<polygon fill="midnightblue" stroke="midnightblue" points="216.626,-765.272 227.212,-764.855 218.677,-758.579 216.626,-765.272"/>
</g>
<!-- Node10 -->
<g id="node11" class="node"><title>Node10</title>
<g id="a_node11"><a xlink:href="a00203.html#a47244e0c661b3f7b5dde22b312884021" target="_top" xlink:title="faceCompare2D">
<polygon fill="white" stroke="black" points="200.5,-798.5 200.5,-817.5 289.5,-817.5 289.5,-798.5 200.5,-798.5"/>
<text text-anchor="middle" x="245" y="-805.5" font-family="Helvetica,sans-Serif" font-size="10.00">faceCompare2D</text>
</a>
</g>
</g>
<!-- Node8&#45;&gt;Node10 -->
<g id="edge10" class="edge"><title>Node8&#45;&gt;Node10</title>
<path fill="none" stroke="midnightblue" d="M131.671,-741.521C146.801,-753.574 174.3,-774.511 200,-789 203.234,-790.823 206.678,-792.589 210.16,-794.26"/>
<polygon fill="midnightblue" stroke="midnightblue" points="208.797,-797.485 219.348,-798.443 211.697,-791.114 208.797,-797.485"/>
</g>
<!-- Node11&#45;&gt;Node2 -->
<g id="edge14" class="edge"><title>Node11&#45;&gt;Node2</title>
<path fill="none" stroke="midnightblue" d="M124.035,-361.837C133.938,-384.988 161.477,-443.694 200,-480 203.609,-483.402 207.793,-486.478 212.116,-489.206"/>
<polygon fill="midnightblue" stroke="midnightblue" points="210.627,-492.386 221.046,-494.308 214.099,-486.308 210.627,-492.386"/>
</g>
<!-- Node11&#45;&gt;Node3 -->
<g id="edge16" class="edge"><title>Node11&#45;&gt;Node3</title>
<path fill="none" stroke="midnightblue" d="M122.585,-361.601C131.01,-392.072 159.494,-488.836 200,-561 207.918,-575.107 219.074,-589.517 228.171,-600.319"/>
<polygon fill="midnightblue" stroke="midnightblue" points="225.738,-602.856 234.925,-608.133 231.034,-598.279 225.738,-602.856"/>
</g>
<!-- Node11&#45;&gt;Node4 -->
<g id="edge15" class="edge"><title>Node11&#45;&gt;Node4</title>
<path fill="none" stroke="midnightblue" d="M123.105,-342.43C135.844,-303.392 184.173,-157.573 200,-143 217.931,-126.49 280.194,-111.501 322.891,-102.817"/>
<polygon fill="midnightblue" stroke="midnightblue" points="323.626,-106.239 332.749,-100.853 322.258,-99.3744 323.626,-106.239"/>
</g>
<!-- Node11&#45;&gt;Node5 -->
<g id="edge20" class="edge"><title>Node11&#45;&gt;Node5</title>
<path fill="none" stroke="midnightblue" d="M125.879,-361.65C137.748,-380.421 166.329,-422.18 200,-447 234.95,-472.763 255.461,-458.688 290,-485 318.121,-506.423 341.672,-540.716 354.515,-561.712"/>
<polygon fill="midnightblue" stroke="midnightblue" points="351.52,-563.524 359.64,-570.329 357.536,-559.946 351.52,-563.524"/>
</g>
<!-- Node11&#45;&gt;Node6 -->
<g id="edge17" class="edge"><title>Node11&#45;&gt;Node6</title>
<path fill="none" stroke="midnightblue" d="M121.946,-361.529C128.206,-389.901 150.372,-474.837 200,-523 201.601,-524.554 203.349,-525.99 205.196,-527.318"/>
<polygon fill="midnightblue" stroke="midnightblue" points="203.401,-530.322 213.778,-532.458 206.998,-524.317 203.401,-530.322"/>
</g>
<!-- Node12 -->
<g id="node13" class="node"><title>Node12</title>
<g id="a_node13"><a xlink:href="a00002.html#aff625505c4d622f25ca1ff559149e2a5" target="_top" xlink:title="Build4Tensor">
<polygon fill="white" stroke="black" points="207.5,-380.5 207.5,-399.5 282.5,-399.5 282.5,-380.5 207.5,-380.5"/>
<text text-anchor="middle" x="245" y="-387.5" font-family="Helvetica,sans-Serif" font-size="10.00">Build4Tensor</text>
</a>
</g>
</g>
<!-- Node11&#45;&gt;Node12 -->
<g id="edge18" class="edge"><title>Node11&#45;&gt;Node12</title>
<path fill="none" stroke="midnightblue" d="M150.017,-361.199C165.955,-366.083 185.776,-372.157 203.1,-377.466"/>
<polygon fill="midnightblue" stroke="midnightblue" points="202.378,-380.905 212.965,-380.489 204.429,-374.213 202.378,-380.905"/>
</g>
<!-- Node13 -->
<g id="node14" class="node"><title>Node13</title>
<g id="a_node14"><a xlink:href="a00155.html#a45390a77c9093b8b1144623da67508c8" target="_top" xlink:title="bidg_constants">
<polygon fill="white" stroke="black" points="203,-342.5 203,-361.5 287,-361.5 287,-342.5 203,-342.5"/>
<text text-anchor="middle" x="245" y="-349.5" font-family="Helvetica,sans-Serif" font-size="10.00">bidg_constants</text>
</a>
</g>
</g>
<!-- Node11&#45;&gt;Node13 -->
<g id="edge19" class="edge"><title>Node11&#45;&gt;Node13</title>
<path fill="none" stroke="midnightblue" d="M150.017,-352C162.706,-352 177.856,-352 192.248,-352"/>
<polygon fill="midnightblue" stroke="midnightblue" points="192.548,-355.5 202.548,-352 192.548,-348.5 192.548,-355.5"/>
</g>
<!-- Node14 -->
<g id="node15" class="node"><title>Node14</title>
<g id="a_node15"><a xlink:href="a00155.html#a2aba2292a481f3bb8f85213baf22686b" target="_top" xlink:title="evaluateBasis">
<polygon fill="white" stroke="black" points="205.5,-266.5 205.5,-285.5 284.5,-285.5 284.5,-266.5 205.5,-266.5"/>
<text text-anchor="middle" x="245" y="-273.5" font-family="Helvetica,sans-Serif" font-size="10.00">evaluateBasis</text>
</a>
</g>
</g>
<!-- Node11&#45;&gt;Node14 -->
<g id="edge21" class="edge"><title>Node11&#45;&gt;Node14</title>
<path fill="none" stroke="midnightblue" d="M133.954,-342.461C149.758,-331.77 176.385,-314.087 200,-300 205.266,-296.859 210.967,-293.628 216.464,-290.596"/>
<polygon fill="midnightblue" stroke="midnightblue" points="218.298,-293.582 225.411,-285.73 214.954,-287.433 218.298,-293.582"/>
</g>
<!-- Node15 -->
<g id="node16" class="node"><title>Node15</title>
<g id="a_node16"><a xlink:href="a00155.html#a5f6af94f39daf53ff33c328e81b7aeae" target="_top" xlink:title="tri10">
<polygon fill="white" stroke="black" points="227,-228.5 227,-247.5 263,-247.5 263,-228.5 227,-228.5"/>
<text text-anchor="middle" x="245" y="-235.5" font-family="Helvetica,sans-Serif" font-size="10.00">tri10</text>
</a>
</g>
</g>
<!-- Node11&#45;&gt;Node15 -->
<g id="edge22" class="edge"><title>Node11&#45;&gt;Node15</title>
<path fill="none" stroke="midnightblue" d="M125.897,-342.374C137.797,-323.645 166.43,-281.956 200,-257 205.133,-253.184 211.152,-249.946 217.06,-247.284"/>
<polygon fill="midnightblue" stroke="midnightblue" points="218.785,-250.361 226.725,-243.346 216.143,-243.878 218.785,-250.361"/>
</g>
<!-- Node16 -->
<g id="node17" class="node"><title>Node16</title>
<g id="a_node17"><a xlink:href="a00155.html#a6e05f4bc3238ae8e045ddc269dd77f74" target="_top" xlink:title="Normals2d">
<polygon fill="white" stroke="black" points="333.5,-304.5 333.5,-323.5 398.5,-323.5 398.5,-304.5 333.5,-304.5"/>
<text text-anchor="middle" x="366" y="-311.5" font-family="Helvetica,sans-Serif" font-size="10.00">Normals2d</text>
</a>
</g>
</g>
<!-- Node11&#45;&gt;Node16 -->
<g id="edge23" class="edge"><title>Node11&#45;&gt;Node16</title>
<path fill="none" stroke="midnightblue" d="M150.215,-343.93C165.116,-340.179 183.409,-335.915 200,-333 241.515,-325.706 289.418,-320.547 322.878,-317.463"/>
<polygon fill="midnightblue" stroke="midnightblue" points="323.561,-320.916 333.207,-316.534 322.934,-313.944 323.561,-320.916"/>
</g>
<!-- Node17 -->
<g id="node18" class="node"><title>Node17</title>
<g id="a_node18"><a xlink:href="a00221.html#ad2387c52fae7bf66e1511ef9a281ee26" target="_top" xlink:title="inverse">
<polygon fill="white" stroke="black" points="220.5,-152.5 220.5,-171.5 269.5,-171.5 269.5,-152.5 220.5,-152.5"/>
<text text-anchor="middle" x="245" y="-159.5" font-family="Helvetica,sans-Serif" font-size="10.00">inverse</text>
</a>
</g>
</g>
<!-- Node11&#45;&gt;Node17 -->
<g id="edge24" class="edge"><title>Node11&#45;&gt;Node17</title>
<path fill="none" stroke="midnightblue" d="M125.26,-342.413C137.552,-320.205 169.443,-263.717 200,-219 209.238,-205.48 220.542,-190.873 229.379,-179.831"/>
<polygon fill="midnightblue" stroke="midnightblue" points="232.284,-181.805 235.85,-171.828 226.841,-177.403 232.284,-181.805"/>
</g>
<!-- Node20 -->
<g id="node21" class="node"><title>Node20</title>
<g id="a_node21"><a xlink:href="a00221.html#ac0114aa8a9d094bad20943e1b79ba473" target="_top" xlink:title="BuildMaps2d">
<polygon fill="white" stroke="black" points="208,-418.5 208,-437.5 282,-437.5 282,-418.5 208,-418.5"/>
<text text-anchor="middle" x="245" y="-425.5" font-family="Helvetica,sans-Serif" font-size="10.00">BuildMaps2d</text>
</a>
</g>
</g>
<!-- Node11&#45;&gt;Node20 -->
<g id="edge27" class="edge"><title>Node11&#45;&gt;Node20</title>
<path fill="none" stroke="midnightblue" d="M131.671,-361.521C146.801,-373.574 174.3,-394.511 200,-409 203.234,-410.823 206.678,-412.589 210.16,-414.26"/>
<polygon fill="midnightblue" stroke="midnightblue" points="208.797,-417.485 219.348,-418.443 211.697,-411.114 208.797,-417.485"/>
</g>
<!-- Node18 -->
<g id="node19" class="node"><title>Node18</title>
<g id="a_node19"><a xlink:href="a00221.html#a9ade98d71580bb70e0ddf663d30e4bb4" target="_top" xlink:title="dgetrf_">
<polygon fill="white" stroke="black" points="342,-171.5 342,-190.5 390,-190.5 390,-171.5 342,-171.5"/>
<text text-anchor="middle" x="366" y="-178.5" font-family="Helvetica,sans-Serif" font-size="10.00">dgetrf_</text>
</a>
</g>
</g>
<!-- Node17&#45;&gt;Node18 -->
<g id="edge25" class="edge"><title>Node17&#45;&gt;Node18</title>
<path fill="none" stroke="midnightblue" d="M269.511,-165.754C287.309,-168.596 311.991,-172.536 331.802,-175.699"/>
<polygon fill="midnightblue" stroke="midnightblue" points="331.516,-179.198 341.943,-177.319 332.62,-172.286 331.516,-179.198"/>
</g>
<!-- Node19 -->
<g id="node20" class="node"><title>Node19</title>
<g id="a_node20"><a xlink:href="a00221.html#af83709f5dcd4b9fbff71c3623b64fa21" target="_top" xlink:title="dgetri_">
<polygon fill="white" stroke="black" points="342.5,-133.5 342.5,-152.5 389.5,-152.5 389.5,-133.5 342.5,-133.5"/>
<text text-anchor="middle" x="366" y="-140.5" font-family="Helvetica,sans-Serif" font-size="10.00">dgetri_</text>
</a>
</g>
</g>
<!-- Node17&#45;&gt;Node19 -->
<g id="edge26" class="edge"><title>Node17&#45;&gt;Node19</title>
<path fill="none" stroke="midnightblue" d="M269.511,-158.246C287.507,-155.373 312.539,-151.376 332.459,-148.196"/>
<polygon fill="midnightblue" stroke="midnightblue" points="333.023,-151.65 342.346,-146.617 331.919,-144.738 333.023,-151.65"/>
</g>
<!-- Node20&#45;&gt;Node5 -->
<g id="edge28" class="edge"><title>Node20&#45;&gt;Node5</title>
<path fill="none" stroke="midnightblue" d="M269.051,-437.591C276.317,-441.356 284.003,-446.185 290,-452 323.135,-484.134 346.633,-534.005 357.748,-561.033"/>
<polygon fill="midnightblue" stroke="midnightblue" points="354.563,-562.496 361.513,-570.493 361.067,-559.908 354.563,-562.496"/>
</g>
<!-- Node20&#45;&gt;Node16 -->
<g id="edge29" class="edge"><title>Node20&#45;&gt;Node16</title>
<path fill="none" stroke="midnightblue" d="M274.154,-418.32C279.69,-415.749 285.249,-412.65 290,-409 318.034,-387.463 341.612,-353.206 354.484,-332.248"/>
<polygon fill="midnightblue" stroke="midnightblue" points="357.498,-334.027 359.622,-323.647 351.488,-330.437 357.498,-334.027"/>
</g>
<!-- Node21&#45;&gt;Node16 -->
<g id="edge31" class="edge"><title>Node21&#45;&gt;Node16</title>
<path fill="none" stroke="midnightblue" d="M155.252,-196.337C191.386,-194.248 248.069,-195.716 290,-219 321.384,-236.428 344.281,-272.901 356.042,-295.24"/>
<polygon fill="midnightblue" stroke="midnightblue" points="353.027,-297.035 360.652,-304.39 359.278,-293.885 353.027,-297.035"/>
</g>
<!-- Node22&#45;&gt;Node4 -->
<g id="edge36" class="edge"><title>Node22&#45;&gt;Node4</title>
<path fill="none" stroke="midnightblue" d="M146.334,-152.334C152.34,-149.671 158.553,-146.528 164,-143 182.217,-131.2 180.149,-118.777 200,-110 238.98,-92.7652 288.113,-90.4562 322.587,-91.5687"/>
<polygon fill="midnightblue" stroke="midnightblue" points="322.646,-95.0745 332.788,-92.0111 322.949,-88.0811 322.646,-95.0745"/>
</g>
<!-- Node23 -->
<g id="node24" class="node"><title>Node23</title>
<g id="a_node24"><a xlink:href="a00209.html#a9b253cfe04029e084b403542b0d7a64b" target="_top" xlink:title="rk_step_2d">
<polygon fill="white" stroke="black" points="212,-38.5 212,-57.5 278,-57.5 278,-38.5 212,-38.5"/>
<text text-anchor="middle" x="245" y="-45.5" font-family="Helvetica,sans-Serif" font-size="10.00">rk_step_2d</text>
</a>
</g>
</g>
<!-- Node22&#45;&gt;Node23 -->
<g id="edge33" class="edge"><title>Node22&#45;&gt;Node23</title>
<path fill="none" stroke="midnightblue" d="M150.123,-152.354C155.136,-149.847 159.999,-146.762 164,-143 189.776,-118.765 175.362,-97.391 200,-72 203.382,-68.5147 207.381,-65.4084 211.566,-62.6814"/>
<polygon fill="midnightblue" stroke="midnightblue" points="213.395,-65.6669 220.283,-57.6169 209.879,-59.6143 213.395,-65.6669"/>
</g>
<!-- Node24 -->
<g id="node25" class="node"><title>Node24</title>
<g id="a_node25"><a xlink:href="a00155.html#aa275e5ac3935009592aad28f023ed4a1" target="_top" xlink:title="write_vtu">
<polygon fill="white" stroke="black" points="216.5,-0.5 216.5,-19.5 273.5,-19.5 273.5,-0.5 216.5,-0.5"/>
<text text-anchor="middle" x="245" y="-7.5" font-family="Helvetica,sans-Serif" font-size="10.00">write_vtu</text>
</a>
</g>
</g>
<!-- Node22&#45;&gt;Node24 -->
<g id="edge34" class="edge"><title>Node22&#45;&gt;Node24</title>
<path fill="none" stroke="midnightblue" d="M150.2,-153.103C155.326,-150.508 160.208,-147.199 164,-143 199.611,-103.567 164.389,-68.4327 200,-29 202.107,-26.6669 204.55,-24.6087 207.185,-22.7949"/>
<polygon fill="midnightblue" stroke="midnightblue" points="209.073,-25.7491 216.074,-17.7973 205.642,-19.6473 209.073,-25.7491"/>
</g>
<!-- Node24&#45;&gt;Node4 -->
<g id="edge35" class="edge"><title>Node24&#45;&gt;Node4</title>
<path fill="none" stroke="midnightblue" d="M271.821,-19.5424C277.971,-22.2468 284.377,-25.438 290,-29 312.253,-43.0961 334.499,-63.6961 348.915,-78.1218"/>
<polygon fill="midnightblue" stroke="midnightblue" points="346.569,-80.7283 356.068,-85.4203 351.568,-75.8286 346.569,-80.7283"/>
</g>
</g>
</svg>
