<?xml version="1.0" encoding="UTF-8" standalone="no"?>
<!DOCTYPE svg PUBLIC "-//W3C//DTD SVG 1.1//EN"
 "http://www.w3.org/Graphics/SVG/1.1/DTD/svg11.dtd">
<!-- Generated by graphviz version 2.36.0 (20140111.2315)
 -->
<!-- Title: test_skvsort Pages: 1 -->
<svg width="524pt" height="144pt"
 viewBox="0.00 0.00 524.00 143.90" xmlns="http://www.w3.org/2000/svg" xmlns:xlink="http://www.w3.org/1999/xlink">
<g id="graph0" class="graph" transform="scale(1 1) rotate(0) translate(4 139.901)">
<title>test_skvsort</title>
<polygon fill="white" stroke="none" points="-4,4 -4,-139.901 520,-139.901 520,4 -4,4"/>
<!-- Node68 -->
<g id="node1" class="node"><title>Node68</title>
<polygon fill="#bfbfbf" stroke="black" points="0,-57.5 0,-76.5 70,-76.5 70,-57.5 0,-57.5"/>
<text text-anchor="middle" x="35" y="-64.5" font-family="Helvetica,sans-Serif" font-size="10.00">test_skvsort</text>
</g>
<!-- Node69 -->
<g id="node2" class="node"><title>Node69</title>
<g id="a_node2"><a xlink:href="a00575.html#ae6aab5c308faac0fc539cc9c6da9fbd0" target="_top" xlink:title="sprintf">
<polygon fill="white" stroke="black" points="119,-114.5 119,-133.5 163,-133.5 163,-114.5 119,-114.5"/>
<text text-anchor="middle" x="141" y="-121.5" font-family="Helvetica,sans-Serif" font-size="10.00">sprintf</text>
</a>
</g>
</g>
<!-- Node68&#45;&gt;Node69 -->
<g id="edge1" class="edge"><title>Node68&#45;&gt;Node69</title>
<path fill="none" stroke="midnightblue" d="M53.6422,-76.6693C70.1016,-85.6903 94.8737,-99.2673 113.671,-109.57"/>
<polygon fill="midnightblue" stroke="midnightblue" points="112.167,-112.736 122.618,-114.474 115.531,-106.598 112.167,-112.736"/>
</g>
<!-- Node70 -->
<g id="node3" class="node"><title>Node70</title>
<g id="a_node3"><a xlink:href="a00077.html#af62038e97ca55f14ec2557a01bd85ca2" target="_top" xlink:title="Duplicates a string. ">
<polygon fill="white" stroke="black" points="111,-76.5 111,-95.5 171,-95.5 171,-76.5 111,-76.5"/>
<text text-anchor="middle" x="141" y="-83.5" font-family="Helvetica,sans-Serif" font-size="10.00">gk_strdup</text>
</a>
</g>
</g>
<!-- Node68&#45;&gt;Node70 -->
<g id="edge2" class="edge"><title>Node68&#45;&gt;Node70</title>
<path fill="none" stroke="midnightblue" d="M70.0535,-73.2213C79.9169,-75.0233 90.7622,-77.0046 100.908,-78.8582"/>
<polygon fill="midnightblue" stroke="midnightblue" points="100.292,-82.3034 110.758,-80.6577 101.55,-75.4174 100.292,-82.3034"/>
</g>
<!-- Node76 -->
<g id="node9" class="node"><title>Node76</title>
<g id="a_node9"><a xlink:href="a00077.html#ad540fc9b43ce41269f7f33712f5f71c2" target="_top" xlink:title="gk_skvsorti">
<polygon fill="white" stroke="black" points="107.5,-38.5 107.5,-57.5 174.5,-57.5 174.5,-38.5 107.5,-38.5"/>
<text text-anchor="middle" x="141" y="-45.5" font-family="Helvetica,sans-Serif" font-size="10.00">gk_skvsorti</text>
</a>
</g>
</g>
<!-- Node68&#45;&gt;Node76 -->
<g id="edge9" class="edge"><title>Node68&#45;&gt;Node76</title>
<path fill="none" stroke="midnightblue" d="M70.0535,-60.7787C78.7479,-59.1903 88.2052,-57.4625 97.2736,-55.8058"/>
<polygon fill="midnightblue" stroke="midnightblue" points="98.0774,-59.217 107.286,-53.9767 96.8193,-52.3309 98.0774,-59.217"/>
</g>
<!-- Node77 -->
<g id="node10" class="node"><title>Node77</title>
<g id="a_node10"><a xlink:href="a00077.html#a54ca33a34b7cfbd130a8af3d8b07405e" target="_top" xlink:title="gk_skvsortd">
<polygon fill="white" stroke="black" points="106,-0.5 106,-19.5 176,-19.5 176,-0.5 106,-0.5"/>
<text text-anchor="middle" x="141" y="-7.5" font-family="Helvetica,sans-Serif" font-size="10.00">gk_skvsortd</text>
</a>
</g>
</g>
<!-- Node68&#45;&gt;Node77 -->
<g id="edge10" class="edge"><title>Node68&#45;&gt;Node77</title>
<path fill="none" stroke="midnightblue" d="M53.6422,-57.3307C70.1016,-48.3097 94.8737,-34.7327 113.671,-24.4302"/>
<polygon fill="midnightblue" stroke="midnightblue" points="115.531,-27.402 122.618,-19.5265 112.167,-21.2635 115.531,-27.402"/>
</g>
<!-- Node71 -->
<g id="node4" class="node"><title>Node71</title>
<g id="a_node4"><a xlink:href="a00077.html#aba6f76f5c67b9b7e9c2e45988d3d3e9d" target="_top" xlink:title="gk_malloc">
<polygon fill="white" stroke="black" points="212,-76.5 212,-95.5 274,-95.5 274,-76.5 212,-76.5"/>
<text text-anchor="middle" x="243" y="-83.5" font-family="Helvetica,sans-Serif" font-size="10.00">gk_malloc</text>
</a>
</g>
</g>
<!-- Node70&#45;&gt;Node71 -->
<g id="edge3" class="edge"><title>Node70&#45;&gt;Node71</title>
<path fill="none" stroke="midnightblue" d="M171.193,-86C180.792,-86 191.635,-86 201.899,-86"/>
<polygon fill="midnightblue" stroke="midnightblue" points="201.902,-89.5001 211.902,-86 201.902,-82.5001 201.902,-89.5001"/>
</g>
<!-- Node72 -->
<g id="node5" class="node"><title>Node72</title>
<g id="a_node5"><a xlink:href="a01017.html#a2e311a777ffe9c80e405efa7cd2757be" target="_top" xlink:title="fprintf">
<polygon fill="white" stroke="black" points="474,-76.5 474,-95.5 516,-95.5 516,-76.5 474,-76.5"/>
<text text-anchor="middle" x="495" y="-83.5" font-family="Helvetica,sans-Serif" font-size="10.00">fprintf</text>
</a>
</g>
</g>
<!-- Node71&#45;&gt;Node72 -->
<g id="edge4" class="edge"><title>Node71&#45;&gt;Node72</title>
<path fill="none" stroke="midnightblue" d="M256.261,-95.7187C268.891,-105.059 289.563,-118.537 310,-124 364.959,-138.691 383.62,-140.709 438,-124 452.039,-119.686 465.719,-110.525 476.044,-102.279"/>
<polygon fill="midnightblue" stroke="midnightblue" points="478.469,-104.813 483.862,-95.6941 473.959,-99.4595 478.469,-104.813"/>
</g>
<!-- Node73 -->
<g id="node6" class="node"><title>Node73</title>
<g id="a_node6"><a xlink:href="a00110.html#ad2327b94227019b6753b6b09400c0522" target="_top" xlink:title="gk_GetCurMemoryUsed">
<polygon fill="white" stroke="black" points="312,-95.5 312,-114.5 436,-114.5 436,-95.5 312,-95.5"/>
<text text-anchor="middle" x="374" y="-102.5" font-family="Helvetica,sans-Serif" font-size="10.00">gk_GetCurMemoryUsed</text>
</a>
</g>
</g>
<!-- Node71&#45;&gt;Node73 -->
<g id="edge5" class="edge"><title>Node71&#45;&gt;Node73</title>
<path fill="none" stroke="midnightblue" d="M274.245,-90.4547C282.646,-91.692 292.139,-93.0903 301.836,-94.5184"/>
<polygon fill="midnightblue" stroke="midnightblue" points="301.573,-98.0175 311.977,-96.0121 302.593,-91.0922 301.573,-98.0175"/>
</g>
<!-- Node74 -->
<g id="node7" class="node"><title>Node74</title>
<g id="a_node7"><a xlink:href="a00110.html#a656fd5266ae12a96e53125486f8fea52" target="_top" xlink:title="gk_GetMaxMemoryUsed">
<polygon fill="white" stroke="black" points="310.5,-57.5 310.5,-76.5 437.5,-76.5 437.5,-57.5 310.5,-57.5"/>
<text text-anchor="middle" x="374" y="-64.5" font-family="Helvetica,sans-Serif" font-size="10.00">gk_GetMaxMemoryUsed</text>
</a>
</g>
</g>
<!-- Node71&#45;&gt;Node74 -->
<g id="edge6" class="edge"><title>Node71&#45;&gt;Node74</title>
<path fill="none" stroke="midnightblue" d="M274.245,-81.5453C282.229,-80.3693 291.2,-79.048 300.395,-77.6938"/>
<polygon fill="midnightblue" stroke="midnightblue" points="301.04,-81.1366 310.423,-76.2167 300.02,-74.2113 301.04,-81.1366"/>
</g>
<!-- Node75 -->
<g id="node8" class="node"><title>Node75</title>
<g id="a_node8"><a xlink:href="a00026.html#a4c320c13bcdc9967613253ef4c73f59f" target="_top" xlink:title="gk_errexit">
<polygon fill="white" stroke="black" points="344,-19.5 344,-38.5 404,-38.5 404,-19.5 344,-19.5"/>
<text text-anchor="middle" x="374" y="-26.5" font-family="Helvetica,sans-Serif" font-size="10.00">gk_errexit</text>
</a>
</g>
</g>
<!-- Node71&#45;&gt;Node75 -->
<g id="edge7" class="edge"><title>Node71&#45;&gt;Node75</title>
<path fill="none" stroke="midnightblue" d="M258.436,-76.3905C271.481,-68.027 291.428,-56.0202 310,-48 317.68,-44.6834 326.121,-41.7096 334.259,-39.1539"/>
<polygon fill="midnightblue" stroke="midnightblue" points="335.388,-42.4695 343.965,-36.2488 333.381,-35.7634 335.388,-42.4695"/>
</g>
<!-- Node75&#45;&gt;Node72 -->
<g id="edge8" class="edge"><title>Node75&#45;&gt;Node72</title>
<path fill="none" stroke="midnightblue" d="M404.228,-35.8252C415.104,-38.8755 427.377,-42.9396 438,-48 450.634,-54.0184 463.634,-62.6626 473.925,-70.1863"/>
<polygon fill="midnightblue" stroke="midnightblue" points="472.101,-73.1937 482.194,-76.4154 476.313,-67.6027 472.101,-73.1937"/>
</g>
</g>
</svg>
