<?xml version="1.0" encoding="UTF-8" standalone="no"?>
<!DOCTYPE svg PUBLIC "-//W3C//DTD SVG 1.1//EN"
 "http://www.w3.org/Graphics/SVG/1.1/DTD/svg11.dtd">
<!-- Generated by graphviz version 2.36.0 (20140111.2315)
 -->
<!-- Title: gk_fkvsortd Pages: 1 -->
<svg width="310pt" height="142pt"
 viewBox="0.00 0.00 310.00 142.00" xmlns="http://www.w3.org/2000/svg" xmlns:xlink="http://www.w3.org/1999/xlink">
<g id="graph0" class="graph" transform="scale(1 1) rotate(0) translate(4 138)">
<title>gk_fkvsortd</title>
<polygon fill="white" stroke="none" points="-4,4 -4,-138 306,-138 306,4 -4,4"/>
<!-- Node21 -->
<g id="node1" class="node"><title>Node21</title>
<polygon fill="#bfbfbf" stroke="black" points="0,-57.5 0,-76.5 68,-76.5 68,-57.5 0,-57.5"/>
<text text-anchor="middle" x="34" y="-64.5" font-family="Helvetica,sans-Serif" font-size="10.00">gk_fkvsortd</text>
</g>
<!-- Node22 -->
<g id="node2" class="node"><title>Node22</title>
<g id="a_node2"><a xlink:href="$a00077.html#a66729af11e7dee3585d6191661757c37" xlink:title="gk_csr_LowFilter">
<polygon fill="white" stroke="black" points="120,-114.5 120,-133.5 212,-133.5 212,-114.5 120,-114.5"/>
<text text-anchor="middle" x="166" y="-121.5" font-family="Helvetica,sans-Serif" font-size="10.00">gk_csr_LowFilter</text>
</a>
</g>
</g>
<!-- Node21&#45;&gt;Node22 -->
<g id="edge1" class="edge"><title>Node21&#45;&gt;Node22</title>
<path fill="none" stroke="midnightblue" d="M58.9521,-81.7533C71.9597,-89.3611 88.5096,-98.4019 104,-105 112.266,-108.521 121.408,-111.716 130.044,-114.439"/>
<polygon fill="midnightblue" stroke="midnightblue" points="60.5547,-78.634 50.1724,-76.5223 56.9717,-84.6476 60.5547,-78.634"/>
</g>
<!-- Node23 -->
<g id="node3" class="node"><title>Node23</title>
<g id="a_node3"><a xlink:href="$a00077.html#ad6f2c5699b47e1bc2285a1b391d7c7da" xlink:title="gk_csr_TopKPlusFilter">
<polygon fill="white" stroke="black" points="107.5,-76.5 107.5,-95.5 224.5,-95.5 224.5,-76.5 107.5,-76.5"/>
<text text-anchor="middle" x="166" y="-83.5" font-family="Helvetica,sans-Serif" font-size="10.00">gk_csr_TopKPlusFilter</text>
</a>
</g>
</g>
<!-- Node21&#45;&gt;Node23 -->
<g id="edge2" class="edge"><title>Node21&#45;&gt;Node23</title>
<path fill="none" stroke="midnightblue" d="M78.3336,-73.3334C87.6566,-74.696 97.651,-76.1567 107.419,-77.5843"/>
<polygon fill="midnightblue" stroke="midnightblue" points="78.5419,-69.8267 68.1409,-71.8437 77.5295,-76.7531 78.5419,-69.8267"/>
</g>
<!-- Node24 -->
<g id="node4" class="node"><title>Node24</title>
<g id="a_node4"><a xlink:href="$a00077.html#a52c619261980e7f2d6e4b48096ee1813" xlink:title="gk_csr_GetSimilarRows">
<polygon fill="white" stroke="black" points="104.5,-38.5 104.5,-57.5 227.5,-57.5 227.5,-38.5 104.5,-38.5"/>
<text text-anchor="middle" x="166" y="-45.5" font-family="Helvetica,sans-Serif" font-size="10.00">gk_csr_GetSimilarRows</text>
</a>
</g>
</g>
<!-- Node21&#45;&gt;Node24 -->
<g id="edge3" class="edge"><title>Node21&#45;&gt;Node24</title>
<path fill="none" stroke="midnightblue" d="M78.0954,-60.7014C86.519,-59.4703 95.4984,-58.1579 104.369,-56.8615"/>
<polygon fill="midnightblue" stroke="midnightblue" points="77.5295,-57.2469 68.1409,-62.1563 78.5419,-64.1733 77.5295,-57.2469"/>
</g>
<!-- Node25 -->
<g id="node5" class="node"><title>Node25</title>
<g id="a_node5"><a xlink:href="$a00152.html#a179814629e9b2ff14387734d6ac52a38" xlink:title="test_fkvsort">
<polygon fill="white" stroke="black" points="132,-0.5 132,-19.5 200,-19.5 200,-0.5 132,-0.5"/>
<text text-anchor="middle" x="166" y="-7.5" font-family="Helvetica,sans-Serif" font-size="10.00">test_fkvsort</text>
</a>
</g>
</g>
<!-- Node21&#45;&gt;Node25 -->
<g id="edge4" class="edge"><title>Node21&#45;&gt;Node25</title>
<path fill="none" stroke="midnightblue" d="M58.9521,-52.2467C71.9597,-44.6389 88.5096,-35.5981 104,-29 112.878,-25.2183 122.767,-21.8126 131.955,-18.9641"/>
<polygon fill="midnightblue" stroke="midnightblue" points="56.9717,-49.3524 50.1724,-57.4777 60.5547,-55.366 56.9717,-49.3524"/>
</g>
<!-- Node26 -->
<g id="node6" class="node"><title>Node26</title>
<g id="a_node6"><a xlink:href="$a00152.html#ae66f6b31b5ad750f1fe042a706a4e3d4" xlink:title="main">
<polygon fill="white" stroke="black" points="264,-0.5 264,-19.5 302,-19.5 302,-0.5 264,-0.5"/>
<text text-anchor="middle" x="283" y="-7.5" font-family="Helvetica,sans-Serif" font-size="10.00">main</text>
</a>
</g>
</g>
<!-- Node25&#45;&gt;Node26 -->
<g id="edge5" class="edge"><title>Node25&#45;&gt;Node26</title>
<path fill="none" stroke="midnightblue" d="M210.287,-10C228.815,-10 249.443,-10 263.802,-10"/>
<polygon fill="midnightblue" stroke="midnightblue" points="210.263,-6.5001 200.263,-10 210.263,-13.5001 210.263,-6.5001"/>
</g>
</g>
</svg>
