<?xml version="1.0" encoding="UTF-8" standalone="no"?>
<!DOCTYPE svg PUBLIC "-//W3C//DTD SVG 1.1//EN"
 "http://www.w3.org/Graphics/SVG/1.1/DTD/svg11.dtd">
<!-- Generated by graphviz version 2.36.0 (20140111.2315)
 -->
<!-- Title: DestroyIntMatrix Pages: 1 -->
<svg width="294pt" height="28pt"
 viewBox="0.00 0.00 294.00 28.00" xmlns="http://www.w3.org/2000/svg" xmlns:xlink="http://www.w3.org/1999/xlink">
<g id="graph0" class="graph" transform="scale(1 1) rotate(0) translate(4 24)">
<title>DestroyIntMatrix</title>
<polygon fill="white" stroke="none" points="-4,4 -4,-24 290,-24 290,4 -4,4"/>
<!-- Node70 -->
<g id="node1" class="node"><title>Node70</title>
<polygon fill="#bfbfbf" stroke="black" points="0.5,-0.5 0.5,-19.5 89.5,-19.5 89.5,-0.5 0.5,-0.5"/>
<text text-anchor="middle" x="45" y="-7.5" font-family="Helvetica,sans-Serif" font-size="10.00">DestroyIntMatrix</text>
</g>
<!-- Node71 -->
<g id="node2" class="node"><title>Node71</title>
<g id="a_node2"><a xlink:href="a00203.html#a004c52e87250e61b258755469b25bbe9" target="_top" xlink:title="LoadBalance3d">
<polygon fill="white" stroke="black" points="126,-0.5 126,-19.5 212,-19.5 212,-0.5 126,-0.5"/>
<text text-anchor="middle" x="169" y="-7.5" font-family="Helvetica,sans-Serif" font-size="10.00">LoadBalance3d</text>
</a>
</g>
</g>
<!-- Node70&#45;&gt;Node71 -->
<g id="edge1" class="edge"><title>Node70&#45;&gt;Node71</title>
<path fill="none" stroke="midnightblue" d="M99.8011,-10C108.521,-10 117.439,-10 125.83,-10"/>
<polygon fill="midnightblue" stroke="midnightblue" points="99.7002,-6.5001 89.7002,-10 99.7002,-13.5001 99.7002,-6.5001"/>
</g>
<!-- Node72 -->
<g id="node3" class="node"><title>Node72</title>
<g id="a_node3"><a xlink:href="a00173.html#a3c04138a5bfe5d72780bb7e82a18e627" target="_top" xlink:title="main">
<polygon fill="white" stroke="black" points="248,-0.5 248,-19.5 286,-19.5 286,-0.5 248,-0.5"/>
<text text-anchor="middle" x="267" y="-7.5" font-family="Helvetica,sans-Serif" font-size="10.00">main</text>
</a>
</g>
</g>
<!-- Node71&#45;&gt;Node72 -->
<g id="edge2" class="edge"><title>Node71&#45;&gt;Node72</title>
<path fill="none" stroke="midnightblue" d="M222.113,-10C231.32,-10 240.324,-10 247.756,-10"/>
<polygon fill="midnightblue" stroke="midnightblue" points="222.107,-6.5001 212.107,-10 222.107,-13.5001 222.107,-6.5001"/>
</g>
</g>
</svg>
