<?xml version="1.0" encoding="UTF-8" standalone="no"?>
<!DOCTYPE svg PUBLIC "-//W3C//DTD SVG 1.1//EN"
 "http://www.w3.org/Graphics/SVG/1.1/DTD/svg11.dtd">
<!-- Generated by graphviz version 2.36.0 (20140111.2315)
 -->
<!-- Title: FixGraph Pages: 1 -->
<svg width="406pt" height="125pt"
 viewBox="0.00 0.00 406.00 124.90" xmlns="http://www.w3.org/2000/svg" xmlns:xlink="http://www.w3.org/1999/xlink">
<g id="graph0" class="graph" transform="scale(1 1) rotate(0) translate(4 120.901)">
<title>FixGraph</title>
<polygon fill="white" stroke="none" points="-4,4 -4,-120.901 402,-120.901 402,4 -4,4"/>
<!-- Node5 -->
<g id="node1" class="node"><title>Node5</title>
<polygon fill="#bfbfbf" stroke="black" points="0,-38.5 0,-57.5 58,-57.5 58,-38.5 0,-38.5"/>
<text text-anchor="middle" x="29" y="-45.5" font-family="Helvetica,sans-Serif" font-size="10.00">FixGraph</text>
</g>
<!-- Node6 -->
<g id="node2" class="node"><title>Node6</title>
<g id="a_node2"><a xlink:href="a00077.html#aba6f76f5c67b9b7e9c2e45988d3d3e9d" target="_top" xlink:title="gk_malloc">
<polygon fill="white" stroke="black" points="94,-57.5 94,-76.5 156,-76.5 156,-57.5 94,-57.5"/>
<text text-anchor="middle" x="125" y="-64.5" font-family="Helvetica,sans-Serif" font-size="10.00">gk_malloc</text>
</a>
</g>
</g>
<!-- Node5&#45;&gt;Node6 -->
<g id="edge1" class="edge"><title>Node5&#45;&gt;Node6</title>
<path fill="none" stroke="midnightblue" d="M58.2031,-53.7006C66.2879,-55.3348 75.2611,-57.1485 83.9146,-58.8976"/>
<polygon fill="midnightblue" stroke="midnightblue" points="83.3585,-62.3559 93.8538,-60.9066 84.7454,-55.4947 83.3585,-62.3559"/>
</g>
<!-- Node11 -->
<g id="node7" class="node"><title>Node11</title>
<g id="a_node7"><a xlink:href="a00077.html#ac8df62c4e3d0910711a9874f9cc58884" target="_top" xlink:title="gk_free">
<polygon fill="white" stroke="black" points="100,-19.5 100,-38.5 150,-38.5 150,-19.5 100,-19.5"/>
<text text-anchor="middle" x="125" y="-26.5" font-family="Helvetica,sans-Serif" font-size="10.00">gk_free</text>
</a>
</g>
</g>
<!-- Node5&#45;&gt;Node11 -->
<g id="edge7" class="edge"><title>Node5&#45;&gt;Node11</title>
<path fill="none" stroke="midnightblue" d="M58.2031,-42.2994C68.1806,-40.2826 79.5112,-37.9924 89.9242,-35.8877"/>
<polygon fill="midnightblue" stroke="midnightblue" points="90.8388,-39.2737 99.9471,-33.8618 89.4519,-32.4124 90.8388,-39.2737"/>
</g>
<!-- Node7 -->
<g id="node3" class="node"><title>Node7</title>
<g id="a_node3"><a xlink:href="a01017.html#a2e311a777ffe9c80e405efa7cd2757be" target="_top" xlink:title="fprintf">
<polygon fill="white" stroke="black" points="356,-57.5 356,-76.5 398,-76.5 398,-57.5 356,-57.5"/>
<text text-anchor="middle" x="377" y="-64.5" font-family="Helvetica,sans-Serif" font-size="10.00">fprintf</text>
</a>
</g>
</g>
<!-- Node6&#45;&gt;Node7 -->
<g id="edge2" class="edge"><title>Node6&#45;&gt;Node7</title>
<path fill="none" stroke="midnightblue" d="M138.261,-76.7187C150.891,-86.0589 171.563,-99.5369 192,-105 246.959,-119.691 265.62,-121.709 320,-105 334.039,-100.686 347.719,-91.5255 358.044,-83.2793"/>
<polygon fill="midnightblue" stroke="midnightblue" points="360.469,-85.8134 365.862,-76.6941 355.959,-80.4595 360.469,-85.8134"/>
</g>
<!-- Node8 -->
<g id="node4" class="node"><title>Node8</title>
<g id="a_node4"><a xlink:href="a00110.html#ad2327b94227019b6753b6b09400c0522" target="_top" xlink:title="gk_GetCurMemoryUsed">
<polygon fill="white" stroke="black" points="194,-76.5 194,-95.5 318,-95.5 318,-76.5 194,-76.5"/>
<text text-anchor="middle" x="256" y="-83.5" font-family="Helvetica,sans-Serif" font-size="10.00">gk_GetCurMemoryUsed</text>
</a>
</g>
</g>
<!-- Node6&#45;&gt;Node8 -->
<g id="edge3" class="edge"><title>Node6&#45;&gt;Node8</title>
<path fill="none" stroke="midnightblue" d="M156.245,-71.4547C164.646,-72.692 174.139,-74.0903 183.836,-75.5184"/>
<polygon fill="midnightblue" stroke="midnightblue" points="183.573,-79.0175 193.977,-77.0121 184.593,-72.0922 183.573,-79.0175"/>
</g>
<!-- Node9 -->
<g id="node5" class="node"><title>Node9</title>
<g id="a_node5"><a xlink:href="a00110.html#a656fd5266ae12a96e53125486f8fea52" target="_top" xlink:title="gk_GetMaxMemoryUsed">
<polygon fill="white" stroke="black" points="192.5,-38.5 192.5,-57.5 319.5,-57.5 319.5,-38.5 192.5,-38.5"/>
<text text-anchor="middle" x="256" y="-45.5" font-family="Helvetica,sans-Serif" font-size="10.00">gk_GetMaxMemoryUsed</text>
</a>
</g>
</g>
<!-- Node6&#45;&gt;Node9 -->
<g id="edge4" class="edge"><title>Node6&#45;&gt;Node9</title>
<path fill="none" stroke="midnightblue" d="M156.245,-62.5453C164.229,-61.3693 173.2,-60.048 182.395,-58.6938"/>
<polygon fill="midnightblue" stroke="midnightblue" points="183.04,-62.1366 192.423,-57.2167 182.02,-55.2113 183.04,-62.1366"/>
</g>
<!-- Node10 -->
<g id="node6" class="node"><title>Node10</title>
<g id="a_node6"><a xlink:href="a00026.html#a4c320c13bcdc9967613253ef4c73f59f" target="_top" xlink:title="gk_errexit">
<polygon fill="white" stroke="black" points="226,-0.5 226,-19.5 286,-19.5 286,-0.5 226,-0.5"/>
<text text-anchor="middle" x="256" y="-7.5" font-family="Helvetica,sans-Serif" font-size="10.00">gk_errexit</text>
</a>
</g>
</g>
<!-- Node6&#45;&gt;Node10 -->
<g id="edge5" class="edge"><title>Node6&#45;&gt;Node10</title>
<path fill="none" stroke="midnightblue" d="M141.589,-57.4697C157.76,-47.6847 182.047,-33.2984 192,-29 199.68,-25.6834 208.121,-22.7096 216.259,-20.1539"/>
<polygon fill="midnightblue" stroke="midnightblue" points="217.388,-23.4695 225.965,-17.2488 215.381,-16.7634 217.388,-23.4695"/>
</g>
<!-- Node10&#45;&gt;Node7 -->
<g id="edge6" class="edge"><title>Node10&#45;&gt;Node7</title>
<path fill="none" stroke="midnightblue" d="M286.228,-16.8252C297.104,-19.8755 309.377,-23.9396 320,-29 332.634,-35.0184 345.634,-43.6626 355.925,-51.1863"/>
<polygon fill="midnightblue" stroke="midnightblue" points="354.101,-54.1937 364.194,-57.4154 358.313,-48.6027 354.101,-54.1937"/>
</g>
</g>
</svg>
