<?xml version="1.0" encoding="UTF-8" standalone="no"?>
<!DOCTYPE svg PUBLIC "-//W3C//DTD SVG 1.1//EN"
 "http://www.w3.org/Graphics/SVG/1.1/DTD/svg11.dtd">
<!-- Generated by graphviz version 2.36.0 (20140111.2315)
 -->
<!-- Title: gk_strstr_replace Pages: 1 -->
<svg width="312pt" height="28pt"
 viewBox="0.00 0.00 312.00 28.00" xmlns="http://www.w3.org/2000/svg" xmlns:xlink="http://www.w3.org/1999/xlink">
<g id="graph0" class="graph" transform="scale(1 1) rotate(0) translate(4 24)">
<title>gk_strstr_replace</title>
<polygon fill="white" stroke="none" points="-4,4 -4,-24 308,-24 308,4 -4,4"/>
<!-- Node54 -->
<g id="node1" class="node"><title>Node54</title>
<polygon fill="#bfbfbf" stroke="black" points="0.5,-0.5 0.5,-19.5 93.5,-19.5 93.5,-0.5 0.5,-0.5"/>
<text text-anchor="middle" x="47" y="-7.5" font-family="Helvetica,sans-Serif" font-size="10.00">gk_strstr_replace</text>
</g>
<!-- Node55 -->
<g id="node2" class="node"><title>Node55</title>
<g id="a_node2"><a xlink:href="$a00155.html#a3666be16b4df33d86374ee780353af54" xlink:title="test_strstr_replace">
<polygon fill="white" stroke="black" points="130.5,-0.5 130.5,-19.5 229.5,-19.5 229.5,-0.5 130.5,-0.5"/>
<text text-anchor="middle" x="180" y="-7.5" font-family="Helvetica,sans-Serif" font-size="10.00">test_strstr_replace</text>
</a>
</g>
</g>
<!-- Node54&#45;&gt;Node55 -->
<g id="edge1" class="edge"><title>Node54&#45;&gt;Node55</title>
<path fill="none" stroke="midnightblue" d="M103.963,-10C112.729,-10 121.728,-10 130.314,-10"/>
<polygon fill="midnightblue" stroke="midnightblue" points="103.817,-6.5001 93.8174,-10 103.817,-13.5001 103.817,-6.5001"/>
</g>
<!-- Node56 -->
<g id="node3" class="node"><title>Node56</title>
<g id="a_node3"><a xlink:href="$a00155.html#ae66f6b31b5ad750f1fe042a706a4e3d4" xlink:title="main">
<polygon fill="white" stroke="black" points="266,-0.5 266,-19.5 304,-19.5 304,-0.5 266,-0.5"/>
<text text-anchor="middle" x="285" y="-7.5" font-family="Helvetica,sans-Serif" font-size="10.00">main</text>
</a>
</g>
</g>
<!-- Node55&#45;&gt;Node56 -->
<g id="edge2" class="edge"><title>Node55&#45;&gt;Node56</title>
<path fill="none" stroke="midnightblue" d="M240.048,-10C249.439,-10 258.487,-10 265.908,-10"/>
<polygon fill="midnightblue" stroke="midnightblue" points="239.785,-6.5001 229.785,-10 239.785,-13.5001 239.785,-6.5001"/>
</g>
</g>
</svg>
