<?xml version="1.0" encoding="UTF-8" standalone="no"?>
<!DOCTYPE svg PUBLIC "-//W3C//DTD SVG 1.1//EN"
 "http://www.w3.org/Graphics/SVG/1.1/DTD/svg11.dtd">
<!-- Generated by graphviz version 2.36.0 (20140111.2315)
 -->
<!-- Title: gk_malloc_init Pages: 1 -->
<svg width="1008pt" height="740pt"
 viewBox="0.00 0.00 1008.00 740.00" xmlns="http://www.w3.org/2000/svg" xmlns:xlink="http://www.w3.org/1999/xlink">
<g id="graph0" class="graph" transform="scale(1 1) rotate(0) translate(4 736)">
<title>gk_malloc_init</title>
<polygon fill="white" stroke="none" points="-4,4 -4,-736 1004,-736 1004,4 -4,4"/>
<!-- Node466 -->
<g id="node1" class="node"><title>Node466</title>
<polygon fill="#bfbfbf" stroke="black" points="0,-446.5 0,-465.5 80,-465.5 80,-446.5 0,-446.5"/>
<text text-anchor="middle" x="40" y="-453.5" font-family="Helvetica,sans-Serif" font-size="10.00">gk_malloc_init</text>
</g>
<!-- Node467 -->
<g id="node2" class="node"><title>Node467</title>
<g id="a_node2"><a xlink:href="$a00846.html#ac00c3da2cf618cbfa9158463a851491e" xlink:title="ParMETIS_V3_AdaptiveRepart">
<polygon fill="white" stroke="black" points="116.5,-712.5 116.5,-731.5 271.5,-731.5 271.5,-712.5 116.5,-712.5"/>
<text text-anchor="middle" x="194" y="-719.5" font-family="Helvetica,sans-Serif" font-size="10.00">ParMETIS_V3_AdaptiveRepart</text>
</a>
</g>
</g>
<!-- Node466&#45;&gt;Node467 -->
<g id="edge1" class="edge"><title>Node466&#45;&gt;Node467</title>
<path fill="none" stroke="midnightblue" d="M41.249,-476.069C42.9275,-521.966 53.5445,-635.444 116,-698 122.332,-704.342 130.31,-709.013 138.716,-712.452"/>
<polygon fill="midnightblue" stroke="midnightblue" points="44.7443,-475.835 40.9888,-465.928 37.7466,-476.015 44.7443,-475.835"/>
</g>
<!-- Node468 -->
<g id="node3" class="node"><title>Node468</title>
<g id="a_node3"><a xlink:href="$a00846.html#a6df93293cf3d1ccb4659bd1b3091623d" xlink:title="ParMETIS_V3_PartGeomKway">
<polygon fill="white" stroke="black" points="770,-569.5 770,-588.5 926,-588.5 926,-569.5 770,-569.5"/>
<text text-anchor="middle" x="848" y="-576.5" font-family="Helvetica,sans-Serif" font-size="10.00">ParMETIS_V3_PartGeomKway</text>
</a>
</g>
</g>
<!-- Node466&#45;&gt;Node468 -->
<g id="edge2" class="edge"><title>Node466&#45;&gt;Node468</title>
<path fill="none" stroke="midnightblue" d="M41.4355,-475.692C43.5481,-518.212 55.0822,-618.514 116,-665 202.824,-731.255 251.784,-684 361,-684 361,-684 361,-684 514,-684 640.389,-684 781.792,-614.35 829.915,-588.503"/>
<polygon fill="midnightblue" stroke="midnightblue" points="44.9274,-475.405 41.0613,-465.541 37.9322,-475.663 44.9274,-475.405"/>
</g>
<!-- Node469 -->
<g id="node4" class="node"><title>Node469</title>
<g id="a_node4"><a xlink:href="$a00846.html#aab31b6450a3228063206eddded9de65e" xlink:title="ParMETIS_V3_PartGeom">
<polygon fill="white" stroke="black" points="128,-636.5 128,-655.5 260,-655.5 260,-636.5 128,-636.5"/>
<text text-anchor="middle" x="194" y="-643.5" font-family="Helvetica,sans-Serif" font-size="10.00">ParMETIS_V3_PartGeom</text>
</a>
</g>
</g>
<!-- Node466&#45;&gt;Node469 -->
<g id="edge3" class="edge"><title>Node466&#45;&gt;Node469</title>
<path fill="none" stroke="midnightblue" d="M43.949,-476.104C50.3133,-512.042 68.781,-587.253 116,-627 120.53,-630.813 125.71,-633.881 131.195,-636.347"/>
<polygon fill="midnightblue" stroke="midnightblue" points="47.3506,-475.217 42.2868,-465.91 40.4418,-476.343 47.3506,-475.217"/>
</g>
<!-- Node470 -->
<g id="node5" class="node"><title>Node470</title>
<g id="a_node5"><a xlink:href="$a00846.html#a2ae9750ec09afdc4243b7cb7c5118666" xlink:title="ParMETIS_V3_PartMeshKway">
<polygon fill="white" stroke="black" points="117.5,-598.5 117.5,-617.5 270.5,-617.5 270.5,-598.5 117.5,-598.5"/>
<text text-anchor="middle" x="194" y="-605.5" font-family="Helvetica,sans-Serif" font-size="10.00">ParMETIS_V3_PartMeshKway</text>
</a>
</g>
</g>
<!-- Node466&#45;&gt;Node470 -->
<g id="edge4" class="edge"><title>Node466&#45;&gt;Node470</title>
<path fill="none" stroke="midnightblue" d="M46.5813,-475.707C55.9351,-505.04 77.6287,-559.852 116,-589 121.044,-592.831 126.761,-595.899 132.747,-598.354"/>
<polygon fill="midnightblue" stroke="midnightblue" points="49.836,-474.378 43.5915,-465.819 43.1356,-476.404 49.836,-474.378"/>
</g>
<!-- Node471 -->
<g id="node6" class="node"><title>Node471</title>
<g id="a_node6"><a xlink:href="$a00846.html#ad40a7809c9bdf183926da011220bad75" xlink:title="ParMETIS_V3_RefineKway">
<polygon fill="white" stroke="black" points="124.5,-560.5 124.5,-579.5 263.5,-579.5 263.5,-560.5 124.5,-560.5"/>
<text text-anchor="middle" x="194" y="-567.5" font-family="Helvetica,sans-Serif" font-size="10.00">ParMETIS_V3_RefineKway</text>
</a>
</g>
</g>
<!-- Node466&#45;&gt;Node471 -->
<g id="edge5" class="edge"><title>Node466&#45;&gt;Node471</title>
<path fill="none" stroke="midnightblue" d="M51.7407,-474.369C64.5552,-494.729 87.8243,-527.171 116,-546 125.314,-552.224 136.326,-556.902 147.065,-560.392"/>
<polygon fill="midnightblue" stroke="midnightblue" points="54.6542,-472.424 46.461,-465.706 48.677,-476.067 54.6542,-472.424"/>
</g>
<!-- Node472 -->
<g id="node7" class="node"><title>Node472</title>
<g id="a_node7"><a xlink:href="$a00912.html#af89851458c047aba436b36ed567441e4" xlink:title="METIS_PartGraphKway">
<polygon fill="white" stroke="black" points="610.5,-142.5 610.5,-161.5 733.5,-161.5 733.5,-142.5 610.5,-142.5"/>
<text text-anchor="middle" x="672" y="-149.5" font-family="Helvetica,sans-Serif" font-size="10.00">METIS_PartGraphKway</text>
</a>
</g>
</g>
<!-- Node466&#45;&gt;Node472 -->
<g id="edge6" class="edge"><title>Node466&#45;&gt;Node472</title>
<path fill="none" stroke="midnightblue" d="M42.0087,-436.364C45.2478,-395.216 58.863,-299.811 116,-252 155.633,-218.836 523.196,-180.467 574,-171 590.026,-168.013 607.516,-164.627 623.176,-161.549"/>
<polygon fill="midnightblue" stroke="midnightblue" points="38.5095,-436.237 41.3427,-446.446 45.4943,-436.698 38.5095,-436.237"/>
</g>
<!-- Node476 -->
<g id="node11" class="node"><title>Node476</title>
<g id="a_node11"><a xlink:href="$a00846.html#af418d1e76eaf4f80116da4caf51bd54e" xlink:title="ParMETIS_V3_PartKway">
<polygon fill="white" stroke="black" points="783.5,-427.5 783.5,-446.5 912.5,-446.5 912.5,-427.5 783.5,-427.5"/>
<text text-anchor="middle" x="848" y="-434.5" font-family="Helvetica,sans-Serif" font-size="10.00">ParMETIS_V3_PartKway</text>
</a>
</g>
</g>
<!-- Node466&#45;&gt;Node476 -->
<g id="edge17" class="edge"><title>Node466&#45;&gt;Node476</title>
<path fill="none" stroke="midnightblue" d="M57.476,-473.062C71.6138,-486.494 93.2563,-504.345 116,-513 218.074,-551.845 251.784,-532 361,-532 361,-532 361,-532 514,-532 637.545,-532 777.322,-470.784 827.66,-446.632"/>
<polygon fill="midnightblue" stroke="midnightblue" points="59.6486,-470.289 50.0676,-465.767 54.7371,-475.277 59.6486,-470.289"/>
</g>
<!-- Node477 -->
<g id="node12" class="node"><title>Node477</title>
<g id="a_node12"><a xlink:href="$a00236.html#ade1e7e23ad687989a6343b4fb8d61ba7" xlink:title="METIS_PartMeshNodal">
<polygon fill="white" stroke="black" points="787,-294.5 787,-313.5 909,-313.5 909,-294.5 787,-294.5"/>
<text text-anchor="middle" x="848" y="-301.5" font-family="Helvetica,sans-Serif" font-size="10.00">METIS_PartMeshNodal</text>
</a>
</g>
</g>
<!-- Node466&#45;&gt;Node477 -->
<g id="edge25" class="edge"><title>Node466&#45;&gt;Node477</title>
<path fill="none" stroke="midnightblue" d="M90.4443,-456C153.316,-456 265.221,-456 361,-456 361,-456 361,-456 514,-456 651.904,-456 795.285,-346.785 835.771,-313.508"/>
<polygon fill="midnightblue" stroke="midnightblue" points="90.4111,-452.5 80.4111,-456 90.4111,-459.5 90.4111,-452.5"/>
</g>
<!-- Node479 -->
<g id="node14" class="node"><title>Node479</title>
<g id="a_node14"><a xlink:href="$a00236.html#a8f496ac1cd2246b124da246b5c6f9193" xlink:title="METIS_PartMeshDual">
<polygon fill="white" stroke="black" points="790,-256.5 790,-275.5 906,-275.5 906,-256.5 790,-256.5"/>
<text text-anchor="middle" x="848" y="-263.5" font-family="Helvetica,sans-Serif" font-size="10.00">METIS_PartMeshDual</text>
</a>
</g>
</g>
<!-- Node466&#45;&gt;Node479 -->
<g id="edge26" class="edge"><title>Node466&#45;&gt;Node479</title>
<path fill="none" stroke="midnightblue" d="M51.3747,-437.565C64.1128,-416.429 87.5646,-382.004 116,-361 209.939,-291.61 244.212,-266 361,-266 361,-266 361,-266 514,-266 610.836,-266 723.512,-266 789.844,-266"/>
<polygon fill="midnightblue" stroke="midnightblue" points="48.3254,-435.846 46.2966,-446.244 54.3674,-439.381 48.3254,-435.846"/>
</g>
<!-- Node480 -->
<g id="node15" class="node"><title>Node480</title>
<g id="a_node15"><a xlink:href="$a00311.html#a0ddf1224851353fc92bfbff6f499fa97" xlink:title="main">
<polygon fill="white" stroke="black" points="829,-28.5 829,-47.5 867,-47.5 867,-28.5 829,-28.5"/>
<text text-anchor="middle" x="848" y="-35.5" font-family="Helvetica,sans-Serif" font-size="10.00">main</text>
</a>
</g>
</g>
<!-- Node466&#45;&gt;Node480 -->
<g id="edge38" class="edge"><title>Node466&#45;&gt;Node480</title>
<path fill="none" stroke="midnightblue" d="M40.2669,-436.048C39.2946,-381.595 43.5423,-228.154 116,-133 191.061,-34.4265 237.101,-0 361,-0 361,-0 361,-0 514,-0 634.739,-0 778.525,-24.9655 828.673,-34.4251"/>
<polygon fill="midnightblue" stroke="midnightblue" points="36.7768,-436.47 40.5404,-446.374 43.7743,-436.284 36.7768,-436.47"/>
</g>
<!-- Node481 -->
<g id="node16" class="node"><title>Node481</title>
<g id="a_node16"><a xlink:href="$a00930.html#a2cf4672355fcfed039c04a2d1d134136" xlink:title="METIS_MeshToDual">
<polygon fill="white" stroke="black" points="139.5,-370.5 139.5,-389.5 248.5,-389.5 248.5,-370.5 139.5,-370.5"/>
<text text-anchor="middle" x="194" y="-377.5" font-family="Helvetica,sans-Serif" font-size="10.00">METIS_MeshToDual</text>
</a>
</g>
</g>
<!-- Node466&#45;&gt;Node481 -->
<g id="edge18" class="edge"><title>Node466&#45;&gt;Node481</title>
<path fill="none" stroke="midnightblue" d="M58.3782,-439.471C72.7631,-426.653 94.2911,-409.377 116,-399 124.075,-395.14 133.013,-392.016 141.856,-389.502"/>
<polygon fill="midnightblue" stroke="midnightblue" points="55.802,-437.084 50.7867,-446.417 60.5272,-442.248 55.802,-437.084"/>
</g>
<!-- Node483 -->
<g id="node18" class="node"><title>Node483</title>
<g id="a_node18"><a xlink:href="$a00930.html#ae9390485cd2d3654742f779a7188c125" xlink:title="METIS_MeshToNodal">
<polygon fill="white" stroke="black" points="136.5,-408.5 136.5,-427.5 251.5,-427.5 251.5,-408.5 136.5,-408.5"/>
<text text-anchor="middle" x="194" y="-415.5" font-family="Helvetica,sans-Serif" font-size="10.00">METIS_MeshToNodal</text>
</a>
</g>
</g>
<!-- Node466&#45;&gt;Node483 -->
<g id="edge21" class="edge"><title>Node466&#45;&gt;Node483</title>
<path fill="none" stroke="midnightblue" d="M89.16,-443.96C110.395,-438.651 134.995,-432.501 154.92,-427.52"/>
<polygon fill="midnightblue" stroke="midnightblue" points="88.2085,-440.59 79.356,-446.411 89.9063,-447.381 88.2085,-440.59"/>
</g>
<!-- Node484 -->
<g id="node19" class="node"><title>Node484</title>
<g id="a_node19"><a xlink:href="$a00846.html#a2f9e316d7e0c46037cf231cd82cf9d97" xlink:title="ParMETIS_V3_Mesh2Dual">
<polygon fill="white" stroke="black" points="125.5,-180.5 125.5,-199.5 262.5,-199.5 262.5,-180.5 125.5,-180.5"/>
<text text-anchor="middle" x="194" y="-187.5" font-family="Helvetica,sans-Serif" font-size="10.00">ParMETIS_V3_Mesh2Dual</text>
</a>
</g>
</g>
<!-- Node466&#45;&gt;Node484 -->
<g id="edge24" class="edge"><title>Node466&#45;&gt;Node484</title>
<path fill="none" stroke="midnightblue" d="M41.249,-435.931C42.9275,-390.034 53.5445,-276.556 116,-214 122.332,-207.658 130.31,-202.987 138.716,-199.548"/>
<polygon fill="midnightblue" stroke="midnightblue" points="37.7466,-435.985 40.9888,-446.072 44.7443,-436.165 37.7466,-435.985"/>
</g>
<!-- Node485 -->
<g id="node20" class="node"><title>Node485</title>
<g id="a_node20"><a xlink:href="$a00936.html#a8304f0dd6d180587f73b0b70de3b01b7" xlink:title="METIS_NodeND">
<polygon fill="white" stroke="black" points="148.5,-484.5 148.5,-503.5 239.5,-503.5 239.5,-484.5 148.5,-484.5"/>
<text text-anchor="middle" x="194" y="-491.5" font-family="Helvetica,sans-Serif" font-size="10.00">METIS_NodeND</text>
</a>
</g>
</g>
<!-- Node466&#45;&gt;Node485 -->
<g id="edge27" class="edge"><title>Node466&#45;&gt;Node485</title>
<path fill="none" stroke="midnightblue" d="M89.16,-468.04C110.395,-473.349 134.995,-479.499 154.92,-484.48"/>
<polygon fill="midnightblue" stroke="midnightblue" points="89.9063,-464.619 79.356,-465.589 88.2085,-471.41 89.9063,-464.619"/>
</g>
<!-- Node487 -->
<g id="node22" class="node"><title>Node487</title>
<g id="a_node22"><a xlink:href="$a00260.html#a25fc90fd934931239b3c98ac4bdbce76" xlink:title="Recursive partitioning routine. ">
<polygon fill="white" stroke="black" points="122.5,-142.5 122.5,-161.5 265.5,-161.5 265.5,-142.5 122.5,-142.5"/>
<text text-anchor="middle" x="194" y="-149.5" font-family="Helvetica,sans-Serif" font-size="10.00">METIS_PartGraphRecursive</text>
</a>
</g>
</g>
<!-- Node466&#45;&gt;Node487 -->
<g id="edge29" class="edge"><title>Node466&#45;&gt;Node487</title>
<path fill="none" stroke="midnightblue" d="M43.5794,-436.136C51.5438,-377.825 77.5505,-208.862 116,-171 119.924,-167.136 124.502,-164.015 129.434,-161.5"/>
<polygon fill="midnightblue" stroke="midnightblue" points="40.0832,-435.876 42.2288,-446.251 47.0216,-436.803 40.0832,-435.876"/>
</g>
<!-- Node472&#45;&gt;Node468 -->
<g id="edge7" class="edge"><title>Node472&#45;&gt;Node468</title>
<path fill="none" stroke="midnightblue" d="M677.401,-171.433C688.909,-220.57 722.335,-353.183 770,-456 790.768,-500.799 824.871,-549.1 839.716,-569.28"/>
<polygon fill="midnightblue" stroke="midnightblue" points="680.773,-170.48 675.115,-161.523 673.953,-172.054 680.773,-170.48"/>
</g>
<!-- Node473 -->
<g id="node8" class="node"><title>Node473</title>
<g id="a_node8"><a xlink:href="$a00954.html#aa24ead3c2c8fb3e58110f1f79453ce29" xlink:title="Balance_Partition">
<polygon fill="white" stroke="black" points="800.5,-104.5 800.5,-123.5 895.5,-123.5 895.5,-104.5 800.5,-104.5"/>
<text text-anchor="middle" x="848" y="-111.5" font-family="Helvetica,sans-Serif" font-size="10.00">Balance_Partition</text>
</a>
</g>
</g>
<!-- Node472&#45;&gt;Node473 -->
<g id="edge8" class="edge"><title>Node472&#45;&gt;Node473</title>
<path fill="none" stroke="midnightblue" d="M726.814,-140.247C751.418,-134.874 780.187,-128.591 803.408,-123.52"/>
<polygon fill="midnightblue" stroke="midnightblue" points="725.93,-136.858 716.908,-142.411 727.424,-143.697 725.93,-136.858"/>
</g>
<!-- Node474 -->
<g id="node9" class="node"><title>Node474</title>
<g id="a_node9"><a xlink:href="$a00416.html#af4fae82dc1fc688ae704c61e647d33e4" xlink:title="PartitionSmallGraph">
<polygon fill="white" stroke="black" points="795,-142.5 795,-161.5 901,-161.5 901,-142.5 795,-142.5"/>
<text text-anchor="middle" x="848" y="-149.5" font-family="Helvetica,sans-Serif" font-size="10.00">PartitionSmallGraph</text>
</a>
</g>
</g>
<!-- Node472&#45;&gt;Node474 -->
<g id="edge9" class="edge"><title>Node472&#45;&gt;Node474</title>
<path fill="none" stroke="midnightblue" d="M744.269,-152C761.201,-152 778.955,-152 794.85,-152"/>
<polygon fill="midnightblue" stroke="midnightblue" points="743.857,-148.5 733.857,-152 743.857,-155.5 743.857,-148.5"/>
</g>
<!-- Node475 -->
<g id="node10" class="node"><title>Node475</title>
<g id="a_node10"><a xlink:href="$a00954.html#a5358042c354702d9e8128f7cc342a322" xlink:title="InitPartition">
<polygon fill="white" stroke="black" points="814.5,-66.5 814.5,-85.5 881.5,-85.5 881.5,-66.5 814.5,-66.5"/>
<text text-anchor="middle" x="848" y="-73.5" font-family="Helvetica,sans-Serif" font-size="10.00">InitPartition</text>
</a>
</g>
</g>
<!-- Node472&#45;&gt;Node475 -->
<g id="edge10" class="edge"><title>Node472&#45;&gt;Node475</title>
<path fill="none" stroke="midnightblue" d="M694.754,-136.73C713.815,-123.971 742.669,-106.126 770,-95 784.156,-89.2375 800.512,-84.9001 814.499,-81.8353"/>
<polygon fill="midnightblue" stroke="midnightblue" points="692.776,-133.842 686.479,-142.363 696.715,-139.629 692.776,-133.842"/>
</g>
<!-- Node472&#45;&gt;Node476 -->
<g id="edge11" class="edge"><title>Node472&#45;&gt;Node476</title>
<path fill="none" stroke="midnightblue" d="M683.071,-170.859C700.195,-202.668 736.405,-268.818 770,-323 794.542,-362.582 826.372,-408.008 840.148,-427.409"/>
<polygon fill="midnightblue" stroke="midnightblue" points="686.02,-168.954 678.209,-161.797 679.852,-172.263 686.02,-168.954"/>
</g>
<!-- Node472&#45;&gt;Node477 -->
<g id="edge12" class="edge"><title>Node472&#45;&gt;Node477</title>
<path fill="none" stroke="midnightblue" d="M681.485,-170.983C695.542,-200.181 726.49,-255.786 770,-285 775.83,-288.914 782.393,-292.023 789.166,-294.492"/>
<polygon fill="midnightblue" stroke="midnightblue" points="684.622,-169.429 677.224,-161.844 678.277,-172.386 684.622,-169.429"/>
</g>
<!-- Node472&#45;&gt;Node479 -->
<g id="edge14" class="edge"><title>Node472&#45;&gt;Node479</title>
<path fill="none" stroke="midnightblue" d="M711.786,-165.247C719.346,-168.384 727.071,-171.998 734,-176 775.7,-200.081 818.412,-238.666 837.162,-256.453"/>
<polygon fill="midnightblue" stroke="midnightblue" points="712.956,-161.946 702.369,-161.534 710.389,-168.458 712.956,-161.946"/>
</g>
<!-- Node472&#45;&gt;Node480 -->
<g id="edge16" class="edge"><title>Node472&#45;&gt;Node480</title>
<path fill="none" stroke="midnightblue" d="M685.96,-134.502C702.874,-112.949 734.531,-76.7678 770,-57 788.522,-46.6772 812.624,-41.8984 828.89,-39.729"/>
<polygon fill="midnightblue" stroke="midnightblue" points="683.139,-132.43 679.837,-142.497 688.696,-136.686 683.139,-132.43"/>
</g>
<!-- Node478 -->
<g id="node13" class="node"><title>Node478</title>
<g id="a_node13"><a xlink:href="$a00323.html#a0ddf1224851353fc92bfbff6f499fa97" xlink:title="main">
<polygon fill="white" stroke="black" points="962,-275.5 962,-294.5 1000,-294.5 1000,-275.5 962,-275.5"/>
<text text-anchor="middle" x="981" y="-282.5" font-family="Helvetica,sans-Serif" font-size="10.00">main</text>
</a>
</g>
</g>
<!-- Node477&#45;&gt;Node478 -->
<g id="edge13" class="edge"><title>Node477&#45;&gt;Node478</title>
<path fill="none" stroke="midnightblue" d="M919.451,-293.782C935.128,-291.508 950.424,-289.29 961.72,-287.651"/>
<polygon fill="midnightblue" stroke="midnightblue" points="918.526,-290.379 909.132,-295.279 919.531,-297.307 918.526,-290.379"/>
</g>
<!-- Node479&#45;&gt;Node478 -->
<g id="edge15" class="edge"><title>Node479&#45;&gt;Node478</title>
<path fill="none" stroke="midnightblue" d="M916.039,-275.723C932.991,-278.182 949.804,-280.62 961.935,-282.38"/>
<polygon fill="midnightblue" stroke="midnightblue" points="916.476,-272.25 906.077,-274.278 915.471,-279.178 916.476,-272.25"/>
</g>
<!-- Node481&#45;&gt;Node479 -->
<g id="edge19" class="edge"><title>Node481&#45;&gt;Node479</title>
<path fill="none" stroke="midnightblue" d="M258.668,-368.868C386.553,-346.508 672.629,-296.488 792.507,-275.528"/>
<polygon fill="midnightblue" stroke="midnightblue" points="257.881,-365.452 248.633,-370.622 259.086,-372.348 257.881,-365.452"/>
</g>
<!-- Node482 -->
<g id="node17" class="node"><title>Node482</title>
<g id="a_node17"><a xlink:href="$a00317.html#a0ddf1224851353fc92bfbff6f499fa97" xlink:title="main">
<polygon fill="white" stroke="black" points="343,-370.5 343,-389.5 381,-389.5 381,-370.5 343,-370.5"/>
<text text-anchor="middle" x="362" y="-377.5" font-family="Helvetica,sans-Serif" font-size="10.00">main</text>
</a>
</g>
</g>
<!-- Node481&#45;&gt;Node482 -->
<g id="edge20" class="edge"><title>Node481&#45;&gt;Node482</title>
<path fill="none" stroke="midnightblue" d="M258.945,-380C289.051,-380 322.692,-380 342.838,-380"/>
<polygon fill="midnightblue" stroke="midnightblue" points="258.895,-376.5 248.895,-380 258.895,-383.5 258.895,-376.5"/>
</g>
<!-- Node483&#45;&gt;Node477 -->
<g id="edge22" class="edge"><title>Node483&#45;&gt;Node477</title>
<path fill="none" stroke="midnightblue" d="M261.562,-414.56C305.568,-411.726 364.435,-406.865 416,-399 564.274,-376.385 737.793,-332.81 811.256,-313.551"/>
<polygon fill="midnightblue" stroke="midnightblue" points="261.321,-411.068 251.559,-415.186 261.758,-418.055 261.321,-411.068"/>
</g>
<!-- Node483&#45;&gt;Node482 -->
<g id="edge23" class="edge"><title>Node483&#45;&gt;Node482</title>
<path fill="none" stroke="midnightblue" d="M246.806,-406.141C279.64,-398.625 320.095,-389.364 342.979,-384.125"/>
<polygon fill="midnightblue" stroke="midnightblue" points="245.856,-402.768 236.889,-408.411 247.418,-409.591 245.856,-402.768"/>
</g>
<!-- Node486 -->
<g id="node21" class="node"><title>Node486</title>
<g id="a_node21"><a xlink:href="$a00326.html#a0ddf1224851353fc92bfbff6f499fa97" xlink:title="main">
<polygon fill="white" stroke="black" points="343,-484.5 343,-503.5 381,-503.5 381,-484.5 343,-484.5"/>
<text text-anchor="middle" x="362" y="-491.5" font-family="Helvetica,sans-Serif" font-size="10.00">main</text>
</a>
</g>
</g>
<!-- Node485&#45;&gt;Node486 -->
<g id="edge28" class="edge"><title>Node485&#45;&gt;Node486</title>
<path fill="none" stroke="midnightblue" d="M250.103,-494C282.232,-494 320.671,-494 342.82,-494"/>
<polygon fill="midnightblue" stroke="midnightblue" points="249.922,-490.5 239.922,-494 249.922,-497.5 249.922,-490.5"/>
</g>
<!-- Node487&#45;&gt;Node473 -->
<g id="edge30" class="edge"><title>Node487&#45;&gt;Node473</title>
<path fill="none" stroke="midnightblue" d="M253.288,-140.697C270.812,-137.705 290.131,-134.809 308,-133 489.426,-114.63 706.75,-113.214 800.357,-113.588"/>
<polygon fill="midnightblue" stroke="midnightblue" points="252.448,-137.29 243.201,-142.462 253.655,-144.186 252.448,-137.29"/>
</g>
<!-- Node487&#45;&gt;Node475 -->
<g id="edge31" class="edge"><title>Node487&#45;&gt;Node475</title>
<path fill="none" stroke="midnightblue" d="M233.726,-139.471C255.357,-132.957 282.927,-125.447 308,-121 497.772,-87.3444 729.719,-78.7294 814.225,-76.6363"/>
<polygon fill="midnightblue" stroke="midnightblue" points="232.464,-136.197 223.929,-142.475 234.516,-142.889 232.464,-136.197"/>
</g>
<!-- Node487&#45;&gt;Node477 -->
<g id="edge35" class="edge"><title>Node487&#45;&gt;Node477</title>
<path fill="none" stroke="midnightblue" d="M255.039,-164.518C260.87,-166.414 266.615,-168.566 272,-171 289.751,-179.022 290.369,-187.718 308,-196 469.965,-272.079 683.819,-294.65 786.667,-301.282"/>
<polygon fill="midnightblue" stroke="midnightblue" points="255.776,-161.085 245.192,-161.565 253.764,-167.79 255.776,-161.085"/>
</g>
<!-- Node487&#45;&gt;Node479 -->
<g id="edge36" class="edge"><title>Node487&#45;&gt;Node479</title>
<path fill="none" stroke="midnightblue" d="M259.533,-163.283C387.739,-185.7 672.456,-235.482 792.229,-256.423"/>
<polygon fill="midnightblue" stroke="midnightblue" points="259.921,-159.798 249.468,-161.523 258.715,-166.694 259.921,-159.798"/>
</g>
<!-- Node487&#45;&gt;Node480 -->
<g id="edge37" class="edge"><title>Node487&#45;&gt;Node480</title>
<path fill="none" stroke="midnightblue" d="M221.282,-137.668C243.67,-126.128 277.042,-110.481 308,-102 507.039,-47.4748 759.989,-39.4019 828.95,-38.2073"/>
<polygon fill="midnightblue" stroke="midnightblue" points="219.628,-134.584 212.399,-142.329 222.88,-140.782 219.628,-134.584"/>
</g>
<!-- Node488 -->
<g id="node23" class="node"><title>Node488</title>
<g id="a_node23"><a xlink:href="$a00948.html#a870e37cc14eb1033c62d83d3a7c33a91" xlink:title="InitKWayPartitioning">
<polygon fill="white" stroke="black" points="308.5,-142.5 308.5,-161.5 415.5,-161.5 415.5,-142.5 308.5,-142.5"/>
<text text-anchor="middle" x="362" y="-149.5" font-family="Helvetica,sans-Serif" font-size="10.00">InitKWayPartitioning</text>
</a>
</g>
</g>
<!-- Node487&#45;&gt;Node488 -->
<g id="edge32" class="edge"><title>Node487&#45;&gt;Node488</title>
<path fill="none" stroke="midnightblue" d="M275.976,-152C287.008,-152 298.088,-152 308.436,-152"/>
<polygon fill="midnightblue" stroke="midnightblue" points="275.88,-148.5 265.88,-152 275.88,-155.5 275.88,-148.5"/>
</g>
<!-- Node489 -->
<g id="node24" class="node"><title>Node489</title>
<g id="a_node24"><a xlink:href="$a00948.html#a7973c78504ad6711d3516082b1112805" xlink:title="MlevelKWayPartitioning">
<polygon fill="white" stroke="black" points="452,-142.5 452,-161.5 574,-161.5 574,-142.5 452,-142.5"/>
<text text-anchor="middle" x="513" y="-149.5" font-family="Helvetica,sans-Serif" font-size="10.00">MlevelKWayPartitioning</text>
</a>
</g>
</g>
<!-- Node488&#45;&gt;Node489 -->
<g id="edge33" class="edge"><title>Node488&#45;&gt;Node489</title>
<path fill="none" stroke="midnightblue" d="M425.589,-152C434.268,-152 443.168,-152 451.802,-152"/>
<polygon fill="midnightblue" stroke="midnightblue" points="425.532,-148.5 415.532,-152 425.532,-155.5 425.532,-148.5"/>
</g>
<!-- Node489&#45;&gt;Node472 -->
<g id="edge34" class="edge"><title>Node489&#45;&gt;Node472</title>
<path fill="none" stroke="midnightblue" d="M584.361,-152C593.047,-152 601.868,-152 610.391,-152"/>
<polygon fill="midnightblue" stroke="midnightblue" points="584.251,-148.5 574.251,-152 584.251,-155.5 584.251,-148.5"/>
</g>
</g>
</svg>
