<?xml version="1.0" encoding="UTF-8" standalone="no"?>
<!DOCTYPE svg PUBLIC "-//W3C//DTD SVG 1.1//EN"
 "http://www.w3.org/Graphics/SVG/1.1/DTD/svg11.dtd">
<!-- Generated by graphviz version 2.36.0 (20140111.2315)
 -->
<!-- Title: ArcSyn3sis/3rdParty/parmetis&#45;4.0.3/metis/GKlib/pqueue.c Pages: 1 -->
<!--zoomable 218 -->
<svg id="main" version="1.1" xmlns="http://www.w3.org/2000/svg" xmlns:xlink="http://www.w3.org/1999/xlink" xml:space="preserve" onload="init(evt)">
<style type="text/css"><![CDATA[
.edge:hover path { stroke: red; }
.edge:hover polygon { stroke: red; fill: red; }
]]></style>
<script type="text/javascript"><![CDATA[
var edges = document.getElementsByTagName('g');
if (edges && edges.length) {
  for (var i=0;i<edges.length;i++) {
    if (edges[i].id.substr(0,4)=='edge') {
      edges[i].setAttribute('class','edge');
    }
  }
}
]]></script>
        <defs>
                <circle id="rim" cx="0" cy="0" r="7"/>
                <circle id="rim2" cx="0" cy="0" r="3.5"/>
                <g id="zoomPlus">
                        <use xlink:href="#rim" fill="#404040">
                                <set attributeName="fill" to="#808080" begin="zoomplus.mouseover" end="zoomplus.mouseout"/>
                        </use>
                        <path d="M-4,0h8M0,-4v8" fill="none" stroke="white" stroke-width="1.5" pointer-events="none"/>
                </g>
                <g id="zoomMin">
                        <use xlink:href="#rim" fill="#404040">
                                <set attributeName="fill" to="#808080" begin="zoomminus.mouseover" end="zoomminus.mouseout"/>
                        </use>
                        <path d="M-4,0h8" fill="none" stroke="white" stroke-width="1.5" pointer-events="none"/>
                </g>
                <g id="dirArrow">
                        <path fill="none" stroke="white" stroke-width="1.5" d="M0,-3.0v7 M-2.5,-0.5L0,-3.0L2.5,-0.5"/>
                </g>
               <g id="resetDef">
                       <use xlink:href="#rim2" fill="#404040">
                               <set attributeName="fill" to="#808080" begin="reset.mouseover" end="reset.mouseout"/>
                       </use>
               </g>
        </defs>

<script type="text/javascript">
var viewWidth = 2603;
var viewHeight = 218;
var sectionId = 'dynsection-0';
</script>
<script xlink:href="svgpan.js"/>
<svg id="graph" class="graph">
<g id="viewport">
<title>ArcSyn3sis/3rdParty/parmetis&#45;4.0.3/metis/GKlib/pqueue.c</title>
<polygon fill="white" stroke="none" points="-4,4 -4,-214 2599,-214 2599,4 -4,4"/>
<!-- Node0 -->
<g id="node1" class="node"><title>Node0</title>
<polygon fill="#bfbfbf" stroke="black" points="1141,-168.5 1141,-209.5 1251,-209.5 1251,-168.5 1141,-168.5"/>
<text text-anchor="start" x="1149" y="-197.5" font-family="Helvetica,sans-Serif" font-size="10.00">ArcSyn3sis/3rdParty</text>
<text text-anchor="start" x="1149" y="-186.5" font-family="Helvetica,sans-Serif" font-size="10.00">/parmetis&#45;4.0.3/metis</text>
<text text-anchor="middle" x="1196" y="-175.5" font-family="Helvetica,sans-Serif" font-size="10.00">/GKlib/pqueue.c</text>
</g>
<!-- Node1 -->
<g id="node2" class="node"><title>Node1</title>
<g id="a_node2"><a xlink:href="a00086.html" target="_top" xlink:title="GKlib.h">
<polygon fill="white" stroke="black" points="1171.5,-112.5 1171.5,-131.5 1220.5,-131.5 1220.5,-112.5 1171.5,-112.5"/>
<text text-anchor="middle" x="1196" y="-119.5" font-family="Helvetica,sans-Serif" font-size="10.00">GKlib.h</text>
</a>
</g>
</g>
<!-- Node0&#45;&gt;Node1 -->
<g id="edge1" class="edge"><title>Node0&#45;&gt;Node1</title>
<path fill="none" stroke="midnightblue" d="M1196,-168.498C1196,-160.065 1196,-150.235 1196,-141.874"/>
<polygon fill="midnightblue" stroke="midnightblue" points="1199.5,-141.652 1196,-131.652 1192.5,-141.653 1199.5,-141.652"/>
</g>
<!-- Node2 -->
<g id="node3" class="node"><title>Node2</title>
<g id="a_node3"><a xlink:href="a00041.html" target="_top" xlink:title="This file contains various architecture&#45;specific declerations. ">
<polygon fill="white" stroke="black" points="147,-56.5 147,-75.5 207,-75.5 207,-56.5 147,-56.5"/>
<text text-anchor="middle" x="177" y="-63.5" font-family="Helvetica,sans-Serif" font-size="10.00">gk_arch.h</text>
</a>
</g>
</g>
<!-- Node1&#45;&gt;Node2 -->
<g id="edge2" class="edge"><title>Node1&#45;&gt;Node2</title>
<path fill="none" stroke="midnightblue" d="M1171.18,-120.469C1040.32,-117.581 428.937,-102.932 217.211,-75.8612"/>
<polygon fill="midnightblue" stroke="midnightblue" points="217.508,-72.3699 207.134,-74.5211 216.585,-79.3089 217.508,-72.3699"/>
</g>
<!-- Node8 -->
<g id="node9" class="node"><title>Node8</title>
<polygon fill="white" stroke="#bfbfbf" points="225,-56.5 225,-75.5 277,-75.5 277,-56.5 225,-56.5"/>
<text text-anchor="middle" x="251" y="-63.5" font-family="Helvetica,sans-Serif" font-size="10.00">stddef.h</text>
</g>
<!-- Node1&#45;&gt;Node8 -->
<g id="edge8" class="edge"><title>Node1&#45;&gt;Node8</title>
<path fill="none" stroke="midnightblue" d="M1171.29,-120.454C1046.44,-117.597 483.598,-103.48 287.165,-75.8142"/>
<polygon fill="midnightblue" stroke="midnightblue" points="287.658,-72.3492 277.256,-74.3588 286.641,-79.2749 287.658,-72.3492"/>
</g>
<!-- Node9 -->
<g id="node10" class="node"><title>Node9</title>
<polygon fill="white" stroke="#bfbfbf" points="295,-56.5 295,-75.5 343,-75.5 343,-56.5 295,-56.5"/>
<text text-anchor="middle" x="319" y="-63.5" font-family="Helvetica,sans-Serif" font-size="10.00">stdlib.h</text>
</g>
<!-- Node1&#45;&gt;Node9 -->
<g id="edge9" class="edge"><title>Node1&#45;&gt;Node9</title>
<path fill="none" stroke="midnightblue" d="M1171.13,-120.362C1049.52,-117.138 516.784,-101.768 353,-76 352.898,-75.984 352.796,-75.9678 352.694,-75.9514"/>
<polygon fill="midnightblue" stroke="midnightblue" points="353.509,-72.5452 343.016,-74.0104 352.132,-79.4085 353.509,-72.5452"/>
</g>
<!-- Node10 -->
<g id="node11" class="node"><title>Node10</title>
<polygon fill="white" stroke="#bfbfbf" points="361.5,-56.5 361.5,-75.5 414.5,-75.5 414.5,-56.5 361.5,-56.5"/>
<text text-anchor="middle" x="388" y="-63.5" font-family="Helvetica,sans-Serif" font-size="10.00">stdarg.h</text>
</g>
<!-- Node1&#45;&gt;Node10 -->
<g id="edge10" class="edge"><title>Node1&#45;&gt;Node10</title>
<path fill="none" stroke="midnightblue" d="M1171.49,-121.229C1076.52,-121.77 723.69,-120.582 424.787,-75.7878"/>
<polygon fill="midnightblue" stroke="midnightblue" points="425.036,-72.2855 414.624,-74.2445 423.985,-79.2062 425.036,-72.2855"/>
</g>
<!-- Node11 -->
<g id="node12" class="node"><title>Node11</title>
<polygon fill="white" stroke="#bfbfbf" points="433,-56.5 433,-75.5 479,-75.5 479,-56.5 433,-56.5"/>
<text text-anchor="middle" x="456" y="-63.5" font-family="Helvetica,sans-Serif" font-size="10.00">stdio.h</text>
</g>
<!-- Node1&#45;&gt;Node11 -->
<g id="edge11" class="edge"><title>Node1&#45;&gt;Node11</title>
<path fill="none" stroke="midnightblue" d="M1171.33,-121.302C1081.1,-122.016 760.638,-121.135 489.325,-75.8612"/>
<polygon fill="midnightblue" stroke="midnightblue" points="489.733,-72.3806 479.289,-74.1623 488.565,-79.2824 489.733,-72.3806"/>
</g>
<!-- Node12 -->
<g id="node13" class="node"><title>Node12</title>
<polygon fill="white" stroke="#bfbfbf" points="497,-56.5 497,-75.5 545,-75.5 545,-56.5 497,-56.5"/>
<text text-anchor="middle" x="521" y="-63.5" font-family="Helvetica,sans-Serif" font-size="10.00">errno.h</text>
</g>
<!-- Node1&#45;&gt;Node12 -->
<g id="edge12" class="edge"><title>Node1&#45;&gt;Node12</title>
<path fill="none" stroke="midnightblue" d="M1171.35,-120.936C1085.62,-120.362 792.716,-115.444 555,-76 554.898,-75.9831 554.797,-75.9661 554.695,-75.9489"/>
<polygon fill="midnightblue" stroke="midnightblue" points="555.524,-72.5463 545.024,-73.9594 554.114,-79.4027 555.524,-72.5463"/>
</g>
<!-- Node13 -->
<g id="node14" class="node"><title>Node13</title>
<polygon fill="white" stroke="#bfbfbf" points="563.5,-56.5 563.5,-75.5 612.5,-75.5 612.5,-56.5 563.5,-56.5"/>
<text text-anchor="middle" x="588" y="-63.5" font-family="Helvetica,sans-Serif" font-size="10.00">ctype.h</text>
</g>
<!-- Node1&#45;&gt;Node13 -->
<g id="edge13" class="edge"><title>Node1&#45;&gt;Node13</title>
<path fill="none" stroke="midnightblue" d="M1171.47,-120.655C1092.9,-119.222 840.437,-112.054 622.779,-75.8017"/>
<polygon fill="midnightblue" stroke="midnightblue" points="623.212,-72.3254 612.769,-74.1095 622.046,-79.2275 623.212,-72.3254"/>
</g>
<!-- Node14 -->
<g id="node15" class="node"><title>Node14</title>
<polygon fill="white" stroke="#bfbfbf" points="630.5,-56.5 630.5,-75.5 677.5,-75.5 677.5,-56.5 630.5,-56.5"/>
<text text-anchor="middle" x="654" y="-63.5" font-family="Helvetica,sans-Serif" font-size="10.00">math.h</text>
</g>
<!-- Node1&#45;&gt;Node14 -->
<g id="edge14" class="edge"><title>Node1&#45;&gt;Node14</title>
<path fill="none" stroke="midnightblue" d="M1171.43,-120.376C1098.82,-118.209 878.943,-109.31 687.63,-75.7716"/>
<polygon fill="midnightblue" stroke="midnightblue" points="688.137,-72.3068 677.678,-73.9998 686.91,-79.1985 688.137,-72.3068"/>
</g>
<!-- Node15 -->
<g id="node16" class="node"><title>Node15</title>
<polygon fill="white" stroke="#bfbfbf" points="696,-56.5 696,-75.5 740,-75.5 740,-56.5 696,-56.5"/>
<text text-anchor="middle" x="718" y="-63.5" font-family="Helvetica,sans-Serif" font-size="10.00">float.h</text>
</g>
<!-- Node1&#45;&gt;Node15 -->
<g id="edge15" class="edge"><title>Node1&#45;&gt;Node15</title>
<path fill="none" stroke="midnightblue" d="M1171.06,-120.082C1104.21,-117.288 915.454,-107.2 750.086,-75.8777"/>
<polygon fill="midnightblue" stroke="midnightblue" points="750.714,-72.4344 740.232,-73.9805 749.39,-79.3081 750.714,-72.4344"/>
</g>
<!-- Node16 -->
<g id="node17" class="node"><title>Node16</title>
<polygon fill="white" stroke="#bfbfbf" points="758,-56.5 758,-75.5 802,-75.5 802,-56.5 758,-56.5"/>
<text text-anchor="middle" x="780" y="-63.5" font-family="Helvetica,sans-Serif" font-size="10.00">time.h</text>
</g>
<!-- Node1&#45;&gt;Node16 -->
<g id="edge16" class="edge"><title>Node1&#45;&gt;Node16</title>
<path fill="none" stroke="midnightblue" d="M1171.08,-119.445C1111.05,-115.411 953.609,-103.118 812.408,-75.7444"/>
<polygon fill="midnightblue" stroke="midnightblue" points="812.759,-72.2464 802.271,-73.7474 811.406,-79.1144 812.759,-72.2464"/>
</g>
<!-- Node17 -->
<g id="node18" class="node"><title>Node17</title>
<polygon fill="white" stroke="#bfbfbf" points="820.5,-56.5 820.5,-75.5 869.5,-75.5 869.5,-56.5 820.5,-56.5"/>
<text text-anchor="middle" x="845" y="-63.5" font-family="Helvetica,sans-Serif" font-size="10.00">string.h</text>
</g>
<!-- Node1&#45;&gt;Node17 -->
<g id="edge17" class="edge"><title>Node1&#45;&gt;Node17</title>
<path fill="none" stroke="midnightblue" d="M1171.17,-118.482C1119.03,-112.982 994.207,-98.6945 879.78,-75.9379"/>
<polygon fill="midnightblue" stroke="midnightblue" points="880.298,-72.4719 869.803,-73.9265 878.914,-79.3338 880.298,-72.4719"/>
</g>
<!-- Node18 -->
<g id="node19" class="node"><title>Node18</title>
<polygon fill="white" stroke="#bfbfbf" points="888,-56.5 888,-75.5 936,-75.5 936,-56.5 888,-56.5"/>
<text text-anchor="middle" x="912" y="-63.5" font-family="Helvetica,sans-Serif" font-size="10.00">limits.h</text>
</g>
<!-- Node1&#45;&gt;Node18 -->
<g id="edge18" class="edge"><title>Node1&#45;&gt;Node18</title>
<path fill="none" stroke="midnightblue" d="M1171.38,-117.245C1126.4,-110.234 1028.01,-94.2051 946,-76 945.899,-75.9777 945.799,-75.9552 945.698,-75.9327"/>
<polygon fill="midnightblue" stroke="midnightblue" points="946.627,-72.5564 936.087,-73.633 944.998,-79.3642 946.627,-72.5564"/>
</g>
<!-- Node19 -->
<g id="node20" class="node"><title>Node19</title>
<polygon fill="white" stroke="#bfbfbf" points="954.5,-56.5 954.5,-75.5 1005.5,-75.5 1005.5,-56.5 954.5,-56.5"/>
<text text-anchor="middle" x="980" y="-63.5" font-family="Helvetica,sans-Serif" font-size="10.00">signal.h</text>
</g>
<!-- Node1&#45;&gt;Node19 -->
<g id="edge19" class="edge"><title>Node1&#45;&gt;Node19</title>
<path fill="none" stroke="midnightblue" d="M1171.39,-114.948C1138.33,-106.802 1077.47,-91.7594 1015.55,-76.1237"/>
<polygon fill="midnightblue" stroke="midnightblue" points="1016.16,-72.668 1005.61,-73.6102 1014.45,-79.4545 1016.16,-72.668"/>
</g>
<!-- Node20 -->
<g id="node21" class="node"><title>Node20</title>
<polygon fill="white" stroke="#bfbfbf" points="1024,-56.5 1024,-75.5 1078,-75.5 1078,-56.5 1024,-56.5"/>
<text text-anchor="middle" x="1051" y="-63.5" font-family="Helvetica,sans-Serif" font-size="10.00">setjmp.h</text>
</g>
<!-- Node1&#45;&gt;Node20 -->
<g id="edge20" class="edge"><title>Node1&#45;&gt;Node20</title>
<path fill="none" stroke="midnightblue" d="M1173.02,-112.444C1148.84,-103.438 1110.58,-89.1891 1083.35,-79.049"/>
<polygon fill="midnightblue" stroke="midnightblue" points="1084.46,-75.7265 1073.87,-75.5164 1082.02,-82.2864 1084.46,-75.7265"/>
</g>
<!-- Node21 -->
<g id="node22" class="node"><title>Node21</title>
<polygon fill="white" stroke="#bfbfbf" points="1096,-56.5 1096,-75.5 1148,-75.5 1148,-56.5 1096,-56.5"/>
<text text-anchor="middle" x="1122" y="-63.5" font-family="Helvetica,sans-Serif" font-size="10.00">assert.h</text>
</g>
<!-- Node1&#45;&gt;Node21 -->
<g id="edge21" class="edge"><title>Node1&#45;&gt;Node21</title>
<path fill="none" stroke="midnightblue" d="M1184.11,-112.324C1172.85,-104.107 1155.71,-91.6017 1142.29,-81.8069"/>
<polygon fill="midnightblue" stroke="midnightblue" points="1144.25,-78.9014 1134.11,-75.8339 1140.12,-84.5559 1144.25,-78.9014"/>
</g>
<!-- Node22 -->
<g id="node23" class="node"><title>Node22</title>
<polygon fill="white" stroke="#bfbfbf" points="1166.5,-56.5 1166.5,-75.5 1225.5,-75.5 1225.5,-56.5 1166.5,-56.5"/>
<text text-anchor="middle" x="1196" y="-63.5" font-family="Helvetica,sans-Serif" font-size="10.00">sys/stat.h</text>
</g>
<!-- Node1&#45;&gt;Node22 -->
<g id="edge22" class="edge"><title>Node1&#45;&gt;Node22</title>
<path fill="none" stroke="midnightblue" d="M1196,-112.083C1196,-105.006 1196,-94.8611 1196,-85.9865"/>
<polygon fill="midnightblue" stroke="midnightblue" points="1199.5,-85.751 1196,-75.7511 1192.5,-85.7511 1199.5,-85.751"/>
</g>
<!-- Node23 -->
<g id="node24" class="node"><title>Node23</title>
<polygon fill="white" stroke="#bfbfbf" points="1244,-56.5 1244,-75.5 1294,-75.5 1294,-56.5 1244,-56.5"/>
<text text-anchor="middle" x="1269" y="-63.5" font-family="Helvetica,sans-Serif" font-size="10.00">regex.h</text>
</g>
<!-- Node1&#45;&gt;Node23 -->
<g id="edge23" class="edge"><title>Node1&#45;&gt;Node23</title>
<path fill="none" stroke="midnightblue" d="M1207.73,-112.324C1218.84,-104.107 1235.74,-91.6017 1248.98,-81.8069"/>
<polygon fill="midnightblue" stroke="midnightblue" points="1251.1,-84.5948 1257.06,-75.8339 1246.94,-78.9671 1251.1,-84.5948"/>
</g>
<!-- Node24 -->
<g id="node25" class="node"><title>Node24</title>
<g id="a_node25"><a xlink:href="a00083.html" target="_top" xlink:title="This file contains basic scalar datatype used in GKlib. ">
<polygon fill="white" stroke="black" points="1312.5,-56.5 1312.5,-75.5 1377.5,-75.5 1377.5,-56.5 1312.5,-56.5"/>
<text text-anchor="middle" x="1345" y="-63.5" font-family="Helvetica,sans-Serif" font-size="10.00">gk_types.h</text>
</a>
</g>
</g>
<!-- Node1&#45;&gt;Node24 -->
<g id="edge24" class="edge"><title>Node1&#45;&gt;Node24</title>
<path fill="none" stroke="midnightblue" d="M1219.61,-112.444C1244.46,-103.438 1283.77,-89.1891 1311.75,-79.049"/>
<polygon fill="midnightblue" stroke="midnightblue" points="1313.29,-82.2144 1321.5,-75.5164 1310.91,-75.6332 1313.29,-82.2144"/>
</g>
<!-- Node25 -->
<g id="node26" class="node"><title>Node25</title>
<g id="a_node26"><a xlink:href="a00080.html" target="_top" xlink:title="This file contains various datastructures used/provided by GKlib. ">
<polygon fill="white" stroke="black" points="1395.5,-56.5 1395.5,-75.5 1460.5,-75.5 1460.5,-56.5 1395.5,-56.5"/>
<text text-anchor="middle" x="1428" y="-63.5" font-family="Helvetica,sans-Serif" font-size="10.00">gk_struct.h</text>
</a>
</g>
</g>
<!-- Node1&#45;&gt;Node25 -->
<g id="edge25" class="edge"><title>Node1&#45;&gt;Node25</title>
<path fill="none" stroke="midnightblue" d="M1220.83,-115.221C1260.12,-106.077 1337.1,-88.1589 1385.35,-76.9265"/>
<polygon fill="midnightblue" stroke="midnightblue" points="1386.24,-80.3126 1395.19,-74.6366 1384.66,-73.4948 1386.24,-80.3126"/>
</g>
<!-- Node26 -->
<g id="node27" class="node"><title>Node26</title>
<g id="a_node27"><a xlink:href="a00047.html" target="_top" xlink:title="This file contains definitions of external variables created by GKlib. ">
<polygon fill="white" stroke="black" points="1479,-56.5 1479,-75.5 1553,-75.5 1553,-56.5 1479,-56.5"/>
<text text-anchor="middle" x="1516" y="-63.5" font-family="Helvetica,sans-Serif" font-size="10.00">gk_externs.h</text>
</a>
</g>
</g>
<!-- Node1&#45;&gt;Node26 -->
<g id="edge26" class="edge"><title>Node1&#45;&gt;Node26</title>
<path fill="none" stroke="midnightblue" d="M1220.51,-117.178C1266.76,-109.918 1370.31,-93.443 1468.7,-76.0112"/>
<polygon fill="midnightblue" stroke="midnightblue" points="1469.58,-79.4091 1478.82,-74.2122 1468.36,-72.5172 1469.58,-79.4091"/>
</g>
<!-- Node27 -->
<g id="node28" class="node"><title>Node27</title>
<g id="a_node28"><a xlink:href="a00044.html" target="_top" xlink:title="This file contains various constants definitions. ">
<polygon fill="white" stroke="black" points="1571,-56.5 1571,-75.5 1631,-75.5 1631,-56.5 1571,-56.5"/>
<text text-anchor="middle" x="1601" y="-63.5" font-family="Helvetica,sans-Serif" font-size="10.00">gk_defs.h</text>
</a>
</g>
</g>
<!-- Node1&#45;&gt;Node27 -->
<g id="edge27" class="edge"><title>Node1&#45;&gt;Node27</title>
<path fill="none" stroke="midnightblue" d="M1220.55,-118.876C1278.19,-113.697 1426.83,-99.2455 1560.8,-76.0481"/>
<polygon fill="midnightblue" stroke="midnightblue" points="1561.58,-79.4643 1570.83,-74.2901 1560.38,-72.5694 1561.58,-79.4643"/>
</g>
<!-- Node28 -->
<g id="node29" class="node"><title>Node28</title>
<g id="a_node29"><a xlink:href="a00053.html" target="_top" xlink:title="This file contains various macros. ">
<polygon fill="white" stroke="black" points="1649,-56.5 1649,-75.5 1723,-75.5 1723,-56.5 1649,-56.5"/>
<text text-anchor="middle" x="1686" y="-63.5" font-family="Helvetica,sans-Serif" font-size="10.00">gk_macros.h</text>
</a>
</g>
</g>
<!-- Node1&#45;&gt;Node28 -->
<g id="edge28" class="edge"><title>Node1&#45;&gt;Node28</title>
<path fill="none" stroke="midnightblue" d="M1220.65,-119.304C1286.66,-114.592 1473.11,-100.173 1638.53,-76.0901"/>
<polygon fill="midnightblue" stroke="midnightblue" points="1639.51,-79.484 1648.89,-74.5647 1638.49,-72.5586 1639.51,-79.484"/>
</g>
<!-- Node29 -->
<g id="node30" class="node"><title>Node29</title>
<g id="a_node30"><a xlink:href="a00050.html" target="_top" xlink:title="This file contains GNU&#39;s externs/structs/prototypes. ">
<polygon fill="white" stroke="black" points="1741.5,-56.5 1741.5,-75.5 1810.5,-75.5 1810.5,-56.5 1741.5,-56.5"/>
<text text-anchor="middle" x="1776" y="-63.5" font-family="Helvetica,sans-Serif" font-size="10.00">gk_getopt.h</text>
</a>
</g>
</g>
<!-- Node1&#45;&gt;Node29 -->
<g id="edge29" class="edge"><title>Node1&#45;&gt;Node29</title>
<path fill="none" stroke="midnightblue" d="M1220.69,-119.965C1295.83,-116.598 1528.38,-104.563 1731.52,-75.8843"/>
<polygon fill="midnightblue" stroke="midnightblue" points="1732.08,-79.3411 1741.48,-74.4618 1731.09,-72.4114 1732.08,-79.3411"/>
</g>
<!-- Node30 -->
<g id="node31" class="node"><title>Node30</title>
<g id="a_node31"><a xlink:href="a00071.html" target="_top" xlink:title="Templates for the qsort routine. ">
<polygon fill="white" stroke="black" points="1828.5,-56.5 1828.5,-75.5 1899.5,-75.5 1899.5,-56.5 1828.5,-56.5"/>
<text text-anchor="middle" x="1864" y="-63.5" font-family="Helvetica,sans-Serif" font-size="10.00">gk_mksort.h</text>
</a>
</g>
</g>
<!-- Node1&#45;&gt;Node30 -->
<g id="edge30" class="edge"><title>Node1&#45;&gt;Node30</title>
<path fill="none" stroke="midnightblue" d="M1220.75,-120.326C1303.72,-117.833 1579.73,-107.653 1817.97,-75.9582"/>
<polygon fill="midnightblue" stroke="midnightblue" points="1818.76,-79.3824 1828.21,-74.5791 1817.83,-72.445 1818.76,-79.3824"/>
</g>
<!-- Node31 -->
<g id="node32" class="node"><title>Node31</title>
<g id="a_node32"><a xlink:href="a00056.html" target="_top" xlink:title="Templates for BLAS&#45;like routines. ">
<polygon fill="white" stroke="black" points="1917.5,-56.5 1917.5,-75.5 1990.5,-75.5 1990.5,-56.5 1917.5,-56.5"/>
<text text-anchor="middle" x="1954" y="-63.5" font-family="Helvetica,sans-Serif" font-size="10.00">gk_mkblas.h</text>
</a>
</g>
</g>
<!-- Node1&#45;&gt;Node31 -->
<g id="edge31" class="edge"><title>Node1&#45;&gt;Node31</title>
<path fill="none" stroke="midnightblue" d="M1220.71,-120.601C1311.07,-118.899 1632.23,-110.714 1907.24,-75.9068"/>
<polygon fill="midnightblue" stroke="midnightblue" points="1907.94,-79.3459 1917.41,-74.6041 1907.05,-72.4026 1907.94,-79.3459"/>
</g>
<!-- Node32 -->
<g id="node33" class="node"><title>Node32</title>
<g id="a_node33"><a xlink:href="a00059.html" target="_top" xlink:title="Templates for memory allocation routines. ">
<polygon fill="white" stroke="black" points="2009,-56.5 2009,-75.5 2099,-75.5 2099,-56.5 2009,-56.5"/>
<text text-anchor="middle" x="2054" y="-63.5" font-family="Helvetica,sans-Serif" font-size="10.00">gk_mkmemory.h</text>
</a>
</g>
</g>
<!-- Node1&#45;&gt;Node32 -->
<g id="edge32" class="edge"><title>Node1&#45;&gt;Node32</title>
<path fill="none" stroke="midnightblue" d="M1220.72,-120.571C1318.18,-118.681 1685.29,-109.679 1998.55,-75.9075"/>
<polygon fill="midnightblue" stroke="midnightblue" points="1999.17,-79.3604 2008.73,-74.7986 1998.41,-72.4016 1999.17,-79.3604"/>
</g>
<!-- Node33 -->
<g id="node34" class="node"><title>Node33</title>
<g id="a_node34"><a xlink:href="a00062.html" target="_top" xlink:title="Templates for priority queues. ">
<polygon fill="white" stroke="black" points="2117,-56.5 2117,-75.5 2205,-75.5 2205,-56.5 2117,-56.5"/>
<text text-anchor="middle" x="2161" y="-63.5" font-family="Helvetica,sans-Serif" font-size="10.00">gk_mkpqueue.h</text>
</a>
</g>
</g>
<!-- Node1&#45;&gt;Node33 -->
<g id="edge33" class="edge"><title>Node1&#45;&gt;Node33</title>
<path fill="none" stroke="midnightblue" d="M1220.75,-120.857C1326.31,-120.021 1749.41,-114.39 2106.79,-75.9955"/>
<polygon fill="midnightblue" stroke="midnightblue" points="2107.24,-79.4665 2116.81,-74.9083 2106.49,-72.5073 2107.24,-79.4665"/>
</g>
<!-- Node34 -->
<g id="node35" class="node"><title>Node34</title>
<g id="a_node35"><a xlink:href="a00065.html" target="_top" xlink:title="Templates for priority queues that do not utilize locators and as such they can use different types o...">
<polygon fill="white" stroke="black" points="2223.5,-56.5 2223.5,-75.5 2316.5,-75.5 2316.5,-56.5 2223.5,-56.5"/>
<text text-anchor="middle" x="2270" y="-63.5" font-family="Helvetica,sans-Serif" font-size="10.00">gk_mkpqueue2.h</text>
</a>
</g>
</g>
<!-- Node1&#45;&gt;Node34 -->
<g id="edge34" class="edge"><title>Node1&#45;&gt;Node34</title>
<path fill="none" stroke="midnightblue" d="M1220.88,-120.955C1334.01,-120.53 1811.32,-116.372 2213.23,-75.9403"/>
<polygon fill="midnightblue" stroke="midnightblue" points="2213.71,-79.4096 2223.3,-74.9174 2213,-72.4454 2213.71,-79.4096"/>
</g>
<!-- Node35 -->
<g id="node36" class="node"><title>Node35</title>
<g id="a_node36"><a xlink:href="a00068.html" target="_top" xlink:title="Templates for portable random number generation. ">
<polygon fill="white" stroke="black" points="2335,-56.5 2335,-75.5 2423,-75.5 2423,-56.5 2335,-56.5"/>
<text text-anchor="middle" x="2379" y="-63.5" font-family="Helvetica,sans-Serif" font-size="10.00">gk_mkrandom.h</text>
</a>
</g>
</g>
<!-- Node1&#45;&gt;Node35 -->
<g id="edge35" class="edge"><title>Node1&#45;&gt;Node35</title>
<path fill="none" stroke="midnightblue" d="M1220.71,-121.16C1340.83,-121.698 1875.82,-121.364 2324.6,-75.8688"/>
<polygon fill="midnightblue" stroke="midnightblue" points="2325.26,-79.3196 2334.86,-74.82 2324.55,-72.3559 2325.26,-79.3196"/>
</g>
<!-- Node36 -->
<g id="node37" class="node"><title>Node36</title>
<g id="a_node37"><a xlink:href="a00074.html" target="_top" xlink:title="Templates for various utility routines. ">
<polygon fill="white" stroke="black" points="2441,-56.5 2441,-75.5 2513,-75.5 2513,-56.5 2441,-56.5"/>
<text text-anchor="middle" x="2477" y="-63.5" font-family="Helvetica,sans-Serif" font-size="10.00">gk_mkutils.h</text>
</a>
</g>
</g>
<!-- Node1&#45;&gt;Node36 -->
<g id="edge36" class="edge"><title>Node1&#45;&gt;Node36</title>
<path fill="none" stroke="midnightblue" d="M1220.52,-120.646C1370.33,-118.405 2164.36,-105.356 2430.72,-75.9187"/>
<polygon fill="midnightblue" stroke="midnightblue" points="2431.19,-79.3875 2440.73,-74.775 2430.4,-72.4328 2431.19,-79.3875"/>
</g>
<!-- Node37 -->
<g id="node38" class="node"><title>Node37</title>
<g id="a_node38"><a xlink:href="a00077.html" target="_top" xlink:title="This file contains function prototypes. ">
<polygon fill="white" stroke="black" points="2531,-56.5 2531,-75.5 2595,-75.5 2595,-56.5 2531,-56.5"/>
<text text-anchor="middle" x="2563" y="-63.5" font-family="Helvetica,sans-Serif" font-size="10.00">gk_proto.h</text>
</a>
</g>
</g>
<!-- Node1&#45;&gt;Node37 -->
<g id="edge37" class="edge"><title>Node1&#45;&gt;Node37</title>
<path fill="none" stroke="midnightblue" d="M1220.75,-120.776C1377.56,-119.266 2235.02,-109.625 2520.55,-75.8948"/>
<polygon fill="midnightblue" stroke="midnightblue" points="2521.37,-79.3208 2530.87,-74.6333 2520.52,-72.3725 2521.37,-79.3208"/>
</g>
<!-- Node3 -->
<g id="node4" class="node"><title>Node3</title>
<polygon fill="white" stroke="#bfbfbf" points="-0.5,-0.5 -0.5,-19.5 48.5,-19.5 48.5,-0.5 -0.5,-0.5"/>
<text text-anchor="middle" x="24" y="-7.5" font-family="Helvetica,sans-Serif" font-size="10.00">stdint.h</text>
</g>
<!-- Node2&#45;&gt;Node3 -->
<g id="edge3" class="edge"><title>Node2&#45;&gt;Node3</title>
<path fill="none" stroke="midnightblue" d="M152.757,-56.4435C127.129,-47.3986 86.5148,-33.064 57.7616,-22.9158"/>
<polygon fill="midnightblue" stroke="midnightblue" points="58.7247,-19.5442 48.1299,-19.5164 56.3949,-26.1452 58.7247,-19.5442"/>
</g>
<!-- Node4 -->
<g id="node5" class="node"><title>Node4</title>
<polygon fill="white" stroke="#bfbfbf" points="66.5,-0.5 66.5,-19.5 125.5,-19.5 125.5,-0.5 66.5,-0.5"/>
<text text-anchor="middle" x="96" y="-7.5" font-family="Helvetica,sans-Serif" font-size="10.00">inttypes.h</text>
</g>
<!-- Node2&#45;&gt;Node4 -->
<g id="edge4" class="edge"><title>Node2&#45;&gt;Node4</title>
<path fill="none" stroke="midnightblue" d="M163.986,-56.324C151.468,-47.979 132.318,-35.2122 117.529,-25.3524"/>
<polygon fill="midnightblue" stroke="midnightblue" points="119.244,-22.2894 108.982,-19.6545 115.361,-28.1137 119.244,-22.2894"/>
</g>
<!-- Node5 -->
<g id="node6" class="node"><title>Node5</title>
<polygon fill="white" stroke="#bfbfbf" points="143.5,-0.5 143.5,-19.5 210.5,-19.5 210.5,-0.5 143.5,-0.5"/>
<text text-anchor="middle" x="177" y="-7.5" font-family="Helvetica,sans-Serif" font-size="10.00">sys/types.h</text>
</g>
<!-- Node2&#45;&gt;Node5 -->
<g id="edge5" class="edge"><title>Node2&#45;&gt;Node5</title>
<path fill="none" stroke="midnightblue" d="M177,-56.083C177,-49.0059 177,-38.8611 177,-29.9865"/>
<polygon fill="midnightblue" stroke="midnightblue" points="180.5,-29.751 177,-19.7511 173.5,-29.7511 180.5,-29.751"/>
</g>
<!-- Node6 -->
<g id="node7" class="node"><title>Node6</title>
<polygon fill="white" stroke="#bfbfbf" points="229,-0.5 229,-19.5 311,-19.5 311,-0.5 229,-0.5"/>
<text text-anchor="middle" x="270" y="-7.5" font-family="Helvetica,sans-Serif" font-size="10.00">sys/resource.h</text>
</g>
<!-- Node2&#45;&gt;Node6 -->
<g id="edge6" class="edge"><title>Node2&#45;&gt;Node6</title>
<path fill="none" stroke="midnightblue" d="M191.942,-56.324C206.585,-47.8215 229.134,-34.7288 246.238,-24.7975"/>
<polygon fill="midnightblue" stroke="midnightblue" points="248.205,-27.7027 255.095,-19.6545 244.69,-21.6491 248.205,-27.7027"/>
</g>
<!-- Node7 -->
<g id="node8" class="node"><title>Node7</title>
<polygon fill="white" stroke="#bfbfbf" points="329,-0.5 329,-19.5 391,-19.5 391,-0.5 329,-0.5"/>
<text text-anchor="middle" x="360" y="-7.5" font-family="Helvetica,sans-Serif" font-size="10.00">sys/time.h</text>
</g>
<!-- Node2&#45;&gt;Node7 -->
<g id="edge7" class="edge"><title>Node2&#45;&gt;Node7</title>
<path fill="none" stroke="midnightblue" d="M205.997,-56.4435C237.185,-47.2406 286.93,-32.5617 321.408,-22.3879"/>
<polygon fill="midnightblue" stroke="midnightblue" points="322.538,-25.7036 331.139,-19.5164 320.557,-18.9898 322.538,-25.7036"/>
</g>
</g>
</svg>
        <g id="navigator" transform="translate(0 0)" fill="#404254">
                <rect fill="#f2f5e9" fill-opacity="0.5" stroke="#606060" stroke-width=".5" x="0" y="0" width="60" height="60"/>
                <use id="zoomplus" xlink:href="#zoomPlus" x="17" y="9" onmousedown="handleZoom(evt,'in')"/>
                <use id="zoomminus" xlink:href="#zoomMin" x="42" y="9" onmousedown="handleZoom(evt,'out')"/>
                <use id="reset" xlink:href="#resetDef" x="30" y="36" onmousedown="handleReset()"/>
                <g id="arrowUp" xlink:href="#dirArrow" transform="translate(30 24)" onmousedown="handlePan(0,-1)">
                  <use xlink:href="#rim" fill="#404040">
                        <set attributeName="fill" to="#808080" begin="arrowUp.mouseover" end="arrowUp.mouseout"/>
                  </use>
                  <path fill="none" stroke="white" stroke-width="1.5" d="M0,-3.0v7 M-2.5,-0.5L0,-3.0L2.5,-0.5"/>
                </g>
                <g id="arrowRight" xlink:href="#dirArrow" transform="rotate(90) translate(36 -43)" onmousedown="handlePan(1,0)">
                  <use xlink:href="#rim" fill="#404040">
                        <set attributeName="fill" to="#808080" begin="arrowRight.mouseover" end="arrowRight.mouseout"/>
                  </use>
                  <path fill="none" stroke="white" stroke-width="1.5" d="M0,-3.0v7 M-2.5,-0.5L0,-3.0L2.5,-0.5"/>
                </g>
                <g id="arrowDown" xlink:href="#dirArrow" transform="rotate(180) translate(-30 -48)" onmousedown="handlePan(0,1)">
                  <use xlink:href="#rim" fill="#404040">
                        <set attributeName="fill" to="#808080" begin="arrowDown.mouseover" end="arrowDown.mouseout"/>
                  </use>
                  <path fill="none" stroke="white" stroke-width="1.5" d="M0,-3.0v7 M-2.5,-0.5L0,-3.0L2.5,-0.5"/>
                </g>
                <g id="arrowLeft" xlink:href="#dirArrow" transform="rotate(270) translate(-36 17)" onmousedown="handlePan(-1,0)">
                  <use xlink:href="#rim" fill="#404040">
                        <set attributeName="fill" to="#808080" begin="arrowLeft.mouseover" end="arrowLeft.mouseout"/>
                  </use>
                  <path fill="none" stroke="white" stroke-width="1.5" d="M0,-3.0v7 M-2.5,-0.5L0,-3.0L2.5,-0.5"/>
                </g>
        </g>
        <svg viewBox="0 0 15 15" width="100%" height="30px" preserveAspectRatio="xMaxYMin meet">
         <g id="arrow_out" transform="scale(0.3 0.3)">
          <a xlink:href="a00129_org.svg" target="_base">
           <rect id="button" ry="5" rx="5" y="6" x="6" height="38" width="38"
                fill="#f2f5e9" fill-opacity="0.5" stroke="#606060" stroke-width="1.0"/>
           <path id="arrow"
             d="M 11.500037,31.436501 C 11.940474,20.09759 22.043105,11.32322 32.158766,21.979434 L 37.068811,17.246167 C 37.068811,17.246167 37.088388,32 37.088388,32 L 22.160133,31.978069 C 22.160133,31.978069 26.997745,27.140456 26.997745,27.140456 C 18.528582,18.264221 13.291696,25.230495 11.500037,31.436501 z"
             style="fill:#404040;"/>
          </a>
         </g>
        </svg>
</svg>
