<?xml version="1.0" encoding="UTF-8" standalone="no"?>
<!DOCTYPE svg PUBLIC "-//W3C//DTD SVG 1.1//EN"
 "http://www.w3.org/Graphics/SVG/1.1/DTD/svg11.dtd">
<!-- Generated by graphviz version 2.36.0 (20140111.2315)
 -->
<!-- Title: ArcSyn3sis/include/parmetis.h Pages: 1 -->
<svg width="116pt" height="108pt"
 viewBox="0.00 0.00 116.00 108.00" xmlns="http://www.w3.org/2000/svg" xmlns:xlink="http://www.w3.org/1999/xlink">
<g id="graph0" class="graph" transform="scale(1 1) rotate(0) translate(4 104)">
<title>ArcSyn3sis/include/parmetis.h</title>
<polygon fill="white" stroke="none" points="-4,4 -4,-104 112,-104 112,4 -4,4"/>
<!-- Node4 -->
<g id="node1" class="node"><title>Node4</title>
<polygon fill="#bfbfbf" stroke="black" points="3.5,-69 3.5,-99 104.5,-99 104.5,-69 3.5,-69"/>
<text text-anchor="start" x="11.5" y="-87" font-family="Helvetica,sans-Serif" font-size="10.00">ArcSyn3sis/include</text>
<text text-anchor="middle" x="54" y="-76" font-family="Helvetica,sans-Serif" font-size="10.00">/parmetis.h</text>
</g>
<!-- Node5 -->
<g id="node2" class="node"><title>Node5</title>
<g id="a_node2"><a xlink:href="a00167.html" target="_top" xlink:title="ArcSyn3sis/src/old\l/LoadBalance3d.cpp">
<polygon fill="white" stroke="black" points="0,-1 0,-31 108,-31 108,-1 0,-1"/>
<text text-anchor="start" x="8" y="-19" font-family="Helvetica,sans-Serif" font-size="10.00">ArcSyn3sis/src/old</text>
<text text-anchor="middle" x="54" y="-8" font-family="Helvetica,sans-Serif" font-size="10.00">/LoadBalance3d.cpp</text>
</a>
</g>
</g>
<!-- Node4&#45;&gt;Node5 -->
<g id="edge1" class="edge"><title>Node4&#45;&gt;Node5</title>
<path fill="none" stroke="midnightblue" d="M54,-58.5322C54,-49.3606 54,-39.2449 54,-31.2931"/>
<polygon fill="midnightblue" stroke="midnightblue" points="50.5001,-58.6789 54,-68.679 57.5001,-58.679 50.5001,-58.6789"/>
</g>
</g>
</svg>
