<?xml version="1.0" encoding="UTF-8" standalone="no"?>
<!DOCTYPE svg PUBLIC "-//W3C//DTD SVG 1.1//EN"
 "http://www.w3.org/Graphics/SVG/1.1/DTD/svg11.dtd">
<!-- Generated by graphviz version 2.36.0 (20140111.2315)
 -->
<!-- Title: gk_idxkvsortd Pages: 1 -->
<svg width="274pt" height="28pt"
 viewBox="0.00 0.00 274.00 28.00" xmlns="http://www.w3.org/2000/svg" xmlns:xlink="http://www.w3.org/1999/xlink">
<g id="graph0" class="graph" transform="scale(1 1) rotate(0) translate(4 24)">
<title>gk_idxkvsortd</title>
<polygon fill="white" stroke="none" points="-4,4 -4,-24 270,-24 270,4 -4,4"/>
<!-- Node50 -->
<g id="node1" class="node"><title>Node50</title>
<polygon fill="#bfbfbf" stroke="black" points="0,-0.5 0,-19.5 78,-19.5 78,-0.5 0,-0.5"/>
<text text-anchor="middle" x="39" y="-7.5" font-family="Helvetica,sans-Serif" font-size="10.00">gk_idxkvsortd</text>
</g>
<!-- Node51 -->
<g id="node2" class="node"><title>Node51</title>
<g id="a_node2"><a xlink:href="$a00152.html#ab63d10c508d01adca7672ac341b950ba" xlink:title="test_idxkvsort">
<polygon fill="white" stroke="black" points="114,-0.5 114,-19.5 192,-19.5 192,-0.5 114,-0.5"/>
<text text-anchor="middle" x="153" y="-7.5" font-family="Helvetica,sans-Serif" font-size="10.00">test_idxkvsort</text>
</a>
</g>
</g>
<!-- Node50&#45;&gt;Node51 -->
<g id="edge1" class="edge"><title>Node50&#45;&gt;Node51</title>
<path fill="none" stroke="midnightblue" d="M88.4591,-10C96.9858,-10 105.75,-10 113.942,-10"/>
<polygon fill="midnightblue" stroke="midnightblue" points="88.2308,-6.5001 78.2308,-10 88.2308,-13.5001 88.2308,-6.5001"/>
</g>
<!-- Node52 -->
<g id="node3" class="node"><title>Node52</title>
<g id="a_node3"><a xlink:href="$a00152.html#ae66f6b31b5ad750f1fe042a706a4e3d4" xlink:title="main">
<polygon fill="white" stroke="black" points="228,-0.5 228,-19.5 266,-19.5 266,-0.5 228,-0.5"/>
<text text-anchor="middle" x="247" y="-7.5" font-family="Helvetica,sans-Serif" font-size="10.00">main</text>
</a>
</g>
</g>
<!-- Node51&#45;&gt;Node52 -->
<g id="edge2" class="edge"><title>Node51&#45;&gt;Node52</title>
<path fill="none" stroke="midnightblue" d="M202.357,-10C211.358,-10 220.238,-10 227.614,-10"/>
<polygon fill="midnightblue" stroke="midnightblue" points="202.217,-6.5001 192.217,-10 202.217,-13.5001 202.217,-6.5001"/>
</g>
</g>
</svg>
