<?xml version="1.0" encoding="UTF-8" standalone="no"?>
<!DOCTYPE svg PUBLIC "-//W3C//DTD SVG 1.1//EN"
 "http://www.w3.org/Graphics/SVG/1.1/DTD/svg11.dtd">
<!-- Generated by graphviz version 2.36.0 (20140111.2315)
 -->
<!-- Title: gk_isorti Pages: 1 -->
<svg width="230pt" height="28pt"
 viewBox="0.00 0.00 230.00 28.00" xmlns="http://www.w3.org/2000/svg" xmlns:xlink="http://www.w3.org/1999/xlink">
<g id="graph0" class="graph" transform="scale(1 1) rotate(0) translate(4 24)">
<title>gk_isorti</title>
<polygon fill="white" stroke="none" points="-4,4 -4,-24 226,-24 226,4 -4,4"/>
<!-- Node83 -->
<g id="node1" class="node"><title>Node83</title>
<polygon fill="#bfbfbf" stroke="black" points="0,-0.5 0,-19.5 54,-19.5 54,-0.5 0,-0.5"/>
<text text-anchor="middle" x="27" y="-7.5" font-family="Helvetica,sans-Serif" font-size="10.00">gk_isorti</text>
</g>
<!-- Node84 -->
<g id="node2" class="node"><title>Node84</title>
<g id="a_node2"><a xlink:href="$a00152.html#a8de21ffeb988c6322635a778ecdd4066" xlink:title="test_isort">
<polygon fill="white" stroke="black" points="90.5,-0.5 90.5,-19.5 147.5,-19.5 147.5,-0.5 90.5,-0.5"/>
<text text-anchor="middle" x="119" y="-7.5" font-family="Helvetica,sans-Serif" font-size="10.00">test_isort</text>
</a>
</g>
</g>
<!-- Node83&#45;&gt;Node84 -->
<g id="edge1" class="edge"><title>Node83&#45;&gt;Node84</title>
<path fill="none" stroke="midnightblue" d="M64.0569,-10C72.8553,-10 82.1289,-10 90.4582,-10"/>
<polygon fill="midnightblue" stroke="midnightblue" points="64.0318,-6.5001 54.0317,-10 64.0317,-13.5001 64.0318,-6.5001"/>
</g>
<!-- Node85 -->
<g id="node3" class="node"><title>Node85</title>
<g id="a_node3"><a xlink:href="$a00152.html#ae66f6b31b5ad750f1fe042a706a4e3d4" xlink:title="main">
<polygon fill="white" stroke="black" points="184,-0.5 184,-19.5 222,-19.5 222,-0.5 184,-0.5"/>
<text text-anchor="middle" x="203" y="-7.5" font-family="Helvetica,sans-Serif" font-size="10.00">main</text>
</a>
</g>
</g>
<!-- Node84&#45;&gt;Node85 -->
<g id="edge2" class="edge"><title>Node84&#45;&gt;Node85</title>
<path fill="none" stroke="midnightblue" d="M157.797,-10C166.849,-10 176.11,-10 183.802,-10"/>
<polygon fill="midnightblue" stroke="midnightblue" points="157.761,-6.5001 147.761,-10 157.761,-13.5001 157.761,-6.5001"/>
</g>
</g>
</svg>
