<?xml version="1.0" encoding="UTF-8" standalone="no"?>
<!DOCTYPE svg PUBLIC "-//W3C//DTD SVG 1.1//EN"
 "http://www.w3.org/Graphics/SVG/1.1/DTD/svg11.dtd">
<!-- Generated by graphviz version 2.36.0 (20140111.2315)
 -->
<!-- Title: test_idxsort Pages: 1 -->
<svg width="180pt" height="66pt"
 viewBox="0.00 0.00 180.00 66.00" xmlns="http://www.w3.org/2000/svg" xmlns:xlink="http://www.w3.org/1999/xlink">
<g id="graph0" class="graph" transform="scale(1 1) rotate(0) translate(4 62)">
<title>test_idxsort</title>
<polygon fill="white" stroke="none" points="-4,4 -4,-62 176,-62 176,4 -4,4"/>
<!-- Node53 -->
<g id="node1" class="node"><title>Node53</title>
<polygon fill="#bfbfbf" stroke="black" points="0,-19.5 0,-38.5 68,-38.5 68,-19.5 0,-19.5"/>
<text text-anchor="middle" x="34" y="-26.5" font-family="Helvetica,sans-Serif" font-size="10.00">test_idxsort</text>
</g>
<!-- Node54 -->
<g id="node2" class="node"><title>Node54</title>
<g id="a_node2"><a xlink:href="a00077.html#ad863e6e90eb4028e89bfb66e8d8a3c08" target="_top" xlink:title="gk_idxsorti">
<polygon fill="white" stroke="black" points="106,-38.5 106,-57.5 170,-57.5 170,-38.5 106,-38.5"/>
<text text-anchor="middle" x="138" y="-45.5" font-family="Helvetica,sans-Serif" font-size="10.00">gk_idxsorti</text>
</a>
</g>
</g>
<!-- Node53&#45;&gt;Node54 -->
<g id="edge1" class="edge"><title>Node53&#45;&gt;Node54</title>
<path fill="none" stroke="midnightblue" d="M68.1165,-35.1688C76.9075,-36.8063 86.5102,-38.595 95.6796,-40.3031"/>
<polygon fill="midnightblue" stroke="midnightblue" points="95.3098,-43.7943 105.782,-42.1848 96.5917,-36.9127 95.3098,-43.7943"/>
</g>
<!-- Node55 -->
<g id="node3" class="node"><title>Node55</title>
<g id="a_node3"><a xlink:href="a00077.html#a77534ffafbfc5bebe4b527548d60a1ee" target="_top" xlink:title="gk_idxsortd">
<polygon fill="white" stroke="black" points="104,-0.5 104,-19.5 172,-19.5 172,-0.5 104,-0.5"/>
<text text-anchor="middle" x="138" y="-7.5" font-family="Helvetica,sans-Serif" font-size="10.00">gk_idxsortd</text>
</a>
</g>
</g>
<!-- Node53&#45;&gt;Node55 -->
<g id="edge2" class="edge"><title>Node53&#45;&gt;Node55</title>
<path fill="none" stroke="midnightblue" d="M68.1165,-22.8312C76.3113,-21.3048 85.2114,-19.6469 93.8083,-18.0455"/>
<polygon fill="midnightblue" stroke="midnightblue" points="94.5107,-21.475 103.701,-16.2028 93.2288,-14.5933 94.5107,-21.475"/>
</g>
</g>
</svg>
