<?xml version="1.0" encoding="UTF-8" standalone="no"?>
<!DOCTYPE svg PUBLIC "-//W3C//DTD SVG 1.1//EN"
 "http://www.w3.org/Graphics/SVG/1.1/DTD/svg11.dtd">
<!-- Generated by graphviz version 2.36.0 (20140111.2315)
 -->
<!-- Title: METIS_Free Pages: 1 -->
<svg width="346pt" height="104pt"
 viewBox="0.00 0.00 346.00 104.00" xmlns="http://www.w3.org/2000/svg" xmlns:xlink="http://www.w3.org/1999/xlink">
<g id="graph0" class="graph" transform="scale(1 1) rotate(0) translate(4 100)">
<title>METIS_Free</title>
<polygon fill="white" stroke="none" points="-4,4 -4,-100 342,-100 342,4 -4,4"/>
<!-- Node1 -->
<g id="node1" class="node"><title>Node1</title>
<polygon fill="#bfbfbf" stroke="black" points="0.5,-38.5 0.5,-57.5 73.5,-57.5 73.5,-38.5 0.5,-38.5"/>
<text text-anchor="middle" x="37" y="-45.5" font-family="Helvetica,sans-Serif" font-size="10.00">METIS_Free</text>
</g>
<!-- Node2 -->
<g id="node2" class="node"><title>Node2</title>
<g id="a_node2"><a xlink:href="a00846.html#a2ae9750ec09afdc4243b7cb7c5118666" target="_top" xlink:title="ParMETIS_V3_PartMeshKway">
<polygon fill="white" stroke="black" points="110.5,-76.5 110.5,-95.5 263.5,-95.5 263.5,-76.5 110.5,-76.5"/>
<text text-anchor="middle" x="187" y="-83.5" font-family="Helvetica,sans-Serif" font-size="10.00">ParMETIS_V3_PartMeshKway</text>
</a>
</g>
</g>
<!-- Node1&#45;&gt;Node2 -->
<g id="edge1" class="edge"><title>Node1&#45;&gt;Node2</title>
<path fill="none" stroke="midnightblue" d="M83.5685,-60.121C92.3351,-62.4257 101.448,-64.8028 110,-67 122.119,-70.1137 135.343,-73.4433 147.312,-76.4315"/>
<polygon fill="midnightblue" stroke="midnightblue" points="84.4284,-56.7281 73.8665,-57.5631 82.6438,-63.4969 84.4284,-56.7281"/>
</g>
<!-- Node3 -->
<g id="node3" class="node"><title>Node3</title>
<g id="a_node3"><a xlink:href="a00236.html#ade1e7e23ad687989a6343b4fb8d61ba7" target="_top" xlink:title="METIS_PartMeshNodal">
<polygon fill="white" stroke="black" points="126,-38.5 126,-57.5 248,-57.5 248,-38.5 126,-38.5"/>
<text text-anchor="middle" x="187" y="-45.5" font-family="Helvetica,sans-Serif" font-size="10.00">METIS_PartMeshNodal</text>
</a>
</g>
</g>
<!-- Node1&#45;&gt;Node3 -->
<g id="edge2" class="edge"><title>Node1&#45;&gt;Node3</title>
<path fill="none" stroke="midnightblue" d="M84.1128,-48C97.3619,-48 112.008,-48 125.966,-48"/>
<polygon fill="midnightblue" stroke="midnightblue" points="83.8267,-44.5001 73.8267,-48 83.8266,-51.5001 83.8267,-44.5001"/>
</g>
<!-- Node5 -->
<g id="node5" class="node"><title>Node5</title>
<g id="a_node5"><a xlink:href="a00236.html#a8f496ac1cd2246b124da246b5c6f9193" target="_top" xlink:title="METIS_PartMeshDual">
<polygon fill="white" stroke="black" points="129,-0.5 129,-19.5 245,-19.5 245,-0.5 129,-0.5"/>
<text text-anchor="middle" x="187" y="-7.5" font-family="Helvetica,sans-Serif" font-size="10.00">METIS_PartMeshDual</text>
</a>
</g>
</g>
<!-- Node1&#45;&gt;Node5 -->
<g id="edge4" class="edge"><title>Node1&#45;&gt;Node5</title>
<path fill="none" stroke="midnightblue" d="M83.5685,-35.879C92.3351,-33.5743 101.448,-31.1972 110,-29 122.119,-25.8863 135.343,-22.5567 147.312,-19.5685"/>
<polygon fill="midnightblue" stroke="midnightblue" points="82.6438,-32.5031 73.8665,-38.4369 84.4284,-39.2719 82.6438,-32.5031"/>
</g>
<!-- Node4 -->
<g id="node4" class="node"><title>Node4</title>
<g id="a_node4"><a xlink:href="a00323.html#a0ddf1224851353fc92bfbff6f499fa97" target="_top" xlink:title="main">
<polygon fill="white" stroke="black" points="300,-19.5 300,-38.5 338,-38.5 338,-19.5 300,-19.5"/>
<text text-anchor="middle" x="319" y="-26.5" font-family="Helvetica,sans-Serif" font-size="10.00">main</text>
</a>
</g>
</g>
<!-- Node3&#45;&gt;Node4 -->
<g id="edge3" class="edge"><title>Node3&#45;&gt;Node4</title>
<path fill="none" stroke="midnightblue" d="M258.255,-37.732C273.749,-35.4675 288.842,-33.2616 299.982,-31.6334"/>
<polygon fill="midnightblue" stroke="midnightblue" points="257.442,-34.3135 248.053,-39.223 258.454,-41.24 257.442,-34.3135"/>
</g>
<!-- Node5&#45;&gt;Node4 -->
<g id="edge5" class="edge"><title>Node5&#45;&gt;Node4</title>
<path fill="none" stroke="midnightblue" d="M255.272,-19.832C271.758,-22.2415 288.048,-24.6225 299.895,-26.3539"/>
<polygon fill="midnightblue" stroke="midnightblue" points="255.421,-16.3167 245.02,-18.3337 254.409,-23.2431 255.421,-16.3167"/>
</g>
</g>
</svg>
