<?xml version="1.0" encoding="UTF-8" standalone="no"?>
<!DOCTYPE svg PUBLIC "-//W3C//DTD SVG 1.1//EN"
 "http://www.w3.org/Graphics/SVG/1.1/DTD/svg11.dtd">
<!-- Generated by graphviz version 2.36.0 (20140111.2315)
 -->
<!-- Title: gk_AllocMatrix Pages: 1 -->
<svg width="430pt" height="125pt"
 viewBox="0.00 0.00 430.00 124.90" xmlns="http://www.w3.org/2000/svg" xmlns:xlink="http://www.w3.org/1999/xlink">
<g id="graph0" class="graph" transform="scale(1 1) rotate(0) translate(4 120.901)">
<title>gk_AllocMatrix</title>
<polygon fill="white" stroke="none" points="-4,4 -4,-120.901 426,-120.901 426,4 -4,4"/>
<!-- Node0 -->
<g id="node1" class="node"><title>Node0</title>
<polygon fill="#bfbfbf" stroke="black" points="0,-38.5 0,-57.5 82,-57.5 82,-38.5 0,-38.5"/>
<text text-anchor="middle" x="41" y="-45.5" font-family="Helvetica,sans-Serif" font-size="10.00">gk_AllocMatrix</text>
</g>
<!-- Node1 -->
<g id="node2" class="node"><title>Node1</title>
<g id="a_node2"><a xlink:href="$a00110.html#aba6f76f5c67b9b7e9c2e45988d3d3e9d" xlink:title="gk_malloc">
<polygon fill="white" stroke="black" points="118,-57.5 118,-76.5 180,-76.5 180,-57.5 118,-57.5"/>
<text text-anchor="middle" x="149" y="-64.5" font-family="Helvetica,sans-Serif" font-size="10.00">gk_malloc</text>
</a>
</g>
</g>
<!-- Node0&#45;&gt;Node1 -->
<g id="edge1" class="edge"><title>Node0&#45;&gt;Node1</title>
<path fill="none" stroke="midnightblue" d="M82.0741,-55.1831C90.4935,-56.6922 99.3765,-58.2845 107.801,-59.7944"/>
<polygon fill="midnightblue" stroke="midnightblue" points="107.326,-63.265 117.786,-61.5844 108.561,-56.3749 107.326,-63.265"/>
</g>
<!-- Node6 -->
<g id="node7" class="node"><title>Node6</title>
<g id="a_node7"><a xlink:href="$a00110.html#ac8df62c4e3d0910711a9874f9cc58884" xlink:title="gk_free">
<polygon fill="white" stroke="black" points="124,-19.5 124,-38.5 174,-38.5 174,-19.5 124,-19.5"/>
<text text-anchor="middle" x="149" y="-26.5" font-family="Helvetica,sans-Serif" font-size="10.00">gk_free</text>
</a>
</g>
</g>
<!-- Node0&#45;&gt;Node6 -->
<g id="edge7" class="edge"><title>Node0&#45;&gt;Node6</title>
<path fill="none" stroke="midnightblue" d="M82.0741,-40.8169C92.5171,-38.945 103.673,-36.9454 113.782,-35.1334"/>
<polygon fill="midnightblue" stroke="midnightblue" points="114.639,-38.5358 123.864,-33.3262 113.403,-31.6456 114.639,-38.5358"/>
</g>
<!-- Node2 -->
<g id="node3" class="node"><title>Node2</title>
<g id="a_node3"><a xlink:href="$a01017.html#a2e311a777ffe9c80e405efa7cd2757be" xlink:title="fprintf">
<polygon fill="white" stroke="black" points="380,-57.5 380,-76.5 422,-76.5 422,-57.5 380,-57.5"/>
<text text-anchor="middle" x="401" y="-64.5" font-family="Helvetica,sans-Serif" font-size="10.00">fprintf</text>
</a>
</g>
</g>
<!-- Node1&#45;&gt;Node2 -->
<g id="edge2" class="edge"><title>Node1&#45;&gt;Node2</title>
<path fill="none" stroke="midnightblue" d="M162.261,-76.7187C174.891,-86.0589 195.563,-99.5369 216,-105 270.959,-119.691 289.62,-121.709 344,-105 358.039,-100.686 371.719,-91.5255 382.044,-83.2793"/>
<polygon fill="midnightblue" stroke="midnightblue" points="384.469,-85.8134 389.862,-76.6941 379.959,-80.4595 384.469,-85.8134"/>
</g>
<!-- Node3 -->
<g id="node4" class="node"><title>Node3</title>
<g id="a_node4"><a xlink:href="$a00110.html#ad2327b94227019b6753b6b09400c0522" xlink:title="gk_GetCurMemoryUsed">
<polygon fill="white" stroke="black" points="218,-76.5 218,-95.5 342,-95.5 342,-76.5 218,-76.5"/>
<text text-anchor="middle" x="280" y="-83.5" font-family="Helvetica,sans-Serif" font-size="10.00">gk_GetCurMemoryUsed</text>
</a>
</g>
</g>
<!-- Node1&#45;&gt;Node3 -->
<g id="edge3" class="edge"><title>Node1&#45;&gt;Node3</title>
<path fill="none" stroke="midnightblue" d="M180.245,-71.4547C188.646,-72.692 198.139,-74.0903 207.836,-75.5184"/>
<polygon fill="midnightblue" stroke="midnightblue" points="207.573,-79.0175 217.977,-77.0121 208.593,-72.0922 207.573,-79.0175"/>
</g>
<!-- Node4 -->
<g id="node5" class="node"><title>Node4</title>
<g id="a_node5"><a xlink:href="$a00110.html#a656fd5266ae12a96e53125486f8fea52" xlink:title="gk_GetMaxMemoryUsed">
<polygon fill="white" stroke="black" points="216.5,-38.5 216.5,-57.5 343.5,-57.5 343.5,-38.5 216.5,-38.5"/>
<text text-anchor="middle" x="280" y="-45.5" font-family="Helvetica,sans-Serif" font-size="10.00">gk_GetMaxMemoryUsed</text>
</a>
</g>
</g>
<!-- Node1&#45;&gt;Node4 -->
<g id="edge4" class="edge"><title>Node1&#45;&gt;Node4</title>
<path fill="none" stroke="midnightblue" d="M180.245,-62.5453C188.229,-61.3693 197.2,-60.048 206.395,-58.6938"/>
<polygon fill="midnightblue" stroke="midnightblue" points="207.04,-62.1366 216.423,-57.2167 206.02,-55.2113 207.04,-62.1366"/>
</g>
<!-- Node5 -->
<g id="node6" class="node"><title>Node5</title>
<g id="a_node6"><a xlink:href="$a00026.html#a4c320c13bcdc9967613253ef4c73f59f" xlink:title="gk_errexit">
<polygon fill="white" stroke="black" points="250,-0.5 250,-19.5 310,-19.5 310,-0.5 250,-0.5"/>
<text text-anchor="middle" x="280" y="-7.5" font-family="Helvetica,sans-Serif" font-size="10.00">gk_errexit</text>
</a>
</g>
</g>
<!-- Node1&#45;&gt;Node5 -->
<g id="edge5" class="edge"><title>Node1&#45;&gt;Node5</title>
<path fill="none" stroke="midnightblue" d="M165.589,-57.4697C181.76,-47.6847 206.047,-33.2984 216,-29 223.68,-25.6834 232.121,-22.7096 240.259,-20.1539"/>
<polygon fill="midnightblue" stroke="midnightblue" points="241.388,-23.4695 249.965,-17.2488 239.381,-16.7634 241.388,-23.4695"/>
</g>
<!-- Node5&#45;&gt;Node2 -->
<g id="edge6" class="edge"><title>Node5&#45;&gt;Node2</title>
<path fill="none" stroke="midnightblue" d="M310.228,-16.8252C321.104,-19.8755 333.377,-23.9396 344,-29 356.634,-35.0184 369.634,-43.6626 379.925,-51.1863"/>
<polygon fill="midnightblue" stroke="midnightblue" points="378.101,-54.1937 388.194,-57.4154 382.313,-48.6027 378.101,-54.1937"/>
</g>
</g>
</svg>
