<?xml version="1.0" encoding="UTF-8" standalone="no"?>
<!DOCTYPE svg PUBLIC "-//W3C//DTD SVG 1.1//EN"
 "http://www.w3.org/Graphics/SVG/1.1/DTD/svg11.dtd">
<!-- Generated by graphviz version 2.36.0 (20140111.2315)
 -->
<!-- Title: gk_writefullatom Pages: 1 -->
<svg width="350pt" height="142pt"
 viewBox="0.00 0.00 350.00 142.00" xmlns="http://www.w3.org/2000/svg" xmlns:xlink="http://www.w3.org/1999/xlink">
<g id="graph0" class="graph" transform="scale(1 1) rotate(0) translate(4 138)">
<title>gk_writefullatom</title>
<polygon fill="white" stroke="none" points="-4,4 -4,-138 346,-138 346,4 -4,4"/>
<!-- Node49 -->
<g id="node1" class="node"><title>Node49</title>
<polygon fill="#bfbfbf" stroke="black" points="0.5,-38.5 0.5,-57.5 89.5,-57.5 89.5,-38.5 0.5,-38.5"/>
<text text-anchor="middle" x="45" y="-45.5" font-family="Helvetica,sans-Serif" font-size="10.00">gk_writefullatom</text>
</g>
<!-- Node50 -->
<g id="node2" class="node"><title>Node50</title>
<g id="a_node2"><a xlink:href="$a00077.html#ab2b996e10c5bccb30204d81804adfd24" xlink:title="gk_fopen">
<polygon fill="white" stroke="black" points="126,-76.5 126,-95.5 184,-95.5 184,-76.5 126,-76.5"/>
<text text-anchor="middle" x="155" y="-83.5" font-family="Helvetica,sans-Serif" font-size="10.00">gk_fopen</text>
</a>
</g>
</g>
<!-- Node49&#45;&gt;Node50 -->
<g id="edge1" class="edge"><title>Node49&#45;&gt;Node50</title>
<path fill="none" stroke="midnightblue" d="M73.253,-57.589C86.5552,-62.2694 102.754,-67.9692 117.142,-73.0315"/>
<polygon fill="midnightblue" stroke="midnightblue" points="116.161,-76.3965 126.756,-76.4141 118.484,-69.7933 116.161,-76.3965"/>
</g>
<!-- Node53 -->
<g id="node5" class="node"><title>Node53</title>
<g id="a_node5"><a xlink:href="$a01017.html#a2e311a777ffe9c80e405efa7cd2757be" xlink:title="fprintf">
<polygon fill="white" stroke="black" points="300,-57.5 300,-76.5 342,-76.5 342,-57.5 300,-57.5"/>
<text text-anchor="middle" x="321" y="-64.5" font-family="Helvetica,sans-Serif" font-size="10.00">fprintf</text>
</a>
</g>
</g>
<!-- Node49&#45;&gt;Node53 -->
<g id="edge5" class="edge"><title>Node49&#45;&gt;Node53</title>
<path fill="none" stroke="midnightblue" d="M89.7191,-51.0316C145.624,-54.9083 240.996,-61.5216 289.592,-64.8914"/>
<polygon fill="midnightblue" stroke="midnightblue" points="289.56,-68.3975 299.778,-65.5978 290.044,-61.4143 289.56,-68.3975"/>
</g>
<!-- Node54 -->
<g id="node6" class="node"><title>Node54</title>
<g id="a_node6"><a xlink:href="$a01017.html#a355ed4cdac2a27aa04a6689ac2d7e86e" xlink:title="fclose">
<polygon fill="white" stroke="black" points="133.5,-0.5 133.5,-19.5 176.5,-19.5 176.5,-0.5 133.5,-0.5"/>
<text text-anchor="middle" x="155" y="-7.5" font-family="Helvetica,sans-Serif" font-size="10.00">fclose</text>
</a>
</g>
</g>
<!-- Node49&#45;&gt;Node54 -->
<g id="edge6" class="edge"><title>Node49&#45;&gt;Node54</title>
<path fill="none" stroke="midnightblue" d="M73.253,-38.411C88.5285,-33.0363 107.624,-26.3174 123.41,-20.7631"/>
<polygon fill="midnightblue" stroke="midnightblue" points="124.961,-23.9278 133.232,-17.3071 122.638,-17.3246 124.961,-23.9278"/>
</g>
<!-- Node51 -->
<g id="node3" class="node"><title>Node51</title>
<g id="a_node3"><a xlink:href="$a00575.html#ae6aab5c308faac0fc539cc9c6da9fbd0" xlink:title="sprintf">
<polygon fill="white" stroke="black" points="220,-114.5 220,-133.5 264,-133.5 264,-114.5 220,-114.5"/>
<text text-anchor="middle" x="242" y="-121.5" font-family="Helvetica,sans-Serif" font-size="10.00">sprintf</text>
</a>
</g>
</g>
<!-- Node50&#45;&gt;Node51 -->
<g id="edge2" class="edge"><title>Node50&#45;&gt;Node51</title>
<path fill="none" stroke="midnightblue" d="M177.449,-95.589C187.491,-100.078 199.631,-105.506 210.598,-110.409"/>
<polygon fill="midnightblue" stroke="midnightblue" points="209.295,-113.66 219.852,-114.546 212.151,-107.269 209.295,-113.66"/>
</g>
<!-- Node52 -->
<g id="node4" class="node"><title>Node52</title>
<g id="a_node4"><a xlink:href="$a00026.html#a56d0f2cc40cd8633a784582d6200d8b5" xlink:title="errexit">
<polygon fill="white" stroke="black" points="220,-76.5 220,-95.5 264,-95.5 264,-76.5 220,-76.5"/>
<text text-anchor="middle" x="242" y="-83.5" font-family="Helvetica,sans-Serif" font-size="10.00">errexit</text>
</a>
</g>
</g>
<!-- Node50&#45;&gt;Node52 -->
<g id="edge3" class="edge"><title>Node50&#45;&gt;Node52</title>
<path fill="none" stroke="midnightblue" d="M184.304,-86C192.453,-86 201.39,-86 209.709,-86"/>
<polygon fill="midnightblue" stroke="midnightblue" points="209.811,-89.5001 219.811,-86 209.811,-82.5001 209.811,-89.5001"/>
</g>
<!-- Node52&#45;&gt;Node53 -->
<g id="edge4" class="edge"><title>Node52&#45;&gt;Node53</title>
<path fill="none" stroke="midnightblue" d="M264.041,-80.8082C272.042,-78.8339 281.319,-76.5446 289.992,-74.4047"/>
<polygon fill="midnightblue" stroke="midnightblue" points="290.911,-77.7828 299.782,-71.9889 289.234,-70.9866 290.911,-77.7828"/>
</g>
</g>
</svg>
