<?xml version="1.0" encoding="UTF-8" standalone="no"?>
<!DOCTYPE svg PUBLIC "-//W3C//DTD SVG 1.1//EN"
 "http://www.w3.org/Graphics/SVG/1.1/DTD/svg11.dtd">
<!-- Generated by graphviz version 2.36.0 (20140111.2315)
 -->
<!-- Title: gk_strchr_replace Pages: 1 -->
<svg width="288pt" height="28pt"
 viewBox="0.00 0.00 288.00 28.00" xmlns="http://www.w3.org/2000/svg" xmlns:xlink="http://www.w3.org/1999/xlink">
<g id="graph0" class="graph" transform="scale(1 1) rotate(0) translate(4 24)">
<title>gk_strchr_replace</title>
<polygon fill="white" stroke="none" points="-4,4 -4,-24 284,-24 284,4 -4,4"/>
<!-- Node11 -->
<g id="node1" class="node"><title>Node11</title>
<polygon fill="#bfbfbf" stroke="black" points="0,-0.5 0,-19.5 96,-19.5 96,-0.5 0,-0.5"/>
<text text-anchor="middle" x="48" y="-7.5" font-family="Helvetica,sans-Serif" font-size="10.00">gk_strchr_replace</text>
</g>
<!-- Node12 -->
<g id="node2" class="node"><title>Node12</title>
<g id="a_node2"><a xlink:href="$a00951.html#a12b940ccee061b8787088fbe16245f46" xlink:title="ReadTPwgts">
<polygon fill="white" stroke="black" points="132,-0.5 132,-19.5 206,-19.5 206,-0.5 132,-0.5"/>
<text text-anchor="middle" x="169" y="-7.5" font-family="Helvetica,sans-Serif" font-size="10.00">ReadTPwgts</text>
</a>
</g>
</g>
<!-- Node11&#45;&gt;Node12 -->
<g id="edge1" class="edge"><title>Node11&#45;&gt;Node12</title>
<path fill="none" stroke="midnightblue" d="M106.239,-10C114.999,-10 123.823,-10 131.953,-10"/>
<polygon fill="midnightblue" stroke="midnightblue" points="106.032,-6.5001 96.032,-10 106.032,-13.5001 106.032,-6.5001"/>
</g>
<!-- Node13 -->
<g id="node3" class="node"><title>Node13</title>
<g id="a_node3"><a xlink:href="$a00311.html#a0ddf1224851353fc92bfbff6f499fa97" xlink:title="main">
<polygon fill="white" stroke="black" points="242,-0.5 242,-19.5 280,-19.5 280,-0.5 242,-0.5"/>
<text text-anchor="middle" x="261" y="-7.5" font-family="Helvetica,sans-Serif" font-size="10.00">main</text>
</a>
</g>
</g>
<!-- Node12&#45;&gt;Node13 -->
<g id="edge2" class="edge"><title>Node12&#45;&gt;Node13</title>
<path fill="none" stroke="midnightblue" d="M216.326,-10C225.437,-10 234.476,-10 241.946,-10"/>
<polygon fill="midnightblue" stroke="midnightblue" points="216.088,-6.5001 206.088,-10 216.088,-13.5001 216.088,-6.5001"/>
</g>
</g>
</svg>
