<?xml version="1.0" encoding="UTF-8" standalone="no"?>
<!DOCTYPE svg PUBLIC "-//W3C//DTD SVG 1.1//EN"
 "http://www.w3.org/Graphics/SVG/1.1/DTD/svg11.dtd">
<!-- Generated by graphviz version 2.36.0 (20140111.2315)
 -->
<!-- Title: BuildMaps2d Pages: 1 -->
<svg width="254pt" height="28pt"
 viewBox="0.00 0.00 254.00 28.00" xmlns="http://www.w3.org/2000/svg" xmlns:xlink="http://www.w3.org/1999/xlink">
<g id="graph0" class="graph" transform="scale(1 1) rotate(0) translate(4 24)">
<title>BuildMaps2d</title>
<polygon fill="white" stroke="none" points="-4,4 -4,-24 250,-24 250,4 -4,4"/>
<!-- Node36 -->
<g id="node1" class="node"><title>Node36</title>
<polygon fill="#bfbfbf" stroke="black" points="0,-0.5 0,-19.5 74,-19.5 74,-0.5 0,-0.5"/>
<text text-anchor="middle" x="37" y="-7.5" font-family="Helvetica,sans-Serif" font-size="10.00">BuildMaps2d</text>
</g>
<!-- Node37 -->
<g id="node2" class="node"><title>Node37</title>
<g id="a_node2"><a xlink:href="a00212.html#a35ba318a20f8b83eefe63eeb1e1ac4b0" target="_top" xlink:title="StartUp2d">
<polygon fill="white" stroke="black" points="110,-0.5 110,-19.5 172,-19.5 172,-0.5 110,-0.5"/>
<text text-anchor="middle" x="141" y="-7.5" font-family="Helvetica,sans-Serif" font-size="10.00">StartUp2d</text>
</a>
</g>
</g>
<!-- Node36&#45;&gt;Node37 -->
<g id="edge1" class="edge"><title>Node36&#45;&gt;Node37</title>
<path fill="none" stroke="midnightblue" d="M84.3115,-10C93.0075,-10 101.887,-10 109.927,-10"/>
<polygon fill="midnightblue" stroke="midnightblue" points="84.2486,-6.5001 74.2486,-10 84.2485,-13.5001 84.2486,-6.5001"/>
</g>
<!-- Node38 -->
<g id="node3" class="node"><title>Node38</title>
<g id="a_node3"><a xlink:href="a00170.html#a3c04138a5bfe5d72780bb7e82a18e627" target="_top" xlink:title="main">
<polygon fill="white" stroke="black" points="208,-0.5 208,-19.5 246,-19.5 246,-0.5 208,-0.5"/>
<text text-anchor="middle" x="227" y="-7.5" font-family="Helvetica,sans-Serif" font-size="10.00">main</text>
</a>
</g>
</g>
<!-- Node37&#45;&gt;Node38 -->
<g id="edge2" class="edge"><title>Node37&#45;&gt;Node38</title>
<path fill="none" stroke="midnightblue" d="M182.544,-10C191.361,-10 200.264,-10 207.696,-10"/>
<polygon fill="midnightblue" stroke="midnightblue" points="182.326,-6.5001 172.326,-10 182.326,-13.5001 182.326,-6.5001"/>
</g>
</g>
</svg>
