<?xml version="1.0" encoding="UTF-8" standalone="no"?>
<!DOCTYPE svg PUBLIC "-//W3C//DTD SVG 1.1//EN"
 "http://www.w3.org/Graphics/SVG/1.1/DTD/svg11.dtd">
<!-- Generated by graphviz version 2.36.0 (20140111.2315)
 -->
<!-- Title: gk_gkmcorePush Pages: 1 -->
<svg width="402pt" height="28pt"
 viewBox="0.00 0.00 402.00 28.00" xmlns="http://www.w3.org/2000/svg" xmlns:xlink="http://www.w3.org/1999/xlink">
<g id="graph0" class="graph" transform="scale(1 1) rotate(0) translate(4 24)">
<title>gk_gkmcorePush</title>
<polygon fill="white" stroke="none" points="-4,4 -4,-24 398,-24 398,4 -4,4"/>
<!-- Node17 -->
<g id="node1" class="node"><title>Node17</title>
<polygon fill="#bfbfbf" stroke="black" points="0,-0.5 0,-19.5 94,-19.5 94,-0.5 0,-0.5"/>
<text text-anchor="middle" x="47" y="-7.5" font-family="Helvetica,sans-Serif" font-size="10.00">gk_gkmcorePush</text>
</g>
<!-- Node18 -->
<g id="node2" class="node"><title>Node18</title>
<g id="a_node2"><a xlink:href="$a00107.html#a3777d3929aad6ae5e17b76656cd6797b" xlink:title="gk_gkmcoreAdd">
<polygon fill="white" stroke="black" points="130.5,-0.5 130.5,-19.5 219.5,-19.5 219.5,-0.5 130.5,-0.5"/>
<text text-anchor="middle" x="175" y="-7.5" font-family="Helvetica,sans-Serif" font-size="10.00">gk_gkmcoreAdd</text>
</a>
</g>
</g>
<!-- Node17&#45;&gt;Node18 -->
<g id="edge1" class="edge"><title>Node17&#45;&gt;Node18</title>
<path fill="none" stroke="midnightblue" d="M94.2023,-10C102.683,-10 111.602,-10 120.281,-10"/>
<polygon fill="midnightblue" stroke="midnightblue" points="120.318,-13.5001 130.318,-10 120.318,-6.5001 120.318,-13.5001"/>
</g>
<!-- Node19 -->
<g id="node3" class="node"><title>Node19</title>
<g id="a_node3"><a xlink:href="$a00026.html#a4c320c13bcdc9967613253ef4c73f59f" xlink:title="gk_errexit">
<polygon fill="white" stroke="black" points="256,-0.5 256,-19.5 316,-19.5 316,-0.5 256,-0.5"/>
<text text-anchor="middle" x="286" y="-7.5" font-family="Helvetica,sans-Serif" font-size="10.00">gk_errexit</text>
</a>
</g>
</g>
<!-- Node18&#45;&gt;Node19 -->
<g id="edge2" class="edge"><title>Node18&#45;&gt;Node19</title>
<path fill="none" stroke="midnightblue" d="M219.706,-10C228.381,-10 237.435,-10 245.942,-10"/>
<polygon fill="midnightblue" stroke="midnightblue" points="245.985,-13.5001 255.985,-10 245.985,-6.5001 245.985,-13.5001"/>
</g>
<!-- Node20 -->
<g id="node4" class="node"><title>Node20</title>
<g id="a_node4"><a xlink:href="$a01017.html#a2e311a777ffe9c80e405efa7cd2757be" xlink:title="fprintf">
<polygon fill="white" stroke="black" points="352,-0.5 352,-19.5 394,-19.5 394,-0.5 352,-0.5"/>
<text text-anchor="middle" x="373" y="-7.5" font-family="Helvetica,sans-Serif" font-size="10.00">fprintf</text>
</a>
</g>
</g>
<!-- Node19&#45;&gt;Node20 -->
<g id="edge3" class="edge"><title>Node19&#45;&gt;Node20</title>
<path fill="none" stroke="midnightblue" d="M316.252,-10C324.491,-10 333.468,-10 341.763,-10"/>
<polygon fill="midnightblue" stroke="midnightblue" points="341.799,-13.5001 351.799,-10 341.799,-6.5001 341.799,-13.5001"/>
</g>
</g>
</svg>
