<?xml version="1.0" encoding="UTF-8" standalone="no"?>
<!DOCTYPE svg PUBLIC "-//W3C//DTD SVG 1.1//EN"
 "http://www.w3.org/Graphics/SVG/1.1/DTD/svg11.dtd">
<!-- Generated by graphviz version 2.36.0 (20140111.2315)
 -->
<!-- Title: gk_malloc Pages: 1 -->
<svg width="616pt" height="1446pt"
 viewBox="0.00 0.00 616.00 1446.00" xmlns="http://www.w3.org/2000/svg" xmlns:xlink="http://www.w3.org/1999/xlink">
<g id="graph0" class="graph" transform="scale(1 1) rotate(0) translate(4 1442)">
<title>gk_malloc</title>
<polygon fill="white" stroke="none" points="-4,4 -4,-1442 612,-1442 612,4 -4,4"/>
<!-- Node354 -->
<g id="node1" class="node"><title>Node354</title>
<polygon fill="#bfbfbf" stroke="black" points="0,-582.5 0,-601.5 62,-601.5 62,-582.5 0,-582.5"/>
<text text-anchor="middle" x="31" y="-589.5" font-family="Helvetica,sans-Serif" font-size="10.00">gk_malloc</text>
</g>
<!-- Node355 -->
<g id="node2" class="node"><title>Node355</title>
<g id="a_node2"><a xlink:href="$a00954.html#aa24ead3c2c8fb3e58110f1f79453ce29" xlink:title="Balance_Partition">
<polygon fill="white" stroke="black" points="128.5,-1304.5 128.5,-1323.5 223.5,-1323.5 223.5,-1304.5 128.5,-1304.5"/>
<text text-anchor="middle" x="176" y="-1311.5" font-family="Helvetica,sans-Serif" font-size="10.00">Balance_Partition</text>
</a>
</g>
</g>
<!-- Node354&#45;&gt;Node355 -->
<g id="edge1" class="edge"><title>Node354&#45;&gt;Node355</title>
<path fill="none" stroke="midnightblue" d="M32.5129,-611.821C35.5024,-720.571 52.1581,-1241.8 98,-1295 105.73,-1303.97 116.956,-1309.06 128.457,-1311.86"/>
<polygon fill="midnightblue" stroke="midnightblue" points="36.0063,-611.522 32.2398,-601.619 29.0088,-611.71 36.0063,-611.522"/>
</g>
<!-- Node356 -->
<g id="node3" class="node"><title>Node356</title>
<g id="a_node3"><a xlink:href="$a00954.html#a5a01a370c18ddee7517dbbf9e5827f89" xlink:title="Mc_Diffusion">
<polygon fill="white" stroke="black" points="139,-1266.5 139,-1285.5 213,-1285.5 213,-1266.5 139,-1266.5"/>
<text text-anchor="middle" x="176" y="-1273.5" font-family="Helvetica,sans-Serif" font-size="10.00">Mc_Diffusion</text>
</a>
</g>
</g>
<!-- Node354&#45;&gt;Node356 -->
<g id="edge2" class="edge"><title>Node354&#45;&gt;Node356</title>
<path fill="none" stroke="midnightblue" d="M32.6218,-611.726C36.1049,-716.708 54.6157,-1206.92 98,-1257 108.098,-1268.66 124.098,-1273.75 138.904,-1275.79"/>
<polygon fill="midnightblue" stroke="midnightblue" points="36.1154,-611.468 32.2929,-601.587 29.119,-611.695 36.1154,-611.468"/>
</g>
<!-- Node357 -->
<g id="node4" class="node"><title>Node357</title>
<g id="a_node4"><a xlink:href="$a00380.html#aec1a4bd83e832be7befbf6b03e9513ad" xlink:title="CreateMesh">
<polygon fill="white" stroke="black" points="140.5,-1228.5 140.5,-1247.5 211.5,-1247.5 211.5,-1228.5 140.5,-1228.5"/>
<text text-anchor="middle" x="176" y="-1235.5" font-family="Helvetica,sans-Serif" font-size="10.00">CreateMesh</text>
</a>
</g>
</g>
<!-- Node354&#45;&gt;Node357 -->
<g id="edge3" class="edge"><title>Node354&#45;&gt;Node357</title>
<path fill="none" stroke="midnightblue" d="M32.7392,-611.539C36.7302,-712.483 57.0576,-1172.02 98,-1219 108.404,-1230.94 124.999,-1235.98 140.123,-1237.92"/>
<polygon fill="midnightblue" stroke="midnightblue" points="36.2353,-611.367 32.3504,-601.51 29.2406,-611.639 36.2353,-611.367"/>
</g>
<!-- Node359 -->
<g id="node6" class="node"><title>Node359</title>
<g id="a_node6"><a xlink:href="$a00954.html#afedcf14063f4d8678a3746a1152dd71c" xlink:title="AllocateNodePartitionParams">
<polygon fill="white" stroke="black" points="102.5,-1190.5 102.5,-1209.5 249.5,-1209.5 249.5,-1190.5 102.5,-1190.5"/>
<text text-anchor="middle" x="176" y="-1197.5" font-family="Helvetica,sans-Serif" font-size="10.00">AllocateNodePartitionParams</text>
</a>
</g>
</g>
<!-- Node354&#45;&gt;Node359 -->
<g id="edge5" class="edge"><title>Node354&#45;&gt;Node359</title>
<path fill="none" stroke="midnightblue" d="M32.8945,-611.877C37.4717,-709.715 59.5653,-1137.2 98,-1181 101.36,-1184.83 105.357,-1187.95 109.738,-1190.48"/>
<polygon fill="midnightblue" stroke="midnightblue" points="36.3892,-611.679 32.4332,-601.85 29.3965,-612 36.3892,-611.679"/>
</g>
<!-- Node360 -->
<g id="node7" class="node"><title>Node360</title>
<g id="a_node7"><a xlink:href="$a00413.html#a82c7423dfb045f99c1ef26e9fd09976a" xlink:title="WavefrontDiffusion">
<polygon fill="white" stroke="black" points="125.5,-1152.5 125.5,-1171.5 226.5,-1171.5 226.5,-1152.5 125.5,-1152.5"/>
<text text-anchor="middle" x="176" y="-1159.5" font-family="Helvetica,sans-Serif" font-size="10.00">WavefrontDiffusion</text>
</a>
</g>
</g>
<!-- Node354&#45;&gt;Node360 -->
<g id="edge6" class="edge"><title>Node354&#45;&gt;Node360</title>
<path fill="none" stroke="midnightblue" d="M31.6269,-611.674C30.3586,-699.6 29.5775,-1055.85 98,-1138 104.99,-1146.39 114.868,-1151.9 125.227,-1155.5"/>
<polygon fill="midnightblue" stroke="midnightblue" points="35.1292,-611.558 31.7945,-601.502 28.1301,-611.443 35.1292,-611.558"/>
</g>
<!-- Node361 -->
<g id="node8" class="node"><title>Node361</title>
<g id="a_node8"><a xlink:href="$a00077.html#a82b885bbed5bd18c26629c35ce5d37e4" xlink:title="gk_csr_Create">
<polygon fill="white" stroke="black" points="135,-1076.5 135,-1095.5 217,-1095.5 217,-1076.5 135,-1076.5"/>
<text text-anchor="middle" x="176" y="-1083.5" font-family="Helvetica,sans-Serif" font-size="10.00">gk_csr_Create</text>
</a>
</g>
</g>
<!-- Node354&#45;&gt;Node361 -->
<g id="edge7" class="edge"><title>Node354&#45;&gt;Node361</title>
<path fill="none" stroke="midnightblue" d="M33.8872,-611.912C39.3614,-665.312 57.5002,-815.671 98,-934 117.446,-990.815 154.469,-1053.1 168.966,-1076.46"/>
<polygon fill="midnightblue" stroke="midnightblue" points="37.3518,-611.38 32.8829,-601.774 30.3859,-612.071 37.3518,-611.38"/>
</g>
<!-- Node366 -->
<g id="node13" class="node"><title>Node366</title>
<g id="a_node13"><a xlink:href="$a00077.html#ac438fca404c3f1ff6989aa68f83ed241" xlink:title="gk_csr_Split">
<polygon fill="white" stroke="black" points="323.5,-1380.5 323.5,-1399.5 394.5,-1399.5 394.5,-1380.5 323.5,-1380.5"/>
<text text-anchor="middle" x="359" y="-1387.5" font-family="Helvetica,sans-Serif" font-size="10.00">gk_csr_Split</text>
</a>
</g>
</g>
<!-- Node354&#45;&gt;Node366 -->
<g id="edge21" class="edge"><title>Node354&#45;&gt;Node366</title>
<path fill="none" stroke="midnightblue" d="M31.6761,-611.93C30.708,-697.213 31.3095,-1030.46 98,-1105 145.583,-1158.18 205.66,-1090.51 254,-1143 323.494,-1218.47 221.781,-1294.38 290,-1371 298.396,-1380.43 311.043,-1385.35 323.162,-1387.86"/>
<polygon fill="midnightblue" stroke="midnightblue" points="35.1776,-611.837 31.8133,-601.791 28.1783,-611.742 35.1776,-611.837"/>
</g>
<!-- Node376 -->
<g id="node21" class="node"><title>Node376</title>
<g id="a_node21"><a xlink:href="$a00849.html#a0d092a371d797437de53ae1a64bd78f4" xlink:title="gk_graph_Create">
<polygon fill="white" stroke="black" points="129,-848.5 129,-867.5 223,-867.5 223,-848.5 129,-848.5"/>
<text text-anchor="middle" x="176" y="-855.5" font-family="Helvetica,sans-Serif" font-size="10.00">gk_graph_Create</text>
</a>
</g>
</g>
<!-- Node354&#45;&gt;Node376 -->
<g id="edge22" class="edge"><title>Node354&#45;&gt;Node376</title>
<path fill="none" stroke="midnightblue" d="M31.4146,-612.009C31.201,-657.781 37.2355,-771.014 98,-834 106.264,-842.566 117.529,-848.089 128.891,-851.646"/>
<polygon fill="midnightblue" stroke="midnightblue" points="34.9158,-611.951 31.574,-601.897 27.9167,-611.841 34.9158,-611.951"/>
</g>
<!-- Node382 -->
<g id="node26" class="node"><title>Node382</title>
<g id="a_node26"><a xlink:href="$a00954.html#a01903fa912de9fc7f01dace993a3fc85" xlink:title="CreateGraph">
<polygon fill="white" stroke="black" points="139,-544.5 139,-563.5 213,-563.5 213,-544.5 139,-544.5"/>
<text text-anchor="middle" x="176" y="-551.5" font-family="Helvetica,sans-Serif" font-size="10.00">CreateGraph</text>
</a>
</g>
</g>
<!-- Node354&#45;&gt;Node382 -->
<g id="edge27" class="edge"><title>Node354&#45;&gt;Node382</title>
<path fill="none" stroke="midnightblue" d="M72.2492,-581.304C93.2832,-575.715 118.809,-568.932 139.157,-563.525"/>
<polygon fill="midnightblue" stroke="midnightblue" points="71.0923,-577.99 62.3266,-583.941 72.8901,-584.755 71.0923,-577.99"/>
</g>
<!-- Node385 -->
<g id="node29" class="node"><title>Node385</title>
<g id="a_node29"><a xlink:href="$a00098.html#a8dc2b324b10c45883dacbf58ac0b7efd" xlink:title="HTable_Create">
<polygon fill="white" stroke="black" points="134,-506.5 134,-525.5 218,-525.5 218,-506.5 134,-506.5"/>
<text text-anchor="middle" x="176" y="-513.5" font-family="Helvetica,sans-Serif" font-size="10.00">HTable_Create</text>
</a>
</g>
</g>
<!-- Node354&#45;&gt;Node385 -->
<g id="edge30" class="edge"><title>Node354&#45;&gt;Node385</title>
<path fill="none" stroke="midnightblue" d="M47.2729,-575.029C59.7227,-562.205 78.398,-545.134 98,-535 109.008,-529.309 121.793,-525.271 133.745,-522.428"/>
<polygon fill="midnightblue" stroke="midnightblue" points="44.6747,-572.683 40.3729,-582.365 49.7737,-577.479 44.6747,-572.683"/>
</g>
<!-- Node386 -->
<g id="node30" class="node"><title>Node386</title>
<g id="a_node30"><a xlink:href="$a00858.html#ad8263f64108434d7ebab9799b5ab9632" xlink:title="gk_getline">
<polygon fill="white" stroke="red" points="145,-905.5 145,-924.5 207,-924.5 207,-905.5 145,-905.5"/>
<text text-anchor="middle" x="176" y="-912.5" font-family="Helvetica,sans-Serif" font-size="10.00">gk_getline</text>
</a>
</g>
</g>
<!-- Node354&#45;&gt;Node386 -->
<g id="edge31" class="edge"><title>Node354&#45;&gt;Node386</title>
<path fill="none" stroke="midnightblue" d="M34.3681,-611.84C41.5773,-669.414 64.8071,-835.1 98,-877 109.664,-891.723 128.499,-901.159 144.621,-906.945"/>
<polygon fill="midnightblue" stroke="midnightblue" points="37.7983,-611.055 33.1082,-601.555 30.8503,-611.907 37.7983,-611.055"/>
</g>
<!-- Node387 -->
<g id="node31" class="node"><title>Node387</title>
<g id="a_node31"><a xlink:href="$a00858.html#ad13e689608e193482a6f30b1ade87814" xlink:title="gk_readfile">
<polygon fill="white" stroke="black" points="326.5,-772.5 326.5,-791.5 391.5,-791.5 391.5,-772.5 326.5,-772.5"/>
<text text-anchor="middle" x="359" y="-779.5" font-family="Helvetica,sans-Serif" font-size="10.00">gk_readfile</text>
</a>
</g>
</g>
<!-- Node354&#45;&gt;Node387 -->
<g id="edge35" class="edge"><title>Node354&#45;&gt;Node387</title>
<path fill="none" stroke="midnightblue" d="M31.9839,-611.818C33.1584,-651.935 42.1966,-742.31 98,-782 133.772,-807.443 265.271,-794.225 326.387,-786.405"/>
<polygon fill="midnightblue" stroke="midnightblue" points="35.4819,-611.656 31.8286,-601.711 28.4827,-611.764 35.4819,-611.656"/>
</g>
<!-- Node396 -->
<g id="node32" class="node"><title>Node396</title>
<g id="a_node32"><a xlink:href="$a00107.html#aba5df0f5155d88c0331fd6c996b483ed" xlink:title="gk_mcoreCreate">
<polygon fill="white" stroke="red" points="131,-468.5 131,-487.5 221,-487.5 221,-468.5 131,-468.5"/>
<text text-anchor="middle" x="176" y="-475.5" font-family="Helvetica,sans-Serif" font-size="10.00">gk_mcoreCreate</text>
</a>
</g>
</g>
<!-- Node354&#45;&gt;Node396 -->
<g id="edge36" class="edge"><title>Node354&#45;&gt;Node396</title>
<path fill="none" stroke="midnightblue" d="M39.9628,-573.287C50.1861,-551.564 70.0078,-516.264 98,-497 107.641,-490.365 119.369,-486.041 130.735,-483.226"/>
<polygon fill="midnightblue" stroke="midnightblue" points="36.7433,-571.912 35.8335,-582.468 43.1273,-574.784 36.7433,-571.912"/>
</g>
<!-- Node399 -->
<g id="node33" class="node"><title>Node399</title>
<g id="a_node33"><a xlink:href="$a00107.html#ab7a380f0696a0d5421653fad336bcae0" xlink:title="gk_mcoreMalloc">
<polygon fill="white" stroke="red" points="131.5,-430.5 131.5,-449.5 220.5,-449.5 220.5,-430.5 131.5,-430.5"/>
<text text-anchor="middle" x="176" y="-437.5" font-family="Helvetica,sans-Serif" font-size="10.00">gk_mcoreMalloc</text>
</a>
</g>
</g>
<!-- Node354&#45;&gt;Node399 -->
<g id="edge37" class="edge"><title>Node354&#45;&gt;Node399</title>
<path fill="none" stroke="midnightblue" d="M36.2094,-572.336C43.5285,-543.059 61.4491,-488.319 98,-459 107.452,-451.418 119.504,-446.804 131.252,-444.013"/>
<polygon fill="midnightblue" stroke="midnightblue" points="32.7708,-571.671 33.9067,-582.204 39.5877,-573.261 32.7708,-571.671"/>
</g>
<!-- Node405 -->
<g id="node34" class="node"><title>Node405</title>
<g id="a_node34"><a xlink:href="$a00110.html#af59ba46496f920cc424b8088f4cd7818" xlink:title="gk_AllocMatrix">
<polygon fill="white" stroke="black" points="135,-392.5 135,-411.5 217,-411.5 217,-392.5 135,-392.5"/>
<text text-anchor="middle" x="176" y="-399.5" font-family="Helvetica,sans-Serif" font-size="10.00">gk_AllocMatrix</text>
</a>
</g>
</g>
<!-- Node354&#45;&gt;Node405 -->
<g id="edge38" class="edge"><title>Node354&#45;&gt;Node405</title>
<path fill="none" stroke="midnightblue" d="M33.8247,-571.956C38.1918,-536.113 52.5374,-461.05 98,-421 108.125,-412.08 121.782,-407.205 134.783,-404.586"/>
<polygon fill="midnightblue" stroke="midnightblue" points="30.321,-571.803 32.7307,-582.121 37.2808,-572.553 30.321,-571.803"/>
</g>
<!-- Node406 -->
<g id="node35" class="node"><title>Node406</title>
<g id="a_node35"><a xlink:href="$a00125.html#a297ec0561d579a1772f424fce8886d96" xlink:title="Reads a pdb file into a pdbf structure. ">
<polygon fill="white" stroke="black" points="318,-734.5 318,-753.5 400,-753.5 400,-734.5 318,-734.5"/>
<text text-anchor="middle" x="359" y="-741.5" font-family="Helvetica,sans-Serif" font-size="10.00">gk_readpdbfile</text>
</a>
</g>
</g>
<!-- Node354&#45;&gt;Node406 -->
<g id="edge39" class="edge"><title>Node354&#45;&gt;Node406</title>
<path fill="none" stroke="midnightblue" d="M32.8208,-611.641C35.5558,-648.683 47.345,-728.254 98,-763 132.664,-786.777 253.908,-766.046 317.84,-752.878"/>
<polygon fill="midnightblue" stroke="midnightblue" points="36.3119,-611.384 32.2297,-601.608 29.324,-611.796 36.3119,-611.384"/>
</g>
<!-- Node407 -->
<g id="node36" class="node"><title>Node407</title>
<g id="a_node36"><a xlink:href="$a00867.html#a0e7ce196a2f8882777957bf898739f6f" xlink:title="parse_cmdline">
<polygon fill="white" stroke="red" points="135,-354.5 135,-373.5 217,-373.5 217,-354.5 135,-354.5"/>
<text text-anchor="middle" x="176" y="-361.5" font-family="Helvetica,sans-Serif" font-size="10.00">parse_cmdline</text>
</a>
</g>
</g>
<!-- Node354&#45;&gt;Node407 -->
<g id="edge40" class="edge"><title>Node354&#45;&gt;Node407</title>
<path fill="none" stroke="midnightblue" d="M32.1791,-572.261C33.6731,-530.831 43.2059,-434.397 98,-383 107.942,-373.674 121.71,-368.72 134.858,-366.151"/>
<polygon fill="midnightblue" stroke="midnightblue" points="28.6767,-572.326 31.9399,-582.405 35.6747,-572.491 28.6767,-572.326"/>
</g>
<!-- Node408 -->
<g id="node37" class="node"><title>Node408</title>
<g id="a_node37"><a xlink:href="$a00137.html#a8b9f1e33d58df397a7f0f923a25ec256" xlink:title="This function creates the localizations for the various sequences. ">
<polygon fill="white" stroke="black" points="291.5,-620.5 291.5,-639.5 426.5,-639.5 426.5,-620.5 291.5,-620.5"/>
<text text-anchor="middle" x="359" y="-627.5" font-family="Helvetica,sans-Serif" font-size="10.00">gk_i2cc2i_create_common</text>
</a>
</g>
</g>
<!-- Node354&#45;&gt;Node408 -->
<g id="edge41" class="edge"><title>Node354&#45;&gt;Node408</title>
<path fill="none" stroke="midnightblue" d="M71.8908,-601.246C80.4696,-603.014 89.5098,-604.712 98,-606 163.434,-615.925 238.799,-622.336 291.485,-626.012"/>
<polygon fill="midnightblue" stroke="midnightblue" points="72.6022,-597.819 62.0924,-599.158 71.1437,-604.665 72.6022,-597.819"/>
</g>
<!-- Node409 -->
<g id="node38" class="node"><title>Node409</title>
<g id="a_node38"><a xlink:href="$a00137.html#ad44124c9b40b8ffda2276f877526a261" xlink:title="This function reads a pssm in the format of gkmod pssm. ">
<polygon fill="white" stroke="black" points="464,-620.5 464,-639.5 608,-639.5 608,-620.5 464,-620.5"/>
<text text-anchor="middle" x="536" y="-627.5" font-family="Helvetica,sans-Serif" font-size="10.00">gk_seq_ReadGKMODPSSM</text>
</a>
</g>
</g>
<!-- Node354&#45;&gt;Node409 -->
<g id="edge43" class="edge"><title>Node354&#45;&gt;Node409</title>
<path fill="none" stroke="midnightblue" d="M72.5596,-592.239C144.415,-593.043 298.695,-596.478 428,-611 448.062,-613.253 470.046,-616.942 488.84,-620.473"/>
<polygon fill="midnightblue" stroke="midnightblue" points="72.1942,-588.735 62.1597,-592.135 72.1241,-595.735 72.1942,-588.735"/>
</g>
<!-- Node410 -->
<g id="node39" class="node"><title>Node410</title>
<g id="a_node39"><a xlink:href="$a00143.html#af62038e97ca55f14ec2557a01bd85ca2" xlink:title="Duplicates a string. ">
<polygon fill="white" stroke="red" points="146,-734.5 146,-753.5 206,-753.5 206,-734.5 146,-734.5"/>
<text text-anchor="middle" x="176" y="-741.5" font-family="Helvetica,sans-Serif" font-size="10.00">gk_strdup</text>
</a>
</g>
</g>
<!-- Node354&#45;&gt;Node410 -->
<g id="edge44" class="edge"><title>Node354&#45;&gt;Node410</title>
<path fill="none" stroke="midnightblue" d="M36.8713,-611.45C44.8867,-639.483 63.5155,-691.046 98,-720 111.405,-731.255 130.077,-737.241 145.677,-740.42"/>
<polygon fill="midnightblue" stroke="midnightblue" points="40.2089,-610.384 34.2281,-601.639 33.4499,-612.205 40.2089,-610.384"/>
</g>
<!-- Node418 -->
<g id="node40" class="node"><title>Node418</title>
<g id="a_node40"><a xlink:href="$a00146.html#a0ddf1224851353fc92bfbff6f499fa97" xlink:title="main">
<polygon fill="white" stroke="black" points="340,-696.5 340,-715.5 378,-715.5 378,-696.5 340,-696.5"/>
<text text-anchor="middle" x="359" y="-703.5" font-family="Helvetica,sans-Serif" font-size="10.00">main</text>
</a>
</g>
</g>
<!-- Node354&#45;&gt;Node418 -->
<g id="edge50" class="edge"><title>Node354&#45;&gt;Node418</title>
<path fill="none" stroke="midnightblue" d="M45.07,-609.814C57.0983,-624.839 76.3202,-645.658 98,-657 180.621,-700.226 295.698,-705.709 339.806,-706.127"/>
<polygon fill="midnightblue" stroke="midnightblue" points="47.7325,-607.535 38.855,-601.752 42.1887,-611.809 47.7325,-607.535"/>
</g>
<!-- Node422 -->
<g id="node41" class="node"><title>Node422</title>
<g id="a_node41"><a xlink:href="$a00161.html#a551670b0d23e97d4655a827762c6bacd" xlink:title="gk_strtokenize">
<polygon fill="white" stroke="black" points="318.5,-658.5 318.5,-677.5 399.5,-677.5 399.5,-658.5 318.5,-658.5"/>
<text text-anchor="middle" x="359" y="-665.5" font-family="Helvetica,sans-Serif" font-size="10.00">gk_strtokenize</text>
</a>
</g>
</g>
<!-- Node354&#45;&gt;Node422 -->
<g id="edge51" class="edge"><title>Node354&#45;&gt;Node422</title>
<path fill="none" stroke="midnightblue" d="M54.7025,-606.942C67.0337,-614.386 82.8263,-622.87 98,-628 173.28,-653.449 266.34,-662.782 318.233,-666.15"/>
<polygon fill="midnightblue" stroke="midnightblue" points="56.3524,-603.846 46.0149,-601.525 52.6487,-609.786 56.3524,-603.846"/>
</g>
<!-- Node423 -->
<g id="node42" class="node"><title>Node423</title>
<g id="a_node42"><a xlink:href="$a00948.html#a681b2f4a615da39347c928c127760d07" xlink:title="FixGraph">
<polygon fill="white" stroke="black" points="147,-316.5 147,-335.5 205,-335.5 205,-316.5 147,-316.5"/>
<text text-anchor="middle" x="176" y="-323.5" font-family="Helvetica,sans-Serif" font-size="10.00">FixGraph</text>
</a>
</g>
</g>
<!-- Node354&#45;&gt;Node423 -->
<g id="edge52" class="edge"><title>Node354&#45;&gt;Node423</title>
<path fill="none" stroke="midnightblue" d="M34.6416,-572.43C42.1263,-519.846 65.0857,-377.289 98,-345 110.778,-332.465 130.434,-327.761 146.689,-326.168"/>
<polygon fill="midnightblue" stroke="midnightblue" points="31.1559,-572.086 33.2462,-582.473 38.0892,-573.05 31.1559,-572.086"/>
</g>
<!-- Node424 -->
<g id="node43" class="node"><title>Node424</title>
<g id="a_node43"><a xlink:href="$a00948.html#a5882ab0f565a5e97581ad5c4847effbc" xlink:title="GrowBisectionNode">
<polygon fill="white" stroke="red" points="123.5,-278.5 123.5,-297.5 228.5,-297.5 228.5,-278.5 123.5,-278.5"/>
<text text-anchor="middle" x="176" y="-285.5" font-family="Helvetica,sans-Serif" font-size="10.00">GrowBisectionNode</text>
</a>
</g>
</g>
<!-- Node354&#45;&gt;Node424 -->
<g id="edge53" class="edge"><title>Node354&#45;&gt;Node424</title>
<path fill="none" stroke="midnightblue" d="M33.9196,-572.163C39.9518,-513.926 60.3958,-345.148 98,-307 104.863,-300.038 113.842,-295.476 123.235,-292.519"/>
<polygon fill="midnightblue" stroke="midnightblue" points="30.4219,-571.965 32.9045,-582.265 37.3869,-572.665 30.4219,-571.965"/>
</g>
<!-- Node426 -->
<g id="node44" class="node"><title>Node426</title>
<g id="a_node44"><a xlink:href="$a00948.html#a3668b93d256689991e65a85536f533c5" xlink:title="GrowBisectionNode2">
<polygon fill="white" stroke="black" points="121,-240.5 121,-259.5 231,-259.5 231,-240.5 121,-240.5"/>
<text text-anchor="middle" x="176" y="-247.5" font-family="Helvetica,sans-Serif" font-size="10.00">GrowBisectionNode2</text>
</a>
</g>
</g>
<!-- Node354&#45;&gt;Node426 -->
<g id="edge54" class="edge"><title>Node354&#45;&gt;Node426</title>
<path fill="none" stroke="midnightblue" d="M33.3407,-572.07C38.0097,-508.652 55.638,-313.107 98,-269 104.2,-262.545 112.215,-258.143 120.724,-255.168"/>
<polygon fill="midnightblue" stroke="midnightblue" points="29.8309,-572.086 32.6166,-582.308 36.8135,-572.58 29.8309,-572.086"/>
</g>
<!-- Node427 -->
<g id="node45" class="node"><title>Node427</title>
<g id="a_node45"><a xlink:href="$a00948.html#a22a23a687ef7ed0d4f66ab58e3a81d12" xlink:title="AllocateKWayPartitionMemory">
<polygon fill="white" stroke="red" points="100,-202.5 100,-221.5 252,-221.5 252,-202.5 100,-202.5"/>
<text text-anchor="middle" x="176" y="-209.5" font-family="Helvetica,sans-Serif" font-size="10.00">AllocateKWayPartitionMemory</text>
</a>
</g>
</g>
<!-- Node354&#45;&gt;Node427 -->
<g id="edge55" class="edge"><title>Node354&#45;&gt;Node427</title>
<path fill="none" stroke="midnightblue" d="M32.8771,-571.988C36.2797,-503.671 50.8522,-281.12 98,-231 101.585,-227.189 105.802,-224.091 110.385,-221.578"/>
<polygon fill="midnightblue" stroke="midnightblue" points="29.369,-572.08 32.3946,-582.233 36.3613,-572.409 29.369,-572.08"/>
</g>
<!-- Node430 -->
<g id="node46" class="node"><title>Node430</title>
<g id="a_node46"><a xlink:href="$a00954.html#ad1ea0dae24c2f47fd0813124bff0b66e" xlink:title="ComputePartitionParams">
<polygon fill="white" stroke="black" points="112,-164.5 112,-183.5 240,-183.5 240,-164.5 112,-164.5"/>
<text text-anchor="middle" x="176" y="-171.5" font-family="Helvetica,sans-Serif" font-size="10.00">ComputePartitionParams</text>
</a>
</g>
</g>
<!-- Node354&#45;&gt;Node430 -->
<g id="edge56" class="edge"><title>Node354&#45;&gt;Node430</title>
<path fill="none" stroke="midnightblue" d="M32.4863,-572.27C34.6793,-499.753 45.9588,-249.267 98,-193 101.927,-188.754 106.637,-185.391 111.769,-182.733"/>
<polygon fill="midnightblue" stroke="midnightblue" points="28.9862,-572.23 32.2075,-582.323 35.9835,-572.424 28.9862,-572.23"/>
</g>
<!-- Node431 -->
<g id="node47" class="node"><title>Node431</title>
<g id="a_node47"><a xlink:href="$a00948.html#a52a083cfb474124f22728e79cfba695f" xlink:title="SplitGraphOrderCC">
<polygon fill="white" stroke="red" points="124,-126.5 124,-145.5 228,-145.5 228,-126.5 124,-126.5"/>
<text text-anchor="middle" x="176" y="-133.5" font-family="Helvetica,sans-Serif" font-size="10.00">SplitGraphOrderCC</text>
</a>
</g>
</g>
<!-- Node354&#45;&gt;Node431 -->
<g id="edge57" class="edge"><title>Node354&#45;&gt;Node431</title>
<path fill="none" stroke="midnightblue" d="M32.1786,-571.911C33.282,-494.57 41.1997,-217.283 98,-155 104.866,-147.471 114.196,-142.708 123.993,-139.74"/>
<polygon fill="midnightblue" stroke="midnightblue" points="28.6757,-572.144 32.0568,-582.185 35.6752,-572.227 28.6757,-572.144"/>
</g>
<!-- Node435 -->
<g id="node48" class="node"><title>Node435</title>
<g id="a_node48"><a xlink:href="$a00948.html#a1420c4ffbe28e4c3349678037adcb918" xlink:title="SetupCtrl">
<polygon fill="white" stroke="black" points="147,-88.5 147,-107.5 205,-107.5 205,-88.5 147,-88.5"/>
<text text-anchor="middle" x="176" y="-95.5" font-family="Helvetica,sans-Serif" font-size="10.00">SetupCtrl</text>
</a>
</g>
</g>
<!-- Node354&#45;&gt;Node435 -->
<g id="edge58" class="edge"><title>Node354&#45;&gt;Node435</title>
<path fill="none" stroke="midnightblue" d="M31.9099,-571.763C31.9674,-490.028 36.376,-185.381 98,-117 110.167,-103.499 130.259,-98.8689 146.868,-97.5517"/>
<polygon fill="midnightblue" stroke="midnightblue" points="28.4104,-572.156 31.9267,-582.15 35.4104,-572.144 28.4104,-572.156"/>
</g>
<!-- Node436 -->
<g id="node49" class="node"><title>Node436</title>
<g id="a_node49"><a xlink:href="$a00278.html#a843a5692564dc695b281647dc690c887" xlink:title="Allocate2WayNodePartition\lMemory">
<polygon fill="white" stroke="red" points="107,-39 107,-69 245,-69 245,-39 107,-39"/>
<text text-anchor="start" x="115" y="-57" font-family="Helvetica,sans-Serif" font-size="10.00">Allocate2WayNodePartition</text>
<text text-anchor="middle" x="176" y="-46" font-family="Helvetica,sans-Serif" font-size="10.00">Memory</text>
</a>
</g>
</g>
<!-- Node354&#45;&gt;Node436 -->
<g id="edge59" class="edge"><title>Node354&#45;&gt;Node436</title>
<path fill="none" stroke="midnightblue" d="M31.8198,-572.194C31.4459,-487.423 34.1509,-155.983 98,-79 101.23,-75.1054 105.074,-71.8118 109.296,-69.0271"/>
<polygon fill="midnightblue" stroke="midnightblue" points="28.3203,-572.294 31.8853,-582.271 35.3202,-572.249 28.3203,-572.294"/>
</g>
<!-- Node439 -->
<g id="node50" class="node"><title>Node439</title>
<g id="a_node50"><a xlink:href="$a00954.html#a2b337cc68be55b7e8b6d2218fcea855d" xlink:title="AllocateRefinementWorkSpace">
<polygon fill="white" stroke="black" points="98.5,-0.5 98.5,-19.5 253.5,-19.5 253.5,-0.5 98.5,-0.5"/>
<text text-anchor="middle" x="176" y="-7.5" font-family="Helvetica,sans-Serif" font-size="10.00">AllocateRefinementWorkSpace</text>
</a>
</g>
</g>
<!-- Node354&#45;&gt;Node439 -->
<g id="edge60" class="edge"><title>Node354&#45;&gt;Node439</title>
<path fill="none" stroke="midnightblue" d="M33.0032,-572.109C37.9791,-476.905 61.2492,-70.6672 98,-29 101.37,-25.1793 105.374,-22.0661 109.759,-19.5357"/>
<polygon fill="midnightblue" stroke="midnightblue" points="29.5061,-571.965 32.4874,-582.131 36.4968,-572.325 29.5061,-571.965"/>
</g>
<!-- Node358 -->
<g id="node5" class="node"><title>Node358</title>
<g id="a_node5"><a xlink:href="$a00954.html#a9f9b575b1270719a1d7ae34f89ed2dc5" xlink:title="SetUpMesh">
<polygon fill="white" stroke="black" points="324.5,-1418.5 324.5,-1437.5 393.5,-1437.5 393.5,-1418.5 324.5,-1418.5"/>
<text text-anchor="middle" x="359" y="-1425.5" font-family="Helvetica,sans-Serif" font-size="10.00">SetUpMesh</text>
</a>
</g>
</g>
<!-- Node357&#45;&gt;Node358 -->
<g id="edge4" class="edge"><title>Node357&#45;&gt;Node358</title>
<path fill="none" stroke="midnightblue" d="M221.516,-1240.59C233.424,-1243.34 245.369,-1248.29 254,-1257 302.86,-1306.32 241.899,-1358.94 290,-1409 298.918,-1418.28 311.959,-1423.14 324.242,-1425.65"/>
<polygon fill="midnightblue" stroke="midnightblue" points="222.063,-1237.13 211.594,-1238.76 220.795,-1244.01 222.063,-1237.13"/>
</g>
<!-- Node362 -->
<g id="node9" class="node"><title>Node362</title>
<g id="a_node9"><a xlink:href="$a00077.html#a24144cf4c30d5ec4ed8b488d371476b3" xlink:title="gk_csr_Dup">
<polygon fill="white" stroke="black" points="324,-1152.5 324,-1171.5 394,-1171.5 394,-1152.5 324,-1152.5"/>
<text text-anchor="middle" x="359" y="-1159.5" font-family="Helvetica,sans-Serif" font-size="10.00">gk_csr_Dup</text>
</a>
</g>
</g>
<!-- Node361&#45;&gt;Node362 -->
<g id="edge8" class="edge"><title>Node361&#45;&gt;Node362</title>
<path fill="none" stroke="midnightblue" d="M226.819,-1097.99C236.165,-1101.22 245.622,-1105.18 254,-1110 272.814,-1120.82 271.027,-1132.46 290,-1143 300.393,-1148.78 312.673,-1152.9 323.918,-1155.8"/>
<polygon fill="midnightblue" stroke="midnightblue" points="227.76,-1094.62 217.169,-1094.9 225.624,-1101.29 227.76,-1094.62"/>
</g>
<!-- Node363 -->
<g id="node10" class="node"><title>Node363</title>
<g id="a_node10"><a xlink:href="$a00077.html#a0b106b838c4dc370c32a47aaaf990375" xlink:title="gk_csr_ExtractSubmatrix">
<polygon fill="white" stroke="black" points="295,-1114.5 295,-1133.5 423,-1133.5 423,-1114.5 295,-1114.5"/>
<text text-anchor="middle" x="359" y="-1121.5" font-family="Helvetica,sans-Serif" font-size="10.00">gk_csr_ExtractSubmatrix</text>
</a>
</g>
</g>
<!-- Node361&#45;&gt;Node363 -->
<g id="edge9" class="edge"><title>Node361&#45;&gt;Node363</title>
<path fill="none" stroke="midnightblue" d="M227.104,-1096.52C253.85,-1102.13 286.517,-1108.99 312.527,-1114.45"/>
<polygon fill="midnightblue" stroke="midnightblue" points="227.676,-1093.06 217.17,-1094.43 226.237,-1099.91 227.676,-1093.06"/>
</g>
<!-- Node364 -->
<g id="node11" class="node"><title>Node364</title>
<g id="a_node11"><a xlink:href="$a00077.html#aaa2391cce5eb8291e65f6dc4d8e252fd" xlink:title="gk_csr_ExtractRows">
<polygon fill="white" stroke="black" points="305,-1076.5 305,-1095.5 413,-1095.5 413,-1076.5 305,-1076.5"/>
<text text-anchor="middle" x="359" y="-1083.5" font-family="Helvetica,sans-Serif" font-size="10.00">gk_csr_ExtractRows</text>
</a>
</g>
</g>
<!-- Node361&#45;&gt;Node364 -->
<g id="edge10" class="edge"><title>Node361&#45;&gt;Node364</title>
<path fill="none" stroke="midnightblue" d="M227.205,-1086C251.37,-1086 280.352,-1086 304.887,-1086"/>
<polygon fill="midnightblue" stroke="midnightblue" points="227.17,-1082.5 217.17,-1086 227.17,-1089.5 227.17,-1082.5"/>
</g>
<!-- Node365 -->
<g id="node12" class="node"><title>Node365</title>
<g id="a_node12"><a xlink:href="$a00077.html#ac59047c4a89fa4680d746fcdce4aa1a7" xlink:title="gk_csr_ExtractPartition">
<polygon fill="white" stroke="black" points="299.5,-1038.5 299.5,-1057.5 418.5,-1057.5 418.5,-1038.5 299.5,-1038.5"/>
<text text-anchor="middle" x="359" y="-1045.5" font-family="Helvetica,sans-Serif" font-size="10.00">gk_csr_ExtractPartition</text>
</a>
</g>
</g>
<!-- Node361&#45;&gt;Node365 -->
<g id="edge11" class="edge"><title>Node361&#45;&gt;Node365</title>
<path fill="none" stroke="midnightblue" d="M227.104,-1075.48C253.85,-1069.87 286.517,-1063.01 312.527,-1057.55"/>
<polygon fill="midnightblue" stroke="midnightblue" points="226.237,-1072.09 217.17,-1077.57 227.676,-1078.94 226.237,-1072.09"/>
</g>
<!-- Node361&#45;&gt;Node366 -->
<g id="edge12" class="edge"><title>Node361&#45;&gt;Node366</title>
<path fill="none" stroke="midnightblue" d="M226.952,-1092.68C237.212,-1096.28 247.004,-1101.74 254,-1110 329.692,-1199.35 212.99,-1282.79 290,-1371 298.384,-1380.6 311.178,-1385.54 323.416,-1388.02"/>
<polygon fill="midnightblue" stroke="midnightblue" points="227.627,-1089.24 217.046,-1089.78 225.655,-1095.95 227.627,-1089.24"/>
</g>
<!-- Node367 -->
<g id="node14" class="node"><title>Node367</title>
<g id="a_node14"><a xlink:href="$a00077.html#a8ebc19fe9a291bdf67677ebdaae56592" xlink:title="gk_csr_Read">
<polygon fill="white" stroke="red" points="321.5,-962.5 321.5,-981.5 396.5,-981.5 396.5,-962.5 321.5,-962.5"/>
<text text-anchor="middle" x="359" y="-969.5" font-family="Helvetica,sans-Serif" font-size="10.00">gk_csr_Read</text>
</a>
</g>
</g>
<!-- Node361&#45;&gt;Node367 -->
<g id="edge13" class="edge"><title>Node361&#45;&gt;Node367</title>
<path fill="none" stroke="midnightblue" d="M192.599,-1069.01C213.009,-1047.77 250.81,-1011.69 290,-991 299.647,-985.907 310.806,-982.058 321.258,-979.205"/>
<polygon fill="midnightblue" stroke="midnightblue" points="189.98,-1066.69 185.662,-1076.36 195.071,-1071.49 189.98,-1066.69"/>
</g>
<!-- Node369 -->
<g id="node15" class="node"><title>Node369</title>
<g id="a_node15"><a xlink:href="$a00077.html#a06edc174c5986841b589900ffce6600f" xlink:title="gk_csr_Prune">
<polygon fill="white" stroke="black" points="320,-1000.5 320,-1019.5 398,-1019.5 398,-1000.5 320,-1000.5"/>
<text text-anchor="middle" x="359" y="-1007.5" font-family="Helvetica,sans-Serif" font-size="10.00">gk_csr_Prune</text>
</a>
</g>
</g>
<!-- Node361&#45;&gt;Node369 -->
<g id="edge14" class="edge"><title>Node361&#45;&gt;Node369</title>
<path fill="none" stroke="midnightblue" d="M202.267,-1071.46C224.75,-1058.96 258.808,-1041.09 290,-1029 299.486,-1025.32 309.969,-1022.03 319.805,-1019.27"/>
<polygon fill="midnightblue" stroke="midnightblue" points="200.383,-1068.5 193.382,-1076.46 203.814,-1074.61 200.383,-1068.5"/>
</g>
<!-- Node370 -->
<g id="node16" class="node"><title>Node370</title>
<g id="a_node16"><a xlink:href="$a00077.html#a66729af11e7dee3585d6191661757c37" xlink:title="gk_csr_LowFilter">
<polygon fill="white" stroke="black" points="313,-1342.5 313,-1361.5 405,-1361.5 405,-1342.5 313,-1342.5"/>
<text text-anchor="middle" x="359" y="-1349.5" font-family="Helvetica,sans-Serif" font-size="10.00">gk_csr_LowFilter</text>
</a>
</g>
</g>
<!-- Node361&#45;&gt;Node370 -->
<g id="edge15" class="edge"><title>Node361&#45;&gt;Node370</title>
<path fill="none" stroke="midnightblue" d="M227.116,-1092.91C237.273,-1096.5 246.979,-1101.9 254,-1110 319.771,-1185.85 223.11,-1258.13 290,-1333 296.044,-1339.76 304.275,-1344.21 312.925,-1347.1"/>
<polygon fill="midnightblue" stroke="midnightblue" points="227.894,-1089.49 217.311,-1089.99 225.896,-1096.2 227.894,-1089.49"/>
</g>
<!-- Node371 -->
<g id="node17" class="node"><title>Node371</title>
<g id="a_node17"><a xlink:href="$a00077.html#ad6f2c5699b47e1bc2285a1b391d7c7da" xlink:title="gk_csr_TopKPlusFilter">
<polygon fill="white" stroke="black" points="300.5,-1304.5 300.5,-1323.5 417.5,-1323.5 417.5,-1304.5 300.5,-1304.5"/>
<text text-anchor="middle" x="359" y="-1311.5" font-family="Helvetica,sans-Serif" font-size="10.00">gk_csr_TopKPlusFilter</text>
</a>
</g>
</g>
<!-- Node361&#45;&gt;Node371 -->
<g id="edge16" class="edge"><title>Node361&#45;&gt;Node371</title>
<path fill="none" stroke="midnightblue" d="M226.925,-1093.08C237.092,-1096.66 246.85,-1102.02 254,-1110 309.886,-1172.4 233.194,-1233.44 290,-1295 293.574,-1298.87 297.867,-1301.98 302.535,-1304.47"/>
<polygon fill="midnightblue" stroke="midnightblue" points="227.707,-1089.66 217.124,-1090.15 225.707,-1096.37 227.707,-1089.66"/>
</g>
<!-- Node372 -->
<g id="node18" class="node"><title>Node372</title>
<g id="a_node18"><a xlink:href="$a00077.html#a193f32ef7dd91c2c633157bafea26080" xlink:title="gk_csr_ZScoreFilter">
<polygon fill="white" stroke="black" points="306,-1266.5 306,-1285.5 412,-1285.5 412,-1266.5 306,-1266.5"/>
<text text-anchor="middle" x="359" y="-1273.5" font-family="Helvetica,sans-Serif" font-size="10.00">gk_csr_ZScoreFilter</text>
</a>
</g>
</g>
<!-- Node361&#45;&gt;Node372 -->
<g id="edge17" class="edge"><title>Node361&#45;&gt;Node372</title>
<path fill="none" stroke="midnightblue" d="M226.948,-1093.44C237.021,-1097.01 246.733,-1102.27 254,-1110 300.066,-1159.01 243.211,-1208.68 290,-1257 294.434,-1261.58 299.872,-1265.08 305.724,-1267.76"/>
<polygon fill="midnightblue" stroke="midnightblue" points="227.833,-1090.05 217.248,-1090.51 225.808,-1096.75 227.833,-1090.05"/>
</g>
<!-- Node373 -->
<g id="node19" class="node"><title>Node373</title>
<g id="a_node19"><a xlink:href="$a00104.html#abc9e8f6a3efe2f0f3ec79b5d8883b246" xlink:title="gk_find_frequent_itemsets">
<polygon fill="white" stroke="black" points="469,-1209.5 469,-1228.5 603,-1228.5 603,-1209.5 469,-1209.5"/>
<text text-anchor="middle" x="536" y="-1216.5" font-family="Helvetica,sans-Serif" font-size="10.00">gk_find_frequent_itemsets</text>
</a>
</g>
</g>
<!-- Node361&#45;&gt;Node373 -->
<g id="edge18" class="edge"><title>Node361&#45;&gt;Node373</title>
<path fill="none" stroke="midnightblue" d="M226.921,-1095.18C236.645,-1098.65 246.221,-1103.42 254,-1110 281.018,-1132.84 261.364,-1160.22 290,-1181 317.827,-1201.19 406.329,-1210.98 468.945,-1215.49"/>
<polygon fill="midnightblue" stroke="midnightblue" points="227.799,-1091.78 217.209,-1092.13 225.701,-1098.46 227.799,-1091.78"/>
</g>
<!-- Node374 -->
<g id="node20" class="node"><title>Node374</title>
<g id="a_node20"><a xlink:href="$a00104.html#ab348ad8f89d70692400d7602e3a824bf" xlink:title="itemsets_project_matrix">
<polygon fill="white" stroke="red" points="298,-1228.5 298,-1247.5 420,-1247.5 420,-1228.5 298,-1228.5"/>
<text text-anchor="middle" x="359" y="-1235.5" font-family="Helvetica,sans-Serif" font-size="10.00">itemsets_project_matrix</text>
</a>
</g>
</g>
<!-- Node361&#45;&gt;Node374 -->
<g id="edge19" class="edge"><title>Node361&#45;&gt;Node374</title>
<path fill="none" stroke="midnightblue" d="M226.728,-1094.06C236.722,-1097.6 246.457,-1102.69 254,-1110 289.12,-1144.04 255.518,-1179.31 290,-1214 296.266,-1220.3 304.287,-1224.96 312.608,-1228.39"/>
<polygon fill="midnightblue" stroke="midnightblue" points="227.716,-1090.7 217.129,-1091.12 225.666,-1097.4 227.716,-1090.7"/>
</g>
<!-- Node374&#45;&gt;Node373 -->
<g id="edge20" class="edge"><title>Node374&#45;&gt;Node373</title>
<path fill="none" stroke="midnightblue" d="M430.325,-1230.36C443.082,-1228.98 456.346,-1227.54 468.974,-1226.17"/>
<polygon fill="midnightblue" stroke="midnightblue" points="429.789,-1226.9 420.225,-1231.46 430.544,-1233.86 429.789,-1226.9"/>
</g>
<!-- Node377 -->
<g id="node22" class="node"><title>Node377</title>
<g id="a_node22"><a xlink:href="$a00849.html#a432baae7f5c91c3604b42efb324b4131" xlink:title="gk_graph_Read">
<polygon fill="white" stroke="red" points="315,-924.5 315,-943.5 403,-943.5 403,-924.5 315,-924.5"/>
<text text-anchor="middle" x="359" y="-931.5" font-family="Helvetica,sans-Serif" font-size="10.00">gk_graph_Read</text>
</a>
</g>
</g>
<!-- Node376&#45;&gt;Node377 -->
<g id="edge23" class="edge"><title>Node376&#45;&gt;Node377</title>
<path fill="none" stroke="midnightblue" d="M205.7,-871.934C220.223,-879.043 238.099,-887.882 254,-896 270.113,-904.226 273.192,-908.306 290,-915 298.996,-918.583 308.916,-921.764 318.332,-924.45"/>
<polygon fill="midnightblue" stroke="midnightblue" points="207.217,-868.78 196.695,-867.537 204.146,-875.07 207.217,-868.78"/>
</g>
<!-- Node379 -->
<g id="node23" class="node"><title>Node379</title>
<g id="a_node23"><a xlink:href="$a00849.html#a24db906b45a9848fc26c49cb967d68c8" xlink:title="gk_graph_Dup">
<polygon fill="white" stroke="black" points="318,-848.5 318,-867.5 400,-867.5 400,-848.5 318,-848.5"/>
<text text-anchor="middle" x="359" y="-855.5" font-family="Helvetica,sans-Serif" font-size="10.00">gk_graph_Dup</text>
</a>
</g>
</g>
<!-- Node376&#45;&gt;Node379 -->
<g id="edge24" class="edge"><title>Node376&#45;&gt;Node379</title>
<path fill="none" stroke="midnightblue" d="M233.363,-858C260.721,-858 292.956,-858 317.789,-858"/>
<polygon fill="midnightblue" stroke="midnightblue" points="233.142,-854.5 223.142,-858 233.142,-861.5 233.142,-854.5"/>
</g>
<!-- Node380 -->
<g id="node24" class="node"><title>Node380</title>
<g id="a_node24"><a xlink:href="$a00849.html#a1d2e1fe0550575de31f32a8c146f6643" xlink:title="gk_graph_ExtractSubgraph">
<polygon fill="white" stroke="black" points="290,-810.5 290,-829.5 428,-829.5 428,-810.5 290,-810.5"/>
<text text-anchor="middle" x="359" y="-817.5" font-family="Helvetica,sans-Serif" font-size="10.00">gk_graph_ExtractSubgraph</text>
</a>
</g>
</g>
<!-- Node376&#45;&gt;Node380 -->
<g id="edge25" class="edge"><title>Node376&#45;&gt;Node380</title>
<path fill="none" stroke="midnightblue" d="M232.638,-846.319C258.307,-840.93 288.391,-834.614 312.654,-829.52"/>
<polygon fill="midnightblue" stroke="midnightblue" points="231.741,-842.931 222.674,-848.411 233.18,-849.782 231.741,-842.931"/>
</g>
<!-- Node381 -->
<g id="node25" class="node"><title>Node381</title>
<g id="a_node25"><a xlink:href="$a00849.html#aab929d2134ffb92863867c93a0ce1f27" xlink:title="gk_graph_Reorder">
<polygon fill="white" stroke="red" points="309,-886.5 309,-905.5 409,-905.5 409,-886.5 309,-886.5"/>
<text text-anchor="middle" x="359" y="-893.5" font-family="Helvetica,sans-Serif" font-size="10.00">gk_graph_Reorder</text>
</a>
</g>
</g>
<!-- Node376&#45;&gt;Node381 -->
<g id="edge26" class="edge"><title>Node376&#45;&gt;Node381</title>
<path fill="none" stroke="midnightblue" d="M232.638,-869.681C258.307,-875.07 288.391,-881.386 312.654,-886.48"/>
<polygon fill="midnightblue" stroke="midnightblue" points="233.18,-866.218 222.674,-867.589 231.741,-873.069 233.18,-866.218"/>
</g>
<!-- Node383 -->
<g id="node27" class="node"><title>Node383</title>
<g id="a_node27"><a xlink:href="$a00948.html#a9192cba632de98d1759721a5676eaf05" xlink:title="SetupGraph">
<polygon fill="white" stroke="black" points="324,-506.5 324,-525.5 394,-525.5 394,-506.5 324,-506.5"/>
<text text-anchor="middle" x="359" y="-513.5" font-family="Helvetica,sans-Serif" font-size="10.00">SetupGraph</text>
</a>
</g>
</g>
<!-- Node382&#45;&gt;Node383 -->
<g id="edge28" class="edge"><title>Node382&#45;&gt;Node383</title>
<path fill="none" stroke="midnightblue" d="M223.011,-544.34C254.363,-537.758 295.197,-529.185 323.709,-523.199"/>
<polygon fill="midnightblue" stroke="midnightblue" points="222.261,-540.921 213.193,-546.401 223.699,-547.772 222.261,-540.921"/>
</g>
<!-- Node384 -->
<g id="node28" class="node"><title>Node384</title>
<g id="a_node28"><a xlink:href="$a00948.html#ad1dfd83fc2dc5e9f855c2d86b960c809" xlink:title="SetupSplitGraph">
<polygon fill="white" stroke="black" points="314,-544.5 314,-563.5 404,-563.5 404,-544.5 314,-544.5"/>
<text text-anchor="middle" x="359" y="-551.5" font-family="Helvetica,sans-Serif" font-size="10.00">SetupSplitGraph</text>
</a>
</g>
</g>
<!-- Node382&#45;&gt;Node384 -->
<g id="edge29" class="edge"><title>Node382&#45;&gt;Node384</title>
<path fill="none" stroke="midnightblue" d="M223.468,-554C251.296,-554 286.47,-554 313.872,-554"/>
<polygon fill="midnightblue" stroke="midnightblue" points="223.193,-550.5 213.193,-554 223.193,-557.5 223.193,-550.5"/>
</g>
<!-- Node386&#45;&gt;Node367 -->
<g id="edge32" class="edge"><title>Node386&#45;&gt;Node367</title>
<path fill="none" stroke="midnightblue" d="M213.888,-927.944C235.893,-935.531 264.439,-945.137 290,-953 300.544,-956.244 312.079,-959.555 322.605,-962.485"/>
<polygon fill="midnightblue" stroke="midnightblue" points="214.867,-924.579 204.272,-924.614 212.576,-931.194 214.867,-924.579"/>
</g>
<!-- Node386&#45;&gt;Node377 -->
<g id="edge33" class="edge"><title>Node386&#45;&gt;Node377</title>
<path fill="none" stroke="midnightblue" d="M217.458,-919.247C246.36,-922.281 285.192,-926.357 314.714,-929.456"/>
<polygon fill="midnightblue" stroke="midnightblue" points="217.606,-915.743 207.295,-918.18 216.875,-922.705 217.606,-915.743"/>
</g>
<!-- Node386&#45;&gt;Node387 -->
<g id="edge34" class="edge"><title>Node386&#45;&gt;Node387</title>
<path fill="none" stroke="midnightblue" d="M216.689,-901.518C229.794,-895.582 243.651,-887.517 254,-877 280.215,-850.36 261.424,-825.091 290,-801 300.121,-792.467 313.805,-787.752 326.245,-785.153"/>
<polygon fill="midnightblue" stroke="midnightblue" points="215.189,-898.353 207.341,-905.47 217.914,-904.8 215.189,-898.353"/>
</g>
<!-- Node408&#45;&gt;Node409 -->
<g id="edge42" class="edge"><title>Node408&#45;&gt;Node409</title>
<path fill="none" stroke="midnightblue" d="M436.75,-630C445.764,-630 454.933,-630 463.866,-630"/>
<polygon fill="midnightblue" stroke="midnightblue" points="436.659,-626.5 426.659,-630 436.659,-633.5 436.659,-626.5"/>
</g>
<!-- Node410&#45;&gt;Node387 -->
<g id="edge45" class="edge"><title>Node410&#45;&gt;Node387</title>
<path fill="none" stroke="midnightblue" d="M216.261,-752.243C249.193,-759.157 295.626,-768.905 326.251,-775.334"/>
<polygon fill="midnightblue" stroke="midnightblue" points="216.587,-748.735 206.081,-750.105 215.148,-755.585 216.587,-748.735"/>
</g>
<!-- Node410&#45;&gt;Node406 -->
<g id="edge46" class="edge"><title>Node410&#45;&gt;Node406</title>
<path fill="none" stroke="midnightblue" d="M216.204,-744C246.257,-744 287.577,-744 317.86,-744"/>
<polygon fill="midnightblue" stroke="midnightblue" points="216.081,-740.5 206.081,-744 216.081,-747.5 216.081,-740.5"/>
</g>
<!-- Node410&#45;&gt;Node418 -->
<g id="edge47" class="edge"><title>Node410&#45;&gt;Node418</title>
<path fill="none" stroke="midnightblue" d="M215.889,-735.835C254.261,-727.779 311.228,-715.819 339.991,-709.781"/>
<polygon fill="midnightblue" stroke="midnightblue" points="215.148,-732.415 206.081,-737.895 216.587,-739.265 215.148,-732.415"/>
</g>
<!-- Node410&#45;&gt;Node422 -->
<g id="edge48" class="edge"><title>Node410&#45;&gt;Node422</title>
<path fill="none" stroke="midnightblue" d="M202.267,-729.46C224.75,-716.962 258.808,-699.092 290,-687 299.143,-683.456 309.213,-680.271 318.736,-677.567"/>
<polygon fill="midnightblue" stroke="midnightblue" points="200.383,-726.504 193.382,-734.455 203.814,-732.606 200.383,-726.504"/>
</g>
<!-- Node422&#45;&gt;Node409 -->
<g id="edge49" class="edge"><title>Node422&#45;&gt;Node409</title>
<path fill="none" stroke="midnightblue" d="M409.622,-657.225C435.296,-651.65 466.362,-644.904 491.147,-639.522"/>
<polygon fill="midnightblue" stroke="midnightblue" points="408.74,-653.835 399.71,-659.377 410.225,-660.675 408.74,-653.835"/>
</g>
</g>
</svg>
