<?xml version="1.0" encoding="UTF-8" standalone="no"?>
<!DOCTYPE svg PUBLIC "-//W3C//DTD SVG 1.1//EN"
 "http://www.w3.org/Graphics/SVG/1.1/DTD/svg11.dtd">
<!-- Generated by graphviz version 2.36.0 (20140111.2315)
 -->
<!-- Title: main Pages: 1 -->
<svg width="724pt" height="883pt"
 viewBox="0.00 0.00 724.00 883.00" xmlns="http://www.w3.org/2000/svg" xmlns:xlink="http://www.w3.org/1999/xlink">
<g id="graph0" class="graph" transform="scale(1 1) rotate(0) translate(4 879)">
<title>main</title>
<polygon fill="white" stroke="none" points="-4,4 -4,-879 720,-879 720,4 -4,4"/>
<!-- Node0 -->
<g id="node1" class="node"><title>Node0</title>
<polygon fill="#bfbfbf" stroke="black" points="0,-285.5 0,-304.5 38,-304.5 38,-285.5 0,-285.5"/>
<text text-anchor="middle" x="19" y="-292.5" font-family="Helvetica,sans-Serif" font-size="10.00">main</text>
</g>
<!-- Node1 -->
<g id="node2" class="node"><title>Node1</title>
<g id="a_node2"><a xlink:href="$a00146.html#aea2aa8c9b5bb7c64a3f316d7760f0341" xlink:title="parse_cmdline">
<polygon fill="white" stroke="black" points="100,-855.5 100,-874.5 182,-874.5 182,-855.5 100,-855.5"/>
<text text-anchor="middle" x="141" y="-862.5" font-family="Helvetica,sans-Serif" font-size="10.00">parse_cmdline</text>
</a>
</g>
</g>
<!-- Node0&#45;&gt;Node1 -->
<g id="edge1" class="edge"><title>Node0&#45;&gt;Node1</title>
<path fill="none" stroke="midnightblue" d="M20.3376,-304.527C22.8646,-373.653 39.6755,-796.801 74,-841 78.321,-846.564 84.0538,-850.839 90.3409,-854.124"/>
<polygon fill="midnightblue" stroke="midnightblue" points="89.283,-857.48 99.849,-858.262 92.0764,-851.062 89.283,-857.48"/>
</g>
<!-- Node2 -->
<g id="node3" class="node"><title>Node2</title>
<g id="a_node3"><a xlink:href="$a00023.html#a8ebc19fe9a291bdf67677ebdaae56592" xlink:title="gk_csr_Read">
<polygon fill="white" stroke="black" points="103.5,-475.5 103.5,-494.5 178.5,-494.5 178.5,-475.5 103.5,-475.5"/>
<text text-anchor="middle" x="141" y="-482.5" font-family="Helvetica,sans-Serif" font-size="10.00">gk_csr_Read</text>
</a>
</g>
</g>
<!-- Node0&#45;&gt;Node2 -->
<g id="edge2" class="edge"><title>Node0&#45;&gt;Node2</title>
<path fill="none" stroke="midnightblue" d="M26.1158,-304.683C45.0486,-334.66 102.931,-426.307 128.102,-466.161"/>
<polygon fill="midnightblue" stroke="midnightblue" points="125.453,-468.522 133.753,-475.108 131.372,-464.784 125.453,-468.522"/>
</g>
<!-- Node7 -->
<g id="node8" class="node"><title>Node7</title>
<g id="a_node8"><a xlink:href="$a00077.html#aba6f76f5c67b9b7e9c2e45988d3d3e9d" xlink:title="gk_malloc">
<polygon fill="white" stroke="black" points="410,-779.5 410,-798.5 472,-798.5 472,-779.5 410,-779.5"/>
<text text-anchor="middle" x="441" y="-786.5" font-family="Helvetica,sans-Serif" font-size="10.00">gk_malloc</text>
</a>
</g>
</g>
<!-- Node0&#45;&gt;Node7 -->
<g id="edge31" class="edge"><title>Node0&#45;&gt;Node7</title>
<path fill="none" stroke="midnightblue" d="M20.4124,-304.616C23.2668,-369.174 40.9577,-738.018 74,-774 158.629,-866.158 329.355,-825.522 403.854,-801.773"/>
<polygon fill="midnightblue" stroke="midnightblue" points="405.293,-804.985 413.709,-798.55 403.116,-798.332 405.293,-804.985"/>
</g>
<!-- Node11 -->
<g id="node12" class="node"><title>Node11</title>
<g id="a_node12"><a xlink:href="$a00077.html#ab2b996e10c5bccb30204d81804adfd24" xlink:title="gk_fopen">
<polygon fill="white" stroke="black" points="412,-361.5 412,-380.5 470,-380.5 470,-361.5 412,-361.5"/>
<text text-anchor="middle" x="441" y="-368.5" font-family="Helvetica,sans-Serif" font-size="10.00">gk_fopen</text>
</a>
</g>
</g>
<!-- Node0&#45;&gt;Node11 -->
<g id="edge35" class="edge"><title>Node0&#45;&gt;Node11</title>
<path fill="none" stroke="midnightblue" d="M38.3776,-300.302C48.7682,-303.165 62.0366,-306.594 74,-309 205.189,-335.387 241.065,-324.382 372,-352 381.792,-354.065 392.254,-356.746 401.963,-359.439"/>
<polygon fill="midnightblue" stroke="midnightblue" points="401.173,-362.853 411.749,-362.225 403.089,-356.12 401.173,-362.853"/>
</g>
<!-- Node12 -->
<g id="node13" class="node"><title>Node12</title>
<g id="a_node13"><a xlink:href="$a00575.html#ae6aab5c308faac0fc539cc9c6da9fbd0" xlink:title="sprintf">
<polygon fill="white" stroke="black" points="552,-361.5 552,-380.5 596,-380.5 596,-361.5 552,-361.5"/>
<text text-anchor="middle" x="574" y="-368.5" font-family="Helvetica,sans-Serif" font-size="10.00">sprintf</text>
</a>
</g>
</g>
<!-- Node0&#45;&gt;Node12 -->
<g id="edge32" class="edge"><title>Node0&#45;&gt;Node12</title>
<path fill="none" stroke="midnightblue" d="M38.3234,-288.822C101.875,-268.486 317.467,-208.67 474,-276 495.371,-285.192 493.362,-297.739 510,-314 524.364,-328.038 541.272,-343.27 553.954,-354.453"/>
<polygon fill="midnightblue" stroke="midnightblue" points="551.781,-357.203 561.608,-361.164 556.396,-351.94 551.781,-357.203"/>
</g>
<!-- Node13 -->
<g id="node14" class="node"><title>Node13</title>
<g id="a_node14"><a xlink:href="$a00026.html#a56d0f2cc40cd8633a784582d6200d8b5" xlink:title="errexit">
<polygon fill="white" stroke="black" points="552,-551.5 552,-570.5 596,-570.5 596,-551.5 552,-551.5"/>
<text text-anchor="middle" x="574" y="-558.5" font-family="Helvetica,sans-Serif" font-size="10.00">errexit</text>
</a>
</g>
</g>
<!-- Node0&#45;&gt;Node13 -->
<g id="edge36" class="edge"><title>Node0&#45;&gt;Node13</title>
<path fill="none" stroke="midnightblue" d="M21.0794,-304.607C25.473,-341.924 43.2563,-476.537 74,-504 209.617,-625.146 455.439,-586.737 541.905,-568.337"/>
<polygon fill="midnightblue" stroke="midnightblue" points="542.854,-571.712 551.872,-566.152 541.355,-564.874 542.854,-571.712"/>
</g>
<!-- Node14 -->
<g id="node15" class="node"><title>Node14</title>
<g id="a_node15"><a xlink:href="$a00077.html#a0fd03cab5187904b005485109d9fa2b5" xlink:title="gk_fclose">
<polygon fill="white" stroke="black" points="411.5,-285.5 411.5,-304.5 470.5,-304.5 470.5,-285.5 411.5,-285.5"/>
<text text-anchor="middle" x="441" y="-292.5" font-family="Helvetica,sans-Serif" font-size="10.00">gk_fclose</text>
</a>
</g>
</g>
<!-- Node0&#45;&gt;Node14 -->
<g id="edge38" class="edge"><title>Node0&#45;&gt;Node14</title>
<path fill="none" stroke="midnightblue" d="M38.0469,-295C101.19,-295 313.121,-295 401.153,-295"/>
<polygon fill="midnightblue" stroke="midnightblue" points="401.256,-298.5 411.256,-295 401.256,-291.5 401.256,-298.5"/>
</g>
<!-- Node20 -->
<g id="node21" class="node"><title>Node20</title>
<g id="a_node21"><a xlink:href="$a00023.html#a8bdd383ab80fe76507463f59c3d2863a" xlink:title="gk_csr_CreateIndex">
<polygon fill="white" stroke="black" points="88,-703.5 88,-722.5 194,-722.5 194,-703.5 88,-703.5"/>
<text text-anchor="middle" x="141" y="-710.5" font-family="Helvetica,sans-Serif" font-size="10.00">gk_csr_CreateIndex</text>
</a>
</g>
</g>
<!-- Node0&#45;&gt;Node20 -->
<g id="edge28" class="edge"><title>Node0&#45;&gt;Node20</title>
<path fill="none" stroke="midnightblue" d="M20.2051,-304.751C21.3368,-344.531 28.5802,-497.879 74,-613 86.4463,-644.546 109.807,-676.469 125.133,-695.495"/>
<polygon fill="midnightblue" stroke="midnightblue" points="122.484,-697.784 131.542,-703.281 127.889,-693.336 122.484,-697.784"/>
</g>
<!-- Node21 -->
<g id="node22" class="node"><title>Node21</title>
<g id="a_node22"><a xlink:href="$a00077.html#af62038e97ca55f14ec2557a01bd85ca2" xlink:title="Duplicates a string. ">
<polygon fill="white" stroke="black" points="278,-779.5 278,-798.5 338,-798.5 338,-779.5 278,-779.5"/>
<text text-anchor="middle" x="308" y="-786.5" font-family="Helvetica,sans-Serif" font-size="10.00">gk_strdup</text>
</a>
</g>
</g>
<!-- Node0&#45;&gt;Node21 -->
<g id="edge33" class="edge"><title>Node0&#45;&gt;Node21</title>
<path fill="none" stroke="midnightblue" d="M19.7656,-304.801C18.5715,-363.298 15.3229,-666.024 74,-732 122.805,-786.877 214.938,-793.196 267.544,-791.817"/>
<polygon fill="midnightblue" stroke="midnightblue" points="267.963,-795.304 277.826,-791.435 267.704,-788.309 267.963,-795.304"/>
</g>
<!-- Node22 -->
<g id="node23" class="node"><title>Node22</title>
<g id="a_node23"><a xlink:href="$a00077.html#a3090611e4e08f52edd87b455dcb420c8" xlink:title="Prunes characters from the end of the string. ">
<polygon fill="white" stroke="black" points="105,-171.5 105,-190.5 177,-190.5 177,-171.5 105,-171.5"/>
<text text-anchor="middle" x="141" y="-178.5" font-family="Helvetica,sans-Serif" font-size="10.00">gk_strtprune</text>
</a>
</g>
</g>
<!-- Node0&#45;&gt;Node22 -->
<g id="edge37" class="edge"><title>Node0&#45;&gt;Node22</title>
<path fill="none" stroke="midnightblue" d="M23.2718,-285.396C29.9534,-267.166 46.8673,-227.374 74,-205 80.2172,-199.873 87.6234,-195.794 95.1903,-192.563"/>
<polygon fill="midnightblue" stroke="midnightblue" points="96.6841,-195.739 104.783,-188.909 94.1926,-189.198 96.6841,-195.739"/>
</g>
<!-- Node23 -->
<g id="node24" class="node"><title>Node23</title>
<g id="a_node24"><a xlink:href="$a00146.html#a2270624f104a1d261314dd112e4a1d1d" xlink:title="print_init_info">
<polygon fill="white" stroke="black" points="103,-133.5 103,-152.5 179,-152.5 179,-133.5 103,-133.5"/>
<text text-anchor="middle" x="141" y="-140.5" font-family="Helvetica,sans-Serif" font-size="10.00">print_init_info</text>
</a>
</g>
</g>
<!-- Node0&#45;&gt;Node23 -->
<g id="edge39" class="edge"><title>Node0&#45;&gt;Node23</title>
<path fill="none" stroke="midnightblue" d="M21.0539,-285.336C24.241,-260.902 36.023,-196.172 74,-162 79.4844,-157.065 86.1733,-153.406 93.164,-150.694"/>
<polygon fill="midnightblue" stroke="midnightblue" points="94.3769,-153.98 102.799,-147.552 92.2067,-147.325 94.3769,-153.98"/>
</g>
<!-- Node24 -->
<g id="node25" class="node"><title>Node24</title>
<g id="a_node25"><a xlink:href="$a00077.html#a49ce3918c2232fa7e293e4221d5215b1" xlink:title="gk_find_frequent_itemsets">
<polygon fill="white" stroke="black" points="74,-95.5 74,-114.5 208,-114.5 208,-95.5 74,-95.5"/>
<text text-anchor="middle" x="141" y="-102.5" font-family="Helvetica,sans-Serif" font-size="10.00">gk_find_frequent_itemsets</text>
</a>
</g>
</g>
<!-- Node0&#45;&gt;Node24 -->
<g id="edge40" class="edge"><title>Node0&#45;&gt;Node24</title>
<path fill="none" stroke="midnightblue" d="M20.0586,-285.257C20.7783,-256.286 26.9601,-169.852 74,-124 75.4729,-122.564 77.0469,-121.236 78.7019,-120.007"/>
<polygon fill="midnightblue" stroke="midnightblue" points="80.8108,-122.822 87.5561,-114.651 77.1881,-116.832 80.8108,-122.822"/>
</g>
<!-- Node25 -->
<g id="node26" class="node"><title>Node25</title>
<g id="a_node26"><a xlink:href="$a00146.html#a3b3cc293672156bbc5026fd567f52462" xlink:title="print_an_itemset">
<polygon fill="white" stroke="black" points="96,-57.5 96,-76.5 186,-76.5 186,-57.5 96,-57.5"/>
<text text-anchor="middle" x="141" y="-64.5" font-family="Helvetica,sans-Serif" font-size="10.00">print_an_itemset</text>
</a>
</g>
</g>
<!-- Node0&#45;&gt;Node25 -->
<g id="edge41" class="edge"><title>Node0&#45;&gt;Node25</title>
<path fill="none" stroke="midnightblue" d="M19.388,-285.079C17.9144,-251.914 17.8131,-143.751 74,-86 77.5974,-82.3024 81.8641,-79.3119 86.4709,-76.8952"/>
<polygon fill="midnightblue" stroke="midnightblue" points="87.874,-80.1018 95.6631,-72.9198 85.0953,-73.6769 87.874,-80.1018"/>
</g>
<!-- Node26 -->
<g id="node27" class="node"><title>Node26</title>
<g id="a_node27"><a xlink:href="$a00146.html#a702976a4c55992ddbfc1918ec1b70943" xlink:title="print_final_info">
<polygon fill="white" stroke="black" points="100,-19.5 100,-38.5 182,-38.5 182,-19.5 100,-19.5"/>
<text text-anchor="middle" x="141" y="-26.5" font-family="Helvetica,sans-Serif" font-size="10.00">print_final_info</text>
</a>
</g>
</g>
<!-- Node0&#45;&gt;Node26 -->
<g id="edge42" class="edge"><title>Node0&#45;&gt;Node26</title>
<path fill="none" stroke="midnightblue" d="M20.8168,-285.249C24.4697,-243.911 40.6113,-83.6349 74,-48 78.4941,-43.2035 84.1131,-39.5917 90.1641,-36.8768"/>
<polygon fill="midnightblue" stroke="midnightblue" points="91.7382,-40.028 99.9288,-33.3074 89.3349,-33.4534 91.7382,-40.028"/>
</g>
<!-- Node3 -->
<g id="node4" class="node"><title>Node3</title>
<g id="a_node4"><a xlink:href="$a00035.html#a627221a374552b5b6659d855b7446187" xlink:title="gk_fexists">
<polygon fill="white" stroke="black" points="277.5,-437.5 277.5,-456.5 338.5,-456.5 338.5,-437.5 277.5,-437.5"/>
<text text-anchor="middle" x="308" y="-444.5" font-family="Helvetica,sans-Serif" font-size="10.00">gk_fexists</text>
</a>
</g>
</g>
<!-- Node2&#45;&gt;Node3 -->
<g id="edge3" class="edge"><title>Node2&#45;&gt;Node3</title>
<path fill="none" stroke="midnightblue" d="M178.619,-476.567C204.969,-470.498 240.476,-462.321 267.47,-456.104"/>
<polygon fill="midnightblue" stroke="midnightblue" points="268.402,-459.481 277.361,-453.826 266.831,-452.659 268.402,-459.481"/>
</g>
<!-- Node4 -->
<g id="node5" class="node"><title>Node4</title>
<g id="a_node5"><a xlink:href="$a00026.html#a4c320c13bcdc9967613253ef4c73f59f" xlink:title="gk_errexit">
<polygon fill="white" stroke="black" points="544,-703.5 544,-722.5 604,-722.5 604,-703.5 544,-703.5"/>
<text text-anchor="middle" x="574" y="-710.5" font-family="Helvetica,sans-Serif" font-size="10.00">gk_errexit</text>
</a>
</g>
</g>
<!-- Node2&#45;&gt;Node4 -->
<g id="edge4" class="edge"><title>Node2&#45;&gt;Node4</title>
<path fill="none" stroke="midnightblue" d="M164.216,-494.562C184.833,-503.388 216.404,-516.786 244,-528 345.694,-569.324 381.519,-558.868 474,-618 508.219,-639.88 540.773,-674.757 558.7,-695.612"/>
<polygon fill="midnightblue" stroke="midnightblue" points="556.118,-697.979 565.243,-703.363 561.467,-693.464 556.118,-697.979"/>
</g>
<!-- Node6 -->
<g id="node7" class="node"><title>Node6</title>
<g id="a_node7"><a xlink:href="$a00023.html#a82b885bbed5bd18c26629c35ce5d37e4" xlink:title="gk_csr_Create">
<polygon fill="white" stroke="black" points="267,-665.5 267,-684.5 349,-684.5 349,-665.5 267,-665.5"/>
<text text-anchor="middle" x="308" y="-672.5" font-family="Helvetica,sans-Serif" font-size="10.00">gk_csr_Create</text>
</a>
</g>
</g>
<!-- Node2&#45;&gt;Node6 -->
<g id="edge6" class="edge"><title>Node2&#45;&gt;Node6</title>
<path fill="none" stroke="midnightblue" d="M145.018,-494.833C154.497,-524.052 186.511,-611.111 244,-656 248.06,-659.17 252.645,-661.813 257.443,-664.017"/>
<polygon fill="midnightblue" stroke="midnightblue" points="256.266,-667.315 266.852,-667.734 258.838,-660.804 256.266,-667.315"/>
</g>
<!-- Node2&#45;&gt;Node11 -->
<g id="edge13" class="edge"><title>Node2&#45;&gt;Node11</title>
<path fill="none" stroke="midnightblue" d="M178.6,-490.938C226.413,-496.792 311.186,-500.496 372,-466 402.139,-448.904 422.335,-412.319 432.437,-389.87"/>
<polygon fill="midnightblue" stroke="midnightblue" points="435.657,-391.242 436.367,-380.671 429.22,-388.491 435.657,-391.242"/>
</g>
<!-- Node2&#45;&gt;Node12 -->
<g id="edge22" class="edge"><title>Node2&#45;&gt;Node12</title>
<path fill="none" stroke="midnightblue" d="M155.463,-475.454C174.323,-462.569 210.11,-439.861 244,-428 341.792,-393.774 372.005,-408.21 474,-390 496.782,-385.933 522.443,-380.998 541.93,-377.177"/>
<polygon fill="midnightblue" stroke="midnightblue" points="542.651,-380.602 551.786,-375.236 541.299,-373.734 542.651,-380.602"/>
</g>
<!-- Node2&#45;&gt;Node13 -->
<g id="edge26" class="edge"><title>Node2&#45;&gt;Node13</title>
<path fill="none" stroke="midnightblue" d="M178.747,-491.48C261.961,-506.153 463.606,-541.71 541.532,-555.451"/>
<polygon fill="midnightblue" stroke="midnightblue" points="541.226,-558.951 551.682,-557.241 542.442,-552.057 541.226,-558.951"/>
</g>
<!-- Node2&#45;&gt;Node14 -->
<g id="edge17" class="edge"><title>Node2&#45;&gt;Node14</title>
<path fill="none" stroke="midnightblue" d="M146.669,-475.277C158.973,-450.702 194.759,-385.672 244,-352 292.136,-319.084 359.373,-304.933 401.266,-299.023"/>
<polygon fill="midnightblue" stroke="midnightblue" points="401.888,-302.471 411.343,-297.692 400.971,-295.532 401.888,-302.471"/>
</g>
<!-- Node16 -->
<g id="node17" class="node"><title>Node16</title>
<g id="a_node17"><a xlink:href="$a00077.html#ad8263f64108434d7ebab9799b5ab9632" xlink:title="gk_getline">
<polygon fill="white" stroke="black" points="277,-627.5 277,-646.5 339,-646.5 339,-627.5 277,-627.5"/>
<text text-anchor="middle" x="308" y="-634.5" font-family="Helvetica,sans-Serif" font-size="10.00">gk_getline</text>
</a>
</g>
</g>
<!-- Node2&#45;&gt;Node16 -->
<g id="edge19" class="edge"><title>Node2&#45;&gt;Node16</title>
<path fill="none" stroke="midnightblue" d="M152.321,-494.508C179.754,-519.779 254.729,-588.847 289.214,-620.616"/>
<polygon fill="midnightblue" stroke="midnightblue" points="286.956,-623.294 296.682,-627.495 291.699,-618.146 286.956,-623.294"/>
</g>
<!-- Node18 -->
<g id="node19" class="node"><title>Node18</title>
<g id="a_node19"><a xlink:href="$a00035.html#a739112cb142f2e96d6952140c66cd31c" xlink:title="gk_getfilestats">
<polygon fill="white" stroke="black" points="268,-361.5 268,-380.5 348,-380.5 348,-361.5 268,-361.5"/>
<text text-anchor="middle" x="308" y="-368.5" font-family="Helvetica,sans-Serif" font-size="10.00">gk_getfilestats</text>
</a>
</g>
</g>
<!-- Node2&#45;&gt;Node18 -->
<g id="edge23" class="edge"><title>Node2&#45;&gt;Node18</title>
<path fill="none" stroke="midnightblue" d="M150.661,-475.334C167.22,-457.349 205.19,-418.448 244,-395 250.762,-390.915 258.338,-387.315 265.829,-384.229"/>
<polygon fill="midnightblue" stroke="midnightblue" points="267.143,-387.473 275.204,-380.597 264.615,-380.946 267.143,-387.473"/>
</g>
<!-- Node19 -->
<g id="node20" class="node"><title>Node19</title>
<g id="a_node20"><a xlink:href="$a00077.html#ac8df62c4e3d0910711a9874f9cc58884" xlink:title="gk_free">
<polygon fill="white" stroke="black" points="283,-703.5 283,-722.5 333,-722.5 333,-703.5 283,-703.5"/>
<text text-anchor="middle" x="308" y="-710.5" font-family="Helvetica,sans-Serif" font-size="10.00">gk_free</text>
</a>
</g>
</g>
<!-- Node2&#45;&gt;Node19 -->
<g id="edge27" class="edge"><title>Node2&#45;&gt;Node19</title>
<path fill="none" stroke="midnightblue" d="M143.827,-494.575C150.625,-527.552 177.57,-637.495 244,-694 252.158,-700.939 262.79,-705.344 272.99,-708.14"/>
<polygon fill="midnightblue" stroke="midnightblue" points="272.407,-711.598 282.938,-710.434 273.98,-704.777 272.407,-711.598"/>
</g>
<!-- Node5 -->
<g id="node6" class="node"><title>Node5</title>
<g id="a_node6"><a xlink:href="$a01017.html#a2e311a777ffe9c80e405efa7cd2757be" xlink:title="fprintf">
<polygon fill="white" stroke="black" points="674,-703.5 674,-722.5 716,-722.5 716,-703.5 674,-703.5"/>
<text text-anchor="middle" x="695" y="-710.5" font-family="Helvetica,sans-Serif" font-size="10.00">fprintf</text>
</a>
</g>
</g>
<!-- Node4&#45;&gt;Node5 -->
<g id="edge5" class="edge"><title>Node4&#45;&gt;Node5</title>
<path fill="none" stroke="midnightblue" d="M604.111,-713C622.172,-713 645.339,-713 663.631,-713"/>
<polygon fill="midnightblue" stroke="midnightblue" points="663.762,-716.5 673.762,-713 663.762,-709.5 663.762,-716.5"/>
</g>
<!-- Node6&#45;&gt;Node7 -->
<g id="edge7" class="edge"><title>Node6&#45;&gt;Node7</title>
<path fill="none" stroke="midnightblue" d="M349.157,-682.805C357.182,-685.515 365.219,-689.146 372,-694 399.765,-713.873 420.418,-748.689 431.307,-770.202"/>
<polygon fill="midnightblue" stroke="midnightblue" points="428.215,-771.847 435.735,-779.31 434.511,-768.786 428.215,-771.847"/>
</g>
<!-- Node10 -->
<g id="node11" class="node"><title>Node10</title>
<g id="a_node11"><a xlink:href="$a00023.html#a47a303d88c3316bd821219cae39d0461" xlink:title="gk_csr_Init">
<polygon fill="white" stroke="black" points="408.5,-665.5 408.5,-684.5 473.5,-684.5 473.5,-665.5 408.5,-665.5"/>
<text text-anchor="middle" x="441" y="-672.5" font-family="Helvetica,sans-Serif" font-size="10.00">gk_csr_Init</text>
</a>
</g>
</g>
<!-- Node6&#45;&gt;Node10 -->
<g id="edge12" class="edge"><title>Node6&#45;&gt;Node10</title>
<path fill="none" stroke="midnightblue" d="M349.016,-675C364.422,-675 382.057,-675 397.674,-675"/>
<polygon fill="midnightblue" stroke="midnightblue" points="398.111,-678.5 408.111,-675 398.111,-671.5 398.111,-678.5"/>
</g>
<!-- Node7&#45;&gt;Node4 -->
<g id="edge11" class="edge"><title>Node7&#45;&gt;Node4</title>
<path fill="none" stroke="midnightblue" d="M454.807,-779.475C460.675,-775.09 467.709,-769.805 474,-765 490.109,-752.696 492.335,-746.94 510,-737 517.625,-732.71 526.168,-728.879 534.444,-725.605"/>
<polygon fill="midnightblue" stroke="midnightblue" points="535.837,-728.82 543.964,-722.023 533.372,-722.268 535.837,-728.82"/>
</g>
<!-- Node7&#45;&gt;Node5 -->
<g id="edge8" class="edge"><title>Node7&#45;&gt;Node5</title>
<path fill="none" stroke="midnightblue" d="M472.03,-780.442C518.777,-767.091 606.818,-741.819 638,-732 646.587,-729.296 655.861,-726.215 664.345,-723.333"/>
<polygon fill="midnightblue" stroke="midnightblue" points="665.527,-726.628 673.853,-720.075 663.258,-720.006 665.527,-726.628"/>
</g>
<!-- Node8 -->
<g id="node9" class="node"><title>Node8</title>
<g id="a_node9"><a xlink:href="$a00110.html#ad2327b94227019b6753b6b09400c0522" xlink:title="gk_GetCurMemoryUsed">
<polygon fill="white" stroke="black" points="512,-779.5 512,-798.5 636,-798.5 636,-779.5 512,-779.5"/>
<text text-anchor="middle" x="574" y="-786.5" font-family="Helvetica,sans-Serif" font-size="10.00">gk_GetCurMemoryUsed</text>
</a>
</g>
</g>
<!-- Node7&#45;&gt;Node8 -->
<g id="edge9" class="edge"><title>Node7&#45;&gt;Node8</title>
<path fill="none" stroke="midnightblue" d="M472.054,-789C481.041,-789 491.303,-789 501.761,-789"/>
<polygon fill="midnightblue" stroke="midnightblue" points="501.813,-792.5 511.813,-789 501.813,-785.5 501.813,-792.5"/>
</g>
<!-- Node9 -->
<g id="node10" class="node"><title>Node9</title>
<g id="a_node10"><a xlink:href="$a00110.html#a656fd5266ae12a96e53125486f8fea52" xlink:title="gk_GetMaxMemoryUsed">
<polygon fill="white" stroke="black" points="510.5,-817.5 510.5,-836.5 637.5,-836.5 637.5,-817.5 510.5,-817.5"/>
<text text-anchor="middle" x="574" y="-824.5" font-family="Helvetica,sans-Serif" font-size="10.00">gk_GetMaxMemoryUsed</text>
</a>
</g>
</g>
<!-- Node7&#45;&gt;Node9 -->
<g id="edge10" class="edge"><title>Node7&#45;&gt;Node9</title>
<path fill="none" stroke="midnightblue" d="M472.054,-797.718C489.293,-802.719 511.22,-809.079 530.231,-814.594"/>
<polygon fill="midnightblue" stroke="midnightblue" points="529.287,-817.964 539.866,-817.389 531.237,-811.241 529.287,-817.964"/>
</g>
<!-- Node11&#45;&gt;Node12 -->
<g id="edge14" class="edge"><title>Node11&#45;&gt;Node12</title>
<path fill="none" stroke="midnightblue" d="M470.103,-371C491.165,-371 519.986,-371 541.768,-371"/>
<polygon fill="midnightblue" stroke="midnightblue" points="541.831,-374.5 551.831,-371 541.831,-367.5 541.831,-374.5"/>
</g>
<!-- Node11&#45;&gt;Node13 -->
<g id="edge15" class="edge"><title>Node11&#45;&gt;Node13</title>
<path fill="none" stroke="midnightblue" d="M448.676,-380.683C469.432,-410.787 533.069,-503.085 560.358,-542.665"/>
<polygon fill="midnightblue" stroke="midnightblue" points="557.622,-544.862 566.18,-551.108 563.385,-540.889 557.622,-544.862"/>
</g>
<!-- Node13&#45;&gt;Node5 -->
<g id="edge16" class="edge"><title>Node13&#45;&gt;Node5</title>
<path fill="none" stroke="midnightblue" d="M582.444,-570.508C601.978,-595.46 654.938,-663.106 680.214,-695.392"/>
<polygon fill="midnightblue" stroke="midnightblue" points="677.638,-697.779 686.559,-703.495 683.15,-693.464 677.638,-697.779"/>
</g>
<!-- Node15 -->
<g id="node16" class="node"><title>Node15</title>
<g id="a_node16"><a xlink:href="$a01017.html#a355ed4cdac2a27aa04a6689ac2d7e86e" xlink:title="fclose">
<polygon fill="white" stroke="black" points="552.5,-285.5 552.5,-304.5 595.5,-304.5 595.5,-285.5 552.5,-285.5"/>
<text text-anchor="middle" x="574" y="-292.5" font-family="Helvetica,sans-Serif" font-size="10.00">fclose</text>
</a>
</g>
</g>
<!-- Node14&#45;&gt;Node15 -->
<g id="edge18" class="edge"><title>Node14&#45;&gt;Node15</title>
<path fill="none" stroke="midnightblue" d="M470.749,-295C491.882,-295 520.562,-295 542.17,-295"/>
<polygon fill="midnightblue" stroke="midnightblue" points="542.446,-298.5 552.446,-295 542.446,-291.5 542.446,-298.5"/>
</g>
<!-- Node16&#45;&gt;Node7 -->
<g id="edge20" class="edge"><title>Node16&#45;&gt;Node7</title>
<path fill="none" stroke="midnightblue" d="M339.287,-641.01C350.538,-643.736 362.791,-648.313 372,-656 408.19,-686.208 427.271,-740.575 435.293,-769.561"/>
<polygon fill="midnightblue" stroke="midnightblue" points="431.929,-770.53 437.838,-779.324 438.702,-768.764 431.929,-770.53"/>
</g>
<!-- Node17 -->
<g id="node18" class="node"><title>Node17</title>
<g id="a_node18"><a xlink:href="$a00077.html#ab76a07ccd25288dd9acc99f5f24a7600" xlink:title="gk_realloc">
<polygon fill="white" stroke="black" points="410,-627.5 410,-646.5 472,-646.5 472,-627.5 410,-627.5"/>
<text text-anchor="middle" x="441" y="-634.5" font-family="Helvetica,sans-Serif" font-size="10.00">gk_realloc</text>
</a>
</g>
</g>
<!-- Node16&#45;&gt;Node17 -->
<g id="edge21" class="edge"><title>Node16&#45;&gt;Node17</title>
<path fill="none" stroke="midnightblue" d="M339.054,-637C356.983,-637 379.981,-637 399.497,-637"/>
<polygon fill="midnightblue" stroke="midnightblue" points="399.632,-640.5 409.632,-637 399.632,-633.5 399.632,-640.5"/>
</g>
<!-- Node18&#45;&gt;Node11 -->
<g id="edge24" class="edge"><title>Node18&#45;&gt;Node11</title>
<path fill="none" stroke="midnightblue" d="M348.304,-371C365.28,-371 385.067,-371 401.906,-371"/>
<polygon fill="midnightblue" stroke="midnightblue" points="401.958,-374.5 411.958,-371 401.957,-367.5 401.958,-374.5"/>
</g>
<!-- Node18&#45;&gt;Node14 -->
<g id="edge25" class="edge"><title>Node18&#45;&gt;Node14</title>
<path fill="none" stroke="midnightblue" d="M325.591,-361.375C348.034,-348.355 388.273,-325.009 414.552,-309.764"/>
<polygon fill="midnightblue" stroke="midnightblue" points="416.65,-312.593 423.543,-304.547 413.137,-306.538 416.65,-312.593"/>
</g>
<!-- Node20&#45;&gt;Node4 -->
<g id="edge30" class="edge"><title>Node20&#45;&gt;Node4</title>
<path fill="none" stroke="midnightblue" d="M183.444,-722.511C201.876,-726.276 223.911,-730.145 244,-732 348.479,-741.648 472.105,-727.722 533.828,-719.047"/>
<polygon fill="midnightblue" stroke="midnightblue" points="534.502,-722.486 543.903,-717.599 533.507,-715.557 534.502,-722.486"/>
</g>
<!-- Node20&#45;&gt;Node19 -->
<g id="edge29" class="edge"><title>Node20&#45;&gt;Node19</title>
<path fill="none" stroke="midnightblue" d="M194.207,-713C219.8,-713 249.909,-713 272.579,-713"/>
<polygon fill="midnightblue" stroke="midnightblue" points="272.742,-716.5 282.742,-713 272.742,-709.5 272.742,-716.5"/>
</g>
<!-- Node21&#45;&gt;Node7 -->
<g id="edge34" class="edge"><title>Node21&#45;&gt;Node7</title>
<path fill="none" stroke="midnightblue" d="M338.073,-789C356.175,-789 379.718,-789 399.617,-789"/>
<polygon fill="midnightblue" stroke="midnightblue" points="399.642,-792.5 409.642,-789 399.642,-785.5 399.642,-792.5"/>
</g>
<!-- Node27 -->
<g id="node28" class="node"><title>Node27</title>
<g id="a_node28"><a xlink:href="$a00077.html#a656fd5266ae12a96e53125486f8fea52" xlink:title="gk_GetMaxMemoryUsed">
<polygon fill="white" stroke="black" points="244.5,-38.5 244.5,-57.5 371.5,-57.5 371.5,-38.5 244.5,-38.5"/>
<text text-anchor="middle" x="308" y="-45.5" font-family="Helvetica,sans-Serif" font-size="10.00">gk_GetMaxMemoryUsed</text>
</a>
</g>
</g>
<!-- Node26&#45;&gt;Node27 -->
<g id="edge43" class="edge"><title>Node26&#45;&gt;Node27</title>
<path fill="none" stroke="midnightblue" d="M182.364,-33.6479C197.916,-35.4388 216.198,-37.544 233.897,-39.582"/>
<polygon fill="midnightblue" stroke="midnightblue" points="233.89,-43.1043 244.224,-40.7713 234.69,-36.1502 233.89,-43.1043"/>
</g>
<!-- Node28 -->
<g id="node29" class="node"><title>Node28</title>
<g id="a_node29"><a xlink:href="$a00077.html#ad2327b94227019b6753b6b09400c0522" xlink:title="gk_GetCurMemoryUsed">
<polygon fill="white" stroke="black" points="246,-0.5 246,-19.5 370,-19.5 370,-0.5 246,-0.5"/>
<text text-anchor="middle" x="308" y="-7.5" font-family="Helvetica,sans-Serif" font-size="10.00">gk_GetCurMemoryUsed</text>
</a>
</g>
</g>
<!-- Node26&#45;&gt;Node28 -->
<g id="edge44" class="edge"><title>Node26&#45;&gt;Node28</title>
<path fill="none" stroke="midnightblue" d="M182.364,-24.3521C198.463,-22.4982 217.49,-20.3072 235.765,-18.2029"/>
<polygon fill="midnightblue" stroke="midnightblue" points="236.283,-21.6664 245.817,-17.0454 235.482,-14.7124 236.283,-21.6664"/>
</g>
</g>
</svg>
