<?xml version="1.0" encoding="UTF-8" standalone="no"?>
<!DOCTYPE svg PUBLIC "-//W3C//DTD SVG 1.1//EN"
 "http://www.w3.org/Graphics/SVG/1.1/DTD/svg11.dtd">
<!-- Generated by graphviz version 2.36.0 (20140111.2315)
 -->
<!-- Title: gk_mcorePop Pages: 1 -->
<svg width="260pt" height="104pt"
 viewBox="0.00 0.00 260.00 104.00" xmlns="http://www.w3.org/2000/svg" xmlns:xlink="http://www.w3.org/1999/xlink">
<g id="graph0" class="graph" transform="scale(1 1) rotate(0) translate(4 100)">
<title>gk_mcorePop</title>
<polygon fill="white" stroke="none" points="-4,4 -4,-100 256,-100 256,4 -4,4"/>
<!-- Node65 -->
<g id="node1" class="node"><title>Node65</title>
<polygon fill="#bfbfbf" stroke="black" points="0,-38.5 0,-57.5 78,-57.5 78,-38.5 0,-38.5"/>
<text text-anchor="middle" x="39" y="-45.5" font-family="Helvetica,sans-Serif" font-size="10.00">gk_mcorePop</text>
</g>
<!-- Node66 -->
<g id="node2" class="node"><title>Node66</title>
<g id="a_node2"><a xlink:href="$a00026.html#a56d0f2cc40cd8633a784582d6200d8b5" xlink:title="errexit">
<polygon fill="white" stroke="black" points="122,-76.5 122,-95.5 166,-95.5 166,-76.5 122,-76.5"/>
<text text-anchor="middle" x="144" y="-83.5" font-family="Helvetica,sans-Serif" font-size="10.00">errexit</text>
</a>
</g>
</g>
<!-- Node65&#45;&gt;Node66 -->
<g id="edge1" class="edge"><title>Node65&#45;&gt;Node66</title>
<path fill="none" stroke="midnightblue" d="M65.9912,-57.589C80.0334,-62.7696 97.4606,-69.1991 112.183,-74.6307"/>
<polygon fill="midnightblue" stroke="midnightblue" points="111.276,-78.0264 121.869,-78.2041 113.699,-71.4591 111.276,-78.0264"/>
</g>
<!-- Node68 -->
<g id="node4" class="node"><title>Node68</title>
<g id="a_node4"><a xlink:href="$a00077.html#ac8df62c4e3d0910711a9874f9cc58884" xlink:title="gk_free">
<polygon fill="white" stroke="black" points="119,-38.5 119,-57.5 169,-57.5 169,-38.5 119,-38.5"/>
<text text-anchor="middle" x="144" y="-45.5" font-family="Helvetica,sans-Serif" font-size="10.00">gk_free</text>
</a>
</g>
</g>
<!-- Node65&#45;&gt;Node68 -->
<g id="edge3" class="edge"><title>Node65&#45;&gt;Node68</title>
<path fill="none" stroke="midnightblue" d="M78.0608,-48C88.0768,-48 98.8221,-48 108.632,-48"/>
<polygon fill="midnightblue" stroke="midnightblue" points="108.83,-51.5001 118.83,-48 108.83,-44.5001 108.83,-51.5001"/>
</g>
<!-- Node69 -->
<g id="node5" class="node"><title>Node69</title>
<g id="a_node5"><a xlink:href="$a00026.html#a4c320c13bcdc9967613253ef4c73f59f" xlink:title="gk_errexit">
<polygon fill="white" stroke="black" points="114,-0.5 114,-19.5 174,-19.5 174,-0.5 114,-0.5"/>
<text text-anchor="middle" x="144" y="-7.5" font-family="Helvetica,sans-Serif" font-size="10.00">gk_errexit</text>
</a>
</g>
</g>
<!-- Node65&#45;&gt;Node69 -->
<g id="edge4" class="edge"><title>Node65&#45;&gt;Node69</title>
<path fill="none" stroke="midnightblue" d="M65.9912,-38.411C78.5557,-33.7756 93.8301,-28.1404 107.452,-23.1147"/>
<polygon fill="midnightblue" stroke="midnightblue" points="108.847,-26.3309 117.017,-19.5859 106.424,-19.7636 108.847,-26.3309"/>
</g>
<!-- Node67 -->
<g id="node3" class="node"><title>Node67</title>
<g id="a_node3"><a xlink:href="$a01017.html#a2e311a777ffe9c80e405efa7cd2757be" xlink:title="fprintf">
<polygon fill="white" stroke="black" points="210,-38.5 210,-57.5 252,-57.5 252,-38.5 210,-38.5"/>
<text text-anchor="middle" x="231" y="-45.5" font-family="Helvetica,sans-Serif" font-size="10.00">fprintf</text>
</a>
</g>
</g>
<!-- Node66&#45;&gt;Node67 -->
<g id="edge2" class="edge"><title>Node66&#45;&gt;Node67</title>
<path fill="none" stroke="midnightblue" d="M166.011,-76.6067C176.458,-71.9364 189.256,-66.215 200.653,-61.1196"/>
<polygon fill="midnightblue" stroke="midnightblue" points="202.115,-64.3001 209.816,-57.0235 199.258,-57.9097 202.115,-64.3001"/>
</g>
<!-- Node69&#45;&gt;Node67 -->
<g id="edge5" class="edge"><title>Node69&#45;&gt;Node67</title>
<path fill="none" stroke="midnightblue" d="M166.449,-19.589C176.719,-24.1804 189.184,-29.7528 200.344,-34.7421"/>
<polygon fill="midnightblue" stroke="midnightblue" points="199.17,-38.0512 209.728,-38.9373 202.027,-31.6607 199.17,-38.0512"/>
</g>
</g>
</svg>
