<?xml version="1.0" encoding="UTF-8" standalone="no"?>
<!DOCTYPE svg PUBLIC "-//W3C//DTD SVG 1.1//EN"
 "http://www.w3.org/Graphics/SVG/1.1/DTD/svg11.dtd">
<!-- Generated by graphviz version 2.36.0 (20140111.2315)
 -->
<!-- Title: Print2WayRefineStats Pages: 1 -->
<svg width="406pt" height="66pt"
 viewBox="0.00 0.00 406.00 66.00" xmlns="http://www.w3.org/2000/svg" xmlns:xlink="http://www.w3.org/1999/xlink">
<g id="graph0" class="graph" transform="scale(1 1) rotate(0) translate(4 62)">
<title>Print2WayRefineStats</title>
<polygon fill="white" stroke="none" points="-4,4 -4,-62 402,-62 402,4 -4,4"/>
<!-- Node16 -->
<g id="node1" class="node"><title>Node16</title>
<polygon fill="#bfbfbf" stroke="black" points="0,-19.5 0,-38.5 114,-38.5 114,-19.5 0,-19.5"/>
<text text-anchor="middle" x="57" y="-26.5" font-family="Helvetica,sans-Serif" font-size="10.00">Print2WayRefineStats</text>
</g>
<!-- Node17 -->
<g id="node2" class="node"><title>Node17</title>
<g id="a_node2"><a xlink:href="a00948.html#a1c215aad2804a5cba2e54e93113bc0d5" target="_top" xlink:title="FM_2WayCutRefine">
<polygon fill="white" stroke="black" points="156.5,-38.5 156.5,-57.5 263.5,-57.5 263.5,-38.5 156.5,-38.5"/>
<text text-anchor="middle" x="210" y="-45.5" font-family="Helvetica,sans-Serif" font-size="10.00">FM_2WayCutRefine</text>
</a>
</g>
</g>
<!-- Node16&#45;&gt;Node17 -->
<g id="edge1" class="edge"><title>Node16&#45;&gt;Node17</title>
<path fill="none" stroke="midnightblue" d="M124.351,-37.3488C135.019,-38.6911 145.934,-40.0645 156.227,-41.3597"/>
<polygon fill="midnightblue" stroke="midnightblue" points="124.586,-33.8508 114.227,-36.0749 123.712,-40.796 124.586,-33.8508"/>
</g>
<!-- Node19 -->
<g id="node4" class="node"><title>Node19</title>
<g id="a_node4"><a xlink:href="a00948.html#aaa49d065f964af00512da0c4b3d4cad6" target="_top" xlink:title="FM_Mc2WayCutRefine">
<polygon fill="white" stroke="black" points="150,-0.5 150,-19.5 270,-19.5 270,-0.5 150,-0.5"/>
<text text-anchor="middle" x="210" y="-7.5" font-family="Helvetica,sans-Serif" font-size="10.00">FM_Mc2WayCutRefine</text>
</a>
</g>
</g>
<!-- Node16&#45;&gt;Node19 -->
<g id="edge3" class="edge"><title>Node16&#45;&gt;Node19</title>
<path fill="none" stroke="midnightblue" d="M124.19,-20.6715C132.763,-19.5927 141.5,-18.4934 149.947,-17.4305"/>
<polygon fill="midnightblue" stroke="midnightblue" points="123.712,-17.204 114.227,-21.9251 124.586,-24.1492 123.712,-17.204"/>
</g>
<!-- Node18 -->
<g id="node3" class="node"><title>Node18</title>
<g id="a_node3"><a xlink:href="a00948.html#a1ffe9ee55eb23e345beb5da3e67c501a" target="_top" xlink:title="FM_2WayRefine">
<polygon fill="white" stroke="black" points="306.5,-19.5 306.5,-38.5 397.5,-38.5 397.5,-19.5 306.5,-19.5"/>
<text text-anchor="middle" x="352" y="-26.5" font-family="Helvetica,sans-Serif" font-size="10.00">FM_2WayRefine</text>
</a>
</g>
</g>
<!-- Node17&#45;&gt;Node18 -->
<g id="edge2" class="edge"><title>Node17&#45;&gt;Node18</title>
<path fill="none" stroke="midnightblue" d="M273.593,-39.5053C284.663,-38.0029 295.983,-36.4667 306.428,-35.0491"/>
<polygon fill="midnightblue" stroke="midnightblue" points="272.968,-36.0579 263.529,-40.871 273.909,-42.9944 272.968,-36.0579"/>
</g>
<!-- Node19&#45;&gt;Node18 -->
<g id="edge4" class="edge"><title>Node19&#45;&gt;Node18</title>
<path fill="none" stroke="midnightblue" d="M280.343,-19.4108C289.206,-20.6136 298.083,-21.8184 306.405,-22.9479"/>
<polygon fill="midnightblue" stroke="midnightblue" points="280.752,-15.9344 270.373,-18.0577 279.811,-22.8708 280.752,-15.9344"/>
</g>
</g>
</svg>
