<?xml version="1.0" encoding="UTF-8" standalone="no"?>
<!DOCTYPE svg PUBLIC "-//W3C//DTD SVG 1.1//EN"
 "http://www.w3.org/Graphics/SVG/1.1/DTD/svg11.dtd">
<!-- Generated by graphviz version 2.36.0 (20140111.2315)
 -->
<!-- Title: SaveMatrix Pages: 1 -->
<svg width="156pt" height="66pt"
 viewBox="0.00 0.00 156.00 66.00" xmlns="http://www.w3.org/2000/svg" xmlns:xlink="http://www.w3.org/1999/xlink">
<g id="graph0" class="graph" transform="scale(1 1) rotate(0) translate(4 62)">
<title>SaveMatrix</title>
<polygon fill="white" stroke="none" points="-4,4 -4,-62 152,-62 152,4 -4,4"/>
<!-- Node209 -->
<g id="node1" class="node"><title>Node209</title>
<polygon fill="#bfbfbf" stroke="black" points="0.5,-19.5 0.5,-38.5 67.5,-38.5 67.5,-19.5 0.5,-19.5"/>
<text text-anchor="middle" x="34" y="-26.5" font-family="Helvetica,sans-Serif" font-size="10.00">SaveMatrix</text>
</g>
<!-- Node210 -->
<g id="node2" class="node"><title>Node210</title>
<g id="a_node2"><a xlink:href="a00291.html#a2e311a777ffe9c80e405efa7cd2757be" target="_top" xlink:title="fprintf">
<polygon fill="white" stroke="black" points="105,-38.5 105,-57.5 147,-57.5 147,-38.5 105,-38.5"/>
<text text-anchor="middle" x="126" y="-45.5" font-family="Helvetica,sans-Serif" font-size="10.00">fprintf</text>
</a>
</g>
</g>
<!-- Node209&#45;&gt;Node210 -->
<g id="edge1" class="edge"><title>Node209&#45;&gt;Node210</title>
<path fill="none" stroke="midnightblue" d="M67.7467,-35.9132C76.7055,-37.8045 86.3658,-39.8439 95.1533,-41.699"/>
<polygon fill="midnightblue" stroke="midnightblue" points="94.4664,-45.1311 104.974,-43.7722 95.9123,-38.282 94.4664,-45.1311"/>
</g>
<!-- Node211 -->
<g id="node3" class="node"><title>Node211</title>
<g id="a_node3"><a xlink:href="a00291.html#a355ed4cdac2a27aa04a6689ac2d7e86e" target="_top" xlink:title="fclose">
<polygon fill="white" stroke="black" points="104.5,-0.5 104.5,-19.5 147.5,-19.5 147.5,-0.5 104.5,-0.5"/>
<text text-anchor="middle" x="126" y="-7.5" font-family="Helvetica,sans-Serif" font-size="10.00">fclose</text>
</a>
</g>
</g>
<!-- Node209&#45;&gt;Node211 -->
<g id="edge2" class="edge"><title>Node209&#45;&gt;Node211</title>
<path fill="none" stroke="midnightblue" d="M67.7467,-22.0868C76.4652,-20.2462 85.8481,-18.2654 94.4443,-16.4507"/>
<polygon fill="midnightblue" stroke="midnightblue" points="95.3807,-19.8302 104.442,-14.34 93.9348,-12.9811 95.3807,-19.8302"/>
</g>
</g>
</svg>
