<?xml version="1.0" encoding="UTF-8" standalone="no"?>
<!DOCTYPE svg PUBLIC "-//W3C//DTD SVG 1.1//EN"
 "http://www.w3.org/Graphics/SVG/1.1/DTD/svg11.dtd">
<!-- Generated by graphviz version 2.36.0 (20140111.2315)
 -->
<!-- Title: gk_writecentersofmass Pages: 1 -->
<svg width="380pt" height="142pt"
 viewBox="0.00 0.00 380.00 142.00" xmlns="http://www.w3.org/2000/svg" xmlns:xlink="http://www.w3.org/1999/xlink">
<g id="graph0" class="graph" transform="scale(1 1) rotate(0) translate(4 138)">
<title>gk_writecentersofmass</title>
<polygon fill="white" stroke="none" points="-4,4 -4,-138 376,-138 376,4 -4,4"/>
<!-- Node35 -->
<g id="node1" class="node"><title>Node35</title>
<polygon fill="#bfbfbf" stroke="black" points="0.5,-38.5 0.5,-57.5 119.5,-57.5 119.5,-38.5 0.5,-38.5"/>
<text text-anchor="middle" x="60" y="-45.5" font-family="Helvetica,sans-Serif" font-size="10.00">gk_writecentersofmass</text>
</g>
<!-- Node36 -->
<g id="node2" class="node"><title>Node36</title>
<g id="a_node2"><a xlink:href="$a00077.html#ab2b996e10c5bccb30204d81804adfd24" xlink:title="gk_fopen">
<polygon fill="white" stroke="black" points="156,-76.5 156,-95.5 214,-95.5 214,-76.5 156,-76.5"/>
<text text-anchor="middle" x="185" y="-83.5" font-family="Helvetica,sans-Serif" font-size="10.00">gk_fopen</text>
</a>
</g>
</g>
<!-- Node35&#45;&gt;Node36 -->
<g id="edge1" class="edge"><title>Node35&#45;&gt;Node36</title>
<path fill="none" stroke="midnightblue" d="M92.0381,-57.589C108.458,-62.6617 128.753,-68.9319 146.097,-74.2901"/>
<polygon fill="midnightblue" stroke="midnightblue" points="145.329,-77.7159 155.916,-77.3237 147.395,-71.0278 145.329,-77.7159"/>
</g>
<!-- Node39 -->
<g id="node5" class="node"><title>Node39</title>
<g id="a_node5"><a xlink:href="$a01017.html#a2e311a777ffe9c80e405efa7cd2757be" xlink:title="fprintf">
<polygon fill="white" stroke="black" points="330,-57.5 330,-76.5 372,-76.5 372,-57.5 330,-57.5"/>
<text text-anchor="middle" x="351" y="-64.5" font-family="Helvetica,sans-Serif" font-size="10.00">fprintf</text>
</a>
</g>
</g>
<!-- Node35&#45;&gt;Node39 -->
<g id="edge5" class="edge"><title>Node35&#45;&gt;Node39</title>
<path fill="none" stroke="midnightblue" d="M119.832,-51.8678C180.464,-55.854 272.59,-61.9108 319.796,-65.0143"/>
<polygon fill="midnightblue" stroke="midnightblue" points="319.766,-68.5197 329.974,-65.6834 320.225,-61.5348 319.766,-68.5197"/>
</g>
<!-- Node40 -->
<g id="node6" class="node"><title>Node40</title>
<g id="a_node6"><a xlink:href="$a01017.html#a355ed4cdac2a27aa04a6689ac2d7e86e" xlink:title="fclose">
<polygon fill="white" stroke="black" points="163.5,-0.5 163.5,-19.5 206.5,-19.5 206.5,-0.5 163.5,-0.5"/>
<text text-anchor="middle" x="185" y="-7.5" font-family="Helvetica,sans-Serif" font-size="10.00">fclose</text>
</a>
</g>
</g>
<!-- Node35&#45;&gt;Node40 -->
<g id="edge6" class="edge"><title>Node35&#45;&gt;Node40</title>
<path fill="none" stroke="midnightblue" d="M92.0381,-38.411C110.893,-32.5859 134.859,-25.1819 153.597,-19.3928"/>
<polygon fill="midnightblue" stroke="midnightblue" points="154.883,-22.6589 163.404,-16.363 152.816,-15.9708 154.883,-22.6589"/>
</g>
<!-- Node37 -->
<g id="node3" class="node"><title>Node37</title>
<g id="a_node3"><a xlink:href="$a00575.html#ae6aab5c308faac0fc539cc9c6da9fbd0" xlink:title="sprintf">
<polygon fill="white" stroke="black" points="250,-114.5 250,-133.5 294,-133.5 294,-114.5 250,-114.5"/>
<text text-anchor="middle" x="272" y="-121.5" font-family="Helvetica,sans-Serif" font-size="10.00">sprintf</text>
</a>
</g>
</g>
<!-- Node36&#45;&gt;Node37 -->
<g id="edge2" class="edge"><title>Node36&#45;&gt;Node37</title>
<path fill="none" stroke="midnightblue" d="M207.449,-95.589C217.491,-100.078 229.631,-105.506 240.598,-110.409"/>
<polygon fill="midnightblue" stroke="midnightblue" points="239.295,-113.66 249.852,-114.546 242.151,-107.269 239.295,-113.66"/>
</g>
<!-- Node38 -->
<g id="node4" class="node"><title>Node38</title>
<g id="a_node4"><a xlink:href="$a00026.html#a56d0f2cc40cd8633a784582d6200d8b5" xlink:title="errexit">
<polygon fill="white" stroke="black" points="250,-76.5 250,-95.5 294,-95.5 294,-76.5 250,-76.5"/>
<text text-anchor="middle" x="272" y="-83.5" font-family="Helvetica,sans-Serif" font-size="10.00">errexit</text>
</a>
</g>
</g>
<!-- Node36&#45;&gt;Node38 -->
<g id="edge3" class="edge"><title>Node36&#45;&gt;Node38</title>
<path fill="none" stroke="midnightblue" d="M214.304,-86C222.453,-86 231.39,-86 239.709,-86"/>
<polygon fill="midnightblue" stroke="midnightblue" points="239.811,-89.5001 249.811,-86 239.811,-82.5001 239.811,-89.5001"/>
</g>
<!-- Node38&#45;&gt;Node39 -->
<g id="edge4" class="edge"><title>Node38&#45;&gt;Node39</title>
<path fill="none" stroke="midnightblue" d="M294.041,-80.8082C302.042,-78.8339 311.319,-76.5446 319.992,-74.4047"/>
<polygon fill="midnightblue" stroke="midnightblue" points="320.911,-77.7828 329.782,-71.9889 319.234,-70.9866 320.911,-77.7828"/>
</g>
</g>
</svg>
