<?xml version="1.0" encoding="UTF-8" standalone="no"?>
<!DOCTYPE svg PUBLIC "-//W3C//DTD SVG 1.1//EN"
 "http://www.w3.org/Graphics/SVG/1.1/DTD/svg11.dtd">
<!-- Generated by graphviz version 2.36.0 (20140111.2315)
 -->
<!-- Title: BuildIntMatrix Pages: 1 -->
<svg width="302pt" height="218pt"
 viewBox="0.00 0.00 302.00 218.00" xmlns="http://www.w3.org/2000/svg" xmlns:xlink="http://www.w3.org/1999/xlink">
<g id="graph0" class="graph" transform="scale(1 1) rotate(0) translate(4 214)">
<title>BuildIntMatrix</title>
<polygon fill="white" stroke="none" points="-4,4 -4,-214 298,-214 298,4 -4,4"/>
<!-- Node15 -->
<g id="node1" class="node"><title>Node15</title>
<polygon fill="#bfbfbf" stroke="black" points="0.5,-95.5 0.5,-114.5 77.5,-114.5 77.5,-95.5 0.5,-95.5"/>
<text text-anchor="middle" x="39" y="-102.5" font-family="Helvetica,sans-Serif" font-size="10.00">BuildIntMatrix</text>
</g>
<!-- Node16 -->
<g id="node2" class="node"><title>Node16</title>
<g id="a_node2"><a xlink:href="a00203.html#a73ad96b82acf2bf80fd24823a58b3f14" target="_top" xlink:title="FacePair2d">
<polygon fill="white" stroke="black" points="133,-190.5 133,-209.5 201,-209.5 201,-190.5 133,-190.5"/>
<text text-anchor="middle" x="167" y="-197.5" font-family="Helvetica,sans-Serif" font-size="10.00">FacePair2d</text>
</a>
</g>
</g>
<!-- Node15&#45;&gt;Node16 -->
<g id="edge1" class="edge"><title>Node15&#45;&gt;Node16</title>
<path fill="none" stroke="midnightblue" d="M53.1724,-122.534C66.7579,-139.546 89.3824,-165.063 114,-181 119.809,-184.761 126.464,-187.909 133.029,-190.492"/>
<polygon fill="midnightblue" stroke="midnightblue" points="55.832,-120.252 46.9293,-114.509 50.3069,-124.551 55.832,-120.252"/>
</g>
<!-- Node18 -->
<g id="node4" class="node"><title>Node18</title>
<g id="a_node4"><a xlink:href="a00206.html#af31fd6654ededed596d98c090d8748b5" target="_top" xlink:title="ReadMesh2d">
<polygon fill="white" stroke="black" points="129,-152.5 129,-171.5 205,-171.5 205,-152.5 129,-152.5"/>
<text text-anchor="middle" x="167" y="-159.5" font-family="Helvetica,sans-Serif" font-size="10.00">ReadMesh2d</text>
</a>
</g>
</g>
<!-- Node15&#45;&gt;Node18 -->
<g id="edge3" class="edge"><title>Node15&#45;&gt;Node18</title>
<path fill="none" stroke="midnightblue" d="M66.0954,-119.405C80.0966,-126.876 97.7665,-135.899 114,-143 121.661,-146.351 130.121,-149.619 137.951,-152.473"/>
<polygon fill="midnightblue" stroke="midnightblue" points="67.5136,-116.193 57.0513,-114.523 64.1886,-122.353 67.5136,-116.193"/>
</g>
<!-- Node19 -->
<g id="node5" class="node"><title>Node19</title>
<g id="a_node5"><a xlink:href="a00206.html#a992690ab68b8564681b5a038ca111413" target="_top" xlink:title="ReadMesh2d_linear">
<polygon fill="white" stroke="black" points="114,-114.5 114,-133.5 220,-133.5 220,-114.5 114,-114.5"/>
<text text-anchor="middle" x="167" y="-121.5" font-family="Helvetica,sans-Serif" font-size="10.00">ReadMesh2d_linear</text>
</a>
</g>
</g>
<!-- Node15&#45;&gt;Node19 -->
<g id="edge5" class="edge"><title>Node15&#45;&gt;Node19</title>
<path fill="none" stroke="midnightblue" d="M87.8911,-112.222C96.3542,-113.498 105.204,-114.832 113.779,-116.125"/>
<polygon fill="midnightblue" stroke="midnightblue" points="88.2143,-108.731 77.8042,-110.701 87.1705,-115.653 88.2143,-108.731"/>
</g>
<!-- Node20 -->
<g id="node6" class="node"><title>Node20</title>
<g id="a_node6"><a xlink:href="a00212.html#a004c52e87250e61b258755469b25bbe9" target="_top" xlink:title="LoadBalance3d">
<polygon fill="white" stroke="black" points="124,-0.5 124,-19.5 210,-19.5 210,-0.5 124,-0.5"/>
<text text-anchor="middle" x="167" y="-7.5" font-family="Helvetica,sans-Serif" font-size="10.00">LoadBalance3d</text>
</a>
</g>
</g>
<!-- Node15&#45;&gt;Node20 -->
<g id="edge6" class="edge"><title>Node15&#45;&gt;Node20</title>
<path fill="none" stroke="midnightblue" d="M53.1724,-87.4661C66.7579,-70.4538 89.3824,-44.9367 114,-29 119.809,-25.2393 126.464,-22.091 133.029,-19.5082"/>
<polygon fill="midnightblue" stroke="midnightblue" points="50.3069,-85.4494 46.9293,-95.4914 55.832,-89.7475 50.3069,-85.4494"/>
</g>
<!-- Node22 -->
<g id="node8" class="node"><title>Node22</title>
<g id="a_node8"><a xlink:href="a00215.html#ae31747f9df306a59e6f4df61fddfe15f" target="_top" xlink:title="ReadMesh3d">
<polygon fill="white" stroke="black" points="129,-38.5 129,-57.5 205,-57.5 205,-38.5 129,-38.5"/>
<text text-anchor="middle" x="167" y="-45.5" font-family="Helvetica,sans-Serif" font-size="10.00">ReadMesh3d</text>
</a>
</g>
</g>
<!-- Node15&#45;&gt;Node22 -->
<g id="edge8" class="edge"><title>Node15&#45;&gt;Node22</title>
<path fill="none" stroke="midnightblue" d="M66.0954,-90.5949C80.0966,-83.1236 97.7665,-74.1011 114,-67 121.661,-63.6487 130.121,-60.3809 137.951,-57.5269"/>
<polygon fill="midnightblue" stroke="midnightblue" points="64.1886,-87.6468 57.0513,-95.4768 67.5136,-93.8067 64.1886,-87.6468"/>
</g>
<!-- Node23 -->
<g id="node9" class="node"><title>Node23</title>
<g id="a_node9"><a xlink:href="a00221.html#a35ba318a20f8b83eefe63eeb1e1ac4b0" target="_top" xlink:title="StartUp2d">
<polygon fill="white" stroke="black" points="136,-76.5 136,-95.5 198,-95.5 198,-76.5 136,-76.5"/>
<text text-anchor="middle" x="167" y="-83.5" font-family="Helvetica,sans-Serif" font-size="10.00">StartUp2d</text>
</a>
</g>
</g>
<!-- Node15&#45;&gt;Node23 -->
<g id="edge9" class="edge"><title>Node15&#45;&gt;Node23</title>
<path fill="none" stroke="midnightblue" d="M88.0986,-97.747C104.135,-95.3288 121.538,-92.7045 135.82,-90.551"/>
<polygon fill="midnightblue" stroke="midnightblue" points="87.1705,-94.3473 77.8042,-99.2994 88.2143,-101.269 87.1705,-94.3473"/>
</g>
<!-- Node17 -->
<g id="node3" class="node"><title>Node17</title>
<g id="a_node3"><a xlink:href="a00179.html#a3c04138a5bfe5d72780bb7e82a18e627" target="_top" xlink:title="main">
<polygon fill="white" stroke="black" points="256,-152.5 256,-171.5 294,-171.5 294,-152.5 256,-152.5"/>
<text text-anchor="middle" x="275" y="-159.5" font-family="Helvetica,sans-Serif" font-size="10.00">main</text>
</a>
</g>
</g>
<!-- Node16&#45;&gt;Node17 -->
<g id="edge2" class="edge"><title>Node16&#45;&gt;Node17</title>
<path fill="none" stroke="midnightblue" d="M204.595,-186.881C221.939,-180.663 241.883,-173.513 255.928,-168.478"/>
<polygon fill="midnightblue" stroke="midnightblue" points="202.981,-183.742 194.748,-190.411 205.343,-190.331 202.981,-183.742"/>
</g>
<!-- Node18&#45;&gt;Node17 -->
<g id="edge4" class="edge"><title>Node18&#45;&gt;Node17</title>
<path fill="none" stroke="midnightblue" d="M215.369,-162C229.728,-162 244.644,-162 255.838,-162"/>
<polygon fill="midnightblue" stroke="midnightblue" points="215.074,-158.5 205.074,-162 215.074,-165.5 215.074,-158.5"/>
</g>
<!-- Node21 -->
<g id="node7" class="node"><title>Node21</title>
<g id="a_node7"><a xlink:href="a00182.html#a3c04138a5bfe5d72780bb7e82a18e627" target="_top" xlink:title="main">
<polygon fill="white" stroke="black" points="256,-0.5 256,-19.5 294,-19.5 294,-0.5 256,-0.5"/>
<text text-anchor="middle" x="275" y="-7.5" font-family="Helvetica,sans-Serif" font-size="10.00">main</text>
</a>
</g>
</g>
<!-- Node20&#45;&gt;Node21 -->
<g id="edge7" class="edge"><title>Node20&#45;&gt;Node21</title>
<path fill="none" stroke="midnightblue" d="M220.407,-10C233.219,-10 246.077,-10 255.987,-10"/>
<polygon fill="midnightblue" stroke="midnightblue" points="220.199,-6.5001 210.199,-10 220.199,-13.5001 220.199,-6.5001"/>
</g>
<!-- Node23&#45;&gt;Node17 -->
<g id="edge10" class="edge"><title>Node23&#45;&gt;Node17</title>
<path fill="none" stroke="midnightblue" d="M207.57,-98.2308C211.909,-100.216 216.146,-102.467 220,-105 239.822,-118.026 257.645,-139.677 267.029,-152.211"/>
<polygon fill="midnightblue" stroke="midnightblue" points="208.592,-94.8669 198.012,-94.3012 205.93,-101.341 208.592,-94.8669"/>
</g>
</g>
</svg>
