<?xml version="1.0" encoding="UTF-8" standalone="no"?>
<!DOCTYPE svg PUBLIC "-//W3C//DTD SVG 1.1//EN"
 "http://www.w3.org/Graphics/SVG/1.1/DTD/svg11.dtd">
<!-- Generated by graphviz version 2.36.0 (20140111.2315)
 -->
<!-- Title: ArcSyn3sis/include/Mesh.h Pages: 1 -->
<!--zoomable 176 -->
<svg id="main" version="1.1" xmlns="http://www.w3.org/2000/svg" xmlns:xlink="http://www.w3.org/1999/xlink" xml:space="preserve" onload="init(evt)">
<style type="text/css"><![CDATA[
.edge:hover path { stroke: red; }
.edge:hover polygon { stroke: red; fill: red; }
]]></style>
<script type="text/javascript"><![CDATA[
var edges = document.getElementsByTagName('g');
if (edges && edges.length) {
  for (var i=0;i<edges.length;i++) {
    if (edges[i].id.substr(0,4)=='edge') {
      edges[i].setAttribute('class','edge');
    }
  }
}
]]></script>
        <defs>
                <circle id="rim" cx="0" cy="0" r="7"/>
                <circle id="rim2" cx="0" cy="0" r="3.5"/>
                <g id="zoomPlus">
                        <use xlink:href="#rim" fill="#404040">
                                <set attributeName="fill" to="#808080" begin="zoomplus.mouseover" end="zoomplus.mouseout"/>
                        </use>
                        <path d="M-4,0h8M0,-4v8" fill="none" stroke="white" stroke-width="1.5" pointer-events="none"/>
                </g>
                <g id="zoomMin">
                        <use xlink:href="#rim" fill="#404040">
                                <set attributeName="fill" to="#808080" begin="zoomminus.mouseover" end="zoomminus.mouseout"/>
                        </use>
                        <path d="M-4,0h8" fill="none" stroke="white" stroke-width="1.5" pointer-events="none"/>
                </g>
                <g id="dirArrow">
                        <path fill="none" stroke="white" stroke-width="1.5" d="M0,-3.0v7 M-2.5,-0.5L0,-3.0L2.5,-0.5"/>
                </g>
               <g id="resetDef">
                       <use xlink:href="#rim2" fill="#404040">
                               <set attributeName="fill" to="#808080" begin="reset.mouseover" end="reset.mouseout"/>
                       </use>
               </g>
        </defs>

<script type="text/javascript">
var viewWidth = 1662;
var viewHeight = 176;
var sectionId = 'dynsection-1';
</script>
<script xlink:href="svgpan.js"/>
<svg id="graph" class="graph">
<g id="viewport">
<title>ArcSyn3sis/include/Mesh.h</title>
<polygon fill="white" stroke="none" points="-4,4 -4,-172 1658,-172 1658,4 -4,4"/>
<!-- Node2 -->
<g id="node1" class="node"><title>Node2</title>
<polygon fill="#bfbfbf" stroke="black" points="772.5,-137 772.5,-167 873.5,-167 873.5,-137 772.5,-137"/>
<text text-anchor="start" x="780.5" y="-155" font-family="Helvetica,sans-Serif" font-size="10.00">ArcSyn3sis/include</text>
<text text-anchor="middle" x="823" y="-144" font-family="Helvetica,sans-Serif" font-size="10.00">/Mesh.h</text>
</g>
<!-- Node3 -->
<g id="node2" class="node"><title>Node3</title>
<g id="a_node2"><a xlink:href="a00116.html" target="_top" xlink:title="ArcSyn3sis/include\l/fem.h">
<polygon fill="white" stroke="black" points="772.5,-69 772.5,-99 873.5,-99 873.5,-69 772.5,-69"/>
<text text-anchor="start" x="780.5" y="-87" font-family="Helvetica,sans-Serif" font-size="10.00">ArcSyn3sis/include</text>
<text text-anchor="middle" x="823" y="-76" font-family="Helvetica,sans-Serif" font-size="10.00">/fem.h</text>
</a>
</g>
</g>
<!-- Node2&#45;&gt;Node3 -->
<g id="edge1" class="edge"><title>Node2&#45;&gt;Node3</title>
<path fill="none" stroke="midnightblue" d="M823,-126.532C823,-117.361 823,-107.245 823,-99.2931"/>
<polygon fill="midnightblue" stroke="midnightblue" points="819.5,-126.679 823,-136.679 826.5,-126.679 819.5,-126.679"/>
</g>
<!-- Node4 -->
<g id="node3" class="node"><title>Node4</title>
<g id="a_node3"><a xlink:href="a00134.html" target="_top" xlink:title="ArcSyn3sis/main.cpp">
<polygon fill="white" stroke="black" points="0,-6.5 0,-25.5 110,-25.5 110,-6.5 0,-6.5"/>
<text text-anchor="middle" x="55" y="-13.5" font-family="Helvetica,sans-Serif" font-size="10.00">ArcSyn3sis/main.cpp</text>
</a>
</g>
</g>
<!-- Node3&#45;&gt;Node4 -->
<g id="edge2" class="edge"><title>Node3&#45;&gt;Node4</title>
<path fill="none" stroke="midnightblue" d="M762.036,-81.8181C639.529,-78.7319 355.013,-67.9761 119,-32 108.508,-30.4007 97.1926,-27.9837 87.037,-25.5543"/>
<polygon fill="midnightblue" stroke="midnightblue" points="762.247,-85.3241 772.33,-82.0688 762.418,-78.3262 762.247,-85.3241"/>
</g>
<!-- Node5 -->
<g id="node4" class="node"><title>Node5</title>
<g id="a_node4"><a xlink:href="a00140.html" target="_top" xlink:title="ArcSyn3sis/src/bidg\l_constants.cpp">
<polygon fill="white" stroke="black" points="128,-1 128,-31 232,-31 232,-1 128,-1"/>
<text text-anchor="start" x="136" y="-19" font-family="Helvetica,sans-Serif" font-size="10.00">ArcSyn3sis/src/bidg</text>
<text text-anchor="middle" x="180" y="-8" font-family="Helvetica,sans-Serif" font-size="10.00">_constants.cpp</text>
</a>
</g>
</g>
<!-- Node3&#45;&gt;Node5 -->
<g id="edge3" class="edge"><title>Node3&#45;&gt;Node5</title>
<path fill="none" stroke="midnightblue" d="M762.247,-80.7517C655.953,-76.1348 429.594,-63.2604 241,-32 238.095,-31.5185 235.124,-30.9717 232.134,-30.3787"/>
<polygon fill="midnightblue" stroke="midnightblue" points="762.32,-84.2579 772.46,-81.1858 762.618,-77.2642 762.32,-84.2579"/>
</g>
<!-- Node6 -->
<g id="node5" class="node"><title>Node6</title>
<g id="a_node5"><a xlink:href="a00146.html" target="_top" xlink:title="ArcSyn3sis/src/FacePair3d.cpp">
<polygon fill="white" stroke="black" points="250.5,-6.5 250.5,-25.5 405.5,-25.5 405.5,-6.5 250.5,-6.5"/>
<text text-anchor="middle" x="328" y="-13.5" font-family="Helvetica,sans-Serif" font-size="10.00">ArcSyn3sis/src/FacePair3d.cpp</text>
</a>
</g>
</g>
<!-- Node3&#45;&gt;Node6 -->
<g id="edge4" class="edge"><title>Node3&#45;&gt;Node6</title>
<path fill="none" stroke="midnightblue" d="M761.969,-76.2655C682.094,-67.2469 537.818,-50.2538 415,-32 402.114,-30.0848 388.193,-27.7877 375.346,-25.5735"/>
<polygon fill="midnightblue" stroke="midnightblue" points="762.001,-79.7912 772.33,-77.4314 762.784,-72.8351 762.001,-79.7912"/>
</g>
<!-- Node7 -->
<g id="node6" class="node"><title>Node7</title>
<g id="a_node6"><a xlink:href="a00149.html" target="_top" xlink:title="ArcSyn3sis/src/Mesh2d.cpp">
<polygon fill="white" stroke="black" points="424,-6.5 424,-25.5 564,-25.5 564,-6.5 424,-6.5"/>
<text text-anchor="middle" x="494" y="-13.5" font-family="Helvetica,sans-Serif" font-size="10.00">ArcSyn3sis/src/Mesh2d.cpp</text>
</a>
</g>
</g>
<!-- Node3&#45;&gt;Node7 -->
<g id="edge5" class="edge"><title>Node3&#45;&gt;Node7</title>
<path fill="none" stroke="midnightblue" d="M762.127,-70.7885C696.594,-57.642 594.046,-37.0701 536.623,-25.5505"/>
<polygon fill="midnightblue" stroke="midnightblue" points="761.822,-74.2968 772.315,-72.8321 763.199,-67.4335 761.822,-74.2968"/>
</g>
<!-- Node8 -->
<g id="node7" class="node"><title>Node8</title>
<g id="a_node7"><a xlink:href="a00152.html" target="_top" xlink:title="ArcSyn3sis/src/occa\l_routines.cpp">
<polygon fill="white" stroke="black" points="582.5,-1 582.5,-31 689.5,-31 689.5,-1 582.5,-1"/>
<text text-anchor="start" x="590.5" y="-19" font-family="Helvetica,sans-Serif" font-size="10.00">ArcSyn3sis/src/occa</text>
<text text-anchor="middle" x="636" y="-8" font-family="Helvetica,sans-Serif" font-size="10.00">_routines.cpp</text>
</a>
</g>
</g>
<!-- Node3&#45;&gt;Node8 -->
<g id="edge6" class="edge"><title>Node3&#45;&gt;Node8</title>
<path fill="none" stroke="midnightblue" d="M773.28,-65.4519C742.761,-54.6805 704.205,-41.0722 675.728,-31.0218"/>
<polygon fill="midnightblue" stroke="midnightblue" points="772.289,-68.8135 782.884,-68.8413 774.619,-62.2126 772.289,-68.8135"/>
</g>
<!-- Node9 -->
<g id="node8" class="node"><title>Node9</title>
<g id="a_node8"><a xlink:href="a00155.html" target="_top" xlink:title="ArcSyn3sis/src/old\l/LoadBalance3d.cpp">
<polygon fill="white" stroke="black" points="708,-1 708,-31 816,-31 816,-1 708,-1"/>
<text text-anchor="start" x="716" y="-19" font-family="Helvetica,sans-Serif" font-size="10.00">ArcSyn3sis/src/old</text>
<text text-anchor="middle" x="762" y="-8" font-family="Helvetica,sans-Serif" font-size="10.00">/LoadBalance3d.cpp</text>
</a>
</g>
</g>
<!-- Node3&#45;&gt;Node9 -->
<g id="edge7" class="edge"><title>Node3&#45;&gt;Node9</title>
<path fill="none" stroke="midnightblue" d="M802.846,-61.1939C793.757,-51.3605 783.279,-40.0228 775.21,-31.2931"/>
<polygon fill="midnightblue" stroke="midnightblue" points="800.406,-63.7108 809.764,-68.679 805.547,-58.9596 800.406,-63.7108"/>
</g>
<!-- Node10 -->
<g id="node9" class="node"><title>Node10</title>
<g id="a_node9"><a xlink:href="a00158.html" target="_top" xlink:title="ArcSyn3sis/src/old\l/Mesh3d.cpp">
<polygon fill="white" stroke="black" points="834.5,-1 834.5,-31 933.5,-31 933.5,-1 834.5,-1"/>
<text text-anchor="start" x="842.5" y="-19" font-family="Helvetica,sans-Serif" font-size="10.00">ArcSyn3sis/src/old</text>
<text text-anchor="middle" x="884" y="-8" font-family="Helvetica,sans-Serif" font-size="10.00">/Mesh3d.cpp</text>
</a>
</g>
</g>
<!-- Node3&#45;&gt;Node10 -->
<g id="edge8" class="edge"><title>Node3&#45;&gt;Node10</title>
<path fill="none" stroke="midnightblue" d="M843.154,-61.1939C852.243,-51.3605 862.721,-40.0228 870.79,-31.2931"/>
<polygon fill="midnightblue" stroke="midnightblue" points="840.453,-58.9596 836.236,-68.679 845.594,-63.7108 840.453,-58.9596"/>
</g>
<!-- Node11 -->
<g id="node10" class="node"><title>Node11</title>
<g id="a_node10"><a xlink:href="a00164.html" target="_top" xlink:title="ArcSyn3sis/src/StartUp2d.cpp">
<polygon fill="white" stroke="black" points="951.5,-6.5 951.5,-25.5 1100.5,-25.5 1100.5,-6.5 951.5,-6.5"/>
<text text-anchor="middle" x="1026" y="-13.5" font-family="Helvetica,sans-Serif" font-size="10.00">ArcSyn3sis/src/StartUp2d.cpp</text>
</a>
</g>
</g>
<!-- Node3&#45;&gt;Node11 -->
<g id="edge9" class="edge"><title>Node3&#45;&gt;Node11</title>
<path fill="none" stroke="midnightblue" d="M876.088,-65.7398C915.797,-52.8296 968.414,-35.7224 999.589,-25.5868"/>
<polygon fill="midnightblue" stroke="midnightblue" points="874.976,-62.4209 866.549,-68.8413 877.141,-69.0779 874.976,-62.4209"/>
</g>
<!-- Node12 -->
<g id="node11" class="node"><title>Node12</title>
<g id="a_node11"><a xlink:href="a00167.html" target="_top" xlink:title="ArcSyn3sis/src/tri10bidg.cpp">
<polygon fill="white" stroke="black" points="1118.5,-6.5 1118.5,-25.5 1261.5,-25.5 1261.5,-6.5 1118.5,-6.5"/>
<text text-anchor="middle" x="1190" y="-13.5" font-family="Helvetica,sans-Serif" font-size="10.00">ArcSyn3sis/src/tri10bidg.cpp</text>
</a>
</g>
</g>
<!-- Node3&#45;&gt;Node12 -->
<g id="edge10" class="edge"><title>Node3&#45;&gt;Node12</title>
<path fill="none" stroke="midnightblue" d="M883.726,-72.2918C941.635,-62.0518 1031.29,-46.1236 1109,-32 1120.4,-29.9285 1132.69,-27.6661 1144.17,-25.5411"/>
<polygon fill="midnightblue" stroke="midnightblue" points="882.886,-68.886 873.648,-74.0732 884.104,-75.7791 882.886,-68.886"/>
</g>
<!-- Node13 -->
<g id="node12" class="node"><title>Node13</title>
<g id="a_node12"><a xlink:href="a00170.html" target="_top" xlink:title="ArcSyn3sis/src/Utils.cpp">
<polygon fill="white" stroke="black" points="1280,-6.5 1280,-25.5 1404,-25.5 1404,-6.5 1280,-6.5"/>
<text text-anchor="middle" x="1342" y="-13.5" font-family="Helvetica,sans-Serif" font-size="10.00">ArcSyn3sis/src/Utils.cpp</text>
</a>
</g>
</g>
<!-- Node3&#45;&gt;Node13 -->
<g id="edge11" class="edge"><title>Node3&#45;&gt;Node13</title>
<path fill="none" stroke="midnightblue" d="M883.955,-77.833C970.222,-70.1148 1132.72,-54.0832 1270,-32 1281.22,-30.1951 1293.34,-27.8323 1304.38,-25.5175"/>
<polygon fill="midnightblue" stroke="midnightblue" points="883.47,-74.3621 873.819,-78.7329 884.089,-81.3347 883.47,-74.3621"/>
</g>
<!-- Node14 -->
<g id="node13" class="node"><title>Node14</title>
<g id="a_node13"><a xlink:href="a00240.html" target="_top" xlink:title="ArcSyn3sis/src/write\l_algs/write_vtu.cpp">
<polygon fill="white" stroke="black" points="1422.5,-1 1422.5,-31 1529.5,-31 1529.5,-1 1422.5,-1"/>
<text text-anchor="start" x="1430.5" y="-19" font-family="Helvetica,sans-Serif" font-size="10.00">ArcSyn3sis/src/write</text>
<text text-anchor="middle" x="1476" y="-8" font-family="Helvetica,sans-Serif" font-size="10.00">_algs/write_vtu.cpp</text>
</a>
</g>
</g>
<!-- Node3&#45;&gt;Node14 -->
<g id="edge12" class="edge"><title>Node3&#45;&gt;Node14</title>
<path fill="none" stroke="midnightblue" d="M883.825,-80.7025C991.23,-75.9881 1221.26,-62.9397 1413,-32 1416.11,-31.4985 1419.29,-30.9273 1422.49,-30.3075"/>
<polygon fill="midnightblue" stroke="midnightblue" points="883.66,-77.2063 873.819,-81.133 883.961,-84.1998 883.66,-77.2063"/>
</g>
<!-- Node15 -->
<g id="node14" class="node"><title>Node15</title>
<g id="a_node14"><a xlink:href="a00188.html" target="_top" xlink:title="ArcSyn3sis/src/write\l_vtu.cpp">
<polygon fill="white" stroke="black" points="1547.5,-1 1547.5,-31 1654.5,-31 1654.5,-1 1547.5,-1"/>
<text text-anchor="start" x="1555.5" y="-19" font-family="Helvetica,sans-Serif" font-size="10.00">ArcSyn3sis/src/write</text>
<text text-anchor="middle" x="1601" y="-8" font-family="Helvetica,sans-Serif" font-size="10.00">_vtu.cpp</text>
</a>
</g>
</g>
<!-- Node3&#45;&gt;Node15 -->
<g id="edge13" class="edge"><title>Node3&#45;&gt;Node15</title>
<path fill="none" stroke="midnightblue" d="M883.626,-81.9928C1007.34,-79.2094 1297.52,-68.9536 1538,-32 1541,-31.5389 1544.07,-31.0083 1547.16,-30.4278"/>
<polygon fill="midnightblue" stroke="midnightblue" points="883.514,-78.4944 873.592,-82.2103 883.665,-85.4927 883.514,-78.4944"/>
</g>
</g>
</svg>
        <g id="navigator" transform="translate(0 0)" fill="#404254">
                <rect fill="#f2f5e9" fill-opacity="0.5" stroke="#606060" stroke-width=".5" x="0" y="0" width="60" height="60"/>
                <use id="zoomplus" xlink:href="#zoomPlus" x="17" y="9" onmousedown="handleZoom(evt,'in')"/>
                <use id="zoomminus" xlink:href="#zoomMin" x="42" y="9" onmousedown="handleZoom(evt,'out')"/>
                <use id="reset" xlink:href="#resetDef" x="30" y="36" onmousedown="handleReset()"/>
                <g id="arrowUp" xlink:href="#dirArrow" transform="translate(30 24)" onmousedown="handlePan(0,-1)">
                  <use xlink:href="#rim" fill="#404040">
                        <set attributeName="fill" to="#808080" begin="arrowUp.mouseover" end="arrowUp.mouseout"/>
                  </use>
                  <path fill="none" stroke="white" stroke-width="1.5" d="M0,-3.0v7 M-2.5,-0.5L0,-3.0L2.5,-0.5"/>
                </g>
                <g id="arrowRight" xlink:href="#dirArrow" transform="rotate(90) translate(36 -43)" onmousedown="handlePan(1,0)">
                  <use xlink:href="#rim" fill="#404040">
                        <set attributeName="fill" to="#808080" begin="arrowRight.mouseover" end="arrowRight.mouseout"/>
                  </use>
                  <path fill="none" stroke="white" stroke-width="1.5" d="M0,-3.0v7 M-2.5,-0.5L0,-3.0L2.5,-0.5"/>
                </g>
                <g id="arrowDown" xlink:href="#dirArrow" transform="rotate(180) translate(-30 -48)" onmousedown="handlePan(0,1)">
                  <use xlink:href="#rim" fill="#404040">
                        <set attributeName="fill" to="#808080" begin="arrowDown.mouseover" end="arrowDown.mouseout"/>
                  </use>
                  <path fill="none" stroke="white" stroke-width="1.5" d="M0,-3.0v7 M-2.5,-0.5L0,-3.0L2.5,-0.5"/>
                </g>
                <g id="arrowLeft" xlink:href="#dirArrow" transform="rotate(270) translate(-36 17)" onmousedown="handlePan(-1,0)">
                  <use xlink:href="#rim" fill="#404040">
                        <set attributeName="fill" to="#808080" begin="arrowLeft.mouseover" end="arrowLeft.mouseout"/>
                  </use>
                  <path fill="none" stroke="white" stroke-width="1.5" d="M0,-3.0v7 M-2.5,-0.5L0,-3.0L2.5,-0.5"/>
                </g>
        </g>
        <svg viewBox="0 0 15 15" width="100%" height="30px" preserveAspectRatio="xMaxYMin meet">
         <g id="arrow_out" transform="scale(0.3 0.3)">
          <a xlink:href="a00121_org.svg" target="_base">
           <rect id="button" ry="5" rx="5" y="6" x="6" height="38" width="38"
                fill="#f2f5e9" fill-opacity="0.5" stroke="#606060" stroke-width="1.0"/>
           <path id="arrow"
             d="M 11.500037,31.436501 C 11.940474,20.09759 22.043105,11.32322 32.158766,21.979434 L 37.068811,17.246167 C 37.068811,17.246167 37.088388,32 37.088388,32 L 22.160133,31.978069 C 22.160133,31.978069 26.997745,27.140456 26.997745,27.140456 C 18.528582,18.264221 13.291696,25.230495 11.500037,31.436501 z"
             style="fill:#404040;"/>
          </a>
         </g>
        </svg>
</svg>
