<?xml version="1.0" encoding="UTF-8" standalone="no"?>
<!DOCTYPE svg PUBLIC "-//W3C//DTD SVG 1.1//EN"
 "http://www.w3.org/Graphics/SVG/1.1/DTD/svg11.dtd">
<!-- Generated by graphviz version 2.36.0 (20140111.2315)
 -->
<!-- Title: inverse Pages: 1 -->
<svg width="230pt" height="28pt"
 viewBox="0.00 0.00 230.00 28.00" xmlns="http://www.w3.org/2000/svg" xmlns:xlink="http://www.w3.org/1999/xlink">
<g id="graph0" class="graph" transform="scale(1 1) rotate(0) translate(4 24)">
<title>inverse</title>
<polygon fill="white" stroke="none" points="-4,4 -4,-24 226,-24 226,4 -4,4"/>
<!-- Node125 -->
<g id="node1" class="node"><title>Node125</title>
<polygon fill="#bfbfbf" stroke="black" points="0.5,-0.5 0.5,-19.5 49.5,-19.5 49.5,-0.5 0.5,-0.5"/>
<text text-anchor="middle" x="25" y="-7.5" font-family="Helvetica,sans-Serif" font-size="10.00">inverse</text>
</g>
<!-- Node126 -->
<g id="node2" class="node"><title>Node126</title>
<g id="a_node2"><a xlink:href="a00221.html#a35ba318a20f8b83eefe63eeb1e1ac4b0" target="_top" xlink:title="StartUp2d">
<polygon fill="white" stroke="black" points="86,-0.5 86,-19.5 148,-19.5 148,-0.5 86,-0.5"/>
<text text-anchor="middle" x="117" y="-7.5" font-family="Helvetica,sans-Serif" font-size="10.00">StartUp2d</text>
</a>
</g>
</g>
<!-- Node125&#45;&gt;Node126 -->
<g id="edge1" class="edge"><title>Node125&#45;&gt;Node126</title>
<path fill="none" stroke="midnightblue" d="M59.6905,-10C68.2355,-10 77.3622,-10 85.7261,-10"/>
<polygon fill="midnightblue" stroke="midnightblue" points="59.6465,-6.5001 49.6464,-10 59.6464,-13.5001 59.6465,-6.5001"/>
</g>
<!-- Node127 -->
<g id="node3" class="node"><title>Node127</title>
<g id="a_node3"><a xlink:href="a00179.html#a3c04138a5bfe5d72780bb7e82a18e627" target="_top" xlink:title="main">
<polygon fill="white" stroke="black" points="184,-0.5 184,-19.5 222,-19.5 222,-0.5 184,-0.5"/>
<text text-anchor="middle" x="203" y="-7.5" font-family="Helvetica,sans-Serif" font-size="10.00">main</text>
</a>
</g>
</g>
<!-- Node126&#45;&gt;Node127 -->
<g id="edge2" class="edge"><title>Node126&#45;&gt;Node127</title>
<path fill="none" stroke="midnightblue" d="M158.544,-10C167.361,-10 176.264,-10 183.696,-10"/>
<polygon fill="midnightblue" stroke="midnightblue" points="158.326,-6.5001 148.326,-10 158.326,-13.5001 158.326,-6.5001"/>
</g>
</g>
</svg>
