<?xml version="1.0" encoding="UTF-8" standalone="no"?>
<!DOCTYPE svg PUBLIC "-//W3C//DTD SVG 1.1//EN"
 "http://www.w3.org/Graphics/SVG/1.1/DTD/svg11.dtd">
<!-- Generated by graphviz version 2.36.0 (20140111.2315)
 -->
<!-- Title: gk_gkmcoreAdd Pages: 1 -->
<svg width="272pt" height="28pt"
 viewBox="0.00 0.00 272.00 28.00" xmlns="http://www.w3.org/2000/svg" xmlns:xlink="http://www.w3.org/1999/xlink">
<g id="graph0" class="graph" transform="scale(1 1) rotate(0) translate(4 24)">
<title>gk_gkmcoreAdd</title>
<polygon fill="white" stroke="none" points="-4,4 -4,-24 268,-24 268,4 -4,4"/>
<!-- Node0 -->
<g id="node1" class="node"><title>Node0</title>
<polygon fill="#bfbfbf" stroke="black" points="0.5,-0.5 0.5,-19.5 89.5,-19.5 89.5,-0.5 0.5,-0.5"/>
<text text-anchor="middle" x="45" y="-7.5" font-family="Helvetica,sans-Serif" font-size="10.00">gk_gkmcoreAdd</text>
</g>
<!-- Node1 -->
<g id="node2" class="node"><title>Node1</title>
<g id="a_node2"><a xlink:href="$a00026.html#a4c320c13bcdc9967613253ef4c73f59f" xlink:title="gk_errexit">
<polygon fill="white" stroke="black" points="126,-0.5 126,-19.5 186,-19.5 186,-0.5 126,-0.5"/>
<text text-anchor="middle" x="156" y="-7.5" font-family="Helvetica,sans-Serif" font-size="10.00">gk_errexit</text>
</a>
</g>
</g>
<!-- Node0&#45;&gt;Node1 -->
<g id="edge1" class="edge"><title>Node0&#45;&gt;Node1</title>
<path fill="none" stroke="midnightblue" d="M89.7064,-10C98.3805,-10 107.435,-10 115.942,-10"/>
<polygon fill="midnightblue" stroke="midnightblue" points="115.985,-13.5001 125.985,-10 115.985,-6.5001 115.985,-13.5001"/>
</g>
<!-- Node2 -->
<g id="node3" class="node"><title>Node2</title>
<g id="a_node3"><a xlink:href="$a01017.html#a2e311a777ffe9c80e405efa7cd2757be" xlink:title="fprintf">
<polygon fill="white" stroke="black" points="222,-0.5 222,-19.5 264,-19.5 264,-0.5 222,-0.5"/>
<text text-anchor="middle" x="243" y="-7.5" font-family="Helvetica,sans-Serif" font-size="10.00">fprintf</text>
</a>
</g>
</g>
<!-- Node1&#45;&gt;Node2 -->
<g id="edge2" class="edge"><title>Node1&#45;&gt;Node2</title>
<path fill="none" stroke="midnightblue" d="M186.252,-10C194.491,-10 203.468,-10 211.763,-10"/>
<polygon fill="midnightblue" stroke="midnightblue" points="211.799,-13.5001 221.799,-10 211.799,-6.5001 211.799,-13.5001"/>
</g>
</g>
</svg>
