<?xml version="1.0" encoding="UTF-8" standalone="no"?>
<!DOCTYPE svg PUBLIC "-//W3C//DTD SVG 1.1//EN"
 "http://www.w3.org/Graphics/SVG/1.1/DTD/svg11.dtd">
<!-- Generated by graphviz version 2.36.0 (20140111.2315)
 -->
<!-- Title: gk_writealphacarbons Pages: 1 -->
<svg width="374pt" height="142pt"
 viewBox="0.00 0.00 374.00 142.00" xmlns="http://www.w3.org/2000/svg" xmlns:xlink="http://www.w3.org/1999/xlink">
<g id="graph0" class="graph" transform="scale(1 1) rotate(0) translate(4 138)">
<title>gk_writealphacarbons</title>
<polygon fill="white" stroke="none" points="-4,4 -4,-138 370,-138 370,4 -4,4"/>
<!-- Node21 -->
<g id="node1" class="node"><title>Node21</title>
<polygon fill="#bfbfbf" stroke="black" points="0,-38.5 0,-57.5 114,-57.5 114,-38.5 0,-38.5"/>
<text text-anchor="middle" x="57" y="-45.5" font-family="Helvetica,sans-Serif" font-size="10.00">gk_writealphacarbons</text>
</g>
<!-- Node22 -->
<g id="node2" class="node"><title>Node22</title>
<g id="a_node2"><a xlink:href="$a00077.html#ab2b996e10c5bccb30204d81804adfd24" xlink:title="gk_fopen">
<polygon fill="white" stroke="black" points="150,-76.5 150,-95.5 208,-95.5 208,-76.5 150,-76.5"/>
<text text-anchor="middle" x="179" y="-83.5" font-family="Helvetica,sans-Serif" font-size="10.00">gk_fopen</text>
</a>
</g>
</g>
<!-- Node21&#45;&gt;Node22 -->
<g id="edge1" class="edge"><title>Node21&#45;&gt;Node22</title>
<path fill="none" stroke="midnightblue" d="M88.2811,-57.589C103.921,-62.5415 123.164,-68.6353 139.814,-73.9076"/>
<polygon fill="midnightblue" stroke="midnightblue" points="139.199,-77.3844 149.79,-77.0667 141.313,-70.711 139.199,-77.3844"/>
</g>
<!-- Node25 -->
<g id="node5" class="node"><title>Node25</title>
<g id="a_node5"><a xlink:href="$a01017.html#a2e311a777ffe9c80e405efa7cd2757be" xlink:title="fprintf">
<polygon fill="white" stroke="black" points="324,-57.5 324,-76.5 366,-76.5 366,-57.5 324,-57.5"/>
<text text-anchor="middle" x="345" y="-64.5" font-family="Helvetica,sans-Serif" font-size="10.00">fprintf</text>
</a>
</g>
</g>
<!-- Node21&#45;&gt;Node25 -->
<g id="edge5" class="edge"><title>Node21&#45;&gt;Node25</title>
<path fill="none" stroke="midnightblue" d="M114.163,-51.7311C173.928,-55.7015 266.261,-61.8355 313.653,-64.9839"/>
<polygon fill="midnightblue" stroke="midnightblue" points="313.663,-68.4922 323.873,-65.6629 314.127,-61.5076 313.663,-68.4922"/>
</g>
<!-- Node26 -->
<g id="node6" class="node"><title>Node26</title>
<g id="a_node6"><a xlink:href="$a01017.html#a355ed4cdac2a27aa04a6689ac2d7e86e" xlink:title="fclose">
<polygon fill="white" stroke="black" points="157.5,-0.5 157.5,-19.5 200.5,-19.5 200.5,-0.5 157.5,-0.5"/>
<text text-anchor="middle" x="179" y="-7.5" font-family="Helvetica,sans-Serif" font-size="10.00">fclose</text>
</a>
</g>
</g>
<!-- Node21&#45;&gt;Node26 -->
<g id="edge6" class="edge"><title>Node21&#45;&gt;Node26</title>
<path fill="none" stroke="midnightblue" d="M88.2811,-38.411C106.442,-32.6601 129.462,-25.3703 147.637,-19.6148"/>
<polygon fill="midnightblue" stroke="midnightblue" points="148.698,-22.9504 157.175,-16.5947 146.585,-16.277 148.698,-22.9504"/>
</g>
<!-- Node23 -->
<g id="node3" class="node"><title>Node23</title>
<g id="a_node3"><a xlink:href="$a00575.html#ae6aab5c308faac0fc539cc9c6da9fbd0" xlink:title="sprintf">
<polygon fill="white" stroke="black" points="244,-114.5 244,-133.5 288,-133.5 288,-114.5 244,-114.5"/>
<text text-anchor="middle" x="266" y="-121.5" font-family="Helvetica,sans-Serif" font-size="10.00">sprintf</text>
</a>
</g>
</g>
<!-- Node22&#45;&gt;Node23 -->
<g id="edge2" class="edge"><title>Node22&#45;&gt;Node23</title>
<path fill="none" stroke="midnightblue" d="M201.449,-95.589C211.491,-100.078 223.631,-105.506 234.598,-110.409"/>
<polygon fill="midnightblue" stroke="midnightblue" points="233.295,-113.66 243.852,-114.546 236.151,-107.269 233.295,-113.66"/>
</g>
<!-- Node24 -->
<g id="node4" class="node"><title>Node24</title>
<g id="a_node4"><a xlink:href="$a00026.html#a56d0f2cc40cd8633a784582d6200d8b5" xlink:title="errexit">
<polygon fill="white" stroke="black" points="244,-76.5 244,-95.5 288,-95.5 288,-76.5 244,-76.5"/>
<text text-anchor="middle" x="266" y="-83.5" font-family="Helvetica,sans-Serif" font-size="10.00">errexit</text>
</a>
</g>
</g>
<!-- Node22&#45;&gt;Node24 -->
<g id="edge3" class="edge"><title>Node22&#45;&gt;Node24</title>
<path fill="none" stroke="midnightblue" d="M208.304,-86C216.453,-86 225.39,-86 233.709,-86"/>
<polygon fill="midnightblue" stroke="midnightblue" points="233.811,-89.5001 243.811,-86 233.811,-82.5001 233.811,-89.5001"/>
</g>
<!-- Node24&#45;&gt;Node25 -->
<g id="edge4" class="edge"><title>Node24&#45;&gt;Node25</title>
<path fill="none" stroke="midnightblue" d="M288.041,-80.8082C296.042,-78.8339 305.319,-76.5446 313.992,-74.4047"/>
<polygon fill="midnightblue" stroke="midnightblue" points="314.911,-77.7828 323.782,-71.9889 313.234,-70.9866 314.911,-77.7828"/>
</g>
</g>
</svg>
