<?xml version="1.0" encoding="UTF-8" standalone="no"?>
<!DOCTYPE svg PUBLIC "-//W3C//DTD SVG 1.1//EN"
 "http://www.w3.org/Graphics/SVG/1.1/DTD/svg11.dtd">
<!-- Generated by graphviz version 2.36.0 (20140111.2315)
 -->
<!-- Title: BuildVector Pages: 1 -->
<svg width="292pt" height="180pt"
 viewBox="0.00 0.00 292.00 180.00" xmlns="http://www.w3.org/2000/svg" xmlns:xlink="http://www.w3.org/1999/xlink">
<g id="graph0" class="graph" transform="scale(1 1) rotate(0) translate(4 176)">
<title>BuildVector</title>
<polygon fill="white" stroke="none" points="-4,4 -4,-176 288,-176 288,4 -4,4"/>
<!-- Node50 -->
<g id="node1" class="node"><title>Node50</title>
<polygon fill="#bfbfbf" stroke="black" points="0,-76.5 0,-95.5 68,-95.5 68,-76.5 0,-76.5"/>
<text text-anchor="middle" x="34" y="-83.5" font-family="Helvetica,sans-Serif" font-size="10.00">BuildVector</text>
</g>
<!-- Node51 -->
<g id="node2" class="node"><title>Node51</title>
<g id="a_node2"><a xlink:href="a00161.html#af31fd6654ededed596d98c090d8748b5" target="_top" xlink:title="ReadMesh2d">
<polygon fill="white" stroke="black" points="119,-152.5 119,-171.5 195,-171.5 195,-152.5 119,-152.5"/>
<text text-anchor="middle" x="157" y="-159.5" font-family="Helvetica,sans-Serif" font-size="10.00">ReadMesh2d</text>
</a>
</g>
</g>
<!-- Node50&#45;&gt;Node51 -->
<g id="edge1" class="edge"><title>Node50&#45;&gt;Node51</title>
<path fill="none" stroke="midnightblue" d="M51.8918,-102.772C65.1564,-115.209 84.5744,-131.868 104,-143 110.338,-146.632 117.496,-149.782 124.428,-152.416"/>
<polygon fill="midnightblue" stroke="midnightblue" points="54.121,-100.06 44.4828,-95.6605 49.2738,-105.11 54.121,-100.06"/>
</g>
<!-- Node53 -->
<g id="node4" class="node"><title>Node53</title>
<g id="a_node4"><a xlink:href="a00161.html#a992690ab68b8564681b5a038ca111413" target="_top" xlink:title="ReadMesh2d_linear">
<polygon fill="white" stroke="black" points="104,-114.5 104,-133.5 210,-133.5 210,-114.5 104,-114.5"/>
<text text-anchor="middle" x="157" y="-121.5" font-family="Helvetica,sans-Serif" font-size="10.00">ReadMesh2d_linear</text>
</a>
</g>
</g>
<!-- Node50&#45;&gt;Node53 -->
<g id="edge3" class="edge"><title>Node50&#45;&gt;Node53</title>
<path fill="none" stroke="midnightblue" d="M75.3771,-98.6804C91.7262,-103.815 110.288,-109.644 125.476,-114.414"/>
<polygon fill="midnightblue" stroke="midnightblue" points="76.1227,-95.2461 65.5334,-95.589 74.0253,-101.924 76.1227,-95.2461"/>
</g>
<!-- Node54 -->
<g id="node5" class="node"><title>Node54</title>
<g id="a_node5"><a xlink:href="a00167.html#a004c52e87250e61b258755469b25bbe9" target="_top" xlink:title="LoadBalance3d">
<polygon fill="white" stroke="black" points="114,-76.5 114,-95.5 200,-95.5 200,-76.5 114,-76.5"/>
<text text-anchor="middle" x="157" y="-83.5" font-family="Helvetica,sans-Serif" font-size="10.00">LoadBalance3d</text>
</a>
</g>
</g>
<!-- Node50&#45;&gt;Node54 -->
<g id="edge4" class="edge"><title>Node50&#45;&gt;Node54</title>
<path fill="none" stroke="midnightblue" d="M78.3657,-86C89.9204,-86 102.384,-86 113.871,-86"/>
<polygon fill="midnightblue" stroke="midnightblue" points="78.0638,-82.5001 68.0638,-86 78.0637,-89.5001 78.0638,-82.5001"/>
</g>
<!-- Node55 -->
<g id="node6" class="node"><title>Node55</title>
<g id="a_node6"><a xlink:href="a00170.html#ae31747f9df306a59e6f4df61fddfe15f" target="_top" xlink:title="ReadMesh3d">
<polygon fill="white" stroke="black" points="119,-38.5 119,-57.5 195,-57.5 195,-38.5 119,-38.5"/>
<text text-anchor="middle" x="157" y="-45.5" font-family="Helvetica,sans-Serif" font-size="10.00">ReadMesh3d</text>
</a>
</g>
</g>
<!-- Node50&#45;&gt;Node55 -->
<g id="edge5" class="edge"><title>Node50&#45;&gt;Node55</title>
<path fill="none" stroke="midnightblue" d="M75.3771,-73.3196C91.7262,-68.1852 110.288,-62.3559 125.476,-57.5859"/>
<polygon fill="midnightblue" stroke="midnightblue" points="74.0253,-70.0755 65.5334,-76.411 76.1227,-76.7539 74.0253,-70.0755"/>
</g>
<!-- Node56 -->
<g id="node7" class="node"><title>Node56</title>
<g id="a_node7"><a xlink:href="a00176.html#a35ba318a20f8b83eefe63eeb1e1ac4b0" target="_top" xlink:title="StartUp2d">
<polygon fill="white" stroke="black" points="126,-0.5 126,-19.5 188,-19.5 188,-0.5 126,-0.5"/>
<text text-anchor="middle" x="157" y="-7.5" font-family="Helvetica,sans-Serif" font-size="10.00">StartUp2d</text>
</a>
</g>
</g>
<!-- Node50&#45;&gt;Node56 -->
<g id="edge6" class="edge"><title>Node50&#45;&gt;Node56</title>
<path fill="none" stroke="midnightblue" d="M51.8918,-69.2283C65.1564,-56.7911 84.5744,-40.1321 104,-29 110.755,-25.129 118.441,-21.8055 125.793,-19.0706"/>
<polygon fill="midnightblue" stroke="midnightblue" points="49.2738,-66.8898 44.4828,-76.3395 54.121,-71.94 49.2738,-66.8898"/>
</g>
<!-- Node52 -->
<g id="node3" class="node"><title>Node52</title>
<g id="a_node3"><a xlink:href="a00146.html#a3c04138a5bfe5d72780bb7e82a18e627" target="_top" xlink:title="main">
<polygon fill="white" stroke="black" points="246,-76.5 246,-95.5 284,-95.5 284,-76.5 246,-76.5"/>
<text text-anchor="middle" x="265" y="-83.5" font-family="Helvetica,sans-Serif" font-size="10.00">main</text>
</a>
</g>
</g>
<!-- Node51&#45;&gt;Node52 -->
<g id="edge2" class="edge"><title>Node51&#45;&gt;Node52</title>
<path fill="none" stroke="midnightblue" d="M200.635,-148.312C203.896,-146.701 207.059,-144.932 210,-143 229.822,-129.974 247.645,-108.323 257.029,-95.7888"/>
<polygon fill="midnightblue" stroke="midnightblue" points="199.016,-145.201 191.284,-152.445 201.846,-151.604 199.016,-145.201"/>
</g>
<!-- Node56&#45;&gt;Node52 -->
<g id="edge7" class="edge"><title>Node56&#45;&gt;Node52</title>
<path fill="none" stroke="midnightblue" d="M197.57,-22.2308C201.909,-24.2164 206.146,-26.4672 210,-29 229.822,-42.0256 247.645,-63.6771 257.029,-76.2112"/>
<polygon fill="midnightblue" stroke="midnightblue" points="198.592,-18.8669 188.012,-18.3012 195.93,-25.341 198.592,-18.8669"/>
</g>
</g>
</svg>
