<?xml version="1.0" encoding="UTF-8" standalone="no"?>
<!DOCTYPE svg PUBLIC "-//W3C//DTD SVG 1.1//EN"
 "http://www.w3.org/Graphics/SVG/1.1/DTD/svg11.dtd">
<!-- Generated by graphviz version 2.36.0 (20140111.2315)
 -->
<!-- Title: ArcSyn3sis/include/parmetis.h Pages: 1 -->
<svg width="120pt" height="152pt"
 viewBox="0.00 0.00 120.00 152.00" xmlns="http://www.w3.org/2000/svg" xmlns:xlink="http://www.w3.org/1999/xlink">
<g id="graph0" class="graph" transform="scale(1 1) rotate(0) translate(4 148)">
<title>ArcSyn3sis/include/parmetis.h</title>
<polygon fill="white" stroke="none" points="-4,4 -4,-148 116,-148 116,4 -4,4"/>
<!-- Node0 -->
<g id="node1" class="node"><title>Node0</title>
<polygon fill="#bfbfbf" stroke="black" points="0.5,-113 0.5,-143 101.5,-143 101.5,-113 0.5,-113"/>
<text text-anchor="start" x="8.5" y="-131" font-family="Helvetica,sans-Serif" font-size="10.00">ArcSyn3sis/include</text>
<text text-anchor="middle" x="51" y="-120" font-family="Helvetica,sans-Serif" font-size="10.00">/parmetis.h</text>
</g>
<!-- Node1 -->
<g id="node2" class="node"><title>Node1</title>
<polygon fill="white" stroke="#bfbfbf" points="-0.5,-56.5 -0.5,-75.5 40.5,-75.5 40.5,-56.5 -0.5,-56.5"/>
<text text-anchor="middle" x="20" y="-63.5" font-family="Helvetica,sans-Serif" font-size="10.00">mpi.h</text>
</g>
<!-- Node0&#45;&gt;Node1 -->
<g id="edge1" class="edge"><title>Node0&#45;&gt;Node1</title>
<path fill="none" stroke="midnightblue" d="M43.6534,-112.781C39.3345,-104.422 33.8349,-93.7773 29.2258,-84.8565"/>
<polygon fill="midnightblue" stroke="midnightblue" points="32.2105,-83.0082 24.5108,-75.7305 25.9915,-86.2214 32.2105,-83.0082"/>
</g>
<!-- Node2 -->
<g id="node3" class="node"><title>Node2</title>
<g id="a_node3"><a xlink:href="a00161.html" target="_top" xlink:title="This file contains function prototypes and constant definitions for METIS. ">
<polygon fill="white" stroke="black" points="58.5,-56.5 58.5,-75.5 107.5,-75.5 107.5,-56.5 58.5,-56.5"/>
<text text-anchor="middle" x="83" y="-63.5" font-family="Helvetica,sans-Serif" font-size="10.00">metis.h</text>
</a>
</g>
</g>
<!-- Node0&#45;&gt;Node2 -->
<g id="edge2" class="edge"><title>Node0&#45;&gt;Node2</title>
<path fill="none" stroke="midnightblue" d="M58.5836,-112.781C63.0897,-104.332 68.841,-93.5481 73.6297,-84.5693"/>
<polygon fill="midnightblue" stroke="midnightblue" points="76.726,-86.2012 78.3437,-75.7305 70.5495,-82.907 76.726,-86.2012"/>
</g>
<!-- Node3 -->
<g id="node4" class="node"><title>Node3</title>
<polygon fill="white" stroke="#bfbfbf" points="53.5,-0.5 53.5,-19.5 112.5,-19.5 112.5,-0.5 53.5,-0.5"/>
<text text-anchor="middle" x="83" y="-7.5" font-family="Helvetica,sans-Serif" font-size="10.00">inttypes.h</text>
</g>
<!-- Node2&#45;&gt;Node3 -->
<g id="edge3" class="edge"><title>Node2&#45;&gt;Node3</title>
<path fill="none" stroke="midnightblue" d="M83,-56.083C83,-49.0059 83,-38.8611 83,-29.9865"/>
<polygon fill="midnightblue" stroke="midnightblue" points="86.5001,-29.751 83,-19.7511 79.5001,-29.7511 86.5001,-29.751"/>
</g>
</g>
</svg>
