<?xml version="1.0" encoding="UTF-8" standalone="no"?>
<!DOCTYPE svg PUBLIC "-//W3C//DTD SVG 1.1//EN"
 "http://www.w3.org/Graphics/SVG/1.1/DTD/svg11.dtd">
<!-- Generated by graphviz version 2.36.0 (20140111.2315)
 -->
<!-- Title: test_strstr_replace Pages: 1 -->
<svg width="676pt" height="256pt"
 viewBox="0.00 0.00 676.00 256.00" xmlns="http://www.w3.org/2000/svg" xmlns:xlink="http://www.w3.org/1999/xlink">
<g id="graph0" class="graph" transform="scale(1 1) rotate(0) translate(4 252)">
<title>test_strstr_replace</title>
<polygon fill="white" stroke="none" points="-4,4 -4,-252 672,-252 672,4 -4,4"/>
<!-- Node16 -->
<g id="node1" class="node"><title>Node16</title>
<polygon fill="#bfbfbf" stroke="black" points="0.5,-66.5 0.5,-85.5 99.5,-85.5 99.5,-66.5 0.5,-66.5"/>
<text text-anchor="middle" x="50" y="-73.5" font-family="Helvetica,sans-Serif" font-size="10.00">test_strstr_replace</text>
</g>
<!-- Node17 -->
<g id="node2" class="node"><title>Node17</title>
<g id="a_node2"><a xlink:href="a00077.html#a46e5cf8f76a1ece74adf1b8b9dfcb275" target="_top" xlink:title="Regex&#45;based search&#45;and&#45;replace function. ">
<polygon fill="white" stroke="black" points="136.5,-95.5 136.5,-114.5 229.5,-114.5 229.5,-95.5 136.5,-95.5"/>
<text text-anchor="middle" x="183" y="-102.5" font-family="Helvetica,sans-Serif" font-size="10.00">gk_strstr_replace</text>
</a>
</g>
</g>
<!-- Node16&#45;&gt;Node17 -->
<g id="edge1" class="edge"><title>Node16&#45;&gt;Node17</title>
<path fill="none" stroke="midnightblue" d="M94.2574,-85.5761C105.324,-88.026 117.353,-90.6888 128.854,-93.2349"/>
<polygon fill="midnightblue" stroke="midnightblue" points="128.268,-96.6898 138.788,-95.434 129.781,-89.8552 128.268,-96.6898"/>
</g>
<!-- Node21 -->
<g id="node6" class="node"><title>Node21</title>
<g id="a_node6"><a xlink:href="a00077.html#ac8df62c4e3d0910711a9874f9cc58884" target="_top" xlink:title="gk_free">
<polygon fill="white" stroke="black" points="272,-0.5 272,-19.5 322,-19.5 322,-0.5 272,-0.5"/>
<text text-anchor="middle" x="297" y="-7.5" font-family="Helvetica,sans-Serif" font-size="10.00">gk_free</text>
</a>
</g>
</g>
<!-- Node16&#45;&gt;Node21 -->
<g id="edge15" class="edge"><title>Node16&#45;&gt;Node21</title>
<path fill="none" stroke="midnightblue" d="M86.3634,-66.4735C133.302,-53.8289 215.629,-31.6509 261.915,-19.1821"/>
<polygon fill="midnightblue" stroke="midnightblue" points="263.022,-22.5088 271.767,-16.528 261.201,-15.7497 263.022,-22.5088"/>
</g>
<!-- Node18 -->
<g id="node3" class="node"><title>Node18</title>
<g id="a_node3"><a xlink:href="a00092.html#a430f0c9389ac6c08be2286257691317b" target="_top" xlink:title="regcomp">
<polygon fill="white" stroke="black" points="269.5,-228.5 269.5,-247.5 324.5,-247.5 324.5,-228.5 269.5,-228.5"/>
<text text-anchor="middle" x="297" y="-235.5" font-family="Helvetica,sans-Serif" font-size="10.00">regcomp</text>
</a>
</g>
</g>
<!-- Node17&#45;&gt;Node18 -->
<g id="edge2" class="edge"><title>Node17&#45;&gt;Node18</title>
<path fill="none" stroke="midnightblue" d="M189.311,-114.805C201.031,-135.801 230.875,-185.888 266,-219 267.264,-220.192 268.614,-221.352 270.015,-222.472"/>
<polygon fill="midnightblue" stroke="midnightblue" points="268.182,-225.463 278.36,-228.405 272.238,-219.758 268.182,-225.463"/>
</g>
<!-- Node19 -->
<g id="node4" class="node"><title>Node19</title>
<g id="a_node4"><a xlink:href="a00092.html#a0284fc25f2802396427939f37caccc1c" target="_top" xlink:title="regerror">
<polygon fill="white" stroke="black" points="271,-190.5 271,-209.5 323,-209.5 323,-190.5 271,-190.5"/>
<text text-anchor="middle" x="297" y="-197.5" font-family="Helvetica,sans-Serif" font-size="10.00">regerror</text>
</a>
</g>
</g>
<!-- Node17&#45;&gt;Node19 -->
<g id="edge3" class="edge"><title>Node17&#45;&gt;Node19</title>
<path fill="none" stroke="midnightblue" d="M193.334,-114.73C208.045,-129.807 237.852,-159.334 266,-181 267.612,-182.241 269.307,-183.478 271.037,-184.691"/>
<polygon fill="midnightblue" stroke="midnightblue" points="269.483,-187.86 279.752,-190.467 273.351,-182.025 269.483,-187.86"/>
</g>
<!-- Node20 -->
<g id="node5" class="node"><title>Node20</title>
<g id="a_node5"><a xlink:href="a00092.html#a179877eb45bb29da01e5101325554d73" target="_top" xlink:title="regexec">
<polygon fill="white" stroke="black" points="271,-152.5 271,-171.5 323,-171.5 323,-152.5 271,-152.5"/>
<text text-anchor="middle" x="297" y="-159.5" font-family="Helvetica,sans-Serif" font-size="10.00">regexec</text>
</a>
</g>
</g>
<!-- Node17&#45;&gt;Node20 -->
<g id="edge4" class="edge"><title>Node17&#45;&gt;Node20</title>
<path fill="none" stroke="midnightblue" d="M202.746,-114.541C220.594,-123.624 247.682,-137.41 268.072,-147.787"/>
<polygon fill="midnightblue" stroke="midnightblue" points="266.693,-151.012 277.193,-152.428 269.868,-144.773 266.693,-151.012"/>
</g>
<!-- Node17&#45;&gt;Node21 -->
<g id="edge5" class="edge"><title>Node17&#45;&gt;Node21</title>
<path fill="none" stroke="midnightblue" d="M194.455,-95.2149C215.695,-75.3494 262.212,-31.9155 266,-29 267.612,-27.7591 269.307,-26.5223 271.037,-25.3094"/>
<polygon fill="midnightblue" stroke="midnightblue" points="273.351,-27.975 279.752,-19.5328 269.483,-22.1403 273.351,-27.975"/>
</g>
<!-- Node22 -->
<g id="node7" class="node"><title>Node22</title>
<g id="a_node7"><a xlink:href="a00143.html#af62038e97ca55f14ec2557a01bd85ca2" target="_top" xlink:title="Duplicates a string. ">
<polygon fill="white" stroke="black" points="267,-114.5 267,-133.5 327,-133.5 327,-114.5 267,-114.5"/>
<text text-anchor="middle" x="297" y="-121.5" font-family="Helvetica,sans-Serif" font-size="10.00">gk_strdup</text>
</a>
</g>
</g>
<!-- Node17&#45;&gt;Node22 -->
<g id="edge6" class="edge"><title>Node17&#45;&gt;Node22</title>
<path fill="none" stroke="midnightblue" d="M229.555,-112.728C238.609,-114.264 248.04,-115.864 256.857,-117.36"/>
<polygon fill="midnightblue" stroke="midnightblue" points="256.421,-120.836 266.866,-119.058 257.592,-113.934 256.421,-120.836"/>
</g>
<!-- Node28 -->
<g id="node13" class="node"><title>Node28</title>
<g id="a_node13"><a xlink:href="a00092.html#a87e79b6d048a32ffbfdb234c4166e769" target="_top" xlink:title="regfree">
<polygon fill="white" stroke="black" points="273,-76.5 273,-95.5 321,-95.5 321,-76.5 273,-76.5"/>
<text text-anchor="middle" x="297" y="-83.5" font-family="Helvetica,sans-Serif" font-size="10.00">regfree</text>
</a>
</g>
</g>
<!-- Node17&#45;&gt;Node28 -->
<g id="edge13" class="edge"><title>Node17&#45;&gt;Node28</title>
<path fill="none" stroke="midnightblue" d="M229.555,-97.272C240.728,-95.3764 252.477,-93.3833 262.936,-91.6091"/>
<polygon fill="midnightblue" stroke="midnightblue" points="263.622,-95.0428 272.895,-89.9195 262.451,-88.1414 263.622,-95.0428"/>
</g>
<!-- Node29 -->
<g id="node14" class="node"><title>Node29</title>
<g id="a_node14"><a xlink:href="a00077.html#ab76a07ccd25288dd9acc99f5f24a7600" target="_top" xlink:title="gk_realloc">
<polygon fill="white" stroke="black" points="266,-38.5 266,-57.5 328,-57.5 328,-38.5 266,-38.5"/>
<text text-anchor="middle" x="297" y="-45.5" font-family="Helvetica,sans-Serif" font-size="10.00">gk_realloc</text>
</a>
</g>
</g>
<!-- Node17&#45;&gt;Node29 -->
<g id="edge14" class="edge"><title>Node17&#45;&gt;Node29</title>
<path fill="none" stroke="midnightblue" d="M202.746,-95.4595C220.594,-86.3761 247.682,-72.5904 268.072,-62.2133"/>
<polygon fill="midnightblue" stroke="midnightblue" points="269.868,-65.2267 277.193,-57.5716 266.693,-58.9881 269.868,-65.2267"/>
</g>
<!-- Node23 -->
<g id="node8" class="node"><title>Node23</title>
<g id="a_node8"><a xlink:href="a00077.html#aba6f76f5c67b9b7e9c2e45988d3d3e9d" target="_top" xlink:title="gk_malloc">
<polygon fill="white" stroke="black" points="364,-114.5 364,-133.5 426,-133.5 426,-114.5 364,-114.5"/>
<text text-anchor="middle" x="395" y="-121.5" font-family="Helvetica,sans-Serif" font-size="10.00">gk_malloc</text>
</a>
</g>
</g>
<!-- Node22&#45;&gt;Node23 -->
<g id="edge7" class="edge"><title>Node22&#45;&gt;Node23</title>
<path fill="none" stroke="midnightblue" d="M327.064,-124C335.393,-124 344.629,-124 353.513,-124"/>
<polygon fill="midnightblue" stroke="midnightblue" points="353.704,-127.5 363.704,-124 353.704,-120.5 353.704,-127.5"/>
</g>
<!-- Node24 -->
<g id="node9" class="node"><title>Node24</title>
<g id="a_node9"><a xlink:href="a01017.html#a2e311a777ffe9c80e405efa7cd2757be" target="_top" xlink:title="fprintf">
<polygon fill="white" stroke="black" points="626,-114.5 626,-133.5 668,-133.5 668,-114.5 626,-114.5"/>
<text text-anchor="middle" x="647" y="-121.5" font-family="Helvetica,sans-Serif" font-size="10.00">fprintf</text>
</a>
</g>
</g>
<!-- Node23&#45;&gt;Node24 -->
<g id="edge8" class="edge"><title>Node23&#45;&gt;Node24</title>
<path fill="none" stroke="midnightblue" d="M408.261,-133.719C420.891,-143.059 441.563,-156.537 462,-162 516.959,-176.691 535.62,-178.709 590,-162 604.039,-157.686 617.719,-148.525 628.044,-140.279"/>
<polygon fill="midnightblue" stroke="midnightblue" points="630.469,-142.813 635.862,-133.694 625.959,-137.46 630.469,-142.813"/>
</g>
<!-- Node25 -->
<g id="node10" class="node"><title>Node25</title>
<g id="a_node10"><a xlink:href="a00110.html#ad2327b94227019b6753b6b09400c0522" target="_top" xlink:title="gk_GetCurMemoryUsed">
<polygon fill="white" stroke="black" points="464,-133.5 464,-152.5 588,-152.5 588,-133.5 464,-133.5"/>
<text text-anchor="middle" x="526" y="-140.5" font-family="Helvetica,sans-Serif" font-size="10.00">gk_GetCurMemoryUsed</text>
</a>
</g>
</g>
<!-- Node23&#45;&gt;Node25 -->
<g id="edge9" class="edge"><title>Node23&#45;&gt;Node25</title>
<path fill="none" stroke="midnightblue" d="M426.245,-128.455C434.646,-129.692 444.139,-131.09 453.836,-132.518"/>
<polygon fill="midnightblue" stroke="midnightblue" points="453.573,-136.017 463.977,-134.012 454.593,-129.092 453.573,-136.017"/>
</g>
<!-- Node26 -->
<g id="node11" class="node"><title>Node26</title>
<g id="a_node11"><a xlink:href="a00110.html#a656fd5266ae12a96e53125486f8fea52" target="_top" xlink:title="gk_GetMaxMemoryUsed">
<polygon fill="white" stroke="black" points="462.5,-95.5 462.5,-114.5 589.5,-114.5 589.5,-95.5 462.5,-95.5"/>
<text text-anchor="middle" x="526" y="-102.5" font-family="Helvetica,sans-Serif" font-size="10.00">gk_GetMaxMemoryUsed</text>
</a>
</g>
</g>
<!-- Node23&#45;&gt;Node26 -->
<g id="edge10" class="edge"><title>Node23&#45;&gt;Node26</title>
<path fill="none" stroke="midnightblue" d="M426.245,-119.545C434.229,-118.369 443.2,-117.048 452.395,-115.694"/>
<polygon fill="midnightblue" stroke="midnightblue" points="453.04,-119.137 462.423,-114.217 452.02,-112.211 453.04,-119.137"/>
</g>
<!-- Node27 -->
<g id="node12" class="node"><title>Node27</title>
<g id="a_node12"><a xlink:href="a00026.html#a4c320c13bcdc9967613253ef4c73f59f" target="_top" xlink:title="gk_errexit">
<polygon fill="white" stroke="black" points="496,-57.5 496,-76.5 556,-76.5 556,-57.5 496,-57.5"/>
<text text-anchor="middle" x="526" y="-64.5" font-family="Helvetica,sans-Serif" font-size="10.00">gk_errexit</text>
</a>
</g>
</g>
<!-- Node23&#45;&gt;Node27 -->
<g id="edge11" class="edge"><title>Node23&#45;&gt;Node27</title>
<path fill="none" stroke="midnightblue" d="M410.436,-114.391C423.481,-106.027 443.428,-94.0202 462,-86 469.68,-82.6834 478.121,-79.7096 486.259,-77.1539"/>
<polygon fill="midnightblue" stroke="midnightblue" points="487.388,-80.4695 495.965,-74.2488 485.381,-73.7634 487.388,-80.4695"/>
</g>
<!-- Node27&#45;&gt;Node24 -->
<g id="edge12" class="edge"><title>Node27&#45;&gt;Node24</title>
<path fill="none" stroke="midnightblue" d="M556.228,-73.8252C567.104,-76.8755 579.377,-80.9396 590,-86 602.634,-92.0184 615.634,-100.663 625.925,-108.186"/>
<polygon fill="midnightblue" stroke="midnightblue" points="624.101,-111.194 634.194,-114.415 628.313,-105.603 624.101,-111.194"/>
</g>
</g>
</svg>
