<?xml version="1.0" encoding="UTF-8" standalone="no"?>
<!DOCTYPE svg PUBLIC "-//W3C//DTD SVG 1.1//EN"
 "http://www.w3.org/Graphics/SVG/1.1/DTD/svg11.dtd">
<!-- Generated by graphviz version 2.36.0 (20140111.2315)
 -->
<!-- Title: gk_seq_ReadGKMODPSSM Pages: 1 -->
<svg width="794pt" height="486pt"
 viewBox="0.00 0.00 794.00 485.65" xmlns="http://www.w3.org/2000/svg" xmlns:xlink="http://www.w3.org/1999/xlink">
<g id="graph0" class="graph" transform="scale(1 1) rotate(0) translate(4 481.654)">
<title>gk_seq_ReadGKMODPSSM</title>
<polygon fill="white" stroke="none" points="-4,4 -4,-481.654 790,-481.654 790,4 -4,4"/>
<!-- Node14 -->
<g id="node1" class="node"><title>Node14</title>
<polygon fill="#bfbfbf" stroke="black" points="0,-228.5 0,-247.5 144,-247.5 144,-228.5 0,-228.5"/>
<text text-anchor="middle" x="72" y="-235.5" font-family="Helvetica,sans-Serif" font-size="10.00">gk_seq_ReadGKMODPSSM</text>
</g>
<!-- Node15 -->
<g id="node2" class="node"><title>Node15</title>
<g id="a_node2"><a xlink:href="$a00137.html#a8b9f1e33d58df397a7f0f923a25ec256" xlink:title="This function creates the localizations for the various sequences. ">
<polygon fill="white" stroke="black" points="310.5,-418.5 310.5,-437.5 445.5,-437.5 445.5,-418.5 310.5,-418.5"/>
<text text-anchor="middle" x="378" y="-425.5" font-family="Helvetica,sans-Serif" font-size="10.00">gk_i2cc2i_create_common</text>
</a>
</g>
</g>
<!-- Node14&#45;&gt;Node15 -->
<g id="edge1" class="edge"><title>Node14&#45;&gt;Node15</title>
<path fill="none" stroke="midnightblue" d="M75.6728,-247.532C84.6146,-277.439 116.56,-369.763 180,-409 215.409,-430.901 261.434,-436.326 300.092,-435.965"/>
<polygon fill="midnightblue" stroke="midnightblue" points="300.347,-439.46 310.266,-435.738 300.19,-432.462 300.347,-439.46"/>
</g>
<!-- Node16 -->
<g id="node3" class="node"><title>Node16</title>
<g id="a_node3"><a xlink:href="$a00077.html#aba6f76f5c67b9b7e9c2e45988d3d3e9d" xlink:title="gk_malloc">
<polygon fill="white" stroke="black" points="482,-399.5 482,-418.5 544,-418.5 544,-399.5 482,-399.5"/>
<text text-anchor="middle" x="513" y="-406.5" font-family="Helvetica,sans-Serif" font-size="10.00">gk_malloc</text>
</a>
</g>
</g>
<!-- Node14&#45;&gt;Node16 -->
<g id="edge15" class="edge"><title>Node14&#45;&gt;Node16</title>
<path fill="none" stroke="midnightblue" d="M74.8496,-247.604C81.7622,-280.59 109.399,-389.756 180,-436 278.981,-500.832 331.69,-477.556 446,-447 462.446,-442.604 479.043,-433.018 491.48,-424.574"/>
<polygon fill="midnightblue" stroke="midnightblue" points="493.606,-427.358 499.739,-418.719 489.557,-421.647 493.606,-427.358"/>
</g>
<!-- Node21 -->
<g id="node8" class="node"><title>Node21</title>
<g id="a_node8"><a xlink:href="$a00035.html#a739112cb142f2e96d6952140c66cd31c" xlink:title="gk_getfilestats">
<polygon fill="white" stroke="black" points="187,-228.5 187,-247.5 267,-247.5 267,-228.5 187,-228.5"/>
<text text-anchor="middle" x="227" y="-235.5" font-family="Helvetica,sans-Serif" font-size="10.00">gk_getfilestats</text>
</a>
</g>
</g>
<!-- Node14&#45;&gt;Node21 -->
<g id="edge8" class="edge"><title>Node14&#45;&gt;Node21</title>
<path fill="none" stroke="midnightblue" d="M144.125,-238C155.128,-238 166.281,-238 176.665,-238"/>
<polygon fill="midnightblue" stroke="midnightblue" points="176.76,-241.5 186.76,-238 176.76,-234.5 176.76,-241.5"/>
</g>
<!-- Node22 -->
<g id="node9" class="node"><title>Node22</title>
<g id="a_node9"><a xlink:href="$a00077.html#ab2b996e10c5bccb30204d81804adfd24" xlink:title="gk_fopen">
<polygon fill="white" stroke="black" points="349,-266.5 349,-285.5 407,-285.5 407,-266.5 349,-266.5"/>
<text text-anchor="middle" x="378" y="-273.5" font-family="Helvetica,sans-Serif" font-size="10.00">gk_fopen</text>
</a>
</g>
</g>
<!-- Node14&#45;&gt;Node22 -->
<g id="edge20" class="edge"><title>Node14&#45;&gt;Node22</title>
<path fill="none" stroke="midnightblue" d="M121.877,-247.523C140.074,-250.846 160.933,-254.392 180,-257 235.001,-264.523 299.043,-270.118 338.808,-273.222"/>
<polygon fill="midnightblue" stroke="midnightblue" points="338.624,-276.718 348.863,-273.994 339.16,-269.739 338.624,-276.718"/>
</g>
<!-- Node24 -->
<g id="node11" class="node"><title>Node24</title>
<g id="a_node11"><a xlink:href="$a00026.html#a56d0f2cc40cd8633a784582d6200d8b5" xlink:title="errexit">
<polygon fill="white" stroke="black" points="491,-304.5 491,-323.5 535,-323.5 535,-304.5 491,-304.5"/>
<text text-anchor="middle" x="513" y="-311.5" font-family="Helvetica,sans-Serif" font-size="10.00">errexit</text>
</a>
</g>
</g>
<!-- Node14&#45;&gt;Node24 -->
<g id="edge21" class="edge"><title>Node14&#45;&gt;Node24</title>
<path fill="none" stroke="midnightblue" d="M95.9749,-247.642C117.374,-256.264 150.344,-268.642 180,-276 288.138,-302.829 420.871,-310.79 480.44,-313.093"/>
<polygon fill="midnightblue" stroke="midnightblue" points="480.57,-316.6 490.689,-313.461 480.82,-309.605 480.57,-316.6"/>
</g>
<!-- Node25 -->
<g id="node12" class="node"><title>Node25</title>
<g id="a_node12"><a xlink:href="$a00077.html#a0fd03cab5187904b005485109d9fa2b5" xlink:title="gk_fclose">
<polygon fill="white" stroke="black" points="348.5,-209.5 348.5,-228.5 407.5,-228.5 407.5,-209.5 348.5,-209.5"/>
<text text-anchor="middle" x="378" y="-216.5" font-family="Helvetica,sans-Serif" font-size="10.00">gk_fclose</text>
</a>
</g>
</g>
<!-- Node14&#45;&gt;Node25 -->
<g id="edge30" class="edge"><title>Node14&#45;&gt;Node25</title>
<path fill="none" stroke="midnightblue" d="M116.498,-228.488C135.839,-224.723 158.951,-220.854 180,-219 234.731,-214.178 298.347,-215.408 338.145,-216.993"/>
<polygon fill="midnightblue" stroke="midnightblue" points="338.08,-220.493 348.22,-217.422 338.379,-213.5 338.08,-220.493"/>
</g>
<!-- Node27 -->
<g id="node14" class="node"><title>Node27</title>
<g id="a_node14"><a xlink:href="$a00137.html#aab063d2d2e459531af4b4adfbf208054" xlink:title="gk_seq_init">
<polygon fill="white" stroke="black" points="193.5,-152.5 193.5,-171.5 260.5,-171.5 260.5,-152.5 193.5,-152.5"/>
<text text-anchor="middle" x="227" y="-159.5" font-family="Helvetica,sans-Serif" font-size="10.00">gk_seq_init</text>
</a>
</g>
</g>
<!-- Node14&#45;&gt;Node27 -->
<g id="edge16" class="edge"><title>Node14&#45;&gt;Node27</title>
<path fill="none" stroke="midnightblue" d="M92.3776,-228.375C118.934,-215.183 166.827,-191.393 197.482,-176.166"/>
<polygon fill="midnightblue" stroke="midnightblue" points="199.381,-179.131 206.78,-171.547 196.267,-172.861 199.381,-179.131"/>
</g>
<!-- Node28 -->
<g id="node15" class="node"><title>Node28</title>
<g id="a_node15"><a xlink:href="$a00035.html#ad732cbb6372e1eb9b396792f700091a5" xlink:title="gk_getbasename">
<polygon fill="white" stroke="black" points="180.5,-380.5 180.5,-399.5 273.5,-399.5 273.5,-380.5 180.5,-380.5"/>
<text text-anchor="middle" x="227" y="-387.5" font-family="Helvetica,sans-Serif" font-size="10.00">gk_getbasename</text>
</a>
</g>
</g>
<!-- Node14&#45;&gt;Node28 -->
<g id="edge17" class="edge"><title>Node14&#45;&gt;Node28</title>
<path fill="none" stroke="midnightblue" d="M78.4599,-247.749C92.3912,-271.827 131.599,-334.775 180,-371 182.335,-372.747 184.853,-374.364 187.467,-375.855"/>
<polygon fill="midnightblue" stroke="midnightblue" points="186.082,-379.076 196.588,-380.441 189.226,-372.822 186.082,-379.076"/>
</g>
<!-- Node30 -->
<g id="node17" class="node"><title>Node30</title>
<g id="a_node17"><a xlink:href="$a00077.html#adc708027212f8668786472b408628f64" xlink:title="Converts a string to upper case. ">
<polygon fill="white" stroke="black" points="188,-114.5 188,-133.5 266,-133.5 266,-114.5 188,-114.5"/>
<text text-anchor="middle" x="227" y="-121.5" font-family="Helvetica,sans-Serif" font-size="10.00">gk_strtoupper</text>
</a>
</g>
</g>
<!-- Node14&#45;&gt;Node30 -->
<g id="edge22" class="edge"><title>Node14&#45;&gt;Node30</title>
<path fill="none" stroke="midnightblue" d="M81.5983,-228.479C98.7605,-209.934 139.14,-168.554 180,-143 182.946,-141.157 186.102,-139.425 189.329,-137.813"/>
<polygon fill="midnightblue" stroke="midnightblue" points="190.872,-140.956 198.497,-133.6 187.949,-134.596 190.872,-140.956"/>
</g>
<!-- Node31 -->
<g id="node18" class="node"><title>Node31</title>
<g id="a_node18"><a xlink:href="$a00077.html#a10256e3a692ac19ff5056d1dc413bd29" xlink:title="gk_strtokenize">
<polygon fill="white" stroke="black" points="186.5,-342.5 186.5,-361.5 267.5,-361.5 267.5,-342.5 186.5,-342.5"/>
<text text-anchor="middle" x="227" y="-349.5" font-family="Helvetica,sans-Serif" font-size="10.00">gk_strtokenize</text>
</a>
</g>
</g>
<!-- Node14&#45;&gt;Node31 -->
<g id="edge23" class="edge"><title>Node14&#45;&gt;Node31</title>
<path fill="none" stroke="midnightblue" d="M83.0277,-247.744C101.301,-265.191 141.679,-302.336 180,-328 185.082,-331.404 190.705,-334.69 196.224,-337.683"/>
<polygon fill="midnightblue" stroke="midnightblue" points="194.814,-340.894 205.3,-342.409 198.047,-334.686 194.814,-340.894"/>
</g>
<!-- Node32 -->
<g id="node19" class="node"><title>Node32</title>
<g id="a_node19"><a xlink:href="$a00077.html#a721067a5b35f35422d141ad8652021ec" xlink:title="gk_freetokenslist">
<polygon fill="white" stroke="black" points="181,-38.5 181,-57.5 273,-57.5 273,-38.5 181,-38.5"/>
<text text-anchor="middle" x="227" y="-45.5" font-family="Helvetica,sans-Serif" font-size="10.00">gk_freetokenslist</text>
</a>
</g>
</g>
<!-- Node14&#45;&gt;Node32 -->
<g id="edge26" class="edge"><title>Node14&#45;&gt;Node32</title>
<path fill="none" stroke="midnightblue" d="M77.1422,-228.152C89.2433,-200.376 127.059,-120.297 180,-72 183.893,-68.4485 188.409,-65.2669 193.06,-62.4716"/>
<polygon fill="midnightblue" stroke="midnightblue" points="194.935,-65.4353 202.041,-57.5765 191.586,-59.2889 194.935,-65.4353"/>
</g>
<!-- Node33 -->
<g id="node20" class="node"><title>Node33</title>
<g id="a_node20"><a xlink:href="$a00077.html#ac8df62c4e3d0910711a9874f9cc58884" xlink:title="gk_free">
<polygon fill="white" stroke="black" points="353,-57.5 353,-76.5 403,-76.5 403,-57.5 353,-57.5"/>
<text text-anchor="middle" x="378" y="-64.5" font-family="Helvetica,sans-Serif" font-size="10.00">gk_free</text>
</a>
</g>
</g>
<!-- Node14&#45;&gt;Node33 -->
<g id="edge29" class="edge"><title>Node14&#45;&gt;Node33</title>
<path fill="none" stroke="midnightblue" d="M77.6654,-228.365C90.2851,-203.421 127.699,-136.488 180,-105 230.785,-74.4245 301.11,-67.7076 342.551,-66.6401"/>
<polygon fill="midnightblue" stroke="midnightblue" points="342.742,-70.1376 352.685,-66.4778 342.63,-63.1385 342.742,-70.1376"/>
</g>
<!-- Node34 -->
<g id="node21" class="node"><title>Node34</title>
<g id="a_node21"><a xlink:href="$a00623.html#ad1e7380d51df1e0043d24d3c8a860e0a" xlink:title="for">
<polygon fill="white" stroke="black" points="212.5,-0.5 212.5,-19.5 241.5,-19.5 241.5,-0.5 212.5,-0.5"/>
<text text-anchor="middle" x="227" y="-7.5" font-family="Helvetica,sans-Serif" font-size="10.00">for</text>
</a>
</g>
</g>
<!-- Node14&#45;&gt;Node34 -->
<g id="edge28" class="edge"><title>Node14&#45;&gt;Node34</title>
<path fill="none" stroke="midnightblue" d="M75.3956,-228.205C83.8866,-195.441 115.556,-88.3967 180,-29 186.273,-23.2182 194.55,-19.07 202.352,-16.1554"/>
<polygon fill="midnightblue" stroke="midnightblue" points="203.684,-19.4032 212.126,-13.0007 201.534,-12.7416 203.684,-19.4032"/>
</g>
<!-- Node15&#45;&gt;Node16 -->
<g id="edge2" class="edge"><title>Node15&#45;&gt;Node16</title>
<path fill="none" stroke="midnightblue" d="M445.89,-418.444C454.713,-417.184 463.528,-415.925 471.712,-414.755"/>
<polygon fill="midnightblue" stroke="midnightblue" points="472.29,-418.209 481.694,-413.329 471.3,-411.279 472.29,-418.209"/>
</g>
<!-- Node17 -->
<g id="node4" class="node"><title>Node17</title>
<g id="a_node4"><a xlink:href="$a01017.html#a2e311a777ffe9c80e405efa7cd2757be" xlink:title="fprintf">
<polygon fill="white" stroke="black" points="744,-418.5 744,-437.5 786,-437.5 786,-418.5 744,-418.5"/>
<text text-anchor="middle" x="765" y="-425.5" font-family="Helvetica,sans-Serif" font-size="10.00">fprintf</text>
</a>
</g>
</g>
<!-- Node16&#45;&gt;Node17 -->
<g id="edge3" class="edge"><title>Node16&#45;&gt;Node17</title>
<path fill="none" stroke="midnightblue" d="M526.261,-418.719C538.891,-428.059 559.563,-441.537 580,-447 634.959,-461.691 651.87,-456.263 708,-447 716.81,-445.546 726.097,-442.887 734.52,-440.01"/>
<polygon fill="midnightblue" stroke="midnightblue" points="735.727,-443.295 743.931,-436.591 733.337,-436.716 735.727,-443.295"/>
</g>
<!-- Node18 -->
<g id="node5" class="node"><title>Node18</title>
<g id="a_node5"><a xlink:href="$a00110.html#ad2327b94227019b6753b6b09400c0522" xlink:title="gk_GetCurMemoryUsed">
<polygon fill="white" stroke="black" points="582,-380.5 582,-399.5 706,-399.5 706,-380.5 582,-380.5"/>
<text text-anchor="middle" x="644" y="-387.5" font-family="Helvetica,sans-Serif" font-size="10.00">gk_GetCurMemoryUsed</text>
</a>
</g>
</g>
<!-- Node16&#45;&gt;Node18 -->
<g id="edge4" class="edge"><title>Node16&#45;&gt;Node18</title>
<path fill="none" stroke="midnightblue" d="M544.245,-404.545C552.646,-403.308 562.139,-401.91 571.836,-400.482"/>
<polygon fill="midnightblue" stroke="midnightblue" points="572.593,-403.908 581.977,-398.988 571.573,-396.983 572.593,-403.908"/>
</g>
<!-- Node19 -->
<g id="node6" class="node"><title>Node19</title>
<g id="a_node6"><a xlink:href="$a00110.html#a656fd5266ae12a96e53125486f8fea52" xlink:title="gk_GetMaxMemoryUsed">
<polygon fill="white" stroke="black" points="580.5,-342.5 580.5,-361.5 707.5,-361.5 707.5,-342.5 580.5,-342.5"/>
<text text-anchor="middle" x="644" y="-349.5" font-family="Helvetica,sans-Serif" font-size="10.00">gk_GetMaxMemoryUsed</text>
</a>
</g>
</g>
<!-- Node16&#45;&gt;Node19 -->
<g id="edge5" class="edge"><title>Node16&#45;&gt;Node19</title>
<path fill="none" stroke="midnightblue" d="M528.436,-399.391C541.481,-391.027 561.428,-379.02 580,-371 585.308,-368.708 590.979,-366.579 596.663,-364.639"/>
<polygon fill="midnightblue" stroke="midnightblue" points="597.743,-367.969 606.178,-361.557 595.586,-361.309 597.743,-367.969"/>
</g>
<!-- Node20 -->
<g id="node7" class="node"><title>Node20</title>
<g id="a_node7"><a xlink:href="$a00026.html#a4c320c13bcdc9967613253ef4c73f59f" xlink:title="gk_errexit">
<polygon fill="white" stroke="black" points="614,-418.5 614,-437.5 674,-437.5 674,-418.5 614,-418.5"/>
<text text-anchor="middle" x="644" y="-425.5" font-family="Helvetica,sans-Serif" font-size="10.00">gk_errexit</text>
</a>
</g>
</g>
<!-- Node16&#45;&gt;Node20 -->
<g id="edge6" class="edge"><title>Node16&#45;&gt;Node20</title>
<path fill="none" stroke="midnightblue" d="M544.245,-413.455C562.046,-416.077 584.751,-419.421 603.901,-422.241"/>
<polygon fill="midnightblue" stroke="midnightblue" points="603.429,-425.709 613.832,-423.704 604.449,-418.784 603.429,-425.709"/>
</g>
<!-- Node20&#45;&gt;Node17 -->
<g id="edge7" class="edge"><title>Node20&#45;&gt;Node17</title>
<path fill="none" stroke="midnightblue" d="M674.111,-428C692.172,-428 715.339,-428 733.631,-428"/>
<polygon fill="midnightblue" stroke="midnightblue" points="733.762,-431.5 743.762,-428 733.762,-424.5 733.762,-431.5"/>
</g>
<!-- Node21&#45;&gt;Node22 -->
<g id="edge9" class="edge"><title>Node21&#45;&gt;Node22</title>
<path fill="none" stroke="midnightblue" d="M265.599,-247.589C288.027,-253.309 316.425,-260.551 338.935,-266.292"/>
<polygon fill="midnightblue" stroke="midnightblue" points="338.266,-269.734 348.821,-268.813 339.996,-262.951 338.266,-269.734"/>
</g>
<!-- Node21&#45;&gt;Node25 -->
<g id="edge13" class="edge"><title>Node21&#45;&gt;Node25</title>
<path fill="none" stroke="midnightblue" d="M267.148,-233.008C289.181,-230.198 316.584,-226.704 338.508,-223.908"/>
<polygon fill="midnightblue" stroke="midnightblue" points="338.993,-227.375 348.47,-222.638 338.107,-220.431 338.993,-227.375"/>
</g>
<!-- Node23 -->
<g id="node10" class="node"><title>Node23</title>
<g id="a_node10"><a xlink:href="$a00575.html#ae6aab5c308faac0fc539cc9c6da9fbd0" xlink:title="sprintf">
<polygon fill="white" stroke="black" points="491,-266.5 491,-285.5 535,-285.5 535,-266.5 491,-266.5"/>
<text text-anchor="middle" x="513" y="-273.5" font-family="Helvetica,sans-Serif" font-size="10.00">sprintf</text>
</a>
</g>
</g>
<!-- Node22&#45;&gt;Node23 -->
<g id="edge10" class="edge"><title>Node22&#45;&gt;Node23</title>
<path fill="none" stroke="midnightblue" d="M407.206,-276C428.699,-276 458.289,-276 480.546,-276"/>
<polygon fill="midnightblue" stroke="midnightblue" points="480.816,-279.5 490.815,-276 480.815,-272.5 480.816,-279.5"/>
</g>
<!-- Node22&#45;&gt;Node24 -->
<g id="edge11" class="edge"><title>Node22&#45;&gt;Node24</title>
<path fill="none" stroke="midnightblue" d="M407.206,-284.059C428.895,-290.256 458.828,-298.808 481.151,-305.186"/>
<polygon fill="midnightblue" stroke="midnightblue" points="480.239,-308.565 490.815,-307.947 482.162,-301.835 480.239,-308.565"/>
</g>
<!-- Node24&#45;&gt;Node17 -->
<g id="edge12" class="edge"><title>Node24&#45;&gt;Node17</title>
<path fill="none" stroke="midnightblue" d="M535.226,-310.241C573.186,-304.702 653.793,-298.416 708,-333 735.325,-350.433 751,-386.356 758.483,-408.689"/>
<polygon fill="midnightblue" stroke="midnightblue" points="755.199,-409.914 761.514,-418.42 761.882,-407.832 755.199,-409.914"/>
</g>
<!-- Node26 -->
<g id="node13" class="node"><title>Node26</title>
<g id="a_node13"><a xlink:href="$a01017.html#a355ed4cdac2a27aa04a6689ac2d7e86e" xlink:title="fclose">
<polygon fill="white" stroke="black" points="491.5,-209.5 491.5,-228.5 534.5,-228.5 534.5,-209.5 491.5,-209.5"/>
<text text-anchor="middle" x="513" y="-216.5" font-family="Helvetica,sans-Serif" font-size="10.00">fclose</text>
</a>
</g>
</g>
<!-- Node25&#45;&gt;Node26 -->
<g id="edge14" class="edge"><title>Node25&#45;&gt;Node26</title>
<path fill="none" stroke="midnightblue" d="M407.532,-219C429.178,-219 458.895,-219 481.102,-219"/>
<polygon fill="midnightblue" stroke="midnightblue" points="481.332,-222.5 491.332,-219 481.332,-215.5 481.332,-222.5"/>
</g>
<!-- Node29 -->
<g id="node16" class="node"><title>Node29</title>
<g id="a_node16"><a xlink:href="$a00077.html#af62038e97ca55f14ec2557a01bd85ca2" xlink:title="Duplicates a string. ">
<polygon fill="white" stroke="black" points="348,-380.5 348,-399.5 408,-399.5 408,-380.5 348,-380.5"/>
<text text-anchor="middle" x="378" y="-387.5" font-family="Helvetica,sans-Serif" font-size="10.00">gk_strdup</text>
</a>
</g>
</g>
<!-- Node28&#45;&gt;Node29 -->
<g id="edge18" class="edge"><title>Node28&#45;&gt;Node29</title>
<path fill="none" stroke="midnightblue" d="M273.515,-390C293.972,-390 317.884,-390 337.566,-390"/>
<polygon fill="midnightblue" stroke="midnightblue" points="337.724,-393.5 347.724,-390 337.723,-386.5 337.724,-393.5"/>
</g>
<!-- Node29&#45;&gt;Node16 -->
<g id="edge19" class="edge"><title>Node29&#45;&gt;Node16</title>
<path fill="none" stroke="midnightblue" d="M408.187,-394.17C426.896,-396.842 451.43,-400.347 471.95,-403.279"/>
<polygon fill="midnightblue" stroke="midnightblue" points="471.565,-406.759 481.959,-404.708 472.555,-399.829 471.565,-406.759"/>
</g>
<!-- Node31&#45;&gt;Node16 -->
<g id="edge25" class="edge"><title>Node31&#45;&gt;Node16</title>
<path fill="none" stroke="midnightblue" d="M267.58,-350.379C312.037,-349.709 385.84,-352.082 446,-371 462.036,-376.043 478.423,-385.449 490.857,-393.642"/>
<polygon fill="midnightblue" stroke="midnightblue" points="488.92,-396.557 499.15,-399.312 492.871,-390.779 488.92,-396.557"/>
</g>
<!-- Node31&#45;&gt;Node29 -->
<g id="edge24" class="edge"><title>Node31&#45;&gt;Node29</title>
<path fill="none" stroke="midnightblue" d="M265.599,-361.589C287.728,-367.233 315.669,-374.359 338.032,-380.062"/>
<polygon fill="midnightblue" stroke="midnightblue" points="337.318,-383.492 347.873,-382.572 339.048,-376.709 337.318,-383.492"/>
</g>
<!-- Node32&#45;&gt;Node33 -->
<g id="edge27" class="edge"><title>Node32&#45;&gt;Node33</title>
<path fill="none" stroke="midnightblue" d="M273.109,-53.7522C295.531,-56.6113 322.183,-60.0099 342.878,-62.6489"/>
<polygon fill="midnightblue" stroke="midnightblue" points="342.446,-66.122 352.808,-63.9151 343.331,-59.1782 342.446,-66.122"/>
</g>
</g>
</svg>
