<?xml version="1.0" encoding="UTF-8" standalone="no"?>
<!DOCTYPE svg PUBLIC "-//W3C//DTD SVG 1.1//EN"
 "http://www.w3.org/Graphics/SVG/1.1/DTD/svg11.dtd">
<!-- Generated by graphviz version 2.36.0 (20140111.2315)
 -->
<!-- Title: BuildIntVector Pages: 1 -->
<svg width="396pt" height="180pt"
 viewBox="0.00 0.00 396.00 180.00" xmlns="http://www.w3.org/2000/svg" xmlns:xlink="http://www.w3.org/1999/xlink">
<g id="graph0" class="graph" transform="scale(1 1) rotate(0) translate(4 176)">
<title>BuildIntVector</title>
<polygon fill="white" stroke="none" points="-4,4 -4,-176 392,-176 392,4 -4,4"/>
<!-- Node17 -->
<g id="node1" class="node"><title>Node17</title>
<polygon fill="#bfbfbf" stroke="black" points="0.5,-76.5 0.5,-95.5 79.5,-95.5 79.5,-76.5 0.5,-76.5"/>
<text text-anchor="middle" x="40" y="-83.5" font-family="Helvetica,sans-Serif" font-size="10.00">BuildIntVector</text>
</g>
<!-- Node18 -->
<g id="node2" class="node"><title>Node18</title>
<g id="a_node2"><a xlink:href="a00146.html#a73ad96b82acf2bf80fd24823a58b3f14" target="_top" xlink:title="FacePair2d">
<polygon fill="white" stroke="black" points="242,-152.5 242,-171.5 310,-171.5 310,-152.5 242,-152.5"/>
<text text-anchor="middle" x="276" y="-159.5" font-family="Helvetica,sans-Serif" font-size="10.00">FacePair2d</text>
</a>
</g>
</g>
<!-- Node17&#45;&gt;Node18 -->
<g id="edge1" class="edge"><title>Node17&#45;&gt;Node18</title>
<path fill="none" stroke="midnightblue" d="M65.9104,-100.482C80.1999,-108.31 98.6894,-117.646 116,-124 158.23,-139.5 209.118,-150.374 241.754,-156.408"/>
<polygon fill="midnightblue" stroke="midnightblue" points="67.6177,-97.4263 57.1812,-95.6017 64.202,-103.536 67.6177,-97.4263"/>
</g>
<!-- Node20 -->
<g id="node4" class="node"><title>Node20</title>
<g id="a_node4"><a xlink:href="a00149.html#af31fd6654ededed596d98c090d8748b5" target="_top" xlink:title="ReadMesh2d">
<polygon fill="white" stroke="black" points="238,-114.5 238,-133.5 314,-133.5 314,-114.5 238,-114.5"/>
<text text-anchor="middle" x="276" y="-121.5" font-family="Helvetica,sans-Serif" font-size="10.00">ReadMesh2d</text>
</a>
</g>
</g>
<!-- Node17&#45;&gt;Node20 -->
<g id="edge3" class="edge"><title>Node17&#45;&gt;Node20</title>
<path fill="none" stroke="midnightblue" d="M84.7118,-98.0842C94.9236,-100.625 105.798,-103.106 116,-105 157.411,-112.686 205.493,-117.929 237.848,-120.929"/>
<polygon fill="midnightblue" stroke="midnightblue" points="85.3255,-94.6286 74.7702,-95.5423 83.5915,-101.41 85.3255,-94.6286"/>
</g>
<!-- Node21 -->
<g id="node5" class="node"><title>Node21</title>
<g id="a_node5"><a xlink:href="a00155.html#a004c52e87250e61b258755469b25bbe9" target="_top" xlink:title="LoadBalance3d">
<polygon fill="white" stroke="black" points="116,-76.5 116,-95.5 202,-95.5 202,-76.5 116,-76.5"/>
<text text-anchor="middle" x="159" y="-83.5" font-family="Helvetica,sans-Serif" font-size="10.00">LoadBalance3d</text>
</a>
</g>
</g>
<!-- Node17&#45;&gt;Node21 -->
<g id="edge5" class="edge"><title>Node17&#45;&gt;Node21</title>
<path fill="none" stroke="midnightblue" d="M89.6386,-86C98.318,-86 107.296,-86 115.777,-86"/>
<polygon fill="midnightblue" stroke="midnightblue" points="89.6345,-82.5001 79.6344,-86 89.6344,-89.5001 89.6345,-82.5001"/>
</g>
<!-- Node22 -->
<g id="node6" class="node"><title>Node22</title>
<g id="a_node6"><a xlink:href="a00164.html#a35ba318a20f8b83eefe63eeb1e1ac4b0" target="_top" xlink:title="StartUp2d">
<polygon fill="white" stroke="black" points="245,-38.5 245,-57.5 307,-57.5 307,-38.5 245,-38.5"/>
<text text-anchor="middle" x="276" y="-45.5" font-family="Helvetica,sans-Serif" font-size="10.00">StartUp2d</text>
</a>
</g>
</g>
<!-- Node17&#45;&gt;Node22 -->
<g id="edge6" class="edge"><title>Node17&#45;&gt;Node22</title>
<path fill="none" stroke="midnightblue" d="M84.7118,-73.9158C94.9236,-71.3745 105.798,-68.8936 116,-67 160.554,-58.7303 212.832,-53.2887 244.935,-50.4265"/>
<polygon fill="midnightblue" stroke="midnightblue" points="83.5915,-70.5896 74.7702,-76.4577 85.3255,-77.3714 83.5915,-70.5896"/>
</g>
<!-- Node23 -->
<g id="node7" class="node"><title>Node23</title>
<g id="a_node7"><a xlink:href="a00164.html#ac0114aa8a9d094bad20943e1b79ba473" target="_top" xlink:title="BuildMaps2d">
<polygon fill="white" stroke="black" points="122,-0.5 122,-19.5 196,-19.5 196,-0.5 122,-0.5"/>
<text text-anchor="middle" x="159" y="-7.5" font-family="Helvetica,sans-Serif" font-size="10.00">BuildMaps2d</text>
</a>
</g>
</g>
<!-- Node17&#45;&gt;Node23 -->
<g id="edge8" class="edge"><title>Node17&#45;&gt;Node23</title>
<path fill="none" stroke="midnightblue" d="M62.498,-70.3527C77.3133,-59.7543 97.5771,-45.6194 116,-34 123.814,-29.0718 132.667,-23.9477 140.224,-19.7058"/>
<polygon fill="midnightblue" stroke="midnightblue" points="60.1129,-67.7571 54.0426,-76.4405 64.2031,-73.4378 60.1129,-67.7571"/>
</g>
<!-- Node19 -->
<g id="node3" class="node"><title>Node19</title>
<g id="a_node3"><a xlink:href="a00134.html#a3c04138a5bfe5d72780bb7e82a18e627" target="_top" xlink:title="main">
<polygon fill="white" stroke="black" points="350,-114.5 350,-133.5 388,-133.5 388,-114.5 350,-114.5"/>
<text text-anchor="middle" x="369" y="-121.5" font-family="Helvetica,sans-Serif" font-size="10.00">main</text>
</a>
</g>
</g>
<!-- Node18&#45;&gt;Node19 -->
<g id="edge2" class="edge"><title>Node18&#45;&gt;Node19</title>
<path fill="none" stroke="midnightblue" d="M309.488,-148.433C323.087,-142.755 338.38,-136.369 349.919,-131.55"/>
<polygon fill="midnightblue" stroke="midnightblue" points="307.842,-145.328 299.963,-152.411 310.54,-151.787 307.842,-145.328"/>
</g>
<!-- Node20&#45;&gt;Node19 -->
<g id="edge4" class="edge"><title>Node20&#45;&gt;Node19</title>
<path fill="none" stroke="midnightblue" d="M324.302,-124C333.448,-124 342.497,-124 349.967,-124"/>
<polygon fill="midnightblue" stroke="midnightblue" points="324.013,-120.5 314.013,-124 324.013,-127.5 324.013,-120.5"/>
</g>
<!-- Node22&#45;&gt;Node19 -->
<g id="edge7" class="edge"><title>Node22&#45;&gt;Node19</title>
<path fill="none" stroke="midnightblue" d="M296.251,-64.0779C314.543,-79.3548 341.437,-101.816 356.568,-114.453"/>
<polygon fill="midnightblue" stroke="midnightblue" points="298.444,-61.3493 288.525,-57.6255 293.957,-66.722 298.444,-61.3493"/>
</g>
<!-- Node23&#45;&gt;Node22 -->
<g id="edge9" class="edge"><title>Node23&#45;&gt;Node22</title>
<path fill="none" stroke="midnightblue" d="M198.815,-22.8259C214.246,-27.9247 231.691,-33.6891 245.99,-38.4141"/>
<polygon fill="midnightblue" stroke="midnightblue" points="199.613,-19.4033 189.019,-19.589 197.416,-26.0498 199.613,-19.4033"/>
</g>
</g>
</svg>
