<?xml version="1.0" encoding="UTF-8" standalone="no"?>
<!DOCTYPE svg PUBLIC "-//W3C//DTD SVG 1.1//EN"
 "http://www.w3.org/Graphics/SVG/1.1/DTD/svg11.dtd">
<!-- Generated by graphviz version 2.36.0 (20140111.2315)
 -->
<!-- Title: main Pages: 1 -->
<svg width="362pt" height="408pt"
 viewBox="0.00 0.00 362.00 408.00" xmlns="http://www.w3.org/2000/svg" xmlns:xlink="http://www.w3.org/1999/xlink">
<g id="graph0" class="graph" transform="scale(1 1) rotate(0) translate(4 404)">
<title>main</title>
<polygon fill="white" stroke="none" points="-4,4 -4,-404 358,-404 358,4 -4,4"/>
<!-- Node0 -->
<g id="node1" class="node"><title>Node0</title>
<polygon fill="#bfbfbf" stroke="black" points="0,-114.5 0,-133.5 38,-133.5 38,-114.5 0,-114.5"/>
<text text-anchor="middle" x="19" y="-121.5" font-family="Helvetica,sans-Serif" font-size="10.00">main</text>
</g>
<!-- Node1 -->
<g id="node2" class="node"><title>Node1</title>
<g id="a_node2"><a xlink:href="a00155.html#af31fd6654ededed596d98c090d8748b5" target="_top" xlink:title="ReadMesh2d">
<polygon fill="white" stroke="black" points="81,-190.5 81,-209.5 157,-209.5 157,-190.5 81,-190.5"/>
<text text-anchor="middle" x="119" y="-197.5" font-family="Helvetica,sans-Serif" font-size="10.00">ReadMesh2d</text>
</a>
</g>
</g>
<!-- Node0&#45;&gt;Node1 -->
<g id="edge1" class="edge"><title>Node0&#45;&gt;Node1</title>
<path fill="none" stroke="midnightblue" d="M27.088,-133.616C36.5991,-145.962 54.5592,-167.412 74,-181 76.5106,-182.755 79.209,-184.398 81.9892,-185.925"/>
<polygon fill="midnightblue" stroke="midnightblue" points="80.5047,-189.095 91.0186,-190.403 83.6147,-182.824 80.5047,-189.095"/>
</g>
<!-- Node8 -->
<g id="node9" class="node"><title>Node8</title>
<g id="a_node9"><a xlink:href="a00155.html#a004c52e87250e61b258755469b25bbe9" target="_top" xlink:title="LoadBalance3d">
<polygon fill="white" stroke="black" points="76,-247.5 76,-266.5 162,-266.5 162,-247.5 76,-247.5"/>
<text text-anchor="middle" x="119" y="-254.5" font-family="Helvetica,sans-Serif" font-size="10.00">LoadBalance3d</text>
</a>
</g>
</g>
<!-- Node0&#45;&gt;Node8 -->
<g id="edge8" class="edge"><title>Node0&#45;&gt;Node8</title>
<path fill="none" stroke="midnightblue" d="M24.1025,-133.566C32.065,-151.489 50.88,-190.853 74,-219 80.5867,-227.019 88.9797,-234.726 96.6657,-241.078"/>
<polygon fill="midnightblue" stroke="midnightblue" points="94.6026,-243.909 104.609,-247.39 98.9573,-238.429 94.6026,-243.909"/>
</g>
<!-- Node12 -->
<g id="node13" class="node"><title>Node12</title>
<g id="a_node13"><a xlink:href="a00155.html#aaf4bbe0ed66b39808512cc6e5c09c989" target="_top" xlink:title="FacePair3d">
<polygon fill="white" stroke="black" points="85,-152.5 85,-171.5 153,-171.5 153,-152.5 85,-152.5"/>
<text text-anchor="middle" x="119" y="-159.5" font-family="Helvetica,sans-Serif" font-size="10.00">FacePair3d</text>
</a>
</g>
</g>
<!-- Node0&#45;&gt;Node12 -->
<g id="edge16" class="edge"><title>Node0&#45;&gt;Node12</title>
<path fill="none" stroke="midnightblue" d="M38.4331,-131.148C51.1682,-136.086 68.49,-142.802 83.7203,-148.708"/>
<polygon fill="midnightblue" stroke="midnightblue" points="82.7685,-152.093 93.3574,-152.445 85.2992,-145.566 82.7685,-152.093"/>
</g>
<!-- Node13 -->
<g id="node14" class="node"><title>Node13</title>
<g id="a_node14"><a xlink:href="a00155.html#aefa0403a31ac7d229d0ca09dc0004d3e" target="_top" xlink:title="StartUp3d">
<polygon fill="white" stroke="black" points="88,-114.5 88,-133.5 150,-133.5 150,-114.5 88,-114.5"/>
<text text-anchor="middle" x="119" y="-121.5" font-family="Helvetica,sans-Serif" font-size="10.00">StartUp3d</text>
</a>
</g>
</g>
<!-- Node0&#45;&gt;Node13 -->
<g id="edge17" class="edge"><title>Node0&#45;&gt;Node13</title>
<path fill="none" stroke="midnightblue" d="M38.4331,-124C49.4789,-124 63.9751,-124 77.5644,-124"/>
<polygon fill="midnightblue" stroke="midnightblue" points="77.7073,-127.5 87.7072,-124 77.7072,-120.5 77.7073,-127.5"/>
</g>
<!-- Node14 -->
<g id="node15" class="node"><title>Node14</title>
<g id="a_node15"><a xlink:href="a00155.html#ad512c37561b25c93d8d7c7717a500df4" target="_top" xlink:title="gpu_set_data3d">
<polygon fill="white" stroke="black" points="75,-76.5 75,-95.5 163,-95.5 163,-76.5 75,-76.5"/>
<text text-anchor="middle" x="119" y="-83.5" font-family="Helvetica,sans-Serif" font-size="10.00">gpu_set_data3d</text>
</a>
</g>
</g>
<!-- Node0&#45;&gt;Node14 -->
<g id="edge18" class="edge"><title>Node0&#45;&gt;Node14</title>
<path fill="none" stroke="midnightblue" d="M38.4331,-116.852C51.1682,-111.914 68.49,-105.198 83.7203,-99.2921"/>
<polygon fill="midnightblue" stroke="midnightblue" points="85.2992,-102.434 93.3574,-95.5553 82.7685,-95.9073 85.2992,-102.434"/>
</g>
<!-- Node15 -->
<g id="node16" class="node"><title>Node15</title>
<g id="a_node16"><a xlink:href="a00155.html#a630113a871c79c54d968c6c233e59145" target="_top" xlink:title="MaxwellsRun3d">
<polygon fill="white" stroke="black" points="75.5,-38.5 75.5,-57.5 162.5,-57.5 162.5,-38.5 75.5,-38.5"/>
<text text-anchor="middle" x="119" y="-45.5" font-family="Helvetica,sans-Serif" font-size="10.00">MaxwellsRun3d</text>
</a>
</g>
</g>
<!-- Node0&#45;&gt;Node15 -->
<g id="edge19" class="edge"><title>Node0&#45;&gt;Node15</title>
<path fill="none" stroke="midnightblue" d="M27.088,-114.384C36.5991,-102.038 54.5592,-80.5882 74,-67 76.5106,-65.2452 79.209,-63.6022 81.9892,-62.0752"/>
<polygon fill="midnightblue" stroke="midnightblue" points="83.6147,-65.1759 91.0186,-57.5975 80.5047,-58.9046 83.6147,-65.1759"/>
</g>
<!-- Node16 -->
<g id="node17" class="node"><title>Node16</title>
<g id="a_node17"><a xlink:href="a00155.html#aa1ecfe5bfbcdb9a59cb6c3c39f62f744" target="_top" xlink:title="gpu_get_data3d">
<polygon fill="white" stroke="black" points="74.5,-0.5 74.5,-19.5 163.5,-19.5 163.5,-0.5 74.5,-0.5"/>
<text text-anchor="middle" x="119" y="-7.5" font-family="Helvetica,sans-Serif" font-size="10.00">gpu_get_data3d</text>
</a>
</g>
</g>
<!-- Node0&#45;&gt;Node16 -->
<g id="edge20" class="edge"><title>Node0&#45;&gt;Node16</title>
<path fill="none" stroke="midnightblue" d="M23.1453,-114.305C29.7138,-95.4553 46.5934,-53.565 74,-29 75.7117,-27.4658 77.5663,-26.0415 79.513,-24.7212"/>
<polygon fill="midnightblue" stroke="midnightblue" points="81.5459,-27.5902 88.481,-19.5805 78.0647,-21.5172 81.5459,-27.5902"/>
</g>
<!-- Node2 -->
<g id="node3" class="node"><title>Node2</title>
<g id="a_node3"><a xlink:href="a00155.html#a990278305dbeaf8e4441cf4146bfdc62" target="_top" xlink:title="BuildVector">
<polygon fill="white" stroke="black" points="243,-228.5 243,-247.5 311,-247.5 311,-228.5 243,-228.5"/>
<text text-anchor="middle" x="277" y="-235.5" font-family="Helvetica,sans-Serif" font-size="10.00">BuildVector</text>
</a>
</g>
</g>
<!-- Node1&#45;&gt;Node2 -->
<g id="edge2" class="edge"><title>Node1&#45;&gt;Node2</title>
<path fill="none" stroke="midnightblue" d="M157.366,-209.102C180.16,-214.654 209.377,-221.771 233.112,-227.553"/>
<polygon fill="midnightblue" stroke="midnightblue" points="232.37,-230.974 242.914,-229.941 234.027,-224.173 232.37,-230.974"/>
</g>
<!-- Node3 -->
<g id="node4" class="node"><title>Node3</title>
<g id="a_node4"><a xlink:href="a00155.html#a77f751d54b396015520a882d7a318e57" target="_top" xlink:title="BuildIntMatrix">
<polygon fill="white" stroke="black" points="238.5,-190.5 238.5,-209.5 315.5,-209.5 315.5,-190.5 238.5,-190.5"/>
<text text-anchor="middle" x="277" y="-197.5" font-family="Helvetica,sans-Serif" font-size="10.00">BuildIntMatrix</text>
</a>
</g>
</g>
<!-- Node1&#45;&gt;Node3 -->
<g id="edge3" class="edge"><title>Node1&#45;&gt;Node3</title>
<path fill="none" stroke="midnightblue" d="M157.366,-200C178.627,-200 205.478,-200 228.255,-200"/>
<polygon fill="midnightblue" stroke="midnightblue" points="228.398,-203.5 238.398,-200 228.398,-196.5 228.398,-203.5"/>
</g>
<!-- Node4 -->
<g id="node5" class="node"><title>Node4</title>
<g id="a_node5"><a xlink:href="a00155.html#a4bf6e503687187059ced10b812beaab3" target="_top" xlink:title="BuildMatrix">
<polygon fill="white" stroke="black" points="244,-152.5 244,-171.5 310,-171.5 310,-152.5 244,-152.5"/>
<text text-anchor="middle" x="277" y="-159.5" font-family="Helvetica,sans-Serif" font-size="10.00">BuildMatrix</text>
</a>
</g>
</g>
<!-- Node1&#45;&gt;Node4 -->
<g id="edge4" class="edge"><title>Node1&#45;&gt;Node4</title>
<path fill="none" stroke="midnightblue" d="M157.366,-190.898C180.475,-185.269 210.187,-178.031 234.095,-172.208"/>
<polygon fill="midnightblue" stroke="midnightblue" points="235.062,-175.575 243.949,-169.807 233.405,-168.773 235.062,-175.575"/>
</g>
<!-- Node5 -->
<g id="node6" class="node"><title>Node5</title>
<g id="a_node6"><a xlink:href="a00155.html#a0f24d8056fa979af4888469ea90576ff" target="_top" xlink:title="BuildIntVector">
<polygon fill="white" stroke="black" points="237.5,-266.5 237.5,-285.5 316.5,-285.5 316.5,-266.5 237.5,-266.5"/>
<text text-anchor="middle" x="277" y="-273.5" font-family="Helvetica,sans-Serif" font-size="10.00">BuildIntVector</text>
</a>
</g>
</g>
<!-- Node1&#45;&gt;Node5 -->
<g id="edge5" class="edge"><title>Node1&#45;&gt;Node5</title>
<path fill="none" stroke="midnightblue" d="M130.569,-209.538C145.152,-222.204 172.743,-244.433 200,-257 208.526,-260.931 217.98,-264.124 227.242,-266.69"/>
<polygon fill="midnightblue" stroke="midnightblue" points="226.607,-270.141 237.163,-269.235 228.346,-263.36 226.607,-270.141"/>
</g>
<!-- Node6 -->
<g id="node7" class="node"><title>Node6</title>
<g id="a_node7"><a xlink:href="a00155.html#a6031ee45d6b3d95665a885b7128c311c" target="_top" xlink:title="Build3Tensor">
<polygon fill="white" stroke="black" points="239.5,-76.5 239.5,-95.5 314.5,-95.5 314.5,-76.5 239.5,-76.5"/>
<text text-anchor="middle" x="277" y="-83.5" font-family="Helvetica,sans-Serif" font-size="10.00">Build3Tensor</text>
</a>
</g>
</g>
<!-- Node1&#45;&gt;Node6 -->
<g id="edge6" class="edge"><title>Node1&#45;&gt;Node6</title>
<path fill="none" stroke="midnightblue" d="M150.207,-190.442C155.212,-187.926 160.05,-184.815 164,-181 190.884,-155.034 171.096,-128.696 200,-105 208.369,-98.139 218.878,-93.7075 229.388,-90.858"/>
<polygon fill="midnightblue" stroke="midnightblue" points="230.42,-94.2129 239.395,-88.5832 228.868,-87.387 230.42,-94.2129"/>
</g>
<!-- Node7 -->
<g id="node8" class="node"><title>Node7</title>
<g id="a_node8"><a xlink:href="a00300.html#a355ed4cdac2a27aa04a6689ac2d7e86e" target="_top" xlink:title="fclose">
<polygon fill="white" stroke="black" points="255.5,-114.5 255.5,-133.5 298.5,-133.5 298.5,-114.5 255.5,-114.5"/>
<text text-anchor="middle" x="277" y="-121.5" font-family="Helvetica,sans-Serif" font-size="10.00">fclose</text>
</a>
</g>
</g>
<!-- Node1&#45;&gt;Node7 -->
<g id="edge7" class="edge"><title>Node1&#45;&gt;Node7</title>
<path fill="none" stroke="midnightblue" d="M146.981,-190.403C152.833,-187.769 158.817,-184.623 164,-181 183.068,-167.672 179.912,-154.735 200,-143 213.797,-134.94 230.937,-130.277 245.445,-127.589"/>
<polygon fill="midnightblue" stroke="midnightblue" points="246.151,-131.021 255.46,-125.962 245.028,-124.111 246.151,-131.021"/>
</g>
<!-- Node8&#45;&gt;Node2 -->
<g id="edge13" class="edge"><title>Node8&#45;&gt;Node2</title>
<path fill="none" stroke="midnightblue" d="M162.216,-251.858C184.027,-249.202 210.605,-245.965 232.587,-243.288"/>
<polygon fill="midnightblue" stroke="midnightblue" points="233.144,-246.746 242.648,-242.062 232.298,-239.797 233.144,-246.746"/>
</g>
<!-- Node8&#45;&gt;Node3 -->
<g id="edge11" class="edge"><title>Node8&#45;&gt;Node3</title>
<path fill="none" stroke="midnightblue" d="M137.676,-247.351C153.604,-238.962 177.855,-226.939 200,-219 209.122,-215.73 219.053,-212.808 228.637,-210.295"/>
<polygon fill="midnightblue" stroke="midnightblue" points="229.607,-213.66 238.45,-207.825 227.898,-206.871 229.607,-213.66"/>
</g>
<!-- Node8&#45;&gt;Node4 -->
<g id="edge12" class="edge"><title>Node8&#45;&gt;Node4</title>
<path fill="none" stroke="midnightblue" d="M131.861,-247.308C140.881,-239.807 153.489,-229.038 164,-219 180.825,-202.932 179.912,-192.735 200,-181 210.264,-175.004 222.377,-170.888 233.882,-168.066"/>
<polygon fill="midnightblue" stroke="midnightblue" points="234.75,-171.459 243.773,-165.906 233.256,-164.621 234.75,-171.459"/>
</g>
<!-- Node8&#45;&gt;Node5 -->
<g id="edge9" class="edge"><title>Node8&#45;&gt;Node5</title>
<path fill="none" stroke="midnightblue" d="M162.216,-262.142C182.378,-264.597 206.612,-267.549 227.524,-270.096"/>
<polygon fill="midnightblue" stroke="midnightblue" points="227.142,-273.575 237.491,-271.31 227.988,-266.626 227.142,-273.575"/>
</g>
<!-- Node9 -->
<g id="node10" class="node"><title>Node9</title>
<g id="a_node10"><a xlink:href="a00164.html#a2ae9750ec09afdc4243b7cb7c5118666" target="_top" xlink:title="ParMETIS_V3_PartMeshKway">
<polygon fill="white" stroke="black" points="200.5,-380.5 200.5,-399.5 353.5,-399.5 353.5,-380.5 200.5,-380.5"/>
<text text-anchor="middle" x="277" y="-387.5" font-family="Helvetica,sans-Serif" font-size="10.00">ParMETIS_V3_PartMeshKway</text>
</a>
</g>
</g>
<!-- Node8&#45;&gt;Node9 -->
<g id="edge10" class="edge"><title>Node8&#45;&gt;Node9</title>
<path fill="none" stroke="midnightblue" d="M123.944,-266.714C133.47,-288.898 159.943,-343.481 200,-371 202.89,-372.985 205.969,-374.764 209.169,-376.356"/>
<polygon fill="midnightblue" stroke="midnightblue" points="207.885,-379.614 218.453,-380.371 210.664,-373.189 207.885,-379.614"/>
</g>
<!-- Node10 -->
<g id="node11" class="node"><title>Node10</title>
<g id="a_node11"><a xlink:href="a00155.html#afa534e284e3bdd83ec70e03b3348d960" target="_top" xlink:title="DestroyMatrix">
<polygon fill="white" stroke="black" points="238,-342.5 238,-361.5 316,-361.5 316,-342.5 238,-342.5"/>
<text text-anchor="middle" x="277" y="-349.5" font-family="Helvetica,sans-Serif" font-size="10.00">DestroyMatrix</text>
</a>
</g>
</g>
<!-- Node8&#45;&gt;Node10 -->
<g id="edge14" class="edge"><title>Node8&#45;&gt;Node10</title>
<path fill="none" stroke="midnightblue" d="M127.253,-266.568C140.086,-282.8 168.435,-315.658 200,-333 208.582,-337.715 218.347,-341.28 227.952,-343.97"/>
<polygon fill="midnightblue" stroke="midnightblue" points="227.294,-347.414 237.846,-346.468 229.007,-340.626 227.294,-347.414"/>
</g>
<!-- Node11 -->
<g id="node12" class="node"><title>Node11</title>
<g id="a_node12"><a xlink:href="a00155.html#a4212ac496c2e42e38dd0ad0cd18ed161" target="_top" xlink:title="DestroyIntMatrix">
<polygon fill="white" stroke="black" points="232.5,-304.5 232.5,-323.5 321.5,-323.5 321.5,-304.5 232.5,-304.5"/>
<text text-anchor="middle" x="277" y="-311.5" font-family="Helvetica,sans-Serif" font-size="10.00">DestroyIntMatrix</text>
</a>
</g>
</g>
<!-- Node8&#45;&gt;Node11 -->
<g id="edge15" class="edge"><title>Node8&#45;&gt;Node11</title>
<path fill="none" stroke="midnightblue" d="M137.676,-266.649C153.604,-275.038 177.855,-287.061 200,-295 207.122,-297.553 214.736,-299.894 222.294,-301.993"/>
<polygon fill="midnightblue" stroke="midnightblue" points="221.587,-305.427 232.15,-304.613 223.385,-298.662 221.587,-305.427"/>
</g>
</g>
</svg>
