<?xml version="1.0" encoding="UTF-8" standalone="no"?>
<!DOCTYPE svg PUBLIC "-//W3C//DTD SVG 1.1//EN"
 "http://www.w3.org/Graphics/SVG/1.1/DTD/svg11.dtd">
<!-- Generated by graphviz version 2.36.0 (20140111.2315)
 -->
<!-- Title: rk_run_2d Pages: 1 -->
<svg width="274pt" height="85pt"
 viewBox="0.00 0.00 274.00 85.00" xmlns="http://www.w3.org/2000/svg" xmlns:xlink="http://www.w3.org/1999/xlink">
<g id="graph0" class="graph" transform="scale(1 1) rotate(0) translate(4 81)">
<title>rk_run_2d</title>
<polygon fill="white" stroke="none" points="-4,4 -4,-81 270,-81 270,4 -4,4"/>
<!-- Node6 -->
<g id="node1" class="node"><title>Node6</title>
<polygon fill="#bfbfbf" stroke="black" points="0,-19.5 0,-38.5 62,-38.5 62,-19.5 0,-19.5"/>
<text text-anchor="middle" x="31" y="-26.5" font-family="Helvetica,sans-Serif" font-size="10.00">rk_run_2d</text>
</g>
<!-- Node7 -->
<g id="node2" class="node"><title>Node7</title>
<g id="a_node2"><a xlink:href="a00164.html#a9b253cfe04029e084b403542b0d7a64b" target="_top" xlink:title="rk_step_2d">
<polygon fill="white" stroke="black" points="98,-57.5 98,-76.5 164,-76.5 164,-57.5 98,-57.5"/>
<text text-anchor="middle" x="131" y="-64.5" font-family="Helvetica,sans-Serif" font-size="10.00">rk_step_2d</text>
</a>
</g>
</g>
<!-- Node6&#45;&gt;Node7 -->
<g id="edge1" class="edge"><title>Node6&#45;&gt;Node7</title>
<path fill="none" stroke="midnightblue" d="M56.7295,-38.589C68.568,-43.1794 82.935,-48.7503 95.8,-53.7388"/>
<polygon fill="midnightblue" stroke="midnightblue" points="94.6894,-57.062 105.278,-57.4141 97.2201,-50.5355 94.6894,-57.062"/>
</g>
<!-- Node8 -->
<g id="node3" class="node"><title>Node8</title>
<g id="a_node3"><a xlink:href="a00128.html#aa275e5ac3935009592aad28f023ed4a1" target="_top" xlink:title="write_vtu">
<polygon fill="white" stroke="black" points="102.5,-19.5 102.5,-38.5 159.5,-38.5 159.5,-19.5 102.5,-19.5"/>
<text text-anchor="middle" x="131" y="-26.5" font-family="Helvetica,sans-Serif" font-size="10.00">write_vtu</text>
</a>
</g>
</g>
<!-- Node6&#45;&gt;Node8 -->
<g id="edge2" class="edge"><title>Node6&#45;&gt;Node8</title>
<path fill="none" stroke="midnightblue" d="M62.2029,-29C71.7197,-29 82.3515,-29 92.3218,-29"/>
<polygon fill="midnightblue" stroke="midnightblue" points="92.3979,-32.5001 102.398,-29 92.3979,-25.5001 92.3979,-32.5001"/>
</g>
<!-- Node9 -->
<g id="node4" class="node"><title>Node9</title>
<g id="a_node4"><a xlink:href="a00128.html#a4bf6e503687187059ced10b812beaab3" target="_top" xlink:title="BuildMatrix">
<polygon fill="white" stroke="black" points="200,-0.5 200,-19.5 266,-19.5 266,-0.5 200,-0.5"/>
<text text-anchor="middle" x="233" y="-7.5" font-family="Helvetica,sans-Serif" font-size="10.00">BuildMatrix</text>
</a>
</g>
</g>
<!-- Node6&#45;&gt;Node9 -->
<g id="edge4" class="edge"><title>Node6&#45;&gt;Node9</title>
<path fill="none" stroke="midnightblue" d="M58.6032,-19.4988C70.4907,-15.7354 84.7764,-11.8655 98,-10 128.504,-5.6966 163.305,-5.84526 189.795,-6.99159"/>
<polygon fill="midnightblue" stroke="midnightblue" points="189.714,-10.4918 199.876,-7.49276 190.062,-3.50043 189.714,-10.4918"/>
</g>
<!-- Node8&#45;&gt;Node9 -->
<g id="edge3" class="edge"><title>Node8&#45;&gt;Node9</title>
<path fill="none" stroke="midnightblue" d="M159.59,-23.7579C168.956,-21.9784 179.644,-19.9477 189.88,-18.0029"/>
<polygon fill="midnightblue" stroke="midnightblue" points="190.728,-21.4043 199.899,-16.0991 189.422,-14.5273 190.728,-21.4043"/>
</g>
</g>
</svg>
