<?xml version="1.0" encoding="UTF-8" standalone="no"?>
<!DOCTYPE svg PUBLIC "-//W3C//DTD SVG 1.1//EN"
 "http://www.w3.org/Graphics/SVG/1.1/DTD/svg11.dtd">
<!-- Generated by graphviz version 2.36.0 (20140111.2315)
 -->
<!-- Title: gk_malloc_cleanup Pages: 1 -->
<svg width="1030pt" height="740pt"
 viewBox="0.00 0.00 1030.00 740.00" xmlns="http://www.w3.org/2000/svg" xmlns:xlink="http://www.w3.org/1999/xlink">
<g id="graph0" class="graph" transform="scale(1 1) rotate(0) translate(4 736)">
<title>gk_malloc_cleanup</title>
<polygon fill="white" stroke="none" points="-4,4 -4,-736 1026,-736 1026,4 -4,4"/>
<!-- Node441 -->
<g id="node1" class="node"><title>Node441</title>
<polygon fill="#bfbfbf" stroke="black" points="0,-446.5 0,-465.5 102,-465.5 102,-446.5 0,-446.5"/>
<text text-anchor="middle" x="51" y="-453.5" font-family="Helvetica,sans-Serif" font-size="10.00">gk_malloc_cleanup</text>
</g>
<!-- Node442 -->
<g id="node2" class="node"><title>Node442</title>
<g id="a_node2"><a xlink:href="$a00846.html#ac00c3da2cf618cbfa9158463a851491e" xlink:title="ParMETIS_V3_AdaptiveRepart">
<polygon fill="white" stroke="black" points="138.5,-712.5 138.5,-731.5 293.5,-731.5 293.5,-712.5 138.5,-712.5"/>
<text text-anchor="middle" x="216" y="-719.5" font-family="Helvetica,sans-Serif" font-size="10.00">ParMETIS_V3_AdaptiveRepart</text>
</a>
</g>
</g>
<!-- Node441&#45;&gt;Node442 -->
<g id="edge1" class="edge"><title>Node441&#45;&gt;Node442</title>
<path fill="none" stroke="midnightblue" d="M53.2588,-476.131C57.2285,-522.16 73.4047,-635.895 138,-698 144.561,-704.308 152.754,-708.96 161.328,-712.39"/>
<polygon fill="midnightblue" stroke="midnightblue" points="56.7339,-475.668 52.4905,-465.96 49.7537,-476.196 56.7339,-475.668"/>
</g>
<!-- Node443 -->
<g id="node3" class="node"><title>Node443</title>
<g id="a_node3"><a xlink:href="$a00846.html#a6df93293cf3d1ccb4659bd1b3091623d" xlink:title="ParMETIS_V3_PartGeomKway">
<polygon fill="white" stroke="black" points="792,-569.5 792,-588.5 948,-588.5 948,-569.5 792,-569.5"/>
<text text-anchor="middle" x="870" y="-576.5" font-family="Helvetica,sans-Serif" font-size="10.00">ParMETIS_V3_PartGeomKway</text>
</a>
</g>
</g>
<!-- Node441&#45;&gt;Node443 -->
<g id="edge2" class="edge"><title>Node441&#45;&gt;Node443</title>
<path fill="none" stroke="midnightblue" d="M53.5161,-475.783C57.9541,-518.482 74.93,-619.12 138,-665 226.319,-729.248 273.784,-684 383,-684 383,-684 383,-684 536,-684 662.389,-684 803.792,-614.35 851.915,-588.503"/>
<polygon fill="midnightblue" stroke="midnightblue" points="56.98,-475.227 52.5858,-465.587 50.009,-475.863 56.98,-475.227"/>
</g>
<!-- Node444 -->
<g id="node4" class="node"><title>Node444</title>
<g id="a_node4"><a xlink:href="$a00846.html#aab31b6450a3228063206eddded9de65e" xlink:title="ParMETIS_V3_PartGeom">
<polygon fill="white" stroke="black" points="150,-636.5 150,-655.5 282,-655.5 282,-636.5 150,-636.5"/>
<text text-anchor="middle" x="216" y="-643.5" font-family="Helvetica,sans-Serif" font-size="10.00">ParMETIS_V3_PartGeom</text>
</a>
</g>
</g>
<!-- Node441&#45;&gt;Node444 -->
<g id="edge3" class="edge"><title>Node441&#45;&gt;Node444</title>
<path fill="none" stroke="midnightblue" d="M56.1808,-475.652C64.8589,-511.476 88.3064,-587.357 138,-627 142.844,-630.864 148.364,-633.957 154.173,-636.43"/>
<polygon fill="midnightblue" stroke="midnightblue" points="59.5066,-474.494 53.8677,-465.525 52.6823,-476.053 59.5066,-474.494"/>
</g>
<!-- Node445 -->
<g id="node5" class="node"><title>Node445</title>
<g id="a_node5"><a xlink:href="$a00846.html#a2ae9750ec09afdc4243b7cb7c5118666" xlink:title="ParMETIS_V3_PartMeshKway">
<polygon fill="white" stroke="black" points="139.5,-598.5 139.5,-617.5 292.5,-617.5 292.5,-598.5 139.5,-598.5"/>
<text text-anchor="middle" x="216" y="-605.5" font-family="Helvetica,sans-Serif" font-size="10.00">ParMETIS_V3_PartMeshKway</text>
</a>
</g>
</g>
<!-- Node441&#45;&gt;Node445 -->
<g id="edge4" class="edge"><title>Node441&#45;&gt;Node445</title>
<path fill="none" stroke="midnightblue" d="M59.077,-475.353C70.8082,-504.633 97.1219,-559.856 138,-589 143.381,-592.837 149.452,-595.903 155.764,-598.352"/>
<polygon fill="midnightblue" stroke="midnightblue" points="62.2727,-473.912 55.4148,-465.836 55.7397,-476.426 62.2727,-473.912"/>
</g>
<!-- Node446 -->
<g id="node6" class="node"><title>Node446</title>
<g id="a_node6"><a xlink:href="$a00846.html#ad40a7809c9bdf183926da011220bad75" xlink:title="ParMETIS_V3_RefineKway">
<polygon fill="white" stroke="black" points="146.5,-560.5 146.5,-579.5 285.5,-579.5 285.5,-560.5 146.5,-560.5"/>
<text text-anchor="middle" x="216" y="-567.5" font-family="Helvetica,sans-Serif" font-size="10.00">ParMETIS_V3_RefineKway</text>
</a>
</g>
</g>
<!-- Node441&#45;&gt;Node446 -->
<g id="edge5" class="edge"><title>Node441&#45;&gt;Node446</title>
<path fill="none" stroke="midnightblue" d="M64.5291,-473.765C79.7104,-494.037 107.123,-526.85 138,-546 147.996,-552.199 159.722,-556.914 170.967,-560.452"/>
<polygon fill="midnightblue" stroke="midnightblue" points="67.3452,-471.687 58.6214,-465.675 61.692,-475.815 67.3452,-471.687"/>
</g>
<!-- Node447 -->
<g id="node7" class="node"><title>Node447</title>
<g id="a_node7"><a xlink:href="$a00912.html#af89851458c047aba436b36ed567441e4" xlink:title="METIS_PartGraphKway">
<polygon fill="white" stroke="black" points="632.5,-142.5 632.5,-161.5 755.5,-161.5 755.5,-142.5 632.5,-142.5"/>
<text text-anchor="middle" x="694" y="-149.5" font-family="Helvetica,sans-Serif" font-size="10.00">METIS_PartGraphKway</text>
</a>
</g>
</g>
<!-- Node441&#45;&gt;Node447 -->
<g id="edge6" class="edge"><title>Node441&#45;&gt;Node447</title>
<path fill="none" stroke="midnightblue" d="M54.1298,-436.288C59.707,-394.995 78.6819,-299.328 138,-252 178.396,-219.769 545.196,-180.467 596,-171 612.026,-168.013 629.516,-164.627 645.176,-161.549"/>
<polygon fill="midnightblue" stroke="midnightblue" points="50.6322,-436.056 52.8896,-446.407 57.5802,-436.907 50.6322,-436.056"/>
</g>
<!-- Node451 -->
<g id="node11" class="node"><title>Node451</title>
<g id="a_node11"><a xlink:href="$a00846.html#af418d1e76eaf4f80116da4caf51bd54e" xlink:title="ParMETIS_V3_PartKway">
<polygon fill="white" stroke="black" points="805.5,-427.5 805.5,-446.5 934.5,-446.5 934.5,-427.5 805.5,-427.5"/>
<text text-anchor="middle" x="870" y="-434.5" font-family="Helvetica,sans-Serif" font-size="10.00">ParMETIS_V3_PartKway</text>
</a>
</g>
</g>
<!-- Node441&#45;&gt;Node451 -->
<g id="edge17" class="edge"><title>Node441&#45;&gt;Node451</title>
<path fill="none" stroke="midnightblue" d="M70.1615,-472.078C86.6192,-485.604 112.182,-504.117 138,-513 241.275,-548.531 273.784,-532 383,-532 383,-532 383,-532 536,-532 659.545,-532 799.322,-470.784 849.66,-446.632"/>
<polygon fill="midnightblue" stroke="midnightblue" points="72.3264,-469.325 62.432,-465.537 67.8045,-474.669 72.3264,-469.325"/>
</g>
<!-- Node452 -->
<g id="node12" class="node"><title>Node452</title>
<g id="a_node12"><a xlink:href="$a00236.html#ade1e7e23ad687989a6343b4fb8d61ba7" xlink:title="METIS_PartMeshNodal">
<polygon fill="white" stroke="black" points="809,-294.5 809,-313.5 931,-313.5 931,-294.5 809,-294.5"/>
<text text-anchor="middle" x="870" y="-301.5" font-family="Helvetica,sans-Serif" font-size="10.00">METIS_PartMeshNodal</text>
</a>
</g>
</g>
<!-- Node441&#45;&gt;Node452 -->
<g id="edge25" class="edge"><title>Node441&#45;&gt;Node452</title>
<path fill="none" stroke="midnightblue" d="M112.458,-456C178.817,-456 288.497,-456 383,-456 383,-456 383,-456 536,-456 673.904,-456 817.285,-346.785 857.771,-313.508"/>
<polygon fill="midnightblue" stroke="midnightblue" points="112.188,-452.5 102.188,-456 112.188,-459.5 112.188,-452.5"/>
</g>
<!-- Node454 -->
<g id="node14" class="node"><title>Node454</title>
<g id="a_node14"><a xlink:href="$a00236.html#a8f496ac1cd2246b124da246b5c6f9193" xlink:title="METIS_PartMeshDual">
<polygon fill="white" stroke="black" points="812,-256.5 812,-275.5 928,-275.5 928,-256.5 812,-256.5"/>
<text text-anchor="middle" x="870" y="-263.5" font-family="Helvetica,sans-Serif" font-size="10.00">METIS_PartMeshDual</text>
</a>
</g>
</g>
<!-- Node441&#45;&gt;Node454 -->
<g id="edge26" class="edge"><title>Node441&#45;&gt;Node454</title>
<path fill="none" stroke="midnightblue" d="M64.3153,-437.921C79.4679,-416.88 107.024,-382.306 138,-361 234.225,-294.816 266.212,-266 383,-266 383,-266 383,-266 536,-266 632.836,-266 745.512,-266 811.844,-266"/>
<polygon fill="midnightblue" stroke="midnightblue" points="61.322,-436.093 58.4322,-446.286 67.0478,-440.12 61.322,-436.093"/>
</g>
<!-- Node455 -->
<g id="node15" class="node"><title>Node455</title>
<g id="a_node15"><a xlink:href="$a00311.html#a0ddf1224851353fc92bfbff6f499fa97" xlink:title="main">
<polygon fill="white" stroke="black" points="851,-28.5 851,-47.5 889,-47.5 889,-28.5 851,-28.5"/>
<text text-anchor="middle" x="870" y="-35.5" font-family="Helvetica,sans-Serif" font-size="10.00">main</text>
</a>
</g>
</g>
<!-- Node441&#45;&gt;Node455 -->
<g id="edge38" class="edge"><title>Node441&#45;&gt;Node455</title>
<path fill="none" stroke="midnightblue" d="M52.0596,-436.345C53.2125,-382.081 63.2766,-227.933 138,-133 214.632,-35.6424 259.101,-0 383,-0 383,-0 383,-0 536,-0 656.739,-0 800.525,-24.9655 850.673,-34.4251"/>
<polygon fill="midnightblue" stroke="midnightblue" points="48.5599,-436.306 51.9288,-446.351 55.5593,-436.398 48.5599,-436.306"/>
</g>
<!-- Node456 -->
<g id="node16" class="node"><title>Node456</title>
<g id="a_node16"><a xlink:href="$a00930.html#a2cf4672355fcfed039c04a2d1d134136" xlink:title="METIS_MeshToDual">
<polygon fill="white" stroke="black" points="161.5,-370.5 161.5,-389.5 270.5,-389.5 270.5,-370.5 161.5,-370.5"/>
<text text-anchor="middle" x="216" y="-377.5" font-family="Helvetica,sans-Serif" font-size="10.00">METIS_MeshToDual</text>
</a>
</g>
</g>
<!-- Node441&#45;&gt;Node456 -->
<g id="edge18" class="edge"><title>Node441&#45;&gt;Node456</title>
<path fill="none" stroke="midnightblue" d="M71.4109,-440.298C88.1423,-427.483 113.418,-409.79 138,-399 146.573,-395.237 156.025,-392.132 165.283,-389.602"/>
<polygon fill="midnightblue" stroke="midnightblue" points="69.2108,-437.575 63.4891,-446.492 73.5227,-443.089 69.2108,-437.575"/>
</g>
<!-- Node458 -->
<g id="node18" class="node"><title>Node458</title>
<g id="a_node18"><a xlink:href="$a00930.html#ae9390485cd2d3654742f779a7188c125" xlink:title="METIS_MeshToNodal">
<polygon fill="white" stroke="black" points="158.5,-408.5 158.5,-427.5 273.5,-427.5 273.5,-408.5 158.5,-408.5"/>
<text text-anchor="middle" x="216" y="-415.5" font-family="Helvetica,sans-Serif" font-size="10.00">METIS_MeshToNodal</text>
</a>
</g>
</g>
<!-- Node441&#45;&gt;Node458 -->
<g id="edge21" class="edge"><title>Node441&#45;&gt;Node458</title>
<path fill="none" stroke="midnightblue" d="M103.028,-444.104C125.939,-438.763 152.604,-432.546 174.164,-427.52"/>
<polygon fill="midnightblue" stroke="midnightblue" points="102.076,-440.732 93.1318,-446.411 103.665,-447.549 102.076,-440.732"/>
</g>
<!-- Node459 -->
<g id="node19" class="node"><title>Node459</title>
<g id="a_node19"><a xlink:href="$a00846.html#a2f9e316d7e0c46037cf231cd82cf9d97" xlink:title="ParMETIS_V3_Mesh2Dual">
<polygon fill="white" stroke="black" points="147.5,-180.5 147.5,-199.5 284.5,-199.5 284.5,-180.5 147.5,-180.5"/>
<text text-anchor="middle" x="216" y="-187.5" font-family="Helvetica,sans-Serif" font-size="10.00">ParMETIS_V3_Mesh2Dual</text>
</a>
</g>
</g>
<!-- Node441&#45;&gt;Node459 -->
<g id="edge24" class="edge"><title>Node441&#45;&gt;Node459</title>
<path fill="none" stroke="midnightblue" d="M53.2588,-435.869C57.2285,-389.84 73.4047,-276.105 138,-214 144.561,-207.692 152.754,-203.04 161.328,-199.61"/>
<polygon fill="midnightblue" stroke="midnightblue" points="49.7537,-435.804 52.4905,-446.04 56.7339,-436.332 49.7537,-435.804"/>
</g>
<!-- Node460 -->
<g id="node20" class="node"><title>Node460</title>
<g id="a_node20"><a xlink:href="$a00936.html#a8304f0dd6d180587f73b0b70de3b01b7" xlink:title="METIS_NodeND">
<polygon fill="white" stroke="black" points="170.5,-484.5 170.5,-503.5 261.5,-503.5 261.5,-484.5 170.5,-484.5"/>
<text text-anchor="middle" x="216" y="-491.5" font-family="Helvetica,sans-Serif" font-size="10.00">METIS_NodeND</text>
</a>
</g>
</g>
<!-- Node441&#45;&gt;Node460 -->
<g id="edge27" class="edge"><title>Node441&#45;&gt;Node460</title>
<path fill="none" stroke="midnightblue" d="M103.028,-467.896C125.939,-473.237 152.604,-479.454 174.164,-484.48"/>
<polygon fill="midnightblue" stroke="midnightblue" points="103.665,-464.451 93.1318,-465.589 102.076,-471.268 103.665,-464.451"/>
</g>
<!-- Node462 -->
<g id="node22" class="node"><title>Node462</title>
<g id="a_node22"><a xlink:href="$a00260.html#a25fc90fd934931239b3c98ac4bdbce76" xlink:title="Recursive partitioning routine. ">
<polygon fill="white" stroke="black" points="144.5,-142.5 144.5,-161.5 287.5,-161.5 287.5,-142.5 144.5,-142.5"/>
<text text-anchor="middle" x="216" y="-149.5" font-family="Helvetica,sans-Serif" font-size="10.00">METIS_PartGraphRecursive</text>
</a>
</g>
</g>
<!-- Node441&#45;&gt;Node462 -->
<g id="edge29" class="edge"><title>Node441&#45;&gt;Node462</title>
<path fill="none" stroke="midnightblue" d="M51.7251,-436.317C52.1307,-384.72 60.6701,-244.473 138,-171 141.993,-167.206 146.618,-164.134 151.58,-161.651"/>
<polygon fill="midnightblue" stroke="midnightblue" points="48.2252,-436.443 51.7464,-446.436 55.2252,-436.429 48.2252,-436.443"/>
</g>
<!-- Node447&#45;&gt;Node443 -->
<g id="edge7" class="edge"><title>Node447&#45;&gt;Node443</title>
<path fill="none" stroke="midnightblue" d="M699.401,-171.433C710.909,-220.57 744.335,-353.183 792,-456 812.768,-500.799 846.871,-549.1 861.716,-569.28"/>
<polygon fill="midnightblue" stroke="midnightblue" points="702.773,-170.48 697.115,-161.523 695.953,-172.054 702.773,-170.48"/>
</g>
<!-- Node448 -->
<g id="node8" class="node"><title>Node448</title>
<g id="a_node8"><a xlink:href="$a00954.html#aa24ead3c2c8fb3e58110f1f79453ce29" xlink:title="Balance_Partition">
<polygon fill="white" stroke="black" points="822.5,-104.5 822.5,-123.5 917.5,-123.5 917.5,-104.5 822.5,-104.5"/>
<text text-anchor="middle" x="870" y="-111.5" font-family="Helvetica,sans-Serif" font-size="10.00">Balance_Partition</text>
</a>
</g>
</g>
<!-- Node447&#45;&gt;Node448 -->
<g id="edge8" class="edge"><title>Node447&#45;&gt;Node448</title>
<path fill="none" stroke="midnightblue" d="M748.814,-140.247C773.418,-134.874 802.187,-128.591 825.408,-123.52"/>
<polygon fill="midnightblue" stroke="midnightblue" points="747.93,-136.858 738.908,-142.411 749.424,-143.697 747.93,-136.858"/>
</g>
<!-- Node449 -->
<g id="node9" class="node"><title>Node449</title>
<g id="a_node9"><a xlink:href="$a00416.html#af4fae82dc1fc688ae704c61e647d33e4" xlink:title="PartitionSmallGraph">
<polygon fill="white" stroke="black" points="817,-142.5 817,-161.5 923,-161.5 923,-142.5 817,-142.5"/>
<text text-anchor="middle" x="870" y="-149.5" font-family="Helvetica,sans-Serif" font-size="10.00">PartitionSmallGraph</text>
</a>
</g>
</g>
<!-- Node447&#45;&gt;Node449 -->
<g id="edge9" class="edge"><title>Node447&#45;&gt;Node449</title>
<path fill="none" stroke="midnightblue" d="M766.269,-152C783.201,-152 800.955,-152 816.85,-152"/>
<polygon fill="midnightblue" stroke="midnightblue" points="765.857,-148.5 755.857,-152 765.857,-155.5 765.857,-148.5"/>
</g>
<!-- Node450 -->
<g id="node10" class="node"><title>Node450</title>
<g id="a_node10"><a xlink:href="$a00954.html#a5358042c354702d9e8128f7cc342a322" xlink:title="InitPartition">
<polygon fill="white" stroke="black" points="836.5,-66.5 836.5,-85.5 903.5,-85.5 903.5,-66.5 836.5,-66.5"/>
<text text-anchor="middle" x="870" y="-73.5" font-family="Helvetica,sans-Serif" font-size="10.00">InitPartition</text>
</a>
</g>
</g>
<!-- Node447&#45;&gt;Node450 -->
<g id="edge10" class="edge"><title>Node447&#45;&gt;Node450</title>
<path fill="none" stroke="midnightblue" d="M716.754,-136.73C735.815,-123.971 764.669,-106.126 792,-95 806.156,-89.2375 822.512,-84.9001 836.499,-81.8353"/>
<polygon fill="midnightblue" stroke="midnightblue" points="714.776,-133.842 708.479,-142.363 718.715,-139.629 714.776,-133.842"/>
</g>
<!-- Node447&#45;&gt;Node451 -->
<g id="edge11" class="edge"><title>Node447&#45;&gt;Node451</title>
<path fill="none" stroke="midnightblue" d="M705.071,-170.859C722.195,-202.668 758.405,-268.818 792,-323 816.542,-362.582 848.372,-408.008 862.148,-427.409"/>
<polygon fill="midnightblue" stroke="midnightblue" points="708.02,-168.954 700.209,-161.797 701.852,-172.263 708.02,-168.954"/>
</g>
<!-- Node447&#45;&gt;Node452 -->
<g id="edge12" class="edge"><title>Node447&#45;&gt;Node452</title>
<path fill="none" stroke="midnightblue" d="M703.485,-170.983C717.542,-200.181 748.49,-255.786 792,-285 797.83,-288.914 804.393,-292.023 811.166,-294.492"/>
<polygon fill="midnightblue" stroke="midnightblue" points="706.622,-169.429 699.224,-161.844 700.277,-172.386 706.622,-169.429"/>
</g>
<!-- Node447&#45;&gt;Node454 -->
<g id="edge14" class="edge"><title>Node447&#45;&gt;Node454</title>
<path fill="none" stroke="midnightblue" d="M733.786,-165.247C741.346,-168.384 749.071,-171.998 756,-176 797.7,-200.081 840.412,-238.666 859.162,-256.453"/>
<polygon fill="midnightblue" stroke="midnightblue" points="734.956,-161.946 724.369,-161.534 732.389,-168.458 734.956,-161.946"/>
</g>
<!-- Node447&#45;&gt;Node455 -->
<g id="edge16" class="edge"><title>Node447&#45;&gt;Node455</title>
<path fill="none" stroke="midnightblue" d="M707.96,-134.502C724.874,-112.949 756.531,-76.7678 792,-57 810.522,-46.6772 834.624,-41.8984 850.89,-39.729"/>
<polygon fill="midnightblue" stroke="midnightblue" points="705.139,-132.43 701.837,-142.497 710.696,-136.686 705.139,-132.43"/>
</g>
<!-- Node453 -->
<g id="node13" class="node"><title>Node453</title>
<g id="a_node13"><a xlink:href="$a00323.html#a0ddf1224851353fc92bfbff6f499fa97" xlink:title="main">
<polygon fill="white" stroke="black" points="984,-275.5 984,-294.5 1022,-294.5 1022,-275.5 984,-275.5"/>
<text text-anchor="middle" x="1003" y="-282.5" font-family="Helvetica,sans-Serif" font-size="10.00">main</text>
</a>
</g>
</g>
<!-- Node452&#45;&gt;Node453 -->
<g id="edge13" class="edge"><title>Node452&#45;&gt;Node453</title>
<path fill="none" stroke="midnightblue" d="M941.451,-293.782C957.128,-291.508 972.424,-289.29 983.72,-287.651"/>
<polygon fill="midnightblue" stroke="midnightblue" points="940.526,-290.379 931.132,-295.279 941.531,-297.307 940.526,-290.379"/>
</g>
<!-- Node454&#45;&gt;Node453 -->
<g id="edge15" class="edge"><title>Node454&#45;&gt;Node453</title>
<path fill="none" stroke="midnightblue" d="M938.039,-275.723C954.991,-278.182 971.804,-280.62 983.935,-282.38"/>
<polygon fill="midnightblue" stroke="midnightblue" points="938.476,-272.25 928.077,-274.278 937.471,-279.178 938.476,-272.25"/>
</g>
<!-- Node456&#45;&gt;Node454 -->
<g id="edge19" class="edge"><title>Node456&#45;&gt;Node454</title>
<path fill="none" stroke="midnightblue" d="M280.668,-368.868C408.553,-346.508 694.629,-296.488 814.507,-275.528"/>
<polygon fill="midnightblue" stroke="midnightblue" points="279.881,-365.452 270.633,-370.622 281.086,-372.348 279.881,-365.452"/>
</g>
<!-- Node457 -->
<g id="node17" class="node"><title>Node457</title>
<g id="a_node17"><a xlink:href="$a00317.html#a0ddf1224851353fc92bfbff6f499fa97" xlink:title="main">
<polygon fill="white" stroke="black" points="365,-370.5 365,-389.5 403,-389.5 403,-370.5 365,-370.5"/>
<text text-anchor="middle" x="384" y="-377.5" font-family="Helvetica,sans-Serif" font-size="10.00">main</text>
</a>
</g>
</g>
<!-- Node456&#45;&gt;Node457 -->
<g id="edge20" class="edge"><title>Node456&#45;&gt;Node457</title>
<path fill="none" stroke="midnightblue" d="M280.945,-380C311.051,-380 344.692,-380 364.838,-380"/>
<polygon fill="midnightblue" stroke="midnightblue" points="280.895,-376.5 270.895,-380 280.895,-383.5 280.895,-376.5"/>
</g>
<!-- Node458&#45;&gt;Node452 -->
<g id="edge22" class="edge"><title>Node458&#45;&gt;Node452</title>
<path fill="none" stroke="midnightblue" d="M283.562,-414.56C327.568,-411.726 386.435,-406.865 438,-399 586.274,-376.385 759.793,-332.81 833.256,-313.551"/>
<polygon fill="midnightblue" stroke="midnightblue" points="283.321,-411.068 273.559,-415.186 283.758,-418.055 283.321,-411.068"/>
</g>
<!-- Node458&#45;&gt;Node457 -->
<g id="edge23" class="edge"><title>Node458&#45;&gt;Node457</title>
<path fill="none" stroke="midnightblue" d="M268.806,-406.141C301.64,-398.625 342.095,-389.364 364.979,-384.125"/>
<polygon fill="midnightblue" stroke="midnightblue" points="267.856,-402.768 258.889,-408.411 269.418,-409.591 267.856,-402.768"/>
</g>
<!-- Node461 -->
<g id="node21" class="node"><title>Node461</title>
<g id="a_node21"><a xlink:href="$a00326.html#a0ddf1224851353fc92bfbff6f499fa97" xlink:title="main">
<polygon fill="white" stroke="black" points="365,-484.5 365,-503.5 403,-503.5 403,-484.5 365,-484.5"/>
<text text-anchor="middle" x="384" y="-491.5" font-family="Helvetica,sans-Serif" font-size="10.00">main</text>
</a>
</g>
</g>
<!-- Node460&#45;&gt;Node461 -->
<g id="edge28" class="edge"><title>Node460&#45;&gt;Node461</title>
<path fill="none" stroke="midnightblue" d="M272.103,-494C304.232,-494 342.671,-494 364.82,-494"/>
<polygon fill="midnightblue" stroke="midnightblue" points="271.922,-490.5 261.922,-494 271.922,-497.5 271.922,-490.5"/>
</g>
<!-- Node462&#45;&gt;Node448 -->
<g id="edge30" class="edge"><title>Node462&#45;&gt;Node448</title>
<path fill="none" stroke="midnightblue" d="M275.288,-140.697C292.812,-137.705 312.131,-134.809 330,-133 511.426,-114.63 728.75,-113.214 822.357,-113.588"/>
<polygon fill="midnightblue" stroke="midnightblue" points="274.448,-137.29 265.201,-142.462 275.655,-144.186 274.448,-137.29"/>
</g>
<!-- Node462&#45;&gt;Node450 -->
<g id="edge31" class="edge"><title>Node462&#45;&gt;Node450</title>
<path fill="none" stroke="midnightblue" d="M255.726,-139.471C277.357,-132.957 304.927,-125.447 330,-121 519.772,-87.3444 751.719,-78.7294 836.225,-76.6363"/>
<polygon fill="midnightblue" stroke="midnightblue" points="254.464,-136.197 245.929,-142.475 256.516,-142.889 254.464,-136.197"/>
</g>
<!-- Node462&#45;&gt;Node452 -->
<g id="edge35" class="edge"><title>Node462&#45;&gt;Node452</title>
<path fill="none" stroke="midnightblue" d="M277.039,-164.518C282.87,-166.414 288.615,-168.566 294,-171 311.751,-179.022 312.369,-187.718 330,-196 491.965,-272.079 705.819,-294.65 808.667,-301.282"/>
<polygon fill="midnightblue" stroke="midnightblue" points="277.776,-161.085 267.192,-161.565 275.764,-167.79 277.776,-161.085"/>
</g>
<!-- Node462&#45;&gt;Node454 -->
<g id="edge36" class="edge"><title>Node462&#45;&gt;Node454</title>
<path fill="none" stroke="midnightblue" d="M281.533,-163.283C409.739,-185.7 694.456,-235.482 814.229,-256.423"/>
<polygon fill="midnightblue" stroke="midnightblue" points="281.921,-159.798 271.468,-161.523 280.715,-166.694 281.921,-159.798"/>
</g>
<!-- Node462&#45;&gt;Node455 -->
<g id="edge37" class="edge"><title>Node462&#45;&gt;Node455</title>
<path fill="none" stroke="midnightblue" d="M243.282,-137.668C265.67,-126.128 299.042,-110.481 330,-102 529.039,-47.4748 781.989,-39.4019 850.95,-38.2073"/>
<polygon fill="midnightblue" stroke="midnightblue" points="241.628,-134.584 234.399,-142.329 244.88,-140.782 241.628,-134.584"/>
</g>
<!-- Node463 -->
<g id="node23" class="node"><title>Node463</title>
<g id="a_node23"><a xlink:href="$a00948.html#a870e37cc14eb1033c62d83d3a7c33a91" xlink:title="InitKWayPartitioning">
<polygon fill="white" stroke="black" points="330.5,-142.5 330.5,-161.5 437.5,-161.5 437.5,-142.5 330.5,-142.5"/>
<text text-anchor="middle" x="384" y="-149.5" font-family="Helvetica,sans-Serif" font-size="10.00">InitKWayPartitioning</text>
</a>
</g>
</g>
<!-- Node462&#45;&gt;Node463 -->
<g id="edge32" class="edge"><title>Node462&#45;&gt;Node463</title>
<path fill="none" stroke="midnightblue" d="M297.976,-152C309.008,-152 320.088,-152 330.436,-152"/>
<polygon fill="midnightblue" stroke="midnightblue" points="297.88,-148.5 287.88,-152 297.88,-155.5 297.88,-148.5"/>
</g>
<!-- Node464 -->
<g id="node24" class="node"><title>Node464</title>
<g id="a_node24"><a xlink:href="$a00948.html#a7973c78504ad6711d3516082b1112805" xlink:title="MlevelKWayPartitioning">
<polygon fill="white" stroke="black" points="474,-142.5 474,-161.5 596,-161.5 596,-142.5 474,-142.5"/>
<text text-anchor="middle" x="535" y="-149.5" font-family="Helvetica,sans-Serif" font-size="10.00">MlevelKWayPartitioning</text>
</a>
</g>
</g>
<!-- Node463&#45;&gt;Node464 -->
<g id="edge33" class="edge"><title>Node463&#45;&gt;Node464</title>
<path fill="none" stroke="midnightblue" d="M447.589,-152C456.268,-152 465.168,-152 473.802,-152"/>
<polygon fill="midnightblue" stroke="midnightblue" points="447.532,-148.5 437.532,-152 447.532,-155.5 447.532,-148.5"/>
</g>
<!-- Node464&#45;&gt;Node447 -->
<g id="edge34" class="edge"><title>Node464&#45;&gt;Node447</title>
<path fill="none" stroke="midnightblue" d="M606.361,-152C615.047,-152 623.868,-152 632.391,-152"/>
<polygon fill="midnightblue" stroke="midnightblue" points="606.251,-148.5 596.251,-152 606.251,-155.5 606.251,-148.5"/>
</g>
</g>
</svg>
