<?xml version="1.0" encoding="UTF-8" standalone="no"?>
<!DOCTYPE svg PUBLIC "-//W3C//DTD SVG 1.1//EN"
 "http://www.w3.org/Graphics/SVG/1.1/DTD/svg11.dtd">
<!-- Generated by graphviz version 2.36.0 (20140111.2315)
 -->
<!-- Title: METIS_SetDefaultOptions Pages: 1 -->
<svg width="870pt" height="334pt"
 viewBox="0.00 0.00 870.00 333.65" xmlns="http://www.w3.org/2000/svg" xmlns:xlink="http://www.w3.org/1999/xlink">
<g id="graph0" class="graph" transform="scale(1 1) rotate(0) translate(4 329.647)">
<title>METIS_SetDefaultOptions</title>
<polygon fill="white" stroke="none" points="-4,4 -4,-329.647 866,-329.647 866,4 -4,4"/>
<!-- Node7 -->
<g id="node1" class="node"><title>Node7</title>
<polygon fill="#bfbfbf" stroke="black" points="0,-133.5 0,-152.5 134,-152.5 134,-133.5 0,-133.5"/>
<text text-anchor="middle" x="67" y="-140.5" font-family="Helvetica,sans-Serif" font-size="10.00">METIS_SetDefaultOptions</text>
</g>
<!-- Node8 -->
<g id="node2" class="node"><title>Node8</title>
<g id="a_node2"><a xlink:href="a00846.html#a6df93293cf3d1ccb4659bd1b3091623d" target="_top" xlink:title="ParMETIS_V3_PartGeomKway">
<polygon fill="white" stroke="black" points="632,-304.5 632,-323.5 788,-323.5 788,-304.5 632,-304.5"/>
<text text-anchor="middle" x="710" y="-311.5" font-family="Helvetica,sans-Serif" font-size="10.00">ParMETIS_V3_PartGeomKway</text>
</a>
</g>
</g>
<!-- Node7&#45;&gt;Node8 -->
<g id="edge1" class="edge"><title>Node7&#45;&gt;Node8</title>
<path fill="none" stroke="midnightblue" d="M80.3311,-161.056C97.5485,-184.811 131.09,-226.103 170,-248 317.065,-330.761 521.989,-330.054 631.96,-322.141"/>
<polygon fill="midnightblue" stroke="midnightblue" points="82.9922,-158.757 74.3633,-152.609 77.2752,-162.796 82.9922,-158.757"/>
</g>
<!-- Node9 -->
<g id="node3" class="node"><title>Node9</title>
<g id="a_node3"><a xlink:href="a00954.html#aa24ead3c2c8fb3e58110f1f79453ce29" target="_top" xlink:title="Balance_Partition">
<polygon fill="white" stroke="black" points="662.5,-266.5 662.5,-285.5 757.5,-285.5 757.5,-266.5 662.5,-266.5"/>
<text text-anchor="middle" x="710" y="-273.5" font-family="Helvetica,sans-Serif" font-size="10.00">Balance_Partition</text>
</a>
</g>
</g>
<!-- Node7&#45;&gt;Node9 -->
<g id="edge2" class="edge"><title>Node7&#45;&gt;Node9</title>
<path fill="none" stroke="midnightblue" d="M84.2128,-159.542C103.009,-177.57 135.809,-205.626 170,-219 341.76,-286.185 566.464,-283.905 662.36,-279.146"/>
<polygon fill="midnightblue" stroke="midnightblue" points="86.6363,-157.017 77.0515,-152.502 81.7288,-162.009 86.6363,-157.017"/>
</g>
<!-- Node10 -->
<g id="node4" class="node"><title>Node10</title>
<g id="a_node4"><a xlink:href="a00954.html#ae5b482d2dc0a65057e8d69e57773279a" target="_top" xlink:title="InitMultisection">
<polygon fill="white" stroke="black" points="182.5,-0.5 182.5,-19.5 265.5,-19.5 265.5,-0.5 182.5,-0.5"/>
<text text-anchor="middle" x="224" y="-7.5" font-family="Helvetica,sans-Serif" font-size="10.00">InitMultisection</text>
</a>
</g>
</g>
<!-- Node7&#45;&gt;Node10 -->
<g id="edge3" class="edge"><title>Node7&#45;&gt;Node10</title>
<path fill="none" stroke="midnightblue" d="M80.9265,-125.333C98.7853,-101.925 133.016,-60.5082 170,-34 178.046,-28.2333 187.698,-23.3646 196.548,-19.5515"/>
<polygon fill="midnightblue" stroke="midnightblue" points="78.1111,-123.253 74.912,-133.354 83.7115,-127.453 78.1111,-123.253"/>
</g>
<!-- Node11 -->
<g id="node5" class="node"><title>Node11</title>
<g id="a_node5"><a xlink:href="a00416.html#af4fae82dc1fc688ae704c61e647d33e4" target="_top" xlink:title="PartitionSmallGraph">
<polygon fill="white" stroke="black" points="657,-152.5 657,-171.5 763,-171.5 763,-152.5 657,-152.5"/>
<text text-anchor="middle" x="710" y="-159.5" font-family="Helvetica,sans-Serif" font-size="10.00">PartitionSmallGraph</text>
</a>
</g>
</g>
<!-- Node7&#45;&gt;Node11 -->
<g id="edge4" class="edge"><title>Node7&#45;&gt;Node11</title>
<path fill="none" stroke="midnightblue" d="M144.217,-145.259C276.189,-149.171 543.944,-157.108 656.884,-160.455"/>
<polygon fill="midnightblue" stroke="midnightblue" points="144.283,-141.76 134.184,-144.962 144.076,-148.757 144.283,-141.76"/>
</g>
<!-- Node12 -->
<g id="node6" class="node"><title>Node12</title>
<g id="a_node6"><a xlink:href="a00954.html#a5358042c354702d9e8128f7cc342a322" target="_top" xlink:title="InitPartition">
<polygon fill="white" stroke="black" points="676.5,-114.5 676.5,-133.5 743.5,-133.5 743.5,-114.5 676.5,-114.5"/>
<text text-anchor="middle" x="710" y="-121.5" font-family="Helvetica,sans-Serif" font-size="10.00">InitPartition</text>
</a>
</g>
</g>
<!-- Node7&#45;&gt;Node12 -->
<g id="edge5" class="edge"><title>Node7&#45;&gt;Node12</title>
<path fill="none" stroke="midnightblue" d="M144.428,-140.735C284.777,-136.574 578.184,-127.878 676.271,-124.97"/>
<polygon fill="midnightblue" stroke="midnightblue" points="144.076,-137.243 134.184,-141.038 144.283,-144.24 144.076,-137.243"/>
</g>
<!-- Node13 -->
<g id="node7" class="node"><title>Node13</title>
<g id="a_node7"><a xlink:href="a00948.html#a870e37cc14eb1033c62d83d3a7c33a91" target="_top" xlink:title="InitKWayPartitioning">
<polygon fill="white" stroke="black" points="170.5,-190.5 170.5,-209.5 277.5,-209.5 277.5,-190.5 170.5,-190.5"/>
<text text-anchor="middle" x="224" y="-197.5" font-family="Helvetica,sans-Serif" font-size="10.00">InitKWayPartitioning</text>
</a>
</g>
</g>
<!-- Node7&#45;&gt;Node13 -->
<g id="edge6" class="edge"><title>Node7&#45;&gt;Node13</title>
<path fill="none" stroke="midnightblue" d="M103.529,-156.065C132.02,-166.543 171.347,-181.005 196.972,-190.428"/>
<polygon fill="midnightblue" stroke="midnightblue" points="104.537,-152.707 93.9435,-152.541 102.121,-159.277 104.537,-152.707"/>
</g>
<!-- Node16 -->
<g id="node10" class="node"><title>Node16</title>
<g id="a_node10"><a xlink:href="a00846.html#af418d1e76eaf4f80116da4caf51bd54e" target="_top" xlink:title="ParMETIS_V3_PartKway">
<polygon fill="white" stroke="black" points="645.5,-76.5 645.5,-95.5 774.5,-95.5 774.5,-76.5 645.5,-76.5"/>
<text text-anchor="middle" x="710" y="-83.5" font-family="Helvetica,sans-Serif" font-size="10.00">ParMETIS_V3_PartKway</text>
</a>
</g>
</g>
<!-- Node7&#45;&gt;Node16 -->
<g id="edge19" class="edge"><title>Node7&#45;&gt;Node16</title>
<path fill="none" stroke="midnightblue" d="M144.254,-135.434C152.936,-134.599 161.659,-133.773 170,-133 341.63,-117.104 544.149,-99.8481 645.092,-91.349"/>
<polygon fill="midnightblue" stroke="midnightblue" points="143.723,-131.969 134.106,-136.414 144.397,-138.936 143.723,-131.969"/>
</g>
<!-- Node20 -->
<g id="node14" class="node"><title>Node20</title>
<g id="a_node14"><a xlink:href="a00311.html#a0ddf1224851353fc92bfbff6f499fa97" target="_top" xlink:title="main">
<polygon fill="white" stroke="black" points="691,-38.5 691,-57.5 729,-57.5 729,-38.5 691,-38.5"/>
<text text-anchor="middle" x="710" y="-45.5" font-family="Helvetica,sans-Serif" font-size="10.00">main</text>
</a>
</g>
</g>
<!-- Node7&#45;&gt;Node20 -->
<g id="edge20" class="edge"><title>Node7&#45;&gt;Node20</title>
<path fill="none" stroke="midnightblue" d="M116.736,-131.083C133.547,-127.22 152.539,-123.128 170,-120 373.047,-83.6203 622.142,-56.8907 690.762,-49.8404"/>
<polygon fill="midnightblue" stroke="midnightblue" points="115.528,-127.77 106.583,-133.448 117.117,-134.588 115.528,-127.77"/>
</g>
<!-- Node14 -->
<g id="node8" class="node"><title>Node14</title>
<g id="a_node8"><a xlink:href="a00948.html#a7973c78504ad6711d3516082b1112805" target="_top" xlink:title="MlevelKWayPartitioning">
<polygon fill="white" stroke="black" points="314,-190.5 314,-209.5 436,-209.5 436,-190.5 314,-190.5"/>
<text text-anchor="middle" x="375" y="-197.5" font-family="Helvetica,sans-Serif" font-size="10.00">MlevelKWayPartitioning</text>
</a>
</g>
</g>
<!-- Node13&#45;&gt;Node14 -->
<g id="edge7" class="edge"><title>Node13&#45;&gt;Node14</title>
<path fill="none" stroke="midnightblue" d="M287.589,-200C296.268,-200 305.168,-200 313.802,-200"/>
<polygon fill="midnightblue" stroke="midnightblue" points="287.532,-196.5 277.532,-200 287.532,-203.5 287.532,-196.5"/>
</g>
<!-- Node15 -->
<g id="node9" class="node"><title>Node15</title>
<g id="a_node9"><a xlink:href="a00912.html#af89851458c047aba436b36ed567441e4" target="_top" xlink:title="METIS_PartGraphKway">
<polygon fill="white" stroke="black" points="472.5,-190.5 472.5,-209.5 595.5,-209.5 595.5,-190.5 472.5,-190.5"/>
<text text-anchor="middle" x="534" y="-197.5" font-family="Helvetica,sans-Serif" font-size="10.00">METIS_PartGraphKway</text>
</a>
</g>
</g>
<!-- Node14&#45;&gt;Node15 -->
<g id="edge8" class="edge"><title>Node14&#45;&gt;Node15</title>
<path fill="none" stroke="midnightblue" d="M446.361,-200C455.047,-200 463.868,-200 472.391,-200"/>
<polygon fill="midnightblue" stroke="midnightblue" points="446.251,-196.5 436.251,-200 446.251,-203.5 446.251,-196.5"/>
</g>
<!-- Node15&#45;&gt;Node8 -->
<g id="edge9" class="edge"><title>Node15&#45;&gt;Node8</title>
<path fill="none" stroke="midnightblue" d="M547.96,-217.498C564.874,-239.051 596.531,-275.232 632,-295 638.976,-298.888 646.743,-301.989 654.585,-304.461"/>
<polygon fill="midnightblue" stroke="midnightblue" points="550.696,-215.314 541.837,-209.503 545.139,-219.57 550.696,-215.314"/>
</g>
<!-- Node15&#45;&gt;Node9 -->
<g id="edge10" class="edge"><title>Node15&#45;&gt;Node9</title>
<path fill="none" stroke="midnightblue" d="M556.754,-215.27C575.815,-228.029 604.669,-245.874 632,-257 641.565,-260.894 652.134,-264.137 662.298,-266.776"/>
<polygon fill="midnightblue" stroke="midnightblue" points="558.715,-212.371 548.479,-209.637 554.776,-218.158 558.715,-212.371"/>
</g>
<!-- Node15&#45;&gt;Node11 -->
<g id="edge11" class="edge"><title>Node15&#45;&gt;Node11</title>
<path fill="none" stroke="midnightblue" d="M588.814,-188.247C613.418,-182.874 642.187,-176.591 665.408,-171.52"/>
<polygon fill="midnightblue" stroke="midnightblue" points="587.93,-184.858 578.908,-190.411 589.424,-191.697 587.93,-184.858"/>
</g>
<!-- Node15&#45;&gt;Node12 -->
<g id="edge12" class="edge"><title>Node15&#45;&gt;Node12</title>
<path fill="none" stroke="midnightblue" d="M556.754,-184.73C575.815,-171.971 604.669,-154.126 632,-143 646.156,-137.237 662.512,-132.9 676.499,-129.835"/>
<polygon fill="midnightblue" stroke="midnightblue" points="554.776,-181.842 548.479,-190.363 558.715,-187.629 554.776,-181.842"/>
</g>
<!-- Node15&#45;&gt;Node16 -->
<g id="edge13" class="edge"><title>Node15&#45;&gt;Node16</title>
<path fill="none" stroke="midnightblue" d="M547.96,-182.502C564.874,-160.949 596.531,-124.768 632,-105 638.976,-101.112 646.743,-98.0108 654.585,-95.539"/>
<polygon fill="midnightblue" stroke="midnightblue" points="545.139,-180.43 541.837,-190.497 550.696,-184.686 545.139,-180.43"/>
</g>
<!-- Node17 -->
<g id="node11" class="node"><title>Node17</title>
<g id="a_node11"><a xlink:href="a00236.html#ade1e7e23ad687989a6343b4fb8d61ba7" target="_top" xlink:title="METIS_PartMeshNodal">
<polygon fill="white" stroke="black" points="649,-228.5 649,-247.5 771,-247.5 771,-228.5 649,-228.5"/>
<text text-anchor="middle" x="710" y="-235.5" font-family="Helvetica,sans-Serif" font-size="10.00">METIS_PartMeshNodal</text>
</a>
</g>
</g>
<!-- Node15&#45;&gt;Node17 -->
<g id="edge14" class="edge"><title>Node15&#45;&gt;Node17</title>
<path fill="none" stroke="midnightblue" d="M588.814,-211.753C613.418,-217.126 642.187,-223.409 665.408,-228.48"/>
<polygon fill="midnightblue" stroke="midnightblue" points="589.424,-208.303 578.908,-209.589 587.93,-215.142 589.424,-208.303"/>
</g>
<!-- Node19 -->
<g id="node13" class="node"><title>Node19</title>
<g id="a_node13"><a xlink:href="a00236.html#a8f496ac1cd2246b124da246b5c6f9193" target="_top" xlink:title="METIS_PartMeshDual">
<polygon fill="white" stroke="black" points="652,-190.5 652,-209.5 768,-209.5 768,-190.5 652,-190.5"/>
<text text-anchor="middle" x="710" y="-197.5" font-family="Helvetica,sans-Serif" font-size="10.00">METIS_PartMeshDual</text>
</a>
</g>
</g>
<!-- Node15&#45;&gt;Node19 -->
<g id="edge16" class="edge"><title>Node15&#45;&gt;Node19</title>
<path fill="none" stroke="midnightblue" d="M606.264,-200C621.485,-200 637.371,-200 651.973,-200"/>
<polygon fill="midnightblue" stroke="midnightblue" points="605.857,-196.5 595.857,-200 605.857,-203.5 605.857,-196.5"/>
</g>
<!-- Node15&#45;&gt;Node20 -->
<g id="edge18" class="edge"><title>Node15&#45;&gt;Node20</title>
<path fill="none" stroke="midnightblue" d="M543.485,-181.017C557.542,-151.819 588.49,-96.2138 632,-67 649.719,-55.1033 674.209,-50.6475 690.775,-48.9834"/>
<polygon fill="midnightblue" stroke="midnightblue" points="540.277,-179.614 539.224,-190.156 546.622,-182.571 540.277,-179.614"/>
</g>
<!-- Node18 -->
<g id="node12" class="node"><title>Node18</title>
<g id="a_node12"><a xlink:href="a00323.html#a0ddf1224851353fc92bfbff6f499fa97" target="_top" xlink:title="main">
<polygon fill="white" stroke="black" points="824,-209.5 824,-228.5 862,-228.5 862,-209.5 824,-209.5"/>
<text text-anchor="middle" x="843" y="-216.5" font-family="Helvetica,sans-Serif" font-size="10.00">main</text>
</a>
</g>
</g>
<!-- Node17&#45;&gt;Node18 -->
<g id="edge15" class="edge"><title>Node17&#45;&gt;Node18</title>
<path fill="none" stroke="midnightblue" d="M781.451,-227.782C797.128,-225.508 812.424,-223.29 823.72,-221.651"/>
<polygon fill="midnightblue" stroke="midnightblue" points="780.526,-224.379 771.132,-229.279 781.531,-231.307 780.526,-224.379"/>
</g>
<!-- Node19&#45;&gt;Node18 -->
<g id="edge17" class="edge"><title>Node19&#45;&gt;Node18</title>
<path fill="none" stroke="midnightblue" d="M778.039,-209.723C794.991,-212.182 811.804,-214.62 823.935,-216.38"/>
<polygon fill="midnightblue" stroke="midnightblue" points="778.476,-206.25 768.077,-208.278 777.471,-213.178 778.476,-206.25"/>
</g>
</g>
</svg>
