<?xml version="1.0" encoding="UTF-8" standalone="no"?>
<!DOCTYPE svg PUBLIC "-//W3C//DTD SVG 1.1//EN"
 "http://www.w3.org/Graphics/SVG/1.1/DTD/svg11.dtd">
<!-- Generated by graphviz version 2.36.0 (20140111.2315)
 -->
<!-- Title: test_ikvsort Pages: 1 -->
<svg width="180pt" height="66pt"
 viewBox="0.00 0.00 180.00 66.00" xmlns="http://www.w3.org/2000/svg" xmlns:xlink="http://www.w3.org/1999/xlink">
<g id="graph0" class="graph" transform="scale(1 1) rotate(0) translate(4 62)">
<title>test_ikvsort</title>
<polygon fill="white" stroke="none" points="-4,4 -4,-62 176,-62 176,4 -4,4"/>
<!-- Node58 -->
<g id="node1" class="node"><title>Node58</title>
<polygon fill="#bfbfbf" stroke="black" points="0.5,-19.5 0.5,-38.5 67.5,-38.5 67.5,-19.5 0.5,-19.5"/>
<text text-anchor="middle" x="34" y="-26.5" font-family="Helvetica,sans-Serif" font-size="10.00">test_ikvsort</text>
</g>
<!-- Node59 -->
<g id="node2" class="node"><title>Node59</title>
<g id="a_node2"><a xlink:href="a00077.html#a87b4cd1adb002c1987c1537130e8ee31" target="_top" xlink:title="gk_ikvsorti">
<polygon fill="white" stroke="black" points="106,-38.5 106,-57.5 170,-57.5 170,-38.5 106,-38.5"/>
<text text-anchor="middle" x="138" y="-45.5" font-family="Helvetica,sans-Serif" font-size="10.00">gk_ikvsorti</text>
</a>
</g>
</g>
<!-- Node58&#45;&gt;Node59 -->
<g id="edge1" class="edge"><title>Node58&#45;&gt;Node59</title>
<path fill="none" stroke="midnightblue" d="M67.5539,-35.064C76.5453,-36.7388 86.4207,-38.5784 95.8318,-40.3314"/>
<polygon fill="midnightblue" stroke="midnightblue" points="95.326,-43.7973 105.798,-42.1878 96.608,-36.9157 95.326,-43.7973"/>
</g>
<!-- Node60 -->
<g id="node3" class="node"><title>Node60</title>
<g id="a_node3"><a xlink:href="a00077.html#a6630af89129be5c65ca81e3f3cfc3f9f" target="_top" xlink:title="gk_ikvsortd">
<polygon fill="white" stroke="black" points="104.5,-0.5 104.5,-19.5 171.5,-19.5 171.5,-0.5 104.5,-0.5"/>
<text text-anchor="middle" x="138" y="-7.5" font-family="Helvetica,sans-Serif" font-size="10.00">gk_ikvsortd</text>
</a>
</g>
</g>
<!-- Node58&#45;&gt;Node60 -->
<g id="edge2" class="edge"><title>Node58&#45;&gt;Node60</title>
<path fill="none" stroke="midnightblue" d="M67.5539,-22.936C76.1107,-21.3421 85.4682,-19.5991 94.4643,-17.9233"/>
<polygon fill="midnightblue" stroke="midnightblue" points="95.2156,-21.3437 104.406,-16.0715 93.9337,-14.462 95.2156,-21.3437"/>
</g>
</g>
</svg>
