<?xml version="1.0" encoding="UTF-8" standalone="no"?>
<!DOCTYPE svg PUBLIC "-//W3C//DTD SVG 1.1//EN"
 "http://www.w3.org/Graphics/SVG/1.1/DTD/svg11.dtd">
<!-- Generated by graphviz version 2.36.0 (20140111.2315)
 -->
<!-- Title: BuildIntVector Pages: 1 -->
<svg width="388pt" height="180pt"
 viewBox="0.00 0.00 388.00 180.00" xmlns="http://www.w3.org/2000/svg" xmlns:xlink="http://www.w3.org/1999/xlink">
<g id="graph0" class="graph" transform="scale(1 1) rotate(0) translate(4 176)">
<title>BuildIntVector</title>
<polygon fill="white" stroke="none" points="-4,4 -4,-176 384,-176 384,4 -4,4"/>
<!-- Node25 -->
<g id="node1" class="node"><title>Node25</title>
<polygon fill="#bfbfbf" stroke="black" points="0.5,-76.5 0.5,-95.5 79.5,-95.5 79.5,-76.5 0.5,-76.5"/>
<text text-anchor="middle" x="40" y="-83.5" font-family="Helvetica,sans-Serif" font-size="10.00">BuildIntVector</text>
</g>
<!-- Node26 -->
<g id="node2" class="node"><title>Node26</title>
<g id="a_node2"><a xlink:href="a00203.html#a73ad96b82acf2bf80fd24823a58b3f14" target="_top" xlink:title="FacePair2d">
<polygon fill="white" stroke="black" points="238,-152.5 238,-171.5 306,-171.5 306,-152.5 238,-152.5"/>
<text text-anchor="middle" x="272" y="-159.5" font-family="Helvetica,sans-Serif" font-size="10.00">FacePair2d</text>
</a>
</g>
</g>
<!-- Node25&#45;&gt;Node26 -->
<g id="edge1" class="edge"><title>Node25&#45;&gt;Node26</title>
<path fill="none" stroke="midnightblue" d="M57.5805,-102.796C71.78,-116.072 93.4548,-133.84 116,-143 155.685,-159.124 205.427,-162.582 237.694,-162.867"/>
<polygon fill="midnightblue" stroke="midnightblue" points="59.7564,-100.032 50.1337,-95.5984 54.8914,-105.065 59.7564,-100.032"/>
</g>
<!-- Node28 -->
<g id="node4" class="node"><title>Node28</title>
<g id="a_node4"><a xlink:href="a00206.html#af31fd6654ededed596d98c090d8748b5" target="_top" xlink:title="ReadMesh2d">
<polygon fill="white" stroke="black" points="121,-114.5 121,-133.5 197,-133.5 197,-114.5 121,-114.5"/>
<text text-anchor="middle" x="159" y="-121.5" font-family="Helvetica,sans-Serif" font-size="10.00">ReadMesh2d</text>
</a>
</g>
</g>
<!-- Node25&#45;&gt;Node28 -->
<g id="edge3" class="edge"><title>Node25&#45;&gt;Node28</title>
<path fill="none" stroke="midnightblue" d="M80.0424,-98.6804C95.8509,-103.815 113.799,-109.644 128.485,-114.414"/>
<polygon fill="midnightblue" stroke="midnightblue" points="81.1162,-95.3493 70.524,-95.589 78.9538,-102.007 81.1162,-95.3493"/>
</g>
<!-- Node29 -->
<g id="node5" class="node"><title>Node29</title>
<g id="a_node5"><a xlink:href="a00212.html#a004c52e87250e61b258755469b25bbe9" target="_top" xlink:title="LoadBalance3d">
<polygon fill="white" stroke="black" points="116,-76.5 116,-95.5 202,-95.5 202,-76.5 116,-76.5"/>
<text text-anchor="middle" x="159" y="-83.5" font-family="Helvetica,sans-Serif" font-size="10.00">LoadBalance3d</text>
</a>
</g>
</g>
<!-- Node25&#45;&gt;Node29 -->
<g id="edge5" class="edge"><title>Node25&#45;&gt;Node29</title>
<path fill="none" stroke="midnightblue" d="M89.6386,-86C98.318,-86 107.296,-86 115.777,-86"/>
<polygon fill="midnightblue" stroke="midnightblue" points="89.6345,-82.5001 79.6344,-86 89.6344,-89.5001 89.6345,-82.5001"/>
</g>
<!-- Node31 -->
<g id="node7" class="node"><title>Node31</title>
<g id="a_node7"><a xlink:href="a00221.html#a35ba318a20f8b83eefe63eeb1e1ac4b0" target="_top" xlink:title="StartUp2d">
<polygon fill="white" stroke="black" points="241,-38.5 241,-57.5 303,-57.5 303,-38.5 241,-38.5"/>
<text text-anchor="middle" x="272" y="-45.5" font-family="Helvetica,sans-Serif" font-size="10.00">StartUp2d</text>
</a>
</g>
</g>
<!-- Node25&#45;&gt;Node31 -->
<g id="edge7" class="edge"><title>Node25&#45;&gt;Node31</title>
<path fill="none" stroke="midnightblue" d="M84.716,-73.9385C94.9276,-71.3962 105.801,-68.9091 116,-67 159.037,-58.9442 209.461,-53.4908 240.823,-50.5625"/>
<polygon fill="midnightblue" stroke="midnightblue" points="83.5959,-70.6122 74.7743,-76.4799 85.3296,-77.3941 83.5959,-70.6122"/>
</g>
<!-- Node32 -->
<g id="node8" class="node"><title>Node32</title>
<g id="a_node8"><a xlink:href="a00221.html#ac0114aa8a9d094bad20943e1b79ba473" target="_top" xlink:title="BuildMaps2d">
<polygon fill="white" stroke="black" points="122,-0.5 122,-19.5 196,-19.5 196,-0.5 122,-0.5"/>
<text text-anchor="middle" x="159" y="-7.5" font-family="Helvetica,sans-Serif" font-size="10.00">BuildMaps2d</text>
</a>
</g>
</g>
<!-- Node25&#45;&gt;Node32 -->
<g id="edge9" class="edge"><title>Node25&#45;&gt;Node32</title>
<path fill="none" stroke="midnightblue" d="M62.498,-70.3527C77.3133,-59.7543 97.5771,-45.6194 116,-34 123.814,-29.0718 132.667,-23.9477 140.224,-19.7058"/>
<polygon fill="midnightblue" stroke="midnightblue" points="60.1129,-67.7571 54.0426,-76.4405 64.2031,-73.4378 60.1129,-67.7571"/>
</g>
<!-- Node27 -->
<g id="node3" class="node"><title>Node27</title>
<g id="a_node3"><a xlink:href="a00179.html#a3c04138a5bfe5d72780bb7e82a18e627" target="_top" xlink:title="main">
<polygon fill="white" stroke="black" points="342,-114.5 342,-133.5 380,-133.5 380,-114.5 342,-114.5"/>
<text text-anchor="middle" x="361" y="-121.5" font-family="Helvetica,sans-Serif" font-size="10.00">main</text>
</a>
</g>
</g>
<!-- Node26&#45;&gt;Node27 -->
<g id="edge2" class="edge"><title>Node26&#45;&gt;Node27</title>
<path fill="none" stroke="midnightblue" d="M304.238,-148.356C316.865,-142.841 330.992,-136.67 341.868,-131.92"/>
<polygon fill="midnightblue" stroke="midnightblue" points="302.717,-145.201 294.954,-152.411 305.519,-151.616 302.717,-145.201"/>
</g>
<!-- Node28&#45;&gt;Node27 -->
<g id="edge4" class="edge"><title>Node28&#45;&gt;Node27</title>
<path fill="none" stroke="midnightblue" d="M207.412,-124C250.514,-124 311.833,-124 341.926,-124"/>
<polygon fill="midnightblue" stroke="midnightblue" points="207.15,-120.5 197.15,-124 207.15,-127.5 207.15,-120.5"/>
</g>
<!-- Node30 -->
<g id="node6" class="node"><title>Node30</title>
<g id="a_node6"><a xlink:href="a00182.html#a3c04138a5bfe5d72780bb7e82a18e627" target="_top" xlink:title="main">
<polygon fill="white" stroke="black" points="253,-76.5 253,-95.5 291,-95.5 291,-76.5 253,-76.5"/>
<text text-anchor="middle" x="272" y="-83.5" font-family="Helvetica,sans-Serif" font-size="10.00">main</text>
</a>
</g>
</g>
<!-- Node29&#45;&gt;Node30 -->
<g id="edge6" class="edge"><title>Node29&#45;&gt;Node30</title>
<path fill="none" stroke="midnightblue" d="M212.284,-86C226.874,-86 241.761,-86 252.895,-86"/>
<polygon fill="midnightblue" stroke="midnightblue" points="212.281,-82.5001 202.281,-86 212.281,-89.5001 212.281,-82.5001"/>
</g>
<!-- Node31&#45;&gt;Node27 -->
<g id="edge8" class="edge"><title>Node31&#45;&gt;Node27</title>
<path fill="none" stroke="midnightblue" d="M300.404,-62.9305C302.342,-64.242 304.228,-65.6037 306,-67 324.415,-81.5121 342.461,-102.254 352.322,-114.304"/>
<polygon fill="midnightblue" stroke="midnightblue" points="302.105,-59.8663 291.766,-57.5507 298.404,-65.8082 302.105,-59.8663"/>
</g>
<!-- Node32&#45;&gt;Node31 -->
<g id="edge10" class="edge"><title>Node32&#45;&gt;Node31</title>
<path fill="none" stroke="midnightblue" d="M197.891,-22.9718C212.68,-28.0344 229.329,-33.7341 242.999,-38.4141"/>
<polygon fill="midnightblue" stroke="midnightblue" points="198.605,-19.5166 188.01,-19.589 196.337,-26.1393 198.605,-19.5166"/>
</g>
</g>
</svg>
