<?xml version="1.0" encoding="UTF-8" standalone="no"?>
<!DOCTYPE svg PUBLIC "-//W3C//DTD SVG 1.1//EN"
 "http://www.w3.org/Graphics/SVG/1.1/DTD/svg11.dtd">
<!-- Generated by graphviz version 2.36.0 (20140111.2315)
 -->
<!-- Title: gk_mcoreMalloc Pages: 1 -->
<svg width="454pt" height="142pt"
 viewBox="0.00 0.00 454.00 142.00" xmlns="http://www.w3.org/2000/svg" xmlns:xlink="http://www.w3.org/1999/xlink">
<g id="graph0" class="graph" transform="scale(1 1) rotate(0) translate(4 138)">
<title>gk_mcoreMalloc</title>
<polygon fill="white" stroke="none" points="-4,4 -4,-138 450,-138 450,4 -4,4"/>
<!-- Node52 -->
<g id="node1" class="node"><title>Node52</title>
<polygon fill="#bfbfbf" stroke="black" points="0.5,-95.5 0.5,-114.5 89.5,-114.5 89.5,-95.5 0.5,-95.5"/>
<text text-anchor="middle" x="45" y="-102.5" font-family="Helvetica,sans-Serif" font-size="10.00">gk_mcoreMalloc</text>
</g>
<!-- Node53 -->
<g id="node2" class="node"><title>Node53</title>
<g id="a_node2"><a xlink:href="$a00107.html#a366348b623d380f773e5946011e14059" xlink:title="gk_mcoreAdd">
<polygon fill="white" stroke="black" points="126,-114.5 126,-133.5 204,-133.5 204,-114.5 126,-114.5"/>
<text text-anchor="middle" x="165" y="-121.5" font-family="Helvetica,sans-Serif" font-size="10.00">gk_mcoreAdd</text>
</a>
</g>
</g>
<!-- Node52&#45;&gt;Node53 -->
<g id="edge1" class="edge"><title>Node52&#45;&gt;Node53</title>
<path fill="none" stroke="midnightblue" d="M89.6036,-112.021C98.0973,-113.389 107.049,-114.83 115.684,-116.22"/>
<polygon fill="midnightblue" stroke="midnightblue" points="115.201,-119.688 125.63,-117.822 116.314,-112.777 115.201,-119.688"/>
</g>
<!-- Node56 -->
<g id="node5" class="node"><title>Node56</title>
<g id="a_node5"><a xlink:href="$a00077.html#aba6f76f5c67b9b7e9c2e45988d3d3e9d" xlink:title="gk_malloc">
<polygon fill="white" stroke="black" points="134,-76.5 134,-95.5 196,-95.5 196,-76.5 134,-76.5"/>
<text text-anchor="middle" x="165" y="-83.5" font-family="Helvetica,sans-Serif" font-size="10.00">gk_malloc</text>
</a>
</g>
</g>
<!-- Node52&#45;&gt;Node56 -->
<g id="edge4" class="edge"><title>Node52&#45;&gt;Node56</title>
<path fill="none" stroke="midnightblue" d="M89.6036,-97.9791C100.748,-96.1846 112.68,-94.2633 123.653,-92.4965"/>
<polygon fill="midnightblue" stroke="midnightblue" points="124.506,-95.9043 133.823,-90.8591 123.393,-88.9933 124.506,-95.9043"/>
</g>
<!-- Node54 -->
<g id="node3" class="node"><title>Node54</title>
<g id="a_node3"><a xlink:href="$a00026.html#a4c320c13bcdc9967613253ef4c73f59f" xlink:title="gk_errexit">
<polygon fill="white" stroke="black" points="274,-114.5 274,-133.5 334,-133.5 334,-114.5 274,-114.5"/>
<text text-anchor="middle" x="304" y="-121.5" font-family="Helvetica,sans-Serif" font-size="10.00">gk_errexit</text>
</a>
</g>
</g>
<!-- Node53&#45;&gt;Node54 -->
<g id="edge2" class="edge"><title>Node53&#45;&gt;Node54</title>
<path fill="none" stroke="midnightblue" d="M204.162,-124C222.647,-124 244.827,-124 263.487,-124"/>
<polygon fill="midnightblue" stroke="midnightblue" points="263.728,-127.5 273.728,-124 263.728,-120.5 263.728,-127.5"/>
</g>
<!-- Node55 -->
<g id="node4" class="node"><title>Node55</title>
<g id="a_node4"><a xlink:href="$a01017.html#a2e311a777ffe9c80e405efa7cd2757be" xlink:title="fprintf">
<polygon fill="white" stroke="black" points="404,-95.5 404,-114.5 446,-114.5 446,-95.5 404,-95.5"/>
<text text-anchor="middle" x="425" y="-102.5" font-family="Helvetica,sans-Serif" font-size="10.00">fprintf</text>
</a>
</g>
</g>
<!-- Node54&#45;&gt;Node55 -->
<g id="edge3" class="edge"><title>Node54&#45;&gt;Node55</title>
<path fill="none" stroke="midnightblue" d="M334.111,-119.352C352.172,-116.468 375.339,-112.769 393.631,-109.849"/>
<polygon fill="midnightblue" stroke="midnightblue" points="394.439,-113.264 403.762,-108.231 393.335,-106.352 394.439,-113.264"/>
</g>
<!-- Node56&#45;&gt;Node54 -->
<g id="edge8" class="edge"><title>Node56&#45;&gt;Node54</title>
<path fill="none" stroke="midnightblue" d="M196.065,-94.3393C216.056,-99.8843 242.505,-107.22 264.097,-113.209"/>
<polygon fill="midnightblue" stroke="midnightblue" points="263.373,-116.641 273.945,-115.941 265.244,-109.895 263.373,-116.641"/>
</g>
<!-- Node56&#45;&gt;Node55 -->
<g id="edge5" class="edge"><title>Node56&#45;&gt;Node55</title>
<path fill="none" stroke="midnightblue" d="M196.101,-88.2167C245.636,-91.8647 343.795,-99.0934 393.555,-102.758"/>
<polygon fill="midnightblue" stroke="midnightblue" points="393.458,-106.26 403.688,-103.504 393.972,-99.2791 393.458,-106.26"/>
</g>
<!-- Node57 -->
<g id="node6" class="node"><title>Node57</title>
<g id="a_node6"><a xlink:href="$a00110.html#ad2327b94227019b6753b6b09400c0522" xlink:title="gk_GetCurMemoryUsed">
<polygon fill="white" stroke="black" points="242,-38.5 242,-57.5 366,-57.5 366,-38.5 242,-38.5"/>
<text text-anchor="middle" x="304" y="-45.5" font-family="Helvetica,sans-Serif" font-size="10.00">gk_GetCurMemoryUsed</text>
</a>
</g>
</g>
<!-- Node56&#45;&gt;Node57 -->
<g id="edge6" class="edge"><title>Node56&#45;&gt;Node57</title>
<path fill="none" stroke="midnightblue" d="M196.065,-77.6607C214.477,-72.5539 238.366,-65.9278 258.893,-60.2341"/>
<polygon fill="midnightblue" stroke="midnightblue" points="259.96,-63.5702 268.661,-57.5246 258.089,-56.8249 259.96,-63.5702"/>
</g>
<!-- Node58 -->
<g id="node7" class="node"><title>Node58</title>
<g id="a_node7"><a xlink:href="$a00110.html#a656fd5266ae12a96e53125486f8fea52" xlink:title="gk_GetMaxMemoryUsed">
<polygon fill="white" stroke="black" points="240.5,-0.5 240.5,-19.5 367.5,-19.5 367.5,-0.5 240.5,-0.5"/>
<text text-anchor="middle" x="304" y="-7.5" font-family="Helvetica,sans-Serif" font-size="10.00">gk_GetMaxMemoryUsed</text>
</a>
</g>
</g>
<!-- Node56&#45;&gt;Node58 -->
<g id="edge7" class="edge"><title>Node56&#45;&gt;Node58</title>
<path fill="none" stroke="midnightblue" d="M176.188,-76.1711C189.736,-63.5937 214.902,-41.8954 240,-29 244.344,-26.7681 248.994,-24.7517 253.727,-22.9412"/>
<polygon fill="midnightblue" stroke="midnightblue" points="255.212,-26.129 263.486,-19.5108 252.891,-19.5251 255.212,-26.129"/>
</g>
</g>
</svg>
