<?xml version="1.0" encoding="UTF-8" standalone="no"?>
<!DOCTYPE svg PUBLIC "-//W3C//DTD SVG 1.1//EN"
 "http://www.w3.org/Graphics/SVG/1.1/DTD/svg11.dtd">
<!-- Generated by graphviz version 2.36.0 (20140111.2315)
 -->
<!-- Title: main Pages: 1 -->
<svg width="614pt" height="674pt"
 viewBox="0.00 0.00 614.00 674.00" xmlns="http://www.w3.org/2000/svg" xmlns:xlink="http://www.w3.org/1999/xlink">
<g id="graph0" class="graph" transform="scale(1 1) rotate(0) translate(4 670)">
<title>main</title>
<polygon fill="white" stroke="none" points="-4,4 -4,-670 610,-670 610,4 -4,4"/>
<!-- Node0 -->
<g id="node1" class="node"><title>Node0</title>
<polygon fill="#bfbfbf" stroke="black" points="0,-361.5 0,-380.5 38,-380.5 38,-361.5 0,-361.5"/>
<text text-anchor="middle" x="19" y="-368.5" font-family="Helvetica,sans-Serif" font-size="10.00">main</text>
</g>
<!-- Node1 -->
<g id="node2" class="node"><title>Node1</title>
<g id="a_node2"><a xlink:href="$a00152.html#a8de21ffeb988c6322635a778ecdd4066" xlink:title="test_isort">
<polygon fill="white" stroke="black" points="84.5,-608.5 84.5,-627.5 141.5,-627.5 141.5,-608.5 84.5,-608.5"/>
<text text-anchor="middle" x="113" y="-615.5" font-family="Helvetica,sans-Serif" font-size="10.00">test_isort</text>
</a>
</g>
</g>
<!-- Node0&#45;&gt;Node1 -->
<g id="edge1" class="edge"><title>Node0&#45;&gt;Node1</title>
<path fill="none" stroke="midnightblue" d="M21.6806,-380.866C26.8163,-409.649 43.8187,-495.615 74,-561 80.4643,-575.004 90.1312,-589.448 98.0969,-600.292"/>
<polygon fill="midnightblue" stroke="midnightblue" points="95.4558,-602.602 104.28,-608.465 101.038,-598.378 95.4558,-602.602"/>
</g>
<!-- Node4 -->
<g id="node5" class="node"><title>Node4</title>
<g id="a_node5"><a xlink:href="$a00152.html#a92bfe9a7c6bec5eab568c71eda7eb1f1" xlink:title="test_fsort">
<polygon fill="white" stroke="black" points="84,-532.5 84,-551.5 142,-551.5 142,-532.5 84,-532.5"/>
<text text-anchor="middle" x="113" y="-539.5" font-family="Helvetica,sans-Serif" font-size="10.00">test_fsort</text>
</a>
</g>
</g>
<!-- Node0&#45;&gt;Node4 -->
<g id="edge4" class="edge"><title>Node0&#45;&gt;Node4</title>
<path fill="none" stroke="midnightblue" d="M24.0233,-380.696C32.4329,-400.666 52.8516,-447.648 74,-485 81.5995,-498.422 91.2514,-512.873 98.926,-523.866"/>
<polygon fill="midnightblue" stroke="midnightblue" points="96.1838,-526.05 104.819,-532.189 101.897,-522.005 96.1838,-526.05"/>
</g>
<!-- Node7 -->
<g id="node8" class="node"><title>Node7</title>
<g id="a_node8"><a xlink:href="$a00152.html#a3a4da1d3370fc7c176261dfc8eef5691" xlink:title="test_idxsort">
<polygon fill="white" stroke="black" points="79,-456.5 79,-475.5 147,-475.5 147,-456.5 79,-456.5"/>
<text text-anchor="middle" x="113" y="-463.5" font-family="Helvetica,sans-Serif" font-size="10.00">test_idxsort</text>
</a>
</g>
</g>
<!-- Node0&#45;&gt;Node7 -->
<g id="edge7" class="edge"><title>Node0&#45;&gt;Node7</title>
<path fill="none" stroke="midnightblue" d="M29.4991,-380.809C45.0744,-396.892 76.2314,-429.065 95.4824,-448.944"/>
<polygon fill="midnightblue" stroke="midnightblue" points="93.2186,-451.637 102.69,-456.386 98.2471,-446.768 93.2186,-451.637"/>
</g>
<!-- Node10 -->
<g id="node11" class="node"><title>Node10</title>
<g id="a_node11"><a xlink:href="$a00152.html#a03d0ef2537e50ad38d65892cc9c28118" xlink:title="test_ikvsort">
<polygon fill="white" stroke="black" points="79.5,-380.5 79.5,-399.5 146.5,-399.5 146.5,-380.5 79.5,-380.5"/>
<text text-anchor="middle" x="113" y="-387.5" font-family="Helvetica,sans-Serif" font-size="10.00">test_ikvsort</text>
</a>
</g>
</g>
<!-- Node0&#45;&gt;Node10 -->
<g id="edge10" class="edge"><title>Node0&#45;&gt;Node10</title>
<path fill="none" stroke="midnightblue" d="M38.1762,-374.754C47.1571,-376.609 58.4044,-378.931 69.3922,-381.201"/>
<polygon fill="midnightblue" stroke="midnightblue" points="68.8364,-384.66 79.3376,-383.255 70.2522,-377.804 68.8364,-384.66"/>
</g>
<!-- Node13 -->
<g id="node14" class="node"><title>Node13</title>
<g id="a_node14"><a xlink:href="$a00152.html#a179814629e9b2ff14387734d6ac52a38" xlink:title="test_fkvsort">
<polygon fill="white" stroke="black" points="79,-342.5 79,-361.5 147,-361.5 147,-342.5 79,-342.5"/>
<text text-anchor="middle" x="113" y="-349.5" font-family="Helvetica,sans-Serif" font-size="10.00">test_fkvsort</text>
</a>
</g>
</g>
<!-- Node0&#45;&gt;Node13 -->
<g id="edge13" class="edge"><title>Node0&#45;&gt;Node13</title>
<path fill="none" stroke="midnightblue" d="M38.1762,-367.246C47.0769,-365.408 58.2037,-363.11 69.0978,-360.86"/>
<polygon fill="midnightblue" stroke="midnightblue" points="69.8812,-364.272 78.9666,-358.822 68.4654,-357.417 69.8812,-364.272"/>
</g>
<!-- Node16 -->
<g id="node17" class="node"><title>Node16</title>
<g id="a_node17"><a xlink:href="$a00152.html#a91e0ce6fc88d5ab6695cda68dc4e79b5" xlink:title="test_dkvsort">
<polygon fill="white" stroke="black" points="78,-266.5 78,-285.5 148,-285.5 148,-266.5 78,-266.5"/>
<text text-anchor="middle" x="113" y="-273.5" font-family="Helvetica,sans-Serif" font-size="10.00">test_dkvsort</text>
</a>
</g>
</g>
<!-- Node0&#45;&gt;Node16 -->
<g id="edge16" class="edge"><title>Node0&#45;&gt;Node16</title>
<path fill="none" stroke="midnightblue" d="M29.4991,-361.191C45.0744,-345.108 76.2314,-312.935 95.4824,-293.056"/>
<polygon fill="midnightblue" stroke="midnightblue" points="98.2471,-295.232 102.69,-285.614 93.2186,-290.363 98.2471,-295.232"/>
</g>
<!-- Node19 -->
<g id="node20" class="node"><title>Node19</title>
<g id="a_node20"><a xlink:href="$a00152.html#ae2471bde9a7e9419d330392c2e2b35fd" xlink:title="test_skvsort">
<polygon fill="white" stroke="black" points="78,-152.5 78,-171.5 148,-171.5 148,-152.5 78,-152.5"/>
<text text-anchor="middle" x="113" y="-159.5" font-family="Helvetica,sans-Serif" font-size="10.00">test_skvsort</text>
</a>
</g>
</g>
<!-- Node0&#45;&gt;Node19 -->
<g id="edge19" class="edge"><title>Node0&#45;&gt;Node19</title>
<path fill="none" stroke="midnightblue" d="M24.1921,-361.477C38.351,-329.311 84.576,-224.3 103.652,-180.965"/>
<polygon fill="midnightblue" stroke="midnightblue" points="106.958,-182.142 107.783,-171.579 100.551,-179.322 106.958,-182.142"/>
</g>
<!-- Node29 -->
<g id="node30" class="node"><title>Node29</title>
<g id="a_node30"><a xlink:href="$a00152.html#ab63d10c508d01adca7672ac341b950ba" xlink:title="test_idxkvsort">
<polygon fill="white" stroke="black" points="74,-38.5 74,-57.5 152,-57.5 152,-38.5 74,-38.5"/>
<text text-anchor="middle" x="113" y="-45.5" font-family="Helvetica,sans-Serif" font-size="10.00">test_idxkvsort</text>
</a>
</g>
</g>
<!-- Node0&#45;&gt;Node29 -->
<g id="edge30" class="edge"><title>Node0&#45;&gt;Node29</title>
<path fill="none" stroke="midnightblue" d="M21.7624,-361.305C27.646,-329.557 47.7318,-225.994 74,-143 82.5479,-115.993 95.1917,-85.7694 103.512,-66.8162"/>
<polygon fill="midnightblue" stroke="midnightblue" points="106.772,-68.0977 107.636,-57.5381 100.376,-65.2545 106.772,-68.0977"/>
</g>
<!-- Node2 -->
<g id="node3" class="node"><title>Node2</title>
<g id="a_node3"><a xlink:href="$a00077.html#a0661d91bb9fcaa78715176ae9d5f8825" xlink:title="gk_isorti">
<polygon fill="white" stroke="black" points="200,-646.5 200,-665.5 254,-665.5 254,-646.5 200,-646.5"/>
<text text-anchor="middle" x="227" y="-653.5" font-family="Helvetica,sans-Serif" font-size="10.00">gk_isorti</text>
</a>
</g>
</g>
<!-- Node1&#45;&gt;Node2 -->
<g id="edge2" class="edge"><title>Node1&#45;&gt;Node2</title>
<path fill="none" stroke="midnightblue" d="M141.685,-627.393C156.245,-632.333 174.271,-638.449 189.913,-643.756"/>
<polygon fill="midnightblue" stroke="midnightblue" points="189.193,-647.208 199.787,-647.106 191.442,-640.579 189.193,-647.208"/>
</g>
<!-- Node3 -->
<g id="node4" class="node"><title>Node3</title>
<g id="a_node4"><a xlink:href="$a00077.html#a36a2b736c24758a30ff91e715c68b3a5" xlink:title="gk_isortd">
<polygon fill="white" stroke="black" points="198.5,-608.5 198.5,-627.5 255.5,-627.5 255.5,-608.5 198.5,-608.5"/>
<text text-anchor="middle" x="227" y="-615.5" font-family="Helvetica,sans-Serif" font-size="10.00">gk_isortd</text>
</a>
</g>
</g>
<!-- Node1&#45;&gt;Node3 -->
<g id="edge3" class="edge"><title>Node1&#45;&gt;Node3</title>
<path fill="none" stroke="midnightblue" d="M141.685,-618C155.686,-618 172.89,-618 188.099,-618"/>
<polygon fill="midnightblue" stroke="midnightblue" points="188.245,-621.5 198.245,-618 188.245,-614.5 188.245,-621.5"/>
</g>
<!-- Node5 -->
<g id="node6" class="node"><title>Node5</title>
<g id="a_node6"><a xlink:href="$a00077.html#a317c6a7c27cdf7ba3ebe40c948d7abcd" xlink:title="gk_fsorti">
<polygon fill="white" stroke="black" points="200,-570.5 200,-589.5 254,-589.5 254,-570.5 200,-570.5"/>
<text text-anchor="middle" x="227" y="-577.5" font-family="Helvetica,sans-Serif" font-size="10.00">gk_fsorti</text>
</a>
</g>
</g>
<!-- Node4&#45;&gt;Node5 -->
<g id="edge5" class="edge"><title>Node4&#45;&gt;Node5</title>
<path fill="none" stroke="midnightblue" d="M142.262,-551.589C156.721,-556.495 174.481,-562.52 189.919,-567.758"/>
<polygon fill="midnightblue" stroke="midnightblue" points="189.076,-571.168 199.67,-571.067 191.325,-564.539 189.076,-571.168"/>
</g>
<!-- Node6 -->
<g id="node7" class="node"><title>Node6</title>
<g id="a_node7"><a xlink:href="$a00077.html#a48c8529cf48d82eedbf29d00cc257b8b" xlink:title="gk_fsortd">
<polygon fill="white" stroke="black" points="198,-532.5 198,-551.5 256,-551.5 256,-532.5 198,-532.5"/>
<text text-anchor="middle" x="227" y="-539.5" font-family="Helvetica,sans-Serif" font-size="10.00">gk_fsortd</text>
</a>
</g>
</g>
<!-- Node4&#45;&gt;Node6 -->
<g id="edge6" class="edge"><title>Node4&#45;&gt;Node6</title>
<path fill="none" stroke="midnightblue" d="M142.262,-542C155.925,-542 172.534,-542 187.346,-542"/>
<polygon fill="midnightblue" stroke="midnightblue" points="187.747,-545.5 197.747,-542 187.747,-538.5 187.747,-545.5"/>
</g>
<!-- Node8 -->
<g id="node9" class="node"><title>Node8</title>
<g id="a_node9"><a xlink:href="$a00077.html#ad863e6e90eb4028e89bfb66e8d8a3c08" xlink:title="gk_idxsorti">
<polygon fill="white" stroke="black" points="195,-494.5 195,-513.5 259,-513.5 259,-494.5 195,-494.5"/>
<text text-anchor="middle" x="227" y="-501.5" font-family="Helvetica,sans-Serif" font-size="10.00">gk_idxsorti</text>
</a>
</g>
</g>
<!-- Node7&#45;&gt;Node8 -->
<g id="edge8" class="edge"><title>Node7&#45;&gt;Node8</title>
<path fill="none" stroke="midnightblue" d="M142.262,-475.589C156.19,-480.314 173.18,-486.079 188.207,-491.177"/>
<polygon fill="midnightblue" stroke="midnightblue" points="187.152,-494.515 197.747,-494.414 189.401,-487.887 187.152,-494.515"/>
</g>
<!-- Node9 -->
<g id="node10" class="node"><title>Node9</title>
<g id="a_node10"><a xlink:href="$a00077.html#a77534ffafbfc5bebe4b527548d60a1ee" xlink:title="gk_idxsortd">
<polygon fill="white" stroke="black" points="193,-456.5 193,-475.5 261,-475.5 261,-456.5 193,-456.5"/>
<text text-anchor="middle" x="227" y="-463.5" font-family="Helvetica,sans-Serif" font-size="10.00">gk_idxsortd</text>
</a>
</g>
</g>
<!-- Node7&#45;&gt;Node9 -->
<g id="edge9" class="edge"><title>Node7&#45;&gt;Node9</title>
<path fill="none" stroke="midnightblue" d="M147.3,-466C158.372,-466 170.869,-466 182.59,-466"/>
<polygon fill="midnightblue" stroke="midnightblue" points="182.634,-469.5 192.634,-466 182.634,-462.5 182.634,-469.5"/>
</g>
<!-- Node11 -->
<g id="node12" class="node"><title>Node11</title>
<g id="a_node12"><a xlink:href="$a00077.html#a87b4cd1adb002c1987c1537130e8ee31" xlink:title="gk_ikvsorti">
<polygon fill="white" stroke="black" points="195,-418.5 195,-437.5 259,-437.5 259,-418.5 195,-418.5"/>
<text text-anchor="middle" x="227" y="-425.5" font-family="Helvetica,sans-Serif" font-size="10.00">gk_ikvsorti</text>
</a>
</g>
</g>
<!-- Node10&#45;&gt;Node11 -->
<g id="edge11" class="edge"><title>Node10&#45;&gt;Node11</title>
<path fill="none" stroke="midnightblue" d="M142.262,-399.589C156.19,-404.314 173.18,-410.079 188.207,-415.177"/>
<polygon fill="midnightblue" stroke="midnightblue" points="187.152,-418.515 197.747,-418.414 189.401,-411.887 187.152,-418.515"/>
</g>
<!-- Node12 -->
<g id="node13" class="node"><title>Node12</title>
<g id="a_node13"><a xlink:href="$a00077.html#a6630af89129be5c65ca81e3f3cfc3f9f" xlink:title="gk_ikvsortd">
<polygon fill="white" stroke="black" points="193.5,-380.5 193.5,-399.5 260.5,-399.5 260.5,-380.5 193.5,-380.5"/>
<text text-anchor="middle" x="227" y="-387.5" font-family="Helvetica,sans-Serif" font-size="10.00">gk_ikvsortd</text>
</a>
</g>
</g>
<!-- Node10&#45;&gt;Node12 -->
<g id="edge12" class="edge"><title>Node10&#45;&gt;Node12</title>
<path fill="none" stroke="midnightblue" d="M146.696,-390C158.082,-390 171.032,-390 183.119,-390"/>
<polygon fill="midnightblue" stroke="midnightblue" points="183.457,-393.5 193.457,-390 183.457,-386.5 183.457,-393.5"/>
</g>
<!-- Node14 -->
<g id="node15" class="node"><title>Node14</title>
<g id="a_node15"><a xlink:href="$a00077.html#a1d741ae5e6fbe9aeedc02250d5f6fc83" xlink:title="gk_fkvsorti">
<polygon fill="white" stroke="black" points="195,-342.5 195,-361.5 259,-361.5 259,-342.5 195,-342.5"/>
<text text-anchor="middle" x="227" y="-349.5" font-family="Helvetica,sans-Serif" font-size="10.00">gk_fkvsorti</text>
</a>
</g>
</g>
<!-- Node13&#45;&gt;Node14 -->
<g id="edge14" class="edge"><title>Node13&#45;&gt;Node14</title>
<path fill="none" stroke="midnightblue" d="M147.3,-352C159.088,-352 172.492,-352 184.854,-352"/>
<polygon fill="midnightblue" stroke="midnightblue" points="184.935,-355.5 194.935,-352 184.935,-348.5 184.935,-355.5"/>
</g>
<!-- Node15 -->
<g id="node16" class="node"><title>Node15</title>
<g id="a_node16"><a xlink:href="$a00077.html#aa28cb87d9cb87860a5b1e23a94d7bba8" xlink:title="gk_fkvsortd">
<polygon fill="white" stroke="black" points="193,-304.5 193,-323.5 261,-323.5 261,-304.5 193,-304.5"/>
<text text-anchor="middle" x="227" y="-311.5" font-family="Helvetica,sans-Serif" font-size="10.00">gk_fkvsortd</text>
</a>
</g>
</g>
<!-- Node13&#45;&gt;Node15 -->
<g id="edge15" class="edge"><title>Node13&#45;&gt;Node15</title>
<path fill="none" stroke="midnightblue" d="M142.262,-342.411C156.19,-337.686 173.18,-331.921 188.207,-326.823"/>
<polygon fill="midnightblue" stroke="midnightblue" points="189.401,-330.113 197.747,-323.586 187.152,-323.485 189.401,-330.113"/>
</g>
<!-- Node17 -->
<g id="node18" class="node"><title>Node17</title>
<g id="a_node18"><a xlink:href="$a00077.html#a463fd9b2f6adc1b05983f90eb398bd10" xlink:title="gk_dkvsorti">
<polygon fill="white" stroke="black" points="193.5,-266.5 193.5,-285.5 260.5,-285.5 260.5,-266.5 193.5,-266.5"/>
<text text-anchor="middle" x="227" y="-273.5" font-family="Helvetica,sans-Serif" font-size="10.00">gk_dkvsorti</text>
</a>
</g>
</g>
<!-- Node16&#45;&gt;Node17 -->
<g id="edge17" class="edge"><title>Node16&#45;&gt;Node17</title>
<path fill="none" stroke="midnightblue" d="M148.212,-276C159.146,-276 171.393,-276 182.877,-276"/>
<polygon fill="midnightblue" stroke="midnightblue" points="183.148,-279.5 193.148,-276 183.148,-272.5 183.148,-279.5"/>
</g>
<!-- Node18 -->
<g id="node19" class="node"><title>Node18</title>
<g id="a_node19"><a xlink:href="$a00077.html#ac5138047355892676b7cb38afcfa8361" xlink:title="gk_dkvsortd">
<polygon fill="white" stroke="black" points="192,-228.5 192,-247.5 262,-247.5 262,-228.5 192,-228.5"/>
<text text-anchor="middle" x="227" y="-235.5" font-family="Helvetica,sans-Serif" font-size="10.00">gk_dkvsortd</text>
</a>
</g>
</g>
<!-- Node16&#45;&gt;Node18 -->
<g id="edge18" class="edge"><title>Node16&#45;&gt;Node18</title>
<path fill="none" stroke="midnightblue" d="M142.262,-266.411C156.19,-261.686 173.18,-255.921 188.207,-250.823"/>
<polygon fill="midnightblue" stroke="midnightblue" points="189.401,-254.113 197.747,-247.586 187.152,-247.485 189.401,-254.113"/>
</g>
<!-- Node20 -->
<g id="node21" class="node"><title>Node20</title>
<g id="a_node21"><a xlink:href="$a00575.html#ae6aab5c308faac0fc539cc9c6da9fbd0" xlink:title="sprintf">
<polygon fill="white" stroke="black" points="205,-190.5 205,-209.5 249,-209.5 249,-190.5 205,-190.5"/>
<text text-anchor="middle" x="227" y="-197.5" font-family="Helvetica,sans-Serif" font-size="10.00">sprintf</text>
</a>
</g>
</g>
<!-- Node19&#45;&gt;Node20 -->
<g id="edge20" class="edge"><title>Node19&#45;&gt;Node20</title>
<path fill="none" stroke="midnightblue" d="M142.262,-171.589C158.362,-177.051 178.553,-183.902 195.075,-189.508"/>
<polygon fill="midnightblue" stroke="midnightblue" points="194.224,-192.915 204.818,-192.813 196.473,-186.286 194.224,-192.915"/>
</g>
<!-- Node21 -->
<g id="node22" class="node"><title>Node21</title>
<g id="a_node22"><a xlink:href="$a00077.html#af62038e97ca55f14ec2557a01bd85ca2" xlink:title="Duplicates a string. ">
<polygon fill="white" stroke="black" points="197,-152.5 197,-171.5 257,-171.5 257,-152.5 197,-152.5"/>
<text text-anchor="middle" x="227" y="-159.5" font-family="Helvetica,sans-Serif" font-size="10.00">gk_strdup</text>
</a>
</g>
</g>
<!-- Node19&#45;&gt;Node21 -->
<g id="edge21" class="edge"><title>Node19&#45;&gt;Node21</title>
<path fill="none" stroke="midnightblue" d="M148.212,-162C160.375,-162 174.162,-162 186.715,-162"/>
<polygon fill="midnightblue" stroke="midnightblue" points="186.907,-165.5 196.907,-162 186.907,-158.5 186.907,-165.5"/>
</g>
<!-- Node27 -->
<g id="node28" class="node"><title>Node27</title>
<g id="a_node28"><a xlink:href="$a00077.html#ad540fc9b43ce41269f7f33712f5f71c2" xlink:title="gk_skvsorti">
<polygon fill="white" stroke="black" points="193.5,-114.5 193.5,-133.5 260.5,-133.5 260.5,-114.5 193.5,-114.5"/>
<text text-anchor="middle" x="227" y="-121.5" font-family="Helvetica,sans-Serif" font-size="10.00">gk_skvsorti</text>
</a>
</g>
</g>
<!-- Node19&#45;&gt;Node27 -->
<g id="edge28" class="edge"><title>Node19&#45;&gt;Node27</title>
<path fill="none" stroke="midnightblue" d="M142.262,-152.411C156.19,-147.686 173.18,-141.921 188.207,-136.823"/>
<polygon fill="midnightblue" stroke="midnightblue" points="189.401,-140.113 197.747,-133.586 187.152,-133.485 189.401,-140.113"/>
</g>
<!-- Node28 -->
<g id="node29" class="node"><title>Node28</title>
<g id="a_node29"><a xlink:href="$a00077.html#a54ca33a34b7cfbd130a8af3d8b07405e" xlink:title="gk_skvsortd">
<polygon fill="white" stroke="black" points="192,-76.5 192,-95.5 262,-95.5 262,-76.5 192,-76.5"/>
<text text-anchor="middle" x="227" y="-83.5" font-family="Helvetica,sans-Serif" font-size="10.00">gk_skvsortd</text>
</a>
</g>
</g>
<!-- Node19&#45;&gt;Node28 -->
<g id="edge29" class="edge"><title>Node19&#45;&gt;Node28</title>
<path fill="none" stroke="midnightblue" d="M125.04,-152.402C139.087,-140.454 164.368,-119.816 188,-105 190.603,-103.368 193.365,-101.764 196.166,-100.222"/>
<polygon fill="midnightblue" stroke="midnightblue" points="197.856,-103.288 205.094,-95.5504 194.611,-97.0855 197.856,-103.288"/>
</g>
<!-- Node22 -->
<g id="node23" class="node"><title>Node22</title>
<g id="a_node23"><a xlink:href="$a00077.html#aba6f76f5c67b9b7e9c2e45988d3d3e9d" xlink:title="gk_malloc">
<polygon fill="white" stroke="black" points="302,-152.5 302,-171.5 364,-171.5 364,-152.5 302,-152.5"/>
<text text-anchor="middle" x="333" y="-159.5" font-family="Helvetica,sans-Serif" font-size="10.00">gk_malloc</text>
</a>
</g>
</g>
<!-- Node21&#45;&gt;Node22 -->
<g id="edge22" class="edge"><title>Node21&#45;&gt;Node22</title>
<path fill="none" stroke="midnightblue" d="M257.247,-162C267.918,-162 280.182,-162 291.65,-162"/>
<polygon fill="midnightblue" stroke="midnightblue" points="291.888,-165.5 301.888,-162 291.888,-158.5 291.888,-165.5"/>
</g>
<!-- Node23 -->
<g id="node24" class="node"><title>Node23</title>
<g id="a_node24"><a xlink:href="$a01017.html#a2e311a777ffe9c80e405efa7cd2757be" xlink:title="fprintf">
<polygon fill="white" stroke="black" points="564,-152.5 564,-171.5 606,-171.5 606,-152.5 564,-152.5"/>
<text text-anchor="middle" x="585" y="-159.5" font-family="Helvetica,sans-Serif" font-size="10.00">fprintf</text>
</a>
</g>
</g>
<!-- Node22&#45;&gt;Node23 -->
<g id="edge23" class="edge"><title>Node22&#45;&gt;Node23</title>
<path fill="none" stroke="midnightblue" d="M346.261,-171.719C358.891,-181.059 379.563,-194.537 400,-200 454.959,-214.691 473.62,-216.709 528,-200 542.039,-195.686 555.719,-186.525 566.044,-178.279"/>
<polygon fill="midnightblue" stroke="midnightblue" points="568.469,-180.813 573.862,-171.694 563.959,-175.46 568.469,-180.813"/>
</g>
<!-- Node24 -->
<g id="node25" class="node"><title>Node24</title>
<g id="a_node25"><a xlink:href="$a00110.html#ad2327b94227019b6753b6b09400c0522" xlink:title="gk_GetCurMemoryUsed">
<polygon fill="white" stroke="black" points="402,-171.5 402,-190.5 526,-190.5 526,-171.5 402,-171.5"/>
<text text-anchor="middle" x="464" y="-178.5" font-family="Helvetica,sans-Serif" font-size="10.00">gk_GetCurMemoryUsed</text>
</a>
</g>
</g>
<!-- Node22&#45;&gt;Node24 -->
<g id="edge24" class="edge"><title>Node22&#45;&gt;Node24</title>
<path fill="none" stroke="midnightblue" d="M364.245,-166.455C372.646,-167.692 382.139,-169.09 391.836,-170.518"/>
<polygon fill="midnightblue" stroke="midnightblue" points="391.573,-174.017 401.977,-172.012 392.593,-167.092 391.573,-174.017"/>
</g>
<!-- Node25 -->
<g id="node26" class="node"><title>Node25</title>
<g id="a_node26"><a xlink:href="$a00110.html#a656fd5266ae12a96e53125486f8fea52" xlink:title="gk_GetMaxMemoryUsed">
<polygon fill="white" stroke="black" points="400.5,-133.5 400.5,-152.5 527.5,-152.5 527.5,-133.5 400.5,-133.5"/>
<text text-anchor="middle" x="464" y="-140.5" font-family="Helvetica,sans-Serif" font-size="10.00">gk_GetMaxMemoryUsed</text>
</a>
</g>
</g>
<!-- Node22&#45;&gt;Node25 -->
<g id="edge25" class="edge"><title>Node22&#45;&gt;Node25</title>
<path fill="none" stroke="midnightblue" d="M364.245,-157.545C372.229,-156.369 381.2,-155.048 390.395,-153.694"/>
<polygon fill="midnightblue" stroke="midnightblue" points="391.04,-157.137 400.423,-152.217 390.02,-150.211 391.04,-157.137"/>
</g>
<!-- Node26 -->
<g id="node27" class="node"><title>Node26</title>
<g id="a_node27"><a xlink:href="$a00026.html#a4c320c13bcdc9967613253ef4c73f59f" xlink:title="gk_errexit">
<polygon fill="white" stroke="black" points="434,-95.5 434,-114.5 494,-114.5 494,-95.5 434,-95.5"/>
<text text-anchor="middle" x="464" y="-102.5" font-family="Helvetica,sans-Serif" font-size="10.00">gk_errexit</text>
</a>
</g>
</g>
<!-- Node22&#45;&gt;Node26 -->
<g id="edge26" class="edge"><title>Node22&#45;&gt;Node26</title>
<path fill="none" stroke="midnightblue" d="M348.436,-152.391C361.481,-144.027 381.428,-132.02 400,-124 407.68,-120.683 416.121,-117.71 424.259,-115.154"/>
<polygon fill="midnightblue" stroke="midnightblue" points="425.388,-118.469 433.965,-112.249 423.381,-111.763 425.388,-118.469"/>
</g>
<!-- Node26&#45;&gt;Node23 -->
<g id="edge27" class="edge"><title>Node26&#45;&gt;Node23</title>
<path fill="none" stroke="midnightblue" d="M494.228,-111.825C505.104,-114.876 517.377,-118.94 528,-124 540.634,-130.018 553.634,-138.663 563.925,-146.186"/>
<polygon fill="midnightblue" stroke="midnightblue" points="562.101,-149.194 572.194,-152.415 566.313,-143.603 562.101,-149.194"/>
</g>
<!-- Node30 -->
<g id="node31" class="node"><title>Node30</title>
<g id="a_node31"><a xlink:href="$a00077.html#aacb1df68fc66097ca2646ff5d8be2eaa" xlink:title="gk_idxkvsorti">
<polygon fill="white" stroke="black" points="190,-38.5 190,-57.5 264,-57.5 264,-38.5 190,-38.5"/>
<text text-anchor="middle" x="227" y="-45.5" font-family="Helvetica,sans-Serif" font-size="10.00">gk_idxkvsorti</text>
</a>
</g>
</g>
<!-- Node29&#45;&gt;Node30 -->
<g id="edge31" class="edge"><title>Node29&#45;&gt;Node30</title>
<path fill="none" stroke="midnightblue" d="M152.231,-48C161.071,-48 170.57,-48 179.713,-48"/>
<polygon fill="midnightblue" stroke="midnightblue" points="179.83,-51.5001 189.83,-48 179.83,-44.5001 179.83,-51.5001"/>
</g>
<!-- Node31 -->
<g id="node32" class="node"><title>Node31</title>
<g id="a_node32"><a xlink:href="$a00077.html#a53690cb705b8749f83a8ae609e94aafd" xlink:title="gk_idxkvsortd">
<polygon fill="white" stroke="black" points="188,-0.5 188,-19.5 266,-19.5 266,-0.5 188,-0.5"/>
<text text-anchor="middle" x="227" y="-7.5" font-family="Helvetica,sans-Serif" font-size="10.00">gk_idxkvsortd</text>
</a>
</g>
</g>
<!-- Node29&#45;&gt;Node31 -->
<g id="edge32" class="edge"><title>Node29&#45;&gt;Node31</title>
<path fill="none" stroke="midnightblue" d="M142.262,-38.411C156.19,-33.6856 173.18,-27.9211 188.207,-22.8226"/>
<polygon fill="midnightblue" stroke="midnightblue" points="189.401,-26.1134 197.747,-19.5859 187.152,-19.4845 189.401,-26.1134"/>
</g>
</g>
</svg>
