<?xml version="1.0" encoding="UTF-8" standalone="no"?>
<!DOCTYPE svg PUBLIC "-//W3C//DTD SVG 1.1//EN"
 "http://www.w3.org/Graphics/SVG/1.1/DTD/svg11.dtd">
<!-- Generated by graphviz version 2.36.0 (20140111.2315)
 -->
<!-- Title: itemsets_find_frequent_itemsets Pages: 1 -->
<svg width="776pt" height="165pt"
 viewBox="0.00 0.00 776.00 165.04" xmlns="http://www.w3.org/2000/svg" xmlns:xlink="http://www.w3.org/1999/xlink">
<g id="graph0" class="graph" transform="scale(1 1) rotate(0) translate(4 161.037)">
<title>itemsets_find_frequent_itemsets</title>
<polygon fill="white" stroke="none" points="-4,4 -4,-161.037 772,-161.037 772,4 -4,4"/>
<!-- Node16 -->
<g id="node1" class="node"><title>Node16</title>
<polygon fill="#bfbfbf" stroke="black" points="0,-26.2459 0,-56.2459 118,-56.2459 118,-26.2459 0,-26.2459"/>
<text text-anchor="start" x="8" y="-44.2459" font-family="Helvetica,sans-Serif" font-size="10.00">itemsets_find_frequent</text>
<text text-anchor="middle" x="59" y="-33.2459" font-family="Helvetica,sans-Serif" font-size="10.00">_itemsets</text>
</g>
<!-- Node17 -->
<g id="node2" class="node"><title>Node17</title>
<g id="a_node2"><a xlink:href="$a00104.html#ab348ad8f89d70692400d7602e3a824bf" xlink:title="itemsets_project_matrix">
<polygon fill="white" stroke="black" points="154,-50.7459 154,-69.7459 276,-69.7459 276,-50.7459 154,-50.7459"/>
<text text-anchor="middle" x="215" y="-57.7459" font-family="Helvetica,sans-Serif" font-size="10.00">itemsets_project_matrix</text>
</a>
</g>
</g>
<!-- Node16&#45;&gt;Node17 -->
<g id="edge1" class="edge"><title>Node16&#45;&gt;Node17</title>
<path fill="none" stroke="midnightblue" d="M118.221,-48.4289C126.608,-49.4637 135.312,-50.5376 143.9,-51.5972"/>
<polygon fill="midnightblue" stroke="midnightblue" points="143.55,-55.0804 153.903,-52.8313 144.407,-48.1331 143.55,-55.0804"/>
</g>
<!-- Node26 -->
<g id="node11" class="node"><title>Node26</title>
<g id="a_node11"><a xlink:href="$a00023.html#ac3736361b8d6b391356f273c960c203b" xlink:title="gk_csr_Free">
<polygon fill="white" stroke="black" points="179,-12.7459 179,-31.7459 251,-31.7459 251,-12.7459 179,-12.7459"/>
<text text-anchor="middle" x="215" y="-19.7459" font-family="Helvetica,sans-Serif" font-size="10.00">gk_csr_Free</text>
</a>
</g>
</g>
<!-- Node16&#45;&gt;Node26 -->
<g id="edge11" class="edge"><title>Node16&#45;&gt;Node26</title>
<path fill="none" stroke="midnightblue" d="M118.221,-34.0628C134.99,-31.9939 153.024,-29.7688 168.872,-27.8136"/>
<polygon fill="midnightblue" stroke="midnightblue" points="169.438,-31.2703 178.935,-26.5721 168.581,-24.323 169.438,-31.2703"/>
</g>
<!-- Node18 -->
<g id="node3" class="node"><title>Node18</title>
<g id="a_node3"><a xlink:href="$a00023.html#a82b885bbed5bd18c26629c35ce5d37e4" xlink:title="gk_csr_Create">
<polygon fill="white" stroke="black" points="327,-88.7459 327,-107.746 409,-107.746 409,-88.7459 327,-88.7459"/>
<text text-anchor="middle" x="368" y="-95.7459" font-family="Helvetica,sans-Serif" font-size="10.00">gk_csr_Create</text>
</a>
</g>
</g>
<!-- Node17&#45;&gt;Node18 -->
<g id="edge2" class="edge"><title>Node17&#45;&gt;Node18</title>
<path fill="none" stroke="midnightblue" d="M254.104,-69.8349C273.94,-74.8268 298.384,-80.9782 319.448,-86.2792"/>
<polygon fill="midnightblue" stroke="midnightblue" points="318.618,-89.6794 329.17,-88.7258 320.327,-82.8911 318.618,-89.6794"/>
</g>
<!-- Node25 -->
<g id="node10" class="node"><title>Node25</title>
<g id="a_node10"><a xlink:href="$a00077.html#a87b4cd1adb002c1987c1537130e8ee31" xlink:title="gk_ikvsorti">
<polygon fill="white" stroke="black" points="336,-50.7459 336,-69.7459 400,-69.7459 400,-50.7459 336,-50.7459"/>
<text text-anchor="middle" x="368" y="-57.7459" font-family="Helvetica,sans-Serif" font-size="10.00">gk_ikvsorti</text>
</a>
</g>
</g>
<!-- Node17&#45;&gt;Node25 -->
<g id="edge10" class="edge"><title>Node17&#45;&gt;Node25</title>
<path fill="none" stroke="midnightblue" d="M276.113,-60.2459C292.685,-60.2459 310.29,-60.2459 325.549,-60.2459"/>
<polygon fill="midnightblue" stroke="midnightblue" points="325.696,-63.746 335.696,-60.2459 325.695,-56.746 325.696,-63.746"/>
</g>
<!-- Node19 -->
<g id="node4" class="node"><title>Node19</title>
<g id="a_node4"><a xlink:href="$a00077.html#aba6f76f5c67b9b7e9c2e45988d3d3e9d" xlink:title="gk_malloc">
<polygon fill="white" stroke="black" points="462,-97.7459 462,-116.746 524,-116.746 524,-97.7459 462,-97.7459"/>
<text text-anchor="middle" x="493" y="-104.746" font-family="Helvetica,sans-Serif" font-size="10.00">gk_malloc</text>
</a>
</g>
</g>
<!-- Node18&#45;&gt;Node19 -->
<g id="edge3" class="edge"><title>Node18&#45;&gt;Node19</title>
<path fill="none" stroke="midnightblue" d="M409.275,-101.193C422.898,-102.19 438.104,-103.302 451.727,-104.299"/>
<polygon fill="midnightblue" stroke="midnightblue" points="451.554,-107.796 461.783,-105.035 452.065,-100.814 451.554,-107.796"/>
</g>
<!-- Node24 -->
<g id="node9" class="node"><title>Node24</title>
<g id="a_node9"><a xlink:href="$a00023.html#a47a303d88c3316bd821219cae39d0461" xlink:title="gk_csr_Init">
<polygon fill="white" stroke="black" points="460.5,-59.7459 460.5,-78.7459 525.5,-78.7459 525.5,-59.7459 460.5,-59.7459"/>
<text text-anchor="middle" x="493" y="-66.7459" font-family="Helvetica,sans-Serif" font-size="10.00">gk_csr_Init</text>
</a>
</g>
</g>
<!-- Node18&#45;&gt;Node24 -->
<g id="edge9" class="edge"><title>Node18&#45;&gt;Node24</title>
<path fill="none" stroke="midnightblue" d="M409.275,-88.7502C422.451,-85.6436 437.109,-82.1877 450.382,-79.0583"/>
<polygon fill="midnightblue" stroke="midnightblue" points="451.285,-82.4415 460.214,-76.74 449.678,-75.6283 451.285,-82.4415"/>
</g>
<!-- Node20 -->
<g id="node5" class="node"><title>Node20</title>
<g id="a_node5"><a xlink:href="$a01017.html#a2e311a777ffe9c80e405efa7cd2757be" xlink:title="fprintf">
<polygon fill="white" stroke="black" points="726,-97.7459 726,-116.746 768,-116.746 768,-97.7459 726,-97.7459"/>
<text text-anchor="middle" x="747" y="-104.746" font-family="Helvetica,sans-Serif" font-size="10.00">fprintf</text>
</a>
</g>
</g>
<!-- Node19&#45;&gt;Node20 -->
<g id="edge4" class="edge"><title>Node19&#45;&gt;Node20</title>
<path fill="none" stroke="midnightblue" d="M506.682,-116.968C519.733,-126.312 541.06,-139.792 562,-145.246 617.052,-159.585 635.62,-161.954 690,-145.246 704.039,-140.932 717.719,-131.771 728.044,-123.525"/>
<polygon fill="midnightblue" stroke="midnightblue" points="730.469,-126.059 735.862,-116.94 725.959,-120.705 730.469,-126.059"/>
</g>
<!-- Node21 -->
<g id="node6" class="node"><title>Node21</title>
<g id="a_node6"><a xlink:href="$a00110.html#ad2327b94227019b6753b6b09400c0522" xlink:title="gk_GetCurMemoryUsed">
<polygon fill="white" stroke="black" points="564,-116.746 564,-135.746 688,-135.746 688,-116.746 564,-116.746"/>
<text text-anchor="middle" x="626" y="-123.746" font-family="Helvetica,sans-Serif" font-size="10.00">gk_GetCurMemoryUsed</text>
</a>
</g>
</g>
<!-- Node19&#45;&gt;Node21 -->
<g id="edge5" class="edge"><title>Node19&#45;&gt;Node21</title>
<path fill="none" stroke="midnightblue" d="M524.054,-111.605C533.041,-112.908 543.303,-114.397 553.761,-115.913"/>
<polygon fill="midnightblue" stroke="midnightblue" points="553.414,-119.4 563.813,-117.371 554.419,-112.472 553.414,-119.4"/>
</g>
<!-- Node22 -->
<g id="node7" class="node"><title>Node22</title>
<g id="a_node7"><a xlink:href="$a00110.html#a656fd5266ae12a96e53125486f8fea52" xlink:title="gk_GetMaxMemoryUsed">
<polygon fill="white" stroke="black" points="562.5,-78.7459 562.5,-97.7459 689.5,-97.7459 689.5,-78.7459 562.5,-78.7459"/>
<text text-anchor="middle" x="626" y="-85.7459" font-family="Helvetica,sans-Serif" font-size="10.00">gk_GetMaxMemoryUsed</text>
</a>
</g>
</g>
<!-- Node19&#45;&gt;Node22 -->
<g id="edge6" class="edge"><title>Node19&#45;&gt;Node22</title>
<path fill="none" stroke="midnightblue" d="M524.054,-102.887C532.665,-101.638 542.447,-100.219 552.45,-98.7684"/>
<polygon fill="midnightblue" stroke="midnightblue" points="553.097,-102.211 562.491,-97.312 552.093,-95.2837 553.097,-102.211"/>
</g>
<!-- Node23 -->
<g id="node8" class="node"><title>Node23</title>
<g id="a_node8"><a xlink:href="$a00026.html#a4c320c13bcdc9967613253ef4c73f59f" xlink:title="gk_errexit">
<polygon fill="white" stroke="black" points="596,-40.7459 596,-59.7459 656,-59.7459 656,-40.7459 596,-40.7459"/>
<text text-anchor="middle" x="626" y="-47.7459" font-family="Helvetica,sans-Serif" font-size="10.00">gk_errexit</text>
</a>
</g>
</g>
<!-- Node19&#45;&gt;Node23 -->
<g id="edge7" class="edge"><title>Node19&#45;&gt;Node23</title>
<path fill="none" stroke="midnightblue" d="M510.079,-97.7283C526.755,-87.9542 551.791,-73.5771 562,-69.2459 569.701,-65.9785 578.151,-63.0258 586.292,-60.4751"/>
<polygon fill="midnightblue" stroke="midnightblue" points="587.421,-63.7906 595.996,-57.5689 585.413,-57.0848 587.421,-63.7906"/>
</g>
<!-- Node23&#45;&gt;Node20 -->
<g id="edge8" class="edge"><title>Node23&#45;&gt;Node20</title>
<path fill="none" stroke="midnightblue" d="M656.228,-57.0711C667.104,-60.1214 679.377,-64.1855 690,-69.2459 702.634,-75.2643 715.634,-83.9084 725.925,-91.4321"/>
<polygon fill="midnightblue" stroke="midnightblue" points="724.101,-94.4396 734.194,-97.6612 728.313,-88.8486 724.101,-94.4396"/>
</g>
<!-- Node27 -->
<g id="node12" class="node"><title>Node27</title>
<g id="a_node12"><a xlink:href="$a00023.html#a9646f29b0605ba264bf373c441a6826d" xlink:title="gk_csr_FreeContents">
<polygon fill="white" stroke="black" points="312,-12.7459 312,-31.7459 424,-31.7459 424,-12.7459 312,-12.7459"/>
<text text-anchor="middle" x="368" y="-19.7459" font-family="Helvetica,sans-Serif" font-size="10.00">gk_csr_FreeContents</text>
</a>
</g>
</g>
<!-- Node26&#45;&gt;Node27 -->
<g id="edge12" class="edge"><title>Node26&#45;&gt;Node27</title>
<path fill="none" stroke="midnightblue" d="M251.022,-22.2459C266.098,-22.2459 284.23,-22.2459 301.632,-22.2459"/>
<polygon fill="midnightblue" stroke="midnightblue" points="301.764,-25.746 311.764,-22.2459 301.764,-18.746 301.764,-25.746"/>
</g>
<!-- Node28 -->
<g id="node13" class="node"><title>Node28</title>
<g id="a_node13"><a xlink:href="$a00077.html#ac8df62c4e3d0910711a9874f9cc58884" xlink:title="gk_free">
<polygon fill="white" stroke="black" points="468,-2.74585 468,-21.7459 518,-21.7459 518,-2.74585 468,-2.74585"/>
<text text-anchor="middle" x="493" y="-9.74585" font-family="Helvetica,sans-Serif" font-size="10.00">gk_free</text>
</a>
</g>
</g>
<!-- Node26&#45;&gt;Node28 -->
<g id="edge14" class="edge"><title>Node26&#45;&gt;Node28</title>
<path fill="none" stroke="midnightblue" d="M251.314,-13.5401C269.347,-9.5336 291.709,-5.2345 312,-3.24585 361.54,1.60949 374.33,0.026867 424,-3.24585 435.076,-3.97564 447.101,-5.36715 457.916,-6.84174"/>
<polygon fill="midnightblue" stroke="midnightblue" points="457.449,-10.3104 467.844,-8.26211 458.44,-3.381 457.449,-10.3104"/>
</g>
<!-- Node27&#45;&gt;Node28 -->
<g id="edge13" class="edge"><title>Node27&#45;&gt;Node28</title>
<path fill="none" stroke="midnightblue" d="M424.024,-17.7723C435.538,-16.8363 447.357,-15.8753 457.845,-15.0227"/>
<polygon fill="midnightblue" stroke="midnightblue" points="458.144,-18.51 467.828,-14.2111 457.577,-11.533 458.144,-18.51"/>
</g>
</g>
</svg>
