<?xml version="1.0" encoding="UTF-8" standalone="no"?>
<!DOCTYPE svg PUBLIC "-//W3C//DTD SVG 1.1//EN"
 "http://www.w3.org/Graphics/SVG/1.1/DTD/svg11.dtd">
<!-- Generated by graphviz version 2.36.0 (20140111.2315)
 -->
<!-- Title: Match_2HopAll Pages: 1 -->
<!--zoomable 102 -->
<svg id="main" version="1.1" xmlns="http://www.w3.org/2000/svg" xmlns:xlink="http://www.w3.org/1999/xlink" xml:space="preserve" onload="init(evt)">
<style type="text/css"><![CDATA[
.edge:hover path { stroke: red; }
.edge:hover polygon { stroke: red; fill: red; }
]]></style>
<script type="text/javascript"><![CDATA[
var edges = document.getElementsByTagName('g');
if (edges && edges.length) {
  for (var i=0;i<edges.length;i++) {
    if (edges[i].id.substr(0,4)=='edge') {
      edges[i].setAttribute('class','edge');
    }
  }
}
]]></script>
        <defs>
                <circle id="rim" cx="0" cy="0" r="7"/>
                <circle id="rim2" cx="0" cy="0" r="3.5"/>
                <g id="zoomPlus">
                        <use xlink:href="#rim" fill="#404040">
                                <set attributeName="fill" to="#808080" begin="zoomplus.mouseover" end="zoomplus.mouseout"/>
                        </use>
                        <path d="M-4,0h8M0,-4v8" fill="none" stroke="white" stroke-width="1.5" pointer-events="none"/>
                </g>
                <g id="zoomMin">
                        <use xlink:href="#rim" fill="#404040">
                                <set attributeName="fill" to="#808080" begin="zoomminus.mouseover" end="zoomminus.mouseout"/>
                        </use>
                        <path d="M-4,0h8" fill="none" stroke="white" stroke-width="1.5" pointer-events="none"/>
                </g>
                <g id="dirArrow">
                        <path fill="none" stroke="white" stroke-width="1.5" d="M0,-3.0v7 M-2.5,-0.5L0,-3.0L2.5,-0.5"/>
                </g>
               <g id="resetDef">
                       <use xlink:href="#rim2" fill="#404040">
                               <set attributeName="fill" to="#808080" begin="reset.mouseover" end="reset.mouseout"/>
                       </use>
               </g>
        </defs>

<script type="text/javascript">
var viewWidth = 1182;
var viewHeight = 102;
var sectionId = 'dynsection-11';
</script>
<script xlink:href="svgpan.js"/>
<svg id="graph" class="graph">
<g id="viewport">
<title>Match_2HopAll</title>
<polygon fill="white" stroke="none" points="-4,4 -4,-98 1178,-98 1178,4 -4,4"/>
<!-- Node84 -->
<g id="node1" class="node"><title>Node84</title>
<polygon fill="#bfbfbf" stroke="black" points="0,-47.5 0,-66.5 84,-66.5 84,-47.5 0,-47.5"/>
<text text-anchor="middle" x="42" y="-54.5" font-family="Helvetica,sans-Serif" font-size="10.00">Match_2HopAll</text>
</g>
<!-- Node85 -->
<g id="node2" class="node"><title>Node85</title>
<g id="a_node2"><a xlink:href="a00948.html#aead846b2c69509c914426ff087509934" target="_top" xlink:title="Match_2Hop">
<polygon fill="white" stroke="black" points="120.5,-47.5 120.5,-66.5 193.5,-66.5 193.5,-47.5 120.5,-47.5"/>
<text text-anchor="middle" x="157" y="-54.5" font-family="Helvetica,sans-Serif" font-size="10.00">Match_2Hop</text>
</a>
</g>
</g>
<!-- Node84&#45;&gt;Node85 -->
<g id="edge1" class="edge"><title>Node84&#45;&gt;Node85</title>
<path fill="none" stroke="midnightblue" d="M94.3061,-57C103.097,-57 112.058,-57 120.326,-57"/>
<polygon fill="midnightblue" stroke="midnightblue" points="94.1153,-53.5001 84.1153,-57 94.1152,-60.5001 94.1153,-53.5001"/>
</g>
<!-- Node86 -->
<g id="node3" class="node"><title>Node86</title>
<g id="a_node3"><a xlink:href="a00948.html#a892d2ea16d613abc2276ad5fc6999724" target="_top" xlink:title="Match_RM">
<polygon fill="white" stroke="black" points="236.5,-66.5 236.5,-85.5 301.5,-85.5 301.5,-66.5 236.5,-66.5"/>
<text text-anchor="middle" x="269" y="-73.5" font-family="Helvetica,sans-Serif" font-size="10.00">Match_RM</text>
</a>
</g>
</g>
<!-- Node85&#45;&gt;Node86 -->
<g id="edge2" class="edge"><title>Node85&#45;&gt;Node86</title>
<path fill="none" stroke="midnightblue" d="M203.578,-64.8726C214.533,-66.7647 226.001,-68.7457 236.175,-70.503"/>
<polygon fill="midnightblue" stroke="midnightblue" points="204.164,-61.422 193.714,-63.1688 202.972,-68.3198 204.164,-61.422"/>
</g>
<!-- Node95 -->
<g id="node12" class="node"><title>Node95</title>
<g id="a_node12"><a xlink:href="a00948.html#af3ec72f3170ccdca06d8ad018d86cc58" target="_top" xlink:title="Match_SHEM">
<polygon fill="white" stroke="black" points="230,-28.5 230,-47.5 308,-47.5 308,-28.5 230,-28.5"/>
<text text-anchor="middle" x="269" y="-35.5" font-family="Helvetica,sans-Serif" font-size="10.00">Match_SHEM</text>
</a>
</g>
</g>
<!-- Node85&#45;&gt;Node95 -->
<g id="edge14" class="edge"><title>Node85&#45;&gt;Node95</title>
<path fill="none" stroke="midnightblue" d="M203.707,-49.1051C212.39,-47.6053 221.392,-46.0505 229.812,-44.5961"/>
<polygon fill="midnightblue" stroke="midnightblue" points="202.972,-45.6802 193.714,-50.8312 204.164,-52.578 202.972,-45.6802"/>
</g>
<!-- Node87 -->
<g id="node4" class="node"><title>Node87</title>
<g id="a_node4"><a xlink:href="a00948.html#adeb2c7c9bffbeca00fcc97854fb88ada" target="_top" xlink:title="CoarsenGraph">
<polygon fill="white" stroke="black" points="361,-66.5 361,-85.5 443,-85.5 443,-66.5 361,-66.5"/>
<text text-anchor="middle" x="402" y="-73.5" font-family="Helvetica,sans-Serif" font-size="10.00">CoarsenGraph</text>
</a>
</g>
</g>
<!-- Node86&#45;&gt;Node87 -->
<g id="edge3" class="edge"><title>Node86&#45;&gt;Node87</title>
<path fill="none" stroke="midnightblue" d="M312.106,-76C327.662,-76 345.246,-76 360.644,-76"/>
<polygon fill="midnightblue" stroke="midnightblue" points="311.711,-72.5001 301.711,-76 311.711,-79.5001 311.711,-72.5001"/>
</g>
<!-- Node88 -->
<g id="node5" class="node"><title>Node88</title>
<g id="a_node5"><a xlink:href="a00948.html#afa83320e3b311e0feef90d0bf4303716" target="_top" xlink:title="CoarsenGraphNlevels">
<polygon fill="white" stroke="black" points="344.5,-28.5 344.5,-47.5 459.5,-47.5 459.5,-28.5 344.5,-28.5"/>
<text text-anchor="middle" x="402" y="-35.5" font-family="Helvetica,sans-Serif" font-size="10.00">CoarsenGraphNlevels</text>
</a>
</g>
</g>
<!-- Node86&#45;&gt;Node88 -->
<g id="edge4" class="edge"><title>Node86&#45;&gt;Node88</title>
<path fill="none" stroke="midnightblue" d="M311.539,-63.9505C329.844,-58.6406 351.045,-52.4907 368.213,-47.5109"/>
<polygon fill="midnightblue" stroke="midnightblue" points="310.34,-60.6538 301.711,-66.8013 312.291,-67.3767 310.34,-60.6538"/>
</g>
<!-- Node89 -->
<g id="node6" class="node"><title>Node89</title>
<g id="a_node6"><a xlink:href="a00948.html#ac3a0eaeefa34a3865a0be5bb70bd958f" target="_top" xlink:title="MlevelNodeBisectionL2">
<polygon fill="white" stroke="black" points="496.5,-28.5 496.5,-47.5 617.5,-47.5 617.5,-28.5 496.5,-28.5"/>
<text text-anchor="middle" x="557" y="-35.5" font-family="Helvetica,sans-Serif" font-size="10.00">MlevelNodeBisectionL2</text>
</a>
</g>
</g>
<!-- Node88&#45;&gt;Node89 -->
<g id="edge5" class="edge"><title>Node88&#45;&gt;Node89</title>
<path fill="none" stroke="midnightblue" d="M469.802,-38C478.641,-38 487.654,-38 496.361,-38"/>
<polygon fill="midnightblue" stroke="midnightblue" points="469.537,-34.5001 459.537,-38 469.537,-41.5001 469.537,-34.5001"/>
</g>
<!-- Node90 -->
<g id="node7" class="node"><title>Node90</title>
<g id="a_node7"><a xlink:href="a00948.html#a59c8030c5429e219a8535c2a11cef724" target="_top" xlink:title="MlevelNodeBisectionMultiple">
<polygon fill="white" stroke="black" points="654,-28.5 654,-47.5 798,-47.5 798,-28.5 654,-28.5"/>
<text text-anchor="middle" x="726" y="-35.5" font-family="Helvetica,sans-Serif" font-size="10.00">MlevelNodeBisectionMultiple</text>
</a>
</g>
</g>
<!-- Node89&#45;&gt;Node90 -->
<g id="edge6" class="edge"><title>Node89&#45;&gt;Node90</title>
<path fill="none" stroke="midnightblue" d="M627.828,-38C636.451,-38 645.275,-38 653.917,-38"/>
<polygon fill="midnightblue" stroke="midnightblue" points="627.819,-34.5001 617.819,-38 627.819,-41.5001 627.819,-34.5001"/>
</g>
<!-- Node91 -->
<g id="node8" class="node"><title>Node91</title>
<g id="a_node8"><a xlink:href="a00948.html#af853e9d8bbb2188f871fac436e631ed1" target="_top" xlink:title="MlevelNestedDissection">
<polygon fill="white" stroke="black" points="841.5,-56.5 841.5,-75.5 964.5,-75.5 964.5,-56.5 841.5,-56.5"/>
<text text-anchor="middle" x="903" y="-63.5" font-family="Helvetica,sans-Serif" font-size="10.00">MlevelNestedDissection</text>
</a>
</g>
</g>
<!-- Node90&#45;&gt;Node91 -->
<g id="edge7" class="edge"><title>Node90&#45;&gt;Node91</title>
<path fill="none" stroke="midnightblue" d="M797.034,-49.2054C812.109,-51.6175 827.906,-54.1449 842.534,-56.4854"/>
<polygon fill="midnightblue" stroke="midnightblue" points="797.163,-45.6816 786.736,-47.5577 796.057,-52.5937 797.163,-45.6816"/>
</g>
<!-- Node94 -->
<g id="node11" class="node"><title>Node94</title>
<g id="a_node11"><a xlink:href="a00948.html#a3ef15d1ffff55a81b8486bee09239073" target="_top" xlink:title="MlevelNestedDissectionCC">
<polygon fill="white" stroke="black" points="834,-0.5 834,-19.5 972,-19.5 972,-0.5 834,-0.5"/>
<text text-anchor="middle" x="903" y="-7.5" font-family="Helvetica,sans-Serif" font-size="10.00">MlevelNestedDissectionCC</text>
</a>
</g>
</g>
<!-- Node90&#45;&gt;Node94 -->
<g id="edge11" class="edge"><title>Node90&#45;&gt;Node94</title>
<path fill="none" stroke="midnightblue" d="M797.034,-26.7946C812.109,-24.3825 827.906,-21.8551 842.534,-19.5146"/>
<polygon fill="midnightblue" stroke="midnightblue" points="796.057,-23.4063 786.736,-28.4423 797.163,-30.3184 796.057,-23.4063"/>
</g>
<!-- Node91&#45;&gt;Node91 -->
<g id="edge10" class="edge"><title>Node91&#45;&gt;Node91</title>
<path fill="none" stroke="midnightblue" d="M875.001,-84.6539C876.171,-89.9368 885.504,-94 903,-94 929.66,-94 937.367,-84.5653 926.119,-75.7571"/>
<polygon fill="midnightblue" stroke="midnightblue" points="878.14,-86.208 879.881,-75.7571 872.003,-82.8417 878.14,-86.208"/>
</g>
<!-- Node92 -->
<g id="node9" class="node"><title>Node92</title>
<g id="a_node9"><a xlink:href="a00936.html#a8304f0dd6d180587f73b0b70de3b01b7" target="_top" xlink:title="METIS_NodeND">
<polygon fill="white" stroke="black" points="1008.5,-28.5 1008.5,-47.5 1099.5,-47.5 1099.5,-28.5 1008.5,-28.5"/>
<text text-anchor="middle" x="1054" y="-35.5" font-family="Helvetica,sans-Serif" font-size="10.00">METIS_NodeND</text>
</a>
</g>
</g>
<!-- Node91&#45;&gt;Node92 -->
<g id="edge8" class="edge"><title>Node91&#45;&gt;Node92</title>
<path fill="none" stroke="midnightblue" d="M964.802,-54.574C979.371,-51.8363 994.664,-48.9625 1008.35,-46.3911"/>
<polygon fill="midnightblue" stroke="midnightblue" points="964.042,-51.1556 954.861,-56.4423 965.335,-58.0351 964.042,-51.1556"/>
</g>
<!-- Node93 -->
<g id="node10" class="node"><title>Node93</title>
<g id="a_node10"><a xlink:href="a00326.html#a0ddf1224851353fc92bfbff6f499fa97" target="_top" xlink:title="main">
<polygon fill="white" stroke="black" points="1136,-28.5 1136,-47.5 1174,-47.5 1174,-28.5 1136,-28.5"/>
<text text-anchor="middle" x="1155" y="-35.5" font-family="Helvetica,sans-Serif" font-size="10.00">main</text>
</a>
</g>
</g>
<!-- Node92&#45;&gt;Node93 -->
<g id="edge9" class="edge"><title>Node92&#45;&gt;Node93</title>
<path fill="none" stroke="midnightblue" d="M1109.75,-38C1119.09,-38 1128.18,-38 1135.67,-38"/>
<polygon fill="midnightblue" stroke="midnightblue" points="1109.58,-34.5001 1099.58,-38 1109.58,-41.5001 1109.58,-34.5001"/>
</g>
<!-- Node94&#45;&gt;Node92 -->
<g id="edge12" class="edge"><title>Node94&#45;&gt;Node92</title>
<path fill="none" stroke="midnightblue" d="M964.802,-21.426C979.371,-24.1637 994.664,-27.0375 1008.35,-29.6089"/>
<polygon fill="midnightblue" stroke="midnightblue" points="965.335,-17.9649 954.861,-19.5577 964.042,-24.8444 965.335,-17.9649"/>
</g>
<!-- Node94&#45;&gt;Node94 -->
<g id="edge13" class="edge"><title>Node94&#45;&gt;Node94</title>
<path fill="none" stroke="midnightblue" d="M875.001,-28.6539C876.171,-33.9368 885.504,-38 903,-38 929.66,-38 937.367,-28.5653 926.119,-19.7571"/>
<polygon fill="midnightblue" stroke="midnightblue" points="878.14,-30.208 879.881,-19.7571 872.003,-26.8417 878.14,-30.208"/>
</g>
<!-- Node95&#45;&gt;Node87 -->
<g id="edge15" class="edge"><title>Node95&#45;&gt;Node87</title>
<path fill="none" stroke="midnightblue" d="M312.715,-50.3906C330.655,-55.5945 351.2,-61.5541 367.954,-66.4141"/>
<polygon fill="midnightblue" stroke="midnightblue" points="313.636,-47.0136 303.057,-47.589 311.686,-53.7364 313.636,-47.0136"/>
</g>
<!-- Node95&#45;&gt;Node88 -->
<g id="edge16" class="edge"><title>Node95&#45;&gt;Node88</title>
<path fill="none" stroke="midnightblue" d="M318.356,-38C326.85,-38 335.757,-38 344.451,-38"/>
<polygon fill="midnightblue" stroke="midnightblue" points="318.243,-34.5001 308.243,-38 318.243,-41.5001 318.243,-34.5001"/>
</g>
</g>
</svg>
        <g id="navigator" transform="translate(0 0)" fill="#404254">
                <rect fill="#f2f5e9" fill-opacity="0.5" stroke="#606060" stroke-width=".5" x="0" y="0" width="60" height="60"/>
                <use id="zoomplus" xlink:href="#zoomPlus" x="17" y="9" onmousedown="handleZoom(evt,'in')"/>
                <use id="zoomminus" xlink:href="#zoomMin" x="42" y="9" onmousedown="handleZoom(evt,'out')"/>
                <use id="reset" xlink:href="#resetDef" x="30" y="36" onmousedown="handleReset()"/>
                <g id="arrowUp" xlink:href="#dirArrow" transform="translate(30 24)" onmousedown="handlePan(0,-1)">
                  <use xlink:href="#rim" fill="#404040">
                        <set attributeName="fill" to="#808080" begin="arrowUp.mouseover" end="arrowUp.mouseout"/>
                  </use>
                  <path fill="none" stroke="white" stroke-width="1.5" d="M0,-3.0v7 M-2.5,-0.5L0,-3.0L2.5,-0.5"/>
                </g>
                <g id="arrowRight" xlink:href="#dirArrow" transform="rotate(90) translate(36 -43)" onmousedown="handlePan(1,0)">
                  <use xlink:href="#rim" fill="#404040">
                        <set attributeName="fill" to="#808080" begin="arrowRight.mouseover" end="arrowRight.mouseout"/>
                  </use>
                  <path fill="none" stroke="white" stroke-width="1.5" d="M0,-3.0v7 M-2.5,-0.5L0,-3.0L2.5,-0.5"/>
                </g>
                <g id="arrowDown" xlink:href="#dirArrow" transform="rotate(180) translate(-30 -48)" onmousedown="handlePan(0,1)">
                  <use xlink:href="#rim" fill="#404040">
                        <set attributeName="fill" to="#808080" begin="arrowDown.mouseover" end="arrowDown.mouseout"/>
                  </use>
                  <path fill="none" stroke="white" stroke-width="1.5" d="M0,-3.0v7 M-2.5,-0.5L0,-3.0L2.5,-0.5"/>
                </g>
                <g id="arrowLeft" xlink:href="#dirArrow" transform="rotate(270) translate(-36 17)" onmousedown="handlePan(-1,0)">
                  <use xlink:href="#rim" fill="#404040">
                        <set attributeName="fill" to="#808080" begin="arrowLeft.mouseover" end="arrowLeft.mouseout"/>
                  </use>
                  <path fill="none" stroke="white" stroke-width="1.5" d="M0,-3.0v7 M-2.5,-0.5L0,-3.0L2.5,-0.5"/>
                </g>
        </g>
        <svg viewBox="0 0 15 15" width="100%" height="30px" preserveAspectRatio="xMaxYMin meet">
         <g id="arrow_out" transform="scale(0.3 0.3)">
          <a xlink:href="a00182_aa56d53cace160be27fb1750dcaffbc04_icgraph_org.svg" target="_base">
           <rect id="button" ry="5" rx="5" y="6" x="6" height="38" width="38"
                fill="#f2f5e9" fill-opacity="0.5" stroke="#606060" stroke-width="1.0"/>
           <path id="arrow"
             d="M 11.500037,31.436501 C 11.940474,20.09759 22.043105,11.32322 32.158766,21.979434 L 37.068811,17.246167 C 37.068811,17.246167 37.088388,32 37.088388,32 L 22.160133,31.978069 C 22.160133,31.978069 26.997745,27.140456 26.997745,27.140456 C 18.528582,18.264221 13.291696,25.230495 11.500037,31.436501 z"
             style="fill:#404040;"/>
          </a>
         </g>
        </svg>
</svg>
