<?xml version="1.0" encoding="UTF-8" standalone="no"?>
<!DOCTYPE svg PUBLIC "-//W3C//DTD SVG 1.1//EN"
 "http://www.w3.org/Graphics/SVG/1.1/DTD/svg11.dtd">
<!-- Generated by graphviz version 2.36.0 (20140111.2315)
 -->
<!-- Title: test_isort Pages: 1 -->
<svg width="160pt" height="66pt"
 viewBox="0.00 0.00 160.00 66.00" xmlns="http://www.w3.org/2000/svg" xmlns:xlink="http://www.w3.org/1999/xlink">
<g id="graph0" class="graph" transform="scale(1 1) rotate(0) translate(4 62)">
<title>test_isort</title>
<polygon fill="white" stroke="none" points="-4,4 -4,-62 156,-62 156,4 -4,4"/>
<!-- Node63 -->
<g id="node1" class="node"><title>Node63</title>
<polygon fill="#bfbfbf" stroke="black" points="0.5,-19.5 0.5,-38.5 57.5,-38.5 57.5,-19.5 0.5,-19.5"/>
<text text-anchor="middle" x="29" y="-26.5" font-family="Helvetica,sans-Serif" font-size="10.00">test_isort</text>
</g>
<!-- Node64 -->
<g id="node2" class="node"><title>Node64</title>
<g id="a_node2"><a xlink:href="a00077.html#a0661d91bb9fcaa78715176ae9d5f8825" target="_top" xlink:title="gk_isorti">
<polygon fill="white" stroke="black" points="96,-38.5 96,-57.5 150,-57.5 150,-38.5 96,-38.5"/>
<text text-anchor="middle" x="123" y="-45.5" font-family="Helvetica,sans-Serif" font-size="10.00">gk_isorti</text>
</a>
</g>
</g>
<!-- Node63&#45;&gt;Node64 -->
<g id="edge1" class="edge"><title>Node63&#45;&gt;Node64</title>
<path fill="none" stroke="midnightblue" d="M57.603,-34.7006C66.5429,-36.5469 76.5927,-38.6224 86.0472,-40.575"/>
<polygon fill="midnightblue" stroke="midnightblue" points="85.4907,-44.0338 95.992,-42.6288 86.9065,-37.1785 85.4907,-44.0338"/>
</g>
<!-- Node65 -->
<g id="node3" class="node"><title>Node65</title>
<g id="a_node3"><a xlink:href="a00077.html#a36a2b736c24758a30ff91e715c68b3a5" target="_top" xlink:title="gk_isortd">
<polygon fill="white" stroke="black" points="94.5,-0.5 94.5,-19.5 151.5,-19.5 151.5,-0.5 94.5,-0.5"/>
<text text-anchor="middle" x="123" y="-7.5" font-family="Helvetica,sans-Serif" font-size="10.00">gk_isortd</text>
</a>
</g>
</g>
<!-- Node63&#45;&gt;Node65 -->
<g id="edge2" class="edge"><title>Node63&#45;&gt;Node65</title>
<path fill="none" stroke="midnightblue" d="M57.603,-23.2994C66.0633,-21.5522 75.5175,-19.5996 84.5205,-17.7403"/>
<polygon fill="midnightblue" stroke="midnightblue" points="85.331,-21.1469 94.4164,-15.6966 83.9152,-14.2916 85.331,-21.1469"/>
</g>
</g>
</svg>
