<?xml version="1.0" encoding="UTF-8" standalone="no"?>
<!DOCTYPE svg PUBLIC "-//W3C//DTD SVG 1.1//EN"
 "http://www.w3.org/Graphics/SVG/1.1/DTD/svg11.dtd">
<!-- Generated by graphviz version 2.36.0 (20140111.2315)
 -->
<!-- Title: ArcSyn3sis/include/Mesh.h Pages: 1 -->
<!--zoomable 176 -->
<svg id="main" version="1.1" xmlns="http://www.w3.org/2000/svg" xmlns:xlink="http://www.w3.org/1999/xlink" xml:space="preserve" onload="init(evt)">
<style type="text/css"><![CDATA[
.edge:hover path { stroke: red; }
.edge:hover polygon { stroke: red; fill: red; }
]]></style>
<script type="text/javascript"><![CDATA[
var edges = document.getElementsByTagName('g');
if (edges && edges.length) {
  for (var i=0;i<edges.length;i++) {
    if (edges[i].id.substr(0,4)=='edge') {
      edges[i].setAttribute('class','edge');
    }
  }
}
]]></script>
        <defs>
                <circle id="rim" cx="0" cy="0" r="7"/>
                <circle id="rim2" cx="0" cy="0" r="3.5"/>
                <g id="zoomPlus">
                        <use xlink:href="#rim" fill="#404040">
                                <set attributeName="fill" to="#808080" begin="zoomplus.mouseover" end="zoomplus.mouseout"/>
                        </use>
                        <path d="M-4,0h8M0,-4v8" fill="none" stroke="white" stroke-width="1.5" pointer-events="none"/>
                </g>
                <g id="zoomMin">
                        <use xlink:href="#rim" fill="#404040">
                                <set attributeName="fill" to="#808080" begin="zoomminus.mouseover" end="zoomminus.mouseout"/>
                        </use>
                        <path d="M-4,0h8" fill="none" stroke="white" stroke-width="1.5" pointer-events="none"/>
                </g>
                <g id="dirArrow">
                        <path fill="none" stroke="white" stroke-width="1.5" d="M0,-3.0v7 M-2.5,-0.5L0,-3.0L2.5,-0.5"/>
                </g>
               <g id="resetDef">
                       <use xlink:href="#rim2" fill="#404040">
                               <set attributeName="fill" to="#808080" begin="reset.mouseover" end="reset.mouseout"/>
                       </use>
               </g>
        </defs>

<script type="text/javascript">
var viewWidth = 1818;
var viewHeight = 176;
var sectionId = 'dynsection-1';
</script>
<script xlink:href="svgpan.js"/>
<svg id="graph" class="graph">
<g id="viewport">
<title>ArcSyn3sis/include/Mesh.h</title>
<polygon fill="white" stroke="none" points="-4,4 -4,-172 1814,-172 1814,4 -4,4"/>
<!-- Node2 -->
<g id="node1" class="node"><title>Node2</title>
<polygon fill="#bfbfbf" stroke="black" points="867.5,-137 867.5,-167 968.5,-167 968.5,-137 867.5,-137"/>
<text text-anchor="start" x="875.5" y="-155" font-family="Helvetica,sans-Serif" font-size="10.00">ArcSyn3sis/include</text>
<text text-anchor="middle" x="918" y="-144" font-family="Helvetica,sans-Serif" font-size="10.00">/Mesh.h</text>
</g>
<!-- Node3 -->
<g id="node2" class="node"><title>Node3</title>
<g id="a_node2"><a xlink:href="a00155.html" target="_top" xlink:title="ArcSyn3sis/include\l/fem.h">
<polygon fill="white" stroke="black" points="867.5,-69 867.5,-99 968.5,-99 968.5,-69 867.5,-69"/>
<text text-anchor="start" x="875.5" y="-87" font-family="Helvetica,sans-Serif" font-size="10.00">ArcSyn3sis/include</text>
<text text-anchor="middle" x="918" y="-76" font-family="Helvetica,sans-Serif" font-size="10.00">/fem.h</text>
</a>
</g>
</g>
<!-- Node2&#45;&gt;Node3 -->
<g id="edge1" class="edge"><title>Node2&#45;&gt;Node3</title>
<path fill="none" stroke="midnightblue" d="M918,-126.532C918,-117.361 918,-107.245 918,-99.2931"/>
<polygon fill="midnightblue" stroke="midnightblue" points="914.5,-126.679 918,-136.679 921.5,-126.679 914.5,-126.679"/>
</g>
<!-- Node4 -->
<g id="node3" class="node"><title>Node4</title>
<g id="a_node3"><a xlink:href="a00179.html" target="_top" xlink:title="ArcSyn3sis/main.cpp">
<polygon fill="white" stroke="black" points="0,-6.5 0,-25.5 110,-25.5 110,-6.5 0,-6.5"/>
<text text-anchor="middle" x="55" y="-13.5" font-family="Helvetica,sans-Serif" font-size="10.00">ArcSyn3sis/main.cpp</text>
</a>
</g>
</g>
<!-- Node3&#45;&gt;Node4 -->
<g id="edge2" class="edge"><title>Node3&#45;&gt;Node4</title>
<path fill="none" stroke="midnightblue" d="M857.138,-82.5611C723.056,-80.8418 392.376,-72.473 119,-32 108.388,-30.4289 96.9405,-27.9892 86.7016,-25.5306"/>
<polygon fill="midnightblue" stroke="midnightblue" points="857.171,-86.0616 867.213,-82.6823 857.256,-79.0621 857.171,-86.0616"/>
</g>
<!-- Node5 -->
<g id="node4" class="node"><title>Node5</title>
<g id="a_node4"><a xlink:href="a00182.html" target="_top" xlink:title="ArcSyn3sis/main.cpp_mine">
<polygon fill="white" stroke="black" points="128.5,-6.5 128.5,-25.5 265.5,-25.5 265.5,-6.5 128.5,-6.5"/>
<text text-anchor="middle" x="197" y="-13.5" font-family="Helvetica,sans-Serif" font-size="10.00">ArcSyn3sis/main.cpp_mine</text>
</a>
</g>
</g>
<!-- Node3&#45;&gt;Node5 -->
<g id="edge3" class="edge"><title>Node3&#45;&gt;Node5</title>
<path fill="none" stroke="midnightblue" d="M857.057,-80.4201C742.59,-75.0753 487.8,-60.8104 275,-32 262.565,-30.3164 249.114,-27.9344 236.942,-25.5632"/>
<polygon fill="midnightblue" stroke="midnightblue" points="857.212,-83.9309 867.362,-80.8948 857.534,-76.9383 857.212,-83.9309"/>
</g>
<!-- Node6 -->
<g id="node5" class="node"><title>Node6</title>
<g id="a_node5"><a xlink:href="a00197.html" target="_top" xlink:title="ArcSyn3sis/src/bidg\l_constants.cpp">
<polygon fill="white" stroke="black" points="284,-1 284,-31 388,-31 388,-1 284,-1"/>
<text text-anchor="start" x="292" y="-19" font-family="Helvetica,sans-Serif" font-size="10.00">ArcSyn3sis/src/bidg</text>
<text text-anchor="middle" x="336" y="-8" font-family="Helvetica,sans-Serif" font-size="10.00">_constants.cpp</text>
</a>
</g>
</g>
<!-- Node3&#45;&gt;Node6 -->
<g id="edge4" class="edge"><title>Node3&#45;&gt;Node6</title>
<path fill="none" stroke="midnightblue" d="M857.116,-79.8812C759.479,-74.2437 562.089,-60.2279 397,-32 394.098,-31.5037 391.129,-30.9453 388.14,-30.3433"/>
<polygon fill="midnightblue" stroke="midnightblue" points="857.202,-83.3916 867.385,-80.4643 857.599,-76.4029 857.202,-83.3916"/>
</g>
<!-- Node7 -->
<g id="node6" class="node"><title>Node7</title>
<g id="a_node6"><a xlink:href="a00203.html" target="_top" xlink:title="ArcSyn3sis/src/FacePair3d.cpp">
<polygon fill="white" stroke="black" points="406.5,-6.5 406.5,-25.5 561.5,-25.5 561.5,-6.5 406.5,-6.5"/>
<text text-anchor="middle" x="484" y="-13.5" font-family="Helvetica,sans-Serif" font-size="10.00">ArcSyn3sis/src/FacePair3d.cpp</text>
</a>
</g>
</g>
<!-- Node3&#45;&gt;Node7 -->
<g id="edge5" class="edge"><title>Node3&#45;&gt;Node7</title>
<path fill="none" stroke="midnightblue" d="M857.071,-74.5114C787.722,-64.7414 671.087,-47.9808 571,-32 558.438,-29.9942 544.876,-27.7123 532.284,-25.5441"/>
<polygon fill="midnightblue" stroke="midnightblue" points="856.979,-78.0328 867.369,-75.9597 857.954,-71.101 856.979,-78.0328"/>
</g>
<!-- Node8 -->
<g id="node7" class="node"><title>Node8</title>
<g id="a_node7"><a xlink:href="a00206.html" target="_top" xlink:title="ArcSyn3sis/src/Mesh2d.cpp">
<polygon fill="white" stroke="black" points="580,-6.5 580,-25.5 720,-25.5 720,-6.5 580,-6.5"/>
<text text-anchor="middle" x="650" y="-13.5" font-family="Helvetica,sans-Serif" font-size="10.00">ArcSyn3sis/src/Mesh2d.cpp</text>
</a>
</g>
</g>
<!-- Node3&#45;&gt;Node8 -->
<g id="edge6" class="edge"><title>Node3&#45;&gt;Node8</title>
<path fill="none" stroke="midnightblue" d="M857.267,-68.0432C803.983,-54.9211 728.382,-36.303 684.744,-25.5565"/>
<polygon fill="midnightblue" stroke="midnightblue" points="856.729,-71.5155 867.276,-70.5083 858.403,-64.7185 856.729,-71.5155"/>
</g>
<!-- Node9 -->
<g id="node8" class="node"><title>Node9</title>
<g id="a_node8"><a xlink:href="a00209.html" target="_top" xlink:title="ArcSyn3sis/src/occa\l_routines.cpp">
<polygon fill="white" stroke="black" points="738.5,-1 738.5,-31 845.5,-31 845.5,-1 738.5,-1"/>
<text text-anchor="start" x="746.5" y="-19" font-family="Helvetica,sans-Serif" font-size="10.00">ArcSyn3sis/src/occa</text>
<text text-anchor="middle" x="792" y="-8" font-family="Helvetica,sans-Serif" font-size="10.00">_routines.cpp</text>
</a>
</g>
</g>
<!-- Node3&#45;&gt;Node9 -->
<g id="edge7" class="edge"><title>Node3&#45;&gt;Node9</title>
<path fill="none" stroke="midnightblue" d="M882.103,-64.1968C862.026,-53.6802 837.411,-40.7868 818.985,-31.1352"/>
<polygon fill="midnightblue" stroke="midnightblue" points="880.487,-67.3016 890.97,-68.8413 883.736,-61.1008 880.487,-67.3016"/>
</g>
<!-- Node10 -->
<g id="node9" class="node"><title>Node10</title>
<g id="a_node9"><a xlink:href="a00212.html" target="_top" xlink:title="ArcSyn3sis/src/old\l/LoadBalance3d.cpp">
<polygon fill="white" stroke="black" points="864,-1 864,-31 972,-31 972,-1 864,-1"/>
<text text-anchor="start" x="872" y="-19" font-family="Helvetica,sans-Serif" font-size="10.00">ArcSyn3sis/src/old</text>
<text text-anchor="middle" x="918" y="-8" font-family="Helvetica,sans-Serif" font-size="10.00">/LoadBalance3d.cpp</text>
</a>
</g>
</g>
<!-- Node3&#45;&gt;Node10 -->
<g id="edge8" class="edge"><title>Node3&#45;&gt;Node10</title>
<path fill="none" stroke="midnightblue" d="M918,-58.5322C918,-49.3606 918,-39.2449 918,-31.2931"/>
<polygon fill="midnightblue" stroke="midnightblue" points="914.5,-58.6789 918,-68.679 921.5,-58.679 914.5,-58.6789"/>
</g>
<!-- Node11 -->
<g id="node10" class="node"><title>Node11</title>
<g id="a_node10"><a xlink:href="a00215.html" target="_top" xlink:title="ArcSyn3sis/src/old\l/Mesh3d.cpp">
<polygon fill="white" stroke="black" points="990.5,-1 990.5,-31 1089.5,-31 1089.5,-1 990.5,-1"/>
<text text-anchor="start" x="998.5" y="-19" font-family="Helvetica,sans-Serif" font-size="10.00">ArcSyn3sis/src/old</text>
<text text-anchor="middle" x="1040" y="-8" font-family="Helvetica,sans-Serif" font-size="10.00">/Mesh3d.cpp</text>
</a>
</g>
</g>
<!-- Node3&#45;&gt;Node11 -->
<g id="edge9" class="edge"><title>Node3&#45;&gt;Node11</title>
<path fill="none" stroke="midnightblue" d="M953.02,-64.0545C972.412,-53.5641 996.111,-40.7434 1013.87,-31.1352"/>
<polygon fill="midnightblue" stroke="midnightblue" points="951.302,-61.0047 944.172,-68.8413 954.633,-67.1615 951.302,-61.0047"/>
</g>
<!-- Node12 -->
<g id="node11" class="node"><title>Node12</title>
<g id="a_node11"><a xlink:href="a00221.html" target="_top" xlink:title="ArcSyn3sis/src/StartUp2d.cpp">
<polygon fill="white" stroke="black" points="1107.5,-6.5 1107.5,-25.5 1256.5,-25.5 1256.5,-6.5 1107.5,-6.5"/>
<text text-anchor="middle" x="1182" y="-13.5" font-family="Helvetica,sans-Serif" font-size="10.00">ArcSyn3sis/src/StartUp2d.cpp</text>
</a>
</g>
</g>
<!-- Node3&#45;&gt;Node12 -->
<g id="edge10" class="edge"><title>Node3&#45;&gt;Node12</title>
<path fill="none" stroke="midnightblue" d="M978.46,-67.8849C1030.98,-54.7544 1105.16,-36.2112 1147.94,-25.5143"/>
<polygon fill="midnightblue" stroke="midnightblue" points="977.442,-64.5317 968.589,-70.3526 979.14,-71.3227 977.442,-64.5317"/>
</g>
<!-- Node13 -->
<g id="node12" class="node"><title>Node13</title>
<g id="a_node12"><a xlink:href="a00224.html" target="_top" xlink:title="ArcSyn3sis/src/tri10bidg.cpp">
<polygon fill="white" stroke="black" points="1274.5,-6.5 1274.5,-25.5 1417.5,-25.5 1417.5,-6.5 1274.5,-6.5"/>
<text text-anchor="middle" x="1346" y="-13.5" font-family="Helvetica,sans-Serif" font-size="10.00">ArcSyn3sis/src/tri10bidg.cpp</text>
</a>
</g>
</g>
<!-- Node3&#45;&gt;Node13 -->
<g id="edge11" class="edge"><title>Node3&#45;&gt;Node13</title>
<path fill="none" stroke="midnightblue" d="M978.966,-74.7387C1048.35,-65.1745 1165.01,-48.5998 1265,-32 1276.85,-30.0325 1289.65,-27.7411 1301.49,-25.5503"/>
<polygon fill="midnightblue" stroke="midnightblue" points="978.093,-71.3256 968.663,-76.1552 979.046,-78.2604 978.093,-71.3256"/>
</g>
<!-- Node14 -->
<g id="node13" class="node"><title>Node14</title>
<g id="a_node13"><a xlink:href="a00227.html" target="_top" xlink:title="ArcSyn3sis/src/Utils.cpp">
<polygon fill="white" stroke="black" points="1436,-6.5 1436,-25.5 1560,-25.5 1560,-6.5 1436,-6.5"/>
<text text-anchor="middle" x="1498" y="-13.5" font-family="Helvetica,sans-Serif" font-size="10.00">ArcSyn3sis/src/Utils.cpp</text>
</a>
</g>
</g>
<!-- Node3&#45;&gt;Node14 -->
<g id="edge12" class="edge"><title>Node3&#45;&gt;Node14</title>
<path fill="none" stroke="midnightblue" d="M978.754,-78.9795C1074.31,-72.1889 1265.4,-56.7204 1426,-32 1437.36,-30.2517 1449.63,-27.8788 1460.77,-25.5365"/>
<polygon fill="midnightblue" stroke="midnightblue" points="978.425,-75.494 968.695,-79.6873 978.916,-82.4767 978.425,-75.494"/>
</g>
<!-- Node15 -->
<g id="node14" class="node"><title>Node15</title>
<g id="a_node14"><a xlink:href="a00303.html" target="_top" xlink:title="ArcSyn3sis/src/write\l_algs/write_vtu.cpp">
<polygon fill="white" stroke="black" points="1578.5,-1 1578.5,-31 1685.5,-31 1685.5,-1 1578.5,-1"/>
<text text-anchor="start" x="1586.5" y="-19" font-family="Helvetica,sans-Serif" font-size="10.00">ArcSyn3sis/src/write</text>
<text text-anchor="middle" x="1632" y="-8" font-family="Helvetica,sans-Serif" font-size="10.00">_algs/write_vtu.cpp</text>
</a>
</g>
</g>
<!-- Node3&#45;&gt;Node15 -->
<g id="edge13" class="edge"><title>Node3&#45;&gt;Node15</title>
<path fill="none" stroke="midnightblue" d="M978.604,-81.3966C1094.11,-77.6466 1353.48,-65.8879 1569,-32 1572.11,-31.511 1575.29,-30.9495 1578.5,-30.3373"/>
<polygon fill="midnightblue" stroke="midnightblue" points="978.428,-77.9003 968.544,-81.7146 978.65,-84.8968 978.428,-77.9003"/>
</g>
<!-- Node16 -->
<g id="node15" class="node"><title>Node16</title>
<g id="a_node15"><a xlink:href="a00248.html" target="_top" xlink:title="ArcSyn3sis/src/write\l_vtu.cpp">
<polygon fill="white" stroke="black" points="1703.5,-1 1703.5,-31 1810.5,-31 1810.5,-1 1703.5,-1"/>
<text text-anchor="start" x="1711.5" y="-19" font-family="Helvetica,sans-Serif" font-size="10.00">ArcSyn3sis/src/write</text>
<text text-anchor="middle" x="1757" y="-8" font-family="Helvetica,sans-Serif" font-size="10.00">_vtu.cpp</text>
</a>
</g>
</g>
<!-- Node3&#45;&gt;Node16 -->
<g id="edge14" class="edge"><title>Node3&#45;&gt;Node16</title>
<path fill="none" stroke="midnightblue" d="M978.96,-82.4684C1110.37,-80.5629 1429.81,-71.8434 1694,-32 1697,-31.5473 1700.07,-31.0232 1703.16,-30.4479"/>
<polygon fill="midnightblue" stroke="midnightblue" points="978.654,-78.9722 968.703,-82.6087 978.75,-85.9715 978.654,-78.9722"/>
</g>
</g>
</svg>
        <g id="navigator" transform="translate(0 0)" fill="#404254">
                <rect fill="#f2f5e9" fill-opacity="0.5" stroke="#606060" stroke-width=".5" x="0" y="0" width="60" height="60"/>
                <use id="zoomplus" xlink:href="#zoomPlus" x="17" y="9" onmousedown="handleZoom(evt,'in')"/>
                <use id="zoomminus" xlink:href="#zoomMin" x="42" y="9" onmousedown="handleZoom(evt,'out')"/>
                <use id="reset" xlink:href="#resetDef" x="30" y="36" onmousedown="handleReset()"/>
                <g id="arrowUp" xlink:href="#dirArrow" transform="translate(30 24)" onmousedown="handlePan(0,-1)">
                  <use xlink:href="#rim" fill="#404040">
                        <set attributeName="fill" to="#808080" begin="arrowUp.mouseover" end="arrowUp.mouseout"/>
                  </use>
                  <path fill="none" stroke="white" stroke-width="1.5" d="M0,-3.0v7 M-2.5,-0.5L0,-3.0L2.5,-0.5"/>
                </g>
                <g id="arrowRight" xlink:href="#dirArrow" transform="rotate(90) translate(36 -43)" onmousedown="handlePan(1,0)">
                  <use xlink:href="#rim" fill="#404040">
                        <set attributeName="fill" to="#808080" begin="arrowRight.mouseover" end="arrowRight.mouseout"/>
                  </use>
                  <path fill="none" stroke="white" stroke-width="1.5" d="M0,-3.0v7 M-2.5,-0.5L0,-3.0L2.5,-0.5"/>
                </g>
                <g id="arrowDown" xlink:href="#dirArrow" transform="rotate(180) translate(-30 -48)" onmousedown="handlePan(0,1)">
                  <use xlink:href="#rim" fill="#404040">
                        <set attributeName="fill" to="#808080" begin="arrowDown.mouseover" end="arrowDown.mouseout"/>
                  </use>
                  <path fill="none" stroke="white" stroke-width="1.5" d="M0,-3.0v7 M-2.5,-0.5L0,-3.0L2.5,-0.5"/>
                </g>
                <g id="arrowLeft" xlink:href="#dirArrow" transform="rotate(270) translate(-36 17)" onmousedown="handlePan(-1,0)">
                  <use xlink:href="#rim" fill="#404040">
                        <set attributeName="fill" to="#808080" begin="arrowLeft.mouseover" end="arrowLeft.mouseout"/>
                  </use>
                  <path fill="none" stroke="white" stroke-width="1.5" d="M0,-3.0v7 M-2.5,-0.5L0,-3.0L2.5,-0.5"/>
                </g>
        </g>
        <svg viewBox="0 0 15 15" width="100%" height="30px" preserveAspectRatio="xMaxYMin meet">
         <g id="arrow_out" transform="scale(0.3 0.3)">
          <a xlink:href="a00160_org.svg" target="_base">
           <rect id="button" ry="5" rx="5" y="6" x="6" height="38" width="38"
                fill="#f2f5e9" fill-opacity="0.5" stroke="#606060" stroke-width="1.0"/>
           <path id="arrow"
             d="M 11.500037,31.436501 C 11.940474,20.09759 22.043105,11.32322 32.158766,21.979434 L 37.068811,17.246167 C 37.068811,17.246167 37.088388,32 37.088388,32 L 22.160133,31.978069 C 22.160133,31.978069 26.997745,27.140456 26.997745,27.140456 C 18.528582,18.264221 13.291696,25.230495 11.500037,31.436501 z"
             style="fill:#404040;"/>
          </a>
         </g>
        </svg>
</svg>
