<?xml version="1.0" encoding="UTF-8" standalone="no"?>
<!DOCTYPE svg PUBLIC "-//W3C//DTD SVG 1.1//EN"
 "http://www.w3.org/Graphics/SVG/1.1/DTD/svg11.dtd">
<!-- Generated by graphviz version 2.36.0 (20140111.2315)
 -->
<!-- Title: BuildMatrix Pages: 1 -->
<svg width="402pt" height="224pt"
 viewBox="0.00 0.00 402.00 223.75" xmlns="http://www.w3.org/2000/svg" xmlns:xlink="http://www.w3.org/1999/xlink">
<g id="graph0" class="graph" transform="scale(1 1) rotate(0) translate(4 219.753)">
<title>BuildMatrix</title>
<polygon fill="white" stroke="none" points="-4,4 -4,-219.753 398,-219.753 398,4 -4,4"/>
<!-- Node40 -->
<g id="node1" class="node"><title>Node40</title>
<polygon fill="#bfbfbf" stroke="black" points="0,-99.8483 0,-118.848 66,-118.848 66,-99.8483 0,-99.8483"/>
<text text-anchor="middle" x="33" y="-106.848" font-family="Helvetica,sans-Serif" font-size="10.00">BuildMatrix</text>
</g>
<!-- Node41 -->
<g id="node2" class="node"><title>Node41</title>
<g id="a_node2"><a xlink:href="a00161.html#af31fd6654ededed596d98c090d8748b5" target="_top" xlink:title="ReadMesh2d">
<polygon fill="white" stroke="black" points="244,-165.848 244,-184.848 320,-184.848 320,-165.848 244,-165.848"/>
<text text-anchor="middle" x="282" y="-172.848" font-family="Helvetica,sans-Serif" font-size="10.00">ReadMesh2d</text>
</a>
</g>
</g>
<!-- Node40&#45;&gt;Node41 -->
<g id="edge1" class="edge"><title>Node40&#45;&gt;Node41</title>
<path fill="none" stroke="midnightblue" d="M41.1882,-128.288C51.0109,-151.127 71.0257,-188.428 102,-204.348 155.899,-232.052 229.952,-201.694 263.372,-184.93"/>
<polygon fill="midnightblue" stroke="midnightblue" points="44.397,-126.887 37.3895,-118.941 37.9121,-129.523 44.397,-126.887"/>
</g>
<!-- Node43 -->
<g id="node4" class="node"><title>Node43</title>
<g id="a_node4"><a xlink:href="a00161.html#a992690ab68b8564681b5a038ca111413" target="_top" xlink:title="ReadMesh2d_linear">
<polygon fill="white" stroke="black" points="102,-175.848 102,-194.848 208,-194.848 208,-175.848 102,-175.848"/>
<text text-anchor="middle" x="155" y="-182.848" font-family="Helvetica,sans-Serif" font-size="10.00">ReadMesh2d_linear</text>
</a>
</g>
</g>
<!-- Node40&#45;&gt;Node43 -->
<g id="edge3" class="edge"><title>Node40&#45;&gt;Node43</title>
<path fill="none" stroke="midnightblue" d="M52.883,-125.602C66.0989,-136.513 84.4607,-150.772 102,-161.348 110.94,-166.739 121.295,-171.746 130.399,-175.776"/>
<polygon fill="midnightblue" stroke="midnightblue" points="54.9116,-122.735 45.0018,-118.987 50.4115,-128.097 54.9116,-122.735"/>
</g>
<!-- Node44 -->
<g id="node5" class="node"><title>Node44</title>
<g id="a_node5"><a xlink:href="a00164.html#a21a02761bc746f8e6205d02f662aee16" target="_top" xlink:title="rk_run_2d">
<polygon fill="white" stroke="black" points="251,-80.8483 251,-99.8483 313,-99.8483 313,-80.8483 251,-80.8483"/>
<text text-anchor="middle" x="282" y="-87.8483" font-family="Helvetica,sans-Serif" font-size="10.00">rk_run_2d</text>
</a>
</g>
</g>
<!-- Node40&#45;&gt;Node44 -->
<g id="edge4" class="edge"><title>Node40&#45;&gt;Node44</title>
<path fill="none" stroke="midnightblue" d="M71.337,-121.746C81.1965,-124.476 91.9052,-126.964 102,-128.348 148.675,-134.746 162.239,-139.546 208,-128.348 230.344,-122.881 253.457,-109.261 267.534,-99.9046"/>
<polygon fill="midnightblue" stroke="midnightblue" points="72.0114,-118.297 61.431,-118.85 70.0472,-125.016 72.0114,-118.297"/>
</g>
<!-- Node45 -->
<g id="node6" class="node"><title>Node45</title>
<g id="a_node6"><a xlink:href="a00167.html#a004c52e87250e61b258755469b25bbe9" target="_top" xlink:title="LoadBalance3d">
<polygon fill="white" stroke="black" points="112,-99.8483 112,-118.848 198,-118.848 198,-99.8483 112,-99.8483"/>
<text text-anchor="middle" x="155" y="-106.848" font-family="Helvetica,sans-Serif" font-size="10.00">LoadBalance3d</text>
</a>
</g>
</g>
<!-- Node40&#45;&gt;Node45 -->
<g id="edge6" class="edge"><title>Node40&#45;&gt;Node45</title>
<path fill="none" stroke="midnightblue" d="M76.3934,-109.348C87.8878,-109.348 100.328,-109.348 111.811,-109.348"/>
<polygon fill="midnightblue" stroke="midnightblue" points="76.1578,-105.848 66.1578,-109.348 76.1578,-112.848 76.1578,-105.848"/>
</g>
<!-- Node46 -->
<g id="node7" class="node"><title>Node46</title>
<g id="a_node7"><a xlink:href="a00170.html#ae31747f9df306a59e6f4df61fddfe15f" target="_top" xlink:title="ReadMesh3d">
<polygon fill="white" stroke="black" points="117,-61.8483 117,-80.8483 193,-80.8483 193,-61.8483 117,-61.8483"/>
<text text-anchor="middle" x="155" y="-68.8483" font-family="Helvetica,sans-Serif" font-size="10.00">ReadMesh3d</text>
</a>
</g>
</g>
<!-- Node40&#45;&gt;Node46 -->
<g id="edge7" class="edge"><title>Node40&#45;&gt;Node46</title>
<path fill="none" stroke="midnightblue" d="M74.0435,-96.6678C90.2574,-91.5334 108.666,-85.7042 123.729,-80.9342"/>
<polygon fill="midnightblue" stroke="midnightblue" points="72.7578,-93.4036 64.2811,-99.7593 74.8711,-100.077 72.7578,-93.4036"/>
</g>
<!-- Node47 -->
<g id="node8" class="node"><title>Node47</title>
<g id="a_node8"><a xlink:href="a00176.html#a35ba318a20f8b83eefe63eeb1e1ac4b0" target="_top" xlink:title="StartUp2d">
<polygon fill="white" stroke="black" points="251,-14.8483 251,-33.8483 313,-33.8483 313,-14.8483 251,-14.8483"/>
<text text-anchor="middle" x="282" y="-21.8483" font-family="Helvetica,sans-Serif" font-size="10.00">StartUp2d</text>
</a>
</g>
</g>
<!-- Node40&#45;&gt;Node47 -->
<g id="edge8" class="edge"><title>Node40&#45;&gt;Node47</title>
<path fill="none" stroke="midnightblue" d="M41.1882,-90.4086C51.0109,-67.5696 71.0257,-30.2687 102,-14.3483 150.859,10.7648 217.433,-3.50413 254.07,-14.7884"/>
<polygon fill="midnightblue" stroke="midnightblue" points="37.9121,-89.1738 37.3895,-99.7558 44.397,-91.8093 37.9121,-89.1738"/>
</g>
<!-- Node48 -->
<g id="node9" class="node"><title>Node48</title>
<g id="a_node9"><a xlink:href="a00200.html#aa275e5ac3935009592aad28f023ed4a1" target="_top" xlink:title="write_vtu">
<polygon fill="white" stroke="black" points="126.5,-23.8483 126.5,-42.8483 183.5,-42.8483 183.5,-23.8483 126.5,-23.8483"/>
<text text-anchor="middle" x="155" y="-30.8483" font-family="Helvetica,sans-Serif" font-size="10.00">write_vtu</text>
</a>
</g>
</g>
<!-- Node40&#45;&gt;Node48 -->
<g id="edge10" class="edge"><title>Node40&#45;&gt;Node48</title>
<path fill="none" stroke="midnightblue" d="M50.604,-92.5614C63.6538,-80.1162 82.781,-63.4538 102,-52.3483 109.573,-47.9722 118.333,-44.3065 126.479,-41.399"/>
<polygon fill="midnightblue" stroke="midnightblue" points="48.026,-90.1868 43.3175,-99.6779 52.9171,-95.1946 48.026,-90.1868"/>
</g>
<!-- Node42 -->
<g id="node3" class="node"><title>Node42</title>
<g id="a_node3"><a xlink:href="a00146.html#a3c04138a5bfe5d72780bb7e82a18e627" target="_top" xlink:title="main">
<polygon fill="white" stroke="black" points="356,-80.8483 356,-99.8483 394,-99.8483 394,-80.8483 356,-80.8483"/>
<text text-anchor="middle" x="375" y="-87.8483" font-family="Helvetica,sans-Serif" font-size="10.00">main</text>
</a>
</g>
</g>
<!-- Node41&#45;&gt;Node42 -->
<g id="edge2" class="edge"><title>Node41&#45;&gt;Node42</title>
<path fill="none" stroke="midnightblue" d="M300.78,-158.74C319.52,-141.236 348.395,-114.265 363.683,-99.9851"/>
<polygon fill="midnightblue" stroke="midnightblue" points="298.358,-156.214 293.439,-165.598 303.136,-161.329 298.358,-156.214"/>
</g>
<!-- Node44&#45;&gt;Node42 -->
<g id="edge5" class="edge"><title>Node44&#45;&gt;Node42</title>
<path fill="none" stroke="midnightblue" d="M323.314,-90.3483C334.717,-90.3483 346.56,-90.3483 355.929,-90.3483"/>
<polygon fill="midnightblue" stroke="midnightblue" points="323.049,-86.8484 313.049,-90.3483 323.049,-93.8484 323.049,-86.8484"/>
</g>
<!-- Node47&#45;&gt;Node42 -->
<g id="edge9" class="edge"><title>Node47&#45;&gt;Node42</title>
<path fill="none" stroke="midnightblue" d="M304.883,-40.2192C322.327,-52.8709 346.178,-70.1699 360.813,-80.7844"/>
<polygon fill="midnightblue" stroke="midnightblue" points="306.577,-37.1247 296.427,-34.0868 302.468,-42.7912 306.577,-37.1247"/>
</g>
<!-- Node48&#45;&gt;Node44 -->
<g id="edge11" class="edge"><title>Node48&#45;&gt;Node44</title>
<path fill="none" stroke="midnightblue" d="M193.098,-46.2335C198.147,-48.1816 203.23,-50.2459 208,-52.3483 227.742,-61.0496 249.593,-72.7069 264.196,-80.8057"/>
<polygon fill="midnightblue" stroke="midnightblue" points="194.114,-42.8767 183.522,-42.6512 191.662,-49.433 194.114,-42.8767"/>
</g>
</g>
</svg>
