<?xml version="1.0" encoding="UTF-8" standalone="no"?>
<!DOCTYPE svg PUBLIC "-//W3C//DTD SVG 1.1//EN"
 "http://www.w3.org/Graphics/SVG/1.1/DTD/svg11.dtd">
<!-- Generated by graphviz version 2.36.0 (20140111.2315)
 -->
<!-- Title: ReadMesh3d Pages: 1 -->
<svg width="198pt" height="142pt"
 viewBox="0.00 0.00 198.00 142.00" xmlns="http://www.w3.org/2000/svg" xmlns:xlink="http://www.w3.org/1999/xlink">
<g id="graph0" class="graph" transform="scale(1 1) rotate(0) translate(4 138)">
<title>ReadMesh3d</title>
<polygon fill="white" stroke="none" points="-4,4 -4,-138 194,-138 194,4 -4,4"/>
<!-- Node185 -->
<g id="node1" class="node"><title>Node185</title>
<polygon fill="#bfbfbf" stroke="black" points="0,-57.5 0,-76.5 76,-76.5 76,-57.5 0,-57.5"/>
<text text-anchor="middle" x="38" y="-64.5" font-family="Helvetica,sans-Serif" font-size="10.00">ReadMesh3d</text>
</g>
<!-- Node186 -->
<g id="node2" class="node"><title>Node186</title>
<g id="a_node2"><a xlink:href="a00128.html#a990278305dbeaf8e4441cf4146bfdc62" target="_top" xlink:title="BuildVector">
<polygon fill="white" stroke="black" points="117,-114.5 117,-133.5 185,-133.5 185,-114.5 117,-114.5"/>
<text text-anchor="middle" x="151" y="-121.5" font-family="Helvetica,sans-Serif" font-size="10.00">BuildVector</text>
</a>
</g>
</g>
<!-- Node185&#45;&gt;Node186 -->
<g id="edge1" class="edge"><title>Node185&#45;&gt;Node186</title>
<path fill="none" stroke="midnightblue" d="M57.2577,-76.609C71.9983,-84.3416 93.2914,-95.4543 112,-105 115.117,-106.59 118.383,-108.244 121.637,-109.882"/>
<polygon fill="midnightblue" stroke="midnightblue" points="120.13,-113.042 130.638,-114.395 123.267,-106.784 120.13,-113.042"/>
</g>
<!-- Node187 -->
<g id="node3" class="node"><title>Node187</title>
<g id="a_node3"><a xlink:href="a00128.html#a77f751d54b396015520a882d7a318e57" target="_top" xlink:title="BuildIntMatrix">
<polygon fill="white" stroke="black" points="112.5,-76.5 112.5,-95.5 189.5,-95.5 189.5,-76.5 112.5,-76.5"/>
<text text-anchor="middle" x="151" y="-83.5" font-family="Helvetica,sans-Serif" font-size="10.00">BuildIntMatrix</text>
</a>
</g>
</g>
<!-- Node185&#45;&gt;Node187 -->
<g id="edge2" class="edge"><title>Node185&#45;&gt;Node187</title>
<path fill="none" stroke="midnightblue" d="M76.2702,-73.3796C84.5995,-74.8053 93.5451,-76.3366 102.233,-77.8236"/>
<polygon fill="midnightblue" stroke="midnightblue" points="101.814,-81.3027 112.261,-79.5401 102.995,-74.403 101.814,-81.3027"/>
</g>
<!-- Node188 -->
<g id="node4" class="node"><title>Node188</title>
<g id="a_node4"><a xlink:href="a00128.html#a4bf6e503687187059ced10b812beaab3" target="_top" xlink:title="BuildMatrix">
<polygon fill="white" stroke="black" points="118,-38.5 118,-57.5 184,-57.5 184,-38.5 118,-38.5"/>
<text text-anchor="middle" x="151" y="-45.5" font-family="Helvetica,sans-Serif" font-size="10.00">BuildMatrix</text>
</a>
</g>
</g>
<!-- Node185&#45;&gt;Node188 -->
<g id="edge3" class="edge"><title>Node185&#45;&gt;Node188</title>
<path fill="none" stroke="midnightblue" d="M76.2702,-60.6204C86.3788,-58.8901 97.395,-57.0045 107.756,-55.2309"/>
<polygon fill="midnightblue" stroke="midnightblue" points="108.576,-58.6416 117.842,-53.5046 107.395,-51.742 108.576,-58.6416"/>
</g>
<!-- Node189 -->
<g id="node5" class="node"><title>Node189</title>
<g id="a_node5"><a xlink:href="a00309.html#a355ed4cdac2a27aa04a6689ac2d7e86e" target="_top" xlink:title="fclose">
<polygon fill="white" stroke="black" points="129.5,-0.5 129.5,-19.5 172.5,-19.5 172.5,-0.5 129.5,-0.5"/>
<text text-anchor="middle" x="151" y="-7.5" font-family="Helvetica,sans-Serif" font-size="10.00">fclose</text>
</a>
</g>
</g>
<!-- Node185&#45;&gt;Node189 -->
<g id="edge4" class="edge"><title>Node185&#45;&gt;Node189</title>
<path fill="none" stroke="midnightblue" d="M57.2577,-57.391C71.9983,-49.6584 93.2914,-38.5457 112,-29 115.117,-27.4098 118.383,-25.7565 121.637,-24.1181"/>
<polygon fill="midnightblue" stroke="midnightblue" points="123.267,-27.216 130.638,-19.605 120.13,-20.9585 123.267,-27.216"/>
</g>
</g>
</svg>
