<?xml version="1.0" encoding="UTF-8" standalone="no"?>
<!DOCTYPE svg PUBLIC "-//W3C//DTD SVG 1.1//EN"
 "http://www.w3.org/Graphics/SVG/1.1/DTD/svg11.dtd">
<!-- Generated by graphviz version 2.36.0 (20140111.2315)
 -->
<!-- Title: main Pages: 1 -->
<svg width="808pt" height="826pt"
 viewBox="0.00 0.00 808.00 826.00" xmlns="http://www.w3.org/2000/svg" xmlns:xlink="http://www.w3.org/1999/xlink">
<g id="graph0" class="graph" transform="scale(1 1) rotate(0) translate(4 822)">
<title>main</title>
<polygon fill="white" stroke="none" points="-4,4 -4,-822 804,-822 804,4 -4,4"/>
<!-- Node3 -->
<g id="node1" class="node"><title>Node3</title>
<polygon fill="#bfbfbf" stroke="black" points="0,-247.5 0,-266.5 38,-266.5 38,-247.5 0,-247.5"/>
<text text-anchor="middle" x="19" y="-254.5" font-family="Helvetica,sans-Serif" font-size="10.00">main</text>
</g>
<!-- Node4 -->
<g id="node2" class="node"><title>Node4</title>
<g id="a_node2"><a xlink:href="$a00149.html#a0e7ce196a2f8882777957bf898739f6f" xlink:title="parse_cmdline">
<polygon fill="white" stroke="black" points="115,-722.5 115,-741.5 197,-741.5 197,-722.5 115,-722.5"/>
<text text-anchor="middle" x="156" y="-729.5" font-family="Helvetica,sans-Serif" font-size="10.00">parse_cmdline</text>
</a>
</g>
</g>
<!-- Node3&#45;&gt;Node4 -->
<g id="edge1" class="edge"><title>Node3&#45;&gt;Node4</title>
<path fill="none" stroke="midnightblue" d="M20.2123,-266.83C21.5794,-322.961 30.5177,-602.957 74,-675 85.3206,-693.756 105.436,-707.962 122.788,-717.5"/>
<polygon fill="midnightblue" stroke="midnightblue" points="121.582,-720.817 132.07,-722.318 124.807,-714.604 121.582,-720.817"/>
</g>
<!-- Node11 -->
<g id="node9" class="node"><title>Node11</title>
<g id="a_node9"><a xlink:href="$a00077.html#a432baae7f5c91c3604b42efb324b4131" xlink:title="gk_graph_Read">
<polygon fill="white" stroke="black" points="112,-494.5 112,-513.5 200,-513.5 200,-494.5 112,-494.5"/>
<text text-anchor="middle" x="156" y="-501.5" font-family="Helvetica,sans-Serif" font-size="10.00">gk_graph_Read</text>
</a>
</g>
</g>
<!-- Node3&#45;&gt;Node11 -->
<g id="edge9" class="edge"><title>Node3&#45;&gt;Node11</title>
<path fill="none" stroke="midnightblue" d="M24.1502,-266.626C32.7936,-286.467 53.6212,-333.222 74,-371 96.6493,-412.987 126.559,-460.282 142.959,-485.619"/>
<polygon fill="midnightblue" stroke="midnightblue" points="140.153,-487.724 148.54,-494.198 146.021,-483.907 140.153,-487.724"/>
</g>
<!-- Node22 -->
<g id="node20" class="node"><title>Node22</title>
<g id="a_node20"><a xlink:href="$a00077.html#ac8df62c4e3d0910711a9874f9cc58884" xlink:title="gk_free">
<polygon fill="white" stroke="black" points="494,-247.5 494,-266.5 544,-266.5 544,-247.5 494,-247.5"/>
<text text-anchor="middle" x="519" y="-254.5" font-family="Helvetica,sans-Serif" font-size="10.00">gk_free</text>
</a>
</g>
</g>
<!-- Node3&#45;&gt;Node22 -->
<g id="edge49" class="edge"><title>Node3&#45;&gt;Node22</title>
<path fill="none" stroke="midnightblue" d="M23.7486,-247.306C30.7816,-230.571 47.664,-196.564 74,-181 144.921,-139.086 370.346,-121.099 444,-158 477.257,-174.662 499.405,-214.152 510.24,-237.915"/>
<polygon fill="midnightblue" stroke="midnightblue" points="507.121,-239.52 514.306,-247.306 513.545,-236.739 507.121,-239.52"/>
</g>
<!-- Node23 -->
<g id="node21" class="node"><title>Node23</title>
<g id="a_node21"><a xlink:href="$a00149.html#a4598b170c85571dc5cabc5cf4c0a960f" xlink:title="print_init_info">
<polygon fill="white" stroke="black" points="118,-95.5 118,-114.5 194,-114.5 194,-95.5 118,-95.5"/>
<text text-anchor="middle" x="156" y="-102.5" font-family="Helvetica,sans-Serif" font-size="10.00">print_init_info</text>
</a>
</g>
</g>
<!-- Node3&#45;&gt;Node23 -->
<g id="edge26" class="edge"><title>Node3&#45;&gt;Node23</title>
<path fill="none" stroke="midnightblue" d="M21.2399,-247.362C24.8121,-223.608 37.3296,-161.805 74,-129 83.3939,-120.596 95.6088,-115.13 107.692,-111.576"/>
<polygon fill="midnightblue" stroke="midnightblue" points="108.918,-114.876 117.746,-109.019 107.192,-108.092 108.918,-114.876"/>
</g>
<!-- Node24 -->
<g id="node22" class="node"><title>Node24</title>
<g id="a_node22"><a xlink:href="$a00149.html#aaa05369855e182bb76940a4c0e3898d8" xlink:title="compute_compactness">
<polygon fill="white" stroke="black" points="96.5,-57.5 96.5,-76.5 215.5,-76.5 215.5,-57.5 96.5,-57.5"/>
<text text-anchor="middle" x="156" y="-64.5" font-family="Helvetica,sans-Serif" font-size="10.00">compute_compactness</text>
</a>
</g>
</g>
<!-- Node3&#45;&gt;Node24 -->
<g id="edge27" class="edge"><title>Node3&#45;&gt;Node24</title>
<path fill="none" stroke="midnightblue" d="M19.9539,-247.147C20.3814,-217.869 25.8309,-130.664 74,-86 77.8726,-82.4092 82.2912,-79.4565 87.021,-77.033"/>
<polygon fill="midnightblue" stroke="midnightblue" points="88.6263,-80.1529 96.4383,-72.9958 85.8681,-73.7192 88.6263,-80.1529"/>
</g>
<!-- Node25 -->
<g id="node23" class="node"><title>Node25</title>
<g id="a_node23"><a xlink:href="$a00077.html#afc3115833e0ad293dbe9fd4028b12f20" xlink:title="gk_graph_ComputeBFSOrdering">
<polygon fill="white" stroke="black" points="74.5,-228.5 74.5,-247.5 237.5,-247.5 237.5,-228.5 74.5,-228.5"/>
<text text-anchor="middle" x="156" y="-235.5" font-family="Helvetica,sans-Serif" font-size="10.00">gk_graph_ComputeBFSOrdering</text>
</a>
</g>
</g>
<!-- Node3&#45;&gt;Node25 -->
<g id="edge28" class="edge"><title>Node3&#45;&gt;Node25</title>
<path fill="none" stroke="midnightblue" d="M38.2067,-254.438C48.674,-252.964 62.6186,-251.002 77.2203,-248.947"/>
<polygon fill="midnightblue" stroke="midnightblue" points="77.985,-252.374 87.3996,-247.514 77.0094,-245.442 77.985,-252.374"/>
</g>
<!-- Node26 -->
<g id="node24" class="node"><title>Node26</title>
<g id="a_node24"><a xlink:href="$a00077.html#aab929d2134ffb92863867c93a0ce1f27" xlink:title="gk_graph_Reorder">
<polygon fill="white" stroke="black" points="106,-342.5 106,-361.5 206,-361.5 206,-342.5 106,-342.5"/>
<text text-anchor="middle" x="156" y="-349.5" font-family="Helvetica,sans-Serif" font-size="10.00">gk_graph_Reorder</text>
</a>
</g>
</g>
<!-- Node3&#45;&gt;Node26 -->
<g id="edge30" class="edge"><title>Node3&#45;&gt;Node26</title>
<path fill="none" stroke="midnightblue" d="M24.8473,-266.847C32.9138,-282.214 50.5516,-311.809 74,-328 80.6928,-332.621 88.2867,-336.367 96.0773,-339.399"/>
<polygon fill="midnightblue" stroke="midnightblue" points="95.0355,-342.742 105.63,-342.754 97.3554,-336.138 95.0355,-342.742"/>
</g>
<!-- Node27 -->
<g id="node25" class="node"><title>Node27</title>
<g id="a_node25"><a xlink:href="$a00077.html#a92bfa3f7bc76f9fb591ad67f665383e9" xlink:title="gk_graph_Write">
<polygon fill="white" stroke="black" points="112.5,-646.5 112.5,-665.5 199.5,-665.5 199.5,-646.5 112.5,-646.5"/>
<text text-anchor="middle" x="156" y="-653.5" font-family="Helvetica,sans-Serif" font-size="10.00">gk_graph_Write</text>
</a>
</g>
</g>
<!-- Node3&#45;&gt;Node27 -->
<g id="edge33" class="edge"><title>Node3&#45;&gt;Node27</title>
<path fill="none" stroke="midnightblue" d="M20.7376,-266.521C23.7093,-301.715 36.5023,-427.361 74,-523 91.4025,-567.386 123.265,-613.731 141.408,-638.275"/>
<polygon fill="midnightblue" stroke="midnightblue" points="138.618,-640.389 147.42,-646.287 144.218,-636.188 138.618,-640.389"/>
</g>
<!-- Node28 -->
<g id="node26" class="node"><title>Node28</title>
<g id="a_node26"><a xlink:href="$a00077.html#a1c12a8da8ea4064302668e0ce94ad462" xlink:title="gk_graph_Free">
<polygon fill="white" stroke="black" points="114,-190.5 114,-209.5 198,-209.5 198,-190.5 114,-190.5"/>
<text text-anchor="middle" x="156" y="-197.5" font-family="Helvetica,sans-Serif" font-size="10.00">gk_graph_Free</text>
</a>
</g>
</g>
<!-- Node3&#45;&gt;Node28 -->
<g id="edge38" class="edge"><title>Node3&#45;&gt;Node28</title>
<path fill="none" stroke="midnightblue" d="M30.8132,-247.486C41.2011,-238.831 57.6842,-226.322 74,-219 83.2906,-214.831 93.6072,-211.517 103.68,-208.904"/>
<polygon fill="midnightblue" stroke="midnightblue" points="104.717,-212.254 113.625,-206.518 103.084,-205.448 104.717,-212.254"/>
</g>
<!-- Node30 -->
<g id="node28" class="node"><title>Node30</title>
<g id="a_node28"><a xlink:href="$a00077.html#ab06073efcea470e57620d447548b2aca" xlink:title="gk_graph_ComputeBestFOrdering">
<polygon fill="white" stroke="black" points="274.5,-380.5 274.5,-399.5 443.5,-399.5 443.5,-380.5 274.5,-380.5"/>
<text text-anchor="middle" x="359" y="-387.5" font-family="Helvetica,sans-Serif" font-size="10.00">gk_graph_ComputeBestFOrdering</text>
</a>
</g>
</g>
<!-- Node3&#45;&gt;Node30 -->
<g id="edge42" class="edge"><title>Node3&#45;&gt;Node30</title>
<path fill="none" stroke="midnightblue" d="M30.7539,-266.808C41.0999,-275.723 57.5547,-288.583 74,-296 142.114,-326.72 173.05,-296.057 238,-333 258.222,-344.502 253.781,-359.492 274,-371 277.906,-373.223 282.054,-375.187 286.332,-376.92"/>
<polygon fill="midnightblue" stroke="midnightblue" points="285.268,-380.257 295.862,-380.36 287.644,-373.673 285.268,-380.257"/>
</g>
<!-- Node31 -->
<g id="node29" class="node"><title>Node31</title>
<g id="a_node29"><a xlink:href="$a00149.html#a1a7121f82ee758732f18aedf847fe88a" xlink:title="reorder_centroid">
<polygon fill="white" stroke="black" points="314,-342.5 314,-361.5 404,-361.5 404,-342.5 314,-342.5"/>
<text text-anchor="middle" x="359" y="-349.5" font-family="Helvetica,sans-Serif" font-size="10.00">reorder_centroid</text>
</a>
</g>
</g>
<!-- Node3&#45;&gt;Node31 -->
<g id="edge45" class="edge"><title>Node3&#45;&gt;Node31</title>
<path fill="none" stroke="midnightblue" d="M38.1256,-259.237C75.916,-264.191 165.624,-277.466 238,-300 270.582,-310.144 306.267,-326.3 330.182,-337.912"/>
<polygon fill="midnightblue" stroke="midnightblue" points="328.84,-341.153 339.358,-342.426 331.929,-334.871 328.84,-341.153"/>
</g>
<!-- Node33 -->
<g id="node31" class="node"><title>Node33</title>
<g id="a_node31"><a xlink:href="$a00149.html#a702976a4c55992ddbfc1918ec1b70943" xlink:title="print_final_info">
<polygon fill="white" stroke="black" points="115,-19.5 115,-38.5 197,-38.5 197,-19.5 115,-19.5"/>
<text text-anchor="middle" x="156" y="-26.5" font-family="Helvetica,sans-Serif" font-size="10.00">print_final_info</text>
</a>
</g>
</g>
<!-- Node3&#45;&gt;Node33 -->
<g id="edge50" class="edge"><title>Node3&#45;&gt;Node33</title>
<path fill="none" stroke="midnightblue" d="M21.1546,-247.473C25.8298,-210.458 44.5251,-76.8208 74,-48 82.3072,-39.8771 93.3909,-34.983 104.686,-32.0906"/>
<polygon fill="midnightblue" stroke="midnightblue" points="105.522,-35.4918 114.602,-30.0332 104.1,-28.6378 105.522,-35.4918"/>
</g>
<!-- Node5 -->
<g id="node3" class="node"><title>Node5</title>
<g id="a_node3"><a xlink:href="$a00077.html#aba6f76f5c67b9b7e9c2e45988d3d3e9d" xlink:title="gk_malloc">
<polygon fill="white" stroke="black" points="488,-722.5 488,-741.5 550,-741.5 550,-722.5 488,-722.5"/>
<text text-anchor="middle" x="519" y="-729.5" font-family="Helvetica,sans-Serif" font-size="10.00">gk_malloc</text>
</a>
</g>
</g>
<!-- Node4&#45;&gt;Node5 -->
<g id="edge2" class="edge"><title>Node4&#45;&gt;Node5</title>
<path fill="none" stroke="midnightblue" d="M197.013,-732C266.334,-732 408.003,-732 477.596,-732"/>
<polygon fill="midnightblue" stroke="midnightblue" points="477.724,-735.5 487.724,-732 477.724,-728.5 477.724,-735.5"/>
</g>
<!-- Node10 -->
<g id="node8" class="node"><title>Node10</title>
<g id="a_node8"><a xlink:href="$a00038.html#abb224612ca0aae2d39bd87f6146bd67d" xlink:title="Parse command&#45;line arguments with only long options. ">
<polygon fill="white" stroke="black" points="304.5,-798.5 304.5,-817.5 413.5,-817.5 413.5,-798.5 304.5,-798.5"/>
<text text-anchor="middle" x="359" y="-805.5" font-family="Helvetica,sans-Serif" font-size="10.00">gk_getopt_long_only</text>
</a>
</g>
</g>
<!-- Node4&#45;&gt;Node10 -->
<g id="edge8" class="edge"><title>Node4&#45;&gt;Node10</title>
<path fill="none" stroke="midnightblue" d="M176.527,-741.692C199.48,-752.844 238.898,-771.256 274,-784 285.695,-788.246 298.52,-792.235 310.55,-795.696"/>
<polygon fill="midnightblue" stroke="midnightblue" points="309.851,-799.135 320.426,-798.473 311.746,-792.397 309.851,-799.135"/>
</g>
<!-- Node6 -->
<g id="node4" class="node"><title>Node6</title>
<g id="a_node4"><a xlink:href="$a01017.html#a2e311a777ffe9c80e405efa7cd2757be" xlink:title="fprintf">
<polygon fill="white" stroke="black" points="758,-627.5 758,-646.5 800,-646.5 800,-627.5 758,-627.5"/>
<text text-anchor="middle" x="779" y="-634.5" font-family="Helvetica,sans-Serif" font-size="10.00">fprintf</text>
</a>
</g>
</g>
<!-- Node5&#45;&gt;Node6 -->
<g id="edge3" class="edge"><title>Node5&#45;&gt;Node6</title>
<path fill="none" stroke="midnightblue" d="M536.704,-722.342C543.495,-718.189 551.305,-713.118 558,-708 575.244,-694.819 574.676,-684.884 594,-675 643.823,-649.516 709.506,-641.122 747.414,-638.358"/>
<polygon fill="midnightblue" stroke="midnightblue" points="748.031,-641.825 757.786,-637.693 747.583,-634.84 748.031,-641.825"/>
</g>
<!-- Node7 -->
<g id="node5" class="node"><title>Node7</title>
<g id="a_node5"><a xlink:href="$a00110.html#ad2327b94227019b6753b6b09400c0522" xlink:title="gk_GetCurMemoryUsed">
<polygon fill="white" stroke="black" points="596,-722.5 596,-741.5 720,-741.5 720,-722.5 596,-722.5"/>
<text text-anchor="middle" x="658" y="-729.5" font-family="Helvetica,sans-Serif" font-size="10.00">gk_GetCurMemoryUsed</text>
</a>
</g>
</g>
<!-- Node5&#45;&gt;Node7 -->
<g id="edge4" class="edge"><title>Node5&#45;&gt;Node7</title>
<path fill="none" stroke="midnightblue" d="M550.065,-732C560.693,-732 573.146,-732 585.724,-732"/>
<polygon fill="midnightblue" stroke="midnightblue" points="585.806,-735.5 595.806,-732 585.805,-728.5 585.806,-735.5"/>
</g>
<!-- Node8 -->
<g id="node6" class="node"><title>Node8</title>
<g id="a_node6"><a xlink:href="$a00110.html#a656fd5266ae12a96e53125486f8fea52" xlink:title="gk_GetMaxMemoryUsed">
<polygon fill="white" stroke="black" points="594.5,-684.5 594.5,-703.5 721.5,-703.5 721.5,-684.5 594.5,-684.5"/>
<text text-anchor="middle" x="658" y="-691.5" font-family="Helvetica,sans-Serif" font-size="10.00">gk_GetMaxMemoryUsed</text>
</a>
</g>
</g>
<!-- Node5&#45;&gt;Node8 -->
<g id="edge5" class="edge"><title>Node5&#45;&gt;Node8</title>
<path fill="none" stroke="midnightblue" d="M550.065,-723.661C568.477,-718.554 592.366,-711.928 612.893,-706.234"/>
<polygon fill="midnightblue" stroke="midnightblue" points="613.96,-709.57 622.661,-703.525 612.089,-702.825 613.96,-709.57"/>
</g>
<!-- Node9 -->
<g id="node7" class="node"><title>Node9</title>
<g id="a_node7"><a xlink:href="$a00026.html#a4c320c13bcdc9967613253ef4c73f59f" xlink:title="gk_errexit">
<polygon fill="white" stroke="black" points="628,-608.5 628,-627.5 688,-627.5 688,-608.5 628,-608.5"/>
<text text-anchor="middle" x="658" y="-615.5" font-family="Helvetica,sans-Serif" font-size="10.00">gk_errexit</text>
</a>
</g>
</g>
<!-- Node5&#45;&gt;Node9 -->
<g id="edge6" class="edge"><title>Node5&#45;&gt;Node9</title>
<path fill="none" stroke="midnightblue" d="M539.188,-722.465C545.696,-718.598 552.662,-713.691 558,-708 580.859,-683.63 568.829,-663.975 594,-642 600.919,-635.96 609.515,-631.368 618.11,-627.903"/>
<polygon fill="midnightblue" stroke="midnightblue" points="619.494,-631.125 627.725,-624.454 617.131,-624.536 619.494,-631.125"/>
</g>
<!-- Node9&#45;&gt;Node6 -->
<g id="edge7" class="edge"><title>Node9&#45;&gt;Node6</title>
<path fill="none" stroke="midnightblue" d="M688.111,-622.648C706.172,-625.532 729.339,-629.231 747.631,-632.151"/>
<polygon fill="midnightblue" stroke="midnightblue" points="747.335,-635.648 757.762,-633.769 748.439,-628.736 747.335,-635.648"/>
</g>
<!-- Node11&#45;&gt;Node9 -->
<g id="edge11" class="edge"><title>Node11&#45;&gt;Node9</title>
<path fill="none" stroke="midnightblue" d="M171.334,-494.328C192.626,-480.607 234.37,-456.14 274,-447 396.993,-418.634 448.651,-383.954 558,-447 565.513,-451.332 622.945,-555.547 646.732,-599.121"/>
<polygon fill="midnightblue" stroke="midnightblue" points="643.78,-601.018 651.639,-608.124 649.926,-597.668 643.78,-601.018"/>
</g>
<!-- Node12 -->
<g id="node10" class="node"><title>Node12</title>
<g id="a_node10"><a xlink:href="$a00035.html#a627221a374552b5b6659d855b7446187" xlink:title="gk_fexists">
<polygon fill="white" stroke="black" points="328.5,-494.5 328.5,-513.5 389.5,-513.5 389.5,-494.5 328.5,-494.5"/>
<text text-anchor="middle" x="359" y="-501.5" font-family="Helvetica,sans-Serif" font-size="10.00">gk_fexists</text>
</a>
</g>
</g>
<!-- Node11&#45;&gt;Node12 -->
<g id="edge10" class="edge"><title>Node11&#45;&gt;Node12</title>
<path fill="none" stroke="midnightblue" d="M200.12,-504C235.14,-504 284.139,-504 318.227,-504"/>
<polygon fill="midnightblue" stroke="midnightblue" points="318.295,-507.5 328.295,-504 318.295,-500.5 318.295,-507.5"/>
</g>
<!-- Node13 -->
<g id="node11" class="node"><title>Node13</title>
<g id="a_node11"><a xlink:href="$a00077.html#ab2b996e10c5bccb30204d81804adfd24" xlink:title="gk_fopen">
<polygon fill="white" stroke="black" points="330,-570.5 330,-589.5 388,-589.5 388,-570.5 330,-570.5"/>
<text text-anchor="middle" x="359" y="-577.5" font-family="Helvetica,sans-Serif" font-size="10.00">gk_fopen</text>
</a>
</g>
</g>
<!-- Node11&#45;&gt;Node13 -->
<g id="edge12" class="edge"><title>Node11&#45;&gt;Node13</title>
<path fill="none" stroke="midnightblue" d="M176.527,-513.692C199.48,-524.844 238.898,-543.256 274,-556 288.827,-561.383 305.47,-566.353 320.007,-570.358"/>
<polygon fill="midnightblue" stroke="midnightblue" points="319.12,-573.743 329.686,-572.969 320.943,-566.985 319.12,-573.743"/>
</g>
<!-- Node14 -->
<g id="node12" class="node"><title>Node14</title>
<g id="a_node12"><a xlink:href="$a00575.html#ae6aab5c308faac0fc539cc9c6da9fbd0" xlink:title="sprintf">
<polygon fill="white" stroke="black" points="497,-551.5 497,-570.5 541,-570.5 541,-551.5 497,-551.5"/>
<text text-anchor="middle" x="519" y="-558.5" font-family="Helvetica,sans-Serif" font-size="10.00">sprintf</text>
</a>
</g>
</g>
<!-- Node11&#45;&gt;Node14 -->
<g id="edge19" class="edge"><title>Node11&#45;&gt;Node14</title>
<path fill="none" stroke="midnightblue" d="M200.053,-511.06C222.153,-514.667 249.511,-519.105 274,-523 350.399,-535.152 440.323,-549.053 486.748,-556.199"/>
<polygon fill="midnightblue" stroke="midnightblue" points="486.362,-559.681 496.778,-557.742 487.427,-552.762 486.362,-559.681"/>
</g>
<!-- Node16 -->
<g id="node14" class="node"><title>Node16</title>
<g id="a_node14"><a xlink:href="$a00077.html#ad8263f64108434d7ebab9799b5ab9632" xlink:title="gk_getline">
<polygon fill="white" stroke="black" points="328,-608.5 328,-627.5 390,-627.5 390,-608.5 328,-608.5"/>
<text text-anchor="middle" x="359" y="-615.5" font-family="Helvetica,sans-Serif" font-size="10.00">gk_getline</text>
</a>
</g>
</g>
<!-- Node11&#45;&gt;Node16 -->
<g id="edge16" class="edge"><title>Node11&#45;&gt;Node16</title>
<path fill="none" stroke="midnightblue" d="M165.667,-513.516C183.794,-532.808 227.871,-576.591 274,-599 287.528,-605.572 303.393,-609.912 317.67,-612.761"/>
<polygon fill="midnightblue" stroke="midnightblue" points="317.266,-616.244 327.73,-614.582 318.513,-609.356 317.266,-616.244"/>
</g>
<!-- Node18 -->
<g id="node16" class="node"><title>Node18</title>
<g id="a_node16"><a xlink:href="$a00849.html#a0d092a371d797437de53ae1a64bd78f4" xlink:title="gk_graph_Create">
<polygon fill="white" stroke="black" points="312,-456.5 312,-475.5 406,-475.5 406,-456.5 312,-456.5"/>
<text text-anchor="middle" x="359" y="-463.5" font-family="Helvetica,sans-Serif" font-size="10.00">gk_graph_Create</text>
</a>
</g>
</g>
<!-- Node11&#45;&gt;Node18 -->
<g id="edge20" class="edge"><title>Node11&#45;&gt;Node18</title>
<path fill="none" stroke="midnightblue" d="M200.12,-495.848C229.784,-490.24 269.48,-482.735 301.646,-476.654"/>
<polygon fill="midnightblue" stroke="midnightblue" points="302.627,-480.031 311.803,-474.734 301.327,-473.152 302.627,-480.031"/>
</g>
<!-- Node20 -->
<g id="node18" class="node"><title>Node20</title>
<g id="a_node18"><a xlink:href="$a00077.html#a0fd03cab5187904b005485109d9fa2b5" xlink:title="gk_fclose">
<polygon fill="white" stroke="black" points="329.5,-646.5 329.5,-665.5 388.5,-665.5 388.5,-646.5 329.5,-646.5"/>
<text text-anchor="middle" x="359" y="-653.5" font-family="Helvetica,sans-Serif" font-size="10.00">gk_fclose</text>
</a>
</g>
</g>
<!-- Node11&#45;&gt;Node20 -->
<g id="edge23" class="edge"><title>Node11&#45;&gt;Node20</title>
<path fill="none" stroke="midnightblue" d="M162.412,-513.537C176.962,-538.244 219.529,-604.653 274,-637 287.579,-645.064 304.252,-649.708 319.155,-652.381"/>
<polygon fill="midnightblue" stroke="midnightblue" points="318.71,-655.854 329.13,-653.935 319.788,-648.938 318.71,-655.854"/>
</g>
<!-- Node11&#45;&gt;Node22 -->
<g id="edge25" class="edge"><title>Node11&#45;&gt;Node22</title>
<path fill="none" stroke="midnightblue" d="M162.316,-494.369C180.635,-461.517 241.773,-354.696 274,-333 338.143,-289.818 371.355,-322.49 444,-296 461.293,-289.694 479.602,-280.072 493.682,-271.963"/>
<polygon fill="midnightblue" stroke="midnightblue" points="495.854,-274.746 502.69,-266.651 492.298,-268.716 495.854,-274.746"/>
</g>
<!-- Node13&#45;&gt;Node14 -->
<g id="edge13" class="edge"><title>Node13&#45;&gt;Node14</title>
<path fill="none" stroke="midnightblue" d="M388.247,-576.603C415.795,-573.29 457.62,-568.261 486.293,-564.813"/>
<polygon fill="midnightblue" stroke="midnightblue" points="487.07,-568.245 496.581,-563.576 486.235,-561.295 487.07,-568.245"/>
</g>
<!-- Node15 -->
<g id="node13" class="node"><title>Node15</title>
<g id="a_node13"><a xlink:href="$a00026.html#a56d0f2cc40cd8633a784582d6200d8b5" xlink:title="errexit">
<polygon fill="white" stroke="black" points="497,-342.5 497,-361.5 541,-361.5 541,-342.5 497,-342.5"/>
<text text-anchor="middle" x="519" y="-349.5" font-family="Helvetica,sans-Serif" font-size="10.00">errexit</text>
</a>
</g>
</g>
<!-- Node13&#45;&gt;Node15 -->
<g id="edge14" class="edge"><title>Node13&#45;&gt;Node15</title>
<path fill="none" stroke="midnightblue" d="M380.413,-570.397C399.11,-560.711 426.468,-544.178 444,-523 454.317,-510.538 493.697,-413.134 510.419,-371.15"/>
<polygon fill="midnightblue" stroke="midnightblue" points="513.711,-372.341 514.15,-361.756 507.206,-369.757 513.711,-372.341"/>
</g>
<!-- Node15&#45;&gt;Node6 -->
<g id="edge15" class="edge"><title>Node15&#45;&gt;Node6</title>
<path fill="none" stroke="midnightblue" d="M533.527,-361.686C541.025,-367.294 550.35,-374.676 558,-382 643.564,-463.916 731.48,-575.877 764.441,-619.03"/>
<polygon fill="midnightblue" stroke="midnightblue" points="761.781,-621.315 770.619,-627.158 767.354,-617.079 761.781,-621.315"/>
</g>
<!-- Node16&#45;&gt;Node5 -->
<g id="edge17" class="edge"><title>Node16&#45;&gt;Node5</title>
<path fill="none" stroke="midnightblue" d="M390.281,-619.858C407.171,-622.066 427.97,-626.821 444,-637 459.728,-646.987 489.425,-689.115 506.016,-713.79"/>
<polygon fill="midnightblue" stroke="midnightblue" points="503.22,-715.906 511.677,-722.289 509.046,-712.026 503.22,-715.906"/>
</g>
<!-- Node17 -->
<g id="node15" class="node"><title>Node17</title>
<g id="a_node15"><a xlink:href="$a00077.html#ab76a07ccd25288dd9acc99f5f24a7600" xlink:title="gk_realloc">
<polygon fill="white" stroke="black" points="488,-608.5 488,-627.5 550,-627.5 550,-608.5 488,-608.5"/>
<text text-anchor="middle" x="519" y="-615.5" font-family="Helvetica,sans-Serif" font-size="10.00">gk_realloc</text>
</a>
</g>
</g>
<!-- Node16&#45;&gt;Node17 -->
<g id="edge18" class="edge"><title>Node16&#45;&gt;Node17</title>
<path fill="none" stroke="midnightblue" d="M390.09,-618C414.94,-618 450.435,-618 477.732,-618"/>
<polygon fill="midnightblue" stroke="midnightblue" points="477.753,-621.5 487.753,-618 477.753,-614.5 477.753,-621.5"/>
</g>
<!-- Node18&#45;&gt;Node5 -->
<g id="edge21" class="edge"><title>Node18&#45;&gt;Node5</title>
<path fill="none" stroke="midnightblue" d="M406.176,-466.967C420.023,-469.53 434.134,-474.781 444,-485 503.695,-546.834 447.513,-595.43 480,-675 485.76,-689.108 495.273,-703.372 503.339,-714.102"/>
<polygon fill="midnightblue" stroke="midnightblue" points="500.75,-716.472 509.661,-722.203 506.268,-712.166 500.75,-716.472"/>
</g>
<!-- Node19 -->
<g id="node17" class="node"><title>Node19</title>
<g id="a_node17"><a xlink:href="$a00849.html#ab017e0e6f2436f3ad24ea01d8b2c588c" xlink:title="gk_graph_Init">
<polygon fill="white" stroke="black" points="480.5,-456.5 480.5,-475.5 557.5,-475.5 557.5,-456.5 480.5,-456.5"/>
<text text-anchor="middle" x="519" y="-463.5" font-family="Helvetica,sans-Serif" font-size="10.00">gk_graph_Init</text>
</a>
</g>
</g>
<!-- Node18&#45;&gt;Node19 -->
<g id="edge22" class="edge"><title>Node18&#45;&gt;Node19</title>
<path fill="none" stroke="midnightblue" d="M406.125,-466C426.306,-466 449.972,-466 470.326,-466"/>
<polygon fill="midnightblue" stroke="midnightblue" points="470.327,-469.5 480.327,-466 470.327,-462.5 470.327,-469.5"/>
</g>
<!-- Node21 -->
<g id="node19" class="node"><title>Node21</title>
<g id="a_node19"><a xlink:href="$a01017.html#a355ed4cdac2a27aa04a6689ac2d7e86e" xlink:title="fclose">
<polygon fill="white" stroke="black" points="497.5,-646.5 497.5,-665.5 540.5,-665.5 540.5,-646.5 497.5,-646.5"/>
<text text-anchor="middle" x="519" y="-653.5" font-family="Helvetica,sans-Serif" font-size="10.00">fclose</text>
</a>
</g>
</g>
<!-- Node20&#45;&gt;Node21 -->
<g id="edge24" class="edge"><title>Node20&#45;&gt;Node21</title>
<path fill="none" stroke="midnightblue" d="M388.613,-656C416.369,-656 458.369,-656 486.931,-656"/>
<polygon fill="midnightblue" stroke="midnightblue" points="487.161,-659.5 497.161,-656 487.161,-652.5 487.161,-659.5"/>
</g>
<!-- Node25&#45;&gt;Node22 -->
<g id="edge29" class="edge"><title>Node25&#45;&gt;Node22</title>
<path fill="none" stroke="midnightblue" d="M237.566,-242.24C314.678,-246.299 427.324,-252.228 483.488,-255.184"/>
<polygon fill="midnightblue" stroke="midnightblue" points="483.449,-258.686 493.619,-255.717 483.817,-251.696 483.449,-258.686"/>
</g>
<!-- Node26&#45;&gt;Node18 -->
<g id="edge31" class="edge"><title>Node26&#45;&gt;Node18</title>
<path fill="none" stroke="midnightblue" d="M173.791,-361.523C208.966,-381.473 290.581,-427.762 332.357,-451.456"/>
<polygon fill="midnightblue" stroke="midnightblue" points="330.69,-454.534 341.115,-456.423 334.143,-448.446 330.69,-454.534"/>
</g>
<!-- Node26&#45;&gt;Node22 -->
<g id="edge32" class="edge"><title>Node26&#45;&gt;Node22</title>
<path fill="none" stroke="midnightblue" d="M174.713,-342.484C197.188,-330.8 237.434,-311.164 274,-300 347.051,-277.696 436.156,-265.645 483.897,-260.355"/>
<polygon fill="midnightblue" stroke="midnightblue" points="484.426,-263.818 493.994,-259.269 483.677,-256.858 484.426,-263.818"/>
</g>
<!-- Node27&#45;&gt;Node6 -->
<g id="edge36" class="edge"><title>Node27&#45;&gt;Node6</title>
<path fill="none" stroke="midnightblue" d="M172.412,-665.604C242.143,-707.716 532.883,-868.803 722,-751 755.245,-730.291 769.316,-683.438 774.816,-656.69"/>
<polygon fill="midnightblue" stroke="midnightblue" points="778.306,-657.061 776.679,-646.592 771.422,-655.791 778.306,-657.061"/>
</g>
<!-- Node27&#45;&gt;Node9 -->
<g id="edge34" class="edge"><title>Node27&#45;&gt;Node9</title>
<path fill="none" stroke="midnightblue" d="M185.736,-665.605C253.769,-686.639 428.67,-730.629 558,-675 579.371,-665.808 574.199,-649.213 594,-637 601.338,-632.474 609.825,-628.965 618.145,-626.267"/>
<polygon fill="midnightblue" stroke="midnightblue" points="619.139,-629.623 627.757,-623.46 617.177,-622.904 619.139,-629.623"/>
</g>
<!-- Node27&#45;&gt;Node13 -->
<g id="edge35" class="edge"><title>Node27&#45;&gt;Node13</title>
<path fill="none" stroke="midnightblue" d="M173.523,-646.429C195.719,-633.931 236.695,-612.108 274,-599 288.643,-593.855 305.222,-589.758 319.76,-586.706"/>
<polygon fill="midnightblue" stroke="midnightblue" points="320.811,-590.065 329.928,-584.668 319.435,-583.202 320.811,-590.065"/>
</g>
<!-- Node27&#45;&gt;Node20 -->
<g id="edge37" class="edge"><title>Node27&#45;&gt;Node20</title>
<path fill="none" stroke="midnightblue" d="M199.627,-656C235.03,-656 284.968,-656 319.251,-656"/>
<polygon fill="midnightblue" stroke="midnightblue" points="319.355,-659.5 329.355,-656 319.355,-652.5 319.355,-659.5"/>
</g>
<!-- Node28&#45;&gt;Node22 -->
<g id="edge41" class="edge"><title>Node28&#45;&gt;Node22</title>
<path fill="none" stroke="midnightblue" d="M184.049,-190.437C236.563,-173.51 354.979,-143.429 444,-181 471.723,-192.7 494.203,-220.425 506.839,-238.953"/>
<polygon fill="midnightblue" stroke="midnightblue" points="503.979,-240.976 512.378,-247.434 509.84,-237.148 503.979,-240.976"/>
</g>
<!-- Node29 -->
<g id="node27" class="node"><title>Node29</title>
<g id="a_node27"><a xlink:href="$a00849.html#a00a7be5e2819fb9444360695e8d047d3" xlink:title="gk_graph_FreeContents">
<polygon fill="white" stroke="black" points="297,-190.5 297,-209.5 421,-209.5 421,-190.5 297,-190.5"/>
<text text-anchor="middle" x="359" y="-197.5" font-family="Helvetica,sans-Serif" font-size="10.00">gk_graph_FreeContents</text>
</a>
</g>
</g>
<!-- Node28&#45;&gt;Node29 -->
<g id="edge39" class="edge"><title>Node28&#45;&gt;Node29</title>
<path fill="none" stroke="midnightblue" d="M198.16,-200C223.537,-200 256.778,-200 286.37,-200"/>
<polygon fill="midnightblue" stroke="midnightblue" points="286.666,-203.5 296.666,-200 286.666,-196.5 286.666,-203.5"/>
</g>
<!-- Node29&#45;&gt;Node22 -->
<g id="edge40" class="edge"><title>Node29&#45;&gt;Node22</title>
<path fill="none" stroke="midnightblue" d="M397.578,-209.517C412.214,-213.54 429.034,-218.556 444,-224 459.211,-229.533 475.699,-236.76 489.243,-243.039"/>
<polygon fill="midnightblue" stroke="midnightblue" points="487.985,-246.316 498.524,-247.407 490.966,-239.982 487.985,-246.316"/>
</g>
<!-- Node30&#45;&gt;Node9 -->
<g id="edge43" class="edge"><title>Node30&#45;&gt;Node9</title>
<path fill="none" stroke="midnightblue" d="M443.546,-382.749C481.585,-383.553 525.304,-390.668 558,-414 566.302,-419.924 626.051,-549.968 648.503,-599.274"/>
<polygon fill="midnightblue" stroke="midnightblue" points="645.371,-600.842 652.696,-608.496 651.743,-597.945 645.371,-600.842"/>
</g>
<!-- Node30&#45;&gt;Node22 -->
<g id="edge44" class="edge"><title>Node30&#45;&gt;Node22</title>
<path fill="none" stroke="midnightblue" d="M428.103,-380.416C433.809,-377.925 439.216,-374.833 444,-371 473.169,-347.631 458.47,-325.551 480,-295 485.29,-287.493 492.131,-280.14 498.547,-273.934"/>
<polygon fill="midnightblue" stroke="midnightblue" points="501.337,-276.121 506.299,-266.759 496.582,-270.983 501.337,-276.121"/>
</g>
<!-- Node31&#45;&gt;Node15 -->
<g id="edge47" class="edge"><title>Node31&#45;&gt;Node15</title>
<path fill="none" stroke="midnightblue" d="M404.012,-352C430.301,-352 463.067,-352 486.714,-352"/>
<polygon fill="midnightblue" stroke="midnightblue" points="486.881,-355.5 496.881,-352 486.881,-348.5 486.881,-355.5"/>
</g>
<!-- Node31&#45;&gt;Node22 -->
<g id="edge48" class="edge"><title>Node31&#45;&gt;Node22</title>
<path fill="none" stroke="midnightblue" d="M404.356,-343.63C417.65,-340.006 431.901,-334.951 444,-328 450.61,-324.202 481.496,-293.709 501.218,-273.938"/>
<polygon fill="midnightblue" stroke="midnightblue" points="503.827,-276.277 508.399,-266.719 498.865,-271.341 503.827,-276.277"/>
</g>
<!-- Node32 -->
<g id="node30" class="node"><title>Node32</title>
<g id="a_node30"><a xlink:href="$a00077.html#a1d741ae5e6fbe9aeedc02250d5f6fc83" xlink:title="gk_fkvsorti">
<polygon fill="white" stroke="black" points="487,-304.5 487,-323.5 551,-323.5 551,-304.5 487,-304.5"/>
<text text-anchor="middle" x="519" y="-311.5" font-family="Helvetica,sans-Serif" font-size="10.00">gk_fkvsorti</text>
</a>
</g>
</g>
<!-- Node31&#45;&gt;Node32 -->
<g id="edge46" class="edge"><title>Node31&#45;&gt;Node32</title>
<path fill="none" stroke="midnightblue" d="M399.87,-342.411C423.467,-336.736 453.296,-329.562 477.076,-323.843"/>
<polygon fill="midnightblue" stroke="midnightblue" points="477.957,-327.231 486.861,-321.489 476.32,-320.425 477.957,-327.231"/>
</g>
<!-- Node34 -->
<g id="node32" class="node"><title>Node34</title>
<g id="a_node32"><a xlink:href="$a00077.html#a656fd5266ae12a96e53125486f8fea52" xlink:title="gk_GetMaxMemoryUsed">
<polygon fill="white" stroke="black" points="295.5,-0.5 295.5,-19.5 422.5,-19.5 422.5,-0.5 295.5,-0.5"/>
<text text-anchor="middle" x="359" y="-7.5" font-family="Helvetica,sans-Serif" font-size="10.00">gk_GetMaxMemoryUsed</text>
</a>
</g>
</g>
<!-- Node33&#45;&gt;Node34 -->
<g id="edge51" class="edge"><title>Node33&#45;&gt;Node34</title>
<path fill="none" stroke="midnightblue" d="M197.192,-25.2007C222.3,-22.8273 255.377,-19.7007 285.001,-16.9004"/>
<polygon fill="midnightblue" stroke="midnightblue" points="285.69,-20.351 295.316,-15.9253 285.031,-13.382 285.69,-20.351"/>
</g>
<!-- Node35 -->
<g id="node33" class="node"><title>Node35</title>
<g id="a_node33"><a xlink:href="$a00077.html#ad2327b94227019b6753b6b09400c0522" xlink:title="gk_GetCurMemoryUsed">
<polygon fill="white" stroke="black" points="297,-38.5 297,-57.5 421,-57.5 421,-38.5 297,-38.5"/>
<text text-anchor="middle" x="359" y="-45.5" font-family="Helvetica,sans-Serif" font-size="10.00">gk_GetCurMemoryUsed</text>
</a>
</g>
</g>
<!-- Node33&#45;&gt;Node35 -->
<g id="edge52" class="edge"><title>Node33&#45;&gt;Node35</title>
<path fill="none" stroke="midnightblue" d="M197.192,-32.7993C222.822,-35.2219 256.754,-38.4295 286.842,-41.2736"/>
<polygon fill="midnightblue" stroke="midnightblue" points="286.595,-44.7658 296.88,-42.2225 287.254,-37.7969 286.595,-44.7658"/>
</g>
</g>
</svg>
