<?xml version="1.0" encoding="UTF-8" standalone="no"?>
<!DOCTYPE svg PUBLIC "-//W3C//DTD SVG 1.1//EN"
 "http://www.w3.org/Graphics/SVG/1.1/DTD/svg11.dtd">
<!-- Generated by graphviz version 2.36.0 (20140111.2315)
 -->
<!-- Title: inverse Pages: 1 -->
<svg width="142pt" height="66pt"
 viewBox="0.00 0.00 142.00 66.00" xmlns="http://www.w3.org/2000/svg" xmlns:xlink="http://www.w3.org/1999/xlink">
<g id="graph0" class="graph" transform="scale(1 1) rotate(0) translate(4 62)">
<title>inverse</title>
<polygon fill="white" stroke="none" points="-4,4 -4,-62 138,-62 138,4 -4,4"/>
<!-- Node122 -->
<g id="node1" class="node"><title>Node122</title>
<polygon fill="#bfbfbf" stroke="black" points="0.5,-19.5 0.5,-38.5 49.5,-38.5 49.5,-19.5 0.5,-19.5"/>
<text text-anchor="middle" x="25" y="-26.5" font-family="Helvetica,sans-Serif" font-size="10.00">inverse</text>
</g>
<!-- Node123 -->
<g id="node2" class="node"><title>Node123</title>
<g id="a_node2"><a xlink:href="a00221.html#a9ade98d71580bb70e0ddf663d30e4bb4" target="_top" xlink:title="dgetrf_">
<polygon fill="white" stroke="black" points="86,-38.5 86,-57.5 134,-57.5 134,-38.5 86,-38.5"/>
<text text-anchor="middle" x="110" y="-45.5" font-family="Helvetica,sans-Serif" font-size="10.00">dgetrf_</text>
</a>
</g>
</g>
<!-- Node122&#45;&gt;Node123 -->
<g id="edge1" class="edge"><title>Node122&#45;&gt;Node123</title>
<path fill="none" stroke="midnightblue" d="M49.5625,-34.3938C57.7609,-36.2706 67.1159,-38.4121 75.9394,-40.4319"/>
<polygon fill="midnightblue" stroke="midnightblue" points="75.4233,-43.9042 85.9522,-42.724 76.9854,-37.0807 75.4233,-43.9042"/>
</g>
<!-- Node124 -->
<g id="node3" class="node"><title>Node124</title>
<g id="a_node3"><a xlink:href="a00221.html#af83709f5dcd4b9fbff71c3623b64fa21" target="_top" xlink:title="dgetri_">
<polygon fill="white" stroke="black" points="86.5,-0.5 86.5,-19.5 133.5,-19.5 133.5,-0.5 86.5,-0.5"/>
<text text-anchor="middle" x="110" y="-7.5" font-family="Helvetica,sans-Serif" font-size="10.00">dgetri_</text>
</a>
</g>
</g>
<!-- Node122&#45;&gt;Node124 -->
<g id="edge2" class="edge"><title>Node122&#45;&gt;Node124</title>
<path fill="none" stroke="midnightblue" d="M49.5625,-23.6062C57.9197,-21.6931 67.4786,-19.5049 76.4514,-17.4509"/>
<polygon fill="midnightblue" stroke="midnightblue" points="77.2707,-20.8539 86.2376,-15.2107 75.7087,-14.0304 77.2707,-20.8539"/>
</g>
</g>
</svg>
