<?xml version="1.0" encoding="UTF-8" standalone="no"?>
<!DOCTYPE svg PUBLIC "-//W3C//DTD SVG 1.1//EN"
 "http://www.w3.org/Graphics/SVG/1.1/DTD/svg11.dtd">
<!-- Generated by graphviz version 2.36.0 (20140111.2315)
 -->
<!-- Title: CreateCoarseGraph Pages: 1 -->
<!--zoomable 102 -->
<svg id="main" version="1.1" xmlns="http://www.w3.org/2000/svg" xmlns:xlink="http://www.w3.org/1999/xlink" xml:space="preserve" onload="init(evt)">
<style type="text/css"><![CDATA[
.edge:hover path { stroke: red; }
.edge:hover polygon { stroke: red; fill: red; }
]]></style>
<script type="text/javascript"><![CDATA[
var edges = document.getElementsByTagName('g');
if (edges && edges.length) {
  for (var i=0;i<edges.length;i++) {
    if (edges[i].id.substr(0,4)=='edge') {
      edges[i].setAttribute('class','edge');
    }
  }
}
]]></script>
        <defs>
                <circle id="rim" cx="0" cy="0" r="7"/>
                <circle id="rim2" cx="0" cy="0" r="3.5"/>
                <g id="zoomPlus">
                        <use xlink:href="#rim" fill="#404040">
                                <set attributeName="fill" to="#808080" begin="zoomplus.mouseover" end="zoomplus.mouseout"/>
                        </use>
                        <path d="M-4,0h8M0,-4v8" fill="none" stroke="white" stroke-width="1.5" pointer-events="none"/>
                </g>
                <g id="zoomMin">
                        <use xlink:href="#rim" fill="#404040">
                                <set attributeName="fill" to="#808080" begin="zoomminus.mouseover" end="zoomminus.mouseout"/>
                        </use>
                        <path d="M-4,0h8" fill="none" stroke="white" stroke-width="1.5" pointer-events="none"/>
                </g>
                <g id="dirArrow">
                        <path fill="none" stroke="white" stroke-width="1.5" d="M0,-3.0v7 M-2.5,-0.5L0,-3.0L2.5,-0.5"/>
                </g>
               <g id="resetDef">
                       <use xlink:href="#rim2" fill="#404040">
                               <set attributeName="fill" to="#808080" begin="reset.mouseover" end="reset.mouseout"/>
                       </use>
               </g>
        </defs>

<script type="text/javascript">
var viewWidth = 1096;
var viewHeight = 102;
var sectionId = 'dynsection-5';
</script>
<script xlink:href="svgpan.js"/>
<svg id="graph" class="graph">
<g id="viewport">
<title>CreateCoarseGraph</title>
<polygon fill="white" stroke="none" points="-4,4 -4,-98 1092,-98 1092,4 -4,4"/>
<!-- Node39 -->
<g id="node1" class="node"><title>Node39</title>
<polygon fill="#bfbfbf" stroke="black" points="0.5,-47.5 0.5,-66.5 107.5,-66.5 107.5,-47.5 0.5,-47.5"/>
<text text-anchor="middle" x="54" y="-54.5" font-family="Helvetica,sans-Serif" font-size="10.00">CreateCoarseGraph</text>
</g>
<!-- Node40 -->
<g id="node2" class="node"><title>Node40</title>
<g id="a_node2"><a xlink:href="a00948.html#a892d2ea16d613abc2276ad5fc6999724" target="_top" xlink:title="Match_RM">
<polygon fill="white" stroke="black" points="150.5,-66.5 150.5,-85.5 215.5,-85.5 215.5,-66.5 150.5,-66.5"/>
<text text-anchor="middle" x="183" y="-73.5" font-family="Helvetica,sans-Serif" font-size="10.00">Match_RM</text>
</a>
</g>
</g>
<!-- Node39&#45;&gt;Node40 -->
<g id="edge1" class="edge"><title>Node39&#45;&gt;Node40</title>
<path fill="none" stroke="midnightblue" d="M117.658,-66.374C128.977,-68.0674 140.331,-69.7661 150.283,-71.2549"/>
<polygon fill="midnightblue" stroke="midnightblue" points="118.164,-62.9109 107.756,-64.8926 117.128,-69.8338 118.164,-62.9109"/>
</g>
<!-- Node49 -->
<g id="node11" class="node"><title>Node49</title>
<g id="a_node11"><a xlink:href="a00948.html#af3ec72f3170ccdca06d8ad018d86cc58" target="_top" xlink:title="Match_SHEM">
<polygon fill="white" stroke="black" points="144,-28.5 144,-47.5 222,-47.5 222,-28.5 144,-28.5"/>
<text text-anchor="middle" x="183" y="-35.5" font-family="Helvetica,sans-Serif" font-size="10.00">Match_SHEM</text>
</a>
</g>
</g>
<!-- Node39&#45;&gt;Node49 -->
<g id="edge13" class="edge"><title>Node39&#45;&gt;Node49</title>
<path fill="none" stroke="midnightblue" d="M117.79,-47.6062C126.718,-46.2705 135.665,-44.932 143.924,-43.6964"/>
<polygon fill="midnightblue" stroke="midnightblue" points="117.128,-44.1662 107.756,-49.1074 118.164,-51.0891 117.128,-44.1662"/>
</g>
<!-- Node41 -->
<g id="node3" class="node"><title>Node41</title>
<g id="a_node3"><a xlink:href="a00948.html#adeb2c7c9bffbeca00fcc97854fb88ada" target="_top" xlink:title="CoarsenGraph">
<polygon fill="white" stroke="black" points="275,-66.5 275,-85.5 357,-85.5 357,-66.5 275,-66.5"/>
<text text-anchor="middle" x="316" y="-73.5" font-family="Helvetica,sans-Serif" font-size="10.00">CoarsenGraph</text>
</a>
</g>
</g>
<!-- Node40&#45;&gt;Node41 -->
<g id="edge2" class="edge"><title>Node40&#45;&gt;Node41</title>
<path fill="none" stroke="midnightblue" d="M226.106,-76C241.662,-76 259.246,-76 274.644,-76"/>
<polygon fill="midnightblue" stroke="midnightblue" points="225.711,-72.5001 215.711,-76 225.711,-79.5001 225.711,-72.5001"/>
</g>
<!-- Node42 -->
<g id="node4" class="node"><title>Node42</title>
<g id="a_node4"><a xlink:href="a00948.html#afa83320e3b311e0feef90d0bf4303716" target="_top" xlink:title="CoarsenGraphNlevels">
<polygon fill="white" stroke="black" points="258.5,-28.5 258.5,-47.5 373.5,-47.5 373.5,-28.5 258.5,-28.5"/>
<text text-anchor="middle" x="316" y="-35.5" font-family="Helvetica,sans-Serif" font-size="10.00">CoarsenGraphNlevels</text>
</a>
</g>
</g>
<!-- Node40&#45;&gt;Node42 -->
<g id="edge3" class="edge"><title>Node40&#45;&gt;Node42</title>
<path fill="none" stroke="midnightblue" d="M225.539,-63.9505C243.844,-58.6406 265.045,-52.4907 282.213,-47.5109"/>
<polygon fill="midnightblue" stroke="midnightblue" points="224.34,-60.6538 215.711,-66.8013 226.291,-67.3767 224.34,-60.6538"/>
</g>
<!-- Node43 -->
<g id="node5" class="node"><title>Node43</title>
<g id="a_node5"><a xlink:href="a00948.html#ac3a0eaeefa34a3865a0be5bb70bd958f" target="_top" xlink:title="MlevelNodeBisectionL2">
<polygon fill="white" stroke="black" points="410.5,-28.5 410.5,-47.5 531.5,-47.5 531.5,-28.5 410.5,-28.5"/>
<text text-anchor="middle" x="471" y="-35.5" font-family="Helvetica,sans-Serif" font-size="10.00">MlevelNodeBisectionL2</text>
</a>
</g>
</g>
<!-- Node42&#45;&gt;Node43 -->
<g id="edge4" class="edge"><title>Node42&#45;&gt;Node43</title>
<path fill="none" stroke="midnightblue" d="M383.802,-38C392.641,-38 401.654,-38 410.361,-38"/>
<polygon fill="midnightblue" stroke="midnightblue" points="383.537,-34.5001 373.537,-38 383.537,-41.5001 383.537,-34.5001"/>
</g>
<!-- Node44 -->
<g id="node6" class="node"><title>Node44</title>
<g id="a_node6"><a xlink:href="a00948.html#a59c8030c5429e219a8535c2a11cef724" target="_top" xlink:title="MlevelNodeBisectionMultiple">
<polygon fill="white" stroke="black" points="568,-28.5 568,-47.5 712,-47.5 712,-28.5 568,-28.5"/>
<text text-anchor="middle" x="640" y="-35.5" font-family="Helvetica,sans-Serif" font-size="10.00">MlevelNodeBisectionMultiple</text>
</a>
</g>
</g>
<!-- Node43&#45;&gt;Node44 -->
<g id="edge5" class="edge"><title>Node43&#45;&gt;Node44</title>
<path fill="none" stroke="midnightblue" d="M541.828,-38C550.451,-38 559.275,-38 567.917,-38"/>
<polygon fill="midnightblue" stroke="midnightblue" points="541.819,-34.5001 531.819,-38 541.819,-41.5001 541.819,-34.5001"/>
</g>
<!-- Node45 -->
<g id="node7" class="node"><title>Node45</title>
<g id="a_node7"><a xlink:href="a00948.html#af853e9d8bbb2188f871fac436e631ed1" target="_top" xlink:title="MlevelNestedDissection">
<polygon fill="white" stroke="black" points="755.5,-56.5 755.5,-75.5 878.5,-75.5 878.5,-56.5 755.5,-56.5"/>
<text text-anchor="middle" x="817" y="-63.5" font-family="Helvetica,sans-Serif" font-size="10.00">MlevelNestedDissection</text>
</a>
</g>
</g>
<!-- Node44&#45;&gt;Node45 -->
<g id="edge6" class="edge"><title>Node44&#45;&gt;Node45</title>
<path fill="none" stroke="midnightblue" d="M711.034,-49.2054C726.109,-51.6175 741.906,-54.1449 756.534,-56.4854"/>
<polygon fill="midnightblue" stroke="midnightblue" points="711.163,-45.6816 700.736,-47.5577 710.057,-52.5937 711.163,-45.6816"/>
</g>
<!-- Node48 -->
<g id="node10" class="node"><title>Node48</title>
<g id="a_node10"><a xlink:href="a00948.html#a3ef15d1ffff55a81b8486bee09239073" target="_top" xlink:title="MlevelNestedDissectionCC">
<polygon fill="white" stroke="black" points="748,-0.5 748,-19.5 886,-19.5 886,-0.5 748,-0.5"/>
<text text-anchor="middle" x="817" y="-7.5" font-family="Helvetica,sans-Serif" font-size="10.00">MlevelNestedDissectionCC</text>
</a>
</g>
</g>
<!-- Node44&#45;&gt;Node48 -->
<g id="edge10" class="edge"><title>Node44&#45;&gt;Node48</title>
<path fill="none" stroke="midnightblue" d="M711.034,-26.7946C726.109,-24.3825 741.906,-21.8551 756.534,-19.5146"/>
<polygon fill="midnightblue" stroke="midnightblue" points="710.057,-23.4063 700.736,-28.4423 711.163,-30.3184 710.057,-23.4063"/>
</g>
<!-- Node45&#45;&gt;Node45 -->
<g id="edge9" class="edge"><title>Node45&#45;&gt;Node45</title>
<path fill="none" stroke="midnightblue" d="M789.001,-84.6539C790.171,-89.9368 799.504,-94 817,-94 843.66,-94 851.367,-84.5653 840.119,-75.7571"/>
<polygon fill="midnightblue" stroke="midnightblue" points="792.14,-86.208 793.881,-75.7571 786.003,-82.8417 792.14,-86.208"/>
</g>
<!-- Node46 -->
<g id="node8" class="node"><title>Node46</title>
<g id="a_node8"><a xlink:href="a00936.html#a8304f0dd6d180587f73b0b70de3b01b7" target="_top" xlink:title="METIS_NodeND">
<polygon fill="white" stroke="black" points="922.5,-28.5 922.5,-47.5 1013.5,-47.5 1013.5,-28.5 922.5,-28.5"/>
<text text-anchor="middle" x="968" y="-35.5" font-family="Helvetica,sans-Serif" font-size="10.00">METIS_NodeND</text>
</a>
</g>
</g>
<!-- Node45&#45;&gt;Node46 -->
<g id="edge7" class="edge"><title>Node45&#45;&gt;Node46</title>
<path fill="none" stroke="midnightblue" d="M878.802,-54.574C893.371,-51.8363 908.664,-48.9625 922.347,-46.3911"/>
<polygon fill="midnightblue" stroke="midnightblue" points="878.042,-51.1556 868.861,-56.4423 879.335,-58.0351 878.042,-51.1556"/>
</g>
<!-- Node47 -->
<g id="node9" class="node"><title>Node47</title>
<g id="a_node9"><a xlink:href="a00326.html#a0ddf1224851353fc92bfbff6f499fa97" target="_top" xlink:title="main">
<polygon fill="white" stroke="black" points="1050,-28.5 1050,-47.5 1088,-47.5 1088,-28.5 1050,-28.5"/>
<text text-anchor="middle" x="1069" y="-35.5" font-family="Helvetica,sans-Serif" font-size="10.00">main</text>
</a>
</g>
</g>
<!-- Node46&#45;&gt;Node47 -->
<g id="edge8" class="edge"><title>Node46&#45;&gt;Node47</title>
<path fill="none" stroke="midnightblue" d="M1023.75,-38C1033.09,-38 1042.18,-38 1049.67,-38"/>
<polygon fill="midnightblue" stroke="midnightblue" points="1023.58,-34.5001 1013.58,-38 1023.58,-41.5001 1023.58,-34.5001"/>
</g>
<!-- Node48&#45;&gt;Node46 -->
<g id="edge11" class="edge"><title>Node48&#45;&gt;Node46</title>
<path fill="none" stroke="midnightblue" d="M878.802,-21.426C893.371,-24.1637 908.664,-27.0375 922.347,-29.6089"/>
<polygon fill="midnightblue" stroke="midnightblue" points="879.335,-17.9649 868.861,-19.5577 878.042,-24.8444 879.335,-17.9649"/>
</g>
<!-- Node48&#45;&gt;Node48 -->
<g id="edge12" class="edge"><title>Node48&#45;&gt;Node48</title>
<path fill="none" stroke="midnightblue" d="M789.001,-28.6539C790.171,-33.9368 799.504,-38 817,-38 843.66,-38 851.367,-28.5653 840.119,-19.7571"/>
<polygon fill="midnightblue" stroke="midnightblue" points="792.14,-30.208 793.881,-19.7571 786.003,-26.8417 792.14,-30.208"/>
</g>
<!-- Node49&#45;&gt;Node41 -->
<g id="edge14" class="edge"><title>Node49&#45;&gt;Node41</title>
<path fill="none" stroke="midnightblue" d="M226.715,-50.3906C244.655,-55.5945 265.2,-61.5541 281.954,-66.4141"/>
<polygon fill="midnightblue" stroke="midnightblue" points="227.636,-47.0136 217.057,-47.589 225.686,-53.7364 227.636,-47.0136"/>
</g>
<!-- Node49&#45;&gt;Node42 -->
<g id="edge15" class="edge"><title>Node49&#45;&gt;Node42</title>
<path fill="none" stroke="midnightblue" d="M232.356,-38C240.85,-38 249.757,-38 258.451,-38"/>
<polygon fill="midnightblue" stroke="midnightblue" points="232.243,-34.5001 222.243,-38 232.243,-41.5001 232.243,-34.5001"/>
</g>
</g>
</svg>
        <g id="navigator" transform="translate(0 0)" fill="#404254">
                <rect fill="#f2f5e9" fill-opacity="0.5" stroke="#606060" stroke-width=".5" x="0" y="0" width="60" height="60"/>
                <use id="zoomplus" xlink:href="#zoomPlus" x="17" y="9" onmousedown="handleZoom(evt,'in')"/>
                <use id="zoomminus" xlink:href="#zoomMin" x="42" y="9" onmousedown="handleZoom(evt,'out')"/>
                <use id="reset" xlink:href="#resetDef" x="30" y="36" onmousedown="handleReset()"/>
                <g id="arrowUp" xlink:href="#dirArrow" transform="translate(30 24)" onmousedown="handlePan(0,-1)">
                  <use xlink:href="#rim" fill="#404040">
                        <set attributeName="fill" to="#808080" begin="arrowUp.mouseover" end="arrowUp.mouseout"/>
                  </use>
                  <path fill="none" stroke="white" stroke-width="1.5" d="M0,-3.0v7 M-2.5,-0.5L0,-3.0L2.5,-0.5"/>
                </g>
                <g id="arrowRight" xlink:href="#dirArrow" transform="rotate(90) translate(36 -43)" onmousedown="handlePan(1,0)">
                  <use xlink:href="#rim" fill="#404040">
                        <set attributeName="fill" to="#808080" begin="arrowRight.mouseover" end="arrowRight.mouseout"/>
                  </use>
                  <path fill="none" stroke="white" stroke-width="1.5" d="M0,-3.0v7 M-2.5,-0.5L0,-3.0L2.5,-0.5"/>
                </g>
                <g id="arrowDown" xlink:href="#dirArrow" transform="rotate(180) translate(-30 -48)" onmousedown="handlePan(0,1)">
                  <use xlink:href="#rim" fill="#404040">
                        <set attributeName="fill" to="#808080" begin="arrowDown.mouseover" end="arrowDown.mouseout"/>
                  </use>
                  <path fill="none" stroke="white" stroke-width="1.5" d="M0,-3.0v7 M-2.5,-0.5L0,-3.0L2.5,-0.5"/>
                </g>
                <g id="arrowLeft" xlink:href="#dirArrow" transform="rotate(270) translate(-36 17)" onmousedown="handlePan(-1,0)">
                  <use xlink:href="#rim" fill="#404040">
                        <set attributeName="fill" to="#808080" begin="arrowLeft.mouseover" end="arrowLeft.mouseout"/>
                  </use>
                  <path fill="none" stroke="white" stroke-width="1.5" d="M0,-3.0v7 M-2.5,-0.5L0,-3.0L2.5,-0.5"/>
                </g>
        </g>
        <svg viewBox="0 0 15 15" width="100%" height="30px" preserveAspectRatio="xMaxYMin meet">
         <g id="arrow_out" transform="scale(0.3 0.3)">
          <a xlink:href="a00182_aac8820421b1c25698140c1b470c50e07_icgraph_org.svg" target="_base">
           <rect id="button" ry="5" rx="5" y="6" x="6" height="38" width="38"
                fill="#f2f5e9" fill-opacity="0.5" stroke="#606060" stroke-width="1.0"/>
           <path id="arrow"
             d="M 11.500037,31.436501 C 11.940474,20.09759 22.043105,11.32322 32.158766,21.979434 L 37.068811,17.246167 C 37.068811,17.246167 37.088388,32 37.088388,32 L 22.160133,31.978069 C 22.160133,31.978069 26.997745,27.140456 26.997745,27.140456 C 18.528582,18.264221 13.291696,25.230495 11.500037,31.436501 z"
             style="fill:#404040;"/>
          </a>
         </g>
        </svg>
</svg>
