<?xml version="1.0" encoding="UTF-8" standalone="no"?>
<!DOCTYPE svg PUBLIC "-//W3C//DTD SVG 1.1//EN"
 "http://www.w3.org/Graphics/SVG/1.1/DTD/svg11.dtd">
<!-- Generated by graphviz version 2.36.0 (20140111.2315)
 -->
<!-- Title: ArcSyn3sis/3rdParty/parmetis&#45;4.0.3/metis/GKlib/ms_inttypes.h Pages: 1 -->
<svg width="126pt" height="162pt"
 viewBox="0.00 0.00 126.00 162.00" xmlns="http://www.w3.org/2000/svg" xmlns:xlink="http://www.w3.org/1999/xlink">
<g id="graph0" class="graph" transform="scale(1 1) rotate(0) translate(4 158)">
<title>ArcSyn3sis/3rdParty/parmetis&#45;4.0.3/metis/GKlib/ms_inttypes.h</title>
<polygon fill="white" stroke="none" points="-4,4 -4,-158 122,-158 122,4 -4,4"/>
<!-- Node0 -->
<g id="node1" class="node"><title>Node0</title>
<polygon fill="#bfbfbf" stroke="black" points="3,-112.5 3,-153.5 113,-153.5 113,-112.5 3,-112.5"/>
<text text-anchor="start" x="11" y="-141.5" font-family="Helvetica,sans-Serif" font-size="10.00">ArcSyn3sis/3rdParty</text>
<text text-anchor="start" x="11" y="-130.5" font-family="Helvetica,sans-Serif" font-size="10.00">/parmetis&#45;4.0.3/metis</text>
<text text-anchor="middle" x="58" y="-119.5" font-family="Helvetica,sans-Serif" font-size="10.00">/GKlib/ms_inttypes.h</text>
</g>
<!-- Node1 -->
<g id="node2" class="node"><title>Node1</title>
<g id="a_node2"><a xlink:href="$a00119.html" xlink:title="ms_stdint.h">
<polygon fill="white" stroke="black" points="24,-56.5 24,-75.5 92,-75.5 92,-56.5 24,-56.5"/>
<text text-anchor="middle" x="58" y="-63.5" font-family="Helvetica,sans-Serif" font-size="10.00">ms_stdint.h</text>
</a>
</g>
</g>
<!-- Node0&#45;&gt;Node1 -->
<g id="edge1" class="edge"><title>Node0&#45;&gt;Node1</title>
<path fill="none" stroke="midnightblue" d="M58,-112.498C58,-104.065 58,-94.2351 58,-85.874"/>
<polygon fill="midnightblue" stroke="midnightblue" points="61.5001,-85.6525 58,-75.6525 54.5001,-85.6525 61.5001,-85.6525"/>
</g>
<!-- Node2 -->
<g id="node3" class="node"><title>Node2</title>
<polygon fill="white" stroke="#bfbfbf" points="0,-0.5 0,-19.5 48,-19.5 48,-0.5 0,-0.5"/>
<text text-anchor="middle" x="24" y="-7.5" font-family="Helvetica,sans-Serif" font-size="10.00">limits.h</text>
</g>
<!-- Node1&#45;&gt;Node2 -->
<g id="edge2" class="edge"><title>Node1&#45;&gt;Node2</title>
<path fill="none" stroke="midnightblue" d="M52.3856,-56.083C47.6326,-48.5341 40.6819,-37.4948 34.8484,-28.2298"/>
<polygon fill="midnightblue" stroke="midnightblue" points="37.7999,-26.3486 29.5099,-19.7511 31.8763,-30.0783 37.7999,-26.3486"/>
</g>
<!-- Node3 -->
<g id="node4" class="node"><title>Node3</title>
<polygon fill="white" stroke="#bfbfbf" points="66,-0.5 66,-19.5 118,-19.5 118,-0.5 66,-0.5"/>
<text text-anchor="middle" x="92" y="-7.5" font-family="Helvetica,sans-Serif" font-size="10.00">wchar.h</text>
</g>
<!-- Node1&#45;&gt;Node3 -->
<g id="edge3" class="edge"><title>Node1&#45;&gt;Node3</title>
<path fill="none" stroke="midnightblue" d="M63.6144,-56.083C68.3674,-48.5341 75.3181,-37.4948 81.1516,-28.2298"/>
<polygon fill="midnightblue" stroke="midnightblue" points="84.1237,-30.0783 86.4901,-19.7511 78.2001,-26.3486 84.1237,-30.0783"/>
</g>
</g>
</svg>
