<?xml version="1.0" encoding="UTF-8" standalone="no"?>
<!DOCTYPE svg PUBLIC "-//W3C//DTD SVG 1.1//EN"
 "http://www.w3.org/Graphics/SVG/1.1/DTD/svg11.dtd">
<!-- Generated by graphviz version 2.36.0 (20140111.2315)
 -->
<!-- Title: EliminateComponents Pages: 1 -->
<svg width="410pt" height="142pt"
 viewBox="0.00 0.00 410.00 142.00" xmlns="http://www.w3.org/2000/svg" xmlns:xlink="http://www.w3.org/1999/xlink">
<g id="graph0" class="graph" transform="scale(1 1) rotate(0) translate(4 138)">
<title>EliminateComponents</title>
<polygon fill="white" stroke="none" points="-4,4 -4,-138 406,-138 406,4 -4,4"/>
<!-- Node2 -->
<g id="node1" class="node"><title>Node2</title>
<polygon fill="#bfbfbf" stroke="black" points="0,-57.5 0,-76.5 114,-76.5 114,-57.5 0,-57.5"/>
<text text-anchor="middle" x="57" y="-64.5" font-family="Helvetica,sans-Serif" font-size="10.00">EliminateComponents</text>
</g>
<!-- Node3 -->
<g id="node2" class="node"><title>Node3</title>
<g id="a_node2"><a xlink:href="a00188.html#a9fe01ab71e17df2db81db0ce0376cc96" target="_top" xlink:title="FindPartitionInducedComponents">
<polygon fill="white" stroke="black" points="150.5,-114.5 150.5,-133.5 315.5,-133.5 315.5,-114.5 150.5,-114.5"/>
<text text-anchor="middle" x="233" y="-121.5" font-family="Helvetica,sans-Serif" font-size="10.00">FindPartitionInducedComponents</text>
</a>
</g>
</g>
<!-- Node2&#45;&gt;Node3 -->
<g id="edge1" class="edge"><title>Node2&#45;&gt;Node3</title>
<path fill="none" stroke="midnightblue" d="M78.4653,-76.591C96.8745,-84.9424 124.818,-96.9419 150,-105 158.003,-107.561 166.548,-109.93 174.987,-112.064"/>
<polygon fill="midnightblue" stroke="midnightblue" points="174.262,-115.49 184.807,-114.459 175.921,-108.689 174.262,-115.49"/>
</g>
<!-- Node5 -->
<g id="node4" class="node"><title>Node5</title>
<g id="a_node4"><a xlink:href="a00188.html#a59be93c110982dd4b4e918957804e3b7" target="_top" xlink:title="MoveGroupContigForCut">
<polygon fill="white" stroke="black" points="169,-76.5 169,-95.5 297,-95.5 297,-76.5 169,-76.5"/>
<text text-anchor="middle" x="233" y="-83.5" font-family="Helvetica,sans-Serif" font-size="10.00">MoveGroupContigForCut</text>
</a>
</g>
</g>
<!-- Node2&#45;&gt;Node5 -->
<g id="edge3" class="edge"><title>Node2&#45;&gt;Node5</title>
<path fill="none" stroke="midnightblue" d="M114.012,-73.1163C128.219,-74.6676 143.694,-76.3574 158.62,-77.9873"/>
<polygon fill="midnightblue" stroke="midnightblue" points="158.523,-81.4974 168.844,-79.1036 159.283,-74.5387 158.523,-81.4974"/>
</g>
<!-- Node6 -->
<g id="node5" class="node"><title>Node6</title>
<g id="a_node5"><a xlink:href="a00188.html#ac9671fbb0e67a5e8bee0d578ebcd0382" target="_top" xlink:title="MoveGroupContigForVol">
<polygon fill="white" stroke="black" points="169.5,-38.5 169.5,-57.5 296.5,-57.5 296.5,-38.5 169.5,-38.5"/>
<text text-anchor="middle" x="233" y="-45.5" font-family="Helvetica,sans-Serif" font-size="10.00">MoveGroupContigForVol</text>
</a>
</g>
</g>
<!-- Node2&#45;&gt;Node6 -->
<g id="edge4" class="edge"><title>Node2&#45;&gt;Node6</title>
<path fill="none" stroke="midnightblue" d="M114.012,-60.8837C128.381,-59.3148 144.046,-57.6042 159.129,-55.9572"/>
<polygon fill="midnightblue" stroke="midnightblue" points="159.894,-59.3946 169.455,-54.8297 159.134,-52.4359 159.894,-59.3946"/>
</g>
<!-- Node7 -->
<g id="node6" class="node"><title>Node7</title>
<g id="a_node6"><a xlink:href="a00026.html#a4c320c13bcdc9967613253ef4c73f59f" target="_top" xlink:title="gk_errexit">
<polygon fill="white" stroke="black" points="203,-0.5 203,-19.5 263,-19.5 263,-0.5 203,-0.5"/>
<text text-anchor="middle" x="233" y="-7.5" font-family="Helvetica,sans-Serif" font-size="10.00">gk_errexit</text>
</a>
</g>
</g>
<!-- Node2&#45;&gt;Node7 -->
<g id="edge5" class="edge"><title>Node2&#45;&gt;Node7</title>
<path fill="none" stroke="midnightblue" d="M78.4653,-57.409C96.8745,-49.0576 124.818,-37.0581 150,-29 163.753,-24.5992 179.106,-20.765 192.774,-17.7156"/>
<polygon fill="midnightblue" stroke="midnightblue" points="193.809,-21.073 202.844,-15.5404 192.331,-14.2308 193.809,-21.073"/>
</g>
<!-- Node4 -->
<g id="node3" class="node"><title>Node4</title>
<g id="a_node3"><a xlink:href="a00077.html#ac8df62c4e3d0910711a9874f9cc58884" target="_top" xlink:title="gk_free">
<polygon fill="white" stroke="black" points="352,-114.5 352,-133.5 402,-133.5 402,-114.5 352,-114.5"/>
<text text-anchor="middle" x="377" y="-121.5" font-family="Helvetica,sans-Serif" font-size="10.00">gk_free</text>
</a>
</g>
</g>
<!-- Node3&#45;&gt;Node4 -->
<g id="edge2" class="edge"><title>Node3&#45;&gt;Node4</title>
<path fill="none" stroke="midnightblue" d="M315.779,-124C324.953,-124 333.88,-124 341.931,-124"/>
<polygon fill="midnightblue" stroke="midnightblue" points="341.954,-127.5 351.954,-124 341.954,-120.5 341.954,-127.5"/>
</g>
<!-- Node8 -->
<g id="node7" class="node"><title>Node8</title>
<g id="a_node7"><a xlink:href="a01017.html#a2e311a777ffe9c80e405efa7cd2757be" target="_top" xlink:title="fprintf">
<polygon fill="white" stroke="black" points="356,-0.5 356,-19.5 398,-19.5 398,-0.5 356,-0.5"/>
<text text-anchor="middle" x="377" y="-7.5" font-family="Helvetica,sans-Serif" font-size="10.00">fprintf</text>
</a>
</g>
</g>
<!-- Node7&#45;&gt;Node8 -->
<g id="edge6" class="edge"><title>Node7&#45;&gt;Node8</title>
<path fill="none" stroke="midnightblue" d="M263.078,-10C287.11,-10 321.124,-10 345.531,-10"/>
<polygon fill="midnightblue" stroke="midnightblue" points="345.671,-13.5001 355.671,-10 345.671,-6.5001 345.671,-13.5001"/>
</g>
</g>
</svg>
