<?xml version="1.0" encoding="UTF-8" standalone="no"?>
<!DOCTYPE svg PUBLIC "-//W3C//DTD SVG 1.1//EN"
 "http://www.w3.org/Graphics/SVG/1.1/DTD/svg11.dtd">
<!-- Generated by graphviz version 2.36.0 (20140111.2315)
 -->
<!-- Title: Match_2HopAny Pages: 1 -->
<!--zoomable 102 -->
<svg id="main" version="1.1" xmlns="http://www.w3.org/2000/svg" xmlns:xlink="http://www.w3.org/1999/xlink" xml:space="preserve" onload="init(evt)">
<style type="text/css"><![CDATA[
.edge:hover path { stroke: red; }
.edge:hover polygon { stroke: red; fill: red; }
]]></style>
<script type="text/javascript"><![CDATA[
var edges = document.getElementsByTagName('g');
if (edges && edges.length) {
  for (var i=0;i<edges.length;i++) {
    if (edges[i].id.substr(0,4)=='edge') {
      edges[i].setAttribute('class','edge');
    }
  }
}
]]></script>
        <defs>
                <circle id="rim" cx="0" cy="0" r="7"/>
                <circle id="rim2" cx="0" cy="0" r="3.5"/>
                <g id="zoomPlus">
                        <use xlink:href="#rim" fill="#404040">
                                <set attributeName="fill" to="#808080" begin="zoomplus.mouseover" end="zoomplus.mouseout"/>
                        </use>
                        <path d="M-4,0h8M0,-4v8" fill="none" stroke="white" stroke-width="1.5" pointer-events="none"/>
                </g>
                <g id="zoomMin">
                        <use xlink:href="#rim" fill="#404040">
                                <set attributeName="fill" to="#808080" begin="zoomminus.mouseover" end="zoomminus.mouseout"/>
                        </use>
                        <path d="M-4,0h8" fill="none" stroke="white" stroke-width="1.5" pointer-events="none"/>
                </g>
                <g id="dirArrow">
                        <path fill="none" stroke="white" stroke-width="1.5" d="M0,-3.0v7 M-2.5,-0.5L0,-3.0L2.5,-0.5"/>
                </g>
               <g id="resetDef">
                       <use xlink:href="#rim2" fill="#404040">
                               <set attributeName="fill" to="#808080" begin="reset.mouseover" end="reset.mouseout"/>
                       </use>
               </g>
        </defs>

<script type="text/javascript">
var viewWidth = 1188;
var viewHeight = 102;
var sectionId = 'dynsection-12';
</script>
<script xlink:href="svgpan.js"/>
<svg id="graph" class="graph">
<g id="viewport">
<title>Match_2HopAny</title>
<polygon fill="white" stroke="none" points="-4,4 -4,-98 1184,-98 1184,4 -4,4"/>
<!-- Node97 -->
<g id="node1" class="node"><title>Node97</title>
<polygon fill="#bfbfbf" stroke="black" points="0,-47.5 0,-66.5 90,-66.5 90,-47.5 0,-47.5"/>
<text text-anchor="middle" x="45" y="-54.5" font-family="Helvetica,sans-Serif" font-size="10.00">Match_2HopAny</text>
</g>
<!-- Node98 -->
<g id="node2" class="node"><title>Node98</title>
<g id="a_node2"><a xlink:href="a00948.html#aead846b2c69509c914426ff087509934" target="_top" xlink:title="Match_2Hop">
<polygon fill="white" stroke="black" points="126.5,-47.5 126.5,-66.5 199.5,-66.5 199.5,-47.5 126.5,-47.5"/>
<text text-anchor="middle" x="163" y="-54.5" font-family="Helvetica,sans-Serif" font-size="10.00">Match_2Hop</text>
</a>
</g>
</g>
<!-- Node97&#45;&gt;Node98 -->
<g id="edge1" class="edge"><title>Node97&#45;&gt;Node98</title>
<path fill="none" stroke="midnightblue" d="M100.381,-57C109.151,-57 118.031,-57 126.216,-57"/>
<polygon fill="midnightblue" stroke="midnightblue" points="100.186,-53.5001 90.1855,-57 100.186,-60.5001 100.186,-53.5001"/>
</g>
<!-- Node99 -->
<g id="node3" class="node"><title>Node99</title>
<g id="a_node3"><a xlink:href="a00948.html#a892d2ea16d613abc2276ad5fc6999724" target="_top" xlink:title="Match_RM">
<polygon fill="white" stroke="black" points="242.5,-66.5 242.5,-85.5 307.5,-85.5 307.5,-66.5 242.5,-66.5"/>
<text text-anchor="middle" x="275" y="-73.5" font-family="Helvetica,sans-Serif" font-size="10.00">Match_RM</text>
</a>
</g>
</g>
<!-- Node98&#45;&gt;Node99 -->
<g id="edge2" class="edge"><title>Node98&#45;&gt;Node99</title>
<path fill="none" stroke="midnightblue" d="M209.578,-64.8726C220.533,-66.7647 232.001,-68.7457 242.175,-70.503"/>
<polygon fill="midnightblue" stroke="midnightblue" points="210.164,-61.422 199.714,-63.1688 208.972,-68.3198 210.164,-61.422"/>
</g>
<!-- Node108 -->
<g id="node12" class="node"><title>Node108</title>
<g id="a_node12"><a xlink:href="a00948.html#af3ec72f3170ccdca06d8ad018d86cc58" target="_top" xlink:title="Match_SHEM">
<polygon fill="white" stroke="black" points="236,-28.5 236,-47.5 314,-47.5 314,-28.5 236,-28.5"/>
<text text-anchor="middle" x="275" y="-35.5" font-family="Helvetica,sans-Serif" font-size="10.00">Match_SHEM</text>
</a>
</g>
</g>
<!-- Node98&#45;&gt;Node108 -->
<g id="edge14" class="edge"><title>Node98&#45;&gt;Node108</title>
<path fill="none" stroke="midnightblue" d="M209.707,-49.1051C218.39,-47.6053 227.392,-46.0505 235.812,-44.5961"/>
<polygon fill="midnightblue" stroke="midnightblue" points="208.972,-45.6802 199.714,-50.8312 210.164,-52.578 208.972,-45.6802"/>
</g>
<!-- Node100 -->
<g id="node4" class="node"><title>Node100</title>
<g id="a_node4"><a xlink:href="a00948.html#adeb2c7c9bffbeca00fcc97854fb88ada" target="_top" xlink:title="CoarsenGraph">
<polygon fill="white" stroke="black" points="367,-66.5 367,-85.5 449,-85.5 449,-66.5 367,-66.5"/>
<text text-anchor="middle" x="408" y="-73.5" font-family="Helvetica,sans-Serif" font-size="10.00">CoarsenGraph</text>
</a>
</g>
</g>
<!-- Node99&#45;&gt;Node100 -->
<g id="edge3" class="edge"><title>Node99&#45;&gt;Node100</title>
<path fill="none" stroke="midnightblue" d="M318.106,-76C333.662,-76 351.246,-76 366.644,-76"/>
<polygon fill="midnightblue" stroke="midnightblue" points="317.711,-72.5001 307.711,-76 317.711,-79.5001 317.711,-72.5001"/>
</g>
<!-- Node101 -->
<g id="node5" class="node"><title>Node101</title>
<g id="a_node5"><a xlink:href="a00948.html#afa83320e3b311e0feef90d0bf4303716" target="_top" xlink:title="CoarsenGraphNlevels">
<polygon fill="white" stroke="black" points="350.5,-28.5 350.5,-47.5 465.5,-47.5 465.5,-28.5 350.5,-28.5"/>
<text text-anchor="middle" x="408" y="-35.5" font-family="Helvetica,sans-Serif" font-size="10.00">CoarsenGraphNlevels</text>
</a>
</g>
</g>
<!-- Node99&#45;&gt;Node101 -->
<g id="edge4" class="edge"><title>Node99&#45;&gt;Node101</title>
<path fill="none" stroke="midnightblue" d="M317.539,-63.9505C335.844,-58.6406 357.045,-52.4907 374.213,-47.5109"/>
<polygon fill="midnightblue" stroke="midnightblue" points="316.34,-60.6538 307.711,-66.8013 318.291,-67.3767 316.34,-60.6538"/>
</g>
<!-- Node102 -->
<g id="node6" class="node"><title>Node102</title>
<g id="a_node6"><a xlink:href="a00948.html#ac3a0eaeefa34a3865a0be5bb70bd958f" target="_top" xlink:title="MlevelNodeBisectionL2">
<polygon fill="white" stroke="black" points="502.5,-28.5 502.5,-47.5 623.5,-47.5 623.5,-28.5 502.5,-28.5"/>
<text text-anchor="middle" x="563" y="-35.5" font-family="Helvetica,sans-Serif" font-size="10.00">MlevelNodeBisectionL2</text>
</a>
</g>
</g>
<!-- Node101&#45;&gt;Node102 -->
<g id="edge5" class="edge"><title>Node101&#45;&gt;Node102</title>
<path fill="none" stroke="midnightblue" d="M475.802,-38C484.641,-38 493.654,-38 502.361,-38"/>
<polygon fill="midnightblue" stroke="midnightblue" points="475.537,-34.5001 465.537,-38 475.537,-41.5001 475.537,-34.5001"/>
</g>
<!-- Node103 -->
<g id="node7" class="node"><title>Node103</title>
<g id="a_node7"><a xlink:href="a00948.html#a59c8030c5429e219a8535c2a11cef724" target="_top" xlink:title="MlevelNodeBisectionMultiple">
<polygon fill="white" stroke="black" points="660,-28.5 660,-47.5 804,-47.5 804,-28.5 660,-28.5"/>
<text text-anchor="middle" x="732" y="-35.5" font-family="Helvetica,sans-Serif" font-size="10.00">MlevelNodeBisectionMultiple</text>
</a>
</g>
</g>
<!-- Node102&#45;&gt;Node103 -->
<g id="edge6" class="edge"><title>Node102&#45;&gt;Node103</title>
<path fill="none" stroke="midnightblue" d="M633.828,-38C642.451,-38 651.275,-38 659.917,-38"/>
<polygon fill="midnightblue" stroke="midnightblue" points="633.819,-34.5001 623.819,-38 633.819,-41.5001 633.819,-34.5001"/>
</g>
<!-- Node104 -->
<g id="node8" class="node"><title>Node104</title>
<g id="a_node8"><a xlink:href="a00948.html#af853e9d8bbb2188f871fac436e631ed1" target="_top" xlink:title="MlevelNestedDissection">
<polygon fill="white" stroke="black" points="847.5,-56.5 847.5,-75.5 970.5,-75.5 970.5,-56.5 847.5,-56.5"/>
<text text-anchor="middle" x="909" y="-63.5" font-family="Helvetica,sans-Serif" font-size="10.00">MlevelNestedDissection</text>
</a>
</g>
</g>
<!-- Node103&#45;&gt;Node104 -->
<g id="edge7" class="edge"><title>Node103&#45;&gt;Node104</title>
<path fill="none" stroke="midnightblue" d="M803.034,-49.2054C818.109,-51.6175 833.906,-54.1449 848.534,-56.4854"/>
<polygon fill="midnightblue" stroke="midnightblue" points="803.163,-45.6816 792.736,-47.5577 802.057,-52.5937 803.163,-45.6816"/>
</g>
<!-- Node107 -->
<g id="node11" class="node"><title>Node107</title>
<g id="a_node11"><a xlink:href="a00948.html#a3ef15d1ffff55a81b8486bee09239073" target="_top" xlink:title="MlevelNestedDissectionCC">
<polygon fill="white" stroke="black" points="840,-0.5 840,-19.5 978,-19.5 978,-0.5 840,-0.5"/>
<text text-anchor="middle" x="909" y="-7.5" font-family="Helvetica,sans-Serif" font-size="10.00">MlevelNestedDissectionCC</text>
</a>
</g>
</g>
<!-- Node103&#45;&gt;Node107 -->
<g id="edge11" class="edge"><title>Node103&#45;&gt;Node107</title>
<path fill="none" stroke="midnightblue" d="M803.034,-26.7946C818.109,-24.3825 833.906,-21.8551 848.534,-19.5146"/>
<polygon fill="midnightblue" stroke="midnightblue" points="802.057,-23.4063 792.736,-28.4423 803.163,-30.3184 802.057,-23.4063"/>
</g>
<!-- Node104&#45;&gt;Node104 -->
<g id="edge10" class="edge"><title>Node104&#45;&gt;Node104</title>
<path fill="none" stroke="midnightblue" d="M881.001,-84.6539C882.171,-89.9368 891.504,-94 909,-94 935.66,-94 943.367,-84.5653 932.119,-75.7571"/>
<polygon fill="midnightblue" stroke="midnightblue" points="884.14,-86.208 885.881,-75.7571 878.003,-82.8417 884.14,-86.208"/>
</g>
<!-- Node105 -->
<g id="node9" class="node"><title>Node105</title>
<g id="a_node9"><a xlink:href="a00936.html#a8304f0dd6d180587f73b0b70de3b01b7" target="_top" xlink:title="METIS_NodeND">
<polygon fill="white" stroke="black" points="1014.5,-28.5 1014.5,-47.5 1105.5,-47.5 1105.5,-28.5 1014.5,-28.5"/>
<text text-anchor="middle" x="1060" y="-35.5" font-family="Helvetica,sans-Serif" font-size="10.00">METIS_NodeND</text>
</a>
</g>
</g>
<!-- Node104&#45;&gt;Node105 -->
<g id="edge8" class="edge"><title>Node104&#45;&gt;Node105</title>
<path fill="none" stroke="midnightblue" d="M970.802,-54.574C985.371,-51.8363 1000.66,-48.9625 1014.35,-46.3911"/>
<polygon fill="midnightblue" stroke="midnightblue" points="970.042,-51.1556 960.861,-56.4423 971.335,-58.0351 970.042,-51.1556"/>
</g>
<!-- Node106 -->
<g id="node10" class="node"><title>Node106</title>
<g id="a_node10"><a xlink:href="a00326.html#a0ddf1224851353fc92bfbff6f499fa97" target="_top" xlink:title="main">
<polygon fill="white" stroke="black" points="1142,-28.5 1142,-47.5 1180,-47.5 1180,-28.5 1142,-28.5"/>
<text text-anchor="middle" x="1161" y="-35.5" font-family="Helvetica,sans-Serif" font-size="10.00">main</text>
</a>
</g>
</g>
<!-- Node105&#45;&gt;Node106 -->
<g id="edge9" class="edge"><title>Node105&#45;&gt;Node106</title>
<path fill="none" stroke="midnightblue" d="M1115.75,-38C1125.09,-38 1134.18,-38 1141.67,-38"/>
<polygon fill="midnightblue" stroke="midnightblue" points="1115.58,-34.5001 1105.58,-38 1115.58,-41.5001 1115.58,-34.5001"/>
</g>
<!-- Node107&#45;&gt;Node105 -->
<g id="edge12" class="edge"><title>Node107&#45;&gt;Node105</title>
<path fill="none" stroke="midnightblue" d="M970.802,-21.426C985.371,-24.1637 1000.66,-27.0375 1014.35,-29.6089"/>
<polygon fill="midnightblue" stroke="midnightblue" points="971.335,-17.9649 960.861,-19.5577 970.042,-24.8444 971.335,-17.9649"/>
</g>
<!-- Node107&#45;&gt;Node107 -->
<g id="edge13" class="edge"><title>Node107&#45;&gt;Node107</title>
<path fill="none" stroke="midnightblue" d="M881.001,-28.6539C882.171,-33.9368 891.504,-38 909,-38 935.66,-38 943.367,-28.5653 932.119,-19.7571"/>
<polygon fill="midnightblue" stroke="midnightblue" points="884.14,-30.208 885.881,-19.7571 878.003,-26.8417 884.14,-30.208"/>
</g>
<!-- Node108&#45;&gt;Node100 -->
<g id="edge15" class="edge"><title>Node108&#45;&gt;Node100</title>
<path fill="none" stroke="midnightblue" d="M318.715,-50.3906C336.655,-55.5945 357.2,-61.5541 373.954,-66.4141"/>
<polygon fill="midnightblue" stroke="midnightblue" points="319.636,-47.0136 309.057,-47.589 317.686,-53.7364 319.636,-47.0136"/>
</g>
<!-- Node108&#45;&gt;Node101 -->
<g id="edge16" class="edge"><title>Node108&#45;&gt;Node101</title>
<path fill="none" stroke="midnightblue" d="M324.356,-38C332.85,-38 341.757,-38 350.451,-38"/>
<polygon fill="midnightblue" stroke="midnightblue" points="324.243,-34.5001 314.243,-38 324.243,-41.5001 324.243,-34.5001"/>
</g>
</g>
</svg>
        <g id="navigator" transform="translate(0 0)" fill="#404254">
                <rect fill="#f2f5e9" fill-opacity="0.5" stroke="#606060" stroke-width=".5" x="0" y="0" width="60" height="60"/>
                <use id="zoomplus" xlink:href="#zoomPlus" x="17" y="9" onmousedown="handleZoom(evt,'in')"/>
                <use id="zoomminus" xlink:href="#zoomMin" x="42" y="9" onmousedown="handleZoom(evt,'out')"/>
                <use id="reset" xlink:href="#resetDef" x="30" y="36" onmousedown="handleReset()"/>
                <g id="arrowUp" xlink:href="#dirArrow" transform="translate(30 24)" onmousedown="handlePan(0,-1)">
                  <use xlink:href="#rim" fill="#404040">
                        <set attributeName="fill" to="#808080" begin="arrowUp.mouseover" end="arrowUp.mouseout"/>
                  </use>
                  <path fill="none" stroke="white" stroke-width="1.5" d="M0,-3.0v7 M-2.5,-0.5L0,-3.0L2.5,-0.5"/>
                </g>
                <g id="arrowRight" xlink:href="#dirArrow" transform="rotate(90) translate(36 -43)" onmousedown="handlePan(1,0)">
                  <use xlink:href="#rim" fill="#404040">
                        <set attributeName="fill" to="#808080" begin="arrowRight.mouseover" end="arrowRight.mouseout"/>
                  </use>
                  <path fill="none" stroke="white" stroke-width="1.5" d="M0,-3.0v7 M-2.5,-0.5L0,-3.0L2.5,-0.5"/>
                </g>
                <g id="arrowDown" xlink:href="#dirArrow" transform="rotate(180) translate(-30 -48)" onmousedown="handlePan(0,1)">
                  <use xlink:href="#rim" fill="#404040">
                        <set attributeName="fill" to="#808080" begin="arrowDown.mouseover" end="arrowDown.mouseout"/>
                  </use>
                  <path fill="none" stroke="white" stroke-width="1.5" d="M0,-3.0v7 M-2.5,-0.5L0,-3.0L2.5,-0.5"/>
                </g>
                <g id="arrowLeft" xlink:href="#dirArrow" transform="rotate(270) translate(-36 17)" onmousedown="handlePan(-1,0)">
                  <use xlink:href="#rim" fill="#404040">
                        <set attributeName="fill" to="#808080" begin="arrowLeft.mouseover" end="arrowLeft.mouseout"/>
                  </use>
                  <path fill="none" stroke="white" stroke-width="1.5" d="M0,-3.0v7 M-2.5,-0.5L0,-3.0L2.5,-0.5"/>
                </g>
        </g>
        <svg viewBox="0 0 15 15" width="100%" height="30px" preserveAspectRatio="xMaxYMin meet">
         <g id="arrow_out" transform="scale(0.3 0.3)">
          <a xlink:href="a00182_a838a4013e3b5cc5278ecc7a8757ce0ef_icgraph_org.svg" target="_base">
           <rect id="button" ry="5" rx="5" y="6" x="6" height="38" width="38"
                fill="#f2f5e9" fill-opacity="0.5" stroke="#606060" stroke-width="1.0"/>
           <path id="arrow"
             d="M 11.500037,31.436501 C 11.940474,20.09759 22.043105,11.32322 32.158766,21.979434 L 37.068811,17.246167 C 37.068811,17.246167 37.088388,32 37.088388,32 L 22.160133,31.978069 C 22.160133,31.978069 26.997745,27.140456 26.997745,27.140456 C 18.528582,18.264221 13.291696,25.230495 11.500037,31.436501 z"
             style="fill:#404040;"/>
          </a>
         </g>
        </svg>
</svg>
