<?xml version="1.0" encoding="UTF-8" standalone="no"?>
<!DOCTYPE svg PUBLIC "-//W3C//DTD SVG 1.1//EN"
 "http://www.w3.org/Graphics/SVG/1.1/DTD/svg11.dtd">
<!-- Generated by graphviz version 2.36.0 (20140111.2315)
 -->
<!-- Title: gk_ikvsortd Pages: 1 -->
<svg width="318pt" height="66pt"
 viewBox="0.00 0.00 318.00 66.00" xmlns="http://www.w3.org/2000/svg" xmlns:xlink="http://www.w3.org/1999/xlink">
<g id="graph0" class="graph" transform="scale(1 1) rotate(0) translate(4 62)">
<title>gk_ikvsortd</title>
<polygon fill="white" stroke="none" points="-4,4 -4,-62 314,-62 314,4 -4,4"/>
<!-- Node66 -->
<g id="node1" class="node"><title>Node66</title>
<polygon fill="#bfbfbf" stroke="black" points="0.5,-19.5 0.5,-38.5 67.5,-38.5 67.5,-19.5 0.5,-19.5"/>
<text text-anchor="middle" x="34" y="-26.5" font-family="Helvetica,sans-Serif" font-size="10.00">gk_ikvsortd</text>
</g>
<!-- Node67 -->
<g id="node2" class="node"><title>Node67</title>
<g id="a_node2"><a xlink:href="$a00077.html#a3e15963be76870160707368a5fe7f693" xlink:title="gk_csr_CompactColumns">
<polygon fill="white" stroke="black" points="104.5,-38.5 104.5,-57.5 235.5,-57.5 235.5,-38.5 104.5,-38.5"/>
<text text-anchor="middle" x="170" y="-45.5" font-family="Helvetica,sans-Serif" font-size="10.00">gk_csr_CompactColumns</text>
</a>
</g>
</g>
<!-- Node66&#45;&gt;Node67 -->
<g id="edge1" class="edge"><title>Node66&#45;&gt;Node67</title>
<path fill="none" stroke="midnightblue" d="M77.7723,-35.0647C86.2429,-36.2658 95.3105,-37.5515 104.322,-38.8293"/>
<polygon fill="midnightblue" stroke="midnightblue" points="78.1724,-31.5865 67.7801,-33.6479 77.1897,-38.5172 78.1724,-31.5865"/>
</g>
<!-- Node68 -->
<g id="node3" class="node"><title>Node68</title>
<g id="a_node3"><a xlink:href="$a00152.html#a03d0ef2537e50ad38d65892cc9c28118" xlink:title="test_ikvsort">
<polygon fill="white" stroke="black" points="136.5,-0.5 136.5,-19.5 203.5,-19.5 203.5,-0.5 136.5,-0.5"/>
<text text-anchor="middle" x="170" y="-7.5" font-family="Helvetica,sans-Serif" font-size="10.00">test_ikvsort</text>
</a>
</g>
</g>
<!-- Node66&#45;&gt;Node68 -->
<g id="edge2" class="edge"><title>Node66&#45;&gt;Node68</title>
<path fill="none" stroke="midnightblue" d="M77.9071,-22.9162C96.7617,-20.2427 118.553,-17.1529 136.094,-14.6658"/>
<polygon fill="midnightblue" stroke="midnightblue" points="77.1897,-19.4828 67.7801,-24.3521 78.1724,-26.4135 77.1897,-19.4828"/>
</g>
<!-- Node69 -->
<g id="node4" class="node"><title>Node69</title>
<g id="a_node4"><a xlink:href="$a00152.html#ae66f6b31b5ad750f1fe042a706a4e3d4" xlink:title="main">
<polygon fill="white" stroke="black" points="272,-0.5 272,-19.5 310,-19.5 310,-0.5 272,-0.5"/>
<text text-anchor="middle" x="291" y="-7.5" font-family="Helvetica,sans-Serif" font-size="10.00">main</text>
</a>
</g>
</g>
<!-- Node68&#45;&gt;Node69 -->
<g id="edge3" class="edge"><title>Node68&#45;&gt;Node69</title>
<path fill="none" stroke="midnightblue" d="M213.683,-10C233.709,-10 256.504,-10 271.926,-10"/>
<polygon fill="midnightblue" stroke="midnightblue" points="213.517,-6.5001 203.517,-10 213.517,-13.5001 213.517,-6.5001"/>
</g>
</g>
</svg>
