<?xml version="1.0" encoding="UTF-8" standalone="no"?>
<!DOCTYPE svg PUBLIC "-//W3C//DTD SVG 1.1//EN"
 "http://www.w3.org/Graphics/SVG/1.1/DTD/svg11.dtd">
<!-- Generated by graphviz version 2.36.0 (20140111.2315)
 -->
<!-- Title: gk_strtprune Pages: 1 -->
<svg width="182pt" height="66pt"
 viewBox="0.00 0.00 182.00 66.00" xmlns="http://www.w3.org/2000/svg" xmlns:xlink="http://www.w3.org/1999/xlink">
<g id="graph0" class="graph" transform="scale(1 1) rotate(0) translate(4 62)">
<title>gk_strtprune</title>
<polygon fill="white" stroke="none" points="-4,4 -4,-62 178,-62 178,4 -4,4"/>
<!-- Node63 -->
<g id="node1" class="node"><title>Node63</title>
<polygon fill="#bfbfbf" stroke="black" points="0,-19.5 0,-38.5 72,-38.5 72,-19.5 0,-19.5"/>
<text text-anchor="middle" x="36" y="-26.5" font-family="Helvetica,sans-Serif" font-size="10.00">gk_strtprune</text>
</g>
<!-- Node64 -->
<g id="node2" class="node"><title>Node64</title>
<g id="a_node2"><a xlink:href="$a00858.html#ad13e689608e193482a6f30b1ade87814" xlink:title="gk_readfile">
<polygon fill="white" stroke="black" points="108.5,-38.5 108.5,-57.5 173.5,-57.5 173.5,-38.5 108.5,-38.5"/>
<text text-anchor="middle" x="141" y="-45.5" font-family="Helvetica,sans-Serif" font-size="10.00">gk_readfile</text>
</a>
</g>
</g>
<!-- Node63&#45;&gt;Node64 -->
<g id="edge1" class="edge"><title>Node63&#45;&gt;Node64</title>
<path fill="none" stroke="midnightblue" d="M82.0426,-37.3088C90.9468,-38.9513 100.113,-40.6421 108.453,-42.1806"/>
<polygon fill="midnightblue" stroke="midnightblue" points="82.6277,-33.8578 72.1587,-35.4856 81.3578,-40.7416 82.6277,-33.8578"/>
</g>
<!-- Node65 -->
<g id="node3" class="node"><title>Node65</title>
<g id="a_node3"><a xlink:href="$a00146.html#a0ddf1224851353fc92bfbff6f499fa97" xlink:title="main">
<polygon fill="white" stroke="black" points="122,-0.5 122,-19.5 160,-19.5 160,-0.5 122,-0.5"/>
<text text-anchor="middle" x="141" y="-7.5" font-family="Helvetica,sans-Serif" font-size="10.00">main</text>
</a>
</g>
</g>
<!-- Node63&#45;&gt;Node65 -->
<g id="edge2" class="edge"><title>Node63&#45;&gt;Node65</title>
<path fill="none" stroke="midnightblue" d="M82.1564,-20.6702C96.1223,-18.0939 110.72,-15.4011 121.757,-13.3652"/>
<polygon fill="midnightblue" stroke="midnightblue" points="81.3578,-17.2584 72.1587,-22.5144 82.6277,-24.1422 81.3578,-17.2584"/>
</g>
</g>
</svg>
