<?xml version="1.0" encoding="UTF-8" standalone="no"?>
<!DOCTYPE svg PUBLIC "-//W3C//DTD SVG 1.1//EN"
 "http://www.w3.org/Graphics/SVG/1.1/DTD/svg11.dtd">
<!-- Generated by graphviz version 2.36.0 (20140111.2315)
 -->
<!-- Title: main Pages: 1 -->
<!--zoomable 256 -->
<svg id="main" version="1.1" xmlns="http://www.w3.org/2000/svg" xmlns:xlink="http://www.w3.org/1999/xlink" xml:space="preserve" onload="init(evt)">
<style type="text/css"><![CDATA[
.edge:hover path { stroke: red; }
.edge:hover polygon { stroke: red; fill: red; }
]]></style>
<script type="text/javascript"><![CDATA[
var edges = document.getElementsByTagName('g');
if (edges && edges.length) {
  for (var i=0;i<edges.length;i++) {
    if (edges[i].id.substr(0,4)=='edge') {
      edges[i].setAttribute('class','edge');
    }
  }
}
]]></script>
        <defs>
                <circle id="rim" cx="0" cy="0" r="7"/>
                <circle id="rim2" cx="0" cy="0" r="3.5"/>
                <g id="zoomPlus">
                        <use xlink:href="#rim" fill="#404040">
                                <set attributeName="fill" to="#808080" begin="zoomplus.mouseover" end="zoomplus.mouseout"/>
                        </use>
                        <path d="M-4,0h8M0,-4v8" fill="none" stroke="white" stroke-width="1.5" pointer-events="none"/>
                </g>
                <g id="zoomMin">
                        <use xlink:href="#rim" fill="#404040">
                                <set attributeName="fill" to="#808080" begin="zoomminus.mouseover" end="zoomminus.mouseout"/>
                        </use>
                        <path d="M-4,0h8" fill="none" stroke="white" stroke-width="1.5" pointer-events="none"/>
                </g>
                <g id="dirArrow">
                        <path fill="none" stroke="white" stroke-width="1.5" d="M0,-3.0v7 M-2.5,-0.5L0,-3.0L2.5,-0.5"/>
                </g>
               <g id="resetDef">
                       <use xlink:href="#rim2" fill="#404040">
                               <set attributeName="fill" to="#808080" begin="reset.mouseover" end="reset.mouseout"/>
                       </use>
               </g>
        </defs>

<script type="text/javascript">
var viewWidth = 750;
var viewHeight = 256;
var sectionId = 'dynsection-1';
</script>
<script xlink:href="svgpan.js"/>
<svg id="graph" class="graph">
<g id="viewport">
<title>main</title>
<polygon fill="white" stroke="none" points="-4,4 -4,-252 746,-252 746,4 -4,4"/>
<!-- Node0 -->
<g id="node1" class="node"><title>Node0</title>
<polygon fill="#bfbfbf" stroke="black" points="0,-66.5 0,-85.5 38,-85.5 38,-66.5 0,-66.5"/>
<text text-anchor="middle" x="19" y="-73.5" font-family="Helvetica,sans-Serif" font-size="10.00">main</text>
</g>
<!-- Node1 -->
<g id="node2" class="node"><title>Node1</title>
<g id="a_node2"><a xlink:href="a00155.html#a3666be16b4df33d86374ee780353af54" target="_top" xlink:title="test_strstr_replace">
<polygon fill="white" stroke="black" points="74.5,-66.5 74.5,-85.5 173.5,-85.5 173.5,-66.5 74.5,-66.5"/>
<text text-anchor="middle" x="124" y="-73.5" font-family="Helvetica,sans-Serif" font-size="10.00">test_strstr_replace</text>
</a>
</g>
</g>
<!-- Node0&#45;&gt;Node1 -->
<g id="edge1" class="edge"><title>Node0&#45;&gt;Node1</title>
<path fill="none" stroke="midnightblue" d="M38.4143,-76C45.8083,-76 54.7801,-76 64.0817,-76"/>
<polygon fill="midnightblue" stroke="midnightblue" points="64.2453,-79.5001 74.2453,-76 64.2453,-72.5001 64.2453,-79.5001"/>
</g>
<!-- Node2 -->
<g id="node3" class="node"><title>Node2</title>
<g id="a_node3"><a xlink:href="a00077.html#a46e5cf8f76a1ece74adf1b8b9dfcb275" target="_top" xlink:title="Regex&#45;based search&#45;and&#45;replace function. ">
<polygon fill="white" stroke="black" points="210.5,-95.5 210.5,-114.5 303.5,-114.5 303.5,-95.5 210.5,-95.5"/>
<text text-anchor="middle" x="257" y="-102.5" font-family="Helvetica,sans-Serif" font-size="10.00">gk_strstr_replace</text>
</a>
</g>
</g>
<!-- Node1&#45;&gt;Node2 -->
<g id="edge2" class="edge"><title>Node1&#45;&gt;Node2</title>
<path fill="none" stroke="midnightblue" d="M168.257,-85.5761C179.324,-88.026 191.353,-90.6888 202.854,-93.2349"/>
<polygon fill="midnightblue" stroke="midnightblue" points="202.268,-96.6898 212.788,-95.434 203.781,-89.8552 202.268,-96.6898"/>
</g>
<!-- Node6 -->
<g id="node7" class="node"><title>Node6</title>
<g id="a_node7"><a xlink:href="a00077.html#ac8df62c4e3d0910711a9874f9cc58884" target="_top" xlink:title="gk_free">
<polygon fill="white" stroke="black" points="346,-0.5 346,-19.5 396,-19.5 396,-0.5 346,-0.5"/>
<text text-anchor="middle" x="371" y="-7.5" font-family="Helvetica,sans-Serif" font-size="10.00">gk_free</text>
</a>
</g>
</g>
<!-- Node1&#45;&gt;Node6 -->
<g id="edge16" class="edge"><title>Node1&#45;&gt;Node6</title>
<path fill="none" stroke="midnightblue" d="M160.363,-66.4735C207.302,-53.8289 289.629,-31.6509 335.915,-19.1821"/>
<polygon fill="midnightblue" stroke="midnightblue" points="337.022,-22.5088 345.767,-16.528 335.201,-15.7497 337.022,-22.5088"/>
</g>
<!-- Node3 -->
<g id="node4" class="node"><title>Node3</title>
<g id="a_node4"><a xlink:href="a00092.html#a430f0c9389ac6c08be2286257691317b" target="_top" xlink:title="regcomp">
<polygon fill="white" stroke="black" points="343.5,-228.5 343.5,-247.5 398.5,-247.5 398.5,-228.5 343.5,-228.5"/>
<text text-anchor="middle" x="371" y="-235.5" font-family="Helvetica,sans-Serif" font-size="10.00">regcomp</text>
</a>
</g>
</g>
<!-- Node2&#45;&gt;Node3 -->
<g id="edge3" class="edge"><title>Node2&#45;&gt;Node3</title>
<path fill="none" stroke="midnightblue" d="M263.311,-114.805C275.031,-135.801 304.875,-185.888 340,-219 341.264,-220.192 342.614,-221.352 344.015,-222.472"/>
<polygon fill="midnightblue" stroke="midnightblue" points="342.182,-225.463 352.36,-228.405 346.238,-219.758 342.182,-225.463"/>
</g>
<!-- Node4 -->
<g id="node5" class="node"><title>Node4</title>
<g id="a_node5"><a xlink:href="a00092.html#a0284fc25f2802396427939f37caccc1c" target="_top" xlink:title="regerror">
<polygon fill="white" stroke="black" points="345,-190.5 345,-209.5 397,-209.5 397,-190.5 345,-190.5"/>
<text text-anchor="middle" x="371" y="-197.5" font-family="Helvetica,sans-Serif" font-size="10.00">regerror</text>
</a>
</g>
</g>
<!-- Node2&#45;&gt;Node4 -->
<g id="edge4" class="edge"><title>Node2&#45;&gt;Node4</title>
<path fill="none" stroke="midnightblue" d="M267.334,-114.73C282.045,-129.807 311.852,-159.334 340,-181 341.612,-182.241 343.307,-183.478 345.037,-184.691"/>
<polygon fill="midnightblue" stroke="midnightblue" points="343.483,-187.86 353.752,-190.467 347.351,-182.025 343.483,-187.86"/>
</g>
<!-- Node5 -->
<g id="node6" class="node"><title>Node5</title>
<g id="a_node6"><a xlink:href="a00092.html#a179877eb45bb29da01e5101325554d73" target="_top" xlink:title="regexec">
<polygon fill="white" stroke="black" points="345,-152.5 345,-171.5 397,-171.5 397,-152.5 345,-152.5"/>
<text text-anchor="middle" x="371" y="-159.5" font-family="Helvetica,sans-Serif" font-size="10.00">regexec</text>
</a>
</g>
</g>
<!-- Node2&#45;&gt;Node5 -->
<g id="edge5" class="edge"><title>Node2&#45;&gt;Node5</title>
<path fill="none" stroke="midnightblue" d="M276.746,-114.541C294.594,-123.624 321.682,-137.41 342.072,-147.787"/>
<polygon fill="midnightblue" stroke="midnightblue" points="340.693,-151.012 351.193,-152.428 343.868,-144.773 340.693,-151.012"/>
</g>
<!-- Node2&#45;&gt;Node6 -->
<g id="edge6" class="edge"><title>Node2&#45;&gt;Node6</title>
<path fill="none" stroke="midnightblue" d="M268.455,-95.2149C289.695,-75.3494 336.212,-31.9155 340,-29 341.612,-27.7591 343.307,-26.5223 345.037,-25.3094"/>
<polygon fill="midnightblue" stroke="midnightblue" points="347.351,-27.975 353.752,-19.5328 343.483,-22.1403 347.351,-27.975"/>
</g>
<!-- Node7 -->
<g id="node8" class="node"><title>Node7</title>
<g id="a_node8"><a xlink:href="a00143.html#af62038e97ca55f14ec2557a01bd85ca2" target="_top" xlink:title="Duplicates a string. ">
<polygon fill="white" stroke="black" points="341,-114.5 341,-133.5 401,-133.5 401,-114.5 341,-114.5"/>
<text text-anchor="middle" x="371" y="-121.5" font-family="Helvetica,sans-Serif" font-size="10.00">gk_strdup</text>
</a>
</g>
</g>
<!-- Node2&#45;&gt;Node7 -->
<g id="edge7" class="edge"><title>Node2&#45;&gt;Node7</title>
<path fill="none" stroke="midnightblue" d="M303.555,-112.728C312.609,-114.264 322.04,-115.864 330.857,-117.36"/>
<polygon fill="midnightblue" stroke="midnightblue" points="330.421,-120.836 340.866,-119.058 331.592,-113.934 330.421,-120.836"/>
</g>
<!-- Node13 -->
<g id="node14" class="node"><title>Node13</title>
<g id="a_node14"><a xlink:href="a00092.html#a87e79b6d048a32ffbfdb234c4166e769" target="_top" xlink:title="regfree">
<polygon fill="white" stroke="black" points="347,-76.5 347,-95.5 395,-95.5 395,-76.5 347,-76.5"/>
<text text-anchor="middle" x="371" y="-83.5" font-family="Helvetica,sans-Serif" font-size="10.00">regfree</text>
</a>
</g>
</g>
<!-- Node2&#45;&gt;Node13 -->
<g id="edge14" class="edge"><title>Node2&#45;&gt;Node13</title>
<path fill="none" stroke="midnightblue" d="M303.555,-97.272C314.728,-95.3764 326.477,-93.3833 336.936,-91.6091"/>
<polygon fill="midnightblue" stroke="midnightblue" points="337.622,-95.0428 346.895,-89.9195 336.451,-88.1414 337.622,-95.0428"/>
</g>
<!-- Node14 -->
<g id="node15" class="node"><title>Node14</title>
<g id="a_node15"><a xlink:href="a00077.html#ab76a07ccd25288dd9acc99f5f24a7600" target="_top" xlink:title="gk_realloc">
<polygon fill="white" stroke="black" points="340,-38.5 340,-57.5 402,-57.5 402,-38.5 340,-38.5"/>
<text text-anchor="middle" x="371" y="-45.5" font-family="Helvetica,sans-Serif" font-size="10.00">gk_realloc</text>
</a>
</g>
</g>
<!-- Node2&#45;&gt;Node14 -->
<g id="edge15" class="edge"><title>Node2&#45;&gt;Node14</title>
<path fill="none" stroke="midnightblue" d="M276.746,-95.4595C294.594,-86.3761 321.682,-72.5904 342.072,-62.2133"/>
<polygon fill="midnightblue" stroke="midnightblue" points="343.868,-65.2267 351.193,-57.5716 340.693,-58.9881 343.868,-65.2267"/>
</g>
<!-- Node8 -->
<g id="node9" class="node"><title>Node8</title>
<g id="a_node9"><a xlink:href="a00077.html#aba6f76f5c67b9b7e9c2e45988d3d3e9d" target="_top" xlink:title="gk_malloc">
<polygon fill="white" stroke="black" points="438,-114.5 438,-133.5 500,-133.5 500,-114.5 438,-114.5"/>
<text text-anchor="middle" x="469" y="-121.5" font-family="Helvetica,sans-Serif" font-size="10.00">gk_malloc</text>
</a>
</g>
</g>
<!-- Node7&#45;&gt;Node8 -->
<g id="edge8" class="edge"><title>Node7&#45;&gt;Node8</title>
<path fill="none" stroke="midnightblue" d="M401.064,-124C409.393,-124 418.629,-124 427.513,-124"/>
<polygon fill="midnightblue" stroke="midnightblue" points="427.704,-127.5 437.704,-124 427.704,-120.5 427.704,-127.5"/>
</g>
<!-- Node9 -->
<g id="node10" class="node"><title>Node9</title>
<g id="a_node10"><a xlink:href="a01017.html#a2e311a777ffe9c80e405efa7cd2757be" target="_top" xlink:title="fprintf">
<polygon fill="white" stroke="black" points="700,-114.5 700,-133.5 742,-133.5 742,-114.5 700,-114.5"/>
<text text-anchor="middle" x="721" y="-121.5" font-family="Helvetica,sans-Serif" font-size="10.00">fprintf</text>
</a>
</g>
</g>
<!-- Node8&#45;&gt;Node9 -->
<g id="edge9" class="edge"><title>Node8&#45;&gt;Node9</title>
<path fill="none" stroke="midnightblue" d="M482.261,-133.719C494.891,-143.059 515.563,-156.537 536,-162 590.959,-176.691 609.62,-178.709 664,-162 678.039,-157.686 691.719,-148.525 702.044,-140.279"/>
<polygon fill="midnightblue" stroke="midnightblue" points="704.469,-142.813 709.862,-133.694 699.959,-137.46 704.469,-142.813"/>
</g>
<!-- Node10 -->
<g id="node11" class="node"><title>Node10</title>
<g id="a_node11"><a xlink:href="a00110.html#ad2327b94227019b6753b6b09400c0522" target="_top" xlink:title="gk_GetCurMemoryUsed">
<polygon fill="white" stroke="black" points="538,-133.5 538,-152.5 662,-152.5 662,-133.5 538,-133.5"/>
<text text-anchor="middle" x="600" y="-140.5" font-family="Helvetica,sans-Serif" font-size="10.00">gk_GetCurMemoryUsed</text>
</a>
</g>
</g>
<!-- Node8&#45;&gt;Node10 -->
<g id="edge10" class="edge"><title>Node8&#45;&gt;Node10</title>
<path fill="none" stroke="midnightblue" d="M500.245,-128.455C508.646,-129.692 518.139,-131.09 527.836,-132.518"/>
<polygon fill="midnightblue" stroke="midnightblue" points="527.573,-136.017 537.977,-134.012 528.593,-129.092 527.573,-136.017"/>
</g>
<!-- Node11 -->
<g id="node12" class="node"><title>Node11</title>
<g id="a_node12"><a xlink:href="a00110.html#a656fd5266ae12a96e53125486f8fea52" target="_top" xlink:title="gk_GetMaxMemoryUsed">
<polygon fill="white" stroke="black" points="536.5,-95.5 536.5,-114.5 663.5,-114.5 663.5,-95.5 536.5,-95.5"/>
<text text-anchor="middle" x="600" y="-102.5" font-family="Helvetica,sans-Serif" font-size="10.00">gk_GetMaxMemoryUsed</text>
</a>
</g>
</g>
<!-- Node8&#45;&gt;Node11 -->
<g id="edge11" class="edge"><title>Node8&#45;&gt;Node11</title>
<path fill="none" stroke="midnightblue" d="M500.245,-119.545C508.229,-118.369 517.2,-117.048 526.395,-115.694"/>
<polygon fill="midnightblue" stroke="midnightblue" points="527.04,-119.137 536.423,-114.217 526.02,-112.211 527.04,-119.137"/>
</g>
<!-- Node12 -->
<g id="node13" class="node"><title>Node12</title>
<g id="a_node13"><a xlink:href="a00026.html#a4c320c13bcdc9967613253ef4c73f59f" target="_top" xlink:title="gk_errexit">
<polygon fill="white" stroke="black" points="570,-57.5 570,-76.5 630,-76.5 630,-57.5 570,-57.5"/>
<text text-anchor="middle" x="600" y="-64.5" font-family="Helvetica,sans-Serif" font-size="10.00">gk_errexit</text>
</a>
</g>
</g>
<!-- Node8&#45;&gt;Node12 -->
<g id="edge12" class="edge"><title>Node8&#45;&gt;Node12</title>
<path fill="none" stroke="midnightblue" d="M484.436,-114.391C497.481,-106.027 517.428,-94.0202 536,-86 543.68,-82.6834 552.121,-79.7096 560.259,-77.1539"/>
<polygon fill="midnightblue" stroke="midnightblue" points="561.388,-80.4695 569.965,-74.2488 559.381,-73.7634 561.388,-80.4695"/>
</g>
<!-- Node12&#45;&gt;Node9 -->
<g id="edge13" class="edge"><title>Node12&#45;&gt;Node9</title>
<path fill="none" stroke="midnightblue" d="M630.228,-73.8252C641.104,-76.8755 653.377,-80.9396 664,-86 676.634,-92.0184 689.634,-100.663 699.925,-108.186"/>
<polygon fill="midnightblue" stroke="midnightblue" points="698.101,-111.194 708.194,-114.415 702.313,-105.603 698.101,-111.194"/>
</g>
</g>
</svg>
        <g id="navigator" transform="translate(0 0)" fill="#404254">
                <rect fill="#f2f5e9" fill-opacity="0.5" stroke="#606060" stroke-width=".5" x="0" y="0" width="60" height="60"/>
                <use id="zoomplus" xlink:href="#zoomPlus" x="17" y="9" onmousedown="handleZoom(evt,'in')"/>
                <use id="zoomminus" xlink:href="#zoomMin" x="42" y="9" onmousedown="handleZoom(evt,'out')"/>
                <use id="reset" xlink:href="#resetDef" x="30" y="36" onmousedown="handleReset()"/>
                <g id="arrowUp" xlink:href="#dirArrow" transform="translate(30 24)" onmousedown="handlePan(0,-1)">
                  <use xlink:href="#rim" fill="#404040">
                        <set attributeName="fill" to="#808080" begin="arrowUp.mouseover" end="arrowUp.mouseout"/>
                  </use>
                  <path fill="none" stroke="white" stroke-width="1.5" d="M0,-3.0v7 M-2.5,-0.5L0,-3.0L2.5,-0.5"/>
                </g>
                <g id="arrowRight" xlink:href="#dirArrow" transform="rotate(90) translate(36 -43)" onmousedown="handlePan(1,0)">
                  <use xlink:href="#rim" fill="#404040">
                        <set attributeName="fill" to="#808080" begin="arrowRight.mouseover" end="arrowRight.mouseout"/>
                  </use>
                  <path fill="none" stroke="white" stroke-width="1.5" d="M0,-3.0v7 M-2.5,-0.5L0,-3.0L2.5,-0.5"/>
                </g>
                <g id="arrowDown" xlink:href="#dirArrow" transform="rotate(180) translate(-30 -48)" onmousedown="handlePan(0,1)">
                  <use xlink:href="#rim" fill="#404040">
                        <set attributeName="fill" to="#808080" begin="arrowDown.mouseover" end="arrowDown.mouseout"/>
                  </use>
                  <path fill="none" stroke="white" stroke-width="1.5" d="M0,-3.0v7 M-2.5,-0.5L0,-3.0L2.5,-0.5"/>
                </g>
                <g id="arrowLeft" xlink:href="#dirArrow" transform="rotate(270) translate(-36 17)" onmousedown="handlePan(-1,0)">
                  <use xlink:href="#rim" fill="#404040">
                        <set attributeName="fill" to="#808080" begin="arrowLeft.mouseover" end="arrowLeft.mouseout"/>
                  </use>
                  <path fill="none" stroke="white" stroke-width="1.5" d="M0,-3.0v7 M-2.5,-0.5L0,-3.0L2.5,-0.5"/>
                </g>
        </g>
        <svg viewBox="0 0 15 15" width="100%" height="30px" preserveAspectRatio="xMaxYMin meet">
         <g id="arrow_out" transform="scale(0.3 0.3)">
          <a xlink:href="a00155_ae66f6b31b5ad750f1fe042a706a4e3d4_cgraph_org.svg" target="_base">
           <rect id="button" ry="5" rx="5" y="6" x="6" height="38" width="38"
                fill="#f2f5e9" fill-opacity="0.5" stroke="#606060" stroke-width="1.0"/>
           <path id="arrow"
             d="M 11.500037,31.436501 C 11.940474,20.09759 22.043105,11.32322 32.158766,21.979434 L 37.068811,17.246167 C 37.068811,17.246167 37.088388,32 37.088388,32 L 22.160133,31.978069 C 22.160133,31.978069 26.997745,27.140456 26.997745,27.140456 C 18.528582,18.264221 13.291696,25.230495 11.500037,31.436501 z"
             style="fill:#404040;"/>
          </a>
         </g>
        </svg>
</svg>
