<?xml version="1.0" encoding="UTF-8" standalone="no"?>
<!DOCTYPE svg PUBLIC "-//W3C//DTD SVG 1.1//EN"
 "http://www.w3.org/Graphics/SVG/1.1/DTD/svg11.dtd">
<!-- Generated by graphviz version 2.36.0 (20140111.2315)
 -->
<!-- Title: CoarsenGraphNlevels Pages: 1 -->
<svg width="838pt" height="102pt"
 viewBox="0.00 0.00 838.00 102.00" xmlns="http://www.w3.org/2000/svg" xmlns:xlink="http://www.w3.org/1999/xlink">
<g id="graph0" class="graph" transform="scale(1 1) rotate(0) translate(4 98)">
<title>CoarsenGraphNlevels</title>
<polygon fill="white" stroke="none" points="-4,4 -4,-98 834,-98 834,4 -4,4"/>
<!-- Node28 -->
<g id="node1" class="node"><title>Node28</title>
<polygon fill="#bfbfbf" stroke="black" points="0.5,-28.5 0.5,-47.5 115.5,-47.5 115.5,-28.5 0.5,-28.5"/>
<text text-anchor="middle" x="58" y="-35.5" font-family="Helvetica,sans-Serif" font-size="10.00">CoarsenGraphNlevels</text>
</g>
<!-- Node29 -->
<g id="node2" class="node"><title>Node29</title>
<g id="a_node2"><a xlink:href="a00948.html#ac3a0eaeefa34a3865a0be5bb70bd958f" target="_top" xlink:title="MlevelNodeBisectionL2">
<polygon fill="white" stroke="black" points="152.5,-28.5 152.5,-47.5 273.5,-47.5 273.5,-28.5 152.5,-28.5"/>
<text text-anchor="middle" x="213" y="-35.5" font-family="Helvetica,sans-Serif" font-size="10.00">MlevelNodeBisectionL2</text>
</a>
</g>
</g>
<!-- Node28&#45;&gt;Node29 -->
<g id="edge1" class="edge"><title>Node28&#45;&gt;Node29</title>
<path fill="none" stroke="midnightblue" d="M125.802,-38C134.641,-38 143.654,-38 152.361,-38"/>
<polygon fill="midnightblue" stroke="midnightblue" points="125.537,-34.5001 115.537,-38 125.537,-41.5001 125.537,-34.5001"/>
</g>
<!-- Node30 -->
<g id="node3" class="node"><title>Node30</title>
<g id="a_node3"><a xlink:href="a00948.html#a59c8030c5429e219a8535c2a11cef724" target="_top" xlink:title="MlevelNodeBisectionMultiple">
<polygon fill="white" stroke="black" points="310,-28.5 310,-47.5 454,-47.5 454,-28.5 310,-28.5"/>
<text text-anchor="middle" x="382" y="-35.5" font-family="Helvetica,sans-Serif" font-size="10.00">MlevelNodeBisectionMultiple</text>
</a>
</g>
</g>
<!-- Node29&#45;&gt;Node30 -->
<g id="edge2" class="edge"><title>Node29&#45;&gt;Node30</title>
<path fill="none" stroke="midnightblue" d="M283.828,-38C292.451,-38 301.275,-38 309.917,-38"/>
<polygon fill="midnightblue" stroke="midnightblue" points="283.819,-34.5001 273.819,-38 283.819,-41.5001 283.819,-34.5001"/>
</g>
<!-- Node31 -->
<g id="node4" class="node"><title>Node31</title>
<g id="a_node4"><a xlink:href="a00948.html#af853e9d8bbb2188f871fac436e631ed1" target="_top" xlink:title="MlevelNestedDissection">
<polygon fill="white" stroke="black" points="497.5,-56.5 497.5,-75.5 620.5,-75.5 620.5,-56.5 497.5,-56.5"/>
<text text-anchor="middle" x="559" y="-63.5" font-family="Helvetica,sans-Serif" font-size="10.00">MlevelNestedDissection</text>
</a>
</g>
</g>
<!-- Node30&#45;&gt;Node31 -->
<g id="edge3" class="edge"><title>Node30&#45;&gt;Node31</title>
<path fill="none" stroke="midnightblue" d="M453.034,-49.2054C468.109,-51.6175 483.906,-54.1449 498.534,-56.4854"/>
<polygon fill="midnightblue" stroke="midnightblue" points="453.163,-45.6816 442.736,-47.5577 452.057,-52.5937 453.163,-45.6816"/>
</g>
<!-- Node34 -->
<g id="node7" class="node"><title>Node34</title>
<g id="a_node7"><a xlink:href="a00948.html#a3ef15d1ffff55a81b8486bee09239073" target="_top" xlink:title="MlevelNestedDissectionCC">
<polygon fill="white" stroke="black" points="490,-0.5 490,-19.5 628,-19.5 628,-0.5 490,-0.5"/>
<text text-anchor="middle" x="559" y="-7.5" font-family="Helvetica,sans-Serif" font-size="10.00">MlevelNestedDissectionCC</text>
</a>
</g>
</g>
<!-- Node30&#45;&gt;Node34 -->
<g id="edge7" class="edge"><title>Node30&#45;&gt;Node34</title>
<path fill="none" stroke="midnightblue" d="M453.034,-26.7946C468.109,-24.3825 483.906,-21.8551 498.534,-19.5146"/>
<polygon fill="midnightblue" stroke="midnightblue" points="452.057,-23.4063 442.736,-28.4423 453.163,-30.3184 452.057,-23.4063"/>
</g>
<!-- Node31&#45;&gt;Node31 -->
<g id="edge6" class="edge"><title>Node31&#45;&gt;Node31</title>
<path fill="none" stroke="midnightblue" d="M531.001,-84.6539C532.171,-89.9368 541.504,-94 559,-94 585.66,-94 593.367,-84.5653 582.119,-75.7571"/>
<polygon fill="midnightblue" stroke="midnightblue" points="534.14,-86.208 535.881,-75.7571 528.003,-82.8417 534.14,-86.208"/>
</g>
<!-- Node32 -->
<g id="node5" class="node"><title>Node32</title>
<g id="a_node5"><a xlink:href="a00936.html#a8304f0dd6d180587f73b0b70de3b01b7" target="_top" xlink:title="METIS_NodeND">
<polygon fill="white" stroke="black" points="664.5,-28.5 664.5,-47.5 755.5,-47.5 755.5,-28.5 664.5,-28.5"/>
<text text-anchor="middle" x="710" y="-35.5" font-family="Helvetica,sans-Serif" font-size="10.00">METIS_NodeND</text>
</a>
</g>
</g>
<!-- Node31&#45;&gt;Node32 -->
<g id="edge4" class="edge"><title>Node31&#45;&gt;Node32</title>
<path fill="none" stroke="midnightblue" d="M620.802,-54.574C635.371,-51.8363 650.664,-48.9625 664.347,-46.3911"/>
<polygon fill="midnightblue" stroke="midnightblue" points="620.042,-51.1556 610.861,-56.4423 621.335,-58.0351 620.042,-51.1556"/>
</g>
<!-- Node33 -->
<g id="node6" class="node"><title>Node33</title>
<g id="a_node6"><a xlink:href="a00326.html#a0ddf1224851353fc92bfbff6f499fa97" target="_top" xlink:title="main">
<polygon fill="white" stroke="black" points="792,-28.5 792,-47.5 830,-47.5 830,-28.5 792,-28.5"/>
<text text-anchor="middle" x="811" y="-35.5" font-family="Helvetica,sans-Serif" font-size="10.00">main</text>
</a>
</g>
</g>
<!-- Node32&#45;&gt;Node33 -->
<g id="edge5" class="edge"><title>Node32&#45;&gt;Node33</title>
<path fill="none" stroke="midnightblue" d="M765.748,-38C775.09,-38 784.179,-38 791.665,-38"/>
<polygon fill="midnightblue" stroke="midnightblue" points="765.577,-34.5001 755.577,-38 765.577,-41.5001 765.577,-34.5001"/>
</g>
<!-- Node34&#45;&gt;Node32 -->
<g id="edge8" class="edge"><title>Node34&#45;&gt;Node32</title>
<path fill="none" stroke="midnightblue" d="M620.802,-21.426C635.371,-24.1637 650.664,-27.0375 664.347,-29.6089"/>
<polygon fill="midnightblue" stroke="midnightblue" points="621.335,-17.9649 610.861,-19.5577 620.042,-24.8444 621.335,-17.9649"/>
</g>
<!-- Node34&#45;&gt;Node34 -->
<g id="edge9" class="edge"><title>Node34&#45;&gt;Node34</title>
<path fill="none" stroke="midnightblue" d="M531.001,-28.6539C532.171,-33.9368 541.504,-38 559,-38 585.66,-38 593.367,-28.5653 582.119,-19.7571"/>
<polygon fill="midnightblue" stroke="midnightblue" points="534.14,-30.208 535.881,-19.7571 528.003,-26.8417 534.14,-30.208"/>
</g>
</g>
</svg>
