<?xml version="1.0" encoding="UTF-8" standalone="no"?>
<!DOCTYPE svg PUBLIC "-//W3C//DTD SVG 1.1//EN"
 "http://www.w3.org/Graphics/SVG/1.1/DTD/svg11.dtd">
<!-- Generated by graphviz version 2.36.0 (20140111.2315)
 -->
<!-- Title: gk_mcoreMalloc Pages: 1 -->
<svg width="344pt" height="142pt"
 viewBox="0.00 0.00 344.00 142.00" xmlns="http://www.w3.org/2000/svg" xmlns:xlink="http://www.w3.org/1999/xlink">
<g id="graph0" class="graph" transform="scale(1 1) rotate(0) translate(4 138)">
<title>gk_mcoreMalloc</title>
<polygon fill="white" stroke="none" points="-4,4 -4,-138 340,-138 340,4 -4,4"/>
<!-- Node59 -->
<g id="node1" class="node"><title>Node59</title>
<polygon fill="#bfbfbf" stroke="black" points="0.5,-57.5 0.5,-76.5 89.5,-76.5 89.5,-57.5 0.5,-57.5"/>
<text text-anchor="middle" x="45" y="-64.5" font-family="Helvetica,sans-Serif" font-size="10.00">gk_mcoreMalloc</text>
</g>
<!-- Node60 -->
<g id="node2" class="node"><title>Node60</title>
<g id="a_node2"><a xlink:href="$a00954.html#a555f2ae3f4e5561c9b1ef592bf0f8476" xlink:title="wspacemalloc">
<polygon fill="white" stroke="black" points="126.5,-57.5 126.5,-76.5 205.5,-76.5 205.5,-57.5 126.5,-57.5"/>
<text text-anchor="middle" x="166" y="-64.5" font-family="Helvetica,sans-Serif" font-size="10.00">wspacemalloc</text>
</a>
</g>
</g>
<!-- Node59&#45;&gt;Node60 -->
<g id="edge1" class="edge"><title>Node59&#45;&gt;Node60</title>
<path fill="none" stroke="midnightblue" d="M99.7048,-67C108.731,-67 117.936,-67 126.48,-67"/>
<polygon fill="midnightblue" stroke="midnightblue" points="99.6355,-63.5001 89.6355,-67 99.6355,-70.5001 99.6355,-63.5001"/>
</g>
<!-- Node61 -->
<g id="node3" class="node"><title>Node61</title>
<g id="a_node3"><a xlink:href="$a00984.html#a24ba749ade92aef079e88d233317c068" xlink:title="iwspacemalloc">
<polygon fill="white" stroke="black" points="248,-114.5 248,-133.5 330,-133.5 330,-114.5 248,-114.5"/>
<text text-anchor="middle" x="289" y="-121.5" font-family="Helvetica,sans-Serif" font-size="10.00">iwspacemalloc</text>
</a>
</g>
</g>
<!-- Node60&#45;&gt;Node61 -->
<g id="edge2" class="edge"><title>Node60&#45;&gt;Node61</title>
<path fill="none" stroke="midnightblue" d="M194.16,-81.3986C208.297,-88.7304 225.94,-97.628 242,-105 249.067,-108.244 256.851,-111.556 263.974,-114.486"/>
<polygon fill="midnightblue" stroke="midnightblue" points="195.479,-78.1391 184.995,-76.611 192.238,-84.3435 195.479,-78.1391"/>
</g>
<!-- Node62 -->
<g id="node4" class="node"><title>Node62</title>
<g id="a_node4"><a xlink:href="$a00984.html#a194ce386758eefa7996960b928c5d0aa" xlink:title="rwspacemalloc">
<polygon fill="white" stroke="black" points="247.5,-76.5 247.5,-95.5 330.5,-95.5 330.5,-76.5 247.5,-76.5"/>
<text text-anchor="middle" x="289" y="-83.5" font-family="Helvetica,sans-Serif" font-size="10.00">rwspacemalloc</text>
</a>
</g>
</g>
<!-- Node60&#45;&gt;Node62 -->
<g id="edge3" class="edge"><title>Node60&#45;&gt;Node62</title>
<path fill="none" stroke="midnightblue" d="M215.508,-74.617C226.031,-76.2693 237.058,-78.0008 247.246,-79.6006"/>
<polygon fill="midnightblue" stroke="midnightblue" points="216.04,-71.1576 205.618,-73.064 214.954,-78.0729 216.04,-71.1576"/>
</g>
<!-- Node63 -->
<g id="node5" class="node"><title>Node63</title>
<g id="a_node5"><a xlink:href="$a00984.html#a84ec1bdf52bc3f92ae3f2e43c42545ca" xlink:title="ikvwspacemalloc">
<polygon fill="white" stroke="black" points="243,-38.5 243,-57.5 335,-57.5 335,-38.5 243,-38.5"/>
<text text-anchor="middle" x="289" y="-45.5" font-family="Helvetica,sans-Serif" font-size="10.00">ikvwspacemalloc</text>
</a>
</g>
</g>
<!-- Node60&#45;&gt;Node63 -->
<g id="edge4" class="edge"><title>Node60&#45;&gt;Node63</title>
<path fill="none" stroke="midnightblue" d="M215.505,-59.3835C224.438,-57.9809 233.734,-56.5212 242.572,-55.1334"/>
<polygon fill="midnightblue" stroke="midnightblue" points="214.954,-55.9271 205.618,-60.936 216.04,-62.8424 214.954,-55.9271"/>
</g>
<!-- Node64 -->
<g id="node6" class="node"><title>Node64</title>
<g id="a_node6"><a xlink:href="$a00987.html#adfa1dc5e723d63f32672d993e3f52e4f" xlink:title="rkvwspacemalloc">
<polygon fill="white" stroke="black" points="242.5,-0.5 242.5,-19.5 335.5,-19.5 335.5,-0.5 242.5,-0.5"/>
<text text-anchor="middle" x="289" y="-7.5" font-family="Helvetica,sans-Serif" font-size="10.00">rkvwspacemalloc</text>
</a>
</g>
</g>
<!-- Node60&#45;&gt;Node64 -->
<g id="edge5" class="edge"><title>Node60&#45;&gt;Node64</title>
<path fill="none" stroke="midnightblue" d="M194.16,-52.6014C208.297,-45.2696 225.94,-36.372 242,-29 249.067,-25.7559 256.851,-22.4444 263.974,-19.514"/>
<polygon fill="midnightblue" stroke="midnightblue" points="192.238,-49.6565 184.995,-57.389 195.479,-55.8609 192.238,-49.6565"/>
</g>
</g>
</svg>
