<?xml version="1.0" encoding="UTF-8" standalone="no"?>
<!DOCTYPE svg PUBLIC "-//W3C//DTD SVG 1.1//EN"
 "http://www.w3.org/Graphics/SVG/1.1/DTD/svg11.dtd">
<!-- Generated by graphviz version 2.36.0 (20140111.2315)
 -->
<!-- Title: test_idxkvsort Pages: 1 -->
<svg width="200pt" height="66pt"
 viewBox="0.00 0.00 200.00 66.00" xmlns="http://www.w3.org/2000/svg" xmlns:xlink="http://www.w3.org/1999/xlink">
<g id="graph0" class="graph" transform="scale(1 1) rotate(0) translate(4 62)">
<title>test_idxkvsort</title>
<polygon fill="white" stroke="none" points="-4,4 -4,-62 196,-62 196,4 -4,4"/>
<!-- Node48 -->
<g id="node1" class="node"><title>Node48</title>
<polygon fill="#bfbfbf" stroke="black" points="0,-19.5 0,-38.5 78,-38.5 78,-19.5 0,-19.5"/>
<text text-anchor="middle" x="39" y="-26.5" font-family="Helvetica,sans-Serif" font-size="10.00">test_idxkvsort</text>
</g>
<!-- Node49 -->
<g id="node2" class="node"><title>Node49</title>
<g id="a_node2"><a xlink:href="a00077.html#aacb1df68fc66097ca2646ff5d8be2eaa" target="_top" xlink:title="gk_idxkvsorti">
<polygon fill="white" stroke="black" points="116,-38.5 116,-57.5 190,-57.5 190,-38.5 116,-38.5"/>
<text text-anchor="middle" x="153" y="-45.5" font-family="Helvetica,sans-Serif" font-size="10.00">gk_idxkvsorti</text>
</a>
</g>
</g>
<!-- Node48&#45;&gt;Node49 -->
<g id="edge1" class="edge"><title>Node48&#45;&gt;Node49</title>
<path fill="none" stroke="midnightblue" d="M78.2308,-35.4856C87.0709,-36.9852 96.5701,-38.5967 105.713,-40.1477"/>
<polygon fill="midnightblue" stroke="midnightblue" points="105.386,-43.6421 115.83,-41.864 106.556,-36.7407 105.386,-43.6421"/>
</g>
<!-- Node50 -->
<g id="node3" class="node"><title>Node50</title>
<g id="a_node3"><a xlink:href="a00077.html#a53690cb705b8749f83a8ae609e94aafd" target="_top" xlink:title="gk_idxkvsortd">
<polygon fill="white" stroke="black" points="114,-0.5 114,-19.5 192,-19.5 192,-0.5 114,-0.5"/>
<text text-anchor="middle" x="153" y="-7.5" font-family="Helvetica,sans-Serif" font-size="10.00">gk_idxkvsortd</text>
</a>
</g>
</g>
<!-- Node48&#45;&gt;Node50 -->
<g id="edge2" class="edge"><title>Node48&#45;&gt;Node50</title>
<path fill="none" stroke="midnightblue" d="M78.2308,-22.5144C86.5204,-21.1081 95.3896,-19.6036 104.001,-18.1427"/>
<polygon fill="midnightblue" stroke="midnightblue" points="104.668,-21.5797 113.942,-16.4564 103.497,-14.6783 104.668,-21.5797"/>
</g>
</g>
</svg>
