<?xml version="1.0" encoding="UTF-8" standalone="no"?>
<!DOCTYPE svg PUBLIC "-//W3C//DTD SVG 1.1//EN"
 "http://www.w3.org/Graphics/SVG/1.1/DTD/svg11.dtd">
<!-- Generated by graphviz version 2.36.0 (20140111.2315)
 -->
<!-- Title: faceCompare2D Pages: 1 -->
<svg width="276pt" height="28pt"
 viewBox="0.00 0.00 276.00 28.00" xmlns="http://www.w3.org/2000/svg" xmlns:xlink="http://www.w3.org/1999/xlink">
<g id="graph0" class="graph" transform="scale(1 1) rotate(0) translate(4 24)">
<title>faceCompare2D</title>
<polygon fill="white" stroke="none" points="-4,4 -4,-24 272,-24 272,4 -4,4"/>
<!-- Node1 -->
<g id="node1" class="node"><title>Node1</title>
<polygon fill="#bfbfbf" stroke="black" points="0.5,-0.5 0.5,-19.5 89.5,-19.5 89.5,-0.5 0.5,-0.5"/>
<text text-anchor="middle" x="45" y="-7.5" font-family="Helvetica,sans-Serif" font-size="10.00">faceCompare2D</text>
</g>
<!-- Node2 -->
<g id="node2" class="node"><title>Node2</title>
<g id="a_node2"><a xlink:href="a00158.html#a73ad96b82acf2bf80fd24823a58b3f14" target="_top" xlink:title="FacePair2d">
<polygon fill="white" stroke="black" points="126,-0.5 126,-19.5 194,-19.5 194,-0.5 126,-0.5"/>
<text text-anchor="middle" x="160" y="-7.5" font-family="Helvetica,sans-Serif" font-size="10.00">FacePair2d</text>
</a>
</g>
</g>
<!-- Node1&#45;&gt;Node2 -->
<g id="edge1" class="edge"><title>Node1&#45;&gt;Node2</title>
<path fill="none" stroke="midnightblue" d="M99.7083,-10C108.661,-10 117.707,-10 125.944,-10"/>
<polygon fill="midnightblue" stroke="midnightblue" points="99.6888,-6.5001 89.6888,-10 99.6887,-13.5001 99.6888,-6.5001"/>
</g>
<!-- Node3 -->
<g id="node3" class="node"><title>Node3</title>
<g id="a_node3"><a xlink:href="a00146.html#a3c04138a5bfe5d72780bb7e82a18e627" target="_top" xlink:title="main">
<polygon fill="white" stroke="black" points="230,-0.5 230,-19.5 268,-19.5 268,-0.5 230,-0.5"/>
<text text-anchor="middle" x="249" y="-7.5" font-family="Helvetica,sans-Serif" font-size="10.00">main</text>
</a>
</g>
</g>
<!-- Node2&#45;&gt;Node3 -->
<g id="edge2" class="edge"><title>Node2&#45;&gt;Node3</title>
<path fill="none" stroke="midnightblue" d="M204.458,-10C213.452,-10 222.447,-10 229.908,-10"/>
<polygon fill="midnightblue" stroke="midnightblue" points="204.388,-6.5001 194.388,-10 204.388,-13.5001 204.388,-6.5001"/>
</g>
</g>
</svg>
