<?xml version="1.0" encoding="UTF-8" standalone="no"?>
<!DOCTYPE svg PUBLIC "-//W3C//DTD SVG 1.1//EN"
 "http://www.w3.org/Graphics/SVG/1.1/DTD/svg11.dtd">
<!-- Generated by graphviz version 2.36.0 (20140111.2315)
 -->
<!-- Title: IsConnected Pages: 1 -->
<svg width="370pt" height="28pt"
 viewBox="0.00 0.00 370.00 28.00" xmlns="http://www.w3.org/2000/svg" xmlns:xlink="http://www.w3.org/1999/xlink">
<g id="graph0" class="graph" transform="scale(1 1) rotate(0) translate(4 24)">
<title>IsConnected</title>
<polygon fill="white" stroke="none" points="-4,4 -4,-24 366,-24 366,4 -4,4"/>
<!-- Node19 -->
<g id="node1" class="node"><title>Node19</title>
<polygon fill="#bfbfbf" stroke="black" points="0.5,-0.5 0.5,-19.5 73.5,-19.5 73.5,-0.5 0.5,-0.5"/>
<text text-anchor="middle" x="37" y="-7.5" font-family="Helvetica,sans-Serif" font-size="10.00">IsConnected</text>
</g>
<!-- Node20 -->
<g id="node2" class="node"><title>Node20</title>
<g id="a_node2"><a xlink:href="a00188.html#a9fe01ab71e17df2db81db0ce0376cc96" target="_top" xlink:title="FindPartitionInducedComponents">
<polygon fill="white" stroke="black" points="110.5,-0.5 110.5,-19.5 275.5,-19.5 275.5,-0.5 110.5,-0.5"/>
<text text-anchor="middle" x="193" y="-7.5" font-family="Helvetica,sans-Serif" font-size="10.00">FindPartitionInducedComponents</text>
</a>
</g>
</g>
<!-- Node19&#45;&gt;Node20 -->
<g id="edge1" class="edge"><title>Node19&#45;&gt;Node20</title>
<path fill="none" stroke="midnightblue" d="M73.7178,-10C81.8743,-10 90.9082,-10 100.243,-10"/>
<polygon fill="midnightblue" stroke="midnightblue" points="100.462,-13.5001 110.462,-10 100.462,-6.5001 100.462,-13.5001"/>
</g>
<!-- Node21 -->
<g id="node3" class="node"><title>Node21</title>
<g id="a_node3"><a xlink:href="a00077.html#ac8df62c4e3d0910711a9874f9cc58884" target="_top" xlink:title="gk_free">
<polygon fill="white" stroke="black" points="312,-0.5 312,-19.5 362,-19.5 362,-0.5 312,-0.5"/>
<text text-anchor="middle" x="337" y="-7.5" font-family="Helvetica,sans-Serif" font-size="10.00">gk_free</text>
</a>
</g>
</g>
<!-- Node20&#45;&gt;Node21 -->
<g id="edge2" class="edge"><title>Node20&#45;&gt;Node21</title>
<path fill="none" stroke="midnightblue" d="M275.779,-10C284.953,-10 293.88,-10 301.931,-10"/>
<polygon fill="midnightblue" stroke="midnightblue" points="301.954,-13.5001 311.954,-10 301.954,-6.5001 301.954,-13.5001"/>
</g>
</g>
</svg>
