<?xml version="1.0" encoding="UTF-8" standalone="no"?>
<!DOCTYPE svg PUBLIC "-//W3C//DTD SVG 1.1//EN"
 "http://www.w3.org/Graphics/SVG/1.1/DTD/svg11.dtd">
<!-- Generated by graphviz version 2.36.0 (20140111.2315)
 -->
<!-- Title: ReadMesh2d_linear Pages: 1 -->
<svg width="228pt" height="142pt"
 viewBox="0.00 0.00 228.00 142.00" xmlns="http://www.w3.org/2000/svg" xmlns:xlink="http://www.w3.org/1999/xlink">
<g id="graph0" class="graph" transform="scale(1 1) rotate(0) translate(4 138)">
<title>ReadMesh2d_linear</title>
<polygon fill="white" stroke="none" points="-4,4 -4,-138 224,-138 224,4 -4,4"/>
<!-- Node21 -->
<g id="node1" class="node"><title>Node21</title>
<polygon fill="#bfbfbf" stroke="black" points="0,-57.5 0,-76.5 106,-76.5 106,-57.5 0,-57.5"/>
<text text-anchor="middle" x="53" y="-64.5" font-family="Helvetica,sans-Serif" font-size="10.00">ReadMesh2d_linear</text>
</g>
<!-- Node22 -->
<g id="node2" class="node"><title>Node22</title>
<g id="a_node2"><a xlink:href="a00116.html#a990278305dbeaf8e4441cf4146bfdc62" target="_top" xlink:title="BuildVector">
<polygon fill="white" stroke="black" points="147,-114.5 147,-133.5 215,-133.5 215,-114.5 147,-114.5"/>
<text text-anchor="middle" x="181" y="-121.5" font-family="Helvetica,sans-Serif" font-size="10.00">BuildVector</text>
</a>
</g>
</g>
<!-- Node21&#45;&gt;Node22 -->
<g id="edge1" class="edge"><title>Node21&#45;&gt;Node22</title>
<path fill="none" stroke="midnightblue" d="M75.0896,-76.5405C95.4411,-85.7472 126.472,-99.7847 149.511,-110.207"/>
<polygon fill="midnightblue" stroke="midnightblue" points="148.288,-113.496 158.842,-114.428 151.173,-107.118 148.288,-113.496"/>
</g>
<!-- Node23 -->
<g id="node3" class="node"><title>Node23</title>
<g id="a_node3"><a xlink:href="a00116.html#a77f751d54b396015520a882d7a318e57" target="_top" xlink:title="BuildIntMatrix">
<polygon fill="white" stroke="black" points="142.5,-76.5 142.5,-95.5 219.5,-95.5 219.5,-76.5 142.5,-76.5"/>
<text text-anchor="middle" x="181" y="-83.5" font-family="Helvetica,sans-Serif" font-size="10.00">BuildIntMatrix</text>
</a>
</g>
</g>
<!-- Node21&#45;&gt;Node23 -->
<g id="edge2" class="edge"><title>Node21&#45;&gt;Node23</title>
<path fill="none" stroke="midnightblue" d="M106.341,-74.8926C114.897,-76.1829 123.724,-77.5139 132.164,-78.7866"/>
<polygon fill="midnightblue" stroke="midnightblue" points="131.814,-82.2733 142.224,-80.3036 132.858,-75.3516 131.814,-82.2733"/>
</g>
<!-- Node24 -->
<g id="node4" class="node"><title>Node24</title>
<g id="a_node4"><a xlink:href="a00116.html#a4bf6e503687187059ced10b812beaab3" target="_top" xlink:title="BuildMatrix">
<polygon fill="white" stroke="black" points="148,-38.5 148,-57.5 214,-57.5 214,-38.5 148,-38.5"/>
<text text-anchor="middle" x="181" y="-45.5" font-family="Helvetica,sans-Serif" font-size="10.00">BuildMatrix</text>
</a>
</g>
</g>
<!-- Node21&#45;&gt;Node24 -->
<g id="edge3" class="edge"><title>Node21&#45;&gt;Node24</title>
<path fill="none" stroke="midnightblue" d="M106.341,-59.1074C116.779,-57.5334 127.619,-55.8988 137.669,-54.3832"/>
<polygon fill="midnightblue" stroke="midnightblue" points="138.441,-57.8065 147.807,-52.8544 137.397,-50.8847 138.441,-57.8065"/>
</g>
<!-- Node25 -->
<g id="node5" class="node"><title>Node25</title>
<g id="a_node5"><a xlink:href="a00237.html#a355ed4cdac2a27aa04a6689ac2d7e86e" target="_top" xlink:title="fclose">
<polygon fill="white" stroke="black" points="159.5,-0.5 159.5,-19.5 202.5,-19.5 202.5,-0.5 159.5,-0.5"/>
<text text-anchor="middle" x="181" y="-7.5" font-family="Helvetica,sans-Serif" font-size="10.00">fclose</text>
</a>
</g>
</g>
<!-- Node21&#45;&gt;Node25 -->
<g id="edge4" class="edge"><title>Node21&#45;&gt;Node25</title>
<path fill="none" stroke="midnightblue" d="M75.0896,-57.4595C95.5637,-48.1974 126.846,-34.046 149.927,-23.6046"/>
<polygon fill="midnightblue" stroke="midnightblue" points="151.592,-26.6926 159.261,-19.382 148.707,-20.3148 151.592,-26.6926"/>
</g>
</g>
</svg>
