<?xml version="1.0" encoding="UTF-8" standalone="no"?>
<!DOCTYPE svg PUBLIC "-//W3C//DTD SVG 1.1//EN"
 "http://www.w3.org/Graphics/SVG/1.1/DTD/svg11.dtd">
<!-- Generated by graphviz version 2.36.0 (20140111.2315)
 -->
<!-- Title: SelectQueue Pages: 1 -->
<svg width="366pt" height="28pt"
 viewBox="0.00 0.00 366.00 28.00" xmlns="http://www.w3.org/2000/svg" xmlns:xlink="http://www.w3.org/1999/xlink">
<g id="graph0" class="graph" transform="scale(1 1) rotate(0) translate(4 24)">
<title>SelectQueue</title>
<polygon fill="white" stroke="none" points="-4,4 -4,-24 362,-24 362,4 -4,4"/>
<!-- Node21 -->
<g id="node1" class="node"><title>Node21</title>
<polygon fill="#bfbfbf" stroke="black" points="0,-0.5 0,-19.5 74,-19.5 74,-0.5 0,-0.5"/>
<text text-anchor="middle" x="37" y="-7.5" font-family="Helvetica,sans-Serif" font-size="10.00">SelectQueue</text>
</g>
<!-- Node22 -->
<g id="node2" class="node"><title>Node22</title>
<g id="a_node2"><a xlink:href="a00948.html#aaa49d065f964af00512da0c4b3d4cad6" target="_top" xlink:title="FM_Mc2WayCutRefine">
<polygon fill="white" stroke="black" points="110,-0.5 110,-19.5 230,-19.5 230,-0.5 110,-0.5"/>
<text text-anchor="middle" x="170" y="-7.5" font-family="Helvetica,sans-Serif" font-size="10.00">FM_Mc2WayCutRefine</text>
</a>
</g>
</g>
<!-- Node21&#45;&gt;Node22 -->
<g id="edge1" class="edge"><title>Node21&#45;&gt;Node22</title>
<path fill="none" stroke="midnightblue" d="M84.3183,-10C92.5748,-10 101.277,-10 109.834,-10"/>
<polygon fill="midnightblue" stroke="midnightblue" points="84.1431,-6.5001 74.1431,-10 84.1431,-13.5001 84.1431,-6.5001"/>
</g>
<!-- Node23 -->
<g id="node3" class="node"><title>Node23</title>
<g id="a_node3"><a xlink:href="a00948.html#a1ffe9ee55eb23e345beb5da3e67c501a" target="_top" xlink:title="FM_2WayRefine">
<polygon fill="white" stroke="black" points="266.5,-0.5 266.5,-19.5 357.5,-19.5 357.5,-0.5 266.5,-0.5"/>
<text text-anchor="middle" x="312" y="-7.5" font-family="Helvetica,sans-Serif" font-size="10.00">FM_2WayRefine</text>
</a>
</g>
</g>
<!-- Node22&#45;&gt;Node23 -->
<g id="edge2" class="edge"><title>Node22&#45;&gt;Node23</title>
<path fill="none" stroke="midnightblue" d="M240.629,-10C249.397,-10 258.172,-10 266.405,-10"/>
<polygon fill="midnightblue" stroke="midnightblue" points="240.373,-6.5001 230.373,-10 240.373,-13.5001 240.373,-6.5001"/>
</g>
</g>
</svg>
