<?xml version="1.0" encoding="UTF-8" standalone="no"?>
<!DOCTYPE svg PUBLIC "-//W3C//DTD SVG 1.1//EN"
 "http://www.w3.org/Graphics/SVG/1.1/DTD/svg11.dtd">
<!-- Generated by graphviz version 2.36.0 (20140111.2315)
 -->
<!-- Title: face Pages: 1 -->
<svg width="222pt" height="28pt"
 viewBox="0.00 0.00 222.00 28.00" xmlns="http://www.w3.org/2000/svg" xmlns:xlink="http://www.w3.org/1999/xlink">
<g id="graph0" class="graph" transform="scale(1 1) rotate(0) translate(4 24)">
<title>face</title>
<polygon fill="white" stroke="none" points="-4,4 -4,-24 218,-24 218,4 -4,4"/>
<!-- Node1 -->
<g id="node1" class="node"><title>Node1</title>
<polygon fill="#bfbfbf" stroke="black" points="0.5,-0.5 0.5,-19.5 35.5,-19.5 35.5,-0.5 0.5,-0.5"/>
<text text-anchor="middle" x="18" y="-7.5" font-family="Helvetica,sans-Serif" font-size="10.00">face</text>
</g>
<!-- Node2 -->
<g id="node2" class="node"><title>Node2</title>
<g id="a_node2"><a xlink:href="a00146.html#a73ad96b82acf2bf80fd24823a58b3f14" target="_top" xlink:title="FacePair2d">
<polygon fill="white" stroke="black" points="72,-0.5 72,-19.5 140,-19.5 140,-0.5 72,-0.5"/>
<text text-anchor="middle" x="106" y="-7.5" font-family="Helvetica,sans-Serif" font-size="10.00">FacePair2d</text>
</a>
</g>
</g>
<!-- Node1&#45;&gt;Node2 -->
<g id="edge1" class="edge"><title>Node1&#45;&gt;Node2</title>
<path fill="none" stroke="midnightblue" d="M45.7369,-10C53.9649,-10 63.1246,-10 71.7348,-10"/>
<polygon fill="midnightblue" stroke="midnightblue" points="45.5817,-6.5001 35.5817,-10 45.5816,-13.5001 45.5817,-6.5001"/>
</g>
<!-- Node3 -->
<g id="node3" class="node"><title>Node3</title>
<g id="a_node3"><a xlink:href="a00134.html#a3c04138a5bfe5d72780bb7e82a18e627" target="_top" xlink:title="main">
<polygon fill="white" stroke="black" points="176,-0.5 176,-19.5 214,-19.5 214,-0.5 176,-0.5"/>
<text text-anchor="middle" x="195" y="-7.5" font-family="Helvetica,sans-Serif" font-size="10.00">main</text>
</a>
</g>
</g>
<!-- Node2&#45;&gt;Node3 -->
<g id="edge2" class="edge"><title>Node2&#45;&gt;Node3</title>
<path fill="none" stroke="midnightblue" d="M150.458,-10C159.452,-10 168.447,-10 175.908,-10"/>
<polygon fill="midnightblue" stroke="midnightblue" points="150.388,-6.5001 140.388,-10 150.388,-13.5001 150.388,-6.5001"/>
</g>
</g>
</svg>
