<?xml version="1.0" encoding="UTF-8" standalone="no"?>
<!DOCTYPE svg PUBLIC "-//W3C//DTD SVG 1.1//EN"
 "http://www.w3.org/Graphics/SVG/1.1/DTD/svg11.dtd">
<!-- Generated by graphviz version 2.36.0 (20140111.2315)
 -->
<!-- Title: gk_strtokenize Pages: 1 -->
<svg width="526pt" height="125pt"
 viewBox="0.00 0.00 526.00 124.90" xmlns="http://www.w3.org/2000/svg" xmlns:xlink="http://www.w3.org/1999/xlink">
<g id="graph0" class="graph" transform="scale(1 1) rotate(0) translate(4 120.901)">
<title>gk_strtokenize</title>
<polygon fill="white" stroke="none" points="-4,4 -4,-120.901 522,-120.901 522,4 -4,4"/>
<!-- Node4 -->
<g id="node1" class="node"><title>Node4</title>
<polygon fill="#bfbfbf" stroke="black" points="0.5,-57.5 0.5,-76.5 81.5,-76.5 81.5,-57.5 0.5,-57.5"/>
<text text-anchor="middle" x="41" y="-64.5" font-family="Helvetica,sans-Serif" font-size="10.00">gk_strtokenize</text>
</g>
<!-- Node5 -->
<g id="node2" class="node"><title>Node5</title>
<g id="a_node2"><a xlink:href="a00077.html#af62038e97ca55f14ec2557a01bd85ca2" target="_top" xlink:title="Duplicates a string. ">
<polygon fill="white" stroke="black" points="118,-76.5 118,-95.5 178,-95.5 178,-76.5 118,-76.5"/>
<text text-anchor="middle" x="148" y="-83.5" font-family="Helvetica,sans-Serif" font-size="10.00">gk_strdup</text>
</a>
</g>
</g>
<!-- Node4&#45;&gt;Node5 -->
<g id="edge1" class="edge"><title>Node4&#45;&gt;Node5</title>
<path fill="none" stroke="midnightblue" d="M81.696,-74.1831C90.2012,-75.7221 99.1839,-77.3476 107.675,-78.884"/>
<polygon fill="midnightblue" stroke="midnightblue" points="107.26,-82.3657 117.723,-80.7023 108.506,-75.4776 107.26,-82.3657"/>
</g>
<!-- Node6 -->
<g id="node3" class="node"><title>Node6</title>
<g id="a_node3"><a xlink:href="a00077.html#aba6f76f5c67b9b7e9c2e45988d3d3e9d" target="_top" xlink:title="gk_malloc">
<polygon fill="white" stroke="black" points="214,-57.5 214,-76.5 276,-76.5 276,-57.5 214,-57.5"/>
<text text-anchor="middle" x="245" y="-64.5" font-family="Helvetica,sans-Serif" font-size="10.00">gk_malloc</text>
</a>
</g>
</g>
<!-- Node4&#45;&gt;Node6 -->
<g id="edge8" class="edge"><title>Node4&#45;&gt;Node6</title>
<path fill="none" stroke="midnightblue" d="M81.9087,-67C117.024,-67 167.92,-67 203.277,-67"/>
<polygon fill="midnightblue" stroke="midnightblue" points="203.716,-70.5001 213.716,-67 203.716,-63.5001 203.716,-70.5001"/>
</g>
<!-- Node5&#45;&gt;Node6 -->
<g id="edge2" class="edge"><title>Node5&#45;&gt;Node6</title>
<path fill="none" stroke="midnightblue" d="M178.019,-80.1961C186.177,-78.5646 195.196,-76.7608 203.878,-75.0244"/>
<polygon fill="midnightblue" stroke="midnightblue" points="204.724,-78.4246 213.844,-73.0313 203.351,-71.5605 204.724,-78.4246"/>
</g>
<!-- Node7 -->
<g id="node4" class="node"><title>Node7</title>
<g id="a_node4"><a xlink:href="a01017.html#a2e311a777ffe9c80e405efa7cd2757be" target="_top" xlink:title="fprintf">
<polygon fill="white" stroke="black" points="476,-57.5 476,-76.5 518,-76.5 518,-57.5 476,-57.5"/>
<text text-anchor="middle" x="497" y="-64.5" font-family="Helvetica,sans-Serif" font-size="10.00">fprintf</text>
</a>
</g>
</g>
<!-- Node6&#45;&gt;Node7 -->
<g id="edge3" class="edge"><title>Node6&#45;&gt;Node7</title>
<path fill="none" stroke="midnightblue" d="M258.261,-76.7187C270.891,-86.0589 291.563,-99.5369 312,-105 366.959,-119.691 385.62,-121.709 440,-105 454.039,-100.686 467.719,-91.5255 478.044,-83.2793"/>
<polygon fill="midnightblue" stroke="midnightblue" points="480.469,-85.8134 485.862,-76.6941 475.959,-80.4595 480.469,-85.8134"/>
</g>
<!-- Node8 -->
<g id="node5" class="node"><title>Node8</title>
<g id="a_node5"><a xlink:href="a00110.html#ad2327b94227019b6753b6b09400c0522" target="_top" xlink:title="gk_GetCurMemoryUsed">
<polygon fill="white" stroke="black" points="314,-76.5 314,-95.5 438,-95.5 438,-76.5 314,-76.5"/>
<text text-anchor="middle" x="376" y="-83.5" font-family="Helvetica,sans-Serif" font-size="10.00">gk_GetCurMemoryUsed</text>
</a>
</g>
</g>
<!-- Node6&#45;&gt;Node8 -->
<g id="edge4" class="edge"><title>Node6&#45;&gt;Node8</title>
<path fill="none" stroke="midnightblue" d="M276.245,-71.4547C284.646,-72.692 294.139,-74.0903 303.836,-75.5184"/>
<polygon fill="midnightblue" stroke="midnightblue" points="303.573,-79.0175 313.977,-77.0121 304.593,-72.0922 303.573,-79.0175"/>
</g>
<!-- Node9 -->
<g id="node6" class="node"><title>Node9</title>
<g id="a_node6"><a xlink:href="a00110.html#a656fd5266ae12a96e53125486f8fea52" target="_top" xlink:title="gk_GetMaxMemoryUsed">
<polygon fill="white" stroke="black" points="312.5,-38.5 312.5,-57.5 439.5,-57.5 439.5,-38.5 312.5,-38.5"/>
<text text-anchor="middle" x="376" y="-45.5" font-family="Helvetica,sans-Serif" font-size="10.00">gk_GetMaxMemoryUsed</text>
</a>
</g>
</g>
<!-- Node6&#45;&gt;Node9 -->
<g id="edge5" class="edge"><title>Node6&#45;&gt;Node9</title>
<path fill="none" stroke="midnightblue" d="M276.245,-62.5453C284.229,-61.3693 293.2,-60.048 302.395,-58.6938"/>
<polygon fill="midnightblue" stroke="midnightblue" points="303.04,-62.1366 312.423,-57.2167 302.02,-55.2113 303.04,-62.1366"/>
</g>
<!-- Node10 -->
<g id="node7" class="node"><title>Node10</title>
<g id="a_node7"><a xlink:href="a00026.html#a4c320c13bcdc9967613253ef4c73f59f" target="_top" xlink:title="gk_errexit">
<polygon fill="white" stroke="black" points="346,-0.5 346,-19.5 406,-19.5 406,-0.5 346,-0.5"/>
<text text-anchor="middle" x="376" y="-7.5" font-family="Helvetica,sans-Serif" font-size="10.00">gk_errexit</text>
</a>
</g>
</g>
<!-- Node6&#45;&gt;Node10 -->
<g id="edge6" class="edge"><title>Node6&#45;&gt;Node10</title>
<path fill="none" stroke="midnightblue" d="M260.436,-57.3905C273.481,-49.027 293.428,-37.0202 312,-29 319.68,-25.6834 328.121,-22.7096 336.259,-20.1539"/>
<polygon fill="midnightblue" stroke="midnightblue" points="337.388,-23.4695 345.965,-17.2488 335.381,-16.7634 337.388,-23.4695"/>
</g>
<!-- Node10&#45;&gt;Node7 -->
<g id="edge7" class="edge"><title>Node10&#45;&gt;Node7</title>
<path fill="none" stroke="midnightblue" d="M406.228,-16.8252C417.104,-19.8755 429.377,-23.9396 440,-29 452.634,-35.0184 465.634,-43.6626 475.925,-51.1863"/>
<polygon fill="midnightblue" stroke="midnightblue" points="474.101,-54.1937 484.194,-57.4154 478.313,-48.6027 474.101,-54.1937"/>
</g>
</g>
</svg>
