<?xml version="1.0" encoding="UTF-8" standalone="no"?>
<!DOCTYPE svg PUBLIC "-//W3C//DTD SVG 1.1//EN"
 "http://www.w3.org/Graphics/SVG/1.1/DTD/svg11.dtd">
<!-- Generated by graphviz version 2.36.0 (20140111.2315)
 -->
<!-- Title: gk_writebackbone Pages: 1 -->
<svg width="358pt" height="142pt"
 viewBox="0.00 0.00 358.00 142.00" xmlns="http://www.w3.org/2000/svg" xmlns:xlink="http://www.w3.org/1999/xlink">
<g id="graph0" class="graph" transform="scale(1 1) rotate(0) translate(4 138)">
<title>gk_writebackbone</title>
<polygon fill="white" stroke="none" points="-4,4 -4,-138 354,-138 354,4 -4,4"/>
<!-- Node28 -->
<g id="node1" class="node"><title>Node28</title>
<polygon fill="#bfbfbf" stroke="black" points="0.5,-38.5 0.5,-57.5 97.5,-57.5 97.5,-38.5 0.5,-38.5"/>
<text text-anchor="middle" x="49" y="-45.5" font-family="Helvetica,sans-Serif" font-size="10.00">gk_writebackbone</text>
</g>
<!-- Node29 -->
<g id="node2" class="node"><title>Node29</title>
<g id="a_node2"><a xlink:href="$a00077.html#ab2b996e10c5bccb30204d81804adfd24" xlink:title="gk_fopen">
<polygon fill="white" stroke="black" points="134,-76.5 134,-95.5 192,-95.5 192,-76.5 134,-76.5"/>
<text text-anchor="middle" x="163" y="-83.5" font-family="Helvetica,sans-Serif" font-size="10.00">gk_fopen</text>
</a>
</g>
</g>
<!-- Node28&#45;&gt;Node29 -->
<g id="edge1" class="edge"><title>Node28&#45;&gt;Node29</title>
<path fill="none" stroke="midnightblue" d="M78.2623,-57.589C92.1899,-62.3144 109.18,-68.0789 124.207,-73.1774"/>
<polygon fill="midnightblue" stroke="midnightblue" points="123.152,-76.5155 133.747,-76.4141 125.401,-69.8866 123.152,-76.5155"/>
</g>
<!-- Node32 -->
<g id="node5" class="node"><title>Node32</title>
<g id="a_node5"><a xlink:href="$a01017.html#a2e311a777ffe9c80e405efa7cd2757be" xlink:title="fprintf">
<polygon fill="white" stroke="black" points="308,-57.5 308,-76.5 350,-76.5 350,-57.5 308,-57.5"/>
<text text-anchor="middle" x="329" y="-64.5" font-family="Helvetica,sans-Serif" font-size="10.00">fprintf</text>
</a>
</g>
</g>
<!-- Node28&#45;&gt;Node32 -->
<g id="edge5" class="edge"><title>Node28&#45;&gt;Node32</title>
<path fill="none" stroke="midnightblue" d="M97.7899,-51.2662C155.088,-55.1823 249.407,-61.6285 297.597,-64.9221"/>
<polygon fill="midnightblue" stroke="midnightblue" points="297.488,-68.4227 307.703,-65.6128 297.965,-61.439 297.488,-68.4227"/>
</g>
<!-- Node33 -->
<g id="node6" class="node"><title>Node33</title>
<g id="a_node6"><a xlink:href="$a01017.html#a355ed4cdac2a27aa04a6689ac2d7e86e" xlink:title="fclose">
<polygon fill="white" stroke="black" points="141.5,-0.5 141.5,-19.5 184.5,-19.5 184.5,-0.5 141.5,-0.5"/>
<text text-anchor="middle" x="163" y="-7.5" font-family="Helvetica,sans-Serif" font-size="10.00">fclose</text>
</a>
</g>
</g>
<!-- Node28&#45;&gt;Node33 -->
<g id="edge6" class="edge"><title>Node28&#45;&gt;Node33</title>
<path fill="none" stroke="midnightblue" d="M78.2623,-38.411C94.4691,-32.9123 114.823,-26.0066 131.405,-20.3805"/>
<polygon fill="midnightblue" stroke="midnightblue" points="132.826,-23.5942 141.172,-17.0668 130.577,-16.9654 132.826,-23.5942"/>
</g>
<!-- Node30 -->
<g id="node3" class="node"><title>Node30</title>
<g id="a_node3"><a xlink:href="$a00575.html#ae6aab5c308faac0fc539cc9c6da9fbd0" xlink:title="sprintf">
<polygon fill="white" stroke="black" points="228,-114.5 228,-133.5 272,-133.5 272,-114.5 228,-114.5"/>
<text text-anchor="middle" x="250" y="-121.5" font-family="Helvetica,sans-Serif" font-size="10.00">sprintf</text>
</a>
</g>
</g>
<!-- Node29&#45;&gt;Node30 -->
<g id="edge2" class="edge"><title>Node29&#45;&gt;Node30</title>
<path fill="none" stroke="midnightblue" d="M185.449,-95.589C195.491,-100.078 207.631,-105.506 218.598,-110.409"/>
<polygon fill="midnightblue" stroke="midnightblue" points="217.295,-113.66 227.852,-114.546 220.151,-107.269 217.295,-113.66"/>
</g>
<!-- Node31 -->
<g id="node4" class="node"><title>Node31</title>
<g id="a_node4"><a xlink:href="$a00026.html#a56d0f2cc40cd8633a784582d6200d8b5" xlink:title="errexit">
<polygon fill="white" stroke="black" points="228,-76.5 228,-95.5 272,-95.5 272,-76.5 228,-76.5"/>
<text text-anchor="middle" x="250" y="-83.5" font-family="Helvetica,sans-Serif" font-size="10.00">errexit</text>
</a>
</g>
</g>
<!-- Node29&#45;&gt;Node31 -->
<g id="edge3" class="edge"><title>Node29&#45;&gt;Node31</title>
<path fill="none" stroke="midnightblue" d="M192.304,-86C200.453,-86 209.39,-86 217.709,-86"/>
<polygon fill="midnightblue" stroke="midnightblue" points="217.811,-89.5001 227.811,-86 217.811,-82.5001 217.811,-89.5001"/>
</g>
<!-- Node31&#45;&gt;Node32 -->
<g id="edge4" class="edge"><title>Node31&#45;&gt;Node32</title>
<path fill="none" stroke="midnightblue" d="M272.041,-80.8082C280.042,-78.8339 289.319,-76.5446 297.992,-74.4047"/>
<polygon fill="midnightblue" stroke="midnightblue" points="298.911,-77.7828 307.782,-71.9889 297.234,-70.9866 298.911,-77.7828"/>
</g>
</g>
</svg>
