<?xml version="1.0" encoding="UTF-8" standalone="no"?>
<!DOCTYPE svg PUBLIC "-//W3C//DTD SVG 1.1//EN"
 "http://www.w3.org/Graphics/SVG/1.1/DTD/svg11.dtd">
<!-- Generated by graphviz version 2.36.0 (20140111.2315)
 -->
<!-- Title: BuildMaps2d Pages: 1 -->
<svg width="198pt" height="66pt"
 viewBox="0.00 0.00 198.00 66.00" xmlns="http://www.w3.org/2000/svg" xmlns:xlink="http://www.w3.org/1999/xlink">
<g id="graph0" class="graph" transform="scale(1 1) rotate(0) translate(4 62)">
<title>BuildMaps2d</title>
<polygon fill="white" stroke="none" points="-4,4 -4,-62 194,-62 194,4 -4,4"/>
<!-- Node33 -->
<g id="node1" class="node"><title>Node33</title>
<polygon fill="#bfbfbf" stroke="black" points="0,-19.5 0,-38.5 74,-38.5 74,-19.5 0,-19.5"/>
<text text-anchor="middle" x="37" y="-26.5" font-family="Helvetica,sans-Serif" font-size="10.00">BuildMaps2d</text>
</g>
<!-- Node34 -->
<g id="node2" class="node"><title>Node34</title>
<g id="a_node2"><a xlink:href="a00155.html#a0f24d8056fa979af4888469ea90576ff" target="_top" xlink:title="BuildIntVector">
<polygon fill="white" stroke="black" points="110.5,-38.5 110.5,-57.5 189.5,-57.5 189.5,-38.5 110.5,-38.5"/>
<text text-anchor="middle" x="150" y="-45.5" font-family="Helvetica,sans-Serif" font-size="10.00">BuildIntVector</text>
</a>
</g>
</g>
<!-- Node33&#45;&gt;Node34 -->
<g id="edge1" class="edge"><title>Node33&#45;&gt;Node34</title>
<path fill="none" stroke="midnightblue" d="M74.0385,-35.1688C82.5014,-36.6174 91.6555,-38.1843 100.563,-39.709"/>
<polygon fill="midnightblue" stroke="midnightblue" points="100.018,-43.1665 110.465,-41.4039 101.199,-36.2668 100.018,-43.1665"/>
</g>
<!-- Node35 -->
<g id="node3" class="node"><title>Node35</title>
<g id="a_node3"><a xlink:href="a00155.html#a6e05f4bc3238ae8e045ddc269dd77f74" target="_top" xlink:title="Normals2d">
<polygon fill="white" stroke="black" points="117.5,-0.5 117.5,-19.5 182.5,-19.5 182.5,-0.5 117.5,-0.5"/>
<text text-anchor="middle" x="150" y="-7.5" font-family="Helvetica,sans-Serif" font-size="10.00">Normals2d</text>
</a>
</g>
</g>
<!-- Node33&#45;&gt;Node35 -->
<g id="edge2" class="edge"><title>Node33&#45;&gt;Node35</title>
<path fill="none" stroke="midnightblue" d="M74.0385,-22.8312C84.5924,-21.0247 96.2212,-19.0342 107.106,-17.171"/>
<polygon fill="midnightblue" stroke="midnightblue" points="107.988,-20.571 117.255,-15.4339 106.807,-13.6713 107.988,-20.571"/>
</g>
</g>
</svg>
