<?xml version="1.0" encoding="UTF-8" standalone="no"?>
<!DOCTYPE svg PUBLIC "-//W3C//DTD SVG 1.1//EN"
 "http://www.w3.org/Graphics/SVG/1.1/DTD/svg11.dtd">
<!-- Generated by graphviz version 2.36.0 (20140111.2315)
 -->
<!-- Title: write_vtu Pages: 1 -->
<svg width="238pt" height="28pt"
 viewBox="0.00 0.00 238.00 28.00" xmlns="http://www.w3.org/2000/svg" xmlns:xlink="http://www.w3.org/1999/xlink">
<g id="graph0" class="graph" transform="scale(1 1) rotate(0) translate(4 24)">
<title>write_vtu</title>
<polygon fill="white" stroke="none" points="-4,4 -4,-24 234,-24 234,4 -4,4"/>
<!-- Node230 -->
<g id="node1" class="node"><title>Node230</title>
<polygon fill="#bfbfbf" stroke="black" points="0.5,-0.5 0.5,-19.5 57.5,-19.5 57.5,-0.5 0.5,-0.5"/>
<text text-anchor="middle" x="29" y="-7.5" font-family="Helvetica,sans-Serif" font-size="10.00">write_vtu</text>
</g>
<!-- Node231 -->
<g id="node2" class="node"><title>Node231</title>
<g id="a_node2"><a xlink:href="a00164.html#a21a02761bc746f8e6205d02f662aee16" target="_top" xlink:title="rk_run_2d">
<polygon fill="white" stroke="black" points="94,-0.5 94,-19.5 156,-19.5 156,-0.5 94,-0.5"/>
<text text-anchor="middle" x="125" y="-7.5" font-family="Helvetica,sans-Serif" font-size="10.00">rk_run_2d</text>
</a>
</g>
</g>
<!-- Node230&#45;&gt;Node231 -->
<g id="edge1" class="edge"><title>Node230&#45;&gt;Node231</title>
<path fill="none" stroke="midnightblue" d="M67.9321,-10C76.565,-10 85.6221,-10 93.878,-10"/>
<polygon fill="midnightblue" stroke="midnightblue" points="67.6947,-6.5001 57.6947,-10 67.6947,-13.5001 67.6947,-6.5001"/>
</g>
<!-- Node232 -->
<g id="node3" class="node"><title>Node232</title>
<g id="a_node3"><a xlink:href="a00146.html#a3c04138a5bfe5d72780bb7e82a18e627" target="_top" xlink:title="main">
<polygon fill="white" stroke="black" points="192,-0.5 192,-19.5 230,-19.5 230,-0.5 192,-0.5"/>
<text text-anchor="middle" x="211" y="-7.5" font-family="Helvetica,sans-Serif" font-size="10.00">main</text>
</a>
</g>
</g>
<!-- Node231&#45;&gt;Node232 -->
<g id="edge2" class="edge"><title>Node231&#45;&gt;Node232</title>
<path fill="none" stroke="midnightblue" d="M166.544,-10C175.361,-10 184.264,-10 191.696,-10"/>
<polygon fill="midnightblue" stroke="midnightblue" points="166.326,-6.5001 156.326,-10 166.326,-13.5001 166.326,-6.5001"/>
</g>
</g>
</svg>
