<?xml version="1.0" encoding="UTF-8" standalone="no"?>
<!DOCTYPE svg PUBLIC "-//W3C//DTD SVG 1.1//EN"
 "http://www.w3.org/Graphics/SVG/1.1/DTD/svg11.dtd">
<!-- Generated by graphviz version 2.36.0 (20140111.2315)
 -->
<!-- Title: test_dkvsort Pages: 1 -->
<svg width="184pt" height="66pt"
 viewBox="0.00 0.00 184.00 66.00" xmlns="http://www.w3.org/2000/svg" xmlns:xlink="http://www.w3.org/1999/xlink">
<g id="graph0" class="graph" transform="scale(1 1) rotate(0) translate(4 62)">
<title>test_dkvsort</title>
<polygon fill="white" stroke="none" points="-4,4 -4,-62 180,-62 180,4 -4,4"/>
<!-- Node33 -->
<g id="node1" class="node"><title>Node33</title>
<polygon fill="#bfbfbf" stroke="black" points="0,-19.5 0,-38.5 70,-38.5 70,-19.5 0,-19.5"/>
<text text-anchor="middle" x="35" y="-26.5" font-family="Helvetica,sans-Serif" font-size="10.00">test_dkvsort</text>
</g>
<!-- Node34 -->
<g id="node2" class="node"><title>Node34</title>
<g id="a_node2"><a xlink:href="$a00077.html#a463fd9b2f6adc1b05983f90eb398bd10" xlink:title="gk_dkvsorti">
<polygon fill="white" stroke="black" points="107.5,-38.5 107.5,-57.5 174.5,-57.5 174.5,-38.5 107.5,-38.5"/>
<text text-anchor="middle" x="141" y="-45.5" font-family="Helvetica,sans-Serif" font-size="10.00">gk_dkvsorti</text>
</a>
</g>
</g>
<!-- Node33&#45;&gt;Node34 -->
<g id="edge1" class="edge"><title>Node33&#45;&gt;Node34</title>
<path fill="none" stroke="midnightblue" d="M70.0535,-35.2213C78.7479,-36.8097 88.2052,-38.5375 97.2736,-40.1942"/>
<polygon fill="midnightblue" stroke="midnightblue" points="96.8193,-43.6691 107.286,-42.0233 98.0774,-36.783 96.8193,-43.6691"/>
</g>
<!-- Node35 -->
<g id="node3" class="node"><title>Node35</title>
<g id="a_node3"><a xlink:href="$a00077.html#ac5138047355892676b7cb38afcfa8361" xlink:title="gk_dkvsortd">
<polygon fill="white" stroke="black" points="106,-0.5 106,-19.5 176,-19.5 176,-0.5 106,-0.5"/>
<text text-anchor="middle" x="141" y="-7.5" font-family="Helvetica,sans-Serif" font-size="10.00">gk_dkvsortd</text>
</a>
</g>
</g>
<!-- Node33&#45;&gt;Node35 -->
<g id="edge2" class="edge"><title>Node33&#45;&gt;Node35</title>
<path fill="none" stroke="midnightblue" d="M70.0535,-22.7787C78.3137,-21.2696 87.2626,-19.6347 95.9125,-18.0545"/>
<polygon fill="midnightblue" stroke="midnightblue" points="96.6619,-21.4756 105.87,-16.2353 95.4038,-14.5895 96.6619,-21.4756"/>
</g>
</g>
</svg>
