<?xml version="1.0" encoding="UTF-8" standalone="no"?>
<!DOCTYPE svg PUBLIC "-//W3C//DTD SVG 1.1//EN"
 "http://www.w3.org/Graphics/SVG/1.1/DTD/svg11.dtd">
<!-- Generated by graphviz version 2.36.0 (20140111.2315)
 -->
<!-- Title: CreateCoarseGraphNoMask Pages: 1 -->
<svg width="1276pt" height="102pt"
 viewBox="0.00 0.00 1276.00 102.00" xmlns="http://www.w3.org/2000/svg" xmlns:xlink="http://www.w3.org/1999/xlink">
<g id="graph0" class="graph" transform="scale(1 1) rotate(0) translate(4 98)">
<title>CreateCoarseGraphNoMask</title>
<polygon fill="white" stroke="none" points="-4,4 -4,-98 1272,-98 1272,4 -4,4"/>
<!-- Node53 -->
<g id="node1" class="node"><title>Node53</title>
<polygon fill="#bfbfbf" stroke="black" points="0.5,-47.5 0.5,-66.5 143.5,-66.5 143.5,-47.5 0.5,-47.5"/>
<text text-anchor="middle" x="72" y="-54.5" font-family="Helvetica,sans-Serif" font-size="10.00">CreateCoarseGraphNoMask</text>
</g>
<!-- Node54 -->
<g id="node2" class="node"><title>Node54</title>
<g id="a_node2"><a xlink:href="a00948.html#aac8820421b1c25698140c1b470c50e07" target="_top" xlink:title="CreateCoarseGraph">
<polygon fill="white" stroke="black" points="180.5,-47.5 180.5,-66.5 287.5,-66.5 287.5,-47.5 180.5,-47.5"/>
<text text-anchor="middle" x="234" y="-54.5" font-family="Helvetica,sans-Serif" font-size="10.00">CreateCoarseGraph</text>
</a>
</g>
</g>
<!-- Node53&#45;&gt;Node54 -->
<g id="edge1" class="edge"><title>Node53&#45;&gt;Node54</title>
<path fill="none" stroke="midnightblue" d="M153.713,-57C162.647,-57 171.57,-57 180.035,-57"/>
<polygon fill="midnightblue" stroke="midnightblue" points="153.644,-53.5001 143.644,-57 153.644,-60.5001 153.644,-53.5001"/>
</g>
<!-- Node55 -->
<g id="node3" class="node"><title>Node55</title>
<g id="a_node3"><a xlink:href="a00948.html#a892d2ea16d613abc2276ad5fc6999724" target="_top" xlink:title="Match_RM">
<polygon fill="white" stroke="black" points="330.5,-66.5 330.5,-85.5 395.5,-85.5 395.5,-66.5 330.5,-66.5"/>
<text text-anchor="middle" x="363" y="-73.5" font-family="Helvetica,sans-Serif" font-size="10.00">Match_RM</text>
</a>
</g>
</g>
<!-- Node54&#45;&gt;Node55 -->
<g id="edge2" class="edge"><title>Node54&#45;&gt;Node55</title>
<path fill="none" stroke="midnightblue" d="M297.658,-66.374C308.977,-68.0674 320.331,-69.7661 330.283,-71.2549"/>
<polygon fill="midnightblue" stroke="midnightblue" points="298.164,-62.9109 287.756,-64.8926 297.128,-69.8338 298.164,-62.9109"/>
</g>
<!-- Node64 -->
<g id="node12" class="node"><title>Node64</title>
<g id="a_node12"><a xlink:href="a00948.html#af3ec72f3170ccdca06d8ad018d86cc58" target="_top" xlink:title="Match_SHEM">
<polygon fill="white" stroke="black" points="324,-28.5 324,-47.5 402,-47.5 402,-28.5 324,-28.5"/>
<text text-anchor="middle" x="363" y="-35.5" font-family="Helvetica,sans-Serif" font-size="10.00">Match_SHEM</text>
</a>
</g>
</g>
<!-- Node54&#45;&gt;Node64 -->
<g id="edge14" class="edge"><title>Node54&#45;&gt;Node64</title>
<path fill="none" stroke="midnightblue" d="M297.79,-47.6062C306.718,-46.2705 315.665,-44.932 323.924,-43.6964"/>
<polygon fill="midnightblue" stroke="midnightblue" points="297.128,-44.1662 287.756,-49.1074 298.164,-51.0891 297.128,-44.1662"/>
</g>
<!-- Node56 -->
<g id="node4" class="node"><title>Node56</title>
<g id="a_node4"><a xlink:href="a00948.html#adeb2c7c9bffbeca00fcc97854fb88ada" target="_top" xlink:title="CoarsenGraph">
<polygon fill="white" stroke="black" points="455,-66.5 455,-85.5 537,-85.5 537,-66.5 455,-66.5"/>
<text text-anchor="middle" x="496" y="-73.5" font-family="Helvetica,sans-Serif" font-size="10.00">CoarsenGraph</text>
</a>
</g>
</g>
<!-- Node55&#45;&gt;Node56 -->
<g id="edge3" class="edge"><title>Node55&#45;&gt;Node56</title>
<path fill="none" stroke="midnightblue" d="M406.106,-76C421.662,-76 439.246,-76 454.644,-76"/>
<polygon fill="midnightblue" stroke="midnightblue" points="405.711,-72.5001 395.711,-76 405.711,-79.5001 405.711,-72.5001"/>
</g>
<!-- Node57 -->
<g id="node5" class="node"><title>Node57</title>
<g id="a_node5"><a xlink:href="a00948.html#afa83320e3b311e0feef90d0bf4303716" target="_top" xlink:title="CoarsenGraphNlevels">
<polygon fill="white" stroke="black" points="438.5,-28.5 438.5,-47.5 553.5,-47.5 553.5,-28.5 438.5,-28.5"/>
<text text-anchor="middle" x="496" y="-35.5" font-family="Helvetica,sans-Serif" font-size="10.00">CoarsenGraphNlevels</text>
</a>
</g>
</g>
<!-- Node55&#45;&gt;Node57 -->
<g id="edge4" class="edge"><title>Node55&#45;&gt;Node57</title>
<path fill="none" stroke="midnightblue" d="M405.539,-63.9505C423.844,-58.6406 445.045,-52.4907 462.213,-47.5109"/>
<polygon fill="midnightblue" stroke="midnightblue" points="404.34,-60.6538 395.711,-66.8013 406.291,-67.3767 404.34,-60.6538"/>
</g>
<!-- Node58 -->
<g id="node6" class="node"><title>Node58</title>
<g id="a_node6"><a xlink:href="a00948.html#ac3a0eaeefa34a3865a0be5bb70bd958f" target="_top" xlink:title="MlevelNodeBisectionL2">
<polygon fill="white" stroke="black" points="590.5,-28.5 590.5,-47.5 711.5,-47.5 711.5,-28.5 590.5,-28.5"/>
<text text-anchor="middle" x="651" y="-35.5" font-family="Helvetica,sans-Serif" font-size="10.00">MlevelNodeBisectionL2</text>
</a>
</g>
</g>
<!-- Node57&#45;&gt;Node58 -->
<g id="edge5" class="edge"><title>Node57&#45;&gt;Node58</title>
<path fill="none" stroke="midnightblue" d="M563.802,-38C572.641,-38 581.654,-38 590.361,-38"/>
<polygon fill="midnightblue" stroke="midnightblue" points="563.537,-34.5001 553.537,-38 563.537,-41.5001 563.537,-34.5001"/>
</g>
<!-- Node59 -->
<g id="node7" class="node"><title>Node59</title>
<g id="a_node7"><a xlink:href="a00948.html#a59c8030c5429e219a8535c2a11cef724" target="_top" xlink:title="MlevelNodeBisectionMultiple">
<polygon fill="white" stroke="black" points="748,-28.5 748,-47.5 892,-47.5 892,-28.5 748,-28.5"/>
<text text-anchor="middle" x="820" y="-35.5" font-family="Helvetica,sans-Serif" font-size="10.00">MlevelNodeBisectionMultiple</text>
</a>
</g>
</g>
<!-- Node58&#45;&gt;Node59 -->
<g id="edge6" class="edge"><title>Node58&#45;&gt;Node59</title>
<path fill="none" stroke="midnightblue" d="M721.828,-38C730.451,-38 739.275,-38 747.917,-38"/>
<polygon fill="midnightblue" stroke="midnightblue" points="721.819,-34.5001 711.819,-38 721.819,-41.5001 721.819,-34.5001"/>
</g>
<!-- Node60 -->
<g id="node8" class="node"><title>Node60</title>
<g id="a_node8"><a xlink:href="a00948.html#af853e9d8bbb2188f871fac436e631ed1" target="_top" xlink:title="MlevelNestedDissection">
<polygon fill="white" stroke="black" points="935.5,-56.5 935.5,-75.5 1058.5,-75.5 1058.5,-56.5 935.5,-56.5"/>
<text text-anchor="middle" x="997" y="-63.5" font-family="Helvetica,sans-Serif" font-size="10.00">MlevelNestedDissection</text>
</a>
</g>
</g>
<!-- Node59&#45;&gt;Node60 -->
<g id="edge7" class="edge"><title>Node59&#45;&gt;Node60</title>
<path fill="none" stroke="midnightblue" d="M891.034,-49.2054C906.109,-51.6175 921.906,-54.1449 936.534,-56.4854"/>
<polygon fill="midnightblue" stroke="midnightblue" points="891.163,-45.6816 880.736,-47.5577 890.057,-52.5937 891.163,-45.6816"/>
</g>
<!-- Node63 -->
<g id="node11" class="node"><title>Node63</title>
<g id="a_node11"><a xlink:href="a00948.html#a3ef15d1ffff55a81b8486bee09239073" target="_top" xlink:title="MlevelNestedDissectionCC">
<polygon fill="white" stroke="black" points="928,-0.5 928,-19.5 1066,-19.5 1066,-0.5 928,-0.5"/>
<text text-anchor="middle" x="997" y="-7.5" font-family="Helvetica,sans-Serif" font-size="10.00">MlevelNestedDissectionCC</text>
</a>
</g>
</g>
<!-- Node59&#45;&gt;Node63 -->
<g id="edge11" class="edge"><title>Node59&#45;&gt;Node63</title>
<path fill="none" stroke="midnightblue" d="M891.034,-26.7946C906.109,-24.3825 921.906,-21.8551 936.534,-19.5146"/>
<polygon fill="midnightblue" stroke="midnightblue" points="890.057,-23.4063 880.736,-28.4423 891.163,-30.3184 890.057,-23.4063"/>
</g>
<!-- Node60&#45;&gt;Node60 -->
<g id="edge10" class="edge"><title>Node60&#45;&gt;Node60</title>
<path fill="none" stroke="midnightblue" d="M969.001,-84.6539C970.171,-89.9368 979.504,-94 997,-94 1023.66,-94 1031.37,-84.5653 1020.12,-75.7571"/>
<polygon fill="midnightblue" stroke="midnightblue" points="972.14,-86.208 973.881,-75.7571 966.003,-82.8417 972.14,-86.208"/>
</g>
<!-- Node61 -->
<g id="node9" class="node"><title>Node61</title>
<g id="a_node9"><a xlink:href="a00936.html#a8304f0dd6d180587f73b0b70de3b01b7" target="_top" xlink:title="METIS_NodeND">
<polygon fill="white" stroke="black" points="1102.5,-28.5 1102.5,-47.5 1193.5,-47.5 1193.5,-28.5 1102.5,-28.5"/>
<text text-anchor="middle" x="1148" y="-35.5" font-family="Helvetica,sans-Serif" font-size="10.00">METIS_NodeND</text>
</a>
</g>
</g>
<!-- Node60&#45;&gt;Node61 -->
<g id="edge8" class="edge"><title>Node60&#45;&gt;Node61</title>
<path fill="none" stroke="midnightblue" d="M1058.8,-54.574C1073.37,-51.8363 1088.66,-48.9625 1102.35,-46.3911"/>
<polygon fill="midnightblue" stroke="midnightblue" points="1058.04,-51.1556 1048.86,-56.4423 1059.34,-58.0351 1058.04,-51.1556"/>
</g>
<!-- Node62 -->
<g id="node10" class="node"><title>Node62</title>
<g id="a_node10"><a xlink:href="a00326.html#a0ddf1224851353fc92bfbff6f499fa97" target="_top" xlink:title="main">
<polygon fill="white" stroke="black" points="1230,-28.5 1230,-47.5 1268,-47.5 1268,-28.5 1230,-28.5"/>
<text text-anchor="middle" x="1249" y="-35.5" font-family="Helvetica,sans-Serif" font-size="10.00">main</text>
</a>
</g>
</g>
<!-- Node61&#45;&gt;Node62 -->
<g id="edge9" class="edge"><title>Node61&#45;&gt;Node62</title>
<path fill="none" stroke="midnightblue" d="M1203.75,-38C1213.09,-38 1222.18,-38 1229.67,-38"/>
<polygon fill="midnightblue" stroke="midnightblue" points="1203.58,-34.5001 1193.58,-38 1203.58,-41.5001 1203.58,-34.5001"/>
</g>
<!-- Node63&#45;&gt;Node61 -->
<g id="edge12" class="edge"><title>Node63&#45;&gt;Node61</title>
<path fill="none" stroke="midnightblue" d="M1058.8,-21.426C1073.37,-24.1637 1088.66,-27.0375 1102.35,-29.6089"/>
<polygon fill="midnightblue" stroke="midnightblue" points="1059.34,-17.9649 1048.86,-19.5577 1058.04,-24.8444 1059.34,-17.9649"/>
</g>
<!-- Node63&#45;&gt;Node63 -->
<g id="edge13" class="edge"><title>Node63&#45;&gt;Node63</title>
<path fill="none" stroke="midnightblue" d="M969.001,-28.6539C970.171,-33.9368 979.504,-38 997,-38 1023.66,-38 1031.37,-28.5653 1020.12,-19.7571"/>
<polygon fill="midnightblue" stroke="midnightblue" points="972.14,-30.208 973.881,-19.7571 966.003,-26.8417 972.14,-30.208"/>
</g>
<!-- Node64&#45;&gt;Node56 -->
<g id="edge15" class="edge"><title>Node64&#45;&gt;Node56</title>
<path fill="none" stroke="midnightblue" d="M406.715,-50.3906C424.655,-55.5945 445.2,-61.5541 461.954,-66.4141"/>
<polygon fill="midnightblue" stroke="midnightblue" points="407.636,-47.0136 397.057,-47.589 405.686,-53.7364 407.636,-47.0136"/>
</g>
<!-- Node64&#45;&gt;Node57 -->
<g id="edge16" class="edge"><title>Node64&#45;&gt;Node57</title>
<path fill="none" stroke="midnightblue" d="M412.356,-38C420.85,-38 429.757,-38 438.451,-38"/>
<polygon fill="midnightblue" stroke="midnightblue" points="412.243,-34.5001 402.243,-38 412.243,-41.5001 412.243,-34.5001"/>
</g>
</g>
</svg>
