<?xml version="1.0" encoding="UTF-8" standalone="no"?>
<!DOCTYPE svg PUBLIC "-//W3C//DTD SVG 1.1//EN"
 "http://www.w3.org/Graphics/SVG/1.1/DTD/svg11.dtd">
<!-- Generated by graphviz version 2.36.0 (20140111.2315)
 -->
<!-- Title: test_fsort Pages: 1 -->
<svg width="160pt" height="66pt"
 viewBox="0.00 0.00 160.00 66.00" xmlns="http://www.w3.org/2000/svg" xmlns:xlink="http://www.w3.org/1999/xlink">
<g id="graph0" class="graph" transform="scale(1 1) rotate(0) translate(4 62)">
<title>test_fsort</title>
<polygon fill="white" stroke="none" points="-4,4 -4,-62 156,-62 156,4 -4,4"/>
<!-- Node43 -->
<g id="node1" class="node"><title>Node43</title>
<polygon fill="#bfbfbf" stroke="black" points="0,-19.5 0,-38.5 58,-38.5 58,-19.5 0,-19.5"/>
<text text-anchor="middle" x="29" y="-26.5" font-family="Helvetica,sans-Serif" font-size="10.00">test_fsort</text>
</g>
<!-- Node44 -->
<g id="node2" class="node"><title>Node44</title>
<g id="a_node2"><a xlink:href="$a00077.html#a317c6a7c27cdf7ba3ebe40c948d7abcd" xlink:title="gk_fsorti">
<polygon fill="white" stroke="black" points="96,-38.5 96,-57.5 150,-57.5 150,-38.5 96,-38.5"/>
<text text-anchor="middle" x="123" y="-45.5" font-family="Helvetica,sans-Serif" font-size="10.00">gk_fsorti</text>
</a>
</g>
</g>
<!-- Node43&#45;&gt;Node44 -->
<g id="edge1" class="edge"><title>Node43&#45;&gt;Node44</title>
<path fill="none" stroke="midnightblue" d="M58.1029,-34.8039C66.9508,-36.6311 76.8452,-38.6746 86.1555,-40.5973"/>
<polygon fill="midnightblue" stroke="midnightblue" points="85.4504,-44.0255 95.9517,-42.6205 86.8663,-37.1702 85.4504,-44.0255"/>
</g>
<!-- Node45 -->
<g id="node3" class="node"><title>Node45</title>
<g id="a_node3"><a xlink:href="$a00077.html#a48c8529cf48d82eedbf29d00cc257b8b" xlink:title="gk_fsortd">
<polygon fill="white" stroke="black" points="94,-0.5 94,-19.5 152,-19.5 152,-0.5 94,-0.5"/>
<text text-anchor="middle" x="123" y="-7.5" font-family="Helvetica,sans-Serif" font-size="10.00">gk_fsortd</text>
</a>
</g>
</g>
<!-- Node43&#45;&gt;Node45 -->
<g id="edge2" class="edge"><title>Node43&#45;&gt;Node45</title>
<path fill="none" stroke="midnightblue" d="M58.1029,-23.1961C66.2308,-21.5175 75.2419,-19.6566 83.872,-17.8743"/>
<polygon fill="midnightblue" stroke="midnightblue" points="84.6667,-21.2841 93.7521,-15.8338 83.2509,-14.4287 84.6667,-21.2841"/>
</g>
</g>
</svg>
