<?xml version="1.0" encoding="UTF-8" standalone="no"?>
<!DOCTYPE svg PUBLIC "-//W3C//DTD SVG 1.1//EN"
 "http://www.w3.org/Graphics/SVG/1.1/DTD/svg11.dtd">
<!-- Generated by graphviz version 2.36.0 (20140111.2315)
 -->
<!-- Title: METIS_PartMeshDual Pages: 1 -->
<svg width="1108pt" height="740pt"
 viewBox="0.00 0.00 1108.00 740.00" xmlns="http://www.w3.org/2000/svg" xmlns:xlink="http://www.w3.org/1999/xlink">
<g id="graph0" class="graph" transform="scale(1 1) rotate(0) translate(4 736)">
<title>METIS_PartMeshDual</title>
<polygon fill="white" stroke="none" points="-4,4 -4,-736 1104,-736 1104,4 -4,4"/>
<!-- Node6 -->
<g id="node1" class="node"><title>Node6</title>
<polygon fill="#bfbfbf" stroke="black" points="0,-285.5 0,-304.5 116,-304.5 116,-285.5 0,-285.5"/>
<text text-anchor="middle" x="58" y="-292.5" font-family="Helvetica,sans-Serif" font-size="10.00">METIS_PartMeshDual</text>
</g>
<!-- Node7 -->
<g id="node2" class="node"><title>Node7</title>
<g id="a_node2"><a xlink:href="a00077.html#a24633cc1c72a7e92836912c2adcf570a" target="_top" xlink:title="gk_malloc_init">
<polygon fill="white" stroke="black" points="873,-579.5 873,-598.5 953,-598.5 953,-579.5 873,-579.5"/>
<text text-anchor="middle" x="913" y="-586.5" font-family="Helvetica,sans-Serif" font-size="10.00">gk_malloc_init</text>
</a>
</g>
</g>
<!-- Node6&#45;&gt;Node7 -->
<g id="edge1" class="edge"><title>Node6&#45;&gt;Node7</title>
<path fill="none" stroke="midnightblue" d="M61.8898,-304.656C79.7227,-362.065 180.383,-656 372,-656 372,-656 372,-656 552,-656 669.915,-656 805.942,-620.829 871.939,-601.452"/>
<polygon fill="midnightblue" stroke="midnightblue" points="872.948,-604.803 881.537,-598.599 870.954,-598.093 872.948,-604.803"/>
</g>
<!-- Node8 -->
<g id="node3" class="node"><title>Node8</title>
<g id="a_node3"><a xlink:href="a00026.html#a05869524d1c30cfaab2a8690e7da6fd4" target="_top" xlink:title="gk_sigtrap">
<polygon fill="white" stroke="black" points="881.5,-650.5 881.5,-669.5 944.5,-669.5 944.5,-650.5 881.5,-650.5"/>
<text text-anchor="middle" x="913" y="-657.5" font-family="Helvetica,sans-Serif" font-size="10.00">gk_sigtrap</text>
</a>
</g>
</g>
<!-- Node6&#45;&gt;Node8 -->
<g id="edge2" class="edge"><title>Node6&#45;&gt;Node8</title>
<path fill="none" stroke="midnightblue" d="M59.911,-304.614C63.9759,-343.048 83.3894,-488.004 152,-580 223.051,-675.268 253.155,-732 372,-732 372,-732 372,-732 552,-732 671.49,-732 809.032,-693.388 874.107,-672.716"/>
<polygon fill="midnightblue" stroke="midnightblue" points="875.467,-675.955 883.915,-669.561 873.324,-669.291 875.467,-675.955"/>
</g>
<!-- Node9 -->
<g id="node4" class="node"><title>Node9</title>
<g id="a_node4"><a xlink:href="a00930.html#a2cf4672355fcfed039c04a2d1d134136" target="_top" xlink:title="METIS_MeshToDual">
<polygon fill="white" stroke="black" points="318.5,-456.5 318.5,-475.5 427.5,-475.5 427.5,-456.5 318.5,-456.5"/>
<text text-anchor="middle" x="373" y="-463.5" font-family="Helvetica,sans-Serif" font-size="10.00">METIS_MeshToDual</text>
</a>
</g>
</g>
<!-- Node6&#45;&gt;Node9 -->
<g id="edge3" class="edge"><title>Node6&#45;&gt;Node9</title>
<path fill="none" stroke="midnightblue" d="M66.0854,-304.772C80.3223,-323.755 114.282,-365.87 152,-390 202.423,-422.258 268.153,-442.631 314.593,-454.073"/>
<polygon fill="midnightblue" stroke="midnightblue" points="313.95,-457.518 324.491,-456.448 315.584,-450.711 313.95,-457.518"/>
</g>
<!-- Node14 -->
<g id="node9" class="node"><title>Node14</title>
<g id="a_node9"><a xlink:href="a00077.html#ac8df62c4e3d0910711a9874f9cc58884" target="_top" xlink:title="gk_free">
<polygon fill="white" stroke="black" points="715,-209.5 715,-228.5 765,-228.5 765,-209.5 715,-209.5"/>
<text text-anchor="middle" x="740" y="-216.5" font-family="Helvetica,sans-Serif" font-size="10.00">gk_free</text>
</a>
</g>
</g>
<!-- Node6&#45;&gt;Node14 -->
<g id="edge38" class="edge"><title>Node6&#45;&gt;Node14</title>
<path fill="none" stroke="midnightblue" d="M75.6258,-285.458C93.8456,-275.362 124.192,-259.592 152,-250 288.717,-202.84 326.202,-196.421 470,-181 541.59,-173.323 561.046,-168.775 632,-181 659.001,-185.652 688.223,-196.454 709.295,-205.356"/>
<polygon fill="midnightblue" stroke="midnightblue" points="708.085,-208.647 718.653,-209.411 710.869,-202.224 708.085,-208.647"/>
</g>
<!-- Node15 -->
<g id="node10" class="node"><title>Node15</title>
<g id="a_node10"><a xlink:href="a00026.html#a08f287b6dbdc0779c916ecbd49540a1e" target="_top" xlink:title="gk_siguntrap">
<polygon fill="white" stroke="black" points="876,-418.5 876,-437.5 950,-437.5 950,-418.5 876,-418.5"/>
<text text-anchor="middle" x="913" y="-425.5" font-family="Helvetica,sans-Serif" font-size="10.00">gk_siguntrap</text>
</a>
</g>
</g>
<!-- Node6&#45;&gt;Node15 -->
<g id="edge40" class="edge"><title>Node6&#45;&gt;Node15</title>
<path fill="none" stroke="midnightblue" d="M65.9986,-285.477C96.9283,-244.59 226.29,-86 372,-86 372,-86 372,-86 552,-86 678.175,-86 732.413,-102.091 812,-200 860.989,-260.267 809.05,-303.807 848,-371 857.733,-387.79 874.161,-402.267 887.936,-412.43"/>
<polygon fill="midnightblue" stroke="midnightblue" points="886.317,-415.57 896.508,-418.467 890.347,-409.847 886.317,-415.57"/>
</g>
<!-- Node16 -->
<g id="node11" class="node"><title>Node16</title>
<g id="a_node11"><a xlink:href="a00077.html#a47156a22528b5bc8c7c6e9849af34e62" target="_top" xlink:title="gk_malloc_cleanup">
<polygon fill="white" stroke="black" points="862,-342.5 862,-361.5 964,-361.5 964,-342.5 862,-342.5"/>
<text text-anchor="middle" x="913" y="-349.5" font-family="Helvetica,sans-Serif" font-size="10.00">gk_malloc_cleanup</text>
</a>
</g>
</g>
<!-- Node6&#45;&gt;Node16 -->
<g id="edge41" class="edge"><title>Node6&#45;&gt;Node16</title>
<path fill="none" stroke="midnightblue" d="M59.6986,-285.338C62.8205,-249.97 78.7715,-126.77 152,-72 230.765,-13.0898 273.642,-48 372,-48 372,-48 372,-48 552,-48 668.047,-48 727.2,7.22034 812,-72 885.362,-140.535 799.726,-206.974 848,-295 857.361,-312.07 873.872,-326.581 887.779,-336.689"/>
<polygon fill="midnightblue" stroke="midnightblue" points="885.801,-339.577 896.014,-342.398 889.789,-333.824 885.801,-339.577"/>
</g>
<!-- Node17 -->
<g id="node12" class="node"><title>Node17</title>
<g id="a_node12"><a xlink:href="a00912.html#af89851458c047aba436b36ed567441e4" target="_top" xlink:title="METIS_PartGraphKway">
<polygon fill="white" stroke="black" points="152.5,-361.5 152.5,-380.5 275.5,-380.5 275.5,-361.5 152.5,-361.5"/>
<text text-anchor="middle" x="214" y="-368.5" font-family="Helvetica,sans-Serif" font-size="10.00">METIS_PartGraphKway</text>
</a>
</g>
</g>
<!-- Node6&#45;&gt;Node17 -->
<g id="edge13" class="edge"><title>Node6&#45;&gt;Node17</title>
<path fill="none" stroke="midnightblue" d="M78.5042,-304.625C105.234,-317.817 153.44,-341.607 184.295,-356.834"/>
<polygon fill="midnightblue" stroke="midnightblue" points="183.138,-360.166 193.654,-361.453 186.236,-353.889 183.138,-360.166"/>
</g>
<!-- Node22 -->
<g id="node17" class="node"><title>Node22</title>
<g id="a_node17"><a xlink:href="a00260.html#a25fc90fd934931239b3c98ac4bdbce76" target="_top" xlink:title="Recursive partitioning routine. ">
<polygon fill="white" stroke="black" points="668.5,-494.5 668.5,-513.5 811.5,-513.5 811.5,-494.5 668.5,-494.5"/>
<text text-anchor="middle" x="740" y="-501.5" font-family="Helvetica,sans-Serif" font-size="10.00">METIS_PartGraphRecursive</text>
</a>
</g>
</g>
<!-- Node6&#45;&gt;Node22 -->
<g id="edge35" class="edge"><title>Node6&#45;&gt;Node22</title>
<path fill="none" stroke="midnightblue" d="M63.0694,-304.739C73.8481,-329.375 105.53,-394.722 152,-430 308.449,-548.768 558.707,-531.391 675.329,-514.995"/>
<polygon fill="midnightblue" stroke="midnightblue" points="676.123,-518.416 685.517,-513.517 675.118,-511.489 676.123,-518.416"/>
</g>
<!-- Node26 -->
<g id="node21" class="node"><title>Node26</title>
<g id="a_node21"><a xlink:href="a00236.html#ae1253bac89c47d556436695e62bcfacd" target="_top" xlink:title="InduceRowPartFromColumnPart">
<polygon fill="white" stroke="black" points="470.5,-190.5 470.5,-209.5 631.5,-209.5 631.5,-190.5 470.5,-190.5"/>
<text text-anchor="middle" x="551" y="-197.5" font-family="Helvetica,sans-Serif" font-size="10.00">InduceRowPartFromColumnPart</text>
</a>
</g>
</g>
<!-- Node6&#45;&gt;Node26 -->
<g id="edge36" class="edge"><title>Node6&#45;&gt;Node26</title>
<path fill="none" stroke="midnightblue" d="M108.327,-285.456C199.223,-267.869 392.79,-230.417 490.681,-211.477"/>
<polygon fill="midnightblue" stroke="midnightblue" points="491.553,-214.874 500.706,-209.538 490.223,-208.001 491.553,-214.874"/>
</g>
<!-- Node27 -->
<g id="node22" class="node"><title>Node27</title>
<g id="a_node22"><a xlink:href="a00170.html#a8b3f46b67d6ec9fccaa8c72b9ad10b71" target="_top" xlink:title="METIS_Free">
<polygon fill="white" stroke="black" points="177.5,-0.5 177.5,-19.5 250.5,-19.5 250.5,-0.5 177.5,-0.5"/>
<text text-anchor="middle" x="214" y="-7.5" font-family="Helvetica,sans-Serif" font-size="10.00">METIS_Free</text>
</a>
</g>
</g>
<!-- Node6&#45;&gt;Node27 -->
<g id="edge39" class="edge"><title>Node6&#45;&gt;Node27</title>
<path fill="none" stroke="midnightblue" d="M59.6335,-285.479C62.6162,-248.141 78.3966,-110.039 152,-34 156.519,-29.3314 162.057,-25.5515 167.933,-22.496"/>
<polygon fill="midnightblue" stroke="midnightblue" points="169.661,-25.5568 177.35,-18.2674 166.794,-19.1711 169.661,-25.5568"/>
</g>
<!-- Node9&#45;&gt;Node7 -->
<g id="edge4" class="edge"><title>Node9&#45;&gt;Node7</title>
<path fill="none" stroke="midnightblue" d="M415.981,-475.561C493.993,-493.333 666.597,-532.68 812,-566 828.537,-569.789 846.609,-573.943 862.786,-577.664"/>
<polygon fill="midnightblue" stroke="midnightblue" points="862.052,-581.087 872.582,-579.919 863.622,-574.265 862.052,-581.087"/>
</g>
<!-- Node9&#45;&gt;Node8 -->
<g id="edge5" class="edge"><title>Node9&#45;&gt;Node8</title>
<path fill="none" stroke="midnightblue" d="M388.802,-475.6C407.248,-487.259 440.005,-506.979 470,-520 612.917,-582.043 792.398,-630.3 871.449,-650.15"/>
<polygon fill="midnightblue" stroke="midnightblue" points="870.927,-653.627 881.477,-652.65 872.621,-646.835 870.927,-653.627"/>
</g>
<!-- Node10 -->
<g id="node5" class="node"><title>Node10</title>
<g id="a_node5"><a xlink:href="a00930.html#a10400dffe4954a697990134da62b387d" target="_top" xlink:title="CreateGraphDual">
<polygon fill="white" stroke="black" points="503.5,-304.5 503.5,-323.5 598.5,-323.5 598.5,-304.5 503.5,-304.5"/>
<text text-anchor="middle" x="551" y="-311.5" font-family="Helvetica,sans-Serif" font-size="10.00">CreateGraphDual</text>
</a>
</g>
</g>
<!-- Node9&#45;&gt;Node10 -->
<g id="edge6" class="edge"><title>Node9&#45;&gt;Node10</title>
<path fill="none" stroke="midnightblue" d="M420.526,-456.399C425.496,-453.944 430.138,-450.865 434,-447 471.556,-409.414 431.089,-369.18 470,-333 476.608,-326.856 484.831,-322.587 493.467,-319.643"/>
<polygon fill="midnightblue" stroke="midnightblue" points="494.661,-322.942 503.33,-316.852 492.755,-316.207 494.661,-322.942"/>
</g>
<!-- Node9&#45;&gt;Node15 -->
<g id="edge11" class="edge"><title>Node9&#45;&gt;Node15</title>
<path fill="none" stroke="midnightblue" d="M427.714,-464.516C510.418,-461.902 673.858,-455.431 812,-442 829.628,-440.286 848.917,-437.745 865.811,-435.295"/>
<polygon fill="midnightblue" stroke="midnightblue" points="866.604,-438.716 875.984,-433.791 865.579,-431.792 866.604,-438.716"/>
</g>
<!-- Node9&#45;&gt;Node16 -->
<g id="edge12" class="edge"><title>Node9&#45;&gt;Node16</title>
<path fill="none" stroke="midnightblue" d="M418.944,-456.477C517.05,-435.688 750.121,-386.301 856.877,-363.68"/>
<polygon fill="midnightblue" stroke="midnightblue" points="857.748,-367.074 866.805,-361.577 856.297,-360.226 857.748,-367.074"/>
</g>
<!-- Node11 -->
<g id="node6" class="node"><title>Node11</title>
<g id="a_node6"><a xlink:href="a00026.html#a4c320c13bcdc9967613253ef4c73f59f" target="_top" xlink:title="gk_errexit">
<polygon fill="white" stroke="black" points="710,-266.5 710,-285.5 770,-285.5 770,-266.5 710,-266.5"/>
<text text-anchor="middle" x="740" y="-273.5" font-family="Helvetica,sans-Serif" font-size="10.00">gk_errexit</text>
</a>
</g>
</g>
<!-- Node10&#45;&gt;Node11 -->
<g id="edge7" class="edge"><title>Node10&#45;&gt;Node11</title>
<path fill="none" stroke="midnightblue" d="M598.706,-304.509C629.866,-298.177 670.368,-289.947 699.839,-283.958"/>
<polygon fill="midnightblue" stroke="midnightblue" points="700.667,-287.361 709.77,-281.94 699.273,-280.501 700.667,-287.361"/>
</g>
<!-- Node13 -->
<g id="node8" class="node"><title>Node13</title>
<g id="a_node8"><a xlink:href="a00930.html#ab05bd1b0bb5bdaaf2e9dc8906675145c" target="_top" xlink:title="FindCommonElements">
<polygon fill="white" stroke="black" points="681,-304.5 681,-323.5 799,-323.5 799,-304.5 681,-304.5"/>
<text text-anchor="middle" x="740" y="-311.5" font-family="Helvetica,sans-Serif" font-size="10.00">FindCommonElements</text>
</a>
</g>
</g>
<!-- Node10&#45;&gt;Node13 -->
<g id="edge9" class="edge"><title>Node10&#45;&gt;Node13</title>
<path fill="none" stroke="midnightblue" d="M598.706,-314C620.477,-314 646.809,-314 670.752,-314"/>
<polygon fill="midnightblue" stroke="midnightblue" points="670.847,-317.5 680.847,-314 670.847,-310.5 670.847,-317.5"/>
</g>
<!-- Node10&#45;&gt;Node14 -->
<g id="edge10" class="edge"><title>Node10&#45;&gt;Node14</title>
<path fill="none" stroke="midnightblue" d="M570.96,-304.368C604.086,-287.539 672.638,-252.713 711.161,-233.143"/>
<polygon fill="midnightblue" stroke="midnightblue" points="712.938,-236.166 720.268,-228.516 709.767,-229.925 712.938,-236.166"/>
</g>
<!-- Node12 -->
<g id="node7" class="node"><title>Node12</title>
<g id="a_node7"><a xlink:href="a01017.html#a2e311a777ffe9c80e405efa7cd2757be" target="_top" xlink:title="fprintf">
<polygon fill="white" stroke="black" points="892,-266.5 892,-285.5 934,-285.5 934,-266.5 892,-266.5"/>
<text text-anchor="middle" x="913" y="-273.5" font-family="Helvetica,sans-Serif" font-size="10.00">fprintf</text>
</a>
</g>
</g>
<!-- Node11&#45;&gt;Node12 -->
<g id="edge8" class="edge"><title>Node11&#45;&gt;Node12</title>
<path fill="none" stroke="midnightblue" d="M770.008,-276C801.034,-276 850.025,-276 881.583,-276"/>
<polygon fill="midnightblue" stroke="midnightblue" points="881.96,-279.5 891.96,-276 881.96,-272.5 881.96,-279.5"/>
</g>
<!-- Node17&#45;&gt;Node7 -->
<g id="edge14" class="edge"><title>Node17&#45;&gt;Node7</title>
<path fill="none" stroke="midnightblue" d="M220.312,-380.793C232.976,-403.143 267.255,-458.052 312,-485 492.11,-593.474 754.489,-596.175 862.614,-591.979"/>
<polygon fill="midnightblue" stroke="midnightblue" points="863.052,-595.464 872.893,-591.541 862.753,-588.47 863.052,-595.464"/>
</g>
<!-- Node17&#45;&gt;Node8 -->
<g id="edge15" class="edge"><title>Node17&#45;&gt;Node8</title>
<path fill="none" stroke="midnightblue" d="M218.381,-380.51C228.369,-407.263 260.313,-483.895 312,-525 483.684,-661.533 766.229,-665.87 871.13,-662.259"/>
<polygon fill="midnightblue" stroke="midnightblue" points="871.441,-665.749 881.297,-661.864 871.169,-658.755 871.441,-665.749"/>
</g>
<!-- Node17&#45;&gt;Node11 -->
<g id="edge18" class="edge"><title>Node17&#45;&gt;Node11</title>
<path fill="none" stroke="midnightblue" d="M232.221,-361.408C272.362,-339.668 375.89,-287.124 470,-269 540.701,-255.384 560.038,-266.649 632,-269 654.499,-269.735 679.616,-271.338 699.859,-272.824"/>
<polygon fill="midnightblue" stroke="midnightblue" points="699.725,-276.324 709.96,-273.586 700.252,-269.344 699.725,-276.324"/>
</g>
<!-- Node17&#45;&gt;Node15 -->
<g id="edge16" class="edge"><title>Node17&#45;&gt;Node15</title>
<path fill="none" stroke="midnightblue" d="M275.635,-375.959C412.571,-387.157 743.315,-414.205 865.566,-424.203"/>
<polygon fill="midnightblue" stroke="midnightblue" points="865.462,-427.706 875.714,-425.033 866.033,-420.729 865.462,-427.706"/>
</g>
<!-- Node17&#45;&gt;Node16 -->
<g id="edge34" class="edge"><title>Node17&#45;&gt;Node16</title>
<path fill="none" stroke="midnightblue" d="M222.903,-361.307C251.559,-327.115 354.411,-212.493 470,-181 616.88,-140.981 691.444,-107.04 812,-200 847.756,-227.572 822.404,-257.803 848,-295 859.139,-311.188 875.819,-325.844 889.358,-336.24"/>
<polygon fill="midnightblue" stroke="midnightblue" points="887.593,-339.289 897.711,-342.43 891.76,-333.664 887.593,-339.289"/>
</g>
<!-- Node18 -->
<g id="node13" class="node"><title>Node18</title>
<g id="a_node13"><a xlink:href="a00077.html#a3d153a0a39d7ba54f0943fa586f0c561" target="_top" xlink:title="gk_log2">
<polygon fill="white" stroke="black" points="347,-418.5 347,-437.5 399,-437.5 399,-418.5 347,-418.5"/>
<text text-anchor="middle" x="373" y="-425.5" font-family="Helvetica,sans-Serif" font-size="10.00">gk_log2</text>
</a>
</g>
</g>
<!-- Node17&#45;&gt;Node18 -->
<g id="edge17" class="edge"><title>Node17&#45;&gt;Node18</title>
<path fill="none" stroke="midnightblue" d="M241.278,-380.541C267.593,-390.094 308.237,-404.851 337.215,-415.371"/>
<polygon fill="midnightblue" stroke="midnightblue" points="336.341,-418.777 346.935,-418.9 338.73,-412.197 336.341,-418.777"/>
</g>
<!-- Node19 -->
<g id="node14" class="node"><title>Node19</title>
<g id="a_node14"><a xlink:href="a00912.html#a7973c78504ad6711d3516082b1112805" target="_top" xlink:title="MlevelKWayPartitioning">
<polygon fill="white" stroke="black" points="312,-342.5 312,-361.5 434,-361.5 434,-342.5 312,-342.5"/>
<text text-anchor="middle" x="373" y="-349.5" font-family="Helvetica,sans-Serif" font-size="10.00">MlevelKWayPartitioning</text>
</a>
</g>
</g>
<!-- Node17&#45;&gt;Node19 -->
<g id="edge19" class="edge"><title>Node17&#45;&gt;Node19</title>
<path fill="none" stroke="midnightblue" d="M275.7,-363.654C284.259,-362.618 293.116,-361.546 301.834,-360.491"/>
<polygon fill="midnightblue" stroke="midnightblue" points="302.471,-363.94 311.978,-359.264 301.63,-356.991 302.471,-363.94"/>
</g>
<!-- Node19&#45;&gt;Node11 -->
<g id="edge33" class="edge"><title>Node19&#45;&gt;Node11</title>
<path fill="none" stroke="midnightblue" d="M385.843,-342.443C403.145,-329.099 436.886,-305.358 470,-295 548.753,-270.366 646.573,-270.646 699.876,-273.211"/>
<polygon fill="midnightblue" stroke="midnightblue" points="699.752,-276.709 709.925,-273.748 700.126,-269.719 699.752,-276.709"/>
</g>
<!-- Node20 -->
<g id="node15" class="node"><title>Node20</title>
<g id="a_node15"><a xlink:href="a00912.html#a870e37cc14eb1033c62d83d3a7c33a91" target="_top" xlink:title="InitKWayPartitioning">
<polygon fill="white" stroke="black" points="497.5,-342.5 497.5,-361.5 604.5,-361.5 604.5,-342.5 497.5,-342.5"/>
<text text-anchor="middle" x="551" y="-349.5" font-family="Helvetica,sans-Serif" font-size="10.00">InitKWayPartitioning</text>
</a>
</g>
</g>
<!-- Node19&#45;&gt;Node20 -->
<g id="edge20" class="edge"><title>Node19&#45;&gt;Node20</title>
<path fill="none" stroke="midnightblue" d="M434.077,-352C451.225,-352 469.952,-352 487.255,-352"/>
<polygon fill="midnightblue" stroke="midnightblue" points="487.256,-355.5 497.256,-352 487.256,-348.5 487.256,-355.5"/>
</g>
<!-- Node20&#45;&gt;Node11 -->
<g id="edge31" class="edge"><title>Node20&#45;&gt;Node11</title>
<path fill="none" stroke="midnightblue" d="M604.879,-344.032C614.284,-341.353 623.713,-337.776 632,-333 652.157,-321.384 648.009,-306.9 668,-295 677.738,-289.203 689.264,-285.142 700.166,-282.309"/>
<polygon fill="midnightblue" stroke="midnightblue" points="700.986,-285.712 709.934,-280.039 699.401,-278.894 700.986,-285.712"/>
</g>
<!-- Node20&#45;&gt;Node14 -->
<g id="edge32" class="edge"><title>Node20&#45;&gt;Node14</title>
<path fill="none" stroke="midnightblue" d="M604.613,-346.568C614.463,-343.682 624.124,-339.379 632,-333 661.043,-309.475 642.227,-284.069 668,-257 678.395,-246.082 692.63,-237.62 705.625,-231.481"/>
<polygon fill="midnightblue" stroke="midnightblue" points="707.069,-234.67 714.796,-227.421 704.235,-228.269 707.069,-234.67"/>
</g>
<!-- Node21 -->
<g id="node16" class="node"><title>Node21</title>
<g id="a_node16"><a xlink:href="a00170.html#abea67bb0c6286795ac5fc9bee605dc5d" target="_top" xlink:title="METIS_SetDefaultOptions">
<polygon fill="white" stroke="black" points="673,-342.5 673,-361.5 807,-361.5 807,-342.5 673,-342.5"/>
<text text-anchor="middle" x="740" y="-349.5" font-family="Helvetica,sans-Serif" font-size="10.00">METIS_SetDefaultOptions</text>
</a>
</g>
</g>
<!-- Node20&#45;&gt;Node21 -->
<g id="edge21" class="edge"><title>Node20&#45;&gt;Node21</title>
<path fill="none" stroke="midnightblue" d="M604.588,-352C622.618,-352 643.177,-352 662.7,-352"/>
<polygon fill="midnightblue" stroke="midnightblue" points="662.795,-355.5 672.795,-352 662.795,-348.5 662.795,-355.5"/>
</g>
<!-- Node20&#45;&gt;Node22 -->
<g id="edge22" class="edge"><title>Node20&#45;&gt;Node22</title>
<path fill="none" stroke="midnightblue" d="M563.698,-361.508C594.919,-386.886 680.477,-456.431 719.335,-488.016"/>
<polygon fill="midnightblue" stroke="midnightblue" points="717.339,-490.904 727.307,-494.495 721.754,-485.472 717.339,-490.904"/>
</g>
<!-- Node22&#45;&gt;Node7 -->
<g id="edge23" class="edge"><title>Node22&#45;&gt;Node7</title>
<path fill="none" stroke="midnightblue" d="M774.112,-513.51C786.261,-517.434 799.975,-522.385 812,-528 840.123,-541.132 870.257,-560.288 890.008,-573.617"/>
<polygon fill="midnightblue" stroke="midnightblue" points="888.077,-576.536 898.308,-579.289 892.026,-570.757 888.077,-576.536"/>
</g>
<!-- Node22&#45;&gt;Node8 -->
<g id="edge24" class="edge"><title>Node22&#45;&gt;Node8</title>
<path fill="none" stroke="midnightblue" d="M753.025,-513.599C767.535,-525.382 792.419,-546.238 812,-566 829.304,-583.464 830.388,-590.846 848,-608 861.332,-620.986 877.628,-634.192 890.439,-644.047"/>
<polygon fill="midnightblue" stroke="midnightblue" points="888.589,-647.037 898.672,-650.29 892.819,-641.459 888.589,-647.037"/>
</g>
<!-- Node22&#45;&gt;Node15 -->
<g id="edge25" class="edge"><title>Node22&#45;&gt;Node15</title>
<path fill="none" stroke="midnightblue" d="M772.846,-494.39C785.228,-490.354 799.431,-485.355 812,-480 838.109,-468.877 866.731,-453.667 886.638,-442.571"/>
<polygon fill="midnightblue" stroke="midnightblue" points="888.398,-445.597 895.396,-437.642 884.965,-439.497 888.398,-445.597"/>
</g>
<!-- Node22&#45;&gt;Node16 -->
<g id="edge30" class="edge"><title>Node22&#45;&gt;Node16</title>
<path fill="none" stroke="midnightblue" d="M752.141,-494.417C766.184,-482.304 791.023,-460.768 812,-442 828.176,-427.527 831.895,-423.552 848,-409 863.214,-395.253 880.595,-379.788 893.401,-368.439"/>
<polygon fill="midnightblue" stroke="midnightblue" points="895.919,-370.884 901.086,-361.635 891.279,-365.643 895.919,-370.884"/>
</g>
<!-- Node23 -->
<g id="node18" class="node"><title>Node23</title>
<g id="a_node18"><a xlink:href="a00260.html#a5510f276b321a8450b2e9cc913c2f00f" target="_top" xlink:title="MlevelRecursiveBisection">
<polygon fill="white" stroke="black" points="848,-494.5 848,-513.5 978,-513.5 978,-494.5 848,-494.5"/>
<text text-anchor="middle" x="913" y="-501.5" font-family="Helvetica,sans-Serif" font-size="10.00">MlevelRecursiveBisection</text>
</a>
</g>
</g>
<!-- Node22&#45;&gt;Node23 -->
<g id="edge26" class="edge"><title>Node22&#45;&gt;Node23</title>
<path fill="none" stroke="midnightblue" d="M811.54,-504C820.202,-504 829.076,-504 837.79,-504"/>
<polygon fill="midnightblue" stroke="midnightblue" points="837.925,-507.5 847.925,-504 837.925,-500.5 837.925,-507.5"/>
</g>
<!-- Node23&#45;&gt;Node23 -->
<g id="edge29" class="edge"><title>Node23&#45;&gt;Node23</title>
<path fill="none" stroke="midnightblue" d="M890.805,-513.757C880.008,-522.565 887.406,-532 913,-532 929.796,-532 938.756,-527.937 939.879,-522.654"/>
<polygon fill="midnightblue" stroke="midnightblue" points="942.951,-520.975 935.195,-513.757 936.757,-524.236 942.951,-520.975"/>
</g>
<!-- Node24 -->
<g id="node19" class="node"><title>Node24</title>
<g id="a_node19"><a xlink:href="a00260.html#a33c48a23cc94ea0221fa5c7317cd0222" target="_top" xlink:title="MultilevelBisect">
<polygon fill="white" stroke="black" points="1014.5,-513.5 1014.5,-532.5 1099.5,-532.5 1099.5,-513.5 1014.5,-513.5"/>
<text text-anchor="middle" x="1057" y="-520.5" font-family="Helvetica,sans-Serif" font-size="10.00">MultilevelBisect</text>
</a>
</g>
</g>
<!-- Node23&#45;&gt;Node24 -->
<g id="edge27" class="edge"><title>Node23&#45;&gt;Node24</title>
<path fill="none" stroke="midnightblue" d="M978.352,-512.611C987.013,-513.769 995.806,-514.946 1004.21,-516.07"/>
<polygon fill="midnightblue" stroke="midnightblue" points="1003.86,-519.555 1014.24,-517.412 1004.79,-512.616 1003.86,-519.555"/>
</g>
<!-- Node25 -->
<g id="node20" class="node"><title>Node25</title>
<g id="a_node20"><a xlink:href="a00260.html#a49d272affb67ce57b2d20dccd7f15f53" target="_top" xlink:title="SplitGraphPart">
<polygon fill="white" stroke="black" points="1016,-475.5 1016,-494.5 1098,-494.5 1098,-475.5 1016,-475.5"/>
<text text-anchor="middle" x="1057" y="-482.5" font-family="Helvetica,sans-Serif" font-size="10.00">SplitGraphPart</text>
</a>
</g>
</g>
<!-- Node23&#45;&gt;Node25 -->
<g id="edge28" class="edge"><title>Node23&#45;&gt;Node25</title>
<path fill="none" stroke="midnightblue" d="M978.352,-495.389C987.53,-494.162 996.856,-492.914 1005.71,-491.729"/>
<polygon fill="midnightblue" stroke="midnightblue" points="1006.41,-495.167 1015.85,-490.372 1005.48,-488.229 1006.41,-495.167"/>
</g>
<!-- Node26&#45;&gt;Node14 -->
<g id="edge37" class="edge"><title>Node26&#45;&gt;Node14</title>
<path fill="none" stroke="midnightblue" d="M631.576,-208.085C657.141,-210.683 684.126,-213.425 704.655,-215.51"/>
<polygon fill="midnightblue" stroke="midnightblue" points="704.458,-219.008 714.76,-216.537 705.165,-212.044 704.458,-219.008"/>
</g>
</g>
</svg>
