<?xml version="1.0" encoding="UTF-8" standalone="no"?>
<!DOCTYPE svg PUBLIC "-//W3C//DTD SVG 1.1//EN"
 "http://www.w3.org/Graphics/SVG/1.1/DTD/svg11.dtd">
<!-- Generated by graphviz version 2.36.0 (20140111.2315)
 -->
<!-- Title: METIS_PartGraphRecursive Pages: 1 -->
<svg width="440pt" height="198pt"
 viewBox="0.00 0.00 440.00 198.00" xmlns="http://www.w3.org/2000/svg" xmlns:xlink="http://www.w3.org/1999/xlink">
<g id="graph0" class="graph" transform="scale(1 1) rotate(0) translate(4 194)">
<title>METIS_PartGraphRecursive</title>
<polygon fill="white" stroke="none" points="-4,4 -4,-194 436,-194 436,4 -4,4"/>
<!-- Node0 -->
<g id="node1" class="node"><title>Node0</title>
<polygon fill="#bfbfbf" stroke="black" points="0.5,-94.5 0.5,-113.5 143.5,-113.5 143.5,-94.5 0.5,-94.5"/>
<text text-anchor="middle" x="72" y="-101.5" font-family="Helvetica,sans-Serif" font-size="10.00">METIS_PartGraphRecursive</text>
</g>
<!-- Node1 -->
<g id="node2" class="node"><title>Node1</title>
<g id="a_node2"><a xlink:href="a00077.html#a24633cc1c72a7e92836912c2adcf570a" target="_top" xlink:title="gk_malloc_init">
<polygon fill="white" stroke="black" points="205,-170.5 205,-189.5 285,-189.5 285,-170.5 205,-170.5"/>
<text text-anchor="middle" x="245" y="-177.5" font-family="Helvetica,sans-Serif" font-size="10.00">gk_malloc_init</text>
</a>
</g>
</g>
<!-- Node0&#45;&gt;Node1 -->
<g id="edge1" class="edge"><title>Node0&#45;&gt;Node1</title>
<path fill="none" stroke="midnightblue" d="M88.4714,-113.523C108.86,-125.769 146.113,-147.109 180,-161 185.565,-163.281 191.503,-165.418 197.435,-167.376"/>
<polygon fill="midnightblue" stroke="midnightblue" points="196.756,-170.831 207.345,-170.495 198.857,-164.154 196.756,-170.831"/>
</g>
<!-- Node2 -->
<g id="node3" class="node"><title>Node2</title>
<g id="a_node3"><a xlink:href="a00026.html#a05869524d1c30cfaab2a8690e7da6fd4" target="_top" xlink:title="gk_sigtrap">
<polygon fill="white" stroke="black" points="213.5,-132.5 213.5,-151.5 276.5,-151.5 276.5,-132.5 213.5,-132.5"/>
<text text-anchor="middle" x="245" y="-139.5" font-family="Helvetica,sans-Serif" font-size="10.00">gk_sigtrap</text>
</a>
</g>
</g>
<!-- Node0&#45;&gt;Node2 -->
<g id="edge2" class="edge"><title>Node0&#45;&gt;Node2</title>
<path fill="none" stroke="midnightblue" d="M116.151,-113.589C142.878,-119.529 176.993,-127.11 203.259,-132.946"/>
<polygon fill="midnightblue" stroke="midnightblue" points="202.747,-136.418 213.268,-135.171 204.266,-129.585 202.747,-136.418"/>
</g>
<!-- Node3 -->
<g id="node4" class="node"><title>Node3</title>
<g id="a_node4"><a xlink:href="a00026.html#a08f287b6dbdc0779c916ecbd49540a1e" target="_top" xlink:title="gk_siguntrap">
<polygon fill="white" stroke="black" points="208,-94.5 208,-113.5 282,-113.5 282,-94.5 208,-94.5"/>
<text text-anchor="middle" x="245" y="-101.5" font-family="Helvetica,sans-Serif" font-size="10.00">gk_siguntrap</text>
</a>
</g>
</g>
<!-- Node0&#45;&gt;Node3 -->
<g id="edge3" class="edge"><title>Node0&#45;&gt;Node3</title>
<path fill="none" stroke="midnightblue" d="M143.54,-104C161.824,-104 181.052,-104 197.734,-104"/>
<polygon fill="midnightblue" stroke="midnightblue" points="197.761,-107.5 207.761,-104 197.761,-100.5 197.761,-107.5"/>
</g>
<!-- Node4 -->
<g id="node5" class="node"><title>Node4</title>
<g id="a_node5"><a xlink:href="a00260.html#a5510f276b321a8450b2e9cc913c2f00f" target="_top" xlink:title="MlevelRecursiveBisection">
<polygon fill="white" stroke="black" points="180,-38.5 180,-57.5 310,-57.5 310,-38.5 180,-38.5"/>
<text text-anchor="middle" x="245" y="-45.5" font-family="Helvetica,sans-Serif" font-size="10.00">MlevelRecursiveBisection</text>
</a>
</g>
</g>
<!-- Node0&#45;&gt;Node4 -->
<g id="edge4" class="edge"><title>Node0&#45;&gt;Node4</title>
<path fill="none" stroke="midnightblue" d="M102.396,-94.3733C130.831,-85.0613 174.088,-70.8953 205.308,-60.671"/>
<polygon fill="midnightblue" stroke="midnightblue" points="206.574,-63.9396 214.988,-57.5011 204.395,-57.2872 206.574,-63.9396"/>
</g>
<!-- Node7 -->
<g id="node8" class="node"><title>Node7</title>
<g id="a_node8"><a xlink:href="a00077.html#a47156a22528b5bc8c7c6e9849af34e62" target="_top" xlink:title="gk_malloc_cleanup">
<polygon fill="white" stroke="black" points="194,-0.5 194,-19.5 296,-19.5 296,-0.5 194,-0.5"/>
<text text-anchor="middle" x="245" y="-7.5" font-family="Helvetica,sans-Serif" font-size="10.00">gk_malloc_cleanup</text>
</a>
</g>
</g>
<!-- Node0&#45;&gt;Node7 -->
<g id="edge8" class="edge"><title>Node0&#45;&gt;Node7</title>
<path fill="none" stroke="midnightblue" d="M84.1031,-94.3603C102.737,-78.6283 142.005,-47.3521 180,-29 184.643,-26.7575 189.604,-24.7206 194.634,-22.8856"/>
<polygon fill="midnightblue" stroke="midnightblue" points="195.975,-26.127 204.324,-19.6047 193.73,-19.4967 195.975,-26.127"/>
</g>
<!-- Node4&#45;&gt;Node4 -->
<g id="edge7" class="edge"><title>Node4&#45;&gt;Node4</title>
<path fill="none" stroke="midnightblue" d="M222.805,-57.7571C212.008,-66.5653 219.406,-76 245,-76 261.796,-76 270.756,-71.9368 271.879,-66.6539"/>
<polygon fill="midnightblue" stroke="midnightblue" points="274.951,-64.9747 267.195,-57.7571 268.757,-68.2361 274.951,-64.9747"/>
</g>
<!-- Node5 -->
<g id="node6" class="node"><title>Node5</title>
<g id="a_node6"><a xlink:href="a00260.html#a33c48a23cc94ea0221fa5c7317cd0222" target="_top" xlink:title="MultilevelBisect">
<polygon fill="white" stroke="black" points="346.5,-57.5 346.5,-76.5 431.5,-76.5 431.5,-57.5 346.5,-57.5"/>
<text text-anchor="middle" x="389" y="-64.5" font-family="Helvetica,sans-Serif" font-size="10.00">MultilevelBisect</text>
</a>
</g>
</g>
<!-- Node4&#45;&gt;Node5 -->
<g id="edge5" class="edge"><title>Node4&#45;&gt;Node5</title>
<path fill="none" stroke="midnightblue" d="M310.352,-56.6105C319.013,-57.7693 327.806,-58.9459 336.211,-60.0705"/>
<polygon fill="midnightblue" stroke="midnightblue" points="335.859,-63.5545 346.235,-61.4117 336.788,-56.6164 335.859,-63.5545"/>
</g>
<!-- Node6 -->
<g id="node7" class="node"><title>Node6</title>
<g id="a_node7"><a xlink:href="a00260.html#a49d272affb67ce57b2d20dccd7f15f53" target="_top" xlink:title="SplitGraphPart">
<polygon fill="white" stroke="black" points="348,-19.5 348,-38.5 430,-38.5 430,-19.5 348,-19.5"/>
<text text-anchor="middle" x="389" y="-26.5" font-family="Helvetica,sans-Serif" font-size="10.00">SplitGraphPart</text>
</a>
</g>
</g>
<!-- Node4&#45;&gt;Node6 -->
<g id="edge6" class="edge"><title>Node4&#45;&gt;Node6</title>
<path fill="none" stroke="midnightblue" d="M310.352,-39.3895C319.53,-38.1615 328.856,-36.9136 337.712,-35.7287"/>
<polygon fill="midnightblue" stroke="midnightblue" points="338.407,-39.167 347.854,-34.3716 337.478,-32.2288 338.407,-39.167"/>
</g>
</g>
</svg>
