<?xml version="1.0" encoding="UTF-8" standalone="no"?>
<!DOCTYPE svg PUBLIC "-//W3C//DTD SVG 1.1//EN"
 "http://www.w3.org/Graphics/SVG/1.1/DTD/svg11.dtd">
<!-- Generated by graphviz version 2.36.0 (20140111.2315)
 -->
<!-- Title: Greedy_McKWayVolOptimize Pages: 1 -->
<svg width="292pt" height="66pt"
 viewBox="0.00 0.00 292.00 66.00" xmlns="http://www.w3.org/2000/svg" xmlns:xlink="http://www.w3.org/1999/xlink">
<g id="graph0" class="graph" transform="scale(1 1) rotate(0) translate(4 62)">
<title>Greedy_McKWayVolOptimize</title>
<polygon fill="white" stroke="none" points="-4,4 -4,-62 288,-62 288,4 -4,4"/>
<!-- Node23 -->
<g id="node1" class="node"><title>Node23</title>
<polygon fill="#bfbfbf" stroke="black" points="0.5,-19.5 0.5,-38.5 149.5,-38.5 149.5,-19.5 0.5,-19.5"/>
<text text-anchor="middle" x="75" y="-26.5" font-family="Helvetica,sans-Serif" font-size="10.00">Greedy_McKWayVolOptimize</text>
</g>
<!-- Node24 -->
<g id="node2" class="node"><title>Node24</title>
<g id="a_node2"><a xlink:href="a00221.html#af791bf8cc50b3b218224e0560decc422" target="_top" xlink:title="IsArticulationNode">
<polygon fill="white" stroke="black" points="186,-38.5 186,-57.5 284,-57.5 284,-38.5 186,-38.5"/>
<text text-anchor="middle" x="235" y="-45.5" font-family="Helvetica,sans-Serif" font-size="10.00">IsArticulationNode</text>
</a>
</g>
</g>
<!-- Node23&#45;&gt;Node24 -->
<g id="edge1" class="edge"><title>Node23&#45;&gt;Node24</title>
<path fill="none" stroke="midnightblue" d="M149.911,-37.8881C158.59,-38.9318 167.352,-39.9853 175.774,-40.9981"/>
<polygon fill="midnightblue" stroke="midnightblue" points="175.504,-44.4908 185.851,-42.2099 176.34,-37.5409 175.504,-44.4908"/>
</g>
<!-- Node25 -->
<g id="node3" class="node"><title>Node25</title>
<g id="a_node3"><a xlink:href="a00221.html#ac4e797b3ea2db37f88f436fc6481b989" target="_top" xlink:title="KWayVolUpdate">
<polygon fill="white" stroke="black" points="190,-0.5 190,-19.5 280,-19.5 280,-0.5 190,-0.5"/>
<text text-anchor="middle" x="235" y="-7.5" font-family="Helvetica,sans-Serif" font-size="10.00">KWayVolUpdate</text>
</a>
</g>
</g>
<!-- Node23&#45;&gt;Node25 -->
<g id="edge2" class="edge"><title>Node23&#45;&gt;Node25</title>
<path fill="none" stroke="midnightblue" d="M149.911,-20.1119C159.938,-18.9062 170.075,-17.6872 179.671,-16.5332"/>
<polygon fill="midnightblue" stroke="midnightblue" points="180.332,-19.9791 189.842,-15.3101 179.496,-13.0292 180.332,-19.9791"/>
</g>
</g>
</svg>
