<?xml version="1.0" encoding="UTF-8" standalone="no"?>
<!DOCTYPE svg PUBLIC "-//W3C//DTD SVG 1.1//EN"
 "http://www.w3.org/Graphics/SVG/1.1/DTD/svg11.dtd">
<!-- Generated by graphviz version 2.36.0 (20140111.2315)
 -->
<!-- Title: BuildMatrix Pages: 1 -->
<svg width="402pt" height="231pt"
 viewBox="0.00 0.00 402.00 230.53" xmlns="http://www.w3.org/2000/svg" xmlns:xlink="http://www.w3.org/1999/xlink">
<g id="graph0" class="graph" transform="scale(1 1) rotate(0) translate(4 226.529)">
<title>BuildMatrix</title>
<polygon fill="white" stroke="none" points="-4,4 -4,-226.529 398,-226.529 398,4 -4,4"/>
<!-- Node27 -->
<g id="node1" class="node"><title>Node27</title>
<polygon fill="#bfbfbf" stroke="black" points="0,-101.683 0,-120.683 66,-120.683 66,-101.683 0,-101.683"/>
<text text-anchor="middle" x="33" y="-108.683" font-family="Helvetica,sans-Serif" font-size="10.00">BuildMatrix</text>
</g>
<!-- Node28 -->
<g id="node2" class="node"><title>Node28</title>
<g id="a_node2"><a xlink:href="a00197.html#af31fd6654ededed596d98c090d8748b5" target="_top" xlink:title="ReadMesh2d">
<polygon fill="white" stroke="black" points="244,-196.683 244,-215.683 320,-215.683 320,-196.683 244,-196.683"/>
<text text-anchor="middle" x="282" y="-203.683" font-family="Helvetica,sans-Serif" font-size="10.00">ReadMesh2d</text>
</a>
</g>
</g>
<!-- Node27&#45;&gt;Node28 -->
<g id="edge1" class="edge"><title>Node27&#45;&gt;Node28</title>
<path fill="none" stroke="midnightblue" d="M41.1882,-130.123C51.0109,-152.962 71.0257,-190.263 102,-206.183 146.499,-229.055 205.825,-223.158 243.728,-215.632"/>
<polygon fill="midnightblue" stroke="midnightblue" points="44.397,-128.722 37.3895,-120.776 37.9121,-131.357 44.397,-128.722"/>
</g>
<!-- Node30 -->
<g id="node4" class="node"><title>Node30</title>
<g id="a_node4"><a xlink:href="a00197.html#a992690ab68b8564681b5a038ca111413" target="_top" xlink:title="ReadMesh2d_linear">
<polygon fill="white" stroke="black" points="102,-177.683 102,-196.683 208,-196.683 208,-177.683 102,-177.683"/>
<text text-anchor="middle" x="155" y="-184.683" font-family="Helvetica,sans-Serif" font-size="10.00">ReadMesh2d_linear</text>
</a>
</g>
</g>
<!-- Node27&#45;&gt;Node30 -->
<g id="edge3" class="edge"><title>Node27&#45;&gt;Node30</title>
<path fill="none" stroke="midnightblue" d="M50.604,-127.97C63.6538,-140.415 82.781,-157.077 102,-168.183 108.325,-171.838 115.477,-174.997 122.408,-177.633"/>
<polygon fill="midnightblue" stroke="midnightblue" points="52.9171,-125.337 43.3175,-120.853 48.026,-130.344 52.9171,-125.337"/>
</g>
<!-- Node31 -->
<g id="node5" class="node"><title>Node31</title>
<g id="a_node5"><a xlink:href="a00200.html#a21a02761bc746f8e6205d02f662aee16" target="_top" xlink:title="rk_run_2d">
<polygon fill="white" stroke="black" points="251,-82.683 251,-101.683 313,-101.683 313,-82.683 251,-82.683"/>
<text text-anchor="middle" x="282" y="-89.683" font-family="Helvetica,sans-Serif" font-size="10.00">rk_run_2d</text>
</a>
</g>
</g>
<!-- Node27&#45;&gt;Node31 -->
<g id="edge4" class="edge"><title>Node27&#45;&gt;Node31</title>
<path fill="none" stroke="midnightblue" d="M76.138,-107.942C125.841,-104.118 207.218,-97.8585 250.952,-94.4944"/>
<polygon fill="midnightblue" stroke="midnightblue" points="75.7398,-104.462 66.0377,-108.719 76.2767,-111.441 75.7398,-104.462"/>
</g>
<!-- Node32 -->
<g id="node6" class="node"><title>Node32</title>
<g id="a_node6"><a xlink:href="a00203.html#a004c52e87250e61b258755469b25bbe9" target="_top" xlink:title="LoadBalance3d">
<polygon fill="white" stroke="black" points="112,-139.683 112,-158.683 198,-158.683 198,-139.683 112,-139.683"/>
<text text-anchor="middle" x="155" y="-146.683" font-family="Helvetica,sans-Serif" font-size="10.00">LoadBalance3d</text>
</a>
</g>
</g>
<!-- Node27&#45;&gt;Node32 -->
<g id="edge6" class="edge"><title>Node27&#45;&gt;Node32</title>
<path fill="none" stroke="midnightblue" d="M74.0435,-123.863C90.2574,-128.998 108.666,-134.827 123.729,-139.597"/>
<polygon fill="midnightblue" stroke="midnightblue" points="74.8711,-120.454 64.2811,-120.772 72.7578,-127.128 74.8711,-120.454"/>
</g>
<!-- Node34 -->
<g id="node8" class="node"><title>Node34</title>
<g id="a_node8"><a xlink:href="a00206.html#ae31747f9df306a59e6f4df61fddfe15f" target="_top" xlink:title="ReadMesh3d">
<polygon fill="white" stroke="black" points="117,-63.683 117,-82.683 193,-82.683 193,-63.683 117,-63.683"/>
<text text-anchor="middle" x="155" y="-70.683" font-family="Helvetica,sans-Serif" font-size="10.00">ReadMesh3d</text>
</a>
</g>
</g>
<!-- Node27&#45;&gt;Node34 -->
<g id="edge8" class="edge"><title>Node27&#45;&gt;Node34</title>
<path fill="none" stroke="midnightblue" d="M74.0435,-98.5026C90.2574,-93.3682 108.666,-87.5389 123.729,-82.769"/>
<polygon fill="midnightblue" stroke="midnightblue" points="72.7578,-95.2383 64.2811,-101.594 74.8711,-101.912 72.7578,-95.2383"/>
</g>
<!-- Node35 -->
<g id="node9" class="node"><title>Node35</title>
<g id="a_node9"><a xlink:href="a00212.html#a35ba318a20f8b83eefe63eeb1e1ac4b0" target="_top" xlink:title="StartUp2d">
<polygon fill="white" stroke="black" points="251,-6.68303 251,-25.683 313,-25.683 313,-6.68303 251,-6.68303"/>
<text text-anchor="middle" x="282" y="-13.683" font-family="Helvetica,sans-Serif" font-size="10.00">StartUp2d</text>
</a>
</g>
</g>
<!-- Node27&#45;&gt;Node35 -->
<g id="edge9" class="edge"><title>Node27&#45;&gt;Node35</title>
<path fill="none" stroke="midnightblue" d="M41.1882,-92.2433C51.0109,-69.4043 71.0257,-32.1034 102,-16.183 149.401,8.18066 213.627,-0.0991845 250.861,-8.21964"/>
<polygon fill="midnightblue" stroke="midnightblue" points="37.9121,-91.0086 37.3895,-101.591 44.397,-93.6441 37.9121,-91.0086"/>
</g>
<!-- Node36 -->
<g id="node10" class="node"><title>Node36</title>
<g id="a_node10"><a xlink:href="a00239.html#aa275e5ac3935009592aad28f023ed4a1" target="_top" xlink:title="write_vtu">
<polygon fill="white" stroke="black" points="126.5,-25.683 126.5,-44.683 183.5,-44.683 183.5,-25.683 126.5,-25.683"/>
<text text-anchor="middle" x="155" y="-32.683" font-family="Helvetica,sans-Serif" font-size="10.00">write_vtu</text>
</a>
</g>
</g>
<!-- Node27&#45;&gt;Node36 -->
<g id="edge11" class="edge"><title>Node27&#45;&gt;Node36</title>
<path fill="none" stroke="midnightblue" d="M50.604,-94.3961C63.6538,-81.9509 82.781,-65.2886 102,-54.183 109.573,-49.807 118.333,-46.1412 126.479,-43.2337"/>
<polygon fill="midnightblue" stroke="midnightblue" points="48.026,-92.0216 43.3175,-101.513 52.9171,-97.0294 48.026,-92.0216"/>
</g>
<!-- Node29 -->
<g id="node3" class="node"><title>Node29</title>
<g id="a_node3"><a xlink:href="a00170.html#a3c04138a5bfe5d72780bb7e82a18e627" target="_top" xlink:title="main">
<polygon fill="white" stroke="black" points="356,-82.683 356,-101.683 394,-101.683 394,-82.683 356,-82.683"/>
<text text-anchor="middle" x="375" y="-89.683" font-family="Helvetica,sans-Serif" font-size="10.00">main</text>
</a>
</g>
</g>
<!-- Node28&#45;&gt;Node29 -->
<g id="edge2" class="edge"><title>Node28&#45;&gt;Node29</title>
<path fill="none" stroke="midnightblue" d="M300.671,-189.164C306.995,-182.785 314.03,-175.344 320,-168.183 338.863,-145.556 358.198,-116.689 367.801,-101.891"/>
<polygon fill="midnightblue" stroke="midnightblue" points="297.825,-187.056 293.174,-196.575 302.746,-192.034 297.825,-187.056"/>
</g>
<!-- Node31&#45;&gt;Node29 -->
<g id="edge5" class="edge"><title>Node31&#45;&gt;Node29</title>
<path fill="none" stroke="midnightblue" d="M323.314,-92.183C334.717,-92.183 346.56,-92.183 355.929,-92.183"/>
<polygon fill="midnightblue" stroke="midnightblue" points="323.049,-88.6831 313.049,-92.183 323.049,-95.6831 323.049,-88.6831"/>
</g>
<!-- Node33 -->
<g id="node7" class="node"><title>Node33</title>
<g id="a_node7"><a xlink:href="a00173.html#a3c04138a5bfe5d72780bb7e82a18e627" target="_top" xlink:title="main">
<polygon fill="white" stroke="black" points="263,-139.683 263,-158.683 301,-158.683 301,-139.683 263,-139.683"/>
<text text-anchor="middle" x="282" y="-146.683" font-family="Helvetica,sans-Serif" font-size="10.00">main</text>
</a>
</g>
</g>
<!-- Node32&#45;&gt;Node33 -->
<g id="edge7" class="edge"><title>Node32&#45;&gt;Node33</title>
<path fill="none" stroke="midnightblue" d="M208.569,-149.183C227.895,-149.183 248.521,-149.183 262.799,-149.183"/>
<polygon fill="midnightblue" stroke="midnightblue" points="208.319,-145.683 198.319,-149.183 208.319,-152.683 208.319,-145.683"/>
</g>
<!-- Node35&#45;&gt;Node29 -->
<g id="edge10" class="edge"><title>Node35&#45;&gt;Node29</title>
<path fill="none" stroke="midnightblue" d="M302.251,-32.2609C320.543,-47.5378 347.437,-69.9987 362.568,-82.6357"/>
<polygon fill="midnightblue" stroke="midnightblue" points="304.444,-29.5323 294.525,-25.8085 299.957,-34.905 304.444,-29.5323"/>
</g>
<!-- Node36&#45;&gt;Node31 -->
<g id="edge12" class="edge"><title>Node36&#45;&gt;Node31</title>
<path fill="none" stroke="midnightblue" d="M193.098,-48.0683C198.147,-50.0163 203.23,-52.0807 208,-54.183 227.742,-62.8843 249.593,-74.5416 264.196,-82.6404"/>
<polygon fill="midnightblue" stroke="midnightblue" points="194.114,-44.7115 183.522,-44.486 191.662,-51.2678 194.114,-44.7115"/>
</g>
</g>
</svg>
