<?xml version="1.0" encoding="UTF-8" standalone="no"?>
<!DOCTYPE svg PUBLIC "-//W3C//DTD SVG 1.1//EN"
 "http://www.w3.org/Graphics/SVG/1.1/DTD/svg11.dtd">
<!-- Generated by graphviz version 2.36.0 (20140111.2315)
 -->
<!-- Title: ArcSyn3sis/src/old/LoadBalance3d.cpp Pages: 1 -->
<svg width="454pt" height="208pt"
 viewBox="0.00 0.00 454.00 208.00" xmlns="http://www.w3.org/2000/svg" xmlns:xlink="http://www.w3.org/1999/xlink">
<g id="graph0" class="graph" transform="scale(1 1) rotate(0) translate(4 204)">
<title>ArcSyn3sis/src/old/LoadBalance3d.cpp</title>
<polygon fill="white" stroke="none" points="-4,4 -4,-204 450,-204 450,4 -4,4"/>
<!-- Node0 -->
<g id="node1" class="node"><title>Node0</title>
<polygon fill="#bfbfbf" stroke="black" points="28,-169 28,-199 136,-199 136,-169 28,-169"/>
<text text-anchor="start" x="36" y="-187" font-family="Helvetica,sans-Serif" font-size="10.00">ArcSyn3sis/src/old</text>
<text text-anchor="middle" x="82" y="-176" font-family="Helvetica,sans-Serif" font-size="10.00">/LoadBalance3d.cpp</text>
</g>
<!-- Node1 -->
<g id="node2" class="node"><title>Node1</title>
<polygon fill="white" stroke="#bfbfbf" points="-0.5,-56.5 -0.5,-75.5 40.5,-75.5 40.5,-56.5 -0.5,-56.5"/>
<text text-anchor="middle" x="20" y="-63.5" font-family="Helvetica,sans-Serif" font-size="10.00">mpi.h</text>
</g>
<!-- Node0&#45;&gt;Node1 -->
<g id="edge1" class="edge"><title>Node0&#45;&gt;Node1</title>
<path fill="none" stroke="midnightblue" d="M68.2557,-168.851C59.4496,-159.141 48.3368,-145.597 41,-132 33.0808,-117.323 27.5252,-99.1574 24.126,-85.7641"/>
<polygon fill="midnightblue" stroke="midnightblue" points="27.4813,-84.7436 21.7734,-75.8177 20.6692,-86.3549 27.4813,-84.7436"/>
</g>
<!-- Node2 -->
<g id="node3" class="node"><title>Node2</title>
<g id="a_node3"><a xlink:href="a00164.html" target="_top" xlink:title="parmetis.h">
<polygon fill="white" stroke="black" points="50.5,-112.5 50.5,-131.5 113.5,-131.5 113.5,-112.5 50.5,-112.5"/>
<text text-anchor="middle" x="82" y="-119.5" font-family="Helvetica,sans-Serif" font-size="10.00">parmetis.h</text>
</a>
</g>
</g>
<!-- Node0&#45;&gt;Node2 -->
<g id="edge2" class="edge"><title>Node0&#45;&gt;Node2</title>
<path fill="none" stroke="midnightblue" d="M82,-168.781C82,-160.781 82,-150.689 82,-142.017"/>
<polygon fill="midnightblue" stroke="midnightblue" points="85.5001,-141.73 82,-131.731 78.5001,-141.731 85.5001,-141.73"/>
</g>
<!-- Node5 -->
<g id="node6" class="node"><title>Node5</title>
<g id="a_node6"><a xlink:href="a00155.html" target="_top" xlink:title="fem.h">
<polygon fill="white" stroke="black" points="233,-112.5 233,-131.5 275,-131.5 275,-112.5 233,-112.5"/>
<text text-anchor="middle" x="254" y="-119.5" font-family="Helvetica,sans-Serif" font-size="10.00">fem.h</text>
</a>
</g>
</g>
<!-- Node0&#45;&gt;Node5 -->
<g id="edge6" class="edge"><title>Node0&#45;&gt;Node5</title>
<path fill="none" stroke="midnightblue" d="M122.326,-168.933C153.101,-158.197 194.868,-143.627 223.042,-133.799"/>
<polygon fill="midnightblue" stroke="midnightblue" points="224.472,-137.007 232.761,-130.409 222.166,-130.398 224.472,-137.007"/>
</g>
<!-- Node2&#45;&gt;Node1 -->
<g id="edge3" class="edge"><title>Node2&#45;&gt;Node1</title>
<path fill="none" stroke="midnightblue" d="M72.0386,-112.324C62.8734,-104.341 49.0628,-92.3128 37.9718,-82.6529"/>
<polygon fill="midnightblue" stroke="midnightblue" points="39.9822,-79.7624 30.1426,-75.8339 35.3847,-85.041 39.9822,-79.7624"/>
</g>
<!-- Node3 -->
<g id="node4" class="node"><title>Node3</title>
<g id="a_node4"><a xlink:href="a00161.html" target="_top" xlink:title="This file contains function prototypes and constant definitions for METIS. ">
<polygon fill="white" stroke="black" points="58.5,-56.5 58.5,-75.5 107.5,-75.5 107.5,-56.5 58.5,-56.5"/>
<text text-anchor="middle" x="83" y="-63.5" font-family="Helvetica,sans-Serif" font-size="10.00">metis.h</text>
</a>
</g>
</g>
<!-- Node2&#45;&gt;Node3 -->
<g id="edge4" class="edge"><title>Node2&#45;&gt;Node3</title>
<path fill="none" stroke="midnightblue" d="M82.1651,-112.083C82.2962,-105.006 82.4841,-94.8611 82.6484,-85.9865"/>
<polygon fill="midnightblue" stroke="midnightblue" points="86.1521,-85.8142 82.8379,-75.7511 79.1533,-85.6845 86.1521,-85.8142"/>
</g>
<!-- Node4 -->
<g id="node5" class="node"><title>Node4</title>
<polygon fill="white" stroke="#bfbfbf" points="53.5,-0.5 53.5,-19.5 112.5,-19.5 112.5,-0.5 53.5,-0.5"/>
<text text-anchor="middle" x="83" y="-7.5" font-family="Helvetica,sans-Serif" font-size="10.00">inttypes.h</text>
</g>
<!-- Node3&#45;&gt;Node4 -->
<g id="edge5" class="edge"><title>Node3&#45;&gt;Node4</title>
<path fill="none" stroke="midnightblue" d="M83,-56.083C83,-49.0059 83,-38.8611 83,-29.9865"/>
<polygon fill="midnightblue" stroke="midnightblue" points="86.5001,-29.751 83,-19.7511 79.5001,-29.7511 86.5001,-29.751"/>
</g>
<!-- Node6 -->
<g id="node7" class="node"><title>Node6</title>
<polygon fill="white" stroke="#bfbfbf" points="126,-56.5 126,-75.5 180,-75.5 180,-56.5 126,-56.5"/>
<text text-anchor="middle" x="153" y="-63.5" font-family="Helvetica,sans-Serif" font-size="10.00">strings.h</text>
</g>
<!-- Node5&#45;&gt;Node6 -->
<g id="edge7" class="edge"><title>Node5&#45;&gt;Node6</title>
<path fill="none" stroke="midnightblue" d="M237.773,-112.324C221.649,-103.703 196.7,-90.3643 178.036,-80.3855"/>
<polygon fill="midnightblue" stroke="midnightblue" points="179.656,-77.283 169.187,-75.6545 176.356,-83.456 179.656,-77.283"/>
</g>
<!-- Node7 -->
<g id="node8" class="node"><title>Node7</title>
<polygon fill="white" stroke="#bfbfbf" points="198,-56.5 198,-75.5 246,-75.5 246,-56.5 198,-56.5"/>
<text text-anchor="middle" x="222" y="-63.5" font-family="Helvetica,sans-Serif" font-size="10.00">stdlib.h</text>
</g>
<!-- Node5&#45;&gt;Node7 -->
<g id="edge8" class="edge"><title>Node5&#45;&gt;Node7</title>
<path fill="none" stroke="midnightblue" d="M248.716,-112.083C244.289,-104.613 237.837,-93.7244 232.382,-84.5199"/>
<polygon fill="midnightblue" stroke="midnightblue" points="235.295,-82.5697 227.186,-75.7511 229.273,-86.1383 235.295,-82.5697"/>
</g>
<!-- Node8 -->
<g id="node9" class="node"><title>Node8</title>
<polygon fill="white" stroke="#bfbfbf" points="264,-56.5 264,-75.5 310,-75.5 310,-56.5 264,-56.5"/>
<text text-anchor="middle" x="287" y="-63.5" font-family="Helvetica,sans-Serif" font-size="10.00">stdio.h</text>
</g>
<!-- Node5&#45;&gt;Node8 -->
<g id="edge9" class="edge"><title>Node5&#45;&gt;Node8</title>
<path fill="none" stroke="midnightblue" d="M259.449,-112.083C264.014,-104.613 270.668,-93.7244 276.293,-84.5199"/>
<polygon fill="midnightblue" stroke="midnightblue" points="279.424,-86.109 281.652,-75.7511 273.451,-82.4588 279.424,-86.109"/>
</g>
<!-- Node9 -->
<g id="node10" class="node"><title>Node9</title>
<polygon fill="white" stroke="#bfbfbf" points="328.5,-56.5 328.5,-75.5 375.5,-75.5 375.5,-56.5 328.5,-56.5"/>
<text text-anchor="middle" x="352" y="-63.5" font-family="Helvetica,sans-Serif" font-size="10.00">math.h</text>
</g>
<!-- Node5&#45;&gt;Node9 -->
<g id="edge10" class="edge"><title>Node5&#45;&gt;Node9</title>
<path fill="none" stroke="midnightblue" d="M269.745,-112.324C285.319,-103.743 309.377,-90.486 327.459,-80.5224"/>
<polygon fill="midnightblue" stroke="midnightblue" points="329.224,-83.546 336.294,-75.6545 325.846,-77.4152 329.224,-83.546"/>
</g>
<!-- Node10 -->
<g id="node11" class="node"><title>Node10</title>
<g id="a_node11"><a xlink:href="a00158.html" target="_top" xlink:title="Mesh.h">
<polygon fill="white" stroke="black" points="393.5,-56.5 393.5,-75.5 442.5,-75.5 442.5,-56.5 393.5,-56.5"/>
<text text-anchor="middle" x="418" y="-63.5" font-family="Helvetica,sans-Serif" font-size="10.00">Mesh.h</text>
</a>
</g>
</g>
<!-- Node5&#45;&gt;Node10 -->
<g id="edge11" class="edge"><title>Node5&#45;&gt;Node10</title>
<path fill="none" stroke="midnightblue" d="M275.104,-114.051C302.545,-105.016 350.828,-89.1177 383.598,-78.3275"/>
<polygon fill="midnightblue" stroke="midnightblue" points="384.826,-81.6081 393.23,-75.1561 382.637,-74.9592 384.826,-81.6081"/>
</g>
<!-- Node11 -->
<g id="node12" class="node"><title>Node11</title>
<polygon fill="white" stroke="#bfbfbf" points="389.5,-0.5 389.5,-19.5 446.5,-19.5 446.5,-0.5 389.5,-0.5"/>
<text text-anchor="middle" x="418" y="-7.5" font-family="Helvetica,sans-Serif" font-size="10.00">occa.hpp</text>
</g>
<!-- Node10&#45;&gt;Node11 -->
<g id="edge12" class="edge"><title>Node10&#45;&gt;Node11</title>
<path fill="none" stroke="midnightblue" d="M418,-56.083C418,-49.0059 418,-38.8611 418,-29.9865"/>
<polygon fill="midnightblue" stroke="midnightblue" points="421.5,-29.751 418,-19.7511 414.5,-29.7511 421.5,-29.751"/>
</g>
</g>
</svg>
