<?xml version="1.0" encoding="UTF-8" standalone="no"?>
<!DOCTYPE svg PUBLIC "-//W3C//DTD SVG 1.1//EN"
 "http://www.w3.org/Graphics/SVG/1.1/DTD/svg11.dtd">
<!-- Generated by graphviz version 2.36.0 (20140111.2315)
 -->
<!-- Title: ArcSyn3sis/src/occa_routines.cpp Pages: 1 -->
<svg width="425pt" height="208pt"
 viewBox="0.00 0.00 425.00 208.00" xmlns="http://www.w3.org/2000/svg" xmlns:xlink="http://www.w3.org/1999/xlink">
<g id="graph0" class="graph" transform="scale(1 1) rotate(0) translate(4 204)">
<title>ArcSyn3sis/src/occa_routines.cpp</title>
<polygon fill="white" stroke="none" points="-4,4 -4,-204 421,-204 421,4 -4,4"/>
<!-- Node0 -->
<g id="node1" class="node"><title>Node0</title>
<polygon fill="#bfbfbf" stroke="black" points="139.5,-169 139.5,-199 246.5,-199 246.5,-169 139.5,-169"/>
<text text-anchor="start" x="147.5" y="-187" font-family="Helvetica,sans-Serif" font-size="10.00">ArcSyn3sis/src/occa</text>
<text text-anchor="middle" x="193" y="-176" font-family="Helvetica,sans-Serif" font-size="10.00">_routines.cpp</text>
</g>
<!-- Node1 -->
<g id="node2" class="node"><title>Node1</title>
<polygon fill="white" stroke="#bfbfbf" points="0,-56.5 0,-75.5 46,-75.5 46,-56.5 0,-56.5"/>
<text text-anchor="middle" x="23" y="-63.5" font-family="Helvetica,sans-Serif" font-size="10.00">stdio.h</text>
</g>
<!-- Node0&#45;&gt;Node1 -->
<g id="edge1" class="edge"><title>Node0&#45;&gt;Node1</title>
<path fill="none" stroke="midnightblue" d="M165.511,-168.964C147.313,-159.303 123.173,-145.77 103,-132 80.3027,-116.507 56.0496,-96.2129 40.2742,-82.4518"/>
<polygon fill="midnightblue" stroke="midnightblue" points="42.2619,-79.5383 32.446,-75.551 37.633,-84.7893 42.2619,-79.5383"/>
</g>
<!-- Node2 -->
<g id="node3" class="node"><title>Node2</title>
<polygon fill="white" stroke="#bfbfbf" points="112.5,-112.5 112.5,-131.5 153.5,-131.5 153.5,-112.5 112.5,-112.5"/>
<text text-anchor="middle" x="133" y="-119.5" font-family="Helvetica,sans-Serif" font-size="10.00">mpi.h</text>
</g>
<!-- Node0&#45;&gt;Node2 -->
<g id="edge2" class="edge"><title>Node0&#45;&gt;Node2</title>
<path fill="none" stroke="midnightblue" d="M178.781,-168.781C169.792,-159.792 158.162,-148.162 148.873,-138.873"/>
<polygon fill="midnightblue" stroke="midnightblue" points="151.277,-136.327 141.731,-131.731 146.327,-141.277 151.277,-136.327"/>
</g>
<!-- Node3 -->
<g id="node4" class="node"><title>Node3</title>
<g id="a_node4"><a xlink:href="a00155.html" target="_top" xlink:title="fem.h">
<polygon fill="white" stroke="black" points="172,-112.5 172,-131.5 214,-131.5 214,-112.5 172,-112.5"/>
<text text-anchor="middle" x="193" y="-119.5" font-family="Helvetica,sans-Serif" font-size="10.00">fem.h</text>
</a>
</g>
</g>
<!-- Node0&#45;&gt;Node3 -->
<g id="edge3" class="edge"><title>Node0&#45;&gt;Node3</title>
<path fill="none" stroke="midnightblue" d="M193,-168.781C193,-160.781 193,-150.689 193,-142.017"/>
<polygon fill="midnightblue" stroke="midnightblue" points="196.5,-141.73 193,-131.731 189.5,-141.731 196.5,-141.73"/>
</g>
<!-- Node8 -->
<g id="node9" class="node"><title>Node8</title>
<polygon fill="white" stroke="#bfbfbf" points="289.5,-0.5 289.5,-19.5 346.5,-19.5 346.5,-0.5 289.5,-0.5"/>
<text text-anchor="middle" x="318" y="-7.5" font-family="Helvetica,sans-Serif" font-size="10.00">occa.hpp</text>
</g>
<!-- Node0&#45;&gt;Node8 -->
<g id="edge11" class="edge"><title>Node0&#45;&gt;Node8</title>
<path fill="none" stroke="midnightblue" d="M222.95,-168.862C254.979,-151.88 303.992,-120.072 325,-76 331.936,-61.4481 329.021,-43.0354 325.051,-29.5252"/>
<polygon fill="midnightblue" stroke="midnightblue" points="328.32,-28.2664 321.809,-19.9087 321.687,-30.5028 328.32,-28.2664"/>
</g>
<!-- Node9 -->
<g id="node10" class="node"><title>Node9</title>
<polygon fill="white" stroke="#bfbfbf" points="373,-112.5 373,-131.5 417,-131.5 417,-112.5 373,-112.5"/>
<text text-anchor="middle" x="395" y="-119.5" font-family="Helvetica,sans-Serif" font-size="10.00">vector</text>
</g>
<!-- Node0&#45;&gt;Node9 -->
<g id="edge10" class="edge"><title>Node0&#45;&gt;Node9</title>
<path fill="none" stroke="midnightblue" d="M240.36,-168.933C278.193,-157.695 330.172,-142.256 363.178,-132.452"/>
<polygon fill="midnightblue" stroke="midnightblue" points="364.186,-135.804 372.776,-129.601 362.193,-129.094 364.186,-135.804"/>
</g>
<!-- Node3&#45;&gt;Node1 -->
<g id="edge6" class="edge"><title>Node3&#45;&gt;Node1</title>
<path fill="none" stroke="midnightblue" d="M171.813,-114.27C142.649,-105.006 89.8676,-88.2403 55.6403,-77.3681"/>
<polygon fill="midnightblue" stroke="midnightblue" points="56.6776,-74.0253 46.0873,-74.3336 54.5584,-80.6968 56.6776,-74.0253"/>
</g>
<!-- Node4 -->
<g id="node5" class="node"><title>Node4</title>
<polygon fill="white" stroke="#bfbfbf" points="64,-56.5 64,-75.5 118,-75.5 118,-56.5 64,-56.5"/>
<text text-anchor="middle" x="91" y="-63.5" font-family="Helvetica,sans-Serif" font-size="10.00">strings.h</text>
</g>
<!-- Node3&#45;&gt;Node4 -->
<g id="edge4" class="edge"><title>Node3&#45;&gt;Node4</title>
<path fill="none" stroke="midnightblue" d="M176.612,-112.324C160.329,-103.703 135.133,-90.3643 116.284,-80.3855"/>
<polygon fill="midnightblue" stroke="midnightblue" points="117.823,-77.2402 107.347,-75.6545 114.548,-83.4267 117.823,-77.2402"/>
</g>
<!-- Node5 -->
<g id="node6" class="node"><title>Node5</title>
<polygon fill="white" stroke="#bfbfbf" points="136,-56.5 136,-75.5 184,-75.5 184,-56.5 136,-56.5"/>
<text text-anchor="middle" x="160" y="-63.5" font-family="Helvetica,sans-Serif" font-size="10.00">stdlib.h</text>
</g>
<!-- Node3&#45;&gt;Node5 -->
<g id="edge5" class="edge"><title>Node3&#45;&gt;Node5</title>
<path fill="none" stroke="midnightblue" d="M187.551,-112.083C182.986,-104.613 176.332,-93.7244 170.707,-84.5199"/>
<polygon fill="midnightblue" stroke="midnightblue" points="173.549,-82.4588 165.348,-75.7511 167.576,-86.109 173.549,-82.4588"/>
</g>
<!-- Node6 -->
<g id="node7" class="node"><title>Node6</title>
<polygon fill="white" stroke="#bfbfbf" points="202.5,-56.5 202.5,-75.5 249.5,-75.5 249.5,-56.5 202.5,-56.5"/>
<text text-anchor="middle" x="226" y="-63.5" font-family="Helvetica,sans-Serif" font-size="10.00">math.h</text>
</g>
<!-- Node3&#45;&gt;Node6 -->
<g id="edge7" class="edge"><title>Node3&#45;&gt;Node6</title>
<path fill="none" stroke="midnightblue" d="M198.449,-112.083C203.014,-104.613 209.668,-93.7244 215.293,-84.5199"/>
<polygon fill="midnightblue" stroke="midnightblue" points="218.424,-86.109 220.652,-75.7511 212.451,-82.4588 218.424,-86.109"/>
</g>
<!-- Node7 -->
<g id="node8" class="node"><title>Node7</title>
<g id="a_node8"><a xlink:href="a00158.html" target="_top" xlink:title="Mesh.h">
<polygon fill="white" stroke="black" points="267.5,-56.5 267.5,-75.5 316.5,-75.5 316.5,-56.5 267.5,-56.5"/>
<text text-anchor="middle" x="292" y="-63.5" font-family="Helvetica,sans-Serif" font-size="10.00">Mesh.h</text>
</a>
</g>
</g>
<!-- Node3&#45;&gt;Node7 -->
<g id="edge8" class="edge"><title>Node3&#45;&gt;Node7</title>
<path fill="none" stroke="midnightblue" d="M208.906,-112.324C224.638,-103.743 248.942,-90.486 267.209,-80.5224"/>
<polygon fill="midnightblue" stroke="midnightblue" points="269.03,-83.5157 276.133,-75.6545 265.678,-77.3704 269.03,-83.5157"/>
</g>
<!-- Node7&#45;&gt;Node8 -->
<g id="edge9" class="edge"><title>Node7&#45;&gt;Node8</title>
<path fill="none" stroke="midnightblue" d="M296.293,-56.083C299.852,-48.6913 305.022,-37.9533 309.424,-28.8111"/>
<polygon fill="midnightblue" stroke="midnightblue" points="312.602,-30.2795 313.787,-19.7511 306.295,-27.2427 312.602,-30.2795"/>
</g>
</g>
</svg>
