<?xml version="1.0" encoding="UTF-8" standalone="no"?>
<!DOCTYPE svg PUBLIC "-//W3C//DTD SVG 1.1//EN"
 "http://www.w3.org/Graphics/SVG/1.1/DTD/svg11.dtd">
<!-- Generated by graphviz version 2.36.0 (20140111.2315)
 -->
<!-- Title: Refine2WayNode Pages: 1 -->
<!--zoomable 126 -->
<svg id="main" version="1.1" xmlns="http://www.w3.org/2000/svg" xmlns:xlink="http://www.w3.org/1999/xlink" xml:space="preserve" onload="init(evt)">
<style type="text/css"><![CDATA[
.edge:hover path { stroke: red; }
.edge:hover polygon { stroke: red; fill: red; }
]]></style>
<script type="text/javascript"><![CDATA[
var edges = document.getElementsByTagName('g');
if (edges && edges.length) {
  for (var i=0;i<edges.length;i++) {
    if (edges[i].id.substr(0,4)=='edge') {
      edges[i].setAttribute('class','edge');
    }
  }
}
]]></script>
        <defs>
                <circle id="rim" cx="0" cy="0" r="7"/>
                <circle id="rim2" cx="0" cy="0" r="3.5"/>
                <g id="zoomPlus">
                        <use xlink:href="#rim" fill="#404040">
                                <set attributeName="fill" to="#808080" begin="zoomplus.mouseover" end="zoomplus.mouseout"/>
                        </use>
                        <path d="M-4,0h8M0,-4v8" fill="none" stroke="white" stroke-width="1.5" pointer-events="none"/>
                </g>
                <g id="zoomMin">
                        <use xlink:href="#rim" fill="#404040">
                                <set attributeName="fill" to="#808080" begin="zoomminus.mouseover" end="zoomminus.mouseout"/>
                        </use>
                        <path d="M-4,0h8" fill="none" stroke="white" stroke-width="1.5" pointer-events="none"/>
                </g>
                <g id="dirArrow">
                        <path fill="none" stroke="white" stroke-width="1.5" d="M0,-3.0v7 M-2.5,-0.5L0,-3.0L2.5,-0.5"/>
                </g>
               <g id="resetDef">
                       <use xlink:href="#rim2" fill="#404040">
                               <set attributeName="fill" to="#808080" begin="reset.mouseover" end="reset.mouseout"/>
                       </use>
               </g>
        </defs>

<script type="text/javascript">
var viewWidth = 794;
var viewHeight = 126;
var sectionId = 'dynsection-6';
</script>
<script xlink:href="svgpan.js"/>
<svg id="graph" class="graph">
<g id="viewport">
<title>Refine2WayNode</title>
<polygon fill="white" stroke="none" points="-4,4 -4,-122.262 790,-122.262 790,4 -4,4"/>
<!-- Node23 -->
<g id="node1" class="node"><title>Node23</title>
<polygon fill="#bfbfbf" stroke="black" points="0.5,-47.5 0.5,-66.5 95.5,-66.5 95.5,-47.5 0.5,-47.5"/>
<text text-anchor="middle" x="48" y="-54.5" font-family="Helvetica,sans-Serif" font-size="10.00">Refine2WayNode</text>
</g>
<!-- Node24 -->
<g id="node2" class="node"><title>Node24</title>
<g id="a_node2"><a xlink:href="a00278.html#a66257f7c528ad75c86244ef3794d1ae5" target="_top" xlink:title="Compute2WayNodePartition\lParams">
<polygon fill="white" stroke="black" points="302.5,-88 302.5,-118 445.5,-118 445.5,-88 302.5,-88"/>
<text text-anchor="start" x="310.5" y="-106" font-family="Helvetica,sans-Serif" font-size="10.00">Compute2WayNodePartition</text>
<text text-anchor="middle" x="374" y="-95" font-family="Helvetica,sans-Serif" font-size="10.00">Params</text>
</a>
</g>
</g>
<!-- Node23&#45;&gt;Node24 -->
<g id="edge1" class="edge"><title>Node23&#45;&gt;Node24</title>
<path fill="none" stroke="midnightblue" d="M86.4184,-66.5148C100.621,-69.8756 116.989,-73.4495 132,-76 185.074,-85.0179 245.255,-91.7632 292.201,-96.2565"/>
<polygon fill="midnightblue" stroke="midnightblue" points="292.029,-99.7557 302.314,-97.2092 292.686,-92.7865 292.029,-99.7557"/>
</g>
<!-- Node25 -->
<g id="node3" class="node"><title>Node25</title>
<g id="a_node3"><a xlink:href="a00278.html#ab3d791e7adffa770602e257ecdaabd72" target="_top" xlink:title="Project2WayNodePartition">
<polygon fill="white" stroke="black" points="132,-47.5 132,-66.5 266,-66.5 266,-47.5 132,-47.5"/>
<text text-anchor="middle" x="199" y="-54.5" font-family="Helvetica,sans-Serif" font-size="10.00">Project2WayNodePartition</text>
</a>
</g>
</g>
<!-- Node23&#45;&gt;Node25 -->
<g id="edge2" class="edge"><title>Node23&#45;&gt;Node25</title>
<path fill="none" stroke="midnightblue" d="M95.7357,-57C104.045,-57 112.892,-57 121.771,-57"/>
<polygon fill="midnightblue" stroke="midnightblue" points="121.784,-60.5001 131.784,-57 121.784,-53.5001 121.784,-60.5001"/>
</g>
<!-- Node31 -->
<g id="node9" class="node"><title>Node31</title>
<g id="a_node9"><a xlink:href="a00026.html#a4c320c13bcdc9967613253ef4c73f59f" target="_top" xlink:title="gk_errexit">
<polygon fill="white" stroke="black" points="614,-0.5 614,-19.5 674,-19.5 674,-0.5 614,-0.5"/>
<text text-anchor="middle" x="644" y="-7.5" font-family="Helvetica,sans-Serif" font-size="10.00">gk_errexit</text>
</a>
</g>
</g>
<!-- Node23&#45;&gt;Node31 -->
<g id="edge11" class="edge"><title>Node23&#45;&gt;Node31</title>
<path fill="none" stroke="midnightblue" d="M84.7035,-47.4244C99.2677,-43.8865 116.337,-40.2054 132,-38 306.616,-13.4125 517.621,-10.1197 603.637,-9.88149"/>
<polygon fill="midnightblue" stroke="midnightblue" points="603.741,-13.3814 613.736,-9.86629 603.731,-6.38144 603.741,-13.3814"/>
</g>
<!-- Node25&#45;&gt;Node24 -->
<g id="edge10" class="edge"><title>Node25&#45;&gt;Node24</title>
<path fill="none" stroke="midnightblue" d="M235.846,-66.5312C256.287,-71.9666 282.556,-78.9514 306.624,-85.351"/>
<polygon fill="midnightblue" stroke="midnightblue" points="305.863,-88.77 316.426,-87.9573 307.661,-82.0051 305.863,-88.77"/>
</g>
<!-- Node26 -->
<g id="node4" class="node"><title>Node26</title>
<g id="a_node4"><a xlink:href="a00278.html#a843a5692564dc695b281647dc690c887" target="_top" xlink:title="Allocate2WayNodePartition\lMemory">
<polygon fill="white" stroke="black" points="305,-39 305,-69 443,-69 443,-39 305,-39"/>
<text text-anchor="start" x="313" y="-57" font-family="Helvetica,sans-Serif" font-size="10.00">Allocate2WayNodePartition</text>
<text text-anchor="middle" x="374" y="-46" font-family="Helvetica,sans-Serif" font-size="10.00">Memory</text>
</a>
</g>
</g>
<!-- Node25&#45;&gt;Node26 -->
<g id="edge3" class="edge"><title>Node25&#45;&gt;Node26</title>
<path fill="none" stroke="midnightblue" d="M266.392,-55.8487C275.628,-55.6885 285.189,-55.5227 294.62,-55.3592"/>
<polygon fill="midnightblue" stroke="midnightblue" points="294.843,-58.8559 304.781,-55.183 294.722,-51.857 294.843,-58.8559"/>
</g>
<!-- Node27 -->
<g id="node5" class="node"><title>Node27</title>
<g id="a_node5"><a xlink:href="a00077.html#aba6f76f5c67b9b7e9c2e45988d3d3e9d" target="_top" xlink:title="gk_malloc">
<polygon fill="white" stroke="black" points="482,-44.5 482,-63.5 544,-63.5 544,-44.5 482,-44.5"/>
<text text-anchor="middle" x="513" y="-51.5" font-family="Helvetica,sans-Serif" font-size="10.00">gk_malloc</text>
</a>
</g>
</g>
<!-- Node26&#45;&gt;Node27 -->
<g id="edge4" class="edge"><title>Node26&#45;&gt;Node27</title>
<path fill="none" stroke="midnightblue" d="M443.099,-54C452.849,-54 462.61,-54 471.591,-54"/>
<polygon fill="midnightblue" stroke="midnightblue" points="471.729,-57.5001 481.729,-54 471.729,-50.5001 471.729,-57.5001"/>
</g>
<!-- Node28 -->
<g id="node6" class="node"><title>Node28</title>
<g id="a_node6"><a xlink:href="a01017.html#a2e311a777ffe9c80e405efa7cd2757be" target="_top" xlink:title="fprintf">
<polygon fill="white" stroke="black" points="744,-57.5 744,-76.5 786,-76.5 786,-57.5 744,-57.5"/>
<text text-anchor="middle" x="765" y="-64.5" font-family="Helvetica,sans-Serif" font-size="10.00">fprintf</text>
</a>
</g>
</g>
<!-- Node27&#45;&gt;Node28 -->
<g id="edge5" class="edge"><title>Node27&#45;&gt;Node28</title>
<path fill="none" stroke="midnightblue" d="M522.637,-63.8403C534.234,-76.2249 556.155,-96.8605 580,-105 633.839,-123.378 653.62,-121.709 708,-105 722.039,-100.686 735.719,-91.5255 746.044,-83.2793"/>
<polygon fill="midnightblue" stroke="midnightblue" points="748.469,-85.8134 753.862,-76.6941 743.959,-80.4595 748.469,-85.8134"/>
</g>
<!-- Node29 -->
<g id="node7" class="node"><title>Node29</title>
<g id="a_node7"><a xlink:href="a00110.html#ad2327b94227019b6753b6b09400c0522" target="_top" xlink:title="gk_GetCurMemoryUsed">
<polygon fill="white" stroke="black" points="582,-76.5 582,-95.5 706,-95.5 706,-76.5 582,-76.5"/>
<text text-anchor="middle" x="644" y="-83.5" font-family="Helvetica,sans-Serif" font-size="10.00">gk_GetCurMemoryUsed</text>
</a>
</g>
</g>
<!-- Node27&#45;&gt;Node29 -->
<g id="edge6" class="edge"><title>Node27&#45;&gt;Node29</title>
<path fill="none" stroke="midnightblue" d="M544.245,-61.5026C559.31,-65.2396 577.887,-69.8479 594.849,-74.0556"/>
<polygon fill="midnightblue" stroke="midnightblue" points="594.062,-77.4665 604.611,-76.4771 595.748,-70.6724 594.062,-77.4665"/>
</g>
<!-- Node30 -->
<g id="node8" class="node"><title>Node30</title>
<g id="a_node8"><a xlink:href="a00110.html#a656fd5266ae12a96e53125486f8fea52" target="_top" xlink:title="gk_GetMaxMemoryUsed">
<polygon fill="white" stroke="black" points="580.5,-38.5 580.5,-57.5 707.5,-57.5 707.5,-38.5 580.5,-38.5"/>
<text text-anchor="middle" x="644" y="-45.5" font-family="Helvetica,sans-Serif" font-size="10.00">gk_GetMaxMemoryUsed</text>
</a>
</g>
</g>
<!-- Node27&#45;&gt;Node30 -->
<g id="edge7" class="edge"><title>Node27&#45;&gt;Node30</title>
<path fill="none" stroke="midnightblue" d="M544.245,-52.5933C552.229,-52.2219 561.2,-51.8046 570.395,-51.377"/>
<polygon fill="midnightblue" stroke="midnightblue" points="570.597,-54.8715 580.423,-50.9105 570.272,-47.879 570.597,-54.8715"/>
</g>
<!-- Node27&#45;&gt;Node31 -->
<g id="edge8" class="edge"><title>Node27&#45;&gt;Node31</title>
<path fill="none" stroke="midnightblue" d="M537.993,-44.4544C550.45,-39.6151 565.962,-33.7691 580,-29 587.682,-26.3903 595.95,-23.7663 603.887,-21.3369"/>
<polygon fill="midnightblue" stroke="midnightblue" points="605.132,-24.6172 613.696,-18.3793 603.111,-17.9152 605.132,-24.6172"/>
</g>
<!-- Node31&#45;&gt;Node28 -->
<g id="edge9" class="edge"><title>Node31&#45;&gt;Node28</title>
<path fill="none" stroke="midnightblue" d="M674.228,-16.8252C685.104,-19.8755 697.377,-23.9396 708,-29 720.634,-35.0184 733.634,-43.6626 743.925,-51.1863"/>
<polygon fill="midnightblue" stroke="midnightblue" points="742.101,-54.1937 752.194,-57.4154 746.313,-48.6027 742.101,-54.1937"/>
</g>
</g>
</svg>
        <g id="navigator" transform="translate(0 0)" fill="#404254">
                <rect fill="#f2f5e9" fill-opacity="0.5" stroke="#606060" stroke-width=".5" x="0" y="0" width="60" height="60"/>
                <use id="zoomplus" xlink:href="#zoomPlus" x="17" y="9" onmousedown="handleZoom(evt,'in')"/>
                <use id="zoomminus" xlink:href="#zoomMin" x="42" y="9" onmousedown="handleZoom(evt,'out')"/>
                <use id="reset" xlink:href="#resetDef" x="30" y="36" onmousedown="handleReset()"/>
                <g id="arrowUp" xlink:href="#dirArrow" transform="translate(30 24)" onmousedown="handlePan(0,-1)">
                  <use xlink:href="#rim" fill="#404040">
                        <set attributeName="fill" to="#808080" begin="arrowUp.mouseover" end="arrowUp.mouseout"/>
                  </use>
                  <path fill="none" stroke="white" stroke-width="1.5" d="M0,-3.0v7 M-2.5,-0.5L0,-3.0L2.5,-0.5"/>
                </g>
                <g id="arrowRight" xlink:href="#dirArrow" transform="rotate(90) translate(36 -43)" onmousedown="handlePan(1,0)">
                  <use xlink:href="#rim" fill="#404040">
                        <set attributeName="fill" to="#808080" begin="arrowRight.mouseover" end="arrowRight.mouseout"/>
                  </use>
                  <path fill="none" stroke="white" stroke-width="1.5" d="M0,-3.0v7 M-2.5,-0.5L0,-3.0L2.5,-0.5"/>
                </g>
                <g id="arrowDown" xlink:href="#dirArrow" transform="rotate(180) translate(-30 -48)" onmousedown="handlePan(0,1)">
                  <use xlink:href="#rim" fill="#404040">
                        <set attributeName="fill" to="#808080" begin="arrowDown.mouseover" end="arrowDown.mouseout"/>
                  </use>
                  <path fill="none" stroke="white" stroke-width="1.5" d="M0,-3.0v7 M-2.5,-0.5L0,-3.0L2.5,-0.5"/>
                </g>
                <g id="arrowLeft" xlink:href="#dirArrow" transform="rotate(270) translate(-36 17)" onmousedown="handlePan(-1,0)">
                  <use xlink:href="#rim" fill="#404040">
                        <set attributeName="fill" to="#808080" begin="arrowLeft.mouseover" end="arrowLeft.mouseout"/>
                  </use>
                  <path fill="none" stroke="white" stroke-width="1.5" d="M0,-3.0v7 M-2.5,-0.5L0,-3.0L2.5,-0.5"/>
                </g>
        </g>
        <svg viewBox="0 0 15 15" width="100%" height="30px" preserveAspectRatio="xMaxYMin meet">
         <g id="arrow_out" transform="scale(0.3 0.3)">
          <a xlink:href="a00278_a2fd4bd5f789c1c1248aa326d0cac9023_cgraph_org.svg" target="_base">
           <rect id="button" ry="5" rx="5" y="6" x="6" height="38" width="38"
                fill="#f2f5e9" fill-opacity="0.5" stroke="#606060" stroke-width="1.0"/>
           <path id="arrow"
             d="M 11.500037,31.436501 C 11.940474,20.09759 22.043105,11.32322 32.158766,21.979434 L 37.068811,17.246167 C 37.068811,17.246167 37.088388,32 37.088388,32 L 22.160133,31.978069 C 22.160133,31.978069 26.997745,27.140456 26.997745,27.140456 C 18.528582,18.264221 13.291696,25.230495 11.500037,31.436501 z"
             style="fill:#404040;"/>
          </a>
         </g>
        </svg>
</svg>
