<?xml version="1.0" encoding="UTF-8" standalone="no"?>
<!DOCTYPE svg PUBLIC "-//W3C//DTD SVG 1.1//EN"
 "http://www.w3.org/Graphics/SVG/1.1/DTD/svg11.dtd">
<!-- Generated by graphviz version 2.36.0 (20140111.2315)
 -->
<!-- Title: BuildVector Pages: 1 -->
<svg width="292pt" height="180pt"
 viewBox="0.00 0.00 292.00 180.00" xmlns="http://www.w3.org/2000/svg" xmlns:xlink="http://www.w3.org/1999/xlink">
<g id="graph0" class="graph" transform="scale(1 1) rotate(0) translate(4 176)">
<title>BuildVector</title>
<polygon fill="white" stroke="none" points="-4,4 -4,-176 288,-176 288,4 -4,4"/>
<!-- Node38 -->
<g id="node1" class="node"><title>Node38</title>
<polygon fill="#bfbfbf" stroke="black" points="0,-76.5 0,-95.5 68,-95.5 68,-76.5 0,-76.5"/>
<text text-anchor="middle" x="34" y="-83.5" font-family="Helvetica,sans-Serif" font-size="10.00">BuildVector</text>
</g>
<!-- Node39 -->
<g id="node2" class="node"><title>Node39</title>
<g id="a_node2"><a xlink:href="a00206.html#af31fd6654ededed596d98c090d8748b5" target="_top" xlink:title="ReadMesh2d">
<polygon fill="white" stroke="black" points="119,-76.5 119,-95.5 195,-95.5 195,-76.5 119,-76.5"/>
<text text-anchor="middle" x="157" y="-83.5" font-family="Helvetica,sans-Serif" font-size="10.00">ReadMesh2d</text>
</a>
</g>
</g>
<!-- Node38&#45;&gt;Node39 -->
<g id="edge1" class="edge"><title>Node38&#45;&gt;Node39</title>
<path fill="none" stroke="midnightblue" d="M78.3447,-86C91.5488,-86 105.941,-86 118.709,-86"/>
<polygon fill="midnightblue" stroke="midnightblue" points="78.0638,-82.5001 68.0638,-86 78.0637,-89.5001 78.0638,-82.5001"/>
</g>
<!-- Node41 -->
<g id="node4" class="node"><title>Node41</title>
<g id="a_node4"><a xlink:href="a00206.html#a992690ab68b8564681b5a038ca111413" target="_top" xlink:title="ReadMesh2d_linear">
<polygon fill="white" stroke="black" points="104,-114.5 104,-133.5 210,-133.5 210,-114.5 104,-114.5"/>
<text text-anchor="middle" x="157" y="-121.5" font-family="Helvetica,sans-Serif" font-size="10.00">ReadMesh2d_linear</text>
</a>
</g>
</g>
<!-- Node38&#45;&gt;Node41 -->
<g id="edge3" class="edge"><title>Node38&#45;&gt;Node41</title>
<path fill="none" stroke="midnightblue" d="M75.3771,-98.6804C91.7262,-103.815 110.288,-109.644 125.476,-114.414"/>
<polygon fill="midnightblue" stroke="midnightblue" points="76.1227,-95.2461 65.5334,-95.589 74.0253,-101.924 76.1227,-95.2461"/>
</g>
<!-- Node42 -->
<g id="node5" class="node"><title>Node42</title>
<g id="a_node5"><a xlink:href="a00212.html#a004c52e87250e61b258755469b25bbe9" target="_top" xlink:title="LoadBalance3d">
<polygon fill="white" stroke="black" points="114,-0.5 114,-19.5 200,-19.5 200,-0.5 114,-0.5"/>
<text text-anchor="middle" x="157" y="-7.5" font-family="Helvetica,sans-Serif" font-size="10.00">LoadBalance3d</text>
</a>
</g>
</g>
<!-- Node38&#45;&gt;Node42 -->
<g id="edge4" class="edge"><title>Node38&#45;&gt;Node42</title>
<path fill="none" stroke="midnightblue" d="M51.8918,-69.2283C65.1564,-56.7911 84.5744,-40.1321 104,-29 110.338,-25.368 117.496,-22.2179 124.428,-19.5838"/>
<polygon fill="midnightblue" stroke="midnightblue" points="49.2738,-66.8898 44.4828,-76.3395 54.121,-71.94 49.2738,-66.8898"/>
</g>
<!-- Node44 -->
<g id="node7" class="node"><title>Node44</title>
<g id="a_node7"><a xlink:href="a00215.html#ae31747f9df306a59e6f4df61fddfe15f" target="_top" xlink:title="ReadMesh3d">
<polygon fill="white" stroke="black" points="119,-38.5 119,-57.5 195,-57.5 195,-38.5 119,-38.5"/>
<text text-anchor="middle" x="157" y="-45.5" font-family="Helvetica,sans-Serif" font-size="10.00">ReadMesh3d</text>
</a>
</g>
</g>
<!-- Node38&#45;&gt;Node44 -->
<g id="edge6" class="edge"><title>Node38&#45;&gt;Node44</title>
<path fill="none" stroke="midnightblue" d="M75.3771,-73.3196C91.7262,-68.1852 110.288,-62.3559 125.476,-57.5859"/>
<polygon fill="midnightblue" stroke="midnightblue" points="74.0253,-70.0755 65.5334,-76.411 76.1227,-76.7539 74.0253,-70.0755"/>
</g>
<!-- Node45 -->
<g id="node8" class="node"><title>Node45</title>
<g id="a_node8"><a xlink:href="a00221.html#a35ba318a20f8b83eefe63eeb1e1ac4b0" target="_top" xlink:title="StartUp2d">
<polygon fill="white" stroke="black" points="126,-152.5 126,-171.5 188,-171.5 188,-152.5 126,-152.5"/>
<text text-anchor="middle" x="157" y="-159.5" font-family="Helvetica,sans-Serif" font-size="10.00">StartUp2d</text>
</a>
</g>
</g>
<!-- Node38&#45;&gt;Node45 -->
<g id="edge7" class="edge"><title>Node38&#45;&gt;Node45</title>
<path fill="none" stroke="midnightblue" d="M51.8918,-102.772C65.1564,-115.209 84.5744,-131.868 104,-143 110.755,-146.871 118.441,-150.194 125.793,-152.929"/>
<polygon fill="midnightblue" stroke="midnightblue" points="54.121,-100.06 44.4828,-95.6605 49.2738,-105.11 54.121,-100.06"/>
</g>
<!-- Node40 -->
<g id="node3" class="node"><title>Node40</title>
<g id="a_node3"><a xlink:href="a00179.html#a3c04138a5bfe5d72780bb7e82a18e627" target="_top" xlink:title="main">
<polygon fill="white" stroke="black" points="246,-114.5 246,-133.5 284,-133.5 284,-114.5 246,-114.5"/>
<text text-anchor="middle" x="265" y="-121.5" font-family="Helvetica,sans-Serif" font-size="10.00">main</text>
</a>
</g>
</g>
<!-- Node39&#45;&gt;Node40 -->
<g id="edge2" class="edge"><title>Node39&#45;&gt;Node40</title>
<path fill="none" stroke="midnightblue" d="M194.595,-99.1191C211.939,-105.337 231.883,-112.487 245.928,-117.522"/>
<polygon fill="midnightblue" stroke="midnightblue" points="195.343,-95.669 184.748,-95.589 192.981,-102.258 195.343,-95.669"/>
</g>
<!-- Node43 -->
<g id="node6" class="node"><title>Node43</title>
<g id="a_node6"><a xlink:href="a00182.html#a3c04138a5bfe5d72780bb7e82a18e627" target="_top" xlink:title="main">
<polygon fill="white" stroke="black" points="246,-0.5 246,-19.5 284,-19.5 284,-0.5 246,-0.5"/>
<text text-anchor="middle" x="265" y="-7.5" font-family="Helvetica,sans-Serif" font-size="10.00">main</text>
</a>
</g>
</g>
<!-- Node42&#45;&gt;Node43 -->
<g id="edge5" class="edge"><title>Node42&#45;&gt;Node43</title>
<path fill="none" stroke="midnightblue" d="M210.407,-10C223.219,-10 236.077,-10 245.987,-10"/>
<polygon fill="midnightblue" stroke="midnightblue" points="210.199,-6.5001 200.199,-10 210.199,-13.5001 210.199,-6.5001"/>
</g>
<!-- Node45&#45;&gt;Node40 -->
<g id="edge8" class="edge"><title>Node45&#45;&gt;Node40</title>
<path fill="none" stroke="midnightblue" d="M194.595,-148.881C211.939,-142.663 231.883,-135.513 245.928,-130.478"/>
<polygon fill="midnightblue" stroke="midnightblue" points="192.981,-145.742 184.748,-152.411 195.343,-152.331 192.981,-145.742"/>
</g>
</g>
</svg>
