<?xml version="1.0" encoding="UTF-8" standalone="no"?>
<!DOCTYPE svg PUBLIC "-//W3C//DTD SVG 1.1//EN"
 "http://www.w3.org/Graphics/SVG/1.1/DTD/svg11.dtd">
<!-- Generated by graphviz version 2.36.0 (20140111.2315)
 -->
<!-- Title: MlevelRecursiveBisection Pages: 1 -->
<!--zoomable 294 -->
<svg id="main" version="1.1" xmlns="http://www.w3.org/2000/svg" xmlns:xlink="http://www.w3.org/1999/xlink" xml:space="preserve" onload="init(evt)">
<style type="text/css"><![CDATA[
.edge:hover path { stroke: red; }
.edge:hover polygon { stroke: red; fill: red; }
]]></style>
<script type="text/javascript"><![CDATA[
var edges = document.getElementsByTagName('g');
if (edges && edges.length) {
  for (var i=0;i<edges.length;i++) {
    if (edges[i].id.substr(0,4)=='edge') {
      edges[i].setAttribute('class','edge');
    }
  }
}
]]></script>
        <defs>
                <circle id="rim" cx="0" cy="0" r="7"/>
                <circle id="rim2" cx="0" cy="0" r="3.5"/>
                <g id="zoomPlus">
                        <use xlink:href="#rim" fill="#404040">
                                <set attributeName="fill" to="#808080" begin="zoomplus.mouseover" end="zoomplus.mouseout"/>
                        </use>
                        <path d="M-4,0h8M0,-4v8" fill="none" stroke="white" stroke-width="1.5" pointer-events="none"/>
                </g>
                <g id="zoomMin">
                        <use xlink:href="#rim" fill="#404040">
                                <set attributeName="fill" to="#808080" begin="zoomminus.mouseover" end="zoomminus.mouseout"/>
                        </use>
                        <path d="M-4,0h8" fill="none" stroke="white" stroke-width="1.5" pointer-events="none"/>
                </g>
                <g id="dirArrow">
                        <path fill="none" stroke="white" stroke-width="1.5" d="M0,-3.0v7 M-2.5,-0.5L0,-3.0L2.5,-0.5"/>
                </g>
               <g id="resetDef">
                       <use xlink:href="#rim2" fill="#404040">
                               <set attributeName="fill" to="#808080" begin="reset.mouseover" end="reset.mouseout"/>
                       </use>
               </g>
        </defs>

<script type="text/javascript">
var viewWidth = 1212;
var viewHeight = 294;
var sectionId = 'dynsection-4';
</script>
<script xlink:href="svgpan.js"/>
<svg id="graph" class="graph">
<g id="viewport">
<title>MlevelRecursiveBisection</title>
<polygon fill="white" stroke="none" points="-4,4 -4,-290 1208,-290 1208,4 -4,4"/>
<!-- Node24 -->
<g id="node1" class="node"><title>Node24</title>
<polygon fill="#bfbfbf" stroke="black" points="0,-95.5 0,-114.5 130,-114.5 130,-95.5 0,-95.5"/>
<text text-anchor="middle" x="65" y="-102.5" font-family="Helvetica,sans-Serif" font-size="10.00">MlevelRecursiveBisection</text>
</g>
<!-- Node25 -->
<g id="node2" class="node"><title>Node25</title>
<g id="a_node2"><a xlink:href="a00260.html#a25fc90fd934931239b3c98ac4bdbce76" target="_top" xlink:title="Recursive partitioning routine. ">
<polygon fill="white" stroke="black" points="332.5,-95.5 332.5,-114.5 475.5,-114.5 475.5,-95.5 332.5,-95.5"/>
<text text-anchor="middle" x="404" y="-102.5" font-family="Helvetica,sans-Serif" font-size="10.00">METIS_PartGraphRecursive</text>
</a>
</g>
</g>
<!-- Node24&#45;&gt;Node25 -->
<g id="edge1" class="edge"><title>Node24&#45;&gt;Node25</title>
<path fill="none" stroke="midnightblue" d="M140.328,-112.434C148.976,-113.078 157.677,-113.626 166,-114 223.72,-116.592 238.273,-116.423 296,-114 307.734,-113.507 320.173,-112.712 332.259,-111.793"/>
<polygon fill="midnightblue" stroke="midnightblue" points="140.47,-108.935 130.226,-111.639 139.921,-115.913 140.47,-108.935"/>
</g>
<!-- Node38 -->
<g id="node15" class="node"><title>Node38</title>
<g id="a_node15"><a xlink:href="a00948.html#a5510f276b321a8450b2e9cc913c2f00f" target="_top" xlink:title="MlevelRecursiveBisection">
<polygon fill="white" stroke="black" points="166,-67.5 166,-86.5 296,-86.5 296,-67.5 166,-67.5"/>
<text text-anchor="middle" x="231" y="-74.5" font-family="Helvetica,sans-Serif" font-size="10.00">MlevelRecursiveBisection</text>
</a>
</g>
</g>
<!-- Node24&#45;&gt;Node38 -->
<g id="edge20" class="edge"><title>Node24&#45;&gt;Node38</title>
<path fill="none" stroke="midnightblue" d="M132.04,-93.7249C146.044,-91.3339 160.695,-88.8326 174.271,-86.5146"/>
<polygon fill="midnightblue" stroke="midnightblue" points="131.249,-90.3092 121.981,-95.4423 132.427,-97.2093 131.249,-90.3092"/>
</g>
<!-- Node26 -->
<g id="node3" class="node"><title>Node26</title>
<g id="a_node3"><a xlink:href="a00954.html#aa24ead3c2c8fb3e58110f1f79453ce29" target="_top" xlink:title="Balance_Partition">
<polygon fill="white" stroke="black" points="1004.5,-266.5 1004.5,-285.5 1099.5,-285.5 1099.5,-266.5 1004.5,-266.5"/>
<text text-anchor="middle" x="1052" y="-273.5" font-family="Helvetica,sans-Serif" font-size="10.00">Balance_Partition</text>
</a>
</g>
</g>
<!-- Node25&#45;&gt;Node26 -->
<g id="edge2" class="edge"><title>Node25&#45;&gt;Node26</title>
<path fill="none" stroke="midnightblue" d="M426.198,-120.487C447.054,-135.026 480.292,-156.377 512,-169 685.507,-238.071 908.817,-264.074 1004.32,-272.487"/>
<polygon fill="midnightblue" stroke="midnightblue" points="427.979,-117.459 417.798,-114.53 423.93,-123.169 427.979,-117.459"/>
</g>
<!-- Node27 -->
<g id="node4" class="node"><title>Node27</title>
<g id="a_node4"><a xlink:href="a00954.html#a5358042c354702d9e8128f7cc342a322" target="_top" xlink:title="InitPartition">
<polygon fill="white" stroke="black" points="1018.5,-228.5 1018.5,-247.5 1085.5,-247.5 1085.5,-228.5 1018.5,-228.5"/>
<text text-anchor="middle" x="1052" y="-235.5" font-family="Helvetica,sans-Serif" font-size="10.00">InitPartition</text>
</a>
</g>
</g>
<!-- Node25&#45;&gt;Node27 -->
<g id="edge3" class="edge"><title>Node25&#45;&gt;Node27</title>
<path fill="none" stroke="midnightblue" d="M437.835,-118.267C458.781,-126.327 486.659,-136.317 512,-143 700.808,-192.793 933.813,-223.861 1018.39,-234.181"/>
<polygon fill="midnightblue" stroke="midnightblue" points="439.031,-114.977 428.443,-114.604 436.488,-121.498 439.031,-114.977"/>
</g>
<!-- Node28 -->
<g id="node5" class="node"><title>Node28</title>
<g id="a_node5"><a xlink:href="a00948.html#a870e37cc14eb1033c62d83d3a7c33a91" target="_top" xlink:title="InitKWayPartitioning">
<polygon fill="white" stroke="black" points="512.5,-114.5 512.5,-133.5 619.5,-133.5 619.5,-114.5 512.5,-114.5"/>
<text text-anchor="middle" x="566" y="-121.5" font-family="Helvetica,sans-Serif" font-size="10.00">InitKWayPartitioning</text>
</a>
</g>
</g>
<!-- Node25&#45;&gt;Node28 -->
<g id="edge4" class="edge"><title>Node25&#45;&gt;Node28</title>
<path fill="none" stroke="midnightblue" d="M485.713,-114.585C494.647,-115.646 503.57,-116.705 512.035,-117.71"/>
<polygon fill="midnightblue" stroke="midnightblue" points="485.987,-111.093 475.644,-113.389 485.162,-118.044 485.987,-111.093"/>
</g>
<!-- Node34 -->
<g id="node11" class="node"><title>Node34</title>
<g id="a_node11"><a xlink:href="a00236.html#ade1e7e23ad687989a6343b4fb8d61ba7" target="_top" xlink:title="METIS_PartMeshNodal">
<polygon fill="white" stroke="black" points="991,-76.5 991,-95.5 1113,-95.5 1113,-76.5 991,-76.5"/>
<text text-anchor="middle" x="1052" y="-83.5" font-family="Helvetica,sans-Serif" font-size="10.00">METIS_PartMeshNodal</text>
</a>
</g>
</g>
<!-- Node25&#45;&gt;Node34 -->
<g id="edge17" class="edge"><title>Node25&#45;&gt;Node34</title>
<path fill="none" stroke="midnightblue" d="M485.675,-102.627C617.005,-98.7646 874.059,-91.2041 990.779,-87.7712"/>
<polygon fill="midnightblue" stroke="midnightblue" points="485.565,-99.1288 475.672,-102.921 485.77,-106.126 485.565,-99.1288"/>
</g>
<!-- Node36 -->
<g id="node13" class="node"><title>Node36</title>
<g id="a_node13"><a xlink:href="a00236.html#a8f496ac1cd2246b124da246b5c6f9193" target="_top" xlink:title="METIS_PartMeshDual">
<polygon fill="white" stroke="black" points="994,-38.5 994,-57.5 1110,-57.5 1110,-38.5 994,-38.5"/>
<text text-anchor="middle" x="1052" y="-45.5" font-family="Helvetica,sans-Serif" font-size="10.00">METIS_PartMeshDual</text>
</a>
</g>
</g>
<!-- Node25&#45;&gt;Node36 -->
<g id="edge18" class="edge"><title>Node25&#45;&gt;Node36</title>
<path fill="none" stroke="midnightblue" d="M485.543,-97.4185C494.469,-96.5944 503.427,-95.7744 512,-95 687.641,-79.1348 895.566,-61.2606 993.948,-52.8576"/>
<polygon fill="midnightblue" stroke="midnightblue" points="485.135,-93.9412 475.5,-98.3485 485.781,-100.911 485.135,-93.9412"/>
</g>
<!-- Node37 -->
<g id="node14" class="node"><title>Node37</title>
<g id="a_node14"><a xlink:href="a00311.html#a0ddf1224851353fc92bfbff6f499fa97" target="_top" xlink:title="main">
<polygon fill="white" stroke="black" points="1033,-0.5 1033,-19.5 1071,-19.5 1071,-0.5 1033,-0.5"/>
<text text-anchor="middle" x="1052" y="-7.5" font-family="Helvetica,sans-Serif" font-size="10.00">main</text>
</a>
</g>
</g>
<!-- Node25&#45;&gt;Node37 -->
<g id="edge19" class="edge"><title>Node25&#45;&gt;Node37</title>
<path fill="none" stroke="midnightblue" d="M455.88,-93.2049C473.584,-89.3292 493.613,-85.1991 512,-82 715.227,-46.641 964.195,-19.1897 1032.77,-11.9061"/>
<polygon fill="midnightblue" stroke="midnightblue" points="454.76,-89.868 445.754,-95.4485 456.275,-96.7022 454.76,-89.868"/>
</g>
<!-- Node29 -->
<g id="node6" class="node"><title>Node29</title>
<g id="a_node6"><a xlink:href="a00948.html#a7973c78504ad6711d3516082b1112805" target="_top" xlink:title="MlevelKWayPartitioning">
<polygon fill="white" stroke="black" points="656,-114.5 656,-133.5 778,-133.5 778,-114.5 656,-114.5"/>
<text text-anchor="middle" x="717" y="-121.5" font-family="Helvetica,sans-Serif" font-size="10.00">MlevelKWayPartitioning</text>
</a>
</g>
</g>
<!-- Node28&#45;&gt;Node29 -->
<g id="edge5" class="edge"><title>Node28&#45;&gt;Node29</title>
<path fill="none" stroke="midnightblue" d="M629.589,-124C638.268,-124 647.168,-124 655.802,-124"/>
<polygon fill="midnightblue" stroke="midnightblue" points="629.532,-120.5 619.532,-124 629.532,-127.5 629.532,-120.5"/>
</g>
<!-- Node30 -->
<g id="node7" class="node"><title>Node30</title>
<g id="a_node7"><a xlink:href="a00912.html#af89851458c047aba436b36ed567441e4" target="_top" xlink:title="METIS_PartGraphKway">
<polygon fill="white" stroke="black" points="814.5,-114.5 814.5,-133.5 937.5,-133.5 937.5,-114.5 814.5,-114.5"/>
<text text-anchor="middle" x="876" y="-121.5" font-family="Helvetica,sans-Serif" font-size="10.00">METIS_PartGraphKway</text>
</a>
</g>
</g>
<!-- Node29&#45;&gt;Node30 -->
<g id="edge6" class="edge"><title>Node29&#45;&gt;Node30</title>
<path fill="none" stroke="midnightblue" d="M788.361,-124C797.047,-124 805.868,-124 814.391,-124"/>
<polygon fill="midnightblue" stroke="midnightblue" points="788.251,-120.5 778.251,-124 788.251,-127.5 788.251,-120.5"/>
</g>
<!-- Node30&#45;&gt;Node26 -->
<g id="edge8" class="edge"><title>Node30&#45;&gt;Node26</title>
<path fill="none" stroke="midnightblue" d="M885.485,-142.983C899.542,-172.181 930.49,-227.786 974,-257 983.031,-263.063 993.821,-267.194 1004.42,-270.007"/>
<polygon fill="midnightblue" stroke="midnightblue" points="888.622,-141.429 881.224,-133.844 882.277,-144.386 888.622,-141.429"/>
</g>
<!-- Node30&#45;&gt;Node27 -->
<g id="edge10" class="edge"><title>Node30&#45;&gt;Node27</title>
<path fill="none" stroke="midnightblue" d="M893.858,-140.967C920.349,-167.564 969.221,-216.337 974,-219 987.591,-226.575 1004.19,-231.164 1018.49,-233.928"/>
<polygon fill="midnightblue" stroke="midnightblue" points="896.265,-138.424 886.731,-133.804 891.303,-143.362 896.265,-138.424"/>
</g>
<!-- Node31 -->
<g id="node8" class="node"><title>Node31</title>
<g id="a_node8"><a xlink:href="a00846.html#a6df93293cf3d1ccb4659bd1b3091623d" target="_top" xlink:title="ParMETIS_V3_PartGeomKway">
<polygon fill="white" stroke="black" points="974,-190.5 974,-209.5 1130,-209.5 1130,-190.5 974,-190.5"/>
<text text-anchor="middle" x="1052" y="-197.5" font-family="Helvetica,sans-Serif" font-size="10.00">ParMETIS_V3_PartGeomKway</text>
</a>
</g>
</g>
<!-- Node30&#45;&gt;Node31 -->
<g id="edge7" class="edge"><title>Node30&#45;&gt;Node31</title>
<path fill="none" stroke="midnightblue" d="M898.754,-139.27C917.815,-152.029 946.669,-169.874 974,-181 983.182,-184.738 993.29,-187.876 1003.08,-190.456"/>
<polygon fill="midnightblue" stroke="midnightblue" points="900.715,-136.371 890.479,-133.637 896.776,-142.158 900.715,-136.371"/>
</g>
<!-- Node32 -->
<g id="node9" class="node"><title>Node32</title>
<g id="a_node9"><a xlink:href="a00416.html#af4fae82dc1fc688ae704c61e647d33e4" target="_top" xlink:title="PartitionSmallGraph">
<polygon fill="white" stroke="black" points="999,-152.5 999,-171.5 1105,-171.5 1105,-152.5 999,-152.5"/>
<text text-anchor="middle" x="1052" y="-159.5" font-family="Helvetica,sans-Serif" font-size="10.00">PartitionSmallGraph</text>
</a>
</g>
</g>
<!-- Node30&#45;&gt;Node32 -->
<g id="edge9" class="edge"><title>Node30&#45;&gt;Node32</title>
<path fill="none" stroke="midnightblue" d="M930.814,-135.753C955.418,-141.126 984.187,-147.409 1007.41,-152.48"/>
<polygon fill="midnightblue" stroke="midnightblue" points="931.424,-132.303 920.908,-133.589 929.93,-139.142 931.424,-132.303"/>
</g>
<!-- Node33 -->
<g id="node10" class="node"><title>Node33</title>
<g id="a_node10"><a xlink:href="a00846.html#af418d1e76eaf4f80116da4caf51bd54e" target="_top" xlink:title="ParMETIS_V3_PartKway">
<polygon fill="white" stroke="black" points="987.5,-114.5 987.5,-133.5 1116.5,-133.5 1116.5,-114.5 987.5,-114.5"/>
<text text-anchor="middle" x="1052" y="-121.5" font-family="Helvetica,sans-Serif" font-size="10.00">ParMETIS_V3_PartKway</text>
</a>
</g>
</g>
<!-- Node30&#45;&gt;Node33 -->
<g id="edge11" class="edge"><title>Node30&#45;&gt;Node33</title>
<path fill="none" stroke="midnightblue" d="M948.116,-124C961.066,-124 974.502,-124 987.224,-124"/>
<polygon fill="midnightblue" stroke="midnightblue" points="947.857,-120.5 937.857,-124 947.857,-127.5 947.857,-120.5"/>
</g>
<!-- Node30&#45;&gt;Node34 -->
<g id="edge12" class="edge"><title>Node30&#45;&gt;Node34</title>
<path fill="none" stroke="midnightblue" d="M930.814,-112.247C955.418,-106.874 984.187,-100.591 1007.41,-95.5201"/>
<polygon fill="midnightblue" stroke="midnightblue" points="929.93,-108.858 920.908,-114.411 931.424,-115.697 929.93,-108.858"/>
</g>
<!-- Node30&#45;&gt;Node36 -->
<g id="edge14" class="edge"><title>Node30&#45;&gt;Node36</title>
<path fill="none" stroke="midnightblue" d="M898.754,-108.73C917.815,-95.971 946.669,-78.1259 974,-67 983.182,-63.2622 993.29,-60.1239 1003.08,-57.5437"/>
<polygon fill="midnightblue" stroke="midnightblue" points="896.776,-105.842 890.479,-114.363 900.715,-111.629 896.776,-105.842"/>
</g>
<!-- Node30&#45;&gt;Node37 -->
<g id="edge16" class="edge"><title>Node30&#45;&gt;Node37</title>
<path fill="none" stroke="midnightblue" d="M889.96,-106.502C906.874,-84.9487 938.531,-48.7678 974,-29 992.522,-18.6772 1016.62,-13.8984 1032.89,-11.729"/>
<polygon fill="midnightblue" stroke="midnightblue" points="887.139,-104.43 883.837,-114.497 892.696,-108.686 887.139,-104.43"/>
</g>
<!-- Node35 -->
<g id="node12" class="node"><title>Node35</title>
<g id="a_node12"><a xlink:href="a00323.html#a0ddf1224851353fc92bfbff6f499fa97" target="_top" xlink:title="main">
<polygon fill="white" stroke="black" points="1166,-57.5 1166,-76.5 1204,-76.5 1204,-57.5 1166,-57.5"/>
<text text-anchor="middle" x="1185" y="-64.5" font-family="Helvetica,sans-Serif" font-size="10.00">main</text>
</a>
</g>
</g>
<!-- Node34&#45;&gt;Node35 -->
<g id="edge13" class="edge"><title>Node34&#45;&gt;Node35</title>
<path fill="none" stroke="midnightblue" d="M1123.45,-75.7819C1139.13,-73.5082 1154.42,-71.2896 1165.72,-69.6512"/>
<polygon fill="midnightblue" stroke="midnightblue" points="1122.53,-72.3793 1113.13,-77.2785 1123.53,-79.3068 1122.53,-72.3793"/>
</g>
<!-- Node36&#45;&gt;Node35 -->
<g id="edge15" class="edge"><title>Node36&#45;&gt;Node35</title>
<path fill="none" stroke="midnightblue" d="M1120.04,-57.7233C1136.99,-60.1818 1153.8,-62.6204 1165.94,-64.3799"/>
<polygon fill="midnightblue" stroke="midnightblue" points="1120.48,-54.2501 1110.08,-56.2784 1119.47,-61.1776 1120.48,-54.2501"/>
</g>
<!-- Node38&#45;&gt;Node25 -->
<g id="edge21" class="edge"><title>Node38&#45;&gt;Node25</title>
<path fill="none" stroke="midnightblue" d="M300.433,-88.2054C315.164,-90.6175 330.599,-93.1449 344.893,-95.4854"/>
<polygon fill="midnightblue" stroke="midnightblue" points="300.804,-84.7197 290.37,-86.5577 299.673,-91.6277 300.804,-84.7197"/>
</g>
<!-- Node38&#45;&gt;Node38 -->
<g id="edge22" class="edge"><title>Node38&#45;&gt;Node38</title>
<path fill="none" stroke="midnightblue" d="M199.937,-95.2746C200.823,-100.741 211.177,-105 231,-105 260.504,-105 269.032,-95.5653 256.585,-86.7571"/>
<polygon fill="midnightblue" stroke="midnightblue" points="202.949,-97.0611 205.415,-86.7571 197.062,-93.2749 202.949,-97.0611"/>
</g>
</g>
</svg>
        <g id="navigator" transform="translate(0 0)" fill="#404254">
                <rect fill="#f2f5e9" fill-opacity="0.5" stroke="#606060" stroke-width=".5" x="0" y="0" width="60" height="60"/>
                <use id="zoomplus" xlink:href="#zoomPlus" x="17" y="9" onmousedown="handleZoom(evt,'in')"/>
                <use id="zoomminus" xlink:href="#zoomMin" x="42" y="9" onmousedown="handleZoom(evt,'out')"/>
                <use id="reset" xlink:href="#resetDef" x="30" y="36" onmousedown="handleReset()"/>
                <g id="arrowUp" xlink:href="#dirArrow" transform="translate(30 24)" onmousedown="handlePan(0,-1)">
                  <use xlink:href="#rim" fill="#404040">
                        <set attributeName="fill" to="#808080" begin="arrowUp.mouseover" end="arrowUp.mouseout"/>
                  </use>
                  <path fill="none" stroke="white" stroke-width="1.5" d="M0,-3.0v7 M-2.5,-0.5L0,-3.0L2.5,-0.5"/>
                </g>
                <g id="arrowRight" xlink:href="#dirArrow" transform="rotate(90) translate(36 -43)" onmousedown="handlePan(1,0)">
                  <use xlink:href="#rim" fill="#404040">
                        <set attributeName="fill" to="#808080" begin="arrowRight.mouseover" end="arrowRight.mouseout"/>
                  </use>
                  <path fill="none" stroke="white" stroke-width="1.5" d="M0,-3.0v7 M-2.5,-0.5L0,-3.0L2.5,-0.5"/>
                </g>
                <g id="arrowDown" xlink:href="#dirArrow" transform="rotate(180) translate(-30 -48)" onmousedown="handlePan(0,1)">
                  <use xlink:href="#rim" fill="#404040">
                        <set attributeName="fill" to="#808080" begin="arrowDown.mouseover" end="arrowDown.mouseout"/>
                  </use>
                  <path fill="none" stroke="white" stroke-width="1.5" d="M0,-3.0v7 M-2.5,-0.5L0,-3.0L2.5,-0.5"/>
                </g>
                <g id="arrowLeft" xlink:href="#dirArrow" transform="rotate(270) translate(-36 17)" onmousedown="handlePan(-1,0)">
                  <use xlink:href="#rim" fill="#404040">
                        <set attributeName="fill" to="#808080" begin="arrowLeft.mouseover" end="arrowLeft.mouseout"/>
                  </use>
                  <path fill="none" stroke="white" stroke-width="1.5" d="M0,-3.0v7 M-2.5,-0.5L0,-3.0L2.5,-0.5"/>
                </g>
        </g>
        <svg viewBox="0 0 15 15" width="100%" height="30px" preserveAspectRatio="xMaxYMin meet">
         <g id="arrow_out" transform="scale(0.3 0.3)">
          <a xlink:href="a00260_a5510f276b321a8450b2e9cc913c2f00f_icgraph_org.svg" target="_base">
           <rect id="button" ry="5" rx="5" y="6" x="6" height="38" width="38"
                fill="#f2f5e9" fill-opacity="0.5" stroke="#606060" stroke-width="1.0"/>
           <path id="arrow"
             d="M 11.500037,31.436501 C 11.940474,20.09759 22.043105,11.32322 32.158766,21.979434 L 37.068811,17.246167 C 37.068811,17.246167 37.088388,32 37.088388,32 L 22.160133,31.978069 C 22.160133,31.978069 26.997745,27.140456 26.997745,27.140456 C 18.528582,18.264221 13.291696,25.230495 11.500037,31.436501 z"
             style="fill:#404040;"/>
          </a>
         </g>
        </svg>
</svg>
