<?xml version="1.0" encoding="UTF-8" standalone="no"?>
<!DOCTYPE svg PUBLIC "-//W3C//DTD SVG 1.1//EN"
 "http://www.w3.org/Graphics/SVG/1.1/DTD/svg11.dtd">
<!-- Generated by graphviz version 2.36.0 (20140111.2315)
 -->
<!-- Title: MinCover_Augment Pages: 1 -->
<svg width="352pt" height="57pt"
 viewBox="0.00 0.00 352.00 57.22" xmlns="http://www.w3.org/2000/svg" xmlns:xlink="http://www.w3.org/1999/xlink">
<g id="graph0" class="graph" transform="scale(1 1) rotate(0) translate(4 53.2191)">
<title>MinCover_Augment</title>
<polygon fill="white" stroke="none" points="-4,4 -4,-53.2191 348,-53.2191 348,4 -4,4"/>
<!-- Node8 -->
<g id="node1" class="node"><title>Node8</title>
<polygon fill="#bfbfbf" stroke="black" points="0.5,-28.5 0.5,-47.5 105.5,-47.5 105.5,-28.5 0.5,-28.5"/>
<text text-anchor="middle" x="53" y="-35.5" font-family="Helvetica,sans-Serif" font-size="10.00">MinCover_Augment</text>
</g>
<!-- Node9 -->
<g id="node2" class="node"><title>Node9</title>
<g id="a_node2"><a xlink:href="a00948.html#a0e648504c6fd9044875e7783b9916f9b" target="_top" xlink:title="MinCover">
<polygon fill="white" stroke="black" points="284.5,-28.5 284.5,-47.5 343.5,-47.5 343.5,-28.5 284.5,-28.5"/>
<text text-anchor="middle" x="314" y="-35.5" font-family="Helvetica,sans-Serif" font-size="10.00">MinCover</text>
</a>
</g>
</g>
<!-- Node8&#45;&gt;Node9 -->
<g id="edge1" class="edge"><title>Node8&#45;&gt;Node9</title>
<path fill="none" stroke="midnightblue" d="M115.795,-45.122C124.581,-45.9007 133.512,-46.5671 142,-47 189.05,-49.3997 201,-50.2384 248,-47 259.934,-46.1777 273.013,-44.5159 284.29,-42.8416"/>
<polygon fill="midnightblue" stroke="midnightblue" points="115.867,-41.6135 105.583,-44.1637 115.213,-48.5829 115.867,-41.6135"/>
</g>
<!-- Node10 -->
<g id="node3" class="node"><title>Node10</title>
<g id="a_node3"><a xlink:href="a00948.html#a40e05f15cea2a5fd463adabd12918907" target="_top" xlink:title="MinCover_Augment">
<polygon fill="white" stroke="black" points="142.5,-0.5 142.5,-19.5 247.5,-19.5 247.5,-0.5 142.5,-0.5"/>
<text text-anchor="middle" x="195" y="-7.5" font-family="Helvetica,sans-Serif" font-size="10.00">MinCover_Augment</text>
</a>
</g>
</g>
<!-- Node8&#45;&gt;Node10 -->
<g id="edge2" class="edge"><title>Node8&#45;&gt;Node10</title>
<path fill="none" stroke="midnightblue" d="M111.771,-26.4459C123.3,-24.1399 135.287,-21.7425 146.427,-19.5146"/>
<polygon fill="midnightblue" stroke="midnightblue" points="110.908,-23.049 101.788,-28.4423 112.281,-29.9131 110.908,-23.049"/>
</g>
<!-- Node10&#45;&gt;Node9 -->
<g id="edge3" class="edge"><title>Node10&#45;&gt;Node9</title>
<path fill="none" stroke="midnightblue" d="M245.826,-21.9242C258.969,-25.0695 272.709,-28.3577 284.313,-31.1347"/>
<polygon fill="midnightblue" stroke="midnightblue" points="246.478,-18.4813 235.938,-19.5577 244.848,-25.2891 246.478,-18.4813"/>
</g>
<!-- Node10&#45;&gt;Node10 -->
<g id="edge4" class="edge"><title>Node10&#45;&gt;Node10</title>
<path fill="none" stroke="midnightblue" d="M173.051,-29.0292C174.248,-34.128 181.564,-38 195,-38 215.973,-38 222.035,-28.5653 213.187,-19.7571"/>
<polygon fill="midnightblue" stroke="midnightblue" points="176.296,-30.3393 176.813,-19.7571 169.81,-27.7074 176.296,-30.3393"/>
</g>
</g>
</svg>
