<?xml version="1.0" encoding="UTF-8" standalone="no"?>
<!DOCTYPE svg PUBLIC "-//W3C//DTD SVG 1.1//EN"
 "http://www.w3.org/Graphics/SVG/1.1/DTD/svg11.dtd">
<!-- Generated by graphviz version 2.36.0 (20140111.2315)
 -->
<!-- Title: MlevelRecursiveBisection Pages: 1 -->
<svg width="260pt" height="66pt"
 viewBox="0.00 0.00 260.00 66.00" xmlns="http://www.w3.org/2000/svg" xmlns:xlink="http://www.w3.org/1999/xlink">
<g id="graph0" class="graph" transform="scale(1 1) rotate(0) translate(4 62)">
<title>MlevelRecursiveBisection</title>
<polygon fill="white" stroke="none" points="-4,4 -4,-62 256,-62 256,4 -4,4"/>
<!-- Node21 -->
<g id="node1" class="node"><title>Node21</title>
<polygon fill="#bfbfbf" stroke="black" points="0,-19.5 0,-38.5 130,-38.5 130,-19.5 0,-19.5"/>
<text text-anchor="middle" x="65" y="-26.5" font-family="Helvetica,sans-Serif" font-size="10.00">MlevelRecursiveBisection</text>
</g>
<!-- Node21&#45;&gt;Node21 -->
<g id="edge3" class="edge"><title>Node21&#45;&gt;Node21</title>
<path fill="none" stroke="midnightblue" d="M42.8054,-38.7571C32.0081,-47.5653 39.4062,-57 65,-57 81.7959,-57 90.7556,-52.9368 91.8792,-47.6539"/>
<polygon fill="midnightblue" stroke="midnightblue" points="94.9506,-45.9747 87.1946,-38.7571 88.7567,-49.2361 94.9506,-45.9747"/>
</g>
<!-- Node22 -->
<g id="node2" class="node"><title>Node22</title>
<g id="a_node2"><a xlink:href="a00260.html#a33c48a23cc94ea0221fa5c7317cd0222" target="_top" xlink:title="MultilevelBisect">
<polygon fill="white" stroke="black" points="166.5,-38.5 166.5,-57.5 251.5,-57.5 251.5,-38.5 166.5,-38.5"/>
<text text-anchor="middle" x="209" y="-45.5" font-family="Helvetica,sans-Serif" font-size="10.00">MultilevelBisect</text>
</a>
</g>
</g>
<!-- Node21&#45;&gt;Node22 -->
<g id="edge1" class="edge"><title>Node21&#45;&gt;Node22</title>
<path fill="none" stroke="midnightblue" d="M130.352,-37.6105C139.013,-38.7693 147.806,-39.9459 156.211,-41.0705"/>
<polygon fill="midnightblue" stroke="midnightblue" points="155.859,-44.5545 166.235,-42.4117 156.788,-37.6164 155.859,-44.5545"/>
</g>
<!-- Node23 -->
<g id="node3" class="node"><title>Node23</title>
<g id="a_node3"><a xlink:href="a00260.html#a49d272affb67ce57b2d20dccd7f15f53" target="_top" xlink:title="SplitGraphPart">
<polygon fill="white" stroke="black" points="168,-0.5 168,-19.5 250,-19.5 250,-0.5 168,-0.5"/>
<text text-anchor="middle" x="209" y="-7.5" font-family="Helvetica,sans-Serif" font-size="10.00">SplitGraphPart</text>
</a>
</g>
</g>
<!-- Node21&#45;&gt;Node23 -->
<g id="edge2" class="edge"><title>Node21&#45;&gt;Node23</title>
<path fill="none" stroke="midnightblue" d="M130.352,-20.3895C139.53,-19.1615 148.856,-17.9136 157.712,-16.7287"/>
<polygon fill="midnightblue" stroke="midnightblue" points="158.407,-20.167 167.854,-15.3716 157.478,-13.2288 158.407,-20.167"/>
</g>
</g>
</svg>
