<?xml version="1.0" encoding="UTF-8" standalone="no"?>
<!DOCTYPE svg PUBLIC "-//W3C//DTD SVG 1.1//EN"
 "http://www.w3.org/Graphics/SVG/1.1/DTD/svg11.dtd">
<!-- Generated by graphviz version 2.36.0 (20140111.2315)
 -->
<!-- Title: MinCover_RowDFS Pages: 1 -->
<svg width="506pt" height="57pt"
 viewBox="0.00 0.00 506.00 56.76" xmlns="http://www.w3.org/2000/svg" xmlns:xlink="http://www.w3.org/1999/xlink">
<g id="graph0" class="graph" transform="scale(1 1) rotate(0) translate(4 52.7618)">
<title>MinCover_RowDFS</title>
<polygon fill="white" stroke="none" points="-4,4 -4,-52.7618 502,-52.7618 502,4 -4,4"/>
<!-- Node23 -->
<g id="node1" class="node"><title>Node23</title>
<polygon fill="#bfbfbf" stroke="black" points="0.5,-28.5 0.5,-47.5 105.5,-47.5 105.5,-28.5 0.5,-28.5"/>
<text text-anchor="middle" x="53" y="-35.5" font-family="Helvetica,sans-Serif" font-size="10.00">MinCover_RowDFS</text>
</g>
<!-- Node24 -->
<g id="node2" class="node"><title>Node24</title>
<g id="a_node2"><a xlink:href="a00948.html#adafb285aeb4295e7bbdddef0499e209c" target="_top" xlink:title="MinCover_Decompose">
<polygon fill="white" stroke="black" points="284,-28.5 284,-47.5 402,-47.5 402,-28.5 284,-28.5"/>
<text text-anchor="middle" x="343" y="-35.5" font-family="Helvetica,sans-Serif" font-size="10.00">MinCover_Decompose</text>
</a>
</g>
</g>
<!-- Node23&#45;&gt;Node24 -->
<g id="edge1" class="edge"><title>Node23&#45;&gt;Node24</title>
<path fill="none" stroke="midnightblue" d="M115.795,-45.122C124.581,-45.9007 133.512,-46.5671 142,-47 189.05,-49.3997 200.943,-49.2476 248,-47 259.627,-46.4447 272.034,-45.5051 283.896,-44.4372"/>
<polygon fill="midnightblue" stroke="midnightblue" points="115.867,-41.6135 105.583,-44.1637 115.213,-48.5829 115.867,-41.6135"/>
</g>
<!-- Node26 -->
<g id="node4" class="node"><title>Node26</title>
<g id="a_node4"><a xlink:href="a00948.html#a0c77f3519b6c0379ff1129d2db5af605" target="_top" xlink:title="MinCover_RowDFS">
<polygon fill="white" stroke="black" points="142.5,-0.5 142.5,-19.5 247.5,-19.5 247.5,-0.5 142.5,-0.5"/>
<text text-anchor="middle" x="195" y="-7.5" font-family="Helvetica,sans-Serif" font-size="10.00">MinCover_RowDFS</text>
</a>
</g>
</g>
<!-- Node23&#45;&gt;Node26 -->
<g id="edge3" class="edge"><title>Node23&#45;&gt;Node26</title>
<path fill="none" stroke="midnightblue" d="M111.771,-26.4459C123.3,-24.1399 135.287,-21.7425 146.427,-19.5146"/>
<polygon fill="midnightblue" stroke="midnightblue" points="110.908,-23.049 101.788,-28.4423 112.281,-29.9131 110.908,-23.049"/>
</g>
<!-- Node25 -->
<g id="node3" class="node"><title>Node25</title>
<g id="a_node3"><a xlink:href="a00948.html#a0e648504c6fd9044875e7783b9916f9b" target="_top" xlink:title="MinCover">
<polygon fill="white" stroke="black" points="438.5,-28.5 438.5,-47.5 497.5,-47.5 497.5,-28.5 438.5,-28.5"/>
<text text-anchor="middle" x="468" y="-35.5" font-family="Helvetica,sans-Serif" font-size="10.00">MinCover</text>
</a>
</g>
</g>
<!-- Node24&#45;&gt;Node25 -->
<g id="edge2" class="edge"><title>Node24&#45;&gt;Node25</title>
<path fill="none" stroke="midnightblue" d="M412.545,-38C421.616,-38 430.48,-38 438.333,-38"/>
<polygon fill="midnightblue" stroke="midnightblue" points="412.258,-34.5001 402.258,-38 412.258,-41.5001 412.258,-34.5001"/>
</g>
<!-- Node26&#45;&gt;Node24 -->
<g id="edge4" class="edge"><title>Node26&#45;&gt;Node24</title>
<path fill="none" stroke="midnightblue" d="M255.882,-21.4843C268.018,-23.8116 280.654,-26.235 292.388,-28.4854"/>
<polygon fill="midnightblue" stroke="midnightblue" points="256.317,-18.0039 245.837,-19.5577 254.998,-24.8786 256.317,-18.0039"/>
</g>
<!-- Node26&#45;&gt;Node26 -->
<g id="edge5" class="edge"><title>Node26&#45;&gt;Node26</title>
<path fill="none" stroke="midnightblue" d="M168.494,-28.6539C169.602,-33.9368 178.437,-38 195,-38 220.238,-38 227.534,-28.5653 216.886,-19.7571"/>
<polygon fill="midnightblue" stroke="midnightblue" points="171.612,-30.2449 173.114,-19.7571 165.399,-27.0192 171.612,-30.2449"/>
</g>
</g>
</svg>
