<?xml version="1.0" encoding="UTF-8" standalone="no"?>
<!DOCTYPE svg PUBLIC "-//W3C//DTD SVG 1.1//EN"
 "http://www.w3.org/Graphics/SVG/1.1/DTD/svg11.dtd">
<!-- Generated by graphviz version 2.36.0 (20140111.2315)
 -->
<!-- Title: parse_cmdline Pages: 1 -->
<svg width="478pt" height="206pt"
 viewBox="0.00 0.00 478.00 206.30" xmlns="http://www.w3.org/2000/svg" xmlns:xlink="http://www.w3.org/1999/xlink">
<g id="graph0" class="graph" transform="scale(1 1) rotate(0) translate(4 202.299)">
<title>parse_cmdline</title>
<polygon fill="white" stroke="none" points="-4,4 -4,-202.299 474,-202.299 474,4 -4,4"/>
<!-- Node0 -->
<g id="node1" class="node"><title>Node0</title>
<polygon fill="#bfbfbf" stroke="black" points="0,-57.5 0,-76.5 82,-76.5 82,-57.5 0,-57.5"/>
<text text-anchor="middle" x="41" y="-64.5" font-family="Helvetica,sans-Serif" font-size="10.00">parse_cmdline</text>
</g>
<!-- Node1 -->
<g id="node2" class="node"><title>Node1</title>
<g id="a_node2"><a xlink:href="a00077.html#aba6f76f5c67b9b7e9c2e45988d3d3e9d" target="_top" xlink:title="gk_malloc">
<polygon fill="white" stroke="black" points="142,-114.5 142,-133.5 204,-133.5 204,-114.5 142,-114.5"/>
<text text-anchor="middle" x="173" y="-121.5" font-family="Helvetica,sans-Serif" font-size="10.00">gk_malloc</text>
</a>
</g>
</g>
<!-- Node0&#45;&gt;Node1 -->
<g id="edge1" class="edge"><title>Node0&#45;&gt;Node1</title>
<path fill="none" stroke="midnightblue" d="M59.5178,-76.546C74.7352,-84.6469 97.4917,-96.3054 118,-105 122.795,-107.033 127.89,-109.03 132.961,-110.92"/>
<polygon fill="midnightblue" stroke="midnightblue" points="132.004,-114.296 142.598,-114.406 134.385,-107.713 132.004,-114.296"/>
</g>
<!-- Node6 -->
<g id="node7" class="node"><title>Node6</title>
<g id="a_node7"><a xlink:href="a00038.html#abb224612ca0aae2d39bd87f6146bd67d" target="_top" xlink:title="Parse command&#45;line arguments with only long options. ">
<polygon fill="white" stroke="black" points="118.5,-76.5 118.5,-95.5 227.5,-95.5 227.5,-76.5 118.5,-76.5"/>
<text text-anchor="middle" x="173" y="-83.5" font-family="Helvetica,sans-Serif" font-size="10.00">gk_getopt_long_only</text>
</a>
</g>
</g>
<!-- Node0&#45;&gt;Node6 -->
<g id="edge7" class="edge"><title>Node0&#45;&gt;Node6</title>
<path fill="none" stroke="midnightblue" d="M82.065,-72.8557C90.4125,-74.0757 99.4066,-75.3902 108.366,-76.6997"/>
<polygon fill="midnightblue" stroke="midnightblue" points="108.03,-80.1876 118.431,-78.1706 109.042,-73.2612 108.03,-80.1876"/>
</g>
<!-- Node7 -->
<g id="node8" class="node"><title>Node7</title>
<g id="a_node8"><a xlink:href="a00077.html#acd02cb328067e37baaeff8c7d887dc10" target="_top" xlink:title="gk_GetStringID">
<polygon fill="white" stroke="black" points="130.5,-38.5 130.5,-57.5 215.5,-57.5 215.5,-38.5 130.5,-38.5"/>
<text text-anchor="middle" x="173" y="-45.5" font-family="Helvetica,sans-Serif" font-size="10.00">gk_GetStringID</text>
</a>
</g>
</g>
<!-- Node0&#45;&gt;Node7 -->
<g id="edge8" class="edge"><title>Node0&#45;&gt;Node7</title>
<path fill="none" stroke="midnightblue" d="M82.065,-61.1443C94.1916,-59.372 107.683,-57.4002 120.45,-55.5342"/>
<polygon fill="midnightblue" stroke="midnightblue" points="121.106,-58.9757 130.494,-54.0662 120.093,-52.0493 121.106,-58.9757"/>
</g>
<!-- Node9 -->
<g id="node10" class="node"><title>Node9</title>
<g id="a_node10"><a xlink:href="a00026.html#a56d0f2cc40cd8633a784582d6200d8b5" target="_top" xlink:title="errexit">
<polygon fill="white" stroke="black" points="151,-0.5 151,-19.5 195,-19.5 195,-0.5 151,-0.5"/>
<text text-anchor="middle" x="173" y="-7.5" font-family="Helvetica,sans-Serif" font-size="10.00">errexit</text>
</a>
</g>
</g>
<!-- Node0&#45;&gt;Node9 -->
<g id="edge10" class="edge"><title>Node0&#45;&gt;Node9</title>
<path fill="none" stroke="midnightblue" d="M59.5178,-57.454C74.7352,-49.3531 97.4917,-37.6946 118,-29 125.444,-25.8442 133.61,-22.7754 141.287,-20.057"/>
<polygon fill="midnightblue" stroke="midnightblue" points="142.685,-23.2773 150.997,-16.7074 140.402,-16.66 142.685,-23.2773"/>
</g>
<!-- Node2 -->
<g id="node3" class="node"><title>Node2</title>
<g id="a_node3"><a xlink:href="a01017.html#a2e311a777ffe9c80e405efa7cd2757be" target="_top" xlink:title="fprintf">
<polygon fill="white" stroke="black" points="428,-76.5 428,-95.5 470,-95.5 470,-76.5 428,-76.5"/>
<text text-anchor="middle" x="449" y="-83.5" font-family="Helvetica,sans-Serif" font-size="10.00">fprintf</text>
</a>
</g>
</g>
<!-- Node1&#45;&gt;Node2 -->
<g id="edge2" class="edge"><title>Node1&#45;&gt;Node2</title>
<path fill="none" stroke="midnightblue" d="M184.633,-133.636C200.521,-147.314 232.026,-171.727 264,-181 318.637,-196.846 342.605,-209.221 392,-181 420.286,-164.839 435.71,-128.192 442.874,-105.431"/>
<polygon fill="midnightblue" stroke="midnightblue" points="446.323,-106.103 445.748,-95.5237 439.6,-104.153 446.323,-106.103"/>
</g>
<!-- Node3 -->
<g id="node4" class="node"><title>Node3</title>
<g id="a_node4"><a xlink:href="a00110.html#ad2327b94227019b6753b6b09400c0522" target="_top" xlink:title="gk_GetCurMemoryUsed">
<polygon fill="white" stroke="black" points="266,-152.5 266,-171.5 390,-171.5 390,-152.5 266,-152.5"/>
<text text-anchor="middle" x="328" y="-159.5" font-family="Helvetica,sans-Serif" font-size="10.00">gk_GetCurMemoryUsed</text>
</a>
</g>
</g>
<!-- Node1&#45;&gt;Node3 -->
<g id="edge3" class="edge"><title>Node1&#45;&gt;Node3</title>
<path fill="none" stroke="midnightblue" d="M204.228,-131.508C225.507,-136.792 254.436,-143.978 278.868,-150.046"/>
<polygon fill="midnightblue" stroke="midnightblue" points="278.13,-153.469 288.679,-152.482 279.817,-146.675 278.13,-153.469"/>
</g>
<!-- Node4 -->
<g id="node5" class="node"><title>Node4</title>
<g id="a_node5"><a xlink:href="a00110.html#a656fd5266ae12a96e53125486f8fea52" target="_top" xlink:title="gk_GetMaxMemoryUsed">
<polygon fill="white" stroke="black" points="264.5,-114.5 264.5,-133.5 391.5,-133.5 391.5,-114.5 264.5,-114.5"/>
<text text-anchor="middle" x="328" y="-121.5" font-family="Helvetica,sans-Serif" font-size="10.00">gk_GetMaxMemoryUsed</text>
</a>
</g>
</g>
<!-- Node1&#45;&gt;Node4 -->
<g id="edge4" class="edge"><title>Node1&#45;&gt;Node4</title>
<path fill="none" stroke="midnightblue" d="M204.228,-124C218.569,-124 236.386,-124 253.959,-124"/>
<polygon fill="midnightblue" stroke="midnightblue" points="254.25,-127.5 264.25,-124 254.25,-120.5 254.25,-127.5"/>
</g>
<!-- Node5 -->
<g id="node6" class="node"><title>Node5</title>
<g id="a_node6"><a xlink:href="a00026.html#a4c320c13bcdc9967613253ef4c73f59f" target="_top" xlink:title="gk_errexit">
<polygon fill="white" stroke="black" points="298,-76.5 298,-95.5 358,-95.5 358,-76.5 298,-76.5"/>
<text text-anchor="middle" x="328" y="-83.5" font-family="Helvetica,sans-Serif" font-size="10.00">gk_errexit</text>
</a>
</g>
</g>
<!-- Node1&#45;&gt;Node5 -->
<g id="edge5" class="edge"><title>Node1&#45;&gt;Node5</title>
<path fill="none" stroke="midnightblue" d="M204.228,-116.492C228.215,-110.535 261.925,-102.163 287.954,-95.6977"/>
<polygon fill="midnightblue" stroke="midnightblue" points="289.012,-99.0415 297.873,-93.2342 287.324,-92.2479 289.012,-99.0415"/>
</g>
<!-- Node5&#45;&gt;Node2 -->
<g id="edge6" class="edge"><title>Node5&#45;&gt;Node2</title>
<path fill="none" stroke="midnightblue" d="M358.111,-86C376.172,-86 399.339,-86 417.631,-86"/>
<polygon fill="midnightblue" stroke="midnightblue" points="417.762,-89.5001 427.762,-86 417.762,-82.5001 417.762,-89.5001"/>
</g>
<!-- Node8 -->
<g id="node9" class="node"><title>Node8</title>
<g id="a_node9"><a xlink:href="a00143.html#a47570da67818e57e97fdd464bc60fbd1" target="_top" xlink:title="Case insensitive string comparison. ">
<polygon fill="white" stroke="black" points="286,-38.5 286,-57.5 370,-57.5 370,-38.5 286,-38.5"/>
<text text-anchor="middle" x="328" y="-45.5" font-family="Helvetica,sans-Serif" font-size="10.00">gk_strcasecmp</text>
</a>
</g>
</g>
<!-- Node7&#45;&gt;Node8 -->
<g id="edge9" class="edge"><title>Node7&#45;&gt;Node8</title>
<path fill="none" stroke="midnightblue" d="M215.808,-48C234.258,-48 256.123,-48 275.561,-48"/>
<polygon fill="midnightblue" stroke="midnightblue" points="275.772,-51.5001 285.772,-48 275.772,-44.5001 275.772,-51.5001"/>
</g>
<!-- Node9&#45;&gt;Node2 -->
<g id="edge11" class="edge"><title>Node9&#45;&gt;Node2</title>
<path fill="none" stroke="midnightblue" d="M195.06,-7.20436C235.453,-2.81017 325.68,2.27001 392,-29 410.147,-37.5565 425.663,-54.6372 435.729,-67.8799"/>
<polygon fill="midnightblue" stroke="midnightblue" points="433.102,-70.2215 441.792,-76.2828 438.779,-66.1254 433.102,-70.2215"/>
</g>
</g>
</svg>
