<?xml version="1.0" encoding="UTF-8" standalone="no"?>
<!DOCTYPE svg PUBLIC "-//W3C//DTD SVG 1.1//EN"
 "http://www.w3.org/Graphics/SVG/1.1/DTD/svg11.dtd">
<!-- Generated by graphviz version 2.36.0 (20140111.2315)
 -->
<!-- Title: METIS_PartMeshNodal Pages: 1 -->
<!--zoomable 702 -->
<svg id="main" version="1.1" xmlns="http://www.w3.org/2000/svg" xmlns:xlink="http://www.w3.org/1999/xlink" xml:space="preserve" onload="init(evt)">
<style type="text/css"><![CDATA[
.edge:hover path { stroke: red; }
.edge:hover polygon { stroke: red; fill: red; }
]]></style>
<script type="text/javascript"><![CDATA[
var edges = document.getElementsByTagName('g');
if (edges && edges.length) {
  for (var i=0;i<edges.length;i++) {
    if (edges[i].id.substr(0,4)=='edge') {
      edges[i].setAttribute('class','edge');
    }
  }
}
]]></script>
        <defs>
                <circle id="rim" cx="0" cy="0" r="7"/>
                <circle id="rim2" cx="0" cy="0" r="3.5"/>
                <g id="zoomPlus">
                        <use xlink:href="#rim" fill="#404040">
                                <set attributeName="fill" to="#808080" begin="zoomplus.mouseover" end="zoomplus.mouseout"/>
                        </use>
                        <path d="M-4,0h8M0,-4v8" fill="none" stroke="white" stroke-width="1.5" pointer-events="none"/>
                </g>
                <g id="zoomMin">
                        <use xlink:href="#rim" fill="#404040">
                                <set attributeName="fill" to="#808080" begin="zoomminus.mouseover" end="zoomminus.mouseout"/>
                        </use>
                        <path d="M-4,0h8" fill="none" stroke="white" stroke-width="1.5" pointer-events="none"/>
                </g>
                <g id="dirArrow">
                        <path fill="none" stroke="white" stroke-width="1.5" d="M0,-3.0v7 M-2.5,-0.5L0,-3.0L2.5,-0.5"/>
                </g>
               <g id="resetDef">
                       <use xlink:href="#rim2" fill="#404040">
                               <set attributeName="fill" to="#808080" begin="reset.mouseover" end="reset.mouseout"/>
                       </use>
               </g>
        </defs>

<script type="text/javascript">
var viewWidth = 1114;
var viewHeight = 702;
var sectionId = 'dynsection-5';
</script>
<script xlink:href="svgpan.js"/>
<svg id="graph" class="graph">
<g id="viewport">
<title>METIS_PartMeshNodal</title>
<polygon fill="white" stroke="none" points="-4,4 -4,-698 1110,-698 1110,4 -4,4"/>
<!-- Node30 -->
<g id="node1" class="node"><title>Node30</title>
<polygon fill="#bfbfbf" stroke="black" points="0,-342.5 0,-361.5 122,-361.5 122,-342.5 0,-342.5"/>
<text text-anchor="middle" x="61" y="-349.5" font-family="Helvetica,sans-Serif" font-size="10.00">METIS_PartMeshNodal</text>
</g>
<!-- Node31 -->
<g id="node2" class="node"><title>Node31</title>
<g id="a_node2"><a xlink:href="a00077.html#a24633cc1c72a7e92836912c2adcf570a" target="_top" xlink:title="gk_malloc_init">
<polygon fill="white" stroke="black" points="879,-513.5 879,-532.5 959,-532.5 959,-513.5 879,-513.5"/>
<text text-anchor="middle" x="919" y="-520.5" font-family="Helvetica,sans-Serif" font-size="10.00">gk_malloc_init</text>
</a>
</g>
</g>
<!-- Node30&#45;&gt;Node31 -->
<g id="edge1" class="edge"><title>Node30&#45;&gt;Node31</title>
<path fill="none" stroke="midnightblue" d="M67.3726,-361.724C80.1485,-383.974 114.549,-438.98 158,-469 279.358,-552.845 329.682,-545.325 476,-564 626.777,-583.244 668.867,-593.385 818,-564 844.104,-558.856 871.97,-546.832 891.638,-537.127"/>
<polygon fill="midnightblue" stroke="midnightblue" points="893.253,-540.233 900.591,-532.59 890.089,-533.989 893.253,-540.233"/>
</g>
<!-- Node32 -->
<g id="node3" class="node"><title>Node32</title>
<g id="a_node3"><a xlink:href="a00026.html#a05869524d1c30cfaab2a8690e7da6fd4" target="_top" xlink:title="gk_sigtrap">
<polygon fill="white" stroke="black" points="887.5,-133.5 887.5,-152.5 950.5,-152.5 950.5,-133.5 887.5,-133.5"/>
<text text-anchor="middle" x="919" y="-140.5" font-family="Helvetica,sans-Serif" font-size="10.00">gk_sigtrap</text>
</a>
</g>
</g>
<!-- Node30&#45;&gt;Node32 -->
<g id="edge2" class="edge"><title>Node30&#45;&gt;Node32</title>
<path fill="none" stroke="midnightblue" d="M66.1342,-342.23C88.8723,-290.195 204.051,-48 378,-48 378,-48 378,-48 558,-48 683.829,-48 826.453,-102.93 887.574,-129.252"/>
<polygon fill="midnightblue" stroke="midnightblue" points="886.442,-132.577 897.007,-133.368 889.241,-126.161 886.442,-132.577"/>
</g>
<!-- Node33 -->
<g id="node4" class="node"><title>Node33</title>
<g id="a_node4"><a xlink:href="a00930.html#ae9390485cd2d3654742f779a7188c125" target="_top" xlink:title="METIS_MeshToNodal">
<polygon fill="white" stroke="black" points="321.5,-456.5 321.5,-475.5 436.5,-475.5 436.5,-456.5 321.5,-456.5"/>
<text text-anchor="middle" x="379" y="-463.5" font-family="Helvetica,sans-Serif" font-size="10.00">METIS_MeshToNodal</text>
</a>
</g>
</g>
<!-- Node30&#45;&gt;Node33 -->
<g id="edge3" class="edge"><title>Node30&#45;&gt;Node33</title>
<path fill="none" stroke="midnightblue" d="M68.8599,-361.725C83.0097,-380.913 117.524,-423.392 158,-442 205.932,-464.035 265.734,-469.337 310.885,-469.517"/>
<polygon fill="midnightblue" stroke="midnightblue" points="311.173,-473.016 321.157,-469.471 311.142,-466.016 311.173,-473.016"/>
</g>
<!-- Node39 -->
<g id="node10" class="node"><title>Node39</title>
<g id="a_node10"><a xlink:href="a00026.html#a08f287b6dbdc0779c916ecbd49540a1e" target="_top" xlink:title="gk_siguntrap">
<polygon fill="white" stroke="black" points="882,-627.5 882,-646.5 956,-646.5 956,-627.5 882,-627.5"/>
<text text-anchor="middle" x="919" y="-634.5" font-family="Helvetica,sans-Serif" font-size="10.00">gk_siguntrap</text>
</a>
</g>
</g>
<!-- Node30&#45;&gt;Node39 -->
<g id="edge39" class="edge"><title>Node30&#45;&gt;Node39</title>
<path fill="none" stroke="midnightblue" d="M65.2349,-361.504C84.696,-416.739 191.663,-694 378,-694 378,-694 378,-694 558,-694 672.058,-694 803.969,-665.743 872.05,-649.019"/>
<polygon fill="midnightblue" stroke="midnightblue" points="873.159,-652.35 882.019,-646.541 871.47,-645.557 873.159,-652.35"/>
</g>
<!-- Node40 -->
<g id="node11" class="node"><title>Node40</title>
<g id="a_node11"><a xlink:href="a00077.html#a47156a22528b5bc8c7c6e9849af34e62" target="_top" xlink:title="gk_malloc_cleanup">
<polygon fill="white" stroke="black" points="868,-247.5 868,-266.5 970,-266.5 970,-247.5 868,-247.5"/>
<text text-anchor="middle" x="919" y="-254.5" font-family="Helvetica,sans-Serif" font-size="10.00">gk_malloc_cleanup</text>
</a>
</g>
</g>
<!-- Node30&#45;&gt;Node40 -->
<g id="edge40" class="edge"><title>Node30&#45;&gt;Node40</title>
<path fill="none" stroke="midnightblue" d="M74.561,-342.477C92.1834,-329.649 125.717,-307.145 158,-296 376.822,-220.459 443.047,-240.815 674,-225 737.85,-220.628 754.766,-215.129 818,-225 841.159,-228.615 866.282,-236.672 885.554,-243.796"/>
<polygon fill="midnightblue" stroke="midnightblue" points="884.466,-247.127 895.057,-247.409 886.953,-240.584 884.466,-247.127"/>
</g>
<!-- Node41 -->
<g id="node12" class="node"><title>Node41</title>
<g id="a_node12"><a xlink:href="a00912.html#af89851458c047aba436b36ed567441e4" target="_top" xlink:title="METIS_PartGraphKway">
<polygon fill="white" stroke="black" points="158.5,-342.5 158.5,-361.5 281.5,-361.5 281.5,-342.5 158.5,-342.5"/>
<text text-anchor="middle" x="220" y="-349.5" font-family="Helvetica,sans-Serif" font-size="10.00">METIS_PartGraphKway</text>
</a>
</g>
</g>
<!-- Node30&#45;&gt;Node41 -->
<g id="edge13" class="edge"><title>Node30&#45;&gt;Node41</title>
<path fill="none" stroke="midnightblue" d="M122.251,-352C130.766,-352 139.585,-352 148.275,-352"/>
<polygon fill="midnightblue" stroke="midnightblue" points="148.391,-355.5 158.391,-352 148.391,-348.5 148.391,-355.5"/>
</g>
<!-- Node46 -->
<g id="node17" class="node"><title>Node46</title>
<g id="a_node17"><a xlink:href="a00260.html#a25fc90fd934931239b3c98ac4bdbce76" target="_top" xlink:title="Recursive partitioning routine. ">
<polygon fill="white" stroke="black" points="674.5,-304.5 674.5,-323.5 817.5,-323.5 817.5,-304.5 674.5,-304.5"/>
<text text-anchor="middle" x="746" y="-311.5" font-family="Helvetica,sans-Serif" font-size="10.00">METIS_PartGraphRecursive</text>
</a>
</g>
</g>
<!-- Node30&#45;&gt;Node46 -->
<g id="edge35" class="edge"><title>Node30&#45;&gt;Node46</title>
<path fill="none" stroke="midnightblue" d="M94.349,-342.395C142.547,-328.636 236.306,-303.985 318,-295 459.37,-279.452 496.326,-282.519 638,-295 655.432,-296.536 674.277,-299.453 691.225,-302.548"/>
<polygon fill="midnightblue" stroke="midnightblue" points="691.026,-306.073 701.502,-304.488 692.324,-299.194 691.026,-306.073"/>
</g>
<!-- Node50 -->
<g id="node21" class="node"><title>Node50</title>
<g id="a_node21"><a xlink:href="a00236.html#ae1253bac89c47d556436695e62bcfacd" target="_top" xlink:title="InduceRowPartFromColumnPart">
<polygon fill="white" stroke="black" points="476.5,-418.5 476.5,-437.5 637.5,-437.5 637.5,-418.5 476.5,-418.5"/>
<text text-anchor="middle" x="557" y="-425.5" font-family="Helvetica,sans-Serif" font-size="10.00">InduceRowPartFromColumnPart</text>
</a>
</g>
</g>
<!-- Node30&#45;&gt;Node50 -->
<g id="edge36" class="edge"><title>Node30&#45;&gt;Node50</title>
<path fill="none" stroke="midnightblue" d="M107.809,-361.582C123.671,-364.762 141.587,-368.202 158,-371 265.56,-389.333 390.156,-406.529 470.881,-417.142"/>
<polygon fill="midnightblue" stroke="midnightblue" points="470.623,-420.638 480.993,-418.467 471.533,-413.697 470.623,-420.638"/>
</g>
<!-- Node51 -->
<g id="node22" class="node"><title>Node51</title>
<g id="a_node22"><a xlink:href="a00170.html#a8b3f46b67d6ec9fccaa8c72b9ad10b71" target="_top" xlink:title="METIS_Free">
<polygon fill="white" stroke="black" points="183.5,-0.5 183.5,-19.5 256.5,-19.5 256.5,-0.5 183.5,-0.5"/>
<text text-anchor="middle" x="220" y="-7.5" font-family="Helvetica,sans-Serif" font-size="10.00">METIS_Free</text>
</a>
</g>
</g>
<!-- Node30&#45;&gt;Node51 -->
<g id="edge38" class="edge"><title>Node30&#45;&gt;Node51</title>
<path fill="none" stroke="midnightblue" d="M62.03,-342.224C62.6869,-299.681 70.8518,-128.571 158,-34 162.454,-29.1669 168.002,-25.2931 173.925,-22.1916"/>
<polygon fill="midnightblue" stroke="midnightblue" points="175.744,-25.2118 183.437,-17.9268 172.88,-18.8245 175.744,-25.2118"/>
</g>
<!-- Node33&#45;&gt;Node31 -->
<g id="edge4" class="edge"><title>Node33&#45;&gt;Node31</title>
<path fill="none" stroke="midnightblue" d="M422.839,-475.522C439.381,-478.924 458.505,-482.524 476,-485 617.875,-505.077 786.977,-516.042 868.803,-520.536"/>
<polygon fill="midnightblue" stroke="midnightblue" points="868.64,-524.032 878.814,-521.077 869.018,-517.042 868.64,-524.032"/>
</g>
<!-- Node33&#45;&gt;Node32 -->
<g id="edge5" class="edge"><title>Node33&#45;&gt;Node32</title>
<path fill="none" stroke="midnightblue" d="M387.192,-456.497C399.461,-439.916 424.6,-404.283 440,-371 462.489,-322.394 437.138,-292.852 476,-256 534.502,-200.524 779.483,-161.819 877.353,-148.295"/>
<polygon fill="midnightblue" stroke="midnightblue" points="878.015,-151.737 887.45,-146.917 877.068,-144.802 878.015,-151.737"/>
</g>
<!-- Node34 -->
<g id="node5" class="node"><title>Node34</title>
<g id="a_node5"><a xlink:href="a00930.html#ac6018a712a429b3c401adba913c2cae3" target="_top" xlink:title="CreateGraphNodal">
<polygon fill="white" stroke="black" points="507,-456.5 507,-475.5 607,-475.5 607,-456.5 507,-456.5"/>
<text text-anchor="middle" x="557" y="-463.5" font-family="Helvetica,sans-Serif" font-size="10.00">CreateGraphNodal</text>
</a>
</g>
</g>
<!-- Node33&#45;&gt;Node34 -->
<g id="edge6" class="edge"><title>Node33&#45;&gt;Node34</title>
<path fill="none" stroke="midnightblue" d="M436.656,-466C455.822,-466 477.269,-466 496.639,-466"/>
<polygon fill="midnightblue" stroke="midnightblue" points="496.855,-469.5 506.855,-466 496.855,-462.5 496.855,-469.5"/>
</g>
<!-- Node33&#45;&gt;Node39 -->
<g id="edge11" class="edge"><title>Node33&#45;&gt;Node39</title>
<path fill="none" stroke="midnightblue" d="M399.921,-475.613C419.128,-484.666 449.153,-498.255 476,-508 617.956,-559.527 791.106,-605.256 872.101,-625.684"/>
<polygon fill="midnightblue" stroke="midnightblue" points="871.426,-629.123 881.978,-628.164 873.131,-622.334 871.426,-629.123"/>
</g>
<!-- Node33&#45;&gt;Node40 -->
<g id="edge12" class="edge"><title>Node33&#45;&gt;Node40</title>
<path fill="none" stroke="midnightblue" d="M386.71,-456.254C398.252,-439.305 422.326,-403.134 440,-371 458.012,-338.251 445.303,-316.322 476,-295 536.223,-253.169 751.383,-252.542 857.683,-254.967"/>
<polygon fill="midnightblue" stroke="midnightblue" points="857.847,-258.472 867.93,-255.218 858.019,-251.474 857.847,-258.472"/>
</g>
<!-- Node35 -->
<g id="node6" class="node"><title>Node35</title>
<g id="a_node6"><a xlink:href="a00026.html#a4c320c13bcdc9967613253ef4c73f59f" target="_top" xlink:title="gk_errexit">
<polygon fill="white" stroke="black" points="716,-380.5 716,-399.5 776,-399.5 776,-380.5 716,-380.5"/>
<text text-anchor="middle" x="746" y="-387.5" font-family="Helvetica,sans-Serif" font-size="10.00">gk_errexit</text>
</a>
</g>
</g>
<!-- Node34&#45;&gt;Node35 -->
<g id="edge7" class="edge"><title>Node34&#45;&gt;Node35</title>
<path fill="none" stroke="midnightblue" d="M607.092,-459.064C617.73,-456.292 628.6,-452.417 638,-447 658.157,-435.384 654.009,-420.9 674,-409 683.738,-403.203 695.264,-399.142 706.166,-396.309"/>
<polygon fill="midnightblue" stroke="midnightblue" points="706.986,-399.712 715.934,-394.039 705.401,-392.894 706.986,-399.712"/>
</g>
<!-- Node37 -->
<g id="node8" class="node"><title>Node37</title>
<g id="a_node8"><a xlink:href="a00930.html#aa3fb3adf98a0168ead1ff715114ebea1" target="_top" xlink:title="FindCommonNodes">
<polygon fill="white" stroke="black" points="693.5,-456.5 693.5,-475.5 798.5,-475.5 798.5,-456.5 693.5,-456.5"/>
<text text-anchor="middle" x="746" y="-463.5" font-family="Helvetica,sans-Serif" font-size="10.00">FindCommonNodes</text>
</a>
</g>
</g>
<!-- Node34&#45;&gt;Node37 -->
<g id="edge9" class="edge"><title>Node34&#45;&gt;Node37</title>
<path fill="none" stroke="midnightblue" d="M607.132,-466C630.434,-466 658.521,-466 683.248,-466"/>
<polygon fill="midnightblue" stroke="midnightblue" points="683.255,-469.5 693.255,-466 683.255,-462.5 683.255,-469.5"/>
</g>
<!-- Node38 -->
<g id="node9" class="node"><title>Node38</title>
<g id="a_node9"><a xlink:href="a00077.html#ac8df62c4e3d0910711a9874f9cc58884" target="_top" xlink:title="gk_free">
<polygon fill="white" stroke="black" points="721,-418.5 721,-437.5 771,-437.5 771,-418.5 721,-418.5"/>
<text text-anchor="middle" x="746" y="-425.5" font-family="Helvetica,sans-Serif" font-size="10.00">gk_free</text>
</a>
</g>
</g>
<!-- Node34&#45;&gt;Node38 -->
<g id="edge10" class="edge"><title>Node34&#45;&gt;Node38</title>
<path fill="none" stroke="midnightblue" d="M605.188,-456.411C638.192,-449.704 681.496,-440.905 711.112,-434.886"/>
<polygon fill="midnightblue" stroke="midnightblue" points="711.875,-438.303 720.978,-432.882 710.481,-431.443 711.875,-438.303"/>
</g>
<!-- Node36 -->
<g id="node7" class="node"><title>Node36</title>
<g id="a_node7"><a xlink:href="a01017.html#a2e311a777ffe9c80e405efa7cd2757be" target="_top" xlink:title="fprintf">
<polygon fill="white" stroke="black" points="898,-380.5 898,-399.5 940,-399.5 940,-380.5 898,-380.5"/>
<text text-anchor="middle" x="919" y="-387.5" font-family="Helvetica,sans-Serif" font-size="10.00">fprintf</text>
</a>
</g>
</g>
<!-- Node35&#45;&gt;Node36 -->
<g id="edge8" class="edge"><title>Node35&#45;&gt;Node36</title>
<path fill="none" stroke="midnightblue" d="M776.008,-390C807.034,-390 856.025,-390 887.583,-390"/>
<polygon fill="midnightblue" stroke="midnightblue" points="887.96,-393.5 897.96,-390 887.96,-386.5 887.96,-393.5"/>
</g>
<!-- Node41&#45;&gt;Node31 -->
<g id="edge14" class="edge"><title>Node41&#45;&gt;Node31</title>
<path fill="none" stroke="midnightblue" d="M224.886,-361.76C235.496,-387.005 267.584,-454.6 318,-485 496.159,-592.426 760.617,-555.605 868.988,-534.035"/>
<polygon fill="midnightblue" stroke="midnightblue" points="869.879,-537.425 878.98,-532 868.483,-530.566 869.879,-537.425"/>
</g>
<!-- Node41&#45;&gt;Node32 -->
<g id="edge15" class="edge"><title>Node41&#45;&gt;Node32</title>
<path fill="none" stroke="midnightblue" d="M255.306,-342.485C264.82,-338.574 274.566,-333.217 282,-326 309.393,-299.403 288.755,-272.546 318,-248 484.773,-108.021 771.397,-125.285 877.208,-137.405"/>
<polygon fill="midnightblue" stroke="midnightblue" points="876.822,-140.884 887.166,-138.593 877.651,-133.933 876.822,-140.884"/>
</g>
<!-- Node41&#45;&gt;Node35 -->
<g id="edge18" class="edge"><title>Node41&#45;&gt;Node35</title>
<path fill="none" stroke="midnightblue" d="M262.323,-361.503C279.459,-365.076 299.598,-368.801 318,-371 459.859,-387.954 629.859,-390.153 705.434,-390.202"/>
<polygon fill="midnightblue" stroke="midnightblue" points="705.887,-393.702 715.885,-390.195 705.882,-386.702 705.887,-393.702"/>
</g>
<!-- Node41&#45;&gt;Node39 -->
<g id="edge16" class="edge"><title>Node41&#45;&gt;Node39</title>
<path fill="none" stroke="midnightblue" d="M223.523,-361.515C231.743,-390.591 260.588,-478.96 318,-523 487.928,-653.35 763.223,-648.975 871.832,-641.325"/>
<polygon fill="midnightblue" stroke="midnightblue" points="872.101,-644.815 881.813,-640.579 871.579,-637.835 872.101,-644.815"/>
</g>
<!-- Node41&#45;&gt;Node40 -->
<g id="edge34" class="edge"><title>Node41&#45;&gt;Node40</title>
<path fill="none" stroke="midnightblue" d="M248.312,-342.446C259.171,-338.121 271.543,-332.511 282,-326 299.924,-314.84 299.237,-304.684 318,-295 496.312,-202.971 745.183,-227.734 858.078,-245.774"/>
<polygon fill="midnightblue" stroke="midnightblue" points="857.813,-249.277 868.248,-247.441 858.945,-242.37 857.813,-249.277"/>
</g>
<!-- Node42 -->
<g id="node13" class="node"><title>Node42</title>
<g id="a_node13"><a xlink:href="a00077.html#a3d153a0a39d7ba54f0943fa586f0c561" target="_top" xlink:title="gk_log2">
<polygon fill="white" stroke="black" points="353,-304.5 353,-323.5 405,-323.5 405,-304.5 353,-304.5"/>
<text text-anchor="middle" x="379" y="-311.5" font-family="Helvetica,sans-Serif" font-size="10.00">gk_log2</text>
</a>
</g>
</g>
<!-- Node41&#45;&gt;Node42 -->
<g id="edge17" class="edge"><title>Node41&#45;&gt;Node42</title>
<path fill="none" stroke="midnightblue" d="M260.618,-342.411C285.894,-336.293 318.365,-328.434 342.746,-322.533"/>
<polygon fill="midnightblue" stroke="midnightblue" points="343.759,-325.889 352.655,-320.134 342.113,-319.085 343.759,-325.889"/>
</g>
<!-- Node43 -->
<g id="node14" class="node"><title>Node43</title>
<g id="a_node14"><a xlink:href="a00912.html#a7973c78504ad6711d3516082b1112805" target="_top" xlink:title="MlevelKWayPartitioning">
<polygon fill="white" stroke="black" points="318,-342.5 318,-361.5 440,-361.5 440,-342.5 318,-342.5"/>
<text text-anchor="middle" x="379" y="-349.5" font-family="Helvetica,sans-Serif" font-size="10.00">MlevelKWayPartitioning</text>
</a>
</g>
</g>
<!-- Node41&#45;&gt;Node43 -->
<g id="edge19" class="edge"><title>Node41&#45;&gt;Node43</title>
<path fill="none" stroke="midnightblue" d="M281.7,-352C290.259,-352 299.116,-352 307.834,-352"/>
<polygon fill="midnightblue" stroke="midnightblue" points="307.978,-355.5 317.978,-352 307.978,-348.5 307.978,-355.5"/>
</g>
<!-- Node43&#45;&gt;Node35 -->
<g id="edge33" class="edge"><title>Node43&#45;&gt;Node35</title>
<path fill="none" stroke="midnightblue" d="M440.016,-356.944C492.347,-361.408 570.27,-368.422 638,-376 660.514,-378.519 685.632,-381.782 705.871,-384.524"/>
<polygon fill="midnightblue" stroke="midnightblue" points="705.589,-388.018 715.971,-385.904 706.537,-381.082 705.589,-388.018"/>
</g>
<!-- Node44 -->
<g id="node15" class="node"><title>Node44</title>
<g id="a_node15"><a xlink:href="a00912.html#a870e37cc14eb1033c62d83d3a7c33a91" target="_top" xlink:title="InitKWayPartitioning">
<polygon fill="white" stroke="black" points="503.5,-304.5 503.5,-323.5 610.5,-323.5 610.5,-304.5 503.5,-304.5"/>
<text text-anchor="middle" x="557" y="-311.5" font-family="Helvetica,sans-Serif" font-size="10.00">InitKWayPartitioning</text>
</a>
</g>
</g>
<!-- Node43&#45;&gt;Node44 -->
<g id="edge20" class="edge"><title>Node43&#45;&gt;Node44</title>
<path fill="none" stroke="midnightblue" d="M424.412,-342.411C447.951,-337.329 477.057,-331.045 501.905,-325.68"/>
<polygon fill="midnightblue" stroke="midnightblue" points="502.871,-329.052 511.907,-323.52 501.394,-322.209 502.871,-329.052"/>
</g>
<!-- Node44&#45;&gt;Node35 -->
<g id="edge31" class="edge"><title>Node44&#45;&gt;Node35</title>
<path fill="none" stroke="midnightblue" d="M602.637,-323.544C614.572,-327.11 627.158,-331.839 638,-338 656.872,-348.723 654.97,-360.561 674,-371 683.75,-376.348 695.09,-380.257 705.807,-383.086"/>
<polygon fill="midnightblue" stroke="midnightblue" points="705.279,-386.559 715.819,-385.48 706.907,-379.751 705.279,-386.559"/>
</g>
<!-- Node44&#45;&gt;Node38 -->
<g id="edge32" class="edge"><title>Node44&#45;&gt;Node38</title>
<path fill="none" stroke="midnightblue" d="M566.926,-323.666C585.17,-342.841 628.833,-385.838 674,-409 685.443,-414.868 698.88,-419.06 710.968,-421.987"/>
<polygon fill="midnightblue" stroke="midnightblue" points="710.209,-425.404 720.73,-424.157 711.728,-418.571 710.209,-425.404"/>
</g>
<!-- Node45 -->
<g id="node16" class="node"><title>Node45</title>
<g id="a_node16"><a xlink:href="a00170.html#abea67bb0c6286795ac5fc9bee605dc5d" target="_top" xlink:title="METIS_SetDefaultOptions">
<polygon fill="white" stroke="black" points="679,-342.5 679,-361.5 813,-361.5 813,-342.5 679,-342.5"/>
<text text-anchor="middle" x="746" y="-349.5" font-family="Helvetica,sans-Serif" font-size="10.00">METIS_SetDefaultOptions</text>
</a>
</g>
</g>
<!-- Node44&#45;&gt;Node45 -->
<g id="edge21" class="edge"><title>Node44&#45;&gt;Node45</title>
<path fill="none" stroke="midnightblue" d="M605.188,-323.589C630.42,-328.716 661.673,-335.067 688.227,-340.463"/>
<polygon fill="midnightblue" stroke="midnightblue" points="687.655,-343.918 698.151,-342.48 689.049,-337.059 687.655,-343.918"/>
</g>
<!-- Node44&#45;&gt;Node46 -->
<g id="edge22" class="edge"><title>Node44&#45;&gt;Node46</title>
<path fill="none" stroke="midnightblue" d="M610.588,-314C627.268,-314 646.112,-314 664.297,-314"/>
<polygon fill="midnightblue" stroke="midnightblue" points="664.315,-317.5 674.315,-314 664.315,-310.5 664.315,-317.5"/>
</g>
<!-- Node46&#45;&gt;Node31 -->
<g id="edge23" class="edge"><title>Node46&#45;&gt;Node31</title>
<path fill="none" stroke="midnightblue" d="M802.488,-323.635C808.085,-326.089 813.394,-329.16 818,-333 846.708,-356.933 836.841,-375.796 854,-409 871.7,-443.251 894.088,-482.24 907.151,-504.599"/>
<polygon fill="midnightblue" stroke="midnightblue" points="904.213,-506.509 912.291,-513.364 910.251,-502.968 904.213,-506.509"/>
</g>
<!-- Node46&#45;&gt;Node32 -->
<g id="edge24" class="edge"><title>Node46&#45;&gt;Node32</title>
<path fill="none" stroke="midnightblue" d="M756.684,-304.316C784.665,-276.335 865.881,-195.119 901.232,-159.768"/>
<polygon fill="midnightblue" stroke="midnightblue" points="903.826,-162.123 908.423,-152.577 898.877,-157.174 903.826,-162.123"/>
</g>
<!-- Node46&#45;&gt;Node39 -->
<g id="edge25" class="edge"><title>Node46&#45;&gt;Node39</title>
<path fill="none" stroke="midnightblue" d="M805.656,-323.519C810.254,-326.023 814.473,-329.136 818,-333 881.552,-402.609 818.889,-454.527 854,-542 865.841,-571.5 887.846,-601.198 902.707,-619.346"/>
<polygon fill="midnightblue" stroke="midnightblue" points="900.246,-621.859 909.352,-627.275 905.612,-617.363 900.246,-621.859"/>
</g>
<!-- Node46&#45;&gt;Node40 -->
<g id="edge30" class="edge"><title>Node46&#45;&gt;Node40</title>
<path fill="none" stroke="midnightblue" d="M775.622,-304.459C804.105,-294.965 848,-280.333 879.521,-269.826"/>
<polygon fill="midnightblue" stroke="midnightblue" points="880.905,-273.054 889.285,-266.572 878.691,-266.414 880.905,-273.054"/>
</g>
<!-- Node47 -->
<g id="node18" class="node"><title>Node47</title>
<g id="a_node18"><a xlink:href="a00260.html#a5510f276b321a8450b2e9cc913c2f00f" target="_top" xlink:title="MlevelRecursiveBisection">
<polygon fill="white" stroke="black" points="854,-304.5 854,-323.5 984,-323.5 984,-304.5 854,-304.5"/>
<text text-anchor="middle" x="919" y="-311.5" font-family="Helvetica,sans-Serif" font-size="10.00">MlevelRecursiveBisection</text>
</a>
</g>
</g>
<!-- Node46&#45;&gt;Node47 -->
<g id="edge26" class="edge"><title>Node46&#45;&gt;Node47</title>
<path fill="none" stroke="midnightblue" d="M817.54,-314C826.202,-314 835.076,-314 843.79,-314"/>
<polygon fill="midnightblue" stroke="midnightblue" points="843.925,-317.5 853.925,-314 843.925,-310.5 843.925,-317.5"/>
</g>
<!-- Node47&#45;&gt;Node47 -->
<g id="edge29" class="edge"><title>Node47&#45;&gt;Node47</title>
<path fill="none" stroke="midnightblue" d="M896.805,-323.757C886.008,-332.565 893.406,-342 919,-342 935.796,-342 944.756,-337.937 945.879,-332.654"/>
<polygon fill="midnightblue" stroke="midnightblue" points="948.951,-330.975 941.195,-323.757 942.757,-334.236 948.951,-330.975"/>
</g>
<!-- Node48 -->
<g id="node19" class="node"><title>Node48</title>
<g id="a_node19"><a xlink:href="a00260.html#a33c48a23cc94ea0221fa5c7317cd0222" target="_top" xlink:title="MultilevelBisect">
<polygon fill="white" stroke="black" points="1020.5,-323.5 1020.5,-342.5 1105.5,-342.5 1105.5,-323.5 1020.5,-323.5"/>
<text text-anchor="middle" x="1063" y="-330.5" font-family="Helvetica,sans-Serif" font-size="10.00">MultilevelBisect</text>
</a>
</g>
</g>
<!-- Node47&#45;&gt;Node48 -->
<g id="edge27" class="edge"><title>Node47&#45;&gt;Node48</title>
<path fill="none" stroke="midnightblue" d="M984.352,-322.611C993.013,-323.769 1001.81,-324.946 1010.21,-326.07"/>
<polygon fill="midnightblue" stroke="midnightblue" points="1009.86,-329.555 1020.24,-327.412 1010.79,-322.616 1009.86,-329.555"/>
</g>
<!-- Node49 -->
<g id="node20" class="node"><title>Node49</title>
<g id="a_node20"><a xlink:href="a00260.html#a49d272affb67ce57b2d20dccd7f15f53" target="_top" xlink:title="SplitGraphPart">
<polygon fill="white" stroke="black" points="1022,-285.5 1022,-304.5 1104,-304.5 1104,-285.5 1022,-285.5"/>
<text text-anchor="middle" x="1063" y="-292.5" font-family="Helvetica,sans-Serif" font-size="10.00">SplitGraphPart</text>
</a>
</g>
</g>
<!-- Node47&#45;&gt;Node49 -->
<g id="edge28" class="edge"><title>Node47&#45;&gt;Node49</title>
<path fill="none" stroke="midnightblue" d="M984.352,-305.389C993.53,-304.162 1002.86,-302.914 1011.71,-301.729"/>
<polygon fill="midnightblue" stroke="midnightblue" points="1012.41,-305.167 1021.85,-300.372 1011.48,-298.229 1012.41,-305.167"/>
</g>
<!-- Node50&#45;&gt;Node38 -->
<g id="edge37" class="edge"><title>Node50&#45;&gt;Node38</title>
<path fill="none" stroke="midnightblue" d="M637.576,-428C663.141,-428 690.126,-428 710.655,-428"/>
<polygon fill="midnightblue" stroke="midnightblue" points="710.76,-431.5 720.76,-428 710.76,-424.5 710.76,-431.5"/>
</g>
</g>
</svg>
        <g id="navigator" transform="translate(0 0)" fill="#404254">
                <rect fill="#f2f5e9" fill-opacity="0.5" stroke="#606060" stroke-width=".5" x="0" y="0" width="60" height="60"/>
                <use id="zoomplus" xlink:href="#zoomPlus" x="17" y="9" onmousedown="handleZoom(evt,'in')"/>
                <use id="zoomminus" xlink:href="#zoomMin" x="42" y="9" onmousedown="handleZoom(evt,'out')"/>
                <use id="reset" xlink:href="#resetDef" x="30" y="36" onmousedown="handleReset()"/>
                <g id="arrowUp" xlink:href="#dirArrow" transform="translate(30 24)" onmousedown="handlePan(0,-1)">
                  <use xlink:href="#rim" fill="#404040">
                        <set attributeName="fill" to="#808080" begin="arrowUp.mouseover" end="arrowUp.mouseout"/>
                  </use>
                  <path fill="none" stroke="white" stroke-width="1.5" d="M0,-3.0v7 M-2.5,-0.5L0,-3.0L2.5,-0.5"/>
                </g>
                <g id="arrowRight" xlink:href="#dirArrow" transform="rotate(90) translate(36 -43)" onmousedown="handlePan(1,0)">
                  <use xlink:href="#rim" fill="#404040">
                        <set attributeName="fill" to="#808080" begin="arrowRight.mouseover" end="arrowRight.mouseout"/>
                  </use>
                  <path fill="none" stroke="white" stroke-width="1.5" d="M0,-3.0v7 M-2.5,-0.5L0,-3.0L2.5,-0.5"/>
                </g>
                <g id="arrowDown" xlink:href="#dirArrow" transform="rotate(180) translate(-30 -48)" onmousedown="handlePan(0,1)">
                  <use xlink:href="#rim" fill="#404040">
                        <set attributeName="fill" to="#808080" begin="arrowDown.mouseover" end="arrowDown.mouseout"/>
                  </use>
                  <path fill="none" stroke="white" stroke-width="1.5" d="M0,-3.0v7 M-2.5,-0.5L0,-3.0L2.5,-0.5"/>
                </g>
                <g id="arrowLeft" xlink:href="#dirArrow" transform="rotate(270) translate(-36 17)" onmousedown="handlePan(-1,0)">
                  <use xlink:href="#rim" fill="#404040">
                        <set attributeName="fill" to="#808080" begin="arrowLeft.mouseover" end="arrowLeft.mouseout"/>
                  </use>
                  <path fill="none" stroke="white" stroke-width="1.5" d="M0,-3.0v7 M-2.5,-0.5L0,-3.0L2.5,-0.5"/>
                </g>
        </g>
        <svg viewBox="0 0 15 15" width="100%" height="30px" preserveAspectRatio="xMaxYMin meet">
         <g id="arrow_out" transform="scale(0.3 0.3)">
          <a xlink:href="a00236_ade1e7e23ad687989a6343b4fb8d61ba7_cgraph_org.svg" target="_base">
           <rect id="button" ry="5" rx="5" y="6" x="6" height="38" width="38"
                fill="#f2f5e9" fill-opacity="0.5" stroke="#606060" stroke-width="1.0"/>
           <path id="arrow"
             d="M 11.500037,31.436501 C 11.940474,20.09759 22.043105,11.32322 32.158766,21.979434 L 37.068811,17.246167 C 37.068811,17.246167 37.088388,32 37.088388,32 L 22.160133,31.978069 C 22.160133,31.978069 26.997745,27.140456 26.997745,27.140456 C 18.528582,18.264221 13.291696,25.230495 11.500037,31.436501 z"
             style="fill:#404040;"/>
          </a>
         </g>
        </svg>
</svg>
