<?xml version="1.0" encoding="UTF-8" standalone="no"?>
<!DOCTYPE svg PUBLIC "-//W3C//DTD SVG 1.1//EN"
 "http://www.w3.org/Graphics/SVG/1.1/DTD/svg11.dtd">
<!-- Generated by graphviz version 2.36.0 (20140111.2315)
 -->
<!-- Title: Project2WayNodePartition Pages: 1 -->
<svg width="662pt" height="125pt"
 viewBox="0.00 0.00 662.00 124.90" xmlns="http://www.w3.org/2000/svg" xmlns:xlink="http://www.w3.org/1999/xlink">
<g id="graph0" class="graph" transform="scale(1 1) rotate(0) translate(4 120.901)">
<title>Project2WayNodePartition</title>
<polygon fill="white" stroke="none" points="-4,4 -4,-120.901 658,-120.901 658,4 -4,4"/>
<!-- Node13 -->
<g id="node1" class="node"><title>Node13</title>
<polygon fill="#bfbfbf" stroke="black" points="0,-32.5 0,-51.5 134,-51.5 134,-32.5 0,-32.5"/>
<text text-anchor="middle" x="67" y="-39.5" font-family="Helvetica,sans-Serif" font-size="10.00">Project2WayNodePartition</text>
</g>
<!-- Node14 -->
<g id="node2" class="node"><title>Node14</title>
<g id="a_node2"><a xlink:href="a00278.html#a843a5692564dc695b281647dc690c887" target="_top" xlink:title="Allocate2WayNodePartition\lMemory">
<polygon fill="white" stroke="black" points="173,-52 173,-82 311,-82 311,-52 173,-52"/>
<text text-anchor="start" x="181" y="-70" font-family="Helvetica,sans-Serif" font-size="10.00">Allocate2WayNodePartition</text>
<text text-anchor="middle" x="242" y="-59" font-family="Helvetica,sans-Serif" font-size="10.00">Memory</text>
</a>
</g>
</g>
<!-- Node13&#45;&gt;Node14 -->
<g id="edge1" class="edge"><title>Node13&#45;&gt;Node14</title>
<path fill="none" stroke="midnightblue" d="M133.897,-51.5227C143.394,-52.8951 153.242,-54.3182 162.947,-55.7207"/>
<polygon fill="midnightblue" stroke="midnightblue" points="162.591,-59.2055 172.989,-57.1718 163.592,-52.2774 162.591,-59.2055"/>
</g>
<!-- Node20 -->
<g id="node8" class="node"><title>Node20</title>
<g id="a_node8"><a xlink:href="a00278.html#a66257f7c528ad75c86244ef3794d1ae5" target="_top" xlink:title="Compute2WayNodePartition\lParams">
<polygon fill="white" stroke="black" points="170.5,-3 170.5,-33 313.5,-33 313.5,-3 170.5,-3"/>
<text text-anchor="start" x="178.5" y="-21" font-family="Helvetica,sans-Serif" font-size="10.00">Compute2WayNodePartition</text>
<text text-anchor="middle" x="242" y="-10" font-family="Helvetica,sans-Serif" font-size="10.00">Params</text>
</a>
</g>
</g>
<!-- Node13&#45;&gt;Node20 -->
<g id="edge8" class="edge"><title>Node13&#45;&gt;Node20</title>
<path fill="none" stroke="midnightblue" d="M134.392,-32.7896C142.884,-31.6115 151.65,-30.3953 160.338,-29.1902"/>
<polygon fill="midnightblue" stroke="midnightblue" points="161.054,-32.6244 170.478,-27.7834 160.092,-25.6908 161.054,-32.6244"/>
</g>
<!-- Node15 -->
<g id="node3" class="node"><title>Node15</title>
<g id="a_node3"><a xlink:href="a00077.html#aba6f76f5c67b9b7e9c2e45988d3d3e9d" target="_top" xlink:title="gk_malloc">
<polygon fill="white" stroke="black" points="350,-57.5 350,-76.5 412,-76.5 412,-57.5 350,-57.5"/>
<text text-anchor="middle" x="381" y="-64.5" font-family="Helvetica,sans-Serif" font-size="10.00">gk_malloc</text>
</a>
</g>
</g>
<!-- Node14&#45;&gt;Node15 -->
<g id="edge2" class="edge"><title>Node14&#45;&gt;Node15</title>
<path fill="none" stroke="midnightblue" d="M311.099,-67C320.849,-67 330.61,-67 339.591,-67"/>
<polygon fill="midnightblue" stroke="midnightblue" points="339.729,-70.5001 349.729,-67 339.729,-63.5001 339.729,-70.5001"/>
</g>
<!-- Node16 -->
<g id="node4" class="node"><title>Node16</title>
<g id="a_node4"><a xlink:href="a01017.html#a2e311a777ffe9c80e405efa7cd2757be" target="_top" xlink:title="fprintf">
<polygon fill="white" stroke="black" points="612,-57.5 612,-76.5 654,-76.5 654,-57.5 612,-57.5"/>
<text text-anchor="middle" x="633" y="-64.5" font-family="Helvetica,sans-Serif" font-size="10.00">fprintf</text>
</a>
</g>
</g>
<!-- Node15&#45;&gt;Node16 -->
<g id="edge3" class="edge"><title>Node15&#45;&gt;Node16</title>
<path fill="none" stroke="midnightblue" d="M394.261,-76.7187C406.891,-86.0589 427.563,-99.5369 448,-105 502.959,-119.691 521.62,-121.709 576,-105 590.039,-100.686 603.719,-91.5255 614.044,-83.2793"/>
<polygon fill="midnightblue" stroke="midnightblue" points="616.469,-85.8134 621.862,-76.6941 611.959,-80.4595 616.469,-85.8134"/>
</g>
<!-- Node17 -->
<g id="node5" class="node"><title>Node17</title>
<g id="a_node5"><a xlink:href="a00110.html#ad2327b94227019b6753b6b09400c0522" target="_top" xlink:title="gk_GetCurMemoryUsed">
<polygon fill="white" stroke="black" points="450,-76.5 450,-95.5 574,-95.5 574,-76.5 450,-76.5"/>
<text text-anchor="middle" x="512" y="-83.5" font-family="Helvetica,sans-Serif" font-size="10.00">gk_GetCurMemoryUsed</text>
</a>
</g>
</g>
<!-- Node15&#45;&gt;Node17 -->
<g id="edge4" class="edge"><title>Node15&#45;&gt;Node17</title>
<path fill="none" stroke="midnightblue" d="M412.245,-71.4547C420.646,-72.692 430.139,-74.0903 439.836,-75.5184"/>
<polygon fill="midnightblue" stroke="midnightblue" points="439.573,-79.0175 449.977,-77.0121 440.593,-72.0922 439.573,-79.0175"/>
</g>
<!-- Node18 -->
<g id="node6" class="node"><title>Node18</title>
<g id="a_node6"><a xlink:href="a00110.html#a656fd5266ae12a96e53125486f8fea52" target="_top" xlink:title="gk_GetMaxMemoryUsed">
<polygon fill="white" stroke="black" points="448.5,-38.5 448.5,-57.5 575.5,-57.5 575.5,-38.5 448.5,-38.5"/>
<text text-anchor="middle" x="512" y="-45.5" font-family="Helvetica,sans-Serif" font-size="10.00">gk_GetMaxMemoryUsed</text>
</a>
</g>
</g>
<!-- Node15&#45;&gt;Node18 -->
<g id="edge5" class="edge"><title>Node15&#45;&gt;Node18</title>
<path fill="none" stroke="midnightblue" d="M412.245,-62.5453C420.229,-61.3693 429.2,-60.048 438.395,-58.6938"/>
<polygon fill="midnightblue" stroke="midnightblue" points="439.04,-62.1366 448.423,-57.2167 438.02,-55.2113 439.04,-62.1366"/>
</g>
<!-- Node19 -->
<g id="node7" class="node"><title>Node19</title>
<g id="a_node7"><a xlink:href="a00026.html#a4c320c13bcdc9967613253ef4c73f59f" target="_top" xlink:title="gk_errexit">
<polygon fill="white" stroke="black" points="482,-0.5 482,-19.5 542,-19.5 542,-0.5 482,-0.5"/>
<text text-anchor="middle" x="512" y="-7.5" font-family="Helvetica,sans-Serif" font-size="10.00">gk_errexit</text>
</a>
</g>
</g>
<!-- Node15&#45;&gt;Node19 -->
<g id="edge6" class="edge"><title>Node15&#45;&gt;Node19</title>
<path fill="none" stroke="midnightblue" d="M396.436,-57.3905C409.481,-49.027 429.428,-37.0202 448,-29 455.68,-25.6834 464.121,-22.7096 472.259,-20.1539"/>
<polygon fill="midnightblue" stroke="midnightblue" points="473.388,-23.4695 481.965,-17.2488 471.381,-16.7634 473.388,-23.4695"/>
</g>
<!-- Node19&#45;&gt;Node16 -->
<g id="edge7" class="edge"><title>Node19&#45;&gt;Node16</title>
<path fill="none" stroke="midnightblue" d="M542.228,-16.8252C553.104,-19.8755 565.377,-23.9396 576,-29 588.634,-35.0184 601.634,-43.6626 611.925,-51.1863"/>
<polygon fill="midnightblue" stroke="midnightblue" points="610.101,-54.1937 620.194,-57.4154 614.313,-48.6027 610.101,-54.1937"/>
</g>
</g>
</svg>
