<?xml version="1.0" encoding="UTF-8" standalone="no"?>
<!DOCTYPE svg PUBLIC "-//W3C//DTD SVG 1.1//EN"
 "http://www.w3.org/Graphics/SVG/1.1/DTD/svg11.dtd">
<!-- Generated by graphviz version 2.36.0 (20140111.2315)
 -->
<!-- Title: StartUp2d Pages: 1 -->
<svg width="306pt" height="465pt"
 viewBox="0.00 0.00 306.00 465.00" xmlns="http://www.w3.org/2000/svg" xmlns:xlink="http://www.w3.org/1999/xlink">
<g id="graph0" class="graph" transform="scale(1 1) rotate(0) translate(4 461)">
<title>StartUp2d</title>
<polygon fill="white" stroke="none" points="-4,4 -4,-461 302,-461 302,4 -4,4"/>
<!-- Node22 -->
<g id="node1" class="node"><title>Node22</title>
<polygon fill="#bfbfbf" stroke="black" points="0,-228.5 0,-247.5 62,-247.5 62,-228.5 0,-228.5"/>
<text text-anchor="middle" x="31" y="-235.5" font-family="Helvetica,sans-Serif" font-size="10.00">StartUp2d</text>
</g>
<!-- Node23 -->
<g id="node2" class="node"><title>Node23</title>
<g id="a_node2"><a xlink:href="a00146.html#a990278305dbeaf8e4441cf4146bfdc62" target="_top" xlink:title="BuildVector">
<polygon fill="white" stroke="black" points="106,-437.5 106,-456.5 174,-456.5 174,-437.5 106,-437.5"/>
<text text-anchor="middle" x="140" y="-444.5" font-family="Helvetica,sans-Serif" font-size="10.00">BuildVector</text>
</a>
</g>
</g>
<!-- Node22&#45;&gt;Node23 -->
<g id="edge1" class="edge"><title>Node22&#45;&gt;Node23</title>
<path fill="none" stroke="midnightblue" d="M32.7363,-247.613C35.5432,-277.942 48.0903,-372.853 98,-428 99.1943,-429.32 100.499,-430.555 101.885,-431.71"/>
<polygon fill="midnightblue" stroke="midnightblue" points="100.254,-434.83 110.512,-437.482 104.147,-429.012 100.254,-434.83"/>
</g>
<!-- Node24 -->
<g id="node3" class="node"><title>Node24</title>
<g id="a_node3"><a xlink:href="a00146.html#a4bf6e503687187059ced10b812beaab3" target="_top" xlink:title="BuildMatrix">
<polygon fill="white" stroke="black" points="107,-399.5 107,-418.5 173,-418.5 173,-399.5 107,-399.5"/>
<text text-anchor="middle" x="140" y="-406.5" font-family="Helvetica,sans-Serif" font-size="10.00">BuildMatrix</text>
</a>
</g>
</g>
<!-- Node22&#45;&gt;Node24 -->
<g id="edge2" class="edge"><title>Node22&#45;&gt;Node24</title>
<path fill="none" stroke="midnightblue" d="M33.6827,-247.511C38.7562,-273.597 56.2041,-347.176 98,-390 99.3973,-391.432 100.923,-392.767 102.538,-394.01"/>
<polygon fill="midnightblue" stroke="midnightblue" points="100.851,-397.085 111.17,-399.486 104.601,-391.174 100.851,-397.085"/>
</g>
<!-- Node25 -->
<g id="node4" class="node"><title>Node25</title>
<g id="a_node4"><a xlink:href="a00146.html#a77f751d54b396015520a882d7a318e57" target="_top" xlink:title="BuildIntMatrix">
<polygon fill="white" stroke="black" points="101.5,-361.5 101.5,-380.5 178.5,-380.5 178.5,-361.5 101.5,-361.5"/>
<text text-anchor="middle" x="140" y="-368.5" font-family="Helvetica,sans-Serif" font-size="10.00">BuildIntMatrix</text>
</a>
</g>
</g>
<!-- Node22&#45;&gt;Node25 -->
<g id="edge3" class="edge"><title>Node22&#45;&gt;Node25</title>
<path fill="none" stroke="midnightblue" d="M35.244,-247.551C42.9393,-268.927 64.2228,-321.16 98,-352 99.6475,-353.504 101.435,-354.909 103.311,-356.217"/>
<polygon fill="midnightblue" stroke="midnightblue" points="101.558,-359.247 111.943,-361.349 105.136,-353.23 101.558,-359.247"/>
</g>
<!-- Node26 -->
<g id="node5" class="node"><title>Node26</title>
<g id="a_node5"><a xlink:href="a00146.html#a6031ee45d6b3d95665a885b7128c311c" target="_top" xlink:title="Build3Tensor">
<polygon fill="white" stroke="black" points="102.5,-323.5 102.5,-342.5 177.5,-342.5 177.5,-323.5 102.5,-323.5"/>
<text text-anchor="middle" x="140" y="-330.5" font-family="Helvetica,sans-Serif" font-size="10.00">Build3Tensor</text>
</a>
</g>
</g>
<!-- Node22&#45;&gt;Node26 -->
<g id="edge4" class="edge"><title>Node22&#45;&gt;Node26</title>
<path fill="none" stroke="midnightblue" d="M38.2786,-247.557C48.9527,-263.196 72.0226,-294.463 98,-314 100.085,-315.568 102.32,-317.049 104.63,-318.439"/>
<polygon fill="midnightblue" stroke="midnightblue" points="103.297,-321.696 113.762,-323.345 106.609,-315.529 103.297,-321.696"/>
</g>
<!-- Node27 -->
<g id="node6" class="node"><title>Node27</title>
<g id="a_node6"><a xlink:href="a00002.html#aff625505c4d622f25ca1ff559149e2a5" target="_top" xlink:title="Build4Tensor">
<polygon fill="white" stroke="black" points="102.5,-285.5 102.5,-304.5 177.5,-304.5 177.5,-285.5 102.5,-285.5"/>
<text text-anchor="middle" x="140" y="-292.5" font-family="Helvetica,sans-Serif" font-size="10.00">Build4Tensor</text>
</a>
</g>
</g>
<!-- Node22&#45;&gt;Node27 -->
<g id="edge5" class="edge"><title>Node22&#45;&gt;Node27</title>
<path fill="none" stroke="midnightblue" d="M47.7849,-247.615C61.0206,-255.549 80.5092,-266.935 98,-276 101.33,-277.726 104.847,-279.47 108.364,-281.165"/>
<polygon fill="midnightblue" stroke="midnightblue" points="107.009,-284.396 117.547,-285.492 109.992,-278.064 107.009,-284.396"/>
</g>
<!-- Node28 -->
<g id="node7" class="node"><title>Node28</title>
<g id="a_node7"><a xlink:href="a00146.html#a45390a77c9093b8b1144623da67508c8" target="_top" xlink:title="bidg_constants">
<polygon fill="white" stroke="black" points="98,-247.5 98,-266.5 182,-266.5 182,-247.5 98,-247.5"/>
<text text-anchor="middle" x="140" y="-254.5" font-family="Helvetica,sans-Serif" font-size="10.00">bidg_constants</text>
</a>
</g>
</g>
<!-- Node22&#45;&gt;Node28 -->
<g id="edge6" class="edge"><title>Node22&#45;&gt;Node28</title>
<path fill="none" stroke="midnightblue" d="M62.0902,-243.343C70.1741,-244.779 79.1463,-246.372 88.0254,-247.948"/>
<polygon fill="midnightblue" stroke="midnightblue" points="87.5006,-251.41 97.9585,-249.712 88.7245,-244.518 87.5006,-251.41"/>
</g>
<!-- Node29 -->
<g id="node8" class="node"><title>Node29</title>
<g id="a_node8"><a xlink:href="a00146.html#a0f24d8056fa979af4888469ea90576ff" target="_top" xlink:title="BuildIntVector">
<polygon fill="white" stroke="black" points="218.5,-170.5 218.5,-189.5 297.5,-189.5 297.5,-170.5 218.5,-170.5"/>
<text text-anchor="middle" x="258" y="-177.5" font-family="Helvetica,sans-Serif" font-size="10.00">BuildIntVector</text>
</a>
</g>
</g>
<!-- Node22&#45;&gt;Node29 -->
<g id="edge7" class="edge"><title>Node22&#45;&gt;Node29</title>
<path fill="none" stroke="midnightblue" d="M62.1955,-230.468C92.5074,-222.88 140.53,-210.782 182,-200 191.583,-197.509 201.843,-194.8 211.603,-192.203"/>
<polygon fill="midnightblue" stroke="midnightblue" points="212.783,-195.511 221.543,-189.553 210.979,-188.748 212.783,-195.511"/>
</g>
<!-- Node30 -->
<g id="node9" class="node"><title>Node30</title>
<g id="a_node9"><a xlink:href="a00146.html#a2aba2292a481f3bb8f85213baf22686b" target="_top" xlink:title="evaluateBasis">
<polygon fill="white" stroke="black" points="100.5,-171.5 100.5,-190.5 179.5,-190.5 179.5,-171.5 100.5,-171.5"/>
<text text-anchor="middle" x="140" y="-178.5" font-family="Helvetica,sans-Serif" font-size="10.00">evaluateBasis</text>
</a>
</g>
</g>
<!-- Node22&#45;&gt;Node30 -->
<g id="edge8" class="edge"><title>Node22&#45;&gt;Node30</title>
<path fill="none" stroke="midnightblue" d="M50.1511,-228.331C67.1626,-219.269 92.8049,-205.609 112.176,-195.289"/>
<polygon fill="midnightblue" stroke="midnightblue" points="113.937,-198.317 121.117,-190.526 110.646,-192.139 113.937,-198.317"/>
</g>
<!-- Node31 -->
<g id="node10" class="node"><title>Node31</title>
<g id="a_node10"><a xlink:href="a00146.html#a5f6af94f39daf53ff33c328e81b7aeae" target="_top" xlink:title="tri10">
<polygon fill="white" stroke="black" points="122,-133.5 122,-152.5 158,-152.5 158,-133.5 122,-133.5"/>
<text text-anchor="middle" x="140" y="-140.5" font-family="Helvetica,sans-Serif" font-size="10.00">tri10</text>
</a>
</g>
</g>
<!-- Node22&#45;&gt;Node31 -->
<g id="edge9" class="edge"><title>Node22&#45;&gt;Node31</title>
<path fill="none" stroke="midnightblue" d="M38.2786,-228.443C48.9527,-212.804 72.0226,-181.537 98,-162 102.356,-158.724 107.367,-155.827 112.356,-153.345"/>
<polygon fill="midnightblue" stroke="midnightblue" points="114.083,-156.405 121.748,-149.09 111.194,-150.029 114.083,-156.405"/>
</g>
<!-- Node32 -->
<g id="node11" class="node"><title>Node32</title>
<g id="a_node11"><a xlink:href="a00146.html#a6e05f4bc3238ae8e045ddc269dd77f74" target="_top" xlink:title="Normals2d">
<polygon fill="white" stroke="black" points="225.5,-85.5 225.5,-104.5 290.5,-104.5 290.5,-85.5 225.5,-85.5"/>
<text text-anchor="middle" x="258" y="-92.5" font-family="Helvetica,sans-Serif" font-size="10.00">Normals2d</text>
</a>
</g>
</g>
<!-- Node22&#45;&gt;Node32 -->
<g id="edge10" class="edge"><title>Node22&#45;&gt;Node32</title>
<path fill="none" stroke="midnightblue" d="M32.734,-228.25C35.4335,-200.192 47.4839,-119.138 98,-86 135.453,-61.4311 189.18,-71.5631 223.584,-82.3152"/>
<polygon fill="midnightblue" stroke="midnightblue" points="222.58,-85.6695 233.173,-85.4846 224.777,-79.0231 222.58,-85.6695"/>
</g>
<!-- Node33 -->
<g id="node12" class="node"><title>Node33</title>
<g id="a_node12"><a xlink:href="a00212.html#ad2387c52fae7bf66e1511ef9a281ee26" target="_top" xlink:title="inverse">
<polygon fill="white" stroke="black" points="115.5,-19.5 115.5,-38.5 164.5,-38.5 164.5,-19.5 115.5,-19.5"/>
<text text-anchor="middle" x="140" y="-26.5" font-family="Helvetica,sans-Serif" font-size="10.00">inverse</text>
</a>
</g>
</g>
<!-- Node22&#45;&gt;Node33 -->
<g id="edge11" class="edge"><title>Node22&#45;&gt;Node33</title>
<path fill="none" stroke="midnightblue" d="M33.0911,-228.417C36.882,-199.007 51.8741,-108.667 98,-53 100.723,-49.7134 104.021,-46.7748 107.55,-44.1779"/>
<polygon fill="midnightblue" stroke="midnightblue" points="109.51,-47.0784 116.04,-38.7353 105.733,-41.1852 109.51,-47.0784"/>
</g>
<!-- Node36 -->
<g id="node15" class="node"><title>Node36</title>
<g id="a_node15"><a xlink:href="a00212.html#ac0114aa8a9d094bad20943e1b79ba473" target="_top" xlink:title="BuildMaps2d">
<polygon fill="white" stroke="black" points="103,-95.5 103,-114.5 177,-114.5 177,-95.5 103,-95.5"/>
<text text-anchor="middle" x="140" y="-102.5" font-family="Helvetica,sans-Serif" font-size="10.00">BuildMaps2d</text>
</a>
</g>
</g>
<!-- Node22&#45;&gt;Node36 -->
<g id="edge14" class="edge"><title>Node22&#45;&gt;Node36</title>
<path fill="none" stroke="midnightblue" d="M35.244,-228.449C42.9393,-207.073 64.2228,-154.84 98,-124 99.6475,-122.496 101.435,-121.091 103.311,-119.783"/>
<polygon fill="midnightblue" stroke="midnightblue" points="105.136,-122.77 111.943,-114.651 101.558,-116.753 105.136,-122.77"/>
</g>
<!-- Node34 -->
<g id="node13" class="node"><title>Node34</title>
<g id="a_node13"><a xlink:href="a00212.html#a9ade98d71580bb70e0ddf663d30e4bb4" target="_top" xlink:title="dgetrf_">
<polygon fill="white" stroke="black" points="234,-38.5 234,-57.5 282,-57.5 282,-38.5 234,-38.5"/>
<text text-anchor="middle" x="258" y="-45.5" font-family="Helvetica,sans-Serif" font-size="10.00">dgetrf_</text>
</a>
</g>
</g>
<!-- Node33&#45;&gt;Node34 -->
<g id="edge12" class="edge"><title>Node33&#45;&gt;Node34</title>
<path fill="none" stroke="midnightblue" d="M164.754,-32.8908C181.756,-35.6756 204.874,-39.4622 223.714,-42.548"/>
<polygon fill="midnightblue" stroke="midnightblue" points="223.24,-46.0168 233.674,-44.1793 224.371,-39.1089 223.24,-46.0168"/>
</g>
<!-- Node35 -->
<g id="node14" class="node"><title>Node35</title>
<g id="a_node14"><a xlink:href="a00212.html#af83709f5dcd4b9fbff71c3623b64fa21" target="_top" xlink:title="dgetri_">
<polygon fill="white" stroke="black" points="234.5,-0.5 234.5,-19.5 281.5,-19.5 281.5,-0.5 234.5,-0.5"/>
<text text-anchor="middle" x="258" y="-7.5" font-family="Helvetica,sans-Serif" font-size="10.00">dgetri_</text>
</a>
</g>
</g>
<!-- Node33&#45;&gt;Node35 -->
<g id="edge13" class="edge"><title>Node33&#45;&gt;Node35</title>
<path fill="none" stroke="midnightblue" d="M164.754,-25.1092C181.98,-22.2878 205.484,-18.438 224.455,-15.3306"/>
<polygon fill="midnightblue" stroke="midnightblue" points="225.157,-18.7624 234.46,-13.6919 224.026,-11.8544 225.157,-18.7624"/>
</g>
<!-- Node36&#45;&gt;Node29 -->
<g id="edge15" class="edge"><title>Node36&#45;&gt;Node29</title>
<path fill="none" stroke="midnightblue" d="M163.989,-114.635C169.98,-117.419 176.34,-120.625 182,-124 202.068,-135.966 223.252,-152.155 237.968,-164.05"/>
<polygon fill="midnightblue" stroke="midnightblue" points="235.876,-166.86 245.828,-170.492 240.313,-161.446 235.876,-166.86"/>
</g>
<!-- Node36&#45;&gt;Node32 -->
<g id="edge16" class="edge"><title>Node36&#45;&gt;Node32</title>
<path fill="none" stroke="midnightblue" d="M177.067,-101.891C189.122,-100.852 202.659,-99.6846 215.118,-98.6105"/>
<polygon fill="midnightblue" stroke="midnightblue" points="215.611,-102.081 225.274,-97.735 215.01,-95.1069 215.611,-102.081"/>
</g>
</g>
</svg>
