<?xml version="1.0" encoding="UTF-8" standalone="no"?>
<!DOCTYPE svg PUBLIC "-//W3C//DTD SVG 1.1//EN"
 "http://www.w3.org/Graphics/SVG/1.1/DTD/svg11.dtd">
<!-- Generated by graphviz version 2.36.0 (20140111.2315)
 -->
<!-- Title: MinCover Pages: 1 -->
<svg width="364pt" height="140pt"
 viewBox="0.00 0.00 364.00 140.00" xmlns="http://www.w3.org/2000/svg" xmlns:xlink="http://www.w3.org/1999/xlink">
<g id="graph0" class="graph" transform="scale(1 1) rotate(0) translate(4 136)">
<title>MinCover</title>
<polygon fill="white" stroke="none" points="-4,4 -4,-136 360,-136 360,4 -4,4"/>
<!-- Node0 -->
<g id="node1" class="node"><title>Node0</title>
<polygon fill="#bfbfbf" stroke="black" points="0.5,-38.5 0.5,-57.5 59.5,-57.5 59.5,-38.5 0.5,-38.5"/>
<text text-anchor="middle" x="30" y="-45.5" font-family="Helvetica,sans-Serif" font-size="10.00">MinCover</text>
</g>
<!-- Node1 -->
<g id="node2" class="node"><title>Node1</title>
<g id="a_node2"><a xlink:href="a00245.html#ad4fd2d52a6465e871ff38851cf443744" target="_top" xlink:title="MinCover_Augment">
<polygon fill="white" stroke="black" points="102.5,-76.5 102.5,-95.5 207.5,-95.5 207.5,-76.5 102.5,-76.5"/>
<text text-anchor="middle" x="155" y="-83.5" font-family="Helvetica,sans-Serif" font-size="10.00">MinCover_Augment</text>
</a>
</g>
</g>
<!-- Node0&#45;&gt;Node1 -->
<g id="edge1" class="edge"><title>Node0&#45;&gt;Node1</title>
<path fill="none" stroke="midnightblue" d="M59.5278,-56.8135C75.4268,-61.7254 95.4998,-67.9268 113.05,-73.3488"/>
<polygon fill="midnightblue" stroke="midnightblue" points="112.454,-76.8277 123.041,-76.4355 114.52,-70.1396 112.454,-76.8277"/>
</g>
<!-- Node2 -->
<g id="node3" class="node"><title>Node2</title>
<g id="a_node3"><a xlink:href="a00245.html#ad5ccba21af8f9ed8b2faa69d4503ecfd" target="_top" xlink:title="MinCover_Decompose">
<polygon fill="white" stroke="black" points="96,-38.5 96,-57.5 214,-57.5 214,-38.5 96,-38.5"/>
<text text-anchor="middle" x="155" y="-45.5" font-family="Helvetica,sans-Serif" font-size="10.00">MinCover_Decompose</text>
</a>
</g>
</g>
<!-- Node0&#45;&gt;Node2 -->
<g id="edge3" class="edge"><title>Node0&#45;&gt;Node2</title>
<path fill="none" stroke="midnightblue" d="M59.5278,-48C67.3653,-48 76.2171,-48 85.2811,-48"/>
<polygon fill="midnightblue" stroke="midnightblue" points="85.5619,-51.5001 95.5619,-48 85.5618,-44.5001 85.5619,-51.5001"/>
</g>
<!-- Node5 -->
<g id="node6" class="node"><title>Node5</title>
<g id="a_node6"><a xlink:href="a00077.html#ac8df62c4e3d0910711a9874f9cc58884" target="_top" xlink:title="gk_free">
<polygon fill="white" stroke="black" points="278,-0.5 278,-19.5 328,-19.5 328,-0.5 278,-0.5"/>
<text text-anchor="middle" x="303" y="-7.5" font-family="Helvetica,sans-Serif" font-size="10.00">gk_free</text>
</a>
</g>
</g>
<!-- Node0&#45;&gt;Node5 -->
<g id="edge9" class="edge"><title>Node0&#45;&gt;Node5</title>
<path fill="none" stroke="midnightblue" d="M59.1872,-38.4761C70.5094,-34.9895 83.7576,-31.3313 96,-29 155.72,-17.6275 226.525,-12.9875 267.649,-11.1488"/>
<polygon fill="midnightblue" stroke="midnightblue" points="267.841,-14.6439 277.687,-10.7297 267.549,-7.64999 267.841,-14.6439"/>
</g>
<!-- Node1&#45;&gt;Node1 -->
<g id="edge2" class="edge"><title>Node1&#45;&gt;Node1</title>
<path fill="none" stroke="midnightblue" d="M135.888,-95.7571C126.59,-104.565 132.961,-114 155,-114 169.119,-114 176.807,-110.128 178.065,-105.029"/>
<polygon fill="midnightblue" stroke="midnightblue" points="181.254,-103.583 174.112,-95.7571 174.815,-106.329 181.254,-103.583"/>
</g>
<!-- Node3 -->
<g id="node4" class="node"><title>Node3</title>
<g id="a_node4"><a xlink:href="a00245.html#a4c92a2e434179f264498adf840127095" target="_top" xlink:title="MinCover_ColDFS">
<polygon fill="white" stroke="black" points="253,-94.5 253,-113.5 353,-113.5 353,-94.5 253,-94.5"/>
<text text-anchor="middle" x="303" y="-101.5" font-family="Helvetica,sans-Serif" font-size="10.00">MinCover_ColDFS</text>
</a>
</g>
</g>
<!-- Node2&#45;&gt;Node3 -->
<g id="edge4" class="edge"><title>Node2&#45;&gt;Node3</title>
<path fill="none" stroke="midnightblue" d="M187.914,-57.5224C196.478,-60.3296 205.67,-63.5749 214,-67 230.545,-73.8028 233.573,-77.919 250,-85 254.679,-87.017 259.651,-89.0135 264.593,-90.9114"/>
<polygon fill="midnightblue" stroke="midnightblue" points="263.382,-94.1955 273.975,-94.4192 265.834,-87.6388 263.382,-94.1955"/>
</g>
<!-- Node4 -->
<g id="node5" class="node"><title>Node4</title>
<g id="a_node5"><a xlink:href="a00245.html#a807020dce58bb03a180aa4a0cb8cdd3e" target="_top" xlink:title="MinCover_RowDFS">
<polygon fill="white" stroke="black" points="250.5,-38.5 250.5,-57.5 355.5,-57.5 355.5,-38.5 250.5,-38.5"/>
<text text-anchor="middle" x="303" y="-45.5" font-family="Helvetica,sans-Serif" font-size="10.00">MinCover_RowDFS</text>
</a>
</g>
</g>
<!-- Node2&#45;&gt;Node4 -->
<g id="edge6" class="edge"><title>Node2&#45;&gt;Node4</title>
<path fill="none" stroke="midnightblue" d="M214.123,-48C222.696,-48 231.555,-48 240.2,-48"/>
<polygon fill="midnightblue" stroke="midnightblue" points="240.219,-51.5001 250.219,-48 240.219,-44.5001 240.219,-51.5001"/>
</g>
<!-- Node2&#45;&gt;Node5 -->
<g id="edge8" class="edge"><title>Node2&#45;&gt;Node5</title>
<path fill="none" stroke="midnightblue" d="M192.842,-38.411C215.991,-32.386 245.629,-24.6718 268.18,-18.8025"/>
<polygon fill="midnightblue" stroke="midnightblue" points="269.197,-22.1544 277.993,-16.2483 267.434,-15.3801 269.197,-22.1544"/>
</g>
<!-- Node3&#45;&gt;Node3 -->
<g id="edge5" class="edge"><title>Node3&#45;&gt;Node3</title>
<path fill="none" stroke="midnightblue" d="M280.189,-113.757C269.092,-122.565 276.695,-132 303,-132 320.262,-132 329.471,-127.937 330.626,-122.654"/>
<polygon fill="midnightblue" stroke="midnightblue" points="333.649,-120.886 325.811,-113.757 327.492,-124.218 333.649,-120.886"/>
</g>
<!-- Node4&#45;&gt;Node4 -->
<g id="edge7" class="edge"><title>Node4&#45;&gt;Node4</title>
<path fill="none" stroke="midnightblue" d="M280.189,-57.7571C269.092,-66.5653 276.695,-76 303,-76 320.262,-76 329.471,-71.9368 330.626,-66.6539"/>
<polygon fill="midnightblue" stroke="midnightblue" points="333.649,-64.886 325.811,-57.7571 327.492,-68.2176 333.649,-64.886"/>
</g>
</g>
</svg>
