<?xml version="1.0" encoding="UTF-8" standalone="no"?>
<!DOCTYPE svg PUBLIC "-//W3C//DTD SVG 1.1//EN"
 "http://www.w3.org/Graphics/SVG/1.1/DTD/svg11.dtd">
<!-- Generated by graphviz version 2.36.0 (20140111.2315)
 -->
<!-- Title: ArcSyn3sis/3rdParty/parmetis&#45;4.0.3/metis/libmetis/stdheaders.h Pages: 1 -->
<svg width="459pt" height="106pt"
 viewBox="0.00 0.00 459.00 106.00" xmlns="http://www.w3.org/2000/svg" xmlns:xlink="http://www.w3.org/1999/xlink">
<g id="graph0" class="graph" transform="scale(1 1) rotate(0) translate(4 102)">
<title>ArcSyn3sis/3rdParty/parmetis&#45;4.0.3/metis/libmetis/stdheaders.h</title>
<polygon fill="white" stroke="none" points="-4,4 -4,-102 455,-102 455,4 -4,4"/>
<!-- Node0 -->
<g id="node1" class="node"><title>Node0</title>
<polygon fill="#bfbfbf" stroke="black" points="171,-56.5 171,-97.5 285,-97.5 285,-56.5 171,-56.5"/>
<text text-anchor="start" x="179" y="-85.5" font-family="Helvetica,sans-Serif" font-size="10.00">ArcSyn3sis/3rdParty</text>
<text text-anchor="start" x="179" y="-74.5" font-family="Helvetica,sans-Serif" font-size="10.00">/parmetis&#45;4.0.3/metis</text>
<text text-anchor="middle" x="228" y="-63.5" font-family="Helvetica,sans-Serif" font-size="10.00">/libmetis/stdheaders.h</text>
</g>
<!-- Node1 -->
<g id="node2" class="node"><title>Node1</title>
<polygon fill="white" stroke="#bfbfbf" points="0,-0.5 0,-19.5 46,-19.5 46,-0.5 0,-0.5"/>
<text text-anchor="middle" x="23" y="-7.5" font-family="Helvetica,sans-Serif" font-size="10.00">stdio.h</text>
</g>
<!-- Node0&#45;&gt;Node1 -->
<g id="edge1" class="edge"><title>Node0&#45;&gt;Node1</title>
<path fill="none" stroke="midnightblue" d="M170.896,-57.8939C133.855,-46.1491 86.902,-31.2616 55.9553,-21.4492"/>
<polygon fill="midnightblue" stroke="midnightblue" points="56.7016,-18.0142 46.1114,-18.328 54.5858,-24.6868 56.7016,-18.0142"/>
</g>
<!-- Node2 -->
<g id="node3" class="node"><title>Node2</title>
<polygon fill="white" stroke="#bfbfbf" points="64,-0.5 64,-19.5 118,-19.5 118,-0.5 64,-0.5"/>
<text text-anchor="middle" x="91" y="-7.5" font-family="Helvetica,sans-Serif" font-size="10.00">malloc.h</text>
</g>
<!-- Node0&#45;&gt;Node2 -->
<g id="edge2" class="edge"><title>Node0&#45;&gt;Node2</title>
<path fill="none" stroke="midnightblue" d="M186.895,-56.4979C164.78,-46.0051 138.103,-33.3482 118.507,-24.0507"/>
<polygon fill="midnightblue" stroke="midnightblue" points="119.772,-20.7769 109.237,-19.6525 116.771,-27.1012 119.772,-20.7769"/>
</g>
<!-- Node3 -->
<g id="node4" class="node"><title>Node3</title>
<polygon fill="white" stroke="#bfbfbf" points="136.5,-0.5 136.5,-19.5 185.5,-19.5 185.5,-0.5 136.5,-0.5"/>
<text text-anchor="middle" x="161" y="-7.5" font-family="Helvetica,sans-Serif" font-size="10.00">string.h</text>
</g>
<!-- Node0&#45;&gt;Node3 -->
<g id="edge3" class="edge"><title>Node0&#45;&gt;Node3</title>
<path fill="none" stroke="midnightblue" d="M207.898,-56.4979C198.119,-47.0113 186.517,-35.7557 177.3,-26.8131"/>
<polygon fill="midnightblue" stroke="midnightblue" points="179.533,-24.1036 169.919,-19.6525 174.659,-29.1277 179.533,-24.1036"/>
</g>
<!-- Node4 -->
<g id="node5" class="node"><title>Node4</title>
<polygon fill="white" stroke="#bfbfbf" points="203.5,-0.5 203.5,-19.5 252.5,-19.5 252.5,-0.5 203.5,-0.5"/>
<text text-anchor="middle" x="228" y="-7.5" font-family="Helvetica,sans-Serif" font-size="10.00">ctype.h</text>
</g>
<!-- Node0&#45;&gt;Node4 -->
<g id="edge4" class="edge"><title>Node0&#45;&gt;Node4</title>
<path fill="none" stroke="midnightblue" d="M228,-56.4979C228,-48.0653 228,-38.2351 228,-29.874"/>
<polygon fill="midnightblue" stroke="midnightblue" points="231.5,-29.6525 228,-19.6525 224.5,-29.6525 231.5,-29.6525"/>
</g>
<!-- Node5 -->
<g id="node6" class="node"><title>Node5</title>
<polygon fill="white" stroke="#bfbfbf" points="270.5,-0.5 270.5,-19.5 317.5,-19.5 317.5,-0.5 270.5,-0.5"/>
<text text-anchor="middle" x="294" y="-7.5" font-family="Helvetica,sans-Serif" font-size="10.00">math.h</text>
</g>
<!-- Node0&#45;&gt;Node5 -->
<g id="edge5" class="edge"><title>Node0&#45;&gt;Node5</title>
<path fill="none" stroke="midnightblue" d="M247.802,-56.4979C257.435,-47.0113 268.863,-35.7557 277.944,-26.8131"/>
<polygon fill="midnightblue" stroke="midnightblue" points="280.545,-29.1631 285.214,-19.6525 275.634,-24.1757 280.545,-29.1631"/>
</g>
<!-- Node6 -->
<g id="node7" class="node"><title>Node6</title>
<polygon fill="white" stroke="#bfbfbf" points="335.5,-0.5 335.5,-19.5 388.5,-19.5 388.5,-0.5 335.5,-0.5"/>
<text text-anchor="middle" x="362" y="-7.5" font-family="Helvetica,sans-Serif" font-size="10.00">stdarg.h</text>
</g>
<!-- Node0&#45;&gt;Node6 -->
<g id="edge6" class="edge"><title>Node0&#45;&gt;Node6</title>
<path fill="none" stroke="midnightblue" d="M268.204,-56.4979C289.836,-46.0051 315.928,-33.3482 335.096,-24.0507"/>
<polygon fill="midnightblue" stroke="midnightblue" points="336.693,-27.166 344.163,-19.6525 333.638,-20.8679 336.693,-27.166"/>
</g>
<!-- Node7 -->
<g id="node8" class="node"><title>Node7</title>
<polygon fill="white" stroke="#bfbfbf" points="407,-0.5 407,-19.5 451,-19.5 451,-0.5 407,-0.5"/>
<text text-anchor="middle" x="429" y="-7.5" font-family="Helvetica,sans-Serif" font-size="10.00">time.h</text>
</g>
<!-- Node0&#45;&gt;Node7 -->
<g id="edge7" class="edge"><title>Node0&#45;&gt;Node7</title>
<path fill="none" stroke="midnightblue" d="M285.061,-57.5475C321.453,-45.7789 367.255,-30.9672 397.293,-21.2535"/>
<polygon fill="midnightblue" stroke="midnightblue" points="398.401,-24.5736 406.839,-18.1664 396.247,-17.9132 398.401,-24.5736"/>
</g>
</g>
</svg>
