<?xml version="1.0" encoding="UTF-8" standalone="no"?>
<!DOCTYPE svg PUBLIC "-//W3C//DTD SVG 1.1//EN"
 "http://www.w3.org/Graphics/SVG/1.1/DTD/svg11.dtd">
<!-- Generated by graphviz version 2.36.0 (20140111.2315)
 -->
<!-- Title: ArcSyn3sis/3rdParty/parmetis&#45;4.0.3/metis/libmetis/metislib.h Pages: 1 -->
<svg width="4478pt" height="128pt"
 viewBox="0.00 0.00 4478.00 128.00" xmlns="http://www.w3.org/2000/svg" xmlns:xlink="http://www.w3.org/1999/xlink">
<g id="graph0" class="graph" transform="scale(1 1) rotate(0) translate(4 124)">
<title>ArcSyn3sis/3rdParty/parmetis&#45;4.0.3/metis/libmetis/metislib.h</title>
<polygon fill="white" stroke="none" points="-4,4 -4,-124 4474,-124 4474,4 -4,4"/>
<!-- Node46 -->
<g id="node1" class="node"><title>Node46</title>
<polygon fill="#bfbfbf" stroke="black" points="2184,-78.5 2184,-119.5 2294,-119.5 2294,-78.5 2184,-78.5"/>
<text text-anchor="start" x="2192" y="-107.5" font-family="Helvetica,sans-Serif" font-size="10.00">ArcSyn3sis/3rdParty</text>
<text text-anchor="start" x="2192" y="-96.5" font-family="Helvetica,sans-Serif" font-size="10.00">/parmetis&#45;4.0.3/metis</text>
<text text-anchor="middle" x="2239" y="-85.5" font-family="Helvetica,sans-Serif" font-size="10.00">/libmetis/metislib.h</text>
</g>
<!-- Node47 -->
<g id="node2" class="node"><title>Node47</title>
<g id="a_node2"><a xlink:href="a00170.html" target="_top" xlink:title="This file contains various helper API routines for using METIS. ">
<polygon fill="white" stroke="black" points="0,-0.5 0,-41.5 110,-41.5 110,-0.5 0,-0.5"/>
<text text-anchor="start" x="8" y="-29.5" font-family="Helvetica,sans-Serif" font-size="10.00">ArcSyn3sis/3rdParty</text>
<text text-anchor="start" x="8" y="-18.5" font-family="Helvetica,sans-Serif" font-size="10.00">/parmetis&#45;4.0.3/metis</text>
<text text-anchor="middle" x="55" y="-7.5" font-family="Helvetica,sans-Serif" font-size="10.00">/libmetis/auxapi.c</text>
</a>
</g>
</g>
<!-- Node46&#45;&gt;Node47 -->
<g id="edge1" class="edge"><title>Node46&#45;&gt;Node47</title>
<path fill="none" stroke="midnightblue" d="M2173.78,-97.3493C1839.48,-93.8701 325.589,-76.325 119,-42 116.129,-41.523 113.209,-40.9484 110.275,-40.2999"/>
<polygon fill="midnightblue" stroke="midnightblue" points="2173.76,-100.849 2183.79,-97.4529 2173.83,-93.8495 2173.76,-100.849"/>
</g>
<!-- Node48 -->
<g id="node3" class="node"><title>Node48</title>
<g id="a_node3"><a xlink:href="a00173.html" target="_top" xlink:title="Functions for the edge&#45;based balancing. ">
<polygon fill="white" stroke="black" points="128,-0.5 128,-41.5 238,-41.5 238,-0.5 128,-0.5"/>
<text text-anchor="start" x="136" y="-29.5" font-family="Helvetica,sans-Serif" font-size="10.00">ArcSyn3sis/3rdParty</text>
<text text-anchor="start" x="136" y="-18.5" font-family="Helvetica,sans-Serif" font-size="10.00">/parmetis&#45;4.0.3/metis</text>
<text text-anchor="middle" x="183" y="-7.5" font-family="Helvetica,sans-Serif" font-size="10.00">/libmetis/balance.c</text>
</a>
</g>
</g>
<!-- Node46&#45;&gt;Node48 -->
<g id="edge2" class="edge"><title>Node46&#45;&gt;Node48</title>
<path fill="none" stroke="midnightblue" d="M2173.61,-97.2283C1851.39,-93.2821 440.263,-74.2793 247,-42 244.13,-41.5206 241.209,-40.944 238.276,-40.2939"/>
<polygon fill="midnightblue" stroke="midnightblue" points="2173.68,-100.729 2183.72,-97.3515 2173.76,-93.7298 2173.68,-100.729"/>
</g>
<!-- Node49 -->
<g id="node4" class="node"><title>Node49</title>
<g id="a_node4"><a xlink:href="a00176.html" target="_top" xlink:title="ArcSyn3sis/3rdParty\l/parmetis&#45;4.0.3/metis\l/libmetis/bucketsort.c">
<polygon fill="white" stroke="black" points="256,-0.5 256,-41.5 366,-41.5 366,-0.5 256,-0.5"/>
<text text-anchor="start" x="264" y="-29.5" font-family="Helvetica,sans-Serif" font-size="10.00">ArcSyn3sis/3rdParty</text>
<text text-anchor="start" x="264" y="-18.5" font-family="Helvetica,sans-Serif" font-size="10.00">/parmetis&#45;4.0.3/metis</text>
<text text-anchor="middle" x="311" y="-7.5" font-family="Helvetica,sans-Serif" font-size="10.00">/libmetis/bucketsort.c</text>
</a>
</g>
</g>
<!-- Node46&#45;&gt;Node49 -->
<g id="edge3" class="edge"><title>Node46&#45;&gt;Node49</title>
<path fill="none" stroke="midnightblue" d="M2173.71,-98.4202C1886.23,-99.9049 731.779,-101.944 375,-42 372.13,-41.5178 369.21,-40.939 366.278,-40.2872"/>
<polygon fill="midnightblue" stroke="midnightblue" points="2173.98,-101.919 2183.96,-98.3656 2173.95,-94.919 2173.98,-101.919"/>
</g>
<!-- Node50 -->
<g id="node5" class="node"><title>Node50</title>
<g id="a_node5"><a xlink:href="a00179.html" target="_top" xlink:title="ArcSyn3sis/3rdParty\l/parmetis&#45;4.0.3/metis\l/libmetis/checkgraph.c">
<polygon fill="white" stroke="black" points="384.5,-0.5 384.5,-41.5 499.5,-41.5 499.5,-0.5 384.5,-0.5"/>
<text text-anchor="start" x="392.5" y="-29.5" font-family="Helvetica,sans-Serif" font-size="10.00">ArcSyn3sis/3rdParty</text>
<text text-anchor="start" x="392.5" y="-18.5" font-family="Helvetica,sans-Serif" font-size="10.00">/parmetis&#45;4.0.3/metis</text>
<text text-anchor="middle" x="442" y="-7.5" font-family="Helvetica,sans-Serif" font-size="10.00">/libmetis/checkgraph.c</text>
</a>
</g>
</g>
<!-- Node46&#45;&gt;Node50 -->
<g id="edge4" class="edge"><title>Node46&#45;&gt;Node50</title>
<path fill="none" stroke="midnightblue" d="M2173.51,-98.1321C1898.81,-98.3392 838.447,-95.5794 509,-42 505.885,-41.4934 502.711,-40.8833 499.523,-40.1961"/>
<polygon fill="midnightblue" stroke="midnightblue" points="2173.72,-101.632 2183.72,-98.1227 2173.72,-94.632 2173.72,-101.632"/>
</g>
<!-- Node51 -->
<g id="node6" class="node"><title>Node51</title>
<g id="a_node6"><a xlink:href="a00182.html" target="_top" xlink:title="Functions for computing matchings during graph coarsening. ">
<polygon fill="white" stroke="black" points="518,-0.5 518,-41.5 628,-41.5 628,-0.5 518,-0.5"/>
<text text-anchor="start" x="526" y="-29.5" font-family="Helvetica,sans-Serif" font-size="10.00">ArcSyn3sis/3rdParty</text>
<text text-anchor="start" x="526" y="-18.5" font-family="Helvetica,sans-Serif" font-size="10.00">/parmetis&#45;4.0.3/metis</text>
<text text-anchor="middle" x="573" y="-7.5" font-family="Helvetica,sans-Serif" font-size="10.00">/libmetis/coarsen.c</text>
</a>
</g>
</g>
<!-- Node46&#45;&gt;Node51 -->
<g id="edge5" class="edge"><title>Node46&#45;&gt;Node51</title>
<path fill="none" stroke="midnightblue" d="M2173.64,-98.0444C1912.03,-97.8625 939.865,-93.6502 637,-42 634.131,-41.5108 631.212,-40.9263 628.281,-40.27"/>
<polygon fill="midnightblue" stroke="midnightblue" points="2173.74,-101.544 2183.75,-98.0497 2173.75,-94.5444 2173.74,-101.544"/>
</g>
<!-- Node52 -->
<g id="node7" class="node"><title>Node52</title>
<g id="a_node7"><a xlink:href="a00185.html" target="_top" xlink:title="ArcSyn3sis/3rdParty\l/parmetis&#45;4.0.3/metis\l/libmetis/compress.c">
<polygon fill="white" stroke="black" points="646,-0.5 646,-41.5 756,-41.5 756,-0.5 646,-0.5"/>
<text text-anchor="start" x="654" y="-29.5" font-family="Helvetica,sans-Serif" font-size="10.00">ArcSyn3sis/3rdParty</text>
<text text-anchor="start" x="654" y="-18.5" font-family="Helvetica,sans-Serif" font-size="10.00">/parmetis&#45;4.0.3/metis</text>
<text text-anchor="middle" x="701" y="-7.5" font-family="Helvetica,sans-Serif" font-size="10.00">/libmetis/compress.c</text>
</a>
</g>
</g>
<!-- Node46&#45;&gt;Node52 -->
<g id="edge6" class="edge"><title>Node46&#45;&gt;Node52</title>
<path fill="none" stroke="midnightblue" d="M2173.62,-97.8126C1925.42,-96.7449 1041.64,-89.6091 765,-42 762.132,-41.5064 759.214,-40.9185 756.282,-40.2594"/>
<polygon fill="midnightblue" stroke="midnightblue" points="2173.9,-101.314 2183.91,-97.8549 2173.93,-94.3137 2173.9,-101.314"/>
</g>
<!-- Node53 -->
<g id="node8" class="node"><title>Node53</title>
<g id="a_node8"><a xlink:href="a00188.html" target="_top" xlink:title="Functions that deal with eliminating disconnected partitions. ">
<polygon fill="white" stroke="black" points="774,-0.5 774,-41.5 884,-41.5 884,-0.5 774,-0.5"/>
<text text-anchor="start" x="782" y="-29.5" font-family="Helvetica,sans-Serif" font-size="10.00">ArcSyn3sis/3rdParty</text>
<text text-anchor="start" x="782" y="-18.5" font-family="Helvetica,sans-Serif" font-size="10.00">/parmetis&#45;4.0.3/metis</text>
<text text-anchor="middle" x="829" y="-7.5" font-family="Helvetica,sans-Serif" font-size="10.00">/libmetis/contig.c</text>
</a>
</g>
</g>
<!-- Node46&#45;&gt;Node53 -->
<g id="edge7" class="edge"><title>Node46&#45;&gt;Node53</title>
<path fill="none" stroke="midnightblue" d="M2173.88,-97.5394C1940.08,-95.5356 1143.6,-85.594 893,-42 890.133,-41.5012 887.215,-40.9091 884.285,-40.2467"/>
<polygon fill="midnightblue" stroke="midnightblue" points="2173.9,-101.04 2183.93,-97.6236 2173.96,-94.0399 2173.9,-101.04"/>
</g>
<!-- Node54 -->
<g id="node9" class="node"><title>Node54</title>
<g id="a_node9"><a xlink:href="a00885.html" target="_top" xlink:title="ArcSyn3sis/3rdParty\l/parmetis&#45;4.0.3/metis\l/libmetis/debug.c">
<polygon fill="white" stroke="black" points="902,-0.5 902,-41.5 1012,-41.5 1012,-0.5 902,-0.5"/>
<text text-anchor="start" x="910" y="-29.5" font-family="Helvetica,sans-Serif" font-size="10.00">ArcSyn3sis/3rdParty</text>
<text text-anchor="start" x="910" y="-18.5" font-family="Helvetica,sans-Serif" font-size="10.00">/parmetis&#45;4.0.3/metis</text>
<text text-anchor="middle" x="957" y="-7.5" font-family="Helvetica,sans-Serif" font-size="10.00">/libmetis/debug.c</text>
</a>
</g>
</g>
<!-- Node46&#45;&gt;Node54 -->
<g id="edge8" class="edge"><title>Node46&#45;&gt;Node54</title>
<path fill="none" stroke="midnightblue" d="M2173.92,-97.2087C1954.88,-94.201 1245.58,-81.5721 1021,-42 1018.13,-41.495 1015.22,-40.8979 1012.29,-40.2314"/>
<polygon fill="midnightblue" stroke="midnightblue" points="2173.93,-100.709 2183.98,-97.3447 2174.03,-93.7097 2173.93,-100.709"/>
</g>
<!-- Node55 -->
<g id="node10" class="node"><title>Node55</title>
<g id="a_node10"><a xlink:href="a00197.html" target="_top" xlink:title="Functions for the edge&#45;based FM refinement. ">
<polygon fill="white" stroke="black" points="1030,-0.5 1030,-41.5 1140,-41.5 1140,-0.5 1030,-0.5"/>
<text text-anchor="start" x="1038" y="-29.5" font-family="Helvetica,sans-Serif" font-size="10.00">ArcSyn3sis/3rdParty</text>
<text text-anchor="start" x="1038" y="-18.5" font-family="Helvetica,sans-Serif" font-size="10.00">/parmetis&#45;4.0.3/metis</text>
<text text-anchor="middle" x="1085" y="-7.5" font-family="Helvetica,sans-Serif" font-size="10.00">/libmetis/fm.c</text>
</a>
</g>
</g>
<!-- Node46&#45;&gt;Node55 -->
<g id="edge9" class="edge"><title>Node46&#45;&gt;Node55</title>
<path fill="none" stroke="midnightblue" d="M2173.67,-96.7958C1969.86,-92.7005 1347.57,-77.5414 1149,-42 1146.14,-41.4873 1143.22,-40.8839 1140.29,-40.2126"/>
<polygon fill="midnightblue" stroke="midnightblue" points="2173.84,-100.3 2183.91,-96.9994 2173.98,-93.3013 2173.84,-100.3"/>
</g>
<!-- Node56 -->
<g id="node11" class="node"><title>Node56</title>
<g id="a_node11"><a xlink:href="a00200.html" target="_top" xlink:title="ArcSyn3sis/3rdParty\l/parmetis&#45;4.0.3/metis\l/libmetis/fortran.c">
<polygon fill="white" stroke="black" points="1158,-0.5 1158,-41.5 1268,-41.5 1268,-0.5 1158,-0.5"/>
<text text-anchor="start" x="1166" y="-29.5" font-family="Helvetica,sans-Serif" font-size="10.00">ArcSyn3sis/3rdParty</text>
<text text-anchor="start" x="1166" y="-18.5" font-family="Helvetica,sans-Serif" font-size="10.00">/parmetis&#45;4.0.3/metis</text>
<text text-anchor="middle" x="1213" y="-7.5" font-family="Helvetica,sans-Serif" font-size="10.00">/libmetis/fortran.c</text>
</a>
</g>
</g>
<!-- Node46&#45;&gt;Node56 -->
<g id="edge10" class="edge"><title>Node46&#45;&gt;Node56</title>
<path fill="none" stroke="midnightblue" d="M2173.47,-96.2733C1985.97,-91.0014 1449.73,-73.5237 1277,-42 1274.14,-41.4775 1271.22,-40.8663 1268.29,-40.1888"/>
<polygon fill="midnightblue" stroke="midnightblue" points="2173.63,-99.7791 2183.72,-96.5592 2173.83,-92.7818 2173.63,-99.7791"/>
</g>
<!-- Node57 -->
<g id="node12" class="node"><title>Node57</title>
<g id="a_node12"><a xlink:href="a00900.html" target="_top" xlink:title="ArcSyn3sis/3rdParty\l/parmetis&#45;4.0.3/metis\l/libmetis/frename.c">
<polygon fill="white" stroke="black" points="1286,-0.5 1286,-41.5 1396,-41.5 1396,-0.5 1286,-0.5"/>
<text text-anchor="start" x="1294" y="-29.5" font-family="Helvetica,sans-Serif" font-size="10.00">ArcSyn3sis/3rdParty</text>
<text text-anchor="start" x="1294" y="-18.5" font-family="Helvetica,sans-Serif" font-size="10.00">/parmetis&#45;4.0.3/metis</text>
<text text-anchor="middle" x="1341" y="-7.5" font-family="Helvetica,sans-Serif" font-size="10.00">/libmetis/frename.c</text>
</a>
</g>
</g>
<!-- Node46&#45;&gt;Node57 -->
<g id="edge11" class="edge"><title>Node46&#45;&gt;Node57</title>
<path fill="none" stroke="midnightblue" d="M2173.56,-98.8161C2032.03,-99.4465 1687.49,-94.8558 1405,-42 1402.14,-41.4648 1399.23,-40.8433 1396.3,-40.1577"/>
<polygon fill="midnightblue" stroke="midnightblue" points="2173.81,-102.315 2183.79,-98.7596 2173.78,-95.3149 2173.81,-102.315"/>
</g>
<!-- Node58 -->
<g id="node13" class="node"><title>Node58</title>
<g id="a_node13"><a xlink:href="a00206.html" target="_top" xlink:title="Various helper routines generated using GKlib&#39;s templates. ">
<polygon fill="white" stroke="black" points="1414,-0.5 1414,-41.5 1524,-41.5 1524,-0.5 1414,-0.5"/>
<text text-anchor="start" x="1422" y="-29.5" font-family="Helvetica,sans-Serif" font-size="10.00">ArcSyn3sis/3rdParty</text>
<text text-anchor="start" x="1422" y="-18.5" font-family="Helvetica,sans-Serif" font-size="10.00">/parmetis&#45;4.0.3/metis</text>
<text text-anchor="middle" x="1469" y="-7.5" font-family="Helvetica,sans-Serif" font-size="10.00">/libmetis/gklib.c</text>
</a>
</g>
</g>
<!-- Node46&#45;&gt;Node58 -->
<g id="edge12" class="edge"><title>Node46&#45;&gt;Node58</title>
<path fill="none" stroke="midnightblue" d="M2173.77,-97.6761C2048.44,-95.9882 1765.78,-87.0143 1533,-42 1530.14,-41.4475 1527.23,-40.8121 1524.31,-40.1154"/>
<polygon fill="midnightblue" stroke="midnightblue" points="2173.92,-101.178 2183.96,-97.8018 2174.01,-94.1786 2173.92,-101.178"/>
</g>
<!-- Node59 -->
<g id="node14" class="node"><title>Node59</title>
<g id="a_node14"><a xlink:href="a00852.html" target="_top" xlink:title="Functions that deal with setting up the graphs for METIS. ">
<polygon fill="white" stroke="black" points="1542,-0.5 1542,-41.5 1652,-41.5 1652,-0.5 1542,-0.5"/>
<text text-anchor="start" x="1550" y="-29.5" font-family="Helvetica,sans-Serif" font-size="10.00">ArcSyn3sis/3rdParty</text>
<text text-anchor="start" x="1550" y="-18.5" font-family="Helvetica,sans-Serif" font-size="10.00">/parmetis&#45;4.0.3/metis</text>
<text text-anchor="middle" x="1597" y="-7.5" font-family="Helvetica,sans-Serif" font-size="10.00">/libmetis/graph.c</text>
</a>
</g>
</g>
<!-- Node46&#45;&gt;Node59 -->
<g id="edge13" class="edge"><title>Node46&#45;&gt;Node59</title>
<path fill="none" stroke="midnightblue" d="M2173.79,-96.0578C2066.06,-91.8757 1844.55,-79.1572 1661,-42 1658.15,-41.4226 1655.24,-40.7672 1652.32,-40.0546"/>
<polygon fill="midnightblue" stroke="midnightblue" points="2173.73,-99.558 2183.86,-96.4364 2173.99,-92.5629 2173.73,-99.558"/>
</g>
<!-- Node60 -->
<g id="node15" class="node"><title>Node60</title>
<g id="a_node15"><a xlink:href="a00906.html" target="_top" xlink:title="ArcSyn3sis/3rdParty\l/parmetis&#45;4.0.3/metis\l/libmetis/initpart.c">
<polygon fill="white" stroke="black" points="1670,-0.5 1670,-41.5 1780,-41.5 1780,-0.5 1670,-0.5"/>
<text text-anchor="start" x="1678" y="-29.5" font-family="Helvetica,sans-Serif" font-size="10.00">ArcSyn3sis/3rdParty</text>
<text text-anchor="start" x="1678" y="-18.5" font-family="Helvetica,sans-Serif" font-size="10.00">/parmetis&#45;4.0.3/metis</text>
<text text-anchor="middle" x="1725" y="-7.5" font-family="Helvetica,sans-Serif" font-size="10.00">/libmetis/initpart.c</text>
</a>
</g>
</g>
<!-- Node46&#45;&gt;Node60 -->
<g id="edge14" class="edge"><title>Node46&#45;&gt;Node60</title>
<path fill="none" stroke="midnightblue" d="M2173.63,-93.5543C2085.5,-86.7255 1924.07,-71.2625 1789,-42 1786.16,-41.3838 1783.26,-40.6972 1780.34,-39.9599"/>
<polygon fill="midnightblue" stroke="midnightblue" points="2173.51,-97.0552 2183.74,-94.3252 2174.04,-90.0754 2173.51,-97.0552"/>
</g>
<!-- Node61 -->
<g id="node16" class="node"><title>Node61</title>
<g id="a_node16"><a xlink:href="a00912.html" target="_top" xlink:title="The top&#45;level routines for multilevel k&#45;way partitioning that minimizes the edge cut. ">
<polygon fill="white" stroke="black" points="1798,-0.5 1798,-41.5 1908,-41.5 1908,-0.5 1798,-0.5"/>
<text text-anchor="start" x="1806" y="-29.5" font-family="Helvetica,sans-Serif" font-size="10.00">ArcSyn3sis/3rdParty</text>
<text text-anchor="start" x="1806" y="-18.5" font-family="Helvetica,sans-Serif" font-size="10.00">/parmetis&#45;4.0.3/metis</text>
<text text-anchor="middle" x="1853" y="-7.5" font-family="Helvetica,sans-Serif" font-size="10.00">/libmetis/kmetis.c</text>
</a>
</g>
</g>
<!-- Node46&#45;&gt;Node61 -->
<g id="edge15" class="edge"><title>Node46&#45;&gt;Node61</title>
<path fill="none" stroke="midnightblue" d="M2173.69,-89.2C2108.27,-79.7875 2004.94,-63.2922 1917,-42 1914.06,-41.2878 1911.05,-40.514 1908.03,-39.6984"/>
<polygon fill="midnightblue" stroke="midnightblue" points="2173.46,-92.7028 2183.86,-90.6495 2174.45,-85.7729 2173.46,-92.7028"/>
</g>
<!-- Node62 -->
<g id="node17" class="node"><title>Node62</title>
<g id="a_node17"><a xlink:href="a00221.html" target="_top" xlink:title="Routines for k&#45;way refinement. ">
<polygon fill="white" stroke="black" points="1926,-0.5 1926,-41.5 2036,-41.5 2036,-0.5 1926,-0.5"/>
<text text-anchor="start" x="1934" y="-29.5" font-family="Helvetica,sans-Serif" font-size="10.00">ArcSyn3sis/3rdParty</text>
<text text-anchor="start" x="1934" y="-18.5" font-family="Helvetica,sans-Serif" font-size="10.00">/parmetis&#45;4.0.3/metis</text>
<text text-anchor="middle" x="1981" y="-7.5" font-family="Helvetica,sans-Serif" font-size="10.00">/libmetis/kwayfm.c</text>
</a>
</g>
</g>
<!-- Node46&#45;&gt;Node62 -->
<g id="edge16" class="edge"><title>Node46&#45;&gt;Node62</title>
<path fill="none" stroke="midnightblue" d="M2173.87,-79.5846C2136.17,-68.827 2087.84,-54.8744 2045,-42 2042.1,-41.1289 2039.13,-40.2284 2036.13,-39.3135"/>
<polygon fill="midnightblue" stroke="midnightblue" points="2173.14,-83.0146 2183.72,-82.3889 2175.06,-76.2826 2173.14,-83.0146"/>
</g>
<!-- Node63 -->
<g id="node18" class="node"><title>Node63</title>
<g id="a_node18"><a xlink:href="a00918.html" target="_top" xlink:title="Driving routines for multilevel k&#45;way refinement. ">
<polygon fill="white" stroke="black" points="2054,-0.5 2054,-41.5 2166,-41.5 2166,-0.5 2054,-0.5"/>
<text text-anchor="start" x="2062" y="-29.5" font-family="Helvetica,sans-Serif" font-size="10.00">ArcSyn3sis/3rdParty</text>
<text text-anchor="start" x="2062" y="-18.5" font-family="Helvetica,sans-Serif" font-size="10.00">/parmetis&#45;4.0.3/metis</text>
<text text-anchor="middle" x="2110" y="-7.5" font-family="Helvetica,sans-Serif" font-size="10.00">/libmetis/kwayrefine.c</text>
</a>
</g>
</g>
<!-- Node46&#45;&gt;Node63 -->
<g id="edge17" class="edge"><title>Node46&#45;&gt;Node63</title>
<path fill="none" stroke="midnightblue" d="M2196.91,-73.2029C2179.45,-62.9176 2159.49,-51.1587 2143.11,-41.5056"/>
<polygon fill="midnightblue" stroke="midnightblue" points="2195.39,-76.3676 2205.78,-78.4281 2198.94,-70.3365 2195.39,-76.3676"/>
</g>
<!-- Node64 -->
<g id="node19" class="node"><title>Node64</title>
<g id="a_node19"><a xlink:href="a00230.html" target="_top" xlink:title="ArcSyn3sis/3rdParty\l/parmetis&#45;4.0.3/metis\l/libmetis/mcutil.c">
<polygon fill="white" stroke="black" points="2184,-0.5 2184,-41.5 2294,-41.5 2294,-0.5 2184,-0.5"/>
<text text-anchor="start" x="2192" y="-29.5" font-family="Helvetica,sans-Serif" font-size="10.00">ArcSyn3sis/3rdParty</text>
<text text-anchor="start" x="2192" y="-18.5" font-family="Helvetica,sans-Serif" font-size="10.00">/parmetis&#45;4.0.3/metis</text>
<text text-anchor="middle" x="2239" y="-7.5" font-family="Helvetica,sans-Serif" font-size="10.00">/libmetis/mcutil.c</text>
</a>
</g>
</g>
<!-- Node46&#45;&gt;Node64 -->
<g id="edge18" class="edge"><title>Node46&#45;&gt;Node64</title>
<path fill="none" stroke="midnightblue" d="M2239,-68.2965C2239,-59.3009 2239,-49.6532 2239,-41.5056"/>
<polygon fill="midnightblue" stroke="midnightblue" points="2235.5,-68.4281 2239,-78.4281 2242.5,-68.4281 2235.5,-68.4281"/>
</g>
<!-- Node65 -->
<g id="node20" class="node"><title>Node65</title>
<g id="a_node20"><a xlink:href="a00930.html" target="_top" xlink:title="ArcSyn3sis/3rdParty\l/parmetis&#45;4.0.3/metis\l/libmetis/mesh.c">
<polygon fill="white" stroke="black" points="2312,-0.5 2312,-41.5 2422,-41.5 2422,-0.5 2312,-0.5"/>
<text text-anchor="start" x="2320" y="-29.5" font-family="Helvetica,sans-Serif" font-size="10.00">ArcSyn3sis/3rdParty</text>
<text text-anchor="start" x="2320" y="-18.5" font-family="Helvetica,sans-Serif" font-size="10.00">/parmetis&#45;4.0.3/metis</text>
<text text-anchor="middle" x="2367" y="-7.5" font-family="Helvetica,sans-Serif" font-size="10.00">/libmetis/mesh.c</text>
</a>
</g>
</g>
<!-- Node46&#45;&gt;Node65 -->
<g id="edge19" class="edge"><title>Node46&#45;&gt;Node65</title>
<path fill="none" stroke="midnightblue" d="M2280.76,-73.2029C2298.09,-62.9176 2317.89,-51.1587 2334.15,-41.5056"/>
<polygon fill="midnightblue" stroke="midnightblue" points="2278.77,-70.3132 2271.96,-78.4281 2282.35,-76.3322 2278.77,-70.3132"/>
</g>
<!-- Node66 -->
<g id="node21" class="node"><title>Node66</title>
<g id="a_node21"><a xlink:href="a00236.html" target="_top" xlink:title="ArcSyn3sis/3rdParty\l/parmetis&#45;4.0.3/metis\l/libmetis/meshpart.c">
<polygon fill="white" stroke="black" points="2440,-0.5 2440,-41.5 2550,-41.5 2550,-0.5 2440,-0.5"/>
<text text-anchor="start" x="2448" y="-29.5" font-family="Helvetica,sans-Serif" font-size="10.00">ArcSyn3sis/3rdParty</text>
<text text-anchor="start" x="2448" y="-18.5" font-family="Helvetica,sans-Serif" font-size="10.00">/parmetis&#45;4.0.3/metis</text>
<text text-anchor="middle" x="2495" y="-7.5" font-family="Helvetica,sans-Serif" font-size="10.00">/libmetis/meshpart.c</text>
</a>
</g>
</g>
<!-- Node46&#45;&gt;Node66 -->
<g id="edge20" class="edge"><title>Node46&#45;&gt;Node66</title>
<path fill="none" stroke="midnightblue" d="M2303.85,-79.4202C2341.1,-68.6628 2388.74,-54.7647 2431,-42 2433.9,-41.1248 2436.87,-40.2211 2439.86,-39.3037"/>
<polygon fill="midnightblue" stroke="midnightblue" points="2302.76,-76.0914 2294.12,-82.2258 2304.7,-82.8172 2302.76,-76.0914"/>
</g>
<!-- Node67 -->
<g id="node22" class="node"><title>Node67</title>
<g id="a_node22"><a xlink:href="a00242.html" target="_top" xlink:title="Functions that deal with prunning the number of adjacent subdomains in kmetis. ">
<polygon fill="white" stroke="black" points="2568,-0.5 2568,-41.5 2678,-41.5 2678,-0.5 2568,-0.5"/>
<text text-anchor="start" x="2576" y="-29.5" font-family="Helvetica,sans-Serif" font-size="10.00">ArcSyn3sis/3rdParty</text>
<text text-anchor="start" x="2576" y="-18.5" font-family="Helvetica,sans-Serif" font-size="10.00">/parmetis&#45;4.0.3/metis</text>
<text text-anchor="middle" x="2623" y="-7.5" font-family="Helvetica,sans-Serif" font-size="10.00">/libmetis/minconn.c</text>
</a>
</g>
</g>
<!-- Node46&#45;&gt;Node67 -->
<g id="edge21" class="edge"><title>Node46&#45;&gt;Node67</title>
<path fill="none" stroke="midnightblue" d="M2304.19,-89.1227C2369.22,-79.6763 2471.73,-63.1784 2559,-42 2561.94,-41.2862 2564.95,-40.5112 2567.97,-39.6946"/>
<polygon fill="midnightblue" stroke="midnightblue" points="2303.49,-85.6884 2294.09,-90.5779 2304.48,-92.6169 2303.49,-85.6884"/>
</g>
<!-- Node68 -->
<g id="node23" class="node"><title>Node68</title>
<g id="a_node23"><a xlink:href="a00245.html" target="_top" xlink:title="ArcSyn3sis/3rdParty\l/parmetis&#45;4.0.3/metis\l/libmetis/mincover.c">
<polygon fill="white" stroke="black" points="2696,-0.5 2696,-41.5 2806,-41.5 2806,-0.5 2696,-0.5"/>
<text text-anchor="start" x="2704" y="-29.5" font-family="Helvetica,sans-Serif" font-size="10.00">ArcSyn3sis/3rdParty</text>
<text text-anchor="start" x="2704" y="-18.5" font-family="Helvetica,sans-Serif" font-size="10.00">/parmetis&#45;4.0.3/metis</text>
<text text-anchor="middle" x="2751" y="-7.5" font-family="Helvetica,sans-Serif" font-size="10.00">/libmetis/mincover.c</text>
</a>
</g>
</g>
<!-- Node46&#45;&gt;Node68 -->
<g id="edge22" class="edge"><title>Node46&#45;&gt;Node68</title>
<path fill="none" stroke="midnightblue" d="M2304.08,-93.5273C2391.81,-86.6681 2552.53,-71.1712 2687,-42 2689.84,-41.383 2692.74,-40.6958 2695.66,-39.958"/>
<polygon fill="midnightblue" stroke="midnightblue" points="2303.71,-90.0452 2294.01,-94.3017 2304.25,-97.0246 2303.71,-90.0452"/>
</g>
<!-- Node69 -->
<g id="node24" class="node"><title>Node69</title>
<g id="a_node24"><a xlink:href="a00248.html" target="_top" xlink:title="ArcSyn3sis/3rdParty\l/parmetis&#45;4.0.3/metis\l/libmetis/mmd.c">
<polygon fill="white" stroke="black" points="2824,-0.5 2824,-41.5 2934,-41.5 2934,-0.5 2824,-0.5"/>
<text text-anchor="start" x="2832" y="-29.5" font-family="Helvetica,sans-Serif" font-size="10.00">ArcSyn3sis/3rdParty</text>
<text text-anchor="start" x="2832" y="-18.5" font-family="Helvetica,sans-Serif" font-size="10.00">/parmetis&#45;4.0.3/metis</text>
<text text-anchor="middle" x="2879" y="-7.5" font-family="Helvetica,sans-Serif" font-size="10.00">/libmetis/mmd.c</text>
</a>
</g>
</g>
<!-- Node46&#45;&gt;Node69 -->
<g id="edge23" class="edge"><title>Node46&#45;&gt;Node69</title>
<path fill="none" stroke="midnightblue" d="M2304.4,-96.0194C2411.92,-91.7892 2632.32,-79.012 2815,-42 2817.85,-41.4221 2820.76,-40.7663 2823.68,-40.0534"/>
<polygon fill="midnightblue" stroke="midnightblue" points="2304.22,-92.5239 2294.36,-96.4026 2304.48,-99.5188 2304.22,-92.5239"/>
</g>
<!-- Node70 -->
<g id="node25" class="node"><title>Node70</title>
<g id="a_node25"><a xlink:href="a00936.html" target="_top" xlink:title="ArcSyn3sis/3rdParty\l/parmetis&#45;4.0.3/metis\l/libmetis/ometis.c">
<polygon fill="white" stroke="black" points="2952,-0.5 2952,-41.5 3062,-41.5 3062,-0.5 2952,-0.5"/>
<text text-anchor="start" x="2960" y="-29.5" font-family="Helvetica,sans-Serif" font-size="10.00">ArcSyn3sis/3rdParty</text>
<text text-anchor="start" x="2960" y="-18.5" font-family="Helvetica,sans-Serif" font-size="10.00">/parmetis&#45;4.0.3/metis</text>
<text text-anchor="middle" x="3007" y="-7.5" font-family="Helvetica,sans-Serif" font-size="10.00">/libmetis/ometis.c</text>
</a>
</g>
</g>
<!-- Node46&#45;&gt;Node70 -->
<g id="edge24" class="edge"><title>Node46&#45;&gt;Node70</title>
<path fill="none" stroke="midnightblue" d="M2304.52,-97.6511C2429.73,-95.9157 2711.17,-86.8569 2943,-42 2945.86,-41.4471 2948.77,-40.8115 2951.69,-40.1146"/>
<polygon fill="midnightblue" stroke="midnightblue" points="2304.29,-94.1537 2294.33,-97.7808 2304.38,-101.153 2304.29,-94.1537"/>
</g>
<!-- Node71 -->
<g id="node26" class="node"><title>Node71</title>
<g id="a_node26"><a xlink:href="a00254.html" target="_top" xlink:title="This file contains various routines for dealing with options and ctrl_t. ">
<polygon fill="white" stroke="black" points="3080,-0.5 3080,-41.5 3190,-41.5 3190,-0.5 3080,-0.5"/>
<text text-anchor="start" x="3088" y="-29.5" font-family="Helvetica,sans-Serif" font-size="10.00">ArcSyn3sis/3rdParty</text>
<text text-anchor="start" x="3088" y="-18.5" font-family="Helvetica,sans-Serif" font-size="10.00">/parmetis&#45;4.0.3/metis</text>
<text text-anchor="middle" x="3135" y="-7.5" font-family="Helvetica,sans-Serif" font-size="10.00">/libmetis/options.c</text>
</a>
</g>
</g>
<!-- Node46&#45;&gt;Node71 -->
<g id="edge25" class="edge"><title>Node46&#45;&gt;Node71</title>
<path fill="none" stroke="midnightblue" d="M2304.29,-98.8002C2445.47,-99.3997 2789.18,-94.7523 3071,-42 3073.86,-41.4645 3076.77,-40.8429 3079.7,-40.1571"/>
<polygon fill="midnightblue" stroke="midnightblue" points="2304.09,-95.2992 2294.07,-98.746 2304.05,-102.299 2304.09,-95.2992"/>
</g>
<!-- Node72 -->
<g id="node27" class="node"><title>Node72</title>
<g id="a_node27"><a xlink:href="a00942.html" target="_top" xlink:title="ArcSyn3sis/3rdParty\l/parmetis&#45;4.0.3/metis\l/libmetis/parmetis.c">
<polygon fill="white" stroke="black" points="3208,-0.5 3208,-41.5 3318,-41.5 3318,-0.5 3208,-0.5"/>
<text text-anchor="start" x="3216" y="-29.5" font-family="Helvetica,sans-Serif" font-size="10.00">ArcSyn3sis/3rdParty</text>
<text text-anchor="start" x="3216" y="-18.5" font-family="Helvetica,sans-Serif" font-size="10.00">/parmetis&#45;4.0.3/metis</text>
<text text-anchor="middle" x="3263" y="-7.5" font-family="Helvetica,sans-Serif" font-size="10.00">/libmetis/parmetis.c</text>
</a>
</g>
</g>
<!-- Node46&#45;&gt;Node72 -->
<g id="edge26" class="edge"><title>Node46&#45;&gt;Node72</title>
<path fill="none" stroke="midnightblue" d="M2304.39,-96.2679C2491.51,-90.9817 3026.63,-73.4688 3199,-42 3201.86,-41.4773 3204.78,-40.866 3207.71,-40.1883"/>
<polygon fill="midnightblue" stroke="midnightblue" points="2304.06,-92.7759 2294.16,-96.5547 2304.25,-99.7731 2304.06,-92.7759"/>
</g>
<!-- Node73 -->
<g id="node28" class="node"><title>Node73</title>
<g id="a_node28"><a xlink:href="a00260.html" target="_top" xlink:title="This file contains the top level routines for the multilevel recursive bisection algorithm PMETIS...">
<polygon fill="white" stroke="black" points="3336,-0.5 3336,-41.5 3446,-41.5 3446,-0.5 3336,-0.5"/>
<text text-anchor="start" x="3344" y="-29.5" font-family="Helvetica,sans-Serif" font-size="10.00">ArcSyn3sis/3rdParty</text>
<text text-anchor="start" x="3344" y="-18.5" font-family="Helvetica,sans-Serif" font-size="10.00">/parmetis&#45;4.0.3/metis</text>
<text text-anchor="middle" x="3391" y="-7.5" font-family="Helvetica,sans-Serif" font-size="10.00">/libmetis/pmetis.c</text>
</a>
</g>
</g>
<!-- Node46&#45;&gt;Node73 -->
<g id="edge27" class="edge"><title>Node46&#45;&gt;Node73</title>
<path fill="none" stroke="midnightblue" d="M2304.57,-96.7839C2508.36,-92.6642 3128.91,-77.4652 3327,-42 3329.86,-41.4871 3332.78,-40.8837 3335.71,-40.2123"/>
<polygon fill="midnightblue" stroke="midnightblue" points="2304.25,-93.2895 2294.32,-96.9888 2304.39,-100.288 2304.25,-93.2895"/>
</g>
<!-- Node74 -->
<g id="node29" class="node"><title>Node74</title>
<g id="a_node29"><a xlink:href="a00266.html" target="_top" xlink:title="ArcSyn3sis/3rdParty\l/parmetis&#45;4.0.3/metis\l/libmetis/refine.c">
<polygon fill="white" stroke="black" points="3464,-0.5 3464,-41.5 3574,-41.5 3574,-0.5 3464,-0.5"/>
<text text-anchor="start" x="3472" y="-29.5" font-family="Helvetica,sans-Serif" font-size="10.00">ArcSyn3sis/3rdParty</text>
<text text-anchor="start" x="3472" y="-18.5" font-family="Helvetica,sans-Serif" font-size="10.00">/parmetis&#45;4.0.3/metis</text>
<text text-anchor="middle" x="3519" y="-7.5" font-family="Helvetica,sans-Serif" font-size="10.00">/libmetis/refine.c</text>
</a>
</g>
</g>
<!-- Node46&#45;&gt;Node74 -->
<g id="edge28" class="edge"><title>Node46&#45;&gt;Node74</title>
<path fill="none" stroke="midnightblue" d="M2304.35,-97.1993C2523.46,-94.1687 3230.92,-81.4932 3455,-42 3457.87,-41.4949 3460.78,-40.8977 3463.71,-40.2312"/>
<polygon fill="midnightblue" stroke="midnightblue" points="2304.24,-93.7004 2294.29,-97.3364 2304.33,-100.7 2304.24,-93.7004"/>
</g>
<!-- Node75 -->
<g id="node30" class="node"><title>Node75</title>
<g id="a_node30"><a xlink:href="a00272.html" target="_top" xlink:title="ArcSyn3sis/3rdParty\l/parmetis&#45;4.0.3/metis\l/libmetis/separator.c">
<polygon fill="white" stroke="black" points="3592,-0.5 3592,-41.5 3702,-41.5 3702,-0.5 3592,-0.5"/>
<text text-anchor="start" x="3600" y="-29.5" font-family="Helvetica,sans-Serif" font-size="10.00">ArcSyn3sis/3rdParty</text>
<text text-anchor="start" x="3600" y="-18.5" font-family="Helvetica,sans-Serif" font-size="10.00">/parmetis&#45;4.0.3/metis</text>
<text text-anchor="middle" x="3647" y="-7.5" font-family="Helvetica,sans-Serif" font-size="10.00">/libmetis/separator.c</text>
</a>
</g>
</g>
<!-- Node46&#45;&gt;Node75 -->
<g id="edge29" class="edge"><title>Node46&#45;&gt;Node75</title>
<path fill="none" stroke="midnightblue" d="M2304.42,-97.5321C2538.37,-95.5072 3332.91,-85.5124 3583,-42 3585.87,-41.5011 3588.78,-40.909 3591.72,-40.2465"/>
<polygon fill="midnightblue" stroke="midnightblue" points="2304.33,-94.0327 2294.36,-97.6172 2304.39,-101.032 2304.33,-94.0327"/>
</g>
<!-- Node76 -->
<g id="node31" class="node"><title>Node76</title>
<g id="a_node31"><a xlink:href="a00275.html" target="_top" xlink:title="ArcSyn3sis/3rdParty\l/parmetis&#45;4.0.3/metis\l/libmetis/sfm.c">
<polygon fill="white" stroke="black" points="3720,-0.5 3720,-41.5 3830,-41.5 3830,-0.5 3720,-0.5"/>
<text text-anchor="start" x="3728" y="-29.5" font-family="Helvetica,sans-Serif" font-size="10.00">ArcSyn3sis/3rdParty</text>
<text text-anchor="start" x="3728" y="-18.5" font-family="Helvetica,sans-Serif" font-size="10.00">/parmetis&#45;4.0.3/metis</text>
<text text-anchor="middle" x="3775" y="-7.5" font-family="Helvetica,sans-Serif" font-size="10.00">/libmetis/sfm.c</text>
</a>
</g>
</g>
<!-- Node46&#45;&gt;Node76 -->
<g id="edge30" class="edge"><title>Node46&#45;&gt;Node76</title>
<path fill="none" stroke="midnightblue" d="M2304.29,-97.809C2552.16,-96.7284 3434.74,-89.5517 3711,-42 3713.87,-41.5063 3716.79,-40.9183 3719.72,-40.2592"/>
<polygon fill="midnightblue" stroke="midnightblue" points="2304,-94.3101 2294.01,-97.8519 2304.03,-101.31 2304,-94.3101"/>
</g>
<!-- Node77 -->
<g id="node32" class="node"><title>Node77</title>
<g id="a_node32"><a xlink:href="a00278.html" target="_top" xlink:title="ArcSyn3sis/3rdParty\l/parmetis&#45;4.0.3/metis\l/libmetis/srefine.c">
<polygon fill="white" stroke="black" points="3848,-0.5 3848,-41.5 3958,-41.5 3958,-0.5 3848,-0.5"/>
<text text-anchor="start" x="3856" y="-29.5" font-family="Helvetica,sans-Serif" font-size="10.00">ArcSyn3sis/3rdParty</text>
<text text-anchor="start" x="3856" y="-18.5" font-family="Helvetica,sans-Serif" font-size="10.00">/parmetis&#45;4.0.3/metis</text>
<text text-anchor="middle" x="3903" y="-7.5" font-family="Helvetica,sans-Serif" font-size="10.00">/libmetis/srefine.c</text>
</a>
</g>
</g>
<!-- Node46&#45;&gt;Node77 -->
<g id="edge31" class="edge"><title>Node46&#45;&gt;Node77</title>
<path fill="none" stroke="midnightblue" d="M2304.27,-98.0412C2565.56,-97.8466 3536.51,-93.5924 3839,-42 3841.87,-41.5107 3844.79,-40.9262 3847.72,-40.2698"/>
<polygon fill="midnightblue" stroke="midnightblue" points="2304.18,-94.5411 2294.18,-98.0469 2304.19,-101.541 2304.18,-94.5411"/>
</g>
<!-- Node78 -->
<g id="node33" class="node"><title>Node78</title>
<g id="a_node33"><a xlink:href="a00966.html" target="_top" xlink:title="ArcSyn3sis/3rdParty\l/parmetis&#45;4.0.3/metis\l/libmetis/stat.c">
<polygon fill="white" stroke="black" points="3976,-0.5 3976,-41.5 4086,-41.5 4086,-0.5 3976,-0.5"/>
<text text-anchor="start" x="3984" y="-29.5" font-family="Helvetica,sans-Serif" font-size="10.00">ArcSyn3sis/3rdParty</text>
<text text-anchor="start" x="3984" y="-18.5" font-family="Helvetica,sans-Serif" font-size="10.00">/parmetis&#45;4.0.3/metis</text>
<text text-anchor="middle" x="4031" y="-7.5" font-family="Helvetica,sans-Serif" font-size="10.00">/libmetis/stat.c</text>
</a>
</g>
</g>
<!-- Node46&#45;&gt;Node78 -->
<g id="edge32" class="edge"><title>Node46&#45;&gt;Node78</title>
<path fill="none" stroke="midnightblue" d="M2304.43,-98.2396C2578.89,-98.8811 3638.28,-97.6283 3967,-42 3969.87,-41.5144 3972.79,-40.9329 3975.72,-40.2789"/>
<polygon fill="midnightblue" stroke="midnightblue" points="2304.24,-94.7392 2294.23,-98.214 2304.22,-101.739 2304.24,-94.7392"/>
</g>
<!-- Node79 -->
<g id="node34" class="node"><title>Node79</title>
<g id="a_node34"><a xlink:href="a00290.html" target="_top" xlink:title="ArcSyn3sis/3rdParty\l/parmetis&#45;4.0.3/metis\l/libmetis/timing.c">
<polygon fill="white" stroke="black" points="4104,-0.5 4104,-41.5 4214,-41.5 4214,-0.5 4104,-0.5"/>
<text text-anchor="start" x="4112" y="-29.5" font-family="Helvetica,sans-Serif" font-size="10.00">ArcSyn3sis/3rdParty</text>
<text text-anchor="start" x="4112" y="-18.5" font-family="Helvetica,sans-Serif" font-size="10.00">/parmetis&#45;4.0.3/metis</text>
<text text-anchor="middle" x="4159" y="-7.5" font-family="Helvetica,sans-Serif" font-size="10.00">/libmetis/timing.c</text>
</a>
</g>
</g>
<!-- Node46&#45;&gt;Node79 -->
<g id="edge33" class="edge"><title>Node46&#45;&gt;Node79</title>
<path fill="none" stroke="midnightblue" d="M2304.49,-98.4113C2591.52,-99.8475 3739.95,-101.677 4095,-42 4097.87,-41.5176 4100.79,-40.9387 4103.72,-40.2867"/>
<polygon fill="midnightblue" stroke="midnightblue" points="2304.26,-94.9102 2294.24,-98.3584 2304.23,-101.91 2304.26,-94.9102"/>
</g>
<!-- Node80 -->
<g id="node35" class="node"><title>Node80</title>
<g id="a_node35"><a xlink:href="a00873.html" target="_top" xlink:title="ArcSyn3sis/3rdParty\l/parmetis&#45;4.0.3/metis\l/libmetis/util.c">
<polygon fill="white" stroke="black" points="4232,-0.5 4232,-41.5 4342,-41.5 4342,-0.5 4232,-0.5"/>
<text text-anchor="start" x="4240" y="-29.5" font-family="Helvetica,sans-Serif" font-size="10.00">ArcSyn3sis/3rdParty</text>
<text text-anchor="start" x="4240" y="-18.5" font-family="Helvetica,sans-Serif" font-size="10.00">/parmetis&#45;4.0.3/metis</text>
<text text-anchor="middle" x="4287" y="-7.5" font-family="Helvetica,sans-Serif" font-size="10.00">/libmetis/util.c</text>
</a>
</g>
</g>
<!-- Node46&#45;&gt;Node80 -->
<g id="edge34" class="edge"><title>Node46&#45;&gt;Node80</title>
<path fill="none" stroke="midnightblue" d="M2304.13,-97.2236C2625.05,-93.2548 4030.51,-74.1607 4223,-42 4225.87,-41.5204 4228.79,-40.9437 4231.72,-40.2935"/>
<polygon fill="midnightblue" stroke="midnightblue" points="2304.02,-93.7246 2294.06,-97.3475 2304.1,-100.724 2304.02,-93.7246"/>
</g>
<!-- Node81 -->
<g id="node36" class="node"><title>Node81</title>
<g id="a_node36"><a xlink:href="a00984.html" target="_top" xlink:title="Functions dealing with memory allocation and workspace management. ">
<polygon fill="white" stroke="black" points="4360,-0.5 4360,-41.5 4470,-41.5 4470,-0.5 4360,-0.5"/>
<text text-anchor="start" x="4368" y="-29.5" font-family="Helvetica,sans-Serif" font-size="10.00">ArcSyn3sis/3rdParty</text>
<text text-anchor="start" x="4368" y="-18.5" font-family="Helvetica,sans-Serif" font-size="10.00">/parmetis&#45;4.0.3/metis</text>
<text text-anchor="middle" x="4415" y="-7.5" font-family="Helvetica,sans-Serif" font-size="10.00">/libmetis/wspace.c</text>
</a>
</g>
</g>
<!-- Node46&#45;&gt;Node81 -->
<g id="edge35" class="edge"><title>Node46&#45;&gt;Node81</title>
<path fill="none" stroke="midnightblue" d="M2304.74,-97.3369C2639.32,-93.8166 4145.35,-76.1796 4351,-42 4353.87,-41.5229 4356.79,-40.9482 4359.72,-40.2995"/>
<polygon fill="midnightblue" stroke="midnightblue" points="2304.22,-93.842 2294.25,-97.4465 2304.29,-100.842 2304.22,-93.842"/>
</g>
</g>
</svg>
