<?xml version="1.0" encoding="UTF-8" standalone="no"?>
<!DOCTYPE svg PUBLIC "-//W3C//DTD SVG 1.1//EN"
 "http://www.w3.org/Graphics/SVG/1.1/DTD/svg11.dtd">
<!-- Generated by graphviz version 2.36.0 (20140111.2315)
 -->
<!-- Title: ArcSyn3sis/src/write_vtu.cpp Pages: 1 -->
<svg width="654pt" height="208pt"
 viewBox="0.00 0.00 654.00 208.00" xmlns="http://www.w3.org/2000/svg" xmlns:xlink="http://www.w3.org/1999/xlink">
<g id="graph0" class="graph" transform="scale(1 1) rotate(0) translate(4 204)">
<title>ArcSyn3sis/src/write_vtu.cpp</title>
<polygon fill="white" stroke="none" points="-4,4 -4,-204 650,-204 650,4 -4,4"/>
<!-- Node0 -->
<g id="node1" class="node"><title>Node0</title>
<polygon fill="#bfbfbf" stroke="black" points="317.5,-169 317.5,-199 424.5,-199 424.5,-169 317.5,-169"/>
<text text-anchor="start" x="325.5" y="-187" font-family="Helvetica,sans-Serif" font-size="10.00">ArcSyn3sis/src/write</text>
<text text-anchor="middle" x="371" y="-176" font-family="Helvetica,sans-Serif" font-size="10.00">_vtu.cpp</text>
</g>
<!-- Node1 -->
<g id="node2" class="node"><title>Node1</title>
<polygon fill="white" stroke="#bfbfbf" points="114.5,-112.5 114.5,-131.5 155.5,-131.5 155.5,-112.5 114.5,-112.5"/>
<text text-anchor="middle" x="135" y="-119.5" font-family="Helvetica,sans-Serif" font-size="10.00">mpi.h</text>
</g>
<!-- Node0&#45;&gt;Node1 -->
<g id="edge1" class="edge"><title>Node0&#45;&gt;Node1</title>
<path fill="none" stroke="midnightblue" d="M317.462,-170.502C278.053,-161.13 222.957,-147.67 165.594,-132.06"/>
<polygon fill="midnightblue" stroke="midnightblue" points="166.188,-128.594 155.619,-129.33 164.34,-135.346 166.188,-128.594"/>
</g>
<!-- Node2 -->
<g id="node3" class="node"><title>Node2</title>
<g id="a_node3"><a xlink:href="a00155.html" target="_top" xlink:title="fem.h">
<polygon fill="white" stroke="black" points="174,-112.5 174,-131.5 216,-131.5 216,-112.5 174,-112.5"/>
<text text-anchor="middle" x="195" y="-119.5" font-family="Helvetica,sans-Serif" font-size="10.00">fem.h</text>
</a>
</g>
</g>
<!-- Node0&#45;&gt;Node2 -->
<g id="edge2" class="edge"><title>Node0&#45;&gt;Node2</title>
<path fill="none" stroke="midnightblue" d="M329.736,-168.933C297.926,-158.088 254.638,-143.331 225.804,-133.501"/>
<polygon fill="midnightblue" stroke="midnightblue" points="226.845,-130.158 216.25,-130.244 224.586,-136.784 226.845,-130.158"/>
</g>
<!-- Node5 -->
<g id="node6" class="node"><title>Node5</title>
<polygon fill="white" stroke="#bfbfbf" points="271,-56.5 271,-75.5 317,-75.5 317,-56.5 271,-56.5"/>
<text text-anchor="middle" x="294" y="-63.5" font-family="Helvetica,sans-Serif" font-size="10.00">stdio.h</text>
</g>
<!-- Node0&#45;&gt;Node5 -->
<g id="edge12" class="edge"><title>Node0&#45;&gt;Node5</title>
<path fill="none" stroke="midnightblue" d="M317.237,-170.523C296.953,-162.919 275.917,-150.882 264,-132 254.112,-116.333 265.91,-96.8731 277.493,-83.3492"/>
<polygon fill="midnightblue" stroke="midnightblue" points="280.267,-85.5037 284.481,-75.7827 275.125,-80.7544 280.267,-85.5037"/>
</g>
<!-- Node9 -->
<g id="node10" class="node"><title>Node9</title>
<polygon fill="white" stroke="#bfbfbf" points="272.5,-112.5 272.5,-131.5 327.5,-131.5 327.5,-112.5 272.5,-112.5"/>
<text text-anchor="middle" x="300" y="-119.5" font-family="Helvetica,sans-Serif" font-size="10.00">iostream</text>
</g>
<!-- Node0&#45;&gt;Node9 -->
<g id="edge9" class="edge"><title>Node0&#45;&gt;Node9</title>
<path fill="none" stroke="midnightblue" d="M354.174,-168.781C343.325,-159.613 329.223,-147.696 318.127,-138.319"/>
<polygon fill="midnightblue" stroke="midnightblue" points="320.228,-135.512 310.331,-131.731 315.71,-140.858 320.228,-135.512"/>
</g>
<!-- Node10 -->
<g id="node11" class="node"><title>Node10</title>
<polygon fill="white" stroke="#bfbfbf" points="346,-112.5 346,-131.5 396,-131.5 396,-112.5 346,-112.5"/>
<text text-anchor="middle" x="371" y="-119.5" font-family="Helvetica,sans-Serif" font-size="10.00">fstream</text>
</g>
<!-- Node0&#45;&gt;Node10 -->
<g id="edge10" class="edge"><title>Node0&#45;&gt;Node10</title>
<path fill="none" stroke="midnightblue" d="M371,-168.781C371,-160.781 371,-150.689 371,-142.017"/>
<polygon fill="midnightblue" stroke="midnightblue" points="374.5,-141.73 371,-131.731 367.5,-141.731 374.5,-141.73"/>
</g>
<!-- Node11 -->
<g id="node12" class="node"><title>Node11</title>
<polygon fill="white" stroke="#bfbfbf" points="414.5,-112.5 414.5,-131.5 455.5,-131.5 455.5,-112.5 414.5,-112.5"/>
<text text-anchor="middle" x="435" y="-119.5" font-family="Helvetica,sans-Serif" font-size="10.00">string</text>
</g>
<!-- Node0&#45;&gt;Node11 -->
<g id="edge11" class="edge"><title>Node0&#45;&gt;Node11</title>
<path fill="none" stroke="midnightblue" d="M386.167,-168.781C395.851,-159.703 408.409,-147.929 418.365,-138.595"/>
<polygon fill="midnightblue" stroke="midnightblue" points="420.786,-141.123 425.687,-131.731 415.998,-136.017 420.786,-141.123"/>
</g>
<!-- Node12 -->
<g id="node13" class="node"><title>Node12</title>
<polygon fill="white" stroke="#bfbfbf" points="474,-112.5 474,-131.5 526,-131.5 526,-112.5 474,-112.5"/>
<text text-anchor="middle" x="500" y="-119.5" font-family="Helvetica,sans-Serif" font-size="10.00">sstream</text>
</g>
<!-- Node0&#45;&gt;Node12 -->
<g id="edge13" class="edge"><title>Node0&#45;&gt;Node12</title>
<path fill="none" stroke="midnightblue" d="M401.245,-168.933C422.717,-158.946 451.325,-145.64 472.221,-135.92"/>
<polygon fill="midnightblue" stroke="midnightblue" points="473.919,-138.991 481.51,-131.6 470.967,-132.644 473.919,-138.991"/>
</g>
<!-- Node13 -->
<g id="node14" class="node"><title>Node13</title>
<polygon fill="white" stroke="#bfbfbf" points="544,-112.5 544,-131.5 588,-131.5 588,-112.5 544,-112.5"/>
<text text-anchor="middle" x="566" y="-119.5" font-family="Helvetica,sans-Serif" font-size="10.00">cmath</text>
</g>
<!-- Node0&#45;&gt;Node13 -->
<g id="edge14" class="edge"><title>Node0&#45;&gt;Node13</title>
<path fill="none" stroke="midnightblue" d="M416.719,-168.933C452.779,-157.837 502.151,-142.646 534.063,-132.827"/>
<polygon fill="midnightblue" stroke="midnightblue" points="535.243,-136.126 543.771,-129.84 533.184,-129.435 535.243,-136.126"/>
</g>
<!-- Node14 -->
<g id="node15" class="node"><title>Node14</title>
<polygon fill="white" stroke="#bfbfbf" points="606,-112.5 606,-131.5 646,-131.5 646,-112.5 606,-112.5"/>
<text text-anchor="middle" x="626" y="-119.5" font-family="Helvetica,sans-Serif" font-size="10.00">zlib.h</text>
</g>
<!-- Node0&#45;&gt;Node14 -->
<g id="edge15" class="edge"><title>Node0&#45;&gt;Node14</title>
<path fill="none" stroke="midnightblue" d="M424.717,-172.126C468.447,-162.991 531.95,-149.086 595.924,-132.134"/>
<polygon fill="midnightblue" stroke="midnightblue" points="597.021,-135.464 605.778,-129.499 595.213,-128.701 597.021,-135.464"/>
</g>
<!-- Node3 -->
<g id="node4" class="node"><title>Node3</title>
<polygon fill="white" stroke="#bfbfbf" points="0,-56.5 0,-75.5 54,-75.5 54,-56.5 0,-56.5"/>
<text text-anchor="middle" x="27" y="-63.5" font-family="Helvetica,sans-Serif" font-size="10.00">strings.h</text>
</g>
<!-- Node2&#45;&gt;Node3 -->
<g id="edge3" class="edge"><title>Node2&#45;&gt;Node3</title>
<path fill="none" stroke="midnightblue" d="M173.723,-114.161C146.037,-105.262 97.2315,-89.5744 63.5588,-78.751"/>
<polygon fill="midnightblue" stroke="midnightblue" points="64.2259,-75.2892 53.6346,-75.5611 62.0838,-81.9534 64.2259,-75.2892"/>
</g>
<!-- Node4 -->
<g id="node5" class="node"><title>Node4</title>
<polygon fill="white" stroke="#bfbfbf" points="72,-56.5 72,-75.5 120,-75.5 120,-56.5 72,-56.5"/>
<text text-anchor="middle" x="96" y="-63.5" font-family="Helvetica,sans-Serif" font-size="10.00">stdlib.h</text>
</g>
<!-- Node2&#45;&gt;Node4 -->
<g id="edge4" class="edge"><title>Node2&#45;&gt;Node4</title>
<path fill="none" stroke="midnightblue" d="M179.094,-112.324C163.362,-103.743 139.058,-90.486 120.791,-80.5224"/>
<polygon fill="midnightblue" stroke="midnightblue" points="122.322,-77.3704 111.867,-75.6545 118.97,-83.5157 122.322,-77.3704"/>
</g>
<!-- Node2&#45;&gt;Node5 -->
<g id="edge5" class="edge"><title>Node2&#45;&gt;Node5</title>
<path fill="none" stroke="midnightblue" d="M210.906,-112.324C226.638,-103.743 250.942,-90.486 269.209,-80.5224"/>
<polygon fill="midnightblue" stroke="midnightblue" points="271.03,-83.5157 278.133,-75.6545 267.678,-77.3704 271.03,-83.5157"/>
</g>
<!-- Node6 -->
<g id="node7" class="node"><title>Node6</title>
<polygon fill="white" stroke="#bfbfbf" points="138.5,-56.5 138.5,-75.5 185.5,-75.5 185.5,-56.5 138.5,-56.5"/>
<text text-anchor="middle" x="162" y="-63.5" font-family="Helvetica,sans-Serif" font-size="10.00">math.h</text>
</g>
<!-- Node2&#45;&gt;Node6 -->
<g id="edge6" class="edge"><title>Node2&#45;&gt;Node6</title>
<path fill="none" stroke="midnightblue" d="M189.551,-112.083C184.986,-104.613 178.332,-93.7244 172.707,-84.5199"/>
<polygon fill="midnightblue" stroke="midnightblue" points="175.549,-82.4588 167.348,-75.7511 169.576,-86.109 175.549,-82.4588"/>
</g>
<!-- Node7 -->
<g id="node8" class="node"><title>Node7</title>
<g id="a_node8"><a xlink:href="a00158.html" target="_top" xlink:title="Mesh.h">
<polygon fill="white" stroke="black" points="203.5,-56.5 203.5,-75.5 252.5,-75.5 252.5,-56.5 203.5,-56.5"/>
<text text-anchor="middle" x="228" y="-63.5" font-family="Helvetica,sans-Serif" font-size="10.00">Mesh.h</text>
</a>
</g>
</g>
<!-- Node2&#45;&gt;Node7 -->
<g id="edge7" class="edge"><title>Node2&#45;&gt;Node7</title>
<path fill="none" stroke="midnightblue" d="M200.449,-112.083C205.014,-104.613 211.668,-93.7244 217.293,-84.5199"/>
<polygon fill="midnightblue" stroke="midnightblue" points="220.424,-86.109 222.652,-75.7511 214.451,-82.4588 220.424,-86.109"/>
</g>
<!-- Node8 -->
<g id="node9" class="node"><title>Node8</title>
<polygon fill="white" stroke="#bfbfbf" points="199.5,-0.5 199.5,-19.5 256.5,-19.5 256.5,-0.5 199.5,-0.5"/>
<text text-anchor="middle" x="228" y="-7.5" font-family="Helvetica,sans-Serif" font-size="10.00">occa.hpp</text>
</g>
<!-- Node7&#45;&gt;Node8 -->
<g id="edge8" class="edge"><title>Node7&#45;&gt;Node8</title>
<path fill="none" stroke="midnightblue" d="M228,-56.083C228,-49.0059 228,-38.8611 228,-29.9865"/>
<polygon fill="midnightblue" stroke="midnightblue" points="231.5,-29.751 228,-19.7511 224.5,-29.7511 231.5,-29.751"/>
</g>
</g>
</svg>
