<?xml version="1.0" encoding="UTF-8" standalone="no"?>
<!DOCTYPE svg PUBLIC "-//W3C//DTD SVG 1.1//EN"
 "http://www.w3.org/Graphics/SVG/1.1/DTD/svg11.dtd">
<!-- Generated by graphviz version 2.36.0 (20140111.2315)
 -->
<!-- Title: MinCover_ColDFS Pages: 1 -->
<svg width="494pt" height="57pt"
 viewBox="0.00 0.00 494.00 56.70" xmlns="http://www.w3.org/2000/svg" xmlns:xlink="http://www.w3.org/1999/xlink">
<g id="graph0" class="graph" transform="scale(1 1) rotate(0) translate(4 52.7017)">
<title>MinCover_ColDFS</title>
<polygon fill="white" stroke="none" points="-4,4 -4,-52.7017 490,-52.7017 490,4 -4,4"/>
<!-- Node12 -->
<g id="node1" class="node"><title>Node12</title>
<polygon fill="#bfbfbf" stroke="black" points="0,-28.5 0,-47.5 100,-47.5 100,-28.5 0,-28.5"/>
<text text-anchor="middle" x="50" y="-35.5" font-family="Helvetica,sans-Serif" font-size="10.00">MinCover_ColDFS</text>
</g>
<!-- Node13 -->
<g id="node2" class="node"><title>Node13</title>
<g id="a_node2"><a xlink:href="a00948.html#adafb285aeb4295e7bbdddef0499e209c" target="_top" xlink:title="MinCover_Decompose">
<polygon fill="white" stroke="black" points="272,-28.5 272,-47.5 390,-47.5 390,-28.5 272,-28.5"/>
<text text-anchor="middle" x="331" y="-35.5" font-family="Helvetica,sans-Serif" font-size="10.00">MinCover_Decompose</text>
</a>
</g>
</g>
<!-- Node12&#45;&gt;Node13 -->
<g id="edge1" class="edge"><title>Node12&#45;&gt;Node13</title>
<path fill="none" stroke="midnightblue" d="M110.354,-45.0916C118.947,-45.8833 127.692,-46.5614 136,-47 180.383,-49.3431 191.606,-49.1204 236,-47 247.627,-46.4447 260.034,-45.5051 271.896,-44.4372"/>
<polygon fill="midnightblue" stroke="midnightblue" points="110.664,-41.6053 100.371,-44.1176 109.984,-48.5722 110.664,-41.6053"/>
</g>
<!-- Node15 -->
<g id="node4" class="node"><title>Node15</title>
<g id="a_node4"><a xlink:href="a00948.html#aa53562f944f7971ae3bc760f9ac41774" target="_top" xlink:title="MinCover_ColDFS">
<polygon fill="white" stroke="black" points="136,-0.5 136,-19.5 236,-19.5 236,-0.5 136,-0.5"/>
<text text-anchor="middle" x="186" y="-7.5" font-family="Helvetica,sans-Serif" font-size="10.00">MinCover_ColDFS</text>
</a>
</g>
</g>
<!-- Node12&#45;&gt;Node15 -->
<g id="edge3" class="edge"><title>Node12&#45;&gt;Node15</title>
<path fill="none" stroke="midnightblue" d="M106.629,-26.376C117.562,-24.0915 128.911,-21.72 139.466,-19.5146"/>
<polygon fill="midnightblue" stroke="midnightblue" points="105.813,-22.9708 96.7404,-28.4423 107.245,-29.8229 105.813,-22.9708"/>
</g>
<!-- Node14 -->
<g id="node3" class="node"><title>Node14</title>
<g id="a_node3"><a xlink:href="a00948.html#a0e648504c6fd9044875e7783b9916f9b" target="_top" xlink:title="MinCover">
<polygon fill="white" stroke="black" points="426.5,-28.5 426.5,-47.5 485.5,-47.5 485.5,-28.5 426.5,-28.5"/>
<text text-anchor="middle" x="456" y="-35.5" font-family="Helvetica,sans-Serif" font-size="10.00">MinCover</text>
</a>
</g>
</g>
<!-- Node13&#45;&gt;Node14 -->
<g id="edge2" class="edge"><title>Node13&#45;&gt;Node14</title>
<path fill="none" stroke="midnightblue" d="M400.545,-38C409.616,-38 418.48,-38 426.333,-38"/>
<polygon fill="midnightblue" stroke="midnightblue" points="400.258,-34.5001 390.258,-38 400.258,-41.5001 400.258,-34.5001"/>
</g>
<!-- Node15&#45;&gt;Node13 -->
<g id="edge4" class="edge"><title>Node15&#45;&gt;Node13</title>
<path fill="none" stroke="midnightblue" d="M245.652,-21.4843C257.538,-23.8116 269.914,-26.235 281.407,-28.4854"/>
<polygon fill="midnightblue" stroke="midnightblue" points="246.299,-18.0446 235.813,-19.5577 244.954,-24.9141 246.299,-18.0446"/>
</g>
<!-- Node15&#45;&gt;Node15 -->
<g id="edge5" class="edge"><title>Node15&#45;&gt;Node15</title>
<path fill="none" stroke="midnightblue" d="M160.702,-29.0292C162.082,-34.128 170.515,-38 186,-38 210.172,-38 217.159,-28.5653 206.962,-19.7571"/>
<polygon fill="midnightblue" stroke="midnightblue" points="163.973,-30.2982 165.038,-19.7571 157.632,-27.3329 163.973,-30.2982"/>
</g>
</g>
</svg>
