<?xml version="1.0" encoding="UTF-8" standalone="no"?>
<!DOCTYPE svg PUBLIC "-//W3C//DTD SVG 1.1//EN"
 "http://www.w3.org/Graphics/SVG/1.1/DTD/svg11.dtd">
<!-- Generated by graphviz version 2.36.0 (20140111.2315)
 -->
<!-- Title: Allocate2WayNodePartitionMemory Pages: 1 -->
<svg width="448pt" height="38pt"
 viewBox="0.00 0.00 448.00 38.00" xmlns="http://www.w3.org/2000/svg" xmlns:xlink="http://www.w3.org/1999/xlink">
<g id="graph0" class="graph" transform="scale(1 1) rotate(0) translate(4 34)">
<title>Allocate2WayNodePartitionMemory</title>
<polygon fill="white" stroke="none" points="-4,4 -4,-34 444,-34 444,4 -4,4"/>
<!-- Node6 -->
<g id="node1" class="node"><title>Node6</title>
<polygon fill="#bfbfbf" stroke="black" points="0,-0 0,-30 138,-30 138,-0 0,-0"/>
<text text-anchor="start" x="8" y="-18" font-family="Helvetica,sans-Serif" font-size="10.00">Allocate2WayNodePartition</text>
<text text-anchor="middle" x="69" y="-7" font-family="Helvetica,sans-Serif" font-size="10.00">Memory</text>
</g>
<!-- Node7 -->
<g id="node2" class="node"><title>Node7</title>
<g id="a_node2"><a xlink:href="a00278.html#ab3d791e7adffa770602e257ecdaabd72" target="_top" xlink:title="Project2WayNodePartition">
<polygon fill="white" stroke="black" points="174,-5.5 174,-24.5 308,-24.5 308,-5.5 174,-5.5"/>
<text text-anchor="middle" x="241" y="-12.5" font-family="Helvetica,sans-Serif" font-size="10.00">Project2WayNodePartition</text>
</a>
</g>
</g>
<!-- Node6&#45;&gt;Node7 -->
<g id="edge1" class="edge"><title>Node6&#45;&gt;Node7</title>
<path fill="none" stroke="midnightblue" d="M148.428,-15C156.896,-15 165.451,-15 173.754,-15"/>
<polygon fill="midnightblue" stroke="midnightblue" points="148.166,-11.5001 138.166,-15 148.166,-18.5001 148.166,-11.5001"/>
</g>
<!-- Node8 -->
<g id="node3" class="node"><title>Node8</title>
<g id="a_node3"><a xlink:href="a00278.html#a2fd4bd5f789c1c1248aa326d0cac9023" target="_top" xlink:title="Refine2WayNode">
<polygon fill="white" stroke="black" points="344.5,-5.5 344.5,-24.5 439.5,-24.5 439.5,-5.5 344.5,-5.5"/>
<text text-anchor="middle" x="392" y="-12.5" font-family="Helvetica,sans-Serif" font-size="10.00">Refine2WayNode</text>
</a>
</g>
</g>
<!-- Node7&#45;&gt;Node8 -->
<g id="edge2" class="edge"><title>Node7&#45;&gt;Node8</title>
<path fill="none" stroke="midnightblue" d="M318.493,-15C327.253,-15 335.976,-15 344.178,-15"/>
<polygon fill="midnightblue" stroke="midnightblue" points="318.221,-11.5001 308.221,-15 318.221,-18.5001 318.221,-11.5001"/>
</g>
</g>
</svg>
