<?xml version="1.0" encoding="UTF-8" standalone="no"?>
<!DOCTYPE svg PUBLIC "-//W3C//DTD SVG 1.1//EN"
 "http://www.w3.org/Graphics/SVG/1.1/DTD/svg11.dtd">
<!-- Generated by graphviz version 2.36.0 (20140111.2315)
 -->
<!-- Title: KWayVolUpdate Pages: 1 -->
<svg width="442pt" height="66pt"
 viewBox="0.00 0.00 442.00 66.00" xmlns="http://www.w3.org/2000/svg" xmlns:xlink="http://www.w3.org/1999/xlink">
<g id="graph0" class="graph" transform="scale(1 1) rotate(0) translate(4 62)">
<title>KWayVolUpdate</title>
<polygon fill="white" stroke="none" points="-4,4 -4,-62 438,-62 438,4 -4,4"/>
<!-- Node36 -->
<g id="node1" class="node"><title>Node36</title>
<polygon fill="#bfbfbf" stroke="black" points="0,-19.5 0,-38.5 90,-38.5 90,-19.5 0,-19.5"/>
<text text-anchor="middle" x="45" y="-26.5" font-family="Helvetica,sans-Serif" font-size="10.00">KWayVolUpdate</text>
</g>
<!-- Node37 -->
<g id="node2" class="node"><title>Node37</title>
<g id="a_node2"><a xlink:href="a00948.html#af249da13cad4e148e2a6efcacad5d5da" target="_top" xlink:title="Greedy_KWayVolOptimize">
<polygon fill="white" stroke="black" points="133.5,-38.5 133.5,-57.5 268.5,-57.5 268.5,-38.5 133.5,-38.5"/>
<text text-anchor="middle" x="201" y="-45.5" font-family="Helvetica,sans-Serif" font-size="10.00">Greedy_KWayVolOptimize</text>
</a>
</g>
</g>
<!-- Node36&#45;&gt;Node37 -->
<g id="edge1" class="edge"><title>Node36&#45;&gt;Node37</title>
<path fill="none" stroke="midnightblue" d="M100.207,-35.6879C110.959,-37.0144 122.361,-38.4212 133.468,-39.7915"/>
<polygon fill="midnightblue" stroke="midnightblue" points="100.484,-32.1955 90.1302,-34.4446 99.6264,-39.1429 100.484,-32.1955"/>
</g>
<!-- Node39 -->
<g id="node4" class="node"><title>Node39</title>
<g id="a_node4"><a xlink:href="a00948.html#a4177983ff9528ecb665a71f0ab1785e9" target="_top" xlink:title="Greedy_McKWayVolOptimize">
<polygon fill="white" stroke="black" points="126.5,-0.5 126.5,-19.5 275.5,-19.5 275.5,-0.5 126.5,-0.5"/>
<text text-anchor="middle" x="201" y="-7.5" font-family="Helvetica,sans-Serif" font-size="10.00">Greedy_McKWayVolOptimize</text>
</a>
</g>
</g>
<!-- Node36&#45;&gt;Node39 -->
<g id="edge3" class="edge"><title>Node36&#45;&gt;Node39</title>
<path fill="none" stroke="midnightblue" d="M100.26,-22.3056C108.755,-21.2575 117.656,-20.1593 126.496,-19.0687"/>
<polygon fill="midnightblue" stroke="midnightblue" points="99.6264,-18.8571 90.1302,-23.5554 100.484,-25.8045 99.6264,-18.8571"/>
</g>
<!-- Node38 -->
<g id="node3" class="node"><title>Node38</title>
<g id="a_node3"><a xlink:href="a00948.html#a063b67f1b75662342f8db5aefba11cc5" target="_top" xlink:title="Greedy_KWayOptimize">
<polygon fill="white" stroke="black" points="312.5,-19.5 312.5,-38.5 433.5,-38.5 433.5,-19.5 312.5,-19.5"/>
<text text-anchor="middle" x="373" y="-26.5" font-family="Helvetica,sans-Serif" font-size="10.00">Greedy_KWayOptimize</text>
</a>
</g>
</g>
<!-- Node37&#45;&gt;Node38 -->
<g id="edge2" class="edge"><title>Node37&#45;&gt;Node38</title>
<path fill="none" stroke="midnightblue" d="M278.937,-39.4011C290.166,-38.1461 301.585,-36.8699 312.4,-35.6612"/>
<polygon fill="midnightblue" stroke="midnightblue" points="278.25,-35.9561 268.701,-40.5452 279.027,-42.9128 278.25,-35.9561"/>
</g>
<!-- Node39&#45;&gt;Node38 -->
<g id="edge4" class="edge"><title>Node39&#45;&gt;Node38</title>
<path fill="none" stroke="midnightblue" d="M285.712,-19.356C294.716,-20.3623 303.739,-21.3708 312.377,-22.3363"/>
<polygon fill="midnightblue" stroke="midnightblue" points="285.903,-15.8556 275.576,-18.2232 285.125,-22.8123 285.903,-15.8556"/>
</g>
</g>
</svg>
