<?xml version="1.0" encoding="UTF-8" standalone="no"?>
<!DOCTYPE svg PUBLIC "-//W3C//DTD SVG 1.1//EN"
 "http://www.w3.org/Graphics/SVG/1.1/DTD/svg11.dtd">
<!-- Generated by graphviz version 2.36.0 (20140111.2315)
 -->
<!-- Title: UpdateEdgeSubDomainGraph Pages: 1 -->
<svg width="510pt" height="66pt"
 viewBox="0.00 0.00 510.00 66.00" xmlns="http://www.w3.org/2000/svg" xmlns:xlink="http://www.w3.org/1999/xlink">
<g id="graph0" class="graph" transform="scale(1 1) rotate(0) translate(4 62)">
<title>UpdateEdgeSubDomainGraph</title>
<polygon fill="white" stroke="none" points="-4,4 -4,-62 506,-62 506,4 -4,4"/>
<!-- Node25 -->
<g id="node1" class="node"><title>Node25</title>
<polygon fill="#bfbfbf" stroke="black" points="0,-19.5 0,-38.5 152,-38.5 152,-19.5 0,-19.5"/>
<text text-anchor="middle" x="76" y="-26.5" font-family="Helvetica,sans-Serif" font-size="10.00">UpdateEdgeSubDomainGraph</text>
</g>
<!-- Node26 -->
<g id="node2" class="node"><title>Node26</title>
<g id="a_node2"><a xlink:href="a00948.html#a39d997df18cf07ea8609a66db133a8b6" target="_top" xlink:title="MoveGroupMinConnForCut">
<polygon fill="white" stroke="black" points="188.5,-38.5 188.5,-57.5 327.5,-57.5 327.5,-38.5 188.5,-38.5"/>
<text text-anchor="middle" x="258" y="-45.5" font-family="Helvetica,sans-Serif" font-size="10.00">MoveGroupMinConnForCut</text>
</a>
</g>
</g>
<!-- Node25&#45;&gt;Node26 -->
<g id="edge1" class="edge"><title>Node25&#45;&gt;Node26</title>
<path fill="none" stroke="midnightblue" d="M161.989,-37.971C170.847,-38.9061 179.771,-39.848 188.415,-40.7604"/>
<polygon fill="midnightblue" stroke="midnightblue" points="162.345,-34.4893 152.033,-36.9201 161.61,-41.4506 162.345,-34.4893"/>
</g>
<!-- Node28 -->
<g id="node4" class="node"><title>Node28</title>
<g id="a_node4"><a xlink:href="a00948.html#acab0293e31c438218cd4b37b608466c6" target="_top" xlink:title="MoveGroupMinConnForVol">
<polygon fill="white" stroke="black" points="189,-0.5 189,-19.5 327,-19.5 327,-0.5 189,-0.5"/>
<text text-anchor="middle" x="258" y="-7.5" font-family="Helvetica,sans-Serif" font-size="10.00">MoveGroupMinConnForVol</text>
</a>
</g>
</g>
<!-- Node25&#45;&gt;Node28 -->
<g id="edge3" class="edge"><title>Node25&#45;&gt;Node28</title>
<path fill="none" stroke="midnightblue" d="M162.149,-20.0121C171.15,-19.062 180.216,-18.105 188.985,-17.1793"/>
<polygon fill="midnightblue" stroke="midnightblue" points="161.61,-16.5494 152.033,-21.0799 162.345,-23.5107 161.61,-16.5494"/>
</g>
<!-- Node27 -->
<g id="node3" class="node"><title>Node27</title>
<g id="a_node3"><a xlink:href="a00948.html#a6dab60a85abb88ada807831e84cb84fc" target="_top" xlink:title="EliminateSubDomainEdges">
<polygon fill="white" stroke="black" points="364,-19.5 364,-38.5 502,-38.5 502,-19.5 364,-19.5"/>
<text text-anchor="middle" x="433" y="-26.5" font-family="Helvetica,sans-Serif" font-size="10.00">EliminateSubDomainEdges</text>
</a>
</g>
</g>
<!-- Node26&#45;&gt;Node27 -->
<g id="edge2" class="edge"><title>Node26&#45;&gt;Node27</title>
<path fill="none" stroke="midnightblue" d="M337.978,-39.3262C346.644,-38.3743 355.412,-37.4114 363.93,-36.4759"/>
<polygon fill="midnightblue" stroke="midnightblue" points="337.429,-35.8652 327.871,-40.4361 338.194,-42.8234 337.429,-35.8652"/>
</g>
<!-- Node28&#45;&gt;Node27 -->
<g id="edge4" class="edge"><title>Node28&#45;&gt;Node27</title>
<path fill="none" stroke="midnightblue" d="M337.588,-18.6311C346.351,-19.5934 355.222,-20.5678 363.839,-21.5141"/>
<polygon fill="midnightblue" stroke="midnightblue" points="337.697,-15.122 327.374,-17.5093 336.932,-22.0802 337.697,-15.122"/>
</g>
</g>
</svg>
