<?xml version="1.0" encoding="UTF-8" standalone="no"?>
<!DOCTYPE svg PUBLIC "-//W3C//DTD SVG 1.1//EN"
 "http://www.w3.org/Graphics/SVG/1.1/DTD/svg11.dtd">
<!-- Generated by graphviz version 2.36.0 (20140111.2315)
 -->
<!-- Title: ArcSyn3sis/src/write_algs/write_vtu.cpp Pages: 1 -->
<svg width="325pt" height="208pt"
 viewBox="0.00 0.00 325.00 208.00" xmlns="http://www.w3.org/2000/svg" xmlns:xlink="http://www.w3.org/1999/xlink">
<g id="graph0" class="graph" transform="scale(1 1) rotate(0) translate(4 204)">
<title>ArcSyn3sis/src/write_algs/write_vtu.cpp</title>
<polygon fill="white" stroke="none" points="-4,4 -4,-204 321,-204 321,4 -4,4"/>
<!-- Node0 -->
<g id="node1" class="node"><title>Node0</title>
<polygon fill="#bfbfbf" stroke="black" points="129.5,-169 129.5,-199 236.5,-199 236.5,-169 129.5,-169"/>
<text text-anchor="start" x="137.5" y="-187" font-family="Helvetica,sans-Serif" font-size="10.00">ArcSyn3sis/src/write</text>
<text text-anchor="middle" x="183" y="-176" font-family="Helvetica,sans-Serif" font-size="10.00">_algs/write_vtu.cpp</text>
</g>
<!-- Node1 -->
<g id="node2" class="node"><title>Node1</title>
<polygon fill="white" stroke="#bfbfbf" points="102.5,-112.5 102.5,-131.5 143.5,-131.5 143.5,-112.5 102.5,-112.5"/>
<text text-anchor="middle" x="123" y="-119.5" font-family="Helvetica,sans-Serif" font-size="10.00">mpi.h</text>
</g>
<!-- Node0&#45;&gt;Node1 -->
<g id="edge1" class="edge"><title>Node0&#45;&gt;Node1</title>
<path fill="none" stroke="midnightblue" d="M168.781,-168.781C159.792,-159.792 148.162,-148.162 138.873,-138.873"/>
<polygon fill="midnightblue" stroke="midnightblue" points="141.277,-136.327 131.731,-131.731 136.327,-141.277 141.277,-136.327"/>
</g>
<!-- Node2 -->
<g id="node3" class="node"><title>Node2</title>
<g id="a_node3"><a xlink:href="a00155.html" target="_top" xlink:title="fem.h">
<polygon fill="white" stroke="black" points="162,-112.5 162,-131.5 204,-131.5 204,-112.5 162,-112.5"/>
<text text-anchor="middle" x="183" y="-119.5" font-family="Helvetica,sans-Serif" font-size="10.00">fem.h</text>
</a>
</g>
</g>
<!-- Node0&#45;&gt;Node2 -->
<g id="edge2" class="edge"><title>Node0&#45;&gt;Node2</title>
<path fill="none" stroke="midnightblue" d="M183,-168.781C183,-160.781 183,-150.689 183,-142.017"/>
<polygon fill="midnightblue" stroke="midnightblue" points="186.5,-141.73 183,-131.731 179.5,-141.731 186.5,-141.73"/>
</g>
<!-- Node5 -->
<g id="node6" class="node"><title>Node5</title>
<polygon fill="white" stroke="#bfbfbf" points="271,-56.5 271,-75.5 317,-75.5 317,-56.5 271,-56.5"/>
<text text-anchor="middle" x="294" y="-63.5" font-family="Helvetica,sans-Serif" font-size="10.00">stdio.h</text>
</g>
<!-- Node0&#45;&gt;Node5 -->
<g id="edge9" class="edge"><title>Node0&#45;&gt;Node5</title>
<path fill="none" stroke="midnightblue" d="M196.611,-168.776C217.338,-147.116 256.699,-105.981 278.499,-83.1996"/>
<polygon fill="midnightblue" stroke="midnightblue" points="281.283,-85.3519 285.668,-75.707 276.226,-80.5123 281.283,-85.3519"/>
</g>
<!-- Node3 -->
<g id="node4" class="node"><title>Node3</title>
<polygon fill="white" stroke="#bfbfbf" points="0,-56.5 0,-75.5 54,-75.5 54,-56.5 0,-56.5"/>
<text text-anchor="middle" x="27" y="-63.5" font-family="Helvetica,sans-Serif" font-size="10.00">strings.h</text>
</g>
<!-- Node2&#45;&gt;Node3 -->
<g id="edge3" class="edge"><title>Node2&#45;&gt;Node3</title>
<path fill="none" stroke="midnightblue" d="M161.961,-113.717C136.146,-104.781 92.0266,-89.5092 61.2861,-78.8683"/>
<polygon fill="midnightblue" stroke="midnightblue" points="62.4104,-75.5537 51.8156,-75.59 60.1206,-82.1687 62.4104,-75.5537"/>
</g>
<!-- Node4 -->
<g id="node5" class="node"><title>Node4</title>
<polygon fill="white" stroke="#bfbfbf" points="72,-56.5 72,-75.5 120,-75.5 120,-56.5 72,-56.5"/>
<text text-anchor="middle" x="96" y="-63.5" font-family="Helvetica,sans-Serif" font-size="10.00">stdlib.h</text>
</g>
<!-- Node2&#45;&gt;Node4 -->
<g id="edge4" class="edge"><title>Node2&#45;&gt;Node4</title>
<path fill="none" stroke="midnightblue" d="M169.022,-112.324C155.45,-103.9 134.62,-90.9709 118.675,-81.0741"/>
<polygon fill="midnightblue" stroke="midnightblue" points="120.286,-77.9544 109.943,-75.6545 116.594,-83.9019 120.286,-77.9544"/>
</g>
<!-- Node2&#45;&gt;Node5 -->
<g id="edge5" class="edge"><title>Node2&#45;&gt;Node5</title>
<path fill="none" stroke="midnightblue" d="M200.834,-112.324C218.716,-103.625 246.475,-90.1202 267.046,-80.113"/>
<polygon fill="midnightblue" stroke="midnightblue" points="268.749,-83.1765 276.21,-75.6545 265.687,-76.8819 268.749,-83.1765"/>
</g>
<!-- Node6 -->
<g id="node7" class="node"><title>Node6</title>
<polygon fill="white" stroke="#bfbfbf" points="138.5,-56.5 138.5,-75.5 185.5,-75.5 185.5,-56.5 138.5,-56.5"/>
<text text-anchor="middle" x="162" y="-63.5" font-family="Helvetica,sans-Serif" font-size="10.00">math.h</text>
</g>
<!-- Node2&#45;&gt;Node6 -->
<g id="edge6" class="edge"><title>Node2&#45;&gt;Node6</title>
<path fill="none" stroke="midnightblue" d="M179.532,-112.083C176.688,-104.77 172.571,-94.1814 169.04,-85.1034"/>
<polygon fill="midnightblue" stroke="midnightblue" points="172.29,-83.8025 165.403,-75.7511 165.766,-86.3397 172.29,-83.8025"/>
</g>
<!-- Node7 -->
<g id="node8" class="node"><title>Node7</title>
<g id="a_node8"><a xlink:href="a00158.html" target="_top" xlink:title="Mesh.h">
<polygon fill="white" stroke="black" points="203.5,-56.5 203.5,-75.5 252.5,-75.5 252.5,-56.5 203.5,-56.5"/>
<text text-anchor="middle" x="228" y="-63.5" font-family="Helvetica,sans-Serif" font-size="10.00">Mesh.h</text>
</a>
</g>
</g>
<!-- Node2&#45;&gt;Node7 -->
<g id="edge7" class="edge"><title>Node2&#45;&gt;Node7</title>
<path fill="none" stroke="midnightblue" d="M190.431,-112.083C196.853,-104.377 206.306,-93.0333 214.122,-83.6531"/>
<polygon fill="midnightblue" stroke="midnightblue" points="216.994,-85.674 220.707,-75.7511 211.617,-81.1927 216.994,-85.674"/>
</g>
<!-- Node8 -->
<g id="node9" class="node"><title>Node8</title>
<polygon fill="white" stroke="#bfbfbf" points="199.5,-0.5 199.5,-19.5 256.5,-19.5 256.5,-0.5 199.5,-0.5"/>
<text text-anchor="middle" x="228" y="-7.5" font-family="Helvetica,sans-Serif" font-size="10.00">occa.hpp</text>
</g>
<!-- Node7&#45;&gt;Node8 -->
<g id="edge8" class="edge"><title>Node7&#45;&gt;Node8</title>
<path fill="none" stroke="midnightblue" d="M228,-56.083C228,-49.0059 228,-38.8611 228,-29.9865"/>
<polygon fill="midnightblue" stroke="midnightblue" points="231.5,-29.751 228,-19.7511 224.5,-29.7511 231.5,-29.751"/>
</g>
</g>
</svg>
