<?xml version="1.0" encoding="UTF-8" standalone="no"?>
<!DOCTYPE svg PUBLIC "-//W3C//DTD SVG 1.1//EN"
 "http://www.w3.org/Graphics/SVG/1.1/DTD/svg11.dtd">
<!-- Generated by graphviz version 2.36.0 (20140111.2315)
 -->
<!-- Title: InitMesh Pages: 1 -->
<svg width="276pt" height="28pt"
 viewBox="0.00 0.00 276.00 28.00" xmlns="http://www.w3.org/2000/svg" xmlns:xlink="http://www.w3.org/1999/xlink">
<g id="graph0" class="graph" transform="scale(1 1) rotate(0) translate(4 24)">
<title>InitMesh</title>
<polygon fill="white" stroke="none" points="-4,4 -4,-24 272,-24 272,4 -4,4"/>
<!-- Node10 -->
<g id="node1" class="node"><title>Node10</title>
<polygon fill="#bfbfbf" stroke="black" points="0,-0.5 0,-19.5 54,-19.5 54,-0.5 0,-0.5"/>
<text text-anchor="middle" x="27" y="-7.5" font-family="Helvetica,sans-Serif" font-size="10.00">InitMesh</text>
</g>
<!-- Node11 -->
<g id="node2" class="node"><title>Node11</title>
<g id="a_node2"><a xlink:href="$a00380.html#aec1a4bd83e832be7befbf6b03e9513ad" xlink:title="CreateMesh">
<polygon fill="white" stroke="black" points="90.5,-0.5 90.5,-19.5 161.5,-19.5 161.5,-0.5 90.5,-0.5"/>
<text text-anchor="middle" x="126" y="-7.5" font-family="Helvetica,sans-Serif" font-size="10.00">CreateMesh</text>
</a>
</g>
</g>
<!-- Node10&#45;&gt;Node11 -->
<g id="edge1" class="edge"><title>Node10&#45;&gt;Node11</title>
<path fill="none" stroke="midnightblue" d="M64.3046,-10C72.8298,-10 81.8927,-10 90.3435,-10"/>
<polygon fill="midnightblue" stroke="midnightblue" points="64.2496,-6.5001 54.2496,-10 64.2496,-13.5001 64.2496,-6.5001"/>
</g>
<!-- Node12 -->
<g id="node3" class="node"><title>Node12</title>
<g id="a_node3"><a xlink:href="$a00954.html#a9f9b575b1270719a1d7ae34f89ed2dc5" xlink:title="SetUpMesh">
<polygon fill="white" stroke="black" points="198.5,-0.5 198.5,-19.5 267.5,-19.5 267.5,-0.5 198.5,-0.5"/>
<text text-anchor="middle" x="233" y="-7.5" font-family="Helvetica,sans-Serif" font-size="10.00">SetUpMesh</text>
</a>
</g>
</g>
<!-- Node11&#45;&gt;Node12 -->
<g id="edge2" class="edge"><title>Node11&#45;&gt;Node12</title>
<path fill="none" stroke="midnightblue" d="M171.914,-10C180.808,-10 189.998,-10 198.436,-10"/>
<polygon fill="midnightblue" stroke="midnightblue" points="171.672,-6.5001 161.672,-10 171.672,-13.5001 171.672,-6.5001"/>
</g>
</g>
</svg>
