<?xml version="1.0" encoding="UTF-8" standalone="no"?>
<!DOCTYPE svg PUBLIC "-//W3C//DTD SVG 1.1//EN"
 "http://www.w3.org/Graphics/SVG/1.1/DTD/svg11.dtd">
<!-- Generated by graphviz version 2.36.0 (20140111.2315)
 -->
<!-- Title: main Pages: 1 -->
<svg width="1514pt" height="710pt"
 viewBox="0.00 0.00 1514.00 710.49" xmlns="http://www.w3.org/2000/svg" xmlns:xlink="http://www.w3.org/1999/xlink">
<g id="graph0" class="graph" transform="scale(1 1) rotate(0) translate(4 706.493)">
<title>main</title>
<polygon fill="white" stroke="none" points="-4,4 -4,-706.493 1510,-706.493 1510,4 -4,4"/>
<!-- Node0 -->
<g id="node1" class="node"><title>Node0</title>
<polygon fill="#bfbfbf" stroke="black" points="0,-209.5 0,-228.5 38,-228.5 38,-209.5 0,-209.5"/>
<text text-anchor="middle" x="19" y="-216.5" font-family="Helvetica,sans-Serif" font-size="10.00">main</text>
</g>
<!-- Node1 -->
<g id="node2" class="node"><title>Node1</title>
<g id="a_node2"><a xlink:href="a00146.html#aea2aa8c9b5bb7c64a3f316d7760f0341" target="_top" xlink:title="parse_cmdline">
<polygon fill="white" stroke="black" points="100,-493.5 100,-512.5 182,-512.5 182,-493.5 100,-493.5"/>
<text text-anchor="middle" x="141" y="-500.5" font-family="Helvetica,sans-Serif" font-size="10.00">parse_cmdline</text>
</a>
</g>
</g>
<!-- Node0&#45;&gt;Node1 -->
<g id="edge1" class="edge"><title>Node0&#45;&gt;Node1</title>
<path fill="none" stroke="midnightblue" d="M20.7598,-228.624C24.2802,-270.934 40.2853,-440.044 74,-479 78.5031,-484.203 84.2284,-488.278 90.4182,-491.47"/>
<polygon fill="midnightblue" stroke="midnightblue" points="89.1665,-494.743 99.7311,-495.544 91.9715,-488.33 89.1665,-494.743"/>
</g>
<!-- Node2 -->
<g id="node3" class="node"><title>Node2</title>
<g id="a_node3"><a xlink:href="a00861.html#a9add4a9694da47d84beb4a7638a7b673" target="_top" xlink:title="ReadGraph">
<polygon fill="white" stroke="black" points="456,-493.5 456,-512.5 524,-512.5 524,-493.5 456,-493.5"/>
<text text-anchor="middle" x="490" y="-500.5" font-family="Helvetica,sans-Serif" font-size="10.00">ReadGraph</text>
</a>
</g>
</g>
<!-- Node0&#45;&gt;Node2 -->
<g id="edge2" class="edge"><title>Node0&#45;&gt;Node2</title>
<path fill="none" stroke="midnightblue" d="M19.4331,-228.724C18.1808,-260.207 18.8856,-360.088 74,-408 178.311,-498.68 249.776,-410.743 382,-451 397.838,-455.822 435.8,-474.997 461.966,-488.657"/>
<polygon fill="midnightblue" stroke="midnightblue" points="460.529,-491.855 471.01,-493.404 463.782,-485.657 460.529,-491.855"/>
</g>
<!-- Node16 -->
<g id="node17" class="node"><title>Node16</title>
<g id="a_node17"><a xlink:href="a00077.html#ac8df62c4e3d0910711a9874f9cc58884" target="_top" xlink:title="gk_free">
<polygon fill="white" stroke="black" points="634,-341.5 634,-360.5 684,-360.5 684,-341.5 634,-341.5"/>
<text text-anchor="middle" x="659" y="-348.5" font-family="Helvetica,sans-Serif" font-size="10.00">gk_free</text>
</a>
</g>
</g>
<!-- Node0&#45;&gt;Node16 -->
<g id="edge75" class="edge"><title>Node0&#45;&gt;Node16</title>
<path fill="none" stroke="midnightblue" d="M31.8799,-228.665C42.4659,-236.951 58.6191,-248.812 74,-257 145.402,-295.012 165.16,-303.906 244,-322 381.935,-353.657 551.92,-353.808 623.575,-352.163"/>
<polygon fill="midnightblue" stroke="midnightblue" points="623.909,-355.656 633.816,-351.9 623.729,-348.658 623.909,-355.656"/>
</g>
<!-- Node17 -->
<g id="node18" class="node"><title>Node17</title>
<g id="a_node18"><a xlink:href="a00326.html#aef57dff33874ea99e9584665424dbf22" target="_top" xlink:title="NDPrintInfo">
<polygon fill="white" stroke="black" points="107,-114.5 107,-133.5 175,-133.5 175,-114.5 107,-114.5"/>
<text text-anchor="middle" x="141" y="-121.5" font-family="Helvetica,sans-Serif" font-size="10.00">NDPrintInfo</text>
</a>
</g>
</g>
<!-- Node0&#45;&gt;Node17 -->
<g id="edge21" class="edge"><title>Node0&#45;&gt;Node17</title>
<path fill="none" stroke="midnightblue" d="M24.9665,-209.32C33.1963,-194.182 51.0538,-164.895 74,-148 80.9862,-142.856 89.1878,-138.718 97.3894,-135.423"/>
<polygon fill="midnightblue" stroke="midnightblue" points="98.7521,-138.651 106.944,-131.933 96.3506,-132.076 98.7521,-138.651"/>
</g>
<!-- Node18 -->
<g id="node19" class="node"><title>Node18</title>
<g id="a_node19"><a xlink:href="a00170.html#abea67bb0c6286795ac5fc9bee605dc5d" target="_top" xlink:title="METIS_SetDefaultOptions">
<polygon fill="white" stroke="black" points="74,-76.5 74,-95.5 208,-95.5 208,-76.5 74,-76.5"/>
<text text-anchor="middle" x="141" y="-83.5" font-family="Helvetica,sans-Serif" font-size="10.00">METIS_SetDefaultOptions</text>
</a>
</g>
</g>
<!-- Node0&#45;&gt;Node18 -->
<g id="edge22" class="edge"><title>Node0&#45;&gt;Node18</title>
<path fill="none" stroke="midnightblue" d="M21.7617,-209.422C26.2975,-187.525 40.4567,-133.504 74,-105 75.9876,-103.311 78.1174,-101.772 80.3506,-100.369"/>
<polygon fill="midnightblue" stroke="midnightblue" points="82.1758,-103.364 89.3948,-95.6093 78.9155,-97.1697 82.1758,-103.364"/>
</g>
<!-- Node19 -->
<g id="node20" class="node"><title>Node19</title>
<g id="a_node20"><a xlink:href="a00077.html#a24633cc1c72a7e92836912c2adcf570a" target="_top" xlink:title="gk_malloc_init">
<polygon fill="white" stroke="black" points="273,-77.5 273,-96.5 353,-96.5 353,-77.5 273,-77.5"/>
<text text-anchor="middle" x="313" y="-84.5" font-family="Helvetica,sans-Serif" font-size="10.00">gk_malloc_init</text>
</a>
</g>
</g>
<!-- Node0&#45;&gt;Node19 -->
<g id="edge23" class="edge"><title>Node0&#45;&gt;Node19</title>
<path fill="none" stroke="midnightblue" d="M38.1525,-219.66C74.3454,-220.034 156.435,-216.047 208,-176 235.63,-154.542 216.888,-128.11 244,-106 249.489,-101.524 255.964,-98.1003 262.701,-95.4823"/>
<polygon fill="midnightblue" stroke="midnightblue" points="264.273,-98.6495 272.674,-92.1942 262.081,-92.0015 264.273,-98.6495"/>
</g>
<!-- Node20 -->
<g id="node21" class="node"><title>Node20</title>
<g id="a_node21"><a xlink:href="a00936.html#a8304f0dd6d180587f73b0b70de3b01b7" target="_top" xlink:title="METIS_NodeND">
<polygon fill="white" stroke="black" points="95.5,-228.5 95.5,-247.5 186.5,-247.5 186.5,-228.5 95.5,-228.5"/>
<text text-anchor="middle" x="141" y="-235.5" font-family="Helvetica,sans-Serif" font-size="10.00">METIS_NodeND</text>
</a>
</g>
</g>
<!-- Node0&#45;&gt;Node20 -->
<g id="edge24" class="edge"><title>Node0&#45;&gt;Node20</title>
<path fill="none" stroke="midnightblue" d="M38.2254,-221.886C50.8863,-223.89 68.4737,-226.675 85.4707,-229.366"/>
<polygon fill="midnightblue" stroke="midnightblue" points="84.9441,-232.826 95.3684,-230.933 86.0388,-225.912 84.9441,-232.826"/>
</g>
<!-- Node43 -->
<g id="node44" class="node"><title>Node43</title>
<g id="a_node44"><a xlink:href="a00077.html#a47156a22528b5bc8c7c6e9849af34e62" target="_top" xlink:title="gk_malloc_cleanup">
<polygon fill="white" stroke="black" points="262,-39.5 262,-58.5 364,-58.5 364,-39.5 262,-39.5"/>
<text text-anchor="middle" x="313" y="-46.5" font-family="Helvetica,sans-Serif" font-size="10.00">gk_malloc_cleanup</text>
</a>
</g>
</g>
<!-- Node0&#45;&gt;Node43 -->
<g id="edge63" class="edge"><title>Node0&#45;&gt;Node43</title>
<path fill="none" stroke="midnightblue" d="M29.4482,-209.33C39.5811,-199.51 56.5777,-184.566 74,-176 129.042,-148.937 160.399,-181.68 208,-143 236.695,-119.683 215.67,-91.7593 244,-68 246.712,-65.7256 249.677,-63.7226 252.804,-61.9586"/>
<polygon fill="midnightblue" stroke="midnightblue" points="254.445,-65.0537 261.969,-57.5936 251.435,-58.7339 254.445,-65.0537"/>
</g>
<!-- Node44 -->
<g id="node45" class="node"><title>Node44</title>
<g id="a_node45"><a xlink:href="a00077.html#ad2327b94227019b6753b6b09400c0522" target="_top" xlink:title="gk_GetCurMemoryUsed">
<polygon fill="white" stroke="black" points="79,-38.5 79,-57.5 203,-57.5 203,-38.5 79,-38.5"/>
<text text-anchor="middle" x="141" y="-45.5" font-family="Helvetica,sans-Serif" font-size="10.00">gk_GetCurMemoryUsed</text>
</a>
</g>
</g>
<!-- Node0&#45;&gt;Node44 -->
<g id="edge61" class="edge"><title>Node0&#45;&gt;Node44</title>
<path fill="none" stroke="midnightblue" d="M20.5087,-209.182C22.4415,-182.311 31.5731,-106.912 74,-67 75.6582,-65.44 77.4363,-64.0071 79.307,-62.6908"/>
<polygon fill="midnightblue" stroke="midnightblue" points="81.1261,-65.6819 88.0189,-57.6357 77.6129,-59.6273 81.1261,-65.6819"/>
</g>
<!-- Node45 -->
<g id="node46" class="node"><title>Node45</title>
<g id="a_node46"><a xlink:href="a00077.html#a656fd5266ae12a96e53125486f8fea52" target="_top" xlink:title="gk_GetMaxMemoryUsed">
<polygon fill="white" stroke="black" points="77.5,-0.5 77.5,-19.5 204.5,-19.5 204.5,-0.5 77.5,-0.5"/>
<text text-anchor="middle" x="141" y="-7.5" font-family="Helvetica,sans-Serif" font-size="10.00">gk_GetMaxMemoryUsed</text>
</a>
</g>
</g>
<!-- Node0&#45;&gt;Node45 -->
<g id="edge62" class="edge"><title>Node0&#45;&gt;Node45</title>
<path fill="none" stroke="midnightblue" d="M19.6946,-209.098C19.2956,-177.913 22.4385,-80.7367 74,-29 75.4519,-27.5431 77.0079,-26.1963 78.6472,-24.9514"/>
<polygon fill="midnightblue" stroke="midnightblue" points="80.7618,-27.7597 87.4433,-19.5373 77.0926,-21.7984 80.7618,-27.7597"/>
</g>
<!-- Node46 -->
<g id="node47" class="node"><title>Node46</title>
<g id="a_node47"><a xlink:href="a00861.html#a902cc00039a655f4b6ec0292e0410ef2" target="_top" xlink:title="WritePermutation">
<polygon fill="white" stroke="black" points="443,-607.5 443,-626.5 537,-626.5 537,-607.5 443,-607.5"/>
<text text-anchor="middle" x="490" y="-614.5" font-family="Helvetica,sans-Serif" font-size="10.00">WritePermutation</text>
</a>
</g>
</g>
<!-- Node0&#45;&gt;Node46 -->
<g id="edge64" class="edge"><title>Node0&#45;&gt;Node46</title>
<path fill="none" stroke="midnightblue" d="M21.0531,-228.611C25.4714,-267.262 43.7011,-410.815 74,-443 116.69,-488.348 149.922,-461.507 208,-484 303.785,-521.096 412.452,-576.54 461.911,-602.551"/>
<polygon fill="midnightblue" stroke="midnightblue" points="460.515,-605.772 470.992,-607.347 463.784,-599.582 460.515,-605.772"/>
</g>
<!-- Node47 -->
<g id="node48" class="node"><title>Node47</title>
<g id="a_node48"><a xlink:href="a00326.html#ae474b9ac69c59e61afcdd45e4c2913f0" target="_top" xlink:title="NDReportResults">
<polygon fill="white" stroke="black" points="94,-379.5 94,-398.5 188,-398.5 188,-379.5 94,-379.5"/>
<text text-anchor="middle" x="141" y="-386.5" font-family="Helvetica,sans-Serif" font-size="10.00">NDReportResults</text>
</a>
</g>
</g>
<!-- Node0&#45;&gt;Node47 -->
<g id="edge69" class="edge"><title>Node0&#45;&gt;Node47</title>
<path fill="none" stroke="midnightblue" d="M20.8181,-228.663C23.509,-254.44 34.3342,-325.551 74,-365 77.9443,-368.923 82.579,-372.209 87.5328,-374.962"/>
<polygon fill="midnightblue" stroke="midnightblue" points="86.1835,-378.197 96.714,-379.363 89.2092,-371.885 86.1835,-378.197"/>
</g>
<!-- Node3 -->
<g id="node4" class="node"><title>Node3</title>
<g id="a_node4"><a xlink:href="a00035.html#a627221a374552b5b6659d855b7446187" target="_top" xlink:title="gk_fexists">
<polygon fill="white" stroke="black" points="628.5,-493.5 628.5,-512.5 689.5,-512.5 689.5,-493.5 628.5,-493.5"/>
<text text-anchor="middle" x="659" y="-500.5" font-family="Helvetica,sans-Serif" font-size="10.00">gk_fexists</text>
</a>
</g>
</g>
<!-- Node2&#45;&gt;Node3 -->
<g id="edge3" class="edge"><title>Node2&#45;&gt;Node3</title>
<path fill="none" stroke="midnightblue" d="M524.394,-503C551.437,-503 589.607,-503 618.228,-503"/>
<polygon fill="midnightblue" stroke="midnightblue" points="618.302,-506.5 628.302,-503 618.302,-499.5 618.302,-506.5"/>
</g>
<!-- Node4 -->
<g id="node5" class="node"><title>Node4</title>
<g id="a_node5"><a xlink:href="a00026.html#a56d0f2cc40cd8633a784582d6200d8b5" target="_top" xlink:title="errexit">
<polygon fill="white" stroke="black" points="795,-455.5 795,-474.5 839,-474.5 839,-455.5 795,-455.5"/>
<text text-anchor="middle" x="817" y="-462.5" font-family="Helvetica,sans-Serif" font-size="10.00">errexit</text>
</a>
</g>
</g>
<!-- Node2&#45;&gt;Node4 -->
<g id="edge4" class="edge"><title>Node2&#45;&gt;Node4</title>
<path fill="none" stroke="midnightblue" d="M524.138,-496.332C545.214,-492.286 573.123,-487.286 598,-484 664.177,-475.258 742.207,-469.566 784.645,-466.855"/>
<polygon fill="midnightblue" stroke="midnightblue" points="785.125,-470.332 794.888,-466.215 784.689,-463.346 785.125,-470.332"/>
</g>
<!-- Node6 -->
<g id="node7" class="node"><title>Node6</title>
<g id="a_node7"><a xlink:href="a00858.html#abff04948821f625a3e59666e61c70e2f" target="_top" xlink:title="gk_fopen">
<polygon fill="white" stroke="black" points="630,-531.5 630,-550.5 688,-550.5 688,-531.5 630,-531.5"/>
<text text-anchor="middle" x="659" y="-538.5" font-family="Helvetica,sans-Serif" font-size="10.00">gk_fopen</text>
</a>
</g>
</g>
<!-- Node2&#45;&gt;Node6 -->
<g id="edge6" class="edge"><title>Node2&#45;&gt;Node6</title>
<path fill="none" stroke="midnightblue" d="M524.394,-510.599C551.945,-516.868 591.046,-525.765 619.833,-532.315"/>
<polygon fill="midnightblue" stroke="midnightblue" points="619.404,-535.807 629.931,-534.613 620.957,-528.981 619.404,-535.807"/>
</g>
<!-- Node7 -->
<g id="node8" class="node"><title>Node7</title>
<g id="a_node8"><a xlink:href="a00575.html#ae6aab5c308faac0fc539cc9c6da9fbd0" target="_top" xlink:title="sprintf">
<polygon fill="white" stroke="black" points="795,-569.5 795,-588.5 839,-588.5 839,-569.5 795,-569.5"/>
<text text-anchor="middle" x="817" y="-576.5" font-family="Helvetica,sans-Serif" font-size="10.00">sprintf</text>
</a>
</g>
</g>
<!-- Node2&#45;&gt;Node7 -->
<g id="edge17" class="edge"><title>Node2&#45;&gt;Node7</title>
<path fill="none" stroke="midnightblue" d="M504.743,-512.684C524.381,-525.954 562.08,-549.351 598,-560 662.302,-579.063 741.589,-580.87 784.615,-580.155"/>
<polygon fill="midnightblue" stroke="midnightblue" points="784.822,-583.651 794.741,-579.927 784.665,-576.653 784.822,-583.651"/>
</g>
<!-- Node8 -->
<g id="node9" class="node"><title>Node8</title>
<g id="a_node9"><a xlink:href="a00858.html#ad8263f64108434d7ebab9799b5ab9632" target="_top" xlink:title="gk_getline">
<polygon fill="white" stroke="black" points="628,-379.5 628,-398.5 690,-398.5 690,-379.5 628,-379.5"/>
<text text-anchor="middle" x="659" y="-386.5" font-family="Helvetica,sans-Serif" font-size="10.00">gk_getline</text>
</a>
</g>
</g>
<!-- Node2&#45;&gt;Node8 -->
<g id="edge9" class="edge"><title>Node2&#45;&gt;Node8</title>
<path fill="none" stroke="midnightblue" d="M504.951,-493.477C533.736,-473.827 599.95,-428.627 635.104,-404.63"/>
<polygon fill="midnightblue" stroke="midnightblue" points="637.449,-407.267 643.735,-398.738 633.502,-401.485 637.449,-407.267"/>
</g>
<!-- Node14 -->
<g id="node15" class="node"><title>Node14</title>
<g id="a_node15"><a xlink:href="a00858.html#a70dec19fefaf0c84f3948b4679a73fec" target="_top" xlink:title="gk_fclose">
<polygon fill="white" stroke="black" points="629.5,-645.5 629.5,-664.5 688.5,-664.5 688.5,-645.5 629.5,-645.5"/>
<text text-anchor="middle" x="659" y="-652.5" font-family="Helvetica,sans-Serif" font-size="10.00">gk_fclose</text>
</a>
</g>
</g>
<!-- Node2&#45;&gt;Node14 -->
<g id="edge18" class="edge"><title>Node2&#45;&gt;Node14</title>
<path fill="none" stroke="midnightblue" d="M501.447,-512.508C529.212,-537.779 605.095,-606.847 639.999,-638.616"/>
<polygon fill="midnightblue" stroke="midnightblue" points="637.806,-641.353 647.557,-645.495 642.518,-636.176 637.806,-641.353"/>
</g>
<!-- Node2&#45;&gt;Node16 -->
<g id="edge20" class="edge"><title>Node2&#45;&gt;Node16</title>
<path fill="none" stroke="midnightblue" d="M506.853,-493.339C522.511,-483.153 546.327,-465.85 562,-446 585.162,-416.666 569.84,-394.576 598,-370 605.315,-363.616 614.781,-359.374 624.023,-356.557"/>
<polygon fill="midnightblue" stroke="midnightblue" points="625.041,-359.91 633.852,-354.026 623.295,-353.131 625.041,-359.91"/>
</g>
<!-- Node5 -->
<g id="node6" class="node"><title>Node5</title>
<g id="a_node6"><a xlink:href="a01017.html#a2e311a777ffe9c80e405efa7cd2757be" target="_top" xlink:title="fprintf">
<polygon fill="white" stroke="black" points="1111,-436.5 1111,-455.5 1153,-455.5 1153,-436.5 1111,-436.5"/>
<text text-anchor="middle" x="1132" y="-443.5" font-family="Helvetica,sans-Serif" font-size="10.00">fprintf</text>
</a>
</g>
</g>
<!-- Node4&#45;&gt;Node5 -->
<g id="edge5" class="edge"><title>Node4&#45;&gt;Node5</title>
<path fill="none" stroke="midnightblue" d="M839.023,-463.724C893.184,-460.436 1037.65,-451.667 1100.78,-447.835"/>
<polygon fill="midnightblue" stroke="midnightblue" points="1101.11,-451.321 1110.88,-447.221 1100.69,-444.334 1101.11,-451.321"/>
</g>
<!-- Node6&#45;&gt;Node4 -->
<g id="edge8" class="edge"><title>Node6&#45;&gt;Node4</title>
<path fill="none" stroke="midnightblue" d="M688.276,-533.501C698.465,-530.422 709.929,-526.512 720,-522 746.45,-510.149 774.754,-492.695 793.722,-480.227"/>
<polygon fill="midnightblue" stroke="midnightblue" points="795.855,-483.012 802.235,-474.553 791.972,-477.187 795.855,-483.012"/>
</g>
<!-- Node6&#45;&gt;Node7 -->
<g id="edge7" class="edge"><title>Node6&#45;&gt;Node7</title>
<path fill="none" stroke="midnightblue" d="M688.25,-547.882C715.62,-554.548 757.016,-564.632 785.214,-571.501"/>
<polygon fill="midnightblue" stroke="midnightblue" points="784.411,-574.907 794.955,-573.874 786.067,-568.106 784.411,-574.907"/>
</g>
<!-- Node9 -->
<g id="node10" class="node"><title>Node9</title>
<g id="a_node10"><a xlink:href="a00077.html#aba6f76f5c67b9b7e9c2e45988d3d3e9d" target="_top" xlink:title="gk_malloc">
<polygon fill="white" stroke="black" points="786,-341.5 786,-360.5 848,-360.5 848,-341.5 786,-341.5"/>
<text text-anchor="middle" x="817" y="-348.5" font-family="Helvetica,sans-Serif" font-size="10.00">gk_malloc</text>
</a>
</g>
</g>
<!-- Node8&#45;&gt;Node9 -->
<g id="edge10" class="edge"><title>Node8&#45;&gt;Node9</title>
<path fill="none" stroke="midnightblue" d="M690.078,-381.673C714.495,-375.726 749.139,-367.287 775.911,-360.765"/>
<polygon fill="midnightblue" stroke="midnightblue" points="776.861,-364.136 785.748,-358.369 775.204,-357.335 776.861,-364.136"/>
</g>
<!-- Node13 -->
<g id="node14" class="node"><title>Node13</title>
<g id="a_node14"><a xlink:href="a00077.html#ab76a07ccd25288dd9acc99f5f24a7600" target="_top" xlink:title="gk_realloc">
<polygon fill="white" stroke="black" points="786,-379.5 786,-398.5 848,-398.5 848,-379.5 786,-379.5"/>
<text text-anchor="middle" x="817" y="-386.5" font-family="Helvetica,sans-Serif" font-size="10.00">gk_realloc</text>
</a>
</g>
</g>
<!-- Node8&#45;&gt;Node13 -->
<g id="edge16" class="edge"><title>Node8&#45;&gt;Node13</title>
<path fill="none" stroke="midnightblue" d="M690.078,-389C714.387,-389 748.834,-389 775.557,-389"/>
<polygon fill="midnightblue" stroke="midnightblue" points="775.748,-392.5 785.748,-389 775.748,-385.5 775.748,-392.5"/>
</g>
<!-- Node9&#45;&gt;Node5 -->
<g id="edge11" class="edge"><title>Node9&#45;&gt;Node5</title>
<path fill="none" stroke="midnightblue" d="M848.29,-357.373C858.228,-360.284 869.018,-364.374 878,-370 897.717,-382.349 893.505,-396.992 914,-408 974.544,-440.518 1057,-446.109 1100.79,-446.552"/>
<polygon fill="midnightblue" stroke="midnightblue" points="1100.79,-450.052 1110.79,-446.569 1100.8,-443.052 1100.79,-450.052"/>
</g>
<!-- Node10 -->
<g id="node11" class="node"><title>Node10</title>
<g id="a_node11"><a xlink:href="a00110.html#ad2327b94227019b6753b6b09400c0522" target="_top" xlink:title="gk_GetCurMemoryUsed">
<polygon fill="white" stroke="black" points="916,-341.5 916,-360.5 1040,-360.5 1040,-341.5 916,-341.5"/>
<text text-anchor="middle" x="978" y="-348.5" font-family="Helvetica,sans-Serif" font-size="10.00">gk_GetCurMemoryUsed</text>
</a>
</g>
</g>
<!-- Node9&#45;&gt;Node10 -->
<g id="edge12" class="edge"><title>Node9&#45;&gt;Node10</title>
<path fill="none" stroke="midnightblue" d="M848.281,-351C864.622,-351 885.537,-351 905.735,-351"/>
<polygon fill="midnightblue" stroke="midnightblue" points="905.885,-354.5 915.885,-351 905.885,-347.5 905.885,-354.5"/>
</g>
<!-- Node11 -->
<g id="node12" class="node"><title>Node11</title>
<g id="a_node12"><a xlink:href="a00110.html#a656fd5266ae12a96e53125486f8fea52" target="_top" xlink:title="gk_GetMaxMemoryUsed">
<polygon fill="white" stroke="black" points="914.5,-379.5 914.5,-398.5 1041.5,-398.5 1041.5,-379.5 914.5,-379.5"/>
<text text-anchor="middle" x="978" y="-386.5" font-family="Helvetica,sans-Serif" font-size="10.00">gk_GetMaxMemoryUsed</text>
</a>
</g>
</g>
<!-- Node9&#45;&gt;Node11 -->
<g id="edge13" class="edge"><title>Node9&#45;&gt;Node11</title>
<path fill="none" stroke="midnightblue" d="M848.281,-358.237C870.553,-363.56 901.322,-370.913 927.192,-377.096"/>
<polygon fill="midnightblue" stroke="midnightblue" points="926.665,-380.569 937.205,-379.489 928.292,-373.76 926.665,-380.569"/>
</g>
<!-- Node12 -->
<g id="node13" class="node"><title>Node12</title>
<g id="a_node13"><a xlink:href="a00026.html#a4c320c13bcdc9967613253ef4c73f59f" target="_top" xlink:title="gk_errexit">
<polygon fill="white" stroke="black" points="948,-303.5 948,-322.5 1008,-322.5 1008,-303.5 948,-303.5"/>
<text text-anchor="middle" x="978" y="-310.5" font-family="Helvetica,sans-Serif" font-size="10.00">gk_errexit</text>
</a>
</g>
</g>
<!-- Node9&#45;&gt;Node12 -->
<g id="edge14" class="edge"><title>Node9&#45;&gt;Node12</title>
<path fill="none" stroke="midnightblue" d="M848.281,-343.763C873.8,-337.664 910.473,-328.9 938.152,-322.285"/>
<polygon fill="midnightblue" stroke="midnightblue" points="938.992,-325.682 947.905,-319.954 937.365,-318.874 938.992,-325.682"/>
</g>
<!-- Node12&#45;&gt;Node5 -->
<g id="edge15" class="edge"><title>Node12&#45;&gt;Node5</title>
<path fill="none" stroke="midnightblue" d="M1008.25,-317.878C1019.49,-320.725 1032.01,-325.158 1042,-332 1078.76,-357.173 1107.32,-402.22 1121.39,-427.496"/>
<polygon fill="midnightblue" stroke="midnightblue" points="1118.38,-429.287 1126.21,-436.424 1124.54,-425.961 1118.38,-429.287"/>
</g>
<!-- Node15 -->
<g id="node16" class="node"><title>Node15</title>
<g id="a_node16"><a xlink:href="a01017.html#a355ed4cdac2a27aa04a6689ac2d7e86e" target="_top" xlink:title="fclose">
<polygon fill="white" stroke="black" points="795.5,-645.5 795.5,-664.5 838.5,-664.5 838.5,-645.5 795.5,-645.5"/>
<text text-anchor="middle" x="817" y="-652.5" font-family="Helvetica,sans-Serif" font-size="10.00">fclose</text>
</a>
</g>
</g>
<!-- Node14&#45;&gt;Node15 -->
<g id="edge19" class="edge"><title>Node14&#45;&gt;Node15</title>
<path fill="none" stroke="midnightblue" d="M688.613,-655C715.912,-655 756.921,-655 784.989,-655"/>
<polygon fill="midnightblue" stroke="midnightblue" points="785.057,-658.5 795.057,-655 785.057,-651.5 785.057,-658.5"/>
</g>
<!-- Node20&#45;&gt;Node16 -->
<g id="edge28" class="edge"><title>Node20&#45;&gt;Node16</title>
<path fill="none" stroke="midnightblue" d="M155.443,-247.511C174.279,-260.324 210.039,-282.812 244,-294 379.458,-338.626 420.768,-317.154 562,-337 582.592,-339.894 605.649,-343.252 624.005,-345.954"/>
<polygon fill="midnightblue" stroke="midnightblue" points="623.54,-349.424 633.944,-347.421 624.562,-342.499 623.54,-349.424"/>
</g>
<!-- Node20&#45;&gt;Node19 -->
<g id="edge25" class="edge"><title>Node20&#45;&gt;Node19</title>
<path fill="none" stroke="midnightblue" d="M185.785,-228.377C193.978,-224.941 201.877,-220.291 208,-214 243.29,-177.743 207.352,-140.885 244,-106 249.371,-100.887 256.002,-97.1295 262.996,-94.3724"/>
<polygon fill="midnightblue" stroke="midnightblue" points="264.263,-97.6403 272.676,-91.1994 262.083,-90.9886 264.263,-97.6403"/>
</g>
<!-- Node21 -->
<g id="node22" class="node"><title>Node21</title>
<g id="a_node22"><a xlink:href="a00026.html#a05869524d1c30cfaab2a8690e7da6fd4" target="_top" xlink:title="gk_sigtrap">
<polygon fill="white" stroke="black" points="281.5,-209.5 281.5,-228.5 344.5,-228.5 344.5,-209.5 281.5,-209.5"/>
<text text-anchor="middle" x="313" y="-216.5" font-family="Helvetica,sans-Serif" font-size="10.00">gk_sigtrap</text>
</a>
</g>
</g>
<!-- Node20&#45;&gt;Node21 -->
<g id="edge26" class="edge"><title>Node20&#45;&gt;Node21</title>
<path fill="none" stroke="midnightblue" d="M186.665,-233.008C212.864,-230.08 245.717,-226.408 271.214,-223.558"/>
<polygon fill="midnightblue" stroke="midnightblue" points="271.748,-227.021 281.297,-222.431 270.97,-220.064 271.748,-227.021"/>
</g>
<!-- Node22 -->
<g id="node23" class="node"><title>Node22</title>
<g id="a_node23"><a xlink:href="a00026.html#a08f287b6dbdc0779c916ecbd49540a1e" target="_top" xlink:title="gk_siguntrap">
<polygon fill="white" stroke="black" points="276,-171.5 276,-190.5 350,-190.5 350,-171.5 276,-171.5"/>
<text text-anchor="middle" x="313" y="-178.5" font-family="Helvetica,sans-Serif" font-size="10.00">gk_siguntrap</text>
</a>
</g>
</g>
<!-- Node20&#45;&gt;Node22 -->
<g id="edge27" class="edge"><title>Node20&#45;&gt;Node22</title>
<path fill="none" stroke="midnightblue" d="M168.703,-228.441C180.734,-224.096 195.105,-218.851 208,-214 224.068,-207.955 227.713,-205.428 244,-200 251.115,-197.629 258.714,-195.306 266.159,-193.143"/>
<polygon fill="midnightblue" stroke="midnightblue" points="267.141,-196.503 275.803,-190.402 265.227,-189.769 267.141,-196.503"/>
</g>
<!-- Node23 -->
<g id="node24" class="node"><title>Node23</title>
<g id="a_node24"><a xlink:href="a00936.html#a3ef15d1ffff55a81b8486bee09239073" target="_top" xlink:title="MlevelNestedDissectionCC">
<polygon fill="white" stroke="black" points="244,-247.5 244,-266.5 382,-266.5 382,-247.5 244,-247.5"/>
<text text-anchor="middle" x="313" y="-254.5" font-family="Helvetica,sans-Serif" font-size="10.00">MlevelNestedDissectionCC</text>
</a>
</g>
</g>
<!-- Node20&#45;&gt;Node23 -->
<g id="edge29" class="edge"><title>Node20&#45;&gt;Node23</title>
<path fill="none" stroke="midnightblue" d="M186.665,-242.992C201.167,-244.613 217.707,-246.461 233.91,-248.272"/>
<polygon fill="midnightblue" stroke="midnightblue" points="233.606,-251.76 243.933,-249.393 234.384,-244.803 233.606,-251.76"/>
</g>
<!-- Node41 -->
<g id="node42" class="node"><title>Node41</title>
<g id="a_node42"><a xlink:href="a00936.html#af853e9d8bbb2188f871fac436e631ed1" target="_top" xlink:title="MlevelNestedDissection">
<polygon fill="white" stroke="black" points="251.5,-115.5 251.5,-134.5 374.5,-134.5 374.5,-115.5 251.5,-115.5"/>
<text text-anchor="middle" x="313" y="-122.5" font-family="Helvetica,sans-Serif" font-size="10.00">MlevelNestedDissection</text>
</a>
</g>
</g>
<!-- Node20&#45;&gt;Node41 -->
<g id="edge55" class="edge"><title>Node20&#45;&gt;Node41</title>
<path fill="none" stroke="midnightblue" d="M180.707,-228.4C190.232,-224.876 199.987,-220.181 208,-214 230.257,-196.832 223.087,-180.782 244,-162 254.257,-152.788 267.212,-145.018 279.056,-139.013"/>
<polygon fill="midnightblue" stroke="midnightblue" points="280.757,-142.078 288.244,-134.582 277.716,-135.773 280.757,-142.078"/>
</g>
<!-- Node20&#45;&gt;Node43 -->
<g id="edge60" class="edge"><title>Node20&#45;&gt;Node43</title>
<path fill="none" stroke="midnightblue" d="M155.79,-228.35C170.643,-217.29 194.02,-197.85 208,-176 235.269,-133.381 207.352,-102.885 244,-68 246.609,-65.5161 249.516,-63.3521 252.617,-61.4673"/>
<polygon fill="midnightblue" stroke="midnightblue" points="254.422,-64.4776 261.786,-56.861 251.279,-58.2226 254.422,-64.4776"/>
</g>
<!-- Node23&#45;&gt;Node16 -->
<g id="edge54" class="edge"><title>Node23&#45;&gt;Node16</title>
<path fill="none" stroke="midnightblue" d="M382.062,-262.454C432.748,-267.959 503.069,-278.677 562,-299 588.487,-308.134 616.391,-324.056 635.247,-335.882"/>
<polygon fill="midnightblue" stroke="midnightblue" points="633.421,-338.869 643.73,-341.311 637.194,-332.973 633.421,-338.869"/>
</g>
<!-- Node23&#45;&gt;Node23 -->
<g id="edge52" class="edge"><title>Node23&#45;&gt;Node23</title>
<path fill="none" stroke="midnightblue" d="M286.49,-266.757C273.593,-275.565 282.43,-285 313,-285 333.539,-285 344.268,-280.741 345.186,-275.275"/>
<polygon fill="midnightblue" stroke="midnightblue" points="347.968,-273.138 339.51,-266.757 342.143,-277.02 347.968,-273.138"/>
</g>
<!-- Node24 -->
<g id="node25" class="node"><title>Node24</title>
<g id="a_node25"><a xlink:href="a00936.html#a59c8030c5429e219a8535c2a11cef724" target="_top" xlink:title="MlevelNodeBisectionMultiple">
<polygon fill="white" stroke="black" points="418,-151.5 418,-170.5 562,-170.5 562,-151.5 418,-151.5"/>
<text text-anchor="middle" x="490" y="-158.5" font-family="Helvetica,sans-Serif" font-size="10.00">MlevelNodeBisectionMultiple</text>
</a>
</g>
</g>
<!-- Node23&#45;&gt;Node24 -->
<g id="edge30" class="edge"><title>Node23&#45;&gt;Node24</title>
<path fill="none" stroke="midnightblue" d="M364.662,-247.463C370.845,-244.999 376.804,-241.9 382,-238 406.265,-219.787 393.636,-198.08 418,-180 420.531,-178.122 423.235,-176.429 426.055,-174.903"/>
<polygon fill="midnightblue" stroke="midnightblue" points="427.784,-177.96 435.384,-170.578 424.84,-171.609 427.784,-177.96"/>
</g>
<!-- Node39 -->
<g id="node40" class="node"><title>Node39</title>
<g id="a_node40"><a xlink:href="a00936.html#a52a083cfb474124f22728e79cfba695f" target="_top" xlink:title="SplitGraphOrderCC">
<polygon fill="white" stroke="black" points="438,-227.5 438,-246.5 542,-246.5 542,-227.5 438,-227.5"/>
<text text-anchor="middle" x="490" y="-234.5" font-family="Helvetica,sans-Serif" font-size="10.00">SplitGraphOrderCC</text>
</a>
</g>
</g>
<!-- Node23&#45;&gt;Node39 -->
<g id="edge50" class="edge"><title>Node23&#45;&gt;Node39</title>
<path fill="none" stroke="midnightblue" d="M382.161,-249.21C397.21,-247.49 413.063,-245.679 427.815,-243.993"/>
<polygon fill="midnightblue" stroke="midnightblue" points="428.292,-247.461 437.83,-242.848 427.497,-240.506 428.292,-247.461"/>
</g>
<!-- Node40 -->
<g id="node41" class="node"><title>Node40</title>
<g id="a_node41"><a xlink:href="a00936.html#acafb70c0e49cde8105dc62f6c34dfa6c" target="_top" xlink:title="MMDOrder">
<polygon fill="white" stroke="black" points="457,-189.5 457,-208.5 523,-208.5 523,-189.5 457,-189.5"/>
<text text-anchor="middle" x="490" y="-196.5" font-family="Helvetica,sans-Serif" font-size="10.00">MMDOrder</text>
</a>
</g>
</g>
<!-- Node23&#45;&gt;Node40 -->
<g id="edge53" class="edge"><title>Node23&#45;&gt;Node40</title>
<path fill="none" stroke="midnightblue" d="M354.082,-247.486C363.389,-244.816 373.156,-241.633 382,-238 398.93,-231.045 401.032,-224.862 418,-218 427.219,-214.272 437.404,-211.053 447.114,-208.379"/>
<polygon fill="midnightblue" stroke="midnightblue" points="448.212,-211.709 456.999,-205.79 446.438,-204.937 448.212,-211.709"/>
</g>
<!-- Node25 -->
<g id="node26" class="node"><title>Node25</title>
<g id="a_node26"><a xlink:href="a00936.html#ac3a0eaeefa34a3865a0be5bb70bd958f" target="_top" xlink:title="MlevelNodeBisectionL2">
<polygon fill="white" stroke="black" points="598.5,-156.5 598.5,-175.5 719.5,-175.5 719.5,-156.5 598.5,-156.5"/>
<text text-anchor="middle" x="659" y="-163.5" font-family="Helvetica,sans-Serif" font-size="10.00">MlevelNodeBisectionL2</text>
</a>
</g>
</g>
<!-- Node24&#45;&gt;Node25 -->
<g id="edge31" class="edge"><title>Node24&#45;&gt;Node25</title>
<path fill="none" stroke="midnightblue" d="M562.307,-163.135C570.973,-163.394 579.818,-163.659 588.458,-163.918"/>
<polygon fill="midnightblue" stroke="midnightblue" points="588.382,-167.417 598.483,-164.218 588.592,-160.42 588.382,-167.417"/>
</g>
<!-- Node26 -->
<g id="node27" class="node"><title>Node26</title>
<g id="a_node27"><a xlink:href="a00936.html#aeeaa7f4ed9878ae2f7faff0e2402fd87" target="_top" xlink:title="MlevelNodeBisectionL1">
<polygon fill="white" stroke="black" points="756.5,-156.5 756.5,-175.5 877.5,-175.5 877.5,-156.5 756.5,-156.5"/>
<text text-anchor="middle" x="817" y="-163.5" font-family="Helvetica,sans-Serif" font-size="10.00">MlevelNodeBisectionL1</text>
</a>
</g>
</g>
<!-- Node25&#45;&gt;Node26 -->
<g id="edge32" class="edge"><title>Node25&#45;&gt;Node26</title>
<path fill="none" stroke="midnightblue" d="M719.868,-166C728.452,-166 737.346,-166 746.103,-166"/>
<polygon fill="midnightblue" stroke="midnightblue" points="746.293,-169.5 756.293,-166 746.293,-162.5 746.293,-169.5"/>
</g>
<!-- Node27 -->
<g id="node28" class="node"><title>Node27</title>
<g id="a_node28"><a xlink:href="a00182.html#afa83320e3b311e0feef90d0bf4303716" target="_top" xlink:title="CoarsenGraphNlevels">
<polygon fill="white" stroke="black" points="759.5,-213.5 759.5,-232.5 874.5,-232.5 874.5,-213.5 759.5,-213.5"/>
<text text-anchor="middle" x="817" y="-220.5" font-family="Helvetica,sans-Serif" font-size="10.00">CoarsenGraphNlevels</text>
</a>
</g>
</g>
<!-- Node25&#45;&gt;Node27 -->
<g id="edge33" class="edge"><title>Node25&#45;&gt;Node27</title>
<path fill="none" stroke="midnightblue" d="M686.111,-175.541C711.87,-184.953 751.448,-199.414 780.147,-209.9"/>
<polygon fill="midnightblue" stroke="midnightblue" points="779.21,-213.284 789.804,-213.428 781.612,-206.709 779.21,-213.284"/>
</g>
<!-- Node27&#45;&gt;Node12 -->
<g id="edge49" class="edge"><title>Node27&#45;&gt;Node12</title>
<path fill="none" stroke="midnightblue" d="M831.267,-232.513C849.429,-245.312 883.286,-268.387 914,-285 923.475,-290.125 934.074,-295.107 943.837,-299.414"/>
<polygon fill="midnightblue" stroke="midnightblue" points="942.679,-302.726 953.247,-303.475 945.452,-296.299 942.679,-302.726"/>
</g>
<!-- Node28 -->
<g id="node29" class="node"><title>Node28</title>
<g id="a_node29"><a xlink:href="a00623.html#ad1e7380d51df1e0043d24d3c8a860e0a" target="_top" xlink:title="for">
<polygon fill="white" stroke="black" points="963.5,-180.5 963.5,-199.5 992.5,-199.5 992.5,-180.5 963.5,-180.5"/>
<text text-anchor="middle" x="978" y="-187.5" font-family="Helvetica,sans-Serif" font-size="10.00">for</text>
</a>
</g>
</g>
<!-- Node27&#45;&gt;Node28 -->
<g id="edge34" class="edge"><title>Node27&#45;&gt;Node28</title>
<path fill="none" stroke="midnightblue" d="M863.989,-213.455C893.127,-207.408 929.614,-199.835 953.113,-194.958"/>
<polygon fill="midnightblue" stroke="midnightblue" points="954.14,-198.319 963.22,-192.86 952.717,-191.465 954.14,-198.319"/>
</g>
<!-- Node29 -->
<g id="node30" class="node"><title>Node29</title>
<g id="a_node30"><a xlink:href="a00182.html#aac3e480e7e3bd02bfdf001d858a93562" target="_top" xlink:title="PrintCGraphStats">
<polygon fill="white" stroke="black" points="930.5,-142.5 930.5,-161.5 1025.5,-161.5 1025.5,-142.5 930.5,-142.5"/>
<text text-anchor="middle" x="978" y="-149.5" font-family="Helvetica,sans-Serif" font-size="10.00">PrintCGraphStats</text>
</a>
</g>
</g>
<!-- Node27&#45;&gt;Node29 -->
<g id="edge35" class="edge"><title>Node27&#45;&gt;Node29</title>
<path fill="none" stroke="midnightblue" d="M833.481,-213.333C852.064,-202.034 884.429,-183.317 914,-171 919.472,-168.721 925.315,-166.585 931.152,-164.628"/>
<polygon fill="midnightblue" stroke="midnightblue" points="932.446,-167.889 940.905,-161.509 930.314,-161.221 932.446,-167.889"/>
</g>
<!-- Node30 -->
<g id="node31" class="node"><title>Node30</title>
<g id="a_node31"><a xlink:href="a00182.html#a892d2ea16d613abc2276ad5fc6999724" target="_top" xlink:title="Match_RM">
<polygon fill="white" stroke="black" points="945.5,-256.5 945.5,-275.5 1010.5,-275.5 1010.5,-256.5 945.5,-256.5"/>
<text text-anchor="middle" x="978" y="-263.5" font-family="Helvetica,sans-Serif" font-size="10.00">Match_RM</text>
</a>
</g>
</g>
<!-- Node27&#45;&gt;Node30 -->
<g id="edge36" class="edge"><title>Node27&#45;&gt;Node30</title>
<path fill="none" stroke="midnightblue" d="M853.287,-232.543C877.598,-239.118 909.998,-247.88 935.541,-254.788"/>
<polygon fill="midnightblue" stroke="midnightblue" points="934.749,-258.199 945.316,-257.431 936.577,-251.442 934.749,-258.199"/>
</g>
<!-- Node38 -->
<g id="node39" class="node"><title>Node38</title>
<g id="a_node39"><a xlink:href="a00182.html#af3ec72f3170ccdca06d8ad018d86cc58" target="_top" xlink:title="Match_SHEM">
<polygon fill="white" stroke="black" points="939,-218.5 939,-237.5 1017,-237.5 1017,-218.5 939,-218.5"/>
<text text-anchor="middle" x="978" y="-225.5" font-family="Helvetica,sans-Serif" font-size="10.00">Match_SHEM</text>
</a>
</g>
</g>
<!-- Node27&#45;&gt;Node38 -->
<g id="edge46" class="edge"><title>Node27&#45;&gt;Node38</title>
<path fill="none" stroke="midnightblue" d="M874.505,-224.777C892.098,-225.33 911.334,-225.935 928.342,-226.47"/>
<polygon fill="midnightblue" stroke="midnightblue" points="928.504,-229.977 938.609,-226.793 928.724,-222.98 928.504,-229.977"/>
</g>
<!-- Node31 -->
<g id="node32" class="node"><title>Node31</title>
<g id="a_node32"><a xlink:href="a00182.html#aead846b2c69509c914426ff087509934" target="_top" xlink:title="Match_2Hop">
<polygon fill="white" stroke="black" points="1095.5,-218.5 1095.5,-237.5 1168.5,-237.5 1168.5,-218.5 1095.5,-218.5"/>
<text text-anchor="middle" x="1132" y="-225.5" font-family="Helvetica,sans-Serif" font-size="10.00">Match_2Hop</text>
</a>
</g>
</g>
<!-- Node30&#45;&gt;Node31 -->
<g id="edge37" class="edge"><title>Node30&#45;&gt;Node31</title>
<path fill="none" stroke="midnightblue" d="M1010.86,-258.034C1032.5,-252.626 1061.43,-245.392 1085.48,-239.379"/>
<polygon fill="midnightblue" stroke="midnightblue" points="1086.6,-242.707 1095.46,-236.886 1084.91,-235.916 1086.6,-242.707"/>
</g>
<!-- Node34 -->
<g id="node35" class="node"><title>Node34</title>
<g id="a_node35"><a xlink:href="a00182.html#aac8820421b1c25698140c1b470c50e07" target="_top" xlink:title="CreateCoarseGraph">
<polygon fill="white" stroke="black" points="1078.5,-256.5 1078.5,-275.5 1185.5,-275.5 1185.5,-256.5 1078.5,-256.5"/>
<text text-anchor="middle" x="1132" y="-263.5" font-family="Helvetica,sans-Serif" font-size="10.00">CreateCoarseGraph</text>
</a>
</g>
</g>
<!-- Node30&#45;&gt;Node34 -->
<g id="edge40" class="edge"><title>Node30&#45;&gt;Node34</title>
<path fill="none" stroke="midnightblue" d="M1010.86,-266C1027.47,-266 1048.38,-266 1068.08,-266"/>
<polygon fill="midnightblue" stroke="midnightblue" points="1068.24,-269.5 1078.24,-266 1068.24,-262.5 1068.24,-269.5"/>
</g>
<!-- Node32 -->
<g id="node33" class="node"><title>Node32</title>
<g id="a_node33"><a xlink:href="a00182.html#a838a4013e3b5cc5278ecc7a8757ce0ef" target="_top" xlink:title="Match_2HopAny">
<polygon fill="white" stroke="black" points="1249,-180.5 1249,-199.5 1339,-199.5 1339,-180.5 1249,-180.5"/>
<text text-anchor="middle" x="1294" y="-187.5" font-family="Helvetica,sans-Serif" font-size="10.00">Match_2HopAny</text>
</a>
</g>
</g>
<!-- Node31&#45;&gt;Node32 -->
<g id="edge38" class="edge"><title>Node31&#45;&gt;Node32</title>
<path fill="none" stroke="midnightblue" d="M1168.51,-219.567C1190.34,-214.382 1218.65,-207.658 1242.76,-201.932"/>
<polygon fill="midnightblue" stroke="midnightblue" points="1243.88,-205.263 1252.8,-199.547 1242.26,-198.452 1243.88,-205.263"/>
</g>
<!-- Node33 -->
<g id="node34" class="node"><title>Node33</title>
<g id="a_node34"><a xlink:href="a00182.html#aa56d53cace160be27fb1750dcaffbc04" target="_top" xlink:title="Match_2HopAll">
<polygon fill="white" stroke="black" points="1252,-218.5 1252,-237.5 1336,-237.5 1336,-218.5 1252,-218.5"/>
<text text-anchor="middle" x="1294" y="-225.5" font-family="Helvetica,sans-Serif" font-size="10.00">Match_2HopAll</text>
</a>
</g>
</g>
<!-- Node31&#45;&gt;Node33 -->
<g id="edge39" class="edge"><title>Node31&#45;&gt;Node33</title>
<path fill="none" stroke="midnightblue" d="M1168.51,-228C1190,-228 1217.78,-228 1241.64,-228"/>
<polygon fill="midnightblue" stroke="midnightblue" points="1241.94,-231.5 1251.94,-228 1241.94,-224.5 1241.94,-231.5"/>
</g>
<!-- Node35 -->
<g id="node36" class="node"><title>Node35</title>
<g id="a_node36"><a xlink:href="a00182.html#a70dc59d4c7190507e7ad9a4cc0d80707" target="_top" xlink:title="CreateCoarseGraphNoMask">
<polygon fill="white" stroke="black" points="1222.5,-294.5 1222.5,-313.5 1365.5,-313.5 1365.5,-294.5 1222.5,-294.5"/>
<text text-anchor="middle" x="1294" y="-301.5" font-family="Helvetica,sans-Serif" font-size="10.00">CreateCoarseGraphNoMask</text>
</a>
</g>
</g>
<!-- Node34&#45;&gt;Node35 -->
<g id="edge41" class="edge"><title>Node34&#45;&gt;Node35</title>
<path fill="none" stroke="midnightblue" d="M1173.37,-275.589C1194.49,-280.604 1220.53,-286.788 1242.92,-292.105"/>
<polygon fill="midnightblue" stroke="midnightblue" points="1242.38,-295.574 1252.92,-294.48 1243.99,-288.764 1242.38,-295.574"/>
</g>
<!-- Node36 -->
<g id="node37" class="node"><title>Node36</title>
<g id="a_node37"><a xlink:href="a00182.html#a113522304bf628b09d0b69b4db05050e" target="_top" xlink:title="SetupCoarseGraph">
<polygon fill="white" stroke="black" points="1402.5,-322.5 1402.5,-341.5 1505.5,-341.5 1505.5,-322.5 1402.5,-322.5"/>
<text text-anchor="middle" x="1454" y="-329.5" font-family="Helvetica,sans-Serif" font-size="10.00">SetupCoarseGraph</text>
</a>
</g>
</g>
<!-- Node34&#45;&gt;Node36 -->
<g id="edge44" class="edge"><title>Node34&#45;&gt;Node36</title>
<path fill="none" stroke="midnightblue" d="M1143.81,-275.697C1159.64,-289.213 1190.66,-313.159 1222,-323 1277.65,-340.476 1344.57,-341.01 1392.02,-338.206"/>
<polygon fill="midnightblue" stroke="midnightblue" points="1392.39,-341.689 1402.14,-337.54 1391.93,-334.704 1392.39,-341.689"/>
</g>
<!-- Node37 -->
<g id="node38" class="node"><title>Node37</title>
<g id="a_node38"><a xlink:href="a00182.html#ab69ab96ec78174da232dff05e9c79d2f" target="_top" xlink:title="ReAdjustMemory">
<polygon fill="white" stroke="black" points="1407.5,-265.5 1407.5,-284.5 1500.5,-284.5 1500.5,-265.5 1407.5,-265.5"/>
<text text-anchor="middle" x="1454" y="-272.5" font-family="Helvetica,sans-Serif" font-size="10.00">ReAdjustMemory</text>
</a>
</g>
</g>
<!-- Node34&#45;&gt;Node37 -->
<g id="edge45" class="edge"><title>Node34&#45;&gt;Node37</title>
<path fill="none" stroke="midnightblue" d="M1185.84,-267.486C1244.12,-269.125 1337.5,-271.751 1397.01,-273.425"/>
<polygon fill="midnightblue" stroke="midnightblue" points="1397.25,-276.933 1407.34,-273.716 1397.45,-269.936 1397.25,-276.933"/>
</g>
<!-- Node35&#45;&gt;Node36 -->
<g id="edge42" class="edge"><title>Node35&#45;&gt;Node36</title>
<path fill="none" stroke="midnightblue" d="M1348.93,-313.558C1362.82,-316.018 1377.85,-318.683 1392.06,-321.201"/>
<polygon fill="midnightblue" stroke="midnightblue" points="1391.78,-324.706 1402.24,-323.004 1393,-317.813 1391.78,-324.706"/>
</g>
<!-- Node35&#45;&gt;Node37 -->
<g id="edge43" class="edge"><title>Node35&#45;&gt;Node37</title>
<path fill="none" stroke="midnightblue" d="M1347.17,-294.424C1363.25,-291.473 1381.01,-288.213 1397.32,-285.22"/>
<polygon fill="midnightblue" stroke="midnightblue" points="1398.05,-288.644 1407.25,-283.397 1396.79,-281.759 1398.05,-288.644"/>
</g>
<!-- Node38&#45;&gt;Node31 -->
<g id="edge47" class="edge"><title>Node38&#45;&gt;Node31</title>
<path fill="none" stroke="midnightblue" d="M1017.36,-228C1037.91,-228 1063.39,-228 1085,-228"/>
<polygon fill="midnightblue" stroke="midnightblue" points="1085.27,-231.5 1095.27,-228 1085.27,-224.5 1085.27,-231.5"/>
</g>
<!-- Node38&#45;&gt;Node34 -->
<g id="edge48" class="edge"><title>Node38&#45;&gt;Node34</title>
<path fill="none" stroke="midnightblue" d="M1017.36,-237.589C1037.32,-242.581 1061.93,-248.732 1083.13,-254.033"/>
<polygon fill="midnightblue" stroke="midnightblue" points="1082.37,-257.45 1092.92,-256.48 1084.07,-250.659 1082.37,-257.45"/>
</g>
<!-- Node39&#45;&gt;Node9 -->
<g id="edge51" class="edge"><title>Node39&#45;&gt;Node9</title>
<path fill="none" stroke="midnightblue" d="M518.15,-246.523C576.34,-266.934 713.128,-314.916 779.116,-338.062"/>
<polygon fill="midnightblue" stroke="midnightblue" points="778.104,-341.416 788.698,-341.423 780.421,-334.811 778.104,-341.416"/>
</g>
<!-- Node41&#45;&gt;Node24 -->
<g id="edge56" class="edge"><title>Node41&#45;&gt;Node24</title>
<path fill="none" stroke="midnightblue" d="M360.437,-134.553C382.577,-139.107 409.253,-144.595 432.553,-149.388"/>
<polygon fill="midnightblue" stroke="midnightblue" points="432.149,-152.878 442.65,-151.465 433.56,-146.022 432.149,-152.878"/>
</g>
<!-- Node41&#45;&gt;Node40 -->
<g id="edge59" class="edge"><title>Node41&#45;&gt;Node40</title>
<path fill="none" stroke="midnightblue" d="M331.532,-134.549C358.81,-149.363 409.206,-176.549 418,-180 427.168,-183.598 437.263,-186.754 446.891,-189.407"/>
<polygon fill="midnightblue" stroke="midnightblue" points="446.136,-192.827 456.698,-191.987 447.917,-186.057 446.136,-192.827"/>
</g>
<!-- Node41&#45;&gt;Node41 -->
<g id="edge58" class="edge"><title>Node41&#45;&gt;Node41</title>
<path fill="none" stroke="midnightblue" d="M286.49,-134.757C273.593,-143.565 282.43,-153 313,-153 333.539,-153 344.268,-148.741 345.186,-143.275"/>
<polygon fill="midnightblue" stroke="midnightblue" points="347.968,-141.138 339.51,-134.757 342.143,-145.02 347.968,-141.138"/>
</g>
<!-- Node42 -->
<g id="node43" class="node"><title>Node42</title>
<g id="a_node43"><a xlink:href="a00936.html#a2554253b42e739ac3bb63e676741e1cd" target="_top" xlink:title="SplitGraphOrder">
<polygon fill="white" stroke="black" points="445.5,-113.5 445.5,-132.5 534.5,-132.5 534.5,-113.5 445.5,-113.5"/>
<text text-anchor="middle" x="490" y="-120.5" font-family="Helvetica,sans-Serif" font-size="10.00">SplitGraphOrder</text>
</a>
</g>
</g>
<!-- Node41&#45;&gt;Node42 -->
<g id="edge57" class="edge"><title>Node41&#45;&gt;Node42</title>
<path fill="none" stroke="midnightblue" d="M374.715,-124.306C394.464,-124.08 416.227,-123.832 435.415,-123.612"/>
<polygon fill="midnightblue" stroke="midnightblue" points="435.526,-127.111 445.485,-123.497 435.446,-120.112 435.526,-127.111"/>
</g>
<!-- Node46&#45;&gt;Node5 -->
<g id="edge67" class="edge"><title>Node46&#45;&gt;Node5</title>
<path fill="none" stroke="midnightblue" d="M503.973,-626.661C523.276,-640.37 561.243,-664.82 598,-674 718.736,-704.153 761.831,-718.622 878,-674 991.347,-630.462 1085.64,-510.064 1118.52,-464.129"/>
<polygon fill="midnightblue" stroke="midnightblue" points="1121.53,-465.936 1124.43,-455.745 1115.81,-461.904 1121.53,-465.936"/>
</g>
<!-- Node46&#45;&gt;Node6 -->
<g id="edge66" class="edge"><title>Node46&#45;&gt;Node6</title>
<path fill="none" stroke="midnightblue" d="M512.151,-607.375C541.388,-594.069 594.319,-569.98 627.737,-554.772"/>
<polygon fill="midnightblue" stroke="midnightblue" points="629.369,-557.875 637.021,-550.547 626.469,-551.504 629.369,-557.875"/>
</g>
<!-- Node46&#45;&gt;Node7 -->
<g id="edge65" class="edge"><title>Node46&#45;&gt;Node7</title>
<path fill="none" stroke="midnightblue" d="M537.118,-612.719C583.409,-608.291 656.735,-600.925 720,-593 741.615,-590.292 765.893,-586.747 784.626,-583.902"/>
<polygon fill="midnightblue" stroke="midnightblue" points="785.327,-587.335 794.681,-582.361 784.267,-580.416 785.327,-587.335"/>
</g>
<!-- Node46&#45;&gt;Node14 -->
<g id="edge68" class="edge"><title>Node46&#45;&gt;Node14</title>
<path fill="none" stroke="midnightblue" d="M533.141,-626.589C559.67,-632.626 593.651,-640.358 619.463,-646.231"/>
<polygon fill="midnightblue" stroke="midnightblue" points="618.747,-649.657 629.274,-648.464 620.3,-642.832 618.747,-649.657"/>
</g>
<!-- Node48 -->
<g id="node49" class="node"><title>Node48</title>
<g id="a_node49"><a xlink:href="a00951.html#a929cf6af13d6bf71bc61657211472eed" target="_top" xlink:title="ComputeFillIn">
<polygon fill="white" stroke="black" points="274,-379.5 274,-398.5 352,-398.5 352,-379.5 274,-379.5"/>
<text text-anchor="middle" x="313" y="-386.5" font-family="Helvetica,sans-Serif" font-size="10.00">ComputeFillIn</text>
</a>
</g>
</g>
<!-- Node47&#45;&gt;Node48 -->
<g id="edge70" class="edge"><title>Node47&#45;&gt;Node48</title>
<path fill="none" stroke="midnightblue" d="M188.004,-389C211.474,-389 240.009,-389 263.785,-389"/>
<polygon fill="midnightblue" stroke="midnightblue" points="263.996,-392.5 273.996,-389 263.996,-385.5 263.996,-392.5"/>
</g>
<!-- Node48&#45;&gt;Node4 -->
<g id="edge74" class="edge"><title>Node48&#45;&gt;Node4</title>
<path fill="none" stroke="midnightblue" d="M349.457,-398.511C360.314,-402.202 372.017,-407.008 382,-413 400.61,-424.171 397.965,-437.651 418,-446 451.445,-459.937 696.722,-463.788 784.701,-464.727"/>
<polygon fill="midnightblue" stroke="midnightblue" points="784.827,-468.228 794.862,-464.829 784.898,-461.228 784.827,-468.228"/>
</g>
<!-- Node48&#45;&gt;Node16 -->
<g id="edge73" class="edge"><title>Node48&#45;&gt;Node16</title>
<path fill="none" stroke="midnightblue" d="M352.299,-385.872C401.074,-381.755 487.925,-373.98 562,-365 582.643,-362.497 605.702,-359.153 624.046,-356.36"/>
<polygon fill="midnightblue" stroke="midnightblue" points="624.625,-359.812 633.977,-354.832 623.561,-352.894 624.625,-359.812"/>
</g>
<!-- Node49 -->
<g id="node50" class="node"><title>Node49</title>
<g id="a_node50"><a xlink:href="a00329.html#a4c231449fdf45c79d8d5107ad63b3451" target="_top" xlink:title="smbfct">
<polygon fill="white" stroke="black" points="467,-417.5 467,-436.5 513,-436.5 513,-417.5 467,-417.5"/>
<text text-anchor="middle" x="490" y="-424.5" font-family="Helvetica,sans-Serif" font-size="10.00">smbfct</text>
</a>
</g>
</g>
<!-- Node48&#45;&gt;Node49 -->
<g id="edge71" class="edge"><title>Node48&#45;&gt;Node49</title>
<path fill="none" stroke="midnightblue" d="M352.404,-397.339C383.725,-404.14 427.455,-413.636 456.925,-420.035"/>
<polygon fill="midnightblue" stroke="midnightblue" points="456.196,-423.458 466.711,-422.16 457.682,-416.618 456.196,-423.458"/>
</g>
<!-- Node49&#45;&gt;Node16 -->
<g id="edge72" class="edge"><title>Node49&#45;&gt;Node16</title>
<path fill="none" stroke="midnightblue" d="M513.135,-422.06C527.681,-418.217 546.768,-412.006 562,-403 580.684,-391.953 579.211,-380.866 598,-370 606.041,-365.35 615.357,-361.693 624.216,-358.883"/>
<polygon fill="midnightblue" stroke="midnightblue" points="625.303,-362.212 633.93,-356.061 623.351,-355.489 625.303,-362.212"/>
</g>
</g>
</svg>
