<?xml version="1.0" encoding="UTF-8" standalone="no"?>
<!DOCTYPE svg PUBLIC "-//W3C//DTD SVG 1.1//EN"
 "http://www.w3.org/Graphics/SVG/1.1/DTD/svg11.dtd">
<!-- Generated by graphviz version 2.36.0 (20140111.2315)
 -->
<!-- Title: Balance_Partition Pages: 1 -->
<svg width="1038pt" height="484pt"
 viewBox="0.00 0.00 1038.00 484.00" xmlns="http://www.w3.org/2000/svg" xmlns:xlink="http://www.w3.org/1999/xlink">
<g id="graph0" class="graph" transform="scale(1 1) rotate(0) translate(4 480)">
<title>Balance_Partition</title>
<polygon fill="white" stroke="none" points="-4,4 -4,-480 1034,-480 1034,4 -4,4"/>
<!-- Node3 -->
<g id="node1" class="node"><title>Node3</title>
<polygon fill="#bfbfbf" stroke="black" points="0.5,-380.5 0.5,-399.5 95.5,-399.5 95.5,-380.5 0.5,-380.5"/>
<text text-anchor="middle" x="48" y="-387.5" font-family="Helvetica,sans-Serif" font-size="10.00">Balance_Partition</text>
</g>
<!-- Node4 -->
<g id="node2" class="node"><title>Node4</title>
<g id="a_node2"><a xlink:href="$a00362.html#a1bf0cf66702bc4f8de2149340294318b" xlink:title="AssembleAdaptiveGraph">
<polygon fill="white" stroke="black" points="132.5,-456.5 132.5,-475.5 259.5,-475.5 259.5,-456.5 132.5,-456.5"/>
<text text-anchor="middle" x="196" y="-463.5" font-family="Helvetica,sans-Serif" font-size="10.00">AssembleAdaptiveGraph</text>
</a>
</g>
</g>
<!-- Node3&#45;&gt;Node4 -->
<g id="edge1" class="edge"><title>Node3&#45;&gt;Node4</title>
<path fill="none" stroke="midnightblue" d="M62.6142,-399.697C78.6726,-410.854 106.426,-429.271 132,-442 139.832,-445.898 148.462,-449.566 156.756,-452.806"/>
<polygon fill="midnightblue" stroke="midnightblue" points="155.678,-456.14 166.27,-456.401 158.152,-449.592 155.678,-456.14"/>
</g>
<!-- Node5 -->
<g id="node3" class="node"><title>Node5</title>
<g id="a_node3"><a xlink:href="$a00170.html#abea67bb0c6286795ac5fc9bee605dc5d" xlink:title="METIS_SetDefaultOptions">
<polygon fill="white" stroke="black" points="603,-304.5 603,-323.5 737,-323.5 737,-304.5 603,-304.5"/>
<text text-anchor="middle" x="670" y="-311.5" font-family="Helvetica,sans-Serif" font-size="10.00">METIS_SetDefaultOptions</text>
</a>
</g>
</g>
<!-- Node3&#45;&gt;Node5 -->
<g id="edge2" class="edge"><title>Node3&#45;&gt;Node5</title>
<path fill="none" stroke="midnightblue" d="M84.0107,-399.519C169.068,-420.852 392.08,-465.96 562,-404 601.661,-389.538 636.817,-353.189 655.285,-331.365"/>
<polygon fill="midnightblue" stroke="midnightblue" points="658.081,-333.475 661.728,-323.527 652.674,-329.029 658.081,-333.475"/>
</g>
<!-- Node6 -->
<g id="node4" class="node"><title>Node6</title>
<g id="a_node4"><a xlink:href="$a00260.html#a25fc90fd934931239b3c98ac4bdbce76" xlink:title="Recursive partitioning routine. ">
<polygon fill="white" stroke="black" points="598.5,-266.5 598.5,-285.5 741.5,-285.5 741.5,-266.5 598.5,-266.5"/>
<text text-anchor="middle" x="670" y="-273.5" font-family="Helvetica,sans-Serif" font-size="10.00">METIS_PartGraphRecursive</text>
</a>
</g>
</g>
<!-- Node3&#45;&gt;Node6 -->
<g id="edge3" class="edge"><title>Node3&#45;&gt;Node6</title>
<path fill="none" stroke="midnightblue" d="M95.6008,-381.431C205.852,-361.159 482.748,-310.246 606.983,-287.403"/>
<polygon fill="midnightblue" stroke="midnightblue" points="607.889,-290.795 617.091,-285.544 606.623,-283.911 607.889,-290.795"/>
</g>
<!-- Node14 -->
<g id="node12" class="node"><title>Node14</title>
<g id="a_node12"><a xlink:href="$a00912.html#af89851458c047aba436b36ed567441e4" xlink:title="METIS_PartGraphKway">
<polygon fill="white" stroke="black" points="134.5,-247.5 134.5,-266.5 257.5,-266.5 257.5,-247.5 134.5,-247.5"/>
<text text-anchor="middle" x="196" y="-254.5" font-family="Helvetica,sans-Serif" font-size="10.00">METIS_PartGraphKway</text>
</a>
</g>
</g>
<!-- Node3&#45;&gt;Node14 -->
<g id="edge12" class="edge"><title>Node3&#45;&gt;Node14</title>
<path fill="none" stroke="midnightblue" d="M59.5,-380.435C84.1083,-358.018 145.757,-301.859 176.692,-273.678"/>
<polygon fill="midnightblue" stroke="midnightblue" points="179.166,-276.159 184.201,-266.837 174.452,-270.984 179.166,-276.159"/>
</g>
<!-- Node21 -->
<g id="node19" class="node"><title>Node21</title>
<g id="a_node19"><a xlink:href="$a00077.html#aba6f76f5c67b9b7e9c2e45988d3d3e9d" xlink:title="gk_malloc">
<polygon fill="white" stroke="black" points="477,-76.5 477,-95.5 539,-95.5 539,-76.5 477,-76.5"/>
<text text-anchor="middle" x="508" y="-83.5" font-family="Helvetica,sans-Serif" font-size="10.00">gk_malloc</text>
</a>
</g>
</g>
<!-- Node3&#45;&gt;Node21 -->
<g id="edge27" class="edge"><title>Node3&#45;&gt;Node21</title>
<path fill="none" stroke="midnightblue" d="M52.6639,-380.265C62.5615,-354.837 91.8228,-285.139 132,-238 191.8,-167.838 210.679,-145.915 296,-111 351.983,-88.0906 422.819,-84.2727 466.511,-84.4881"/>
<polygon fill="midnightblue" stroke="midnightblue" points="466.699,-87.9906 476.742,-84.6152 466.786,-80.9912 466.699,-87.9906"/>
</g>
<!-- Node7 -->
<g id="node5" class="node"><title>Node7</title>
<g id="a_node5"><a xlink:href="$a00077.html#a24633cc1c72a7e92836912c2adcf570a" xlink:title="gk_malloc_init">
<polygon fill="white" stroke="black" points="803,-209.5 803,-228.5 883,-228.5 883,-209.5 803,-209.5"/>
<text text-anchor="middle" x="843" y="-216.5" font-family="Helvetica,sans-Serif" font-size="10.00">gk_malloc_init</text>
</a>
</g>
</g>
<!-- Node6&#45;&gt;Node7 -->
<g id="edge4" class="edge"><title>Node6&#45;&gt;Node7</title>
<path fill="none" stroke="midnightblue" d="M709.53,-266.453C720.118,-263.622 731.557,-260.372 742,-257 764.83,-249.629 790.082,-240.021 809.499,-232.311"/>
<polygon fill="midnightblue" stroke="midnightblue" points="810.819,-235.552 818.8,-228.585 808.216,-229.054 810.819,-235.552"/>
</g>
<!-- Node8 -->
<g id="node6" class="node"><title>Node8</title>
<g id="a_node6"><a xlink:href="$a00026.html#a05869524d1c30cfaab2a8690e7da6fd4" xlink:title="gk_sigtrap">
<polygon fill="white" stroke="black" points="811.5,-152.5 811.5,-171.5 874.5,-171.5 874.5,-152.5 811.5,-152.5"/>
<text text-anchor="middle" x="843" y="-159.5" font-family="Helvetica,sans-Serif" font-size="10.00">gk_sigtrap</text>
</a>
</g>
</g>
<!-- Node6&#45;&gt;Node8 -->
<g id="edge5" class="edge"><title>Node6&#45;&gt;Node8</title>
<path fill="none" stroke="midnightblue" d="M724.587,-266.383C730.788,-263.932 736.759,-260.857 742,-257 766.132,-239.239 756.524,-220.894 778,-200 787.624,-190.637 799.979,-182.615 811.262,-176.387"/>
<polygon fill="midnightblue" stroke="midnightblue" points="813.178,-179.334 820.405,-171.588 809.924,-173.136 813.178,-179.334"/>
</g>
<!-- Node9 -->
<g id="node7" class="node"><title>Node9</title>
<g id="a_node7"><a xlink:href="$a00026.html#a08f287b6dbdc0779c916ecbd49540a1e" xlink:title="gk_siguntrap">
<polygon fill="white" stroke="black" points="806,-418.5 806,-437.5 880,-437.5 880,-418.5 806,-418.5"/>
<text text-anchor="middle" x="843" y="-425.5" font-family="Helvetica,sans-Serif" font-size="10.00">gk_siguntrap</text>
</a>
</g>
</g>
<!-- Node6&#45;&gt;Node9 -->
<g id="edge6" class="edge"><title>Node6&#45;&gt;Node9</title>
<path fill="none" stroke="midnightblue" d="M725.553,-285.596C731.451,-288.053 737.085,-291.135 742,-295 768.263,-315.656 758.29,-334.019 778,-361 791.643,-379.676 810.15,-398.508 823.753,-411.43"/>
<polygon fill="midnightblue" stroke="midnightblue" points="821.424,-414.044 831.122,-418.309 826.2,-408.927 821.424,-414.044"/>
</g>
<!-- Node10 -->
<g id="node8" class="node"><title>Node10</title>
<g id="a_node8"><a xlink:href="$a00260.html#a5510f276b321a8450b2e9cc913c2f00f" xlink:title="MlevelRecursiveBisection">
<polygon fill="white" stroke="black" points="778,-266.5 778,-285.5 908,-285.5 908,-266.5 778,-266.5"/>
<text text-anchor="middle" x="843" y="-273.5" font-family="Helvetica,sans-Serif" font-size="10.00">MlevelRecursiveBisection</text>
</a>
</g>
</g>
<!-- Node6&#45;&gt;Node10 -->
<g id="edge7" class="edge"><title>Node6&#45;&gt;Node10</title>
<path fill="none" stroke="midnightblue" d="M741.54,-276C750.202,-276 759.076,-276 767.79,-276"/>
<polygon fill="midnightblue" stroke="midnightblue" points="767.925,-279.5 777.925,-276 767.925,-272.5 767.925,-279.5"/>
</g>
<!-- Node13 -->
<g id="node11" class="node"><title>Node13</title>
<g id="a_node11"><a xlink:href="$a00077.html#a47156a22528b5bc8c7c6e9849af34e62" xlink:title="gk_malloc_cleanup">
<polygon fill="white" stroke="black" points="792,-332.5 792,-351.5 894,-351.5 894,-332.5 792,-332.5"/>
<text text-anchor="middle" x="843" y="-339.5" font-family="Helvetica,sans-Serif" font-size="10.00">gk_malloc_cleanup</text>
</a>
</g>
</g>
<!-- Node6&#45;&gt;Node13 -->
<g id="edge11" class="edge"><title>Node6&#45;&gt;Node13</title>
<path fill="none" stroke="midnightblue" d="M712.372,-285.561C722.205,-288.247 732.575,-291.425 742,-295 758.726,-301.345 761.85,-305.307 778,-313 788.708,-318.101 800.515,-323.511 811.041,-328.259"/>
<polygon fill="midnightblue" stroke="midnightblue" points="809.723,-331.503 820.279,-332.405 812.589,-325.117 809.723,-331.503"/>
</g>
<!-- Node10&#45;&gt;Node10 -->
<g id="edge10" class="edge"><title>Node10&#45;&gt;Node10</title>
<path fill="none" stroke="midnightblue" d="M820.805,-285.757C810.008,-294.565 817.406,-304 843,-304 859.796,-304 868.756,-299.937 869.879,-294.654"/>
<polygon fill="midnightblue" stroke="midnightblue" points="872.951,-292.975 865.195,-285.757 866.757,-296.236 872.951,-292.975"/>
</g>
<!-- Node11 -->
<g id="node9" class="node"><title>Node11</title>
<g id="a_node9"><a xlink:href="$a00260.html#a33c48a23cc94ea0221fa5c7317cd0222" xlink:title="MultilevelBisect">
<polygon fill="white" stroke="black" points="944.5,-285.5 944.5,-304.5 1029.5,-304.5 1029.5,-285.5 944.5,-285.5"/>
<text text-anchor="middle" x="987" y="-292.5" font-family="Helvetica,sans-Serif" font-size="10.00">MultilevelBisect</text>
</a>
</g>
</g>
<!-- Node10&#45;&gt;Node11 -->
<g id="edge8" class="edge"><title>Node10&#45;&gt;Node11</title>
<path fill="none" stroke="midnightblue" d="M908.352,-284.611C917.013,-285.769 925.806,-286.946 934.211,-288.07"/>
<polygon fill="midnightblue" stroke="midnightblue" points="933.859,-291.555 944.235,-289.412 934.788,-284.616 933.859,-291.555"/>
</g>
<!-- Node12 -->
<g id="node10" class="node"><title>Node12</title>
<g id="a_node10"><a xlink:href="$a00260.html#a49d272affb67ce57b2d20dccd7f15f53" xlink:title="SplitGraphPart">
<polygon fill="white" stroke="black" points="946,-247.5 946,-266.5 1028,-266.5 1028,-247.5 946,-247.5"/>
<text text-anchor="middle" x="987" y="-254.5" font-family="Helvetica,sans-Serif" font-size="10.00">SplitGraphPart</text>
</a>
</g>
</g>
<!-- Node10&#45;&gt;Node12 -->
<g id="edge9" class="edge"><title>Node10&#45;&gt;Node12</title>
<path fill="none" stroke="midnightblue" d="M908.352,-267.389C917.53,-266.162 926.856,-264.914 935.712,-263.729"/>
<polygon fill="midnightblue" stroke="midnightblue" points="936.407,-267.167 945.854,-262.372 935.478,-260.229 936.407,-267.167"/>
</g>
<!-- Node14&#45;&gt;Node7 -->
<g id="edge13" class="edge"><title>Node14&#45;&gt;Node7</title>
<path fill="none" stroke="midnightblue" d="M215.741,-247.416C235.213,-238.039 266.856,-224.401 296,-219 476.53,-185.543 696.441,-202.714 792.795,-213.054"/>
<polygon fill="midnightblue" stroke="midnightblue" points="792.506,-216.543 802.828,-214.155 793.269,-209.585 792.506,-216.543"/>
</g>
<!-- Node14&#45;&gt;Node8 -->
<g id="edge14" class="edge"><title>Node14&#45;&gt;Node8</title>
<path fill="none" stroke="midnightblue" d="M209.599,-247.4C227.632,-234.261 262.349,-211.154 296,-201 478,-146.085 708.955,-153.178 801.228,-158.904"/>
<polygon fill="midnightblue" stroke="midnightblue" points="801.061,-162.4 811.267,-159.556 801.515,-155.415 801.061,-162.4"/>
</g>
<!-- Node14&#45;&gt;Node9 -->
<g id="edge15" class="edge"><title>Node14&#45;&gt;Node9</title>
<path fill="none" stroke="midnightblue" d="M208.668,-266.69C226.383,-280.881 261.65,-307.132 296,-321 472.085,-392.087 699.707,-417.094 795.877,-424.872"/>
<polygon fill="midnightblue" stroke="midnightblue" points="795.614,-428.362 805.857,-425.655 796.162,-421.384 795.614,-428.362"/>
</g>
<!-- Node14&#45;&gt;Node13 -->
<g id="edge26" class="edge"><title>Node14&#45;&gt;Node13</title>
<path fill="none" stroke="midnightblue" d="M217.765,-266.666C237.475,-275.429 268.144,-288.011 296,-295 468.413,-338.26 679.984,-343.41 781.724,-343.035"/>
<polygon fill="midnightblue" stroke="midnightblue" points="781.831,-346.534 791.811,-342.978 781.792,-339.535 781.831,-346.534"/>
</g>
<!-- Node15 -->
<g id="node13" class="node"><title>Node15</title>
<g id="a_node13"><a xlink:href="$a00077.html#a3d153a0a39d7ba54f0943fa586f0c561" xlink:title="gk_log2">
<polygon fill="white" stroke="black" points="331,-266.5 331,-285.5 383,-285.5 383,-266.5 331,-266.5"/>
<text text-anchor="middle" x="357" y="-273.5" font-family="Helvetica,sans-Serif" font-size="10.00">gk_log2</text>
</a>
</g>
</g>
<!-- Node14&#45;&gt;Node15 -->
<g id="edge16" class="edge"><title>Node14&#45;&gt;Node15</title>
<path fill="none" stroke="midnightblue" d="M257.565,-264.237C278.939,-266.791 302.253,-269.577 320.824,-271.797"/>
<polygon fill="midnightblue" stroke="midnightblue" points="320.539,-275.287 330.884,-272.999 321.37,-268.337 320.539,-275.287"/>
</g>
<!-- Node16 -->
<g id="node14" class="node"><title>Node16</title>
<g id="a_node14"><a xlink:href="$a00026.html#a4c320c13bcdc9967613253ef4c73f59f" xlink:title="gk_errexit">
<polygon fill="white" stroke="black" points="640,-114.5 640,-133.5 700,-133.5 700,-114.5 640,-114.5"/>
<text text-anchor="middle" x="670" y="-121.5" font-family="Helvetica,sans-Serif" font-size="10.00">gk_errexit</text>
</a>
</g>
</g>
<!-- Node14&#45;&gt;Node16 -->
<g id="edge17" class="edge"><title>Node14&#45;&gt;Node16</title>
<path fill="none" stroke="midnightblue" d="M202.146,-247.487C214.733,-225.319 249.476,-170.408 296,-148 406.939,-94.568 558.355,-107.162 629.286,-117.257"/>
<polygon fill="midnightblue" stroke="midnightblue" points="629.151,-120.775 639.557,-118.782 630.18,-113.851 629.151,-120.775"/>
</g>
<!-- Node18 -->
<g id="node16" class="node"><title>Node18</title>
<g id="a_node16"><a xlink:href="$a00912.html#a7973c78504ad6711d3516082b1112805" xlink:title="MlevelKWayPartitioning">
<polygon fill="white" stroke="black" points="296,-228.5 296,-247.5 418,-247.5 418,-228.5 296,-228.5"/>
<text text-anchor="middle" x="357" y="-235.5" font-family="Helvetica,sans-Serif" font-size="10.00">MlevelKWayPartitioning</text>
</a>
</g>
</g>
<!-- Node14&#45;&gt;Node18 -->
<g id="edge19" class="edge"><title>Node14&#45;&gt;Node18</title>
<path fill="none" stroke="midnightblue" d="M257.565,-249.763C266.781,-248.661 276.358,-247.517 285.759,-246.394"/>
<polygon fill="midnightblue" stroke="midnightblue" points="286.353,-249.848 295.867,-245.186 285.522,-242.897 286.353,-249.848"/>
</g>
<!-- Node17 -->
<g id="node15" class="node"><title>Node17</title>
<g id="a_node15"><a xlink:href="$a01017.html#a2e311a777ffe9c80e405efa7cd2757be" xlink:title="fprintf">
<polygon fill="white" stroke="black" points="822,-95.5 822,-114.5 864,-114.5 864,-95.5 822,-95.5"/>
<text text-anchor="middle" x="843" y="-102.5" font-family="Helvetica,sans-Serif" font-size="10.00">fprintf</text>
</a>
</g>
</g>
<!-- Node16&#45;&gt;Node17 -->
<g id="edge18" class="edge"><title>Node16&#45;&gt;Node17</title>
<path fill="none" stroke="midnightblue" d="M700.008,-120.777C731.17,-117.314 780.453,-111.839 811.995,-108.334"/>
<polygon fill="midnightblue" stroke="midnightblue" points="812.408,-111.81 821.96,-107.227 811.635,-104.852 812.408,-111.81"/>
</g>
<!-- Node18&#45;&gt;Node16 -->
<g id="edge25" class="edge"><title>Node18&#45;&gt;Node16</title>
<path fill="none" stroke="midnightblue" d="M383.981,-228.477C439.549,-208.107 570.022,-160.281 633.315,-137.081"/>
<polygon fill="midnightblue" stroke="midnightblue" points="634.69,-140.304 642.874,-133.577 632.281,-133.732 634.69,-140.304"/>
</g>
<!-- Node19 -->
<g id="node17" class="node"><title>Node19</title>
<g id="a_node17"><a xlink:href="$a00912.html#a870e37cc14eb1033c62d83d3a7c33a91" xlink:title="InitKWayPartitioning">
<polygon fill="white" stroke="black" points="454.5,-266.5 454.5,-285.5 561.5,-285.5 561.5,-266.5 454.5,-266.5"/>
<text text-anchor="middle" x="508" y="-273.5" font-family="Helvetica,sans-Serif" font-size="10.00">InitKWayPartitioning</text>
</a>
</g>
</g>
<!-- Node18&#45;&gt;Node19 -->
<g id="edge20" class="edge"><title>Node18&#45;&gt;Node19</title>
<path fill="none" stroke="midnightblue" d="M395.599,-247.589C415.084,-252.558 439.075,-258.677 459.796,-263.961"/>
<polygon fill="midnightblue" stroke="midnightblue" points="459.117,-267.4 469.671,-266.48 460.846,-260.617 459.117,-267.4"/>
</g>
<!-- Node19&#45;&gt;Node5 -->
<g id="edge21" class="edge"><title>Node19&#45;&gt;Node5</title>
<path fill="none" stroke="midnightblue" d="M549.375,-285.589C570.488,-290.604 596.529,-296.788 618.917,-302.105"/>
<polygon fill="midnightblue" stroke="midnightblue" points="618.377,-305.574 628.916,-304.48 619.995,-298.764 618.377,-305.574"/>
</g>
<!-- Node19&#45;&gt;Node6 -->
<g id="edge22" class="edge"><title>Node19&#45;&gt;Node6</title>
<path fill="none" stroke="midnightblue" d="M561.833,-276C570.299,-276 579.224,-276 588.164,-276"/>
<polygon fill="midnightblue" stroke="midnightblue" points="588.239,-279.5 598.239,-276 588.239,-272.5 588.239,-279.5"/>
</g>
<!-- Node19&#45;&gt;Node16 -->
<g id="edge23" class="edge"><title>Node19&#45;&gt;Node16</title>
<path fill="none" stroke="midnightblue" d="M536.183,-266.47C544.897,-262.709 554.28,-257.867 562,-252 583.933,-235.331 632.349,-172.761 655.782,-141.708"/>
<polygon fill="midnightblue" stroke="midnightblue" points="658.734,-143.605 661.941,-133.507 653.137,-139.401 658.734,-143.605"/>
</g>
<!-- Node20 -->
<g id="node18" class="node"><title>Node20</title>
<g id="a_node18"><a xlink:href="$a00077.html#ac8df62c4e3d0910711a9874f9cc58884" xlink:title="gk_free">
<polygon fill="white" stroke="black" points="645,-228.5 645,-247.5 695,-247.5 695,-228.5 645,-228.5"/>
<text text-anchor="middle" x="670" y="-235.5" font-family="Helvetica,sans-Serif" font-size="10.00">gk_free</text>
</a>
</g>
</g>
<!-- Node19&#45;&gt;Node20 -->
<g id="edge24" class="edge"><title>Node19&#45;&gt;Node20</title>
<path fill="none" stroke="midnightblue" d="M549.375,-266.411C575.737,-260.15 609.78,-252.065 634.804,-246.121"/>
<polygon fill="midnightblue" stroke="midnightblue" points="635.67,-249.513 644.591,-243.797 634.052,-242.703 635.67,-249.513"/>
</g>
<!-- Node21&#45;&gt;Node16 -->
<g id="edge31" class="edge"><title>Node21&#45;&gt;Node16</title>
<path fill="none" stroke="midnightblue" d="M539.095,-93.1475C564.813,-99.2557 601.989,-108.085 629.988,-114.735"/>
<polygon fill="midnightblue" stroke="midnightblue" points="629.312,-118.171 639.85,-117.077 630.929,-111.361 629.312,-118.171"/>
</g>
<!-- Node21&#45;&gt;Node17 -->
<g id="edge28" class="edge"><title>Node21&#45;&gt;Node17</title>
<path fill="none" stroke="midnightblue" d="M539.139,-87.7196C602.401,-91.3292 748.404,-99.6597 811.757,-103.274"/>
<polygon fill="midnightblue" stroke="midnightblue" points="811.707,-106.777 821.89,-103.853 812.106,-99.7885 811.707,-106.777"/>
</g>
<!-- Node22 -->
<g id="node20" class="node"><title>Node22</title>
<g id="a_node20"><a xlink:href="$a00110.html#ad2327b94227019b6753b6b09400c0522" xlink:title="gk_GetCurMemoryUsed">
<polygon fill="white" stroke="black" points="608,-38.5 608,-57.5 732,-57.5 732,-38.5 608,-38.5"/>
<text text-anchor="middle" x="670" y="-45.5" font-family="Helvetica,sans-Serif" font-size="10.00">gk_GetCurMemoryUsed</text>
</a>
</g>
</g>
<!-- Node21&#45;&gt;Node22 -->
<g id="edge29" class="edge"><title>Node21&#45;&gt;Node22</title>
<path fill="none" stroke="midnightblue" d="M539.095,-78.8525C561.57,-73.5146 592.795,-66.0986 618.999,-59.8752"/>
<polygon fill="midnightblue" stroke="midnightblue" points="619.847,-63.2714 628.767,-57.5553 618.229,-56.4608 619.847,-63.2714"/>
</g>
<!-- Node23 -->
<g id="node21" class="node"><title>Node23</title>
<g id="a_node21"><a xlink:href="$a00110.html#a656fd5266ae12a96e53125486f8fea52" xlink:title="gk_GetMaxMemoryUsed">
<polygon fill="white" stroke="black" points="606.5,-0.5 606.5,-19.5 733.5,-19.5 733.5,-0.5 606.5,-0.5"/>
<text text-anchor="middle" x="670" y="-7.5" font-family="Helvetica,sans-Serif" font-size="10.00">gk_GetMaxMemoryUsed</text>
</a>
</g>
</g>
<!-- Node21&#45;&gt;Node23 -->
<g id="edge30" class="edge"><title>Node21&#45;&gt;Node23</title>
<path fill="none" stroke="midnightblue" d="M521.269,-76.385C537.82,-63.8391 568.623,-41.9628 598,-29 603.385,-26.624 609.134,-24.4874 614.941,-22.581"/>
<polygon fill="midnightblue" stroke="midnightblue" points="616.179,-25.8626 624.716,-19.5886 614.13,-19.1693 616.179,-25.8626"/>
</g>
</g>
</svg>
