<?xml version="1.0" encoding="UTF-8" standalone="no"?>
<!DOCTYPE svg PUBLIC "-//W3C//DTD SVG 1.1//EN"
 "http://www.w3.org/Graphics/SVG/1.1/DTD/svg11.dtd">
<!-- Generated by graphviz version 2.36.0 (20140111.2315)
 -->
<!-- Title: Adaptive_Partition Pages: 1 -->
<svg width="432pt" height="57pt"
 viewBox="0.00 0.00 432.00 56.59" xmlns="http://www.w3.org/2000/svg" xmlns:xlink="http://www.w3.org/1999/xlink">
<g id="graph0" class="graph" transform="scale(1 1) rotate(0) translate(4 52.5943)">
<title>Adaptive_Partition</title>
<polygon fill="white" stroke="none" points="-4,4 -4,-52.5943 428,-52.5943 428,4 -4,4"/>
<!-- Node2 -->
<g id="node1" class="node"><title>Node2</title>
<polygon fill="#bfbfbf" stroke="black" points="0,-28.5 0,-47.5 98,-47.5 98,-28.5 0,-28.5"/>
<text text-anchor="middle" x="49" y="-35.5" font-family="Helvetica,sans-Serif" font-size="10.00">Adaptive_Partition</text>
</g>
<!-- Node3 -->
<g id="node2" class="node"><title>Node3</title>
<g id="a_node2"><a xlink:href="$a00846.html#ac00c3da2cf618cbfa9158463a851491e" xlink:title="ParMETIS_V3_AdaptiveRepart">
<polygon fill="white" stroke="black" points="268.5,-28.5 268.5,-47.5 423.5,-47.5 423.5,-28.5 268.5,-28.5"/>
<text text-anchor="middle" x="346" y="-35.5" font-family="Helvetica,sans-Serif" font-size="10.00">ParMETIS_V3_AdaptiveRepart</text>
</a>
</g>
</g>
<!-- Node2&#45;&gt;Node3 -->
<g id="edge1" class="edge"><title>Node2&#45;&gt;Node3</title>
<path fill="none" stroke="midnightblue" d="M108.327,-45.061C116.924,-45.8658 125.684,-46.5558 134,-47 177.494,-49.3234 188.479,-48.7304 232,-47 243.799,-46.5309 256.274,-45.7873 268.461,-44.9236"/>
<polygon fill="midnightblue" stroke="midnightblue" points="108.642,-41.5752 98.3458,-44.0714 107.952,-48.5411 108.642,-41.5752"/>
</g>
<!-- Node4 -->
<g id="node3" class="node"><title>Node4</title>
<g id="a_node3"><a xlink:href="$a00954.html#a1d2fe970dae698e29842b43085e1f853" xlink:title="Adaptive_Partition">
<polygon fill="white" stroke="black" points="134,-0.5 134,-19.5 232,-19.5 232,-0.5 134,-0.5"/>
<text text-anchor="middle" x="183" y="-7.5" font-family="Helvetica,sans-Serif" font-size="10.00">Adaptive_Partition</text>
</a>
</g>
</g>
<!-- Node2&#45;&gt;Node4 -->
<g id="edge2" class="edge"><title>Node2&#45;&gt;Node4</title>
<path fill="none" stroke="midnightblue" d="M105.129,-26.306C115.797,-24.0431 126.855,-21.6975 137.145,-19.5146"/>
<polygon fill="midnightblue" stroke="midnightblue" points="104.114,-22.9434 95.0577,-28.4423 105.566,-29.791 104.114,-22.9434"/>
</g>
<!-- Node4&#45;&gt;Node3 -->
<g id="edge3" class="edge"><title>Node4&#45;&gt;Node3</title>
<path fill="none" stroke="midnightblue" d="M242.37,-20.1513C257.992,-22.8681 274.819,-25.7946 290.238,-28.4762"/>
<polygon fill="midnightblue" stroke="midnightblue" points="242.757,-16.6662 232.305,-18.4009 241.558,-23.5627 242.757,-16.6662"/>
</g>
<!-- Node4&#45;&gt;Node4 -->
<g id="edge4" class="edge"><title>Node4&#45;&gt;Node4</title>
<path fill="none" stroke="midnightblue" d="M158.075,-29.0292C159.434,-34.128 167.743,-38 183,-38 206.816,-38 213.701,-28.5653 203.653,-19.7571"/>
<polygon fill="midnightblue" stroke="midnightblue" points="161.341,-30.304 162.347,-19.7571 154.983,-27.3747 161.341,-30.304"/>
</g>
</g>
</svg>
