<?xml version="1.0" encoding="UTF-8" standalone="no"?>
<!DOCTYPE svg PUBLIC "-//W3C//DTD SVG 1.1//EN"
 "http://www.w3.org/Graphics/SVG/1.1/DTD/svg11.dtd">
<!-- Generated by graphviz version 2.36.0 (20140111.2315)
 -->
<!-- Title: ParallelReMapGraph Pages: 1 -->
<svg width="382pt" height="28pt"
 viewBox="0.00 0.00 382.00 28.00" xmlns="http://www.w3.org/2000/svg" xmlns:xlink="http://www.w3.org/1999/xlink">
<g id="graph0" class="graph" transform="scale(1 1) rotate(0) translate(4 24)">
<title>ParallelReMapGraph</title>
<polygon fill="white" stroke="none" points="-4,4 -4,-24 378,-24 378,4 -4,4"/>
<!-- Node0 -->
<g id="node1" class="node"><title>Node0</title>
<polygon fill="#bfbfbf" stroke="black" points="0,-0.5 0,-19.5 110,-19.5 110,-0.5 0,-0.5"/>
<text text-anchor="middle" x="55" y="-7.5" font-family="Helvetica,sans-Serif" font-size="10.00">ParallelReMapGraph</text>
</g>
<!-- Node1 -->
<g id="node2" class="node"><title>Node1</title>
<g id="a_node2"><a xlink:href="$a00395.html#a2ee84cc2bb186c63e443c5b0dee580d1" xlink:title="ParallelTotalVReMap">
<polygon fill="white" stroke="black" points="146.5,-0.5 146.5,-19.5 257.5,-19.5 257.5,-0.5 146.5,-0.5"/>
<text text-anchor="middle" x="202" y="-7.5" font-family="Helvetica,sans-Serif" font-size="10.00">ParallelTotalVReMap</text>
</a>
</g>
</g>
<!-- Node0&#45;&gt;Node1 -->
<g id="edge1" class="edge"><title>Node0&#45;&gt;Node1</title>
<path fill="none" stroke="midnightblue" d="M110.405,-10C118.838,-10 127.62,-10 136.253,-10"/>
<polygon fill="midnightblue" stroke="midnightblue" points="136.29,-13.5001 146.29,-10 136.29,-6.5001 136.29,-13.5001"/>
</g>
<!-- Node2 -->
<g id="node3" class="node"><title>Node2</title>
<g id="a_node3"><a xlink:href="$a00395.html#a356dd9e7483362d83646d132426d89fe" xlink:title="SimilarTpwgts">
<polygon fill="white" stroke="black" points="294.5,-0.5 294.5,-19.5 373.5,-19.5 373.5,-0.5 294.5,-0.5"/>
<text text-anchor="middle" x="334" y="-7.5" font-family="Helvetica,sans-Serif" font-size="10.00">SimilarTpwgts</text>
</a>
</g>
</g>
<!-- Node1&#45;&gt;Node2 -->
<g id="edge2" class="edge"><title>Node1&#45;&gt;Node2</title>
<path fill="none" stroke="midnightblue" d="M257.755,-10C266.536,-10 275.573,-10 284.203,-10"/>
<polygon fill="midnightblue" stroke="midnightblue" points="284.484,-13.5001 294.484,-10 284.484,-6.5001 284.484,-13.5001"/>
</g>
</g>
</svg>
