<?xml version="1.0" encoding="UTF-8" standalone="no"?>
<!DOCTYPE svg PUBLIC "-//W3C//DTD SVG 1.1//EN"
 "http://www.w3.org/Graphics/SVG/1.1/DTD/svg11.dtd">
<!-- Generated by graphviz version 2.36.0 (20140111.2315)
 -->
<!-- Title: Mc_ComputeMoveStatistics Pages: 1 -->
<svg width="234pt" height="66pt"
 viewBox="0.00 0.00 234.00 66.00" xmlns="http://www.w3.org/2000/svg" xmlns:xlink="http://www.w3.org/1999/xlink">
<g id="graph0" class="graph" transform="scale(1 1) rotate(0) translate(4 62)">
<title>Mc_ComputeMoveStatistics</title>
<polygon fill="white" stroke="none" points="-4,4 -4,-62 230,-62 230,4 -4,4"/>
<!-- Node7 -->
<g id="node1" class="node"><title>Node7</title>
<polygon fill="#bfbfbf" stroke="black" points="0,-19.5 0,-38.5 140,-38.5 140,-19.5 0,-19.5"/>
<text text-anchor="middle" x="70" y="-26.5" font-family="Helvetica,sans-Serif" font-size="10.00">Mc_ComputeMoveStatistics</text>
</g>
<!-- Node8 -->
<g id="node2" class="node"><title>Node8</title>
<g id="a_node2"><a xlink:href="$a00563.html#ae338c28baa2c1bd1c7f9308a222c880f" xlink:title="if">
<polygon fill="white" stroke="black" points="186.5,-38.5 186.5,-57.5 215.5,-57.5 215.5,-38.5 186.5,-38.5"/>
<text text-anchor="middle" x="201" y="-45.5" font-family="Helvetica,sans-Serif" font-size="10.00">if</text>
</a>
</g>
</g>
<!-- Node7&#45;&gt;Node8 -->
<g id="edge1" class="edge"><title>Node7&#45;&gt;Node8</title>
<path fill="none" stroke="midnightblue" d="M135.878,-38.5557C150.332,-40.6846 164.761,-42.8097 176.261,-44.5035"/>
<polygon fill="midnightblue" stroke="midnightblue" points="175.891,-47.9867 186.294,-45.9813 176.911,-41.0614 175.891,-47.9867"/>
</g>
<!-- Node9 -->
<g id="node3" class="node"><title>Node9</title>
<g id="a_node3"><a xlink:href="$a00077.html#ac8df62c4e3d0910711a9874f9cc58884" xlink:title="gk_free">
<polygon fill="white" stroke="black" points="176,-0.5 176,-19.5 226,-19.5 226,-0.5 176,-0.5"/>
<text text-anchor="middle" x="201" y="-7.5" font-family="Helvetica,sans-Serif" font-size="10.00">gk_free</text>
</a>
</g>
</g>
<!-- Node7&#45;&gt;Node9 -->
<g id="edge2" class="edge"><title>Node7&#45;&gt;Node9</title>
<path fill="none" stroke="midnightblue" d="M135.878,-19.4443C146.271,-17.9135 156.652,-16.3846 165.94,-15.0167"/>
<polygon fill="midnightblue" stroke="midnightblue" points="166.521,-18.4689 175.904,-13.549 165.501,-11.5436 166.521,-18.4689"/>
</g>
</g>
</svg>
