<?xml version="1.0" encoding="UTF-8" standalone="no"?>
<!DOCTYPE svg PUBLIC "-//W3C//DTD SVG 1.1//EN"
 "http://www.w3.org/Graphics/SVG/1.1/DTD/svg11.dtd">
<!-- Generated by graphviz version 2.36.0 (20140111.2315)
 -->
<!-- Title: SimilarTpwgts Pages: 1 -->
<svg width="382pt" height="28pt"
 viewBox="0.00 0.00 382.00 28.00" xmlns="http://www.w3.org/2000/svg" xmlns:xlink="http://www.w3.org/1999/xlink">
<g id="graph0" class="graph" transform="scale(1 1) rotate(0) translate(4 24)">
<title>SimilarTpwgts</title>
<polygon fill="white" stroke="none" points="-4,4 -4,-24 378,-24 378,4 -4,4"/>
<!-- Node9 -->
<g id="node1" class="node"><title>Node9</title>
<polygon fill="#bfbfbf" stroke="black" points="0.5,-0.5 0.5,-19.5 79.5,-19.5 79.5,-0.5 0.5,-0.5"/>
<text text-anchor="middle" x="40" y="-7.5" font-family="Helvetica,sans-Serif" font-size="10.00">SimilarTpwgts</text>
</g>
<!-- Node10 -->
<g id="node2" class="node"><title>Node10</title>
<g id="a_node2"><a xlink:href="$a00395.html#a2ee84cc2bb186c63e443c5b0dee580d1" xlink:title="ParallelTotalVReMap">
<polygon fill="white" stroke="black" points="116.5,-0.5 116.5,-19.5 227.5,-19.5 227.5,-0.5 116.5,-0.5"/>
<text text-anchor="middle" x="172" y="-7.5" font-family="Helvetica,sans-Serif" font-size="10.00">ParallelTotalVReMap</text>
</a>
</g>
</g>
<!-- Node9&#45;&gt;Node10 -->
<g id="edge1" class="edge"><title>Node9&#45;&gt;Node10</title>
<path fill="none" stroke="midnightblue" d="M89.9366,-10C98.5683,-10 107.603,-10 116.379,-10"/>
<polygon fill="midnightblue" stroke="midnightblue" points="89.6523,-6.5001 79.6523,-10 89.6523,-13.5001 89.6523,-6.5001"/>
</g>
<!-- Node11 -->
<g id="node3" class="node"><title>Node11</title>
<g id="a_node3"><a xlink:href="$a00395.html#a88aeef4a2abd395ed5ef87820593d791" xlink:title="ParallelReMapGraph">
<polygon fill="white" stroke="black" points="264,-0.5 264,-19.5 374,-19.5 374,-0.5 264,-0.5"/>
<text text-anchor="middle" x="319" y="-7.5" font-family="Helvetica,sans-Serif" font-size="10.00">ParallelReMapGraph</text>
</a>
</g>
</g>
<!-- Node10&#45;&gt;Node11 -->
<g id="edge2" class="edge"><title>Node10&#45;&gt;Node11</title>
<path fill="none" stroke="midnightblue" d="M237.824,-10C246.429,-10 255.18,-10 263.585,-10"/>
<polygon fill="midnightblue" stroke="midnightblue" points="237.818,-6.5001 227.818,-10 237.818,-13.5001 237.818,-6.5001"/>
</g>
</g>
</svg>
