<?xml version="1.0" encoding="UTF-8" standalone="no"?>
<!DOCTYPE svg PUBLIC "-//W3C//DTD SVG 1.1//EN"
 "http://www.w3.org/Graphics/SVG/1.1/DTD/svg11.dtd">
<!-- Generated by graphviz version 2.36.0 (20140111.2315)
 -->
<!-- Title: ArcSyn3sis/3rdParty/parmetis&#45;4.0.3/metis/programs/metisbin.h Pages: 1 -->
<!--zoomable 218 -->
<svg id="main" version="1.1" xmlns="http://www.w3.org/2000/svg" xmlns:xlink="http://www.w3.org/1999/xlink" xml:space="preserve" onload="init(evt)">
<style type="text/css"><![CDATA[
.edge:hover path { stroke: red; }
.edge:hover polygon { stroke: red; fill: red; }
]]></style>
<script type="text/javascript"><![CDATA[
var edges = document.getElementsByTagName('g');
if (edges && edges.length) {
  for (var i=0;i<edges.length;i++) {
    if (edges[i].id.substr(0,4)=='edge') {
      edges[i].setAttribute('class','edge');
    }
  }
}
]]></script>
        <defs>
                <circle id="rim" cx="0" cy="0" r="7"/>
                <circle id="rim2" cx="0" cy="0" r="3.5"/>
                <g id="zoomPlus">
                        <use xlink:href="#rim" fill="#404040">
                                <set attributeName="fill" to="#808080" begin="zoomplus.mouseover" end="zoomplus.mouseout"/>
                        </use>
                        <path d="M-4,0h8M0,-4v8" fill="none" stroke="white" stroke-width="1.5" pointer-events="none"/>
                </g>
                <g id="zoomMin">
                        <use xlink:href="#rim" fill="#404040">
                                <set attributeName="fill" to="#808080" begin="zoomminus.mouseover" end="zoomminus.mouseout"/>
                        </use>
                        <path d="M-4,0h8" fill="none" stroke="white" stroke-width="1.5" pointer-events="none"/>
                </g>
                <g id="dirArrow">
                        <path fill="none" stroke="white" stroke-width="1.5" d="M0,-3.0v7 M-2.5,-0.5L0,-3.0L2.5,-0.5"/>
                </g>
               <g id="resetDef">
                       <use xlink:href="#rim2" fill="#404040">
                               <set attributeName="fill" to="#808080" begin="reset.mouseover" end="reset.mouseout"/>
                       </use>
               </g>
        </defs>

<script type="text/javascript">
var viewWidth = 2640;
var viewHeight = 218;
var sectionId = 'dynsection-0';
</script>
<script xlink:href="svgpan.js"/>
<svg id="graph" class="graph">
<g id="viewport">
<title>ArcSyn3sis/3rdParty/parmetis&#45;4.0.3/metis/programs/metisbin.h</title>
<polygon fill="white" stroke="none" points="-4,4 -4,-214 2636,-214 2636,4 -4,4"/>
<!-- Node0 -->
<g id="node1" class="node"><title>Node0</title>
<polygon fill="#bfbfbf" stroke="black" points="671,-168.5 671,-209.5 781,-209.5 781,-168.5 671,-168.5"/>
<text text-anchor="start" x="679" y="-197.5" font-family="Helvetica,sans-Serif" font-size="10.00">ArcSyn3sis/3rdParty</text>
<text text-anchor="start" x="679" y="-186.5" font-family="Helvetica,sans-Serif" font-size="10.00">/parmetis&#45;4.0.3/metis</text>
<text text-anchor="middle" x="726" y="-175.5" font-family="Helvetica,sans-Serif" font-size="10.00">/programs/metisbin.h</text>
</g>
<!-- Node1 -->
<g id="node2" class="node"><title>Node1</title>
<g id="a_node2"><a xlink:href="a00086.html" target="_top" xlink:title="GKlib.h">
<polygon fill="white" stroke="black" points="754.5,-112.5 754.5,-131.5 803.5,-131.5 803.5,-112.5 754.5,-112.5"/>
<text text-anchor="middle" x="779" y="-119.5" font-family="Helvetica,sans-Serif" font-size="10.00">GKlib.h</text>
</a>
</g>
</g>
<!-- Node0&#45;&gt;Node1 -->
<g id="edge1" class="edge"><title>Node0&#45;&gt;Node1</title>
<path fill="none" stroke="midnightblue" d="M741.902,-168.498C749.403,-159.299 758.26,-148.436 765.438,-139.632"/>
<polygon fill="midnightblue" stroke="midnightblue" points="768.338,-141.614 771.945,-131.652 762.913,-137.191 768.338,-141.614"/>
</g>
<!-- Node8 -->
<g id="node9" class="node"><title>Node8</title>
<polygon fill="white" stroke="#bfbfbf" points="0,-56.5 0,-75.5 52,-75.5 52,-56.5 0,-56.5"/>
<text text-anchor="middle" x="26" y="-63.5" font-family="Helvetica,sans-Serif" font-size="10.00">stddef.h</text>
</g>
<!-- Node0&#45;&gt;Node8 -->
<g id="edge38" class="edge"><title>Node0&#45;&gt;Node8</title>
<path fill="none" stroke="midnightblue" d="M670.63,-186.374C574.801,-182.603 372.328,-170.403 206,-132 150.901,-119.278 89.5035,-94.7416 54.5373,-79.7232"/>
<polygon fill="midnightblue" stroke="midnightblue" points="55.5531,-76.3486 44.9866,-75.5744 52.7641,-82.769 55.5531,-76.3486"/>
</g>
<!-- Node9 -->
<g id="node10" class="node"><title>Node9</title>
<polygon fill="white" stroke="#bfbfbf" points="70,-56.5 70,-75.5 118,-75.5 118,-56.5 70,-56.5"/>
<text text-anchor="middle" x="94" y="-63.5" font-family="Helvetica,sans-Serif" font-size="10.00">stdlib.h</text>
</g>
<!-- Node0&#45;&gt;Node9 -->
<g id="edge39" class="edge"><title>Node0&#45;&gt;Node9</title>
<path fill="none" stroke="midnightblue" d="M670.936,-185.043C585.425,-179.582 415.973,-165.279 276,-132 220.354,-118.77 158.113,-94.3369 122.736,-79.4876"/>
<polygon fill="midnightblue" stroke="midnightblue" points="124.071,-76.252 113.498,-75.5707 121.339,-82.6967 124.071,-76.252"/>
</g>
<!-- Node10 -->
<g id="node11" class="node"><title>Node10</title>
<polygon fill="white" stroke="#bfbfbf" points="136.5,-56.5 136.5,-75.5 189.5,-75.5 189.5,-56.5 136.5,-56.5"/>
<text text-anchor="middle" x="163" y="-63.5" font-family="Helvetica,sans-Serif" font-size="10.00">stdarg.h</text>
</g>
<!-- Node0&#45;&gt;Node10 -->
<g id="edge40" class="edge"><title>Node0&#45;&gt;Node10</title>
<path fill="none" stroke="midnightblue" d="M670.915,-183.281C596.404,-176.131 459.733,-160.291 346,-132 290.374,-118.163 227.919,-94.0359 192.24,-79.3896"/>
<polygon fill="midnightblue" stroke="midnightblue" points="193.493,-76.1203 182.915,-75.5265 190.814,-82.5873 193.493,-76.1203"/>
</g>
<!-- Node11 -->
<g id="node12" class="node"><title>Node11</title>
<polygon fill="white" stroke="#bfbfbf" points="208,-56.5 208,-75.5 254,-75.5 254,-56.5 208,-56.5"/>
<text text-anchor="middle" x="231" y="-63.5" font-family="Helvetica,sans-Serif" font-size="10.00">stdio.h</text>
</g>
<!-- Node0&#45;&gt;Node11 -->
<g id="edge41" class="edge"><title>Node0&#45;&gt;Node11</title>
<path fill="none" stroke="midnightblue" d="M670.952,-181.258C607.215,-172.768 499.404,-156.29 409,-132 355.503,-117.626 295.375,-94.0409 260.482,-79.5798"/>
<polygon fill="midnightblue" stroke="midnightblue" points="261.493,-76.2091 250.917,-75.5817 258.793,-82.6676 261.493,-76.2091"/>
</g>
<!-- Node13 -->
<g id="node14" class="node"><title>Node13</title>
<polygon fill="white" stroke="#bfbfbf" points="272.5,-56.5 272.5,-75.5 321.5,-75.5 321.5,-56.5 272.5,-56.5"/>
<text text-anchor="middle" x="297" y="-63.5" font-family="Helvetica,sans-Serif" font-size="10.00">ctype.h</text>
</g>
<!-- Node0&#45;&gt;Node13 -->
<g id="edge42" class="edge"><title>Node0&#45;&gt;Node13</title>
<path fill="none" stroke="midnightblue" d="M670.988,-178.343C618.75,-168.616 538.28,-152.181 470,-132 418.472,-116.77 360.326,-93.6499 326.272,-79.4801"/>
<polygon fill="midnightblue" stroke="midnightblue" points="327.497,-76.1986 316.921,-75.5618 324.791,-82.6547 327.497,-76.1986"/>
</g>
<!-- Node14 -->
<g id="node15" class="node"><title>Node14</title>
<polygon fill="white" stroke="#bfbfbf" points="339.5,-56.5 339.5,-75.5 386.5,-75.5 386.5,-56.5 339.5,-56.5"/>
<text text-anchor="middle" x="363" y="-63.5" font-family="Helvetica,sans-Serif" font-size="10.00">math.h</text>
</g>
<!-- Node0&#45;&gt;Node14 -->
<g id="edge43" class="edge"><title>Node0&#45;&gt;Node14</title>
<path fill="none" stroke="midnightblue" d="M670.792,-173.832C631.056,-163.265 576.34,-147.956 529,-132 480.493,-115.651 425.376,-93.2963 392.436,-79.52"/>
<polygon fill="midnightblue" stroke="midnightblue" points="393.532,-76.1842 382.957,-75.5362 390.82,-82.6375 393.532,-76.1842"/>
</g>
<!-- Node16 -->
<g id="node17" class="node"><title>Node16</title>
<polygon fill="white" stroke="#bfbfbf" points="405,-56.5 405,-75.5 449,-75.5 449,-56.5 405,-56.5"/>
<text text-anchor="middle" x="427" y="-63.5" font-family="Helvetica,sans-Serif" font-size="10.00">time.h</text>
</g>
<!-- Node0&#45;&gt;Node16 -->
<g id="edge44" class="edge"><title>Node0&#45;&gt;Node16</title>
<path fill="none" stroke="midnightblue" d="M672.689,-168.485C644.431,-157.976 609.201,-144.611 578,-132 535.207,-114.704 486.222,-93.321 455.944,-79.9171"/>
<polygon fill="midnightblue" stroke="midnightblue" points="456.99,-76.5518 446.43,-75.6947 454.15,-82.9501 456.99,-76.5518"/>
</g>
<!-- Node17 -->
<g id="node18" class="node"><title>Node17</title>
<polygon fill="white" stroke="#bfbfbf" points="467.5,-56.5 467.5,-75.5 516.5,-75.5 516.5,-56.5 467.5,-56.5"/>
<text text-anchor="middle" x="492" y="-63.5" font-family="Helvetica,sans-Serif" font-size="10.00">string.h</text>
</g>
<!-- Node0&#45;&gt;Node17 -->
<g id="edge45" class="edge"><title>Node0&#45;&gt;Node17</title>
<path fill="none" stroke="midnightblue" d="M688.144,-168.425C640.244,-143.656 559.027,-101.659 517.745,-80.3124"/>
<polygon fill="midnightblue" stroke="midnightblue" points="519.114,-77.0802 508.624,-75.596 515.899,-83.2982 519.114,-77.0802"/>
</g>
<!-- Node18 -->
<g id="node19" class="node"><title>Node18</title>
<polygon fill="white" stroke="#bfbfbf" points="535,-56.5 535,-75.5 583,-75.5 583,-56.5 535,-56.5"/>
<text text-anchor="middle" x="559" y="-63.5" font-family="Helvetica,sans-Serif" font-size="10.00">limits.h</text>
</g>
<!-- Node0&#45;&gt;Node18 -->
<g id="edge46" class="edge"><title>Node0&#45;&gt;Node18</title>
<path fill="none" stroke="midnightblue" d="M698.797,-168.29C665.293,-144.015 609.154,-103.339 579.227,-81.6554"/>
<polygon fill="midnightblue" stroke="midnightblue" points="580.986,-78.6079 570.835,-75.5748 576.879,-84.2764 580.986,-78.6079"/>
</g>
<!-- Node19 -->
<g id="node20" class="node"><title>Node19</title>
<polygon fill="white" stroke="#bfbfbf" points="601.5,-56.5 601.5,-75.5 652.5,-75.5 652.5,-56.5 601.5,-56.5"/>
<text text-anchor="middle" x="627" y="-63.5" font-family="Helvetica,sans-Serif" font-size="10.00">signal.h</text>
</g>
<!-- Node0&#45;&gt;Node19 -->
<g id="edge47" class="edge"><title>Node0&#45;&gt;Node19</title>
<path fill="none" stroke="midnightblue" d="M709.874,-168.29C690.526,-144.642 658.445,-105.432 640.398,-83.3753"/>
<polygon fill="midnightblue" stroke="midnightblue" points="643.057,-81.0981 634.016,-75.5748 637.639,-85.5307 643.057,-81.0981"/>
</g>
<!-- Node20 -->
<g id="node21" class="node"><title>Node20</title>
<polygon fill="white" stroke="#bfbfbf" points="671,-56.5 671,-75.5 725,-75.5 725,-56.5 671,-56.5"/>
<text text-anchor="middle" x="698" y="-63.5" font-family="Helvetica,sans-Serif" font-size="10.00">setjmp.h</text>
</g>
<!-- Node0&#45;&gt;Node20 -->
<g id="edge48" class="edge"><title>Node0&#45;&gt;Node20</title>
<path fill="none" stroke="midnightblue" d="M720.918,-168.342C718.188,-157.62 714.816,-144.103 712,-132 708.399,-116.521 704.622,-98.8922 701.9,-85.9024"/>
<polygon fill="midnightblue" stroke="midnightblue" points="705.273,-84.93 699.81,-75.8519 698.42,-86.355 705.273,-84.93"/>
</g>
<!-- Node21 -->
<g id="node22" class="node"><title>Node21</title>
<polygon fill="white" stroke="#bfbfbf" points="743,-56.5 743,-75.5 795,-75.5 795,-56.5 743,-56.5"/>
<text text-anchor="middle" x="769" y="-63.5" font-family="Helvetica,sans-Serif" font-size="10.00">assert.h</text>
</g>
<!-- Node0&#45;&gt;Node21 -->
<g id="edge49" class="edge"><title>Node0&#45;&gt;Node21</title>
<path fill="none" stroke="midnightblue" d="M729.558,-168.227C732.69,-152.645 737.866,-130.531 745,-112 748.618,-102.601 753.76,-92.6698 758.356,-84.5354"/>
<polygon fill="midnightblue" stroke="midnightblue" points="761.52,-86.0586 763.553,-75.6607 755.48,-82.521 761.52,-86.0586"/>
</g>
<!-- Node38 -->
<g id="node39" class="node"><title>Node38</title>
<polygon fill="white" stroke="#bfbfbf" points="821.5,-112.5 821.5,-131.5 870.5,-131.5 870.5,-112.5 821.5,-112.5"/>
<text text-anchor="middle" x="846" y="-119.5" font-family="Helvetica,sans-Serif" font-size="10.00">metis.h</text>
</g>
<!-- Node0&#45;&gt;Node38 -->
<g id="edge50" class="edge"><title>Node0&#45;&gt;Node38</title>
<path fill="none" stroke="midnightblue" d="M762.004,-168.498C781.11,-158.149 804.102,-145.695 821.198,-136.435"/>
<polygon fill="midnightblue" stroke="midnightblue" points="822.9,-139.493 830.026,-131.652 819.566,-133.338 822.9,-139.493"/>
</g>
<!-- Node39 -->
<g id="node40" class="node"><title>Node39</title>
<g id="a_node40"><a xlink:href="a00960.html" target="_top" xlink:title="../libmetis/rename.h">
<polygon fill="white" stroke="black" points="889,-112.5 889,-131.5 993,-131.5 993,-112.5 889,-112.5"/>
<text text-anchor="middle" x="941" y="-119.5" font-family="Helvetica,sans-Serif" font-size="10.00">../libmetis/rename.h</text>
</a>
</g>
</g>
<!-- Node0&#45;&gt;Node39 -->
<g id="edge51" class="edge"><title>Node0&#45;&gt;Node39</title>
<path fill="none" stroke="midnightblue" d="M781.089,-171.345C819.199,-159.824 868.945,-144.784 902.764,-134.56"/>
<polygon fill="midnightblue" stroke="midnightblue" points="904.158,-137.795 912.717,-131.551 902.132,-131.094 904.158,-137.795"/>
</g>
<!-- Node40 -->
<g id="node41" class="node"><title>Node40</title>
<g id="a_node41"><a xlink:href="a00209.html" target="_top" xlink:title="Data structures and prototypes for GKlib integration. ">
<polygon fill="white" stroke="black" points="1011.5,-112.5 1011.5,-131.5 1126.5,-131.5 1126.5,-112.5 1011.5,-112.5"/>
<text text-anchor="middle" x="1069" y="-119.5" font-family="Helvetica,sans-Serif" font-size="10.00">../libmetis/gklib_defs.h</text>
</a>
</g>
</g>
<!-- Node0&#45;&gt;Node40 -->
<g id="edge52" class="edge"><title>Node0&#45;&gt;Node40</title>
<path fill="none" stroke="midnightblue" d="M781.109,-177.557C845.102,-165.43 950.03,-145.545 1013.98,-133.426"/>
<polygon fill="midnightblue" stroke="midnightblue" points="1014.71,-136.851 1023.88,-131.55 1013.41,-129.973 1014.71,-136.851"/>
</g>
<!-- Node42 -->
<g id="node43" class="node"><title>Node42</title>
<g id="a_node43"><a xlink:href="a00891.html" target="_top" xlink:title="../libmetis/defs.h">
<polygon fill="white" stroke="black" points="1144.5,-112.5 1144.5,-131.5 1233.5,-131.5 1233.5,-112.5 1144.5,-112.5"/>
<text text-anchor="middle" x="1189" y="-119.5" font-family="Helvetica,sans-Serif" font-size="10.00">../libmetis/defs.h</text>
</a>
</g>
</g>
<!-- Node0&#45;&gt;Node42 -->
<g id="edge54" class="edge"><title>Node0&#45;&gt;Node42</title>
<path fill="none" stroke="midnightblue" d="M781.312,-180.945C858.068,-171.041 1001.48,-152.121 1134.28,-132.072"/>
<polygon fill="midnightblue" stroke="midnightblue" points="1134.86,-135.524 1144.23,-130.565 1133.82,-128.602 1134.86,-135.524"/>
</g>
<!-- Node43 -->
<g id="node44" class="node"><title>Node43</title>
<g id="a_node44"><a xlink:href="a00975.html" target="_top" xlink:title="../libmetis/struct.h">
<polygon fill="white" stroke="black" points="1252,-112.5 1252,-131.5 1346,-131.5 1346,-112.5 1252,-112.5"/>
<text text-anchor="middle" x="1299" y="-119.5" font-family="Helvetica,sans-Serif" font-size="10.00">../libmetis/struct.h</text>
</a>
</g>
</g>
<!-- Node0&#45;&gt;Node43 -->
<g id="edge55" class="edge"><title>Node0&#45;&gt;Node43</title>
<path fill="none" stroke="midnightblue" d="M781.089,-182.906C873.77,-174.143 1066.98,-155.042 1241.6,-131.989"/>
<polygon fill="midnightblue" stroke="midnightblue" points="1242.3,-135.427 1251.75,-130.642 1241.37,-128.488 1242.3,-135.427"/>
</g>
<!-- Node44 -->
<g id="node45" class="node"><title>Node44</title>
<g id="a_node45"><a xlink:href="a00924.html" target="_top" xlink:title="../libmetis/macros.h">
<polygon fill="white" stroke="black" points="1364.5,-112.5 1364.5,-131.5 1467.5,-131.5 1467.5,-112.5 1364.5,-112.5"/>
<text text-anchor="middle" x="1416" y="-119.5" font-family="Helvetica,sans-Serif" font-size="10.00">../libmetis/macros.h</text>
</a>
</g>
</g>
<!-- Node0&#45;&gt;Node44 -->
<g id="edge56" class="edge"><title>Node0&#45;&gt;Node44</title>
<path fill="none" stroke="midnightblue" d="M781.22,-184.16C889.16,-176.42 1135.89,-157.577 1354.39,-132.004"/>
<polygon fill="midnightblue" stroke="midnightblue" points="1354.92,-135.466 1364.44,-130.82 1354.1,-128.514 1354.92,-135.466"/>
</g>
<!-- Node45 -->
<g id="node46" class="node"><title>Node45</title>
<g id="a_node46"><a xlink:href="a00948.html" target="_top" xlink:title="../libmetis/proto.h">
<polygon fill="white" stroke="black" points="1485.5,-112.5 1485.5,-131.5 1578.5,-131.5 1578.5,-112.5 1485.5,-112.5"/>
<text text-anchor="middle" x="1532" y="-119.5" font-family="Helvetica,sans-Serif" font-size="10.00">../libmetis/proto.h</text>
</a>
</g>
</g>
<!-- Node0&#45;&gt;Node45 -->
<g id="edge57" class="edge"><title>Node0&#45;&gt;Node45</title>
<path fill="none" stroke="midnightblue" d="M781.199,-185.485C903.968,-179.543 1209.09,-162.861 1475.05,-132.008"/>
<polygon fill="midnightblue" stroke="midnightblue" points="1475.76,-135.448 1485.29,-130.811 1474.95,-128.496 1475.76,-135.448"/>
</g>
<!-- Node46 -->
<g id="node47" class="node"><title>Node46</title>
<g id="a_node47"><a xlink:href="a00894.html" target="_top" xlink:title="defs.h">
<polygon fill="white" stroke="black" points="1597,-112.5 1597,-131.5 1641,-131.5 1641,-112.5 1597,-112.5"/>
<text text-anchor="middle" x="1619" y="-119.5" font-family="Helvetica,sans-Serif" font-size="10.00">defs.h</text>
</a>
</g>
</g>
<!-- Node0&#45;&gt;Node46 -->
<g id="edge58" class="edge"><title>Node0&#45;&gt;Node46</title>
<path fill="none" stroke="midnightblue" d="M781.112,-188.39C916.871,-188.502 1278.11,-183.641 1586.72,-131.61"/>
<polygon fill="midnightblue" stroke="midnightblue" points="1587.49,-135.03 1596.76,-129.898 1586.31,-128.129 1587.49,-135.03"/>
</g>
<!-- Node47 -->
<g id="node48" class="node"><title>Node47</title>
<g id="a_node48"><a xlink:href="a00978.html" target="_top" xlink:title="struct.h">
<polygon fill="white" stroke="black" points="1659.5,-112.5 1659.5,-131.5 1708.5,-131.5 1708.5,-112.5 1659.5,-112.5"/>
<text text-anchor="middle" x="1684" y="-119.5" font-family="Helvetica,sans-Serif" font-size="10.00">struct.h</text>
</a>
</g>
</g>
<!-- Node0&#45;&gt;Node47 -->
<g id="edge59" class="edge"><title>Node0&#45;&gt;Node47</title>
<path fill="none" stroke="midnightblue" d="M781.093,-188.45C923.505,-188.806 1315.4,-184.653 1648.89,-131.819"/>
<polygon fill="midnightblue" stroke="midnightblue" points="1649.92,-135.199 1659.24,-130.161 1648.81,-128.288 1649.92,-135.199"/>
</g>
<!-- Node48 -->
<g id="node49" class="node"><title>Node48</title>
<g id="a_node49"><a xlink:href="a00951.html" target="_top" xlink:title="proto.h">
<polygon fill="white" stroke="black" points="1727,-112.5 1727,-131.5 1775,-131.5 1775,-112.5 1727,-112.5"/>
<text text-anchor="middle" x="1751" y="-119.5" font-family="Helvetica,sans-Serif" font-size="10.00">proto.h</text>
</a>
</g>
</g>
<!-- Node0&#45;&gt;Node48 -->
<g id="edge60" class="edge"><title>Node0&#45;&gt;Node48</title>
<path fill="none" stroke="midnightblue" d="M781.295,-186.349C962.08,-180.72 1534.47,-161.008 1717,-132 1717.1,-131.984 1717.2,-131.967 1717.31,-131.951"/>
<polygon fill="midnightblue" stroke="midnightblue" points="1717.87,-135.407 1726.98,-130.001 1716.49,-128.545 1717.87,-135.407"/>
</g>
<!-- Node2 -->
<g id="node3" class="node"><title>Node2</title>
<g id="a_node3"><a xlink:href="a00041.html" target="_top" xlink:title="This file contains various architecture&#45;specific declerations. ">
<polygon fill="white" stroke="black" points="2388,-56.5 2388,-75.5 2448,-75.5 2448,-56.5 2388,-56.5"/>
<text text-anchor="middle" x="2418" y="-63.5" font-family="Helvetica,sans-Serif" font-size="10.00">gk_arch.h</text>
</a>
</g>
</g>
<!-- Node1&#45;&gt;Node2 -->
<g id="edge2" class="edge"><title>Node1&#45;&gt;Node2</title>
<path fill="none" stroke="midnightblue" d="M803.729,-113.562C806.5,-112.936 809.297,-112.394 812,-112 1498.07,-12.0886 1686.01,-161.338 2377.91,-75.8339"/>
<polygon fill="midnightblue" stroke="midnightblue" points="2378.39,-79.3019 2387.88,-74.5907 2377.52,-72.3558 2378.39,-79.3019"/>
</g>
<!-- Node1&#45;&gt;Node8 -->
<g id="edge8" class="edge"><title>Node1&#45;&gt;Node8</title>
<path fill="none" stroke="midnightblue" d="M754.329,-121.136C663.384,-121.286 338.3,-118.723 62.4646,-75.926"/>
<polygon fill="midnightblue" stroke="midnightblue" points="62.6839,-72.4176 52.2615,-74.3209 61.596,-79.3325 62.6839,-72.4176"/>
</g>
<!-- Node1&#45;&gt;Node9 -->
<g id="edge9" class="edge"><title>Node1&#45;&gt;Node9</title>
<path fill="none" stroke="midnightblue" d="M754.221,-121.042C668.518,-120.823 376.76,-117.028 127.976,-75.814"/>
<polygon fill="midnightblue" stroke="midnightblue" points="128.47,-72.3481 118.028,-74.1421 127.31,-79.2513 128.47,-72.3481"/>
</g>
<!-- Node1&#45;&gt;Node10 -->
<g id="edge10" class="edge"><title>Node1&#45;&gt;Node10</title>
<path fill="none" stroke="midnightblue" d="M754.232,-120.559C674.906,-118.836 419.96,-110.896 199.76,-75.8229"/>
<polygon fill="midnightblue" stroke="midnightblue" points="200.063,-72.3265 189.633,-74.1864 198.947,-79.2369 200.063,-72.3265"/>
</g>
<!-- Node1&#45;&gt;Node11 -->
<g id="edge11" class="edge"><title>Node1&#45;&gt;Node11</title>
<path fill="none" stroke="midnightblue" d="M754.341,-120.483C680.977,-118.603 457.684,-110.404 264.357,-75.9201"/>
<polygon fill="midnightblue" stroke="midnightblue" points="264.764,-72.4371 254.3,-74.0974 263.516,-79.3248 264.764,-72.4371"/>
</g>
<!-- Node12 -->
<g id="node13" class="node"><title>Node12</title>
<polygon fill="white" stroke="#bfbfbf" points="813,-56.5 813,-75.5 861,-75.5 861,-56.5 813,-56.5"/>
<text text-anchor="middle" x="837" y="-63.5" font-family="Helvetica,sans-Serif" font-size="10.00">errno.h</text>
</g>
<!-- Node1&#45;&gt;Node12 -->
<g id="edge12" class="edge"><title>Node1&#45;&gt;Node12</title>
<path fill="none" stroke="midnightblue" d="M788.319,-112.324C796.893,-104.341 809.812,-92.3128 820.188,-82.6529"/>
<polygon fill="midnightblue" stroke="midnightblue" points="822.578,-85.2098 827.512,-75.8339 817.808,-80.0865 822.578,-85.2098"/>
</g>
<!-- Node1&#45;&gt;Node13 -->
<g id="edge13" class="edge"><title>Node1&#45;&gt;Node13</title>
<path fill="none" stroke="midnightblue" d="M754.463,-119.976C687.823,-116.893 497.846,-106.098 331.666,-76.0476"/>
<polygon fill="midnightblue" stroke="midnightblue" points="332.232,-72.5931 321.764,-74.2287 330.967,-79.478 332.232,-72.5931"/>
</g>
<!-- Node1&#45;&gt;Node14 -->
<g id="edge14" class="edge"><title>Node1&#45;&gt;Node14</title>
<path fill="none" stroke="midnightblue" d="M754.159,-119.372C694.313,-115.178 537.341,-102.556 396.784,-75.8629"/>
<polygon fill="midnightblue" stroke="midnightblue" points="397.175,-72.374 386.693,-73.9166 395.849,-79.2473 397.175,-72.374"/>
</g>
<!-- Node15 -->
<g id="node16" class="node"><title>Node15</title>
<polygon fill="white" stroke="#bfbfbf" points="879,-56.5 879,-75.5 923,-75.5 923,-56.5 879,-56.5"/>
<text text-anchor="middle" x="901" y="-63.5" font-family="Helvetica,sans-Serif" font-size="10.00">float.h</text>
</g>
<!-- Node1&#45;&gt;Node15 -->
<g id="edge15" class="edge"><title>Node1&#45;&gt;Node15</title>
<path fill="none" stroke="midnightblue" d="M798.331,-112.444C818.32,-103.596 849.743,-89.6875 872.564,-79.5865"/>
<polygon fill="midnightblue" stroke="midnightblue" points="874.032,-82.7645 881.759,-75.5164 871.198,-76.3635 874.032,-82.7645"/>
</g>
<!-- Node1&#45;&gt;Node16 -->
<g id="edge16" class="edge"><title>Node1&#45;&gt;Node16</title>
<path fill="none" stroke="midnightblue" d="M754.224,-118.749C701.596,-113.708 574.689,-100.182 459.311,-76.0148"/>
<polygon fill="midnightblue" stroke="midnightblue" points="459.763,-72.5329 449.254,-73.8746 458.306,-79.3795 459.763,-72.5329"/>
</g>
<!-- Node1&#45;&gt;Node17 -->
<g id="edge17" class="edge"><title>Node1&#45;&gt;Node17</title>
<path fill="none" stroke="midnightblue" d="M754.443,-117.325C710.681,-110.627 616.161,-95.4931 526.593,-75.9757"/>
<polygon fill="midnightblue" stroke="midnightblue" points="527.343,-72.5571 516.825,-73.8249 525.838,-79.3934 527.343,-72.5571"/>
</g>
<!-- Node1&#45;&gt;Node18 -->
<g id="edge18" class="edge"><title>Node1&#45;&gt;Node18</title>
<path fill="none" stroke="midnightblue" d="M754.437,-115.338C720.384,-107.434 656.676,-92.4554 592.94,-76.1855"/>
<polygon fill="midnightblue" stroke="midnightblue" points="593.684,-72.7631 583.128,-73.6704 591.946,-79.5439 593.684,-72.7631"/>
</g>
<!-- Node1&#45;&gt;Node19 -->
<g id="edge19" class="edge"><title>Node1&#45;&gt;Node19</title>
<path fill="none" stroke="midnightblue" d="M754.915,-112.444C729.455,-103.399 689.106,-89.064 660.541,-78.9158"/>
<polygon fill="midnightblue" stroke="midnightblue" points="661.567,-75.5661 650.972,-75.5164 659.223,-82.1622 661.567,-75.5661"/>
</g>
<!-- Node1&#45;&gt;Node20 -->
<g id="edge20" class="edge"><title>Node1&#45;&gt;Node20</title>
<path fill="none" stroke="midnightblue" d="M765.986,-112.324C753.468,-103.979 734.318,-91.2122 719.529,-81.3524"/>
<polygon fill="midnightblue" stroke="midnightblue" points="721.244,-78.2894 710.982,-75.6545 717.361,-84.1137 721.244,-78.2894"/>
</g>
<!-- Node1&#45;&gt;Node21 -->
<g id="edge21" class="edge"><title>Node1&#45;&gt;Node21</title>
<path fill="none" stroke="midnightblue" d="M777.349,-112.083C776.024,-104.927 774.118,-94.6353 772.461,-85.6911"/>
<polygon fill="midnightblue" stroke="midnightblue" points="775.883,-84.9466 770.621,-75.7511 769,-86.2212 775.883,-84.9466"/>
</g>
<!-- Node22 -->
<g id="node23" class="node"><title>Node22</title>
<polygon fill="white" stroke="#bfbfbf" points="941.5,-56.5 941.5,-75.5 1000.5,-75.5 1000.5,-56.5 941.5,-56.5"/>
<text text-anchor="middle" x="971" y="-63.5" font-family="Helvetica,sans-Serif" font-size="10.00">sys/stat.h</text>
</g>
<!-- Node1&#45;&gt;Node22 -->
<g id="edge22" class="edge"><title>Node1&#45;&gt;Node22</title>
<path fill="none" stroke="midnightblue" d="M803.708,-114.051C836.062,-104.951 893.168,-88.8902 931.544,-78.0971"/>
<polygon fill="midnightblue" stroke="midnightblue" points="932.673,-81.4153 941.352,-75.3385 930.778,-74.6768 932.673,-81.4153"/>
</g>
<!-- Node23 -->
<g id="node24" class="node"><title>Node23</title>
<polygon fill="white" stroke="#bfbfbf" points="1019,-56.5 1019,-75.5 1069,-75.5 1069,-56.5 1019,-56.5"/>
<text text-anchor="middle" x="1044" y="-63.5" font-family="Helvetica,sans-Serif" font-size="10.00">regex.h</text>
</g>
<!-- Node1&#45;&gt;Node23 -->
<g id="edge23" class="edge"><title>Node1&#45;&gt;Node23</title>
<path fill="none" stroke="midnightblue" d="M803.809,-113.99C806.564,-113.284 809.336,-112.605 812,-112 898.792,-92.2725 922.067,-95.095 1009,-76 1009.1,-75.9781 1009.2,-75.9562 1009.3,-75.9341"/>
<polygon fill="midnightblue" stroke="midnightblue" points="1009.88,-79.3932 1018.82,-73.7035 1008.28,-72.5779 1009.88,-79.3932"/>
</g>
<!-- Node24 -->
<g id="node25" class="node"><title>Node24</title>
<g id="a_node25"><a xlink:href="a00083.html" target="_top" xlink:title="This file contains basic scalar datatype used in GKlib. ">
<polygon fill="white" stroke="black" points="1087.5,-56.5 1087.5,-75.5 1152.5,-75.5 1152.5,-56.5 1087.5,-56.5"/>
<text text-anchor="middle" x="1120" y="-63.5" font-family="Helvetica,sans-Serif" font-size="10.00">gk_types.h</text>
</a>
</g>
</g>
<!-- Node1&#45;&gt;Node24 -->
<g id="edge24" class="edge"><title>Node1&#45;&gt;Node24</title>
<path fill="none" stroke="midnightblue" d="M803.782,-113.865C806.543,-113.183 809.323,-112.544 812,-112 925.716,-88.9029 958.687,-96.0857 1077.28,-75.985"/>
<polygon fill="midnightblue" stroke="midnightblue" points="1078.23,-79.373 1087.49,-74.2237 1077.04,-72.4749 1078.23,-79.373"/>
</g>
<!-- Node25 -->
<g id="node26" class="node"><title>Node25</title>
<g id="a_node26"><a xlink:href="a00080.html" target="_top" xlink:title="This file contains various datastructures used/provided by GKlib. ">
<polygon fill="white" stroke="black" points="1170.5,-56.5 1170.5,-75.5 1235.5,-75.5 1235.5,-56.5 1170.5,-56.5"/>
<text text-anchor="middle" x="1203" y="-63.5" font-family="Helvetica,sans-Serif" font-size="10.00">gk_struct.h</text>
</a>
</g>
</g>
<!-- Node1&#45;&gt;Node25 -->
<g id="edge25" class="edge"><title>Node1&#45;&gt;Node25</title>
<path fill="none" stroke="midnightblue" d="M803.766,-113.779C806.529,-113.113 809.315,-112.501 812,-112 962.143,-83.9767 1005.23,-99.6947 1160.17,-75.9574"/>
<polygon fill="midnightblue" stroke="midnightblue" points="1160.71,-79.4154 1170.05,-74.4138 1159.63,-72.4993 1160.71,-79.4154"/>
</g>
<!-- Node26 -->
<g id="node27" class="node"><title>Node26</title>
<g id="a_node27"><a xlink:href="a00047.html" target="_top" xlink:title="This file contains definitions of external variables created by GKlib. ">
<polygon fill="white" stroke="black" points="1254,-56.5 1254,-75.5 1328,-75.5 1328,-56.5 1254,-56.5"/>
<text text-anchor="middle" x="1291" y="-63.5" font-family="Helvetica,sans-Serif" font-size="10.00">gk_externs.h</text>
</a>
</g>
</g>
<!-- Node1&#45;&gt;Node26 -->
<g id="edge26" class="edge"><title>Node1&#45;&gt;Node26</title>
<path fill="none" stroke="midnightblue" d="M803.756,-113.726C806.521,-113.07 809.31,-112.475 812,-112 998.491,-79.0852 1051.32,-101.363 1243.7,-75.8629"/>
<polygon fill="midnightblue" stroke="midnightblue" points="1244.42,-79.2972 1253.86,-74.4889 1243.48,-72.3604 1244.42,-79.2972"/>
</g>
<!-- Node27 -->
<g id="node28" class="node"><title>Node27</title>
<g id="a_node28"><a xlink:href="a00044.html" target="_top" xlink:title="This file contains various constants definitions. ">
<polygon fill="white" stroke="black" points="1346,-56.5 1346,-75.5 1406,-75.5 1406,-56.5 1346,-56.5"/>
<text text-anchor="middle" x="1376" y="-63.5" font-family="Helvetica,sans-Serif" font-size="10.00">gk_defs.h</text>
</a>
</g>
</g>
<!-- Node1&#45;&gt;Node27 -->
<g id="edge27" class="edge"><title>Node1&#45;&gt;Node27</title>
<path fill="none" stroke="midnightblue" d="M803.749,-113.686C806.515,-113.037 809.306,-112.455 812,-112 1039.35,-73.5922 1103.84,-109.36 1335.76,-75.9363"/>
<polygon fill="midnightblue" stroke="midnightblue" points="1336.47,-79.3692 1345.86,-74.4528 1335.45,-72.4435 1336.47,-79.3692"/>
</g>
<!-- Node28 -->
<g id="node29" class="node"><title>Node28</title>
<g id="a_node29"><a xlink:href="a00053.html" target="_top" xlink:title="This file contains various macros. ">
<polygon fill="white" stroke="black" points="1424,-56.5 1424,-75.5 1498,-75.5 1498,-56.5 1424,-56.5"/>
<text text-anchor="middle" x="1461" y="-63.5" font-family="Helvetica,sans-Serif" font-size="10.00">gk_macros.h</text>
</a>
</g>
</g>
<!-- Node1&#45;&gt;Node28 -->
<g id="edge28" class="edge"><title>Node1&#45;&gt;Node28</title>
<path fill="none" stroke="midnightblue" d="M803.745,-113.662C806.512,-113.018 809.305,-112.443 812,-112 1073.69,-68.9789 1146.89,-108.853 1413.92,-75.9512"/>
<polygon fill="midnightblue" stroke="midnightblue" points="1414.43,-79.4156 1423.91,-74.6978 1413.55,-72.47 1414.43,-79.4156"/>
</g>
<!-- Node29 -->
<g id="node30" class="node"><title>Node29</title>
<g id="a_node30"><a xlink:href="a00050.html" target="_top" xlink:title="This file contains GNU&#39;s externs/structs/prototypes. ">
<polygon fill="white" stroke="black" points="1516.5,-56.5 1516.5,-75.5 1585.5,-75.5 1585.5,-56.5 1516.5,-56.5"/>
<text text-anchor="middle" x="1551" y="-63.5" font-family="Helvetica,sans-Serif" font-size="10.00">gk_getopt.h</text>
</a>
</g>
</g>
<!-- Node1&#45;&gt;Node29 -->
<g id="edge29" class="edge"><title>Node1&#45;&gt;Node29</title>
<path fill="none" stroke="midnightblue" d="M803.741,-113.64C806.509,-113 809.303,-112.433 812,-112 1114.12,-63.5532 1198.37,-113.994 1506.38,-75.8419"/>
<polygon fill="midnightblue" stroke="midnightblue" points="1507.01,-79.2903 1516.49,-74.5674 1506.14,-72.3452 1507.01,-79.2903"/>
</g>
<!-- Node30 -->
<g id="node31" class="node"><title>Node30</title>
<g id="a_node31"><a xlink:href="a00071.html" target="_top" xlink:title="Templates for the qsort routine. ">
<polygon fill="white" stroke="black" points="1603.5,-56.5 1603.5,-75.5 1674.5,-75.5 1674.5,-56.5 1603.5,-56.5"/>
<text text-anchor="middle" x="1639" y="-63.5" font-family="Helvetica,sans-Serif" font-size="10.00">gk_mksort.h</text>
</a>
</g>
</g>
<!-- Node1&#45;&gt;Node30 -->
<g id="edge30" class="edge"><title>Node1&#45;&gt;Node30</title>
<path fill="none" stroke="midnightblue" d="M803.739,-113.625C806.507,-112.987 809.302,-112.425 812,-112 1152.42,-58.415 1246.86,-117.099 1593.16,-75.881"/>
<polygon fill="midnightblue" stroke="midnightblue" points="1593.71,-79.34 1603.22,-74.6644 1592.87,-72.3907 1593.71,-79.34"/>
</g>
<!-- Node31 -->
<g id="node32" class="node"><title>Node31</title>
<g id="a_node32"><a xlink:href="a00056.html" target="_top" xlink:title="Templates for BLAS&#45;like routines. ">
<polygon fill="white" stroke="black" points="1692.5,-56.5 1692.5,-75.5 1765.5,-75.5 1765.5,-56.5 1692.5,-56.5"/>
<text text-anchor="middle" x="1729" y="-63.5" font-family="Helvetica,sans-Serif" font-size="10.00">gk_mkblas.h</text>
</a>
</g>
</g>
<!-- Node1&#45;&gt;Node31 -->
<g id="edge31" class="edge"><title>Node1&#45;&gt;Node31</title>
<path fill="none" stroke="midnightblue" d="M803.737,-113.612C806.506,-112.977 809.301,-112.418 812,-112 1191.6,-53.1608 1296.43,-120.163 1682.38,-75.8477"/>
<polygon fill="midnightblue" stroke="midnightblue" points="1682.89,-79.3115 1692.42,-74.6769 1682.08,-72.3586 1682.89,-79.3115"/>
</g>
<!-- Node32 -->
<g id="node33" class="node"><title>Node32</title>
<g id="a_node33"><a xlink:href="a00059.html" target="_top" xlink:title="Templates for memory allocation routines. ">
<polygon fill="white" stroke="black" points="1784,-56.5 1784,-75.5 1874,-75.5 1874,-56.5 1784,-56.5"/>
<text text-anchor="middle" x="1829" y="-63.5" font-family="Helvetica,sans-Serif" font-size="10.00">gk_mkmemory.h</text>
</a>
</g>
</g>
<!-- Node1&#45;&gt;Node32 -->
<g id="edge32" class="edge"><title>Node1&#45;&gt;Node32</title>
<path fill="none" stroke="midnightblue" d="M803.735,-113.601C806.504,-112.968 809.3,-112.413 812,-112 1231.63,-47.7944 1346.48,-117.523 1773.59,-75.8705"/>
<polygon fill="midnightblue" stroke="midnightblue" points="1774.13,-79.3341 1783.74,-74.8657 1773.44,-72.3682 1774.13,-79.3341"/>
</g>
<!-- Node33 -->
<g id="node34" class="node"><title>Node33</title>
<g id="a_node34"><a xlink:href="a00062.html" target="_top" xlink:title="Templates for priority queues. ">
<polygon fill="white" stroke="black" points="1892,-56.5 1892,-75.5 1980,-75.5 1980,-56.5 1892,-56.5"/>
<text text-anchor="middle" x="1936" y="-63.5" font-family="Helvetica,sans-Serif" font-size="10.00">gk_mkpqueue.h</text>
</a>
</g>
</g>
<!-- Node1&#45;&gt;Node33 -->
<g id="edge33" class="edge"><title>Node1&#45;&gt;Node33</title>
<path fill="none" stroke="midnightblue" d="M803.734,-113.591C806.503,-112.96 809.299,-112.408 812,-112 1279.59,-41.3656 1407.35,-122.807 1881.62,-75.982"/>
<polygon fill="midnightblue" stroke="midnightblue" points="1882.21,-79.4398 1891.81,-74.9606 1881.52,-72.4746 1882.21,-79.4398"/>
</g>
<!-- Node34 -->
<g id="node35" class="node"><title>Node34</title>
<g id="a_node35"><a xlink:href="a00065.html" target="_top" xlink:title="Templates for priority queues that do not utilize locators and as such they can use different types o...">
<polygon fill="white" stroke="black" points="1998.5,-56.5 1998.5,-75.5 2091.5,-75.5 2091.5,-56.5 1998.5,-56.5"/>
<text text-anchor="middle" x="2045" y="-63.5" font-family="Helvetica,sans-Serif" font-size="10.00">gk_mkpqueue2.h</text>
</a>
</g>
</g>
<!-- Node1&#45;&gt;Node34 -->
<g id="edge34" class="edge"><title>Node1&#45;&gt;Node34</title>
<path fill="none" stroke="midnightblue" d="M803.733,-113.583C806.502,-112.953 809.298,-112.404 812,-112 1326.32,-35.1026 1466.23,-124.477 1988.26,-75.9129"/>
<polygon fill="midnightblue" stroke="midnightblue" points="1988.68,-79.3886 1998.31,-74.9653 1988.02,-72.4195 1988.68,-79.3886"/>
</g>
<!-- Node35 -->
<g id="node36" class="node"><title>Node35</title>
<g id="a_node36"><a xlink:href="a00068.html" target="_top" xlink:title="Templates for portable random number generation. ">
<polygon fill="white" stroke="black" points="2110,-56.5 2110,-75.5 2198,-75.5 2198,-56.5 2110,-56.5"/>
<text text-anchor="middle" x="2154" y="-63.5" font-family="Helvetica,sans-Serif" font-size="10.00">gk_mkrandom.h</text>
</a>
</g>
</g>
<!-- Node1&#45;&gt;Node35 -->
<g id="edge35" class="edge"><title>Node1&#45;&gt;Node35</title>
<path fill="none" stroke="midnightblue" d="M803.731,-113.576C806.501,-112.947 809.298,-112.4 812,-112 1375.16,-28.5572 1528.21,-130.001 2099.71,-75.8371"/>
<polygon fill="midnightblue" stroke="midnightblue" points="2100.24,-79.3025 2109.86,-74.8632 2099.57,-72.3346 2100.24,-79.3025"/>
</g>
<!-- Node36 -->
<g id="node37" class="node"><title>Node36</title>
<g id="a_node37"><a xlink:href="a00074.html" target="_top" xlink:title="Templates for various utility routines. ">
<polygon fill="white" stroke="black" points="2216,-56.5 2216,-75.5 2288,-75.5 2288,-56.5 2216,-56.5"/>
<text text-anchor="middle" x="2252" y="-63.5" font-family="Helvetica,sans-Serif" font-size="10.00">gk_mkutils.h</text>
</a>
</g>
</g>
<!-- Node1&#45;&gt;Node36 -->
<g id="edge36" class="edge"><title>Node1&#45;&gt;Node36</title>
<path fill="none" stroke="midnightblue" d="M803.731,-113.57C806.501,-112.943 809.297,-112.397 812,-112 1422.31,-22.2397 1588.87,-143.752 2205.7,-75.9239"/>
<polygon fill="midnightblue" stroke="midnightblue" points="2206.18,-79.3921 2215.73,-74.8084 2205.41,-72.435 2206.18,-79.3921"/>
</g>
<!-- Node37 -->
<g id="node38" class="node"><title>Node37</title>
<g id="a_node38"><a xlink:href="a00077.html" target="_top" xlink:title="This file contains function prototypes. ">
<polygon fill="white" stroke="black" points="2306,-56.5 2306,-75.5 2370,-75.5 2370,-56.5 2306,-56.5"/>
<text text-anchor="middle" x="2338" y="-63.5" font-family="Helvetica,sans-Serif" font-size="10.00">gk_proto.h</text>
</a>
</g>
</g>
<!-- Node1&#45;&gt;Node37 -->
<g id="edge37" class="edge"><title>Node1&#45;&gt;Node37</title>
<path fill="none" stroke="midnightblue" d="M803.73,-113.565C806.5,-112.939 809.297,-112.395 812,-112 1461.89,-16.9369 1639.75,-153.723 2295.69,-75.8838"/>
<polygon fill="midnightblue" stroke="midnightblue" points="2296.36,-79.3289 2305.87,-74.6632 2295.53,-72.3787 2296.36,-79.3289"/>
</g>
<!-- Node3 -->
<g id="node4" class="node"><title>Node3</title>
<polygon fill="white" stroke="#bfbfbf" points="2240.5,-0.5 2240.5,-19.5 2289.5,-19.5 2289.5,-0.5 2240.5,-0.5"/>
<text text-anchor="middle" x="2265" y="-7.5" font-family="Helvetica,sans-Serif" font-size="10.00">stdint.h</text>
</g>
<!-- Node2&#45;&gt;Node3 -->
<g id="edge3" class="edge"><title>Node2&#45;&gt;Node3</title>
<path fill="none" stroke="midnightblue" d="M2393.76,-56.4435C2368.13,-47.3986 2327.51,-33.064 2298.76,-22.9158"/>
<polygon fill="midnightblue" stroke="midnightblue" points="2299.72,-19.5442 2289.13,-19.5164 2297.39,-26.1452 2299.72,-19.5442"/>
</g>
<!-- Node4 -->
<g id="node5" class="node"><title>Node4</title>
<polygon fill="white" stroke="#bfbfbf" points="2307.5,-0.5 2307.5,-19.5 2366.5,-19.5 2366.5,-0.5 2307.5,-0.5"/>
<text text-anchor="middle" x="2337" y="-7.5" font-family="Helvetica,sans-Serif" font-size="10.00">inttypes.h</text>
</g>
<!-- Node2&#45;&gt;Node4 -->
<g id="edge4" class="edge"><title>Node2&#45;&gt;Node4</title>
<path fill="none" stroke="midnightblue" d="M2404.99,-56.324C2392.47,-47.979 2373.32,-35.2122 2358.53,-25.3524"/>
<polygon fill="midnightblue" stroke="midnightblue" points="2360.24,-22.2894 2349.98,-19.6545 2356.36,-28.1137 2360.24,-22.2894"/>
</g>
<!-- Node5 -->
<g id="node6" class="node"><title>Node5</title>
<polygon fill="white" stroke="#bfbfbf" points="2384.5,-0.5 2384.5,-19.5 2451.5,-19.5 2451.5,-0.5 2384.5,-0.5"/>
<text text-anchor="middle" x="2418" y="-7.5" font-family="Helvetica,sans-Serif" font-size="10.00">sys/types.h</text>
</g>
<!-- Node2&#45;&gt;Node5 -->
<g id="edge5" class="edge"><title>Node2&#45;&gt;Node5</title>
<path fill="none" stroke="midnightblue" d="M2418,-56.083C2418,-49.0059 2418,-38.8611 2418,-29.9865"/>
<polygon fill="midnightblue" stroke="midnightblue" points="2421.5,-29.751 2418,-19.7511 2414.5,-29.7511 2421.5,-29.751"/>
</g>
<!-- Node6 -->
<g id="node7" class="node"><title>Node6</title>
<polygon fill="white" stroke="#bfbfbf" points="2470,-0.5 2470,-19.5 2552,-19.5 2552,-0.5 2470,-0.5"/>
<text text-anchor="middle" x="2511" y="-7.5" font-family="Helvetica,sans-Serif" font-size="10.00">sys/resource.h</text>
</g>
<!-- Node2&#45;&gt;Node6 -->
<g id="edge6" class="edge"><title>Node2&#45;&gt;Node6</title>
<path fill="none" stroke="midnightblue" d="M2432.94,-56.324C2447.59,-47.8215 2470.13,-34.7288 2487.24,-24.7975"/>
<polygon fill="midnightblue" stroke="midnightblue" points="2489.2,-27.7027 2496.1,-19.6545 2485.69,-21.6491 2489.2,-27.7027"/>
</g>
<!-- Node7 -->
<g id="node8" class="node"><title>Node7</title>
<polygon fill="white" stroke="#bfbfbf" points="2570,-0.5 2570,-19.5 2632,-19.5 2632,-0.5 2570,-0.5"/>
<text text-anchor="middle" x="2601" y="-7.5" font-family="Helvetica,sans-Serif" font-size="10.00">sys/time.h</text>
</g>
<!-- Node2&#45;&gt;Node7 -->
<g id="edge7" class="edge"><title>Node2&#45;&gt;Node7</title>
<path fill="none" stroke="midnightblue" d="M2447,-56.4435C2478.18,-47.2406 2527.93,-32.5617 2562.41,-22.3879"/>
<polygon fill="midnightblue" stroke="midnightblue" points="2563.54,-25.7036 2572.14,-19.5164 2561.56,-18.9898 2563.54,-25.7036"/>
</g>
<!-- Node41 -->
<g id="node42" class="node"><title>Node41</title>
<g id="a_node42"><a xlink:href="a00212.html" target="_top" xlink:title="gklib_rename.h">
<polygon fill="white" stroke="black" points="2466.5,-56.5 2466.5,-75.5 2551.5,-75.5 2551.5,-56.5 2466.5,-56.5"/>
<text text-anchor="middle" x="2509" y="-63.5" font-family="Helvetica,sans-Serif" font-size="10.00">gklib_rename.h</text>
</a>
</g>
</g>
<!-- Node40&#45;&gt;Node41 -->
<g id="edge53" class="edge"><title>Node40&#45;&gt;Node41</title>
<path fill="none" stroke="midnightblue" d="M1126.55,-112.778C1129.41,-112.488 1132.23,-112.226 1135,-112 1717.54,-64.4903 1870.41,-133.488 2456.25,-75.8954"/>
<polygon fill="midnightblue" stroke="midnightblue" points="2456.61,-79.3769 2466.22,-74.9076 2455.92,-72.4111 2456.61,-79.3769"/>
</g>
</g>
</svg>
        <g id="navigator" transform="translate(0 0)" fill="#404254">
                <rect fill="#f2f5e9" fill-opacity="0.5" stroke="#606060" stroke-width=".5" x="0" y="0" width="60" height="60"/>
                <use id="zoomplus" xlink:href="#zoomPlus" x="17" y="9" onmousedown="handleZoom(evt,'in')"/>
                <use id="zoomminus" xlink:href="#zoomMin" x="42" y="9" onmousedown="handleZoom(evt,'out')"/>
                <use id="reset" xlink:href="#resetDef" x="30" y="36" onmousedown="handleReset()"/>
                <g id="arrowUp" xlink:href="#dirArrow" transform="translate(30 24)" onmousedown="handlePan(0,-1)">
                  <use xlink:href="#rim" fill="#404040">
                        <set attributeName="fill" to="#808080" begin="arrowUp.mouseover" end="arrowUp.mouseout"/>
                  </use>
                  <path fill="none" stroke="white" stroke-width="1.5" d="M0,-3.0v7 M-2.5,-0.5L0,-3.0L2.5,-0.5"/>
                </g>
                <g id="arrowRight" xlink:href="#dirArrow" transform="rotate(90) translate(36 -43)" onmousedown="handlePan(1,0)">
                  <use xlink:href="#rim" fill="#404040">
                        <set attributeName="fill" to="#808080" begin="arrowRight.mouseover" end="arrowRight.mouseout"/>
                  </use>
                  <path fill="none" stroke="white" stroke-width="1.5" d="M0,-3.0v7 M-2.5,-0.5L0,-3.0L2.5,-0.5"/>
                </g>
                <g id="arrowDown" xlink:href="#dirArrow" transform="rotate(180) translate(-30 -48)" onmousedown="handlePan(0,1)">
                  <use xlink:href="#rim" fill="#404040">
                        <set attributeName="fill" to="#808080" begin="arrowDown.mouseover" end="arrowDown.mouseout"/>
                  </use>
                  <path fill="none" stroke="white" stroke-width="1.5" d="M0,-3.0v7 M-2.5,-0.5L0,-3.0L2.5,-0.5"/>
                </g>
                <g id="arrowLeft" xlink:href="#dirArrow" transform="rotate(270) translate(-36 17)" onmousedown="handlePan(-1,0)">
                  <use xlink:href="#rim" fill="#404040">
                        <set attributeName="fill" to="#808080" begin="arrowLeft.mouseover" end="arrowLeft.mouseout"/>
                  </use>
                  <path fill="none" stroke="white" stroke-width="1.5" d="M0,-3.0v7 M-2.5,-0.5L0,-3.0L2.5,-0.5"/>
                </g>
        </g>
        <svg viewBox="0 0 15 15" width="100%" height="30px" preserveAspectRatio="xMaxYMin meet">
         <g id="arrow_out" transform="scale(0.3 0.3)">
          <a xlink:href="a00321_org.svg" target="_base">
           <rect id="button" ry="5" rx="5" y="6" x="6" height="38" width="38"
                fill="#f2f5e9" fill-opacity="0.5" stroke="#606060" stroke-width="1.0"/>
           <path id="arrow"
             d="M 11.500037,31.436501 C 11.940474,20.09759 22.043105,11.32322 32.158766,21.979434 L 37.068811,17.246167 C 37.068811,17.246167 37.088388,32 37.088388,32 L 22.160133,31.978069 C 22.160133,31.978069 26.997745,27.140456 26.997745,27.140456 C 18.528582,18.264221 13.291696,25.230495 11.500037,31.436501 z"
             style="fill:#404040;"/>
          </a>
         </g>
        </svg>
</svg>
