<?xml version="1.0" encoding="UTF-8" standalone="no"?>
<!DOCTYPE svg PUBLIC "-//W3C//DTD SVG 1.1//EN"
 "http://www.w3.org/Graphics/SVG/1.1/DTD/svg11.dtd">
<!-- Generated by graphviz version 2.36.0 (20140111.2315)
 -->
<!-- Title: ArcSyn3sis/3rdParty/parmetis&#45;4.0.3/libparmetis/parmetislib.h Pages: 1 -->
<svg width="5918pt" height="128pt"
 viewBox="0.00 0.00 5918.00 128.00" xmlns="http://www.w3.org/2000/svg" xmlns:xlink="http://www.w3.org/1999/xlink">
<g id="graph0" class="graph" transform="scale(1 1) rotate(0) translate(4 124)">
<title>ArcSyn3sis/3rdParty/parmetis&#45;4.0.3/libparmetis/parmetislib.h</title>
<polygon fill="white" stroke="none" points="-4,4 -4,-124 5914,-124 5914,4 -4,4"/>
<!-- Node47 -->
<g id="node1" class="node"><title>Node47</title>
<polygon fill="#bfbfbf" stroke="black" points="2888,-78.5 2888,-119.5 3022,-119.5 3022,-78.5 2888,-78.5"/>
<text text-anchor="start" x="2896" y="-107.5" font-family="Helvetica,sans-Serif" font-size="10.00">ArcSyn3sis/3rdParty</text>
<text text-anchor="start" x="2896" y="-96.5" font-family="Helvetica,sans-Serif" font-size="10.00">/parmetis&#45;4.0.3/libparmetis</text>
<text text-anchor="middle" x="2955" y="-85.5" font-family="Helvetica,sans-Serif" font-size="10.00">/parmetislib.h</text>
</g>
<!-- Node48 -->
<g id="node2" class="node"><title>Node48</title>
<g id="a_node2"><a xlink:href="$a00335.html" xlink:title="ArcSyn3sis/3rdParty\l/parmetis&#45;4.0.3/libparmetis\l/akwayfm.c">
<polygon fill="white" stroke="black" points="0,-0.5 0,-41.5 134,-41.5 134,-0.5 0,-0.5"/>
<text text-anchor="start" x="8" y="-29.5" font-family="Helvetica,sans-Serif" font-size="10.00">ArcSyn3sis/3rdParty</text>
<text text-anchor="start" x="8" y="-18.5" font-family="Helvetica,sans-Serif" font-size="10.00">/parmetis&#45;4.0.3/libparmetis</text>
<text text-anchor="middle" x="67" y="-7.5" font-family="Helvetica,sans-Serif" font-size="10.00">/akwayfm.c</text>
</a>
</g>
</g>
<!-- Node47&#45;&gt;Node48 -->
<g id="edge1" class="edge"><title>Node47&#45;&gt;Node48</title>
<path fill="none" stroke="midnightblue" d="M2877.77,-97.5563C2453.99,-94.9755 420.033,-80.6496 143,-42 140.162,-41.6041 137.279,-41.1386 134.376,-40.6175"/>
<polygon fill="midnightblue" stroke="midnightblue" points="2877.76,-101.056 2887.78,-97.6169 2877.8,-94.0563 2877.76,-101.056"/>
</g>
<!-- Node49 -->
<g id="node3" class="node"><title>Node49</title>
<g id="a_node3"><a xlink:href="$a00338.html" xlink:title="ArcSyn3sis/3rdParty\l/parmetis&#45;4.0.3/libparmetis\l/ametis.c">
<polygon fill="white" stroke="black" points="152,-0.5 152,-41.5 286,-41.5 286,-0.5 152,-0.5"/>
<text text-anchor="start" x="160" y="-29.5" font-family="Helvetica,sans-Serif" font-size="10.00">ArcSyn3sis/3rdParty</text>
<text text-anchor="start" x="160" y="-18.5" font-family="Helvetica,sans-Serif" font-size="10.00">/parmetis&#45;4.0.3/libparmetis</text>
<text text-anchor="middle" x="219" y="-7.5" font-family="Helvetica,sans-Serif" font-size="10.00">/ametis.c</text>
</a>
</g>
</g>
<!-- Node47&#45;&gt;Node49 -->
<g id="edge2" class="edge"><title>Node47&#45;&gt;Node49</title>
<path fill="none" stroke="midnightblue" d="M2877.72,-97.4614C2467.75,-94.4583 556.135,-78.5831 295,-42 292.163,-41.6025 289.279,-41.1356 286.377,-40.6134"/>
<polygon fill="midnightblue" stroke="midnightblue" points="2877.96,-100.963 2887.98,-97.5362 2878.01,-93.9633 2877.96,-100.963"/>
</g>
<!-- Node50 -->
<g id="node4" class="node"><title>Node50</title>
<g id="a_node4"><a xlink:href="$a00341.html" xlink:title="ArcSyn3sis/3rdParty\l/parmetis&#45;4.0.3/libparmetis\l/balancemylink.c">
<polygon fill="white" stroke="black" points="304,-0.5 304,-41.5 438,-41.5 438,-0.5 304,-0.5"/>
<text text-anchor="start" x="312" y="-29.5" font-family="Helvetica,sans-Serif" font-size="10.00">ArcSyn3sis/3rdParty</text>
<text text-anchor="start" x="312" y="-18.5" font-family="Helvetica,sans-Serif" font-size="10.00">/parmetis&#45;4.0.3/libparmetis</text>
<text text-anchor="middle" x="371" y="-7.5" font-family="Helvetica,sans-Serif" font-size="10.00">/balancemylink.c</text>
</a>
</g>
</g>
<!-- Node47&#45;&gt;Node50 -->
<g id="edge3" class="edge"><title>Node47&#45;&gt;Node50</title>
<path fill="none" stroke="midnightblue" d="M2877.7,-97.3552C2482.01,-93.9093 692.269,-76.5198 447,-42 444.163,-41.6007 441.28,-41.1323 438.377,-40.6089"/>
<polygon fill="midnightblue" stroke="midnightblue" points="2877.86,-100.857 2887.89,-97.4436 2877.93,-93.8569 2877.86,-100.857"/>
</g>
<!-- Node51 -->
<g id="node5" class="node"><title>Node51</title>
<g id="a_node5"><a xlink:href="$a00344.html" xlink:title="ArcSyn3sis/3rdParty\l/parmetis&#45;4.0.3/libparmetis\l/comm.c">
<polygon fill="white" stroke="black" points="456,-0.5 456,-41.5 590,-41.5 590,-0.5 456,-0.5"/>
<text text-anchor="start" x="464" y="-29.5" font-family="Helvetica,sans-Serif" font-size="10.00">ArcSyn3sis/3rdParty</text>
<text text-anchor="start" x="464" y="-18.5" font-family="Helvetica,sans-Serif" font-size="10.00">/parmetis&#45;4.0.3/libparmetis</text>
<text text-anchor="middle" x="523" y="-7.5" font-family="Helvetica,sans-Serif" font-size="10.00">/comm.c</text>
</a>
</g>
</g>
<!-- Node47&#45;&gt;Node51 -->
<g id="edge4" class="edge"><title>Node47&#45;&gt;Node51</title>
<path fill="none" stroke="midnightblue" d="M2877.79,-97.2365C2497.05,-93.3269 828.454,-74.4624 599,-42 596.163,-41.5986 593.28,-41.1285 590.378,-40.6037"/>
<polygon fill="midnightblue" stroke="midnightblue" points="2877.85,-100.737 2887.88,-97.3397 2877.92,-93.7375 2877.85,-100.737"/>
</g>
<!-- Node52 -->
<g id="node6" class="node"><title>Node52</title>
<g id="a_node6"><a xlink:href="$a00347.html" xlink:title="ArcSyn3sis/3rdParty\l/parmetis&#45;4.0.3/libparmetis\l/csrmatch.c">
<polygon fill="white" stroke="black" points="608,-0.5 608,-41.5 742,-41.5 742,-0.5 608,-0.5"/>
<text text-anchor="start" x="616" y="-29.5" font-family="Helvetica,sans-Serif" font-size="10.00">ArcSyn3sis/3rdParty</text>
<text text-anchor="start" x="616" y="-18.5" font-family="Helvetica,sans-Serif" font-size="10.00">/parmetis&#45;4.0.3/libparmetis</text>
<text text-anchor="middle" x="675" y="-7.5" font-family="Helvetica,sans-Serif" font-size="10.00">/csrmatch.c</text>
</a>
</g>
</g>
<!-- Node47&#45;&gt;Node52 -->
<g id="edge5" class="edge"><title>Node47&#45;&gt;Node52</title>
<path fill="none" stroke="midnightblue" d="M2877.63,-98.4367C2537.64,-99.9868 1174.35,-102.248 751,-42 748.163,-41.5963 745.281,-41.1243 742.379,-40.5978"/>
<polygon fill="midnightblue" stroke="midnightblue" points="2877.88,-101.936 2887.87,-98.3889 2877.85,-94.9358 2877.88,-101.936"/>
</g>
<!-- Node53 -->
<g id="node7" class="node"><title>Node53</title>
<g id="a_node7"><a xlink:href="$a00350.html" xlink:title="ArcSyn3sis/3rdParty\l/parmetis&#45;4.0.3/libparmetis\l/ctrl.c">
<polygon fill="white" stroke="black" points="760,-0.5 760,-41.5 894,-41.5 894,-0.5 760,-0.5"/>
<text text-anchor="start" x="768" y="-29.5" font-family="Helvetica,sans-Serif" font-size="10.00">ArcSyn3sis/3rdParty</text>
<text text-anchor="start" x="768" y="-18.5" font-family="Helvetica,sans-Serif" font-size="10.00">/parmetis&#45;4.0.3/libparmetis</text>
<text text-anchor="middle" x="827" y="-7.5" font-family="Helvetica,sans-Serif" font-size="10.00">/ctrl.c</text>
</a>
</g>
</g>
<!-- Node47&#45;&gt;Node53 -->
<g id="edge6" class="edge"><title>Node47&#45;&gt;Node53</title>
<path fill="none" stroke="midnightblue" d="M2877.68,-98.2657C2552.55,-99.0169 1294.96,-98.157 903,-42 900.164,-41.5937 897.281,-41.1194 894.38,-40.5911"/>
<polygon fill="midnightblue" stroke="midnightblue" points="2877.95,-101.765 2887.94,-98.2407 2877.93,-94.7652 2877.95,-101.765"/>
</g>
<!-- Node54 -->
<g id="node8" class="node"><title>Node54</title>
<g id="a_node8"><a xlink:href="$a00888.html" xlink:title="ArcSyn3sis/3rdParty\l/parmetis&#45;4.0.3/libparmetis\l/debug.c">
<polygon fill="white" stroke="black" points="912,-0.5 912,-41.5 1046,-41.5 1046,-0.5 912,-0.5"/>
<text text-anchor="start" x="920" y="-29.5" font-family="Helvetica,sans-Serif" font-size="10.00">ArcSyn3sis/3rdParty</text>
<text text-anchor="start" x="920" y="-18.5" font-family="Helvetica,sans-Serif" font-size="10.00">/parmetis&#45;4.0.3/libparmetis</text>
<text text-anchor="middle" x="979" y="-7.5" font-family="Helvetica,sans-Serif" font-size="10.00">/debug.c</text>
</a>
</g>
</g>
<!-- Node47&#45;&gt;Node54 -->
<g id="edge7" class="edge"><title>Node47&#45;&gt;Node54</title>
<path fill="none" stroke="midnightblue" d="M2877.32,-98.0678C2566.99,-97.9741 1415.49,-94.0498 1055,-42 1052.16,-41.5906 1049.28,-41.1137 1046.38,-40.5833"/>
<polygon fill="midnightblue" stroke="midnightblue" points="2877.57,-101.568 2887.57,-98.0696 2877.57,-94.5677 2877.57,-101.568"/>
</g>
<!-- Node55 -->
<g id="node9" class="node"><title>Node55</title>
<g id="a_node9"><a xlink:href="$a00353.html" xlink:title="ArcSyn3sis/3rdParty\l/parmetis&#45;4.0.3/libparmetis\l/diffutil.c">
<polygon fill="white" stroke="black" points="1064,-0.5 1064,-41.5 1198,-41.5 1198,-0.5 1064,-0.5"/>
<text text-anchor="start" x="1072" y="-29.5" font-family="Helvetica,sans-Serif" font-size="10.00">ArcSyn3sis/3rdParty</text>
<text text-anchor="start" x="1072" y="-18.5" font-family="Helvetica,sans-Serif" font-size="10.00">/parmetis&#45;4.0.3/libparmetis</text>
<text text-anchor="middle" x="1131" y="-7.5" font-family="Helvetica,sans-Serif" font-size="10.00">/diffutil.c</text>
</a>
</g>
</g>
<!-- Node47&#45;&gt;Node55 -->
<g id="edge8" class="edge"><title>Node47&#45;&gt;Node55</title>
<path fill="none" stroke="midnightblue" d="M2877.74,-97.8363C2583.96,-96.8551 1536.41,-89.9929 1207,-42 1204.16,-41.5869 1201.28,-41.107 1198.38,-40.5741"/>
<polygon fill="midnightblue" stroke="midnightblue" points="2877.86,-101.337 2887.87,-97.8688 2877.88,-94.3366 2877.86,-101.337"/>
</g>
<!-- Node56 -->
<g id="node10" class="node"><title>Node56</title>
<g id="a_node10"><a xlink:href="$a00903.html" xlink:title="ArcSyn3sis/3rdParty\l/parmetis&#45;4.0.3/libparmetis\l/frename.c">
<polygon fill="white" stroke="black" points="1216,-0.5 1216,-41.5 1350,-41.5 1350,-0.5 1216,-0.5"/>
<text text-anchor="start" x="1224" y="-29.5" font-family="Helvetica,sans-Serif" font-size="10.00">ArcSyn3sis/3rdParty</text>
<text text-anchor="start" x="1224" y="-18.5" font-family="Helvetica,sans-Serif" font-size="10.00">/parmetis&#45;4.0.3/libparmetis</text>
<text text-anchor="middle" x="1283" y="-7.5" font-family="Helvetica,sans-Serif" font-size="10.00">/frename.c</text>
</a>
</g>
</g>
<!-- Node47&#45;&gt;Node56 -->
<g id="edge9" class="edge"><title>Node47&#45;&gt;Node56</title>
<path fill="none" stroke="midnightblue" d="M2877.63,-97.5604C2600.37,-95.6302 1657.23,-85.9147 1359,-42 1356.17,-41.5826 1353.28,-41.0991 1350.38,-40.5632"/>
<polygon fill="midnightblue" stroke="midnightblue" points="2877.97,-101.063 2887.99,-97.631 2878.02,-94.0628 2877.97,-101.063"/>
</g>
<!-- Node57 -->
<g id="node11" class="node"><title>Node57</title>
<g id="a_node11"><a xlink:href="$a00356.html" xlink:title="ArcSyn3sis/3rdParty\l/parmetis&#45;4.0.3/libparmetis\l/gkmetis.c">
<polygon fill="white" stroke="black" points="1368,-0.5 1368,-41.5 1502,-41.5 1502,-0.5 1368,-0.5"/>
<text text-anchor="start" x="1376" y="-29.5" font-family="Helvetica,sans-Serif" font-size="10.00">ArcSyn3sis/3rdParty</text>
<text text-anchor="start" x="1376" y="-18.5" font-family="Helvetica,sans-Serif" font-size="10.00">/parmetis&#45;4.0.3/libparmetis</text>
<text text-anchor="middle" x="1435" y="-7.5" font-family="Helvetica,sans-Serif" font-size="10.00">/gkmetis.c</text>
</a>
</g>
</g>
<!-- Node47&#45;&gt;Node57 -->
<g id="edge10" class="edge"><title>Node47&#45;&gt;Node57</title>
<path fill="none" stroke="midnightblue" d="M2877.63,-97.2274C2617.85,-94.2845 1778.21,-81.8503 1511,-42 1508.17,-41.5774 1505.29,-41.0895 1502.39,-40.5499"/>
<polygon fill="midnightblue" stroke="midnightblue" points="2877.69,-100.728 2887.73,-97.3403 2877.77,-93.7287 2877.69,-100.728"/>
</g>
<!-- Node58 -->
<g id="node12" class="node"><title>Node58</title>
<g id="a_node12"><a xlink:href="$a00359.html" xlink:title="ArcSyn3sis/3rdParty\l/parmetis&#45;4.0.3/libparmetis\l/gkmpi.c">
<polygon fill="white" stroke="black" points="1520,-0.5 1520,-41.5 1654,-41.5 1654,-0.5 1520,-0.5"/>
<text text-anchor="start" x="1528" y="-29.5" font-family="Helvetica,sans-Serif" font-size="10.00">ArcSyn3sis/3rdParty</text>
<text text-anchor="start" x="1528" y="-18.5" font-family="Helvetica,sans-Serif" font-size="10.00">/parmetis&#45;4.0.3/libparmetis</text>
<text text-anchor="middle" x="1587" y="-7.5" font-family="Helvetica,sans-Serif" font-size="10.00">/gkmpi.c</text>
</a>
</g>
</g>
<!-- Node47&#45;&gt;Node58 -->
<g id="edge11" class="edge"><title>Node47&#45;&gt;Node58</title>
<path fill="none" stroke="midnightblue" d="M2877.7,-96.8184C2636.44,-92.7884 1899.35,-77.7979 1663,-42 1660.17,-41.5709 1657.29,-41.0777 1654.39,-40.5336"/>
<polygon fill="midnightblue" stroke="midnightblue" points="2877.73,-100.319 2887.79,-96.9853 2877.85,-93.3202 2877.73,-100.319"/>
</g>
<!-- Node59 -->
<g id="node13" class="node"><title>Node59</title>
<g id="a_node13"><a xlink:href="$a00855.html" xlink:title="ArcSyn3sis/3rdParty\l/parmetis&#45;4.0.3/libparmetis\l/graph.c">
<polygon fill="white" stroke="black" points="1672,-0.5 1672,-41.5 1806,-41.5 1806,-0.5 1672,-0.5"/>
<text text-anchor="start" x="1680" y="-29.5" font-family="Helvetica,sans-Serif" font-size="10.00">ArcSyn3sis/3rdParty</text>
<text text-anchor="start" x="1680" y="-18.5" font-family="Helvetica,sans-Serif" font-size="10.00">/parmetis&#45;4.0.3/libparmetis</text>
<text text-anchor="middle" x="1739" y="-7.5" font-family="Helvetica,sans-Serif" font-size="10.00">/graph.c</text>
</a>
</g>
</g>
<!-- Node47&#45;&gt;Node59 -->
<g id="edge12" class="edge"><title>Node47&#45;&gt;Node59</title>
<path fill="none" stroke="midnightblue" d="M2877.46,-96.2949C2655.52,-91.0802 2020.55,-73.739 1815,-42 1812.17,-41.5628 1809.29,-41.0627 1806.39,-40.513"/>
<polygon fill="midnightblue" stroke="midnightblue" points="2877.64,-99.7998 2887.71,-96.5341 2877.8,-92.8017 2877.64,-99.7998"/>
</g>
<!-- Node60 -->
<g id="node14" class="node"><title>Node60</title>
<g id="a_node14"><a xlink:href="$a00362.html" xlink:title="ArcSyn3sis/3rdParty\l/parmetis&#45;4.0.3/libparmetis\l/initbalance.c">
<polygon fill="white" stroke="black" points="1824,-0.5 1824,-41.5 1958,-41.5 1958,-0.5 1824,-0.5"/>
<text text-anchor="start" x="1832" y="-29.5" font-family="Helvetica,sans-Serif" font-size="10.00">ArcSyn3sis/3rdParty</text>
<text text-anchor="start" x="1832" y="-18.5" font-family="Helvetica,sans-Serif" font-size="10.00">/parmetis&#45;4.0.3/libparmetis</text>
<text text-anchor="middle" x="1891" y="-7.5" font-family="Helvetica,sans-Serif" font-size="10.00">/initbalance.c</text>
</a>
</g>
</g>
<!-- Node47&#45;&gt;Node60 -->
<g id="edge13" class="edge"><title>Node47&#45;&gt;Node60</title>
<path fill="none" stroke="midnightblue" d="M2877.52,-98.8682C2710.19,-99.5949 2302.95,-95.1726 1967,-42 1964.17,-41.5521 1961.29,-41.0431 1958.4,-40.486"/>
<polygon fill="midnightblue" stroke="midnightblue" points="2877.73,-102.367 2887.72,-98.8162 2877.7,-95.3673 2877.73,-102.367"/>
</g>
<!-- Node61 -->
<g id="node15" class="node"><title>Node61</title>
<g id="a_node15"><a xlink:href="$a00365.html" xlink:title="ArcSyn3sis/3rdParty\l/parmetis&#45;4.0.3/libparmetis\l/initmsection.c">
<polygon fill="white" stroke="black" points="1976,-0.5 1976,-41.5 2110,-41.5 2110,-0.5 1976,-0.5"/>
<text text-anchor="start" x="1984" y="-29.5" font-family="Helvetica,sans-Serif" font-size="10.00">ArcSyn3sis/3rdParty</text>
<text text-anchor="start" x="1984" y="-18.5" font-family="Helvetica,sans-Serif" font-size="10.00">/parmetis&#45;4.0.3/libparmetis</text>
<text text-anchor="middle" x="2043" y="-7.5" font-family="Helvetica,sans-Serif" font-size="10.00">/initmsection.c</text>
</a>
</g>
</g>
<!-- Node47&#45;&gt;Node61 -->
<g id="edge14" class="edge"><title>Node47&#45;&gt;Node61</title>
<path fill="none" stroke="midnightblue" d="M2877.51,-97.7179C2729.24,-96.0963 2395.53,-87.2236 2119,-42 2116.17,-41.5376 2113.3,-41.0164 2110.4,-40.4493"/>
<polygon fill="midnightblue" stroke="midnightblue" points="2877.83,-101.221 2887.86,-97.8225 2877.9,-94.2215 2877.83,-101.221"/>
</g>
<!-- Node62 -->
<g id="node16" class="node"><title>Node62</title>
<g id="a_node16"><a xlink:href="$a00909.html" xlink:title="ArcSyn3sis/3rdParty\l/parmetis&#45;4.0.3/libparmetis\l/initpart.c">
<polygon fill="white" stroke="black" points="2128,-0.5 2128,-41.5 2262,-41.5 2262,-0.5 2128,-0.5"/>
<text text-anchor="start" x="2136" y="-29.5" font-family="Helvetica,sans-Serif" font-size="10.00">ArcSyn3sis/3rdParty</text>
<text text-anchor="start" x="2136" y="-18.5" font-family="Helvetica,sans-Serif" font-size="10.00">/parmetis&#45;4.0.3/libparmetis</text>
<text text-anchor="middle" x="2195" y="-7.5" font-family="Helvetica,sans-Serif" font-size="10.00">/initpart.c</text>
</a>
</g>
</g>
<!-- Node47&#45;&gt;Node62 -->
<g id="edge15" class="edge"><title>Node47&#45;&gt;Node62</title>
<path fill="none" stroke="midnightblue" d="M2877.47,-96.0796C2750.06,-91.936 2488.82,-79.2803 2271,-42 2268.18,-41.5167 2265.3,-40.978 2262.41,-40.3964"/>
<polygon fill="midnightblue" stroke="midnightblue" points="2877.41,-99.5796 2887.52,-96.3978 2877.63,-92.5831 2877.41,-99.5796"/>
</g>
<!-- Node63 -->
<g id="node17" class="node"><title>Node63</title>
<g id="a_node17"><a xlink:href="$a00915.html" xlink:title="ArcSyn3sis/3rdParty\l/parmetis&#45;4.0.3/libparmetis\l/kmetis.c">
<polygon fill="white" stroke="black" points="2280,-0.5 2280,-41.5 2414,-41.5 2414,-0.5 2280,-0.5"/>
<text text-anchor="start" x="2288" y="-29.5" font-family="Helvetica,sans-Serif" font-size="10.00">ArcSyn3sis/3rdParty</text>
<text text-anchor="start" x="2288" y="-18.5" font-family="Helvetica,sans-Serif" font-size="10.00">/parmetis&#45;4.0.3/libparmetis</text>
<text text-anchor="middle" x="2347" y="-7.5" font-family="Helvetica,sans-Serif" font-size="10.00">/kmetis.c</text>
</a>
</g>
</g>
<!-- Node47&#45;&gt;Node63 -->
<g id="edge16" class="edge"><title>Node47&#45;&gt;Node63</title>
<path fill="none" stroke="midnightblue" d="M2877.67,-93.5682C2773.66,-86.7649 2583.24,-71.3411 2423,-42 2420.05,-41.4594 2417.04,-40.864 2414.01,-40.2272"/>
<polygon fill="midnightblue" stroke="midnightblue" points="2877.56,-97.0686 2887.77,-94.2194 2878.01,-90.0831 2877.56,-97.0686"/>
</g>
<!-- Node64 -->
<g id="node18" class="node"><title>Node64</title>
<g id="a_node18"><a xlink:href="$a00921.html" xlink:title="ArcSyn3sis/3rdParty\l/parmetis&#45;4.0.3/libparmetis\l/kwayrefine.c">
<polygon fill="white" stroke="black" points="2432,-0.5 2432,-41.5 2566,-41.5 2566,-0.5 2432,-0.5"/>
<text text-anchor="start" x="2440" y="-29.5" font-family="Helvetica,sans-Serif" font-size="10.00">ArcSyn3sis/3rdParty</text>
<text text-anchor="start" x="2440" y="-18.5" font-family="Helvetica,sans-Serif" font-size="10.00">/parmetis&#45;4.0.3/libparmetis</text>
<text text-anchor="middle" x="2499" y="-7.5" font-family="Helvetica,sans-Serif" font-size="10.00">/kwayrefine.c</text>
</a>
</g>
</g>
<!-- Node47&#45;&gt;Node64 -->
<g id="edge17" class="edge"><title>Node47&#45;&gt;Node64</title>
<path fill="none" stroke="midnightblue" d="M2877.57,-89.1461C2800.47,-79.7308 2678.95,-63.2679 2575,-42 2572.06,-41.3983 2569.06,-40.7524 2566.04,-40.0741"/>
<polygon fill="midnightblue" stroke="midnightblue" points="2877.33,-92.6428 2887.68,-90.3714 2878.17,-85.6936 2877.33,-92.6428"/>
</g>
<!-- Node65 -->
<g id="node19" class="node"><title>Node65</title>
<g id="a_node19"><a xlink:href="$a00368.html" xlink:title="ArcSyn3sis/3rdParty\l/parmetis&#45;4.0.3/libparmetis\l/match.c">
<polygon fill="white" stroke="black" points="2584,-0.5 2584,-41.5 2718,-41.5 2718,-0.5 2584,-0.5"/>
<text text-anchor="start" x="2592" y="-29.5" font-family="Helvetica,sans-Serif" font-size="10.00">ArcSyn3sis/3rdParty</text>
<text text-anchor="start" x="2592" y="-18.5" font-family="Helvetica,sans-Serif" font-size="10.00">/parmetis&#45;4.0.3/libparmetis</text>
<text text-anchor="middle" x="2651" y="-7.5" font-family="Helvetica,sans-Serif" font-size="10.00">/match.c</text>
</a>
</g>
</g>
<!-- Node47&#45;&gt;Node65 -->
<g id="edge18" class="edge"><title>Node47&#45;&gt;Node65</title>
<path fill="none" stroke="midnightblue" d="M2877.78,-79.3679C2833.59,-68.6214 2777.13,-54.7511 2727,-42 2724.09,-41.2601 2721.12,-40.4996 2718.12,-39.7276"/>
<polygon fill="midnightblue" stroke="midnightblue" points="2877.04,-82.791 2887.59,-81.7508 2878.7,-75.9889 2877.04,-82.791"/>
</g>
<!-- Node66 -->
<g id="node20" class="node"><title>Node66</title>
<g id="a_node20"><a xlink:href="$a00371.html" xlink:title="ArcSyn3sis/3rdParty\l/parmetis&#45;4.0.3/libparmetis\l/mdiffusion.c">
<polygon fill="white" stroke="black" points="2736,-0.5 2736,-41.5 2870,-41.5 2870,-0.5 2736,-0.5"/>
<text text-anchor="start" x="2744" y="-29.5" font-family="Helvetica,sans-Serif" font-size="10.00">ArcSyn3sis/3rdParty</text>
<text text-anchor="start" x="2744" y="-18.5" font-family="Helvetica,sans-Serif" font-size="10.00">/parmetis&#45;4.0.3/libparmetis</text>
<text text-anchor="middle" x="2803" y="-7.5" font-family="Helvetica,sans-Serif" font-size="10.00">/mdiffusion.c</text>
</a>
</g>
</g>
<!-- Node47&#45;&gt;Node66 -->
<g id="edge19" class="edge"><title>Node47&#45;&gt;Node66</title>
<path fill="none" stroke="midnightblue" d="M2906.82,-73.9082C2885.92,-63.4581 2861.76,-51.3801 2842.01,-41.5056"/>
<polygon fill="midnightblue" stroke="midnightblue" points="2905.35,-77.0864 2915.86,-78.4281 2908.48,-70.8254 2905.35,-77.0864"/>
</g>
<!-- Node67 -->
<g id="node21" class="node"><title>Node67</title>
<g id="a_node21"><a xlink:href="$a00933.html" xlink:title="ArcSyn3sis/3rdParty\l/parmetis&#45;4.0.3/libparmetis\l/mesh.c">
<polygon fill="white" stroke="black" points="2888,-0.5 2888,-41.5 3022,-41.5 3022,-0.5 2888,-0.5"/>
<text text-anchor="start" x="2896" y="-29.5" font-family="Helvetica,sans-Serif" font-size="10.00">ArcSyn3sis/3rdParty</text>
<text text-anchor="start" x="2896" y="-18.5" font-family="Helvetica,sans-Serif" font-size="10.00">/parmetis&#45;4.0.3/libparmetis</text>
<text text-anchor="middle" x="2955" y="-7.5" font-family="Helvetica,sans-Serif" font-size="10.00">/mesh.c</text>
</a>
</g>
</g>
<!-- Node47&#45;&gt;Node67 -->
<g id="edge20" class="edge"><title>Node47&#45;&gt;Node67</title>
<path fill="none" stroke="midnightblue" d="M2955,-68.2965C2955,-59.3009 2955,-49.6532 2955,-41.5056"/>
<polygon fill="midnightblue" stroke="midnightblue" points="2951.5,-68.4281 2955,-78.4281 2958.5,-68.4281 2951.5,-68.4281"/>
</g>
<!-- Node68 -->
<g id="node22" class="node"><title>Node68</title>
<g id="a_node22"><a xlink:href="$a00374.html" xlink:title="ArcSyn3sis/3rdParty\l/parmetis&#45;4.0.3/libparmetis\l/mmetis.c">
<polygon fill="white" stroke="black" points="3040,-0.5 3040,-41.5 3174,-41.5 3174,-0.5 3040,-0.5"/>
<text text-anchor="start" x="3048" y="-29.5" font-family="Helvetica,sans-Serif" font-size="10.00">ArcSyn3sis/3rdParty</text>
<text text-anchor="start" x="3048" y="-18.5" font-family="Helvetica,sans-Serif" font-size="10.00">/parmetis&#45;4.0.3/libparmetis</text>
<text text-anchor="middle" x="3107" y="-7.5" font-family="Helvetica,sans-Serif" font-size="10.00">/mmetis.c</text>
</a>
</g>
</g>
<!-- Node47&#45;&gt;Node68 -->
<g id="edge21" class="edge"><title>Node47&#45;&gt;Node68</title>
<path fill="none" stroke="midnightblue" d="M3003.18,-73.9082C3024.08,-63.4581 3048.24,-51.3801 3067.99,-41.5056"/>
<polygon fill="midnightblue" stroke="midnightblue" points="3001.52,-70.8254 2994.14,-78.4281 3004.65,-77.0864 3001.52,-70.8254"/>
</g>
<!-- Node69 -->
<g id="node23" class="node"><title>Node69</title>
<g id="a_node23"><a xlink:href="$a00377.html" xlink:title="ArcSyn3sis/3rdParty\l/parmetis&#45;4.0.3/libparmetis\l/move.c">
<polygon fill="white" stroke="black" points="3192,-0.5 3192,-41.5 3326,-41.5 3326,-0.5 3192,-0.5"/>
<text text-anchor="start" x="3200" y="-29.5" font-family="Helvetica,sans-Serif" font-size="10.00">ArcSyn3sis/3rdParty</text>
<text text-anchor="start" x="3200" y="-18.5" font-family="Helvetica,sans-Serif" font-size="10.00">/parmetis&#45;4.0.3/libparmetis</text>
<text text-anchor="middle" x="3259" y="-7.5" font-family="Helvetica,sans-Serif" font-size="10.00">/move.c</text>
</a>
</g>
</g>
<!-- Node47&#45;&gt;Node69 -->
<g id="edge22" class="edge"><title>Node47&#45;&gt;Node69</title>
<path fill="none" stroke="midnightblue" d="M3032.22,-79.3679C3076.41,-68.6214 3132.87,-54.7511 3183,-42 3185.91,-41.2601 3188.88,-40.4996 3191.88,-39.7276"/>
<polygon fill="midnightblue" stroke="midnightblue" points="3031.3,-75.9889 3022.41,-81.7508 3032.96,-82.791 3031.3,-75.9889"/>
</g>
<!-- Node70 -->
<g id="node24" class="node"><title>Node70</title>
<g id="a_node24"><a xlink:href="$a00380.html" xlink:title="ArcSyn3sis/3rdParty\l/parmetis&#45;4.0.3/libparmetis\l/msetup.c">
<polygon fill="white" stroke="black" points="3344,-0.5 3344,-41.5 3478,-41.5 3478,-0.5 3344,-0.5"/>
<text text-anchor="start" x="3352" y="-29.5" font-family="Helvetica,sans-Serif" font-size="10.00">ArcSyn3sis/3rdParty</text>
<text text-anchor="start" x="3352" y="-18.5" font-family="Helvetica,sans-Serif" font-size="10.00">/parmetis&#45;4.0.3/libparmetis</text>
<text text-anchor="middle" x="3411" y="-7.5" font-family="Helvetica,sans-Serif" font-size="10.00">/msetup.c</text>
</a>
</g>
</g>
<!-- Node47&#45;&gt;Node70 -->
<g id="edge23" class="edge"><title>Node47&#45;&gt;Node70</title>
<path fill="none" stroke="midnightblue" d="M3032.43,-89.1461C3109.53,-79.7308 3231.05,-63.2679 3335,-42 3337.94,-41.3983 3340.94,-40.7524 3343.96,-40.0741"/>
<polygon fill="midnightblue" stroke="midnightblue" points="3031.83,-85.6936 3022.32,-90.3714 3032.67,-92.6428 3031.83,-85.6936"/>
</g>
<!-- Node71 -->
<g id="node25" class="node"><title>Node71</title>
<g id="a_node25"><a xlink:href="$a00383.html" xlink:title="ArcSyn3sis/3rdParty\l/parmetis&#45;4.0.3/libparmetis\l/node_refine.c">
<polygon fill="white" stroke="black" points="3496,-0.5 3496,-41.5 3630,-41.5 3630,-0.5 3496,-0.5"/>
<text text-anchor="start" x="3504" y="-29.5" font-family="Helvetica,sans-Serif" font-size="10.00">ArcSyn3sis/3rdParty</text>
<text text-anchor="start" x="3504" y="-18.5" font-family="Helvetica,sans-Serif" font-size="10.00">/parmetis&#45;4.0.3/libparmetis</text>
<text text-anchor="middle" x="3563" y="-7.5" font-family="Helvetica,sans-Serif" font-size="10.00">/node_refine.c</text>
</a>
</g>
</g>
<!-- Node47&#45;&gt;Node71 -->
<g id="edge24" class="edge"><title>Node47&#45;&gt;Node71</title>
<path fill="none" stroke="midnightblue" d="M3032.33,-93.5682C3136.34,-86.7649 3326.76,-71.3411 3487,-42 3489.95,-41.4594 3492.96,-40.864 3495.99,-40.2272"/>
<polygon fill="midnightblue" stroke="midnightblue" points="3031.99,-90.0831 3022.23,-94.2194 3032.44,-97.0686 3031.99,-90.0831"/>
</g>
<!-- Node72 -->
<g id="node26" class="node"><title>Node72</title>
<g id="a_node26"><a xlink:href="$a00939.html" xlink:title="ArcSyn3sis/3rdParty\l/parmetis&#45;4.0.3/libparmetis\l/ometis.c">
<polygon fill="white" stroke="black" points="3648,-0.5 3648,-41.5 3782,-41.5 3782,-0.5 3648,-0.5"/>
<text text-anchor="start" x="3656" y="-29.5" font-family="Helvetica,sans-Serif" font-size="10.00">ArcSyn3sis/3rdParty</text>
<text text-anchor="start" x="3656" y="-18.5" font-family="Helvetica,sans-Serif" font-size="10.00">/parmetis&#45;4.0.3/libparmetis</text>
<text text-anchor="middle" x="3715" y="-7.5" font-family="Helvetica,sans-Serif" font-size="10.00">/ometis.c</text>
</a>
</g>
</g>
<!-- Node47&#45;&gt;Node72 -->
<g id="edge25" class="edge"><title>Node47&#45;&gt;Node72</title>
<path fill="none" stroke="midnightblue" d="M3032.53,-96.0796C3159.94,-91.936 3421.18,-79.2803 3639,-42 3641.82,-41.5167 3644.7,-40.978 3647.59,-40.3964"/>
<polygon fill="midnightblue" stroke="midnightblue" points="3032.37,-92.5831 3022.48,-96.3978 3032.59,-99.5796 3032.37,-92.5831"/>
</g>
<!-- Node73 -->
<g id="node27" class="node"><title>Node73</title>
<g id="a_node27"><a xlink:href="$a00389.html" xlink:title="ArcSyn3sis/3rdParty\l/parmetis&#45;4.0.3/libparmetis\l/pspases.c">
<polygon fill="white" stroke="black" points="3800,-0.5 3800,-41.5 3934,-41.5 3934,-0.5 3800,-0.5"/>
<text text-anchor="start" x="3808" y="-29.5" font-family="Helvetica,sans-Serif" font-size="10.00">ArcSyn3sis/3rdParty</text>
<text text-anchor="start" x="3808" y="-18.5" font-family="Helvetica,sans-Serif" font-size="10.00">/parmetis&#45;4.0.3/libparmetis</text>
<text text-anchor="middle" x="3867" y="-7.5" font-family="Helvetica,sans-Serif" font-size="10.00">/pspases.c</text>
</a>
</g>
</g>
<!-- Node47&#45;&gt;Node73 -->
<g id="edge26" class="edge"><title>Node47&#45;&gt;Node73</title>
<path fill="none" stroke="midnightblue" d="M3032.49,-97.7179C3180.76,-96.0963 3514.47,-87.2236 3791,-42 3793.83,-41.5376 3796.7,-41.0164 3799.6,-40.4493"/>
<polygon fill="midnightblue" stroke="midnightblue" points="3032.1,-94.2215 3022.14,-97.8225 3032.17,-101.221 3032.1,-94.2215"/>
</g>
<!-- Node74 -->
<g id="node28" class="node"><title>Node74</title>
<g id="a_node28"><a xlink:href="$a00392.html" xlink:title="ArcSyn3sis/3rdParty\l/parmetis&#45;4.0.3/libparmetis\l/redomylink.c">
<polygon fill="white" stroke="black" points="3952,-0.5 3952,-41.5 4086,-41.5 4086,-0.5 3952,-0.5"/>
<text text-anchor="start" x="3960" y="-29.5" font-family="Helvetica,sans-Serif" font-size="10.00">ArcSyn3sis/3rdParty</text>
<text text-anchor="start" x="3960" y="-18.5" font-family="Helvetica,sans-Serif" font-size="10.00">/parmetis&#45;4.0.3/libparmetis</text>
<text text-anchor="middle" x="4019" y="-7.5" font-family="Helvetica,sans-Serif" font-size="10.00">/redomylink.c</text>
</a>
</g>
</g>
<!-- Node47&#45;&gt;Node74 -->
<g id="edge27" class="edge"><title>Node47&#45;&gt;Node74</title>
<path fill="none" stroke="midnightblue" d="M3032.48,-98.8682C3199.81,-99.5949 3607.05,-95.1726 3943,-42 3945.83,-41.5521 3948.71,-41.0431 3951.6,-40.486"/>
<polygon fill="midnightblue" stroke="midnightblue" points="3032.3,-95.3673 3022.28,-98.8162 3032.27,-102.367 3032.3,-95.3673"/>
</g>
<!-- Node75 -->
<g id="node29" class="node"><title>Node75</title>
<g id="a_node29"><a xlink:href="$a00395.html" xlink:title="ArcSyn3sis/3rdParty\l/parmetis&#45;4.0.3/libparmetis\l/remap.c">
<polygon fill="white" stroke="black" points="4104,-0.5 4104,-41.5 4238,-41.5 4238,-0.5 4104,-0.5"/>
<text text-anchor="start" x="4112" y="-29.5" font-family="Helvetica,sans-Serif" font-size="10.00">ArcSyn3sis/3rdParty</text>
<text text-anchor="start" x="4112" y="-18.5" font-family="Helvetica,sans-Serif" font-size="10.00">/parmetis&#45;4.0.3/libparmetis</text>
<text text-anchor="middle" x="4171" y="-7.5" font-family="Helvetica,sans-Serif" font-size="10.00">/remap.c</text>
</a>
</g>
</g>
<!-- Node47&#45;&gt;Node75 -->
<g id="edge28" class="edge"><title>Node47&#45;&gt;Node75</title>
<path fill="none" stroke="midnightblue" d="M3032.54,-96.2949C3254.48,-91.0802 3889.45,-73.739 4095,-42 4097.83,-41.5628 4100.71,-41.0627 4103.61,-40.513"/>
<polygon fill="midnightblue" stroke="midnightblue" points="3032.2,-92.8017 3022.29,-96.5341 3032.36,-99.7998 3032.2,-92.8017"/>
</g>
<!-- Node76 -->
<g id="node30" class="node"><title>Node76</title>
<g id="a_node30"><a xlink:href="$a00398.html" xlink:title="ArcSyn3sis/3rdParty\l/parmetis&#45;4.0.3/libparmetis\l/renumber.c">
<polygon fill="white" stroke="black" points="4256,-0.5 4256,-41.5 4390,-41.5 4390,-0.5 4256,-0.5"/>
<text text-anchor="start" x="4264" y="-29.5" font-family="Helvetica,sans-Serif" font-size="10.00">ArcSyn3sis/3rdParty</text>
<text text-anchor="start" x="4264" y="-18.5" font-family="Helvetica,sans-Serif" font-size="10.00">/parmetis&#45;4.0.3/libparmetis</text>
<text text-anchor="middle" x="4323" y="-7.5" font-family="Helvetica,sans-Serif" font-size="10.00">/renumber.c</text>
</a>
</g>
</g>
<!-- Node47&#45;&gt;Node76 -->
<g id="edge29" class="edge"><title>Node47&#45;&gt;Node76</title>
<path fill="none" stroke="midnightblue" d="M3032.3,-96.8184C3273.56,-92.7884 4010.65,-77.7979 4247,-42 4249.83,-41.5709 4252.71,-41.0777 4255.61,-40.5336"/>
<polygon fill="midnightblue" stroke="midnightblue" points="3032.15,-93.3202 3022.21,-96.9853 3032.27,-100.319 3032.15,-93.3202"/>
</g>
<!-- Node77 -->
<g id="node31" class="node"><title>Node77</title>
<g id="a_node31"><a xlink:href="$a00401.html" xlink:title="ArcSyn3sis/3rdParty\l/parmetis&#45;4.0.3/libparmetis\l/rmetis.c">
<polygon fill="white" stroke="black" points="4408,-0.5 4408,-41.5 4542,-41.5 4542,-0.5 4408,-0.5"/>
<text text-anchor="start" x="4416" y="-29.5" font-family="Helvetica,sans-Serif" font-size="10.00">ArcSyn3sis/3rdParty</text>
<text text-anchor="start" x="4416" y="-18.5" font-family="Helvetica,sans-Serif" font-size="10.00">/parmetis&#45;4.0.3/libparmetis</text>
<text text-anchor="middle" x="4475" y="-7.5" font-family="Helvetica,sans-Serif" font-size="10.00">/rmetis.c</text>
</a>
</g>
</g>
<!-- Node47&#45;&gt;Node77 -->
<g id="edge30" class="edge"><title>Node47&#45;&gt;Node77</title>
<path fill="none" stroke="midnightblue" d="M3032.37,-97.2274C3292.15,-94.2845 4131.79,-81.8503 4399,-42 4401.83,-41.5774 4404.71,-41.0895 4407.61,-40.5499"/>
<polygon fill="midnightblue" stroke="midnightblue" points="3032.23,-93.7287 3022.27,-97.3403 3032.31,-100.728 3032.23,-93.7287"/>
</g>
<!-- Node78 -->
<g id="node32" class="node"><title>Node78</title>
<g id="a_node32"><a xlink:href="$a00404.html" xlink:title="ArcSyn3sis/3rdParty\l/parmetis&#45;4.0.3/libparmetis\l/selectq.c">
<polygon fill="white" stroke="black" points="4560,-0.5 4560,-41.5 4694,-41.5 4694,-0.5 4560,-0.5"/>
<text text-anchor="start" x="4568" y="-29.5" font-family="Helvetica,sans-Serif" font-size="10.00">ArcSyn3sis/3rdParty</text>
<text text-anchor="start" x="4568" y="-18.5" font-family="Helvetica,sans-Serif" font-size="10.00">/parmetis&#45;4.0.3/libparmetis</text>
<text text-anchor="middle" x="4627" y="-7.5" font-family="Helvetica,sans-Serif" font-size="10.00">/selectq.c</text>
</a>
</g>
</g>
<!-- Node47&#45;&gt;Node78 -->
<g id="edge31" class="edge"><title>Node47&#45;&gt;Node78</title>
<path fill="none" stroke="midnightblue" d="M3032.37,-97.5604C3309.63,-95.6302 4252.77,-85.9147 4551,-42 4553.83,-41.5826 4556.72,-41.0991 4559.62,-40.5632"/>
<polygon fill="midnightblue" stroke="midnightblue" points="3031.98,-94.0628 3022.01,-97.631 3032.03,-101.063 3031.98,-94.0628"/>
</g>
<!-- Node79 -->
<g id="node33" class="node"><title>Node79</title>
<g id="a_node33"><a xlink:href="$a00407.html" xlink:title="ArcSyn3sis/3rdParty\l/parmetis&#45;4.0.3/libparmetis\l/serial.c">
<polygon fill="white" stroke="black" points="4712,-0.5 4712,-41.5 4846,-41.5 4846,-0.5 4712,-0.5"/>
<text text-anchor="start" x="4720" y="-29.5" font-family="Helvetica,sans-Serif" font-size="10.00">ArcSyn3sis/3rdParty</text>
<text text-anchor="start" x="4720" y="-18.5" font-family="Helvetica,sans-Serif" font-size="10.00">/parmetis&#45;4.0.3/libparmetis</text>
<text text-anchor="middle" x="4779" y="-7.5" font-family="Helvetica,sans-Serif" font-size="10.00">/serial.c</text>
</a>
</g>
</g>
<!-- Node47&#45;&gt;Node79 -->
<g id="edge32" class="edge"><title>Node47&#45;&gt;Node79</title>
<path fill="none" stroke="midnightblue" d="M3032.26,-97.8363C3326.04,-96.8551 4373.59,-89.9929 4703,-42 4705.84,-41.5869 4708.72,-41.107 4711.62,-40.5741"/>
<polygon fill="midnightblue" stroke="midnightblue" points="3032.12,-94.3366 3022.13,-97.8688 3032.14,-101.337 3032.12,-94.3366"/>
</g>
<!-- Node80 -->
<g id="node34" class="node"><title>Node80</title>
<g id="a_node34"><a xlink:href="$a00972.html" xlink:title="ArcSyn3sis/3rdParty\l/parmetis&#45;4.0.3/libparmetis\l/stat.c">
<polygon fill="white" stroke="black" points="4864,-0.5 4864,-41.5 4998,-41.5 4998,-0.5 4864,-0.5"/>
<text text-anchor="start" x="4872" y="-29.5" font-family="Helvetica,sans-Serif" font-size="10.00">ArcSyn3sis/3rdParty</text>
<text text-anchor="start" x="4872" y="-18.5" font-family="Helvetica,sans-Serif" font-size="10.00">/parmetis&#45;4.0.3/libparmetis</text>
<text text-anchor="middle" x="4931" y="-7.5" font-family="Helvetica,sans-Serif" font-size="10.00">/stat.c</text>
</a>
</g>
</g>
<!-- Node47&#45;&gt;Node80 -->
<g id="edge33" class="edge"><title>Node47&#45;&gt;Node80</title>
<path fill="none" stroke="midnightblue" d="M3032.68,-98.0678C3343.01,-97.9741 4494.51,-94.0498 4855,-42 4857.84,-41.5906 4860.72,-41.1137 4863.62,-40.5833"/>
<polygon fill="midnightblue" stroke="midnightblue" points="3032.43,-94.5677 3022.43,-98.0696 3032.43,-101.568 3032.43,-94.5677"/>
</g>
<!-- Node81 -->
<g id="node35" class="node"><title>Node81</title>
<g id="a_node35"><a xlink:href="$a00410.html" xlink:title="ArcSyn3sis/3rdParty\l/parmetis&#45;4.0.3/libparmetis\l/timer.c">
<polygon fill="white" stroke="black" points="5016,-0.5 5016,-41.5 5150,-41.5 5150,-0.5 5016,-0.5"/>
<text text-anchor="start" x="5024" y="-29.5" font-family="Helvetica,sans-Serif" font-size="10.00">ArcSyn3sis/3rdParty</text>
<text text-anchor="start" x="5024" y="-18.5" font-family="Helvetica,sans-Serif" font-size="10.00">/parmetis&#45;4.0.3/libparmetis</text>
<text text-anchor="middle" x="5083" y="-7.5" font-family="Helvetica,sans-Serif" font-size="10.00">/timer.c</text>
</a>
</g>
</g>
<!-- Node47&#45;&gt;Node81 -->
<g id="edge34" class="edge"><title>Node47&#45;&gt;Node81</title>
<path fill="none" stroke="midnightblue" d="M3032.32,-98.2657C3357.45,-99.0169 4615.04,-98.157 5007,-42 5009.84,-41.5937 5012.72,-41.1194 5015.62,-40.5911"/>
<polygon fill="midnightblue" stroke="midnightblue" points="3032.07,-94.7652 3022.06,-98.2407 3032.05,-101.765 3032.07,-94.7652"/>
</g>
<!-- Node82 -->
<g id="node36" class="node"><title>Node82</title>
<g id="a_node36"><a xlink:href="$a00876.html" xlink:title="ArcSyn3sis/3rdParty\l/parmetis&#45;4.0.3/libparmetis\l/util.c">
<polygon fill="white" stroke="black" points="5168,-0.5 5168,-41.5 5302,-41.5 5302,-0.5 5168,-0.5"/>
<text text-anchor="start" x="5176" y="-29.5" font-family="Helvetica,sans-Serif" font-size="10.00">ArcSyn3sis/3rdParty</text>
<text text-anchor="start" x="5176" y="-18.5" font-family="Helvetica,sans-Serif" font-size="10.00">/parmetis&#45;4.0.3/libparmetis</text>
<text text-anchor="middle" x="5235" y="-7.5" font-family="Helvetica,sans-Serif" font-size="10.00">/util.c</text>
</a>
</g>
</g>
<!-- Node47&#45;&gt;Node82 -->
<g id="edge35" class="edge"><title>Node47&#45;&gt;Node82</title>
<path fill="none" stroke="midnightblue" d="M3032.37,-98.4367C3372.36,-99.9868 4735.65,-102.248 5159,-42 5161.84,-41.5963 5164.72,-41.1243 5167.62,-40.5978"/>
<polygon fill="midnightblue" stroke="midnightblue" points="3032.15,-94.9358 3022.13,-98.3889 3032.12,-101.936 3032.15,-94.9358"/>
</g>
<!-- Node83 -->
<g id="node37" class="node"><title>Node83</title>
<g id="a_node37"><a xlink:href="$a00413.html" xlink:title="ArcSyn3sis/3rdParty\l/parmetis&#45;4.0.3/libparmetis\l/wave.c">
<polygon fill="white" stroke="black" points="5320,-0.5 5320,-41.5 5454,-41.5 5454,-0.5 5320,-0.5"/>
<text text-anchor="start" x="5328" y="-29.5" font-family="Helvetica,sans-Serif" font-size="10.00">ArcSyn3sis/3rdParty</text>
<text text-anchor="start" x="5328" y="-18.5" font-family="Helvetica,sans-Serif" font-size="10.00">/parmetis&#45;4.0.3/libparmetis</text>
<text text-anchor="middle" x="5387" y="-7.5" font-family="Helvetica,sans-Serif" font-size="10.00">/wave.c</text>
</a>
</g>
</g>
<!-- Node47&#45;&gt;Node83 -->
<g id="edge36" class="edge"><title>Node47&#45;&gt;Node83</title>
<path fill="none" stroke="midnightblue" d="M3032.21,-97.2365C3412.95,-93.3269 5081.55,-74.4624 5311,-42 5313.84,-41.5986 5316.72,-41.1285 5319.62,-40.6037"/>
<polygon fill="midnightblue" stroke="midnightblue" points="3032.08,-93.7375 3022.12,-97.3397 3032.15,-100.737 3032.08,-93.7375"/>
</g>
<!-- Node84 -->
<g id="node38" class="node"><title>Node84</title>
<g id="a_node38"><a xlink:href="$a00416.html" xlink:title="ArcSyn3sis/3rdParty\l/parmetis&#45;4.0.3/libparmetis\l/weird.c">
<polygon fill="white" stroke="black" points="5472,-0.5 5472,-41.5 5606,-41.5 5606,-0.5 5472,-0.5"/>
<text text-anchor="start" x="5480" y="-29.5" font-family="Helvetica,sans-Serif" font-size="10.00">ArcSyn3sis/3rdParty</text>
<text text-anchor="start" x="5480" y="-18.5" font-family="Helvetica,sans-Serif" font-size="10.00">/parmetis&#45;4.0.3/libparmetis</text>
<text text-anchor="middle" x="5539" y="-7.5" font-family="Helvetica,sans-Serif" font-size="10.00">/weird.c</text>
</a>
</g>
</g>
<!-- Node47&#45;&gt;Node84 -->
<g id="edge37" class="edge"><title>Node47&#45;&gt;Node84</title>
<path fill="none" stroke="midnightblue" d="M3032.3,-97.3552C3427.99,-93.9093 5217.73,-76.5198 5463,-42 5465.84,-41.6007 5468.72,-41.1323 5471.62,-40.6089"/>
<polygon fill="midnightblue" stroke="midnightblue" points="3032.07,-93.8569 3022.11,-97.4436 3032.14,-100.857 3032.07,-93.8569"/>
</g>
<!-- Node85 -->
<g id="node39" class="node"><title>Node85</title>
<g id="a_node39"><a xlink:href="$a00987.html" xlink:title="ArcSyn3sis/3rdParty\l/parmetis&#45;4.0.3/libparmetis\l/wspace.c">
<polygon fill="white" stroke="black" points="5624,-0.5 5624,-41.5 5758,-41.5 5758,-0.5 5624,-0.5"/>
<text text-anchor="start" x="5632" y="-29.5" font-family="Helvetica,sans-Serif" font-size="10.00">ArcSyn3sis/3rdParty</text>
<text text-anchor="start" x="5632" y="-18.5" font-family="Helvetica,sans-Serif" font-size="10.00">/parmetis&#45;4.0.3/libparmetis</text>
<text text-anchor="middle" x="5691" y="-7.5" font-family="Helvetica,sans-Serif" font-size="10.00">/wspace.c</text>
</a>
</g>
</g>
<!-- Node47&#45;&gt;Node85 -->
<g id="edge38" class="edge"><title>Node47&#45;&gt;Node85</title>
<path fill="none" stroke="midnightblue" d="M3032.28,-97.4614C3442.25,-94.4583 5353.86,-78.5831 5615,-42 5617.84,-41.6025 5620.72,-41.1356 5623.62,-40.6134"/>
<polygon fill="midnightblue" stroke="midnightblue" points="3031.99,-93.9633 3022.02,-97.5362 3032.04,-100.963 3031.99,-93.9633"/>
</g>
<!-- Node86 -->
<g id="node40" class="node"><title>Node86</title>
<g id="a_node40"><a xlink:href="$a00419.html" xlink:title="ArcSyn3sis/3rdParty\l/parmetis&#45;4.0.3/libparmetis\l/xyzpart.c">
<polygon fill="white" stroke="black" points="5776,-0.5 5776,-41.5 5910,-41.5 5910,-0.5 5776,-0.5"/>
<text text-anchor="start" x="5784" y="-29.5" font-family="Helvetica,sans-Serif" font-size="10.00">ArcSyn3sis/3rdParty</text>
<text text-anchor="start" x="5784" y="-18.5" font-family="Helvetica,sans-Serif" font-size="10.00">/parmetis&#45;4.0.3/libparmetis</text>
<text text-anchor="middle" x="5843" y="-7.5" font-family="Helvetica,sans-Serif" font-size="10.00">/xyzpart.c</text>
</a>
</g>
</g>
<!-- Node47&#45;&gt;Node86 -->
<g id="edge39" class="edge"><title>Node47&#45;&gt;Node86</title>
<path fill="none" stroke="midnightblue" d="M3032.23,-97.5563C3456.01,-94.9755 5489.97,-80.6496 5767,-42 5769.84,-41.6041 5772.72,-41.1386 5775.62,-40.6175"/>
<polygon fill="midnightblue" stroke="midnightblue" points="3032.2,-94.0563 3022.22,-97.6169 3032.24,-101.056 3032.2,-94.0563"/>
</g>
</g>
</svg>
