<?xml version="1.0" encoding="UTF-8" standalone="no"?>
<!DOCTYPE svg PUBLIC "-//W3C//DTD SVG 1.1//EN"
 "http://www.w3.org/Graphics/SVG/1.1/DTD/svg11.dtd">
<!-- Generated by graphviz version 2.36.0 (20140111.2315)
 -->
<!-- Title: Mc_Diffusion Pages: 1 -->
<svg width="436pt" height="144pt"
 viewBox="0.00 0.00 436.00 143.54" xmlns="http://www.w3.org/2000/svg" xmlns:xlink="http://www.w3.org/1999/xlink">
<g id="graph0" class="graph" transform="scale(1 1) rotate(0) translate(4 139.535)">
<title>Mc_Diffusion</title>
<polygon fill="white" stroke="none" points="-4,4 -4,-139.535 432,-139.535 432,4 -4,4"/>
<!-- Node3 -->
<g id="node1" class="node"><title>Node3</title>
<polygon fill="#bfbfbf" stroke="black" points="0,-38.5 0,-57.5 74,-57.5 74,-38.5 0,-38.5"/>
<text text-anchor="middle" x="37" y="-45.5" font-family="Helvetica,sans-Serif" font-size="10.00">Mc_Diffusion</text>
</g>
<!-- Node4 -->
<g id="node2" class="node"><title>Node4</title>
<g id="a_node2"><a xlink:href="$a00077.html#aba6f76f5c67b9b7e9c2e45988d3d3e9d" xlink:title="gk_malloc">
<polygon fill="white" stroke="black" points="117,-76.5 117,-95.5 179,-95.5 179,-76.5 117,-76.5"/>
<text text-anchor="middle" x="148" y="-83.5" font-family="Helvetica,sans-Serif" font-size="10.00">gk_malloc</text>
</a>
</g>
</g>
<!-- Node3&#45;&gt;Node4 -->
<g id="edge1" class="edge"><title>Node3&#45;&gt;Node4</title>
<path fill="none" stroke="midnightblue" d="M65.5053,-57.589C78.9307,-62.2694 95.28,-67.9692 109.801,-73.0315"/>
<polygon fill="midnightblue" stroke="midnightblue" points="108.909,-76.427 119.503,-76.4141 111.213,-69.8172 108.909,-76.427"/>
</g>
<!-- Node9 -->
<g id="node7" class="node"><title>Node9</title>
<g id="a_node7"><a xlink:href="$a00371.html#a78ca75095aef9df3b79518a334846184" xlink:title="ExtractGraph">
<polygon fill="white" stroke="black" points="110.5,-38.5 110.5,-57.5 185.5,-57.5 185.5,-38.5 110.5,-38.5"/>
<text text-anchor="middle" x="148" y="-45.5" font-family="Helvetica,sans-Serif" font-size="10.00">ExtractGraph</text>
</a>
</g>
</g>
<!-- Node3&#45;&gt;Node9 -->
<g id="edge7" class="edge"><title>Node3&#45;&gt;Node9</title>
<path fill="none" stroke="midnightblue" d="M74.2954,-48C82.6637,-48 91.6789,-48 100.417,-48"/>
<polygon fill="midnightblue" stroke="midnightblue" points="100.491,-51.5001 110.491,-48 100.491,-44.5001 100.491,-51.5001"/>
</g>
<!-- Node10 -->
<g id="node8" class="node"><title>Node10</title>
<g id="a_node8"><a xlink:href="$a00077.html#ac8df62c4e3d0910711a9874f9cc58884" xlink:title="gk_free">
<polygon fill="white" stroke="black" points="123,-0.5 123,-19.5 173,-19.5 173,-0.5 123,-0.5"/>
<text text-anchor="middle" x="148" y="-7.5" font-family="Helvetica,sans-Serif" font-size="10.00">gk_free</text>
</a>
</g>
</g>
<!-- Node3&#45;&gt;Node10 -->
<g id="edge8" class="edge"><title>Node3&#45;&gt;Node10</title>
<path fill="none" stroke="midnightblue" d="M65.5053,-38.411C79.991,-33.3609 97.8807,-27.1242 113.205,-21.7818"/>
<polygon fill="midnightblue" stroke="midnightblue" points="114.553,-25.0186 122.843,-18.4216 112.248,-18.4087 114.553,-25.0186"/>
</g>
<!-- Node5 -->
<g id="node3" class="node"><title>Node5</title>
<g id="a_node3"><a xlink:href="$a01017.html#a2e311a777ffe9c80e405efa7cd2757be" xlink:title="fprintf">
<polygon fill="white" stroke="black" points="386,-76.5 386,-95.5 428,-95.5 428,-76.5 386,-76.5"/>
<text text-anchor="middle" x="407" y="-83.5" font-family="Helvetica,sans-Serif" font-size="10.00">fprintf</text>
</a>
</g>
</g>
<!-- Node4&#45;&gt;Node5 -->
<g id="edge2" class="edge"><title>Node4&#45;&gt;Node5</title>
<path fill="none" stroke="midnightblue" d="M162.466,-95.5564C176.543,-104.912 199.656,-118.533 222,-124 277.259,-137.521 295.62,-140.709 350,-124 364.039,-119.686 377.719,-110.525 388.044,-102.279"/>
<polygon fill="midnightblue" stroke="midnightblue" points="390.469,-104.813 395.862,-95.6941 385.959,-99.4595 390.469,-104.813"/>
</g>
<!-- Node6 -->
<g id="node4" class="node"><title>Node6</title>
<g id="a_node4"><a xlink:href="$a00110.html#ad2327b94227019b6753b6b09400c0522" xlink:title="gk_GetCurMemoryUsed">
<polygon fill="white" stroke="black" points="224,-95.5 224,-114.5 348,-114.5 348,-95.5 224,-95.5"/>
<text text-anchor="middle" x="286" y="-102.5" font-family="Helvetica,sans-Serif" font-size="10.00">gk_GetCurMemoryUsed</text>
</a>
</g>
</g>
<!-- Node4&#45;&gt;Node6 -->
<g id="edge3" class="edge"><title>Node4&#45;&gt;Node6</title>
<path fill="none" stroke="midnightblue" d="M179.183,-90.2167C189.515,-91.6602 201.555,-93.3422 213.735,-95.0439"/>
<polygon fill="midnightblue" stroke="midnightblue" points="213.577,-98.5557 223.965,-96.473 214.545,-91.623 213.577,-98.5557"/>
</g>
<!-- Node7 -->
<g id="node5" class="node"><title>Node7</title>
<g id="a_node5"><a xlink:href="$a00110.html#a656fd5266ae12a96e53125486f8fea52" xlink:title="gk_GetMaxMemoryUsed">
<polygon fill="white" stroke="black" points="222.5,-57.5 222.5,-76.5 349.5,-76.5 349.5,-57.5 222.5,-57.5"/>
<text text-anchor="middle" x="286" y="-64.5" font-family="Helvetica,sans-Serif" font-size="10.00">gk_GetMaxMemoryUsed</text>
</a>
</g>
</g>
<!-- Node4&#45;&gt;Node7 -->
<g id="edge4" class="edge"><title>Node4&#45;&gt;Node7</title>
<path fill="none" stroke="midnightblue" d="M179.183,-81.7833C189.048,-80.405 200.471,-78.8092 212.086,-77.1865"/>
<polygon fill="midnightblue" stroke="midnightblue" points="212.889,-80.6084 222.309,-75.7583 211.921,-73.6757 212.889,-80.6084"/>
</g>
<!-- Node8 -->
<g id="node6" class="node"><title>Node8</title>
<g id="a_node6"><a xlink:href="$a00026.html#a4c320c13bcdc9967613253ef4c73f59f" xlink:title="gk_errexit">
<polygon fill="white" stroke="black" points="256,-19.5 256,-38.5 316,-38.5 316,-19.5 256,-19.5"/>
<text text-anchor="middle" x="286" y="-26.5" font-family="Helvetica,sans-Serif" font-size="10.00">gk_errexit</text>
</a>
</g>
</g>
<!-- Node4&#45;&gt;Node8 -->
<g id="edge5" class="edge"><title>Node4&#45;&gt;Node8</title>
<path fill="none" stroke="midnightblue" d="M167.844,-76.375C173.672,-73.3845 180.107,-70.0678 186,-67 202.047,-58.6455 205.262,-54.866 222,-48 229.664,-44.856 238.042,-41.9687 246.113,-39.4448"/>
<polygon fill="midnightblue" stroke="midnightblue" points="247.168,-42.7826 255.738,-36.5538 245.154,-36.0785 247.168,-42.7826"/>
</g>
<!-- Node8&#45;&gt;Node5 -->
<g id="edge6" class="edge"><title>Node8&#45;&gt;Node5</title>
<path fill="none" stroke="midnightblue" d="M316.228,-35.8252C327.104,-38.8755 339.377,-42.9396 350,-48 362.634,-54.0184 375.634,-62.6626 385.925,-70.1863"/>
<polygon fill="midnightblue" stroke="midnightblue" points="384.101,-73.1937 394.194,-76.4154 388.313,-67.6027 384.101,-73.1937"/>
</g>
</g>
</svg>
