<?xml version="1.0" encoding="UTF-8" standalone="no"?>
<!DOCTYPE svg PUBLIC "-//W3C//DTD SVG 1.1//EN"
 "http://www.w3.org/Graphics/SVG/1.1/DTD/svg11.dtd">
<!-- Generated by graphviz version 2.36.0 (20140111.2315)
 -->
<!-- Title: ParMETIS_V3_PartMeshKway Pages: 1 -->
<svg width="336pt" height="218pt"
 viewBox="0.00 0.00 336.00 218.00" xmlns="http://www.w3.org/2000/svg" xmlns:xlink="http://www.w3.org/1999/xlink">
<g id="graph0" class="graph" transform="scale(1 1) rotate(0) translate(4 214)">
<title>ParMETIS_V3_PartMeshKway</title>
<polygon fill="white" stroke="none" points="-4,4 -4,-214 332,-214 332,4 -4,4"/>
<!-- Node0 -->
<g id="node1" class="node"><title>Node0</title>
<polygon fill="#bfbfbf" stroke="black" points="0.5,-95.5 0.5,-114.5 153.5,-114.5 153.5,-95.5 0.5,-95.5"/>
<text text-anchor="middle" x="77" y="-102.5" font-family="Helvetica,sans-Serif" font-size="10.00">ParMETIS_V3_PartMeshKway</text>
</g>
<!-- Node1 -->
<g id="node2" class="node"><title>Node1</title>
<g id="a_node2"><a xlink:href="$a00077.html#a24633cc1c72a7e92836912c2adcf570a" xlink:title="gk_malloc_init">
<polygon fill="white" stroke="black" points="219,-190.5 219,-209.5 299,-209.5 299,-190.5 219,-190.5"/>
<text text-anchor="middle" x="259" y="-197.5" font-family="Helvetica,sans-Serif" font-size="10.00">gk_malloc_init</text>
</a>
</g>
</g>
<!-- Node0&#45;&gt;Node1 -->
<g id="edge1" class="edge"><title>Node0&#45;&gt;Node1</title>
<path fill="none" stroke="midnightblue" d="M89.3357,-114.557C108.75,-130.48 150.138,-162.509 190,-181 196.052,-183.807 202.603,-186.279 209.169,-188.432"/>
<polygon fill="midnightblue" stroke="midnightblue" points="208.155,-191.782 218.742,-191.36 210.203,-185.088 208.155,-191.782"/>
</g>
<!-- Node2 -->
<g id="node3" class="node"><title>Node2</title>
<g id="a_node3"><a xlink:href="$a00077.html#ad2327b94227019b6753b6b09400c0522" xlink:title="gk_GetCurMemoryUsed">
<polygon fill="white" stroke="black" points="197,-152.5 197,-171.5 321,-171.5 321,-152.5 197,-152.5"/>
<text text-anchor="middle" x="259" y="-159.5" font-family="Helvetica,sans-Serif" font-size="10.00">gk_GetCurMemoryUsed</text>
</a>
</g>
</g>
<!-- Node0&#45;&gt;Node2 -->
<g id="edge2" class="edge"><title>Node0&#45;&gt;Node2</title>
<path fill="none" stroke="midnightblue" d="M105.023,-114.631C127.624,-122.575 160.77,-133.965 190,-143 197.247,-145.24 204.964,-147.507 212.5,-149.658"/>
<polygon fill="midnightblue" stroke="midnightblue" points="211.674,-153.061 222.248,-152.406 213.573,-146.324 211.674,-153.061"/>
</g>
<!-- Node3 -->
<g id="node4" class="node"><title>Node3</title>
<g id="a_node4"><a xlink:href="$a00843.html#a2f9e316d7e0c46037cf231cd82cf9d97" xlink:title="ParMETIS_V3_Mesh2Dual">
<polygon fill="white" stroke="black" points="190.5,-114.5 190.5,-133.5 327.5,-133.5 327.5,-114.5 190.5,-114.5"/>
<text text-anchor="middle" x="259" y="-121.5" font-family="Helvetica,sans-Serif" font-size="10.00">ParMETIS_V3_Mesh2Dual</text>
</a>
</g>
</g>
<!-- Node0&#45;&gt;Node3 -->
<g id="edge3" class="edge"><title>Node0&#45;&gt;Node3</title>
<path fill="none" stroke="midnightblue" d="M153.554,-112.975C162.431,-113.912 171.501,-114.87 180.406,-115.81"/>
<polygon fill="midnightblue" stroke="midnightblue" points="180.059,-119.292 190.371,-116.861 180.794,-112.331 180.059,-119.292"/>
</g>
<!-- Node4 -->
<g id="node5" class="node"><title>Node4</title>
<g id="a_node5"><a xlink:href="$a00843.html#af418d1e76eaf4f80116da4caf51bd54e" xlink:title="ParMETIS_V3_PartKway">
<polygon fill="white" stroke="black" points="194.5,-76.5 194.5,-95.5 323.5,-95.5 323.5,-76.5 194.5,-76.5"/>
<text text-anchor="middle" x="259" y="-83.5" font-family="Helvetica,sans-Serif" font-size="10.00">ParMETIS_V3_PartKway</text>
</a>
</g>
</g>
<!-- Node0&#45;&gt;Node4 -->
<g id="edge4" class="edge"><title>Node0&#45;&gt;Node4</title>
<path fill="none" stroke="midnightblue" d="M153.554,-97.0249C163.728,-95.9509 174.155,-94.8503 184.296,-93.7798"/>
<polygon fill="midnightblue" stroke="midnightblue" points="184.745,-97.252 194.323,-92.7215 184.01,-90.2907 184.745,-97.252"/>
</g>
<!-- Node5 -->
<g id="node6" class="node"><title>Node5</title>
<g id="a_node6"><a xlink:href="$a00170.html#a8b3f46b67d6ec9fccaa8c72b9ad10b71" xlink:title="METIS_Free">
<polygon fill="white" stroke="black" points="222.5,-38.5 222.5,-57.5 295.5,-57.5 295.5,-38.5 222.5,-38.5"/>
<text text-anchor="middle" x="259" y="-45.5" font-family="Helvetica,sans-Serif" font-size="10.00">METIS_Free</text>
</a>
</g>
</g>
<!-- Node0&#45;&gt;Node5 -->
<g id="edge5" class="edge"><title>Node0&#45;&gt;Node5</title>
<path fill="none" stroke="midnightblue" d="M105.023,-95.3689C127.624,-87.4255 160.77,-76.0348 190,-67 197.247,-64.7599 204.964,-62.4926 212.5,-60.3421"/>
<polygon fill="midnightblue" stroke="midnightblue" points="213.573,-63.6762 222.248,-57.5945 211.674,-56.9388 213.573,-63.6762"/>
</g>
<!-- Node6 -->
<g id="node7" class="node"><title>Node6</title>
<g id="a_node7"><a xlink:href="$a00077.html#a47156a22528b5bc8c7c6e9849af34e62" xlink:title="gk_malloc_cleanup">
<polygon fill="white" stroke="black" points="208,-0.5 208,-19.5 310,-19.5 310,-0.5 208,-0.5"/>
<text text-anchor="middle" x="259" y="-7.5" font-family="Helvetica,sans-Serif" font-size="10.00">gk_malloc_cleanup</text>
</a>
</g>
</g>
<!-- Node0&#45;&gt;Node6 -->
<g id="edge6" class="edge"><title>Node0&#45;&gt;Node6</title>
<path fill="none" stroke="midnightblue" d="M89.3357,-95.4427C108.75,-79.5203 150.138,-47.491 190,-29 195.004,-26.6789 200.35,-24.5867 205.763,-22.7146"/>
<polygon fill="midnightblue" stroke="midnightblue" points="207.068,-25.9714 215.519,-19.5809 204.928,-19.3067 207.068,-25.9714"/>
</g>
</g>
</svg>
