<?xml version="1.0" encoding="UTF-8" standalone="no"?>
<!DOCTYPE svg PUBLIC "-//W3C//DTD SVG 1.1//EN"
 "http://www.w3.org/Graphics/SVG/1.1/DTD/svg11.dtd">
<!-- Generated by graphviz version 2.36.0 (20140111.2315)
 -->
<!-- Title: ArcSyn3sis/3rdParty/parmetis&#45;4.0.3/libparmetis/remap.c Pages: 1 -->
<svg width="2706pt" height="286pt"
 viewBox="0.00 0.00 2706.00 286.00" xmlns="http://www.w3.org/2000/svg" xmlns:xlink="http://www.w3.org/1999/xlink">
<g id="graph0" class="graph" transform="scale(1 1) rotate(0) translate(4 282)">
<title>ArcSyn3sis/3rdParty/parmetis&#45;4.0.3/libparmetis/remap.c</title>
<polygon fill="white" stroke="none" points="-4,4 -4,-282 2702,-282 2702,4 -4,4"/>
<!-- Node0 -->
<g id="node1" class="node"><title>Node0</title>
<polygon fill="#bfbfbf" stroke="black" points="2145,-236.5 2145,-277.5 2279,-277.5 2279,-236.5 2145,-236.5"/>
<text text-anchor="start" x="2153" y="-265.5" font-family="Helvetica,sans-Serif" font-size="10.00">ArcSyn3sis/3rdParty</text>
<text text-anchor="start" x="2153" y="-254.5" font-family="Helvetica,sans-Serif" font-size="10.00">/parmetis&#45;4.0.3/libparmetis</text>
<text text-anchor="middle" x="2212" y="-243.5" font-family="Helvetica,sans-Serif" font-size="10.00">/remap.c</text>
</g>
<!-- Node1 -->
<g id="node2" class="node"><title>Node1</title>
<g id="a_node2"><a xlink:href="$a00386.html" xlink:title="parmetislib.h">
<polygon fill="white" stroke="black" points="2175.5,-180.5 2175.5,-199.5 2248.5,-199.5 2248.5,-180.5 2175.5,-180.5"/>
<text text-anchor="middle" x="2212" y="-187.5" font-family="Helvetica,sans-Serif" font-size="10.00">parmetislib.h</text>
</a>
</g>
</g>
<!-- Node0&#45;&gt;Node1 -->
<g id="edge1" class="edge"><title>Node0&#45;&gt;Node1</title>
<path fill="none" stroke="midnightblue" d="M2212,-236.498C2212,-228.065 2212,-218.235 2212,-209.874"/>
<polygon fill="midnightblue" stroke="midnightblue" points="2215.5,-209.652 2212,-199.652 2208.5,-209.653 2215.5,-209.652"/>
</g>
<!-- Node2 -->
<g id="node3" class="node"><title>Node2</title>
<g id="a_node3"><a xlink:href="$a00086.html" xlink:title="GKlib.h">
<polygon fill="white" stroke="black" points="1207.5,-118.5 1207.5,-137.5 1256.5,-137.5 1256.5,-118.5 1207.5,-118.5"/>
<text text-anchor="middle" x="1232" y="-125.5" font-family="Helvetica,sans-Serif" font-size="10.00">GKlib.h</text>
</a>
</g>
</g>
<!-- Node1&#45;&gt;Node2 -->
<g id="edge2" class="edge"><title>Node1&#45;&gt;Node2</title>
<path fill="none" stroke="midnightblue" d="M2175.37,-186.757C2020.29,-177.263 1418.8,-140.437 1266.96,-131.141"/>
<polygon fill="midnightblue" stroke="midnightblue" points="1267.02,-127.637 1256.82,-130.52 1266.59,-134.624 1267.02,-127.637"/>
</g>
<!-- Node39 -->
<g id="node40" class="node"><title>Node39</title>
<polygon fill="white" stroke="#bfbfbf" points="1915.5,-118.5 1915.5,-137.5 1978.5,-137.5 1978.5,-118.5 1915.5,-118.5"/>
<text text-anchor="middle" x="1947" y="-125.5" font-family="Helvetica,sans-Serif" font-size="10.00">parmetis.h</text>
</g>
<!-- Node1&#45;&gt;Node39 -->
<g id="edge39" class="edge"><title>Node1&#45;&gt;Node39</title>
<path fill="none" stroke="midnightblue" d="M2175.33,-183.534C2130.43,-176.415 2052.31,-162.645 1987,-144 1983.86,-143.104 1980.62,-142.073 1977.41,-140.98"/>
<polygon fill="midnightblue" stroke="midnightblue" points="1978.56,-137.674 1967.96,-137.586 1976.19,-144.262 1978.56,-137.674"/>
</g>
<!-- Node40 -->
<g id="node41" class="node"><title>Node40</title>
<g id="a_node41"><a xlink:href="$a00209.html" xlink:title="Data structures and prototypes for GKlib integration. ">
<polygon fill="white" stroke="black" points="1996.5,-113 1996.5,-143 2105.5,-143 2105.5,-113 1996.5,-113"/>
<text text-anchor="start" x="2004.5" y="-131" font-family="Helvetica,sans-Serif" font-size="10.00">../metis/libmetis/gklib</text>
<text text-anchor="middle" x="2051" y="-120" font-family="Helvetica,sans-Serif" font-size="10.00">_defs.h</text>
</a>
</g>
</g>
<!-- Node1&#45;&gt;Node40 -->
<g id="edge40" class="edge"><title>Node1&#45;&gt;Node40</title>
<path fill="none" stroke="midnightblue" d="M2188.93,-180.403C2165.32,-171.603 2127.94,-157.674 2098.05,-146.534"/>
<polygon fill="midnightblue" stroke="midnightblue" points="2099.23,-143.238 2088.63,-143.025 2096.78,-149.797 2099.23,-143.238"/>
</g>
<!-- Node42 -->
<g id="node43" class="node"><title>Node42</title>
<polygon fill="white" stroke="#bfbfbf" points="2123.5,-118.5 2123.5,-137.5 2164.5,-137.5 2164.5,-118.5 2123.5,-118.5"/>
<text text-anchor="middle" x="2144" y="-125.5" font-family="Helvetica,sans-Serif" font-size="10.00">mpi.h</text>
</g>
<!-- Node1&#45;&gt;Node42 -->
<g id="edge42" class="edge"><title>Node1&#45;&gt;Node42</title>
<path fill="none" stroke="midnightblue" d="M2202.26,-180.403C2191.65,-171.047 2174.48,-155.895 2161.52,-144.46"/>
<polygon fill="midnightblue" stroke="midnightblue" points="2163.54,-141.572 2153.72,-137.581 2158.91,-146.821 2163.54,-141.572"/>
</g>
<!-- Node43 -->
<g id="node44" class="node"><title>Node43</title>
<g id="a_node44"><a xlink:href="$a00963.html" xlink:title="rename.h">
<polygon fill="white" stroke="black" points="2182.5,-118.5 2182.5,-137.5 2241.5,-137.5 2241.5,-118.5 2182.5,-118.5"/>
<text text-anchor="middle" x="2212" y="-125.5" font-family="Helvetica,sans-Serif" font-size="10.00">rename.h</text>
</a>
</g>
</g>
<!-- Node1&#45;&gt;Node43 -->
<g id="edge43" class="edge"><title>Node1&#45;&gt;Node43</title>
<path fill="none" stroke="midnightblue" d="M2212,-180.403C2212,-171.938 2212,-158.728 2212,-147.82"/>
<polygon fill="midnightblue" stroke="midnightblue" points="2215.5,-147.581 2212,-137.581 2208.5,-147.581 2215.5,-147.581"/>
</g>
<!-- Node44 -->
<g id="node45" class="node"><title>Node44</title>
<g id="a_node45"><a xlink:href="$a00897.html" xlink:title="defs.h">
<polygon fill="white" stroke="black" points="2260,-118.5 2260,-137.5 2304,-137.5 2304,-118.5 2260,-118.5"/>
<text text-anchor="middle" x="2282" y="-125.5" font-family="Helvetica,sans-Serif" font-size="10.00">defs.h</text>
</a>
</g>
</g>
<!-- Node1&#45;&gt;Node44 -->
<g id="edge44" class="edge"><title>Node1&#45;&gt;Node44</title>
<path fill="none" stroke="midnightblue" d="M2222.03,-180.403C2233.05,-170.958 2250.96,-155.606 2264.34,-144.134"/>
<polygon fill="midnightblue" stroke="midnightblue" points="2266.67,-146.746 2271.99,-137.581 2262.12,-141.431 2266.67,-146.746"/>
</g>
<!-- Node45 -->
<g id="node46" class="node"><title>Node45</title>
<g id="a_node46"><a xlink:href="$a00981.html" xlink:title="struct.h">
<polygon fill="white" stroke="black" points="2322.5,-118.5 2322.5,-137.5 2371.5,-137.5 2371.5,-118.5 2322.5,-118.5"/>
<text text-anchor="middle" x="2347" y="-125.5" font-family="Helvetica,sans-Serif" font-size="10.00">struct.h</text>
</a>
</g>
</g>
<!-- Node1&#45;&gt;Node45 -->
<g id="edge45" class="edge"><title>Node1&#45;&gt;Node45</title>
<path fill="none" stroke="midnightblue" d="M2231.34,-180.403C2254.1,-170.29 2292.09,-153.404 2318.29,-141.761"/>
<polygon fill="midnightblue" stroke="midnightblue" points="2319.98,-144.84 2327.69,-137.581 2317.13,-138.444 2319.98,-144.84"/>
</g>
<!-- Node46 -->
<g id="node47" class="node"><title>Node46</title>
<g id="a_node47"><a xlink:href="$a00927.html" xlink:title="macros.h">
<polygon fill="white" stroke="black" points="2390,-118.5 2390,-137.5 2448,-137.5 2448,-118.5 2390,-118.5"/>
<text text-anchor="middle" x="2419" y="-125.5" font-family="Helvetica,sans-Serif" font-size="10.00">macros.h</text>
</a>
</g>
</g>
<!-- Node1&#45;&gt;Node46 -->
<g id="edge46" class="edge"><title>Node1&#45;&gt;Node46</title>
<path fill="none" stroke="midnightblue" d="M2248.37,-180.434C2282.62,-172.092 2335.21,-158.569 2380,-144 2382.78,-143.096 2385.65,-142.104 2388.52,-141.075"/>
<polygon fill="midnightblue" stroke="midnightblue" points="2389.95,-144.278 2398.1,-137.506 2387.5,-137.719 2389.95,-144.278"/>
</g>
<!-- Node47 -->
<g id="node48" class="node"><title>Node47</title>
<g id="a_node48"><a xlink:href="$a00954.html" xlink:title="proto.h">
<polygon fill="white" stroke="black" points="2466,-118.5 2466,-137.5 2514,-137.5 2514,-118.5 2466,-118.5"/>
<text text-anchor="middle" x="2490" y="-125.5" font-family="Helvetica,sans-Serif" font-size="10.00">proto.h</text>
</a>
</g>
</g>
<!-- Node1&#45;&gt;Node47 -->
<g id="edge47" class="edge"><title>Node1&#45;&gt;Node47</title>
<path fill="none" stroke="midnightblue" d="M2248.79,-185.093C2297.32,-179.298 2385,-166.599 2457,-144 2459.28,-143.284 2461.61,-142.451 2463.92,-141.551"/>
<polygon fill="midnightblue" stroke="midnightblue" points="2465.36,-144.744 2473.18,-137.602 2462.61,-138.305 2465.36,-144.744"/>
</g>
<!-- Node3 -->
<g id="node4" class="node"><title>Node3</title>
<g id="a_node4"><a xlink:href="$a00041.html" xlink:title="This file contains various architecture&#45;specific declerations. ">
<polygon fill="white" stroke="black" points="147,-56.5 147,-75.5 207,-75.5 207,-56.5 147,-56.5"/>
<text text-anchor="middle" x="177" y="-63.5" font-family="Helvetica,sans-Serif" font-size="10.00">gk_arch.h</text>
</a>
</g>
</g>
<!-- Node2&#45;&gt;Node3 -->
<g id="edge3" class="edge"><title>Node2&#45;&gt;Node3</title>
<path fill="none" stroke="midnightblue" d="M1207.47,-127.359C1094.93,-128.679 616.727,-130.696 217.152,-75.8962"/>
<polygon fill="midnightblue" stroke="midnightblue" points="217.521,-72.414 207.136,-74.5082 216.56,-79.3478 217.521,-72.414"/>
</g>
<!-- Node9 -->
<g id="node10" class="node"><title>Node9</title>
<polygon fill="white" stroke="#bfbfbf" points="225,-56.5 225,-75.5 277,-75.5 277,-56.5 225,-56.5"/>
<text text-anchor="middle" x="251" y="-63.5" font-family="Helvetica,sans-Serif" font-size="10.00">stddef.h</text>
</g>
<!-- Node2&#45;&gt;Node9 -->
<g id="edge9" class="edge"><title>Node2&#45;&gt;Node9</title>
<path fill="none" stroke="midnightblue" d="M1207.18,-126.327C1079.08,-122.756 491.294,-105.133 287.259,-75.8396"/>
<polygon fill="midnightblue" stroke="midnightblue" points="287.665,-72.3615 277.258,-74.346 286.631,-79.2847 287.665,-72.3615"/>
</g>
<!-- Node10 -->
<g id="node11" class="node"><title>Node10</title>
<polygon fill="white" stroke="#bfbfbf" points="295,-56.5 295,-75.5 343,-75.5 343,-56.5 295,-56.5"/>
<text text-anchor="middle" x="319" y="-63.5" font-family="Helvetica,sans-Serif" font-size="10.00">stdlib.h</text>
</g>
<!-- Node2&#45;&gt;Node10 -->
<g id="edge10" class="edge"><title>Node2&#45;&gt;Node10</title>
<path fill="none" stroke="midnightblue" d="M1207.3,-127.441C1103.85,-128.9 695.37,-130.783 353.129,-75.8163"/>
<polygon fill="midnightblue" stroke="midnightblue" points="353.455,-72.3235 343.023,-74.1734 352.332,-79.2328 353.455,-72.3235"/>
</g>
<!-- Node11 -->
<g id="node12" class="node"><title>Node11</title>
<polygon fill="white" stroke="#bfbfbf" points="361.5,-56.5 361.5,-75.5 414.5,-75.5 414.5,-56.5 361.5,-56.5"/>
<text text-anchor="middle" x="388" y="-63.5" font-family="Helvetica,sans-Serif" font-size="10.00">stdarg.h</text>
</g>
<!-- Node2&#45;&gt;Node11 -->
<g id="edge11" class="edge"><title>Node2&#45;&gt;Node11</title>
<path fill="none" stroke="midnightblue" d="M1207.36,-127.073C1109.45,-127.022 738.351,-123.617 424.819,-75.8033"/>
<polygon fill="midnightblue" stroke="midnightblue" points="425.043,-72.2965 414.626,-74.23 423.975,-79.2146 425.043,-72.2965"/>
</g>
<!-- Node12 -->
<g id="node13" class="node"><title>Node12</title>
<polygon fill="white" stroke="#bfbfbf" points="433,-56.5 433,-75.5 479,-75.5 479,-56.5 433,-56.5"/>
<text text-anchor="middle" x="456" y="-63.5" font-family="Helvetica,sans-Serif" font-size="10.00">stdio.h</text>
</g>
<!-- Node2&#45;&gt;Node12 -->
<g id="edge12" class="edge"><title>Node2&#45;&gt;Node12</title>
<path fill="none" stroke="midnightblue" d="M1207.38,-127.141C1114.34,-127.293 775.46,-124.403 489.443,-75.8936"/>
<polygon fill="midnightblue" stroke="midnightblue" points="489.74,-72.3933 479.291,-74.1486 488.554,-79.2921 489.74,-72.3933"/>
</g>
<!-- Node13 -->
<g id="node14" class="node"><title>Node13</title>
<polygon fill="white" stroke="#bfbfbf" points="497,-56.5 497,-75.5 545,-75.5 545,-56.5 497,-56.5"/>
<text text-anchor="middle" x="521" y="-63.5" font-family="Helvetica,sans-Serif" font-size="10.00">errno.h</text>
</g>
<!-- Node2&#45;&gt;Node13 -->
<g id="edge13" class="edge"><title>Node2&#45;&gt;Node13</title>
<path fill="none" stroke="midnightblue" d="M1207.47,-126.842C1119.91,-125.926 814.606,-119.715 555.022,-75.8359"/>
<polygon fill="midnightblue" stroke="midnightblue" points="555.479,-72.3633 545.031,-74.1245 554.297,-79.2628 555.479,-72.3633"/>
</g>
<!-- Node14 -->
<g id="node15" class="node"><title>Node14</title>
<polygon fill="white" stroke="#bfbfbf" points="563.5,-56.5 563.5,-75.5 612.5,-75.5 612.5,-56.5 563.5,-56.5"/>
<text text-anchor="middle" x="588" y="-63.5" font-family="Helvetica,sans-Serif" font-size="10.00">ctype.h</text>
</g>
<!-- Node2&#45;&gt;Node14 -->
<g id="edge14" class="edge"><title>Node2&#45;&gt;Node14</title>
<path fill="none" stroke="midnightblue" d="M1207.35,-126.557C1125.33,-124.744 854.199,-116.044 622.706,-76.018"/>
<polygon fill="midnightblue" stroke="midnightblue" points="623.21,-72.5531 612.756,-74.2738 622.001,-79.448 623.21,-72.5531"/>
</g>
<!-- Node15 -->
<g id="node16" class="node"><title>Node15</title>
<polygon fill="white" stroke="#bfbfbf" points="630.5,-56.5 630.5,-75.5 677.5,-75.5 677.5,-56.5 630.5,-56.5"/>
<text text-anchor="middle" x="654" y="-63.5" font-family="Helvetica,sans-Serif" font-size="10.00">math.h</text>
</g>
<!-- Node2&#45;&gt;Node15 -->
<g id="edge15" class="edge"><title>Node2&#45;&gt;Node15</title>
<path fill="none" stroke="midnightblue" d="M1207.35,-126.211C1131.29,-123.457 893.519,-112.472 687.763,-75.8071"/>
<polygon fill="midnightblue" stroke="midnightblue" points="688.144,-72.3192 677.681,-73.9849 686.899,-79.2076 688.144,-72.3192"/>
</g>
<!-- Node16 -->
<g id="node17" class="node"><title>Node16</title>
<polygon fill="white" stroke="#bfbfbf" points="696,-56.5 696,-75.5 740,-75.5 740,-56.5 696,-56.5"/>
<text text-anchor="middle" x="718" y="-63.5" font-family="Helvetica,sans-Serif" font-size="10.00">float.h</text>
</g>
<!-- Node2&#45;&gt;Node16 -->
<g id="edge16" class="edge"><title>Node2&#45;&gt;Node16</title>
<path fill="none" stroke="midnightblue" d="M1207.4,-125.944C1137.24,-122.611 930.213,-110.523 750.146,-75.9012"/>
<polygon fill="midnightblue" stroke="midnightblue" points="750.72,-72.4474 740.235,-73.9672 749.379,-79.3178 750.72,-72.4474"/>
</g>
<!-- Node17 -->
<g id="node18" class="node"><title>Node17</title>
<polygon fill="white" stroke="#bfbfbf" points="758,-56.5 758,-75.5 802,-75.5 802,-56.5 758,-56.5"/>
<text text-anchor="middle" x="780" y="-63.5" font-family="Helvetica,sans-Serif" font-size="10.00">time.h</text>
</g>
<!-- Node2&#45;&gt;Node17 -->
<g id="edge17" class="edge"><title>Node2&#45;&gt;Node17</title>
<path fill="none" stroke="midnightblue" d="M1207.1,-125.398C1143.06,-120.981 967.365,-106.982 812.418,-75.9914"/>
<polygon fill="midnightblue" stroke="midnightblue" points="812.74,-72.4854 802.243,-73.9255 811.347,-79.3454 812.74,-72.4854"/>
</g>
<!-- Node18 -->
<g id="node19" class="node"><title>Node18</title>
<polygon fill="white" stroke="#bfbfbf" points="820.5,-56.5 820.5,-75.5 869.5,-75.5 869.5,-56.5 820.5,-56.5"/>
<text text-anchor="middle" x="845" y="-63.5" font-family="Helvetica,sans-Serif" font-size="10.00">string.h</text>
</g>
<!-- Node2&#45;&gt;Node18 -->
<g id="edge18" class="edge"><title>Node2&#45;&gt;Node18</title>
<path fill="none" stroke="midnightblue" d="M1207.44,-124.439C1151.22,-118.368 1008.74,-101.797 879.849,-75.9577"/>
<polygon fill="midnightblue" stroke="midnightblue" points="880.301,-72.4782 869.804,-73.9193 878.909,-79.3383 880.301,-72.4782"/>
</g>
<!-- Node19 -->
<g id="node20" class="node"><title>Node19</title>
<polygon fill="white" stroke="#bfbfbf" points="888,-56.5 888,-75.5 936,-75.5 936,-56.5 888,-56.5"/>
<text text-anchor="middle" x="912" y="-63.5" font-family="Helvetica,sans-Serif" font-size="10.00">limits.h</text>
</g>
<!-- Node2&#45;&gt;Node19 -->
<g id="edge19" class="edge"><title>Node2&#45;&gt;Node19</title>
<path fill="none" stroke="midnightblue" d="M1207.28,-123.379C1158.96,-116.136 1048.48,-98.7686 945.979,-76.0542"/>
<polygon fill="midnightblue" stroke="midnightblue" points="946.611,-72.609 936.088,-73.8395 945.081,-79.4398 946.611,-72.609"/>
</g>
<!-- Node20 -->
<g id="node21" class="node"><title>Node20</title>
<polygon fill="white" stroke="#bfbfbf" points="954.5,-56.5 954.5,-75.5 1005.5,-75.5 1005.5,-56.5 954.5,-56.5"/>
<text text-anchor="middle" x="980" y="-63.5" font-family="Helvetica,sans-Serif" font-size="10.00">signal.h</text>
</g>
<!-- Node2&#45;&gt;Node20 -->
<g id="edge20" class="edge"><title>Node2&#45;&gt;Node20</title>
<path fill="none" stroke="midnightblue" d="M1207.23,-121.355C1168.54,-112.501 1091.21,-94.6496 1015.32,-76.0395"/>
<polygon fill="midnightblue" stroke="midnightblue" points="1016.15,-72.6372 1005.6,-73.6481 1014.47,-79.4347 1016.15,-72.6372"/>
</g>
<!-- Node21 -->
<g id="node22" class="node"><title>Node21</title>
<polygon fill="white" stroke="#bfbfbf" points="1024,-56.5 1024,-75.5 1078,-75.5 1078,-56.5 1024,-56.5"/>
<text text-anchor="middle" x="1051" y="-63.5" font-family="Helvetica,sans-Serif" font-size="10.00">setjmp.h</text>
</g>
<!-- Node2&#45;&gt;Node21 -->
<g id="edge21" class="edge"><title>Node2&#45;&gt;Node21</title>
<path fill="none" stroke="midnightblue" d="M1207.21,-118.783C1175.88,-108.398 1121.76,-90.4567 1086.17,-78.6581"/>
<polygon fill="midnightblue" stroke="midnightblue" points="1087.25,-75.3289 1076.66,-75.5045 1085.05,-81.9733 1087.25,-75.3289"/>
</g>
<!-- Node22 -->
<g id="node23" class="node"><title>Node22</title>
<polygon fill="white" stroke="#bfbfbf" points="1096,-56.5 1096,-75.5 1148,-75.5 1148,-56.5 1096,-56.5"/>
<text text-anchor="middle" x="1122" y="-63.5" font-family="Helvetica,sans-Serif" font-size="10.00">assert.h</text>
</g>
<!-- Node2&#45;&gt;Node22 -->
<g id="edge22" class="edge"><title>Node2&#45;&gt;Node22</title>
<path fill="none" stroke="midnightblue" d="M1216.24,-118.403C1198.02,-108.468 1167.83,-91.9966 1146.53,-80.3812"/>
<polygon fill="midnightblue" stroke="midnightblue" points="1148.19,-77.2965 1137.73,-75.5806 1144.83,-83.4418 1148.19,-77.2965"/>
</g>
<!-- Node23 -->
<g id="node24" class="node"><title>Node23</title>
<polygon fill="white" stroke="#bfbfbf" points="1166.5,-56.5 1166.5,-75.5 1225.5,-75.5 1225.5,-56.5 1166.5,-56.5"/>
<text text-anchor="middle" x="1196" y="-63.5" font-family="Helvetica,sans-Serif" font-size="10.00">sys/stat.h</text>
</g>
<!-- Node2&#45;&gt;Node23 -->
<g id="edge23" class="edge"><title>Node2&#45;&gt;Node23</title>
<path fill="none" stroke="midnightblue" d="M1226.84,-118.403C1221.55,-109.582 1213.16,-95.6075 1206.47,-84.4548"/>
<polygon fill="midnightblue" stroke="midnightblue" points="1209.29,-82.3548 1201.15,-75.5806 1203.29,-85.9563 1209.29,-82.3548"/>
</g>
<!-- Node24 -->
<g id="node25" class="node"><title>Node24</title>
<polygon fill="white" stroke="#bfbfbf" points="1244,-56.5 1244,-75.5 1294,-75.5 1294,-56.5 1244,-56.5"/>
<text text-anchor="middle" x="1269" y="-63.5" font-family="Helvetica,sans-Serif" font-size="10.00">regex.h</text>
</g>
<!-- Node2&#45;&gt;Node24 -->
<g id="edge24" class="edge"><title>Node2&#45;&gt;Node24</title>
<path fill="none" stroke="midnightblue" d="M1237.3,-118.403C1242.8,-109.493 1251.53,-95.3247 1258.44,-84.1177"/>
<polygon fill="midnightblue" stroke="midnightblue" points="1261.44,-85.9294 1263.71,-75.5806 1255.48,-82.2552 1261.44,-85.9294"/>
</g>
<!-- Node25 -->
<g id="node26" class="node"><title>Node25</title>
<g id="a_node26"><a xlink:href="$a00083.html" xlink:title="This file contains basic scalar datatype used in GKlib. ">
<polygon fill="white" stroke="black" points="1312.5,-56.5 1312.5,-75.5 1377.5,-75.5 1377.5,-56.5 1312.5,-56.5"/>
<text text-anchor="middle" x="1345" y="-63.5" font-family="Helvetica,sans-Serif" font-size="10.00">gk_types.h</text>
</a>
</g>
</g>
<!-- Node2&#45;&gt;Node25 -->
<g id="edge25" class="edge"><title>Node2&#45;&gt;Node25</title>
<path fill="none" stroke="midnightblue" d="M1248.19,-118.403C1266.9,-108.468 1297.92,-91.9966 1319.8,-80.3812"/>
<polygon fill="midnightblue" stroke="midnightblue" points="1321.65,-83.3616 1328.84,-75.5806 1318.37,-77.179 1321.65,-83.3616"/>
</g>
<!-- Node26 -->
<g id="node27" class="node"><title>Node26</title>
<g id="a_node27"><a xlink:href="$a00080.html" xlink:title="This file contains various datastructures used/provided by GKlib. ">
<polygon fill="white" stroke="black" points="1395.5,-56.5 1395.5,-75.5 1460.5,-75.5 1460.5,-56.5 1395.5,-56.5"/>
<text text-anchor="middle" x="1428" y="-63.5" font-family="Helvetica,sans-Serif" font-size="10.00">gk_struct.h</text>
</a>
</g>
</g>
<!-- Node2&#45;&gt;Node26 -->
<g id="edge26" class="edge"><title>Node2&#45;&gt;Node26</title>
<path fill="none" stroke="midnightblue" d="M1256.82,-119.401C1290.56,-109.074 1351.17,-90.5191 1390.48,-78.4871"/>
<polygon fill="midnightblue" stroke="midnightblue" points="1391.69,-81.7769 1400.22,-75.503 1389.64,-75.0835 1391.69,-81.7769"/>
</g>
<!-- Node27 -->
<g id="node28" class="node"><title>Node27</title>
<g id="a_node28"><a xlink:href="$a00047.html" xlink:title="This file contains definitions of external variables created by GKlib. ">
<polygon fill="white" stroke="black" points="1479,-56.5 1479,-75.5 1553,-75.5 1553,-56.5 1479,-56.5"/>
<text text-anchor="middle" x="1516" y="-63.5" font-family="Helvetica,sans-Serif" font-size="10.00">gk_externs.h</text>
</a>
</g>
</g>
<!-- Node2&#45;&gt;Node27 -->
<g id="edge27" class="edge"><title>Node2&#45;&gt;Node27</title>
<path fill="none" stroke="midnightblue" d="M1256.71,-121.78C1303.91,-111.808 1407.63,-89.8961 1468.61,-77.011"/>
<polygon fill="midnightblue" stroke="midnightblue" points="1469.69,-80.361 1478.75,-74.8695 1468.24,-73.5122 1469.69,-80.361"/>
</g>
<!-- Node28 -->
<g id="node29" class="node"><title>Node28</title>
<g id="a_node29"><a xlink:href="$a00044.html" xlink:title="This file contains various constants definitions. ">
<polygon fill="white" stroke="black" points="1571,-56.5 1571,-75.5 1631,-75.5 1631,-56.5 1571,-56.5"/>
<text text-anchor="middle" x="1601" y="-63.5" font-family="Helvetica,sans-Serif" font-size="10.00">gk_defs.h</text>
</a>
</g>
</g>
<!-- Node2&#45;&gt;Node28 -->
<g id="edge28" class="edge"><title>Node2&#45;&gt;Node28</title>
<path fill="none" stroke="midnightblue" d="M1256.53,-123.837C1309.96,-116.814 1441,-98.8674 1560.74,-76.126"/>
<polygon fill="midnightblue" stroke="midnightblue" points="1561.65,-79.516 1570.81,-74.1969 1560.33,-72.641 1561.65,-79.516"/>
</g>
<!-- Node29 -->
<g id="node30" class="node"><title>Node29</title>
<g id="a_node30"><a xlink:href="$a00053.html" xlink:title="This file contains various macros. ">
<polygon fill="white" stroke="black" points="1649,-56.5 1649,-75.5 1723,-75.5 1723,-56.5 1649,-56.5"/>
<text text-anchor="middle" x="1686" y="-63.5" font-family="Helvetica,sans-Serif" font-size="10.00">gk_macros.h</text>
</a>
</g>
</g>
<!-- Node2&#45;&gt;Node29 -->
<g id="edge29" class="edge"><title>Node2&#45;&gt;Node29</title>
<path fill="none" stroke="midnightblue" d="M1256.92,-124.489C1319.42,-118.064 1488.05,-99.9401 1638.97,-76.0704"/>
<polygon fill="midnightblue" stroke="midnightblue" points="1639.56,-79.5206 1648.88,-74.4899 1638.46,-72.6079 1639.56,-79.5206"/>
</g>
<!-- Node30 -->
<g id="node31" class="node"><title>Node30</title>
<g id="a_node31"><a xlink:href="$a00050.html" xlink:title="This file contains GNU&#39;s externs/structs/prototypes. ">
<polygon fill="white" stroke="black" points="1741.5,-56.5 1741.5,-75.5 1810.5,-75.5 1810.5,-56.5 1741.5,-56.5"/>
<text text-anchor="middle" x="1776" y="-63.5" font-family="Helvetica,sans-Serif" font-size="10.00">gk_getopt.h</text>
</a>
</g>
</g>
<!-- Node2&#45;&gt;Node30 -->
<g id="edge30" class="edge"><title>Node2&#45;&gt;Node30</title>
<path fill="none" stroke="midnightblue" d="M1256.56,-125.37C1328.12,-120.437 1542.71,-104.337 1731.37,-75.939"/>
<polygon fill="midnightblue" stroke="midnightblue" points="1732.11,-79.3667 1741.47,-74.4028 1731.06,-72.4462 1732.11,-79.3667"/>
</g>
<!-- Node31 -->
<g id="node32" class="node"><title>Node31</title>
<g id="a_node32"><a xlink:href="$a00071.html" xlink:title="Templates for the qsort routine. ">
<polygon fill="white" stroke="black" points="1828.5,-56.5 1828.5,-75.5 1899.5,-75.5 1899.5,-56.5 1828.5,-56.5"/>
<text text-anchor="middle" x="1864" y="-63.5" font-family="Helvetica,sans-Serif" font-size="10.00">gk_mksort.h</text>
</a>
</g>
</g>
<!-- Node2&#45;&gt;Node31 -->
<g id="edge31" class="edge"><title>Node2&#45;&gt;Node31</title>
<path fill="none" stroke="midnightblue" d="M1256.72,-125.834C1336.52,-121.865 1594.58,-107.419 1818.25,-75.9466"/>
<polygon fill="midnightblue" stroke="midnightblue" points="1818.79,-79.4045 1828.2,-74.5316 1817.81,-72.4742 1818.79,-79.4045"/>
</g>
<!-- Node32 -->
<g id="node33" class="node"><title>Node32</title>
<g id="a_node33"><a xlink:href="$a00056.html" xlink:title="Templates for BLAS&#45;like routines. ">
<polygon fill="white" stroke="black" points="1917.5,-56.5 1917.5,-75.5 1990.5,-75.5 1990.5,-56.5 1917.5,-56.5"/>
<text text-anchor="middle" x="1954" y="-63.5" font-family="Helvetica,sans-Serif" font-size="10.00">gk_mkblas.h</text>
</a>
</g>
</g>
<!-- Node2&#45;&gt;Node32 -->
<g id="edge32" class="edge"><title>Node2&#45;&gt;Node32</title>
<path fill="none" stroke="midnightblue" d="M1256.66,-126.19C1344.04,-123.1 1647.07,-110.511 1907.39,-75.9092"/>
<polygon fill="midnightblue" stroke="midnightblue" points="1907.96,-79.3635 1917.41,-74.5635 1907.03,-72.4258 1907.96,-79.3635"/>
</g>
<!-- Node33 -->
<g id="node34" class="node"><title>Node33</title>
<g id="a_node34"><a xlink:href="$a00059.html" xlink:title="Templates for memory allocation routines. ">
<polygon fill="white" stroke="black" points="2009,-56.5 2009,-75.5 2099,-75.5 2099,-56.5 2009,-56.5"/>
<text text-anchor="middle" x="2054" y="-63.5" font-family="Helvetica,sans-Serif" font-size="10.00">gk_mkmemory.h</text>
</a>
</g>
</g>
<!-- Node2&#45;&gt;Node33 -->
<g id="edge33" class="edge"><title>Node2&#45;&gt;Node33</title>
<path fill="none" stroke="midnightblue" d="M1256.58,-126.223C1351.06,-123.056 1700.02,-109.713 1998.57,-75.9203"/>
<polygon fill="midnightblue" stroke="midnightblue" points="1999.19,-79.373 2008.73,-74.7609 1998.39,-72.4182 1999.19,-79.373"/>
</g>
<!-- Node34 -->
<g id="node35" class="node"><title>Node34</title>
<g id="a_node35"><a xlink:href="$a00062.html" xlink:title="Templates for priority queues. ">
<polygon fill="white" stroke="black" points="2117,-56.5 2117,-75.5 2205,-75.5 2205,-56.5 2117,-56.5"/>
<text text-anchor="middle" x="2161" y="-63.5" font-family="Helvetica,sans-Serif" font-size="10.00">gk_mkpqueue.h</text>
</a>
</g>
</g>
<!-- Node2&#45;&gt;Node34 -->
<g id="edge34" class="edge"><title>Node2&#45;&gt;Node34</title>
<path fill="none" stroke="midnightblue" d="M1256.82,-126.554C1359.89,-124.495 1764.34,-114.353 2106.69,-76.0211"/>
<polygon fill="midnightblue" stroke="midnightblue" points="2107.26,-79.4795 2116.81,-74.8788 2106.48,-72.5237 2107.26,-79.4795"/>
</g>
<!-- Node35 -->
<g id="node36" class="node"><title>Node35</title>
<g id="a_node36"><a xlink:href="$a00065.html" xlink:title="Templates for priority queues that do not utilize locators and as such they can use different types o...">
<polygon fill="white" stroke="black" points="2223.5,-56.5 2223.5,-75.5 2316.5,-75.5 2316.5,-56.5 2223.5,-56.5"/>
<text text-anchor="middle" x="2270" y="-63.5" font-family="Helvetica,sans-Serif" font-size="10.00">gk_mkpqueue2.h</text>
</a>
</g>
</g>
<!-- Node2&#45;&gt;Node35 -->
<g id="edge35" class="edge"><title>Node2&#45;&gt;Node35</title>
<path fill="none" stroke="midnightblue" d="M1256.74,-126.693C1367.18,-125.119 1826.21,-116.42 2213.31,-75.9439"/>
<polygon fill="midnightblue" stroke="midnightblue" points="2213.72,-79.4197 2223.3,-74.8903 2212.99,-72.4583 2213.72,-79.4197"/>
</g>
<!-- Node36 -->
<g id="node37" class="node"><title>Node36</title>
<g id="a_node37"><a xlink:href="$a00068.html" xlink:title="Templates for portable random number generation. ">
<polygon fill="white" stroke="black" points="2335,-56.5 2335,-75.5 2423,-75.5 2423,-56.5 2335,-56.5"/>
<text text-anchor="middle" x="2379" y="-63.5" font-family="Helvetica,sans-Serif" font-size="10.00">gk_mkrandom.h</text>
</a>
</g>
</g>
<!-- Node2&#45;&gt;Node36 -->
<g id="edge36" class="edge"><title>Node2&#45;&gt;Node36</title>
<path fill="none" stroke="midnightblue" d="M1256.71,-126.929C1374.5,-126.364 1890.88,-121.353 2324.62,-75.8772"/>
<polygon fill="midnightblue" stroke="midnightblue" points="2325.28,-79.3276 2334.85,-74.7954 2324.54,-72.3664 2325.28,-79.3276"/>
</g>
<!-- Node37 -->
<g id="node38" class="node"><title>Node37</title>
<g id="a_node38"><a xlink:href="$a00074.html" xlink:title="Templates for various utility routines. ">
<polygon fill="white" stroke="black" points="2441,-56.5 2441,-75.5 2513,-75.5 2513,-56.5 2441,-56.5"/>
<text text-anchor="middle" x="2477" y="-63.5" font-family="Helvetica,sans-Serif" font-size="10.00">gk_mkutils.h</text>
</a>
</g>
</g>
<!-- Node2&#45;&gt;Node37 -->
<g id="edge37" class="edge"><title>Node2&#45;&gt;Node37</title>
<path fill="none" stroke="midnightblue" d="M1256.77,-126.471C1404.56,-123.236 2172.01,-105.329 2430.64,-75.9398"/>
<polygon fill="midnightblue" stroke="midnightblue" points="2431.2,-79.3974 2440.73,-74.7558 2430.39,-72.4451 2431.2,-79.3974"/>
</g>
<!-- Node38 -->
<g id="node39" class="node"><title>Node38</title>
<g id="a_node39"><a xlink:href="$a00077.html" xlink:title="This file contains function prototypes. ">
<polygon fill="white" stroke="black" points="2531,-56.5 2531,-75.5 2595,-75.5 2595,-56.5 2531,-56.5"/>
<text text-anchor="middle" x="2563" y="-63.5" font-family="Helvetica,sans-Serif" font-size="10.00">gk_proto.h</text>
</a>
</g>
</g>
<!-- Node2&#45;&gt;Node38 -->
<g id="edge38" class="edge"><title>Node2&#45;&gt;Node38</title>
<path fill="none" stroke="midnightblue" d="M1256.58,-126.621C1410.45,-124.162 2243.16,-109.536 2520.83,-75.8728"/>
<polygon fill="midnightblue" stroke="midnightblue" points="2521.38,-79.3313 2530.87,-74.616 2520.51,-72.3856 2521.38,-79.3313"/>
</g>
<!-- Node4 -->
<g id="node5" class="node"><title>Node4</title>
<polygon fill="white" stroke="#bfbfbf" points="-0.5,-0.5 -0.5,-19.5 48.5,-19.5 48.5,-0.5 -0.5,-0.5"/>
<text text-anchor="middle" x="24" y="-7.5" font-family="Helvetica,sans-Serif" font-size="10.00">stdint.h</text>
</g>
<!-- Node3&#45;&gt;Node4 -->
<g id="edge4" class="edge"><title>Node3&#45;&gt;Node4</title>
<path fill="none" stroke="midnightblue" d="M152.757,-56.4435C127.129,-47.3986 86.5148,-33.064 57.7616,-22.9158"/>
<polygon fill="midnightblue" stroke="midnightblue" points="58.7247,-19.5442 48.1299,-19.5164 56.3949,-26.1452 58.7247,-19.5442"/>
</g>
<!-- Node5 -->
<g id="node6" class="node"><title>Node5</title>
<polygon fill="white" stroke="#bfbfbf" points="66.5,-0.5 66.5,-19.5 125.5,-19.5 125.5,-0.5 66.5,-0.5"/>
<text text-anchor="middle" x="96" y="-7.5" font-family="Helvetica,sans-Serif" font-size="10.00">inttypes.h</text>
</g>
<!-- Node3&#45;&gt;Node5 -->
<g id="edge5" class="edge"><title>Node3&#45;&gt;Node5</title>
<path fill="none" stroke="midnightblue" d="M163.986,-56.324C151.468,-47.979 132.318,-35.2122 117.529,-25.3524"/>
<polygon fill="midnightblue" stroke="midnightblue" points="119.244,-22.2894 108.982,-19.6545 115.361,-28.1137 119.244,-22.2894"/>
</g>
<!-- Node6 -->
<g id="node7" class="node"><title>Node6</title>
<polygon fill="white" stroke="#bfbfbf" points="143.5,-0.5 143.5,-19.5 210.5,-19.5 210.5,-0.5 143.5,-0.5"/>
<text text-anchor="middle" x="177" y="-7.5" font-family="Helvetica,sans-Serif" font-size="10.00">sys/types.h</text>
</g>
<!-- Node3&#45;&gt;Node6 -->
<g id="edge6" class="edge"><title>Node3&#45;&gt;Node6</title>
<path fill="none" stroke="midnightblue" d="M177,-56.083C177,-49.0059 177,-38.8611 177,-29.9865"/>
<polygon fill="midnightblue" stroke="midnightblue" points="180.5,-29.751 177,-19.7511 173.5,-29.7511 180.5,-29.751"/>
</g>
<!-- Node7 -->
<g id="node8" class="node"><title>Node7</title>
<polygon fill="white" stroke="#bfbfbf" points="229,-0.5 229,-19.5 311,-19.5 311,-0.5 229,-0.5"/>
<text text-anchor="middle" x="270" y="-7.5" font-family="Helvetica,sans-Serif" font-size="10.00">sys/resource.h</text>
</g>
<!-- Node3&#45;&gt;Node7 -->
<g id="edge7" class="edge"><title>Node3&#45;&gt;Node7</title>
<path fill="none" stroke="midnightblue" d="M191.942,-56.324C206.585,-47.8215 229.134,-34.7288 246.238,-24.7975"/>
<polygon fill="midnightblue" stroke="midnightblue" points="248.205,-27.7027 255.095,-19.6545 244.69,-21.6491 248.205,-27.7027"/>
</g>
<!-- Node8 -->
<g id="node9" class="node"><title>Node8</title>
<polygon fill="white" stroke="#bfbfbf" points="329,-0.5 329,-19.5 391,-19.5 391,-0.5 329,-0.5"/>
<text text-anchor="middle" x="360" y="-7.5" font-family="Helvetica,sans-Serif" font-size="10.00">sys/time.h</text>
</g>
<!-- Node3&#45;&gt;Node8 -->
<g id="edge8" class="edge"><title>Node3&#45;&gt;Node8</title>
<path fill="none" stroke="midnightblue" d="M205.997,-56.4435C237.185,-47.2406 286.93,-32.5617 321.408,-22.3879"/>
<polygon fill="midnightblue" stroke="midnightblue" points="322.538,-25.7036 331.139,-19.5164 320.557,-18.9898 322.538,-25.7036"/>
</g>
<!-- Node41 -->
<g id="node42" class="node"><title>Node41</title>
<g id="a_node42"><a xlink:href="$a00212.html" xlink:title="gklib_rename.h">
<polygon fill="white" stroke="black" points="2613.5,-56.5 2613.5,-75.5 2698.5,-75.5 2698.5,-56.5 2613.5,-56.5"/>
<text text-anchor="middle" x="2656" y="-63.5" font-family="Helvetica,sans-Serif" font-size="10.00">gklib_rename.h</text>
</a>
</g>
</g>
<!-- Node40&#45;&gt;Node41 -->
<g id="edge41" class="edge"><title>Node40&#45;&gt;Node41</title>
<path fill="none" stroke="midnightblue" d="M2105.7,-113.584C2108.84,-113.001 2111.95,-112.466 2115,-112 2327.15,-79.5339 2385.94,-101.913 2603.35,-75.9399"/>
<polygon fill="midnightblue" stroke="midnightblue" points="2603.98,-79.3887 2613.48,-74.7076 2603.13,-72.4399 2603.98,-79.3887"/>
</g>
</g>
</svg>
