<?xml version="1.0" encoding="UTF-8" standalone="no"?>
<!DOCTYPE svg PUBLIC "-//W3C//DTD SVG 1.1//EN"
 "http://www.w3.org/Graphics/SVG/1.1/DTD/svg11.dtd">
<!-- Generated by graphviz version 2.36.0 (20140111.2315)
 -->
<!-- Title: main Pages: 1 -->
<svg width="588pt" height="306pt"
 viewBox="0.00 0.00 588.00 306.27" xmlns="http://www.w3.org/2000/svg" xmlns:xlink="http://www.w3.org/1999/xlink">
<g id="graph0" class="graph" transform="scale(1 1) rotate(0) translate(4 302.267)">
<title>main</title>
<polygon fill="white" stroke="none" points="-4,4 -4,-302.267 584,-302.267 584,4 -4,4"/>
<!-- Node0 -->
<g id="node1" class="node"><title>Node0</title>
<polygon fill="#bfbfbf" stroke="black" points="0,-85.5 0,-104.5 38,-104.5 38,-85.5 0,-85.5"/>
<text text-anchor="middle" x="19" y="-92.5" font-family="Helvetica,sans-Serif" font-size="10.00">main</text>
</g>
<!-- Node1 -->
<g id="node2" class="node"><title>Node1</title>
<g id="a_node2"><a xlink:href="a00077.html#af62038e97ca55f14ec2557a01bd85ca2" target="_top" xlink:title="Duplicates a string. ">
<polygon fill="white" stroke="black" points="78,-0.5 78,-19.5 138,-19.5 138,-0.5 78,-0.5"/>
<text text-anchor="middle" x="108" y="-7.5" font-family="Helvetica,sans-Serif" font-size="10.00">gk_strdup</text>
</a>
</g>
</g>
<!-- Node0&#45;&gt;Node1 -->
<g id="edge1" class="edge"><title>Node0&#45;&gt;Node1</title>
<path fill="none" stroke="midnightblue" d="M29.98,-85.2494C44.5331,-71.0308 71.7869,-44.4036 89.6625,-26.9389"/>
<polygon fill="midnightblue" stroke="midnightblue" points="92.4295,-29.1288 97.1364,-19.6369 87.5376,-24.1218 92.4295,-29.1288"/>
</g>
<!-- Node7 -->
<g id="node8" class="node"><title>Node7</title>
<g id="a_node8"><a xlink:href="a00861.html#a9add4a9694da47d84beb4a7638a7b673" target="_top" xlink:title="ReadGraph">
<polygon fill="white" stroke="black" points="74,-123.5 74,-142.5 142,-142.5 142,-123.5 74,-123.5"/>
<text text-anchor="middle" x="108" y="-130.5" font-family="Helvetica,sans-Serif" font-size="10.00">ReadGraph</text>
</a>
</g>
</g>
<!-- Node0&#45;&gt;Node7 -->
<g id="edge8" class="edge"><title>Node0&#45;&gt;Node7</title>
<path fill="none" stroke="midnightblue" d="M38.0265,-102.874C48.8937,-107.62 63.0358,-113.797 75.6834,-119.321"/>
<polygon fill="midnightblue" stroke="midnightblue" points="74.4198,-122.589 84.9847,-123.384 77.2217,-116.174 74.4198,-122.589"/>
</g>
<!-- Node16 -->
<g id="node17" class="node"><title>Node16</title>
<g id="a_node17"><a xlink:href="a00077.html#ac8df62c4e3d0910711a9874f9cc58884" target="_top" xlink:title="gk_free">
<polygon fill="white" stroke="black" points="184,-28.5 184,-47.5 234,-47.5 234,-28.5 184,-28.5"/>
<text text-anchor="middle" x="209" y="-35.5" font-family="Helvetica,sans-Serif" font-size="10.00">gk_free</text>
</a>
</g>
</g>
<!-- Node0&#45;&gt;Node16 -->
<g id="edge26" class="edge"><title>Node0&#45;&gt;Node16</title>
<path fill="none" stroke="midnightblue" d="M38.0262,-89.5346C69.3741,-80.0302 134.392,-60.3173 174.305,-48.2159"/>
<polygon fill="midnightblue" stroke="midnightblue" points="175.322,-51.5652 183.876,-45.3142 173.291,-44.8663 175.322,-51.5652"/>
</g>
<!-- Node17 -->
<g id="node18" class="node"><title>Node17</title>
<g id="a_node18"><a xlink:href="a00861.html#a91b3b24f2b508da8f2e2df7bc2c94cc6" target="_top" xlink:title="WriteGraph">
<polygon fill="white" stroke="black" points="74,-237.5 74,-256.5 142,-256.5 142,-237.5 74,-237.5"/>
<text text-anchor="middle" x="108" y="-244.5" font-family="Helvetica,sans-Serif" font-size="10.00">WriteGraph</text>
</a>
</g>
</g>
<!-- Node0&#45;&gt;Node17 -->
<g id="edge22" class="edge"><title>Node0&#45;&gt;Node17</title>
<path fill="none" stroke="midnightblue" d="M25.4422,-104.508C39.6015,-129.246 77.7819,-195.952 96.4432,-228.556"/>
<polygon fill="midnightblue" stroke="midnightblue" points="93.5546,-230.555 101.56,-237.495 99.6299,-227.078 93.5546,-230.555"/>
</g>
<!-- Node2 -->
<g id="node3" class="node"><title>Node2</title>
<g id="a_node3"><a xlink:href="a00077.html#aba6f76f5c67b9b7e9c2e45988d3d3e9d" target="_top" xlink:title="gk_malloc">
<polygon fill="white" stroke="black" points="276,-66.5 276,-85.5 338,-85.5 338,-66.5 276,-66.5"/>
<text text-anchor="middle" x="307" y="-73.5" font-family="Helvetica,sans-Serif" font-size="10.00">gk_malloc</text>
</a>
</g>
</g>
<!-- Node1&#45;&gt;Node2 -->
<g id="edge2" class="edge"><title>Node1&#45;&gt;Node2</title>
<path fill="none" stroke="midnightblue" d="M138.034,-6.86766C165.397,-5.08048 207.009,-5.42039 240,-19 260.637,-27.4946 279.391,-45.1052 291.588,-58.5173"/>
<polygon fill="midnightblue" stroke="midnightblue" points="289.083,-60.97 298.293,-66.2066 294.359,-56.3694 289.083,-60.97"/>
</g>
<!-- Node3 -->
<g id="node4" class="node"><title>Node3</title>
<g id="a_node4"><a xlink:href="a01017.html#a2e311a777ffe9c80e405efa7cd2757be" target="_top" xlink:title="fprintf">
<polygon fill="white" stroke="black" points="538,-123.5 538,-142.5 580,-142.5 580,-123.5 538,-123.5"/>
<text text-anchor="middle" x="559" y="-130.5" font-family="Helvetica,sans-Serif" font-size="10.00">fprintf</text>
</a>
</g>
</g>
<!-- Node2&#45;&gt;Node3 -->
<g id="edge3" class="edge"><title>Node2&#45;&gt;Node3</title>
<path fill="none" stroke="midnightblue" d="M330.373,-66.3829C368.037,-51.7527 445.518,-28.459 502,-57 525.451,-68.8497 541.491,-95.6619 550.206,-114.05"/>
<polygon fill="midnightblue" stroke="midnightblue" points="547.035,-115.534 554.295,-123.251 553.432,-112.691 547.035,-115.534"/>
</g>
<!-- Node4 -->
<g id="node5" class="node"><title>Node4</title>
<g id="a_node5"><a xlink:href="a00110.html#ad2327b94227019b6753b6b09400c0522" target="_top" xlink:title="gk_GetCurMemoryUsed">
<polygon fill="white" stroke="black" points="376,-104.5 376,-123.5 500,-123.5 500,-104.5 376,-104.5"/>
<text text-anchor="middle" x="438" y="-111.5" font-family="Helvetica,sans-Serif" font-size="10.00">gk_GetCurMemoryUsed</text>
</a>
</g>
</g>
<!-- Node2&#45;&gt;Node4 -->
<g id="edge4" class="edge"><title>Node2&#45;&gt;Node4</title>
<path fill="none" stroke="midnightblue" d="M338.245,-84.9093C355.162,-89.8927 376.509,-96.1809 395.024,-101.635"/>
<polygon fill="midnightblue" stroke="midnightblue" points="394.108,-105.014 404.69,-104.482 396.086,-98.2991 394.108,-105.014"/>
</g>
<!-- Node5 -->
<g id="node6" class="node"><title>Node5</title>
<g id="a_node6"><a xlink:href="a00110.html#a656fd5266ae12a96e53125486f8fea52" target="_top" xlink:title="gk_GetMaxMemoryUsed">
<polygon fill="white" stroke="black" points="374.5,-142.5 374.5,-161.5 501.5,-161.5 501.5,-142.5 374.5,-142.5"/>
<text text-anchor="middle" x="438" y="-149.5" font-family="Helvetica,sans-Serif" font-size="10.00">gk_GetMaxMemoryUsed</text>
</a>
</g>
</g>
<!-- Node2&#45;&gt;Node5 -->
<g id="edge5" class="edge"><title>Node2&#45;&gt;Node5</title>
<path fill="none" stroke="midnightblue" d="M324.702,-85.5514C329.177,-88.3817 333.906,-91.6313 338,-95 355.965,-109.782 354.199,-120.787 374,-133 377.403,-135.099 381.053,-136.979 384.819,-138.661"/>
<polygon fill="midnightblue" stroke="midnightblue" points="383.759,-142.006 394.345,-142.446 386.344,-135.501 383.759,-142.006"/>
</g>
<!-- Node6 -->
<g id="node7" class="node"><title>Node6</title>
<g id="a_node7"><a xlink:href="a00026.html#a4c320c13bcdc9967613253ef4c73f59f" target="_top" xlink:title="gk_errexit">
<polygon fill="white" stroke="black" points="408,-66.5 408,-85.5 468,-85.5 468,-66.5 408,-66.5"/>
<text text-anchor="middle" x="438" y="-73.5" font-family="Helvetica,sans-Serif" font-size="10.00">gk_errexit</text>
</a>
</g>
</g>
<!-- Node2&#45;&gt;Node6 -->
<g id="edge6" class="edge"><title>Node2&#45;&gt;Node6</title>
<path fill="none" stroke="midnightblue" d="M338.245,-76C355.964,-76 378.542,-76 397.636,-76"/>
<polygon fill="midnightblue" stroke="midnightblue" points="397.832,-79.5001 407.832,-76 397.832,-72.5001 397.832,-79.5001"/>
</g>
<!-- Node6&#45;&gt;Node3 -->
<g id="edge7" class="edge"><title>Node6&#45;&gt;Node3</title>
<path fill="none" stroke="midnightblue" d="M468.228,-82.8252C479.104,-85.8755 491.377,-89.9396 502,-95 514.634,-101.018 527.634,-109.663 537.925,-117.186"/>
<polygon fill="midnightblue" stroke="midnightblue" points="536.101,-120.194 546.194,-123.415 540.313,-114.603 536.101,-120.194"/>
</g>
<!-- Node8 -->
<g id="node9" class="node"><title>Node8</title>
<g id="a_node9"><a xlink:href="a00035.html#a627221a374552b5b6659d855b7446187" target="_top" xlink:title="gk_fexists">
<polygon fill="white" stroke="black" points="178.5,-142.5 178.5,-161.5 239.5,-161.5 239.5,-142.5 178.5,-142.5"/>
<text text-anchor="middle" x="209" y="-149.5" font-family="Helvetica,sans-Serif" font-size="10.00">gk_fexists</text>
</a>
</g>
</g>
<!-- Node7&#45;&gt;Node8 -->
<g id="edge9" class="edge"><title>Node7&#45;&gt;Node8</title>
<path fill="none" stroke="midnightblue" d="M142.241,-139.38C150.639,-140.991 159.739,-142.738 168.415,-144.403"/>
<polygon fill="midnightblue" stroke="midnightblue" points="167.858,-147.86 178.339,-146.307 169.178,-140.985 167.858,-147.86"/>
</g>
<!-- Node9 -->
<g id="node10" class="node"><title>Node9</title>
<g id="a_node10"><a xlink:href="a00026.html#a56d0f2cc40cd8633a784582d6200d8b5" target="_top" xlink:title="errexit">
<polygon fill="white" stroke="black" points="285,-180.5 285,-199.5 329,-199.5 329,-180.5 285,-180.5"/>
<text text-anchor="middle" x="307" y="-187.5" font-family="Helvetica,sans-Serif" font-size="10.00">errexit</text>
</a>
</g>
</g>
<!-- Node7&#45;&gt;Node9 -->
<g id="edge10" class="edge"><title>Node7&#45;&gt;Node9</title>
<path fill="none" stroke="midnightblue" d="M122.848,-142.574C136.313,-151.399 157.656,-164.136 178,-171 209.806,-181.73 248.087,-186.407 274.451,-188.442"/>
<polygon fill="midnightblue" stroke="midnightblue" points="274.405,-191.947 284.621,-189.141 274.885,-184.963 274.405,-191.947"/>
</g>
<!-- Node10 -->
<g id="node11" class="node"><title>Node10</title>
<g id="a_node11"><a xlink:href="a00858.html#abff04948821f625a3e59666e61c70e2f" target="_top" xlink:title="gk_fopen">
<polygon fill="white" stroke="black" points="180,-218.5 180,-237.5 238,-237.5 238,-218.5 180,-218.5"/>
<text text-anchor="middle" x="209" y="-225.5" font-family="Helvetica,sans-Serif" font-size="10.00">gk_fopen</text>
</a>
</g>
</g>
<!-- Node7&#45;&gt;Node10 -->
<g id="edge12" class="edge"><title>Node7&#45;&gt;Node10</title>
<path fill="none" stroke="midnightblue" d="M117.577,-142.558C130.287,-156.55 155.094,-183.202 178,-204 180.886,-206.62 184.017,-209.295 187.132,-211.862"/>
<polygon fill="midnightblue" stroke="midnightblue" points="185.166,-214.772 195.157,-218.298 189.545,-209.311 185.166,-214.772"/>
</g>
<!-- Node11 -->
<g id="node12" class="node"><title>Node11</title>
<g id="a_node12"><a xlink:href="a00575.html#ae6aab5c308faac0fc539cc9c6da9fbd0" target="_top" xlink:title="sprintf">
<polygon fill="white" stroke="black" points="285,-142.5 285,-161.5 329,-161.5 329,-142.5 285,-142.5"/>
<text text-anchor="middle" x="307" y="-149.5" font-family="Helvetica,sans-Serif" font-size="10.00">sprintf</text>
</a>
</g>
</g>
<!-- Node7&#45;&gt;Node11 -->
<g id="edge18" class="edge"><title>Node7&#45;&gt;Node11</title>
<path fill="none" stroke="midnightblue" d="M142.019,-130.46C168.615,-129.023 206.896,-128.33 240,-133 251.751,-134.658 264.342,-137.899 275.342,-141.241"/>
<polygon fill="midnightblue" stroke="midnightblue" points="274.337,-144.594 284.928,-144.296 276.463,-137.925 274.337,-144.594"/>
</g>
<!-- Node12 -->
<g id="node13" class="node"><title>Node12</title>
<g id="a_node13"><a xlink:href="a00858.html#ad8263f64108434d7ebab9799b5ab9632" target="_top" xlink:title="gk_getline">
<polygon fill="white" stroke="black" points="178,-66.5 178,-85.5 240,-85.5 240,-66.5 178,-66.5"/>
<text text-anchor="middle" x="209" y="-73.5" font-family="Helvetica,sans-Serif" font-size="10.00">gk_getline</text>
</a>
</g>
</g>
<!-- Node7&#45;&gt;Node12 -->
<g id="edge15" class="edge"><title>Node7&#45;&gt;Node12</title>
<path fill="none" stroke="midnightblue" d="M125.794,-123.331C141.391,-114.351 164.828,-100.857 182.692,-90.5715"/>
<polygon fill="midnightblue" stroke="midnightblue" points="184.534,-93.5494 191.454,-85.5265 181.041,-87.483 184.534,-93.5494"/>
</g>
<!-- Node14 -->
<g id="node15" class="node"><title>Node14</title>
<g id="a_node15"><a xlink:href="a00858.html#a70dec19fefaf0c84f3948b4679a73fec" target="_top" xlink:title="gk_fclose">
<polygon fill="white" stroke="black" points="179.5,-256.5 179.5,-275.5 238.5,-275.5 238.5,-256.5 179.5,-256.5"/>
<text text-anchor="middle" x="209" y="-263.5" font-family="Helvetica,sans-Serif" font-size="10.00">gk_fclose</text>
</a>
</g>
</g>
<!-- Node7&#45;&gt;Node14 -->
<g id="edge19" class="edge"><title>Node7&#45;&gt;Node14</title>
<path fill="none" stroke="midnightblue" d="M112.947,-142.548C121.957,-163.471 145.778,-214.118 178,-247 179.079,-248.101 180.233,-249.168 181.437,-250.197"/>
<polygon fill="midnightblue" stroke="midnightblue" points="179.727,-253.284 189.853,-256.402 183.881,-247.65 179.727,-253.284"/>
</g>
<!-- Node7&#45;&gt;Node16 -->
<g id="edge21" class="edge"><title>Node7&#45;&gt;Node16</title>
<path fill="none" stroke="midnightblue" d="M116.348,-123.354C128.236,-108.132 152.901,-78.102 178,-57 179.363,-55.8544 180.799,-54.7255 182.276,-53.6242"/>
<polygon fill="midnightblue" stroke="midnightblue" points="184.665,-56.2304 190.938,-47.6923 180.71,-50.4549 184.665,-56.2304"/>
</g>
<!-- Node9&#45;&gt;Node3 -->
<g id="edge11" class="edge"><title>Node9&#45;&gt;Node3</title>
<path fill="none" stroke="midnightblue" d="M329.128,-191.269C365.589,-192.738 442.168,-192.631 502,-171 515.639,-166.069 529.145,-157.058 539.475,-149.049"/>
<polygon fill="midnightblue" stroke="midnightblue" points="541.779,-151.687 547.339,-142.668 537.368,-146.251 541.779,-151.687"/>
</g>
<!-- Node10&#45;&gt;Node9 -->
<g id="edge14" class="edge"><title>Node10&#45;&gt;Node9</title>
<path fill="none" stroke="midnightblue" d="M234.225,-218.411C246.618,-213.505 261.841,-207.48 275.073,-202.242"/>
<polygon fill="midnightblue" stroke="midnightblue" points="276.714,-205.357 284.724,-198.422 274.138,-198.848 276.714,-205.357"/>
</g>
<!-- Node10&#45;&gt;Node11 -->
<g id="edge13" class="edge"><title>Node10&#45;&gt;Node11</title>
<path fill="none" stroke="midnightblue" d="M220.343,-218.217C233.009,-206.442 255.332,-186.339 276,-171 277.634,-169.788 279.345,-168.572 281.086,-167.374"/>
<polygon fill="midnightblue" stroke="midnightblue" points="283.391,-170.048 289.826,-161.631 279.547,-164.197 283.391,-170.048"/>
</g>
<!-- Node12&#45;&gt;Node2 -->
<g id="edge16" class="edge"><title>Node12&#45;&gt;Node2</title>
<path fill="none" stroke="midnightblue" d="M240.112,-76C248.243,-76 257.173,-76 265.763,-76"/>
<polygon fill="midnightblue" stroke="midnightblue" points="265.995,-79.5001 275.995,-76 265.995,-72.5001 265.995,-79.5001"/>
</g>
<!-- Node13 -->
<g id="node14" class="node"><title>Node13</title>
<g id="a_node14"><a xlink:href="a00077.html#ab76a07ccd25288dd9acc99f5f24a7600" target="_top" xlink:title="gk_realloc">
<polygon fill="white" stroke="black" points="276,-104.5 276,-123.5 338,-123.5 338,-104.5 276,-104.5"/>
<text text-anchor="middle" x="307" y="-111.5" font-family="Helvetica,sans-Serif" font-size="10.00">gk_realloc</text>
</a>
</g>
</g>
<!-- Node12&#45;&gt;Node13 -->
<g id="edge17" class="edge"><title>Node12&#45;&gt;Node13</title>
<path fill="none" stroke="midnightblue" d="M234.225,-85.589C245.708,-90.1344 259.62,-95.6412 272.127,-100.592"/>
<polygon fill="midnightblue" stroke="midnightblue" points="271.197,-103.988 281.783,-104.414 273.773,-97.4792 271.197,-103.988"/>
</g>
<!-- Node15 -->
<g id="node16" class="node"><title>Node15</title>
<g id="a_node16"><a xlink:href="a01017.html#a355ed4cdac2a27aa04a6689ac2d7e86e" target="_top" xlink:title="fclose">
<polygon fill="white" stroke="black" points="285.5,-256.5 285.5,-275.5 328.5,-275.5 328.5,-256.5 285.5,-256.5"/>
<text text-anchor="middle" x="307" y="-263.5" font-family="Helvetica,sans-Serif" font-size="10.00">fclose</text>
</a>
</g>
</g>
<!-- Node14&#45;&gt;Node15 -->
<g id="edge20" class="edge"><title>Node14&#45;&gt;Node15</title>
<path fill="none" stroke="midnightblue" d="M238.543,-266C250.053,-266 263.36,-266 275.097,-266"/>
<polygon fill="midnightblue" stroke="midnightblue" points="275.339,-269.5 285.339,-266 275.339,-262.5 275.339,-269.5"/>
</g>
<!-- Node17&#45;&gt;Node3 -->
<g id="edge24" class="edge"><title>Node17&#45;&gt;Node3</title>
<path fill="none" stroke="midnightblue" d="M121.892,-256.724C135.153,-266.069 156.808,-279.551 178,-285 246.87,-302.71 269.116,-302.659 338,-285 418.539,-264.353 436.782,-246.569 502,-195 518.426,-182.011 534.136,-163.954 544.713,-150.675"/>
<polygon fill="midnightblue" stroke="midnightblue" points="547.506,-152.785 550.878,-142.741 541.979,-148.49 547.506,-152.785"/>
</g>
<!-- Node17&#45;&gt;Node10 -->
<g id="edge23" class="edge"><title>Node17&#45;&gt;Node10</title>
<path fill="none" stroke="midnightblue" d="M142.241,-240.62C151.138,-238.913 160.824,-237.054 169.959,-235.301"/>
<polygon fill="midnightblue" stroke="midnightblue" points="170.806,-238.702 179.967,-233.38 169.486,-231.828 170.806,-238.702"/>
</g>
<!-- Node17&#45;&gt;Node14 -->
<g id="edge25" class="edge"><title>Node17&#45;&gt;Node14</title>
<path fill="none" stroke="midnightblue" d="M142.241,-253.38C150.975,-255.056 160.469,-256.878 169.455,-258.603"/>
<polygon fill="midnightblue" stroke="midnightblue" points="168.838,-262.048 179.318,-260.495 170.157,-255.173 168.838,-262.048"/>
</g>
</g>
</svg>
