<?xml version="1.0" encoding="UTF-8" standalone="no"?>
<!DOCTYPE svg PUBLIC "-//W3C//DTD SVG 1.1//EN"
 "http://www.w3.org/Graphics/SVG/1.1/DTD/svg11.dtd">
<!-- Generated by graphviz version 2.36.0 (20140111.2315)
 -->
<!-- Title: main Pages: 1 -->
<svg width="982pt" height="1009pt"
 viewBox="0.00 0.00 982.00 1008.75" xmlns="http://www.w3.org/2000/svg" xmlns:xlink="http://www.w3.org/1999/xlink">
<g id="graph0" class="graph" transform="scale(1 1) rotate(0) translate(4 1004.75)">
<title>main</title>
<polygon fill="white" stroke="none" points="-4,4 -4,-1004.75 978,-1004.75 978,4 -4,4"/>
<!-- Node8 -->
<g id="node1" class="node"><title>Node8</title>
<polygon fill="#bfbfbf" stroke="black" points="0,-411.248 0,-430.248 38,-430.248 38,-411.248 0,-411.248"/>
<text text-anchor="middle" x="19" y="-418.248" font-family="Helvetica,sans-Serif" font-size="10.00">main</text>
</g>
<!-- Node9 -->
<g id="node2" class="node"><title>Node9</title>
<g id="a_node2"><a xlink:href="a00146.html#aea2aa8c9b5bb7c64a3f316d7760f0341" target="_top" xlink:title="parse_cmdline">
<polygon fill="white" stroke="black" points="97,-981.248 97,-1000.25 179,-1000.25 179,-981.248 97,-981.248"/>
<text text-anchor="middle" x="138" y="-988.248" font-family="Helvetica,sans-Serif" font-size="10.00">parse_cmdline</text>
</a>
</g>
</g>
<!-- Node8&#45;&gt;Node9 -->
<g id="edge1" class="edge"><title>Node8&#45;&gt;Node9</title>
<path fill="none" stroke="midnightblue" d="M20.3444,-430.27C22.9199,-499.358 40.0126,-922.289 74,-966.748 77.643,-971.513 82.3524,-975.332 87.5551,-978.393"/>
<polygon fill="midnightblue" stroke="midnightblue" points="86.1554,-981.605 96.6754,-982.862 89.2353,-975.319 86.1554,-981.605"/>
</g>
<!-- Node10 -->
<g id="node3" class="node"><title>Node10</title>
<g id="a_node3"><a xlink:href="a00861.html#a9add4a9694da47d84beb4a7638a7b673" target="_top" xlink:title="ReadGraph">
<polygon fill="white" stroke="black" points="104,-658.248 104,-677.248 172,-677.248 172,-658.248 104,-658.248"/>
<text text-anchor="middle" x="138" y="-665.248" font-family="Helvetica,sans-Serif" font-size="10.00">ReadGraph</text>
</a>
</g>
</g>
<!-- Node8&#45;&gt;Node10 -->
<g id="edge2" class="edge"><title>Node8&#45;&gt;Node10</title>
<path fill="none" stroke="midnightblue" d="M23.4191,-430.267C31.4404,-452.332 52.4257,-508.541 74,-553.748 90.5437,-588.413 112.87,-627.266 126.021,-649.488"/>
<polygon fill="midnightblue" stroke="midnightblue" points="123.083,-651.394 131.209,-658.193 129.096,-647.81 123.083,-651.394"/>
</g>
<!-- Node12 -->
<g id="node5" class="node"><title>Node12</title>
<g id="a_node5"><a xlink:href="a00026.html#a56d0f2cc40cd8633a784582d6200d8b5" target="_top" xlink:title="errexit">
<polygon fill="white" stroke="black" points="429,-848.248 429,-867.248 473,-867.248 473,-848.248 429,-848.248"/>
<text text-anchor="middle" x="451" y="-855.248" font-family="Helvetica,sans-Serif" font-size="10.00">errexit</text>
</a>
</g>
</g>
<!-- Node8&#45;&gt;Node12 -->
<g id="edge29" class="edge"><title>Node8&#45;&gt;Node12</title>
<path fill="none" stroke="midnightblue" d="M20.666,-430.275C24.2115,-479.212 41.9206,-702.364 74,-762.748 120.768,-850.779 145.257,-879.203 238,-915.748 288.447,-935.626 307.984,-931.056 360,-915.748 387.485,-907.658 414.499,-888.285 431.646,-874.147"/>
<polygon fill="midnightblue" stroke="midnightblue" points="434.319,-876.468 439.663,-867.319 429.78,-871.138 434.319,-876.468"/>
</g>
<!-- Node24 -->
<g id="node17" class="node"><title>Node24</title>
<g id="a_node17"><a xlink:href="a00077.html#ac8df62c4e3d0910711a9874f9cc58884" target="_top" xlink:title="gk_free">
<polygon fill="white" stroke="black" points="589,-449.248 589,-468.248 639,-468.248 639,-449.248 589,-449.248"/>
<text text-anchor="middle" x="614" y="-456.248" font-family="Helvetica,sans-Serif" font-size="10.00">gk_free</text>
</a>
</g>
</g>
<!-- Node8&#45;&gt;Node24 -->
<g id="edge67" class="edge"><title>Node8&#45;&gt;Node24</title>
<path fill="none" stroke="midnightblue" d="M38.297,-426.509C48.6624,-429.515 61.9323,-432.935 74,-434.748 262.987,-463.133 493.091,-461.518 578.738,-459.692"/>
<polygon fill="midnightblue" stroke="midnightblue" points="579.002,-463.187 588.92,-459.459 578.842,-456.188 579.002,-463.187"/>
</g>
<!-- Node25 -->
<g id="node18" class="node"><title>Node25</title>
<g id="a_node18"><a xlink:href="a00861.html#a12b940ccee061b8787088fbe16245f46" target="_top" xlink:title="ReadTPwgts">
<polygon fill="white" stroke="black" points="101,-734.248 101,-753.248 175,-753.248 175,-734.248 101,-734.248"/>
<text text-anchor="middle" x="138" y="-741.248" font-family="Helvetica,sans-Serif" font-size="10.00">ReadTPwgts</text>
</a>
</g>
</g>
<!-- Node8&#45;&gt;Node25 -->
<g id="edge21" class="edge"><title>Node8&#45;&gt;Node25</title>
<path fill="none" stroke="midnightblue" d="M19.8551,-430.69C19.7457,-467.356 23.1513,-597.488 74,-686.748 83.5226,-703.464 99.6955,-717.942 113.27,-728.124"/>
<polygon fill="midnightblue" stroke="midnightblue" points="111.551,-731.199 121.72,-734.175 115.627,-725.507 111.551,-731.199"/>
</g>
<!-- Node27 -->
<g id="node20" class="node"><title>Node27</title>
<g id="a_node20"><a xlink:href="a00311.html#a621f3f8c2f9b93614ecb2fdf86a6cc53" target="_top" xlink:title="GPPrintInfo">
<polygon fill="white" stroke="black" points="104,-487.248 104,-506.248 172,-506.248 172,-487.248 104,-487.248"/>
<text text-anchor="middle" x="138" y="-494.248" font-family="Helvetica,sans-Serif" font-size="10.00">GPPrintInfo</text>
</a>
</g>
</g>
<!-- Node8&#45;&gt;Node27 -->
<g id="edge30" class="edge"><title>Node8&#45;&gt;Node27</title>
<path fill="none" stroke="midnightblue" d="M27.8622,-430.398C37.6338,-441.854 55.316,-460.896 74,-472.748 80.3873,-476.799 87.5646,-480.334 94.7259,-483.356"/>
<polygon fill="midnightblue" stroke="midnightblue" points="93.8184,-486.76 104.406,-487.158 96.3778,-480.245 93.8184,-486.76"/>
</g>
<!-- Node28 -->
<g id="node21" class="node"><title>Node28</title>
<g id="a_node21"><a xlink:href="a00170.html#abea67bb0c6286795ac5fc9bee605dc5d" target="_top" xlink:title="METIS_SetDefaultOptions">
<polygon fill="white" stroke="black" points="547,-278.248 547,-297.248 681,-297.248 681,-278.248 547,-278.248"/>
<text text-anchor="middle" x="614" y="-285.248" font-family="Helvetica,sans-Serif" font-size="10.00">METIS_SetDefaultOptions</text>
</a>
</g>
</g>
<!-- Node8&#45;&gt;Node28 -->
<g id="edge31" class="edge"><title>Node8&#45;&gt;Node28</title>
<path fill="none" stroke="midnightblue" d="M38.071,-411.066C91.0928,-383.397 251.605,-304.867 396,-287.748 442.486,-282.236 494.968,-282.075 536.674,-283.368"/>
<polygon fill="midnightblue" stroke="midnightblue" points="536.646,-286.87 546.761,-283.716 536.887,-279.874 536.646,-286.87"/>
</g>
<!-- Node29 -->
<g id="node22" class="node"><title>Node29</title>
<g id="a_node22"><a xlink:href="a00077.html#a24633cc1c72a7e92836912c2adcf570a" target="_top" xlink:title="gk_malloc_init">
<polygon fill="white" stroke="black" points="747,-31.2475 747,-50.2475 827,-50.2475 827,-31.2475 747,-31.2475"/>
<text text-anchor="middle" x="787" y="-38.2475" font-family="Helvetica,sans-Serif" font-size="10.00">gk_malloc_init</text>
</a>
</g>
</g>
<!-- Node8&#45;&gt;Node29 -->
<g id="edge32" class="edge"><title>Node8&#45;&gt;Node29</title>
<path fill="none" stroke="midnightblue" d="M20.0466,-410.974C20.4967,-358.701 25.2122,-112.508 74,-58.7475 142.964,17.2446 195.38,-2.74753 298,-2.74753 298,-2.74753 298,-2.74753 452,-2.74753 553.791,-2.74753 671.92,-20.3872 736.873,-31.6299"/>
<polygon fill="midnightblue" stroke="midnightblue" points="736.376,-35.0961 746.83,-33.3757 737.585,-28.2013 736.376,-35.0961"/>
</g>
<!-- Node30 -->
<g id="node23" class="node"><title>Node30</title>
<g id="a_node23"><a xlink:href="a00260.html#a25fc90fd934931239b3c98ac4bdbce76" target="_top" xlink:title="Recursive partitioning routine. ">
<polygon fill="white" stroke="black" points="542.5,-145.248 542.5,-164.248 685.5,-164.248 685.5,-145.248 542.5,-145.248"/>
<text text-anchor="middle" x="614" y="-152.248" font-family="Helvetica,sans-Serif" font-size="10.00">METIS_PartGraphRecursive</text>
</a>
</g>
</g>
<!-- Node8&#45;&gt;Node30 -->
<g id="edge33" class="edge"><title>Node8&#45;&gt;Node30</title>
<path fill="none" stroke="midnightblue" d="M19.4167,-410.977C18.1141,-379.341 18.6823,-278.97 74,-230.748 140.779,-172.533 398.855,-158.824 532.203,-155.656"/>
<polygon fill="midnightblue" stroke="midnightblue" points="532.446,-159.151 542.365,-155.429 532.289,-152.153 532.446,-159.151"/>
</g>
<!-- Node36 -->
<g id="node29" class="node"><title>Node36</title>
<g id="a_node29"><a xlink:href="a00077.html#a47156a22528b5bc8c7c6e9849af34e62" target="_top" xlink:title="gk_malloc_cleanup">
<polygon fill="white" stroke="black" points="736,-89.2475 736,-108.248 838,-108.248 838,-89.2475 736,-89.2475"/>
<text text-anchor="middle" x="787" y="-96.2475" font-family="Helvetica,sans-Serif" font-size="10.00">gk_malloc_cleanup</text>
</a>
</g>
</g>
<!-- Node8&#45;&gt;Node36 -->
<g id="edge58" class="edge"><title>Node8&#45;&gt;Node36</title>
<path fill="none" stroke="midnightblue" d="M20.0955,-410.936C20.7932,-361.624 26.5596,-141.491 74,-97.7475 147.453,-30.0179 198.087,-78.7475 298,-78.7475 298,-78.7475 298,-78.7475 452,-78.7475 547.806,-78.7475 658.794,-87.0486 725.638,-92.9548"/>
<polygon fill="midnightblue" stroke="midnightblue" points="725.706,-96.4748 735.978,-93.8805 726.33,-89.5027 725.706,-96.4748"/>
</g>
<!-- Node37 -->
<g id="node30" class="node"><title>Node37</title>
<g id="a_node30"><a xlink:href="a00912.html#af89851458c047aba436b36ed567441e4" target="_top" xlink:title="METIS_PartGraphKway">
<polygon fill="white" stroke="black" points="76.5,-240.248 76.5,-259.248 199.5,-259.248 199.5,-240.248 76.5,-240.248"/>
<text text-anchor="middle" x="138" y="-247.248" font-family="Helvetica,sans-Serif" font-size="10.00">METIS_PartGraphKway</text>
</a>
</g>
</g>
<!-- Node8&#45;&gt;Node37 -->
<g id="edge42" class="edge"><title>Node8&#45;&gt;Node37</title>
<path fill="none" stroke="midnightblue" d="M22.0772,-411.098C27.3659,-388.353 43.1553,-330.46 74,-292.748 83.3531,-281.312 96.5188,-271.677 108.398,-264.445"/>
<polygon fill="midnightblue" stroke="midnightblue" points="110.237,-267.425 117.146,-259.393 106.736,-261.363 110.237,-267.425"/>
</g>
<!-- Node41 -->
<g id="node34" class="node"><title>Node41</title>
<g id="a_node34"><a xlink:href="a00077.html#ad2327b94227019b6753b6b09400c0522" target="_top" xlink:title="gk_GetCurMemoryUsed">
<polygon fill="white" stroke="black" points="76,-145.248 76,-164.248 200,-164.248 200,-145.248 76,-145.248"/>
<text text-anchor="middle" x="138" y="-152.248" font-family="Helvetica,sans-Serif" font-size="10.00">gk_GetCurMemoryUsed</text>
</a>
</g>
</g>
<!-- Node8&#45;&gt;Node41 -->
<g id="edge56" class="edge"><title>Node8&#45;&gt;Node41</title>
<path fill="none" stroke="midnightblue" d="M20.9503,-410.988C25.0875,-370.334 42.7388,-214.885 74,-178.748 77.2281,-175.016 81.1014,-171.863 85.3199,-169.198"/>
<polygon fill="midnightblue" stroke="midnightblue" points="87.1815,-172.172 94.3676,-164.387 83.895,-165.992 87.1815,-172.172"/>
</g>
<!-- Node42 -->
<g id="node35" class="node"><title>Node42</title>
<g id="a_node35"><a xlink:href="a00077.html#a656fd5266ae12a96e53125486f8fea52" target="_top" xlink:title="gk_GetMaxMemoryUsed">
<polygon fill="white" stroke="black" points="74.5,-107.248 74.5,-126.248 201.5,-126.248 201.5,-107.248 74.5,-107.248"/>
<text text-anchor="middle" x="138" y="-114.248" font-family="Helvetica,sans-Serif" font-size="10.00">gk_GetMaxMemoryUsed</text>
</a>
</g>
</g>
<!-- Node8&#45;&gt;Node42 -->
<g id="edge57" class="edge"><title>Node8&#45;&gt;Node42</title>
<path fill="none" stroke="midnightblue" d="M20.5169,-411.075C23.1099,-366.104 36.1106,-177.868 74,-135.748 75.1818,-134.434 76.4509,-133.209 77.7923,-132.068"/>
<polygon fill="midnightblue" stroke="midnightblue" points="79.8426,-134.907 86.1624,-126.403 75.9191,-129.11 79.8426,-134.907"/>
</g>
<!-- Node43 -->
<g id="node36" class="node"><title>Node43</title>
<g id="a_node36"><a xlink:href="a00861.html#ab677f01037192ca57a5a167df7d350d3" target="_top" xlink:title="WritePartition">
<polygon fill="white" stroke="black" points="99.5,-525.248 99.5,-544.248 176.5,-544.248 176.5,-525.248 99.5,-525.248"/>
<text text-anchor="middle" x="138" y="-532.248" font-family="Helvetica,sans-Serif" font-size="10.00">WritePartition</text>
</a>
</g>
</g>
<!-- Node8&#45;&gt;Node43 -->
<g id="edge59" class="edge"><title>Node8&#45;&gt;Node43</title>
<path fill="none" stroke="midnightblue" d="M22.8111,-430.429C28.8871,-449.632 45.0819,-492.676 74,-515.748 78.6911,-519.49 84.1098,-522.497 89.7598,-524.912"/>
<polygon fill="midnightblue" stroke="midnightblue" points="88.8056,-528.29 99.3993,-528.444 91.2137,-521.717 88.8056,-528.29"/>
</g>
<!-- Node44 -->
<g id="node37" class="node"><title>Node44</title>
<g id="a_node37"><a xlink:href="a00311.html#af57a862e6ce57a691244341103615ed2" target="_top" xlink:title="GPReportResults">
<polygon fill="white" stroke="black" points="252,-411.248 252,-430.248 346,-430.248 346,-411.248 252,-411.248"/>
<text text-anchor="middle" x="299" y="-418.248" font-family="Helvetica,sans-Serif" font-size="10.00">GPReportResults</text>
</a>
</g>
</g>
<!-- Node8&#45;&gt;Node44 -->
<g id="edge64" class="edge"><title>Node8&#45;&gt;Node44</title>
<path fill="none" stroke="midnightblue" d="M38.2404,-420.748C78.8615,-420.748 178.178,-420.748 241.565,-420.748"/>
<polygon fill="midnightblue" stroke="midnightblue" points="241.801,-424.248 251.801,-420.748 241.801,-417.248 241.801,-424.248"/>
</g>
<!-- Node11 -->
<g id="node4" class="node"><title>Node11</title>
<g id="a_node4"><a xlink:href="a00035.html#a627221a374552b5b6659d855b7446187" target="_top" xlink:title="gk_fexists">
<polygon fill="white" stroke="black" points="268.5,-715.248 268.5,-734.248 329.5,-734.248 329.5,-715.248 268.5,-715.248"/>
<text text-anchor="middle" x="299" y="-722.248" font-family="Helvetica,sans-Serif" font-size="10.00">gk_fexists</text>
</a>
</g>
</g>
<!-- Node10&#45;&gt;Node11 -->
<g id="edge3" class="edge"><title>Node10&#45;&gt;Node11</title>
<path fill="none" stroke="midnightblue" d="M162.858,-677.366C182.819,-685.301 212.108,-696.688 238,-705.748 244.583,-708.051 251.613,-710.387 258.458,-712.596"/>
<polygon fill="midnightblue" stroke="midnightblue" points="257.691,-716.024 268.281,-715.723 259.814,-709.354 257.691,-716.024"/>
</g>
<!-- Node10&#45;&gt;Node12 -->
<g id="edge4" class="edge"><title>Node10&#45;&gt;Node12</title>
<path fill="none" stroke="midnightblue" d="M153.058,-677.366C167.148,-687.644 188.615,-705.132 202,-724.748 227.45,-762.044 203.262,-790.903 238,-819.748 265.048,-842.207 366.748,-852.174 418.834,-855.884"/>
<polygon fill="midnightblue" stroke="midnightblue" points="418.638,-859.379 428.852,-856.563 419.112,-852.395 418.638,-859.379"/>
</g>
<!-- Node14 -->
<g id="node7" class="node"><title>Node14</title>
<g id="a_node7"><a xlink:href="a00858.html#abff04948821f625a3e59666e61c70e2f" target="_top" xlink:title="gk_fopen">
<polygon fill="white" stroke="black" points="270,-639.248 270,-658.248 328,-658.248 328,-639.248 270,-639.248"/>
<text text-anchor="middle" x="299" y="-646.248" font-family="Helvetica,sans-Serif" font-size="10.00">gk_fopen</text>
</a>
</g>
</g>
<!-- Node10&#45;&gt;Node14 -->
<g id="edge6" class="edge"><title>Node10&#45;&gt;Node14</title>
<path fill="none" stroke="midnightblue" d="M172.332,-663.765C197.816,-660.719 232.985,-656.517 259.639,-653.332"/>
<polygon fill="midnightblue" stroke="midnightblue" points="260.247,-656.784 269.761,-652.122 259.416,-649.833 260.247,-656.784"/>
</g>
<!-- Node15 -->
<g id="node8" class="node"><title>Node15</title>
<g id="a_node8"><a xlink:href="a00575.html#ae6aab5c308faac0fc539cc9c6da9fbd0" target="_top" xlink:title="sprintf">
<polygon fill="white" stroke="black" points="429,-601.248 429,-620.248 473,-620.248 473,-601.248 429,-601.248"/>
<text text-anchor="middle" x="451" y="-608.248" font-family="Helvetica,sans-Serif" font-size="10.00">sprintf</text>
</a>
</g>
</g>
<!-- Node10&#45;&gt;Node15 -->
<g id="edge17" class="edge"><title>Node10&#45;&gt;Node15</title>
<path fill="none" stroke="midnightblue" d="M158.959,-658.195C178.594,-649.255 209.664,-636.321 238,-629.748 301.083,-615.114 377.145,-611.612 418.854,-610.858"/>
<polygon fill="midnightblue" stroke="midnightblue" points="418.984,-614.357 428.934,-610.718 418.887,-607.358 418.984,-614.357"/>
</g>
<!-- Node16 -->
<g id="node9" class="node"><title>Node16</title>
<g id="a_node9"><a xlink:href="a00858.html#ad8263f64108434d7ebab9799b5ab9632" target="_top" xlink:title="gk_getline">
<polygon fill="white" stroke="black" points="268,-791.248 268,-810.248 330,-810.248 330,-791.248 268,-791.248"/>
<text text-anchor="middle" x="299" y="-798.248" font-family="Helvetica,sans-Serif" font-size="10.00">gk_getline</text>
</a>
</g>
</g>
<!-- Node10&#45;&gt;Node16 -->
<g id="edge9" class="edge"><title>Node10&#45;&gt;Node16</title>
<path fill="none" stroke="midnightblue" d="M150.435,-677.313C177.348,-699.825 244.944,-756.367 278.49,-784.428"/>
<polygon fill="midnightblue" stroke="midnightblue" points="276.324,-787.179 286.24,-790.91 280.815,-781.81 276.324,-787.179"/>
</g>
<!-- Node22 -->
<g id="node15" class="node"><title>Node22</title>
<g id="a_node15"><a xlink:href="a00858.html#a70dec19fefaf0c84f3948b4679a73fec" target="_top" xlink:title="gk_fclose">
<polygon fill="white" stroke="black" points="269.5,-677.248 269.5,-696.248 328.5,-696.248 328.5,-677.248 269.5,-677.248"/>
<text text-anchor="middle" x="299" y="-684.248" font-family="Helvetica,sans-Serif" font-size="10.00">gk_fclose</text>
</a>
</g>
</g>
<!-- Node10&#45;&gt;Node22 -->
<g id="edge18" class="edge"><title>Node10&#45;&gt;Node22</title>
<path fill="none" stroke="midnightblue" d="M172.332,-671.731C197.655,-674.757 232.542,-678.925 259.134,-682.103"/>
<polygon fill="midnightblue" stroke="midnightblue" points="258.898,-685.6 269.243,-683.311 259.729,-678.649 258.898,-685.6"/>
</g>
<!-- Node10&#45;&gt;Node24 -->
<g id="edge20" class="edge"><title>Node10&#45;&gt;Node24</title>
<path fill="none" stroke="midnightblue" d="M153.358,-658.213C172.27,-645.885 206.789,-624.171 238,-608.748 359.978,-548.469 512.487,-493.392 579.167,-470.262"/>
<polygon fill="midnightblue" stroke="midnightblue" points="580.432,-473.528 588.742,-466.956 578.147,-466.911 580.432,-473.528"/>
</g>
<!-- Node13 -->
<g id="node6" class="node"><title>Node13</title>
<g id="a_node6"><a xlink:href="a01017.html#a2e311a777ffe9c80e405efa7cd2757be" target="_top" xlink:title="fprintf">
<polygon fill="white" stroke="black" points="766,-558.248 766,-577.248 808,-577.248 808,-558.248 766,-558.248"/>
<text text-anchor="middle" x="787" y="-565.248" font-family="Helvetica,sans-Serif" font-size="10.00">fprintf</text>
</a>
</g>
</g>
<!-- Node12&#45;&gt;Node13 -->
<g id="edge5" class="edge"><title>Node12&#45;&gt;Node13</title>
<path fill="none" stroke="midnightblue" d="M473.028,-862.848C517.419,-872.296 621.875,-887.41 686,-838.748 768.451,-776.178 782.954,-638.353 785.478,-587.285"/>
<polygon fill="midnightblue" stroke="midnightblue" points="788.977,-587.386 785.87,-577.257 781.982,-587.113 788.977,-587.386"/>
</g>
<!-- Node14&#45;&gt;Node12 -->
<g id="edge8" class="edge"><title>Node14&#45;&gt;Node12</title>
<path fill="none" stroke="midnightblue" d="M328.107,-651.476C339.498,-653.991 351.86,-658.757 360,-667.748 412.128,-725.32 344.789,-780.357 396,-838.748 401.935,-845.514 410.428,-849.871 418.928,-852.676"/>
<polygon fill="midnightblue" stroke="midnightblue" points="418.19,-856.102 428.755,-855.308 420.001,-849.34 418.19,-856.102"/>
</g>
<!-- Node14&#45;&gt;Node15 -->
<g id="edge7" class="edge"><title>Node14&#45;&gt;Node15</title>
<path fill="none" stroke="midnightblue" d="M328.214,-641.6C353.987,-635.071 392.032,-625.433 418.724,-618.671"/>
<polygon fill="midnightblue" stroke="midnightblue" points="419.864,-621.993 428.698,-616.144 418.144,-615.207 419.864,-621.993"/>
</g>
<!-- Node17 -->
<g id="node10" class="node"><title>Node17</title>
<g id="a_node10"><a xlink:href="a00077.html#aba6f76f5c67b9b7e9c2e45988d3d3e9d" target="_top" xlink:title="gk_malloc">
<polygon fill="white" stroke="black" points="420,-810.248 420,-829.248 482,-829.248 482,-810.248 420,-810.248"/>
<text text-anchor="middle" x="451" y="-817.248" font-family="Helvetica,sans-Serif" font-size="10.00">gk_malloc</text>
</a>
</g>
</g>
<!-- Node16&#45;&gt;Node17 -->
<g id="edge10" class="edge"><title>Node16&#45;&gt;Node17</title>
<path fill="none" stroke="midnightblue" d="M330.355,-804.592C353.201,-807.486 384.737,-811.481 409.697,-814.642"/>
<polygon fill="midnightblue" stroke="midnightblue" points="409.586,-818.156 419.947,-815.941 410.466,-811.212 409.586,-818.156"/>
</g>
<!-- Node21 -->
<g id="node14" class="node"><title>Node21</title>
<g id="a_node14"><a xlink:href="a00077.html#ab76a07ccd25288dd9acc99f5f24a7600" target="_top" xlink:title="gk_realloc">
<polygon fill="white" stroke="black" points="420,-772.248 420,-791.248 482,-791.248 482,-772.248 420,-772.248"/>
<text text-anchor="middle" x="451" y="-779.248" font-family="Helvetica,sans-Serif" font-size="10.00">gk_realloc</text>
</a>
</g>
</g>
<!-- Node16&#45;&gt;Node21 -->
<g id="edge16" class="edge"><title>Node16&#45;&gt;Node21</title>
<path fill="none" stroke="midnightblue" d="M330.355,-796.903C353.201,-794.009 384.737,-790.014 409.697,-786.853"/>
<polygon fill="midnightblue" stroke="midnightblue" points="410.466,-790.283 419.947,-785.554 409.586,-783.339 410.466,-790.283"/>
</g>
<!-- Node17&#45;&gt;Node13 -->
<g id="edge11" class="edge"><title>Node17&#45;&gt;Node13</title>
<path fill="none" stroke="midnightblue" d="M482.045,-811.99C490.185,-809.154 498.746,-805.452 506,-800.748 525.519,-788.088 524.872,-778.492 542,-762.748 620.061,-690.993 721.22,-615.092 764.655,-583.237"/>
<polygon fill="midnightblue" stroke="midnightblue" points="766.775,-586.023 772.784,-577.297 762.645,-580.371 766.775,-586.023"/>
</g>
<!-- Node18 -->
<g id="node11" class="node"><title>Node18</title>
<g id="a_node11"><a xlink:href="a00110.html#ad2327b94227019b6753b6b09400c0522" target="_top" xlink:title="gk_GetCurMemoryUsed">
<polygon fill="white" stroke="black" points="552,-810.248 552,-829.248 676,-829.248 676,-810.248 552,-810.248"/>
<text text-anchor="middle" x="614" y="-817.248" font-family="Helvetica,sans-Serif" font-size="10.00">gk_GetCurMemoryUsed</text>
</a>
</g>
</g>
<!-- Node17&#45;&gt;Node18 -->
<g id="edge12" class="edge"><title>Node17&#45;&gt;Node18</title>
<path fill="none" stroke="midnightblue" d="M482.283,-819.748C499.113,-819.748 520.819,-819.748 541.69,-819.748"/>
<polygon fill="midnightblue" stroke="midnightblue" points="541.844,-823.248 551.844,-819.748 541.844,-816.248 541.844,-823.248"/>
</g>
<!-- Node19 -->
<g id="node12" class="node"><title>Node19</title>
<g id="a_node12"><a xlink:href="a00110.html#a656fd5266ae12a96e53125486f8fea52" target="_top" xlink:title="gk_GetMaxMemoryUsed">
<polygon fill="white" stroke="black" points="550.5,-772.248 550.5,-791.248 677.5,-791.248 677.5,-772.248 550.5,-772.248"/>
<text text-anchor="middle" x="614" y="-779.248" font-family="Helvetica,sans-Serif" font-size="10.00">gk_GetMaxMemoryUsed</text>
</a>
</g>
</g>
<!-- Node17&#45;&gt;Node19 -->
<g id="edge13" class="edge"><title>Node17&#45;&gt;Node19</title>
<path fill="none" stroke="midnightblue" d="M482.283,-812.6C504.899,-807.262 536.319,-799.846 562.686,-793.623"/>
<polygon fill="midnightblue" stroke="midnightblue" points="563.587,-797.006 572.516,-791.303 561.979,-790.194 563.587,-797.006"/>
</g>
<!-- Node20 -->
<g id="node13" class="node"><title>Node20</title>
<g id="a_node13"><a xlink:href="a00026.html#a4c320c13bcdc9967613253ef4c73f59f" target="_top" xlink:title="gk_errexit">
<polygon fill="white" stroke="black" points="584,-373.248 584,-392.248 644,-392.248 644,-373.248 584,-373.248"/>
<text text-anchor="middle" x="614" y="-380.248" font-family="Helvetica,sans-Serif" font-size="10.00">gk_errexit</text>
</a>
</g>
</g>
<!-- Node17&#45;&gt;Node20 -->
<g id="edge14" class="edge"><title>Node17&#45;&gt;Node20</title>
<path fill="none" stroke="midnightblue" d="M482.007,-815.551C491.038,-812.797 500.106,-808.25 506,-800.748 555.807,-737.353 503.57,-510.619 542,-439.748 551.763,-421.743 569.831,-407.362 585.297,-397.549"/>
<polygon fill="midnightblue" stroke="midnightblue" points="587.252,-400.457 594.02,-392.306 583.646,-394.458 587.252,-400.457"/>
</g>
<!-- Node20&#45;&gt;Node13 -->
<g id="edge15" class="edge"><title>Node20&#45;&gt;Node13</title>
<path fill="none" stroke="midnightblue" d="M628.863,-392.392C643.774,-403.092 667.791,-421.296 686,-439.748 721.459,-475.68 756.226,-523.95 773.929,-549.732"/>
<polygon fill="midnightblue" stroke="midnightblue" points="771.133,-551.845 779.649,-558.148 776.923,-547.91 771.133,-551.845"/>
</g>
<!-- Node23 -->
<g id="node16" class="node"><title>Node23</title>
<g id="a_node16"><a xlink:href="a01017.html#a355ed4cdac2a27aa04a6689ac2d7e86e" target="_top" xlink:title="fclose">
<polygon fill="white" stroke="black" points="429.5,-677.248 429.5,-696.248 472.5,-696.248 472.5,-677.248 429.5,-677.248"/>
<text text-anchor="middle" x="451" y="-684.248" font-family="Helvetica,sans-Serif" font-size="10.00">fclose</text>
</a>
</g>
</g>
<!-- Node22&#45;&gt;Node23 -->
<g id="edge19" class="edge"><title>Node22&#45;&gt;Node23</title>
<path fill="none" stroke="midnightblue" d="M328.567,-686.748C354.416,-686.748 392.398,-686.748 418.981,-686.748"/>
<polygon fill="midnightblue" stroke="midnightblue" points="419.258,-690.248 429.258,-686.748 419.258,-683.248 419.258,-690.248"/>
</g>
<!-- Node25&#45;&gt;Node11 -->
<g id="edge22" class="edge"><title>Node25&#45;&gt;Node11</title>
<path fill="none" stroke="midnightblue" d="M175.08,-739.436C199.883,-736.472 232.819,-732.536 258.356,-729.485"/>
<polygon fill="midnightblue" stroke="midnightblue" points="258.934,-732.941 268.449,-728.279 258.104,-725.99 258.934,-732.941"/>
</g>
<!-- Node25&#45;&gt;Node12 -->
<g id="edge23" class="edge"><title>Node25&#45;&gt;Node12</title>
<path fill="none" stroke="midnightblue" d="M141.686,-753.251C150.208,-781.355 179.582,-864.08 238,-895.748 299.147,-928.895 383.361,-893.81 424.838,-872.148"/>
<polygon fill="midnightblue" stroke="midnightblue" points="426.573,-875.189 433.721,-867.369 423.257,-869.025 426.573,-875.189"/>
</g>
<!-- Node25&#45;&gt;Node14 -->
<g id="edge24" class="edge"><title>Node25&#45;&gt;Node14</title>
<path fill="none" stroke="midnightblue" d="M148.869,-734.244C165.808,-718.4 202.073,-686.484 238,-667.748 244.871,-664.164 252.54,-661.108 260.037,-658.562"/>
<polygon fill="midnightblue" stroke="midnightblue" points="261.231,-661.856 269.713,-655.508 259.123,-655.18 261.231,-661.856"/>
</g>
<!-- Node25&#45;&gt;Node16 -->
<g id="edge25" class="edge"><title>Node25&#45;&gt;Node16</title>
<path fill="none" stroke="midnightblue" d="M165.613,-753.288C191.983,-762.741 232.56,-777.288 261.84,-787.785"/>
<polygon fill="midnightblue" stroke="midnightblue" points="260.706,-791.096 271.3,-791.176 263.068,-784.507 260.706,-791.096"/>
</g>
<!-- Node25&#45;&gt;Node22 -->
<g id="edge27" class="edge"><title>Node25&#45;&gt;Node22</title>
<path fill="none" stroke="midnightblue" d="M162.858,-734.129C182.819,-726.194 212.108,-714.807 238,-705.748 245.02,-703.291 252.548,-700.798 259.818,-698.461"/>
<polygon fill="midnightblue" stroke="midnightblue" points="261.026,-701.75 269.5,-695.39 258.91,-695.078 261.026,-701.75"/>
</g>
<!-- Node25&#45;&gt;Node24 -->
<g id="edge28" class="edge"><title>Node25&#45;&gt;Node24</title>
<path fill="none" stroke="midnightblue" d="M175.146,-752.089C247.434,-766.469 411.015,-787.112 506,-705.748 524.675,-689.751 584.966,-533.105 605.822,-477.89"/>
<polygon fill="midnightblue" stroke="midnightblue" points="609.195,-478.863 609.443,-468.271 602.644,-476.397 609.195,-478.863"/>
</g>
<!-- Node26 -->
<g id="node19" class="node"><title>Node26</title>
<g id="a_node19"><a xlink:href="a00077.html#a29b909254dcbcae417f8c09ce21d5423" target="_top" xlink:title="Replaces certain characters in a string. ">
<polygon fill="white" stroke="black" points="251,-867.248 251,-886.248 347,-886.248 347,-867.248 251,-867.248"/>
<text text-anchor="middle" x="299" y="-874.248" font-family="Helvetica,sans-Serif" font-size="10.00">gk_strchr_replace</text>
</a>
</g>
</g>
<!-- Node25&#45;&gt;Node26 -->
<g id="edge26" class="edge"><title>Node25&#45;&gt;Node26</title>
<path fill="none" stroke="midnightblue" d="M145.54,-753.552C159.939,-774.461 196.425,-823.877 238,-852.748 243.758,-856.746 250.28,-860.222 256.849,-863.193"/>
<polygon fill="midnightblue" stroke="midnightblue" points="255.848,-866.568 266.425,-867.186 258.543,-860.107 255.848,-866.568"/>
</g>
<!-- Node30&#45;&gt;Node29 -->
<g id="edge34" class="edge"><title>Node30&#45;&gt;Node29</title>
<path fill="none" stroke="midnightblue" d="M627.992,-145.236C647.944,-130.722 687.449,-102.35 722,-79.7475 734.544,-71.5413 748.759,-62.823 760.6,-55.7153"/>
<polygon fill="midnightblue" stroke="midnightblue" points="762.715,-58.5292 769.511,-50.4009 759.13,-52.5172 762.715,-58.5292"/>
</g>
<!-- Node31 -->
<g id="node24" class="node"><title>Node31</title>
<g id="a_node24"><a xlink:href="a00026.html#a05869524d1c30cfaab2a8690e7da6fd4" target="_top" xlink:title="gk_sigtrap">
<polygon fill="white" stroke="black" points="755.5,-221.248 755.5,-240.248 818.5,-240.248 818.5,-221.248 755.5,-221.248"/>
<text text-anchor="middle" x="787" y="-228.248" font-family="Helvetica,sans-Serif" font-size="10.00">gk_sigtrap</text>
</a>
</g>
</g>
<!-- Node30&#45;&gt;Node31 -->
<g id="edge35" class="edge"><title>Node30&#45;&gt;Node31</title>
<path fill="none" stroke="midnightblue" d="M630.471,-164.27C650.86,-176.516 688.113,-197.857 722,-211.748 729.465,-214.808 737.602,-217.608 745.494,-220.065"/>
<polygon fill="midnightblue" stroke="midnightblue" points="744.708,-223.482 755.291,-222.985 746.708,-216.774 744.708,-223.482"/>
</g>
<!-- Node32 -->
<g id="node25" class="node"><title>Node32</title>
<g id="a_node25"><a xlink:href="a00026.html#a08f287b6dbdc0779c916ecbd49540a1e" target="_top" xlink:title="gk_siguntrap">
<polygon fill="white" stroke="black" points="750,-183.248 750,-202.248 824,-202.248 824,-183.248 750,-183.248"/>
<text text-anchor="middle" x="787" y="-190.248" font-family="Helvetica,sans-Serif" font-size="10.00">gk_siguntrap</text>
</a>
</g>
</g>
<!-- Node30&#45;&gt;Node32 -->
<g id="edge36" class="edge"><title>Node30&#45;&gt;Node32</title>
<path fill="none" stroke="midnightblue" d="M658.151,-164.337C683.131,-169.888 714.565,-176.873 740.012,-182.528"/>
<polygon fill="midnightblue" stroke="midnightblue" points="739.279,-185.95 749.801,-184.703 740.798,-179.117 739.279,-185.95"/>
</g>
<!-- Node33 -->
<g id="node26" class="node"><title>Node33</title>
<g id="a_node26"><a xlink:href="a00260.html#a5510f276b321a8450b2e9cc913c2f00f" target="_top" xlink:title="MlevelRecursiveBisection">
<polygon fill="white" stroke="black" points="722,-127.248 722,-146.248 852,-146.248 852,-127.248 722,-127.248"/>
<text text-anchor="middle" x="787" y="-134.248" font-family="Helvetica,sans-Serif" font-size="10.00">MlevelRecursiveBisection</text>
</a>
</g>
</g>
<!-- Node30&#45;&gt;Node33 -->
<g id="edge37" class="edge"><title>Node30&#45;&gt;Node33</title>
<path fill="none" stroke="midnightblue" d="M685.54,-147.322C694.202,-146.41 703.076,-145.476 711.79,-144.559"/>
<polygon fill="midnightblue" stroke="midnightblue" points="712.346,-148.02 721.925,-143.492 711.613,-141.058 712.346,-148.02"/>
</g>
<!-- Node30&#45;&gt;Node36 -->
<g id="edge41" class="edge"><title>Node30&#45;&gt;Node36</title>
<path fill="none" stroke="midnightblue" d="M643.719,-145.189C656.66,-140.844 672.12,-135.599 686,-130.748 702.059,-125.135 705.839,-123.059 722,-117.748 728.584,-115.583 735.584,-113.394 742.447,-111.308"/>
<polygon fill="midnightblue" stroke="midnightblue" points="743.765,-114.567 752.338,-108.343 741.754,-107.862 743.765,-114.567"/>
</g>
<!-- Node33&#45;&gt;Node33 -->
<g id="edge40" class="edge"><title>Node33&#45;&gt;Node33</title>
<path fill="none" stroke="midnightblue" d="M764.805,-146.505C754.008,-155.313 761.406,-164.748 787,-164.748 803.796,-164.748 812.756,-160.684 813.879,-155.401"/>
<polygon fill="midnightblue" stroke="midnightblue" points="816.951,-153.722 809.195,-146.505 810.757,-156.984 816.951,-153.722"/>
</g>
<!-- Node34 -->
<g id="node27" class="node"><title>Node34</title>
<g id="a_node27"><a xlink:href="a00260.html#a33c48a23cc94ea0221fa5c7317cd0222" target="_top" xlink:title="MultilevelBisect">
<polygon fill="white" stroke="black" points="888.5,-146.248 888.5,-165.248 973.5,-165.248 973.5,-146.248 888.5,-146.248"/>
<text text-anchor="middle" x="931" y="-153.248" font-family="Helvetica,sans-Serif" font-size="10.00">MultilevelBisect</text>
</a>
</g>
</g>
<!-- Node33&#45;&gt;Node34 -->
<g id="edge38" class="edge"><title>Node33&#45;&gt;Node34</title>
<path fill="none" stroke="midnightblue" d="M852.352,-145.358C861.013,-146.517 869.806,-147.693 878.211,-148.818"/>
<polygon fill="midnightblue" stroke="midnightblue" points="877.859,-152.302 888.235,-150.159 878.788,-145.364 877.859,-152.302"/>
</g>
<!-- Node35 -->
<g id="node28" class="node"><title>Node35</title>
<g id="a_node28"><a xlink:href="a00260.html#a49d272affb67ce57b2d20dccd7f15f53" target="_top" xlink:title="SplitGraphPart">
<polygon fill="white" stroke="black" points="890,-108.248 890,-127.248 972,-127.248 972,-108.248 890,-108.248"/>
<text text-anchor="middle" x="931" y="-115.248" font-family="Helvetica,sans-Serif" font-size="10.00">SplitGraphPart</text>
</a>
</g>
</g>
<!-- Node33&#45;&gt;Node35 -->
<g id="edge39" class="edge"><title>Node33&#45;&gt;Node35</title>
<path fill="none" stroke="midnightblue" d="M852.352,-128.137C861.53,-126.909 870.856,-125.661 879.712,-124.476"/>
<polygon fill="midnightblue" stroke="midnightblue" points="880.407,-127.915 889.854,-123.119 879.478,-120.976 880.407,-127.915"/>
</g>
<!-- Node37&#45;&gt;Node20 -->
<g id="edge47" class="edge"><title>Node37&#45;&gt;Node20</title>
<path fill="none" stroke="midnightblue" d="M143.821,-259.387C155.94,-282.418 190.159,-340.451 238,-363.748 296.242,-392.109 490.078,-387.885 573.863,-384.577"/>
<polygon fill="midnightblue" stroke="midnightblue" points="574.142,-388.069 583.99,-384.16 573.854,-381.075 574.142,-388.069"/>
</g>
<!-- Node37&#45;&gt;Node29 -->
<g id="edge43" class="edge"><title>Node37&#45;&gt;Node29</title>
<path fill="none" stroke="midnightblue" d="M150.23,-240.168C167.939,-225.426 203.857,-196.979 238,-178.748 365.288,-110.778 401.449,-97.4207 542,-64.7475 608.189,-49.361 686.715,-43.8315 736.451,-41.8488"/>
<polygon fill="midnightblue" stroke="midnightblue" points="736.746,-45.3404 746.612,-41.4773 736.491,-38.3451 736.746,-45.3404"/>
</g>
<!-- Node37&#45;&gt;Node31 -->
<g id="edge44" class="edge"><title>Node37&#45;&gt;Node31</title>
<path fill="none" stroke="midnightblue" d="M199.577,-247.969C330.132,-244.135 635.118,-235.178 745.342,-231.941"/>
<polygon fill="midnightblue" stroke="midnightblue" points="745.496,-235.439 755.389,-231.646 745.29,-228.442 745.496,-235.439"/>
</g>
<!-- Node37&#45;&gt;Node32 -->
<g id="edge45" class="edge"><title>Node37&#45;&gt;Node32</title>
<path fill="none" stroke="midnightblue" d="M199.706,-242.741C212.355,-241.355 225.608,-239.956 238,-238.748 423.697,-220.64 645.224,-203.372 739.663,-196.214"/>
<polygon fill="midnightblue" stroke="midnightblue" points="740.032,-199.696 749.74,-195.452 739.505,-192.716 740.032,-199.696"/>
</g>
<!-- Node37&#45;&gt;Node36 -->
<g id="edge55" class="edge"><title>Node37&#45;&gt;Node36</title>
<path fill="none" stroke="midnightblue" d="M168.012,-240.184C233.845,-218.782 399.867,-166.501 542,-135.748 604.096,-122.312 676.121,-112.027 725.738,-105.751"/>
<polygon fill="midnightblue" stroke="midnightblue" points="726.175,-109.224 735.664,-104.511 725.307,-102.277 726.175,-109.224"/>
</g>
<!-- Node38 -->
<g id="node31" class="node"><title>Node38</title>
<g id="a_node31"><a xlink:href="a00077.html#a3d153a0a39d7ba54f0943fa586f0c561" target="_top" xlink:title="gk_log2">
<polygon fill="white" stroke="black" points="273,-259.248 273,-278.248 325,-278.248 325,-259.248 273,-259.248"/>
<text text-anchor="middle" x="299" y="-266.248" font-family="Helvetica,sans-Serif" font-size="10.00">gk_log2</text>
</a>
</g>
</g>
<!-- Node37&#45;&gt;Node38 -->
<g id="edge46" class="edge"><title>Node37&#45;&gt;Node38</title>
<path fill="none" stroke="midnightblue" d="M199.565,-256.985C220.939,-259.539 244.253,-262.325 262.824,-264.544"/>
<polygon fill="midnightblue" stroke="midnightblue" points="262.539,-268.035 272.884,-265.746 263.37,-261.084 262.539,-268.035"/>
</g>
<!-- Node39 -->
<g id="node32" class="node"><title>Node39</title>
<g id="a_node32"><a xlink:href="a00912.html#a7973c78504ad6711d3516082b1112805" target="_top" xlink:title="MlevelKWayPartitioning">
<polygon fill="white" stroke="black" points="238,-335.248 238,-354.248 360,-354.248 360,-335.248 238,-335.248"/>
<text text-anchor="middle" x="299" y="-342.248" font-family="Helvetica,sans-Serif" font-size="10.00">MlevelKWayPartitioning</text>
</a>
</g>
</g>
<!-- Node37&#45;&gt;Node39 -->
<g id="edge48" class="edge"><title>Node37&#45;&gt;Node39</title>
<path fill="none" stroke="midnightblue" d="M155.121,-259.379C182.977,-276.023 240.291,-310.268 273.236,-329.951"/>
<polygon fill="midnightblue" stroke="midnightblue" points="271.457,-332.966 281.837,-335.09 275.047,-326.956 271.457,-332.966"/>
</g>
<!-- Node39&#45;&gt;Node20 -->
<g id="edge54" class="edge"><title>Node39&#45;&gt;Node20</title>
<path fill="none" stroke="midnightblue" d="M360.42,-351.559C401.49,-356.246 457.045,-362.693 506,-368.748 528.483,-371.528 553.6,-374.805 573.846,-377.49"/>
<polygon fill="midnightblue" stroke="midnightblue" points="573.575,-380.985 583.949,-378.834 574.498,-374.046 573.575,-380.985"/>
</g>
<!-- Node40 -->
<g id="node33" class="node"><title>Node40</title>
<g id="a_node33"><a xlink:href="a00912.html#a870e37cc14eb1033c62d83d3a7c33a91" target="_top" xlink:title="InitKWayPartitioning">
<polygon fill="white" stroke="black" points="397.5,-297.248 397.5,-316.248 504.5,-316.248 504.5,-297.248 397.5,-297.248"/>
<text text-anchor="middle" x="451" y="-304.248" font-family="Helvetica,sans-Serif" font-size="10.00">InitKWayPartitioning</text>
</a>
</g>
</g>
<!-- Node39&#45;&gt;Node40 -->
<g id="edge49" class="edge"><title>Node39&#45;&gt;Node40</title>
<path fill="none" stroke="midnightblue" d="M337.851,-335.159C357.467,-330.189 381.619,-324.071 402.479,-318.786"/>
<polygon fill="midnightblue" stroke="midnightblue" points="403.587,-322.116 412.421,-316.268 401.868,-315.331 403.587,-322.116"/>
</g>
<!-- Node40&#45;&gt;Node20 -->
<g id="edge52" class="edge"><title>Node40&#45;&gt;Node20</title>
<path fill="none" stroke="midnightblue" d="M473.884,-316.271C483.735,-320.61 495.488,-325.859 506,-330.748 532.797,-343.209 563.066,-357.986 584.554,-368.596"/>
<polygon fill="midnightblue" stroke="midnightblue" points="583.25,-371.856 593.765,-373.154 586.355,-365.582 583.25,-371.856"/>
</g>
<!-- Node40&#45;&gt;Node24 -->
<g id="edge53" class="edge"><title>Node40&#45;&gt;Node24</title>
<path fill="none" stroke="midnightblue" d="M460.288,-316.324C475.694,-333.935 510.085,-372.346 542,-401.748 557.982,-416.471 577.273,-431.818 591.71,-442.873"/>
<polygon fill="midnightblue" stroke="midnightblue" points="589.917,-445.906 600,-449.158 594.146,-440.328 589.917,-445.906"/>
</g>
<!-- Node40&#45;&gt;Node28 -->
<g id="edge50" class="edge"><title>Node40&#45;&gt;Node28</title>
<path fill="none" stroke="midnightblue" d="M504.717,-300.526C515.039,-299.308 526.055,-298.008 536.961,-296.721"/>
<polygon fill="midnightblue" stroke="midnightblue" points="537.403,-300.193 546.923,-295.545 536.582,-293.242 537.403,-300.193"/>
</g>
<!-- Node40&#45;&gt;Node30 -->
<g id="edge51" class="edge"><title>Node40&#45;&gt;Node30</title>
<path fill="none" stroke="midnightblue" d="M462.071,-297.239C488.839,-271.968 561.996,-202.9 595.646,-171.132"/>
<polygon fill="midnightblue" stroke="midnightblue" points="598.064,-173.662 602.933,-164.252 593.258,-168.572 598.064,-173.662"/>
</g>
<!-- Node43&#45;&gt;Node13 -->
<g id="edge62" class="edge"><title>Node43&#45;&gt;Node13</title>
<path fill="none" stroke="midnightblue" d="M176.582,-536.664C293.526,-542.629 649.482,-560.784 755.741,-566.204"/>
<polygon fill="midnightblue" stroke="midnightblue" points="755.62,-569.702 765.785,-566.716 755.976,-562.712 755.62,-569.702"/>
</g>
<!-- Node43&#45;&gt;Node14 -->
<g id="edge61" class="edge"><title>Node43&#45;&gt;Node14</title>
<path fill="none" stroke="midnightblue" d="M152.283,-544.271C179.688,-563.92 242.731,-609.121 276.2,-633.118"/>
<polygon fill="midnightblue" stroke="midnightblue" points="274.252,-636.027 284.418,-639.009 278.33,-630.338 274.252,-636.027"/>
</g>
<!-- Node43&#45;&gt;Node15 -->
<g id="edge60" class="edge"><title>Node43&#45;&gt;Node15</title>
<path fill="none" stroke="midnightblue" d="M176.514,-543.915C238.566,-559.079 361.428,-589.103 418.942,-603.158"/>
<polygon fill="midnightblue" stroke="midnightblue" points="418.346,-606.615 428.891,-605.589 420.008,-599.815 418.346,-606.615"/>
</g>
<!-- Node43&#45;&gt;Node22 -->
<g id="edge63" class="edge"><title>Node43&#45;&gt;Node22</title>
<path fill="none" stroke="midnightblue" d="M143.499,-544.405C155.364,-568.823 189.933,-633.519 238,-667.748 244.508,-672.382 252.194,-675.919 259.854,-678.608"/>
<polygon fill="midnightblue" stroke="midnightblue" points="258.863,-681.965 269.451,-681.578 260.933,-675.278 258.863,-681.965"/>
</g>
<!-- Node45 -->
<g id="node38" class="node"><title>Node45</title>
<g id="a_node38"><a xlink:href="a00951.html#a16087d53e4f04771ed2ffbd810711cba" target="_top" xlink:title="ComputePartitionInfo">
<polygon fill="white" stroke="black" points="396,-411.248 396,-430.248 506,-430.248 506,-411.248 396,-411.248"/>
<text text-anchor="middle" x="451" y="-418.248" font-family="Helvetica,sans-Serif" font-size="10.00">ComputePartitionInfo</text>
</a>
</g>
</g>
<!-- Node44&#45;&gt;Node45 -->
<g id="edge65" class="edge"><title>Node44&#45;&gt;Node45</title>
<path fill="none" stroke="midnightblue" d="M346.229,-420.748C358.713,-420.748 372.451,-420.748 385.731,-420.748"/>
<polygon fill="midnightblue" stroke="midnightblue" points="385.769,-424.248 395.769,-420.748 385.769,-417.248 385.769,-424.248"/>
</g>
<!-- Node45&#45;&gt;Node24 -->
<g id="edge66" class="edge"><title>Node45&#45;&gt;Node24</title>
<path fill="none" stroke="midnightblue" d="M492.627,-430.337C519.318,-436.636 553.833,-444.783 579.056,-450.736"/>
<polygon fill="midnightblue" stroke="midnightblue" points="578.371,-454.17 588.908,-453.061 579.979,-447.357 578.371,-454.17"/>
</g>
</g>
</svg>
