<?xml version="1.0" encoding="UTF-8" standalone="no"?>
<!DOCTYPE svg PUBLIC "-//W3C//DTD SVG 1.1//EN"
 "http://www.w3.org/Graphics/SVG/1.1/DTD/svg11.dtd">
<!-- Generated by graphviz version 2.36.0 (20140111.2315)
 -->
<!-- Title: InitMultisection Pages: 1 -->
<svg width="294pt" height="142pt"
 viewBox="0.00 0.00 294.00 142.00" xmlns="http://www.w3.org/2000/svg" xmlns:xlink="http://www.w3.org/1999/xlink">
<g id="graph0" class="graph" transform="scale(1 1) rotate(0) translate(4 138)">
<title>InitMultisection</title>
<polygon fill="white" stroke="none" points="-4,4 -4,-138 290,-138 290,4 -4,4"/>
<!-- Node3 -->
<g id="node1" class="node"><title>Node3</title>
<polygon fill="#bfbfbf" stroke="black" points="0.5,-57.5 0.5,-76.5 83.5,-76.5 83.5,-57.5 0.5,-57.5"/>
<text text-anchor="middle" x="42" y="-64.5" font-family="Helvetica,sans-Serif" font-size="10.00">InitMultisection</text>
</g>
<!-- Node4 -->
<g id="node2" class="node"><title>Node4</title>
<g id="a_node2"><a xlink:href="$a00365.html#aafb75eb581d7dd13903d8e5040dce30a" xlink:title="AssembleMultisectedGraph">
<polygon fill="white" stroke="black" points="133.5,-114.5 133.5,-133.5 272.5,-133.5 272.5,-114.5 133.5,-114.5"/>
<text text-anchor="middle" x="203" y="-121.5" font-family="Helvetica,sans-Serif" font-size="10.00">AssembleMultisectedGraph</text>
</a>
</g>
</g>
<!-- Node3&#45;&gt;Node4 -->
<g id="edge1" class="edge"><title>Node3&#45;&gt;Node4</title>
<path fill="none" stroke="midnightblue" d="M59.6344,-76.6128C74.9074,-85.095 98.3805,-97.2778 120,-105 127.257,-107.592 135.004,-109.923 142.731,-111.989"/>
<polygon fill="midnightblue" stroke="midnightblue" points="141.915,-115.393 152.469,-114.466 143.64,-108.609 141.915,-115.393"/>
</g>
<!-- Node5 -->
<g id="node3" class="node"><title>Node5</title>
<g id="a_node3"><a xlink:href="$a00170.html#abea67bb0c6286795ac5fc9bee605dc5d" xlink:title="METIS_SetDefaultOptions">
<polygon fill="white" stroke="black" points="136,-76.5 136,-95.5 270,-95.5 270,-76.5 136,-76.5"/>
<text text-anchor="middle" x="203" y="-83.5" font-family="Helvetica,sans-Serif" font-size="10.00">METIS_SetDefaultOptions</text>
</a>
</g>
</g>
<!-- Node3&#45;&gt;Node5 -->
<g id="edge2" class="edge"><title>Node3&#45;&gt;Node5</title>
<path fill="none" stroke="midnightblue" d="M83.5338,-71.8437C96.4666,-73.3891 111.227,-75.1529 125.837,-76.8988"/>
<polygon fill="midnightblue" stroke="midnightblue" points="125.559,-80.3903 135.903,-78.1017 126.389,-73.4398 125.559,-80.3903"/>
</g>
<!-- Node6 -->
<g id="node4" class="node"><title>Node6</title>
<g id="a_node4"><a xlink:href="$a00942.html#ace6bcd6bf97b8579b1deed389874ddc6" xlink:title="METIS_ComputeVertexSeparator">
<polygon fill="white" stroke="black" points="120,-38.5 120,-57.5 286,-57.5 286,-38.5 120,-38.5"/>
<text text-anchor="middle" x="203" y="-45.5" font-family="Helvetica,sans-Serif" font-size="10.00">METIS_ComputeVertexSeparator</text>
</a>
</g>
</g>
<!-- Node3&#45;&gt;Node6 -->
<g id="edge3" class="edge"><title>Node3&#45;&gt;Node6</title>
<path fill="none" stroke="midnightblue" d="M83.5338,-62.1563C92.4355,-61.0926 102.203,-59.9254 112.192,-58.7318"/>
<polygon fill="midnightblue" stroke="midnightblue" points="112.716,-62.1942 122.23,-57.5323 111.885,-55.2436 112.716,-62.1942"/>
</g>
<!-- Node7 -->
<g id="node5" class="node"><title>Node7</title>
<g id="a_node5"><a xlink:href="$a00077.html#ac8df62c4e3d0910711a9874f9cc58884" xlink:title="gk_free">
<polygon fill="white" stroke="black" points="178,-0.5 178,-19.5 228,-19.5 228,-0.5 178,-0.5"/>
<text text-anchor="middle" x="203" y="-7.5" font-family="Helvetica,sans-Serif" font-size="10.00">gk_free</text>
</a>
</g>
</g>
<!-- Node3&#45;&gt;Node7 -->
<g id="edge4" class="edge"><title>Node3&#45;&gt;Node7</title>
<path fill="none" stroke="midnightblue" d="M59.6344,-57.3872C74.9074,-48.905 98.3805,-36.7222 120,-29 135.43,-23.4885 153.074,-19.1601 168.033,-16.0357"/>
<polygon fill="midnightblue" stroke="midnightblue" points="168.779,-19.456 177.9,-14.0653 167.408,-12.5915 168.779,-19.456"/>
</g>
</g>
</svg>
