<?xml version="1.0" encoding="UTF-8" standalone="no"?>
<!DOCTYPE svg PUBLIC "-//W3C//DTD SVG 1.1//EN"
 "http://www.w3.org/Graphics/SVG/1.1/DTD/svg11.dtd">
<!-- Generated by graphviz version 2.36.0 (20140111.2315)
 -->
<!-- Title: fclose Pages: 1 -->
<svg width="268pt" height="142pt"
 viewBox="0.00 0.00 268.00 142.00" xmlns="http://www.w3.org/2000/svg" xmlns:xlink="http://www.w3.org/1999/xlink">
<g id="graph0" class="graph" transform="scale(1 1) rotate(0) translate(4 138)">
<title>fclose</title>
<polygon fill="white" stroke="none" points="-4,4 -4,-138 264,-138 264,4 -4,4"/>
<!-- Node11 -->
<g id="node1" class="node"><title>Node11</title>
<polygon fill="#bfbfbf" stroke="black" points="0.5,-57.5 0.5,-76.5 43.5,-76.5 43.5,-57.5 0.5,-57.5"/>
<text text-anchor="middle" x="22" y="-64.5" font-family="Helvetica,sans-Serif" font-size="10.00">fclose</text>
</g>
<!-- Node12 -->
<g id="node2" class="node"><title>Node12</title>
<g id="a_node2"><a xlink:href="a00206.html#af31fd6654ededed596d98c090d8748b5" target="_top" xlink:title="ReadMesh2d">
<polygon fill="white" stroke="black" points="95,-114.5 95,-133.5 171,-133.5 171,-114.5 95,-114.5"/>
<text text-anchor="middle" x="133" y="-121.5" font-family="Helvetica,sans-Serif" font-size="10.00">ReadMesh2d</text>
</a>
</g>
</g>
<!-- Node11&#45;&gt;Node12 -->
<g id="edge1" class="edge"><title>Node11&#45;&gt;Node12</title>
<path fill="none" stroke="midnightblue" d="M43.7212,-82.5495C54.2275,-89.9763 67.4027,-98.6143 80,-105 86.9441,-108.52 94.6998,-111.715 102.058,-114.437"/>
<polygon fill="midnightblue" stroke="midnightblue" points="45.7487,-79.6965 35.5948,-76.672 41.6464,-85.3685 45.7487,-79.6965"/>
</g>
<!-- Node14 -->
<g id="node4" class="node"><title>Node14</title>
<g id="a_node4"><a xlink:href="a00206.html#a992690ab68b8564681b5a038ca111413" target="_top" xlink:title="ReadMesh2d_linear">
<polygon fill="white" stroke="black" points="80,-76.5 80,-95.5 186,-95.5 186,-76.5 80,-76.5"/>
<text text-anchor="middle" x="133" y="-83.5" font-family="Helvetica,sans-Serif" font-size="10.00">ReadMesh2d_linear</text>
</a>
</g>
</g>
<!-- Node11&#45;&gt;Node14 -->
<g id="edge3" class="edge"><title>Node11&#45;&gt;Node14</title>
<path fill="none" stroke="midnightblue" d="M53.3749,-72.2947C61.6188,-73.7317 70.7855,-75.3296 79.8644,-76.9121"/>
<polygon fill="midnightblue" stroke="midnightblue" points="53.9546,-68.8431 43.5021,-70.5738 52.7525,-75.7391 53.9546,-68.8431"/>
</g>
<!-- Node15 -->
<g id="node5" class="node"><title>Node15</title>
<g id="a_node5"><a xlink:href="a00215.html#ae31747f9df306a59e6f4df61fddfe15f" target="_top" xlink:title="ReadMesh3d">
<polygon fill="white" stroke="black" points="95,-38.5 95,-57.5 171,-57.5 171,-38.5 95,-38.5"/>
<text text-anchor="middle" x="133" y="-45.5" font-family="Helvetica,sans-Serif" font-size="10.00">ReadMesh3d</text>
</a>
</g>
</g>
<!-- Node11&#45;&gt;Node15 -->
<g id="edge4" class="edge"><title>Node11&#45;&gt;Node15</title>
<path fill="none" stroke="midnightblue" d="M53.65,-61.6573C66.44,-59.4279 81.4131,-56.8179 94.8242,-54.4802"/>
<polygon fill="midnightblue" stroke="midnightblue" points="52.7525,-58.2609 43.5021,-63.4262 53.9546,-65.1569 52.7525,-58.2609"/>
</g>
<!-- Node16 -->
<g id="node6" class="node"><title>Node16</title>
<g id="a_node6"><a xlink:href="a00227.html#ac376677d3caaa98a9daf61674a973d1b" target="_top" xlink:title="SaveMatrix">
<polygon fill="white" stroke="black" points="99.5,-0.5 99.5,-19.5 166.5,-19.5 166.5,-0.5 99.5,-0.5"/>
<text text-anchor="middle" x="133" y="-7.5" font-family="Helvetica,sans-Serif" font-size="10.00">SaveMatrix</text>
</a>
</g>
</g>
<!-- Node11&#45;&gt;Node16 -->
<g id="edge5" class="edge"><title>Node11&#45;&gt;Node16</title>
<path fill="none" stroke="midnightblue" d="M43.7212,-51.4505C54.2275,-44.0237 67.4027,-35.3857 80,-29 86.9441,-25.48 94.6998,-22.2853 102.058,-19.5625"/>
<polygon fill="midnightblue" stroke="midnightblue" points="41.6464,-48.6315 35.5948,-57.328 45.7487,-54.3035 41.6464,-48.6315"/>
</g>
<!-- Node13 -->
<g id="node3" class="node"><title>Node13</title>
<g id="a_node3"><a xlink:href="a00179.html#a3c04138a5bfe5d72780bb7e82a18e627" target="_top" xlink:title="main">
<polygon fill="white" stroke="black" points="222,-114.5 222,-133.5 260,-133.5 260,-114.5 222,-114.5"/>
<text text-anchor="middle" x="241" y="-121.5" font-family="Helvetica,sans-Serif" font-size="10.00">main</text>
</a>
</g>
</g>
<!-- Node12&#45;&gt;Node13 -->
<g id="edge2" class="edge"><title>Node12&#45;&gt;Node13</title>
<path fill="none" stroke="midnightblue" d="M181.369,-124C195.728,-124 210.644,-124 221.838,-124"/>
<polygon fill="midnightblue" stroke="midnightblue" points="181.074,-120.5 171.074,-124 181.074,-127.5 181.074,-120.5"/>
</g>
</g>
</svg>
