<?xml version="1.0" encoding="UTF-8" standalone="no"?>
<!DOCTYPE svg PUBLIC "-//W3C//DTD SVG 1.1//EN"
 "http://www.w3.org/Graphics/SVG/1.1/DTD/svg11.dtd">
<!-- Generated by graphviz version 2.36.0 (20140111.2315)
 -->
<!-- Title: KWayNodeRefine_Greedy Pages: 1 -->
<svg width="292pt" height="66pt"
 viewBox="0.00 0.00 292.00 66.00" xmlns="http://www.w3.org/2000/svg" xmlns:xlink="http://www.w3.org/1999/xlink">
<g id="graph0" class="graph" transform="scale(1 1) rotate(0) translate(4 62)">
<title>KWayNodeRefine_Greedy</title>
<polygon fill="white" stroke="none" points="-4,4 -4,-62 288,-62 288,4 -4,4"/>
<!-- Node19 -->
<g id="node1" class="node"><title>Node19</title>
<polygon fill="#bfbfbf" stroke="black" points="0,-19.5 0,-38.5 134,-38.5 134,-19.5 0,-19.5"/>
<text text-anchor="middle" x="67" y="-26.5" font-family="Helvetica,sans-Serif" font-size="10.00">KWayNodeRefine_Greedy</text>
</g>
<!-- Node20 -->
<g id="node2" class="node"><title>Node20</title>
<g id="a_node2"><a xlink:href="$a00383.html#a209dbc8b8ae14de6f02ff22f00a60d3c" xlink:title="PrintNodeBalanceInfo">
<polygon fill="white" stroke="black" points="170,-38.5 170,-57.5 284,-57.5 284,-38.5 170,-38.5"/>
<text text-anchor="middle" x="227" y="-45.5" font-family="Helvetica,sans-Serif" font-size="10.00">PrintNodeBalanceInfo</text>
</a>
</g>
</g>
<!-- Node19&#45;&gt;Node20 -->
<g id="edge1" class="edge"><title>Node19&#45;&gt;Node20</title>
<path fill="none" stroke="midnightblue" d="M134.091,-36.9476C142.507,-37.9597 151.125,-38.996 159.547,-40.0088"/>
<polygon fill="midnightblue" stroke="midnightblue" points="159.351,-43.5104 169.697,-41.2294 160.187,-36.5604 159.351,-43.5104"/>
</g>
<!-- Node21 -->
<g id="node3" class="node"><title>Node21</title>
<g id="a_node3"><a xlink:href="$a00575.html#ae6aab5c308faac0fc539cc9c6da9fbd0" xlink:title="sprintf">
<polygon fill="white" stroke="black" points="205,-0.5 205,-19.5 249,-19.5 249,-0.5 205,-0.5"/>
<text text-anchor="middle" x="227" y="-7.5" font-family="Helvetica,sans-Serif" font-size="10.00">sprintf</text>
</a>
</g>
</g>
<!-- Node19&#45;&gt;Node21 -->
<g id="edge2" class="edge"><title>Node19&#45;&gt;Node21</title>
<path fill="none" stroke="midnightblue" d="M134.091,-21.0524C155.099,-18.526 177.36,-15.8491 194.711,-13.7626"/>
<polygon fill="midnightblue" stroke="midnightblue" points="195.314,-17.2154 204.825,-12.5464 194.478,-10.2655 195.314,-17.2154"/>
</g>
</g>
</svg>
