<?xml version="1.0" encoding="UTF-8" standalone="no"?>
<!DOCTYPE svg PUBLIC "-//W3C//DTD SVG 1.1//EN"
 "http://www.w3.org/Graphics/SVG/1.1/DTD/svg11.dtd">
<!-- Generated by graphviz version 2.36.0 (20140111.2315)
 -->
<!-- Title: ParMETIS_V3_PartMeshKway Pages: 1 -->
<svg width="284pt" height="66pt"
 viewBox="0.00 0.00 284.00 66.00" xmlns="http://www.w3.org/2000/svg" xmlns:xlink="http://www.w3.org/1999/xlink">
<g id="graph0" class="graph" transform="scale(1 1) rotate(0) translate(4 62)">
<title>ParMETIS_V3_PartMeshKway</title>
<polygon fill="white" stroke="none" points="-4,4 -4,-62 280,-62 280,4 -4,4"/>
<!-- Node7 -->
<g id="node1" class="node"><title>Node7</title>
<polygon fill="#bfbfbf" stroke="black" points="0.5,-19.5 0.5,-38.5 153.5,-38.5 153.5,-19.5 0.5,-19.5"/>
<text text-anchor="middle" x="77" y="-26.5" font-family="Helvetica,sans-Serif" font-size="10.00">ParMETIS_V3_PartMeshKway</text>
</g>
<!-- Node8 -->
<g id="node2" class="node"><title>Node8</title>
<g id="a_node2"><a xlink:href="$a00425.html#a0ddf1224851353fc92bfbff6f499fa97" xlink:title="main">
<polygon fill="white" stroke="black" points="214,-38.5 214,-57.5 252,-57.5 252,-38.5 214,-38.5"/>
<text text-anchor="middle" x="233" y="-45.5" font-family="Helvetica,sans-Serif" font-size="10.00">main</text>
</a>
</g>
</g>
<!-- Node7&#45;&gt;Node8 -->
<g id="edge1" class="edge"><title>Node7&#45;&gt;Node8</title>
<path fill="none" stroke="midnightblue" d="M163.658,-39.5682C182.726,-41.9207 201.076,-44.1848 213.952,-45.7734"/>
<polygon fill="midnightblue" stroke="midnightblue" points="164,-36.0839 153.647,-38.333 163.143,-43.0312 164,-36.0839"/>
</g>
<!-- Node9 -->
<g id="node3" class="node"><title>Node9</title>
<g id="a_node3"><a xlink:href="$a00587.html#a004c52e87250e61b258755469b25bbe9" xlink:title="LoadBalance3d">
<polygon fill="white" stroke="black" points="190,-0.5 190,-19.5 276,-19.5 276,-0.5 190,-0.5"/>
<text text-anchor="middle" x="233" y="-7.5" font-family="Helvetica,sans-Serif" font-size="10.00">LoadBalance3d</text>
</a>
</g>
</g>
<!-- Node7&#45;&gt;Node9 -->
<g id="edge2" class="edge"><title>Node7&#45;&gt;Node9</title>
<path fill="none" stroke="midnightblue" d="M163.573,-18.4423C172.685,-17.3181 181.634,-16.2139 189.903,-15.1938"/>
<polygon fill="midnightblue" stroke="midnightblue" points="163.143,-14.9688 153.647,-19.667 164,-21.9161 163.143,-14.9688"/>
</g>
</g>
</svg>
