<?xml version="1.0" encoding="UTF-8" standalone="no"?>
<!DOCTYPE svg PUBLIC "-//W3C//DTD SVG 1.1//EN"
 "http://www.w3.org/Graphics/SVG/1.1/DTD/svg11.dtd">
<!-- Generated by graphviz version 2.36.0 (20140111.2315)
 -->
<!-- Title: Adaptive_Partition Pages: 1 -->
<svg width="192pt" height="46pt"
 viewBox="0.00 0.00 192.00 46.00" xmlns="http://www.w3.org/2000/svg" xmlns:xlink="http://www.w3.org/1999/xlink">
<g id="graph0" class="graph" transform="scale(1 1) rotate(0) translate(4 42)">
<title>Adaptive_Partition</title>
<polygon fill="white" stroke="none" points="-4,4 -4,-42 188,-42 188,4 -4,4"/>
<!-- Node0 -->
<g id="node1" class="node"><title>Node0</title>
<polygon fill="#bfbfbf" stroke="black" points="0,-0.5 0,-19.5 98,-19.5 98,-0.5 0,-0.5"/>
<text text-anchor="middle" x="49" y="-7.5" font-family="Helvetica,sans-Serif" font-size="10.00">Adaptive_Partition</text>
</g>
<!-- Node0&#45;&gt;Node0 -->
<g id="edge2" class="edge"><title>Node0&#45;&gt;Node0</title>
<path fill="none" stroke="midnightblue" d="M32.0458,-19.7571C23.7978,-28.5653 29.4492,-38 49,-38 61.2192,-38 68.009,-34.3146 69.3694,-29.4"/>
<polygon fill="midnightblue" stroke="midnightblue" points="72.5919,-28.0149 65.9542,-19.7571 65.9935,-30.3518 72.5919,-28.0149"/>
</g>
<!-- Node1 -->
<g id="node2" class="node"><title>Node1</title>
<g id="a_node2"><a xlink:href="$a00077.html#ac8df62c4e3d0910711a9874f9cc58884" xlink:title="gk_free">
<polygon fill="white" stroke="black" points="134,-0.5 134,-19.5 184,-19.5 184,-0.5 134,-0.5"/>
<text text-anchor="middle" x="159" y="-7.5" font-family="Helvetica,sans-Serif" font-size="10.00">gk_free</text>
</a>
</g>
</g>
<!-- Node0&#45;&gt;Node1 -->
<g id="edge1" class="edge"><title>Node0&#45;&gt;Node1</title>
<path fill="none" stroke="midnightblue" d="M98.3141,-10C106.905,-10 115.691,-10 123.787,-10"/>
<polygon fill="midnightblue" stroke="midnightblue" points="123.96,-13.5001 133.96,-10 123.96,-6.5001 123.96,-13.5001"/>
</g>
</g>
</svg>
