<?xml version="1.0" encoding="UTF-8" standalone="no"?>
<!DOCTYPE svg PUBLIC "-//W3C//DTD SVG 1.1//EN"
 "http://www.w3.org/Graphics/SVG/1.1/DTD/svg11.dtd">
<!-- Generated by graphviz version 2.36.0 (20140111.2315)
 -->
<!-- Title: ParMETIS_V3_PartGeomKway Pages: 1 -->
<svg width="1094pt" height="474pt"
 viewBox="0.00 0.00 1094.00 474.00" xmlns="http://www.w3.org/2000/svg" xmlns:xlink="http://www.w3.org/1999/xlink">
<g id="graph0" class="graph" transform="scale(1 1) rotate(0) translate(4 470)">
<title>ParMETIS_V3_PartGeomKway</title>
<polygon fill="white" stroke="none" points="-4,4 -4,-470 1090,-470 1090,4 -4,4"/>
<!-- Node9 -->
<g id="node1" class="node"><title>Node9</title>
<polygon fill="#bfbfbf" stroke="black" points="0,-152.5 0,-171.5 156,-171.5 156,-152.5 0,-152.5"/>
<text text-anchor="middle" x="78" y="-159.5" font-family="Helvetica,sans-Serif" font-size="10.00">ParMETIS_V3_PartGeomKway</text>
</g>
<!-- Node10 -->
<g id="node2" class="node"><title>Node10</title>
<g id="a_node2"><a xlink:href="$a00077.html#a24633cc1c72a7e92836912c2adcf570a" xlink:title="gk_malloc_init">
<polygon fill="white" stroke="black" points="859,-342.5 859,-361.5 939,-361.5 939,-342.5 859,-342.5"/>
<text text-anchor="middle" x="899" y="-349.5" font-family="Helvetica,sans-Serif" font-size="10.00">gk_malloc_init</text>
</a>
</g>
</g>
<!-- Node9&#45;&gt;Node10 -->
<g id="edge1" class="edge"><title>Node9&#45;&gt;Node10</title>
<path fill="none" stroke="midnightblue" d="M86.7034,-171.503C103.933,-192.337 147.569,-242.815 192,-276 256.683,-324.31 275.416,-336.453 352,-362 540.129,-424.756 601.776,-404.758 798,-376 816.902,-373.23 837.473,-368.583 855.015,-364.111"/>
<polygon fill="midnightblue" stroke="midnightblue" points="856.168,-367.428 864.959,-361.515 854.399,-360.655 856.168,-367.428"/>
</g>
<!-- Node11 -->
<g id="node3" class="node"><title>Node11</title>
<g id="a_node3"><a xlink:href="$a00077.html#ad2327b94227019b6753b6b09400c0522" xlink:title="gk_GetCurMemoryUsed">
<polygon fill="white" stroke="black" points="192,-0.5 192,-19.5 316,-19.5 316,-0.5 192,-0.5"/>
<text text-anchor="middle" x="254" y="-7.5" font-family="Helvetica,sans-Serif" font-size="10.00">gk_GetCurMemoryUsed</text>
</a>
</g>
</g>
<!-- Node9&#45;&gt;Node11 -->
<g id="edge2" class="edge"><title>Node9&#45;&gt;Node11</title>
<path fill="none" stroke="midnightblue" d="M85.1879,-152.253C100.54,-128.784 142.719,-68.5314 192,-34 197.761,-29.9632 204.296,-26.4766 210.896,-23.5099"/>
<polygon fill="midnightblue" stroke="midnightblue" points="212.622,-26.5838 220.529,-19.5317 209.95,-20.1138 212.622,-26.5838"/>
</g>
<!-- Node12 -->
<g id="node4" class="node"><title>Node12</title>
<g id="a_node4"><a xlink:href="$a00170.html#abea67bb0c6286795ac5fc9bee605dc5d" xlink:title="METIS_SetDefaultOptions">
<polygon fill="white" stroke="black" points="659,-152.5 659,-171.5 793,-171.5 793,-152.5 659,-152.5"/>
<text text-anchor="middle" x="726" y="-159.5" font-family="Helvetica,sans-Serif" font-size="10.00">METIS_SetDefaultOptions</text>
</a>
</g>
</g>
<!-- Node9&#45;&gt;Node12 -->
<g id="edge3" class="edge"><title>Node9&#45;&gt;Node12</title>
<path fill="none" stroke="midnightblue" d="M156.365,-153.312C261.186,-142.901 454.072,-128.559 618,-143 635.432,-144.536 654.277,-147.453 671.225,-150.548"/>
<polygon fill="midnightblue" stroke="midnightblue" points="671.026,-154.073 681.502,-152.488 672.324,-147.194 671.026,-154.073"/>
</g>
<!-- Node13 -->
<g id="node5" class="node"><title>Node13</title>
<g id="a_node5"><a xlink:href="$a00912.html#af89851458c047aba436b36ed567441e4" xlink:title="METIS_PartGraphKway">
<polygon fill="white" stroke="black" points="192.5,-247.5 192.5,-266.5 315.5,-266.5 315.5,-247.5 192.5,-247.5"/>
<text text-anchor="middle" x="254" y="-254.5" font-family="Helvetica,sans-Serif" font-size="10.00">METIS_PartGraphKway</text>
</a>
</g>
</g>
<!-- Node9&#45;&gt;Node13 -->
<g id="edge4" class="edge"><title>Node9&#45;&gt;Node13</title>
<path fill="none" stroke="midnightblue" d="M96.6416,-171.632C127.335,-188.39 190.711,-222.992 226.639,-242.608"/>
<polygon fill="midnightblue" stroke="midnightblue" points="225.116,-245.764 235.57,-247.484 228.471,-239.62 225.116,-245.764"/>
</g>
<!-- Node25 -->
<g id="node17" class="node"><title>Node25</title>
<g id="a_node17"><a xlink:href="$a00077.html#a47156a22528b5bc8c7c6e9849af34e62" xlink:title="gk_malloc_cleanup">
<polygon fill="white" stroke="black" points="848,-418.5 848,-437.5 950,-437.5 950,-418.5 848,-418.5"/>
<text text-anchor="middle" x="899" y="-425.5" font-family="Helvetica,sans-Serif" font-size="10.00">gk_malloc_cleanup</text>
</a>
</g>
</g>
<!-- Node9&#45;&gt;Node25 -->
<g id="edge28" class="edge"><title>Node9&#45;&gt;Node25</title>
<path fill="none" stroke="midnightblue" d="M83.5102,-171.77C108.271,-223.805 233.13,-466 412,-466 412,-466 412,-466 565,-466 668.799,-466 695.254,-464.747 798,-450 815.34,-447.511 834.149,-443.678 850.726,-439.905"/>
<polygon fill="midnightblue" stroke="midnightblue" points="851.78,-443.253 860.726,-437.576 850.192,-436.436 851.78,-443.253"/>
</g>
<!-- Node26 -->
<g id="node18" class="node"><title>Node26</title>
<g id="a_node18"><a xlink:href="$a00077.html#ac8df62c4e3d0910711a9874f9cc58884" xlink:title="gk_free">
<polygon fill="white" stroke="black" points="701,-57.5 701,-76.5 751,-76.5 751,-57.5 701,-57.5"/>
<text text-anchor="middle" x="726" y="-64.5" font-family="Helvetica,sans-Serif" font-size="10.00">gk_free</text>
</a>
</g>
</g>
<!-- Node9&#45;&gt;Node26 -->
<g id="edge27" class="edge"><title>Node9&#45;&gt;Node26</title>
<path fill="none" stroke="midnightblue" d="M118.054,-152.479C139.743,-147.414 167.264,-141.352 192,-137 379.313,-104.044 606.156,-79.1994 690.901,-70.4354"/>
<polygon fill="midnightblue" stroke="midnightblue" points="691.391,-73.9036 700.98,-69.3998 690.675,-66.9403 691.391,-73.9036"/>
</g>
<!-- Node13&#45;&gt;Node10 -->
<g id="edge5" class="edge"><title>Node13&#45;&gt;Node10</title>
<path fill="none" stroke="midnightblue" d="M263.16,-266.503C278.51,-283.585 313.611,-319 352,-333 525.417,-396.242 750.709,-374.31 848.785,-360.156"/>
<polygon fill="midnightblue" stroke="midnightblue" points="849.332,-363.613 858.712,-358.686 848.307,-356.689 849.332,-363.613"/>
</g>
<!-- Node14 -->
<g id="node6" class="node"><title>Node14</title>
<g id="a_node6"><a xlink:href="$a00026.html#a05869524d1c30cfaab2a8690e7da6fd4" xlink:title="gk_sigtrap">
<polygon fill="white" stroke="black" points="867.5,-275.5 867.5,-294.5 930.5,-294.5 930.5,-275.5 867.5,-275.5"/>
<text text-anchor="middle" x="899" y="-282.5" font-family="Helvetica,sans-Serif" font-size="10.00">gk_sigtrap</text>
</a>
</g>
</g>
<!-- Node13&#45;&gt;Node14 -->
<g id="edge6" class="edge"><title>Node13&#45;&gt;Node14</title>
<path fill="none" stroke="midnightblue" d="M315.781,-259.647C445.734,-265.306 747.677,-278.454 857.302,-283.228"/>
<polygon fill="midnightblue" stroke="midnightblue" points="857.156,-286.725 867.299,-283.663 857.46,-279.731 857.156,-286.725"/>
</g>
<!-- Node15 -->
<g id="node7" class="node"><title>Node15</title>
<g id="a_node7"><a xlink:href="$a00026.html#a08f287b6dbdc0779c916ecbd49540a1e" xlink:title="gk_siguntrap">
<polygon fill="white" stroke="black" points="862,-124.5 862,-143.5 936,-143.5 936,-124.5 862,-124.5"/>
<text text-anchor="middle" x="899" y="-131.5" font-family="Helvetica,sans-Serif" font-size="10.00">gk_siguntrap</text>
</a>
</g>
</g>
<!-- Node13&#45;&gt;Node15 -->
<g id="edge7" class="edge"><title>Node13&#45;&gt;Node15</title>
<path fill="none" stroke="midnightblue" d="M264.231,-247.467C280.45,-231.287 315.789,-198.506 352,-181 521.011,-99.293 753.843,-115.616 851.716,-127.395"/>
<polygon fill="midnightblue" stroke="midnightblue" points="851.512,-130.896 861.868,-128.659 852.377,-123.95 851.512,-130.896"/>
</g>
<!-- Node16 -->
<g id="node8" class="node"><title>Node16</title>
<g id="a_node8"><a xlink:href="$a00077.html#a3d153a0a39d7ba54f0943fa586f0c561" xlink:title="gk_log2">
<polygon fill="white" stroke="black" points="387,-304.5 387,-323.5 439,-323.5 439,-304.5 387,-304.5"/>
<text text-anchor="middle" x="413" y="-311.5" font-family="Helvetica,sans-Serif" font-size="10.00">gk_log2</text>
</a>
</g>
</g>
<!-- Node13&#45;&gt;Node16 -->
<g id="edge8" class="edge"><title>Node13&#45;&gt;Node16</title>
<path fill="none" stroke="midnightblue" d="M281.278,-266.541C307.593,-276.094 348.237,-290.851 377.215,-301.371"/>
<polygon fill="midnightblue" stroke="midnightblue" points="376.341,-304.777 386.935,-304.9 378.73,-298.197 376.341,-304.777"/>
</g>
<!-- Node17 -->
<g id="node9" class="node"><title>Node17</title>
<g id="a_node9"><a xlink:href="$a00026.html#a4c320c13bcdc9967613253ef4c73f59f" xlink:title="gk_errexit">
<polygon fill="white" stroke="black" points="696,-190.5 696,-209.5 756,-209.5 756,-190.5 696,-190.5"/>
<text text-anchor="middle" x="726" y="-197.5" font-family="Helvetica,sans-Serif" font-size="10.00">gk_errexit</text>
</a>
</g>
</g>
<!-- Node13&#45;&gt;Node17 -->
<g id="edge9" class="edge"><title>Node13&#45;&gt;Node17</title>
<path fill="none" stroke="midnightblue" d="M315.723,-250.036C387.833,-241.713 511.731,-227.246 618,-214 640.48,-211.198 665.597,-207.919 685.843,-205.24"/>
<polygon fill="midnightblue" stroke="midnightblue" points="686.495,-208.684 695.947,-203.899 685.574,-201.745 686.495,-208.684"/>
</g>
<!-- Node19 -->
<g id="node11" class="node"><title>Node19</title>
<g id="a_node11"><a xlink:href="$a00912.html#a7973c78504ad6711d3516082b1112805" xlink:title="MlevelKWayPartitioning">
<polygon fill="white" stroke="black" points="352,-190.5 352,-209.5 474,-209.5 474,-190.5 352,-190.5"/>
<text text-anchor="middle" x="413" y="-197.5" font-family="Helvetica,sans-Serif" font-size="10.00">MlevelKWayPartitioning</text>
</a>
</g>
</g>
<!-- Node13&#45;&gt;Node19 -->
<g id="edge11" class="edge"><title>Node13&#45;&gt;Node19</title>
<path fill="none" stroke="midnightblue" d="M281.278,-247.459C307.203,-238.047 347.035,-223.586 375.917,-213.1"/>
<polygon fill="midnightblue" stroke="midnightblue" points="377.431,-216.274 385.636,-209.572 375.042,-209.694 377.431,-216.274"/>
</g>
<!-- Node13&#45;&gt;Node25 -->
<g id="edge26" class="edge"><title>Node13&#45;&gt;Node25</title>
<path fill="none" stroke="midnightblue" d="M260.55,-266.631C273.461,-288.028 307.807,-339.405 352,-362 512.229,-443.924 732.476,-440.993 837.519,-433.746"/>
<polygon fill="midnightblue" stroke="midnightblue" points="837.903,-437.228 847.623,-433.011 837.395,-430.246 837.903,-437.228"/>
</g>
<!-- Node18 -->
<g id="node10" class="node"><title>Node18</title>
<g id="a_node10"><a xlink:href="$a01017.html#a2e311a777ffe9c80e405efa7cd2757be" xlink:title="fprintf">
<polygon fill="white" stroke="black" points="878,-181.5 878,-200.5 920,-200.5 920,-181.5 878,-181.5"/>
<text text-anchor="middle" x="899" y="-188.5" font-family="Helvetica,sans-Serif" font-size="10.00">fprintf</text>
</a>
</g>
</g>
<!-- Node17&#45;&gt;Node18 -->
<g id="edge10" class="edge"><title>Node17&#45;&gt;Node18</title>
<path fill="none" stroke="midnightblue" d="M756.008,-198.473C787.034,-196.84 836.025,-194.262 867.583,-192.601"/>
<polygon fill="midnightblue" stroke="midnightblue" points="868.158,-196.076 877.96,-192.055 867.79,-189.085 868.158,-196.076"/>
</g>
<!-- Node19&#45;&gt;Node17 -->
<g id="edge25" class="edge"><title>Node19&#45;&gt;Node17</title>
<path fill="none" stroke="midnightblue" d="M474.333,-200C536.764,-200 632.451,-200 685.73,-200"/>
<polygon fill="midnightblue" stroke="midnightblue" points="685.798,-203.5 695.798,-200 685.798,-196.5 685.798,-203.5"/>
</g>
<!-- Node20 -->
<g id="node12" class="node"><title>Node20</title>
<g id="a_node12"><a xlink:href="$a00912.html#a870e37cc14eb1033c62d83d3a7c33a91" xlink:title="InitKWayPartitioning">
<polygon fill="white" stroke="black" points="510.5,-152.5 510.5,-171.5 617.5,-171.5 617.5,-152.5 510.5,-152.5"/>
<text text-anchor="middle" x="564" y="-159.5" font-family="Helvetica,sans-Serif" font-size="10.00">InitKWayPartitioning</text>
</a>
</g>
</g>
<!-- Node19&#45;&gt;Node20 -->
<g id="edge12" class="edge"><title>Node19&#45;&gt;Node20</title>
<path fill="none" stroke="midnightblue" d="M451.599,-190.411C471.084,-185.442 495.075,-179.323 515.796,-174.039"/>
<polygon fill="midnightblue" stroke="midnightblue" points="516.846,-177.383 525.671,-171.52 515.117,-170.6 516.846,-177.383"/>
</g>
<!-- Node20&#45;&gt;Node12 -->
<g id="edge13" class="edge"><title>Node20&#45;&gt;Node12</title>
<path fill="none" stroke="midnightblue" d="M617.833,-162C627.664,-162 638.116,-162 648.489,-162"/>
<polygon fill="midnightblue" stroke="midnightblue" points="648.81,-165.5 658.81,-162 648.81,-158.5 648.81,-165.5"/>
</g>
<!-- Node20&#45;&gt;Node17 -->
<g id="edge23" class="edge"><title>Node20&#45;&gt;Node17</title>
<path fill="none" stroke="midnightblue" d="M605.375,-171.589C630,-177.437 661.326,-184.877 685.744,-190.677"/>
<polygon fill="midnightblue" stroke="midnightblue" points="685.208,-194.147 695.747,-193.052 686.826,-187.336 685.208,-194.147"/>
</g>
<!-- Node21 -->
<g id="node13" class="node"><title>Node21</title>
<g id="a_node13"><a xlink:href="$a00260.html#a25fc90fd934931239b3c98ac4bdbce76" xlink:title="Recursive partitioning routine. ">
<polygon fill="white" stroke="black" points="654.5,-228.5 654.5,-247.5 797.5,-247.5 797.5,-228.5 654.5,-228.5"/>
<text text-anchor="middle" x="726" y="-235.5" font-family="Helvetica,sans-Serif" font-size="10.00">METIS_PartGraphRecursive</text>
</a>
</g>
</g>
<!-- Node20&#45;&gt;Node21 -->
<g id="edge14" class="edge"><title>Node20&#45;&gt;Node21</title>
<path fill="none" stroke="midnightblue" d="M577.269,-171.615C593.82,-184.161 624.623,-206.037 654,-219 659.385,-221.376 665.134,-223.513 670.941,-225.419"/>
<polygon fill="midnightblue" stroke="midnightblue" points="670.13,-228.831 680.716,-228.411 672.179,-222.137 670.13,-228.831"/>
</g>
<!-- Node20&#45;&gt;Node26 -->
<g id="edge24" class="edge"><title>Node20&#45;&gt;Node26</title>
<path fill="none" stroke="midnightblue" d="M581.222,-152.368C609.253,-135.725 666.928,-101.48 700.08,-81.7963"/>
<polygon fill="midnightblue" stroke="midnightblue" points="701.923,-84.7723 708.735,-76.6574 698.349,-78.7533 701.923,-84.7723"/>
</g>
<!-- Node21&#45;&gt;Node10 -->
<g id="edge15" class="edge"><title>Node21&#45;&gt;Node10</title>
<path fill="none" stroke="midnightblue" d="M741.285,-247.523C770.885,-267.256 839.138,-312.758 875.013,-336.675"/>
<polygon fill="midnightblue" stroke="midnightblue" points="873.131,-339.627 883.393,-342.262 877.014,-333.803 873.131,-339.627"/>
</g>
<!-- Node21&#45;&gt;Node14 -->
<g id="edge16" class="edge"><title>Node21&#45;&gt;Node14</title>
<path fill="none" stroke="midnightblue" d="M761.604,-247.511C789.365,-255.141 828.381,-265.865 857.577,-273.89"/>
<polygon fill="midnightblue" stroke="midnightblue" points="856.889,-277.33 867.459,-276.606 858.745,-270.581 856.889,-277.33"/>
</g>
<!-- Node21&#45;&gt;Node15 -->
<g id="edge17" class="edge"><title>Node21&#45;&gt;Node15</title>
<path fill="none" stroke="midnightblue" d="M778.787,-228.468C785.561,-226.002 792.166,-222.901 798,-219 819.874,-204.376 814.331,-189.478 834,-172 844.366,-162.789 857.287,-154.623 868.8,-148.244"/>
<polygon fill="midnightblue" stroke="midnightblue" points="870.476,-151.317 877.656,-143.526 867.184,-145.139 870.476,-151.317"/>
</g>
<!-- Node22 -->
<g id="node14" class="node"><title>Node22</title>
<g id="a_node14"><a xlink:href="$a00260.html#a5510f276b321a8450b2e9cc913c2f00f" xlink:title="MlevelRecursiveBisection">
<polygon fill="white" stroke="black" points="834,-219.5 834,-238.5 964,-238.5 964,-219.5 834,-219.5"/>
<text text-anchor="middle" x="899" y="-226.5" font-family="Helvetica,sans-Serif" font-size="10.00">MlevelRecursiveBisection</text>
</a>
</g>
</g>
<!-- Node21&#45;&gt;Node22 -->
<g id="edge18" class="edge"><title>Node21&#45;&gt;Node22</title>
<path fill="none" stroke="midnightblue" d="M797.54,-234.287C806.202,-233.831 815.076,-233.364 823.79,-232.906"/>
<polygon fill="midnightblue" stroke="midnightblue" points="824.123,-236.393 833.925,-232.372 823.755,-229.403 824.123,-236.393"/>
</g>
<!-- Node21&#45;&gt;Node25 -->
<g id="edge22" class="edge"><title>Node21&#45;&gt;Node25</title>
<path fill="none" stroke="midnightblue" d="M734.01,-247.802C750.398,-270.463 792.949,-327.838 834,-371 847.963,-385.681 865.18,-400.872 878.238,-411.875"/>
<polygon fill="midnightblue" stroke="midnightblue" points="876.218,-414.747 886.143,-418.455 880.696,-409.367 876.218,-414.747"/>
</g>
<!-- Node22&#45;&gt;Node22 -->
<g id="edge21" class="edge"><title>Node22&#45;&gt;Node22</title>
<path fill="none" stroke="midnightblue" d="M876.805,-238.757C866.008,-247.565 873.406,-257 899,-257 915.796,-257 924.756,-252.937 925.879,-247.654"/>
<polygon fill="midnightblue" stroke="midnightblue" points="928.951,-245.975 921.195,-238.757 922.757,-249.236 928.951,-245.975"/>
</g>
<!-- Node23 -->
<g id="node15" class="node"><title>Node23</title>
<g id="a_node15"><a xlink:href="$a00260.html#a33c48a23cc94ea0221fa5c7317cd0222" xlink:title="MultilevelBisect">
<polygon fill="white" stroke="black" points="1000.5,-238.5 1000.5,-257.5 1085.5,-257.5 1085.5,-238.5 1000.5,-238.5"/>
<text text-anchor="middle" x="1043" y="-245.5" font-family="Helvetica,sans-Serif" font-size="10.00">MultilevelBisect</text>
</a>
</g>
</g>
<!-- Node22&#45;&gt;Node23 -->
<g id="edge19" class="edge"><title>Node22&#45;&gt;Node23</title>
<path fill="none" stroke="midnightblue" d="M964.352,-237.611C973.013,-238.769 981.806,-239.946 990.211,-241.07"/>
<polygon fill="midnightblue" stroke="midnightblue" points="989.859,-244.555 1000.24,-242.412 990.788,-237.616 989.859,-244.555"/>
</g>
<!-- Node24 -->
<g id="node16" class="node"><title>Node24</title>
<g id="a_node16"><a xlink:href="$a00260.html#a49d272affb67ce57b2d20dccd7f15f53" xlink:title="SplitGraphPart">
<polygon fill="white" stroke="black" points="1002,-200.5 1002,-219.5 1084,-219.5 1084,-200.5 1002,-200.5"/>
<text text-anchor="middle" x="1043" y="-207.5" font-family="Helvetica,sans-Serif" font-size="10.00">SplitGraphPart</text>
</a>
</g>
</g>
<!-- Node22&#45;&gt;Node24 -->
<g id="edge20" class="edge"><title>Node22&#45;&gt;Node24</title>
<path fill="none" stroke="midnightblue" d="M964.352,-220.389C973.53,-219.162 982.856,-217.914 991.712,-216.729"/>
<polygon fill="midnightblue" stroke="midnightblue" points="992.407,-220.167 1001.85,-215.372 991.478,-213.229 992.407,-220.167"/>
</g>
</g>
</svg>
