<?xml version="1.0" encoding="UTF-8" standalone="no"?>
<!DOCTYPE svg PUBLIC "-//W3C//DTD SVG 1.1//EN"
 "http://www.w3.org/Graphics/SVG/1.1/DTD/svg11.dtd">
<!-- Generated by graphviz version 2.36.0 (20140111.2315)
 -->
<!-- Title: main Pages: 1 -->
<svg width="604pt" height="439pt"
 viewBox="0.00 0.00 604.00 439.32" xmlns="http://www.w3.org/2000/svg" xmlns:xlink="http://www.w3.org/1999/xlink">
<g id="graph0" class="graph" transform="scale(1 1) rotate(0) translate(4 435.317)">
<title>main</title>
<polygon fill="white" stroke="none" points="-4,4 -4,-435.317 600,-435.317 600,4 -4,4"/>
<!-- Node0 -->
<g id="node1" class="node"><title>Node0</title>
<polygon fill="#bfbfbf" stroke="black" points="0,-206.817 0,-225.817 38,-225.817 38,-206.817 0,-206.817"/>
<text text-anchor="middle" x="19" y="-213.817" font-family="Helvetica,sans-Serif" font-size="10.00">main</text>
</g>
<!-- Node1 -->
<g id="node2" class="node"><title>Node1</title>
<g id="a_node2"><a xlink:href="a00077.html#af62038e97ca55f14ec2557a01bd85ca2" target="_top" xlink:title="Duplicates a string. ">
<polygon fill="white" stroke="black" points="86,-344.817 86,-363.817 146,-363.817 146,-344.817 86,-344.817"/>
<text text-anchor="middle" x="116" y="-351.817" font-family="Helvetica,sans-Serif" font-size="10.00">gk_strdup</text>
</a>
</g>
</g>
<!-- Node0&#45;&gt;Node1 -->
<g id="edge1" class="edge"><title>Node0&#45;&gt;Node1</title>
<path fill="none" stroke="midnightblue" d="M26.8322,-226.242C42.6486,-249.217 81.9808,-306.353 102.34,-335.927"/>
<polygon fill="midnightblue" stroke="midnightblue" points="99.6764,-338.23 108.23,-344.483 105.442,-334.261 99.6764,-338.23"/>
</g>
<!-- Node7 -->
<g id="node8" class="node"><title>Node7</title>
<g id="a_node8"><a xlink:href="a00861.html#a9add4a9694da47d84beb4a7638a7b673" target="_top" xlink:title="ReadGraph">
<polygon fill="white" stroke="black" points="82,-230.817 82,-249.817 150,-249.817 150,-230.817 82,-230.817"/>
<text text-anchor="middle" x="116" y="-237.817" font-family="Helvetica,sans-Serif" font-size="10.00">ReadGraph</text>
</a>
</g>
</g>
<!-- Node0&#45;&gt;Node7 -->
<g id="edge8" class="edge"><title>Node0&#45;&gt;Node7</title>
<path fill="none" stroke="midnightblue" d="M38.317,-220.945C47.9211,-223.371 60.1239,-226.454 71.9549,-229.443"/>
<polygon fill="midnightblue" stroke="midnightblue" points="71.1876,-232.859 81.7403,-231.915 72.9022,-226.072 71.1876,-232.859"/>
</g>
<!-- Node17 -->
<g id="node18" class="node"><title>Node17</title>
<g id="a_node18"><a xlink:href="a00861.html#a65a7c382444e5132dafddb75b6117754" target="_top" xlink:title="ReadPOVector">
<polygon fill="white" stroke="black" points="74,-183.817 74,-202.817 158,-202.817 158,-183.817 74,-183.817"/>
<text text-anchor="middle" x="116" y="-190.817" font-family="Helvetica,sans-Serif" font-size="10.00">ReadPOVector</text>
</a>
</g>
</g>
<!-- Node0&#45;&gt;Node17 -->
<g id="edge22" class="edge"><title>Node0&#45;&gt;Node17</title>
<path fill="none" stroke="midnightblue" d="M38.317,-211.883C46.2429,-209.964 55.9387,-207.616 65.7348,-205.245"/>
<polygon fill="midnightblue" stroke="midnightblue" points="66.6068,-208.635 75.5024,-202.88 64.9596,-201.831 66.6068,-208.635"/>
</g>
<!-- Node18 -->
<g id="node19" class="node"><title>Node18</title>
<g id="a_node19"><a xlink:href="a00951.html#a929cf6af13d6bf71bc61657211472eed" target="_top" xlink:title="ComputeFillIn">
<polygon fill="white" stroke="black" points="77,-31.8174 77,-50.8174 155,-50.8174 155,-31.8174 77,-31.8174"/>
<text text-anchor="middle" x="116" y="-38.8174" font-family="Helvetica,sans-Serif" font-size="10.00">ComputeFillIn</text>
</a>
</g>
</g>
<!-- Node0&#45;&gt;Node18 -->
<g id="edge26" class="edge"><title>Node0&#45;&gt;Node18</title>
<path fill="none" stroke="midnightblue" d="M25.2429,-206.659C40.3894,-178.758 84.413,-97.6618 104.629,-60.4214"/>
<polygon fill="midnightblue" stroke="midnightblue" points="107.961,-61.6196 109.656,-51.1613 101.809,-58.28 107.961,-61.6196"/>
</g>
<!-- Node2 -->
<g id="node3" class="node"><title>Node2</title>
<g id="a_node3"><a xlink:href="a00077.html#aba6f76f5c67b9b7e9c2e45988d3d3e9d" target="_top" xlink:title="gk_malloc">
<polygon fill="white" stroke="black" points="292,-373.817 292,-392.817 354,-392.817 354,-373.817 292,-373.817"/>
<text text-anchor="middle" x="323" y="-380.817" font-family="Helvetica,sans-Serif" font-size="10.00">gk_malloc</text>
</a>
</g>
</g>
<!-- Node1&#45;&gt;Node2 -->
<g id="edge2" class="edge"><title>Node1&#45;&gt;Node2</title>
<path fill="none" stroke="midnightblue" d="M136.382,-363.853C151.626,-370.796 173.622,-379.607 194,-383.317 223.111,-388.618 256.568,-388.404 281.974,-386.979"/>
<polygon fill="midnightblue" stroke="midnightblue" points="282.231,-390.47 291.984,-386.332 281.779,-383.484 282.231,-390.47"/>
</g>
<!-- Node3 -->
<g id="node4" class="node"><title>Node3</title>
<g id="a_node4"><a xlink:href="a01017.html#a2e311a777ffe9c80e405efa7cd2757be" target="_top" xlink:title="fprintf">
<polygon fill="white" stroke="black" points="554,-297.817 554,-316.817 596,-316.817 596,-297.817 554,-297.817"/>
<text text-anchor="middle" x="575" y="-304.817" font-family="Helvetica,sans-Serif" font-size="10.00">fprintf</text>
</a>
</g>
</g>
<!-- Node2&#45;&gt;Node3 -->
<g id="edge3" class="edge"><title>Node2&#45;&gt;Node3</title>
<path fill="none" stroke="midnightblue" d="M340.702,-373.766C345.177,-370.936 349.906,-367.686 354,-364.317 371.965,-349.536 369.13,-336.597 390,-326.317 439.558,-301.908 505.594,-301.724 543.587,-304.23"/>
<polygon fill="midnightblue" stroke="midnightblue" points="543.737,-307.751 553.976,-305.03 544.274,-300.772 543.737,-307.751"/>
</g>
<!-- Node4 -->
<g id="node5" class="node"><title>Node4</title>
<g id="a_node5"><a xlink:href="a00110.html#ad2327b94227019b6753b6b09400c0522" target="_top" xlink:title="gk_GetCurMemoryUsed">
<polygon fill="white" stroke="black" points="392,-335.817 392,-354.817 516,-354.817 516,-335.817 392,-335.817"/>
<text text-anchor="middle" x="454" y="-342.817" font-family="Helvetica,sans-Serif" font-size="10.00">gk_GetCurMemoryUsed</text>
</a>
</g>
</g>
<!-- Node2&#45;&gt;Node4 -->
<g id="edge4" class="edge"><title>Node2&#45;&gt;Node4</title>
<path fill="none" stroke="midnightblue" d="M354.245,-374.408C371.162,-369.425 392.509,-363.136 411.024,-357.682"/>
<polygon fill="midnightblue" stroke="midnightblue" points="412.086,-361.018 420.69,-354.835 410.108,-354.304 412.086,-361.018"/>
</g>
<!-- Node5 -->
<g id="node6" class="node"><title>Node5</title>
<g id="a_node6"><a xlink:href="a00110.html#a656fd5266ae12a96e53125486f8fea52" target="_top" xlink:title="gk_GetMaxMemoryUsed">
<polygon fill="white" stroke="black" points="390.5,-373.817 390.5,-392.817 517.5,-392.817 517.5,-373.817 390.5,-373.817"/>
<text text-anchor="middle" x="454" y="-380.817" font-family="Helvetica,sans-Serif" font-size="10.00">gk_GetMaxMemoryUsed</text>
</a>
</g>
</g>
<!-- Node2&#45;&gt;Node5 -->
<g id="edge5" class="edge"><title>Node2&#45;&gt;Node5</title>
<path fill="none" stroke="midnightblue" d="M354.245,-383.317C362.229,-383.317 371.2,-383.317 380.395,-383.317"/>
<polygon fill="midnightblue" stroke="midnightblue" points="380.423,-386.817 390.423,-383.317 380.423,-379.817 380.423,-386.817"/>
</g>
<!-- Node6 -->
<g id="node7" class="node"><title>Node6</title>
<g id="a_node7"><a xlink:href="a00026.html#a4c320c13bcdc9967613253ef4c73f59f" target="_top" xlink:title="gk_errexit">
<polygon fill="white" stroke="black" points="424,-411.817 424,-430.817 484,-430.817 484,-411.817 424,-411.817"/>
<text text-anchor="middle" x="454" y="-418.817" font-family="Helvetica,sans-Serif" font-size="10.00">gk_errexit</text>
</a>
</g>
</g>
<!-- Node2&#45;&gt;Node6 -->
<g id="edge6" class="edge"><title>Node2&#45;&gt;Node6</title>
<path fill="none" stroke="midnightblue" d="M354.245,-392.227C372.128,-397.495 394.96,-404.22 414.165,-409.878"/>
<polygon fill="midnightblue" stroke="midnightblue" points="413.251,-413.257 423.832,-412.725 415.229,-406.542 413.251,-413.257"/>
</g>
<!-- Node6&#45;&gt;Node3 -->
<g id="edge7" class="edge"><title>Node6&#45;&gt;Node3</title>
<path fill="none" stroke="midnightblue" d="M484.092,-417.248C495.566,-414.508 508.295,-409.936 518,-402.317 543.122,-382.597 559.282,-348.238 567.493,-326.693"/>
<polygon fill="midnightblue" stroke="midnightblue" points="570.887,-327.596 570.979,-317.002 564.3,-325.227 570.887,-327.596"/>
</g>
<!-- Node8 -->
<g id="node9" class="node"><title>Node8</title>
<g id="a_node9"><a xlink:href="a00035.html#a627221a374552b5b6659d855b7446187" target="_top" xlink:title="gk_fexists">
<polygon fill="white" stroke="black" points="194.5,-278.817 194.5,-297.817 255.5,-297.817 255.5,-278.817 194.5,-278.817"/>
<text text-anchor="middle" x="225" y="-285.817" font-family="Helvetica,sans-Serif" font-size="10.00">gk_fexists</text>
</a>
</g>
</g>
<!-- Node7&#45;&gt;Node8 -->
<g id="edge9" class="edge"><title>Node7&#45;&gt;Node8</title>
<path fill="none" stroke="midnightblue" d="M138.396,-249.916C154.142,-256.979 175.776,-266.684 193.355,-274.57"/>
<polygon fill="midnightblue" stroke="midnightblue" points="192.085,-277.836 202.641,-278.736 194.95,-271.449 192.085,-277.836"/>
</g>
<!-- Node9 -->
<g id="node10" class="node"><title>Node9</title>
<g id="a_node10"><a xlink:href="a00026.html#a56d0f2cc40cd8633a784582d6200d8b5" target="_top" xlink:title="errexit">
<polygon fill="white" stroke="black" points="301,-202.817 301,-221.817 345,-221.817 345,-202.817 301,-202.817"/>
<text text-anchor="middle" x="323" y="-209.817" font-family="Helvetica,sans-Serif" font-size="10.00">errexit</text>
</a>
</g>
</g>
<!-- Node7&#45;&gt;Node9 -->
<g id="edge10" class="edge"><title>Node7&#45;&gt;Node9</title>
<path fill="none" stroke="midnightblue" d="M150.096,-240.174C178.407,-239.576 220.145,-237.564 256,-231.317 267.692,-229.281 280.269,-225.955 291.275,-222.652"/>
<polygon fill="midnightblue" stroke="midnightblue" points="292.366,-225.978 300.871,-219.661 290.283,-219.295 292.366,-225.978"/>
</g>
<!-- Node10 -->
<g id="node11" class="node"><title>Node10</title>
<g id="a_node11"><a xlink:href="a00858.html#abff04948821f625a3e59666e61c70e2f" target="_top" xlink:title="gk_fopen">
<polygon fill="white" stroke="black" points="196,-202.817 196,-221.817 254,-221.817 254,-202.817 196,-202.817"/>
<text text-anchor="middle" x="225" y="-209.817" font-family="Helvetica,sans-Serif" font-size="10.00">gk_fopen</text>
</a>
</g>
</g>
<!-- Node7&#45;&gt;Node10 -->
<g id="edge12" class="edge"><title>Node7&#45;&gt;Node10</title>
<path fill="none" stroke="midnightblue" d="M150.269,-231.611C161.562,-228.656 174.265,-225.332 185.905,-222.286"/>
<polygon fill="midnightblue" stroke="midnightblue" points="187.009,-225.615 195.797,-219.697 185.237,-218.843 187.009,-225.615"/>
</g>
<!-- Node11 -->
<g id="node12" class="node"><title>Node11</title>
<g id="a_node12"><a xlink:href="a00575.html#ae6aab5c308faac0fc539cc9c6da9fbd0" target="_top" xlink:title="sprintf">
<polygon fill="white" stroke="black" points="301,-278.817 301,-297.817 345,-297.817 345,-278.817 301,-278.817"/>
<text text-anchor="middle" x="323" y="-285.817" font-family="Helvetica,sans-Serif" font-size="10.00">sprintf</text>
</a>
</g>
</g>
<!-- Node7&#45;&gt;Node11 -->
<g id="edge18" class="edge"><title>Node7&#45;&gt;Node11</title>
<path fill="none" stroke="midnightblue" d="M124.199,-250.015C136.47,-265.632 163.13,-295.767 194,-307.317 225.904,-319.255 264.92,-310.385 291.43,-301.169"/>
<polygon fill="midnightblue" stroke="midnightblue" points="292.766,-304.407 300.937,-297.663 290.343,-297.84 292.766,-304.407"/>
</g>
<!-- Node12 -->
<g id="node13" class="node"><title>Node12</title>
<g id="a_node13"><a xlink:href="a00858.html#ad8263f64108434d7ebab9799b5ab9632" target="_top" xlink:title="gk_getline">
<polygon fill="white" stroke="black" points="194,-354.817 194,-373.817 256,-373.817 256,-354.817 194,-354.817"/>
<text text-anchor="middle" x="225" y="-361.817" font-family="Helvetica,sans-Serif" font-size="10.00">gk_getline</text>
</a>
</g>
</g>
<!-- Node7&#45;&gt;Node12 -->
<g id="edge15" class="edge"><title>Node7&#45;&gt;Node12</title>
<path fill="none" stroke="midnightblue" d="M123.312,-250.022C135.655,-268.626 164.376,-310.138 194,-340.317 196.681,-343.048 199.667,-345.761 202.687,-348.326"/>
<polygon fill="midnightblue" stroke="midnightblue" points="200.591,-351.132 210.573,-354.682 204.984,-345.682 200.591,-351.132"/>
</g>
<!-- Node14 -->
<g id="node15" class="node"><title>Node14</title>
<g id="a_node15"><a xlink:href="a00858.html#a70dec19fefaf0c84f3948b4679a73fec" target="_top" xlink:title="gk_fclose">
<polygon fill="white" stroke="black" points="195.5,-88.8174 195.5,-107.817 254.5,-107.817 254.5,-88.8174 195.5,-88.8174"/>
<text text-anchor="middle" x="225" y="-95.8174" font-family="Helvetica,sans-Serif" font-size="10.00">gk_fclose</text>
</a>
</g>
</g>
<!-- Node7&#45;&gt;Node14 -->
<g id="edge19" class="edge"><title>Node7&#45;&gt;Node14</title>
<path fill="none" stroke="midnightblue" d="M136.007,-230.6C143.663,-225.923 152.067,-219.713 158,-212.317 184.957,-178.712 168.331,-156.917 194,-122.317 196.027,-119.585 198.437,-116.989 200.997,-114.584"/>
<polygon fill="midnightblue" stroke="midnightblue" points="203.46,-117.087 208.893,-107.992 198.974,-111.713 203.46,-117.087"/>
</g>
<!-- Node16 -->
<g id="node17" class="node"><title>Node16</title>
<g id="a_node17"><a xlink:href="a00077.html#ac8df62c4e3d0910711a9874f9cc58884" target="_top" xlink:title="gk_free">
<polygon fill="white" stroke="black" points="298,-12.8174 298,-31.8174 348,-31.8174 348,-12.8174 298,-12.8174"/>
<text text-anchor="middle" x="323" y="-19.8174" font-family="Helvetica,sans-Serif" font-size="10.00">gk_free</text>
</a>
</g>
</g>
<!-- Node7&#45;&gt;Node16 -->
<g id="edge21" class="edge"><title>Node7&#45;&gt;Node16</title>
<path fill="none" stroke="midnightblue" d="M132.244,-230.799C140.16,-225.637 149.853,-218.967 158,-212.317 204.996,-173.961 216.733,-163.555 256,-117.317 277.338,-92.1917 298.446,-60.231 310.847,-40.5294"/>
<polygon fill="midnightblue" stroke="midnightblue" points="313.889,-42.2662 316.198,-31.9261 307.945,-38.5691 313.889,-42.2662"/>
</g>
<!-- Node9&#45;&gt;Node3 -->
<g id="edge11" class="edge"><title>Node9&#45;&gt;Node3</title>
<path fill="none" stroke="midnightblue" d="M345.315,-220.417C389.927,-237.37 493.223,-276.622 544.303,-296.032"/>
<polygon fill="midnightblue" stroke="midnightblue" points="543.198,-299.357 553.79,-299.637 545.685,-292.813 543.198,-299.357"/>
</g>
<!-- Node10&#45;&gt;Node9 -->
<g id="edge14" class="edge"><title>Node10&#45;&gt;Node9</title>
<path fill="none" stroke="midnightblue" d="M254.025,-212.317C265.466,-212.317 278.749,-212.317 290.522,-212.317"/>
<polygon fill="midnightblue" stroke="midnightblue" points="290.813,-215.817 300.813,-212.317 290.813,-208.817 290.813,-215.817"/>
</g>
<!-- Node10&#45;&gt;Node11 -->
<g id="edge13" class="edge"><title>Node10&#45;&gt;Node11</title>
<path fill="none" stroke="midnightblue" d="M238.158,-221.943C254.244,-234.677 282.806,-257.289 302.07,-272.539"/>
<polygon fill="midnightblue" stroke="midnightblue" points="299.927,-275.307 309.94,-278.77 304.272,-269.819 299.927,-275.307"/>
</g>
<!-- Node12&#45;&gt;Node2 -->
<g id="edge16" class="edge"><title>Node12&#45;&gt;Node2</title>
<path fill="none" stroke="midnightblue" d="M256.112,-370.277C264.332,-371.904 273.37,-373.693 282.046,-375.41"/>
<polygon fill="midnightblue" stroke="midnightblue" points="281.506,-378.871 291.995,-377.379 282.865,-372.004 281.506,-378.871"/>
</g>
<!-- Node13 -->
<g id="node14" class="node"><title>Node13</title>
<g id="a_node14"><a xlink:href="a00077.html#ab76a07ccd25288dd9acc99f5f24a7600" target="_top" xlink:title="gk_realloc">
<polygon fill="white" stroke="black" points="292,-335.817 292,-354.817 354,-354.817 354,-335.817 292,-335.817"/>
<text text-anchor="middle" x="323" y="-342.817" font-family="Helvetica,sans-Serif" font-size="10.00">gk_realloc</text>
</a>
</g>
</g>
<!-- Node12&#45;&gt;Node13 -->
<g id="edge17" class="edge"><title>Node12&#45;&gt;Node13</title>
<path fill="none" stroke="midnightblue" d="M256.112,-358.358C264.332,-356.731 273.37,-354.942 282.046,-353.225"/>
<polygon fill="midnightblue" stroke="midnightblue" points="282.865,-356.631 291.995,-351.256 281.506,-349.764 282.865,-356.631"/>
</g>
<!-- Node15 -->
<g id="node16" class="node"><title>Node15</title>
<g id="a_node16"><a xlink:href="a01017.html#a355ed4cdac2a27aa04a6689ac2d7e86e" target="_top" xlink:title="fclose">
<polygon fill="white" stroke="black" points="301.5,-88.8174 301.5,-107.817 344.5,-107.817 344.5,-88.8174 301.5,-88.8174"/>
<text text-anchor="middle" x="323" y="-95.8174" font-family="Helvetica,sans-Serif" font-size="10.00">fclose</text>
</a>
</g>
</g>
<!-- Node14&#45;&gt;Node15 -->
<g id="edge20" class="edge"><title>Node14&#45;&gt;Node15</title>
<path fill="none" stroke="midnightblue" d="M254.543,-98.3174C266.053,-98.3174 279.36,-98.3174 291.097,-98.3174"/>
<polygon fill="midnightblue" stroke="midnightblue" points="291.339,-101.817 301.339,-98.3174 291.339,-94.8175 291.339,-101.817"/>
</g>
<!-- Node17&#45;&gt;Node9 -->
<g id="edge24" class="edge"><title>Node17&#45;&gt;Node9</title>
<path fill="none" stroke="midnightblue" d="M158.266,-190.309C186.03,-189.021 223.383,-188.716 256,-193.317 267.751,-194.975 280.342,-198.216 291.342,-201.558"/>
<polygon fill="midnightblue" stroke="midnightblue" points="290.337,-204.911 300.928,-204.614 292.463,-198.242 290.337,-204.911"/>
</g>
<!-- Node17&#45;&gt;Node10 -->
<g id="edge23" class="edge"><title>Node17&#45;&gt;Node10</title>
<path fill="none" stroke="midnightblue" d="M158.063,-200.609C167.226,-202.236 176.905,-203.955 185.941,-205.559"/>
<polygon fill="midnightblue" stroke="midnightblue" points="185.35,-209.009 195.808,-207.311 186.574,-202.117 185.35,-209.009"/>
</g>
<!-- Node17&#45;&gt;Node14 -->
<g id="edge25" class="edge"><title>Node17&#45;&gt;Node14</title>
<path fill="none" stroke="midnightblue" d="M127.252,-183.435C141.814,-169.497 169.45,-143.411 194,-122.317 197.099,-119.655 200.432,-116.893 203.71,-114.231"/>
<polygon fill="midnightblue" stroke="midnightblue" points="205.958,-116.915 211.581,-107.935 201.585,-111.448 205.958,-116.915"/>
</g>
<!-- Node18&#45;&gt;Node9 -->
<g id="edge30" class="edge"><title>Node18&#45;&gt;Node9</title>
<path fill="none" stroke="midnightblue" d="M155.078,-43.3392C185.418,-46.7668 227.409,-55.7916 256,-79.3174 292.182,-109.09 310.258,-163.639 317.698,-192.768"/>
<polygon fill="midnightblue" stroke="midnightblue" points="314.315,-193.67 320.044,-202.583 321.123,-192.043 314.315,-193.67"/>
</g>
<!-- Node18&#45;&gt;Node16 -->
<g id="edge29" class="edge"><title>Node18&#45;&gt;Node16</title>
<path fill="none" stroke="midnightblue" d="M131.285,-31.7552C146.198,-22.3947 170.627,-8.77076 194,-3.31736 225.482,4.02809 262.015,-2.8875 287.973,-10.3527"/>
<polygon fill="midnightblue" stroke="midnightblue" points="287.129,-13.7542 297.715,-13.3225 289.17,-7.05847 287.129,-13.7542"/>
</g>
<!-- Node19 -->
<g id="node20" class="node"><title>Node19</title>
<g id="a_node20"><a xlink:href="a00329.html#a4c231449fdf45c79d8d5107ad63b3451" target="_top" xlink:title="smbfct">
<polygon fill="white" stroke="black" points="202,-12.8174 202,-31.8174 248,-31.8174 248,-12.8174 202,-12.8174"/>
<text text-anchor="middle" x="225" y="-19.8174" font-family="Helvetica,sans-Serif" font-size="10.00">smbfct</text>
</a>
</g>
</g>
<!-- Node18&#45;&gt;Node19 -->
<g id="edge27" class="edge"><title>Node18&#45;&gt;Node19</title>
<path fill="none" stroke="midnightblue" d="M155.025,-34.5652C167.075,-32.4256 180.27,-30.0825 191.863,-28.0238"/>
<polygon fill="midnightblue" stroke="midnightblue" points="192.748,-31.4217 201.982,-26.2272 191.524,-24.5295 192.748,-31.4217"/>
</g>
<!-- Node19&#45;&gt;Node16 -->
<g id="edge28" class="edge"><title>Node19&#45;&gt;Node16</title>
<path fill="none" stroke="midnightblue" d="M248.266,-22.3174C259.979,-22.3174 274.595,-22.3174 287.717,-22.3174"/>
<polygon fill="midnightblue" stroke="midnightblue" points="287.837,-25.8175 297.837,-22.3174 287.837,-18.8175 287.837,-25.8175"/>
</g>
</g>
</svg>
