<?xml version="1.0" encoding="UTF-8" standalone="no"?>
<!DOCTYPE svg PUBLIC "-//W3C//DTD SVG 1.1//EN"
 "http://www.w3.org/Graphics/SVG/1.1/DTD/svg11.dtd">
<!-- Generated by graphviz version 2.36.0 (20140111.2315)
 -->
<!-- Title: Match_Global Pages: 1 -->
<svg width="428pt" height="66pt"
 viewBox="0.00 0.00 428.00 66.00" xmlns="http://www.w3.org/2000/svg" xmlns:xlink="http://www.w3.org/1999/xlink">
<g id="graph0" class="graph" transform="scale(1 1) rotate(0) translate(4 62)">
<title>Match_Global</title>
<polygon fill="white" stroke="none" points="-4,4 -4,-62 424,-62 424,4 -4,4"/>
<!-- Node10 -->
<g id="node1" class="node"><title>Node10</title>
<polygon fill="#bfbfbf" stroke="black" points="0,-19.5 0,-38.5 78,-38.5 78,-19.5 0,-19.5"/>
<text text-anchor="middle" x="39" y="-26.5" font-family="Helvetica,sans-Serif" font-size="10.00">Match_Global</text>
</g>
<!-- Node11 -->
<g id="node2" class="node"><title>Node11</title>
<g id="a_node2"><a xlink:href="$a00368.html#afe6fa9bdcdc3b227b06b992caf2aaec4" xlink:title="CreateCoarseGraph_Global">
<polygon fill="white" stroke="black" points="114.5,-19.5 114.5,-38.5 255.5,-38.5 255.5,-19.5 114.5,-19.5"/>
<text text-anchor="middle" x="185" y="-26.5" font-family="Helvetica,sans-Serif" font-size="10.00">CreateCoarseGraph_Global</text>
</a>
</g>
</g>
<!-- Node10&#45;&gt;Node11 -->
<g id="edge1" class="edge"><title>Node10&#45;&gt;Node11</title>
<path fill="none" stroke="midnightblue" d="M78.2113,-29C86.3234,-29 95.1757,-29 104.193,-29"/>
<polygon fill="midnightblue" stroke="midnightblue" points="104.414,-32.5001 114.414,-29 104.414,-25.5001 104.414,-32.5001"/>
</g>
<!-- Node12 -->
<g id="node3" class="node"><title>Node12</title>
<g id="a_node3"><a xlink:href="$a00026.html#a56d0f2cc40cd8633a784582d6200d8b5" xlink:title="errexit">
<polygon fill="white" stroke="black" points="295,-38.5 295,-57.5 339,-57.5 339,-38.5 295,-38.5"/>
<text text-anchor="middle" x="317" y="-45.5" font-family="Helvetica,sans-Serif" font-size="10.00">errexit</text>
</a>
</g>
</g>
<!-- Node11&#45;&gt;Node12 -->
<g id="edge2" class="edge"><title>Node11&#45;&gt;Node12</title>
<path fill="none" stroke="midnightblue" d="M251.381,-38.5557C263.113,-40.2703 274.828,-41.9825 284.998,-43.4689"/>
<polygon fill="midnightblue" stroke="midnightblue" points="284.571,-46.9436 294.972,-44.9267 285.583,-40.0172 284.571,-46.9436"/>
</g>
<!-- Node14 -->
<g id="node5" class="node"><title>Node14</title>
<g id="a_node5"><a xlink:href="$a00077.html#ac8df62c4e3d0910711a9874f9cc58884" xlink:title="gk_free">
<polygon fill="white" stroke="black" points="292,-0.5 292,-19.5 342,-19.5 342,-0.5 292,-0.5"/>
<text text-anchor="middle" x="317" y="-7.5" font-family="Helvetica,sans-Serif" font-size="10.00">gk_free</text>
</a>
</g>
</g>
<!-- Node11&#45;&gt;Node14 -->
<g id="edge4" class="edge"><title>Node11&#45;&gt;Node14</title>
<path fill="none" stroke="midnightblue" d="M251.381,-19.4443C261.855,-17.9135 272.316,-16.3846 281.676,-15.0167"/>
<polygon fill="midnightblue" stroke="midnightblue" points="282.328,-18.4585 291.717,-13.549 281.316,-11.5321 282.328,-18.4585"/>
</g>
<!-- Node13 -->
<g id="node4" class="node"><title>Node13</title>
<g id="a_node4"><a xlink:href="$a01017.html#a2e311a777ffe9c80e405efa7cd2757be" xlink:title="fprintf">
<polygon fill="white" stroke="black" points="378,-38.5 378,-57.5 420,-57.5 420,-38.5 378,-38.5"/>
<text text-anchor="middle" x="399" y="-45.5" font-family="Helvetica,sans-Serif" font-size="10.00">fprintf</text>
</a>
</g>
</g>
<!-- Node12&#45;&gt;Node13 -->
<g id="edge3" class="edge"><title>Node12&#45;&gt;Node13</title>
<path fill="none" stroke="midnightblue" d="M339.019,-48C347.858,-48 358.308,-48 367.937,-48"/>
<polygon fill="midnightblue" stroke="midnightblue" points="367.948,-51.5001 377.948,-48 367.948,-44.5001 367.948,-51.5001"/>
</g>
</g>
</svg>
