<?xml version="1.0" encoding="UTF-8" standalone="no"?>
<!DOCTYPE svg PUBLIC "-//W3C//DTD SVG 1.1//EN"
 "http://www.w3.org/Graphics/SVG/1.1/DTD/svg11.dtd">
<!-- Generated by graphviz version 2.36.0 (20140111.2315)
 -->
<!-- Title: CommSetup Pages: 1 -->
<svg width="320pt" height="104pt"
 viewBox="0.00 0.00 320.00 104.00" xmlns="http://www.w3.org/2000/svg" xmlns:xlink="http://www.w3.org/1999/xlink">
<g id="graph0" class="graph" transform="scale(1 1) rotate(0) translate(4 100)">
<title>CommSetup</title>
<polygon fill="white" stroke="none" points="-4,4 -4,-100 316,-100 316,4 -4,4"/>
<!-- Node4 -->
<g id="node1" class="node"><title>Node4</title>
<polygon fill="#bfbfbf" stroke="black" points="0,-38.5 0,-57.5 72,-57.5 72,-38.5 0,-38.5"/>
<text text-anchor="middle" x="36" y="-45.5" font-family="Helvetica,sans-Serif" font-size="10.00">CommSetup</text>
</g>
<!-- Node5 -->
<g id="node2" class="node"><title>Node5</title>
<g id="a_node2"><a xlink:href="$a00344.html#a245110080c4fe1712c5cac4a52e61e69" xlink:title="CommUpdateNnbrs">
<polygon fill="white" stroke="black" points="108.5,-76.5 108.5,-95.5 213.5,-95.5 213.5,-76.5 108.5,-76.5"/>
<text text-anchor="middle" x="161" y="-83.5" font-family="Helvetica,sans-Serif" font-size="10.00">CommUpdateNnbrs</text>
</a>
</g>
</g>
<!-- Node4&#45;&gt;Node5 -->
<g id="edge1" class="edge"><title>Node4&#45;&gt;Node5</title>
<path fill="none" stroke="midnightblue" d="M68.0381,-57.589C83.4792,-62.3594 102.348,-68.1888 118.966,-73.3229"/>
<polygon fill="midnightblue" stroke="midnightblue" points="118.384,-76.8063 128.972,-76.4141 120.451,-70.1182 118.384,-76.8063"/>
</g>
<!-- Node7 -->
<g id="node4" class="node"><title>Node7</title>
<g id="a_node4"><a xlink:href="$a00344.html#a7cffea998f35ba1b59fe0726bee38fc9" xlink:title="GlobalSEMin">
<polygon fill="white" stroke="black" points="123.5,-38.5 123.5,-57.5 198.5,-57.5 198.5,-38.5 123.5,-38.5"/>
<text text-anchor="middle" x="161" y="-45.5" font-family="Helvetica,sans-Serif" font-size="10.00">GlobalSEMin</text>
</a>
</g>
</g>
<!-- Node4&#45;&gt;Node7 -->
<g id="edge3" class="edge"><title>Node4&#45;&gt;Node7</title>
<path fill="none" stroke="midnightblue" d="M72.2469,-48C85.0315,-48 99.6795,-48 113.298,-48"/>
<polygon fill="midnightblue" stroke="midnightblue" points="113.464,-51.5001 123.464,-48 113.464,-44.5001 113.464,-51.5001"/>
</g>
<!-- Node8 -->
<g id="node5" class="node"><title>Node8</title>
<g id="a_node5"><a xlink:href="$a00344.html#a51be32add0e43ecdac3f0b982a0733b4" xlink:title="GlobalSEMax">
<polygon fill="white" stroke="black" points="122,-0.5 122,-19.5 200,-19.5 200,-0.5 122,-0.5"/>
<text text-anchor="middle" x="161" y="-7.5" font-family="Helvetica,sans-Serif" font-size="10.00">GlobalSEMax</text>
</a>
</g>
</g>
<!-- Node4&#45;&gt;Node8 -->
<g id="edge4" class="edge"><title>Node4&#45;&gt;Node8</title>
<path fill="none" stroke="midnightblue" d="M68.0381,-38.411C83.4792,-33.6406 102.348,-27.8112 118.966,-22.6771"/>
<polygon fill="midnightblue" stroke="midnightblue" points="120.451,-25.8818 128.972,-19.5859 118.384,-19.1937 120.451,-25.8818"/>
</g>
<!-- Node6 -->
<g id="node3" class="node"><title>Node6</title>
<g id="a_node3"><a xlink:href="$a00077.html#ab76a07ccd25288dd9acc99f5f24a7600" xlink:title="gk_realloc">
<polygon fill="white" stroke="black" points="250,-76.5 250,-95.5 312,-95.5 312,-76.5 250,-76.5"/>
<text text-anchor="middle" x="281" y="-83.5" font-family="Helvetica,sans-Serif" font-size="10.00">gk_realloc</text>
</a>
</g>
</g>
<!-- Node5&#45;&gt;Node6 -->
<g id="edge2" class="edge"><title>Node5&#45;&gt;Node6</title>
<path fill="none" stroke="midnightblue" d="M213.757,-86C222.465,-86 231.386,-86 239.748,-86"/>
<polygon fill="midnightblue" stroke="midnightblue" points="239.98,-89.5001 249.98,-86 239.98,-82.5001 239.98,-89.5001"/>
</g>
</g>
</svg>
