<?xml version="1.0" encoding="UTF-8" standalone="no"?>
<!DOCTYPE svg PUBLIC "-//W3C//DTD SVG 1.1//EN"
 "http://www.w3.org/Graphics/SVG/1.1/DTD/svg11.dtd">
<!-- Generated by graphviz version 2.36.0 (20140111.2315)
 -->
<!-- Title: SetUpMesh Pages: 1 -->
<svg width="526pt" height="125pt"
 viewBox="0.00 0.00 526.00 124.90" xmlns="http://www.w3.org/2000/svg" xmlns:xlink="http://www.w3.org/1999/xlink">
<g id="graph0" class="graph" transform="scale(1 1) rotate(0) translate(4 120.901)">
<title>SetUpMesh</title>
<polygon fill="white" stroke="none" points="-4,4 -4,-120.901 522,-120.901 522,4 -4,4"/>
<!-- Node13 -->
<g id="node1" class="node"><title>Node13</title>
<polygon fill="#bfbfbf" stroke="black" points="0.5,-38.5 0.5,-57.5 69.5,-57.5 69.5,-38.5 0.5,-38.5"/>
<text text-anchor="middle" x="35" y="-45.5" font-family="Helvetica,sans-Serif" font-size="10.00">SetUpMesh</text>
</g>
<!-- Node14 -->
<g id="node2" class="node"><title>Node14</title>
<g id="a_node2"><a xlink:href="$a00380.html#aec1a4bd83e832be7befbf6b03e9513ad" xlink:title="CreateMesh">
<polygon fill="white" stroke="black" points="106.5,-38.5 106.5,-57.5 177.5,-57.5 177.5,-38.5 106.5,-38.5"/>
<text text-anchor="middle" x="142" y="-45.5" font-family="Helvetica,sans-Serif" font-size="10.00">CreateMesh</text>
</a>
</g>
</g>
<!-- Node13&#45;&gt;Node14 -->
<g id="edge1" class="edge"><title>Node13&#45;&gt;Node14</title>
<path fill="none" stroke="midnightblue" d="M69.5113,-48C77.9663,-48 87.1807,-48 96.0964,-48"/>
<polygon fill="midnightblue" stroke="midnightblue" points="96.3622,-51.5001 106.362,-48 96.3622,-44.5001 96.3622,-51.5001"/>
</g>
<!-- Node15 -->
<g id="node3" class="node"><title>Node15</title>
<g id="a_node3"><a xlink:href="$a00077.html#aba6f76f5c67b9b7e9c2e45988d3d3e9d" xlink:title="gk_malloc">
<polygon fill="white" stroke="black" points="214,-57.5 214,-76.5 276,-76.5 276,-57.5 214,-57.5"/>
<text text-anchor="middle" x="245" y="-64.5" font-family="Helvetica,sans-Serif" font-size="10.00">gk_malloc</text>
</a>
</g>
</g>
<!-- Node14&#45;&gt;Node15 -->
<g id="edge2" class="edge"><title>Node14&#45;&gt;Node15</title>
<path fill="none" stroke="midnightblue" d="M177.758,-54.5387C186.207,-56.1281 195.309,-57.8403 203.98,-59.4714"/>
<polygon fill="midnightblue" stroke="midnightblue" points="203.421,-62.9276 213.895,-61.3368 204.715,-56.0483 203.421,-62.9276"/>
</g>
<!-- Node20 -->
<g id="node8" class="node"><title>Node20</title>
<g id="a_node8"><a xlink:href="$a00380.html#a82cd62ea70eaae4395fee538d40cf12b" xlink:title="InitMesh">
<polygon fill="white" stroke="black" points="218,-19.5 218,-38.5 272,-38.5 272,-19.5 218,-19.5"/>
<text text-anchor="middle" x="245" y="-26.5" font-family="Helvetica,sans-Serif" font-size="10.00">InitMesh</text>
</a>
</g>
</g>
<!-- Node14&#45;&gt;Node20 -->
<g id="edge8" class="edge"><title>Node14&#45;&gt;Node20</title>
<path fill="none" stroke="midnightblue" d="M177.758,-41.4613C187.499,-39.6289 198.108,-37.6332 207.923,-35.7867"/>
<polygon fill="midnightblue" stroke="midnightblue" points="208.614,-39.2182 217.795,-33.9297 207.32,-32.3388 208.614,-39.2182"/>
</g>
<!-- Node16 -->
<g id="node4" class="node"><title>Node16</title>
<g id="a_node4"><a xlink:href="$a01017.html#a2e311a777ffe9c80e405efa7cd2757be" xlink:title="fprintf">
<polygon fill="white" stroke="black" points="476,-57.5 476,-76.5 518,-76.5 518,-57.5 476,-57.5"/>
<text text-anchor="middle" x="497" y="-64.5" font-family="Helvetica,sans-Serif" font-size="10.00">fprintf</text>
</a>
</g>
</g>
<!-- Node15&#45;&gt;Node16 -->
<g id="edge3" class="edge"><title>Node15&#45;&gt;Node16</title>
<path fill="none" stroke="midnightblue" d="M258.261,-76.7187C270.891,-86.0589 291.563,-99.5369 312,-105 366.959,-119.691 385.62,-121.709 440,-105 454.039,-100.686 467.719,-91.5255 478.044,-83.2793"/>
<polygon fill="midnightblue" stroke="midnightblue" points="480.469,-85.8134 485.862,-76.6941 475.959,-80.4595 480.469,-85.8134"/>
</g>
<!-- Node17 -->
<g id="node5" class="node"><title>Node17</title>
<g id="a_node5"><a xlink:href="$a00110.html#ad2327b94227019b6753b6b09400c0522" xlink:title="gk_GetCurMemoryUsed">
<polygon fill="white" stroke="black" points="314,-76.5 314,-95.5 438,-95.5 438,-76.5 314,-76.5"/>
<text text-anchor="middle" x="376" y="-83.5" font-family="Helvetica,sans-Serif" font-size="10.00">gk_GetCurMemoryUsed</text>
</a>
</g>
</g>
<!-- Node15&#45;&gt;Node17 -->
<g id="edge4" class="edge"><title>Node15&#45;&gt;Node17</title>
<path fill="none" stroke="midnightblue" d="M276.245,-71.4547C284.646,-72.692 294.139,-74.0903 303.836,-75.5184"/>
<polygon fill="midnightblue" stroke="midnightblue" points="303.573,-79.0175 313.977,-77.0121 304.593,-72.0922 303.573,-79.0175"/>
</g>
<!-- Node18 -->
<g id="node6" class="node"><title>Node18</title>
<g id="a_node6"><a xlink:href="$a00110.html#a656fd5266ae12a96e53125486f8fea52" xlink:title="gk_GetMaxMemoryUsed">
<polygon fill="white" stroke="black" points="312.5,-38.5 312.5,-57.5 439.5,-57.5 439.5,-38.5 312.5,-38.5"/>
<text text-anchor="middle" x="376" y="-45.5" font-family="Helvetica,sans-Serif" font-size="10.00">gk_GetMaxMemoryUsed</text>
</a>
</g>
</g>
<!-- Node15&#45;&gt;Node18 -->
<g id="edge5" class="edge"><title>Node15&#45;&gt;Node18</title>
<path fill="none" stroke="midnightblue" d="M276.245,-62.5453C284.229,-61.3693 293.2,-60.048 302.395,-58.6938"/>
<polygon fill="midnightblue" stroke="midnightblue" points="303.04,-62.1366 312.423,-57.2167 302.02,-55.2113 303.04,-62.1366"/>
</g>
<!-- Node19 -->
<g id="node7" class="node"><title>Node19</title>
<g id="a_node7"><a xlink:href="$a00026.html#a4c320c13bcdc9967613253ef4c73f59f" xlink:title="gk_errexit">
<polygon fill="white" stroke="black" points="346,-0.5 346,-19.5 406,-19.5 406,-0.5 346,-0.5"/>
<text text-anchor="middle" x="376" y="-7.5" font-family="Helvetica,sans-Serif" font-size="10.00">gk_errexit</text>
</a>
</g>
</g>
<!-- Node15&#45;&gt;Node19 -->
<g id="edge6" class="edge"><title>Node15&#45;&gt;Node19</title>
<path fill="none" stroke="midnightblue" d="M261.589,-57.4697C277.76,-47.6847 302.047,-33.2984 312,-29 319.68,-25.6834 328.121,-22.7096 336.259,-20.1539"/>
<polygon fill="midnightblue" stroke="midnightblue" points="337.388,-23.4695 345.965,-17.2488 335.381,-16.7634 337.388,-23.4695"/>
</g>
<!-- Node19&#45;&gt;Node16 -->
<g id="edge7" class="edge"><title>Node19&#45;&gt;Node16</title>
<path fill="none" stroke="midnightblue" d="M406.228,-16.8252C417.104,-19.8755 429.377,-23.9396 440,-29 452.634,-35.0184 465.634,-43.6626 475.925,-51.1863"/>
<polygon fill="midnightblue" stroke="midnightblue" points="474.101,-54.1937 484.194,-57.4154 478.313,-48.6027 474.101,-54.1937"/>
</g>
</g>
</svg>
