<?xml version="1.0" encoding="UTF-8" standalone="no"?>
<!DOCTYPE svg PUBLIC "-//W3C//DTD SVG 1.1//EN"
 "http://www.w3.org/Graphics/SVG/1.1/DTD/svg11.dtd">
<!-- Generated by graphviz version 2.36.0 (20140111.2315)
 -->
<!-- Title: main Pages: 1 -->
<svg width="696pt" height="522pt"
 viewBox="0.00 0.00 696.00 522.00" xmlns="http://www.w3.org/2000/svg" xmlns:xlink="http://www.w3.org/1999/xlink">
<g id="graph0" class="graph" transform="scale(1 1) rotate(0) translate(4 518)">
<title>main</title>
<polygon fill="white" stroke="none" points="-4,4 -4,-518 692,-518 692,4 -4,4"/>
<!-- Node7 -->
<g id="node1" class="node"><title>Node7</title>
<polygon fill="#bfbfbf" stroke="black" points="0,-228.5 0,-247.5 38,-247.5 38,-228.5 0,-228.5"/>
<text text-anchor="middle" x="19" y="-235.5" font-family="Helvetica,sans-Serif" font-size="10.00">main</text>
</g>
<!-- Node8 -->
<g id="node2" class="node"><title>Node8</title>
<g id="a_node2"><a xlink:href="a00957.html#adb0c2dc0c5138f35c71739328c702074" target="_top" xlink:title="TestParMetis_GPart">
<polygon fill="white" stroke="black" points="74.5,-228.5 74.5,-247.5 181.5,-247.5 181.5,-228.5 74.5,-228.5"/>
<text text-anchor="middle" x="128" y="-235.5" font-family="Helvetica,sans-Serif" font-size="10.00">TestParMetis_GPart</text>
</a>
</g>
</g>
<!-- Node7&#45;&gt;Node8 -->
<g id="edge1" class="edge"><title>Node7&#45;&gt;Node8</title>
<path fill="none" stroke="midnightblue" d="M38.1511,-238C45.5072,-238 54.4772,-238 63.8561,-238"/>
<polygon fill="midnightblue" stroke="midnightblue" points="64.1368,-241.5 74.1367,-238 64.1367,-234.5 64.1368,-241.5"/>
</g>
<!-- Node9 -->
<g id="node3" class="node"><title>Node9</title>
<g id="a_node3"><a xlink:href="a00864.html#abcd3804c62bf4464f2c8de37a42e6ef8" target="_top" xlink:title="ParallelReadGraph">
<polygon fill="white" stroke="black" points="416,-456.5 416,-475.5 518,-475.5 518,-456.5 416,-456.5"/>
<text text-anchor="middle" x="467" y="-463.5" font-family="Helvetica,sans-Serif" font-size="10.00">ParallelReadGraph</text>
</a>
</g>
</g>
<!-- Node8&#45;&gt;Node9 -->
<g id="edge2" class="edge"><title>Node8&#45;&gt;Node9</title>
<path fill="none" stroke="midnightblue" d="M131.01,-247.571C137.673,-276.807 161.88,-365.587 218,-409 272.001,-450.774 351.181,-462.884 405.46,-465.922"/>
<polygon fill="midnightblue" stroke="midnightblue" points="405.478,-469.426 415.631,-466.402 405.807,-462.434 405.478,-469.426"/>
</g>
<!-- Node11 -->
<g id="node5" class="node"><title>Node11</title>
<g id="a_node5"><a xlink:href="a00077.html#ac8df62c4e3d0910711a9874f9cc58884" target="_top" xlink:title="gk_free">
<polygon fill="white" stroke="black" points="560,-399.5 560,-418.5 610,-418.5 610,-399.5 560,-399.5"/>
<text text-anchor="middle" x="585" y="-406.5" font-family="Helvetica,sans-Serif" font-size="10.00">gk_free</text>
</a>
</g>
</g>
<!-- Node8&#45;&gt;Node11 -->
<g id="edge23" class="edge"><title>Node8&#45;&gt;Node11</title>
<path fill="none" stroke="midnightblue" d="M140.542,-247.588C156.759,-260.522 187.709,-283.287 218,-295 346.665,-344.753 401.963,-282.68 524,-347 543.752,-357.411 560.845,-376.718 571.678,-391.032"/>
<polygon fill="midnightblue" stroke="midnightblue" points="568.879,-393.134 577.582,-399.175 574.546,-389.025 568.879,-393.134"/>
</g>
<!-- Node12 -->
<g id="node6" class="node"><title>Node12</title>
<g id="a_node6"><a xlink:href="a00864.html#a4c1a88b3f492be37fe35e779692fb84c" target="_top" xlink:title="ReadTestCoordinates">
<polygon fill="white" stroke="black" points="410,-494.5 410,-513.5 524,-513.5 524,-494.5 410,-494.5"/>
<text text-anchor="middle" x="467" y="-501.5" font-family="Helvetica,sans-Serif" font-size="10.00">ReadTestCoordinates</text>
</a>
</g>
</g>
<!-- Node8&#45;&gt;Node12 -->
<g id="edge5" class="edge"><title>Node8&#45;&gt;Node12</title>
<path fill="none" stroke="midnightblue" d="M130.008,-247.817C134.027,-281.602 152.039,-394.01 218,-449 268.758,-491.316 345.062,-502.938 399.617,-505.3"/>
<polygon fill="midnightblue" stroke="midnightblue" points="399.768,-508.807 409.881,-505.647 400.005,-501.811 399.768,-508.807"/>
</g>
<!-- Node15 -->
<g id="node9" class="node"><title>Node15</title>
<g id="a_node9"><a xlink:href="a00422.html#a82918f9e496dea47e55d3f6b23db0449" target="_top" xlink:title="Mc_AdaptGraph">
<polygon fill="white" stroke="black" points="251.5,-266.5 251.5,-285.5 340.5,-285.5 340.5,-266.5 251.5,-266.5"/>
<text text-anchor="middle" x="296" y="-273.5" font-family="Helvetica,sans-Serif" font-size="10.00">Mc_AdaptGraph</text>
</a>
</g>
</g>
<!-- Node8&#45;&gt;Node15 -->
<g id="edge10" class="edge"><title>Node8&#45;&gt;Node15</title>
<path fill="none" stroke="midnightblue" d="M170.889,-247.589C192.893,-252.626 220.055,-258.844 243.352,-264.177"/>
<polygon fill="midnightblue" stroke="midnightblue" points="242.884,-267.66 253.412,-266.48 244.446,-260.837 242.884,-267.66"/>
</g>
<!-- Node16 -->
<g id="node10" class="node"><title>Node16</title>
<g id="a_node10"><a xlink:href="a00843.html#af418d1e76eaf4f80116da4caf51bd54e" target="_top" xlink:title="ParMETIS_V3_PartKway">
<polygon fill="white" stroke="black" points="231.5,-228.5 231.5,-247.5 360.5,-247.5 360.5,-228.5 231.5,-228.5"/>
<text text-anchor="middle" x="296" y="-235.5" font-family="Helvetica,sans-Serif" font-size="10.00">ParMETIS_V3_PartKway</text>
</a>
</g>
</g>
<!-- Node8&#45;&gt;Node16 -->
<g id="edge11" class="edge"><title>Node8&#45;&gt;Node16</title>
<path fill="none" stroke="midnightblue" d="M181.523,-238C194.164,-238 207.9,-238 221.307,-238"/>
<polygon fill="midnightblue" stroke="midnightblue" points="221.473,-241.5 231.473,-238 221.473,-234.5 221.473,-241.5"/>
</g>
<!-- Node17 -->
<g id="node11" class="node"><title>Node17</title>
<g id="a_node11"><a xlink:href="a00437.html#a725d56a999dc467b3f7883eea465bab2" target="_top" xlink:title="ComputeRealCut">
<polygon fill="white" stroke="black" points="249.5,-342.5 249.5,-361.5 342.5,-361.5 342.5,-342.5 249.5,-342.5"/>
<text text-anchor="middle" x="296" y="-349.5" font-family="Helvetica,sans-Serif" font-size="10.00">ComputeRealCut</text>
</a>
</g>
</g>
<!-- Node8&#45;&gt;Node17 -->
<g id="edge12" class="edge"><title>Node8&#45;&gt;Node17</title>
<path fill="none" stroke="midnightblue" d="M135.934,-247.664C149.582,-265.997 181.768,-305.957 218,-328 225.308,-332.446 233.514,-336.137 241.772,-339.18"/>
<polygon fill="midnightblue" stroke="midnightblue" points="240.845,-342.562 251.44,-342.461 243.095,-335.933 240.845,-342.562"/>
</g>
<!-- Node19 -->
<g id="node13" class="node"><title>Node19</title>
<g id="a_node13"><a xlink:href="a00843.html#ad40a7809c9bdf183926da011220bad75" target="_top" xlink:title="ParMETIS_V3_RefineKway">
<polygon fill="white" stroke="black" points="226.5,-190.5 226.5,-209.5 365.5,-209.5 365.5,-190.5 226.5,-190.5"/>
<text text-anchor="middle" x="296" y="-197.5" font-family="Helvetica,sans-Serif" font-size="10.00">ParMETIS_V3_RefineKway</text>
</a>
</g>
</g>
<!-- Node8&#45;&gt;Node19 -->
<g id="edge17" class="edge"><title>Node8&#45;&gt;Node19</title>
<path fill="none" stroke="midnightblue" d="M170.889,-228.411C192.893,-223.374 220.055,-217.156 243.352,-211.823"/>
<polygon fill="midnightblue" stroke="midnightblue" points="244.446,-215.163 253.412,-209.52 242.884,-208.34 244.446,-215.163"/>
</g>
<!-- Node20 -->
<g id="node14" class="node"><title>Node20</title>
<g id="a_node14"><a xlink:href="a00843.html#a6df93293cf3d1ccb4659bd1b3091623d" target="_top" xlink:title="ParMETIS_V3_PartGeomKway">
<polygon fill="white" stroke="black" points="218,-152.5 218,-171.5 374,-171.5 374,-152.5 218,-152.5"/>
<text text-anchor="middle" x="296" y="-159.5" font-family="Helvetica,sans-Serif" font-size="10.00">ParMETIS_V3_PartGeomKway</text>
</a>
</g>
</g>
<!-- Node8&#45;&gt;Node20 -->
<g id="edge18" class="edge"><title>Node8&#45;&gt;Node20</title>
<path fill="none" stroke="midnightblue" d="M141.231,-228.299C157.741,-215.657 188.497,-193.675 218,-181 223.728,-178.539 229.84,-176.354 236.019,-174.425"/>
<polygon fill="midnightblue" stroke="midnightblue" points="237.113,-177.751 245.739,-171.6 235.16,-171.029 237.113,-177.751"/>
</g>
<!-- Node21 -->
<g id="node15" class="node"><title>Node21</title>
<g id="a_node15"><a xlink:href="a00843.html#aab31b6450a3228063206eddded9de65e" target="_top" xlink:title="ParMETIS_V3_PartGeom">
<polygon fill="white" stroke="black" points="230,-114.5 230,-133.5 362,-133.5 362,-114.5 230,-114.5"/>
<text text-anchor="middle" x="296" y="-121.5" font-family="Helvetica,sans-Serif" font-size="10.00">ParMETIS_V3_PartGeom</text>
</a>
</g>
</g>
<!-- Node8&#45;&gt;Node21 -->
<g id="edge19" class="edge"><title>Node8&#45;&gt;Node21</title>
<path fill="none" stroke="midnightblue" d="M135.077,-228.481C147.914,-209.183 179.78,-165.392 218,-143 221.846,-140.747 225.951,-138.759 230.188,-137.007"/>
<polygon fill="midnightblue" stroke="midnightblue" points="231.448,-140.272 239.624,-133.533 229.03,-133.703 231.448,-140.272"/>
</g>
<!-- Node22 -->
<g id="node16" class="node"><title>Node22</title>
<g id="a_node16"><a xlink:href="a00437.html#a136ad3b21ef4f877c3100a997814e8ce" target="_top" xlink:title="TestMoveGraph">
<polygon fill="white" stroke="black" points="252,-76.5 252,-95.5 340,-95.5 340,-76.5 252,-76.5"/>
<text text-anchor="middle" x="296" y="-83.5" font-family="Helvetica,sans-Serif" font-size="10.00">TestMoveGraph</text>
</a>
</g>
</g>
<!-- Node8&#45;&gt;Node22 -->
<g id="edge20" class="edge"><title>Node8&#45;&gt;Node22</title>
<path fill="none" stroke="midnightblue" d="M132.637,-228.161C142.348,-203.314 171.365,-137.698 218,-105 225.208,-99.946 233.619,-96.2313 242.182,-93.5022"/>
<polygon fill="midnightblue" stroke="midnightblue" points="243.156,-96.8642 251.859,-90.821 241.287,-90.1184 243.156,-96.8642"/>
</g>
<!-- Node25 -->
<g id="node19" class="node"><title>Node25</title>
<g id="a_node19"><a xlink:href="a00437.html#a8003a74d9258bf251cc16e3b964c4b69" target="_top" xlink:title="ComputeRealCutFromMoved">
<polygon fill="white" stroke="black" points="222.5,-380.5 222.5,-399.5 369.5,-399.5 369.5,-380.5 222.5,-380.5"/>
<text text-anchor="middle" x="296" y="-387.5" font-family="Helvetica,sans-Serif" font-size="10.00">ComputeRealCutFromMoved</text>
</a>
</g>
</g>
<!-- Node8&#45;&gt;Node25 -->
<g id="edge24" class="edge"><title>Node8&#45;&gt;Node25</title>
<path fill="none" stroke="midnightblue" d="M132.637,-247.839C142.348,-272.686 171.365,-338.302 218,-371 220.848,-372.997 223.885,-374.785 227.044,-376.386"/>
<polygon fill="midnightblue" stroke="midnightblue" points="225.656,-379.599 236.219,-380.419 228.473,-373.191 225.656,-379.599"/>
</g>
<!-- Node26 -->
<g id="node20" class="node"><title>Node26</title>
<g id="a_node20"><a xlink:href="a00422.html#abe7cfd52605c309687e45b1d1e0d936c" target="_top" xlink:title="AdaptGraph">
<polygon fill="white" stroke="black" points="261,-38.5 261,-57.5 331,-57.5 331,-38.5 261,-38.5"/>
<text text-anchor="middle" x="296" y="-45.5" font-family="Helvetica,sans-Serif" font-size="10.00">AdaptGraph</text>
</a>
</g>
</g>
<!-- Node8&#45;&gt;Node26 -->
<g id="edge27" class="edge"><title>Node8&#45;&gt;Node26</title>
<path fill="none" stroke="midnightblue" d="M131.041,-228.469C137.793,-199.347 162.229,-110.86 218,-67 227.375,-59.6268 239.223,-55.068 250.795,-52.2631"/>
<polygon fill="midnightblue" stroke="midnightblue" points="251.723,-55.646 260.825,-50.2231 250.328,-48.7865 251.723,-55.646"/>
</g>
<!-- Node27 -->
<g id="node21" class="node"><title>Node27</title>
<g id="a_node21"><a xlink:href="a00843.html#ac00c3da2cf618cbfa9158463a851491e" target="_top" xlink:title="ParMETIS_V3_AdaptiveRepart">
<polygon fill="white" stroke="black" points="218.5,-0.5 218.5,-19.5 373.5,-19.5 373.5,-0.5 218.5,-0.5"/>
<text text-anchor="middle" x="296" y="-7.5" font-family="Helvetica,sans-Serif" font-size="10.00">ParMETIS_V3_AdaptiveRepart</text>
</a>
</g>
</g>
<!-- Node8&#45;&gt;Node27 -->
<g id="edge28" class="edge"><title>Node8&#45;&gt;Node27</title>
<path fill="none" stroke="midnightblue" d="M130.088,-228.33C134.366,-195.042 153.126,-84.2074 218,-29 219.973,-27.3213 222.071,-25.7867 224.267,-24.384"/>
<polygon fill="midnightblue" stroke="midnightblue" points="226.004,-27.4236 233.152,-19.6029 222.687,-21.2593 226.004,-27.4236"/>
</g>
<!-- Node10 -->
<g id="node4" class="node"><title>Node10</title>
<g id="a_node4"><a xlink:href="a01017.html#a355ed4cdac2a27aa04a6689ac2d7e86e" target="_top" xlink:title="fclose">
<polygon fill="white" stroke="black" points="563.5,-456.5 563.5,-475.5 606.5,-475.5 606.5,-456.5 563.5,-456.5"/>
<text text-anchor="middle" x="585" y="-463.5" font-family="Helvetica,sans-Serif" font-size="10.00">fclose</text>
</a>
</g>
</g>
<!-- Node9&#45;&gt;Node10 -->
<g id="edge3" class="edge"><title>Node9&#45;&gt;Node10</title>
<path fill="none" stroke="midnightblue" d="M518.205,-466C530.145,-466 542.534,-466 553.298,-466"/>
<polygon fill="midnightblue" stroke="midnightblue" points="553.443,-469.5 563.443,-466 553.443,-462.5 553.443,-469.5"/>
</g>
<!-- Node9&#45;&gt;Node11 -->
<g id="edge4" class="edge"><title>Node9&#45;&gt;Node11</title>
<path fill="none" stroke="midnightblue" d="M491.663,-456.463C501.733,-452.25 513.543,-447.101 524,-442 535.652,-436.316 548.265,-429.486 558.906,-423.518"/>
<polygon fill="midnightblue" stroke="midnightblue" points="560.702,-426.523 567.675,-418.546 557.25,-420.433 560.702,-426.523"/>
</g>
<!-- Node12&#45;&gt;Node10 -->
<g id="edge8" class="edge"><title>Node12&#45;&gt;Node10</title>
<path fill="none" stroke="midnightblue" d="M497.272,-494.411C514.44,-488.787 536.101,-481.691 553.481,-475.998"/>
<polygon fill="midnightblue" stroke="midnightblue" points="554.739,-479.269 563.153,-472.829 552.56,-472.616 554.739,-479.269"/>
</g>
<!-- Node12&#45;&gt;Node11 -->
<g id="edge9" class="edge"><title>Node12&#45;&gt;Node11</title>
<path fill="none" stroke="midnightblue" d="M505.899,-494.481C512.255,-491.969 518.549,-488.849 524,-485 535.551,-476.844 557.832,-446.586 571.752,-426.797"/>
<polygon fill="midnightblue" stroke="midnightblue" points="574.647,-428.765 577.491,-418.559 568.903,-424.764 574.647,-428.765"/>
</g>
<!-- Node13 -->
<g id="node7" class="node"><title>Node13</title>
<g id="a_node7"><a xlink:href="a00026.html#a56d0f2cc40cd8633a784582d6200d8b5" target="_top" xlink:title="errexit">
<polygon fill="white" stroke="black" points="563,-494.5 563,-513.5 607,-513.5 607,-494.5 563,-494.5"/>
<text text-anchor="middle" x="585" y="-501.5" font-family="Helvetica,sans-Serif" font-size="10.00">errexit</text>
</a>
</g>
</g>
<!-- Node12&#45;&gt;Node13 -->
<g id="edge6" class="edge"><title>Node12&#45;&gt;Node13</title>
<path fill="none" stroke="midnightblue" d="M524.301,-504C534.068,-504 543.9,-504 552.686,-504"/>
<polygon fill="midnightblue" stroke="midnightblue" points="552.811,-507.5 562.811,-504 552.811,-500.5 552.811,-507.5"/>
</g>
<!-- Node14 -->
<g id="node8" class="node"><title>Node14</title>
<g id="a_node8"><a xlink:href="a01017.html#a2e311a777ffe9c80e405efa7cd2757be" target="_top" xlink:title="fprintf">
<polygon fill="white" stroke="black" points="646,-494.5 646,-513.5 688,-513.5 688,-494.5 646,-494.5"/>
<text text-anchor="middle" x="667" y="-501.5" font-family="Helvetica,sans-Serif" font-size="10.00">fprintf</text>
</a>
</g>
</g>
<!-- Node13&#45;&gt;Node14 -->
<g id="edge7" class="edge"><title>Node13&#45;&gt;Node14</title>
<path fill="none" stroke="midnightblue" d="M607.019,-504C615.858,-504 626.308,-504 635.937,-504"/>
<polygon fill="midnightblue" stroke="midnightblue" points="635.948,-507.5 645.948,-504 635.948,-500.5 635.948,-507.5"/>
</g>
<!-- Node17&#45;&gt;Node11 -->
<g id="edge16" class="edge"><title>Node17&#45;&gt;Node11</title>
<path fill="none" stroke="midnightblue" d="M342.644,-349.532C389.419,-348.439 463.642,-350.727 524,-371 538.572,-375.894 553.181,-385.034 564.335,-393.123"/>
<polygon fill="midnightblue" stroke="midnightblue" points="562.387,-396.039 572.473,-399.284 566.613,-390.458 562.387,-396.039"/>
</g>
<!-- Node18 -->
<g id="node12" class="node"><title>Node18</title>
<g id="a_node12"><a xlink:href="a00864.html#a4ff02bbc05033b431cc3b60bc2f2a1a4" target="_top" xlink:title="ReadMetisGraph">
<polygon fill="white" stroke="black" points="421,-380.5 421,-399.5 513,-399.5 513,-380.5 421,-380.5"/>
<text text-anchor="middle" x="467" y="-387.5" font-family="Helvetica,sans-Serif" font-size="10.00">ReadMetisGraph</text>
</a>
</g>
</g>
<!-- Node17&#45;&gt;Node18 -->
<g id="edge13" class="edge"><title>Node17&#45;&gt;Node18</title>
<path fill="none" stroke="midnightblue" d="M339.646,-361.589C362.148,-366.649 389.948,-372.9 413.738,-378.249"/>
<polygon fill="midnightblue" stroke="midnightblue" points="413.137,-381.701 423.661,-380.48 414.672,-374.871 413.137,-381.701"/>
</g>
<!-- Node18&#45;&gt;Node10 -->
<g id="edge14" class="edge"><title>Node18&#45;&gt;Node10</title>
<path fill="none" stroke="midnightblue" d="M482.691,-399.625C502.39,-412.531 537.572,-435.582 560.851,-450.833"/>
<polygon fill="midnightblue" stroke="midnightblue" points="559.145,-453.9 569.428,-456.453 562.981,-448.045 559.145,-453.9"/>
</g>
<!-- Node18&#45;&gt;Node11 -->
<g id="edge15" class="edge"><title>Node18&#45;&gt;Node11</title>
<path fill="none" stroke="midnightblue" d="M513.181,-397.4C525.357,-399.395 538.327,-401.519 549.795,-403.397"/>
<polygon fill="midnightblue" stroke="midnightblue" points="549.405,-406.88 559.839,-405.043 550.536,-399.972 549.405,-406.88"/>
</g>
<!-- Node23 -->
<g id="node17" class="node"><title>Node23</title>
<g id="a_node17"><a xlink:href="a00428.html#ac5472d28ea064341acff9be6744eea92" target="_top" xlink:title="SetUpGraph">
<polygon fill="white" stroke="black" points="431,-95.5 431,-114.5 503,-114.5 503,-95.5 431,-95.5"/>
<text text-anchor="middle" x="467" y="-102.5" font-family="Helvetica,sans-Serif" font-size="10.00">SetUpGraph</text>
</a>
</g>
</g>
<!-- Node22&#45;&gt;Node23 -->
<g id="edge21" class="edge"><title>Node22&#45;&gt;Node23</title>
<path fill="none" stroke="midnightblue" d="M340.083,-90.8437C364.837,-93.6267 395.891,-97.118 420.966,-99.937"/>
<polygon fill="midnightblue" stroke="midnightblue" points="420.629,-103.421 430.957,-101.06 421.411,-96.4649 420.629,-103.421"/>
</g>
<!-- Node24 -->
<g id="node18" class="node"><title>Node24</title>
<g id="a_node18"><a xlink:href="a00437.html#aff9e935a0b03f0424e9c241573bb437b" target="_top" xlink:title="TestSetUpGraph">
<polygon fill="white" stroke="black" points="421,-57.5 421,-76.5 513,-76.5 513,-57.5 421,-57.5"/>
<text text-anchor="middle" x="467" y="-64.5" font-family="Helvetica,sans-Serif" font-size="10.00">TestSetUpGraph</text>
</a>
</g>
</g>
<!-- Node22&#45;&gt;Node24 -->
<g id="edge22" class="edge"><title>Node22&#45;&gt;Node24</title>
<path fill="none" stroke="midnightblue" d="M340.083,-81.1563C361.636,-78.7333 387.964,-75.7733 410.963,-73.1876"/>
<polygon fill="midnightblue" stroke="midnightblue" points="411.382,-76.6626 420.929,-72.0672 410.6,-69.7064 411.382,-76.6626"/>
</g>
<!-- Node25&#45;&gt;Node11 -->
<g id="edge26" class="edge"><title>Node25&#45;&gt;Node11</title>
<path fill="none" stroke="midnightblue" d="M342.963,-399.512C363.392,-403.278 387.797,-407.146 410,-409 458.288,-413.031 514.377,-412.011 549.533,-410.686"/>
<polygon fill="midnightblue" stroke="midnightblue" points="549.89,-414.175 559.739,-410.271 549.605,-407.181 549.89,-414.175"/>
</g>
<!-- Node25&#45;&gt;Node18 -->
<g id="edge25" class="edge"><title>Node25&#45;&gt;Node18</title>
<path fill="none" stroke="midnightblue" d="M369.652,-390C383.347,-390 397.465,-390 410.529,-390"/>
<polygon fill="midnightblue" stroke="midnightblue" points="410.753,-393.5 420.753,-390 410.753,-386.5 410.753,-393.5"/>
</g>
</g>
</svg>
