<?xml version="1.0" encoding="UTF-8" standalone="no"?>
<!DOCTYPE svg PUBLIC "-//W3C//DTD SVG 1.1//EN"
 "http://www.w3.org/Graphics/SVG/1.1/DTD/svg11.dtd">
<!-- Generated by graphviz version 2.36.0 (20140111.2315)
 -->
<!-- Title: TestSetUpGraph Pages: 1 -->
<svg width="442pt" height="28pt"
 viewBox="0.00 0.00 442.00 28.00" xmlns="http://www.w3.org/2000/svg" xmlns:xlink="http://www.w3.org/1999/xlink">
<g id="graph0" class="graph" transform="scale(1 1) rotate(0) translate(4 24)">
<title>TestSetUpGraph</title>
<polygon fill="white" stroke="none" points="-4,4 -4,-24 438,-24 438,4 -4,4"/>
<!-- Node65 -->
<g id="node1" class="node"><title>Node65</title>
<polygon fill="#bfbfbf" stroke="black" points="0,-0.5 0,-19.5 92,-19.5 92,-0.5 0,-0.5"/>
<text text-anchor="middle" x="46" y="-7.5" font-family="Helvetica,sans-Serif" font-size="10.00">TestSetUpGraph</text>
</g>
<!-- Node66 -->
<g id="node2" class="node"><title>Node66</title>
<g id="a_node2"><a xlink:href="a00437.html#a136ad3b21ef4f877c3100a997814e8ce" target="_top" xlink:title="TestMoveGraph">
<polygon fill="white" stroke="black" points="128,-0.5 128,-19.5 216,-19.5 216,-0.5 128,-0.5"/>
<text text-anchor="middle" x="172" y="-7.5" font-family="Helvetica,sans-Serif" font-size="10.00">TestMoveGraph</text>
</a>
</g>
</g>
<!-- Node65&#45;&gt;Node66 -->
<g id="edge1" class="edge"><title>Node65&#45;&gt;Node66</title>
<path fill="none" stroke="midnightblue" d="M102.377,-10C110.893,-10 119.577,-10 127.778,-10"/>
<polygon fill="midnightblue" stroke="midnightblue" points="102.118,-6.5001 92.1176,-10 102.118,-13.5001 102.118,-6.5001"/>
</g>
<!-- Node67 -->
<g id="node3" class="node"><title>Node67</title>
<g id="a_node3"><a xlink:href="a00437.html#adb0c2dc0c5138f35c71739328c702074" target="_top" xlink:title="TestParMetis_GPart">
<polygon fill="white" stroke="black" points="252.5,-0.5 252.5,-19.5 359.5,-19.5 359.5,-0.5 252.5,-0.5"/>
<text text-anchor="middle" x="306" y="-7.5" font-family="Helvetica,sans-Serif" font-size="10.00">TestParMetis_GPart</text>
</a>
</g>
</g>
<!-- Node66&#45;&gt;Node67 -->
<g id="edge2" class="edge"><title>Node66&#45;&gt;Node67</title>
<path fill="none" stroke="midnightblue" d="M226.489,-10C235.059,-10 243.921,-10 252.469,-10"/>
<polygon fill="midnightblue" stroke="midnightblue" points="226.222,-6.5001 216.222,-10 226.222,-13.5001 226.222,-6.5001"/>
</g>
<!-- Node68 -->
<g id="node4" class="node"><title>Node68</title>
<g id="a_node4"><a xlink:href="a00428.html#a8f4019835796a39a97c345864d80fcbb" target="_top" xlink:title="main">
<polygon fill="white" stroke="black" points="396,-0.5 396,-19.5 434,-19.5 434,-0.5 396,-0.5"/>
<text text-anchor="middle" x="415" y="-7.5" font-family="Helvetica,sans-Serif" font-size="10.00">main</text>
</a>
</g>
</g>
<!-- Node67&#45;&gt;Node68 -->
<g id="edge3" class="edge"><title>Node67&#45;&gt;Node68</title>
<path fill="none" stroke="midnightblue" d="M369.658,-10C379.26,-10 388.455,-10 395.959,-10"/>
<polygon fill="midnightblue" stroke="midnightblue" points="369.56,-6.5001 359.56,-10 369.56,-13.5001 369.56,-6.5001"/>
</g>
</g>
</svg>
