<?xml version="1.0" encoding="UTF-8" standalone="no"?>
<!DOCTYPE svg PUBLIC "-//W3C//DTD SVG 1.1//EN"
 "http://www.w3.org/Graphics/SVG/1.1/DTD/svg11.dtd">
<!-- Generated by graphviz version 2.36.0 (20140111.2315)
 -->
<!-- Title: Serial_Compute2WayHLoadImbalance Pages: 1 -->
<svg width="376pt" height="66pt"
 viewBox="0.00 0.00 376.00 66.00" xmlns="http://www.w3.org/2000/svg" xmlns:xlink="http://www.w3.org/1999/xlink">
<g id="graph0" class="graph" transform="scale(1 1) rotate(0) translate(4 62)">
<title>Serial_Compute2WayHLoadImbalance</title>
<polygon fill="white" stroke="none" points="-4,4 -4,-62 372,-62 372,4 -4,4"/>
<!-- Node40 -->
<g id="node1" class="node"><title>Node40</title>
<polygon fill="#bfbfbf" stroke="black" points="0.5,-19.5 0.5,-38.5 189.5,-38.5 189.5,-19.5 0.5,-19.5"/>
<text text-anchor="middle" x="95" y="-26.5" font-family="Helvetica,sans-Serif" font-size="10.00">Serial_Compute2WayHLoadImbalance</text>
</g>
<!-- Node41 -->
<g id="node2" class="node"><title>Node41</title>
<g id="a_node2"><a xlink:href="$a00407.html#a9e8699c39f355dea5ad38e1dfee7b7cf" xlink:title="Mc_Serial_FM_2WayRefine">
<polygon fill="white" stroke="black" points="226.5,-38.5 226.5,-57.5 367.5,-57.5 367.5,-38.5 226.5,-38.5"/>
<text text-anchor="middle" x="297" y="-45.5" font-family="Helvetica,sans-Serif" font-size="10.00">Mc_Serial_FM_2WayRefine</text>
</a>
</g>
</g>
<!-- Node40&#45;&gt;Node41 -->
<g id="edge1" class="edge"><title>Node40&#45;&gt;Node41</title>
<path fill="none" stroke="midnightblue" d="M199.747,-38.856C208.77,-39.7131 217.752,-40.5664 226.398,-41.3879"/>
<polygon fill="midnightblue" stroke="midnightblue" points="199.845,-35.3496 189.559,-37.8881 199.183,-42.3182 199.845,-35.3496"/>
</g>
<!-- Node42 -->
<g id="node3" class="node"><title>Node42</title>
<g id="a_node3"><a xlink:href="$a00407.html#a89fa5b7aa9a8bab154de5a47d47d9d60" xlink:title="Mc_Serial_Balance2Way">
<polygon fill="white" stroke="black" points="233,-0.5 233,-19.5 361,-19.5 361,-0.5 233,-0.5"/>
<text text-anchor="middle" x="297" y="-7.5" font-family="Helvetica,sans-Serif" font-size="10.00">Mc_Serial_Balance2Way</text>
</a>
</g>
</g>
<!-- Node40&#45;&gt;Node42 -->
<g id="edge2" class="edge"><title>Node40&#45;&gt;Node42</title>
<path fill="none" stroke="midnightblue" d="M199.523,-19.1653C210.86,-18.0883 222.137,-17.0169 232.77,-16.0068"/>
<polygon fill="midnightblue" stroke="midnightblue" points="199.183,-15.6818 189.559,-20.1119 199.845,-22.6504 199.183,-15.6818"/>
</g>
</g>
</svg>
