<?xml version="1.0" encoding="UTF-8" standalone="no"?>
<!DOCTYPE svg PUBLIC "-//W3C//DTD SVG 1.1//EN"
 "http://www.w3.org/Graphics/SVG/1.1/DTD/svg11.dtd">
<!-- Generated by graphviz version 2.36.0 (20140111.2315)
 -->
<!-- Title: Mc_Serial_Init2WayBalance Pages: 1 -->
<svg width="330pt" height="66pt"
 viewBox="0.00 0.00 330.00 66.00" xmlns="http://www.w3.org/2000/svg" xmlns:xlink="http://www.w3.org/1999/xlink">
<g id="graph0" class="graph" transform="scale(1 1) rotate(0) translate(4 62)">
<title>Mc_Serial_Init2WayBalance</title>
<polygon fill="white" stroke="none" points="-4,4 -4,-62 326,-62 326,4 -4,4"/>
<!-- Node24 -->
<g id="node1" class="node"><title>Node24</title>
<polygon fill="#bfbfbf" stroke="black" points="0,-19.5 0,-38.5 142,-38.5 142,-19.5 0,-19.5"/>
<text text-anchor="middle" x="71" y="-26.5" font-family="Helvetica,sans-Serif" font-size="10.00">Mc_Serial_Init2WayBalance</text>
</g>
<!-- Node25 -->
<g id="node2" class="node"><title>Node25</title>
<g id="a_node2"><a xlink:href="$a00407.html#ad0ed41db7a15698760c73a84b9eb64fc" xlink:title="Serial_AreAnyVwgtsBelow">
<polygon fill="white" stroke="black" points="182.5,-38.5 182.5,-57.5 317.5,-57.5 317.5,-38.5 182.5,-38.5"/>
<text text-anchor="middle" x="250" y="-45.5" font-family="Helvetica,sans-Serif" font-size="10.00">Serial_AreAnyVwgtsBelow</text>
</a>
</g>
</g>
<!-- Node24&#45;&gt;Node25 -->
<g id="edge1" class="edge"><title>Node24&#45;&gt;Node25</title>
<path fill="none" stroke="midnightblue" d="M142.209,-36.5366C152.023,-37.5901 162.151,-38.6772 172.081,-39.7431"/>
<polygon fill="midnightblue" stroke="midnightblue" points="172.019,-43.2565 182.336,-40.8439 172.766,-36.2965 172.019,-43.2565"/>
</g>
<!-- Node26 -->
<g id="node3" class="node"><title>Node26</title>
<g id="a_node3"><a xlink:href="$a00407.html#a9f0787bb9b0a641e0f5cdcbb6152ff1f" xlink:title="Serial_SelectQueueOneWay">
<polygon fill="white" stroke="black" points="178,-0.5 178,-19.5 322,-19.5 322,-0.5 178,-0.5"/>
<text text-anchor="middle" x="250" y="-7.5" font-family="Helvetica,sans-Serif" font-size="10.00">Serial_SelectQueueOneWay</text>
</a>
</g>
</g>
<!-- Node24&#45;&gt;Node26 -->
<g id="edge2" class="edge"><title>Node24&#45;&gt;Node26</title>
<path fill="none" stroke="midnightblue" d="M142.209,-21.4634C150.603,-20.5623 159.227,-19.6367 167.76,-18.7207"/>
<polygon fill="midnightblue" stroke="midnightblue" points="168.147,-22.1993 177.716,-17.6519 167.4,-15.2393 168.147,-22.1993"/>
</g>
</g>
</svg>
