<?xml version="1.0" encoding="UTF-8" standalone="no"?>
<!DOCTYPE svg PUBLIC "-//W3C//DTD SVG 1.1//EN"
 "http://www.w3.org/Graphics/SVG/1.1/DTD/svg11.dtd">
<!-- Generated by graphviz version 2.36.0 (20140111.2315)
 -->
<!-- Title: ParMETIS_V3_RefineKway Pages: 1 -->
<svg width="308pt" height="104pt"
 viewBox="0.00 0.00 308.00 104.00" xmlns="http://www.w3.org/2000/svg" xmlns:xlink="http://www.w3.org/1999/xlink">
<g id="graph0" class="graph" transform="scale(1 1) rotate(0) translate(4 100)">
<title>ParMETIS_V3_RefineKway</title>
<polygon fill="white" stroke="none" points="-4,4 -4,-100 304,-100 304,4 -4,4"/>
<!-- Node0 -->
<g id="node1" class="node"><title>Node0</title>
<polygon fill="#bfbfbf" stroke="black" points="0.5,-38.5 0.5,-57.5 139.5,-57.5 139.5,-38.5 0.5,-38.5"/>
<text text-anchor="middle" x="70" y="-45.5" font-family="Helvetica,sans-Serif" font-size="10.00">ParMETIS_V3_RefineKway</text>
</g>
<!-- Node1 -->
<g id="node2" class="node"><title>Node1</title>
<g id="a_node2"><a xlink:href="$a00077.html#a24633cc1c72a7e92836912c2adcf570a" xlink:title="gk_malloc_init">
<polygon fill="white" stroke="black" points="198,-76.5 198,-95.5 278,-95.5 278,-76.5 198,-76.5"/>
<text text-anchor="middle" x="238" y="-83.5" font-family="Helvetica,sans-Serif" font-size="10.00">gk_malloc_init</text>
</a>
</g>
</g>
<!-- Node0&#45;&gt;Node1 -->
<g id="edge1" class="edge"><title>Node0&#45;&gt;Node1</title>
<path fill="none" stroke="midnightblue" d="M112.889,-57.589C135.748,-62.8218 164.173,-69.3288 188.05,-74.7947"/>
<polygon fill="midnightblue" stroke="midnightblue" points="187.447,-78.2469 197.975,-77.0667 189.009,-71.4234 187.447,-78.2469"/>
</g>
<!-- Node2 -->
<g id="node3" class="node"><title>Node2</title>
<g id="a_node3"><a xlink:href="$a00077.html#ad2327b94227019b6753b6b09400c0522" xlink:title="gk_GetCurMemoryUsed">
<polygon fill="white" stroke="black" points="176,-38.5 176,-57.5 300,-57.5 300,-38.5 176,-38.5"/>
<text text-anchor="middle" x="238" y="-45.5" font-family="Helvetica,sans-Serif" font-size="10.00">gk_GetCurMemoryUsed</text>
</a>
</g>
</g>
<!-- Node0&#45;&gt;Node2 -->
<g id="edge2" class="edge"><title>Node0&#45;&gt;Node2</title>
<path fill="none" stroke="midnightblue" d="M139.957,-48C148.536,-48 157.322,-48 165.932,-48"/>
<polygon fill="midnightblue" stroke="midnightblue" points="165.937,-51.5001 175.937,-48 165.937,-44.5001 165.937,-51.5001"/>
</g>
<!-- Node3 -->
<g id="node4" class="node"><title>Node3</title>
<g id="a_node4"><a xlink:href="$a00077.html#a47156a22528b5bc8c7c6e9849af34e62" xlink:title="gk_malloc_cleanup">
<polygon fill="white" stroke="black" points="187,-0.5 187,-19.5 289,-19.5 289,-0.5 187,-0.5"/>
<text text-anchor="middle" x="238" y="-7.5" font-family="Helvetica,sans-Serif" font-size="10.00">gk_malloc_cleanup</text>
</a>
</g>
</g>
<!-- Node0&#45;&gt;Node3 -->
<g id="edge3" class="edge"><title>Node0&#45;&gt;Node3</title>
<path fill="none" stroke="midnightblue" d="M112.889,-38.411C134.893,-33.3739 162.055,-27.1562 185.352,-21.8229"/>
<polygon fill="midnightblue" stroke="midnightblue" points="186.446,-25.1633 195.412,-19.5201 184.884,-18.3398 186.446,-25.1633"/>
</g>
</g>
</svg>
