<?xml version="1.0" encoding="UTF-8" standalone="no"?>
<!DOCTYPE svg PUBLIC "-//W3C//DTD SVG 1.1//EN"
 "http://www.w3.org/Graphics/SVG/1.1/DTD/svg11.dtd">
<!-- Generated by graphviz version 2.36.0 (20140111.2315)
 -->
<!-- Title: SetUpGraph Pages: 1 -->
<svg width="422pt" height="66pt"
 viewBox="0.00 0.00 422.00 66.00" xmlns="http://www.w3.org/2000/svg" xmlns:xlink="http://www.w3.org/1999/xlink">
<g id="graph0" class="graph" transform="scale(1 1) rotate(0) translate(4 62)">
<title>SetUpGraph</title>
<polygon fill="white" stroke="none" points="-4,4 -4,-62 418,-62 418,4 -4,4"/>
<!-- Node30 -->
<g id="node1" class="node"><title>Node30</title>
<polygon fill="#bfbfbf" stroke="black" points="0,-19.5 0,-38.5 72,-38.5 72,-19.5 0,-19.5"/>
<text text-anchor="middle" x="36" y="-26.5" font-family="Helvetica,sans-Serif" font-size="10.00">SetUpGraph</text>
</g>
<!-- Node31 -->
<g id="node2" class="node"><title>Node31</title>
<g id="a_node2"><a xlink:href="a00957.html#a646249107ea9150124408b418ad61f15" target="_top" xlink:title="TestMoveGraph">
<polygon fill="white" stroke="black" points="108,-19.5 108,-38.5 196,-38.5 196,-19.5 108,-19.5"/>
<text text-anchor="middle" x="152" y="-26.5" font-family="Helvetica,sans-Serif" font-size="10.00">TestMoveGraph</text>
</a>
</g>
</g>
<!-- Node30&#45;&gt;Node31 -->
<g id="edge1" class="edge"><title>Node30&#45;&gt;Node31</title>
<path fill="none" stroke="midnightblue" d="M82.1755,-29C90.5972,-29 99.3791,-29 107.741,-29"/>
<polygon fill="midnightblue" stroke="midnightblue" points="82.134,-25.5001 72.134,-29 82.1339,-32.5001 82.134,-25.5001"/>
</g>
<!-- Node32 -->
<g id="node3" class="node"><title>Node32</title>
<g id="a_node3"><a xlink:href="a00428.html#ac0ca0065f1dc35b0f4fe4d1968313dca" target="_top" xlink:title="TestParMetis">
<polygon fill="white" stroke="black" points="248.5,-38.5 248.5,-57.5 323.5,-57.5 323.5,-38.5 248.5,-38.5"/>
<text text-anchor="middle" x="286" y="-45.5" font-family="Helvetica,sans-Serif" font-size="10.00">TestParMetis</text>
</a>
</g>
</g>
<!-- Node31&#45;&gt;Node32 -->
<g id="edge2" class="edge"><title>Node31&#45;&gt;Node32</title>
<path fill="none" stroke="midnightblue" d="M206.31,-36.6734C220.412,-38.7032 235.318,-40.8487 248.318,-42.7201"/>
<polygon fill="midnightblue" stroke="midnightblue" points="206.618,-33.1818 196.222,-35.2213 205.621,-40.1104 206.618,-33.1818"/>
</g>
<!-- Node33 -->
<g id="node4" class="node"><title>Node33</title>
<g id="a_node4"><a xlink:href="a00437.html#adb0c2dc0c5138f35c71739328c702074" target="_top" xlink:title="TestParMetis_GPart">
<polygon fill="white" stroke="black" points="232.5,-0.5 232.5,-19.5 339.5,-19.5 339.5,-0.5 232.5,-0.5"/>
<text text-anchor="middle" x="286" y="-7.5" font-family="Helvetica,sans-Serif" font-size="10.00">TestParMetis_GPart</text>
</a>
</g>
</g>
<!-- Node31&#45;&gt;Node33 -->
<g id="edge3" class="edge"><title>Node31&#45;&gt;Node33</title>
<path fill="none" stroke="midnightblue" d="M206.207,-21.3414C214.865,-20.0953 223.827,-18.8051 232.469,-17.5613"/>
<polygon fill="midnightblue" stroke="midnightblue" points="205.621,-17.8896 196.222,-22.7787 206.618,-24.8182 205.621,-17.8896"/>
</g>
<!-- Node34 -->
<g id="node5" class="node"><title>Node34</title>
<g id="a_node5"><a xlink:href="a00428.html#a8f4019835796a39a97c345864d80fcbb" target="_top" xlink:title="main">
<polygon fill="white" stroke="black" points="376,-0.5 376,-19.5 414,-19.5 414,-0.5 376,-0.5"/>
<text text-anchor="middle" x="395" y="-7.5" font-family="Helvetica,sans-Serif" font-size="10.00">main</text>
</a>
</g>
</g>
<!-- Node33&#45;&gt;Node34 -->
<g id="edge4" class="edge"><title>Node33&#45;&gt;Node34</title>
<path fill="none" stroke="midnightblue" d="M349.658,-10C359.26,-10 368.455,-10 375.959,-10"/>
<polygon fill="midnightblue" stroke="midnightblue" points="349.56,-6.5001 339.56,-10 349.56,-13.5001 349.56,-6.5001"/>
</g>
</g>
</svg>
