<?xml version="1.0" encoding="UTF-8" standalone="no"?>
<!DOCTYPE svg PUBLIC "-//W3C//DTD SVG 1.1//EN"
 "http://www.w3.org/Graphics/SVG/1.1/DTD/svg11.dtd">
<!-- Generated by graphviz version 2.36.0 (20140111.2315)
 -->
<!-- Title: main Pages: 1 -->
<svg width="378pt" height="218pt"
 viewBox="0.00 0.00 378.00 218.00" xmlns="http://www.w3.org/2000/svg" xmlns:xlink="http://www.w3.org/1999/xlink">
<g id="graph0" class="graph" transform="scale(1 1) rotate(0) translate(4 214)">
<title>main</title>
<polygon fill="white" stroke="none" points="-4,4 -4,-214 374,-214 374,4 -4,4"/>
<!-- Node0 -->
<g id="node1" class="node"><title>Node0</title>
<polygon fill="#bfbfbf" stroke="black" points="0,-95.5 0,-114.5 38,-114.5 38,-95.5 0,-95.5"/>
<text text-anchor="middle" x="19" y="-102.5" font-family="Helvetica,sans-Serif" font-size="10.00">main</text>
</g>
<!-- Node1 -->
<g id="node2" class="node"><title>Node1</title>
<g id="a_node2"><a xlink:href="a00864.html#abcd3804c62bf4464f2c8de37a42e6ef8" target="_top" xlink:title="ParallelReadGraph">
<polygon fill="white" stroke="black" points="89,-152.5 89,-171.5 191,-171.5 191,-152.5 89,-152.5"/>
<text text-anchor="middle" x="140" y="-159.5" font-family="Helvetica,sans-Serif" font-size="10.00">ParallelReadGraph</text>
</a>
</g>
</g>
<!-- Node0&#45;&gt;Node1 -->
<g id="edge1" class="edge"><title>Node0&#45;&gt;Node1</title>
<path fill="none" stroke="midnightblue" d="M31.3114,-114.643C41.7838,-123.145 58.0943,-135.34 74,-143 78.7121,-145.269 83.7492,-147.323 88.8562,-149.169"/>
<polygon fill="midnightblue" stroke="midnightblue" points="88.1022,-152.607 98.6961,-152.462 90.324,-145.969 88.1022,-152.607"/>
</g>
<!-- Node3 -->
<g id="node4" class="node"><title>Node3</title>
<g id="a_node4"><a xlink:href="a00077.html#ac8df62c4e3d0910711a9874f9cc58884" target="_top" xlink:title="gk_free">
<polygon fill="white" stroke="black" points="242,-190.5 242,-209.5 292,-209.5 292,-190.5 242,-190.5"/>
<text text-anchor="middle" x="267" y="-197.5" font-family="Helvetica,sans-Serif" font-size="10.00">gk_free</text>
</a>
</g>
</g>
<!-- Node0&#45;&gt;Node3 -->
<g id="edge14" class="edge"><title>Node0&#45;&gt;Node3</title>
<path fill="none" stroke="midnightblue" d="M23.7234,-114.737C30.7174,-131.538 47.5414,-165.645 74,-181 123.067,-209.475 191.247,-208.589 231.774,-204.728"/>
<polygon fill="midnightblue" stroke="midnightblue" points="232.372,-208.184 241.943,-203.641 231.628,-201.224 232.372,-208.184"/>
</g>
<!-- Node4 -->
<g id="node5" class="node"><title>Node4</title>
<g id="a_node5"><a xlink:href="a00843.html#add23df29b4f232ac4c2cca94cc083a32" target="_top" xlink:title="ParMETIS_V3_NodeND">
<polygon fill="white" stroke="black" points="78,-76.5 78,-95.5 202,-95.5 202,-76.5 78,-76.5"/>
<text text-anchor="middle" x="140" y="-83.5" font-family="Helvetica,sans-Serif" font-size="10.00">ParMETIS_V3_NodeND</text>
</a>
</g>
</g>
<!-- Node0&#45;&gt;Node4 -->
<g id="edge4" class="edge"><title>Node0&#45;&gt;Node4</title>
<path fill="none" stroke="midnightblue" d="M38.0735,-102.114C46.7231,-100.733 57.6915,-98.982 69.1897,-97.1462"/>
<polygon fill="midnightblue" stroke="midnightblue" points="70.0625,-100.551 79.3856,-95.5183 68.9588,-93.6388 70.0625,-100.551"/>
</g>
<!-- Node5 -->
<g id="node6" class="node"><title>Node5</title>
<g id="a_node6"><a xlink:href="a00843.html#a1bbf9ca25d902b187988a49ccf435e2b" target="_top" xlink:title="ParMETIS_V32_NodeND">
<polygon fill="white" stroke="black" points="75,-38.5 75,-57.5 205,-57.5 205,-38.5 75,-38.5"/>
<text text-anchor="middle" x="140" y="-45.5" font-family="Helvetica,sans-Serif" font-size="10.00">ParMETIS_V32_NodeND</text>
</a>
</g>
</g>
<!-- Node0&#45;&gt;Node5 -->
<g id="edge5" class="edge"><title>Node0&#45;&gt;Node5</title>
<path fill="none" stroke="midnightblue" d="M31.3114,-95.3574C41.7838,-86.8552 58.0943,-74.6597 74,-67 78.7121,-64.7308 83.7492,-62.6765 88.8562,-60.831"/>
<polygon fill="midnightblue" stroke="midnightblue" points="90.324,-64.0306 98.6961,-57.5376 88.1022,-57.3925 90.324,-64.0306"/>
</g>
<!-- Node6 -->
<g id="node7" class="node"><title>Node6</title>
<g id="a_node7"><a xlink:href="a00843.html#a8bd1a6399ac304da6616cb5329304df6" target="_top" xlink:title="ParMETIS_SerialNodeND">
<polygon fill="white" stroke="black" points="74,-0.5 74,-19.5 206,-19.5 206,-0.5 74,-0.5"/>
<text text-anchor="middle" x="140" y="-7.5" font-family="Helvetica,sans-Serif" font-size="10.00">ParMETIS_SerialNodeND</text>
</a>
</g>
</g>
<!-- Node0&#45;&gt;Node6 -->
<g id="edge6" class="edge"><title>Node0&#45;&gt;Node6</title>
<path fill="none" stroke="midnightblue" d="M24.1591,-95.4975C31.7085,-79.3632 49.2113,-46.6487 74,-29 76.7296,-27.0566 79.657,-25.3105 82.7044,-23.7417"/>
<polygon fill="midnightblue" stroke="midnightblue" points="84.4155,-26.8112 92.1286,-19.5478 81.5694,-20.4159 84.4155,-26.8112"/>
</g>
<!-- Node7 -->
<g id="node8" class="node"><title>Node7</title>
<g id="a_node8"><a xlink:href="a00864.html#a9ff4864d8e906761bd6c55597c085e3b" target="_top" xlink:title="WriteOVector">
<polygon fill="white" stroke="black" points="101.5,-114.5 101.5,-133.5 178.5,-133.5 178.5,-114.5 101.5,-114.5"/>
<text text-anchor="middle" x="140" y="-121.5" font-family="Helvetica,sans-Serif" font-size="10.00">WriteOVector</text>
</a>
</g>
</g>
<!-- Node0&#45;&gt;Node7 -->
<g id="edge7" class="edge"><title>Node0&#45;&gt;Node7</title>
<path fill="none" stroke="midnightblue" d="M38.0735,-107.886C52.1177,-110.128 72.2748,-113.346 90.8876,-116.318"/>
<polygon fill="midnightblue" stroke="midnightblue" points="90.5937,-119.816 101.02,-117.936 91.6974,-112.903 90.5937,-119.816"/>
</g>
<!-- Node2 -->
<g id="node3" class="node"><title>Node2</title>
<g id="a_node3"><a xlink:href="a01017.html#a355ed4cdac2a27aa04a6689ac2d7e86e" target="_top" xlink:title="fclose">
<polygon fill="white" stroke="black" points="245.5,-152.5 245.5,-171.5 288.5,-171.5 288.5,-152.5 245.5,-152.5"/>
<text text-anchor="middle" x="267" y="-159.5" font-family="Helvetica,sans-Serif" font-size="10.00">fclose</text>
</a>
</g>
</g>
<!-- Node1&#45;&gt;Node2 -->
<g id="edge2" class="edge"><title>Node1&#45;&gt;Node2</title>
<path fill="none" stroke="midnightblue" d="M191.122,-162C206.021,-162 221.898,-162 235.18,-162"/>
<polygon fill="midnightblue" stroke="midnightblue" points="235.208,-165.5 245.207,-162 235.207,-158.5 235.208,-165.5"/>
</g>
<!-- Node1&#45;&gt;Node3 -->
<g id="edge3" class="edge"><title>Node1&#45;&gt;Node3</title>
<path fill="none" stroke="midnightblue" d="M172.543,-171.589C190.728,-177.117 213.591,-184.068 232.152,-189.71"/>
<polygon fill="midnightblue" stroke="midnightblue" points="231.378,-193.133 241.963,-192.693 233.414,-186.436 231.378,-193.133"/>
</g>
<!-- Node7&#45;&gt;Node2 -->
<g id="edge13" class="edge"><title>Node7&#45;&gt;Node2</title>
<path fill="none" stroke="midnightblue" d="M174.11,-133.524C184.348,-136.51 195.653,-139.85 206,-143 215.672,-145.945 226.191,-149.243 235.681,-152.254"/>
<polygon fill="midnightblue" stroke="midnightblue" points="234.895,-155.677 245.486,-155.379 237.021,-149.008 234.895,-155.677"/>
</g>
<!-- Node7&#45;&gt;Node3 -->
<g id="edge12" class="edge"><title>Node7&#45;&gt;Node3</title>
<path fill="none" stroke="midnightblue" d="M178.524,-131.334C187.912,-134.127 197.673,-137.913 206,-143 225.853,-155.128 224.836,-165.295 242,-181 242.97,-181.888 243.977,-182.782 245.005,-183.672"/>
<polygon fill="midnightblue" stroke="midnightblue" points="243.072,-186.614 253.016,-190.271 247.523,-181.211 243.072,-186.614"/>
</g>
<!-- Node8 -->
<g id="node9" class="node"><title>Node8</title>
<g id="a_node9"><a xlink:href="a00575.html#ae6aab5c308faac0fc539cc9c6da9fbd0" target="_top" xlink:title="sprintf">
<polygon fill="white" stroke="black" points="245,-114.5 245,-133.5 289,-133.5 289,-114.5 245,-114.5"/>
<text text-anchor="middle" x="267" y="-121.5" font-family="Helvetica,sans-Serif" font-size="10.00">sprintf</text>
</a>
</g>
</g>
<!-- Node7&#45;&gt;Node8 -->
<g id="edge8" class="edge"><title>Node7&#45;&gt;Node8</title>
<path fill="none" stroke="midnightblue" d="M178.504,-124C196.489,-124 217.78,-124 234.857,-124"/>
<polygon fill="midnightblue" stroke="midnightblue" points="234.877,-127.5 244.877,-124 234.877,-120.5 234.877,-127.5"/>
</g>
<!-- Node9 -->
<g id="node10" class="node"><title>Node9</title>
<g id="a_node10"><a xlink:href="a00026.html#a56d0f2cc40cd8633a784582d6200d8b5" target="_top" xlink:title="errexit">
<polygon fill="white" stroke="black" points="245,-76.5 245,-95.5 289,-95.5 289,-76.5 245,-76.5"/>
<text text-anchor="middle" x="267" y="-83.5" font-family="Helvetica,sans-Serif" font-size="10.00">errexit</text>
</a>
</g>
</g>
<!-- Node7&#45;&gt;Node9 -->
<g id="edge9" class="edge"><title>Node7&#45;&gt;Node9</title>
<path fill="none" stroke="midnightblue" d="M174.11,-114.476C184.348,-111.49 195.653,-108.15 206,-105 215.519,-102.102 225.857,-98.8618 235.228,-95.8892"/>
<polygon fill="midnightblue" stroke="midnightblue" points="236.467,-99.1681 244.932,-92.7978 234.342,-92.4984 236.467,-99.1681"/>
</g>
<!-- Node10 -->
<g id="node11" class="node"><title>Node10</title>
<g id="a_node11"><a xlink:href="a01017.html#a2e311a777ffe9c80e405efa7cd2757be" target="_top" xlink:title="fprintf">
<polygon fill="white" stroke="black" points="328,-57.5 328,-76.5 370,-76.5 370,-57.5 328,-57.5"/>
<text text-anchor="middle" x="349" y="-64.5" font-family="Helvetica,sans-Serif" font-size="10.00">fprintf</text>
</a>
</g>
</g>
<!-- Node7&#45;&gt;Node10 -->
<g id="edge11" class="edge"><title>Node7&#45;&gt;Node10</title>
<path fill="none" stroke="midnightblue" d="M178.524,-116.666C187.912,-113.873 197.673,-110.087 206,-105 225.853,-92.8717 220.629,-76.1925 242,-67 265.971,-56.6893 295.908,-57.8006 317.847,-60.8442"/>
<polygon fill="midnightblue" stroke="midnightblue" points="317.487,-64.3309 327.914,-62.4519 318.591,-57.4185 317.487,-64.3309"/>
</g>
<!-- Node9&#45;&gt;Node10 -->
<g id="edge10" class="edge"><title>Node9&#45;&gt;Node10</title>
<path fill="none" stroke="midnightblue" d="M289.019,-81.008C297.858,-78.9086 308.308,-76.427 317.937,-74.1401"/>
<polygon fill="midnightblue" stroke="midnightblue" points="319.028,-77.4784 327.948,-71.7623 317.41,-70.6678 319.028,-77.4784"/>
</g>
</g>
</svg>
