<?xml version="1.0" encoding="UTF-8" standalone="no"?>
<!DOCTYPE svg PUBLIC "-//W3C//DTD SVG 1.1//EN"
 "http://www.w3.org/Graphics/SVG/1.1/DTD/svg11.dtd">
<!-- Generated by graphviz version 2.36.0 (20140111.2315)
 -->
<!-- Title: Mc_Serial_FM_2WayRefine Pages: 1 -->
<svg width="376pt" height="104pt"
 viewBox="0.00 0.00 376.00 104.00" xmlns="http://www.w3.org/2000/svg" xmlns:xlink="http://www.w3.org/1999/xlink">
<g id="graph0" class="graph" transform="scale(1 1) rotate(0) translate(4 100)">
<title>Mc_Serial_FM_2WayRefine</title>
<polygon fill="white" stroke="none" points="-4,4 -4,-100 372,-100 372,4 -4,4"/>
<!-- Node19 -->
<g id="node1" class="node"><title>Node19</title>
<polygon fill="#bfbfbf" stroke="black" points="0.5,-38.5 0.5,-57.5 141.5,-57.5 141.5,-38.5 0.5,-38.5"/>
<text text-anchor="middle" x="71" y="-45.5" font-family="Helvetica,sans-Serif" font-size="10.00">Mc_Serial_FM_2WayRefine</text>
</g>
<!-- Node20 -->
<g id="node2" class="node"><title>Node20</title>
<g id="a_node2"><a xlink:href="$a00407.html#afa6aadaf308fc164c98e67d2511daf03" xlink:title="Serial_Compute2WayHLoadImbalance">
<polygon fill="white" stroke="black" points="178.5,-76.5 178.5,-95.5 367.5,-95.5 367.5,-76.5 178.5,-76.5"/>
<text text-anchor="middle" x="273" y="-83.5" font-family="Helvetica,sans-Serif" font-size="10.00">Serial_Compute2WayHLoadImbalance</text>
</a>
</g>
</g>
<!-- Node19&#45;&gt;Node20 -->
<g id="edge1" class="edge"><title>Node19&#45;&gt;Node20</title>
<path fill="none" stroke="midnightblue" d="M122.21,-57.54C149.433,-62.7122 183.264,-69.1401 211.883,-74.5778"/>
<polygon fill="midnightblue" stroke="midnightblue" points="211.291,-78.0279 221.769,-76.4561 212.598,-71.1509 211.291,-78.0279"/>
</g>
<!-- Node21 -->
<g id="node3" class="node"><title>Node21</title>
<g id="a_node3"><a xlink:href="$a00407.html#a9f3e61c58695c143989d96c57154fb80" xlink:title="Serial_SelectQueue">
<polygon fill="white" stroke="black" points="220.5,-38.5 220.5,-57.5 325.5,-57.5 325.5,-38.5 220.5,-38.5"/>
<text text-anchor="middle" x="273" y="-45.5" font-family="Helvetica,sans-Serif" font-size="10.00">Serial_SelectQueue</text>
</a>
</g>
</g>
<!-- Node19&#45;&gt;Node21 -->
<g id="edge2" class="edge"><title>Node19&#45;&gt;Node21</title>
<path fill="none" stroke="midnightblue" d="M141.67,-48C163.956,-48 188.463,-48 210.152,-48"/>
<polygon fill="midnightblue" stroke="midnightblue" points="210.225,-51.5001 220.225,-48 210.225,-44.5001 210.225,-51.5001"/>
</g>
<!-- Node22 -->
<g id="node4" class="node"><title>Node22</title>
<g id="a_node4"><a xlink:href="$a00407.html#a62ce727c3eee17b8d8add92ffeb8adbe" xlink:title="Serial_BetterBalance">
<polygon fill="white" stroke="black" points="218,-0.5 218,-19.5 328,-19.5 328,-0.5 218,-0.5"/>
<text text-anchor="middle" x="273" y="-7.5" font-family="Helvetica,sans-Serif" font-size="10.00">Serial_BetterBalance</text>
</a>
</g>
</g>
<!-- Node19&#45;&gt;Node22 -->
<g id="edge3" class="edge"><title>Node19&#45;&gt;Node22</title>
<path fill="none" stroke="midnightblue" d="M122.21,-38.46C149.433,-33.2878 183.264,-26.8599 211.883,-21.4222"/>
<polygon fill="midnightblue" stroke="midnightblue" points="212.598,-24.8491 221.769,-19.5439 211.291,-17.9721 212.598,-24.8491"/>
</g>
</g>
</svg>
