<?xml version="1.0" encoding="UTF-8" standalone="no"?>
<!DOCTYPE svg PUBLIC "-//W3C//DTD SVG 1.1//EN"
 "http://www.w3.org/Graphics/SVG/1.1/DTD/svg11.dtd">
<!-- Generated by graphviz version 2.36.0 (20140111.2315)
 -->
<!-- Title: ComputeRealCutFromMoved Pages: 1 -->
<svg width="370pt" height="66pt"
 viewBox="0.00 0.00 370.00 66.00" xmlns="http://www.w3.org/2000/svg" xmlns:xlink="http://www.w3.org/1999/xlink">
<g id="graph0" class="graph" transform="scale(1 1) rotate(0) translate(4 62)">
<title>ComputeRealCutFromMoved</title>
<polygon fill="white" stroke="none" points="-4,4 -4,-62 366,-62 366,4 -4,4"/>
<!-- Node7 -->
<g id="node1" class="node"><title>Node7</title>
<polygon fill="#bfbfbf" stroke="black" points="0.5,-19.5 0.5,-38.5 147.5,-38.5 147.5,-19.5 0.5,-19.5"/>
<text text-anchor="middle" x="74" y="-26.5" font-family="Helvetica,sans-Serif" font-size="10.00">ComputeRealCutFromMoved</text>
</g>
<!-- Node8 -->
<g id="node2" class="node"><title>Node8</title>
<g id="a_node2"><a xlink:href="a00864.html#a4ff02bbc05033b431cc3b60bc2f2a1a4" target="_top" xlink:title="ReadMetisGraph">
<polygon fill="white" stroke="black" points="184,-38.5 184,-57.5 276,-57.5 276,-38.5 184,-38.5"/>
<text text-anchor="middle" x="230" y="-45.5" font-family="Helvetica,sans-Serif" font-size="10.00">ReadMetisGraph</text>
</a>
</g>
</g>
<!-- Node7&#45;&gt;Node8 -->
<g id="edge1" class="edge"><title>Node7&#45;&gt;Node8</title>
<path fill="none" stroke="midnightblue" d="M147.941,-37.9992C156.674,-39.0766 165.476,-40.1627 173.898,-41.2017"/>
<polygon fill="midnightblue" stroke="midnightblue" points="173.597,-44.691 183.951,-42.4419 174.454,-37.7437 173.597,-44.691"/>
</g>
<!-- Node10 -->
<g id="node4" class="node"><title>Node10</title>
<g id="a_node4"><a xlink:href="a00077.html#ac8df62c4e3d0910711a9874f9cc58884" target="_top" xlink:title="gk_free">
<polygon fill="white" stroke="black" points="312,-0.5 312,-19.5 362,-19.5 362,-0.5 312,-0.5"/>
<text text-anchor="middle" x="337" y="-7.5" font-family="Helvetica,sans-Serif" font-size="10.00">gk_free</text>
</a>
</g>
</g>
<!-- Node7&#45;&gt;Node10 -->
<g id="edge4" class="edge"><title>Node7&#45;&gt;Node10</title>
<path fill="none" stroke="midnightblue" d="M147.703,-23.7074C198.027,-20.044 262.72,-15.3346 301.687,-12.4979"/>
<polygon fill="midnightblue" stroke="midnightblue" points="302.243,-15.9667 311.963,-11.7498 301.735,-8.98522 302.243,-15.9667"/>
</g>
<!-- Node9 -->
<g id="node3" class="node"><title>Node9</title>
<g id="a_node3"><a xlink:href="a01017.html#a355ed4cdac2a27aa04a6689ac2d7e86e" target="_top" xlink:title="fclose">
<polygon fill="white" stroke="black" points="315.5,-38.5 315.5,-57.5 358.5,-57.5 358.5,-38.5 315.5,-38.5"/>
<text text-anchor="middle" x="337" y="-45.5" font-family="Helvetica,sans-Serif" font-size="10.00">fclose</text>
</a>
</g>
</g>
<!-- Node8&#45;&gt;Node9 -->
<g id="edge2" class="edge"><title>Node8&#45;&gt;Node9</title>
<path fill="none" stroke="midnightblue" d="M276.139,-48C285.967,-48 296.146,-48 305.261,-48"/>
<polygon fill="midnightblue" stroke="midnightblue" points="305.389,-51.5001 315.388,-48 305.388,-44.5001 305.389,-51.5001"/>
</g>
<!-- Node8&#45;&gt;Node10 -->
<g id="edge3" class="edge"><title>Node8&#45;&gt;Node10</title>
<path fill="none" stroke="midnightblue" d="M257.496,-38.411C271.021,-33.5162 287.627,-27.5066 302.077,-22.277"/>
<polygon fill="midnightblue" stroke="midnightblue" points="303.46,-25.4987 311.672,-18.8045 301.078,-18.9165 303.46,-25.4987"/>
</g>
</g>
</svg>
