<?xml version="1.0" encoding="UTF-8" standalone="no"?>
<!DOCTYPE svg PUBLIC "-//W3C//DTD SVG 1.1//EN"
 "http://www.w3.org/Graphics/SVG/1.1/DTD/svg11.dtd">
<!-- Generated by graphviz version 2.36.0 (20140111.2315)
 -->
<!-- Title: PartitionSmallGraph Pages: 1 -->
<svg width="1044pt" height="313pt"
 viewBox="0.00 0.00 1044.00 313.19" xmlns="http://www.w3.org/2000/svg" xmlns:xlink="http://www.w3.org/1999/xlink">
<g id="graph0" class="graph" transform="scale(1 1) rotate(0) translate(4 309.187)">
<title>PartitionSmallGraph</title>
<polygon fill="white" stroke="none" points="-4,4 -4,-309.187 1040,-309.187 1040,4 -4,4"/>
<!-- Node12 -->
<g id="node1" class="node"><title>Node12</title>
<polygon fill="#bfbfbf" stroke="black" points="0,-75.5 0,-94.5 106,-94.5 106,-75.5 0,-75.5"/>
<text text-anchor="middle" x="53" y="-82.5" font-family="Helvetica,sans-Serif" font-size="10.00">PartitionSmallGraph</text>
</g>
<!-- Node13 -->
<g id="node2" class="node"><title>Node13</title>
<g id="a_node2"><a xlink:href="$a00170.html#abea67bb0c6286795ac5fc9bee605dc5d" xlink:title="METIS_SetDefaultOptions">
<polygon fill="white" stroke="black" points="609,-66.5 609,-85.5 743,-85.5 743,-66.5 609,-66.5"/>
<text text-anchor="middle" x="676" y="-73.5" font-family="Helvetica,sans-Serif" font-size="10.00">METIS_SetDefaultOptions</text>
</a>
</g>
</g>
<!-- Node12&#45;&gt;Node13 -->
<g id="edge1" class="edge"><title>Node12&#45;&gt;Node13</title>
<path fill="none" stroke="midnightblue" d="M106.144,-84.2443C215.727,-82.6561 470.349,-78.966 598.47,-77.1091"/>
<polygon fill="midnightblue" stroke="midnightblue" points="598.647,-80.607 608.595,-76.9624 598.546,-73.6078 598.647,-80.607"/>
</g>
<!-- Node14 -->
<g id="node3" class="node"><title>Node14</title>
<g id="a_node3"><a xlink:href="$a00912.html#af89851458c047aba436b36ed567441e4" xlink:title="METIS_PartGraphKway">
<polygon fill="white" stroke="black" points="142.5,-123.5 142.5,-142.5 265.5,-142.5 265.5,-123.5 142.5,-123.5"/>
<text text-anchor="middle" x="204" y="-130.5" font-family="Helvetica,sans-Serif" font-size="10.00">METIS_PartGraphKway</text>
</a>
</g>
</g>
<!-- Node12&#45;&gt;Node14 -->
<g id="edge2" class="edge"><title>Node12&#45;&gt;Node14</title>
<path fill="none" stroke="midnightblue" d="M83.7943,-94.5982C106.736,-101.989 138.654,-112.271 163.689,-120.336"/>
<polygon fill="midnightblue" stroke="midnightblue" points="162.666,-123.684 173.257,-123.418 164.812,-117.021 162.666,-123.684"/>
</g>
<!-- Node15 -->
<g id="node4" class="node"><title>Node15</title>
<g id="a_node4"><a xlink:href="$a00077.html#a24633cc1c72a7e92836912c2adcf570a" xlink:title="gk_malloc_init">
<polygon fill="white" stroke="black" points="809,-38.5 809,-57.5 889,-57.5 889,-38.5 809,-38.5"/>
<text text-anchor="middle" x="849" y="-45.5" font-family="Helvetica,sans-Serif" font-size="10.00">gk_malloc_init</text>
</a>
</g>
</g>
<!-- Node14&#45;&gt;Node15 -->
<g id="edge3" class="edge"><title>Node14&#45;&gt;Node15</title>
<path fill="none" stroke="midnightblue" d="M244.34,-123.451C315.567,-106.623 470.867,-72.0471 604,-57 671.245,-49.3998 749.51,-47.7787 798.9,-47.6351"/>
<polygon fill="midnightblue" stroke="midnightblue" points="798.99,-51.1351 808.986,-47.6253 798.983,-44.1351 798.99,-51.1351"/>
</g>
<!-- Node16 -->
<g id="node5" class="node"><title>Node16</title>
<g id="a_node5"><a xlink:href="$a00026.html#a05869524d1c30cfaab2a8690e7da6fd4" xlink:title="gk_sigtrap">
<polygon fill="white" stroke="black" points="817.5,-0.5 817.5,-19.5 880.5,-19.5 880.5,-0.5 817.5,-0.5"/>
<text text-anchor="middle" x="849" y="-7.5" font-family="Helvetica,sans-Serif" font-size="10.00">gk_sigtrap</text>
</a>
</g>
</g>
<!-- Node14&#45;&gt;Node16 -->
<g id="edge4" class="edge"><title>Node14&#45;&gt;Node16</title>
<path fill="none" stroke="midnightblue" d="M219.087,-123.439C237.365,-111.519 270.637,-91.4429 302,-81 483.425,-20.5913 714.703,-11.2378 807.145,-10.0351"/>
<polygon fill="midnightblue" stroke="midnightblue" points="807.241,-13.5344 817.204,-9.92987 807.168,-6.53474 807.241,-13.5344"/>
</g>
<!-- Node17 -->
<g id="node6" class="node"><title>Node17</title>
<g id="a_node6"><a xlink:href="$a00026.html#a08f287b6dbdc0779c916ecbd49540a1e" xlink:title="gk_siguntrap">
<polygon fill="white" stroke="black" points="812,-180.5 812,-199.5 886,-199.5 886,-180.5 812,-180.5"/>
<text text-anchor="middle" x="849" y="-187.5" font-family="Helvetica,sans-Serif" font-size="10.00">gk_siguntrap</text>
</a>
</g>
</g>
<!-- Node14&#45;&gt;Node17 -->
<g id="edge5" class="edge"><title>Node14&#45;&gt;Node17</title>
<path fill="none" stroke="midnightblue" d="M210.569,-142.511C223.52,-163.628 257.94,-214.272 302,-236 479.834,-323.699 566.958,-327.869 748,-247 769.242,-237.512 764.173,-221.17 784,-209 789.51,-205.618 795.658,-202.808 801.903,-200.481"/>
<polygon fill="midnightblue" stroke="midnightblue" points="803.34,-203.691 811.72,-197.209 801.127,-197.05 803.34,-203.691"/>
</g>
<!-- Node18 -->
<g id="node7" class="node"><title>Node18</title>
<g id="a_node7"><a xlink:href="$a00077.html#a3d153a0a39d7ba54f0943fa586f0c561" xlink:title="gk_log2">
<polygon fill="white" stroke="black" points="337,-142.5 337,-161.5 389,-161.5 389,-142.5 337,-142.5"/>
<text text-anchor="middle" x="363" y="-149.5" font-family="Helvetica,sans-Serif" font-size="10.00">gk_log2</text>
</a>
</g>
</g>
<!-- Node14&#45;&gt;Node18 -->
<g id="edge6" class="edge"><title>Node14&#45;&gt;Node18</title>
<path fill="none" stroke="midnightblue" d="M265.7,-140.346C286.33,-142.842 308.691,-145.549 326.668,-147.724"/>
<polygon fill="midnightblue" stroke="midnightblue" points="326.352,-151.211 336.7,-148.938 327.193,-144.262 326.352,-151.211"/>
</g>
<!-- Node19 -->
<g id="node8" class="node"><title>Node19</title>
<g id="a_node8"><a xlink:href="$a00026.html#a4c320c13bcdc9967613253ef4c73f59f" xlink:title="gk_errexit">
<polygon fill="white" stroke="black" points="646,-218.5 646,-237.5 706,-237.5 706,-218.5 646,-218.5"/>
<text text-anchor="middle" x="676" y="-225.5" font-family="Helvetica,sans-Serif" font-size="10.00">gk_errexit</text>
</a>
</g>
</g>
<!-- Node14&#45;&gt;Node19 -->
<g id="edge7" class="edge"><title>Node14&#45;&gt;Node19</title>
<path fill="none" stroke="midnightblue" d="M213.425,-142.712C228.936,-159.797 263.926,-194.766 302,-209 416.962,-251.977 565.838,-241.788 635.628,-233.558"/>
<polygon fill="midnightblue" stroke="midnightblue" points="636.238,-237.009 645.735,-232.314 635.382,-230.062 636.238,-237.009"/>
</g>
<!-- Node21 -->
<g id="node10" class="node"><title>Node21</title>
<g id="a_node10"><a xlink:href="$a00912.html#a7973c78504ad6711d3516082b1112805" xlink:title="MlevelKWayPartitioning">
<polygon fill="white" stroke="black" points="302,-180.5 302,-199.5 424,-199.5 424,-180.5 302,-180.5"/>
<text text-anchor="middle" x="363" y="-187.5" font-family="Helvetica,sans-Serif" font-size="10.00">MlevelKWayPartitioning</text>
</a>
</g>
</g>
<!-- Node14&#45;&gt;Node21 -->
<g id="edge9" class="edge"><title>Node14&#45;&gt;Node21</title>
<path fill="none" stroke="midnightblue" d="M228.357,-142.656C247.903,-150.614 276.594,-162.012 302,-171 308.016,-173.128 314.411,-175.275 320.697,-177.32"/>
<polygon fill="midnightblue" stroke="midnightblue" points="319.826,-180.716 330.417,-180.433 321.962,-174.049 319.826,-180.716"/>
</g>
<!-- Node27 -->
<g id="node16" class="node"><title>Node27</title>
<g id="a_node16"><a xlink:href="$a00077.html#a47156a22528b5bc8c7c6e9849af34e62" xlink:title="gk_malloc_cleanup">
<polygon fill="white" stroke="black" points="798,-142.5 798,-161.5 900,-161.5 900,-142.5 798,-142.5"/>
<text text-anchor="middle" x="849" y="-149.5" font-family="Helvetica,sans-Serif" font-size="10.00">gk_malloc_cleanup</text>
</a>
</g>
</g>
<!-- Node14&#45;&gt;Node27 -->
<g id="edge24" class="edge"><title>Node14&#45;&gt;Node27</title>
<path fill="none" stroke="midnightblue" d="M265.596,-129.63C309.66,-127.999 370.68,-127.433 424,-133 505.321,-141.49 522.679,-162.51 604,-171 667.654,-177.646 684.282,-177 748,-171 764.164,-169.478 781.606,-166.601 797.327,-163.538"/>
<polygon fill="midnightblue" stroke="midnightblue" points="798.268,-166.919 807.378,-161.511 796.884,-160.057 798.268,-166.919"/>
</g>
<!-- Node20 -->
<g id="node9" class="node"><title>Node20</title>
<g id="a_node9"><a xlink:href="$a01017.html#a2e311a777ffe9c80e405efa7cd2757be" xlink:title="fprintf">
<polygon fill="white" stroke="black" points="828,-218.5 828,-237.5 870,-237.5 870,-218.5 828,-218.5"/>
<text text-anchor="middle" x="849" y="-225.5" font-family="Helvetica,sans-Serif" font-size="10.00">fprintf</text>
</a>
</g>
</g>
<!-- Node19&#45;&gt;Node20 -->
<g id="edge8" class="edge"><title>Node19&#45;&gt;Node20</title>
<path fill="none" stroke="midnightblue" d="M706.008,-228C737.034,-228 786.025,-228 817.583,-228"/>
<polygon fill="midnightblue" stroke="midnightblue" points="817.96,-231.5 827.96,-228 817.96,-224.5 817.96,-231.5"/>
</g>
<!-- Node21&#45;&gt;Node19 -->
<g id="edge23" class="edge"><title>Node21&#45;&gt;Node19</title>
<path fill="none" stroke="midnightblue" d="M424.277,-196.883C464.904,-201.574 519.694,-207.999 568,-214 590.482,-216.793 615.598,-220.071 635.844,-222.753"/>
<polygon fill="midnightblue" stroke="midnightblue" points="635.574,-226.248 645.948,-224.095 636.496,-219.309 635.574,-226.248"/>
</g>
<!-- Node22 -->
<g id="node11" class="node"><title>Node22</title>
<g id="a_node11"><a xlink:href="$a00912.html#a870e37cc14eb1033c62d83d3a7c33a91" xlink:title="InitKWayPartitioning">
<polygon fill="white" stroke="black" points="460.5,-104.5 460.5,-123.5 567.5,-123.5 567.5,-104.5 460.5,-104.5"/>
<text text-anchor="middle" x="514" y="-111.5" font-family="Helvetica,sans-Serif" font-size="10.00">InitKWayPartitioning</text>
</a>
</g>
</g>
<!-- Node21&#45;&gt;Node22 -->
<g id="edge10" class="edge"><title>Node21&#45;&gt;Node22</title>
<path fill="none" stroke="midnightblue" d="M399.491,-180.461C407.698,-177.792 416.282,-174.616 424,-171 448.619,-159.465 474.555,-142.188 492.036,-129.679"/>
<polygon fill="midnightblue" stroke="midnightblue" points="494.326,-132.341 500.354,-123.629 490.208,-126.68 494.326,-132.341"/>
</g>
<!-- Node22&#45;&gt;Node13 -->
<g id="edge11" class="edge"><title>Node22&#45;&gt;Node13</title>
<path fill="none" stroke="midnightblue" d="M555.375,-104.411C576.488,-99.3965 602.529,-93.2119 624.917,-87.8947"/>
<polygon fill="midnightblue" stroke="midnightblue" points="625.995,-91.2361 634.916,-85.5201 624.377,-84.4256 625.995,-91.2361"/>
</g>
<!-- Node22&#45;&gt;Node19 -->
<g id="edge21" class="edge"><title>Node22&#45;&gt;Node19</title>
<path fill="none" stroke="midnightblue" d="M528.366,-123.523C555.944,-143.173 619.384,-188.373 653.063,-212.37"/>
<polygon fill="midnightblue" stroke="midnightblue" points="651.157,-215.31 661.333,-218.262 655.219,-209.609 651.157,-215.31"/>
</g>
<!-- Node23 -->
<g id="node12" class="node"><title>Node23</title>
<g id="a_node12"><a xlink:href="$a00260.html#a25fc90fd934931239b3c98ac4bdbce76" xlink:title="Recursive partitioning routine. ">
<polygon fill="white" stroke="black" points="604.5,-142.5 604.5,-161.5 747.5,-161.5 747.5,-142.5 604.5,-142.5"/>
<text text-anchor="middle" x="676" y="-149.5" font-family="Helvetica,sans-Serif" font-size="10.00">METIS_PartGraphRecursive</text>
</a>
</g>
</g>
<!-- Node22&#45;&gt;Node23 -->
<g id="edge12" class="edge"><title>Node22&#45;&gt;Node23</title>
<path fill="none" stroke="midnightblue" d="M555.375,-123.589C576.488,-128.604 602.529,-134.788 624.917,-140.105"/>
<polygon fill="midnightblue" stroke="midnightblue" points="624.377,-143.574 634.916,-142.48 625.995,-136.764 624.377,-143.574"/>
</g>
<!-- Node28 -->
<g id="node17" class="node"><title>Node28</title>
<g id="a_node17"><a xlink:href="$a00077.html#ac8df62c4e3d0910711a9874f9cc58884" xlink:title="gk_free">
<polygon fill="white" stroke="black" points="651,-104.5 651,-123.5 701,-123.5 701,-104.5 651,-104.5"/>
<text text-anchor="middle" x="676" y="-111.5" font-family="Helvetica,sans-Serif" font-size="10.00">gk_free</text>
</a>
</g>
</g>
<!-- Node22&#45;&gt;Node28 -->
<g id="edge22" class="edge"><title>Node22&#45;&gt;Node28</title>
<path fill="none" stroke="midnightblue" d="M567.833,-114C591.817,-114 619.497,-114 640.717,-114"/>
<polygon fill="midnightblue" stroke="midnightblue" points="640.87,-117.5 650.87,-114 640.87,-110.5 640.87,-117.5"/>
</g>
<!-- Node23&#45;&gt;Node15 -->
<g id="edge13" class="edge"><title>Node23&#45;&gt;Node15</title>
<path fill="none" stroke="midnightblue" d="M730.191,-142.485C736.529,-140.018 742.64,-136.912 748,-133 771.9,-115.557 761.609,-96.3415 784,-77 791.118,-70.8512 799.755,-65.7755 808.349,-61.6842"/>
<polygon fill="midnightblue" stroke="midnightblue" points="809.837,-64.8536 817.585,-57.627 807.022,-58.4447 809.837,-64.8536"/>
</g>
<!-- Node23&#45;&gt;Node16 -->
<g id="edge14" class="edge"><title>Node23&#45;&gt;Node16</title>
<path fill="none" stroke="midnightblue" d="M733.973,-142.36C739.096,-139.896 743.89,-136.825 748,-133 783.805,-99.6763 748.65,-62.806 784,-29 790.512,-22.7724 798.971,-18.5749 807.594,-15.749"/>
<polygon fill="midnightblue" stroke="midnightblue" points="808.575,-19.1095 817.305,-13.106 806.736,-12.3552 808.575,-19.1095"/>
</g>
<!-- Node23&#45;&gt;Node17 -->
<g id="edge15" class="edge"><title>Node23&#45;&gt;Node17</title>
<path fill="none" stroke="midnightblue" d="M720.151,-161.589C745.131,-167.14 776.565,-174.126 802.012,-179.781"/>
<polygon fill="midnightblue" stroke="midnightblue" points="801.279,-183.203 811.801,-181.956 802.798,-176.37 801.279,-183.203"/>
</g>
<!-- Node24 -->
<g id="node13" class="node"><title>Node24</title>
<g id="a_node13"><a xlink:href="$a00260.html#a5510f276b321a8450b2e9cc913c2f00f" xlink:title="MlevelRecursiveBisection">
<polygon fill="white" stroke="black" points="784,-86.5 784,-105.5 914,-105.5 914,-86.5 784,-86.5"/>
<text text-anchor="middle" x="849" y="-93.5" font-family="Helvetica,sans-Serif" font-size="10.00">MlevelRecursiveBisection</text>
</a>
</g>
</g>
<!-- Node23&#45;&gt;Node24 -->
<g id="edge16" class="edge"><title>Node23&#45;&gt;Node24</title>
<path fill="none" stroke="midnightblue" d="M715.142,-142.491C725.832,-139.637 737.421,-136.365 748,-133 770.383,-125.881 795.144,-116.73 814.427,-109.309"/>
<polygon fill="midnightblue" stroke="midnightblue" points="815.913,-112.487 823.97,-105.607 813.381,-105.961 815.913,-112.487"/>
</g>
<!-- Node23&#45;&gt;Node27 -->
<g id="edge20" class="edge"><title>Node23&#45;&gt;Node27</title>
<path fill="none" stroke="midnightblue" d="M747.54,-152C760.897,-152 774.757,-152 787.76,-152"/>
<polygon fill="midnightblue" stroke="midnightblue" points="787.979,-155.5 797.979,-152 787.979,-148.5 787.979,-155.5"/>
</g>
<!-- Node24&#45;&gt;Node24 -->
<g id="edge19" class="edge"><title>Node24&#45;&gt;Node24</title>
<path fill="none" stroke="midnightblue" d="M826.805,-105.757C816.008,-114.565 823.406,-124 849,-124 865.796,-124 874.756,-119.937 875.879,-114.654"/>
<polygon fill="midnightblue" stroke="midnightblue" points="878.951,-112.975 871.195,-105.757 872.757,-116.236 878.951,-112.975"/>
</g>
<!-- Node25 -->
<g id="node14" class="node"><title>Node25</title>
<g id="a_node14"><a xlink:href="$a00260.html#a33c48a23cc94ea0221fa5c7317cd0222" xlink:title="MultilevelBisect">
<polygon fill="white" stroke="black" points="950.5,-105.5 950.5,-124.5 1035.5,-124.5 1035.5,-105.5 950.5,-105.5"/>
<text text-anchor="middle" x="993" y="-112.5" font-family="Helvetica,sans-Serif" font-size="10.00">MultilevelBisect</text>
</a>
</g>
</g>
<!-- Node24&#45;&gt;Node25 -->
<g id="edge17" class="edge"><title>Node24&#45;&gt;Node25</title>
<path fill="none" stroke="midnightblue" d="M914.352,-104.611C923.013,-105.769 931.806,-106.946 940.211,-108.07"/>
<polygon fill="midnightblue" stroke="midnightblue" points="939.859,-111.555 950.235,-109.412 940.788,-104.616 939.859,-111.555"/>
</g>
<!-- Node26 -->
<g id="node15" class="node"><title>Node26</title>
<g id="a_node15"><a xlink:href="$a00260.html#a49d272affb67ce57b2d20dccd7f15f53" xlink:title="SplitGraphPart">
<polygon fill="white" stroke="black" points="952,-67.5 952,-86.5 1034,-86.5 1034,-67.5 952,-67.5"/>
<text text-anchor="middle" x="993" y="-74.5" font-family="Helvetica,sans-Serif" font-size="10.00">SplitGraphPart</text>
</a>
</g>
</g>
<!-- Node24&#45;&gt;Node26 -->
<g id="edge18" class="edge"><title>Node24&#45;&gt;Node26</title>
<path fill="none" stroke="midnightblue" d="M914.352,-87.3895C923.53,-86.1615 932.856,-84.9136 941.712,-83.7287"/>
<polygon fill="midnightblue" stroke="midnightblue" points="942.407,-87.167 951.854,-82.3716 941.478,-80.2288 942.407,-87.167"/>
</g>
</g>
</svg>
