<?xml version="1.0" encoding="UTF-8" standalone="no"?>
<!DOCTYPE svg PUBLIC "-//W3C//DTD SVG 1.1//EN"
 "http://www.w3.org/Graphics/SVG/1.1/DTD/svg11.dtd">
<!-- Generated by graphviz version 2.36.0 (20140111.2315)
 -->
<!-- Title: TestMoveGraph Pages: 1 -->
<svg width="314pt" height="28pt"
 viewBox="0.00 0.00 314.00 28.00" xmlns="http://www.w3.org/2000/svg" xmlns:xlink="http://www.w3.org/1999/xlink">
<g id="graph0" class="graph" transform="scale(1 1) rotate(0) translate(4 24)">
<title>TestMoveGraph</title>
<polygon fill="white" stroke="none" points="-4,4 -4,-24 310,-24 310,4 -4,4"/>
<!-- Node39 -->
<g id="node1" class="node"><title>Node39</title>
<polygon fill="#bfbfbf" stroke="black" points="0,-0.5 0,-19.5 88,-19.5 88,-0.5 0,-0.5"/>
<text text-anchor="middle" x="44" y="-7.5" font-family="Helvetica,sans-Serif" font-size="10.00">TestMoveGraph</text>
</g>
<!-- Node40 -->
<g id="node2" class="node"><title>Node40</title>
<g id="a_node2"><a xlink:href="a00437.html#adb0c2dc0c5138f35c71739328c702074" target="_top" xlink:title="TestParMetis_GPart">
<polygon fill="white" stroke="black" points="124.5,-0.5 124.5,-19.5 231.5,-19.5 231.5,-0.5 124.5,-0.5"/>
<text text-anchor="middle" x="178" y="-7.5" font-family="Helvetica,sans-Serif" font-size="10.00">TestParMetis_GPart</text>
</a>
</g>
</g>
<!-- Node39&#45;&gt;Node40 -->
<g id="edge1" class="edge"><title>Node39&#45;&gt;Node40</title>
<path fill="none" stroke="midnightblue" d="M98.4895,-10C107.059,-10 115.921,-10 124.469,-10"/>
<polygon fill="midnightblue" stroke="midnightblue" points="98.2218,-6.5001 88.2217,-10 98.2217,-13.5001 98.2218,-6.5001"/>
</g>
<!-- Node41 -->
<g id="node3" class="node"><title>Node41</title>
<g id="a_node3"><a xlink:href="a00428.html#a8f4019835796a39a97c345864d80fcbb" target="_top" xlink:title="main">
<polygon fill="white" stroke="black" points="268,-0.5 268,-19.5 306,-19.5 306,-0.5 268,-0.5"/>
<text text-anchor="middle" x="287" y="-7.5" font-family="Helvetica,sans-Serif" font-size="10.00">main</text>
</a>
</g>
</g>
<!-- Node40&#45;&gt;Node41 -->
<g id="edge2" class="edge"><title>Node40&#45;&gt;Node41</title>
<path fill="none" stroke="midnightblue" d="M241.658,-10C251.26,-10 260.455,-10 267.959,-10"/>
<polygon fill="midnightblue" stroke="midnightblue" points="241.56,-6.5001 231.56,-10 241.56,-13.5001 241.56,-6.5001"/>
</g>
</g>
</svg>
