<?xml version="1.0" encoding="UTF-8" standalone="no"?>
<!DOCTYPE svg PUBLIC "-//W3C//DTD SVG 1.1//EN"
 "http://www.w3.org/Graphics/SVG/1.1/DTD/svg11.dtd">
<!-- Generated by graphviz version 2.36.0 (20140111.2315)
 -->
<!-- Title: ArcSyn3sis/3rdParty/parmetis&#45;4.0.3/programs/parmetisbin.h Pages: 1 -->
<!--zoomable 128 -->
<svg id="main" version="1.1" xmlns="http://www.w3.org/2000/svg" xmlns:xlink="http://www.w3.org/1999/xlink" xml:space="preserve" onload="init(evt)">
<style type="text/css"><![CDATA[
.edge:hover path { stroke: red; }
.edge:hover polygon { stroke: red; fill: red; }
]]></style>
<script type="text/javascript"><![CDATA[
var edges = document.getElementsByTagName('g');
if (edges && edges.length) {
  for (var i=0;i<edges.length;i++) {
    if (edges[i].id.substr(0,4)=='edge') {
      edges[i].setAttribute('class','edge');
    }
  }
}
]]></script>
        <defs>
                <circle id="rim" cx="0" cy="0" r="7"/>
                <circle id="rim2" cx="0" cy="0" r="3.5"/>
                <g id="zoomPlus">
                        <use xlink:href="#rim" fill="#404040">
                                <set attributeName="fill" to="#808080" begin="zoomplus.mouseover" end="zoomplus.mouseout"/>
                        </use>
                        <path d="M-4,0h8M0,-4v8" fill="none" stroke="white" stroke-width="1.5" pointer-events="none"/>
                </g>
                <g id="zoomMin">
                        <use xlink:href="#rim" fill="#404040">
                                <set attributeName="fill" to="#808080" begin="zoomminus.mouseover" end="zoomminus.mouseout"/>
                        </use>
                        <path d="M-4,0h8" fill="none" stroke="white" stroke-width="1.5" pointer-events="none"/>
                </g>
                <g id="dirArrow">
                        <path fill="none" stroke="white" stroke-width="1.5" d="M0,-3.0v7 M-2.5,-0.5L0,-3.0L2.5,-0.5"/>
                </g>
               <g id="resetDef">
                       <use xlink:href="#rim2" fill="#404040">
                               <set attributeName="fill" to="#808080" begin="reset.mouseover" end="reset.mouseout"/>
                       </use>
               </g>
        </defs>

<script type="text/javascript">
var viewWidth = 1032;
var viewHeight = 128;
var sectionId = 'dynsection-1';
</script>
<script xlink:href="svgpan.js"/>
<svg id="graph" class="graph">
<g id="viewport">
<title>ArcSyn3sis/3rdParty/parmetis&#45;4.0.3/programs/parmetisbin.h</title>
<polygon fill="white" stroke="none" points="-4,4 -4,-124 1028,-124 1028,4 -4,4"/>
<!-- Node47 -->
<g id="node1" class="node"><title>Node47</title>
<polygon fill="#bfbfbf" stroke="black" points="458,-78.5 458,-119.5 586,-119.5 586,-78.5 458,-78.5"/>
<text text-anchor="start" x="466" y="-107.5" font-family="Helvetica,sans-Serif" font-size="10.00">ArcSyn3sis/3rdParty</text>
<text text-anchor="start" x="466" y="-96.5" font-family="Helvetica,sans-Serif" font-size="10.00">/parmetis&#45;4.0.3/programs</text>
<text text-anchor="middle" x="522" y="-85.5" font-family="Helvetica,sans-Serif" font-size="10.00">/parmetisbin.h</text>
</g>
<!-- Node48 -->
<g id="node2" class="node"><title>Node48</title>
<g id="a_node2"><a xlink:href="a00422.html" target="_top" xlink:title="ArcSyn3sis/3rdParty\l/parmetis&#45;4.0.3/programs\l/adaptgraph.c">
<polygon fill="white" stroke="black" points="0,-0.5 0,-41.5 128,-41.5 128,-0.5 0,-0.5"/>
<text text-anchor="start" x="8" y="-29.5" font-family="Helvetica,sans-Serif" font-size="10.00">ArcSyn3sis/3rdParty</text>
<text text-anchor="start" x="8" y="-18.5" font-family="Helvetica,sans-Serif" font-size="10.00">/parmetis&#45;4.0.3/programs</text>
<text text-anchor="middle" x="64" y="-7.5" font-family="Helvetica,sans-Serif" font-size="10.00">/adaptgraph.c</text>
</a>
</g>
</g>
<!-- Node47&#45;&gt;Node48 -->
<g id="edge1" class="edge"><title>Node47&#45;&gt;Node48</title>
<path fill="none" stroke="midnightblue" d="M447.686,-89.9398C369.797,-80.8514 244.094,-64.3706 137,-42 134.17,-41.4089 131.288,-40.7716 128.382,-40.1006"/>
<polygon fill="midnightblue" stroke="midnightblue" points="447.546,-93.4469 457.882,-91.1191 448.351,-86.4932 447.546,-93.4469"/>
</g>
<!-- Node49 -->
<g id="node3" class="node"><title>Node49</title>
<g id="a_node3"><a xlink:href="a00864.html" target="_top" xlink:title="ArcSyn3sis/3rdParty\l/parmetis&#45;4.0.3/programs/io.c">
<polygon fill="white" stroke="black" points="146.5,-6 146.5,-36 293.5,-36 293.5,-6 146.5,-6"/>
<text text-anchor="start" x="154.5" y="-24" font-family="Helvetica,sans-Serif" font-size="10.00">ArcSyn3sis/3rdParty</text>
<text text-anchor="middle" x="220" y="-13" font-family="Helvetica,sans-Serif" font-size="10.00">/parmetis&#45;4.0.3/programs/io.c</text>
</a>
</g>
</g>
<!-- Node47&#45;&gt;Node49 -->
<g id="edge2" class="edge"><title>Node47&#45;&gt;Node49</title>
<path fill="none" stroke="midnightblue" d="M448.235,-79.4367C395.049,-66.052 324.368,-48.2647 275.832,-36.0503"/>
<polygon fill="midnightblue" stroke="midnightblue" points="447.402,-82.836 457.954,-81.8824 449.11,-76.0476 447.402,-82.836"/>
</g>
<!-- Node50 -->
<g id="node4" class="node"><title>Node50</title>
<g id="a_node4"><a xlink:href="a00425.html" target="_top" xlink:title="ArcSyn3sis/3rdParty\l/parmetis&#45;4.0.3/programs\l/mtest.c">
<polygon fill="white" stroke="black" points="312,-0.5 312,-41.5 440,-41.5 440,-0.5 312,-0.5"/>
<text text-anchor="start" x="320" y="-29.5" font-family="Helvetica,sans-Serif" font-size="10.00">ArcSyn3sis/3rdParty</text>
<text text-anchor="start" x="320" y="-18.5" font-family="Helvetica,sans-Serif" font-size="10.00">/parmetis&#45;4.0.3/programs</text>
<text text-anchor="middle" x="376" y="-7.5" font-family="Helvetica,sans-Serif" font-size="10.00">/mtest.c</text>
</a>
</g>
</g>
<!-- Node47&#45;&gt;Node50 -->
<g id="edge3" class="edge"><title>Node47&#45;&gt;Node50</title>
<path fill="none" stroke="midnightblue" d="M475.448,-73.7675C455.435,-63.3498 432.356,-51.3358 413.471,-41.5056"/>
<polygon fill="midnightblue" stroke="midnightblue" points="473.915,-76.9153 484.401,-78.4281 477.147,-70.7061 473.915,-76.9153"/>
</g>
<!-- Node51 -->
<g id="node5" class="node"><title>Node51</title>
<g id="a_node5"><a xlink:href="a00428.html" target="_top" xlink:title="ArcSyn3sis/3rdParty\l/parmetis&#45;4.0.3/programs\l/otest.c">
<polygon fill="white" stroke="black" points="458,-0.5 458,-41.5 586,-41.5 586,-0.5 458,-0.5"/>
<text text-anchor="start" x="466" y="-29.5" font-family="Helvetica,sans-Serif" font-size="10.00">ArcSyn3sis/3rdParty</text>
<text text-anchor="start" x="466" y="-18.5" font-family="Helvetica,sans-Serif" font-size="10.00">/parmetis&#45;4.0.3/programs</text>
<text text-anchor="middle" x="522" y="-7.5" font-family="Helvetica,sans-Serif" font-size="10.00">/otest.c</text>
</a>
</g>
</g>
<!-- Node47&#45;&gt;Node51 -->
<g id="edge4" class="edge"><title>Node47&#45;&gt;Node51</title>
<path fill="none" stroke="midnightblue" d="M522,-68.2965C522,-59.3009 522,-49.6532 522,-41.5056"/>
<polygon fill="midnightblue" stroke="midnightblue" points="518.5,-68.4281 522,-78.4281 525.5,-68.4281 518.5,-68.4281"/>
</g>
<!-- Node52 -->
<g id="node6" class="node"><title>Node52</title>
<g id="a_node6"><a xlink:href="a00945.html" target="_top" xlink:title="ArcSyn3sis/3rdParty\l/parmetis&#45;4.0.3/programs\l/parmetis.c">
<polygon fill="white" stroke="black" points="604,-0.5 604,-41.5 732,-41.5 732,-0.5 604,-0.5"/>
<text text-anchor="start" x="612" y="-29.5" font-family="Helvetica,sans-Serif" font-size="10.00">ArcSyn3sis/3rdParty</text>
<text text-anchor="start" x="612" y="-18.5" font-family="Helvetica,sans-Serif" font-size="10.00">/parmetis&#45;4.0.3/programs</text>
<text text-anchor="middle" x="668" y="-7.5" font-family="Helvetica,sans-Serif" font-size="10.00">/parmetis.c</text>
</a>
</g>
</g>
<!-- Node47&#45;&gt;Node52 -->
<g id="edge5" class="edge"><title>Node47&#45;&gt;Node52</title>
<path fill="none" stroke="midnightblue" d="M568.552,-73.7675C588.565,-63.3498 611.644,-51.3358 630.529,-41.5056"/>
<polygon fill="midnightblue" stroke="midnightblue" points="566.853,-70.7061 559.599,-78.4281 570.085,-76.9153 566.853,-70.7061"/>
</g>
<!-- Node53 -->
<g id="node7" class="node"><title>Node53</title>
<g id="a_node7"><a xlink:href="a00434.html" target="_top" xlink:title="ArcSyn3sis/3rdParty\l/parmetis&#45;4.0.3/programs\l/pometis.c">
<polygon fill="white" stroke="black" points="750,-0.5 750,-41.5 878,-41.5 878,-0.5 750,-0.5"/>
<text text-anchor="start" x="758" y="-29.5" font-family="Helvetica,sans-Serif" font-size="10.00">ArcSyn3sis/3rdParty</text>
<text text-anchor="start" x="758" y="-18.5" font-family="Helvetica,sans-Serif" font-size="10.00">/parmetis&#45;4.0.3/programs</text>
<text text-anchor="middle" x="814" y="-7.5" font-family="Helvetica,sans-Serif" font-size="10.00">/pometis.c</text>
</a>
</g>
</g>
<!-- Node47&#45;&gt;Node53 -->
<g id="edge6" class="edge"><title>Node47&#45;&gt;Node53</title>
<path fill="none" stroke="midnightblue" d="M595.982,-79.4164C638.461,-68.6624 692.783,-54.7688 741,-42 743.922,-41.2263 746.908,-40.4302 749.923,-39.6219"/>
<polygon fill="midnightblue" stroke="midnightblue" points="595.116,-76.0252 586.279,-81.8703 596.832,-82.8115 595.116,-76.0252"/>
</g>
<!-- Node54 -->
<g id="node8" class="node"><title>Node54</title>
<g id="a_node8"><a xlink:href="a00437.html" target="_top" xlink:title="ArcSyn3sis/3rdParty\l/parmetis&#45;4.0.3/programs\l/ptest.c">
<polygon fill="white" stroke="black" points="896,-0.5 896,-41.5 1024,-41.5 1024,-0.5 896,-0.5"/>
<text text-anchor="start" x="904" y="-29.5" font-family="Helvetica,sans-Serif" font-size="10.00">ArcSyn3sis/3rdParty</text>
<text text-anchor="start" x="904" y="-18.5" font-family="Helvetica,sans-Serif" font-size="10.00">/parmetis&#45;4.0.3/programs</text>
<text text-anchor="middle" x="960" y="-7.5" font-family="Helvetica,sans-Serif" font-size="10.00">/ptest.c</text>
</a>
</g>
</g>
<!-- Node47&#45;&gt;Node54 -->
<g id="edge7" class="edge"><title>Node47&#45;&gt;Node54</title>
<path fill="none" stroke="midnightblue" d="M596.194,-89.1637C670.265,-79.7457 787.139,-63.2663 887,-42 889.828,-41.3979 892.708,-40.7515 895.612,-40.073"/>
<polygon fill="midnightblue" stroke="midnightblue" points="595.516,-85.7215 586.033,-90.4456 596.392,-92.6664 595.516,-85.7215"/>
</g>
</g>
</svg>
        <g id="navigator" transform="translate(0 0)" fill="#404254">
                <rect fill="#f2f5e9" fill-opacity="0.5" stroke="#606060" stroke-width=".5" x="0" y="0" width="60" height="60"/>
                <use id="zoomplus" xlink:href="#zoomPlus" x="17" y="9" onmousedown="handleZoom(evt,'in')"/>
                <use id="zoomminus" xlink:href="#zoomMin" x="42" y="9" onmousedown="handleZoom(evt,'out')"/>
                <use id="reset" xlink:href="#resetDef" x="30" y="36" onmousedown="handleReset()"/>
                <g id="arrowUp" xlink:href="#dirArrow" transform="translate(30 24)" onmousedown="handlePan(0,-1)">
                  <use xlink:href="#rim" fill="#404040">
                        <set attributeName="fill" to="#808080" begin="arrowUp.mouseover" end="arrowUp.mouseout"/>
                  </use>
                  <path fill="none" stroke="white" stroke-width="1.5" d="M0,-3.0v7 M-2.5,-0.5L0,-3.0L2.5,-0.5"/>
                </g>
                <g id="arrowRight" xlink:href="#dirArrow" transform="rotate(90) translate(36 -43)" onmousedown="handlePan(1,0)">
                  <use xlink:href="#rim" fill="#404040">
                        <set attributeName="fill" to="#808080" begin="arrowRight.mouseover" end="arrowRight.mouseout"/>
                  </use>
                  <path fill="none" stroke="white" stroke-width="1.5" d="M0,-3.0v7 M-2.5,-0.5L0,-3.0L2.5,-0.5"/>
                </g>
                <g id="arrowDown" xlink:href="#dirArrow" transform="rotate(180) translate(-30 -48)" onmousedown="handlePan(0,1)">
                  <use xlink:href="#rim" fill="#404040">
                        <set attributeName="fill" to="#808080" begin="arrowDown.mouseover" end="arrowDown.mouseout"/>
                  </use>
                  <path fill="none" stroke="white" stroke-width="1.5" d="M0,-3.0v7 M-2.5,-0.5L0,-3.0L2.5,-0.5"/>
                </g>
                <g id="arrowLeft" xlink:href="#dirArrow" transform="rotate(270) translate(-36 17)" onmousedown="handlePan(-1,0)">
                  <use xlink:href="#rim" fill="#404040">
                        <set attributeName="fill" to="#808080" begin="arrowLeft.mouseover" end="arrowLeft.mouseout"/>
                  </use>
                  <path fill="none" stroke="white" stroke-width="1.5" d="M0,-3.0v7 M-2.5,-0.5L0,-3.0L2.5,-0.5"/>
                </g>
        </g>
        <svg viewBox="0 0 15 15" width="100%" height="30px" preserveAspectRatio="xMaxYMin meet">
         <g id="arrow_out" transform="scale(0.3 0.3)">
          <a xlink:href="a00433_org.svg" target="_base">
           <rect id="button" ry="5" rx="5" y="6" x="6" height="38" width="38"
                fill="#f2f5e9" fill-opacity="0.5" stroke="#606060" stroke-width="1.0"/>
           <path id="arrow"
             d="M 11.500037,31.436501 C 11.940474,20.09759 22.043105,11.32322 32.158766,21.979434 L 37.068811,17.246167 C 37.068811,17.246167 37.088388,32 37.088388,32 L 22.160133,31.978069 C 22.160133,31.978069 26.997745,27.140456 26.997745,27.140456 C 18.528582,18.264221 13.291696,25.230495 11.500037,31.436501 z"
             style="fill:#404040;"/>
          </a>
         </g>
        </svg>
</svg>
