<?xml version="1.0" encoding="UTF-8" standalone="no"?>
<!DOCTYPE svg PUBLIC "-//W3C//DTD SVG 1.1//EN"
 "http://www.w3.org/Graphics/SVG/1.1/DTD/svg11.dtd">
<!-- Generated by graphviz version 2.36.0 (20140111.2315)
 -->
<!-- Title: ComputeRealCut2 Pages: 1 -->
<svg width="322pt" height="66pt"
 viewBox="0.00 0.00 322.00 66.00" xmlns="http://www.w3.org/2000/svg" xmlns:xlink="http://www.w3.org/1999/xlink">
<g id="graph0" class="graph" transform="scale(1 1) rotate(0) translate(4 62)">
<title>ComputeRealCut2</title>
<polygon fill="white" stroke="none" points="-4,4 -4,-62 318,-62 318,4 -4,4"/>
<!-- Node2 -->
<g id="node1" class="node"><title>Node2</title>
<polygon fill="#bfbfbf" stroke="black" points="0.5,-19.5 0.5,-38.5 99.5,-38.5 99.5,-19.5 0.5,-19.5"/>
<text text-anchor="middle" x="50" y="-26.5" font-family="Helvetica,sans-Serif" font-size="10.00">ComputeRealCut2</text>
</g>
<!-- Node3 -->
<g id="node2" class="node"><title>Node3</title>
<g id="a_node2"><a xlink:href="a00864.html#a4ff02bbc05033b431cc3b60bc2f2a1a4" target="_top" xlink:title="ReadMetisGraph">
<polygon fill="white" stroke="black" points="136,-38.5 136,-57.5 228,-57.5 228,-38.5 136,-38.5"/>
<text text-anchor="middle" x="182" y="-45.5" font-family="Helvetica,sans-Serif" font-size="10.00">ReadMetisGraph</text>
</a>
</g>
</g>
<!-- Node2&#45;&gt;Node3 -->
<g id="edge1" class="edge"><title>Node2&#45;&gt;Node3</title>
<path fill="none" stroke="midnightblue" d="M99.7771,-36.129C108.27,-37.3702 117.157,-38.6691 125.807,-39.9333"/>
<polygon fill="midnightblue" stroke="midnightblue" points="125.413,-43.4129 135.815,-41.396 126.426,-36.4865 125.413,-43.4129"/>
</g>
<!-- Node5 -->
<g id="node4" class="node"><title>Node5</title>
<g id="a_node4"><a xlink:href="a00077.html#ac8df62c4e3d0910711a9874f9cc58884" target="_top" xlink:title="gk_free">
<polygon fill="white" stroke="black" points="264,-0.5 264,-19.5 314,-19.5 314,-0.5 264,-0.5"/>
<text text-anchor="middle" x="289" y="-7.5" font-family="Helvetica,sans-Serif" font-size="10.00">gk_free</text>
</a>
</g>
</g>
<!-- Node2&#45;&gt;Node5 -->
<g id="edge4" class="edge"><title>Node2&#45;&gt;Node5</title>
<path fill="none" stroke="midnightblue" d="M99.5324,-25.1092C145.405,-21.4317 213.071,-16.0069 253.617,-12.7565"/>
<polygon fill="midnightblue" stroke="midnightblue" points="254.113,-16.228 263.801,-11.94 253.554,-9.25037 254.113,-16.228"/>
</g>
<!-- Node4 -->
<g id="node3" class="node"><title>Node4</title>
<g id="a_node3"><a xlink:href="a01017.html#a355ed4cdac2a27aa04a6689ac2d7e86e" target="_top" xlink:title="fclose">
<polygon fill="white" stroke="black" points="267.5,-38.5 267.5,-57.5 310.5,-57.5 310.5,-38.5 267.5,-38.5"/>
<text text-anchor="middle" x="289" y="-45.5" font-family="Helvetica,sans-Serif" font-size="10.00">fclose</text>
</a>
</g>
</g>
<!-- Node3&#45;&gt;Node4 -->
<g id="edge2" class="edge"><title>Node3&#45;&gt;Node4</title>
<path fill="none" stroke="midnightblue" d="M228.139,-48C237.967,-48 248.146,-48 257.261,-48"/>
<polygon fill="midnightblue" stroke="midnightblue" points="257.389,-51.5001 267.388,-48 257.388,-44.5001 257.389,-51.5001"/>
</g>
<!-- Node3&#45;&gt;Node5 -->
<g id="edge3" class="edge"><title>Node3&#45;&gt;Node5</title>
<path fill="none" stroke="midnightblue" d="M209.496,-38.411C223.021,-33.5162 239.627,-27.5066 254.077,-22.277"/>
<polygon fill="midnightblue" stroke="midnightblue" points="255.46,-25.4987 263.672,-18.8045 253.078,-18.9165 255.46,-25.4987"/>
</g>
</g>
</svg>
