<?xml version="1.0" encoding="UTF-8" standalone="no"?>
<!DOCTYPE svg PUBLIC "-//W3C//DTD SVG 1.1//EN"
 "http://www.w3.org/Graphics/SVG/1.1/DTD/svg11.dtd">
<!-- Generated by graphviz version 2.36.0 (20140111.2315)
 -->
<!-- Title: ArcSyn3sis/ArrayPrototype/test.c Pages: 1 -->
<svg width="144pt" height="96pt"
 viewBox="0.00 0.00 144.00 96.00" xmlns="http://www.w3.org/2000/svg" xmlns:xlink="http://www.w3.org/1999/xlink">
<g id="graph0" class="graph" transform="scale(1 1) rotate(0) translate(4 92)">
<title>ArcSyn3sis/ArrayPrototype/test.c</title>
<polygon fill="white" stroke="none" points="-4,4 -4,-92 140,-92 140,4 -4,4"/>
<!-- Node0 -->
<g id="node1" class="node"><title>Node0</title>
<polygon fill="#bfbfbf" stroke="black" points="0,-57 0,-87 136,-87 136,-57 0,-57"/>
<text text-anchor="start" x="8" y="-75" font-family="Helvetica,sans-Serif" font-size="10.00">ArcSyn3sis/ArrayPrototype</text>
<text text-anchor="middle" x="68" y="-64" font-family="Helvetica,sans-Serif" font-size="10.00">/test.c</text>
</g>
<!-- Node1 -->
<g id="node2" class="node"><title>Node1</title>
<polygon fill="white" stroke="#bfbfbf" points="12,-0.5 12,-19.5 60,-19.5 60,-0.5 12,-0.5"/>
<text text-anchor="middle" x="36" y="-7.5" font-family="Helvetica,sans-Serif" font-size="10.00">stdlib.h</text>
</g>
<!-- Node0&#45;&gt;Node1 -->
<g id="edge1" class="edge"><title>Node0&#45;&gt;Node1</title>
<path fill="none" stroke="midnightblue" d="M60.4164,-56.7808C55.9103,-48.3318 50.159,-37.5481 45.3703,-28.5693"/>
<polygon fill="midnightblue" stroke="midnightblue" points="48.4505,-26.907 40.6563,-19.7305 42.274,-30.2012 48.4505,-26.907"/>
</g>
<!-- Node2 -->
<g id="node3" class="node"><title>Node2</title>
<polygon fill="white" stroke="#bfbfbf" points="78,-0.5 78,-19.5 124,-19.5 124,-0.5 78,-0.5"/>
<text text-anchor="middle" x="101" y="-7.5" font-family="Helvetica,sans-Serif" font-size="10.00">stdio.h</text>
</g>
<!-- Node0&#45;&gt;Node2 -->
<g id="edge2" class="edge"><title>Node0&#45;&gt;Node2</title>
<path fill="none" stroke="midnightblue" d="M75.8205,-56.7808C80.4675,-48.3318 86.3985,-37.5481 91.3369,-28.5693"/>
<polygon fill="midnightblue" stroke="midnightblue" points="94.4457,-30.1794 96.1982,-19.7305 88.3122,-26.806 94.4457,-30.1794"/>
</g>
</g>
</svg>
