<?xml version="1.0" encoding="UTF-8" standalone="no"?>
<!DOCTYPE svg PUBLIC "-//W3C//DTD SVG 1.1//EN"
 "http://www.w3.org/Graphics/SVG/1.1/DTD/svg11.dtd">
<!-- Generated by graphviz version 2.36.0 (20140111.2315)
 -->
<!-- Title: Serial_BetterBalance Pages: 1 -->
<svg width="296pt" height="66pt"
 viewBox="0.00 0.00 296.00 66.00" xmlns="http://www.w3.org/2000/svg" xmlns:xlink="http://www.w3.org/1999/xlink">
<g id="graph0" class="graph" transform="scale(1 1) rotate(0) translate(4 62)">
<title>Serial_BetterBalance</title>
<polygon fill="white" stroke="none" points="-4,4 -4,-62 292,-62 292,4 -4,4"/>
<!-- Node36 -->
<g id="node1" class="node"><title>Node36</title>
<polygon fill="#bfbfbf" stroke="black" points="0,-19.5 0,-38.5 110,-38.5 110,-19.5 0,-19.5"/>
<text text-anchor="middle" x="55" y="-26.5" font-family="Helvetica,sans-Serif" font-size="10.00">Serial_BetterBalance</text>
</g>
<!-- Node37 -->
<g id="node2" class="node"><title>Node37</title>
<g id="a_node2"><a xlink:href="$a00407.html#a9e8699c39f355dea5ad38e1dfee7b7cf" xlink:title="Mc_Serial_FM_2WayRefine">
<polygon fill="white" stroke="black" points="146.5,-38.5 146.5,-57.5 287.5,-57.5 287.5,-38.5 146.5,-38.5"/>
<text text-anchor="middle" x="217" y="-45.5" font-family="Helvetica,sans-Serif" font-size="10.00">Mc_Serial_FM_2WayRefine</text>
</a>
</g>
</g>
<!-- Node36&#45;&gt;Node37 -->
<g id="edge1" class="edge"><title>Node36&#45;&gt;Node37</title>
<path fill="none" stroke="midnightblue" d="M120.127,-36.6151C128.732,-37.6369 137.592,-38.6891 146.287,-39.7216"/>
<polygon fill="midnightblue" stroke="midnightblue" points="120.512,-33.1363 110.169,-35.4325 119.686,-40.0874 120.512,-33.1363"/>
</g>
<!-- Node38 -->
<g id="node3" class="node"><title>Node38</title>
<g id="a_node3"><a xlink:href="$a00407.html#a89fa5b7aa9a8bab154de5a47d47d9d60" xlink:title="Mc_Serial_Balance2Way">
<polygon fill="white" stroke="black" points="153,-0.5 153,-19.5 281,-19.5 281,-0.5 153,-0.5"/>
<text text-anchor="middle" x="217" y="-7.5" font-family="Helvetica,sans-Serif" font-size="10.00">Mc_Serial_Balance2Way</text>
</a>
</g>
</g>
<!-- Node36&#45;&gt;Node38 -->
<g id="edge2" class="edge"><title>Node36&#45;&gt;Node38</title>
<path fill="none" stroke="midnightblue" d="M120.287,-21.3659C130.994,-20.0945 142.091,-18.7767 152.771,-17.5085"/>
<polygon fill="midnightblue" stroke="midnightblue" points="119.686,-17.9126 110.169,-22.5675 120.512,-24.8637 119.686,-17.9126"/>
</g>
</g>
</svg>
