<?xml version="1.0" encoding="UTF-8" standalone="no"?>
<!DOCTYPE svg PUBLIC "-//W3C//DTD SVG 1.1//EN"
 "http://www.w3.org/Graphics/SVG/1.1/DTD/svg11.dtd">
<!-- Generated by graphviz version 2.36.0 (20140111.2315)
 -->
<!-- Title: TestParMetis Pages: 1 -->
<svg width="440pt" height="427pt"
 viewBox="0.00 0.00 440.00 427.00" xmlns="http://www.w3.org/2000/svg" xmlns:xlink="http://www.w3.org/1999/xlink">
<g id="graph0" class="graph" transform="scale(1 1) rotate(0) translate(4 423)">
<title>TestParMetis</title>
<polygon fill="white" stroke="none" points="-4,4 -4,-423 436,-423 436,4 -4,4"/>
<!-- Node38 -->
<g id="node1" class="node"><title>Node38</title>
<polygon fill="#bfbfbf" stroke="black" points="0.5,-190.5 0.5,-209.5 75.5,-209.5 75.5,-190.5 0.5,-190.5"/>
<text text-anchor="middle" x="38" y="-197.5" font-family="Helvetica,sans-Serif" font-size="10.00">TestParMetis</text>
</g>
<!-- Node39 -->
<g id="node2" class="node"><title>Node39</title>
<g id="a_node2"><a xlink:href="a00864.html#abcd3804c62bf4464f2c8de37a42e6ef8" target="_top" xlink:title="ParallelReadGraph">
<polygon fill="white" stroke="black" points="139,-342.5 139,-361.5 241,-361.5 241,-342.5 139,-342.5"/>
<text text-anchor="middle" x="190" y="-349.5" font-family="Helvetica,sans-Serif" font-size="10.00">ParallelReadGraph</text>
</a>
</g>
</g>
<!-- Node38&#45;&gt;Node39 -->
<g id="edge1" class="edge"><title>Node38&#45;&gt;Node39</title>
<path fill="none" stroke="midnightblue" d="M41.7785,-209.65C49.1231,-233.432 71.3325,-295.294 112,-328 117.278,-332.245 123.311,-335.743 129.625,-338.624"/>
<polygon fill="midnightblue" stroke="midnightblue" points="128.439,-341.919 139.022,-342.42 131.061,-335.429 128.439,-341.919"/>
</g>
<!-- Node41 -->
<g id="node4" class="node"><title>Node41</title>
<g id="a_node4"><a xlink:href="a00077.html#ac8df62c4e3d0910711a9874f9cc58884" target="_top" xlink:title="gk_free">
<polygon fill="white" stroke="black" points="304,-323.5 304,-342.5 354,-342.5 354,-323.5 304,-323.5"/>
<text text-anchor="middle" x="329" y="-330.5" font-family="Helvetica,sans-Serif" font-size="10.00">gk_free</text>
</a>
</g>
</g>
<!-- Node38&#45;&gt;Node41 -->
<g id="edge14" class="edge"><title>Node38&#45;&gt;Node41</title>
<path fill="none" stroke="midnightblue" d="M43.4048,-209.727C52.866,-229.408 77.1355,-273.869 112,-295 142.006,-313.186 240.761,-324.882 293.723,-330.007"/>
<polygon fill="midnightblue" stroke="midnightblue" points="293.696,-333.52 303.98,-330.973 294.352,-326.551 293.696,-333.52"/>
</g>
<!-- Node42 -->
<g id="node5" class="node"><title>Node42</title>
<g id="a_node5"><a xlink:href="a00864.html#a4c1a88b3f492be37fe35e779692fb84c" target="_top" xlink:title="ReadTestCoordinates">
<polygon fill="white" stroke="black" points="133,-380.5 133,-399.5 247,-399.5 247,-380.5 133,-380.5"/>
<text text-anchor="middle" x="190" y="-387.5" font-family="Helvetica,sans-Serif" font-size="10.00">ReadTestCoordinates</text>
</a>
</g>
</g>
<!-- Node38&#45;&gt;Node42 -->
<g id="edge4" class="edge"><title>Node38&#45;&gt;Node42</title>
<path fill="none" stroke="midnightblue" d="M40.1638,-209.904C44.1658,-239.323 60.11,-326.882 112,-371 115.517,-373.991 119.434,-376.524 123.586,-378.668"/>
<polygon fill="midnightblue" stroke="midnightblue" points="122.42,-381.978 132.985,-382.767 125.218,-375.561 122.42,-381.978"/>
</g>
<!-- Node45 -->
<g id="node8" class="node"><title>Node45</title>
<g id="a_node8"><a xlink:href="a00422.html#a82918f9e496dea47e55d3f6b23db0449" target="_top" xlink:title="Mc_AdaptGraph">
<polygon fill="white" stroke="black" points="145.5,-266.5 145.5,-285.5 234.5,-285.5 234.5,-266.5 145.5,-266.5"/>
<text text-anchor="middle" x="190" y="-273.5" font-family="Helvetica,sans-Serif" font-size="10.00">Mc_AdaptGraph</text>
</a>
</g>
</g>
<!-- Node38&#45;&gt;Node45 -->
<g id="edge9" class="edge"><title>Node38&#45;&gt;Node45</title>
<path fill="none" stroke="midnightblue" d="M48.4744,-209.596C61.5883,-222.327 86.5475,-244.629 112,-257 119.307,-260.552 127.337,-263.476 135.368,-265.872"/>
<polygon fill="midnightblue" stroke="midnightblue" points="134.546,-269.276 145.116,-268.541 136.395,-262.525 134.546,-269.276"/>
</g>
<!-- Node46 -->
<g id="node9" class="node"><title>Node46</title>
<g id="a_node9"><a xlink:href="a00843.html#af418d1e76eaf4f80116da4caf51bd54e" target="_top" xlink:title="ParMETIS_V3_PartKway">
<polygon fill="white" stroke="black" points="125.5,-228.5 125.5,-247.5 254.5,-247.5 254.5,-228.5 125.5,-228.5"/>
<text text-anchor="middle" x="190" y="-235.5" font-family="Helvetica,sans-Serif" font-size="10.00">ParMETIS_V3_PartKway</text>
</a>
</g>
</g>
<!-- Node38&#45;&gt;Node46 -->
<g id="edge10" class="edge"><title>Node38&#45;&gt;Node46</title>
<path fill="none" stroke="midnightblue" d="M75.3656,-209.562C87.0554,-212.61 100.067,-215.975 112,-219 121.017,-221.286 130.638,-223.689 139.916,-225.987"/>
<polygon fill="midnightblue" stroke="midnightblue" points="139.256,-229.43 149.804,-228.43 140.936,-222.634 139.256,-229.43"/>
</g>
<!-- Node47 -->
<g id="node10" class="node"><title>Node47</title>
<g id="a_node10"><a xlink:href="a00843.html#a6df93293cf3d1ccb4659bd1b3091623d" target="_top" xlink:title="ParMETIS_V3_PartGeomKway">
<polygon fill="white" stroke="black" points="112,-190.5 112,-209.5 268,-209.5 268,-190.5 112,-190.5"/>
<text text-anchor="middle" x="190" y="-197.5" font-family="Helvetica,sans-Serif" font-size="10.00">ParMETIS_V3_PartGeomKway</text>
</a>
</g>
</g>
<!-- Node38&#45;&gt;Node47 -->
<g id="edge11" class="edge"><title>Node38&#45;&gt;Node47</title>
<path fill="none" stroke="midnightblue" d="M75.6941,-200C83.6973,-200 92.4959,-200 101.543,-200"/>
<polygon fill="midnightblue" stroke="midnightblue" points="101.835,-203.5 111.835,-200 101.835,-196.5 101.835,-203.5"/>
</g>
<!-- Node48 -->
<g id="node11" class="node"><title>Node48</title>
<g id="a_node11"><a xlink:href="a00843.html#ad40a7809c9bdf183926da011220bad75" target="_top" xlink:title="ParMETIS_V3_RefineKway">
<polygon fill="white" stroke="black" points="120.5,-152.5 120.5,-171.5 259.5,-171.5 259.5,-152.5 120.5,-152.5"/>
<text text-anchor="middle" x="190" y="-159.5" font-family="Helvetica,sans-Serif" font-size="10.00">ParMETIS_V3_RefineKway</text>
</a>
</g>
</g>
<!-- Node38&#45;&gt;Node48 -->
<g id="edge12" class="edge"><title>Node38&#45;&gt;Node48</title>
<path fill="none" stroke="midnightblue" d="M75.3656,-190.438C87.0554,-187.39 100.067,-184.025 112,-181 121.017,-178.714 130.638,-176.311 139.916,-174.013"/>
<polygon fill="midnightblue" stroke="midnightblue" points="140.936,-177.366 149.804,-171.57 139.256,-170.57 140.936,-177.366"/>
</g>
<!-- Node49 -->
<g id="node12" class="node"><title>Node49</title>
<g id="a_node12"><a xlink:href="a00428.html#a136ad3b21ef4f877c3100a997814e8ce" target="_top" xlink:title="TestMoveGraph">
<polygon fill="white" stroke="black" points="146,-114.5 146,-133.5 234,-133.5 234,-114.5 146,-114.5"/>
<text text-anchor="middle" x="190" y="-121.5" font-family="Helvetica,sans-Serif" font-size="10.00">TestMoveGraph</text>
</a>
</g>
</g>
<!-- Node38&#45;&gt;Node49 -->
<g id="edge13" class="edge"><title>Node38&#45;&gt;Node49</title>
<path fill="none" stroke="midnightblue" d="M48.4744,-190.404C61.5883,-177.673 86.5475,-155.371 112,-143 119.566,-139.323 127.906,-136.318 136.219,-133.875"/>
<polygon fill="midnightblue" stroke="midnightblue" points="137.176,-137.243 145.919,-131.259 135.353,-130.484 137.176,-137.243"/>
</g>
<!-- Node50 -->
<g id="node13" class="node"><title>Node50</title>
<g id="a_node13"><a xlink:href="a00422.html#abe7cfd52605c309687e45b1d1e0d936c" target="_top" xlink:title="AdaptGraph">
<polygon fill="white" stroke="black" points="155,-76.5 155,-95.5 225,-95.5 225,-76.5 155,-76.5"/>
<text text-anchor="middle" x="190" y="-83.5" font-family="Helvetica,sans-Serif" font-size="10.00">AdaptGraph</text>
</a>
</g>
</g>
<!-- Node38&#45;&gt;Node50 -->
<g id="edge15" class="edge"><title>Node38&#45;&gt;Node50</title>
<path fill="none" stroke="midnightblue" d="M43.5261,-190.466C53.211,-171.14 77.8715,-127.3 112,-105 121.807,-98.5923 133.599,-94.3452 144.975,-91.5302"/>
<polygon fill="midnightblue" stroke="midnightblue" points="145.769,-94.9395 154.804,-89.4068 144.291,-88.0974 145.769,-94.9395"/>
</g>
<!-- Node51 -->
<g id="node14" class="node"><title>Node51</title>
<g id="a_node14"><a xlink:href="a00843.html#ac00c3da2cf618cbfa9158463a851491e" target="_top" xlink:title="ParMETIS_V3_AdaptiveRepart">
<polygon fill="white" stroke="black" points="112.5,-38.5 112.5,-57.5 267.5,-57.5 267.5,-38.5 112.5,-38.5"/>
<text text-anchor="middle" x="190" y="-45.5" font-family="Helvetica,sans-Serif" font-size="10.00">ParMETIS_V3_AdaptiveRepart</text>
</a>
</g>
</g>
<!-- Node38&#45;&gt;Node51 -->
<g id="edge16" class="edge"><title>Node38&#45;&gt;Node51</title>
<path fill="none" stroke="midnightblue" d="M41.4402,-190.186C48.1318,-165.398 69.1904,-99.9083 112,-67 114.354,-65.1906 116.857,-63.5512 119.469,-62.066"/>
<polygon fill="midnightblue" stroke="midnightblue" points="121.232,-65.1008 128.702,-57.5875 118.177,-58.8025 121.232,-65.1008"/>
</g>
<!-- Node52 -->
<g id="node15" class="node"><title>Node52</title>
<g id="a_node15"><a xlink:href="a00843.html#add23df29b4f232ac4c2cca94cc083a32" target="_top" xlink:title="ParMETIS_V3_NodeND">
<polygon fill="white" stroke="black" points="128,-0.5 128,-19.5 252,-19.5 252,-0.5 128,-0.5"/>
<text text-anchor="middle" x="190" y="-7.5" font-family="Helvetica,sans-Serif" font-size="10.00">ParMETIS_V3_NodeND</text>
</a>
</g>
</g>
<!-- Node38&#45;&gt;Node52 -->
<g id="edge17" class="edge"><title>Node38&#45;&gt;Node52</title>
<path fill="none" stroke="midnightblue" d="M40.1638,-190.096C44.1658,-160.677 60.11,-73.1177 112,-29 114.065,-27.2441 116.268,-25.6459 118.576,-24.1916"/>
<polygon fill="midnightblue" stroke="midnightblue" points="120.707,-27.0246 127.922,-19.2657 117.443,-20.832 120.707,-27.0246"/>
</g>
<!-- Node40 -->
<g id="node3" class="node"><title>Node40</title>
<g id="a_node3"><a xlink:href="a01017.html#a355ed4cdac2a27aa04a6689ac2d7e86e" target="_top" xlink:title="fclose">
<polygon fill="white" stroke="black" points="307.5,-361.5 307.5,-380.5 350.5,-380.5 350.5,-361.5 307.5,-361.5"/>
<text text-anchor="middle" x="329" y="-368.5" font-family="Helvetica,sans-Serif" font-size="10.00">fclose</text>
</a>
</g>
</g>
<!-- Node39&#45;&gt;Node40 -->
<g id="edge2" class="edge"><title>Node39&#45;&gt;Node40</title>
<path fill="none" stroke="midnightblue" d="M241.236,-358.967C260.029,-361.573 280.801,-364.454 297.308,-366.743"/>
<polygon fill="midnightblue" stroke="midnightblue" points="297.09,-370.247 307.476,-368.154 298.051,-363.313 297.09,-370.247"/>
</g>
<!-- Node39&#45;&gt;Node41 -->
<g id="edge3" class="edge"><title>Node39&#45;&gt;Node41</title>
<path fill="none" stroke="midnightblue" d="M241.236,-345.033C258.776,-342.6 278.04,-339.929 293.952,-337.722"/>
<polygon fill="midnightblue" stroke="midnightblue" points="294.447,-341.187 303.872,-336.346 293.486,-334.253 294.447,-341.187"/>
</g>
<!-- Node42&#45;&gt;Node40 -->
<g id="edge7" class="edge"><title>Node42&#45;&gt;Node40</title>
<path fill="none" stroke="midnightblue" d="M247.118,-382.217C264.244,-379.842 282.437,-377.319 297.223,-375.268"/>
<polygon fill="midnightblue" stroke="midnightblue" points="297.898,-378.708 307.323,-373.868 296.937,-371.775 297.898,-378.708"/>
</g>
<!-- Node42&#45;&gt;Node41 -->
<g id="edge8" class="edge"><title>Node42&#45;&gt;Node41</title>
<path fill="none" stroke="midnightblue" d="M239.837,-380.475C249.361,-377.916 259.135,-374.782 268,-371 281.781,-365.121 295.998,-356.261 307.132,-348.575"/>
<polygon fill="midnightblue" stroke="midnightblue" points="309.213,-351.39 315.333,-342.742 305.155,-345.686 309.213,-351.39"/>
</g>
<!-- Node43 -->
<g id="node6" class="node"><title>Node43</title>
<g id="a_node6"><a xlink:href="a00026.html#a56d0f2cc40cd8633a784582d6200d8b5" target="_top" xlink:title="errexit">
<polygon fill="white" stroke="black" points="307,-399.5 307,-418.5 351,-418.5 351,-399.5 307,-399.5"/>
<text text-anchor="middle" x="329" y="-406.5" font-family="Helvetica,sans-Serif" font-size="10.00">errexit</text>
</a>
</g>
</g>
<!-- Node42&#45;&gt;Node43 -->
<g id="edge5" class="edge"><title>Node42&#45;&gt;Node43</title>
<path fill="none" stroke="midnightblue" d="M247.118,-397.783C264.125,-400.141 282.184,-402.646 296.914,-404.689"/>
<polygon fill="midnightblue" stroke="midnightblue" points="296.603,-408.179 306.989,-406.086 297.564,-401.245 296.603,-408.179"/>
</g>
<!-- Node44 -->
<g id="node7" class="node"><title>Node44</title>
<g id="a_node7"><a xlink:href="a01017.html#a2e311a777ffe9c80e405efa7cd2757be" target="_top" xlink:title="fprintf">
<polygon fill="white" stroke="black" points="390,-399.5 390,-418.5 432,-418.5 432,-399.5 390,-399.5"/>
<text text-anchor="middle" x="411" y="-406.5" font-family="Helvetica,sans-Serif" font-size="10.00">fprintf</text>
</a>
</g>
</g>
<!-- Node43&#45;&gt;Node44 -->
<g id="edge6" class="edge"><title>Node43&#45;&gt;Node44</title>
<path fill="none" stroke="midnightblue" d="M351.019,-409C359.858,-409 370.308,-409 379.937,-409"/>
<polygon fill="midnightblue" stroke="midnightblue" points="379.948,-412.5 389.948,-409 379.948,-405.5 379.948,-412.5"/>
</g>
</g>
</svg>
