<?xml version="1.0" encoding="UTF-8" standalone="no"?>
<!DOCTYPE svg PUBLIC "-//W3C//DTD SVG 1.1//EN"
 "http://www.w3.org/Graphics/SVG/1.1/DTD/svg11.dtd">
<!-- Generated by graphviz version 2.36.0 (20140111.2315)
 -->
<!-- Title: LoadBalance3d Pages: 1 -->
<svg width="284pt" height="256pt"
 viewBox="0.00 0.00 284.00 256.00" xmlns="http://www.w3.org/2000/svg" xmlns:xlink="http://www.w3.org/1999/xlink">
<g id="graph0" class="graph" transform="scale(1 1) rotate(0) translate(4 252)">
<title>LoadBalance3d</title>
<polygon fill="white" stroke="none" points="-4,4 -4,-252 280,-252 280,4 -4,4"/>
<!-- Node123 -->
<g id="node1" class="node"><title>Node123</title>
<polygon fill="#bfbfbf" stroke="black" points="0,-114.5 0,-133.5 86,-133.5 86,-114.5 0,-114.5"/>
<text text-anchor="middle" x="43" y="-121.5" font-family="Helvetica,sans-Serif" font-size="10.00">LoadBalance3d</text>
</g>
<!-- Node124 -->
<g id="node2" class="node"><title>Node124</title>
<g id="a_node2"><a xlink:href="a00554.html#a0f24d8056fa979af4888469ea90576ff" target="_top" xlink:title="BuildIntVector">
<polygon fill="white" stroke="black" points="159.5,-228.5 159.5,-247.5 238.5,-247.5 238.5,-228.5 159.5,-228.5"/>
<text text-anchor="middle" x="199" y="-235.5" font-family="Helvetica,sans-Serif" font-size="10.00">BuildIntVector</text>
</a>
</g>
</g>
<!-- Node123&#45;&gt;Node124 -->
<g id="edge1" class="edge"><title>Node123&#45;&gt;Node124</title>
<path fill="none" stroke="midnightblue" d="M49.0209,-133.524C59.7099,-152.829 86.6551,-196.635 122,-219 130.274,-224.236 139.905,-228.029 149.475,-230.777"/>
<polygon fill="midnightblue" stroke="midnightblue" points="148.814,-234.22 159.367,-233.28 150.531,-227.434 148.814,-234.22"/>
</g>
<!-- Node125 -->
<g id="node3" class="node"><title>Node125</title>
<g id="a_node3"><a xlink:href="a00843.html#a2ae9750ec09afdc4243b7cb7c5118666" target="_top" xlink:title="ParMETIS_V3_PartMeshKway">
<polygon fill="white" stroke="black" points="122.5,-190.5 122.5,-209.5 275.5,-209.5 275.5,-190.5 122.5,-190.5"/>
<text text-anchor="middle" x="199" y="-197.5" font-family="Helvetica,sans-Serif" font-size="10.00">ParMETIS_V3_PartMeshKway</text>
</a>
</g>
</g>
<!-- Node123&#45;&gt;Node125 -->
<g id="edge2" class="edge"><title>Node123&#45;&gt;Node125</title>
<path fill="none" stroke="midnightblue" d="M54.2592,-133.552C68.4253,-146.233 95.268,-168.479 122,-181 127.208,-183.439 132.768,-185.591 138.423,-187.483"/>
<polygon fill="midnightblue" stroke="midnightblue" points="137.396,-190.829 147.983,-190.429 139.457,-184.14 137.396,-190.829"/>
</g>
<!-- Node126 -->
<g id="node4" class="node"><title>Node126</title>
<g id="a_node4"><a xlink:href="a00554.html#a77f751d54b396015520a882d7a318e57" target="_top" xlink:title="BuildIntMatrix">
<polygon fill="white" stroke="black" points="160.5,-152.5 160.5,-171.5 237.5,-171.5 237.5,-152.5 160.5,-152.5"/>
<text text-anchor="middle" x="199" y="-159.5" font-family="Helvetica,sans-Serif" font-size="10.00">BuildIntMatrix</text>
</a>
</g>
</g>
<!-- Node123&#45;&gt;Node126 -->
<g id="edge3" class="edge"><title>Node123&#45;&gt;Node126</title>
<path fill="none" stroke="midnightblue" d="M82.8607,-133.589C103.399,-138.657 128.78,-144.92 150.481,-150.275"/>
<polygon fill="midnightblue" stroke="midnightblue" points="149.934,-153.744 160.481,-152.742 151.611,-146.948 149.934,-153.744"/>
</g>
<!-- Node127 -->
<g id="node5" class="node"><title>Node127</title>
<g id="a_node5"><a xlink:href="a00554.html#a4bf6e503687187059ced10b812beaab3" target="_top" xlink:title="BuildMatrix">
<polygon fill="white" stroke="black" points="166,-114.5 166,-133.5 232,-133.5 232,-114.5 166,-114.5"/>
<text text-anchor="middle" x="199" y="-121.5" font-family="Helvetica,sans-Serif" font-size="10.00">BuildMatrix</text>
</a>
</g>
</g>
<!-- Node123&#45;&gt;Node127 -->
<g id="edge4" class="edge"><title>Node123&#45;&gt;Node127</title>
<path fill="none" stroke="midnightblue" d="M86.0812,-124C107.663,-124 133.889,-124 155.527,-124"/>
<polygon fill="midnightblue" stroke="midnightblue" points="155.74,-127.5 165.74,-124 155.74,-120.5 155.74,-127.5"/>
</g>
<!-- Node128 -->
<g id="node6" class="node"><title>Node128</title>
<g id="a_node6"><a xlink:href="a00554.html#a990278305dbeaf8e4441cf4146bfdc62" target="_top" xlink:title="BuildVector">
<polygon fill="white" stroke="black" points="165,-76.5 165,-95.5 233,-95.5 233,-76.5 165,-76.5"/>
<text text-anchor="middle" x="199" y="-83.5" font-family="Helvetica,sans-Serif" font-size="10.00">BuildVector</text>
</a>
</g>
</g>
<!-- Node123&#45;&gt;Node128 -->
<g id="edge5" class="edge"><title>Node123&#45;&gt;Node128</title>
<path fill="none" stroke="midnightblue" d="M82.8607,-114.411C104.805,-108.996 132.279,-102.217 154.885,-96.6387"/>
<polygon fill="midnightblue" stroke="midnightblue" points="156.022,-99.9633 164.892,-94.1695 154.345,-93.1671 156.022,-99.9633"/>
</g>
<!-- Node129 -->
<g id="node7" class="node"><title>Node129</title>
<g id="a_node7"><a xlink:href="a00554.html#afa534e284e3bdd83ec70e03b3348d960" target="_top" xlink:title="DestroyMatrix">
<polygon fill="white" stroke="black" points="160,-38.5 160,-57.5 238,-57.5 238,-38.5 160,-38.5"/>
<text text-anchor="middle" x="199" y="-45.5" font-family="Helvetica,sans-Serif" font-size="10.00">DestroyMatrix</text>
</a>
</g>
</g>
<!-- Node123&#45;&gt;Node129 -->
<g id="edge6" class="edge"><title>Node123&#45;&gt;Node129</title>
<path fill="none" stroke="midnightblue" d="M54.2592,-114.448C68.4253,-101.767 95.268,-79.5206 122,-67 130.775,-62.8898 140.553,-59.5957 150.096,-56.9818"/>
<polygon fill="midnightblue" stroke="midnightblue" points="151.068,-60.3462 159.903,-54.4985 149.35,-53.5603 151.068,-60.3462"/>
</g>
<!-- Node130 -->
<g id="node8" class="node"><title>Node130</title>
<g id="a_node8"><a xlink:href="a00554.html#a4212ac496c2e42e38dd0ad0cd18ed161" target="_top" xlink:title="DestroyIntMatrix">
<polygon fill="white" stroke="black" points="154.5,-0.5 154.5,-19.5 243.5,-19.5 243.5,-0.5 154.5,-0.5"/>
<text text-anchor="middle" x="199" y="-7.5" font-family="Helvetica,sans-Serif" font-size="10.00">DestroyIntMatrix</text>
</a>
</g>
</g>
<!-- Node123&#45;&gt;Node130 -->
<g id="edge7" class="edge"><title>Node123&#45;&gt;Node130</title>
<path fill="none" stroke="midnightblue" d="M49.0209,-114.476C59.7099,-95.1709 86.6551,-51.365 122,-29 128.863,-24.6571 136.66,-21.3064 144.582,-18.7214"/>
<polygon fill="midnightblue" stroke="midnightblue" points="145.613,-22.0667 154.252,-15.9327 143.674,-15.3407 145.613,-22.0667"/>
</g>
</g>
</svg>
