<?xml version="1.0" encoding="UTF-8" standalone="no"?>
<!DOCTYPE svg PUBLIC "-//W3C//DTD SVG 1.1//EN"
 "http://www.w3.org/Graphics/SVG/1.1/DTD/svg11.dtd">
<!-- Generated by graphviz version 2.36.0 (20140111.2315)
 -->
<!-- Title: ArcSyn3sis/src/old/ParallelPairs.cpp Pages: 1 -->
<svg width="384pt" height="96pt"
 viewBox="0.00 0.00 384.00 96.00" xmlns="http://www.w3.org/2000/svg" xmlns:xlink="http://www.w3.org/1999/xlink">
<g id="graph0" class="graph" transform="scale(1 1) rotate(0) translate(4 92)">
<title>ArcSyn3sis/src/old/ParallelPairs.cpp</title>
<polygon fill="white" stroke="none" points="-4,4 -4,-92 380,-92 380,4 -4,4"/>
<!-- Node0 -->
<g id="node1" class="node"><title>Node0</title>
<polygon fill="#bfbfbf" stroke="black" points="146.5,-57 146.5,-87 245.5,-87 245.5,-57 146.5,-57"/>
<text text-anchor="start" x="154.5" y="-75" font-family="Helvetica,sans-Serif" font-size="10.00">ArcSyn3sis/src/old</text>
<text text-anchor="middle" x="196" y="-64" font-family="Helvetica,sans-Serif" font-size="10.00">/ParallelPairs.cpp</text>
</g>
<!-- Node1 -->
<g id="node2" class="node"><title>Node1</title>
<polygon fill="white" stroke="#bfbfbf" points="0,-0.5 0,-19.5 54,-19.5 54,-0.5 0,-0.5"/>
<text text-anchor="middle" x="27" y="-7.5" font-family="Helvetica,sans-Serif" font-size="10.00">strings.h</text>
</g>
<!-- Node0&#45;&gt;Node1 -->
<g id="edge1" class="edge"><title>Node0&#45;&gt;Node1</title>
<path fill="none" stroke="midnightblue" d="M156.377,-56.9327C127.356,-46.6292 88.385,-32.7935 60.8224,-23.0079"/>
<polygon fill="midnightblue" stroke="midnightblue" points="61.8181,-19.6475 51.2234,-19.6 59.4761,-26.2441 61.8181,-19.6475"/>
</g>
<!-- Node2 -->
<g id="node3" class="node"><title>Node2</title>
<polygon fill="white" stroke="#bfbfbf" points="72.5,-0.5 72.5,-19.5 121.5,-19.5 121.5,-0.5 72.5,-0.5"/>
<text text-anchor="middle" x="97" y="-7.5" font-family="Helvetica,sans-Serif" font-size="10.00">string.h</text>
</g>
<!-- Node0&#45;&gt;Node2 -->
<g id="edge2" class="edge"><title>Node0&#45;&gt;Node2</title>
<path fill="none" stroke="midnightblue" d="M172.789,-56.9327C156.832,-47.2619 135.741,-34.4793 119.86,-24.8546"/>
<polygon fill="midnightblue" stroke="midnightblue" points="121.556,-21.7899 111.19,-19.6 117.928,-27.7763 121.556,-21.7899"/>
</g>
<!-- Node3 -->
<g id="node4" class="node"><title>Node3</title>
<polygon fill="white" stroke="#bfbfbf" points="140,-0.5 140,-19.5 188,-19.5 188,-0.5 140,-0.5"/>
<text text-anchor="middle" x="164" y="-7.5" font-family="Helvetica,sans-Serif" font-size="10.00">stdlib.h</text>
</g>
<!-- Node0&#45;&gt;Node3 -->
<g id="edge3" class="edge"><title>Node0&#45;&gt;Node3</title>
<path fill="none" stroke="midnightblue" d="M188.416,-56.7808C183.91,-48.3318 178.159,-37.5481 173.37,-28.5693"/>
<polygon fill="midnightblue" stroke="midnightblue" points="176.45,-26.907 168.656,-19.7305 170.274,-30.2012 176.45,-26.907"/>
</g>
<!-- Node4 -->
<g id="node5" class="node"><title>Node4</title>
<polygon fill="white" stroke="#bfbfbf" points="206,-0.5 206,-19.5 252,-19.5 252,-0.5 206,-0.5"/>
<text text-anchor="middle" x="229" y="-7.5" font-family="Helvetica,sans-Serif" font-size="10.00">stdio.h</text>
</g>
<!-- Node0&#45;&gt;Node4 -->
<g id="edge4" class="edge"><title>Node0&#45;&gt;Node4</title>
<path fill="none" stroke="midnightblue" d="M203.821,-56.7808C208.468,-48.3318 214.399,-37.5481 219.337,-28.5693"/>
<polygon fill="midnightblue" stroke="midnightblue" points="222.446,-30.1794 224.198,-19.7305 216.312,-26.806 222.446,-30.1794"/>
</g>
<!-- Node5 -->
<g id="node6" class="node"><title>Node5</title>
<polygon fill="white" stroke="#bfbfbf" points="270.5,-0.5 270.5,-19.5 317.5,-19.5 317.5,-0.5 270.5,-0.5"/>
<text text-anchor="middle" x="294" y="-7.5" font-family="Helvetica,sans-Serif" font-size="10.00">math.h</text>
</g>
<!-- Node0&#45;&gt;Node5 -->
<g id="edge5" class="edge"><title>Node0&#45;&gt;Node5</title>
<path fill="none" stroke="midnightblue" d="M219.225,-56.7808C235.028,-47.1054 255.832,-34.3684 271.483,-24.7861"/>
<polygon fill="midnightblue" stroke="midnightblue" points="273.325,-27.7623 280.026,-19.5557 269.67,-21.7923 273.325,-27.7623"/>
</g>
<!-- Node6 -->
<g id="node7" class="node"><title>Node6</title>
<polygon fill="white" stroke="#bfbfbf" points="335.5,-0.5 335.5,-19.5 376.5,-19.5 376.5,-0.5 335.5,-0.5"/>
<text text-anchor="middle" x="356" y="-7.5" font-family="Helvetica,sans-Serif" font-size="10.00">mpi.h</text>
</g>
<!-- Node0&#45;&gt;Node6 -->
<g id="edge6" class="edge"><title>Node0&#45;&gt;Node6</title>
<path fill="none" stroke="midnightblue" d="M233.513,-56.9327C261.687,-46.3673 299.766,-32.0877 325.948,-22.2696"/>
<polygon fill="midnightblue" stroke="midnightblue" points="327.22,-25.5306 335.354,-18.7422 324.762,-18.9763 327.22,-25.5306"/>
</g>
</g>
</svg>
