<?xml version="1.0" encoding="UTF-8" standalone="no"?>
<!DOCTYPE svg PUBLIC "-//W3C//DTD SVG 1.1//EN"
 "http://www.w3.org/Graphics/SVG/1.1/DTD/svg11.dtd">
<!-- Generated by graphviz version 2.36.0 (20140111.2315)
 -->
<!-- Title: ReadMesh2d Pages: 1 -->
<svg width="200pt" height="218pt"
 viewBox="0.00 0.00 200.00 218.00" xmlns="http://www.w3.org/2000/svg" xmlns:xlink="http://www.w3.org/1999/xlink">
<g id="graph0" class="graph" transform="scale(1 1) rotate(0) translate(4 214)">
<title>ReadMesh2d</title>
<polygon fill="white" stroke="none" points="-4,4 -4,-214 196,-214 196,4 -4,4"/>
<!-- Node170 -->
<g id="node1" class="node"><title>Node170</title>
<polygon fill="#bfbfbf" stroke="black" points="0,-95.5 0,-114.5 76,-114.5 76,-95.5 0,-95.5"/>
<text text-anchor="middle" x="38" y="-102.5" font-family="Helvetica,sans-Serif" font-size="10.00">ReadMesh2d</text>
</g>
<!-- Node171 -->
<g id="node2" class="node"><title>Node171</title>
<g id="a_node2"><a xlink:href="a00554.html#a990278305dbeaf8e4441cf4146bfdc62" target="_top" xlink:title="BuildVector">
<polygon fill="white" stroke="black" points="118,-190.5 118,-209.5 186,-209.5 186,-190.5 118,-190.5"/>
<text text-anchor="middle" x="152" y="-197.5" font-family="Helvetica,sans-Serif" font-size="10.00">BuildVector</text>
</a>
</g>
</g>
<!-- Node170&#45;&gt;Node171 -->
<g id="edge1" class="edge"><title>Node170&#45;&gt;Node171</title>
<path fill="none" stroke="midnightblue" d="M46.6176,-114.951C58.9814,-130.591 84.788,-161.183 112,-181 114.207,-182.607 116.571,-184.14 119.003,-185.588"/>
<polygon fill="midnightblue" stroke="midnightblue" points="117.492,-188.75 127.952,-190.436 120.827,-182.595 117.492,-188.75"/>
</g>
<!-- Node172 -->
<g id="node3" class="node"><title>Node172</title>
<g id="a_node3"><a xlink:href="a00554.html#a77f751d54b396015520a882d7a318e57" target="_top" xlink:title="BuildIntMatrix">
<polygon fill="white" stroke="black" points="113.5,-152.5 113.5,-171.5 190.5,-171.5 190.5,-152.5 113.5,-152.5"/>
<text text-anchor="middle" x="152" y="-159.5" font-family="Helvetica,sans-Serif" font-size="10.00">BuildIntMatrix</text>
</a>
</g>
</g>
<!-- Node170&#45;&gt;Node172 -->
<g id="edge2" class="edge"><title>Node170&#45;&gt;Node172</title>
<path fill="none" stroke="midnightblue" d="M56.9315,-114.504C71.6669,-122.272 93.1148,-133.487 112,-143 115.191,-144.607 118.538,-146.271 121.875,-147.916"/>
<polygon fill="midnightblue" stroke="midnightblue" points="120.589,-151.183 131.109,-152.436 123.666,-144.896 120.589,-151.183"/>
</g>
<!-- Node173 -->
<g id="node4" class="node"><title>Node173</title>
<g id="a_node4"><a xlink:href="a00554.html#a4bf6e503687187059ced10b812beaab3" target="_top" xlink:title="BuildMatrix">
<polygon fill="white" stroke="black" points="119,-114.5 119,-133.5 185,-133.5 185,-114.5 119,-114.5"/>
<text text-anchor="middle" x="152" y="-121.5" font-family="Helvetica,sans-Serif" font-size="10.00">BuildMatrix</text>
</a>
</g>
</g>
<!-- Node170&#45;&gt;Node173 -->
<g id="edge3" class="edge"><title>Node170&#45;&gt;Node173</title>
<path fill="none" stroke="midnightblue" d="M76.2944,-111.327C86.7106,-113.094 98.1022,-115.026 108.781,-116.838"/>
<polygon fill="midnightblue" stroke="midnightblue" points="108.301,-120.306 118.746,-118.528 109.472,-113.405 108.301,-120.306"/>
</g>
<!-- Node174 -->
<g id="node5" class="node"><title>Node174</title>
<g id="a_node5"><a xlink:href="a00554.html#a0f24d8056fa979af4888469ea90576ff" target="_top" xlink:title="BuildIntVector">
<polygon fill="white" stroke="black" points="112.5,-76.5 112.5,-95.5 191.5,-95.5 191.5,-76.5 112.5,-76.5"/>
<text text-anchor="middle" x="152" y="-83.5" font-family="Helvetica,sans-Serif" font-size="10.00">BuildIntVector</text>
</a>
</g>
</g>
<!-- Node170&#45;&gt;Node174 -->
<g id="edge4" class="edge"><title>Node170&#45;&gt;Node174</title>
<path fill="none" stroke="midnightblue" d="M76.2944,-98.6733C84.6186,-97.2611 93.5657,-95.7433 102.274,-94.266"/>
<polygon fill="midnightblue" stroke="midnightblue" points="103.062,-97.6824 112.336,-92.5591 101.891,-90.781 103.062,-97.6824"/>
</g>
<!-- Node175 -->
<g id="node6" class="node"><title>Node175</title>
<g id="a_node6"><a xlink:href="a00554.html#a6031ee45d6b3d95665a885b7128c311c" target="_top" xlink:title="Build3Tensor">
<polygon fill="white" stroke="black" points="114.5,-38.5 114.5,-57.5 189.5,-57.5 189.5,-38.5 114.5,-38.5"/>
<text text-anchor="middle" x="152" y="-45.5" font-family="Helvetica,sans-Serif" font-size="10.00">Build3Tensor</text>
</a>
</g>
</g>
<!-- Node170&#45;&gt;Node175 -->
<g id="edge5" class="edge"><title>Node170&#45;&gt;Node175</title>
<path fill="none" stroke="midnightblue" d="M56.9315,-95.4965C71.6669,-87.7277 93.1148,-76.5135 112,-67 115.191,-65.3926 118.538,-63.7285 121.875,-62.084"/>
<polygon fill="midnightblue" stroke="midnightblue" points="123.666,-65.1039 131.109,-57.5641 120.589,-58.8166 123.666,-65.1039"/>
</g>
<!-- Node176 -->
<g id="node7" class="node"><title>Node176</title>
<g id="a_node7"><a xlink:href="a01017.html#a355ed4cdac2a27aa04a6689ac2d7e86e" target="_top" xlink:title="fclose">
<polygon fill="white" stroke="black" points="130.5,-0.5 130.5,-19.5 173.5,-19.5 173.5,-0.5 130.5,-0.5"/>
<text text-anchor="middle" x="152" y="-7.5" font-family="Helvetica,sans-Serif" font-size="10.00">fclose</text>
</a>
</g>
</g>
<!-- Node170&#45;&gt;Node176 -->
<g id="edge6" class="edge"><title>Node170&#45;&gt;Node176</title>
<path fill="none" stroke="midnightblue" d="M46.6176,-95.0491C58.9814,-79.4088 84.788,-48.8171 112,-29 114.888,-26.8967 118.045,-24.9205 121.272,-23.0966"/>
<polygon fill="midnightblue" stroke="midnightblue" points="123.114,-26.0844 130.387,-18.38 119.897,-19.8674 123.114,-26.0844"/>
</g>
</g>
</svg>
