<?xml version="1.0" encoding="UTF-8" standalone="no"?>
<!DOCTYPE svg PUBLIC "-//W3C//DTD SVG 1.1//EN"
 "http://www.w3.org/Graphics/SVG/1.1/DTD/svg11.dtd">
<!-- Generated by graphviz version 2.36.0 (20140111.2315)
 -->
<!-- Title: gk_mcore_t Pages: 1 -->
<svg width="88pt" height="326pt"
 viewBox="0.00 0.00 88.00 326.00" xmlns="http://www.w3.org/2000/svg" xmlns:xlink="http://www.w3.org/1999/xlink">
<g id="graph0" class="graph" transform="scale(1 1) rotate(0) translate(4 322)">
<title>gk_mcore_t</title>
<polygon fill="white" stroke="none" points="-4,4 -4,-322 84,-322 84,4 -4,4"/>
<!-- Node1 -->
<g id="node1" class="node"><title>Node1</title>
<polygon fill="#bfbfbf" stroke="black" points="-0.5,-0.5 -0.5,-189.5 80.5,-189.5 80.5,-0.5 -0.5,-0.5"/>
<text text-anchor="middle" x="40" y="-177.5" font-family="Helvetica,sans-Serif" font-size="10.00">gk_mcore_t</text>
<polyline fill="none" stroke="black" points="-0.5,-170.5 80.5,-170.5 "/>
<text text-anchor="start" x="7.5" y="-158.5" font-family="Helvetica,sans-Serif" font-size="10.00">+ coresize</text>
<text text-anchor="start" x="7.5" y="-147.5" font-family="Helvetica,sans-Serif" font-size="10.00">+ corecpos</text>
<text text-anchor="start" x="7.5" y="-136.5" font-family="Helvetica,sans-Serif" font-size="10.00">+ core</text>
<text text-anchor="start" x="7.5" y="-125.5" font-family="Helvetica,sans-Serif" font-size="10.00">+ nmops</text>
<text text-anchor="start" x="7.5" y="-114.5" font-family="Helvetica,sans-Serif" font-size="10.00">+ cmop</text>
<text text-anchor="start" x="7.5" y="-103.5" font-family="Helvetica,sans-Serif" font-size="10.00">+ num_callocs</text>
<text text-anchor="start" x="7.5" y="-92.5" font-family="Helvetica,sans-Serif" font-size="10.00">+ num_hallocs</text>
<text text-anchor="start" x="7.5" y="-81.5" font-family="Helvetica,sans-Serif" font-size="10.00">+ size_callocs</text>
<text text-anchor="start" x="7.5" y="-70.5" font-family="Helvetica,sans-Serif" font-size="10.00">+ size_hallocs</text>
<text text-anchor="start" x="7.5" y="-59.5" font-family="Helvetica,sans-Serif" font-size="10.00">+ cur_callocs</text>
<text text-anchor="start" x="7.5" y="-48.5" font-family="Helvetica,sans-Serif" font-size="10.00">+ cur_hallocs</text>
<text text-anchor="start" x="7.5" y="-37.5" font-family="Helvetica,sans-Serif" font-size="10.00">+ max_callocs</text>
<text text-anchor="start" x="7.5" y="-26.5" font-family="Helvetica,sans-Serif" font-size="10.00">+ max_hallocs</text>
<polyline fill="none" stroke="black" points="-0.5,-19.5 80.5,-19.5 "/>
<text text-anchor="middle" x="40" y="-7.5" font-family="Helvetica,sans-Serif" font-size="10.00"> </text>
</g>
<!-- Node2 -->
<g id="node2" class="node"><title>Node2</title>
<g id="a_node2"><a xlink:href="a00681.html" target="_top" xlink:title="{gk_mop_t\n|+ type\l+ nbytes\l+ ptr\l|}">
<polygon fill="white" stroke="black" points="10,-238.5 10,-317.5 70,-317.5 70,-238.5 10,-238.5"/>
<text text-anchor="middle" x="40" y="-305.5" font-family="Helvetica,sans-Serif" font-size="10.00">gk_mop_t</text>
<polyline fill="none" stroke="black" points="10,-298.5 70,-298.5 "/>
<text text-anchor="start" x="18" y="-286.5" font-family="Helvetica,sans-Serif" font-size="10.00">+ type</text>
<text text-anchor="start" x="18" y="-275.5" font-family="Helvetica,sans-Serif" font-size="10.00">+ nbytes</text>
<text text-anchor="start" x="18" y="-264.5" font-family="Helvetica,sans-Serif" font-size="10.00">+ ptr</text>
<polyline fill="none" stroke="black" points="10,-257.5 70,-257.5 "/>
<text text-anchor="middle" x="40" y="-245.5" font-family="Helvetica,sans-Serif" font-size="10.00"> </text>
</a>
</g>
</g>
<!-- Node2&#45;&gt;Node1 -->
<g id="edge1" class="edge"><title>Node2&#45;&gt;Node1</title>
<path fill="none" stroke="#404040" d="M40,-238.171C40,-227.308 40,-214.951 40,-202.164"/>
<polygon fill="none" stroke="#404040" points="40.0001,-201.807 36,-195.807 40,-189.807 44,-195.807 40.0001,-201.807"/>
<text text-anchor="middle" x="57" y="-211.5" font-family="Helvetica,sans-Serif" font-size="10.00"> +mops</text>
</g>
</g>
</svg>
