<?xml version="1.0" encoding="UTF-8" standalone="no"?>
<!DOCTYPE svg PUBLIC "-//W3C//DTD SVG 1.1//EN"
 "http://www.w3.org/Graphics/SVG/1.1/DTD/svg11.dtd">
<!-- Generated by graphviz version 2.36.0 (20140111.2315)
 -->
<!-- Title: graph_t Pages: 1 -->
<svg width="305pt" height="326pt"
 viewBox="0.00 0.00 305.00 326.00" xmlns="http://www.w3.org/2000/svg" xmlns:xlink="http://www.w3.org/1999/xlink">
<g id="graph0" class="graph" transform="scale(1 1) rotate(0) translate(4 322)">
<title>graph_t</title>
<polygon fill="white" stroke="none" points="-4,4 -4,-322 301,-322 301,4 -4,4"/>
<!-- Node1 -->
<g id="node1" class="node"><title>Node1</title>
<polygon fill="#bfbfbf" stroke="black" points="107.5,-0.5 107.5,-167.5 188.5,-167.5 188.5,-0.5 107.5,-0.5"/>
<text text-anchor="middle" x="148" y="-155.5" font-family="Helvetica,sans-Serif" font-size="10.00">graph_t</text>
<polyline fill="none" stroke="black" points="107.5,-148.5 188.5,-148.5 "/>
<text text-anchor="start" x="115.5" y="-136.5" font-family="Helvetica,sans-Serif" font-size="10.00">+ nvtxs</text>
<text text-anchor="start" x="115.5" y="-125.5" font-family="Helvetica,sans-Serif" font-size="10.00">+ nedges</text>
<text text-anchor="start" x="115.5" y="-114.5" font-family="Helvetica,sans-Serif" font-size="10.00">+ ncon</text>
<text text-anchor="start" x="115.5" y="-103.5" font-family="Helvetica,sans-Serif" font-size="10.00">+ xadj</text>
<text text-anchor="start" x="115.5" y="-92.5" font-family="Helvetica,sans-Serif" font-size="10.00">+ vwgt</text>
<text text-anchor="start" x="115.5" y="-81.5" font-family="Helvetica,sans-Serif" font-size="10.00">+ vsize</text>
<text text-anchor="start" x="115.5" y="-70.5" font-family="Helvetica,sans-Serif" font-size="10.00">+ adjncy</text>
<text text-anchor="start" x="115.5" y="-59.5" font-family="Helvetica,sans-Serif" font-size="10.00">+ adjwgt</text>
<text text-anchor="start" x="115.5" y="-48.5" font-family="Helvetica,sans-Serif" font-size="10.00">+ tvwgt</text>
<text text-anchor="start" x="115.5" y="-37.5" font-family="Helvetica,sans-Serif" font-size="10.00">+ invtvwgt</text>
<text text-anchor="start" x="115.5" y="-26.5" font-family="Helvetica,sans-Serif" font-size="10.00">and 52 more...</text>
<polyline fill="none" stroke="black" points="107.5,-19.5 188.5,-19.5 "/>
<text text-anchor="middle" x="148" y="-7.5" font-family="Helvetica,sans-Serif" font-size="10.00"> </text>
</g>
<!-- Node1&#45;&gt;Node1 -->
<g id="edge3" class="edge"><title>Node1&#45;&gt;Node1</title>
<path fill="none" stroke="#404040" d="M188.654,-103.934C198.599,-102.457 206,-95.8125 206,-84 206,-77.3555 203.658,-72.3461 199.839,-68.9719"/>
<polygon fill="none" stroke="#404040" points="199.643,-68.8861 192.542,-70.1395 188.654,-64.0664 195.755,-62.8131 199.643,-68.8861"/>
<text text-anchor="middle" x="227" y="-87" font-family="Helvetica,sans-Serif" font-size="10.00"> +coarser</text>
<text text-anchor="middle" x="227" y="-76" font-family="Helvetica,sans-Serif" font-size="10.00">+finer</text>
</g>
<!-- Node2 -->
<g id="node2" class="node"><title>Node2</title>
<g id="a_node2"><a xlink:href="a00721.html" target="_top" xlink:title="{ckrinfo_t\n|+ id\l+ ed\l+ nnbrs\l+ inbr\l|}">
<polygon fill="white" stroke="black" points="0,-222 0,-312 54,-312 54,-222 0,-222"/>
<text text-anchor="middle" x="27" y="-300" font-family="Helvetica,sans-Serif" font-size="10.00">ckrinfo_t</text>
<polyline fill="none" stroke="black" points="0,-293 54,-293 "/>
<text text-anchor="start" x="8" y="-281" font-family="Helvetica,sans-Serif" font-size="10.00">+ id</text>
<text text-anchor="start" x="8" y="-270" font-family="Helvetica,sans-Serif" font-size="10.00">+ ed</text>
<text text-anchor="start" x="8" y="-259" font-family="Helvetica,sans-Serif" font-size="10.00">+ nnbrs</text>
<text text-anchor="start" x="8" y="-248" font-family="Helvetica,sans-Serif" font-size="10.00">+ inbr</text>
<polyline fill="none" stroke="black" points="0,-241 54,-241 "/>
<text text-anchor="middle" x="27" y="-229" font-family="Helvetica,sans-Serif" font-size="10.00"> </text>
</a>
</g>
</g>
<!-- Node2&#45;&gt;Node1 -->
<g id="edge1" class="edge"><title>Node2&#45;&gt;Node1</title>
<path fill="none" stroke="#404040" d="M54.1764,-224.852C62.4488,-212.361 71.5797,-198.608 80,-186 86.6479,-176.046 93.6818,-165.554 100.606,-155.249"/>
<polygon fill="none" stroke="#404040" points="100.779,-154.992 100.807,-147.781 107.475,-145.033 107.446,-152.245 100.779,-154.992"/>
<text text-anchor="middle" x="99.5" y="-189.5" font-family="Helvetica,sans-Serif" font-size="10.00"> +ckrinfo</text>
</g>
<!-- Node3 -->
<g id="node3" class="node"><title>Node3</title>
<g id="a_node3"><a xlink:href="a00733.html" target="_top" xlink:title="{nrinfo_t\n|+ edegrees\l|}">
<polygon fill="white" stroke="black" points="72.5,-238.5 72.5,-295.5 139.5,-295.5 139.5,-238.5 72.5,-238.5"/>
<text text-anchor="middle" x="106" y="-283.5" font-family="Helvetica,sans-Serif" font-size="10.00">nrinfo_t</text>
<polyline fill="none" stroke="black" points="72.5,-276.5 139.5,-276.5 "/>
<text text-anchor="start" x="80.5" y="-264.5" font-family="Helvetica,sans-Serif" font-size="10.00">+ edegrees</text>
<polyline fill="none" stroke="black" points="72.5,-257.5 139.5,-257.5 "/>
<text text-anchor="middle" x="106" y="-245.5" font-family="Helvetica,sans-Serif" font-size="10.00"> </text>
</a>
</g>
</g>
<!-- Node3&#45;&gt;Node1 -->
<g id="edge2" class="edge"><title>Node3&#45;&gt;Node1</title>
<path fill="none" stroke="#404040" d="M112.47,-238.115C116.179,-222.135 121.073,-201.044 126.038,-179.644"/>
<polygon fill="none" stroke="#404040" points="126.085,-179.444 123.545,-172.695 128.797,-167.754 131.338,-174.503 126.085,-179.444"/>
<text text-anchor="middle" x="142" y="-189.5" font-family="Helvetica,sans-Serif" font-size="10.00"> +nrinfo</text>
</g>
<!-- Node4 -->
<g id="node4" class="node"><title>Node4</title>
<g id="a_node4"><a xlink:href="a00753.html" target="_top" xlink:title="{nrinfodef\n|+ edegrees\l|}">
<polygon fill="white" stroke="black" points="157.5,-238.5 157.5,-295.5 224.5,-295.5 224.5,-238.5 157.5,-238.5"/>
<text text-anchor="middle" x="191" y="-283.5" font-family="Helvetica,sans-Serif" font-size="10.00">nrinfodef</text>
<polyline fill="none" stroke="black" points="157.5,-276.5 224.5,-276.5 "/>
<text text-anchor="start" x="165.5" y="-264.5" font-family="Helvetica,sans-Serif" font-size="10.00">+ edegrees</text>
<polyline fill="none" stroke="black" points="157.5,-257.5 224.5,-257.5 "/>
<text text-anchor="middle" x="191" y="-245.5" font-family="Helvetica,sans-Serif" font-size="10.00"> </text>
</a>
</g>
</g>
<!-- Node4&#45;&gt;Node1 -->
<g id="edge4" class="edge"><title>Node4&#45;&gt;Node1</title>
<path fill="none" stroke="#404040" d="M184.375,-238.115C180.579,-222.135 175.569,-201.044 170.485,-179.644"/>
<polygon fill="none" stroke="#404040" points="170.434,-179.429 165.155,-174.516 167.66,-167.754 172.938,-172.667 170.434,-179.429"/>
<text text-anchor="middle" x="192" y="-189.5" font-family="Helvetica,sans-Serif" font-size="10.00"> +nrinfo</text>
</g>
<!-- Node5 -->
<g id="node5" class="node"><title>Node5</title>
<g id="a_node5"><a xlink:href="a00729.html" target="_top" xlink:title="{vkrinfo_t\n|+ nid\l+ ned\l+ gv\l+ nnbrs\l+ inbr\l|}">
<polygon fill="white" stroke="black" points="243,-216.5 243,-317.5 297,-317.5 297,-216.5 243,-216.5"/>
<text text-anchor="middle" x="270" y="-305.5" font-family="Helvetica,sans-Serif" font-size="10.00">vkrinfo_t</text>
<polyline fill="none" stroke="black" points="243,-298.5 297,-298.5 "/>
<text text-anchor="start" x="251" y="-286.5" font-family="Helvetica,sans-Serif" font-size="10.00">+ nid</text>
<text text-anchor="start" x="251" y="-275.5" font-family="Helvetica,sans-Serif" font-size="10.00">+ ned</text>
<text text-anchor="start" x="251" y="-264.5" font-family="Helvetica,sans-Serif" font-size="10.00">+ gv</text>
<text text-anchor="start" x="251" y="-253.5" font-family="Helvetica,sans-Serif" font-size="10.00">+ nnbrs</text>
<text text-anchor="start" x="251" y="-242.5" font-family="Helvetica,sans-Serif" font-size="10.00">+ inbr</text>
<polyline fill="none" stroke="black" points="243,-235.5 297,-235.5 "/>
<text text-anchor="middle" x="270" y="-223.5" font-family="Helvetica,sans-Serif" font-size="10.00"> </text>
</a>
</g>
</g>
<!-- Node5&#45;&gt;Node1 -->
<g id="edge5" class="edge"><title>Node5&#45;&gt;Node1</title>
<path fill="none" stroke="#404040" d="M242.924,-225.83C228.981,-205.144 211.57,-179.313 195.481,-155.442"/>
<polygon fill="none" stroke="#404040" points="195.387,-155.304 188.717,-152.564 188.68,-145.353 195.35,-148.093 195.387,-155.304"/>
<text text-anchor="middle" x="243.5" y="-189.5" font-family="Helvetica,sans-Serif" font-size="10.00"> +vkrinfo</text>
</g>
</g>
</svg>
