<?xml version="1.0" encoding="UTF-8" standalone="no"?>
<!DOCTYPE svg PUBLIC "-//W3C//DTD SVG 1.1//EN"
 "http://www.w3.org/Graphics/SVG/1.1/DTD/svg11.dtd">
<!-- Generated by graphviz version 2.36.0 (20140111.2315)
 -->
<!-- Title: ctrl_t Pages: 1 -->
<svg width="298pt" height="542pt"
 viewBox="0.00 0.00 298.00 542.00" xmlns="http://www.w3.org/2000/svg" xmlns:xlink="http://www.w3.org/1999/xlink">
<g id="graph0" class="graph" transform="scale(1 1) rotate(0) translate(4 538)">
<title>ctrl_t</title>
<polygon fill="white" stroke="none" points="-4,4 -4,-538 294,-538 294,4 -4,4"/>
<!-- Node1 -->
<g id="node1" class="node"><title>Node1</title>
<polygon fill="#bfbfbf" stroke="black" points="115.5,-0.5 115.5,-167.5 196.5,-167.5 196.5,-0.5 115.5,-0.5"/>
<text text-anchor="middle" x="156" y="-155.5" font-family="Helvetica,sans-Serif" font-size="10.00">ctrl_t</text>
<polyline fill="none" stroke="black" points="115.5,-148.5 196.5,-148.5 "/>
<text text-anchor="start" x="123.5" y="-136.5" font-family="Helvetica,sans-Serif" font-size="10.00">+ optype</text>
<text text-anchor="start" x="123.5" y="-125.5" font-family="Helvetica,sans-Serif" font-size="10.00">+ objtype</text>
<text text-anchor="start" x="123.5" y="-114.5" font-family="Helvetica,sans-Serif" font-size="10.00">+ dbglvl</text>
<text text-anchor="start" x="123.5" y="-103.5" font-family="Helvetica,sans-Serif" font-size="10.00">+ ctype</text>
<text text-anchor="start" x="123.5" y="-92.5" font-family="Helvetica,sans-Serif" font-size="10.00">+ iptype</text>
<text text-anchor="start" x="123.5" y="-81.5" font-family="Helvetica,sans-Serif" font-size="10.00">+ rtype</text>
<text text-anchor="start" x="123.5" y="-70.5" font-family="Helvetica,sans-Serif" font-size="10.00">+ CoarsenTo</text>
<text text-anchor="start" x="123.5" y="-59.5" font-family="Helvetica,sans-Serif" font-size="10.00">+ nIparts</text>
<text text-anchor="start" x="123.5" y="-48.5" font-family="Helvetica,sans-Serif" font-size="10.00">+ no2hop</text>
<text text-anchor="start" x="123.5" y="-37.5" font-family="Helvetica,sans-Serif" font-size="10.00">+ minconn</text>
<text text-anchor="start" x="123.5" y="-26.5" font-family="Helvetica,sans-Serif" font-size="10.00">and 85 more...</text>
<polyline fill="none" stroke="black" points="115.5,-19.5 196.5,-19.5 "/>
<text text-anchor="middle" x="156" y="-7.5" font-family="Helvetica,sans-Serif" font-size="10.00"> </text>
</g>
<!-- Node2 -->
<g id="node2" class="node"><title>Node2</title>
<g id="a_node2"><a xlink:href="a00685.html" target="_top" xlink:title="{gk_mcore_t\n|+ coresize\l+ corecpos\l+ core\l+ nmops\l+ cmop\l+ num_callocs\l+ num_hallocs\l+ size_callocs\l+ size_hallocs\l+ cur_callocs\l+ cur_hallocs\l+ max_callocs\l+ max_hallocs\l|}">
<polygon fill="white" stroke="black" points="-0.5,-216.5 -0.5,-405.5 80.5,-405.5 80.5,-216.5 -0.5,-216.5"/>
<text text-anchor="middle" x="40" y="-393.5" font-family="Helvetica,sans-Serif" font-size="10.00">gk_mcore_t</text>
<polyline fill="none" stroke="black" points="-0.5,-386.5 80.5,-386.5 "/>
<text text-anchor="start" x="7.5" y="-374.5" font-family="Helvetica,sans-Serif" font-size="10.00">+ coresize</text>
<text text-anchor="start" x="7.5" y="-363.5" font-family="Helvetica,sans-Serif" font-size="10.00">+ corecpos</text>
<text text-anchor="start" x="7.5" y="-352.5" font-family="Helvetica,sans-Serif" font-size="10.00">+ core</text>
<text text-anchor="start" x="7.5" y="-341.5" font-family="Helvetica,sans-Serif" font-size="10.00">+ nmops</text>
<text text-anchor="start" x="7.5" y="-330.5" font-family="Helvetica,sans-Serif" font-size="10.00">+ cmop</text>
<text text-anchor="start" x="7.5" y="-319.5" font-family="Helvetica,sans-Serif" font-size="10.00">+ num_callocs</text>
<text text-anchor="start" x="7.5" y="-308.5" font-family="Helvetica,sans-Serif" font-size="10.00">+ num_hallocs</text>
<text text-anchor="start" x="7.5" y="-297.5" font-family="Helvetica,sans-Serif" font-size="10.00">+ size_callocs</text>
<text text-anchor="start" x="7.5" y="-286.5" font-family="Helvetica,sans-Serif" font-size="10.00">+ size_hallocs</text>
<text text-anchor="start" x="7.5" y="-275.5" font-family="Helvetica,sans-Serif" font-size="10.00">+ cur_callocs</text>
<text text-anchor="start" x="7.5" y="-264.5" font-family="Helvetica,sans-Serif" font-size="10.00">+ cur_hallocs</text>
<text text-anchor="start" x="7.5" y="-253.5" font-family="Helvetica,sans-Serif" font-size="10.00">+ max_callocs</text>
<text text-anchor="start" x="7.5" y="-242.5" font-family="Helvetica,sans-Serif" font-size="10.00">+ max_hallocs</text>
<polyline fill="none" stroke="black" points="-0.5,-235.5 80.5,-235.5 "/>
<text text-anchor="middle" x="40" y="-223.5" font-family="Helvetica,sans-Serif" font-size="10.00"> </text>
</a>
</g>
</g>
<!-- Node2&#45;&gt;Node1 -->
<g id="edge1" class="edge"><title>Node2&#45;&gt;Node1</title>
<path fill="none" stroke="#404040" d="M66.5334,-216.203C70.5632,-205.805 75.0521,-195.537 80,-186 87.8065,-170.952 97.8221,-155.789 108.003,-141.951"/>
<polygon fill="none" stroke="#404040" points="108.187,-141.707 108.608,-134.508 115.416,-132.129 114.994,-139.328 108.187,-141.707"/>
<text text-anchor="middle" x="98.5" y="-189.5" font-family="Helvetica,sans-Serif" font-size="10.00"> +mcore</text>
</g>
<!-- Node3 -->
<g id="node3" class="node"><title>Node3</title>
<g id="a_node3"><a xlink:href="a00681.html" target="_top" xlink:title="{gk_mop_t\n|+ type\l+ nbytes\l+ ptr\l|}">
<polygon fill="white" stroke="black" points="10,-454.5 10,-533.5 70,-533.5 70,-454.5 10,-454.5"/>
<text text-anchor="middle" x="40" y="-521.5" font-family="Helvetica,sans-Serif" font-size="10.00">gk_mop_t</text>
<polyline fill="none" stroke="black" points="10,-514.5 70,-514.5 "/>
<text text-anchor="start" x="18" y="-502.5" font-family="Helvetica,sans-Serif" font-size="10.00">+ type</text>
<text text-anchor="start" x="18" y="-491.5" font-family="Helvetica,sans-Serif" font-size="10.00">+ nbytes</text>
<text text-anchor="start" x="18" y="-480.5" font-family="Helvetica,sans-Serif" font-size="10.00">+ ptr</text>
<polyline fill="none" stroke="black" points="10,-473.5 70,-473.5 "/>
<text text-anchor="middle" x="40" y="-461.5" font-family="Helvetica,sans-Serif" font-size="10.00"> </text>
</a>
</g>
</g>
<!-- Node3&#45;&gt;Node2 -->
<g id="edge2" class="edge"><title>Node3&#45;&gt;Node2</title>
<path fill="none" stroke="#404040" d="M40,-454.171C40,-443.308 40,-430.951 40,-418.164"/>
<polygon fill="none" stroke="#404040" points="40.0001,-417.807 36,-411.807 40,-405.807 44,-411.807 40.0001,-417.807"/>
<text text-anchor="middle" x="57" y="-427.5" font-family="Helvetica,sans-Serif" font-size="10.00"> +mops</text>
</g>
<!-- Node4 -->
<g id="node4" class="node"><title>Node4</title>
<g id="a_node4"><a xlink:href="a00725.html" target="_top" xlink:title="{vnbr_t\n|+ pid\l+ ned\l+ gv\l|}">
<polygon fill="white" stroke="black" points="99,-271.5 99,-350.5 143,-350.5 143,-271.5 99,-271.5"/>
<text text-anchor="middle" x="121" y="-338.5" font-family="Helvetica,sans-Serif" font-size="10.00">vnbr_t</text>
<polyline fill="none" stroke="black" points="99,-331.5 143,-331.5 "/>
<text text-anchor="start" x="107" y="-319.5" font-family="Helvetica,sans-Serif" font-size="10.00">+ pid</text>
<text text-anchor="start" x="107" y="-308.5" font-family="Helvetica,sans-Serif" font-size="10.00">+ ned</text>
<text text-anchor="start" x="107" y="-297.5" font-family="Helvetica,sans-Serif" font-size="10.00">+ gv</text>
<polyline fill="none" stroke="black" points="99,-290.5 143,-290.5 "/>
<text text-anchor="middle" x="121" y="-278.5" font-family="Helvetica,sans-Serif" font-size="10.00"> </text>
</a>
</g>
</g>
<!-- Node4&#45;&gt;Node1 -->
<g id="edge3" class="edge"><title>Node4&#45;&gt;Node1</title>
<path fill="none" stroke="#404040" d="M118.198,-271.464C117.172,-246.847 117.24,-214.344 122,-186 122.363,-183.836 122.766,-181.656 123.204,-179.466"/>
<polygon fill="none" stroke="#404040" points="123.219,-179.399 120.632,-172.667 125.851,-167.691 128.438,-174.422 123.219,-179.399"/>
<text text-anchor="middle" x="145.5" y="-189.5" font-family="Helvetica,sans-Serif" font-size="10.00"> +vnbrpool</text>
</g>
<!-- Node5 -->
<g id="node5" class="node"><title>Node5</title>
<g id="a_node5"><a xlink:href="a00717.html" target="_top" xlink:title="{cnbr_t\n|+ pid\l+ ed\l|}">
<polygon fill="white" stroke="black" points="169,-277 169,-345 213,-345 213,-277 169,-277"/>
<text text-anchor="middle" x="191" y="-333" font-family="Helvetica,sans-Serif" font-size="10.00">cnbr_t</text>
<polyline fill="none" stroke="black" points="169,-326 213,-326 "/>
<text text-anchor="start" x="177" y="-314" font-family="Helvetica,sans-Serif" font-size="10.00">+ pid</text>
<text text-anchor="start" x="177" y="-303" font-family="Helvetica,sans-Serif" font-size="10.00">+ ed</text>
<polyline fill="none" stroke="black" points="169,-296 213,-296 "/>
<text text-anchor="middle" x="191" y="-284" font-family="Helvetica,sans-Serif" font-size="10.00"> </text>
</a>
</g>
</g>
<!-- Node5&#45;&gt;Node1 -->
<g id="edge4" class="edge"><title>Node5&#45;&gt;Node1</title>
<path fill="none" stroke="#404040" d="M185.836,-276.8C181.855,-251.213 176.143,-214.489 170.78,-180.012"/>
<polygon fill="none" stroke="#404040" points="170.745,-179.79 165.87,-174.476 168.901,-167.933 173.775,-173.247 170.745,-179.79"/>
<text text-anchor="middle" x="197.5" y="-189.5" font-family="Helvetica,sans-Serif" font-size="10.00"> +cnbrpool</text>
</g>
<!-- Node6 -->
<g id="node6" class="node"><title>Node6</title>
<g id="a_node6"><a xlink:href="a00757.html" target="_top" xlink:title="{matrix_t\n|+ nrows\l+ nnzs\l+ rowptr\l+ colind\l+ values\l+ transfer\l|}">
<polygon fill="white" stroke="black" points="231.5,-255 231.5,-367 290.5,-367 290.5,-255 231.5,-255"/>
<text text-anchor="middle" x="261" y="-355" font-family="Helvetica,sans-Serif" font-size="10.00">matrix_t</text>
<polyline fill="none" stroke="black" points="231.5,-348 290.5,-348 "/>
<text text-anchor="start" x="239.5" y="-336" font-family="Helvetica,sans-Serif" font-size="10.00">+ nrows</text>
<text text-anchor="start" x="239.5" y="-325" font-family="Helvetica,sans-Serif" font-size="10.00">+ nnzs</text>
<text text-anchor="start" x="239.5" y="-314" font-family="Helvetica,sans-Serif" font-size="10.00">+ rowptr</text>
<text text-anchor="start" x="239.5" y="-303" font-family="Helvetica,sans-Serif" font-size="10.00">+ colind</text>
<text text-anchor="start" x="239.5" y="-292" font-family="Helvetica,sans-Serif" font-size="10.00">+ values</text>
<text text-anchor="start" x="239.5" y="-281" font-family="Helvetica,sans-Serif" font-size="10.00">+ transfer</text>
<polyline fill="none" stroke="black" points="231.5,-274 290.5,-274 "/>
<text text-anchor="middle" x="261" y="-262" font-family="Helvetica,sans-Serif" font-size="10.00"> </text>
</a>
</g>
</g>
<!-- Node6&#45;&gt;Node1 -->
<g id="edge5" class="edge"><title>Node6&#45;&gt;Node1</title>
<path fill="none" stroke="#404040" d="M249.014,-254.924C243.206,-232.913 235.237,-207.692 225,-186 218.91,-173.097 211.265,-160.01 203.299,-147.724"/>
<polygon fill="none" stroke="#404040" points="203.215,-147.599 196.559,-144.825 196.559,-137.614 203.216,-140.388 203.215,-147.599"/>
<text text-anchor="middle" x="248" y="-189.5" font-family="Helvetica,sans-Serif" font-size="10.00"> +matrix</text>
</g>
</g>
</svg>
