<?xml version="1.0" encoding="UTF-8" standalone="no"?>
<!DOCTYPE svg PUBLIC "-//W3C//DTD SVG 1.1//EN"
 "http://www.w3.org/Graphics/SVG/1.1/DTD/svg11.dtd">
<!-- Generated by graphviz version 2.36.0 (20140111.2315)
 -->
<!-- Title: FreeGraph Pages: 1 -->
<svg width="262pt" height="47pt"
 viewBox="0.00 0.00 262.00 47.00" xmlns="http://www.w3.org/2000/svg" xmlns:xlink="http://www.w3.org/1999/xlink">
<g id="graph0" class="graph" transform="scale(1 1) rotate(0) translate(4 43)">
<title>FreeGraph</title>
<polygon fill="white" stroke="none" points="-4,4 -4,-43 258,-43 258,4 -4,4"/>
<!-- Node4 -->
<g id="node1" class="node"><title>Node4</title>
<polygon fill="#bfbfbf" stroke="black" points="0.5,-19.5 0.5,-38.5 65.5,-38.5 65.5,-19.5 0.5,-19.5"/>
<text text-anchor="middle" x="33" y="-26.5" font-family="Helvetica,sans-Serif" font-size="10.00">FreeGraph</text>
</g>
<!-- Node5 -->
<g id="node2" class="node"><title>Node5</title>
<g id="a_node2"><a xlink:href="$a00077.html#ac8df62c4e3d0910711a9874f9cc58884" xlink:title="gk_free">
<polygon fill="white" stroke="black" points="204,-19.5 204,-38.5 254,-38.5 254,-19.5 204,-19.5"/>
<text text-anchor="middle" x="229" y="-26.5" font-family="Helvetica,sans-Serif" font-size="10.00">gk_free</text>
</a>
</g>
</g>
<!-- Node4&#45;&gt;Node5 -->
<g id="edge1" class="edge"><title>Node4&#45;&gt;Node5</title>
<path fill="none" stroke="midnightblue" d="M65.6012,-29C100.781,-29 157.443,-29 193.684,-29"/>
<polygon fill="midnightblue" stroke="midnightblue" points="193.779,-32.5001 203.779,-29 193.779,-25.5001 193.779,-32.5001"/>
</g>
<!-- Node6 -->
<g id="node3" class="node"><title>Node6</title>
<g id="a_node3"><a xlink:href="$a00852.html#a12a6bda050dc470113f4d1cd5aa5777d" xlink:title="FreeRData">
<polygon fill="white" stroke="black" points="102.5,-0.5 102.5,-19.5 167.5,-19.5 167.5,-0.5 102.5,-0.5"/>
<text text-anchor="middle" x="135" y="-7.5" font-family="Helvetica,sans-Serif" font-size="10.00">FreeRData</text>
</a>
</g>
</g>
<!-- Node4&#45;&gt;Node6 -->
<g id="edge2" class="edge"><title>Node4&#45;&gt;Node6</title>
<path fill="none" stroke="midnightblue" d="M65.6406,-22.9883C74.1218,-21.3769 83.4213,-19.6099 92.3547,-17.9126"/>
<polygon fill="midnightblue" stroke="midnightblue" points="93.0511,-21.343 102.222,-16.0378 91.7444,-14.466 93.0511,-21.343"/>
</g>
<!-- Node6&#45;&gt;Node5 -->
<g id="edge3" class="edge"><title>Node6&#45;&gt;Node5</title>
<path fill="none" stroke="midnightblue" d="M167.661,-16.5387C176.086,-18.2787 185.225,-20.1659 193.78,-21.9328"/>
<polygon fill="midnightblue" stroke="midnightblue" points="193.338,-25.4154 203.839,-24.0103 194.754,-18.56 193.338,-25.4154"/>
</g>
</g>
</svg>
