<?xml version="1.0" encoding="UTF-8" standalone="no"?>
<!DOCTYPE svg PUBLIC "-//W3C//DTD SVG 1.1//EN"
 "http://www.w3.org/Graphics/SVG/1.1/DTD/svg11.dtd">
<!-- Generated by graphviz version 2.36.0 (20140111.2315)
 -->
<!-- Title: ParMETIS_V3_PartKway Pages: 1 -->
<svg width="402pt" height="142pt"
 viewBox="0.00 0.00 402.00 142.00" xmlns="http://www.w3.org/2000/svg" xmlns:xlink="http://www.w3.org/1999/xlink">
<g id="graph0" class="graph" transform="scale(1 1) rotate(0) translate(4 138)">
<title>ParMETIS_V3_PartKway</title>
<polygon fill="white" stroke="none" points="-4,4 -4,-138 398,-138 398,4 -4,4"/>
<!-- Node31 -->
<g id="node1" class="node"><title>Node31</title>
<polygon fill="#bfbfbf" stroke="black" points="0.5,-57.5 0.5,-76.5 129.5,-76.5 129.5,-57.5 0.5,-57.5"/>
<text text-anchor="middle" x="65" y="-64.5" font-family="Helvetica,sans-Serif" font-size="10.00">ParMETIS_V3_PartKway</text>
</g>
<!-- Node32 -->
<g id="node2" class="node"><title>Node32</title>
<g id="a_node2"><a xlink:href="$a00846.html#a2ae9750ec09afdc4243b7cb7c5118666" xlink:title="ParMETIS_V3_PartMeshKway">
<polygon fill="white" stroke="black" points="166.5,-114.5 166.5,-133.5 319.5,-133.5 319.5,-114.5 166.5,-114.5"/>
<text text-anchor="middle" x="243" y="-121.5" font-family="Helvetica,sans-Serif" font-size="10.00">ParMETIS_V3_PartMeshKway</text>
</a>
</g>
</g>
<!-- Node31&#45;&gt;Node32 -->
<g id="edge1" class="edge"><title>Node31&#45;&gt;Node32</title>
<path fill="none" stroke="midnightblue" d="M98.0725,-80.2957C117.524,-88.0804 142.958,-97.7696 166,-105 176.9,-108.42 188.83,-111.642 199.94,-114.427"/>
<polygon fill="midnightblue" stroke="midnightblue" points="99.3492,-77.0367 88.7663,-76.5341 96.726,-83.5266 99.3492,-77.0367"/>
</g>
<!-- Node33 -->
<g id="node3" class="node"><title>Node33</title>
<g id="a_node3"><a xlink:href="$a00945.html#a0ddf1224851353fc92bfbff6f499fa97" xlink:title="main">
<polygon fill="white" stroke="black" points="224,-76.5 224,-95.5 262,-95.5 262,-76.5 224,-76.5"/>
<text text-anchor="middle" x="243" y="-83.5" font-family="Helvetica,sans-Serif" font-size="10.00">main</text>
</a>
</g>
</g>
<!-- Node31&#45;&gt;Node33 -->
<g id="edge2" class="edge"><title>Node31&#45;&gt;Node33</title>
<path fill="none" stroke="midnightblue" d="M139.876,-74.9753C170.69,-78.3018 203.876,-81.8843 223.787,-84.0338"/>
<polygon fill="midnightblue" stroke="midnightblue" points="139.858,-71.453 129.54,-73.8594 139.107,-78.4126 139.858,-71.453"/>
</g>
<!-- Node34 -->
<g id="node4" class="node"><title>Node34</title>
<g id="a_node4"><a xlink:href="$a00428.html#ac0ca0065f1dc35b0f4fe4d1968313dca" xlink:title="TestParMetis">
<polygon fill="white" stroke="black" points="205.5,-38.5 205.5,-57.5 280.5,-57.5 280.5,-38.5 205.5,-38.5"/>
<text text-anchor="middle" x="243" y="-45.5" font-family="Helvetica,sans-Serif" font-size="10.00">TestParMetis</text>
</a>
</g>
</g>
<!-- Node31&#45;&gt;Node34 -->
<g id="edge3" class="edge"><title>Node31&#45;&gt;Node34</title>
<path fill="none" stroke="midnightblue" d="M139.53,-59.0621C162.275,-56.6067 186.346,-54.0081 205.439,-51.9469"/>
<polygon fill="midnightblue" stroke="midnightblue" points="139.107,-55.5874 129.54,-60.1406 139.858,-62.5469 139.107,-55.5874"/>
</g>
<!-- Node35 -->
<g id="node5" class="node"><title>Node35</title>
<g id="a_node5"><a xlink:href="$a00437.html#adb0c2dc0c5138f35c71739328c702074" xlink:title="TestParMetis_GPart">
<polygon fill="white" stroke="black" points="189.5,-0.5 189.5,-19.5 296.5,-19.5 296.5,-0.5 189.5,-0.5"/>
<text text-anchor="middle" x="243" y="-7.5" font-family="Helvetica,sans-Serif" font-size="10.00">TestParMetis_GPart</text>
</a>
</g>
</g>
<!-- Node31&#45;&gt;Node35 -->
<g id="edge4" class="edge"><title>Node31&#45;&gt;Node35</title>
<path fill="none" stroke="midnightblue" d="M98.0725,-53.7043C117.524,-45.9196 142.958,-36.2304 166,-29 176.9,-25.5795 188.83,-22.3581 199.94,-19.5733"/>
<polygon fill="midnightblue" stroke="midnightblue" points="96.726,-50.4734 88.7663,-57.4659 99.3492,-56.9633 96.726,-50.4734"/>
</g>
<!-- Node36 -->
<g id="node6" class="node"><title>Node36</title>
<g id="a_node6"><a xlink:href="$a00428.html#a8f4019835796a39a97c345864d80fcbb" xlink:title="main">
<polygon fill="white" stroke="black" points="356,-0.5 356,-19.5 394,-19.5 394,-0.5 356,-0.5"/>
<text text-anchor="middle" x="375" y="-7.5" font-family="Helvetica,sans-Serif" font-size="10.00">main</text>
</a>
</g>
</g>
<!-- Node35&#45;&gt;Node36 -->
<g id="edge5" class="edge"><title>Node35&#45;&gt;Node36</title>
<path fill="none" stroke="midnightblue" d="M306.692,-10C324.617,-10 342.775,-10 355.707,-10"/>
<polygon fill="midnightblue" stroke="midnightblue" points="306.501,-6.5001 296.501,-10 306.501,-13.5001 306.501,-6.5001"/>
</g>
</g>
</svg>
