<?xml version="1.0" encoding="UTF-8" standalone="no"?>
<!DOCTYPE svg PUBLIC "-//W3C//DTD SVG 1.1//EN"
 "http://www.w3.org/Graphics/SVG/1.1/DTD/svg11.dtd">
<!-- Generated by graphviz version 2.36.0 (20140111.2315)
 -->
<!-- Title: SetupGraph Pages: 1 -->
<svg width="214pt" height="104pt"
 viewBox="0.00 0.00 214.00 104.00" xmlns="http://www.w3.org/2000/svg" xmlns:xlink="http://www.w3.org/1999/xlink">
<g id="graph0" class="graph" transform="scale(1 1) rotate(0) translate(4 100)">
<title>SetupGraph</title>
<polygon fill="white" stroke="none" points="-4,4 -4,-100 210,-100 210,4 -4,4"/>
<!-- Node17 -->
<g id="node1" class="node"><title>Node17</title>
<polygon fill="#bfbfbf" stroke="black" points="0,-38.5 0,-57.5 70,-57.5 70,-38.5 0,-38.5"/>
<text text-anchor="middle" x="35" y="-45.5" font-family="Helvetica,sans-Serif" font-size="10.00">SetupGraph</text>
</g>
<!-- Node18 -->
<g id="node2" class="node"><title>Node18</title>
<g id="a_node2"><a xlink:href="$a00852.html#a01903fa912de9fc7f01dace993a3fc85" xlink:title="CreateGraph">
<polygon fill="white" stroke="black" points="119,-76.5 119,-95.5 193,-95.5 193,-76.5 119,-76.5"/>
<text text-anchor="middle" x="156" y="-83.5" font-family="Helvetica,sans-Serif" font-size="10.00">CreateGraph</text>
</a>
</g>
</g>
<!-- Node17&#45;&gt;Node18 -->
<g id="edge1" class="edge"><title>Node17&#45;&gt;Node18</title>
<path fill="none" stroke="midnightblue" d="M66.0287,-57.589C80.9677,-62.3594 99.2227,-68.1888 115.301,-73.3229"/>
<polygon fill="midnightblue" stroke="midnightblue" points="114.39,-76.7062 124.981,-76.4141 116.519,-70.0379 114.39,-76.7062"/>
</g>
<!-- Node19 -->
<g id="node3" class="node"><title>Node19</title>
<g id="a_node3"><a xlink:href="$a00852.html#a274db8b39f4bc294fcb5757b01ae31f1" xlink:title="SetupGraph_tvwgt">
<polygon fill="white" stroke="black" points="106.5,-38.5 106.5,-57.5 205.5,-57.5 205.5,-38.5 106.5,-38.5"/>
<text text-anchor="middle" x="156" y="-45.5" font-family="Helvetica,sans-Serif" font-size="10.00">SetupGraph_tvwgt</text>
</a>
</g>
</g>
<!-- Node17&#45;&gt;Node19 -->
<g id="edge2" class="edge"><title>Node17&#45;&gt;Node19</title>
<path fill="none" stroke="midnightblue" d="M70.1006,-48C78.2843,-48 87.2572,-48 96.2086,-48"/>
<polygon fill="midnightblue" stroke="midnightblue" points="96.2629,-51.5001 106.263,-48 96.2628,-44.5001 96.2629,-51.5001"/>
</g>
<!-- Node20 -->
<g id="node4" class="node"><title>Node20</title>
<g id="a_node4"><a xlink:href="$a00852.html#a6513355a80c360956e3f38816621ae1e" xlink:title="SetupGraph_label">
<polygon fill="white" stroke="black" points="107.5,-0.5 107.5,-19.5 204.5,-19.5 204.5,-0.5 107.5,-0.5"/>
<text text-anchor="middle" x="156" y="-7.5" font-family="Helvetica,sans-Serif" font-size="10.00">SetupGraph_label</text>
</a>
</g>
</g>
<!-- Node17&#45;&gt;Node20 -->
<g id="edge3" class="edge"><title>Node17&#45;&gt;Node20</title>
<path fill="none" stroke="midnightblue" d="M66.0287,-38.411C80.9677,-33.6406 99.2227,-27.8112 115.301,-22.6771"/>
<polygon fill="midnightblue" stroke="midnightblue" points="116.519,-25.9621 124.981,-19.5859 114.39,-19.2938 116.519,-25.9621"/>
</g>
</g>
</svg>
