<?xml version="1.0" encoding="UTF-8" standalone="no"?>
<!DOCTYPE svg PUBLIC "-//W3C//DTD SVG 1.1//EN"
 "http://www.w3.org/Graphics/SVG/1.1/DTD/svg11.dtd">
<!-- Generated by graphviz version 2.36.0 (20140111.2315)
 -->
<!-- Title: CreateGraph Pages: 1 -->
<svg width="422pt" height="125pt"
 viewBox="0.00 0.00 422.00 124.90" xmlns="http://www.w3.org/2000/svg" xmlns:xlink="http://www.w3.org/1999/xlink">
<g id="graph0" class="graph" transform="scale(1 1) rotate(0) translate(4 120.901)">
<title>CreateGraph</title>
<polygon fill="white" stroke="none" points="-4,4 -4,-120.901 418,-120.901 418,4 -4,4"/>
<!-- Node0 -->
<g id="node1" class="node"><title>Node0</title>
<polygon fill="#bfbfbf" stroke="black" points="0,-38.5 0,-57.5 74,-57.5 74,-38.5 0,-38.5"/>
<text text-anchor="middle" x="37" y="-45.5" font-family="Helvetica,sans-Serif" font-size="10.00">CreateGraph</text>
</g>
<!-- Node1 -->
<g id="node2" class="node"><title>Node1</title>
<g id="a_node2"><a xlink:href="$a00077.html#aba6f76f5c67b9b7e9c2e45988d3d3e9d" xlink:title="gk_malloc">
<polygon fill="white" stroke="black" points="110,-57.5 110,-76.5 172,-76.5 172,-57.5 110,-57.5"/>
<text text-anchor="middle" x="141" y="-64.5" font-family="Helvetica,sans-Serif" font-size="10.00">gk_malloc</text>
</a>
</g>
</g>
<!-- Node0&#45;&gt;Node1 -->
<g id="edge1" class="edge"><title>Node0&#45;&gt;Node1</title>
<path fill="none" stroke="midnightblue" d="M74.2486,-54.7522C82.5532,-56.2991 91.4289,-57.9524 99.8857,-59.5277"/>
<polygon fill="midnightblue" stroke="midnightblue" points="99.455,-63.0076 109.927,-61.3981 100.737,-56.126 99.455,-63.0076"/>
</g>
<!-- Node6 -->
<g id="node7" class="node"><title>Node6</title>
<g id="a_node7"><a xlink:href="$a00852.html#af046766ada304a0cf49db44b544810a8" xlink:title="InitGraph">
<polygon fill="white" stroke="black" points="112,-19.5 112,-38.5 170,-38.5 170,-19.5 112,-19.5"/>
<text text-anchor="middle" x="141" y="-26.5" font-family="Helvetica,sans-Serif" font-size="10.00">InitGraph</text>
</a>
</g>
</g>
<!-- Node0&#45;&gt;Node6 -->
<g id="edge7" class="edge"><title>Node0&#45;&gt;Node6</title>
<path fill="none" stroke="midnightblue" d="M74.2486,-41.2478C83.235,-39.5739 92.89,-37.7754 101.959,-36.086"/>
<polygon fill="midnightblue" stroke="midnightblue" points="102.693,-39.5095 111.883,-34.2374 101.412,-32.6279 102.693,-39.5095"/>
</g>
<!-- Node2 -->
<g id="node3" class="node"><title>Node2</title>
<g id="a_node3"><a xlink:href="$a01017.html#a2e311a777ffe9c80e405efa7cd2757be" xlink:title="fprintf">
<polygon fill="white" stroke="black" points="372,-57.5 372,-76.5 414,-76.5 414,-57.5 372,-57.5"/>
<text text-anchor="middle" x="393" y="-64.5" font-family="Helvetica,sans-Serif" font-size="10.00">fprintf</text>
</a>
</g>
</g>
<!-- Node1&#45;&gt;Node2 -->
<g id="edge2" class="edge"><title>Node1&#45;&gt;Node2</title>
<path fill="none" stroke="midnightblue" d="M154.261,-76.7187C166.891,-86.0589 187.563,-99.5369 208,-105 262.959,-119.691 281.62,-121.709 336,-105 350.039,-100.686 363.719,-91.5255 374.044,-83.2793"/>
<polygon fill="midnightblue" stroke="midnightblue" points="376.469,-85.8134 381.862,-76.6941 371.959,-80.4595 376.469,-85.8134"/>
</g>
<!-- Node3 -->
<g id="node4" class="node"><title>Node3</title>
<g id="a_node4"><a xlink:href="$a00110.html#ad2327b94227019b6753b6b09400c0522" xlink:title="gk_GetCurMemoryUsed">
<polygon fill="white" stroke="black" points="210,-76.5 210,-95.5 334,-95.5 334,-76.5 210,-76.5"/>
<text text-anchor="middle" x="272" y="-83.5" font-family="Helvetica,sans-Serif" font-size="10.00">gk_GetCurMemoryUsed</text>
</a>
</g>
</g>
<!-- Node1&#45;&gt;Node3 -->
<g id="edge3" class="edge"><title>Node1&#45;&gt;Node3</title>
<path fill="none" stroke="midnightblue" d="M172.245,-71.4547C180.646,-72.692 190.139,-74.0903 199.836,-75.5184"/>
<polygon fill="midnightblue" stroke="midnightblue" points="199.573,-79.0175 209.977,-77.0121 200.593,-72.0922 199.573,-79.0175"/>
</g>
<!-- Node4 -->
<g id="node5" class="node"><title>Node4</title>
<g id="a_node5"><a xlink:href="$a00110.html#a656fd5266ae12a96e53125486f8fea52" xlink:title="gk_GetMaxMemoryUsed">
<polygon fill="white" stroke="black" points="208.5,-38.5 208.5,-57.5 335.5,-57.5 335.5,-38.5 208.5,-38.5"/>
<text text-anchor="middle" x="272" y="-45.5" font-family="Helvetica,sans-Serif" font-size="10.00">gk_GetMaxMemoryUsed</text>
</a>
</g>
</g>
<!-- Node1&#45;&gt;Node4 -->
<g id="edge4" class="edge"><title>Node1&#45;&gt;Node4</title>
<path fill="none" stroke="midnightblue" d="M172.245,-62.5453C180.229,-61.3693 189.2,-60.048 198.395,-58.6938"/>
<polygon fill="midnightblue" stroke="midnightblue" points="199.04,-62.1366 208.423,-57.2167 198.02,-55.2113 199.04,-62.1366"/>
</g>
<!-- Node5 -->
<g id="node6" class="node"><title>Node5</title>
<g id="a_node6"><a xlink:href="$a00026.html#a4c320c13bcdc9967613253ef4c73f59f" xlink:title="gk_errexit">
<polygon fill="white" stroke="black" points="242,-0.5 242,-19.5 302,-19.5 302,-0.5 242,-0.5"/>
<text text-anchor="middle" x="272" y="-7.5" font-family="Helvetica,sans-Serif" font-size="10.00">gk_errexit</text>
</a>
</g>
</g>
<!-- Node1&#45;&gt;Node5 -->
<g id="edge5" class="edge"><title>Node1&#45;&gt;Node5</title>
<path fill="none" stroke="midnightblue" d="M157.589,-57.4697C173.76,-47.6847 198.047,-33.2984 208,-29 215.68,-25.6834 224.121,-22.7096 232.259,-20.1539"/>
<polygon fill="midnightblue" stroke="midnightblue" points="233.388,-23.4695 241.965,-17.2488 231.381,-16.7634 233.388,-23.4695"/>
</g>
<!-- Node5&#45;&gt;Node2 -->
<g id="edge6" class="edge"><title>Node5&#45;&gt;Node2</title>
<path fill="none" stroke="midnightblue" d="M302.228,-16.8252C313.104,-19.8755 325.377,-23.9396 336,-29 348.634,-35.0184 361.634,-43.6626 371.925,-51.1863"/>
<polygon fill="midnightblue" stroke="midnightblue" points="370.101,-54.1937 380.194,-57.4154 374.313,-48.6027 370.101,-54.1937"/>
</g>
</g>
</svg>
