<?xml version="1.0" encoding="UTF-8" standalone="no"?>
<!DOCTYPE svg PUBLIC "-//W3C//DTD SVG 1.1//EN"
 "http://www.w3.org/Graphics/SVG/1.1/DTD/svg11.dtd">
<!-- Generated by graphviz version 2.36.0 (20140111.2315)
 -->
<!-- Title: ArcSyn3sis/3rdParty/parmetis&#45;4.0.3/metis/programs/defs.h Pages: 1 -->
<svg width="1830pt" height="206pt"
 viewBox="0.00 0.00 1830.00 206.00" xmlns="http://www.w3.org/2000/svg" xmlns:xlink="http://www.w3.org/1999/xlink">
<g id="graph0" class="graph" transform="scale(1 1) rotate(0) translate(4 202)">
<title>ArcSyn3sis/3rdParty/parmetis&#45;4.0.3/metis/programs/defs.h</title>
<polygon fill="white" stroke="none" points="-4,4 -4,-202 1826,-202 1826,4 -4,4"/>
<!-- Node1 -->
<g id="node1" class="node"><title>Node1</title>
<polygon fill="#bfbfbf" stroke="black" points="930,-156.5 930,-197.5 1040,-197.5 1040,-156.5 930,-156.5"/>
<text text-anchor="start" x="938" y="-185.5" font-family="Helvetica,sans-Serif" font-size="10.00">ArcSyn3sis/3rdParty</text>
<text text-anchor="start" x="938" y="-174.5" font-family="Helvetica,sans-Serif" font-size="10.00">/parmetis&#45;4.0.3/metis</text>
<text text-anchor="middle" x="985" y="-163.5" font-family="Helvetica,sans-Serif" font-size="10.00">/programs/defs.h</text>
</g>
<!-- Node2 -->
<g id="node2" class="node"><title>Node2</title>
<g id="a_node2"><a xlink:href="a00320.html" target="_top" xlink:title="ArcSyn3sis/3rdParty\l/parmetis&#45;4.0.3/metis\l/programs/metisbin.h">
<polygon fill="white" stroke="black" points="930,-78.5 930,-119.5 1040,-119.5 1040,-78.5 930,-78.5"/>
<text text-anchor="start" x="938" y="-107.5" font-family="Helvetica,sans-Serif" font-size="10.00">ArcSyn3sis/3rdParty</text>
<text text-anchor="start" x="938" y="-96.5" font-family="Helvetica,sans-Serif" font-size="10.00">/parmetis&#45;4.0.3/metis</text>
<text text-anchor="middle" x="985" y="-85.5" font-family="Helvetica,sans-Serif" font-size="10.00">/programs/metisbin.h</text>
</a>
</g>
</g>
<!-- Node1&#45;&gt;Node2 -->
<g id="edge1" class="edge"><title>Node1&#45;&gt;Node2</title>
<path fill="none" stroke="midnightblue" d="M985,-146.297C985,-137.301 985,-127.653 985,-119.506"/>
<polygon fill="midnightblue" stroke="midnightblue" points="981.5,-146.428 985,-156.428 988.5,-146.428 981.5,-146.428"/>
</g>
<!-- Node3 -->
<g id="node3" class="node"><title>Node3</title>
<g id="a_node3"><a xlink:href="a00296.html" target="_top" xlink:title="Command&#45;line argument parsing for gpmetis. ">
<polygon fill="white" stroke="black" points="-0.5,-0.5 -0.5,-41.5 146.5,-41.5 146.5,-0.5 -0.5,-0.5"/>
<text text-anchor="start" x="7.5" y="-29.5" font-family="Helvetica,sans-Serif" font-size="10.00">ArcSyn3sis/3rdParty</text>
<text text-anchor="start" x="7.5" y="-18.5" font-family="Helvetica,sans-Serif" font-size="10.00">/parmetis&#45;4.0.3/metis</text>
<text text-anchor="middle" x="73" y="-7.5" font-family="Helvetica,sans-Serif" font-size="10.00">/programs/cmdline_gpmetis.c</text>
</a>
</g>
</g>
<!-- Node2&#45;&gt;Node3 -->
<g id="edge2" class="edge"><title>Node2&#45;&gt;Node3</title>
<path fill="none" stroke="midnightblue" d="M919.585,-97.3968C778.877,-95.2663 437.322,-85.6222 155,-42 152.248,-41.5749 149.454,-41.1027 146.637,-40.5927"/>
<polygon fill="midnightblue" stroke="midnightblue" points="919.718,-100.899 929.767,-97.543 919.819,-93.8997 919.718,-100.899"/>
</g>
<!-- Node4 -->
<g id="node4" class="node"><title>Node4</title>
<g id="a_node4"><a xlink:href="a00299.html" target="_top" xlink:title="Command&#45;line argument parsing for m2gmetis. ">
<polygon fill="white" stroke="black" points="164.5,-0.5 164.5,-41.5 319.5,-41.5 319.5,-0.5 164.5,-0.5"/>
<text text-anchor="start" x="172.5" y="-29.5" font-family="Helvetica,sans-Serif" font-size="10.00">ArcSyn3sis/3rdParty</text>
<text text-anchor="start" x="172.5" y="-18.5" font-family="Helvetica,sans-Serif" font-size="10.00">/parmetis&#45;4.0.3/metis</text>
<text text-anchor="middle" x="242" y="-7.5" font-family="Helvetica,sans-Serif" font-size="10.00">/programs/cmdline_m2gmetis.c</text>
</a>
</g>
</g>
<!-- Node2&#45;&gt;Node4 -->
<g id="edge3" class="edge"><title>Node2&#45;&gt;Node4</title>
<path fill="none" stroke="midnightblue" d="M919.486,-95.4634C801.023,-90.1991 543.571,-75.6503 329,-42 325.938,-41.5198 322.823,-40.9925 319.683,-40.4285"/>
<polygon fill="midnightblue" stroke="midnightblue" points="919.684,-98.9753 929.827,-95.9149 919.989,-91.982 919.684,-98.9753"/>
</g>
<!-- Node5 -->
<g id="node5" class="node"><title>Node5</title>
<g id="a_node5"><a xlink:href="a00302.html" target="_top" xlink:title="Command&#45;line argument parsing for mpmetis. ">
<polygon fill="white" stroke="black" points="338,-0.5 338,-41.5 488,-41.5 488,-0.5 338,-0.5"/>
<text text-anchor="start" x="346" y="-29.5" font-family="Helvetica,sans-Serif" font-size="10.00">ArcSyn3sis/3rdParty</text>
<text text-anchor="start" x="346" y="-18.5" font-family="Helvetica,sans-Serif" font-size="10.00">/parmetis&#45;4.0.3/metis</text>
<text text-anchor="middle" x="413" y="-7.5" font-family="Helvetica,sans-Serif" font-size="10.00">/programs/cmdline_mpmetis.c</text>
</a>
</g>
</g>
<!-- Node2&#45;&gt;Node5 -->
<g id="edge4" class="edge"><title>Node2&#45;&gt;Node5</title>
<path fill="none" stroke="midnightblue" d="M919.596,-92.9949C825.623,-85.238 647.173,-68.3968 497,-42 494.047,-41.4809 491.043,-40.9209 488.013,-40.3295"/>
<polygon fill="midnightblue" stroke="midnightblue" points="919.551,-96.5028 929.803,-93.829 920.121,-89.526 919.551,-96.5028"/>
</g>
<!-- Node6 -->
<g id="node6" class="node"><title>Node6</title>
<g id="a_node6"><a xlink:href="a00305.html" target="_top" xlink:title="Command&#45;line argument parsing for ndmetis. ">
<polygon fill="white" stroke="black" points="506.5,-0.5 506.5,-41.5 653.5,-41.5 653.5,-0.5 506.5,-0.5"/>
<text text-anchor="start" x="514.5" y="-29.5" font-family="Helvetica,sans-Serif" font-size="10.00">ArcSyn3sis/3rdParty</text>
<text text-anchor="start" x="514.5" y="-18.5" font-family="Helvetica,sans-Serif" font-size="10.00">/parmetis&#45;4.0.3/metis</text>
<text text-anchor="middle" x="580" y="-7.5" font-family="Helvetica,sans-Serif" font-size="10.00">/programs/cmdline_ndmetis.c</text>
</a>
</g>
</g>
<!-- Node2&#45;&gt;Node6 -->
<g id="edge5" class="edge"><title>Node2&#45;&gt;Node6</title>
<path fill="none" stroke="midnightblue" d="M919.68,-87.9029C854.461,-77.5249 751.471,-60.3326 663,-42 659.952,-41.3684 656.846,-40.7059 653.711,-40.0217"/>
<polygon fill="midnightblue" stroke="midnightblue" points="919.39,-91.4006 929.814,-89.5091 920.486,-84.4868 919.39,-91.4006"/>
</g>
<!-- Node7 -->
<g id="node7" class="node"><title>Node7</title>
<g id="a_node7"><a xlink:href="a00308.html" target="_top" xlink:title="ArcSyn3sis/3rdParty\l/parmetis&#45;4.0.3/metis\l/programs/cmpfillin.c">
<polygon fill="white" stroke="black" points="672,-0.5 672,-41.5 782,-41.5 782,-0.5 672,-0.5"/>
<text text-anchor="start" x="680" y="-29.5" font-family="Helvetica,sans-Serif" font-size="10.00">ArcSyn3sis/3rdParty</text>
<text text-anchor="start" x="680" y="-18.5" font-family="Helvetica,sans-Serif" font-size="10.00">/parmetis&#45;4.0.3/metis</text>
<text text-anchor="middle" x="727" y="-7.5" font-family="Helvetica,sans-Serif" font-size="10.00">/programs/cmpfillin.c</text>
</a>
</g>
</g>
<!-- Node2&#45;&gt;Node7 -->
<g id="edge6" class="edge"><title>Node2&#45;&gt;Node7</title>
<path fill="none" stroke="midnightblue" d="M919.873,-79.5846C882.168,-68.827 833.837,-54.8744 791,-42 788.101,-41.1289 785.131,-40.2284 782.134,-39.3135"/>
<polygon fill="midnightblue" stroke="midnightblue" points="919.139,-83.0146 929.715,-82.3889 921.057,-76.2826 919.139,-83.0146"/>
</g>
<!-- Node8 -->
<g id="node8" class="node"><title>Node8</title>
<g id="a_node8"><a xlink:href="a00311.html" target="_top" xlink:title="ArcSyn3sis/3rdParty\l/parmetis&#45;4.0.3/metis\l/programs/gpmetis.c">
<polygon fill="white" stroke="black" points="800,-0.5 800,-41.5 910,-41.5 910,-0.5 800,-0.5"/>
<text text-anchor="start" x="808" y="-29.5" font-family="Helvetica,sans-Serif" font-size="10.00">ArcSyn3sis/3rdParty</text>
<text text-anchor="start" x="808" y="-18.5" font-family="Helvetica,sans-Serif" font-size="10.00">/parmetis&#45;4.0.3/metis</text>
<text text-anchor="middle" x="855" y="-7.5" font-family="Helvetica,sans-Serif" font-size="10.00">/programs/gpmetis.c</text>
</a>
</g>
</g>
<!-- Node2&#45;&gt;Node8 -->
<g id="edge7" class="edge"><title>Node2&#45;&gt;Node8</title>
<path fill="none" stroke="midnightblue" d="M942.584,-73.2029C924.991,-62.9176 904.877,-51.1587 888.365,-41.5056"/>
<polygon fill="midnightblue" stroke="midnightblue" points="941.122,-76.4026 951.522,-78.4281 944.655,-70.3596 941.122,-76.4026"/>
</g>
<!-- Node9 -->
<g id="node9" class="node"><title>Node9</title>
<g id="a_node9"><a xlink:href="a00314.html" target="_top" xlink:title="ArcSyn3sis/3rdParty\l/parmetis&#45;4.0.3/metis\l/programs/graphchk.c">
<polygon fill="white" stroke="black" points="928.5,-0.5 928.5,-41.5 1041.5,-41.5 1041.5,-0.5 928.5,-0.5"/>
<text text-anchor="start" x="936.5" y="-29.5" font-family="Helvetica,sans-Serif" font-size="10.00">ArcSyn3sis/3rdParty</text>
<text text-anchor="start" x="936.5" y="-18.5" font-family="Helvetica,sans-Serif" font-size="10.00">/parmetis&#45;4.0.3/metis</text>
<text text-anchor="middle" x="985" y="-7.5" font-family="Helvetica,sans-Serif" font-size="10.00">/programs/graphchk.c</text>
</a>
</g>
</g>
<!-- Node2&#45;&gt;Node9 -->
<g id="edge8" class="edge"><title>Node2&#45;&gt;Node9</title>
<path fill="none" stroke="midnightblue" d="M985,-68.2965C985,-59.3009 985,-49.6532 985,-41.5056"/>
<polygon fill="midnightblue" stroke="midnightblue" points="981.5,-68.4281 985,-78.4281 988.5,-68.4281 981.5,-68.4281"/>
</g>
<!-- Node10 -->
<g id="node10" class="node"><title>Node10</title>
<g id="a_node10"><a xlink:href="a00861.html" target="_top" xlink:title="ArcSyn3sis/3rdParty\l/parmetis&#45;4.0.3/metis\l/programs/io.c">
<polygon fill="white" stroke="black" points="1060,-0.5 1060,-41.5 1170,-41.5 1170,-0.5 1060,-0.5"/>
<text text-anchor="start" x="1068" y="-29.5" font-family="Helvetica,sans-Serif" font-size="10.00">ArcSyn3sis/3rdParty</text>
<text text-anchor="start" x="1068" y="-18.5" font-family="Helvetica,sans-Serif" font-size="10.00">/parmetis&#45;4.0.3/metis</text>
<text text-anchor="middle" x="1115" y="-7.5" font-family="Helvetica,sans-Serif" font-size="10.00">/programs/io.c</text>
</a>
</g>
</g>
<!-- Node2&#45;&gt;Node10 -->
<g id="edge9" class="edge"><title>Node2&#45;&gt;Node10</title>
<path fill="none" stroke="midnightblue" d="M1027.42,-73.2029C1045.01,-62.9176 1065.12,-51.1587 1081.64,-41.5056"/>
<polygon fill="midnightblue" stroke="midnightblue" points="1025.34,-70.3596 1018.48,-78.4281 1028.88,-76.4026 1025.34,-70.3596"/>
</g>
<!-- Node11 -->
<g id="node11" class="node"><title>Node11</title>
<g id="a_node11"><a xlink:href="a00317.html" target="_top" xlink:title="ArcSyn3sis/3rdParty\l/parmetis&#45;4.0.3/metis\l/programs/m2gmetis.c">
<polygon fill="white" stroke="black" points="1188.5,-0.5 1188.5,-41.5 1303.5,-41.5 1303.5,-0.5 1188.5,-0.5"/>
<text text-anchor="start" x="1196.5" y="-29.5" font-family="Helvetica,sans-Serif" font-size="10.00">ArcSyn3sis/3rdParty</text>
<text text-anchor="start" x="1196.5" y="-18.5" font-family="Helvetica,sans-Serif" font-size="10.00">/parmetis&#45;4.0.3/metis</text>
<text text-anchor="middle" x="1246" y="-7.5" font-family="Helvetica,sans-Serif" font-size="10.00">/programs/m2gmetis.c</text>
</a>
</g>
</g>
<!-- Node2&#45;&gt;Node11 -->
<g id="edge10" class="edge"><title>Node2&#45;&gt;Node11</title>
<path fill="none" stroke="midnightblue" d="M1050.07,-79.3775C1087.75,-68.5517 1136.08,-54.6 1179,-42 1182.03,-41.1109 1185.13,-40.1962 1188.27,-39.2701"/>
<polygon fill="midnightblue" stroke="midnightblue" points="1048.87,-76.0778 1040.23,-82.2016 1050.81,-82.806 1048.87,-76.0778"/>
</g>
<!-- Node12 -->
<g id="node12" class="node"><title>Node12</title>
<g id="a_node12"><a xlink:href="a00323.html" target="_top" xlink:title="ArcSyn3sis/3rdParty\l/parmetis&#45;4.0.3/metis\l/programs/mpmetis.c">
<polygon fill="white" stroke="black" points="1322,-0.5 1322,-41.5 1432,-41.5 1432,-0.5 1322,-0.5"/>
<text text-anchor="start" x="1330" y="-29.5" font-family="Helvetica,sans-Serif" font-size="10.00">ArcSyn3sis/3rdParty</text>
<text text-anchor="start" x="1330" y="-18.5" font-family="Helvetica,sans-Serif" font-size="10.00">/parmetis&#45;4.0.3/metis</text>
<text text-anchor="middle" x="1377" y="-7.5" font-family="Helvetica,sans-Serif" font-size="10.00">/programs/mpmetis.c</text>
</a>
</g>
</g>
<!-- Node2&#45;&gt;Node12 -->
<g id="edge11" class="edge"><title>Node2&#45;&gt;Node12</title>
<path fill="none" stroke="midnightblue" d="M1050.42,-89.3298C1116.8,-79.9421 1222.26,-63.3971 1312,-42 1315.22,-41.2333 1318.51,-40.395 1321.82,-39.5101"/>
<polygon fill="midnightblue" stroke="midnightblue" points="1049.53,-85.9204 1040.11,-90.7746 1050.5,-92.8526 1049.53,-85.9204"/>
</g>
<!-- Node13 -->
<g id="node13" class="node"><title>Node13</title>
<g id="a_node13"><a xlink:href="a00326.html" target="_top" xlink:title="ArcSyn3sis/3rdParty\l/parmetis&#45;4.0.3/metis\l/programs/ndmetis.c">
<polygon fill="white" stroke="black" points="1450,-0.5 1450,-41.5 1560,-41.5 1560,-0.5 1450,-0.5"/>
<text text-anchor="start" x="1458" y="-29.5" font-family="Helvetica,sans-Serif" font-size="10.00">ArcSyn3sis/3rdParty</text>
<text text-anchor="start" x="1458" y="-18.5" font-family="Helvetica,sans-Serif" font-size="10.00">/parmetis&#45;4.0.3/metis</text>
<text text-anchor="middle" x="1505" y="-7.5" font-family="Helvetica,sans-Serif" font-size="10.00">/programs/ndmetis.c</text>
</a>
</g>
</g>
<!-- Node2&#45;&gt;Node13 -->
<g id="edge12" class="edge"><title>Node2&#45;&gt;Node13</title>
<path fill="none" stroke="midnightblue" d="M1050.51,-93.6906C1139.65,-86.9817 1303.76,-71.6174 1441,-42 1443.84,-41.3861 1446.74,-40.7014 1449.66,-39.9655"/>
<polygon fill="midnightblue" stroke="midnightblue" points="1050,-90.219 1040.29,-94.4472 1050.52,-97.2 1050,-90.219"/>
</g>
<!-- Node14 -->
<g id="node14" class="node"><title>Node14</title>
<g id="a_node14"><a xlink:href="a00329.html" target="_top" xlink:title="ArcSyn3sis/3rdParty\l/parmetis&#45;4.0.3/metis\l/programs/smbfactor.c">
<polygon fill="white" stroke="black" points="1578,-0.5 1578,-41.5 1694,-41.5 1694,-0.5 1578,-0.5"/>
<text text-anchor="start" x="1586" y="-29.5" font-family="Helvetica,sans-Serif" font-size="10.00">ArcSyn3sis/3rdParty</text>
<text text-anchor="start" x="1586" y="-18.5" font-family="Helvetica,sans-Serif" font-size="10.00">/parmetis&#45;4.0.3/metis</text>
<text text-anchor="middle" x="1636" y="-7.5" font-family="Helvetica,sans-Serif" font-size="10.00">/programs/smbfactor.c</text>
</a>
</g>
</g>
<!-- Node2&#45;&gt;Node14 -->
<g id="edge13" class="edge"><title>Node2&#45;&gt;Node14</title>
<path fill="none" stroke="midnightblue" d="M1050.41,-95.8727C1159.03,-91.4178 1383.06,-78.3077 1569,-42 1571.86,-41.4417 1574.77,-40.8122 1577.7,-40.1299"/>
<polygon fill="midnightblue" stroke="midnightblue" points="1050.11,-92.3815 1040.26,-96.2773 1050.39,-99.376 1050.11,-92.3815"/>
</g>
<!-- Node15 -->
<g id="node15" class="node"><title>Node15</title>
<g id="a_node15"><a xlink:href="a00969.html" target="_top" xlink:title="ArcSyn3sis/3rdParty\l/parmetis&#45;4.0.3/metis\l/programs/stat.c">
<polygon fill="white" stroke="black" points="1712,-0.5 1712,-41.5 1822,-41.5 1822,-0.5 1712,-0.5"/>
<text text-anchor="start" x="1720" y="-29.5" font-family="Helvetica,sans-Serif" font-size="10.00">ArcSyn3sis/3rdParty</text>
<text text-anchor="start" x="1720" y="-18.5" font-family="Helvetica,sans-Serif" font-size="10.00">/parmetis&#45;4.0.3/metis</text>
<text text-anchor="middle" x="1767" y="-7.5" font-family="Helvetica,sans-Serif" font-size="10.00">/programs/stat.c</text>
</a>
</g>
</g>
<!-- Node2&#45;&gt;Node15 -->
<g id="edge14" class="edge"><title>Node2&#45;&gt;Node15</title>
<path fill="none" stroke="midnightblue" d="M1050.38,-97.7977C1177.34,-96.33 1465.66,-87.7338 1703,-42 1705.86,-41.4493 1708.77,-40.8155 1711.69,-40.12"/>
<polygon fill="midnightblue" stroke="midnightblue" points="1050.02,-94.3011 1040.05,-97.9052 1050.09,-101.301 1050.02,-94.3011"/>
</g>
</g>
</svg>
