<?xml version="1.0" encoding="UTF-8" standalone="no"?>
<!DOCTYPE svg PUBLIC "-//W3C//DTD SVG 1.1//EN"
 "http://www.w3.org/Graphics/SVG/1.1/DTD/svg11.dtd">
<!-- Generated by graphviz version 2.36.0 (20140111.2315)
 -->
<!-- Title: ReadPOVector Pages: 1 -->
<svg width="346pt" height="104pt"
 viewBox="0.00 0.00 346.00 104.00" xmlns="http://www.w3.org/2000/svg" xmlns:xlink="http://www.w3.org/1999/xlink">
<g id="graph0" class="graph" transform="scale(1 1) rotate(0) translate(4 100)">
<title>ReadPOVector</title>
<polygon fill="white" stroke="none" points="-4,4 -4,-100 342,-100 342,4 -4,4"/>
<!-- Node37 -->
<g id="node1" class="node"><title>Node37</title>
<polygon fill="#bfbfbf" stroke="black" points="0,-38.5 0,-57.5 84,-57.5 84,-38.5 0,-38.5"/>
<text text-anchor="middle" x="42" y="-45.5" font-family="Helvetica,sans-Serif" font-size="10.00">ReadPOVector</text>
</g>
<!-- Node38 -->
<g id="node2" class="node"><title>Node38</title>
<g id="a_node2"><a xlink:href="$a00858.html#abff04948821f625a3e59666e61c70e2f" xlink:title="gk_fopen">
<polygon fill="white" stroke="black" points="121,-76.5 121,-95.5 179,-95.5 179,-76.5 121,-76.5"/>
<text text-anchor="middle" x="150" y="-83.5" font-family="Helvetica,sans-Serif" font-size="10.00">gk_fopen</text>
</a>
</g>
</g>
<!-- Node37&#45;&gt;Node38 -->
<g id="edge1" class="edge"><title>Node37&#45;&gt;Node38</title>
<path fill="none" stroke="midnightblue" d="M69.7483,-57.589C82.8042,-62.2694 98.7035,-67.9692 112.825,-73.0315"/>
<polygon fill="midnightblue" stroke="midnightblue" points="111.666,-76.3341 122.26,-76.4141 114.028,-69.7447 111.666,-76.3341"/>
</g>
<!-- Node40 -->
<g id="node4" class="node"><title>Node40</title>
<g id="a_node4"><a xlink:href="$a00026.html#a56d0f2cc40cd8633a784582d6200d8b5" xlink:title="errexit">
<polygon fill="white" stroke="black" points="216,-38.5 216,-57.5 260,-57.5 260,-38.5 216,-38.5"/>
<text text-anchor="middle" x="238" y="-45.5" font-family="Helvetica,sans-Serif" font-size="10.00">errexit</text>
</a>
</g>
</g>
<!-- Node37&#45;&gt;Node40 -->
<g id="edge5" class="edge"><title>Node37&#45;&gt;Node40</title>
<path fill="none" stroke="midnightblue" d="M84.1424,-48C120.416,-48 172.5,-48 205.534,-48"/>
<polygon fill="midnightblue" stroke="midnightblue" points="205.956,-51.5001 215.956,-48 205.956,-44.5001 205.956,-51.5001"/>
</g>
<!-- Node42 -->
<g id="node6" class="node"><title>Node42</title>
<g id="a_node6"><a xlink:href="$a00858.html#a70dec19fefaf0c84f3948b4679a73fec" xlink:title="gk_fclose">
<polygon fill="white" stroke="black" points="120.5,-0.5 120.5,-19.5 179.5,-19.5 179.5,-0.5 120.5,-0.5"/>
<text text-anchor="middle" x="150" y="-7.5" font-family="Helvetica,sans-Serif" font-size="10.00">gk_fclose</text>
</a>
</g>
</g>
<!-- Node37&#45;&gt;Node42 -->
<g id="edge6" class="edge"><title>Node37&#45;&gt;Node42</title>
<path fill="none" stroke="midnightblue" d="M69.7483,-38.411C82.8042,-33.7306 98.7035,-28.0308 112.825,-22.9685"/>
<polygon fill="midnightblue" stroke="midnightblue" points="114.028,-26.2553 122.26,-19.5859 111.666,-19.6659 114.028,-26.2553"/>
</g>
<!-- Node39 -->
<g id="node3" class="node"><title>Node39</title>
<g id="a_node3"><a xlink:href="$a00575.html#ae6aab5c308faac0fc539cc9c6da9fbd0" xlink:title="sprintf">
<polygon fill="white" stroke="black" points="216,-76.5 216,-95.5 260,-95.5 260,-76.5 216,-76.5"/>
<text text-anchor="middle" x="238" y="-83.5" font-family="Helvetica,sans-Serif" font-size="10.00">sprintf</text>
</a>
</g>
</g>
<!-- Node38&#45;&gt;Node39 -->
<g id="edge2" class="edge"><title>Node38&#45;&gt;Node39</title>
<path fill="none" stroke="midnightblue" d="M179.16,-86C187.657,-86 197.036,-86 205.724,-86"/>
<polygon fill="midnightblue" stroke="midnightblue" points="205.873,-89.5001 215.873,-86 205.873,-82.5001 205.873,-89.5001"/>
</g>
<!-- Node38&#45;&gt;Node40 -->
<g id="edge3" class="edge"><title>Node38&#45;&gt;Node40</title>
<path fill="none" stroke="midnightblue" d="M172.701,-76.411C182.939,-71.8876 195.331,-66.4121 206.493,-61.48"/>
<polygon fill="midnightblue" stroke="midnightblue" points="208.168,-64.5663 215.9,-57.3232 205.339,-58.1635 208.168,-64.5663"/>
</g>
<!-- Node41 -->
<g id="node5" class="node"><title>Node41</title>
<g id="a_node5"><a xlink:href="$a01017.html#a2e311a777ffe9c80e405efa7cd2757be" xlink:title="fprintf">
<polygon fill="white" stroke="black" points="296,-38.5 296,-57.5 338,-57.5 338,-38.5 296,-38.5"/>
<text text-anchor="middle" x="317" y="-45.5" font-family="Helvetica,sans-Serif" font-size="10.00">fprintf</text>
</a>
</g>
</g>
<!-- Node40&#45;&gt;Node41 -->
<g id="edge4" class="edge"><title>Node40&#45;&gt;Node41</title>
<path fill="none" stroke="midnightblue" d="M260.041,-48C267.955,-48 277.118,-48 285.709,-48"/>
<polygon fill="midnightblue" stroke="midnightblue" points="285.782,-51.5001 295.782,-48 285.782,-44.5001 285.782,-51.5001"/>
</g>
<!-- Node43 -->
<g id="node7" class="node"><title>Node43</title>
<g id="a_node7"><a xlink:href="$a01017.html#a355ed4cdac2a27aa04a6689ac2d7e86e" xlink:title="fclose">
<polygon fill="white" stroke="black" points="216.5,-0.5 216.5,-19.5 259.5,-19.5 259.5,-0.5 216.5,-0.5"/>
<text text-anchor="middle" x="238" y="-7.5" font-family="Helvetica,sans-Serif" font-size="10.00">fclose</text>
</a>
</g>
</g>
<!-- Node42&#45;&gt;Node43 -->
<g id="edge7" class="edge"><title>Node42&#45;&gt;Node43</title>
<path fill="none" stroke="midnightblue" d="M179.637,-10C188.182,-10 197.583,-10 206.257,-10"/>
<polygon fill="midnightblue" stroke="midnightblue" points="206.372,-13.5001 216.372,-10 206.372,-6.5001 206.372,-13.5001"/>
</g>
</g>
</svg>
