<?xml version="1.0" encoding="UTF-8" standalone="no"?>
<!DOCTYPE svg PUBLIC "-//W3C//DTD SVG 1.1//EN"
 "http://www.w3.org/Graphics/SVG/1.1/DTD/svg11.dtd">
<!-- Generated by graphviz version 2.36.0 (20140111.2315)
 -->
<!-- Title: FreeNonGraphFields Pages: 1 -->
<svg width="292pt" height="66pt"
 viewBox="0.00 0.00 292.00 66.00" xmlns="http://www.w3.org/2000/svg" xmlns:xlink="http://www.w3.org/1999/xlink">
<g id="graph0" class="graph" transform="scale(1 1) rotate(0) translate(4 62)">
<title>FreeNonGraphFields</title>
<polygon fill="white" stroke="none" points="-4,4 -4,-62 288,-62 288,4 -4,4"/>
<!-- Node18 -->
<g id="node1" class="node"><title>Node18</title>
<polygon fill="#bfbfbf" stroke="black" points="0,-19.5 0,-38.5 110,-38.5 110,-19.5 0,-19.5"/>
<text text-anchor="middle" x="55" y="-26.5" font-family="Helvetica,sans-Serif" font-size="10.00">FreeNonGraphFields</text>
</g>
<!-- Node19 -->
<g id="node2" class="node"><title>Node19</title>
<g id="a_node2"><a xlink:href="$a00954.html#a583ba60fc42c1592f69587a1ae9c94d4" xlink:title="FreeGraph">
<polygon fill="white" stroke="black" points="182.5,-38.5 182.5,-57.5 247.5,-57.5 247.5,-38.5 182.5,-38.5"/>
<text text-anchor="middle" x="215" y="-45.5" font-family="Helvetica,sans-Serif" font-size="10.00">FreeGraph</text>
</a>
</g>
</g>
<!-- Node18&#45;&gt;Node19 -->
<g id="edge1" class="edge"><title>Node18&#45;&gt;Node19</title>
<path fill="none" stroke="midnightblue" d="M120.349,-36.7382C141.629,-39.2972 164.379,-42.0329 182.127,-44.1672"/>
<polygon fill="midnightblue" stroke="midnightblue" points="120.721,-33.2578 110.375,-35.5387 119.885,-40.2077 120.721,-33.2578"/>
</g>
<!-- Node20 -->
<g id="node3" class="node"><title>Node20</title>
<g id="a_node3"><a xlink:href="$a00954.html#a739360f530677f48f239c049cbbf7855" xlink:title="FreeInitialGraphAndRemap">
<polygon fill="white" stroke="black" points="146,-0.5 146,-19.5 284,-19.5 284,-0.5 146,-0.5"/>
<text text-anchor="middle" x="215" y="-7.5" font-family="Helvetica,sans-Serif" font-size="10.00">FreeInitialGraphAndRemap</text>
</a>
</g>
</g>
<!-- Node18&#45;&gt;Node20 -->
<g id="edge2" class="edge"><title>Node18&#45;&gt;Node20</title>
<path fill="none" stroke="midnightblue" d="M120.448,-21.2499C128.82,-20.2432 137.418,-19.2093 145.847,-18.1956"/>
<polygon fill="midnightblue" stroke="midnightblue" points="119.885,-17.7923 110.375,-22.4613 120.721,-24.7422 119.885,-17.7923"/>
</g>
</g>
</svg>
