<?xml version="1.0" encoding="UTF-8" standalone="no"?>
<!DOCTYPE svg PUBLIC "-//W3C//DTD SVG 1.1//EN"
 "http://www.w3.org/Graphics/SVG/1.1/DTD/svg11.dtd">
<!-- Generated by graphviz version 2.36.0 (20140111.2315)
 -->
<!-- Title: gk_fwritefilebin Pages: 1 -->
<svg width="346pt" height="104pt"
 viewBox="0.00 0.00 346.00 104.00" xmlns="http://www.w3.org/2000/svg" xmlns:xlink="http://www.w3.org/1999/xlink">
<g id="graph0" class="graph" transform="scale(1 1) rotate(0) translate(4 100)">
<title>gk_fwritefilebin</title>
<polygon fill="white" stroke="none" points="-4,4 -4,-100 342,-100 342,4 -4,4"/>
<!-- Node96 -->
<g id="node1" class="node"><title>Node96</title>
<polygon fill="#bfbfbf" stroke="black" points="0.5,-19.5 0.5,-38.5 83.5,-38.5 83.5,-19.5 0.5,-19.5"/>
<text text-anchor="middle" x="42" y="-26.5" font-family="Helvetica,sans-Serif" font-size="10.00">gk_fwritefilebin</text>
</g>
<!-- Node97 -->
<g id="node2" class="node"><title>Node97</title>
<g id="a_node2"><a xlink:href="$a00858.html#abff04948821f625a3e59666e61c70e2f" xlink:title="gk_fopen">
<polygon fill="white" stroke="black" points="121,-38.5 121,-57.5 179,-57.5 179,-38.5 121,-38.5"/>
<text text-anchor="middle" x="150" y="-45.5" font-family="Helvetica,sans-Serif" font-size="10.00">gk_fopen</text>
</a>
</g>
</g>
<!-- Node96&#45;&gt;Node97 -->
<g id="edge1" class="edge"><title>Node96&#45;&gt;Node97</title>
<path fill="none" stroke="midnightblue" d="M83.6792,-36.2916C92.5755,-37.8862 101.962,-39.5687 110.759,-41.1455"/>
<polygon fill="midnightblue" stroke="midnightblue" points="110.29,-44.6171 120.751,-42.9364 111.525,-37.7269 110.29,-44.6171"/>
</g>
<!-- Node101 -->
<g id="node6" class="node"><title>Node101</title>
<g id="a_node6"><a xlink:href="$a00858.html#a70dec19fefaf0c84f3948b4679a73fec" xlink:title="gk_fclose">
<polygon fill="white" stroke="black" points="120.5,-0.5 120.5,-19.5 179.5,-19.5 179.5,-0.5 120.5,-0.5"/>
<text text-anchor="middle" x="150" y="-7.5" font-family="Helvetica,sans-Serif" font-size="10.00">gk_fclose</text>
</a>
</g>
</g>
<!-- Node96&#45;&gt;Node101 -->
<g id="edge5" class="edge"><title>Node96&#45;&gt;Node101</title>
<path fill="none" stroke="midnightblue" d="M83.6792,-21.7084C92.4915,-20.1289 101.785,-18.4631 110.51,-16.8992"/>
<polygon fill="midnightblue" stroke="midnightblue" points="111.203,-20.3308 120.428,-15.1213 109.968,-13.4407 111.203,-20.3308"/>
</g>
<!-- Node98 -->
<g id="node3" class="node"><title>Node98</title>
<g id="a_node3"><a xlink:href="$a00575.html#ae6aab5c308faac0fc539cc9c6da9fbd0" xlink:title="sprintf">
<polygon fill="white" stroke="black" points="216,-76.5 216,-95.5 260,-95.5 260,-76.5 216,-76.5"/>
<text text-anchor="middle" x="238" y="-83.5" font-family="Helvetica,sans-Serif" font-size="10.00">sprintf</text>
</a>
</g>
</g>
<!-- Node97&#45;&gt;Node98 -->
<g id="edge2" class="edge"><title>Node97&#45;&gt;Node98</title>
<path fill="none" stroke="midnightblue" d="M172.701,-57.589C182.939,-62.1124 195.331,-67.5879 206.493,-72.52"/>
<polygon fill="midnightblue" stroke="midnightblue" points="205.339,-75.8365 215.9,-76.6768 208.168,-69.4337 205.339,-75.8365"/>
</g>
<!-- Node99 -->
<g id="node4" class="node"><title>Node99</title>
<g id="a_node4"><a xlink:href="$a00026.html#a56d0f2cc40cd8633a784582d6200d8b5" xlink:title="errexit">
<polygon fill="white" stroke="black" points="216,-38.5 216,-57.5 260,-57.5 260,-38.5 216,-38.5"/>
<text text-anchor="middle" x="238" y="-45.5" font-family="Helvetica,sans-Serif" font-size="10.00">errexit</text>
</a>
</g>
</g>
<!-- Node97&#45;&gt;Node99 -->
<g id="edge3" class="edge"><title>Node97&#45;&gt;Node99</title>
<path fill="none" stroke="midnightblue" d="M179.16,-48C187.657,-48 197.036,-48 205.724,-48"/>
<polygon fill="midnightblue" stroke="midnightblue" points="205.873,-51.5001 215.873,-48 205.873,-44.5001 205.873,-51.5001"/>
</g>
<!-- Node100 -->
<g id="node5" class="node"><title>Node100</title>
<g id="a_node5"><a xlink:href="$a01017.html#a2e311a777ffe9c80e405efa7cd2757be" xlink:title="fprintf">
<polygon fill="white" stroke="black" points="296,-38.5 296,-57.5 338,-57.5 338,-38.5 296,-38.5"/>
<text text-anchor="middle" x="317" y="-45.5" font-family="Helvetica,sans-Serif" font-size="10.00">fprintf</text>
</a>
</g>
</g>
<!-- Node99&#45;&gt;Node100 -->
<g id="edge4" class="edge"><title>Node99&#45;&gt;Node100</title>
<path fill="none" stroke="midnightblue" d="M260.041,-48C267.955,-48 277.118,-48 285.709,-48"/>
<polygon fill="midnightblue" stroke="midnightblue" points="285.782,-51.5001 295.782,-48 285.782,-44.5001 285.782,-51.5001"/>
</g>
<!-- Node102 -->
<g id="node7" class="node"><title>Node102</title>
<g id="a_node7"><a xlink:href="$a01017.html#a355ed4cdac2a27aa04a6689ac2d7e86e" xlink:title="fclose">
<polygon fill="white" stroke="black" points="216.5,-0.5 216.5,-19.5 259.5,-19.5 259.5,-0.5 216.5,-0.5"/>
<text text-anchor="middle" x="238" y="-7.5" font-family="Helvetica,sans-Serif" font-size="10.00">fclose</text>
</a>
</g>
</g>
<!-- Node101&#45;&gt;Node102 -->
<g id="edge6" class="edge"><title>Node101&#45;&gt;Node102</title>
<path fill="none" stroke="midnightblue" d="M179.637,-10C188.182,-10 197.583,-10 206.257,-10"/>
<polygon fill="midnightblue" stroke="midnightblue" points="206.372,-13.5001 216.372,-10 206.372,-6.5001 206.372,-13.5001"/>
</g>
</g>
</svg>
