<?xml version="1.0" encoding="UTF-8" standalone="no"?>
<!DOCTYPE svg PUBLIC "-//W3C//DTD SVG 1.1//EN"
 "http://www.w3.org/Graphics/SVG/1.1/DTD/svg11.dtd">
<!-- Generated by graphviz version 2.36.0 (20140111.2315)
 -->
<!-- Title: ParMETIS_V3_NodeND Pages: 1 -->
<svg width="244pt" height="66pt"
 viewBox="0.00 0.00 244.00 66.00" xmlns="http://www.w3.org/2000/svg" xmlns:xlink="http://www.w3.org/1999/xlink">
<g id="graph0" class="graph" transform="scale(1 1) rotate(0) translate(4 62)">
<title>ParMETIS_V3_NodeND</title>
<polygon fill="white" stroke="none" points="-4,4 -4,-62 240,-62 240,4 -4,4"/>
<!-- Node16 -->
<g id="node1" class="node"><title>Node16</title>
<polygon fill="#bfbfbf" stroke="black" points="0,-19.5 0,-38.5 124,-38.5 124,-19.5 0,-19.5"/>
<text text-anchor="middle" x="62" y="-26.5" font-family="Helvetica,sans-Serif" font-size="10.00">ParMETIS_V3_NodeND</text>
</g>
<!-- Node17 -->
<g id="node2" class="node"><title>Node17</title>
<g id="a_node2"><a xlink:href="$a00945.html#a0ddf1224851353fc92bfbff6f499fa97" xlink:title="main">
<polygon fill="white" stroke="black" points="179,-38.5 179,-57.5 217,-57.5 217,-38.5 179,-38.5"/>
<text text-anchor="middle" x="198" y="-45.5" font-family="Helvetica,sans-Serif" font-size="10.00">main</text>
</a>
</g>
</g>
<!-- Node16&#45;&gt;Node17 -->
<g id="edge1" class="edge"><title>Node16&#45;&gt;Node17</title>
<path fill="none" stroke="midnightblue" d="M134.394,-39.1231C150.882,-41.4609 167.013,-43.7481 178.771,-45.4153"/>
<polygon fill="midnightblue" stroke="midnightblue" points="134.51,-35.6046 124.118,-37.666 133.528,-42.5353 134.51,-35.6046"/>
</g>
<!-- Node18 -->
<g id="node3" class="node"><title>Node18</title>
<g id="a_node3"><a xlink:href="$a00428.html#ac0ca0065f1dc35b0f4fe4d1968313dca" xlink:title="TestParMetis">
<polygon fill="white" stroke="black" points="160.5,-0.5 160.5,-19.5 235.5,-19.5 235.5,-0.5 160.5,-0.5"/>
<text text-anchor="middle" x="198" y="-7.5" font-family="Helvetica,sans-Serif" font-size="10.00">TestParMetis</text>
</a>
</g>
</g>
<!-- Node16&#45;&gt;Node18 -->
<g id="edge2" class="edge"><title>Node16&#45;&gt;Node18</title>
<path fill="none" stroke="midnightblue" d="M134.044,-18.9266C143.185,-17.6305 152.225,-16.3487 160.481,-15.1781"/>
<polygon fill="midnightblue" stroke="midnightblue" points="133.528,-15.4647 124.118,-20.334 134.51,-22.3954 133.528,-15.4647"/>
</g>
</g>
</svg>
