<?xml version="1.0" encoding="UTF-8" standalone="no"?>
<!DOCTYPE svg PUBLIC "-//W3C//DTD SVG 1.1//EN"
 "http://www.w3.org/Graphics/SVG/1.1/DTD/svg11.dtd">
<!-- Generated by graphviz version 2.36.0 (20140111.2315)
 -->
<!-- Title: parse_cmdline Pages: 1 -->
<svg width="478pt" height="124pt"
 viewBox="0.00 0.00 478.00 123.84" xmlns="http://www.w3.org/2000/svg" xmlns:xlink="http://www.w3.org/1999/xlink">
<g id="graph0" class="graph" transform="scale(1 1) rotate(0) translate(4 119.838)">
<title>parse_cmdline</title>
<polygon fill="white" stroke="none" points="-4,4 -4,-119.838 474,-119.838 474,4 -4,4"/>
<!-- Node29 -->
<g id="node1" class="node"><title>Node29</title>
<polygon fill="#bfbfbf" stroke="black" points="0,-38.5 0,-57.5 82,-57.5 82,-38.5 0,-38.5"/>
<text text-anchor="middle" x="41" y="-45.5" font-family="Helvetica,sans-Serif" font-size="10.00">parse_cmdline</text>
</g>
<!-- Node30 -->
<g id="node2" class="node"><title>Node30</title>
<g id="a_node2"><a xlink:href="$a00077.html#aba6f76f5c67b9b7e9c2e45988d3d3e9d" xlink:title="gk_malloc">
<polygon fill="white" stroke="black" points="142,-57.5 142,-76.5 204,-76.5 204,-57.5 142,-57.5"/>
<text text-anchor="middle" x="173" y="-64.5" font-family="Helvetica,sans-Serif" font-size="10.00">gk_malloc</text>
</a>
</g>
</g>
<!-- Node29&#45;&gt;Node30 -->
<g id="edge1" class="edge"><title>Node29&#45;&gt;Node30</title>
<path fill="none" stroke="midnightblue" d="M82.065,-53.8557C97.8542,-56.1633 115.957,-58.8091 131.763,-61.1192"/>
<polygon fill="midnightblue" stroke="midnightblue" points="131.37,-64.5988 141.771,-62.5819 132.382,-57.6724 131.37,-64.5988"/>
</g>
<!-- Node35 -->
<g id="node7" class="node"><title>Node35</title>
<g id="a_node7"><a xlink:href="$a00038.html#abb224612ca0aae2d39bd87f6146bd67d" xlink:title="Parse command&#45;line arguments with only long options. ">
<polygon fill="white" stroke="black" points="118.5,-19.5 118.5,-38.5 227.5,-38.5 227.5,-19.5 118.5,-19.5"/>
<text text-anchor="middle" x="173" y="-26.5" font-family="Helvetica,sans-Serif" font-size="10.00">gk_getopt_long_only</text>
</a>
</g>
</g>
<!-- Node29&#45;&gt;Node35 -->
<g id="edge7" class="edge"><title>Node29&#45;&gt;Node35</title>
<path fill="none" stroke="midnightblue" d="M82.065,-42.1443C90.4125,-40.9243 99.4066,-39.6098 108.366,-38.3003"/>
<polygon fill="midnightblue" stroke="midnightblue" points="109.042,-41.7388 118.431,-36.8294 108.03,-34.8124 109.042,-41.7388"/>
</g>
<!-- Node31 -->
<g id="node3" class="node"><title>Node31</title>
<g id="a_node3"><a xlink:href="$a01017.html#a2e311a777ffe9c80e405efa7cd2757be" xlink:title="fprintf">
<polygon fill="white" stroke="black" points="428,-57.5 428,-76.5 470,-76.5 470,-57.5 428,-57.5"/>
<text text-anchor="middle" x="449" y="-64.5" font-family="Helvetica,sans-Serif" font-size="10.00">fprintf</text>
</a>
</g>
</g>
<!-- Node30&#45;&gt;Node31 -->
<g id="edge2" class="edge"><title>Node30&#45;&gt;Node31</title>
<path fill="none" stroke="midnightblue" d="M190.926,-76.5766C208.539,-85.9486 237.236,-99.5815 264,-105 319.758,-116.289 337.62,-121.709 392,-105 406.039,-100.686 419.719,-91.5255 430.044,-83.2793"/>
<polygon fill="midnightblue" stroke="midnightblue" points="432.469,-85.8134 437.862,-76.6941 427.959,-80.4595 432.469,-85.8134"/>
</g>
<!-- Node32 -->
<g id="node4" class="node"><title>Node32</title>
<g id="a_node4"><a xlink:href="$a00110.html#ad2327b94227019b6753b6b09400c0522" xlink:title="gk_GetCurMemoryUsed">
<polygon fill="white" stroke="black" points="266,-76.5 266,-95.5 390,-95.5 390,-76.5 266,-76.5"/>
<text text-anchor="middle" x="328" y="-83.5" font-family="Helvetica,sans-Serif" font-size="10.00">gk_GetCurMemoryUsed</text>
</a>
</g>
</g>
<!-- Node30&#45;&gt;Node32 -->
<g id="edge3" class="edge"><title>Node30&#45;&gt;Node32</title>
<path fill="none" stroke="midnightblue" d="M204.228,-70.7538C219.071,-72.597 237.637,-74.9026 255.802,-77.1584"/>
<polygon fill="midnightblue" stroke="midnightblue" points="255.471,-80.6441 265.826,-78.4032 256.334,-73.6975 255.471,-80.6441"/>
</g>
<!-- Node33 -->
<g id="node5" class="node"><title>Node33</title>
<g id="a_node5"><a xlink:href="$a00110.html#a656fd5266ae12a96e53125486f8fea52" xlink:title="gk_GetMaxMemoryUsed">
<polygon fill="white" stroke="black" points="264.5,-38.5 264.5,-57.5 391.5,-57.5 391.5,-38.5 264.5,-38.5"/>
<text text-anchor="middle" x="328" y="-45.5" font-family="Helvetica,sans-Serif" font-size="10.00">gk_GetMaxMemoryUsed</text>
</a>
</g>
</g>
<!-- Node30&#45;&gt;Node33 -->
<g id="edge4" class="edge"><title>Node30&#45;&gt;Node33</title>
<path fill="none" stroke="midnightblue" d="M204.228,-63.2462C218.569,-61.4652 236.386,-59.2527 253.959,-57.0704"/>
<polygon fill="midnightblue" stroke="midnightblue" points="254.758,-60.4983 264.25,-55.7925 253.895,-53.5516 254.758,-60.4983"/>
</g>
<!-- Node34 -->
<g id="node6" class="node"><title>Node34</title>
<g id="a_node6"><a xlink:href="$a00026.html#a4c320c13bcdc9967613253ef4c73f59f" xlink:title="gk_errexit">
<polygon fill="white" stroke="black" points="298,-0.5 298,-19.5 358,-19.5 358,-0.5 298,-0.5"/>
<text text-anchor="middle" x="328" y="-7.5" font-family="Helvetica,sans-Serif" font-size="10.00">gk_errexit</text>
</a>
</g>
</g>
<!-- Node30&#45;&gt;Node34 -->
<g id="edge5" class="edge"><title>Node30&#45;&gt;Node34</title>
<path fill="none" stroke="midnightblue" d="M203.732,-57.4207C211.706,-54.6136 220.259,-51.3826 228,-48 244.578,-40.7558 247.262,-35.866 264,-29 271.664,-25.856 280.042,-22.9687 288.113,-20.4448"/>
<polygon fill="midnightblue" stroke="midnightblue" points="289.168,-23.7826 297.738,-17.5538 287.154,-17.0785 289.168,-23.7826"/>
</g>
<!-- Node34&#45;&gt;Node31 -->
<g id="edge6" class="edge"><title>Node34&#45;&gt;Node31</title>
<path fill="none" stroke="midnightblue" d="M358.228,-16.8252C369.104,-19.8755 381.377,-23.9396 392,-29 404.634,-35.0184 417.634,-43.6626 427.925,-51.1863"/>
<polygon fill="midnightblue" stroke="midnightblue" points="426.101,-54.1937 436.194,-57.4154 430.313,-48.6027 426.101,-54.1937"/>
</g>
</g>
</svg>
