<?xml version="1.0" encoding="UTF-8" standalone="no"?>
<!DOCTYPE svg PUBLIC "-//W3C//DTD SVG 1.1//EN"
 "http://www.w3.org/Graphics/SVG/1.1/DTD/svg11.dtd">
<!-- Generated by graphviz version 2.36.0 (20140111.2315)
 -->
<!-- Title: ParMETIS_V3_RefineKway Pages: 1 -->
<svg width="366pt" height="104pt"
 viewBox="0.00 0.00 366.00 104.00" xmlns="http://www.w3.org/2000/svg" xmlns:xlink="http://www.w3.org/1999/xlink">
<g id="graph0" class="graph" transform="scale(1 1) rotate(0) translate(4 100)">
<title>ParMETIS_V3_RefineKway</title>
<polygon fill="white" stroke="none" points="-4,4 -4,-100 362,-100 362,4 -4,4"/>
<!-- Node42 -->
<g id="node1" class="node"><title>Node42</title>
<polygon fill="#bfbfbf" stroke="black" points="0.5,-38.5 0.5,-57.5 139.5,-57.5 139.5,-38.5 0.5,-38.5"/>
<text text-anchor="middle" x="70" y="-45.5" font-family="Helvetica,sans-Serif" font-size="10.00">ParMETIS_V3_RefineKway</text>
</g>
<!-- Node43 -->
<g id="node2" class="node"><title>Node43</title>
<g id="a_node2"><a xlink:href="$a00945.html#a0ddf1224851353fc92bfbff6f499fa97" xlink:title="main">
<polygon fill="white" stroke="black" points="211,-76.5 211,-95.5 249,-95.5 249,-76.5 211,-76.5"/>
<text text-anchor="middle" x="230" y="-83.5" font-family="Helvetica,sans-Serif" font-size="10.00">main</text>
</a>
</g>
</g>
<!-- Node42&#45;&gt;Node43 -->
<g id="edge1" class="edge"><title>Node42&#45;&gt;Node43</title>
<path fill="none" stroke="midnightblue" d="M120.941,-60.0112C151.495,-67.3596 188.787,-76.3286 210.615,-81.5782"/>
<polygon fill="midnightblue" stroke="midnightblue" points="121.411,-56.5245 110.87,-57.589 119.774,-63.3304 121.411,-56.5245"/>
</g>
<!-- Node44 -->
<g id="node3" class="node"><title>Node44</title>
<g id="a_node3"><a xlink:href="$a00428.html#ac0ca0065f1dc35b0f4fe4d1968313dca" xlink:title="TestParMetis">
<polygon fill="white" stroke="black" points="192.5,-38.5 192.5,-57.5 267.5,-57.5 267.5,-38.5 192.5,-38.5"/>
<text text-anchor="middle" x="230" y="-45.5" font-family="Helvetica,sans-Serif" font-size="10.00">TestParMetis</text>
</a>
</g>
</g>
<!-- Node42&#45;&gt;Node44 -->
<g id="edge2" class="edge"><title>Node42&#45;&gt;Node44</title>
<path fill="none" stroke="midnightblue" d="M149.995,-48C164.699,-48 179.402,-48 192.068,-48"/>
<polygon fill="midnightblue" stroke="midnightblue" points="149.842,-44.5001 139.841,-48 149.841,-51.5001 149.842,-44.5001"/>
</g>
<!-- Node45 -->
<g id="node4" class="node"><title>Node45</title>
<g id="a_node4"><a xlink:href="$a00437.html#adb0c2dc0c5138f35c71739328c702074" xlink:title="TestParMetis_GPart">
<polygon fill="white" stroke="black" points="176.5,-0.5 176.5,-19.5 283.5,-19.5 283.5,-0.5 176.5,-0.5"/>
<text text-anchor="middle" x="230" y="-7.5" font-family="Helvetica,sans-Serif" font-size="10.00">TestParMetis_GPart</text>
</a>
</g>
</g>
<!-- Node42&#45;&gt;Node45 -->
<g id="edge3" class="edge"><title>Node42&#45;&gt;Node45</title>
<path fill="none" stroke="midnightblue" d="M120.762,-36.032C142.903,-30.7069 168.612,-24.5238 189.417,-19.5201"/>
<polygon fill="midnightblue" stroke="midnightblue" points="119.774,-32.6696 110.87,-38.411 121.411,-39.4755 119.774,-32.6696"/>
</g>
<!-- Node46 -->
<g id="node5" class="node"><title>Node46</title>
<g id="a_node5"><a xlink:href="$a00428.html#a8f4019835796a39a97c345864d80fcbb" xlink:title="main">
<polygon fill="white" stroke="black" points="320,-0.5 320,-19.5 358,-19.5 358,-0.5 320,-0.5"/>
<text text-anchor="middle" x="339" y="-7.5" font-family="Helvetica,sans-Serif" font-size="10.00">main</text>
</a>
</g>
</g>
<!-- Node45&#45;&gt;Node46 -->
<g id="edge4" class="edge"><title>Node45&#45;&gt;Node46</title>
<path fill="none" stroke="midnightblue" d="M293.658,-10C303.26,-10 312.455,-10 319.959,-10"/>
<polygon fill="midnightblue" stroke="midnightblue" points="293.56,-6.5001 283.56,-10 293.56,-13.5001 293.56,-6.5001"/>
</g>
</g>
</svg>
