<?xml version="1.0" encoding="UTF-8" standalone="no"?>
<!DOCTYPE svg PUBLIC "-//W3C//DTD SVG 1.1//EN"
 "http://www.w3.org/Graphics/SVG/1.1/DTD/svg11.dtd">
<!-- Generated by graphviz version 2.36.0 (20140111.2315)
 -->
<!-- Title: ArcSyn3sis/3rdParty/parmetis&#45;4.0.3/metis/programs/io.c Pages: 1 -->
<svg width="2640pt" height="274pt"
 viewBox="0.00 0.00 2640.00 274.00" xmlns="http://www.w3.org/2000/svg" xmlns:xlink="http://www.w3.org/1999/xlink">
<g id="graph0" class="graph" transform="scale(1 1) rotate(0) translate(4 270)">
<title>ArcSyn3sis/3rdParty/parmetis&#45;4.0.3/metis/programs/io.c</title>
<polygon fill="white" stroke="none" points="-4,4 -4,-270 2636,-270 2636,4 -4,4"/>
<!-- Node0 -->
<g id="node1" class="node"><title>Node0</title>
<polygon fill="#bfbfbf" stroke="black" points="671,-224.5 671,-265.5 781,-265.5 781,-224.5 671,-224.5"/>
<text text-anchor="start" x="679" y="-253.5" font-family="Helvetica,sans-Serif" font-size="10.00">ArcSyn3sis/3rdParty</text>
<text text-anchor="start" x="679" y="-242.5" font-family="Helvetica,sans-Serif" font-size="10.00">/parmetis&#45;4.0.3/metis</text>
<text text-anchor="middle" x="726" y="-231.5" font-family="Helvetica,sans-Serif" font-size="10.00">/programs/io.c</text>
</g>
<!-- Node1 -->
<g id="node2" class="node"><title>Node1</title>
<g id="a_node2"><a xlink:href="$a00320.html" xlink:title="metisbin.h">
<polygon fill="white" stroke="black" points="695,-168.5 695,-187.5 757,-187.5 757,-168.5 695,-168.5"/>
<text text-anchor="middle" x="726" y="-175.5" font-family="Helvetica,sans-Serif" font-size="10.00">metisbin.h</text>
</a>
</g>
</g>
<!-- Node0&#45;&gt;Node1 -->
<g id="edge1" class="edge"><title>Node0&#45;&gt;Node1</title>
<path fill="none" stroke="midnightblue" d="M726,-224.498C726,-216.065 726,-206.235 726,-197.874"/>
<polygon fill="midnightblue" stroke="midnightblue" points="729.5,-197.652 726,-187.652 722.5,-197.653 729.5,-197.652"/>
</g>
<!-- Node2 -->
<g id="node3" class="node"><title>Node2</title>
<g id="a_node3"><a xlink:href="$a00086.html" xlink:title="GKlib.h">
<polygon fill="white" stroke="black" points="754.5,-112.5 754.5,-131.5 803.5,-131.5 803.5,-112.5 754.5,-112.5"/>
<text text-anchor="middle" x="779" y="-119.5" font-family="Helvetica,sans-Serif" font-size="10.00">GKlib.h</text>
</a>
</g>
</g>
<!-- Node1&#45;&gt;Node2 -->
<g id="edge2" class="edge"><title>Node1&#45;&gt;Node2</title>
<path fill="none" stroke="midnightblue" d="M734.752,-168.083C742.47,-160.22 753.905,-148.569 763.217,-139.081"/>
<polygon fill="midnightblue" stroke="midnightblue" points="765.904,-141.34 770.411,-131.751 760.908,-136.436 765.904,-141.34"/>
</g>
<!-- Node9 -->
<g id="node10" class="node"><title>Node9</title>
<polygon fill="white" stroke="#bfbfbf" points="0,-56.5 0,-75.5 52,-75.5 52,-56.5 0,-56.5"/>
<text text-anchor="middle" x="26" y="-63.5" font-family="Helvetica,sans-Serif" font-size="10.00">stddef.h</text>
</g>
<!-- Node1&#45;&gt;Node9 -->
<g id="edge39" class="edge"><title>Node1&#45;&gt;Node9</title>
<path fill="none" stroke="midnightblue" d="M694.913,-177.186C613.239,-177.063 386.257,-172.766 203,-132 148.468,-119.869 87.9848,-95.027 53.7177,-79.8113"/>
<polygon fill="midnightblue" stroke="midnightblue" points="54.9231,-76.5159 44.3672,-75.6083 52.0532,-82.9005 54.9231,-76.5159"/>
</g>
<!-- Node10 -->
<g id="node11" class="node"><title>Node10</title>
<polygon fill="white" stroke="#bfbfbf" points="70,-56.5 70,-75.5 118,-75.5 118,-56.5 70,-56.5"/>
<text text-anchor="middle" x="94" y="-63.5" font-family="Helvetica,sans-Serif" font-size="10.00">stdlib.h</text>
</g>
<!-- Node1&#45;&gt;Node10 -->
<g id="edge40" class="edge"><title>Node1&#45;&gt;Node10</title>
<path fill="none" stroke="midnightblue" d="M694.944,-176.624C620.706,-175.145 427.487,-167.859 271,-132 216.546,-119.522 156.037,-94.7954 121.744,-79.6955"/>
<polygon fill="midnightblue" stroke="midnightblue" points="122.945,-76.3988 112.386,-75.5263 120.096,-82.793 122.945,-76.3988"/>
</g>
<!-- Node11 -->
<g id="node12" class="node"><title>Node11</title>
<polygon fill="white" stroke="#bfbfbf" points="136.5,-56.5 136.5,-75.5 189.5,-75.5 189.5,-56.5 136.5,-56.5"/>
<text text-anchor="middle" x="163" y="-63.5" font-family="Helvetica,sans-Serif" font-size="10.00">stdarg.h</text>
</g>
<!-- Node1&#45;&gt;Node11 -->
<g id="edge41" class="edge"><title>Node1&#45;&gt;Node11</title>
<path fill="none" stroke="midnightblue" d="M694.963,-175.893C628.717,-172.986 468.925,-163.075 339,-132 285.082,-119.104 225.064,-94.6247 190.889,-79.6644"/>
<polygon fill="midnightblue" stroke="midnightblue" points="192.115,-76.3799 181.554,-75.5327 189.282,-82.7808 192.115,-76.3799"/>
</g>
<!-- Node12 -->
<g id="node13" class="node"><title>Node12</title>
<polygon fill="white" stroke="#bfbfbf" points="208,-56.5 208,-75.5 254,-75.5 254,-56.5 208,-56.5"/>
<text text-anchor="middle" x="231" y="-63.5" font-family="Helvetica,sans-Serif" font-size="10.00">stdio.h</text>
</g>
<!-- Node1&#45;&gt;Node12 -->
<g id="edge42" class="edge"><title>Node1&#45;&gt;Node12</title>
<path fill="none" stroke="midnightblue" d="M694.678,-174.851C636.884,-170.389 509.885,-158.269 406,-132 352.808,-118.55 293.439,-94.4639 259.323,-79.6907"/>
<polygon fill="midnightblue" stroke="midnightblue" points="260.553,-76.4086 249.989,-75.6072 257.748,-82.8218 260.553,-76.4086"/>
</g>
<!-- Node14 -->
<g id="node15" class="node"><title>Node14</title>
<polygon fill="white" stroke="#bfbfbf" points="272.5,-56.5 272.5,-75.5 321.5,-75.5 321.5,-56.5 272.5,-56.5"/>
<text text-anchor="middle" x="297" y="-63.5" font-family="Helvetica,sans-Serif" font-size="10.00">ctype.h</text>
</g>
<!-- Node1&#45;&gt;Node14 -->
<g id="edge43" class="edge"><title>Node1&#45;&gt;Node14</title>
<path fill="none" stroke="midnightblue" d="M694.875,-173.565C645.808,-167.71 547.744,-154.226 467,-132 415.924,-117.941 358.835,-94.4176 325.515,-79.8568"/>
<polygon fill="midnightblue" stroke="midnightblue" points="326.532,-76.4802 315.97,-75.646 323.707,-82.8847 326.532,-76.4802"/>
</g>
<!-- Node15 -->
<g id="node16" class="node"><title>Node15</title>
<polygon fill="white" stroke="#bfbfbf" points="339.5,-56.5 339.5,-75.5 386.5,-75.5 386.5,-56.5 339.5,-56.5"/>
<text text-anchor="middle" x="363" y="-63.5" font-family="Helvetica,sans-Serif" font-size="10.00">math.h</text>
</g>
<!-- Node1&#45;&gt;Node15 -->
<g id="edge44" class="edge"><title>Node1&#45;&gt;Node15</title>
<path fill="none" stroke="midnightblue" d="M694.947,-171.659C655.105,-164.44 584.085,-150.336 525,-132 476.738,-117.023 422.615,-93.9787 390.743,-79.7313"/>
<polygon fill="midnightblue" stroke="midnightblue" points="392.153,-76.5275 381.598,-75.6108 389.277,-82.9097 392.153,-76.5275"/>
</g>
<!-- Node17 -->
<g id="node18" class="node"><title>Node17</title>
<polygon fill="white" stroke="#bfbfbf" points="405,-56.5 405,-75.5 449,-75.5 449,-56.5 405,-56.5"/>
<text text-anchor="middle" x="427" y="-63.5" font-family="Helvetica,sans-Serif" font-size="10.00">time.h</text>
</g>
<!-- Node1&#45;&gt;Node17 -->
<g id="edge45" class="edge"><title>Node1&#45;&gt;Node17</title>
<path fill="none" stroke="midnightblue" d="M694.932,-168.428C665.164,-159.98 619.113,-146.293 580,-132 535.483,-115.732 485.117,-93.5865 454.727,-79.7992"/>
<polygon fill="midnightblue" stroke="midnightblue" points="456.146,-76.5993 445.595,-75.6345 453.241,-82.9683 456.146,-76.5993"/>
</g>
<!-- Node18 -->
<g id="node19" class="node"><title>Node18</title>
<polygon fill="white" stroke="#bfbfbf" points="467.5,-56.5 467.5,-75.5 516.5,-75.5 516.5,-56.5 467.5,-56.5"/>
<text text-anchor="middle" x="492" y="-63.5" font-family="Helvetica,sans-Serif" font-size="10.00">string.h</text>
</g>
<!-- Node1&#45;&gt;Node18 -->
<g id="edge46" class="edge"><title>Node1&#45;&gt;Node18</title>
<path fill="none" stroke="midnightblue" d="M705.952,-168.451C685.302,-159.577 652.24,-145.175 624,-132 586.889,-114.686 544.493,-93.5669 517.985,-80.198"/>
<polygon fill="midnightblue" stroke="midnightblue" points="519.48,-77.0322 508.977,-75.6447 516.322,-83.2795 519.48,-77.0322"/>
</g>
<!-- Node19 -->
<g id="node20" class="node"><title>Node19</title>
<polygon fill="white" stroke="#bfbfbf" points="535,-56.5 535,-75.5 583,-75.5 583,-56.5 535,-56.5"/>
<text text-anchor="middle" x="559" y="-63.5" font-family="Helvetica,sans-Serif" font-size="10.00">limits.h</text>
</g>
<!-- Node1&#45;&gt;Node19 -->
<g id="edge47" class="edge"><title>Node1&#45;&gt;Node19</title>
<path fill="none" stroke="midnightblue" d="M712.896,-168.368C684.239,-149.492 615.757,-104.385 580.614,-81.2367"/>
<polygon fill="midnightblue" stroke="midnightblue" points="582.32,-78.1693 572.043,-75.5914 578.469,-84.0151 582.32,-78.1693"/>
</g>
<!-- Node20 -->
<g id="node21" class="node"><title>Node20</title>
<polygon fill="white" stroke="#bfbfbf" points="601.5,-56.5 601.5,-75.5 652.5,-75.5 652.5,-56.5 601.5,-56.5"/>
<text text-anchor="middle" x="627" y="-63.5" font-family="Helvetica,sans-Serif" font-size="10.00">signal.h</text>
</g>
<!-- Node1&#45;&gt;Node20 -->
<g id="edge48" class="edge"><title>Node1&#45;&gt;Node20</title>
<path fill="none" stroke="midnightblue" d="M718.232,-168.368C701.677,-149.974 662.704,-106.671 641.447,-83.0519"/>
<polygon fill="midnightblue" stroke="midnightblue" points="644.023,-80.683 634.732,-75.5914 638.82,-85.3658 644.023,-80.683"/>
</g>
<!-- Node21 -->
<g id="node22" class="node"><title>Node21</title>
<polygon fill="white" stroke="#bfbfbf" points="671,-56.5 671,-75.5 725,-75.5 725,-56.5 671,-56.5"/>
<text text-anchor="middle" x="698" y="-63.5" font-family="Helvetica,sans-Serif" font-size="10.00">setjmp.h</text>
</g>
<!-- Node1&#45;&gt;Node21 -->
<g id="edge49" class="edge"><title>Node1&#45;&gt;Node21</title>
<path fill="none" stroke="midnightblue" d="M723.086,-168.439C720.079,-159.435 715.368,-144.82 712,-132 707.962,-116.629 704.219,-98.9922 701.62,-85.9717"/>
<polygon fill="midnightblue" stroke="midnightblue" points="705.004,-85.0354 699.653,-75.8908 698.133,-86.3761 705.004,-85.0354"/>
</g>
<!-- Node22 -->
<g id="node23" class="node"><title>Node22</title>
<polygon fill="white" stroke="#bfbfbf" points="743,-56.5 743,-75.5 795,-75.5 795,-56.5 743,-56.5"/>
<text text-anchor="middle" x="769" y="-63.5" font-family="Helvetica,sans-Serif" font-size="10.00">assert.h</text>
</g>
<!-- Node1&#45;&gt;Node22 -->
<g id="edge50" class="edge"><title>Node1&#45;&gt;Node22</title>
<path fill="none" stroke="midnightblue" d="M727.917,-168.396C730.862,-155.77 737.01,-131.596 745,-112 748.803,-102.674 753.965,-92.7511 758.527,-84.6031"/>
<polygon fill="midnightblue" stroke="midnightblue" points="761.695,-86.1147 763.663,-75.7041 755.633,-82.6156 761.695,-86.1147"/>
</g>
<!-- Node39 -->
<g id="node40" class="node"><title>Node39</title>
<polygon fill="white" stroke="#bfbfbf" points="821.5,-112.5 821.5,-131.5 870.5,-131.5 870.5,-112.5 821.5,-112.5"/>
<text text-anchor="middle" x="846" y="-119.5" font-family="Helvetica,sans-Serif" font-size="10.00">metis.h</text>
</g>
<!-- Node1&#45;&gt;Node39 -->
<g id="edge51" class="edge"><title>Node1&#45;&gt;Node39</title>
<path fill="none" stroke="midnightblue" d="M745.014,-168.444C764.588,-159.636 795.308,-145.812 817.729,-135.722"/>
<polygon fill="midnightblue" stroke="midnightblue" points="819.392,-138.812 827.075,-131.516 816.519,-132.428 819.392,-138.812"/>
</g>
<!-- Node40 -->
<g id="node41" class="node"><title>Node40</title>
<g id="a_node41"><a xlink:href="$a00960.html" xlink:title="../libmetis/rename.h">
<polygon fill="white" stroke="black" points="889,-112.5 889,-131.5 993,-131.5 993,-112.5 889,-112.5"/>
<text text-anchor="middle" x="941" y="-119.5" font-family="Helvetica,sans-Serif" font-size="10.00">../libmetis/rename.h</text>
</a>
</g>
</g>
<!-- Node1&#45;&gt;Node40 -->
<g id="edge52" class="edge"><title>Node1&#45;&gt;Node40</title>
<path fill="none" stroke="midnightblue" d="M757.263,-169.148C794.06,-159.906 855.409,-144.497 896.997,-134.052"/>
<polygon fill="midnightblue" stroke="midnightblue" points="898.01,-137.406 906.857,-131.576 896.305,-130.617 898.01,-137.406"/>
</g>
<!-- Node41 -->
<g id="node42" class="node"><title>Node41</title>
<g id="a_node42"><a xlink:href="$a00209.html" xlink:title="Data structures and prototypes for GKlib integration. ">
<polygon fill="white" stroke="black" points="1011.5,-112.5 1011.5,-131.5 1126.5,-131.5 1126.5,-112.5 1011.5,-112.5"/>
<text text-anchor="middle" x="1069" y="-119.5" font-family="Helvetica,sans-Serif" font-size="10.00">../libmetis/gklib_defs.h</text>
</a>
</g>
</g>
<!-- Node1&#45;&gt;Node41 -->
<g id="edge53" class="edge"><title>Node1&#45;&gt;Node41</title>
<path fill="none" stroke="midnightblue" d="M757.044,-172.113C812.799,-163.335 930.949,-144.734 1004.78,-133.111"/>
<polygon fill="midnightblue" stroke="midnightblue" points="1005.56,-136.531 1014.89,-131.519 1004.47,-129.617 1005.56,-136.531"/>
</g>
<!-- Node43 -->
<g id="node44" class="node"><title>Node43</title>
<g id="a_node44"><a xlink:href="$a00891.html" xlink:title="../libmetis/defs.h">
<polygon fill="white" stroke="black" points="1144.5,-112.5 1144.5,-131.5 1233.5,-131.5 1233.5,-112.5 1144.5,-112.5"/>
<text text-anchor="middle" x="1189" y="-119.5" font-family="Helvetica,sans-Serif" font-size="10.00">../libmetis/defs.h</text>
</a>
</g>
</g>
<!-- Node1&#45;&gt;Node43 -->
<g id="edge55" class="edge"><title>Node1&#45;&gt;Node43</title>
<path fill="none" stroke="midnightblue" d="M757.115,-174.172C824.036,-167.962 986.828,-152.172 1134.11,-132.051"/>
<polygon fill="midnightblue" stroke="midnightblue" points="1134.81,-135.488 1144.24,-130.657 1133.86,-128.553 1134.81,-135.488"/>
</g>
<!-- Node44 -->
<g id="node45" class="node"><title>Node44</title>
<g id="a_node45"><a xlink:href="$a00975.html" xlink:title="../libmetis/struct.h">
<polygon fill="white" stroke="black" points="1252,-112.5 1252,-131.5 1346,-131.5 1346,-112.5 1252,-112.5"/>
<text text-anchor="middle" x="1299" y="-119.5" font-family="Helvetica,sans-Serif" font-size="10.00">../libmetis/struct.h</text>
</a>
</g>
</g>
<!-- Node1&#45;&gt;Node44 -->
<g id="edge56" class="edge"><title>Node1&#45;&gt;Node44</title>
<path fill="none" stroke="midnightblue" d="M757.197,-175.039C836.256,-169.909 1051.07,-154.962 1241.56,-131.961"/>
<polygon fill="midnightblue" stroke="midnightblue" points="1242.25,-135.402 1251.76,-130.719 1241.41,-128.453 1242.25,-135.402"/>
</g>
<!-- Node45 -->
<g id="node46" class="node"><title>Node45</title>
<g id="a_node46"><a xlink:href="$a00924.html" xlink:title="../libmetis/macros.h">
<polygon fill="white" stroke="black" points="1364.5,-112.5 1364.5,-131.5 1467.5,-131.5 1467.5,-112.5 1364.5,-112.5"/>
<text text-anchor="middle" x="1416" y="-119.5" font-family="Helvetica,sans-Serif" font-size="10.00">../libmetis/macros.h</text>
</a>
</g>
</g>
<!-- Node1&#45;&gt;Node45 -->
<g id="edge57" class="edge"><title>Node1&#45;&gt;Node45</title>
<path fill="none" stroke="midnightblue" d="M757.162,-175.6C847.645,-171.36 1118.37,-157.431 1354.31,-131.987"/>
<polygon fill="midnightblue" stroke="midnightblue" points="1354.89,-135.444 1364.45,-130.883 1354.13,-128.485 1354.89,-135.444"/>
</g>
<!-- Node46 -->
<g id="node47" class="node"><title>Node46</title>
<g id="a_node47"><a xlink:href="$a00948.html" xlink:title="../libmetis/proto.h">
<polygon fill="white" stroke="black" points="1485.5,-112.5 1485.5,-131.5 1578.5,-131.5 1578.5,-112.5 1485.5,-112.5"/>
<text text-anchor="middle" x="1532" y="-119.5" font-family="Helvetica,sans-Serif" font-size="10.00">../libmetis/proto.h</text>
</a>
</g>
</g>
<!-- Node1&#45;&gt;Node46 -->
<g id="edge58" class="edge"><title>Node1&#45;&gt;Node46</title>
<path fill="none" stroke="midnightblue" d="M757.171,-176.24C858.866,-173.526 1190.31,-162.835 1475.18,-131.969"/>
<polygon fill="midnightblue" stroke="midnightblue" points="1475.74,-135.429 1485.3,-130.862 1474.97,-128.47 1475.74,-135.429"/>
</g>
<!-- Node47 -->
<g id="node48" class="node"><title>Node47</title>
<g id="a_node48"><a xlink:href="$a00894.html" xlink:title="defs.h">
<polygon fill="white" stroke="black" points="1597,-112.5 1597,-131.5 1641,-131.5 1641,-112.5 1597,-112.5"/>
<text text-anchor="middle" x="1619" y="-119.5" font-family="Helvetica,sans-Serif" font-size="10.00">defs.h</text>
</a>
</g>
</g>
<!-- Node1&#45;&gt;Node47 -->
<g id="edge59" class="edge"><title>Node1&#45;&gt;Node47</title>
<path fill="none" stroke="midnightblue" d="M757.023,-176.301C888.723,-173.196 1402.75,-159.632 1586.69,-131.544"/>
<polygon fill="midnightblue" stroke="midnightblue" points="1587.44,-134.968 1596.76,-129.935 1586.34,-128.056 1587.44,-134.968"/>
</g>
<!-- Node48 -->
<g id="node49" class="node"><title>Node48</title>
<g id="a_node49"><a xlink:href="$a00978.html" xlink:title="struct.h">
<polygon fill="white" stroke="black" points="1659.5,-112.5 1659.5,-131.5 1708.5,-131.5 1708.5,-112.5 1659.5,-112.5"/>
<text text-anchor="middle" x="1684" y="-119.5" font-family="Helvetica,sans-Serif" font-size="10.00">struct.h</text>
</a>
</g>
</g>
<!-- Node1&#45;&gt;Node48 -->
<g id="edge60" class="edge"><title>Node1&#45;&gt;Node48</title>
<path fill="none" stroke="midnightblue" d="M757.371,-176.357C895.717,-173.39 1452.74,-160.01 1649.32,-131.687"/>
<polygon fill="midnightblue" stroke="midnightblue" points="1649.88,-135.143 1659.25,-130.196 1648.84,-128.221 1649.88,-135.143"/>
</g>
<!-- Node49 -->
<g id="node50" class="node"><title>Node49</title>
<g id="a_node50"><a xlink:href="$a00951.html" xlink:title="proto.h">
<polygon fill="white" stroke="black" points="1727,-112.5 1727,-131.5 1775,-131.5 1775,-112.5 1727,-112.5"/>
<text text-anchor="middle" x="1751" y="-119.5" font-family="Helvetica,sans-Serif" font-size="10.00">proto.h</text>
</a>
</g>
</g>
<!-- Node1&#45;&gt;Node49 -->
<g id="edge61" class="edge"><title>Node1&#45;&gt;Node49</title>
<path fill="none" stroke="midnightblue" d="M757.161,-176.48C903.714,-173.898 1525.27,-161.384 1717,-132 1717.1,-131.984 1717.2,-131.969 1717.31,-131.953"/>
<polygon fill="midnightblue" stroke="midnightblue" points="1717.86,-135.411 1726.99,-130.035 1716.5,-128.545 1717.86,-135.411"/>
</g>
<!-- Node3 -->
<g id="node4" class="node"><title>Node3</title>
<g id="a_node4"><a xlink:href="$a00041.html" xlink:title="This file contains various architecture&#45;specific declerations. ">
<polygon fill="white" stroke="black" points="2388,-56.5 2388,-75.5 2448,-75.5 2448,-56.5 2388,-56.5"/>
<text text-anchor="middle" x="2418" y="-63.5" font-family="Helvetica,sans-Serif" font-size="10.00">gk_arch.h</text>
</a>
</g>
</g>
<!-- Node2&#45;&gt;Node3 -->
<g id="edge3" class="edge"><title>Node2&#45;&gt;Node3</title>
<path fill="none" stroke="midnightblue" d="M803.729,-113.562C806.5,-112.936 809.297,-112.394 812,-112 1498.07,-12.0886 1686.01,-161.338 2377.91,-75.8339"/>
<polygon fill="midnightblue" stroke="midnightblue" points="2378.39,-79.3019 2387.88,-74.5907 2377.52,-72.3558 2378.39,-79.3019"/>
</g>
<!-- Node2&#45;&gt;Node9 -->
<g id="edge9" class="edge"><title>Node2&#45;&gt;Node9</title>
<path fill="none" stroke="midnightblue" d="M754.329,-121.136C663.384,-121.286 338.3,-118.723 62.4646,-75.926"/>
<polygon fill="midnightblue" stroke="midnightblue" points="62.6839,-72.4176 52.2615,-74.3209 61.596,-79.3325 62.6839,-72.4176"/>
</g>
<!-- Node2&#45;&gt;Node10 -->
<g id="edge10" class="edge"><title>Node2&#45;&gt;Node10</title>
<path fill="none" stroke="midnightblue" d="M754.221,-121.042C668.518,-120.823 376.76,-117.028 127.976,-75.814"/>
<polygon fill="midnightblue" stroke="midnightblue" points="128.47,-72.3481 118.028,-74.1421 127.31,-79.2513 128.47,-72.3481"/>
</g>
<!-- Node2&#45;&gt;Node11 -->
<g id="edge11" class="edge"><title>Node2&#45;&gt;Node11</title>
<path fill="none" stroke="midnightblue" d="M754.232,-120.559C674.906,-118.836 419.96,-110.896 199.76,-75.8229"/>
<polygon fill="midnightblue" stroke="midnightblue" points="200.063,-72.3265 189.633,-74.1864 198.947,-79.2369 200.063,-72.3265"/>
</g>
<!-- Node2&#45;&gt;Node12 -->
<g id="edge12" class="edge"><title>Node2&#45;&gt;Node12</title>
<path fill="none" stroke="midnightblue" d="M754.341,-120.483C680.977,-118.603 457.684,-110.404 264.357,-75.9201"/>
<polygon fill="midnightblue" stroke="midnightblue" points="264.764,-72.4371 254.3,-74.0974 263.516,-79.3248 264.764,-72.4371"/>
</g>
<!-- Node13 -->
<g id="node14" class="node"><title>Node13</title>
<polygon fill="white" stroke="#bfbfbf" points="813,-56.5 813,-75.5 861,-75.5 861,-56.5 813,-56.5"/>
<text text-anchor="middle" x="837" y="-63.5" font-family="Helvetica,sans-Serif" font-size="10.00">errno.h</text>
</g>
<!-- Node2&#45;&gt;Node13 -->
<g id="edge13" class="edge"><title>Node2&#45;&gt;Node13</title>
<path fill="none" stroke="midnightblue" d="M788.319,-112.324C796.893,-104.341 809.812,-92.3128 820.188,-82.6529"/>
<polygon fill="midnightblue" stroke="midnightblue" points="822.578,-85.2098 827.512,-75.8339 817.808,-80.0865 822.578,-85.2098"/>
</g>
<!-- Node2&#45;&gt;Node14 -->
<g id="edge14" class="edge"><title>Node2&#45;&gt;Node14</title>
<path fill="none" stroke="midnightblue" d="M754.463,-119.976C687.823,-116.893 497.846,-106.098 331.666,-76.0476"/>
<polygon fill="midnightblue" stroke="midnightblue" points="332.232,-72.5931 321.764,-74.2287 330.967,-79.478 332.232,-72.5931"/>
</g>
<!-- Node2&#45;&gt;Node15 -->
<g id="edge15" class="edge"><title>Node2&#45;&gt;Node15</title>
<path fill="none" stroke="midnightblue" d="M754.159,-119.372C694.313,-115.178 537.341,-102.556 396.784,-75.8629"/>
<polygon fill="midnightblue" stroke="midnightblue" points="397.175,-72.374 386.693,-73.9166 395.849,-79.2473 397.175,-72.374"/>
</g>
<!-- Node16 -->
<g id="node17" class="node"><title>Node16</title>
<polygon fill="white" stroke="#bfbfbf" points="879,-56.5 879,-75.5 923,-75.5 923,-56.5 879,-56.5"/>
<text text-anchor="middle" x="901" y="-63.5" font-family="Helvetica,sans-Serif" font-size="10.00">float.h</text>
</g>
<!-- Node2&#45;&gt;Node16 -->
<g id="edge16" class="edge"><title>Node2&#45;&gt;Node16</title>
<path fill="none" stroke="midnightblue" d="M798.331,-112.444C818.32,-103.596 849.743,-89.6875 872.564,-79.5865"/>
<polygon fill="midnightblue" stroke="midnightblue" points="874.032,-82.7645 881.759,-75.5164 871.198,-76.3635 874.032,-82.7645"/>
</g>
<!-- Node2&#45;&gt;Node17 -->
<g id="edge17" class="edge"><title>Node2&#45;&gt;Node17</title>
<path fill="none" stroke="midnightblue" d="M754.224,-118.749C701.596,-113.708 574.689,-100.182 459.311,-76.0148"/>
<polygon fill="midnightblue" stroke="midnightblue" points="459.763,-72.5329 449.254,-73.8746 458.306,-79.3795 459.763,-72.5329"/>
</g>
<!-- Node2&#45;&gt;Node18 -->
<g id="edge18" class="edge"><title>Node2&#45;&gt;Node18</title>
<path fill="none" stroke="midnightblue" d="M754.443,-117.325C710.681,-110.627 616.161,-95.4931 526.593,-75.9757"/>
<polygon fill="midnightblue" stroke="midnightblue" points="527.343,-72.5571 516.825,-73.8249 525.838,-79.3934 527.343,-72.5571"/>
</g>
<!-- Node2&#45;&gt;Node19 -->
<g id="edge19" class="edge"><title>Node2&#45;&gt;Node19</title>
<path fill="none" stroke="midnightblue" d="M754.437,-115.338C720.384,-107.434 656.676,-92.4554 592.94,-76.1855"/>
<polygon fill="midnightblue" stroke="midnightblue" points="593.684,-72.7631 583.128,-73.6704 591.946,-79.5439 593.684,-72.7631"/>
</g>
<!-- Node2&#45;&gt;Node20 -->
<g id="edge20" class="edge"><title>Node2&#45;&gt;Node20</title>
<path fill="none" stroke="midnightblue" d="M754.915,-112.444C729.455,-103.399 689.106,-89.064 660.541,-78.9158"/>
<polygon fill="midnightblue" stroke="midnightblue" points="661.567,-75.5661 650.972,-75.5164 659.223,-82.1622 661.567,-75.5661"/>
</g>
<!-- Node2&#45;&gt;Node21 -->
<g id="edge21" class="edge"><title>Node2&#45;&gt;Node21</title>
<path fill="none" stroke="midnightblue" d="M765.986,-112.324C753.468,-103.979 734.318,-91.2122 719.529,-81.3524"/>
<polygon fill="midnightblue" stroke="midnightblue" points="721.244,-78.2894 710.982,-75.6545 717.361,-84.1137 721.244,-78.2894"/>
</g>
<!-- Node2&#45;&gt;Node22 -->
<g id="edge22" class="edge"><title>Node2&#45;&gt;Node22</title>
<path fill="none" stroke="midnightblue" d="M777.349,-112.083C776.024,-104.927 774.118,-94.6353 772.461,-85.6911"/>
<polygon fill="midnightblue" stroke="midnightblue" points="775.883,-84.9466 770.621,-75.7511 769,-86.2212 775.883,-84.9466"/>
</g>
<!-- Node23 -->
<g id="node24" class="node"><title>Node23</title>
<polygon fill="white" stroke="#bfbfbf" points="941.5,-56.5 941.5,-75.5 1000.5,-75.5 1000.5,-56.5 941.5,-56.5"/>
<text text-anchor="middle" x="971" y="-63.5" font-family="Helvetica,sans-Serif" font-size="10.00">sys/stat.h</text>
</g>
<!-- Node2&#45;&gt;Node23 -->
<g id="edge23" class="edge"><title>Node2&#45;&gt;Node23</title>
<path fill="none" stroke="midnightblue" d="M803.708,-114.051C836.062,-104.951 893.168,-88.8902 931.544,-78.0971"/>
<polygon fill="midnightblue" stroke="midnightblue" points="932.673,-81.4153 941.352,-75.3385 930.778,-74.6768 932.673,-81.4153"/>
</g>
<!-- Node24 -->
<g id="node25" class="node"><title>Node24</title>
<polygon fill="white" stroke="#bfbfbf" points="1019,-56.5 1019,-75.5 1069,-75.5 1069,-56.5 1019,-56.5"/>
<text text-anchor="middle" x="1044" y="-63.5" font-family="Helvetica,sans-Serif" font-size="10.00">regex.h</text>
</g>
<!-- Node2&#45;&gt;Node24 -->
<g id="edge24" class="edge"><title>Node2&#45;&gt;Node24</title>
<path fill="none" stroke="midnightblue" d="M803.809,-113.99C806.564,-113.284 809.336,-112.605 812,-112 898.792,-92.2725 922.067,-95.095 1009,-76 1009.1,-75.9781 1009.2,-75.9562 1009.3,-75.9341"/>
<polygon fill="midnightblue" stroke="midnightblue" points="1009.88,-79.3932 1018.82,-73.7035 1008.28,-72.5779 1009.88,-79.3932"/>
</g>
<!-- Node25 -->
<g id="node26" class="node"><title>Node25</title>
<g id="a_node26"><a xlink:href="$a00083.html" xlink:title="This file contains basic scalar datatype used in GKlib. ">
<polygon fill="white" stroke="black" points="1087.5,-56.5 1087.5,-75.5 1152.5,-75.5 1152.5,-56.5 1087.5,-56.5"/>
<text text-anchor="middle" x="1120" y="-63.5" font-family="Helvetica,sans-Serif" font-size="10.00">gk_types.h</text>
</a>
</g>
</g>
<!-- Node2&#45;&gt;Node25 -->
<g id="edge25" class="edge"><title>Node2&#45;&gt;Node25</title>
<path fill="none" stroke="midnightblue" d="M803.782,-113.865C806.543,-113.183 809.323,-112.544 812,-112 925.716,-88.9029 958.687,-96.0857 1077.28,-75.985"/>
<polygon fill="midnightblue" stroke="midnightblue" points="1078.23,-79.373 1087.49,-74.2237 1077.04,-72.4749 1078.23,-79.373"/>
</g>
<!-- Node26 -->
<g id="node27" class="node"><title>Node26</title>
<g id="a_node27"><a xlink:href="$a00080.html" xlink:title="This file contains various datastructures used/provided by GKlib. ">
<polygon fill="white" stroke="black" points="1170.5,-56.5 1170.5,-75.5 1235.5,-75.5 1235.5,-56.5 1170.5,-56.5"/>
<text text-anchor="middle" x="1203" y="-63.5" font-family="Helvetica,sans-Serif" font-size="10.00">gk_struct.h</text>
</a>
</g>
</g>
<!-- Node2&#45;&gt;Node26 -->
<g id="edge26" class="edge"><title>Node2&#45;&gt;Node26</title>
<path fill="none" stroke="midnightblue" d="M803.766,-113.779C806.529,-113.113 809.315,-112.501 812,-112 962.143,-83.9767 1005.23,-99.6947 1160.17,-75.9574"/>
<polygon fill="midnightblue" stroke="midnightblue" points="1160.71,-79.4154 1170.05,-74.4138 1159.63,-72.4993 1160.71,-79.4154"/>
</g>
<!-- Node27 -->
<g id="node28" class="node"><title>Node27</title>
<g id="a_node28"><a xlink:href="$a00047.html" xlink:title="This file contains definitions of external variables created by GKlib. ">
<polygon fill="white" stroke="black" points="1254,-56.5 1254,-75.5 1328,-75.5 1328,-56.5 1254,-56.5"/>
<text text-anchor="middle" x="1291" y="-63.5" font-family="Helvetica,sans-Serif" font-size="10.00">gk_externs.h</text>
</a>
</g>
</g>
<!-- Node2&#45;&gt;Node27 -->
<g id="edge27" class="edge"><title>Node2&#45;&gt;Node27</title>
<path fill="none" stroke="midnightblue" d="M803.756,-113.726C806.521,-113.07 809.31,-112.475 812,-112 998.491,-79.0852 1051.32,-101.363 1243.7,-75.8629"/>
<polygon fill="midnightblue" stroke="midnightblue" points="1244.42,-79.2972 1253.86,-74.4889 1243.48,-72.3604 1244.42,-79.2972"/>
</g>
<!-- Node28 -->
<g id="node29" class="node"><title>Node28</title>
<g id="a_node29"><a xlink:href="$a00044.html" xlink:title="This file contains various constants definitions. ">
<polygon fill="white" stroke="black" points="1346,-56.5 1346,-75.5 1406,-75.5 1406,-56.5 1346,-56.5"/>
<text text-anchor="middle" x="1376" y="-63.5" font-family="Helvetica,sans-Serif" font-size="10.00">gk_defs.h</text>
</a>
</g>
</g>
<!-- Node2&#45;&gt;Node28 -->
<g id="edge28" class="edge"><title>Node2&#45;&gt;Node28</title>
<path fill="none" stroke="midnightblue" d="M803.749,-113.686C806.515,-113.037 809.306,-112.455 812,-112 1039.35,-73.5922 1103.84,-109.36 1335.76,-75.9363"/>
<polygon fill="midnightblue" stroke="midnightblue" points="1336.47,-79.3692 1345.86,-74.4528 1335.45,-72.4435 1336.47,-79.3692"/>
</g>
<!-- Node29 -->
<g id="node30" class="node"><title>Node29</title>
<g id="a_node30"><a xlink:href="$a00053.html" xlink:title="This file contains various macros. ">
<polygon fill="white" stroke="black" points="1424,-56.5 1424,-75.5 1498,-75.5 1498,-56.5 1424,-56.5"/>
<text text-anchor="middle" x="1461" y="-63.5" font-family="Helvetica,sans-Serif" font-size="10.00">gk_macros.h</text>
</a>
</g>
</g>
<!-- Node2&#45;&gt;Node29 -->
<g id="edge29" class="edge"><title>Node2&#45;&gt;Node29</title>
<path fill="none" stroke="midnightblue" d="M803.745,-113.662C806.512,-113.018 809.305,-112.443 812,-112 1073.69,-68.9789 1146.89,-108.853 1413.92,-75.9512"/>
<polygon fill="midnightblue" stroke="midnightblue" points="1414.43,-79.4156 1423.91,-74.6978 1413.55,-72.47 1414.43,-79.4156"/>
</g>
<!-- Node30 -->
<g id="node31" class="node"><title>Node30</title>
<g id="a_node31"><a xlink:href="$a00050.html" xlink:title="This file contains GNU&#39;s externs/structs/prototypes. ">
<polygon fill="white" stroke="black" points="1516.5,-56.5 1516.5,-75.5 1585.5,-75.5 1585.5,-56.5 1516.5,-56.5"/>
<text text-anchor="middle" x="1551" y="-63.5" font-family="Helvetica,sans-Serif" font-size="10.00">gk_getopt.h</text>
</a>
</g>
</g>
<!-- Node2&#45;&gt;Node30 -->
<g id="edge30" class="edge"><title>Node2&#45;&gt;Node30</title>
<path fill="none" stroke="midnightblue" d="M803.741,-113.64C806.509,-113 809.303,-112.433 812,-112 1114.12,-63.5532 1198.37,-113.994 1506.38,-75.8419"/>
<polygon fill="midnightblue" stroke="midnightblue" points="1507.01,-79.2903 1516.49,-74.5674 1506.14,-72.3452 1507.01,-79.2903"/>
</g>
<!-- Node31 -->
<g id="node32" class="node"><title>Node31</title>
<g id="a_node32"><a xlink:href="$a00071.html" xlink:title="Templates for the qsort routine. ">
<polygon fill="white" stroke="black" points="1603.5,-56.5 1603.5,-75.5 1674.5,-75.5 1674.5,-56.5 1603.5,-56.5"/>
<text text-anchor="middle" x="1639" y="-63.5" font-family="Helvetica,sans-Serif" font-size="10.00">gk_mksort.h</text>
</a>
</g>
</g>
<!-- Node2&#45;&gt;Node31 -->
<g id="edge31" class="edge"><title>Node2&#45;&gt;Node31</title>
<path fill="none" stroke="midnightblue" d="M803.739,-113.625C806.507,-112.987 809.302,-112.425 812,-112 1152.42,-58.415 1246.86,-117.099 1593.16,-75.881"/>
<polygon fill="midnightblue" stroke="midnightblue" points="1593.71,-79.34 1603.22,-74.6644 1592.87,-72.3907 1593.71,-79.34"/>
</g>
<!-- Node32 -->
<g id="node33" class="node"><title>Node32</title>
<g id="a_node33"><a xlink:href="$a00056.html" xlink:title="Templates for BLAS&#45;like routines. ">
<polygon fill="white" stroke="black" points="1692.5,-56.5 1692.5,-75.5 1765.5,-75.5 1765.5,-56.5 1692.5,-56.5"/>
<text text-anchor="middle" x="1729" y="-63.5" font-family="Helvetica,sans-Serif" font-size="10.00">gk_mkblas.h</text>
</a>
</g>
</g>
<!-- Node2&#45;&gt;Node32 -->
<g id="edge32" class="edge"><title>Node2&#45;&gt;Node32</title>
<path fill="none" stroke="midnightblue" d="M803.737,-113.612C806.506,-112.977 809.301,-112.418 812,-112 1191.6,-53.1608 1296.43,-120.163 1682.38,-75.8477"/>
<polygon fill="midnightblue" stroke="midnightblue" points="1682.89,-79.3115 1692.42,-74.6769 1682.08,-72.3586 1682.89,-79.3115"/>
</g>
<!-- Node33 -->
<g id="node34" class="node"><title>Node33</title>
<g id="a_node34"><a xlink:href="$a00059.html" xlink:title="Templates for memory allocation routines. ">
<polygon fill="white" stroke="black" points="1784,-56.5 1784,-75.5 1874,-75.5 1874,-56.5 1784,-56.5"/>
<text text-anchor="middle" x="1829" y="-63.5" font-family="Helvetica,sans-Serif" font-size="10.00">gk_mkmemory.h</text>
</a>
</g>
</g>
<!-- Node2&#45;&gt;Node33 -->
<g id="edge33" class="edge"><title>Node2&#45;&gt;Node33</title>
<path fill="none" stroke="midnightblue" d="M803.735,-113.601C806.504,-112.968 809.3,-112.413 812,-112 1231.63,-47.7944 1346.48,-117.523 1773.59,-75.8705"/>
<polygon fill="midnightblue" stroke="midnightblue" points="1774.13,-79.3341 1783.74,-74.8657 1773.44,-72.3682 1774.13,-79.3341"/>
</g>
<!-- Node34 -->
<g id="node35" class="node"><title>Node34</title>
<g id="a_node35"><a xlink:href="$a00062.html" xlink:title="Templates for priority queues. ">
<polygon fill="white" stroke="black" points="1892,-56.5 1892,-75.5 1980,-75.5 1980,-56.5 1892,-56.5"/>
<text text-anchor="middle" x="1936" y="-63.5" font-family="Helvetica,sans-Serif" font-size="10.00">gk_mkpqueue.h</text>
</a>
</g>
</g>
<!-- Node2&#45;&gt;Node34 -->
<g id="edge34" class="edge"><title>Node2&#45;&gt;Node34</title>
<path fill="none" stroke="midnightblue" d="M803.734,-113.591C806.503,-112.96 809.299,-112.408 812,-112 1279.59,-41.3656 1407.35,-122.807 1881.62,-75.982"/>
<polygon fill="midnightblue" stroke="midnightblue" points="1882.21,-79.4398 1891.81,-74.9606 1881.52,-72.4746 1882.21,-79.4398"/>
</g>
<!-- Node35 -->
<g id="node36" class="node"><title>Node35</title>
<g id="a_node36"><a xlink:href="$a00065.html" xlink:title="Templates for priority queues that do not utilize locators and as such they can use different types o...">
<polygon fill="white" stroke="black" points="1998.5,-56.5 1998.5,-75.5 2091.5,-75.5 2091.5,-56.5 1998.5,-56.5"/>
<text text-anchor="middle" x="2045" y="-63.5" font-family="Helvetica,sans-Serif" font-size="10.00">gk_mkpqueue2.h</text>
</a>
</g>
</g>
<!-- Node2&#45;&gt;Node35 -->
<g id="edge35" class="edge"><title>Node2&#45;&gt;Node35</title>
<path fill="none" stroke="midnightblue" d="M803.733,-113.583C806.502,-112.953 809.298,-112.404 812,-112 1326.32,-35.1026 1466.23,-124.477 1988.26,-75.9129"/>
<polygon fill="midnightblue" stroke="midnightblue" points="1988.68,-79.3886 1998.31,-74.9653 1988.02,-72.4195 1988.68,-79.3886"/>
</g>
<!-- Node36 -->
<g id="node37" class="node"><title>Node36</title>
<g id="a_node37"><a xlink:href="$a00068.html" xlink:title="Templates for portable random number generation. ">
<polygon fill="white" stroke="black" points="2110,-56.5 2110,-75.5 2198,-75.5 2198,-56.5 2110,-56.5"/>
<text text-anchor="middle" x="2154" y="-63.5" font-family="Helvetica,sans-Serif" font-size="10.00">gk_mkrandom.h</text>
</a>
</g>
</g>
<!-- Node2&#45;&gt;Node36 -->
<g id="edge36" class="edge"><title>Node2&#45;&gt;Node36</title>
<path fill="none" stroke="midnightblue" d="M803.731,-113.576C806.501,-112.947 809.298,-112.4 812,-112 1375.16,-28.5572 1528.21,-130.001 2099.71,-75.8371"/>
<polygon fill="midnightblue" stroke="midnightblue" points="2100.24,-79.3025 2109.86,-74.8632 2099.57,-72.3346 2100.24,-79.3025"/>
</g>
<!-- Node37 -->
<g id="node38" class="node"><title>Node37</title>
<g id="a_node38"><a xlink:href="$a00074.html" xlink:title="Templates for various utility routines. ">
<polygon fill="white" stroke="black" points="2216,-56.5 2216,-75.5 2288,-75.5 2288,-56.5 2216,-56.5"/>
<text text-anchor="middle" x="2252" y="-63.5" font-family="Helvetica,sans-Serif" font-size="10.00">gk_mkutils.h</text>
</a>
</g>
</g>
<!-- Node2&#45;&gt;Node37 -->
<g id="edge37" class="edge"><title>Node2&#45;&gt;Node37</title>
<path fill="none" stroke="midnightblue" d="M803.731,-113.57C806.501,-112.943 809.297,-112.397 812,-112 1422.31,-22.2397 1588.87,-143.752 2205.7,-75.9239"/>
<polygon fill="midnightblue" stroke="midnightblue" points="2206.18,-79.3921 2215.73,-74.8084 2205.41,-72.435 2206.18,-79.3921"/>
</g>
<!-- Node38 -->
<g id="node39" class="node"><title>Node38</title>
<g id="a_node39"><a xlink:href="$a00077.html" xlink:title="This file contains function prototypes. ">
<polygon fill="white" stroke="black" points="2306,-56.5 2306,-75.5 2370,-75.5 2370,-56.5 2306,-56.5"/>
<text text-anchor="middle" x="2338" y="-63.5" font-family="Helvetica,sans-Serif" font-size="10.00">gk_proto.h</text>
</a>
</g>
</g>
<!-- Node2&#45;&gt;Node38 -->
<g id="edge38" class="edge"><title>Node2&#45;&gt;Node38</title>
<path fill="none" stroke="midnightblue" d="M803.73,-113.565C806.5,-112.939 809.297,-112.395 812,-112 1461.89,-16.9369 1639.75,-153.723 2295.69,-75.8838"/>
<polygon fill="midnightblue" stroke="midnightblue" points="2296.36,-79.3289 2305.87,-74.6632 2295.53,-72.3787 2296.36,-79.3289"/>
</g>
<!-- Node4 -->
<g id="node5" class="node"><title>Node4</title>
<polygon fill="white" stroke="#bfbfbf" points="2240.5,-0.5 2240.5,-19.5 2289.5,-19.5 2289.5,-0.5 2240.5,-0.5"/>
<text text-anchor="middle" x="2265" y="-7.5" font-family="Helvetica,sans-Serif" font-size="10.00">stdint.h</text>
</g>
<!-- Node3&#45;&gt;Node4 -->
<g id="edge4" class="edge"><title>Node3&#45;&gt;Node4</title>
<path fill="none" stroke="midnightblue" d="M2393.76,-56.4435C2368.13,-47.3986 2327.51,-33.064 2298.76,-22.9158"/>
<polygon fill="midnightblue" stroke="midnightblue" points="2299.72,-19.5442 2289.13,-19.5164 2297.39,-26.1452 2299.72,-19.5442"/>
</g>
<!-- Node5 -->
<g id="node6" class="node"><title>Node5</title>
<polygon fill="white" stroke="#bfbfbf" points="2307.5,-0.5 2307.5,-19.5 2366.5,-19.5 2366.5,-0.5 2307.5,-0.5"/>
<text text-anchor="middle" x="2337" y="-7.5" font-family="Helvetica,sans-Serif" font-size="10.00">inttypes.h</text>
</g>
<!-- Node3&#45;&gt;Node5 -->
<g id="edge5" class="edge"><title>Node3&#45;&gt;Node5</title>
<path fill="none" stroke="midnightblue" d="M2404.99,-56.324C2392.47,-47.979 2373.32,-35.2122 2358.53,-25.3524"/>
<polygon fill="midnightblue" stroke="midnightblue" points="2360.24,-22.2894 2349.98,-19.6545 2356.36,-28.1137 2360.24,-22.2894"/>
</g>
<!-- Node6 -->
<g id="node7" class="node"><title>Node6</title>
<polygon fill="white" stroke="#bfbfbf" points="2384.5,-0.5 2384.5,-19.5 2451.5,-19.5 2451.5,-0.5 2384.5,-0.5"/>
<text text-anchor="middle" x="2418" y="-7.5" font-family="Helvetica,sans-Serif" font-size="10.00">sys/types.h</text>
</g>
<!-- Node3&#45;&gt;Node6 -->
<g id="edge6" class="edge"><title>Node3&#45;&gt;Node6</title>
<path fill="none" stroke="midnightblue" d="M2418,-56.083C2418,-49.0059 2418,-38.8611 2418,-29.9865"/>
<polygon fill="midnightblue" stroke="midnightblue" points="2421.5,-29.751 2418,-19.7511 2414.5,-29.7511 2421.5,-29.751"/>
</g>
<!-- Node7 -->
<g id="node8" class="node"><title>Node7</title>
<polygon fill="white" stroke="#bfbfbf" points="2470,-0.5 2470,-19.5 2552,-19.5 2552,-0.5 2470,-0.5"/>
<text text-anchor="middle" x="2511" y="-7.5" font-family="Helvetica,sans-Serif" font-size="10.00">sys/resource.h</text>
</g>
<!-- Node3&#45;&gt;Node7 -->
<g id="edge7" class="edge"><title>Node3&#45;&gt;Node7</title>
<path fill="none" stroke="midnightblue" d="M2432.94,-56.324C2447.59,-47.8215 2470.13,-34.7288 2487.24,-24.7975"/>
<polygon fill="midnightblue" stroke="midnightblue" points="2489.2,-27.7027 2496.1,-19.6545 2485.69,-21.6491 2489.2,-27.7027"/>
</g>
<!-- Node8 -->
<g id="node9" class="node"><title>Node8</title>
<polygon fill="white" stroke="#bfbfbf" points="2570,-0.5 2570,-19.5 2632,-19.5 2632,-0.5 2570,-0.5"/>
<text text-anchor="middle" x="2601" y="-7.5" font-family="Helvetica,sans-Serif" font-size="10.00">sys/time.h</text>
</g>
<!-- Node3&#45;&gt;Node8 -->
<g id="edge8" class="edge"><title>Node3&#45;&gt;Node8</title>
<path fill="none" stroke="midnightblue" d="M2447,-56.4435C2478.18,-47.2406 2527.93,-32.5617 2562.41,-22.3879"/>
<polygon fill="midnightblue" stroke="midnightblue" points="2563.54,-25.7036 2572.14,-19.5164 2561.56,-18.9898 2563.54,-25.7036"/>
</g>
<!-- Node42 -->
<g id="node43" class="node"><title>Node42</title>
<g id="a_node43"><a xlink:href="$a00212.html" xlink:title="gklib_rename.h">
<polygon fill="white" stroke="black" points="2466.5,-56.5 2466.5,-75.5 2551.5,-75.5 2551.5,-56.5 2466.5,-56.5"/>
<text text-anchor="middle" x="2509" y="-63.5" font-family="Helvetica,sans-Serif" font-size="10.00">gklib_rename.h</text>
</a>
</g>
</g>
<!-- Node41&#45;&gt;Node42 -->
<g id="edge54" class="edge"><title>Node41&#45;&gt;Node42</title>
<path fill="none" stroke="midnightblue" d="M1126.55,-112.778C1129.41,-112.488 1132.23,-112.226 1135,-112 1717.54,-64.4903 1870.41,-133.488 2456.25,-75.8954"/>
<polygon fill="midnightblue" stroke="midnightblue" points="2456.61,-79.3769 2466.22,-74.9076 2455.92,-72.4111 2456.61,-79.3769"/>
</g>
</g>
</svg>
