<?xml version="1.0" encoding="UTF-8" standalone="no"?>
<!DOCTYPE svg PUBLIC "-//W3C//DTD SVG 1.1//EN"
 "http://www.w3.org/Graphics/SVG/1.1/DTD/svg11.dtd">
<!-- Generated by graphviz version 2.36.0 (20140111.2315)
 -->
<!-- Title: gk_i64readfile Pages: 1 -->
<svg width="544pt" height="265pt"
 viewBox="0.00 0.00 544.00 264.55" xmlns="http://www.w3.org/2000/svg" xmlns:xlink="http://www.w3.org/1999/xlink">
<g id="graph0" class="graph" transform="scale(1 1) rotate(0) translate(4 260.546)">
<title>gk_i64readfile</title>
<polygon fill="white" stroke="none" points="-4,4 -4,-260.546 540,-260.546 540,4 -4,4"/>
<!-- Node154 -->
<g id="node1" class="node"><title>Node154</title>
<polygon fill="#bfbfbf" stroke="black" points="0.5,-142.046 0.5,-161.046 79.5,-161.046 79.5,-142.046 0.5,-142.046"/>
<text text-anchor="middle" x="40" y="-149.046" font-family="Helvetica,sans-Serif" font-size="10.00">gk_i64readfile</text>
</g>
<!-- Node155 -->
<g id="node2" class="node"><title>Node155</title>
<g id="a_node2"><a xlink:href="$a00035.html#a739112cb142f2e96d6952140c66cd31c" xlink:title="gk_getfilestats">
<polygon fill="white" stroke="black" points="116,-180.046 116,-199.046 196,-199.046 196,-180.046 116,-180.046"/>
<text text-anchor="middle" x="156" y="-187.046" font-family="Helvetica,sans-Serif" font-size="10.00">gk_getfilestats</text>
</a>
</g>
</g>
<!-- Node154&#45;&gt;Node155 -->
<g id="edge1" class="edge"><title>Node154&#45;&gt;Node155</title>
<path fill="none" stroke="midnightblue" d="M69.767,-161.135C83.9433,-165.86 101.237,-171.625 116.532,-176.723"/>
<polygon fill="midnightblue" stroke="midnightblue" points="115.649,-180.118 126.242,-179.96 117.862,-173.477 115.649,-180.118"/>
</g>
<!-- Node162 -->
<g id="node9" class="node"><title>Node162</title>
<g id="a_node9"><a xlink:href="$a00858.html#abff04948821f625a3e59666e61c70e2f" xlink:title="gk_fopen">
<polygon fill="white" stroke="black" points="234,-142.046 234,-161.046 292,-161.046 292,-142.046 234,-142.046"/>
<text text-anchor="middle" x="263" y="-149.046" font-family="Helvetica,sans-Serif" font-size="10.00">gk_fopen</text>
</a>
</g>
</g>
<!-- Node154&#45;&gt;Node162 -->
<g id="edge8" class="edge"><title>Node154&#45;&gt;Node162</title>
<path fill="none" stroke="midnightblue" d="M79.7482,-151.546C120.203,-151.546 183.264,-151.546 223.592,-151.546"/>
<polygon fill="midnightblue" stroke="midnightblue" points="223.826,-155.046 233.826,-151.546 223.826,-148.046 223.826,-155.046"/>
</g>
<!-- Node163 -->
<g id="node10" class="node"><title>Node163</title>
<g id="a_node10"><a xlink:href="$a00858.html#ad8263f64108434d7ebab9799b5ab9632" xlink:title="gk_getline">
<polygon fill="white" stroke="black" points="125,-104.046 125,-123.046 187,-123.046 187,-104.046 125,-104.046"/>
<text text-anchor="middle" x="156" y="-111.046" font-family="Helvetica,sans-Serif" font-size="10.00">gk_getline</text>
</a>
</g>
</g>
<!-- Node154&#45;&gt;Node163 -->
<g id="edge11" class="edge"><title>Node154&#45;&gt;Node163</title>
<path fill="none" stroke="midnightblue" d="M69.767,-141.957C83.9433,-137.231 101.237,-131.467 116.532,-126.368"/>
<polygon fill="midnightblue" stroke="midnightblue" points="117.862,-129.615 126.242,-123.132 115.649,-122.974 117.862,-129.615"/>
</g>
<!-- Node169 -->
<g id="node16" class="node"><title>Node169</title>
<g id="a_node16"><a xlink:href="$a00858.html#a70dec19fefaf0c84f3948b4679a73fec" xlink:title="gk_fclose">
<polygon fill="white" stroke="black" points="126.5,-237.046 126.5,-256.046 185.5,-256.046 185.5,-237.046 126.5,-237.046"/>
<text text-anchor="middle" x="156" y="-244.046" font-family="Helvetica,sans-Serif" font-size="10.00">gk_fclose</text>
</a>
</g>
</g>
<!-- Node154&#45;&gt;Node169 -->
<g id="edge19" class="edge"><title>Node154&#45;&gt;Node169</title>
<path fill="none" stroke="midnightblue" d="M52.7706,-161.355C72.3278,-177.652 111.711,-210.472 135.479,-230.278"/>
<polygon fill="midnightblue" stroke="midnightblue" points="133.54,-233.219 143.463,-236.932 138.022,-227.841 133.54,-233.219"/>
</g>
<!-- Node170 -->
<g id="node17" class="node"><title>Node170</title>
<g id="a_node17"><a xlink:href="$a00077.html#ac8df62c4e3d0910711a9874f9cc58884" xlink:title="gk_free">
<polygon fill="white" stroke="black" points="131,-66.0459 131,-85.0459 181,-85.0459 181,-66.0459 131,-66.0459"/>
<text text-anchor="middle" x="156" y="-73.0459" font-family="Helvetica,sans-Serif" font-size="10.00">gk_free</text>
</a>
</g>
</g>
<!-- Node154&#45;&gt;Node170 -->
<g id="edge21" class="edge"><title>Node154&#45;&gt;Node170</title>
<path fill="none" stroke="midnightblue" d="M52.1874,-141.924C66.4216,-129.951 92.0423,-109.287 116,-94.5459 118.672,-92.9017 121.507,-91.2895 124.381,-89.7425"/>
<polygon fill="midnightblue" stroke="midnightblue" points="126.231,-92.7283 133.545,-85.0633 123.047,-86.4941 126.231,-92.7283"/>
</g>
<!-- Node156 -->
<g id="node3" class="node"><title>Node156</title>
<g id="a_node3"><a xlink:href="$a00077.html#ab2b996e10c5bccb30204d81804adfd24" xlink:title="gk_fopen">
<polygon fill="white" stroke="black" points="234,-180.046 234,-199.046 292,-199.046 292,-180.046 234,-180.046"/>
<text text-anchor="middle" x="263" y="-187.046" font-family="Helvetica,sans-Serif" font-size="10.00">gk_fopen</text>
</a>
</g>
</g>
<!-- Node155&#45;&gt;Node156 -->
<g id="edge2" class="edge"><title>Node155&#45;&gt;Node156</title>
<path fill="none" stroke="midnightblue" d="M196.098,-189.546C205.066,-189.546 214.594,-189.546 223.535,-189.546"/>
<polygon fill="midnightblue" stroke="midnightblue" points="223.694,-193.046 233.694,-189.546 223.694,-186.046 223.694,-193.046"/>
</g>
<!-- Node160 -->
<g id="node7" class="node"><title>Node160</title>
<g id="a_node7"><a xlink:href="$a00077.html#a0fd03cab5187904b005485109d9fa2b5" xlink:title="gk_fclose">
<polygon fill="white" stroke="black" points="233.5,-218.046 233.5,-237.046 292.5,-237.046 292.5,-218.046 233.5,-218.046"/>
<text text-anchor="middle" x="263" y="-225.046" font-family="Helvetica,sans-Serif" font-size="10.00">gk_fclose</text>
</a>
</g>
</g>
<!-- Node155&#45;&gt;Node160 -->
<g id="edge6" class="edge"><title>Node155&#45;&gt;Node160</title>
<path fill="none" stroke="midnightblue" d="M183.496,-199.135C196.304,-203.77 211.875,-209.406 225.762,-214.431"/>
<polygon fill="midnightblue" stroke="midnightblue" points="224.918,-217.848 235.513,-217.96 227.3,-211.266 224.918,-217.848"/>
</g>
<!-- Node157 -->
<g id="node4" class="node"><title>Node157</title>
<g id="a_node4"><a xlink:href="$a00575.html#ae6aab5c308faac0fc539cc9c6da9fbd0" xlink:title="sprintf">
<polygon fill="white" stroke="black" points="372,-180.046 372,-199.046 416,-199.046 416,-180.046 372,-180.046"/>
<text text-anchor="middle" x="394" y="-187.046" font-family="Helvetica,sans-Serif" font-size="10.00">sprintf</text>
</a>
</g>
</g>
<!-- Node156&#45;&gt;Node157 -->
<g id="edge3" class="edge"><title>Node156&#45;&gt;Node157</title>
<path fill="none" stroke="midnightblue" d="M292.31,-189.546C312.866,-189.546 340.675,-189.546 361.859,-189.546"/>
<polygon fill="midnightblue" stroke="midnightblue" points="361.962,-193.046 371.962,-189.546 361.962,-186.046 361.962,-193.046"/>
</g>
<!-- Node158 -->
<g id="node5" class="node"><title>Node158</title>
<g id="a_node5"><a xlink:href="$a00026.html#a56d0f2cc40cd8633a784582d6200d8b5" xlink:title="errexit">
<polygon fill="white" stroke="black" points="372,-142.046 372,-161.046 416,-161.046 416,-142.046 372,-142.046"/>
<text text-anchor="middle" x="394" y="-149.046" font-family="Helvetica,sans-Serif" font-size="10.00">errexit</text>
</a>
</g>
</g>
<!-- Node156&#45;&gt;Node158 -->
<g id="edge4" class="edge"><title>Node156&#45;&gt;Node158</title>
<path fill="none" stroke="midnightblue" d="M292.31,-181.207C312.96,-175.123 340.929,-166.885 362.149,-160.634"/>
<polygon fill="midnightblue" stroke="midnightblue" points="363.359,-163.926 371.962,-157.743 361.381,-157.211 363.359,-163.926"/>
</g>
<!-- Node159 -->
<g id="node6" class="node"><title>Node159</title>
<g id="a_node6"><a xlink:href="$a01017.html#a2e311a777ffe9c80e405efa7cd2757be" xlink:title="fprintf">
<polygon fill="white" stroke="black" points="494,-104.046 494,-123.046 536,-123.046 536,-104.046 494,-104.046"/>
<text text-anchor="middle" x="515" y="-111.046" font-family="Helvetica,sans-Serif" font-size="10.00">fprintf</text>
</a>
</g>
</g>
<!-- Node158&#45;&gt;Node159 -->
<g id="edge5" class="edge"><title>Node158&#45;&gt;Node159</title>
<path fill="none" stroke="midnightblue" d="M416.056,-145.392C428.324,-141.757 444.074,-137.007 458,-132.546 466.573,-129.8 475.844,-126.705 484.328,-123.824"/>
<polygon fill="midnightblue" stroke="midnightblue" points="485.507,-127.12 493.837,-120.573 483.243,-120.496 485.507,-127.12"/>
</g>
<!-- Node161 -->
<g id="node8" class="node"><title>Node161</title>
<g id="a_node8"><a xlink:href="$a01017.html#a355ed4cdac2a27aa04a6689ac2d7e86e" xlink:title="fclose">
<polygon fill="white" stroke="black" points="372.5,-237.046 372.5,-256.046 415.5,-256.046 415.5,-237.046 372.5,-237.046"/>
<text text-anchor="middle" x="394" y="-244.046" font-family="Helvetica,sans-Serif" font-size="10.00">fclose</text>
</a>
</g>
</g>
<!-- Node160&#45;&gt;Node161 -->
<g id="edge7" class="edge"><title>Node160&#45;&gt;Node161</title>
<path fill="none" stroke="midnightblue" d="M292.629,-231.763C313.33,-234.812 341.259,-238.925 362.4,-242.039"/>
<polygon fill="midnightblue" stroke="midnightblue" points="362.063,-245.527 372.466,-243.521 363.083,-238.602 362.063,-245.527"/>
</g>
<!-- Node162&#45;&gt;Node157 -->
<g id="edge9" class="edge"><title>Node162&#45;&gt;Node157</title>
<path fill="none" stroke="midnightblue" d="M292.31,-159.885C312.96,-165.968 340.929,-174.207 362.149,-180.458"/>
<polygon fill="midnightblue" stroke="midnightblue" points="361.381,-183.88 371.962,-183.349 363.359,-177.166 361.381,-183.88"/>
</g>
<!-- Node162&#45;&gt;Node158 -->
<g id="edge10" class="edge"><title>Node162&#45;&gt;Node158</title>
<path fill="none" stroke="midnightblue" d="M292.31,-151.546C312.866,-151.546 340.675,-151.546 361.859,-151.546"/>
<polygon fill="midnightblue" stroke="midnightblue" points="361.962,-155.046 371.962,-151.546 361.962,-148.046 361.962,-155.046"/>
</g>
<!-- Node164 -->
<g id="node11" class="node"><title>Node164</title>
<g id="a_node11"><a xlink:href="$a00077.html#aba6f76f5c67b9b7e9c2e45988d3d3e9d" xlink:title="gk_malloc">
<polygon fill="white" stroke="black" points="232,-66.0459 232,-85.0459 294,-85.0459 294,-66.0459 232,-66.0459"/>
<text text-anchor="middle" x="263" y="-73.0459" font-family="Helvetica,sans-Serif" font-size="10.00">gk_malloc</text>
</a>
</g>
</g>
<!-- Node163&#45;&gt;Node164 -->
<g id="edge12" class="edge"><title>Node163&#45;&gt;Node164</title>
<path fill="none" stroke="midnightblue" d="M183.496,-103.957C196.304,-99.3215 211.875,-93.6862 225.762,-88.6605"/>
<polygon fill="midnightblue" stroke="midnightblue" points="227.3,-91.826 235.513,-85.1318 224.918,-85.2438 227.3,-91.826"/>
</g>
<!-- Node168 -->
<g id="node15" class="node"><title>Node168</title>
<g id="a_node15"><a xlink:href="$a00077.html#ab76a07ccd25288dd9acc99f5f24a7600" xlink:title="gk_realloc">
<polygon fill="white" stroke="black" points="232,-104.046 232,-123.046 294,-123.046 294,-104.046 232,-104.046"/>
<text text-anchor="middle" x="263" y="-111.046" font-family="Helvetica,sans-Serif" font-size="10.00">gk_realloc</text>
</a>
</g>
</g>
<!-- Node163&#45;&gt;Node168 -->
<g id="edge18" class="edge"><title>Node163&#45;&gt;Node168</title>
<path fill="none" stroke="midnightblue" d="M187.089,-113.546C197.853,-113.546 210.164,-113.546 221.654,-113.546"/>
<polygon fill="midnightblue" stroke="midnightblue" points="221.907,-117.046 231.907,-113.546 221.907,-110.046 221.907,-117.046"/>
</g>
<!-- Node164&#45;&gt;Node159 -->
<g id="edge13" class="edge"><title>Node164&#45;&gt;Node159</title>
<path fill="none" stroke="midnightblue" d="M271.244,-65.9702C282.205,-52.368 304.458,-28.0485 330,-18.5459 383.318,1.29103 408.605,9.67548 458,-18.5459 486.286,-34.7066 501.71,-71.3542 508.874,-94.1149"/>
<polygon fill="midnightblue" stroke="midnightblue" points="505.6,-95.3929 511.748,-104.022 512.323,-93.443 505.6,-95.3929"/>
</g>
<!-- Node165 -->
<g id="node12" class="node"><title>Node165</title>
<g id="a_node12"><a xlink:href="$a00110.html#ad2327b94227019b6753b6b09400c0522" xlink:title="gk_GetCurMemoryUsed">
<polygon fill="white" stroke="black" points="332,-66.0459 332,-85.0459 456,-85.0459 456,-66.0459 332,-66.0459"/>
<text text-anchor="middle" x="394" y="-73.0459" font-family="Helvetica,sans-Serif" font-size="10.00">gk_GetCurMemoryUsed</text>
</a>
</g>
</g>
<!-- Node164&#45;&gt;Node165 -->
<g id="edge14" class="edge"><title>Node164&#45;&gt;Node165</title>
<path fill="none" stroke="midnightblue" d="M294.245,-75.5459C302.646,-75.5459 312.139,-75.5459 321.836,-75.5459"/>
<polygon fill="midnightblue" stroke="midnightblue" points="321.977,-79.046 331.977,-75.5459 321.977,-72.046 321.977,-79.046"/>
</g>
<!-- Node166 -->
<g id="node13" class="node"><title>Node166</title>
<g id="a_node13"><a xlink:href="$a00110.html#a656fd5266ae12a96e53125486f8fea52" xlink:title="gk_GetMaxMemoryUsed">
<polygon fill="white" stroke="black" points="330.5,-28.0459 330.5,-47.0459 457.5,-47.0459 457.5,-28.0459 330.5,-28.0459"/>
<text text-anchor="middle" x="394" y="-35.0459" font-family="Helvetica,sans-Serif" font-size="10.00">gk_GetMaxMemoryUsed</text>
</a>
</g>
</g>
<!-- Node164&#45;&gt;Node166 -->
<g id="edge15" class="edge"><title>Node164&#45;&gt;Node166</title>
<path fill="none" stroke="midnightblue" d="M294.245,-66.6366C311.162,-61.6531 332.509,-55.365 351.024,-49.911"/>
<polygon fill="midnightblue" stroke="midnightblue" points="352.086,-53.2467 360.69,-47.0636 350.108,-46.532 352.086,-53.2467"/>
</g>
<!-- Node167 -->
<g id="node14" class="node"><title>Node167</title>
<g id="a_node14"><a xlink:href="$a00026.html#a4c320c13bcdc9967613253ef4c73f59f" xlink:title="gk_errexit">
<polygon fill="white" stroke="black" points="364,-104.046 364,-123.046 424,-123.046 424,-104.046 364,-104.046"/>
<text text-anchor="middle" x="394" y="-111.046" font-family="Helvetica,sans-Serif" font-size="10.00">gk_errexit</text>
</a>
</g>
</g>
<!-- Node164&#45;&gt;Node167 -->
<g id="edge16" class="edge"><title>Node164&#45;&gt;Node167</title>
<path fill="none" stroke="midnightblue" d="M294.245,-84.4552C312.128,-89.7231 334.96,-96.4489 354.165,-102.106"/>
<polygon fill="midnightblue" stroke="midnightblue" points="353.251,-105.485 363.832,-104.954 355.229,-98.7707 353.251,-105.485"/>
</g>
<!-- Node167&#45;&gt;Node159 -->
<g id="edge17" class="edge"><title>Node167&#45;&gt;Node159</title>
<path fill="none" stroke="midnightblue" d="M424.111,-113.546C442.172,-113.546 465.339,-113.546 483.631,-113.546"/>
<polygon fill="midnightblue" stroke="midnightblue" points="483.762,-117.046 493.762,-113.546 483.762,-110.046 483.762,-117.046"/>
</g>
<!-- Node169&#45;&gt;Node161 -->
<g id="edge20" class="edge"><title>Node169&#45;&gt;Node161</title>
<path fill="none" stroke="midnightblue" d="M185.938,-246.546C230.72,-246.546 316.416,-246.546 362.265,-246.546"/>
<polygon fill="midnightblue" stroke="midnightblue" points="362.482,-250.046 372.482,-246.546 362.482,-243.046 362.482,-250.046"/>
</g>
</g>
</svg>
