<?xml version="1.0" encoding="UTF-8" standalone="no"?>
<!DOCTYPE svg PUBLIC "-//W3C//DTD SVG 1.1//EN"
 "http://www.w3.org/Graphics/SVG/1.1/DTD/svg11.dtd">
<!-- Generated by graphviz version 2.36.0 (20140111.2315)
 -->
<!-- Title: ParMETIS_V3_PartGeom Pages: 1 -->
<svg width="300pt" height="142pt"
 viewBox="0.00 0.00 300.00 142.00" xmlns="http://www.w3.org/2000/svg" xmlns:xlink="http://www.w3.org/1999/xlink">
<g id="graph0" class="graph" transform="scale(1 1) rotate(0) translate(4 138)">
<title>ParMETIS_V3_PartGeom</title>
<polygon fill="white" stroke="none" points="-4,4 -4,-138 296,-138 296,4 -4,4"/>
<!-- Node25 -->
<g id="node1" class="node"><title>Node25</title>
<polygon fill="#bfbfbf" stroke="black" points="0,-57.5 0,-76.5 132,-76.5 132,-57.5 0,-57.5"/>
<text text-anchor="middle" x="66" y="-64.5" font-family="Helvetica,sans-Serif" font-size="10.00">ParMETIS_V3_PartGeom</text>
</g>
<!-- Node26 -->
<g id="node2" class="node"><title>Node26</title>
<g id="a_node2"><a xlink:href="$a00077.html#a24633cc1c72a7e92836912c2adcf570a" xlink:title="gk_malloc_init">
<polygon fill="white" stroke="black" points="190,-114.5 190,-133.5 270,-133.5 270,-114.5 190,-114.5"/>
<text text-anchor="middle" x="230" y="-121.5" font-family="Helvetica,sans-Serif" font-size="10.00">gk_malloc_init</text>
</a>
</g>
</g>
<!-- Node25&#45;&gt;Node26 -->
<g id="edge1" class="edge"><title>Node25&#45;&gt;Node26</title>
<path fill="none" stroke="midnightblue" d="M91.3475,-76.6129C111.716,-84.5456 141.6,-95.9306 168,-105 174.196,-107.128 180.78,-109.286 187.243,-111.346"/>
<polygon fill="midnightblue" stroke="midnightblue" points="186.637,-114.825 197.226,-114.485 188.736,-108.147 186.637,-114.825"/>
</g>
<!-- Node27 -->
<g id="node3" class="node"><title>Node27</title>
<g id="a_node3"><a xlink:href="$a00077.html#ad2327b94227019b6753b6b09400c0522" xlink:title="gk_GetCurMemoryUsed">
<polygon fill="white" stroke="black" points="168,-76.5 168,-95.5 292,-95.5 292,-76.5 168,-76.5"/>
<text text-anchor="middle" x="230" y="-83.5" font-family="Helvetica,sans-Serif" font-size="10.00">gk_GetCurMemoryUsed</text>
</a>
</g>
</g>
<!-- Node25&#45;&gt;Node27 -->
<g id="edge2" class="edge"><title>Node25&#45;&gt;Node27</title>
<path fill="none" stroke="midnightblue" d="M132.425,-74.6733C140.728,-75.6471 149.258,-76.6476 157.648,-77.6316"/>
<polygon fill="midnightblue" stroke="midnightblue" points="157.448,-81.1321 167.788,-78.8208 158.264,-74.1797 157.448,-81.1321"/>
</g>
<!-- Node28 -->
<g id="node4" class="node"><title>Node28</title>
<g id="a_node4"><a xlink:href="$a00077.html#ac8df62c4e3d0910711a9874f9cc58884" xlink:title="gk_free">
<polygon fill="white" stroke="black" points="205,-38.5 205,-57.5 255,-57.5 255,-38.5 205,-38.5"/>
<text text-anchor="middle" x="230" y="-45.5" font-family="Helvetica,sans-Serif" font-size="10.00">gk_free</text>
</a>
</g>
</g>
<!-- Node25&#45;&gt;Node28 -->
<g id="edge3" class="edge"><title>Node25&#45;&gt;Node28</title>
<path fill="none" stroke="midnightblue" d="M132.425,-59.3267C153.713,-56.83 176.492,-54.1583 194.579,-52.037"/>
<polygon fill="midnightblue" stroke="midnightblue" points="195.115,-55.4983 204.639,-50.8572 194.299,-48.546 195.115,-55.4983"/>
</g>
<!-- Node29 -->
<g id="node5" class="node"><title>Node29</title>
<g id="a_node5"><a xlink:href="$a00077.html#a47156a22528b5bc8c7c6e9849af34e62" xlink:title="gk_malloc_cleanup">
<polygon fill="white" stroke="black" points="179,-0.5 179,-19.5 281,-19.5 281,-0.5 179,-0.5"/>
<text text-anchor="middle" x="230" y="-7.5" font-family="Helvetica,sans-Serif" font-size="10.00">gk_malloc_cleanup</text>
</a>
</g>
</g>
<!-- Node25&#45;&gt;Node29 -->
<g id="edge4" class="edge"><title>Node25&#45;&gt;Node29</title>
<path fill="none" stroke="midnightblue" d="M91.3475,-57.3871C111.716,-49.4544 141.6,-38.0694 168,-29 174.196,-26.8715 180.78,-24.7138 187.243,-22.6537"/>
<polygon fill="midnightblue" stroke="midnightblue" points="188.736,-25.8531 197.226,-19.5149 186.637,-19.1753 188.736,-25.8531"/>
</g>
</g>
</svg>
