<?xml version="1.0" encoding="UTF-8" standalone="no"?>
<!DOCTYPE svg PUBLIC "-//W3C//DTD SVG 1.1//EN"
 "http://www.w3.org/Graphics/SVG/1.1/DTD/svg11.dtd">
<!-- Generated by graphviz version 2.36.0 (20140111.2315)
 -->
<!-- Title: ReadMetisGraph Pages: 1 -->
<svg width="502pt" height="142pt"
 viewBox="0.00 0.00 502.00 142.00" xmlns="http://www.w3.org/2000/svg" xmlns:xlink="http://www.w3.org/1999/xlink">
<g id="graph0" class="graph" transform="scale(1 1) rotate(0) translate(4 138)">
<title>ReadMetisGraph</title>
<polygon fill="white" stroke="none" points="-4,4 -4,-138 498,-138 498,4 -4,4"/>
<!-- Node32 -->
<g id="node1" class="node"><title>Node32</title>
<polygon fill="#bfbfbf" stroke="black" points="0,-57.5 0,-76.5 92,-76.5 92,-57.5 0,-57.5"/>
<text text-anchor="middle" x="46" y="-64.5" font-family="Helvetica,sans-Serif" font-size="10.00">ReadMetisGraph</text>
</g>
<!-- Node33 -->
<g id="node2" class="node"><title>Node33</title>
<g id="a_node2"><a xlink:href="$a00957.html#ad576773d5c2e0a0662e8913264b980b1" xlink:title="ReadTestGraph">
<polygon fill="white" stroke="black" points="158,-114.5 158,-133.5 246,-133.5 246,-114.5 158,-114.5"/>
<text text-anchor="middle" x="202" y="-121.5" font-family="Helvetica,sans-Serif" font-size="10.00">ReadTestGraph</text>
</a>
</g>
</g>
<!-- Node32&#45;&gt;Node33 -->
<g id="edge1" class="edge"><title>Node32&#45;&gt;Node33</title>
<path fill="none" stroke="midnightblue" d="M73.95,-81.1718C89.4604,-88.9374 109.49,-98.3136 128,-105 137.854,-108.559 148.678,-111.75 158.903,-114.454"/>
<polygon fill="midnightblue" stroke="midnightblue" points="75.4305,-77.9982 64.9306,-76.5833 72.2564,-84.2372 75.4305,-77.9982"/>
</g>
<!-- Node34 -->
<g id="node3" class="node"><title>Node34</title>
<g id="a_node3"><a xlink:href="$a00957.html#ae14ac8abf0f0bad98a84d811ae23cf7a" xlink:title="ComputeRealCut">
<polygon fill="white" stroke="black" points="155.5,-76.5 155.5,-95.5 248.5,-95.5 248.5,-76.5 155.5,-76.5"/>
<text text-anchor="middle" x="202" y="-83.5" font-family="Helvetica,sans-Serif" font-size="10.00">ComputeRealCut</text>
</a>
</g>
</g>
<!-- Node32&#45;&gt;Node34 -->
<g id="edge2" class="edge"><title>Node32&#45;&gt;Node34</title>
<path fill="none" stroke="midnightblue" d="M102.399,-73.8349C119.793,-75.9809 138.787,-78.3244 155.42,-80.3765"/>
<polygon fill="midnightblue" stroke="midnightblue" points="102.725,-70.3488 92.3721,-72.5979 101.868,-77.2961 102.725,-70.3488"/>
</g>
<!-- Node37 -->
<g id="node6" class="node"><title>Node37</title>
<g id="a_node6"><a xlink:href="$a00428.html#a5bf6f2fe30133c3be1dc3d34329e650d" xlink:title="ComputeRealCut2">
<polygon fill="white" stroke="black" points="152.5,-38.5 152.5,-57.5 251.5,-57.5 251.5,-38.5 152.5,-38.5"/>
<text text-anchor="middle" x="202" y="-45.5" font-family="Helvetica,sans-Serif" font-size="10.00">ComputeRealCut2</text>
</a>
</g>
</g>
<!-- Node32&#45;&gt;Node37 -->
<g id="edge5" class="edge"><title>Node32&#45;&gt;Node37</title>
<path fill="none" stroke="midnightblue" d="M102.359,-60.1699C118.742,-58.1487 136.548,-55.9519 152.465,-53.9881"/>
<polygon fill="midnightblue" stroke="midnightblue" points="101.868,-56.7039 92.3721,-61.4021 102.725,-63.6512 101.868,-56.7039"/>
</g>
<!-- Node38 -->
<g id="node7" class="node"><title>Node38</title>
<g id="a_node7"><a xlink:href="$a00437.html#a8003a74d9258bf251cc16e3b964c4b69" xlink:title="ComputeRealCutFromMoved">
<polygon fill="white" stroke="black" points="128.5,-0.5 128.5,-19.5 275.5,-19.5 275.5,-0.5 128.5,-0.5"/>
<text text-anchor="middle" x="202" y="-7.5" font-family="Helvetica,sans-Serif" font-size="10.00">ComputeRealCutFromMoved</text>
</a>
</g>
</g>
<!-- Node32&#45;&gt;Node38 -->
<g id="edge6" class="edge"><title>Node32&#45;&gt;Node38</title>
<path fill="none" stroke="midnightblue" d="M73.95,-52.8282C89.4604,-45.0626 109.49,-35.6864 128,-29 137.854,-25.4407 148.678,-22.2505 158.903,-19.5462"/>
<polygon fill="midnightblue" stroke="midnightblue" points="72.2564,-49.7628 64.9306,-57.4167 75.4305,-56.0018 72.2564,-49.7628"/>
</g>
<!-- Node35 -->
<g id="node4" class="node"><title>Node35</title>
<g id="a_node4"><a xlink:href="$a00437.html#adb0c2dc0c5138f35c71739328c702074" xlink:title="TestParMetis_GPart">
<polygon fill="white" stroke="black" points="312.5,-38.5 312.5,-57.5 419.5,-57.5 419.5,-38.5 312.5,-38.5"/>
<text text-anchor="middle" x="366" y="-45.5" font-family="Helvetica,sans-Serif" font-size="10.00">TestParMetis_GPart</text>
</a>
</g>
</g>
<!-- Node34&#45;&gt;Node35 -->
<g id="edge3" class="edge"><title>Node34&#45;&gt;Node35</title>
<path fill="none" stroke="midnightblue" d="M253.715,-74.1039C276.486,-68.7626 302.987,-62.5463 324.415,-57.5201"/>
<polygon fill="midnightblue" stroke="midnightblue" points="252.816,-70.7197 243.879,-76.411 254.415,-77.5347 252.816,-70.7197"/>
</g>
<!-- Node36 -->
<g id="node5" class="node"><title>Node36</title>
<g id="a_node5"><a xlink:href="$a00428.html#a8f4019835796a39a97c345864d80fcbb" xlink:title="main">
<polygon fill="white" stroke="black" points="456,-38.5 456,-57.5 494,-57.5 494,-38.5 456,-38.5"/>
<text text-anchor="middle" x="475" y="-45.5" font-family="Helvetica,sans-Serif" font-size="10.00">main</text>
</a>
</g>
</g>
<!-- Node35&#45;&gt;Node36 -->
<g id="edge4" class="edge"><title>Node35&#45;&gt;Node36</title>
<path fill="none" stroke="midnightblue" d="M429.658,-48C439.26,-48 448.455,-48 455.959,-48"/>
<polygon fill="midnightblue" stroke="midnightblue" points="429.56,-44.5001 419.56,-48 429.56,-51.5001 429.56,-44.5001"/>
</g>
<!-- Node38&#45;&gt;Node35 -->
<g id="edge7" class="edge"><title>Node38&#45;&gt;Node35</title>
<path fill="none" stroke="midnightblue" d="M253.715,-21.8961C276.486,-27.2374 302.987,-33.4537 324.415,-38.4799"/>
<polygon fill="midnightblue" stroke="midnightblue" points="254.415,-18.4653 243.879,-19.589 252.816,-25.2803 254.415,-18.4653"/>
</g>
</g>
</svg>
