<?xml version="1.0" encoding="UTF-8" standalone="no"?>
<!DOCTYPE svg PUBLIC "-//W3C//DTD SVG 1.1//EN"
 "http://www.w3.org/Graphics/SVG/1.1/DTD/svg11.dtd">
<!-- Generated by graphviz version 2.36.0 (20140111.2315)
 -->
<!-- Title: ParMETIS_SerialNodeND Pages: 1 -->
<svg width="456pt" height="122pt"
 viewBox="0.00 0.00 456.00 122.00" xmlns="http://www.w3.org/2000/svg" xmlns:xlink="http://www.w3.org/1999/xlink">
<g id="graph0" class="graph" transform="scale(1 1) rotate(0) translate(4 118)">
<title>ParMETIS_SerialNodeND</title>
<polygon fill="white" stroke="none" points="-4,4 -4,-118 452,-118 452,4 -4,4"/>
<!-- Node0 -->
<g id="node1" class="node"><title>Node0</title>
<polygon fill="#bfbfbf" stroke="black" points="0,-56.5 0,-75.5 132,-75.5 132,-56.5 0,-56.5"/>
<text text-anchor="middle" x="66" y="-63.5" font-family="Helvetica,sans-Serif" font-size="10.00">ParMETIS_SerialNodeND</text>
</g>
<!-- Node1 -->
<g id="node2" class="node"><title>Node1</title>
<g id="a_node2"><a xlink:href="$a00389.html#a2bca72c51127ef49eece3ae89414b6b6" xlink:title="AssembleEntireGraph">
<polygon fill="white" stroke="black" points="168,-94.5 168,-113.5 282,-113.5 282,-94.5 168,-94.5"/>
<text text-anchor="middle" x="225" y="-101.5" font-family="Helvetica,sans-Serif" font-size="10.00">AssembleEntireGraph</text>
</a>
</g>
</g>
<!-- Node0&#45;&gt;Node1 -->
<g id="edge1" class="edge"><title>Node0&#45;&gt;Node1</title>
<path fill="none" stroke="midnightblue" d="M106.618,-75.589C127.336,-80.6035 152.888,-86.7881 174.856,-92.1053"/>
<polygon fill="midnightblue" stroke="midnightblue" points="174.124,-95.5292 184.667,-94.4799 175.771,-88.7256 174.124,-95.5292"/>
</g>
<!-- Node2 -->
<g id="node3" class="node"><title>Node2</title>
<g id="a_node3"><a xlink:href="$a00942.html#a6cb045354f114552086ac2f3ce8d3586" xlink:title="METIS_NodeNDP">
<polygon fill="white" stroke="black" points="176,-18.5 176,-37.5 274,-37.5 274,-18.5 176,-18.5"/>
<text text-anchor="middle" x="225" y="-25.5" font-family="Helvetica,sans-Serif" font-size="10.00">METIS_NodeNDP</text>
</a>
</g>
</g>
<!-- Node0&#45;&gt;Node2 -->
<g id="edge2" class="edge"><title>Node0&#45;&gt;Node2</title>
<path fill="none" stroke="midnightblue" d="M106.618,-56.411C127.336,-51.3965 152.888,-45.2119 174.856,-39.8947"/>
<polygon fill="midnightblue" stroke="midnightblue" points="175.771,-43.2744 184.667,-37.5201 174.124,-36.4708 175.771,-43.2744"/>
</g>
<!-- Node3 -->
<g id="node4" class="node"><title>Node3</title>
<g id="a_node4"><a xlink:href="$a00077.html#ac8df62c4e3d0910711a9874f9cc58884" xlink:title="gk_free">
<polygon fill="white" stroke="black" points="358,-56.5 358,-75.5 408,-75.5 408,-56.5 358,-56.5"/>
<text text-anchor="middle" x="383" y="-63.5" font-family="Helvetica,sans-Serif" font-size="10.00">gk_free</text>
</a>
</g>
</g>
<!-- Node0&#45;&gt;Node3 -->
<g id="edge6" class="edge"><title>Node0&#45;&gt;Node3</title>
<path fill="none" stroke="midnightblue" d="M132.268,-66C197.713,-66 295.962,-66 347.552,-66"/>
<polygon fill="midnightblue" stroke="midnightblue" points="347.824,-69.5001 357.824,-66 347.824,-62.5001 347.824,-69.5001"/>
</g>
<!-- Node2&#45;&gt;Node3 -->
<g id="edge3" class="edge"><title>Node2&#45;&gt;Node3</title>
<path fill="none" stroke="midnightblue" d="M265.365,-37.589C290.796,-43.7838 323.558,-51.7641 347.881,-57.689"/>
<polygon fill="midnightblue" stroke="midnightblue" points="347.198,-61.125 357.743,-60.0912 348.855,-54.3238 347.198,-61.125"/>
</g>
<!-- Node4 -->
<g id="node5" class="node"><title>Node4</title>
<g id="a_node5"><a xlink:href="$a00942.html#a55cff7f4deda5d27c8736089a878964c" xlink:title="MlevelNestedDissectionP">
<polygon fill="white" stroke="black" points="318,-0.5 318,-19.5 448,-19.5 448,-0.5 318,-0.5"/>
<text text-anchor="middle" x="383" y="-7.5" font-family="Helvetica,sans-Serif" font-size="10.00">MlevelNestedDissectionP</text>
</a>
</g>
</g>
<!-- Node2&#45;&gt;Node4 -->
<g id="edge4" class="edge"><title>Node2&#45;&gt;Node4</title>
<path fill="none" stroke="midnightblue" d="M274.078,-22.4525C284.741,-21.2222 296.284,-19.8903 307.72,-18.5708"/>
<polygon fill="midnightblue" stroke="midnightblue" points="308.184,-22.0405 317.717,-17.4173 307.382,-15.0867 308.184,-22.0405"/>
</g>
<!-- Node4&#45;&gt;Node4 -->
<g id="edge5" class="edge"><title>Node4&#45;&gt;Node4</title>
<path fill="none" stroke="midnightblue" d="M358.648,-19.7571C346.801,-28.5653 354.918,-38 383,-38 401.429,-38 411.26,-33.9368 412.492,-28.6539"/>
<polygon fill="midnightblue" stroke="midnightblue" points="415.386,-26.665 407.352,-19.7571 409.324,-30.1668 415.386,-26.665"/>
</g>
</g>
</svg>
