<?xml version="1.0" encoding="UTF-8" standalone="no"?>
<!DOCTYPE svg PUBLIC "-//W3C//DTD SVG 1.1//EN"
 "http://www.w3.org/Graphics/SVG/1.1/DTD/svg11.dtd">
<!-- Generated by graphviz version 2.36.0 (20140111.2315)
 -->
<!-- Title: gk_graph_ExtractSubgraph Pages: 1 -->
<svg width="632pt" height="124pt"
 viewBox="0.00 0.00 632.00 124.49" xmlns="http://www.w3.org/2000/svg" xmlns:xlink="http://www.w3.org/1999/xlink">
<g id="graph0" class="graph" transform="scale(1 1) rotate(0) translate(4 120.487)">
<title>gk_graph_ExtractSubgraph</title>
<polygon fill="white" stroke="none" points="-4,4 -4,-120.487 628,-120.487 628,4 -4,4"/>
<!-- Node37 -->
<g id="node1" class="node"><title>Node37</title>
<polygon fill="#bfbfbf" stroke="black" points="0,-38.5 0,-57.5 138,-57.5 138,-38.5 0,-38.5"/>
<text text-anchor="middle" x="69" y="-45.5" font-family="Helvetica,sans-Serif" font-size="10.00">gk_graph_ExtractSubgraph</text>
</g>
<!-- Node38 -->
<g id="node2" class="node"><title>Node38</title>
<g id="a_node2"><a xlink:href="$a00849.html#a0d092a371d797437de53ae1a64bd78f4" xlink:title="gk_graph_Create">
<polygon fill="white" stroke="black" points="174,-38.5 174,-57.5 268,-57.5 268,-38.5 174,-38.5"/>
<text text-anchor="middle" x="221" y="-45.5" font-family="Helvetica,sans-Serif" font-size="10.00">gk_graph_Create</text>
</a>
</g>
</g>
<!-- Node37&#45;&gt;Node38 -->
<g id="edge1" class="edge"><title>Node37&#45;&gt;Node38</title>
<path fill="none" stroke="midnightblue" d="M138.416,-48C146.782,-48 155.259,-48 163.425,-48"/>
<polygon fill="midnightblue" stroke="midnightblue" points="163.571,-51.5001 173.571,-48 163.571,-44.5001 163.571,-51.5001"/>
</g>
<!-- Node39 -->
<g id="node3" class="node"><title>Node39</title>
<g id="a_node3"><a xlink:href="$a00077.html#aba6f76f5c67b9b7e9c2e45988d3d3e9d" xlink:title="gk_malloc">
<polygon fill="white" stroke="black" points="312,-57.5 312,-76.5 374,-76.5 374,-57.5 312,-57.5"/>
<text text-anchor="middle" x="343" y="-64.5" font-family="Helvetica,sans-Serif" font-size="10.00">gk_malloc</text>
</a>
</g>
</g>
<!-- Node38&#45;&gt;Node39 -->
<g id="edge2" class="edge"><title>Node38&#45;&gt;Node39</title>
<path fill="none" stroke="midnightblue" d="M268.052,-55.2916C279.171,-57.0521 290.967,-58.9198 301.795,-60.6342"/>
<polygon fill="midnightblue" stroke="midnightblue" points="301.401,-64.1154 311.825,-62.2224 302.496,-57.2015 301.401,-64.1154"/>
</g>
<!-- Node44 -->
<g id="node8" class="node"><title>Node44</title>
<g id="a_node8"><a xlink:href="$a00849.html#ab017e0e6f2436f3ad24ea01d8b2c588c" xlink:title="gk_graph_Init">
<polygon fill="white" stroke="black" points="304.5,-19.5 304.5,-38.5 381.5,-38.5 381.5,-19.5 304.5,-19.5"/>
<text text-anchor="middle" x="343" y="-26.5" font-family="Helvetica,sans-Serif" font-size="10.00">gk_graph_Init</text>
</a>
</g>
</g>
<!-- Node38&#45;&gt;Node44 -->
<g id="edge8" class="edge"><title>Node38&#45;&gt;Node44</title>
<path fill="none" stroke="midnightblue" d="M268.052,-40.7084C276.698,-39.3395 285.753,-37.9058 294.444,-36.5297"/>
<polygon fill="midnightblue" stroke="midnightblue" points="295.103,-39.9691 304.432,-34.9482 294.008,-33.0552 295.103,-39.9691"/>
</g>
<!-- Node40 -->
<g id="node4" class="node"><title>Node40</title>
<g id="a_node4"><a xlink:href="$a01017.html#a2e311a777ffe9c80e405efa7cd2757be" xlink:title="fprintf">
<polygon fill="white" stroke="black" points="582,-57.5 582,-76.5 624,-76.5 624,-57.5 582,-57.5"/>
<text text-anchor="middle" x="603" y="-64.5" font-family="Helvetica,sans-Serif" font-size="10.00">fprintf</text>
</a>
</g>
</g>
<!-- Node39&#45;&gt;Node40 -->
<g id="edge3" class="edge"><title>Node39&#45;&gt;Node40</title>
<path fill="none" stroke="midnightblue" d="M357.671,-76.5579C371.957,-85.915 395.399,-99.5362 418,-105 473.296,-118.368 491.62,-121.709 546,-105 560.039,-100.686 573.719,-91.5255 584.044,-83.2793"/>
<polygon fill="midnightblue" stroke="midnightblue" points="586.469,-85.8134 591.862,-76.6941 581.959,-80.4595 586.469,-85.8134"/>
</g>
<!-- Node41 -->
<g id="node5" class="node"><title>Node41</title>
<g id="a_node5"><a xlink:href="$a00110.html#ad2327b94227019b6753b6b09400c0522" xlink:title="gk_GetCurMemoryUsed">
<polygon fill="white" stroke="black" points="420,-76.5 420,-95.5 544,-95.5 544,-76.5 420,-76.5"/>
<text text-anchor="middle" x="482" y="-83.5" font-family="Helvetica,sans-Serif" font-size="10.00">gk_GetCurMemoryUsed</text>
</a>
</g>
</g>
<!-- Node39&#45;&gt;Node41 -->
<g id="edge4" class="edge"><title>Node39&#45;&gt;Node41</title>
<path fill="none" stroke="midnightblue" d="M374.065,-71.1696C384.693,-72.6436 397.146,-74.3706 409.724,-76.115"/>
<polygon fill="midnightblue" stroke="midnightblue" points="409.419,-79.6062 419.806,-77.5132 410.381,-72.6726 409.419,-79.6062"/>
</g>
<!-- Node42 -->
<g id="node6" class="node"><title>Node42</title>
<g id="a_node6"><a xlink:href="$a00110.html#a656fd5266ae12a96e53125486f8fea52" xlink:title="gk_GetMaxMemoryUsed">
<polygon fill="white" stroke="black" points="418.5,-38.5 418.5,-57.5 545.5,-57.5 545.5,-38.5 418.5,-38.5"/>
<text text-anchor="middle" x="482" y="-45.5" font-family="Helvetica,sans-Serif" font-size="10.00">gk_GetMaxMemoryUsed</text>
</a>
</g>
</g>
<!-- Node39&#45;&gt;Node42 -->
<g id="edge5" class="edge"><title>Node39&#45;&gt;Node42</title>
<path fill="none" stroke="midnightblue" d="M374.065,-62.8304C384.28,-61.4137 396.181,-59.7632 408.259,-58.0882"/>
<polygon fill="midnightblue" stroke="midnightblue" points="408.988,-61.5207 418.412,-56.6801 408.026,-54.5871 408.988,-61.5207"/>
</g>
<!-- Node43 -->
<g id="node7" class="node"><title>Node43</title>
<g id="a_node7"><a xlink:href="$a00026.html#a4c320c13bcdc9967613253ef4c73f59f" xlink:title="gk_errexit">
<polygon fill="white" stroke="black" points="452,-0.5 452,-19.5 512,-19.5 512,-0.5 452,-0.5"/>
<text text-anchor="middle" x="482" y="-7.5" font-family="Helvetica,sans-Serif" font-size="10.00">gk_errexit</text>
</a>
</g>
</g>
<!-- Node39&#45;&gt;Node43 -->
<g id="edge6" class="edge"><title>Node39&#45;&gt;Node43</title>
<path fill="none" stroke="midnightblue" d="M363.373,-57.4161C369.359,-54.4273 375.964,-51.1012 382,-48 398.092,-39.7319 401.262,-35.866 418,-29 425.664,-25.856 434.042,-22.9687 442.113,-20.4448"/>
<polygon fill="midnightblue" stroke="midnightblue" points="443.168,-23.7826 451.738,-17.5538 441.154,-17.0785 443.168,-23.7826"/>
</g>
<!-- Node43&#45;&gt;Node40 -->
<g id="edge7" class="edge"><title>Node43&#45;&gt;Node40</title>
<path fill="none" stroke="midnightblue" d="M512.228,-16.8252C523.104,-19.8755 535.377,-23.9396 546,-29 558.634,-35.0184 571.634,-43.6626 581.925,-51.1863"/>
<polygon fill="midnightblue" stroke="midnightblue" points="580.101,-54.1937 590.194,-57.4154 584.313,-48.6027 580.101,-54.1937"/>
</g>
</g>
</svg>
