<?xml version="1.0" encoding="UTF-8" standalone="no"?>
<!DOCTYPE svg PUBLIC "-//W3C//DTD SVG 1.1//EN"
 "http://www.w3.org/Graphics/SVG/1.1/DTD/svg11.dtd">
<!-- Generated by graphviz version 2.36.0 (20140111.2315)
 -->
<!-- Title: FreeInitialGraphAndRemap Pages: 1 -->
<svg width="378pt" height="47pt"
 viewBox="0.00 0.00 378.00 47.00" xmlns="http://www.w3.org/2000/svg" xmlns:xlink="http://www.w3.org/1999/xlink">
<g id="graph0" class="graph" transform="scale(1 1) rotate(0) translate(4 43)">
<title>FreeInitialGraphAndRemap</title>
<polygon fill="white" stroke="none" points="-4,4 -4,-43 374,-43 374,4 -4,4"/>
<!-- Node12 -->
<g id="node1" class="node"><title>Node12</title>
<polygon fill="#bfbfbf" stroke="black" points="0,-0.5 0,-19.5 138,-19.5 138,-0.5 0,-0.5"/>
<text text-anchor="middle" x="69" y="-7.5" font-family="Helvetica,sans-Serif" font-size="10.00">FreeInitialGraphAndRemap</text>
</g>
<!-- Node13 -->
<g id="node2" class="node"><title>Node13</title>
<g id="a_node2"><a xlink:href="$a00855.html#a0ff13bda23f95ec19bb263ef036cd109" xlink:title="FreeNonGraphFields">
<polygon fill="white" stroke="black" points="174,-19.5 174,-38.5 284,-38.5 284,-19.5 174,-19.5"/>
<text text-anchor="middle" x="229" y="-26.5" font-family="Helvetica,sans-Serif" font-size="10.00">FreeNonGraphFields</text>
</a>
</g>
</g>
<!-- Node12&#45;&gt;Node13 -->
<g id="edge1" class="edge"><title>Node12&#45;&gt;Node13</title>
<path fill="none" stroke="midnightblue" d="M138.382,-18.2232C146.802,-19.2357 155.385,-20.2678 163.741,-21.2726"/>
<polygon fill="midnightblue" stroke="midnightblue" points="163.447,-24.7624 173.793,-22.4814 164.282,-17.8124 163.447,-24.7624"/>
</g>
<!-- Node14 -->
<g id="node3" class="node"><title>Node14</title>
<g id="a_node3"><a xlink:href="$a00077.html#ac8df62c4e3d0910711a9874f9cc58884" xlink:title="gk_free">
<polygon fill="white" stroke="black" points="320,-0.5 320,-19.5 370,-19.5 370,-0.5 320,-0.5"/>
<text text-anchor="middle" x="345" y="-7.5" font-family="Helvetica,sans-Serif" font-size="10.00">gk_free</text>
</a>
</g>
</g>
<!-- Node12&#45;&gt;Node14 -->
<g id="edge3" class="edge"><title>Node12&#45;&gt;Node14</title>
<path fill="none" stroke="midnightblue" d="M138.082,-10C192.582,-10 266.756,-10 309.596,-10"/>
<polygon fill="midnightblue" stroke="midnightblue" points="309.782,-13.5001 319.782,-10 309.782,-6.5001 309.782,-13.5001"/>
</g>
<!-- Node13&#45;&gt;Node14 -->
<g id="edge2" class="edge"><title>Node13&#45;&gt;Node14</title>
<path fill="none" stroke="midnightblue" d="M284.329,-19.9452C293.022,-18.4964 301.797,-17.0338 309.845,-15.6925"/>
<polygon fill="midnightblue" stroke="midnightblue" points="310.648,-19.107 319.937,-14.0105 309.497,-12.2022 310.648,-19.107"/>
</g>
</g>
</svg>
