<?xml version="1.0" encoding="UTF-8" standalone="no"?>
<!DOCTYPE svg PUBLIC "-//W3C//DTD SVG 1.1//EN"
 "http://www.w3.org/Graphics/SVG/1.1/DTD/svg11.dtd">
<!-- Generated by graphviz version 2.36.0 (20140111.2315)
 -->
<!-- Title: gk_graph_Free Pages: 1 -->
<svg width="338pt" height="47pt"
 viewBox="0.00 0.00 338.00 47.00" xmlns="http://www.w3.org/2000/svg" xmlns:xlink="http://www.w3.org/1999/xlink">
<g id="graph0" class="graph" transform="scale(1 1) rotate(0) translate(4 43)">
<title>gk_graph_Free</title>
<polygon fill="white" stroke="none" points="-4,4 -4,-43 334,-43 334,4 -4,4"/>
<!-- Node49 -->
<g id="node1" class="node"><title>Node49</title>
<polygon fill="#bfbfbf" stroke="black" points="0,-0.5 0,-19.5 84,-19.5 84,-0.5 0,-0.5"/>
<text text-anchor="middle" x="42" y="-7.5" font-family="Helvetica,sans-Serif" font-size="10.00">gk_graph_Free</text>
</g>
<!-- Node50 -->
<g id="node2" class="node"><title>Node50</title>
<g id="a_node2"><a xlink:href="$a00849.html#a00a7be5e2819fb9444360695e8d047d3" xlink:title="gk_graph_FreeContents">
<polygon fill="white" stroke="black" points="120,-19.5 120,-38.5 244,-38.5 244,-19.5 120,-19.5"/>
<text text-anchor="middle" x="182" y="-26.5" font-family="Helvetica,sans-Serif" font-size="10.00">gk_graph_FreeContents</text>
</a>
</g>
</g>
<!-- Node49&#45;&gt;Node50 -->
<g id="edge1" class="edge"><title>Node49&#45;&gt;Node50</title>
<path fill="none" stroke="midnightblue" d="M84.0309,-15.6492C92.228,-16.7778 101.059,-17.9936 109.936,-19.2158"/>
<polygon fill="midnightblue" stroke="midnightblue" points="109.562,-22.6972 119.945,-20.5939 110.516,-15.7626 109.562,-22.6972"/>
</g>
<!-- Node51 -->
<g id="node3" class="node"><title>Node51</title>
<g id="a_node3"><a xlink:href="$a00077.html#ac8df62c4e3d0910711a9874f9cc58884" xlink:title="gk_free">
<polygon fill="white" stroke="black" points="280,-0.5 280,-19.5 330,-19.5 330,-0.5 280,-0.5"/>
<text text-anchor="middle" x="305" y="-7.5" font-family="Helvetica,sans-Serif" font-size="10.00">gk_free</text>
</a>
</g>
</g>
<!-- Node49&#45;&gt;Node51 -->
<g id="edge3" class="edge"><title>Node49&#45;&gt;Node51</title>
<path fill="none" stroke="midnightblue" d="M84.0684,-10C135.318,-10 222.025,-10 269.826,-10"/>
<polygon fill="midnightblue" stroke="midnightblue" points="269.972,-13.5001 279.972,-10 269.972,-6.5001 269.972,-13.5001"/>
</g>
<!-- Node50&#45;&gt;Node51 -->
<g id="edge2" class="edge"><title>Node50&#45;&gt;Node51</title>
<path fill="none" stroke="midnightblue" d="M243.854,-19.4443C252.875,-18.0279 261.885,-16.6131 270.083,-15.3259"/>
<polygon fill="midnightblue" stroke="midnightblue" points="270.635,-18.7821 279.971,-13.7731 269.549,-11.8668 270.635,-18.7821"/>
</g>
</g>
</svg>
