<?xml version="1.0" encoding="UTF-8" standalone="no"?>
<!DOCTYPE svg PUBLIC "-//W3C//DTD SVG 1.1//EN"
 "http://www.w3.org/Graphics/SVG/1.1/DTD/svg11.dtd">
<!-- Generated by graphviz version 2.36.0 (20140111.2315)
 -->
<!-- Title: main Pages: 1 -->
<svg width="686pt" height="798pt"
 viewBox="0.00 0.00 686.00 797.86" xmlns="http://www.w3.org/2000/svg" xmlns:xlink="http://www.w3.org/1999/xlink">
<g id="graph0" class="graph" transform="scale(1 1) rotate(0) translate(4 793.859)">
<title>main</title>
<polygon fill="white" stroke="none" points="-4,4 -4,-793.859 682,-793.859 682,4 -4,4"/>
<!-- Node0 -->
<g id="node1" class="node"><title>Node0</title>
<polygon fill="#bfbfbf" stroke="black" points="0,-247.5 0,-266.5 38,-266.5 38,-247.5 0,-247.5"/>
<text text-anchor="middle" x="19" y="-254.5" font-family="Helvetica,sans-Serif" font-size="10.00">main</text>
</g>
<!-- Node1 -->
<g id="node2" class="node"><title>Node1</title>
<g id="a_node2"><a xlink:href="$a00867.html#a0e7ce196a2f8882777957bf898739f6f" xlink:title="parse_cmdline">
<polygon fill="white" stroke="black" points="81,-703.5 81,-722.5 163,-722.5 163,-703.5 81,-703.5"/>
<text text-anchor="middle" x="122" y="-710.5" font-family="Helvetica,sans-Serif" font-size="10.00">parse_cmdline</text>
</a>
</g>
</g>
<!-- Node0&#45;&gt;Node1 -->
<g id="edge1" class="edge"><title>Node0&#45;&gt;Node1</title>
<path fill="none" stroke="midnightblue" d="M22.1395,-266.887C29.3674,-300.269 53.5689,-411.864 74,-504 89.4689,-573.758 108.191,-656.527 116.571,-693.487"/>
<polygon fill="midnightblue" stroke="midnightblue" points="113.199,-694.444 118.825,-703.422 120.026,-692.895 113.199,-694.444"/>
</g>
<!-- Node3 -->
<g id="node4" class="node"><title>Node3</title>
<g id="a_node4"><a xlink:href="$a01017.html#a2e311a777ffe9c80e405efa7cd2757be" xlink:title="fprintf">
<polygon fill="white" stroke="black" points="636,-684.5 636,-703.5 678,-703.5 678,-684.5 636,-684.5"/>
<text text-anchor="middle" x="657" y="-691.5" font-family="Helvetica,sans-Serif" font-size="10.00">fprintf</text>
</a>
</g>
</g>
<!-- Node0&#45;&gt;Node3 -->
<g id="edge34" class="edge"><title>Node0&#45;&gt;Node3</title>
<path fill="none" stroke="midnightblue" d="M20.4549,-266.504C23.5899,-330.312 42.7954,-694.938 74,-732 132.155,-801.072 178.707,-789 269,-789 269,-789 269,-789 404,-789 492.907,-789 521.507,-790.752 600,-749 617.009,-739.953 632.31,-724.124 642.603,-711.764"/>
<polygon fill="midnightblue" stroke="midnightblue" points="645.387,-713.886 648.887,-703.887 639.915,-709.521 645.387,-713.886"/>
</g>
<!-- Node8 -->
<g id="node9" class="node"><title>Node8</title>
<g id="a_node9"><a xlink:href="$a00023.html#a8ebc19fe9a291bdf67677ebdaae56592" xlink:title="gk_csr_Read">
<polygon fill="white" stroke="black" points="84.5,-475.5 84.5,-494.5 159.5,-494.5 159.5,-475.5 84.5,-475.5"/>
<text text-anchor="middle" x="122" y="-482.5" font-family="Helvetica,sans-Serif" font-size="10.00">gk_csr_Read</text>
</a>
</g>
</g>
<!-- Node0&#45;&gt;Node8 -->
<g id="edge9" class="edge"><title>Node0&#45;&gt;Node8</title>
<path fill="none" stroke="midnightblue" d="M24.2113,-266.507C39.4832,-300.982 92.1344,-419.838 112.688,-466.237"/>
<polygon fill="midnightblue" stroke="midnightblue" points="109.52,-467.727 116.771,-475.453 115.921,-464.892 109.52,-467.727"/>
</g>
<!-- Node12 -->
<g id="node13" class="node"><title>Node12</title>
<g id="a_node13"><a xlink:href="$a00077.html#ab2b996e10c5bccb30204d81804adfd24" xlink:title="gk_fopen">
<polygon fill="white" stroke="black" points="374,-475.5 374,-494.5 432,-494.5 432,-475.5 374,-475.5"/>
<text text-anchor="middle" x="403" y="-482.5" font-family="Helvetica,sans-Serif" font-size="10.00">gk_fopen</text>
</a>
</g>
</g>
<!-- Node0&#45;&gt;Node12 -->
<g id="edge33" class="edge"><title>Node0&#45;&gt;Node12</title>
<path fill="none" stroke="midnightblue" d="M38.4897,-264.888C48.9153,-269.333 62.1814,-274.983 74,-280 189.496,-329.028 236.035,-311.603 334,-390 360.522,-411.224 381.445,-445.337 392.744,-466.391"/>
<polygon fill="midnightblue" stroke="midnightblue" points="389.659,-468.045 397.372,-475.309 395.872,-464.821 389.659,-468.045"/>
</g>
<!-- Node15 -->
<g id="node16" class="node"><title>Node15</title>
<g id="a_node16"><a xlink:href="$a00077.html#a0fd03cab5187904b005485109d9fa2b5" xlink:title="gk_fclose">
<polygon fill="white" stroke="black" points="373.5,-361.5 373.5,-380.5 432.5,-380.5 432.5,-361.5 373.5,-361.5"/>
<text text-anchor="middle" x="403" y="-368.5" font-family="Helvetica,sans-Serif" font-size="10.00">gk_fclose</text>
</a>
</g>
</g>
<!-- Node0&#45;&gt;Node15 -->
<g id="edge35" class="edge"><title>Node0&#45;&gt;Node15</title>
<path fill="none" stroke="midnightblue" d="M38.2239,-257.726C87.885,-260.297 228.905,-271.575 334,-319 353.113,-327.625 371.814,-342.538 384.751,-354.189"/>
<polygon fill="midnightblue" stroke="midnightblue" points="382.661,-357.025 392.367,-361.274 387.429,-351.9 382.661,-357.025"/>
</g>
<!-- Node20 -->
<g id="node21" class="node"><title>Node20</title>
<g id="a_node21"><a xlink:href="$a00077.html#ac8df62c4e3d0910711a9874f9cc58884" xlink:title="gk_free">
<polygon fill="white" stroke="black" points="378,-171.5 378,-190.5 428,-190.5 428,-171.5 378,-171.5"/>
<text text-anchor="middle" x="403" y="-178.5" font-family="Helvetica,sans-Serif" font-size="10.00">gk_free</text>
</a>
</g>
</g>
<!-- Node0&#45;&gt;Node20 -->
<g id="edge36" class="edge"><title>Node0&#45;&gt;Node20</title>
<path fill="none" stroke="midnightblue" d="M25.9832,-247.457C34.7624,-234.355 52.452,-211.155 74,-200 170.488,-150.051 304.98,-163.913 367.503,-174.281"/>
<polygon fill="midnightblue" stroke="midnightblue" points="367.16,-177.774 377.61,-176.032 368.355,-170.876 367.16,-177.774"/>
</g>
<!-- Node21 -->
<g id="node22" class="node"><title>Node21</title>
<g id="a_node22"><a xlink:href="$a00867.html#a2270624f104a1d261314dd112e4a1d1d" xlink:title="print_init_info">
<polygon fill="white" stroke="black" points="84,-57.5 84,-76.5 160,-76.5 160,-57.5 84,-57.5"/>
<text text-anchor="middle" x="122" y="-64.5" font-family="Helvetica,sans-Serif" font-size="10.00">print_init_info</text>
</a>
</g>
</g>
<!-- Node0&#45;&gt;Node21 -->
<g id="edge30" class="edge"><title>Node0&#45;&gt;Node21</title>
<path fill="none" stroke="midnightblue" d="M20.2851,-247.477C21.6374,-219.123 29.4037,-134.232 74,-86 75.3444,-84.546 76.8155,-83.2008 78.3808,-81.9566"/>
<polygon fill="midnightblue" stroke="midnightblue" points="80.3058,-84.88 86.8396,-76.5397 76.5309,-78.9851 80.3058,-84.88"/>
</g>
<!-- Node22 -->
<g id="node23" class="node"><title>Node22</title>
<g id="a_node23"><a xlink:href="$a00134.html#a5f79542ae883d026565a71bab5bca8d4" xlink:title="gk_rw_PageRank">
<polygon fill="white" stroke="black" points="74.5,-95.5 74.5,-114.5 169.5,-114.5 169.5,-95.5 74.5,-95.5"/>
<text text-anchor="middle" x="122" y="-102.5" font-family="Helvetica,sans-Serif" font-size="10.00">gk_rw_PageRank</text>
</a>
</g>
</g>
<!-- Node0&#45;&gt;Node22 -->
<g id="edge31" class="edge"><title>Node0&#45;&gt;Node22</title>
<path fill="none" stroke="midnightblue" d="M21.6987,-247.424C26.2416,-224.334 40.6639,-164.859 74,-129 77.3335,-125.414 81.3232,-122.28 85.55,-119.564"/>
<polygon fill="midnightblue" stroke="midnightblue" points="87.4271,-122.524 94.4246,-114.569 83.9934,-116.424 87.4271,-122.524"/>
</g>
<!-- Node23 -->
<g id="node24" class="node"><title>Node23</title>
<g id="a_node24"><a xlink:href="$a00023.html#ac3736361b8d6b391356f273c960c203b" xlink:title="gk_csr_Free">
<polygon fill="white" stroke="black" points="86,-209.5 86,-228.5 158,-228.5 158,-209.5 86,-209.5"/>
<text text-anchor="middle" x="122" y="-216.5" font-family="Helvetica,sans-Serif" font-size="10.00">gk_csr_Free</text>
</a>
</g>
</g>
<!-- Node0&#45;&gt;Node23 -->
<g id="edge37" class="edge"><title>Node0&#45;&gt;Node23</title>
<path fill="none" stroke="midnightblue" d="M38.0568,-250.206C51.3075,-245.221 69.7261,-238.291 85.8416,-232.228"/>
<polygon fill="midnightblue" stroke="midnightblue" points="87.3844,-235.387 95.5114,-228.59 84.9194,-228.835 87.3844,-235.387"/>
</g>
<!-- Node25 -->
<g id="node26" class="node"><title>Node25</title>
<g id="a_node26"><a xlink:href="$a00867.html#a702976a4c55992ddbfc1918ec1b70943" xlink:title="print_final_info">
<polygon fill="white" stroke="black" points="81,-19.5 81,-38.5 163,-38.5 163,-19.5 81,-19.5"/>
<text text-anchor="middle" x="122" y="-26.5" font-family="Helvetica,sans-Serif" font-size="10.00">print_final_info</text>
</a>
</g>
</g>
<!-- Node0&#45;&gt;Node25 -->
<g id="edge41" class="edge"><title>Node0&#45;&gt;Node25</title>
<path fill="none" stroke="midnightblue" d="M19.6246,-247.297C18.8989,-214.823 20.8868,-108.59 74,-48 75.1567,-46.6805 76.4183,-45.4512 77.7615,-44.3062"/>
<polygon fill="midnightblue" stroke="midnightblue" points="79.849,-47.12 86.1832,-38.6272 75.9353,-41.3162 79.849,-47.12"/>
</g>
<!-- Node2 -->
<g id="node3" class="node"><title>Node2</title>
<g id="a_node3"><a xlink:href="$a00077.html#aba6f76f5c67b9b7e9c2e45988d3d3e9d" xlink:title="gk_malloc">
<polygon fill="white" stroke="black" points="372,-703.5 372,-722.5 434,-722.5 434,-703.5 372,-703.5"/>
<text text-anchor="middle" x="403" y="-710.5" font-family="Helvetica,sans-Serif" font-size="10.00">gk_malloc</text>
</a>
</g>
</g>
<!-- Node1&#45;&gt;Node2 -->
<g id="edge2" class="edge"><title>Node1&#45;&gt;Node2</title>
<path fill="none" stroke="midnightblue" d="M156.625,-722.507C171.605,-726.272 189.548,-730.141 206,-732 262.529,-738.388 277.638,-739.726 334,-732 344.095,-730.616 354.803,-728.128 364.663,-725.398"/>
<polygon fill="midnightblue" stroke="midnightblue" points="365.953,-728.668 374.569,-722.502 363.989,-721.949 365.953,-728.668"/>
</g>
<!-- Node7 -->
<g id="node8" class="node"><title>Node7</title>
<g id="a_node8"><a xlink:href="$a00038.html#abb224612ca0aae2d39bd87f6146bd67d" xlink:title="Parse command&#45;line arguments with only long options. ">
<polygon fill="white" stroke="black" points="215.5,-703.5 215.5,-722.5 324.5,-722.5 324.5,-703.5 215.5,-703.5"/>
<text text-anchor="middle" x="270" y="-710.5" font-family="Helvetica,sans-Serif" font-size="10.00">gk_getopt_long_only</text>
</a>
</g>
</g>
<!-- Node1&#45;&gt;Node7 -->
<g id="edge8" class="edge"><title>Node1&#45;&gt;Node7</title>
<path fill="none" stroke="midnightblue" d="M163.282,-713C176.254,-713 190.965,-713 205.201,-713"/>
<polygon fill="midnightblue" stroke="midnightblue" points="205.452,-716.5 215.452,-713 205.452,-709.5 205.452,-716.5"/>
</g>
<!-- Node2&#45;&gt;Node3 -->
<g id="edge3" class="edge"><title>Node2&#45;&gt;Node3</title>
<path fill="none" stroke="midnightblue" d="M432.609,-722.584C471.412,-734.065 542.484,-749.672 600,-732 614.039,-727.686 627.719,-718.525 638.044,-710.279"/>
<polygon fill="midnightblue" stroke="midnightblue" points="640.469,-712.813 645.862,-703.694 635.959,-707.46 640.469,-712.813"/>
</g>
<!-- Node4 -->
<g id="node5" class="node"><title>Node4</title>
<g id="a_node5"><a xlink:href="$a00110.html#ad2327b94227019b6753b6b09400c0522" xlink:title="gk_GetCurMemoryUsed">
<polygon fill="white" stroke="black" points="474,-703.5 474,-722.5 598,-722.5 598,-703.5 474,-703.5"/>
<text text-anchor="middle" x="536" y="-710.5" font-family="Helvetica,sans-Serif" font-size="10.00">gk_GetCurMemoryUsed</text>
</a>
</g>
</g>
<!-- Node2&#45;&gt;Node4 -->
<g id="edge4" class="edge"><title>Node2&#45;&gt;Node4</title>
<path fill="none" stroke="midnightblue" d="M434.054,-713C443.041,-713 453.303,-713 463.761,-713"/>
<polygon fill="midnightblue" stroke="midnightblue" points="463.813,-716.5 473.813,-713 463.813,-709.5 463.813,-716.5"/>
</g>
<!-- Node5 -->
<g id="node6" class="node"><title>Node5</title>
<g id="a_node6"><a xlink:href="$a00110.html#a656fd5266ae12a96e53125486f8fea52" xlink:title="gk_GetMaxMemoryUsed">
<polygon fill="white" stroke="black" points="472.5,-665.5 472.5,-684.5 599.5,-684.5 599.5,-665.5 472.5,-665.5"/>
<text text-anchor="middle" x="536" y="-672.5" font-family="Helvetica,sans-Serif" font-size="10.00">gk_GetMaxMemoryUsed</text>
</a>
</g>
</g>
<!-- Node2&#45;&gt;Node5 -->
<g id="edge5" class="edge"><title>Node2&#45;&gt;Node5</title>
<path fill="none" stroke="midnightblue" d="M434.054,-704.282C451.293,-699.281 473.22,-692.921 492.231,-687.406"/>
<polygon fill="midnightblue" stroke="midnightblue" points="493.237,-690.759 501.866,-684.611 491.287,-684.036 493.237,-690.759"/>
</g>
<!-- Node6 -->
<g id="node7" class="node"><title>Node6</title>
<g id="a_node7"><a xlink:href="$a00026.html#a4c320c13bcdc9967613253ef4c73f59f" xlink:title="gk_errexit">
<polygon fill="white" stroke="black" points="506,-627.5 506,-646.5 566,-646.5 566,-627.5 506,-627.5"/>
<text text-anchor="middle" x="536" y="-634.5" font-family="Helvetica,sans-Serif" font-size="10.00">gk_errexit</text>
</a>
</g>
</g>
<!-- Node2&#45;&gt;Node6 -->
<g id="edge6" class="edge"><title>Node2&#45;&gt;Node6</title>
<path fill="none" stroke="midnightblue" d="M422.183,-703.382C426.857,-700.598 431.76,-697.388 436,-694 454.176,-679.478 452.199,-668.213 472,-656 479.338,-651.474 487.825,-647.965 496.145,-645.267"/>
<polygon fill="midnightblue" stroke="midnightblue" points="497.139,-648.623 505.757,-642.46 495.177,-641.904 497.139,-648.623"/>
</g>
<!-- Node6&#45;&gt;Node3 -->
<g id="edge7" class="edge"><title>Node6&#45;&gt;Node3</title>
<path fill="none" stroke="midnightblue" d="M566.228,-643.825C577.104,-646.876 589.377,-650.94 600,-656 612.634,-662.018 625.634,-670.663 635.925,-678.186"/>
<polygon fill="midnightblue" stroke="midnightblue" points="634.101,-681.194 644.194,-684.415 638.313,-675.603 634.101,-681.194"/>
</g>
<!-- Node8&#45;&gt;Node6 -->
<g id="edge11" class="edge"><title>Node8&#45;&gt;Node6</title>
<path fill="none" stroke="midnightblue" d="M134.363,-494.583C149.712,-507.093 178.342,-528.93 206,-542 305.29,-588.919 432.583,-617.589 495.774,-629.918"/>
<polygon fill="midnightblue" stroke="midnightblue" points="495.236,-633.379 505.716,-631.826 496.555,-626.504 495.236,-633.379"/>
</g>
<!-- Node9 -->
<g id="node10" class="node"><title>Node9</title>
<g id="a_node10"><a xlink:href="$a00035.html#a627221a374552b5b6659d855b7446187" xlink:title="gk_fexists">
<polygon fill="white" stroke="black" points="239.5,-399.5 239.5,-418.5 300.5,-418.5 300.5,-399.5 239.5,-399.5"/>
<text text-anchor="middle" x="270" y="-406.5" font-family="Helvetica,sans-Serif" font-size="10.00">gk_fexists</text>
</a>
</g>
</g>
<!-- Node8&#45;&gt;Node9 -->
<g id="edge10" class="edge"><title>Node8&#45;&gt;Node9</title>
<path fill="none" stroke="midnightblue" d="M134.386,-475.466C149.761,-463.01 178.419,-441.233 206,-428 213.469,-424.416 221.762,-421.339 229.812,-418.767"/>
<polygon fill="midnightblue" stroke="midnightblue" points="230.865,-422.106 239.44,-415.883 228.856,-415.4 230.865,-422.106"/>
</g>
<!-- Node10 -->
<g id="node11" class="node"><title>Node10</title>
<g id="a_node11"><a xlink:href="$a00023.html#a82b885bbed5bd18c26629c35ce5d37e4" xlink:title="gk_csr_Create">
<polygon fill="white" stroke="black" points="229,-665.5 229,-684.5 311,-684.5 311,-665.5 229,-665.5"/>
<text text-anchor="middle" x="270" y="-672.5" font-family="Helvetica,sans-Serif" font-size="10.00">gk_csr_Create</text>
</a>
</g>
</g>
<!-- Node8&#45;&gt;Node10 -->
<g id="edge12" class="edge"><title>Node8&#45;&gt;Node10</title>
<path fill="none" stroke="midnightblue" d="M124.88,-494.806C130.986,-523.953 153.01,-610.829 206,-656 209.973,-659.387 214.536,-662.17 219.351,-664.458"/>
<polygon fill="midnightblue" stroke="midnightblue" points="218.249,-667.787 228.832,-668.273 220.862,-661.293 218.249,-667.787"/>
</g>
<!-- Node8&#45;&gt;Node12 -->
<g id="edge15" class="edge"><title>Node8&#45;&gt;Node12</title>
<path fill="none" stroke="midnightblue" d="M159.761,-485C212.614,-485 309.619,-485 363.448,-485"/>
<polygon fill="midnightblue" stroke="midnightblue" points="363.613,-488.5 373.613,-485 363.613,-481.5 363.613,-488.5"/>
</g>
<!-- Node13 -->
<g id="node14" class="node"><title>Node13</title>
<g id="a_node14"><a xlink:href="$a00575.html#ae6aab5c308faac0fc539cc9c6da9fbd0" xlink:title="sprintf">
<polygon fill="white" stroke="black" points="514,-494.5 514,-513.5 558,-513.5 558,-494.5 514,-494.5"/>
<text text-anchor="middle" x="536" y="-501.5" font-family="Helvetica,sans-Serif" font-size="10.00">sprintf</text>
</a>
</g>
</g>
<!-- Node8&#45;&gt;Node13 -->
<g id="edge24" class="edge"><title>Node8&#45;&gt;Node13</title>
<path fill="none" stroke="midnightblue" d="M159.628,-492.287C174.024,-494.86 190.731,-497.487 206,-499 314.904,-509.794 445.059,-507.233 503.67,-505.26"/>
<polygon fill="midnightblue" stroke="midnightblue" points="503.891,-508.755 513.761,-504.902 503.643,-501.759 503.891,-508.755"/>
</g>
<!-- Node14 -->
<g id="node15" class="node"><title>Node14</title>
<g id="a_node15"><a xlink:href="$a00026.html#a56d0f2cc40cd8633a784582d6200d8b5" xlink:title="errexit">
<polygon fill="white" stroke="black" points="514,-551.5 514,-570.5 558,-570.5 558,-551.5 514,-551.5"/>
<text text-anchor="middle" x="536" y="-558.5" font-family="Helvetica,sans-Serif" font-size="10.00">errexit</text>
</a>
</g>
</g>
<!-- Node8&#45;&gt;Node14 -->
<g id="edge28" class="edge"><title>Node8&#45;&gt;Node14</title>
<path fill="none" stroke="midnightblue" d="M144.425,-494.503C160.944,-501.459 184.521,-510.591 206,-516 313.363,-543.036 444.795,-554.833 503.763,-559.04"/>
<polygon fill="midnightblue" stroke="midnightblue" points="503.691,-562.543 513.908,-559.739 504.172,-555.56 503.691,-562.543"/>
</g>
<!-- Node8&#45;&gt;Node15 -->
<g id="edge19" class="edge"><title>Node8&#45;&gt;Node15</title>
<path fill="none" stroke="midnightblue" d="M128.079,-475.33C139.161,-455.346 167.625,-409.72 206,-390 255.651,-364.486 321.704,-363.79 363.035,-366.632"/>
<polygon fill="midnightblue" stroke="midnightblue" points="362.994,-370.139 373.239,-367.44 363.547,-363.161 362.994,-370.139"/>
</g>
<!-- Node17 -->
<g id="node18" class="node"><title>Node17</title>
<g id="a_node18"><a xlink:href="$a00077.html#ad8263f64108434d7ebab9799b5ab9632" xlink:title="gk_getline">
<polygon fill="white" stroke="black" points="239,-627.5 239,-646.5 301,-646.5 301,-627.5 239,-627.5"/>
<text text-anchor="middle" x="270" y="-634.5" font-family="Helvetica,sans-Serif" font-size="10.00">gk_getline</text>
</a>
</g>
</g>
<!-- Node8&#45;&gt;Node17 -->
<g id="edge21" class="edge"><title>Node8&#45;&gt;Node17</title>
<path fill="none" stroke="midnightblue" d="M126.823,-494.842C136.496,-518.52 164.185,-579.203 206,-613 212.804,-618.5 221.006,-622.834 229.21,-626.214"/>
<polygon fill="midnightblue" stroke="midnightblue" points="228.164,-629.559 238.757,-629.757 230.599,-622.996 228.164,-629.559"/>
</g>
<!-- Node19 -->
<g id="node20" class="node"><title>Node19</title>
<g id="a_node20"><a xlink:href="$a00035.html#a739112cb142f2e96d6952140c66cd31c" xlink:title="gk_getfilestats">
<polygon fill="white" stroke="black" points="230,-437.5 230,-456.5 310,-456.5 310,-437.5 230,-437.5"/>
<text text-anchor="middle" x="270" y="-444.5" font-family="Helvetica,sans-Serif" font-size="10.00">gk_getfilestats</text>
</a>
</g>
</g>
<!-- Node8&#45;&gt;Node19 -->
<g id="edge25" class="edge"><title>Node8&#45;&gt;Node19</title>
<path fill="none" stroke="midnightblue" d="M159.842,-475.411C178.848,-470.464 202.229,-464.379 222.469,-459.111"/>
<polygon fill="midnightblue" stroke="midnightblue" points="223.627,-462.426 232.423,-456.52 221.864,-455.652 223.627,-462.426"/>
</g>
<!-- Node8&#45;&gt;Node20 -->
<g id="edge29" class="edge"><title>Node8&#45;&gt;Node20</title>
<path fill="none" stroke="midnightblue" d="M128.336,-475.441C140.585,-453.89 172.272,-400.329 206,-361 236.24,-325.738 339.913,-234.806 382.992,-197.422"/>
<polygon fill="midnightblue" stroke="midnightblue" points="385.495,-199.885 390.761,-190.692 380.911,-194.595 385.495,-199.885"/>
</g>
<!-- Node10&#45;&gt;Node2 -->
<g id="edge13" class="edge"><title>Node10&#45;&gt;Node2</title>
<path fill="none" stroke="midnightblue" d="M304.057,-684.589C321.661,-689.696 343.448,-696.016 362.001,-701.397"/>
<polygon fill="midnightblue" stroke="midnightblue" points="361.068,-704.771 371.648,-704.195 363.019,-698.048 361.068,-704.771"/>
</g>
<!-- Node11 -->
<g id="node12" class="node"><title>Node11</title>
<g id="a_node12"><a xlink:href="$a00023.html#a47a303d88c3316bd821219cae39d0461" xlink:title="gk_csr_Init">
<polygon fill="white" stroke="black" points="370.5,-665.5 370.5,-684.5 435.5,-684.5 435.5,-665.5 370.5,-665.5"/>
<text text-anchor="middle" x="403" y="-672.5" font-family="Helvetica,sans-Serif" font-size="10.00">gk_csr_Init</text>
</a>
</g>
</g>
<!-- Node10&#45;&gt;Node11 -->
<g id="edge14" class="edge"><title>Node10&#45;&gt;Node11</title>
<path fill="none" stroke="midnightblue" d="M311.016,-675C326.422,-675 344.057,-675 359.674,-675"/>
<polygon fill="midnightblue" stroke="midnightblue" points="360.111,-678.5 370.111,-675 360.111,-671.5 360.111,-678.5"/>
</g>
<!-- Node12&#45;&gt;Node13 -->
<g id="edge16" class="edge"><title>Node12&#45;&gt;Node13</title>
<path fill="none" stroke="midnightblue" d="M432.103,-489.076C453.165,-492.131 481.986,-496.311 503.768,-499.47"/>
<polygon fill="midnightblue" stroke="midnightblue" points="503.432,-502.958 513.831,-500.93 504.437,-496.03 503.432,-502.958"/>
</g>
<!-- Node12&#45;&gt;Node14 -->
<g id="edge17" class="edge"><title>Node12&#45;&gt;Node14</title>
<path fill="none" stroke="midnightblue" d="M420.591,-494.625C443.034,-507.645 483.273,-530.991 509.552,-546.236"/>
<polygon fill="midnightblue" stroke="midnightblue" points="508.137,-549.462 518.543,-551.453 511.65,-543.407 508.137,-549.462"/>
</g>
<!-- Node14&#45;&gt;Node3 -->
<g id="edge18" class="edge"><title>Node14&#45;&gt;Node3</title>
<path fill="none" stroke="midnightblue" d="M549.275,-570.842C562.483,-581.712 583.775,-600.058 600,-618 616.725,-636.494 633.349,-659.849 644.086,-675.755"/>
<polygon fill="midnightblue" stroke="midnightblue" points="641.229,-677.78 649.683,-684.166 647.057,-673.902 641.229,-677.78"/>
</g>
<!-- Node16 -->
<g id="node17" class="node"><title>Node16</title>
<g id="a_node17"><a xlink:href="$a01017.html#a355ed4cdac2a27aa04a6689ac2d7e86e" xlink:title="fclose">
<polygon fill="white" stroke="black" points="514.5,-361.5 514.5,-380.5 557.5,-380.5 557.5,-361.5 514.5,-361.5"/>
<text text-anchor="middle" x="536" y="-368.5" font-family="Helvetica,sans-Serif" font-size="10.00">fclose</text>
</a>
</g>
</g>
<!-- Node15&#45;&gt;Node16 -->
<g id="edge20" class="edge"><title>Node15&#45;&gt;Node16</title>
<path fill="none" stroke="midnightblue" d="M432.749,-371C453.882,-371 482.562,-371 504.17,-371"/>
<polygon fill="midnightblue" stroke="midnightblue" points="504.446,-374.5 514.446,-371 504.446,-367.5 504.446,-374.5"/>
</g>
<!-- Node17&#45;&gt;Node2 -->
<g id="edge22" class="edge"><title>Node17&#45;&gt;Node2</title>
<path fill="none" stroke="midnightblue" d="M301.199,-642.714C312.066,-645.624 324.082,-649.883 334,-656 353.801,-668.213 351.824,-679.478 370,-694 371.59,-695.27 373.273,-696.516 375.003,-697.723"/>
<polygon fill="midnightblue" stroke="midnightblue" points="373.511,-700.925 383.817,-703.382 377.293,-695.034 373.511,-700.925"/>
</g>
<!-- Node18 -->
<g id="node19" class="node"><title>Node18</title>
<g id="a_node19"><a xlink:href="$a00077.html#ab76a07ccd25288dd9acc99f5f24a7600" xlink:title="gk_realloc">
<polygon fill="white" stroke="black" points="372,-627.5 372,-646.5 434,-646.5 434,-627.5 372,-627.5"/>
<text text-anchor="middle" x="403" y="-634.5" font-family="Helvetica,sans-Serif" font-size="10.00">gk_realloc</text>
</a>
</g>
</g>
<!-- Node17&#45;&gt;Node18 -->
<g id="edge23" class="edge"><title>Node17&#45;&gt;Node18</title>
<path fill="none" stroke="midnightblue" d="M301.054,-637C318.983,-637 341.981,-637 361.497,-637"/>
<polygon fill="midnightblue" stroke="midnightblue" points="361.632,-640.5 371.632,-637 361.632,-633.5 361.632,-640.5"/>
</g>
<!-- Node19&#45;&gt;Node12 -->
<g id="edge26" class="edge"><title>Node19&#45;&gt;Node12</title>
<path fill="none" stroke="midnightblue" d="M304.057,-456.589C322.304,-461.882 345.044,-468.478 364.019,-473.983"/>
<polygon fill="midnightblue" stroke="midnightblue" points="363.258,-477.406 373.837,-476.831 365.208,-470.683 363.258,-477.406"/>
</g>
<!-- Node19&#45;&gt;Node15 -->
<g id="edge27" class="edge"><title>Node19&#45;&gt;Node15</title>
<path fill="none" stroke="midnightblue" d="M310.305,-437.83C318.387,-435.212 326.662,-431.964 334,-428 353.53,-417.451 372.618,-400.718 385.574,-388.106"/>
<polygon fill="midnightblue" stroke="midnightblue" points="388.205,-390.425 392.798,-380.877 383.254,-385.476 388.205,-390.425"/>
</g>
<!-- Node22&#45;&gt;Node20 -->
<g id="edge32" class="edge"><title>Node22&#45;&gt;Node20</title>
<path fill="none" stroke="midnightblue" d="M169.593,-103.285C213.543,-103.267 280.483,-107.435 334,-129 353.676,-136.928 372.55,-152.181 385.4,-164.126"/>
<polygon fill="midnightblue" stroke="midnightblue" points="383.296,-166.96 392.922,-171.387 388.158,-161.924 383.296,-166.96"/>
</g>
<!-- Node23&#45;&gt;Node20 -->
<g id="edge40" class="edge"><title>Node23&#45;&gt;Node20</title>
<path fill="none" stroke="midnightblue" d="M158.346,-209.855C173.006,-206.338 190.241,-202.557 206,-200 262.26,-190.872 328.367,-185.575 367.636,-182.991"/>
<polygon fill="midnightblue" stroke="midnightblue" points="367.975,-186.476 377.732,-182.347 367.53,-179.49 367.975,-186.476"/>
</g>
<!-- Node24 -->
<g id="node25" class="node"><title>Node24</title>
<g id="a_node25"><a xlink:href="$a00023.html#a9646f29b0605ba264bf373c441a6826d" xlink:title="gk_csr_FreeContents">
<polygon fill="white" stroke="black" points="214,-209.5 214,-228.5 326,-228.5 326,-209.5 214,-209.5"/>
<text text-anchor="middle" x="270" y="-216.5" font-family="Helvetica,sans-Serif" font-size="10.00">gk_csr_FreeContents</text>
</a>
</g>
</g>
<!-- Node23&#45;&gt;Node24 -->
<g id="edge38" class="edge"><title>Node23&#45;&gt;Node24</title>
<path fill="none" stroke="midnightblue" d="M158.343,-219C171.981,-219 188.033,-219 203.618,-219"/>
<polygon fill="midnightblue" stroke="midnightblue" points="203.761,-222.5 213.761,-219 203.761,-215.5 203.761,-222.5"/>
</g>
<!-- Node24&#45;&gt;Node20 -->
<g id="edge39" class="edge"><title>Node24&#45;&gt;Node20</title>
<path fill="none" stroke="midnightblue" d="M304.057,-209.411C323.549,-203.757 348.171,-196.615 367.851,-190.906"/>
<polygon fill="midnightblue" stroke="midnightblue" points="369.009,-194.214 377.638,-188.067 367.059,-187.491 369.009,-194.214"/>
</g>
<!-- Node26 -->
<g id="node27" class="node"><title>Node26</title>
<g id="a_node27"><a xlink:href="$a00077.html#a656fd5266ae12a96e53125486f8fea52" xlink:title="gk_GetMaxMemoryUsed">
<polygon fill="white" stroke="black" points="206.5,-0.5 206.5,-19.5 333.5,-19.5 333.5,-0.5 206.5,-0.5"/>
<text text-anchor="middle" x="270" y="-7.5" font-family="Helvetica,sans-Serif" font-size="10.00">gk_GetMaxMemoryUsed</text>
</a>
</g>
</g>
<!-- Node25&#45;&gt;Node26 -->
<g id="edge42" class="edge"><title>Node25&#45;&gt;Node26</title>
<path fill="none" stroke="midnightblue" d="M163.282,-23.7579C173.596,-22.4156 185.009,-20.9303 196.409,-19.4467"/>
<polygon fill="midnightblue" stroke="midnightblue" points="196.931,-22.9084 206.396,-18.1471 196.028,-15.9669 196.931,-22.9084"/>
</g>
<!-- Node27 -->
<g id="node28" class="node"><title>Node27</title>
<g id="a_node28"><a xlink:href="$a00077.html#ad2327b94227019b6753b6b09400c0522" xlink:title="gk_GetCurMemoryUsed">
<polygon fill="white" stroke="black" points="208,-38.5 208,-57.5 332,-57.5 332,-38.5 208,-38.5"/>
<text text-anchor="middle" x="270" y="-45.5" font-family="Helvetica,sans-Serif" font-size="10.00">gk_GetCurMemoryUsed</text>
</a>
</g>
</g>
<!-- Node25&#45;&gt;Node27 -->
<g id="edge43" class="edge"><title>Node25&#45;&gt;Node27</title>
<path fill="none" stroke="midnightblue" d="M163.282,-34.2421C174.03,-35.6409 185.972,-37.1949 197.848,-38.7405"/>
<polygon fill="midnightblue" stroke="midnightblue" points="197.413,-42.2133 207.781,-40.0331 198.316,-35.2718 197.413,-42.2133"/>
</g>
</g>
</svg>
