<?xml version="1.0" encoding="UTF-8" standalone="no"?>
<!DOCTYPE svg PUBLIC "-//W3C//DTD SVG 1.1//EN"
 "http://www.w3.org/Graphics/SVG/1.1/DTD/svg11.dtd">
<!-- Generated by graphviz version 2.36.0 (20140111.2315)
 -->
<!-- Title: gk_graph_Dup Pages: 1 -->
<svg width="576pt" height="124pt"
 viewBox="0.00 0.00 576.00 124.49" xmlns="http://www.w3.org/2000/svg" xmlns:xlink="http://www.w3.org/1999/xlink">
<g id="graph0" class="graph" transform="scale(1 1) rotate(0) translate(4 120.487)">
<title>gk_graph_Dup</title>
<polygon fill="white" stroke="none" points="-4,4 -4,-120.487 572,-120.487 572,4 -4,4"/>
<!-- Node28 -->
<g id="node1" class="node"><title>Node28</title>
<polygon fill="#bfbfbf" stroke="black" points="0,-38.5 0,-57.5 82,-57.5 82,-38.5 0,-38.5"/>
<text text-anchor="middle" x="41" y="-45.5" font-family="Helvetica,sans-Serif" font-size="10.00">gk_graph_Dup</text>
</g>
<!-- Node29 -->
<g id="node2" class="node"><title>Node29</title>
<g id="a_node2"><a xlink:href="$a00849.html#a0d092a371d797437de53ae1a64bd78f4" xlink:title="gk_graph_Create">
<polygon fill="white" stroke="black" points="118,-38.5 118,-57.5 212,-57.5 212,-38.5 118,-38.5"/>
<text text-anchor="middle" x="165" y="-45.5" font-family="Helvetica,sans-Serif" font-size="10.00">gk_graph_Create</text>
</a>
</g>
</g>
<!-- Node28&#45;&gt;Node29 -->
<g id="edge1" class="edge"><title>Node28&#45;&gt;Node29</title>
<path fill="none" stroke="midnightblue" d="M82.2855,-48C90.4667,-48 99.2121,-48 107.828,-48"/>
<polygon fill="midnightblue" stroke="midnightblue" points="107.842,-51.5001 117.842,-48 107.842,-44.5001 107.842,-51.5001"/>
</g>
<!-- Node30 -->
<g id="node3" class="node"><title>Node30</title>
<g id="a_node3"><a xlink:href="$a00077.html#aba6f76f5c67b9b7e9c2e45988d3d3e9d" xlink:title="gk_malloc">
<polygon fill="white" stroke="black" points="256,-57.5 256,-76.5 318,-76.5 318,-57.5 256,-57.5"/>
<text text-anchor="middle" x="287" y="-64.5" font-family="Helvetica,sans-Serif" font-size="10.00">gk_malloc</text>
</a>
</g>
</g>
<!-- Node29&#45;&gt;Node30 -->
<g id="edge2" class="edge"><title>Node29&#45;&gt;Node30</title>
<path fill="none" stroke="midnightblue" d="M212.052,-55.2916C223.171,-57.0521 234.967,-58.9198 245.795,-60.6342"/>
<polygon fill="midnightblue" stroke="midnightblue" points="245.401,-64.1154 255.825,-62.2224 246.496,-57.2015 245.401,-64.1154"/>
</g>
<!-- Node35 -->
<g id="node8" class="node"><title>Node35</title>
<g id="a_node8"><a xlink:href="$a00849.html#ab017e0e6f2436f3ad24ea01d8b2c588c" xlink:title="gk_graph_Init">
<polygon fill="white" stroke="black" points="248.5,-19.5 248.5,-38.5 325.5,-38.5 325.5,-19.5 248.5,-19.5"/>
<text text-anchor="middle" x="287" y="-26.5" font-family="Helvetica,sans-Serif" font-size="10.00">gk_graph_Init</text>
</a>
</g>
</g>
<!-- Node29&#45;&gt;Node35 -->
<g id="edge8" class="edge"><title>Node29&#45;&gt;Node35</title>
<path fill="none" stroke="midnightblue" d="M212.052,-40.7084C220.698,-39.3395 229.753,-37.9058 238.444,-36.5297"/>
<polygon fill="midnightblue" stroke="midnightblue" points="239.103,-39.9691 248.432,-34.9482 238.008,-33.0552 239.103,-39.9691"/>
</g>
<!-- Node31 -->
<g id="node4" class="node"><title>Node31</title>
<g id="a_node4"><a xlink:href="$a01017.html#a2e311a777ffe9c80e405efa7cd2757be" xlink:title="fprintf">
<polygon fill="white" stroke="black" points="526,-57.5 526,-76.5 568,-76.5 568,-57.5 526,-57.5"/>
<text text-anchor="middle" x="547" y="-64.5" font-family="Helvetica,sans-Serif" font-size="10.00">fprintf</text>
</a>
</g>
</g>
<!-- Node30&#45;&gt;Node31 -->
<g id="edge3" class="edge"><title>Node30&#45;&gt;Node31</title>
<path fill="none" stroke="midnightblue" d="M301.671,-76.5579C315.957,-85.915 339.399,-99.5362 362,-105 417.296,-118.368 435.62,-121.709 490,-105 504.039,-100.686 517.719,-91.5255 528.044,-83.2793"/>
<polygon fill="midnightblue" stroke="midnightblue" points="530.469,-85.8134 535.862,-76.6941 525.959,-80.4595 530.469,-85.8134"/>
</g>
<!-- Node32 -->
<g id="node5" class="node"><title>Node32</title>
<g id="a_node5"><a xlink:href="$a00110.html#ad2327b94227019b6753b6b09400c0522" xlink:title="gk_GetCurMemoryUsed">
<polygon fill="white" stroke="black" points="364,-76.5 364,-95.5 488,-95.5 488,-76.5 364,-76.5"/>
<text text-anchor="middle" x="426" y="-83.5" font-family="Helvetica,sans-Serif" font-size="10.00">gk_GetCurMemoryUsed</text>
</a>
</g>
</g>
<!-- Node30&#45;&gt;Node32 -->
<g id="edge4" class="edge"><title>Node30&#45;&gt;Node32</title>
<path fill="none" stroke="midnightblue" d="M318.065,-71.1696C328.693,-72.6436 341.146,-74.3706 353.724,-76.115"/>
<polygon fill="midnightblue" stroke="midnightblue" points="353.419,-79.6062 363.806,-77.5132 354.381,-72.6726 353.419,-79.6062"/>
</g>
<!-- Node33 -->
<g id="node6" class="node"><title>Node33</title>
<g id="a_node6"><a xlink:href="$a00110.html#a656fd5266ae12a96e53125486f8fea52" xlink:title="gk_GetMaxMemoryUsed">
<polygon fill="white" stroke="black" points="362.5,-38.5 362.5,-57.5 489.5,-57.5 489.5,-38.5 362.5,-38.5"/>
<text text-anchor="middle" x="426" y="-45.5" font-family="Helvetica,sans-Serif" font-size="10.00">gk_GetMaxMemoryUsed</text>
</a>
</g>
</g>
<!-- Node30&#45;&gt;Node33 -->
<g id="edge5" class="edge"><title>Node30&#45;&gt;Node33</title>
<path fill="none" stroke="midnightblue" d="M318.065,-62.8304C328.28,-61.4137 340.181,-59.7632 352.259,-58.0882"/>
<polygon fill="midnightblue" stroke="midnightblue" points="352.988,-61.5207 362.412,-56.6801 352.026,-54.5871 352.988,-61.5207"/>
</g>
<!-- Node34 -->
<g id="node7" class="node"><title>Node34</title>
<g id="a_node7"><a xlink:href="$a00026.html#a4c320c13bcdc9967613253ef4c73f59f" xlink:title="gk_errexit">
<polygon fill="white" stroke="black" points="396,-0.5 396,-19.5 456,-19.5 456,-0.5 396,-0.5"/>
<text text-anchor="middle" x="426" y="-7.5" font-family="Helvetica,sans-Serif" font-size="10.00">gk_errexit</text>
</a>
</g>
</g>
<!-- Node30&#45;&gt;Node34 -->
<g id="edge6" class="edge"><title>Node30&#45;&gt;Node34</title>
<path fill="none" stroke="midnightblue" d="M307.373,-57.4161C313.359,-54.4273 319.964,-51.1012 326,-48 342.092,-39.7319 345.262,-35.866 362,-29 369.664,-25.856 378.042,-22.9687 386.113,-20.4448"/>
<polygon fill="midnightblue" stroke="midnightblue" points="387.168,-23.7826 395.738,-17.5538 385.154,-17.0785 387.168,-23.7826"/>
</g>
<!-- Node34&#45;&gt;Node31 -->
<g id="edge7" class="edge"><title>Node34&#45;&gt;Node31</title>
<path fill="none" stroke="midnightblue" d="M456.228,-16.8252C467.104,-19.8755 479.377,-23.9396 490,-29 502.634,-35.0184 515.634,-43.6626 525.925,-51.1863"/>
<polygon fill="midnightblue" stroke="midnightblue" points="524.101,-54.1937 534.194,-57.4154 528.313,-48.6027 524.101,-54.1937"/>
</g>
</g>
</svg>
