<?xml version="1.0" encoding="UTF-8" standalone="no"?>
<!DOCTYPE svg PUBLIC "-//W3C//DTD SVG 1.1//EN"
 "http://www.w3.org/Graphics/SVG/1.1/DTD/svg11.dtd">
<!-- Generated by graphviz version 2.36.0 (20140111.2315)
 -->
<!-- Title: FreeGraph Pages: 1 -->
<svg width="306pt" height="47pt"
 viewBox="0.00 0.00 306.00 47.00" xmlns="http://www.w3.org/2000/svg" xmlns:xlink="http://www.w3.org/1999/xlink">
<g id="graph0" class="graph" transform="scale(1 1) rotate(0) translate(4 43)">
<title>FreeGraph</title>
<polygon fill="white" stroke="none" points="-4,4 -4,-43 302,-43 302,4 -4,4"/>
<!-- Node8 -->
<g id="node1" class="node"><title>Node8</title>
<polygon fill="#bfbfbf" stroke="black" points="0.5,-19.5 0.5,-38.5 65.5,-38.5 65.5,-19.5 0.5,-19.5"/>
<text text-anchor="middle" x="33" y="-26.5" font-family="Helvetica,sans-Serif" font-size="10.00">FreeGraph</text>
</g>
<!-- Node9 -->
<g id="node2" class="node"><title>Node9</title>
<g id="a_node2"><a xlink:href="$a00077.html#ac8df62c4e3d0910711a9874f9cc58884" xlink:title="gk_free">
<polygon fill="white" stroke="black" points="248,-19.5 248,-38.5 298,-38.5 298,-19.5 248,-19.5"/>
<text text-anchor="middle" x="273" y="-26.5" font-family="Helvetica,sans-Serif" font-size="10.00">gk_free</text>
</a>
</g>
</g>
<!-- Node8&#45;&gt;Node9 -->
<g id="edge1" class="edge"><title>Node8&#45;&gt;Node9</title>
<path fill="none" stroke="midnightblue" d="M65.6046,-29C110.299,-29 191.651,-29 237.745,-29"/>
<polygon fill="midnightblue" stroke="midnightblue" points="237.841,-32.5001 247.841,-29 237.841,-25.5001 237.841,-32.5001"/>
</g>
<!-- Node10 -->
<g id="node3" class="node"><title>Node10</title>
<g id="a_node3"><a xlink:href="$a00855.html#a0ff13bda23f95ec19bb263ef036cd109" xlink:title="FreeNonGraphFields">
<polygon fill="white" stroke="black" points="102,-0.5 102,-19.5 212,-19.5 212,-0.5 102,-0.5"/>
<text text-anchor="middle" x="157" y="-7.5" font-family="Helvetica,sans-Serif" font-size="10.00">FreeNonGraphFields</text>
</a>
</g>
</g>
<!-- Node8&#45;&gt;Node10 -->
<g id="edge2" class="edge"><title>Node8&#45;&gt;Node10</title>
<path fill="none" stroke="midnightblue" d="M65.7356,-24.0576C73.7378,-22.8113 82.6207,-21.4279 91.602,-20.0292"/>
<polygon fill="midnightblue" stroke="midnightblue" points="92.4002,-23.4472 101.742,-18.4499 91.3229,-16.5305 92.4002,-23.4472"/>
</g>
<!-- Node10&#45;&gt;Node9 -->
<g id="edge3" class="edge"><title>Node10&#45;&gt;Node9</title>
<path fill="none" stroke="midnightblue" d="M212.329,-19.0548C221.022,-20.5036 229.797,-21.9662 237.845,-23.3075"/>
<polygon fill="midnightblue" stroke="midnightblue" points="237.497,-26.7978 247.937,-24.9895 238.648,-19.893 237.497,-26.7978"/>
</g>
</g>
</svg>
