<?xml version="1.0" encoding="UTF-8" standalone="no"?>
<!DOCTYPE svg PUBLIC "-//W3C//DTD SVG 1.1//EN"
 "http://www.w3.org/Graphics/SVG/1.1/DTD/svg11.dtd">
<!-- Generated by graphviz version 2.36.0 (20140111.2315)
 -->
<!-- Title: gk_getline Pages: 1 -->
<svg width="410pt" height="125pt"
 viewBox="0.00 0.00 410.00 124.90" xmlns="http://www.w3.org/2000/svg" xmlns:xlink="http://www.w3.org/1999/xlink">
<g id="graph0" class="graph" transform="scale(1 1) rotate(0) translate(4 120.901)">
<title>gk_getline</title>
<polygon fill="white" stroke="none" points="-4,4 -4,-120.901 406,-120.901 406,4 -4,4"/>
<!-- Node104 -->
<g id="node1" class="node"><title>Node104</title>
<polygon fill="#bfbfbf" stroke="black" points="0,-38.5 0,-57.5 62,-57.5 62,-38.5 0,-38.5"/>
<text text-anchor="middle" x="31" y="-45.5" font-family="Helvetica,sans-Serif" font-size="10.00">gk_getline</text>
</g>
<!-- Node105 -->
<g id="node2" class="node"><title>Node105</title>
<g id="a_node2"><a xlink:href="$a00077.html#aba6f76f5c67b9b7e9c2e45988d3d3e9d" xlink:title="gk_malloc">
<polygon fill="white" stroke="black" points="98,-57.5 98,-76.5 160,-76.5 160,-57.5 98,-57.5"/>
<text text-anchor="middle" x="129" y="-64.5" font-family="Helvetica,sans-Serif" font-size="10.00">gk_malloc</text>
</a>
</g>
</g>
<!-- Node104&#45;&gt;Node105 -->
<g id="edge1" class="edge"><title>Node104&#45;&gt;Node105</title>
<path fill="none" stroke="midnightblue" d="M62.1116,-53.9596C70.3323,-55.5866 79.3698,-57.3753 88.0462,-59.0925"/>
<polygon fill="midnightblue" stroke="midnightblue" points="87.506,-62.5534 97.9952,-61.0616 88.8651,-55.6866 87.506,-62.5534"/>
</g>
<!-- Node110 -->
<g id="node7" class="node"><title>Node110</title>
<g id="a_node7"><a xlink:href="$a00077.html#ab76a07ccd25288dd9acc99f5f24a7600" xlink:title="gk_realloc">
<polygon fill="white" stroke="black" points="98,-19.5 98,-38.5 160,-38.5 160,-19.5 98,-19.5"/>
<text text-anchor="middle" x="129" y="-26.5" font-family="Helvetica,sans-Serif" font-size="10.00">gk_realloc</text>
</a>
</g>
</g>
<!-- Node104&#45;&gt;Node110 -->
<g id="edge7" class="edge"><title>Node104&#45;&gt;Node110</title>
<path fill="none" stroke="midnightblue" d="M62.1116,-42.0404C70.3323,-40.4134 79.3698,-38.6247 88.0462,-36.9075"/>
<polygon fill="midnightblue" stroke="midnightblue" points="88.8651,-40.3134 97.9952,-34.9384 87.506,-33.4466 88.8651,-40.3134"/>
</g>
<!-- Node106 -->
<g id="node3" class="node"><title>Node106</title>
<g id="a_node3"><a xlink:href="$a01017.html#a2e311a777ffe9c80e405efa7cd2757be" xlink:title="fprintf">
<polygon fill="white" stroke="black" points="360,-57.5 360,-76.5 402,-76.5 402,-57.5 360,-57.5"/>
<text text-anchor="middle" x="381" y="-64.5" font-family="Helvetica,sans-Serif" font-size="10.00">fprintf</text>
</a>
</g>
</g>
<!-- Node105&#45;&gt;Node106 -->
<g id="edge2" class="edge"><title>Node105&#45;&gt;Node106</title>
<path fill="none" stroke="midnightblue" d="M142.261,-76.7187C154.891,-86.0589 175.563,-99.5369 196,-105 250.959,-119.691 269.62,-121.709 324,-105 338.039,-100.686 351.719,-91.5255 362.044,-83.2793"/>
<polygon fill="midnightblue" stroke="midnightblue" points="364.469,-85.8134 369.862,-76.6941 359.959,-80.4595 364.469,-85.8134"/>
</g>
<!-- Node107 -->
<g id="node4" class="node"><title>Node107</title>
<g id="a_node4"><a xlink:href="$a00110.html#ad2327b94227019b6753b6b09400c0522" xlink:title="gk_GetCurMemoryUsed">
<polygon fill="white" stroke="black" points="198,-76.5 198,-95.5 322,-95.5 322,-76.5 198,-76.5"/>
<text text-anchor="middle" x="260" y="-83.5" font-family="Helvetica,sans-Serif" font-size="10.00">gk_GetCurMemoryUsed</text>
</a>
</g>
</g>
<!-- Node105&#45;&gt;Node107 -->
<g id="edge3" class="edge"><title>Node105&#45;&gt;Node107</title>
<path fill="none" stroke="midnightblue" d="M160.245,-71.4547C168.646,-72.692 178.139,-74.0903 187.836,-75.5184"/>
<polygon fill="midnightblue" stroke="midnightblue" points="187.573,-79.0175 197.977,-77.0121 188.593,-72.0922 187.573,-79.0175"/>
</g>
<!-- Node108 -->
<g id="node5" class="node"><title>Node108</title>
<g id="a_node5"><a xlink:href="$a00110.html#a656fd5266ae12a96e53125486f8fea52" xlink:title="gk_GetMaxMemoryUsed">
<polygon fill="white" stroke="black" points="196.5,-38.5 196.5,-57.5 323.5,-57.5 323.5,-38.5 196.5,-38.5"/>
<text text-anchor="middle" x="260" y="-45.5" font-family="Helvetica,sans-Serif" font-size="10.00">gk_GetMaxMemoryUsed</text>
</a>
</g>
</g>
<!-- Node105&#45;&gt;Node108 -->
<g id="edge4" class="edge"><title>Node105&#45;&gt;Node108</title>
<path fill="none" stroke="midnightblue" d="M160.245,-62.5453C168.229,-61.3693 177.2,-60.048 186.395,-58.6938"/>
<polygon fill="midnightblue" stroke="midnightblue" points="187.04,-62.1366 196.423,-57.2167 186.02,-55.2113 187.04,-62.1366"/>
</g>
<!-- Node109 -->
<g id="node6" class="node"><title>Node109</title>
<g id="a_node6"><a xlink:href="$a00026.html#a4c320c13bcdc9967613253ef4c73f59f" xlink:title="gk_errexit">
<polygon fill="white" stroke="black" points="230,-0.5 230,-19.5 290,-19.5 290,-0.5 230,-0.5"/>
<text text-anchor="middle" x="260" y="-7.5" font-family="Helvetica,sans-Serif" font-size="10.00">gk_errexit</text>
</a>
</g>
</g>
<!-- Node105&#45;&gt;Node109 -->
<g id="edge5" class="edge"><title>Node105&#45;&gt;Node109</title>
<path fill="none" stroke="midnightblue" d="M145.589,-57.4697C161.76,-47.6847 186.047,-33.2984 196,-29 203.68,-25.6834 212.121,-22.7096 220.259,-20.1539"/>
<polygon fill="midnightblue" stroke="midnightblue" points="221.388,-23.4695 229.965,-17.2488 219.381,-16.7634 221.388,-23.4695"/>
</g>
<!-- Node109&#45;&gt;Node106 -->
<g id="edge6" class="edge"><title>Node109&#45;&gt;Node106</title>
<path fill="none" stroke="midnightblue" d="M290.228,-16.8252C301.104,-19.8755 313.377,-23.9396 324,-29 336.634,-35.0184 349.634,-43.6626 359.925,-51.1863"/>
<polygon fill="midnightblue" stroke="midnightblue" points="358.101,-54.1937 368.194,-57.4154 362.313,-48.6027 358.101,-54.1937"/>
</g>
</g>
</svg>
