<?xml version="1.0" encoding="UTF-8" standalone="no"?>
<!DOCTYPE svg PUBLIC "-//W3C//DTD SVG 1.1//EN"
 "http://www.w3.org/Graphics/SVG/1.1/DTD/svg11.dtd">
<!-- Generated by graphviz version 2.36.0 (20140111.2315)
 -->
<!-- Title: ParMETIS_V3_Mesh2Dual Pages: 1 -->
<svg width="384pt" height="180pt"
 viewBox="0.00 0.00 384.00 180.00" xmlns="http://www.w3.org/2000/svg" xmlns:xlink="http://www.w3.org/1999/xlink">
<g id="graph0" class="graph" transform="scale(1 1) rotate(0) translate(4 176)">
<title>ParMETIS_V3_Mesh2Dual</title>
<polygon fill="white" stroke="none" points="-4,4 -4,-176 380,-176 380,4 -4,4"/>
<!-- Node15 -->
<g id="node1" class="node"><title>Node15</title>
<polygon fill="#bfbfbf" stroke="black" points="0.5,-76.5 0.5,-95.5 137.5,-95.5 137.5,-76.5 0.5,-76.5"/>
<text text-anchor="middle" x="69" y="-83.5" font-family="Helvetica,sans-Serif" font-size="10.00">ParMETIS_V3_Mesh2Dual</text>
</g>
<!-- Node16 -->
<g id="node2" class="node"><title>Node16</title>
<g id="a_node2"><a xlink:href="$a00077.html#a24633cc1c72a7e92836912c2adcf570a" xlink:title="gk_malloc_init">
<polygon fill="white" stroke="black" points="196,-152.5 196,-171.5 276,-171.5 276,-152.5 196,-152.5"/>
<text text-anchor="middle" x="236" y="-159.5" font-family="Helvetica,sans-Serif" font-size="10.00">gk_malloc_init</text>
</a>
</g>
</g>
<!-- Node15&#45;&gt;Node16 -->
<g id="edge1" class="edge"><title>Node15&#45;&gt;Node16</title>
<path fill="none" stroke="midnightblue" d="M85.369,-95.6985C105.246,-107.939 141.215,-129.075 174,-143 179.168,-145.195 184.678,-147.265 190.192,-149.174"/>
<polygon fill="midnightblue" stroke="midnightblue" points="189.456,-152.617 200.049,-152.427 191.65,-145.969 189.456,-152.617"/>
</g>
<!-- Node17 -->
<g id="node3" class="node"><title>Node17</title>
<g id="a_node3"><a xlink:href="$a00077.html#ad2327b94227019b6753b6b09400c0522" xlink:title="gk_GetCurMemoryUsed">
<polygon fill="white" stroke="black" points="174,-114.5 174,-133.5 298,-133.5 298,-114.5 174,-114.5"/>
<text text-anchor="middle" x="236" y="-121.5" font-family="Helvetica,sans-Serif" font-size="10.00">gk_GetCurMemoryUsed</text>
</a>
</g>
</g>
<!-- Node15&#45;&gt;Node17 -->
<g id="edge2" class="edge"><title>Node15&#45;&gt;Node17</title>
<path fill="none" stroke="midnightblue" d="M111.636,-95.589C133.508,-100.626 160.506,-106.844 183.664,-112.177"/>
<polygon fill="midnightblue" stroke="midnightblue" points="183.133,-115.646 193.663,-114.48 184.704,-108.825 183.133,-115.646"/>
</g>
<!-- Node18 -->
<g id="node4" class="node"><title>Node18</title>
<g id="a_node4"><a xlink:href="$a00026.html#a4c320c13bcdc9967613253ef4c73f59f" xlink:title="gk_errexit">
<polygon fill="white" stroke="black" points="206,-76.5 206,-95.5 266,-95.5 266,-76.5 206,-76.5"/>
<text text-anchor="middle" x="236" y="-83.5" font-family="Helvetica,sans-Serif" font-size="10.00">gk_errexit</text>
</a>
</g>
</g>
<!-- Node15&#45;&gt;Node18 -->
<g id="edge3" class="edge"><title>Node15&#45;&gt;Node18</title>
<path fill="none" stroke="midnightblue" d="M137.588,-86C157.34,-86 178.272,-86 195.649,-86"/>
<polygon fill="midnightblue" stroke="midnightblue" points="195.967,-89.5001 205.967,-86 195.967,-82.5001 195.967,-89.5001"/>
</g>
<!-- Node20 -->
<g id="node6" class="node"><title>Node20</title>
<g id="a_node6"><a xlink:href="$a00077.html#ac8df62c4e3d0910711a9874f9cc58884" xlink:title="gk_free">
<polygon fill="white" stroke="black" points="211,-38.5 211,-57.5 261,-57.5 261,-38.5 211,-38.5"/>
<text text-anchor="middle" x="236" y="-45.5" font-family="Helvetica,sans-Serif" font-size="10.00">gk_free</text>
</a>
</g>
</g>
<!-- Node15&#45;&gt;Node20 -->
<g id="edge5" class="edge"><title>Node15&#45;&gt;Node20</title>
<path fill="none" stroke="midnightblue" d="M111.636,-76.411C139.281,-70.0445 175.114,-61.7919 201.032,-55.823"/>
<polygon fill="midnightblue" stroke="midnightblue" points="201.827,-59.2315 210.787,-53.5764 200.256,-52.4101 201.827,-59.2315"/>
</g>
<!-- Node21 -->
<g id="node7" class="node"><title>Node21</title>
<g id="a_node7"><a xlink:href="$a00077.html#a47156a22528b5bc8c7c6e9849af34e62" xlink:title="gk_malloc_cleanup">
<polygon fill="white" stroke="black" points="185,-0.5 185,-19.5 287,-19.5 287,-0.5 185,-0.5"/>
<text text-anchor="middle" x="236" y="-7.5" font-family="Helvetica,sans-Serif" font-size="10.00">gk_malloc_cleanup</text>
</a>
</g>
</g>
<!-- Node15&#45;&gt;Node21 -->
<g id="edge6" class="edge"><title>Node15&#45;&gt;Node21</title>
<path fill="none" stroke="midnightblue" d="M85.369,-76.3015C105.246,-64.0606 141.215,-42.9255 174,-29 179.168,-26.8047 184.678,-24.7346 190.192,-22.8261"/>
<polygon fill="midnightblue" stroke="midnightblue" points="191.65,-26.0308 200.049,-19.5731 189.456,-19.3834 191.65,-26.0308"/>
</g>
<!-- Node19 -->
<g id="node5" class="node"><title>Node19</title>
<g id="a_node5"><a xlink:href="$a01017.html#a2e311a777ffe9c80e405efa7cd2757be" xlink:title="fprintf">
<polygon fill="white" stroke="black" points="334,-76.5 334,-95.5 376,-95.5 376,-76.5 334,-76.5"/>
<text text-anchor="middle" x="355" y="-83.5" font-family="Helvetica,sans-Serif" font-size="10.00">fprintf</text>
</a>
</g>
</g>
<!-- Node18&#45;&gt;Node19 -->
<g id="edge4" class="edge"><title>Node18&#45;&gt;Node19</title>
<path fill="none" stroke="midnightblue" d="M266.222,-86C283.71,-86 305.902,-86 323.596,-86"/>
<polygon fill="midnightblue" stroke="midnightblue" points="323.949,-89.5001 333.949,-86 323.949,-82.5001 323.949,-89.5001"/>
</g>
</g>
</svg>
