<?xml version="1.0" encoding="UTF-8" standalone="no"?>
<!DOCTYPE svg PUBLIC "-//W3C//DTD SVG 1.1//EN"
 "http://www.w3.org/Graphics/SVG/1.1/DTD/svg11.dtd">
<!-- Generated by graphviz version 2.36.0 (20140111.2315)
 -->
<!-- Title: gk_i64readfilebin Pages: 1 -->
<svg width="378pt" height="180pt"
 viewBox="0.00 0.00 378.00 180.00" xmlns="http://www.w3.org/2000/svg" xmlns:xlink="http://www.w3.org/1999/xlink">
<g id="graph0" class="graph" transform="scale(1 1) rotate(0) translate(4 176)">
<title>gk_i64readfilebin</title>
<polygon fill="white" stroke="none" points="-4,4 -4,-176 374,-176 374,4 -4,4"/>
<!-- Node172 -->
<g id="node1" class="node"><title>Node172</title>
<polygon fill="#bfbfbf" stroke="black" points="0,-76.5 0,-95.5 92,-95.5 92,-76.5 0,-76.5"/>
<text text-anchor="middle" x="46" y="-83.5" font-family="Helvetica,sans-Serif" font-size="10.00">gk_i64readfilebin</text>
</g>
<!-- Node173 -->
<g id="node2" class="node"><title>Node173</title>
<g id="a_node2"><a xlink:href="$a00035.html#ab8e9c3fc4ed1161501b51e445afde0e5" xlink:title="Returns the size of the file in bytes. ">
<polygon fill="white" stroke="black" points="128.5,-152.5 128.5,-171.5 195.5,-171.5 195.5,-152.5 128.5,-152.5"/>
<text text-anchor="middle" x="162" y="-159.5" font-family="Helvetica,sans-Serif" font-size="10.00">gk_getfsize</text>
</a>
</g>
</g>
<!-- Node172&#45;&gt;Node173 -->
<g id="edge1" class="edge"><title>Node172&#45;&gt;Node173</title>
<path fill="none" stroke="midnightblue" d="M61.4382,-95.6255C80.7969,-108.531 115.373,-131.582 138.25,-146.833"/>
<polygon fill="midnightblue" stroke="midnightblue" points="136.417,-149.818 146.679,-152.453 140.3,-143.993 136.417,-149.818"/>
</g>
<!-- Node174 -->
<g id="node3" class="node"><title>Node174</title>
<g id="a_node3"><a xlink:href="$a00026.html#a4c320c13bcdc9967613253ef4c73f59f" xlink:title="gk_errexit">
<polygon fill="white" stroke="black" points="232,-114.5 232,-133.5 292,-133.5 292,-114.5 232,-114.5"/>
<text text-anchor="middle" x="262" y="-121.5" font-family="Helvetica,sans-Serif" font-size="10.00">gk_errexit</text>
</a>
</g>
</g>
<!-- Node172&#45;&gt;Node174 -->
<g id="edge2" class="edge"><title>Node172&#45;&gt;Node174</title>
<path fill="none" stroke="midnightblue" d="M84.7641,-95.5894C98.3406,-98.8428 113.805,-102.327 128,-105 159.365,-110.907 195.199,-115.928 221.763,-119.322"/>
<polygon fill="midnightblue" stroke="midnightblue" points="221.461,-122.811 231.82,-120.586 222.334,-115.866 221.461,-122.811"/>
</g>
<!-- Node176 -->
<g id="node5" class="node"><title>Node176</title>
<g id="a_node5"><a xlink:href="$a00858.html#abff04948821f625a3e59666e61c70e2f" xlink:title="gk_fopen">
<polygon fill="white" stroke="black" points="133,-76.5 133,-95.5 191,-95.5 191,-76.5 133,-76.5"/>
<text text-anchor="middle" x="162" y="-83.5" font-family="Helvetica,sans-Serif" font-size="10.00">gk_fopen</text>
</a>
</g>
</g>
<!-- Node172&#45;&gt;Node176 -->
<g id="edge4" class="edge"><title>Node172&#45;&gt;Node176</title>
<path fill="none" stroke="midnightblue" d="M92.0558,-86C102.202,-86 112.877,-86 122.716,-86"/>
<polygon fill="midnightblue" stroke="midnightblue" points="122.998,-89.5001 132.998,-86 122.998,-82.5001 122.998,-89.5001"/>
</g>
<!-- Node179 -->
<g id="node8" class="node"><title>Node179</title>
<g id="a_node8"><a xlink:href="$a00077.html#ac8df62c4e3d0910711a9874f9cc58884" xlink:title="gk_free">
<polygon fill="white" stroke="black" points="137,-38.5 137,-57.5 187,-57.5 187,-38.5 137,-38.5"/>
<text text-anchor="middle" x="162" y="-45.5" font-family="Helvetica,sans-Serif" font-size="10.00">gk_free</text>
</a>
</g>
</g>
<!-- Node172&#45;&gt;Node179 -->
<g id="edge8" class="edge"><title>Node172&#45;&gt;Node179</title>
<path fill="none" stroke="midnightblue" d="M75.767,-76.411C91.3892,-71.2036 110.797,-64.7344 127.145,-59.2851"/>
<polygon fill="midnightblue" stroke="midnightblue" points="128.487,-62.527 136.867,-56.0443 126.273,-55.8863 128.487,-62.527"/>
</g>
<!-- Node180 -->
<g id="node9" class="node"><title>Node180</title>
<g id="a_node9"><a xlink:href="$a00858.html#a70dec19fefaf0c84f3948b4679a73fec" xlink:title="gk_fclose">
<polygon fill="white" stroke="black" points="132.5,-0.5 132.5,-19.5 191.5,-19.5 191.5,-0.5 132.5,-0.5"/>
<text text-anchor="middle" x="162" y="-7.5" font-family="Helvetica,sans-Serif" font-size="10.00">gk_fclose</text>
</a>
</g>
</g>
<!-- Node172&#45;&gt;Node180 -->
<g id="edge9" class="edge"><title>Node172&#45;&gt;Node180</title>
<path fill="none" stroke="midnightblue" d="M59.9379,-76.3463C75.7222,-64.6981 103.355,-44.7206 128,-29 130.195,-27.6001 132.495,-26.1814 134.816,-24.7827"/>
<polygon fill="midnightblue" stroke="midnightblue" points="136.844,-27.651 143.696,-19.57 133.3,-21.6143 136.844,-27.651"/>
</g>
<!-- Node175 -->
<g id="node4" class="node"><title>Node175</title>
<g id="a_node4"><a xlink:href="$a01017.html#a2e311a777ffe9c80e405efa7cd2757be" xlink:title="fprintf">
<polygon fill="white" stroke="black" points="328,-76.5 328,-95.5 370,-95.5 370,-76.5 328,-76.5"/>
<text text-anchor="middle" x="349" y="-83.5" font-family="Helvetica,sans-Serif" font-size="10.00">fprintf</text>
</a>
</g>
</g>
<!-- Node174&#45;&gt;Node175 -->
<g id="edge3" class="edge"><title>Node174&#45;&gt;Node175</title>
<path fill="none" stroke="midnightblue" d="M284.449,-114.411C294.719,-109.82 307.184,-104.247 318.344,-99.2579"/>
<polygon fill="midnightblue" stroke="midnightblue" points="320.027,-102.339 327.728,-95.0627 317.17,-95.9488 320.027,-102.339"/>
</g>
<!-- Node177 -->
<g id="node6" class="node"><title>Node177</title>
<g id="a_node6"><a xlink:href="$a00575.html#ae6aab5c308faac0fc539cc9c6da9fbd0" xlink:title="sprintf">
<polygon fill="white" stroke="black" points="240,-76.5 240,-95.5 284,-95.5 284,-76.5 240,-76.5"/>
<text text-anchor="middle" x="262" y="-83.5" font-family="Helvetica,sans-Serif" font-size="10.00">sprintf</text>
</a>
</g>
</g>
<!-- Node176&#45;&gt;Node177 -->
<g id="edge5" class="edge"><title>Node176&#45;&gt;Node177</title>
<path fill="none" stroke="midnightblue" d="M191.083,-86C203.069,-86 217.111,-86 229.454,-86"/>
<polygon fill="midnightblue" stroke="midnightblue" points="229.769,-89.5001 239.768,-86 229.768,-82.5001 229.769,-89.5001"/>
</g>
<!-- Node178 -->
<g id="node7" class="node"><title>Node178</title>
<g id="a_node7"><a xlink:href="$a00026.html#a56d0f2cc40cd8633a784582d6200d8b5" xlink:title="errexit">
<polygon fill="white" stroke="black" points="240,-38.5 240,-57.5 284,-57.5 284,-38.5 240,-38.5"/>
<text text-anchor="middle" x="262" y="-45.5" font-family="Helvetica,sans-Serif" font-size="10.00">errexit</text>
</a>
</g>
</g>
<!-- Node176&#45;&gt;Node178 -->
<g id="edge6" class="edge"><title>Node176&#45;&gt;Node178</title>
<path fill="none" stroke="midnightblue" d="M187.73,-76.411C200.688,-71.3863 216.676,-65.1869 230.407,-59.8625"/>
<polygon fill="midnightblue" stroke="midnightblue" points="231.873,-63.0481 239.931,-56.1695 229.342,-56.5215 231.873,-63.0481"/>
</g>
<!-- Node178&#45;&gt;Node175 -->
<g id="edge7" class="edge"><title>Node178&#45;&gt;Node175</title>
<path fill="none" stroke="midnightblue" d="M284.011,-57.3933C294.458,-62.0636 307.256,-67.785 318.653,-72.8804"/>
<polygon fill="midnightblue" stroke="midnightblue" points="317.258,-76.0903 327.816,-76.9765 320.115,-69.6999 317.258,-76.0903"/>
</g>
<!-- Node181 -->
<g id="node10" class="node"><title>Node181</title>
<g id="a_node10"><a xlink:href="$a01017.html#a355ed4cdac2a27aa04a6689ac2d7e86e" xlink:title="fclose">
<polygon fill="white" stroke="black" points="240.5,-0.5 240.5,-19.5 283.5,-19.5 283.5,-0.5 240.5,-0.5"/>
<text text-anchor="middle" x="262" y="-7.5" font-family="Helvetica,sans-Serif" font-size="10.00">fclose</text>
</a>
</g>
</g>
<!-- Node180&#45;&gt;Node181 -->
<g id="edge10" class="edge"><title>Node180&#45;&gt;Node181</title>
<path fill="none" stroke="midnightblue" d="M191.609,-10C203.669,-10 217.735,-10 230.038,-10"/>
<polygon fill="midnightblue" stroke="midnightblue" points="230.301,-13.5001 240.301,-10 230.301,-6.5001 230.301,-13.5001"/>
</g>
</g>
</svg>
