<?xml version="1.0" encoding="UTF-8" standalone="no"?>
<!DOCTYPE svg PUBLIC "-//W3C//DTD SVG 1.1//EN"
 "http://www.w3.org/Graphics/SVG/1.1/DTD/svg11.dtd">
<!-- Generated by graphviz version 2.36.0 (20140111.2315)
 -->
<!-- Title: ComputeKWayPartitionParams Pages: 1 -->
<svg width="402pt" height="66pt"
 viewBox="0.00 0.00 402.00 66.00" xmlns="http://www.w3.org/2000/svg" xmlns:xlink="http://www.w3.org/1999/xlink">
<g id="graph0" class="graph" transform="scale(1 1) rotate(0) translate(4 62)">
<title>ComputeKWayPartitionParams</title>
<polygon fill="white" stroke="none" points="-4,4 -4,-62 398,-62 398,4 -4,4"/>
<!-- Node143 -->
<g id="node1" class="node"><title>Node143</title>
<polygon fill="#bfbfbf" stroke="black" points="0.5,-19.5 0.5,-38.5 155.5,-38.5 155.5,-19.5 0.5,-19.5"/>
<text text-anchor="middle" x="78" y="-26.5" font-family="Helvetica,sans-Serif" font-size="10.00">ComputeKWayPartitionParams</text>
</g>
<!-- Node144 -->
<g id="node2" class="node"><title>Node144</title>
<g id="a_node2"><a xlink:href="a00918.html#acd248e19a1ba82c235d52479e231e2f7" target="_top" xlink:title="ComputeKWayVolGains">
<polygon fill="white" stroke="black" points="192,-38.5 192,-57.5 316,-57.5 316,-38.5 192,-38.5"/>
<text text-anchor="middle" x="254" y="-45.5" font-family="Helvetica,sans-Serif" font-size="10.00">ComputeKWayVolGains</text>
</a>
</g>
</g>
<!-- Node143&#45;&gt;Node144 -->
<g id="edge1" class="edge"><title>Node143&#45;&gt;Node144</title>
<path fill="none" stroke="midnightblue" d="M155.572,-37.3613C164.288,-38.3131 173.146,-39.2803 181.788,-40.224"/>
<polygon fill="midnightblue" stroke="midnightblue" points="181.492,-43.7124 191.813,-41.3187 182.252,-36.7538 181.492,-43.7124"/>
</g>
<!-- Node145 -->
<g id="node3" class="node"><title>Node145</title>
<g id="a_node3"><a xlink:href="a00026.html#a4c320c13bcdc9967613253ef4c73f59f" target="_top" xlink:title="gk_errexit">
<polygon fill="white" stroke="black" points="224,-0.5 224,-19.5 284,-19.5 284,-0.5 224,-0.5"/>
<text text-anchor="middle" x="254" y="-7.5" font-family="Helvetica,sans-Serif" font-size="10.00">gk_errexit</text>
</a>
</g>
</g>
<!-- Node143&#45;&gt;Node145 -->
<g id="edge2" class="edge"><title>Node143&#45;&gt;Node145</title>
<path fill="none" stroke="midnightblue" d="M155.572,-20.6387C175.657,-18.4456 196.493,-16.1703 213.717,-14.2895"/>
<polygon fill="midnightblue" stroke="midnightblue" points="214.374,-17.7386 223.935,-13.1737 213.614,-10.78 214.374,-17.7386"/>
</g>
<!-- Node146 -->
<g id="node4" class="node"><title>Node146</title>
<g id="a_node4"><a xlink:href="a01017.html#a2e311a777ffe9c80e405efa7cd2757be" target="_top" xlink:title="fprintf">
<polygon fill="white" stroke="black" points="352,-0.5 352,-19.5 394,-19.5 394,-0.5 352,-0.5"/>
<text text-anchor="middle" x="373" y="-7.5" font-family="Helvetica,sans-Serif" font-size="10.00">fprintf</text>
</a>
</g>
</g>
<!-- Node145&#45;&gt;Node146 -->
<g id="edge3" class="edge"><title>Node145&#45;&gt;Node146</title>
<path fill="none" stroke="midnightblue" d="M284.222,-10C301.71,-10 323.902,-10 341.596,-10"/>
<polygon fill="midnightblue" stroke="midnightblue" points="341.949,-13.5001 351.949,-10 341.949,-6.5001 341.949,-13.5001"/>
</g>
</g>
</svg>
