<?xml version="1.0" encoding="UTF-8" standalone="no"?>
<!DOCTYPE svg PUBLIC "-//W3C//DTD SVG 1.1//EN"
 "http://www.w3.org/Graphics/SVG/1.1/DTD/svg11.dtd">
<!-- Generated by graphviz version 2.36.0 (20140111.2315)
 -->
<!-- Title: MinCover_RowDFS Pages: 1 -->
<svg width="256pt" height="46pt"
 viewBox="0.00 0.00 256.00 46.00" xmlns="http://www.w3.org/2000/svg" xmlns:xlink="http://www.w3.org/1999/xlink">
<g id="graph0" class="graph" transform="scale(1 1) rotate(0) translate(4 42)">
<title>MinCover_RowDFS</title>
<polygon fill="white" stroke="none" points="-4,4 -4,-42 252,-42 252,4 -4,4"/>
<!-- Node600 -->
<g id="node1" class="node"><title>Node600</title>
<polygon fill="#bfbfbf" stroke="black" points="0.5,-0.5 0.5,-19.5 105.5,-19.5 105.5,-0.5 0.5,-0.5"/>
<text text-anchor="middle" x="53" y="-7.5" font-family="Helvetica,sans-Serif" font-size="10.00">MinCover_RowDFS</text>
</g>
<!-- Node601 -->
<g id="node2" class="node"><title>Node601</title>
<g id="a_node2"><a xlink:href="a00245.html#a807020dce58bb03a180aa4a0cb8cdd3e" target="_top" xlink:title="MinCover_RowDFS">
<polygon fill="white" stroke="black" points="142.5,-0.5 142.5,-19.5 247.5,-19.5 247.5,-0.5 142.5,-0.5"/>
<text text-anchor="middle" x="195" y="-7.5" font-family="Helvetica,sans-Serif" font-size="10.00">MinCover_RowDFS</text>
</a>
</g>
</g>
<!-- Node600&#45;&gt;Node601 -->
<g id="edge1" class="edge"><title>Node600&#45;&gt;Node601</title>
<path fill="none" stroke="midnightblue" d="M105.733,-10C114.355,-10 123.374,-10 132.216,-10"/>
<polygon fill="midnightblue" stroke="midnightblue" points="132.48,-13.5001 142.48,-10 132.48,-6.5001 132.48,-13.5001"/>
</g>
<!-- Node601&#45;&gt;Node601 -->
<g id="edge2" class="edge"><title>Node601&#45;&gt;Node601</title>
<path fill="none" stroke="midnightblue" d="M173.114,-19.7571C162.466,-28.5653 169.762,-38 195,-38 211.563,-38 220.398,-33.9368 221.506,-28.6539"/>
<polygon fill="midnightblue" stroke="midnightblue" points="224.601,-27.0192 216.886,-19.7571 218.388,-30.2449 224.601,-27.0192"/>
</g>
</g>
</svg>
