<?xml version="1.0" encoding="UTF-8" standalone="no"?>
<!DOCTYPE svg PUBLIC "-//W3C//DTD SVG 1.1//EN"
 "http://www.w3.org/Graphics/SVG/1.1/DTD/svg11.dtd">
<!-- Generated by graphviz version 2.36.0 (20140111.2315)
 -->
<!-- Title: METIS_PartGraphKway Pages: 1 -->
<svg width="902pt" height="322pt"
 viewBox="0.00 0.00 902.00 322.00" xmlns="http://www.w3.org/2000/svg" xmlns:xlink="http://www.w3.org/1999/xlink">
<g id="graph0" class="graph" transform="scale(1 1) rotate(0) translate(4 318)">
<title>METIS_PartGraphKway</title>
<polygon fill="white" stroke="none" points="-4,4 -4,-318 898,-318 898,4 -4,4"/>
<!-- Node25 -->
<g id="node1" class="node"><title>Node25</title>
<polygon fill="#bfbfbf" stroke="black" points="0.5,-171.5 0.5,-190.5 123.5,-190.5 123.5,-171.5 0.5,-171.5"/>
<text text-anchor="middle" x="62" y="-178.5" font-family="Helvetica,sans-Serif" font-size="10.00">METIS_PartGraphKway</text>
</g>
<!-- Node26 -->
<g id="node2" class="node"><title>Node26</title>
<g id="a_node2"><a xlink:href="a00077.html#a24633cc1c72a7e92836912c2adcf570a" target="_top" xlink:title="gk_malloc_init">
<polygon fill="white" stroke="black" points="667,-256.5 667,-275.5 747,-275.5 747,-256.5 667,-256.5"/>
<text text-anchor="middle" x="707" y="-263.5" font-family="Helvetica,sans-Serif" font-size="10.00">gk_malloc_init</text>
</a>
</g>
</g>
<!-- Node25&#45;&gt;Node26 -->
<g id="edge1" class="edge"><title>Node25&#45;&gt;Node26</title>
<path fill="none" stroke="midnightblue" d="M73.0906,-190.687C89.7425,-206.08 124.663,-235.921 160,-251 330.16,-323.609 558.073,-294.26 656.887,-276.186"/>
<polygon fill="midnightblue" stroke="midnightblue" points="657.699,-279.595 666.884,-274.314 656.411,-272.714 657.699,-279.595"/>
</g>
<!-- Node27 -->
<g id="node3" class="node"><title>Node27</title>
<g id="a_node3"><a xlink:href="a00026.html#a05869524d1c30cfaab2a8690e7da6fd4" target="_top" xlink:title="gk_sigtrap">
<polygon fill="white" stroke="black" points="675.5,-218.5 675.5,-237.5 738.5,-237.5 738.5,-218.5 675.5,-218.5"/>
<text text-anchor="middle" x="707" y="-225.5" font-family="Helvetica,sans-Serif" font-size="10.00">gk_sigtrap</text>
</a>
</g>
</g>
<!-- Node25&#45;&gt;Node27 -->
<g id="edge2" class="edge"><title>Node25&#45;&gt;Node27</title>
<path fill="none" stroke="midnightblue" d="M81.4004,-190.649C100.509,-200.217 131.536,-214.5 160,-222 352.269,-272.662 409.145,-284.968 606,-257 609.154,-256.552 639.165,-247.801 665.494,-240.029"/>
<polygon fill="midnightblue" stroke="midnightblue" points="666.744,-243.31 675.341,-237.118 664.759,-236.597 666.744,-243.31"/>
</g>
<!-- Node28 -->
<g id="node4" class="node"><title>Node28</title>
<g id="a_node4"><a xlink:href="a00026.html#a08f287b6dbdc0779c916ecbd49540a1e" target="_top" xlink:title="gk_siguntrap">
<polygon fill="white" stroke="black" points="670,-112.5 670,-131.5 744,-131.5 744,-112.5 670,-112.5"/>
<text text-anchor="middle" x="707" y="-119.5" font-family="Helvetica,sans-Serif" font-size="10.00">gk_siguntrap</text>
</a>
</g>
</g>
<!-- Node25&#45;&gt;Node28 -->
<g id="edge3" class="edge"><title>Node25&#45;&gt;Node28</title>
<path fill="none" stroke="midnightblue" d="M94.993,-171.461C178.633,-147.626 410.841,-88.5296 606,-105 623.583,-106.484 642.723,-109.411 659.506,-112.424"/>
<polygon fill="midnightblue" stroke="midnightblue" points="659.146,-115.916 669.617,-114.298 660.422,-109.034 659.146,-115.916"/>
</g>
<!-- Node29 -->
<g id="node5" class="node"><title>Node29</title>
<g id="a_node5"><a xlink:href="a00077.html#a3d153a0a39d7ba54f0943fa586f0c561" target="_top" xlink:title="gk_log2">
<polygon fill="white" stroke="black" points="195,-0.5 195,-19.5 247,-19.5 247,-0.5 195,-0.5"/>
<text text-anchor="middle" x="221" y="-7.5" font-family="Helvetica,sans-Serif" font-size="10.00">gk_log2</text>
</a>
</g>
</g>
<!-- Node25&#45;&gt;Node29 -->
<g id="edge4" class="edge"><title>Node25&#45;&gt;Node29</title>
<path fill="none" stroke="midnightblue" d="M66.9092,-171.301C77.8003,-145.423 110.945,-73.9953 160,-34 167.407,-27.9607 176.529,-23.2831 185.403,-19.7298"/>
<polygon fill="midnightblue" stroke="midnightblue" points="186.637,-23.0055 194.843,-16.3041 184.249,-16.4253 186.637,-23.0055"/>
</g>
<!-- Node30 -->
<g id="node6" class="node"><title>Node30</title>
<g id="a_node6"><a xlink:href="a00026.html#a4c320c13bcdc9967613253ef4c73f59f" target="_top" xlink:title="gk_errexit">
<polygon fill="white" stroke="black" points="504,-228.5 504,-247.5 564,-247.5 564,-228.5 504,-228.5"/>
<text text-anchor="middle" x="534" y="-235.5" font-family="Helvetica,sans-Serif" font-size="10.00">gk_errexit</text>
</a>
</g>
</g>
<!-- Node25&#45;&gt;Node30 -->
<g id="edge5" class="edge"><title>Node25&#45;&gt;Node30</title>
<path fill="none" stroke="midnightblue" d="M108.795,-190.508C124.942,-193.718 143.245,-197.195 160,-200 229.926,-211.708 247.501,-214.476 318,-222 379.202,-228.531 450.49,-233.274 493.653,-235.83"/>
<polygon fill="midnightblue" stroke="midnightblue" points="493.548,-239.33 503.735,-236.418 493.956,-232.342 493.548,-239.33"/>
</g>
<!-- Node32 -->
<g id="node8" class="node"><title>Node32</title>
<g id="a_node8"><a xlink:href="a00912.html#a7973c78504ad6711d3516082b1112805" target="_top" xlink:title="MlevelKWayPartitioning">
<polygon fill="white" stroke="black" points="160,-171.5 160,-190.5 282,-190.5 282,-171.5 160,-171.5"/>
<text text-anchor="middle" x="221" y="-178.5" font-family="Helvetica,sans-Serif" font-size="10.00">MlevelKWayPartitioning</text>
</a>
</g>
</g>
<!-- Node25&#45;&gt;Node32 -->
<g id="edge7" class="edge"><title>Node25&#45;&gt;Node32</title>
<path fill="none" stroke="midnightblue" d="M123.7,-181C132.259,-181 141.116,-181 149.834,-181"/>
<polygon fill="midnightblue" stroke="midnightblue" points="149.978,-184.5 159.978,-181 149.978,-177.5 149.978,-184.5"/>
</g>
<!-- Node39 -->
<g id="node15" class="node"><title>Node39</title>
<g id="a_node15"><a xlink:href="a00077.html#a47156a22528b5bc8c7c6e9849af34e62" target="_top" xlink:title="gk_malloc_cleanup">
<polygon fill="white" stroke="black" points="656,-50.5 656,-69.5 758,-69.5 758,-50.5 656,-50.5"/>
<text text-anchor="middle" x="707" y="-57.5" font-family="Helvetica,sans-Serif" font-size="10.00">gk_malloc_cleanup</text>
</a>
</g>
</g>
<!-- Node25&#45;&gt;Node39 -->
<g id="edge22" class="edge"><title>Node25&#45;&gt;Node39</title>
<path fill="none" stroke="midnightblue" d="M75.3625,-171.475C93.0512,-158.394 127.092,-135.22 160,-124 329.211,-66.3068 543.122,-58.7773 645.724,-58.89"/>
<polygon fill="midnightblue" stroke="midnightblue" points="645.882,-62.3905 655.894,-58.9269 645.907,-55.3905 645.882,-62.3905"/>
</g>
<!-- Node31 -->
<g id="node7" class="node"><title>Node31</title>
<g id="a_node7"><a xlink:href="a01017.html#a2e311a777ffe9c80e405efa7cd2757be" target="_top" xlink:title="fprintf">
<polygon fill="white" stroke="black" points="686,-294.5 686,-313.5 728,-313.5 728,-294.5 686,-294.5"/>
<text text-anchor="middle" x="707" y="-301.5" font-family="Helvetica,sans-Serif" font-size="10.00">fprintf</text>
</a>
</g>
</g>
<!-- Node30&#45;&gt;Node31 -->
<g id="edge6" class="edge"><title>Node30&#45;&gt;Node31</title>
<path fill="none" stroke="midnightblue" d="M554.809,-247.597C576.059,-257.678 610.947,-273.621 642,-285 652.969,-289.019 665.221,-292.819 676.046,-295.949"/>
<polygon fill="midnightblue" stroke="midnightblue" points="675.323,-299.381 685.898,-298.729 677.225,-292.645 675.323,-299.381"/>
</g>
<!-- Node32&#45;&gt;Node30 -->
<g id="edge21" class="edge"><title>Node32&#45;&gt;Node30</title>
<path fill="none" stroke="midnightblue" d="M274.054,-190.541C335.947,-201.884 437.855,-220.562 493.582,-230.776"/>
<polygon fill="midnightblue" stroke="midnightblue" points="493.291,-234.28 503.758,-232.641 494.553,-227.395 493.291,-234.28"/>
</g>
<!-- Node33 -->
<g id="node9" class="node"><title>Node33</title>
<g id="a_node9"><a xlink:href="a00912.html#a870e37cc14eb1033c62d83d3a7c33a91" target="_top" xlink:title="InitKWayPartitioning">
<polygon fill="white" stroke="black" points="318.5,-152.5 318.5,-171.5 425.5,-171.5 425.5,-152.5 318.5,-152.5"/>
<text text-anchor="middle" x="372" y="-159.5" font-family="Helvetica,sans-Serif" font-size="10.00">InitKWayPartitioning</text>
</a>
</g>
</g>
<!-- Node32&#45;&gt;Node33 -->
<g id="edge8" class="edge"><title>Node32&#45;&gt;Node33</title>
<path fill="none" stroke="midnightblue" d="M282.175,-173.327C290.766,-172.231 299.622,-171.102 308.261,-170"/>
<polygon fill="midnightblue" stroke="midnightblue" points="308.798,-173.46 318.275,-168.723 307.912,-166.516 308.798,-173.46"/>
</g>
<!-- Node33&#45;&gt;Node30 -->
<g id="edge19" class="edge"><title>Node33&#45;&gt;Node30</title>
<path fill="none" stroke="midnightblue" d="M398.398,-171.558C407.441,-175.457 417.487,-180.379 426,-186 444.113,-197.96 442.97,-208.561 462,-219 471.75,-224.348 483.09,-228.257 493.807,-231.086"/>
<polygon fill="midnightblue" stroke="midnightblue" points="493.279,-234.559 503.819,-233.48 494.907,-227.751 493.279,-234.559"/>
</g>
<!-- Node34 -->
<g id="node10" class="node"><title>Node34</title>
<g id="a_node10"><a xlink:href="a00170.html#abea67bb0c6286795ac5fc9bee605dc5d" target="_top" xlink:title="METIS_SetDefaultOptions">
<polygon fill="white" stroke="black" points="467,-152.5 467,-171.5 601,-171.5 601,-152.5 467,-152.5"/>
<text text-anchor="middle" x="534" y="-159.5" font-family="Helvetica,sans-Serif" font-size="10.00">METIS_SetDefaultOptions</text>
</a>
</g>
</g>
<!-- Node33&#45;&gt;Node34 -->
<g id="edge9" class="edge"><title>Node33&#45;&gt;Node34</title>
<path fill="none" stroke="midnightblue" d="M425.833,-162C435.664,-162 446.116,-162 456.489,-162"/>
<polygon fill="midnightblue" stroke="midnightblue" points="456.81,-165.5 466.81,-162 456.81,-158.5 456.81,-165.5"/>
</g>
<!-- Node35 -->
<g id="node11" class="node"><title>Node35</title>
<g id="a_node11"><a xlink:href="a00260.html#a25fc90fd934931239b3c98ac4bdbce76" target="_top" xlink:title="Recursive partitioning routine. ">
<polygon fill="white" stroke="black" points="462.5,-190.5 462.5,-209.5 605.5,-209.5 605.5,-190.5 462.5,-190.5"/>
<text text-anchor="middle" x="534" y="-197.5" font-family="Helvetica,sans-Serif" font-size="10.00">METIS_PartGraphRecursive</text>
</a>
</g>
</g>
<!-- Node33&#45;&gt;Node35 -->
<g id="edge10" class="edge"><title>Node33&#45;&gt;Node35</title>
<path fill="none" stroke="midnightblue" d="M413.375,-171.589C434.488,-176.604 460.529,-182.788 482.917,-188.105"/>
<polygon fill="midnightblue" stroke="midnightblue" points="482.377,-191.574 492.916,-190.48 483.995,-184.764 482.377,-191.574"/>
</g>
<!-- Node40 -->
<g id="node16" class="node"><title>Node40</title>
<g id="a_node16"><a xlink:href="a00077.html#ac8df62c4e3d0910711a9874f9cc58884" target="_top" xlink:title="gk_free">
<polygon fill="white" stroke="black" points="509,-114.5 509,-133.5 559,-133.5 559,-114.5 509,-114.5"/>
<text text-anchor="middle" x="534" y="-121.5" font-family="Helvetica,sans-Serif" font-size="10.00">gk_free</text>
</a>
</g>
</g>
<!-- Node33&#45;&gt;Node40 -->
<g id="edge20" class="edge"><title>Node33&#45;&gt;Node40</title>
<path fill="none" stroke="midnightblue" d="M413.375,-152.411C439.737,-146.15 473.78,-138.065 498.804,-132.121"/>
<polygon fill="midnightblue" stroke="midnightblue" points="499.67,-135.513 508.591,-129.797 498.052,-128.703 499.67,-135.513"/>
</g>
<!-- Node35&#45;&gt;Node26 -->
<g id="edge11" class="edge"><title>Node35&#45;&gt;Node26</title>
<path fill="none" stroke="midnightblue" d="M581.437,-209.555C589.832,-212.08 598.344,-215.195 606,-219 624.151,-228.022 623.973,-237.733 642,-247 646.832,-249.484 652.04,-251.695 657.325,-253.65"/>
<polygon fill="midnightblue" stroke="midnightblue" points="656.261,-256.985 666.855,-256.897 658.518,-250.359 656.261,-256.985"/>
</g>
<!-- Node35&#45;&gt;Node27 -->
<g id="edge12" class="edge"><title>Node35&#45;&gt;Node27</title>
<path fill="none" stroke="midnightblue" d="M593.37,-209.558C616.984,-213.424 643.678,-217.795 665.149,-221.311"/>
<polygon fill="midnightblue" stroke="midnightblue" points="664.8,-224.8 675.234,-222.962 665.931,-217.892 664.8,-224.8"/>
</g>
<!-- Node35&#45;&gt;Node28 -->
<g id="edge13" class="edge"><title>Node35&#45;&gt;Node28</title>
<path fill="none" stroke="midnightblue" d="M581.437,-190.445C589.832,-187.92 598.344,-184.805 606,-181 624.151,-171.978 624.784,-163.699 642,-153 652.116,-146.713 663.696,-140.763 674.2,-135.788"/>
<polygon fill="midnightblue" stroke="midnightblue" points="675.857,-138.878 683.471,-131.511 672.925,-132.521 675.857,-138.878"/>
</g>
<!-- Node36 -->
<g id="node12" class="node"><title>Node36</title>
<g id="a_node12"><a xlink:href="a00260.html#a5510f276b321a8450b2e9cc913c2f00f" target="_top" xlink:title="MlevelRecursiveBisection">
<polygon fill="white" stroke="black" points="642,-162.5 642,-181.5 772,-181.5 772,-162.5 642,-162.5"/>
<text text-anchor="middle" x="707" y="-169.5" font-family="Helvetica,sans-Serif" font-size="10.00">MlevelRecursiveBisection</text>
</a>
</g>
</g>
<!-- Node35&#45;&gt;Node36 -->
<g id="edge14" class="edge"><title>Node35&#45;&gt;Node36</title>
<path fill="none" stroke="midnightblue" d="M593.37,-190.442C607.678,-188.1 623.116,-185.572 637.838,-183.161"/>
<polygon fill="midnightblue" stroke="midnightblue" points="638.59,-186.585 647.893,-181.515 637.459,-179.677 638.59,-186.585"/>
</g>
<!-- Node35&#45;&gt;Node39 -->
<g id="edge18" class="edge"><title>Node35&#45;&gt;Node39</title>
<path fill="none" stroke="midnightblue" d="M590.527,-190.411C596.117,-187.948 601.413,-184.863 606,-181 635.204,-156.405 617.234,-132.059 642,-103 651.756,-91.5528 665.277,-81.8707 677.378,-74.6094"/>
<polygon fill="midnightblue" stroke="midnightblue" points="679.317,-77.5332 686.27,-69.5393 675.849,-71.4523 679.317,-77.5332"/>
</g>
<!-- Node36&#45;&gt;Node36 -->
<g id="edge17" class="edge"><title>Node36&#45;&gt;Node36</title>
<path fill="none" stroke="midnightblue" d="M684.805,-181.757C674.008,-190.565 681.406,-200 707,-200 723.796,-200 732.756,-195.937 733.879,-190.654"/>
<polygon fill="midnightblue" stroke="midnightblue" points="736.951,-188.975 729.195,-181.757 730.757,-192.236 736.951,-188.975"/>
</g>
<!-- Node37 -->
<g id="node13" class="node"><title>Node37</title>
<g id="a_node13"><a xlink:href="a00260.html#a33c48a23cc94ea0221fa5c7317cd0222" target="_top" xlink:title="MultilevelBisect">
<polygon fill="white" stroke="black" points="808.5,-181.5 808.5,-200.5 893.5,-200.5 893.5,-181.5 808.5,-181.5"/>
<text text-anchor="middle" x="851" y="-188.5" font-family="Helvetica,sans-Serif" font-size="10.00">MultilevelBisect</text>
</a>
</g>
</g>
<!-- Node36&#45;&gt;Node37 -->
<g id="edge15" class="edge"><title>Node36&#45;&gt;Node37</title>
<path fill="none" stroke="midnightblue" d="M772.352,-180.611C781.013,-181.769 789.806,-182.946 798.211,-184.07"/>
<polygon fill="midnightblue" stroke="midnightblue" points="797.859,-187.555 808.235,-185.412 798.788,-180.616 797.859,-187.555"/>
</g>
<!-- Node38 -->
<g id="node14" class="node"><title>Node38</title>
<g id="a_node14"><a xlink:href="a00260.html#a49d272affb67ce57b2d20dccd7f15f53" target="_top" xlink:title="SplitGraphPart">
<polygon fill="white" stroke="black" points="810,-143.5 810,-162.5 892,-162.5 892,-143.5 810,-143.5"/>
<text text-anchor="middle" x="851" y="-150.5" font-family="Helvetica,sans-Serif" font-size="10.00">SplitGraphPart</text>
</a>
</g>
</g>
<!-- Node36&#45;&gt;Node38 -->
<g id="edge16" class="edge"><title>Node36&#45;&gt;Node38</title>
<path fill="none" stroke="midnightblue" d="M772.352,-163.389C781.53,-162.162 790.856,-160.914 799.712,-159.729"/>
<polygon fill="midnightblue" stroke="midnightblue" points="800.407,-163.167 809.854,-158.372 799.478,-156.229 800.407,-163.167"/>
</g>
</g>
</svg>
