<?xml version="1.0" encoding="UTF-8" standalone="no"?>
<!DOCTYPE svg PUBLIC "-//W3C//DTD SVG 1.1//EN"
 "http://www.w3.org/Graphics/SVG/1.1/DTD/svg11.dtd">
<!-- Generated by graphviz version 2.36.0 (20140111.2315)
 -->
<!-- Title: GrowBisectionNode2 Pages: 1 -->
<svg width="458pt" height="125pt"
 viewBox="0.00 0.00 458.00 124.90" xmlns="http://www.w3.org/2000/svg" xmlns:xlink="http://www.w3.org/1999/xlink">
<g id="graph0" class="graph" transform="scale(1 1) rotate(0) translate(4 120.901)">
<title>GrowBisectionNode2</title>
<polygon fill="white" stroke="none" points="-4,4 -4,-120.901 454,-120.901 454,4 -4,4"/>
<!-- Node13 -->
<g id="node1" class="node"><title>Node13</title>
<polygon fill="#bfbfbf" stroke="black" points="0,-57.5 0,-76.5 110,-76.5 110,-57.5 0,-57.5"/>
<text text-anchor="middle" x="55" y="-64.5" font-family="Helvetica,sans-Serif" font-size="10.00">GrowBisectionNode2</text>
</g>
<!-- Node14 -->
<g id="node2" class="node"><title>Node14</title>
<g id="a_node2"><a xlink:href="a00077.html#aba6f76f5c67b9b7e9c2e45988d3d3e9d" target="_top" xlink:title="gk_malloc">
<polygon fill="white" stroke="black" points="146,-57.5 146,-76.5 208,-76.5 208,-57.5 146,-57.5"/>
<text text-anchor="middle" x="177" y="-64.5" font-family="Helvetica,sans-Serif" font-size="10.00">gk_malloc</text>
</a>
</g>
</g>
<!-- Node13&#45;&gt;Node14 -->
<g id="edge1" class="edge"><title>Node13&#45;&gt;Node14</title>
<path fill="none" stroke="midnightblue" d="M110.032,-67C118.693,-67 127.521,-67 135.785,-67"/>
<polygon fill="midnightblue" stroke="midnightblue" points="135.897,-70.5001 145.897,-67 135.897,-63.5001 135.897,-70.5001"/>
</g>
<!-- Node15 -->
<g id="node3" class="node"><title>Node15</title>
<g id="a_node3"><a xlink:href="a01017.html#a2e311a777ffe9c80e405efa7cd2757be" target="_top" xlink:title="fprintf">
<polygon fill="white" stroke="black" points="408,-57.5 408,-76.5 450,-76.5 450,-57.5 408,-57.5"/>
<text text-anchor="middle" x="429" y="-64.5" font-family="Helvetica,sans-Serif" font-size="10.00">fprintf</text>
</a>
</g>
</g>
<!-- Node14&#45;&gt;Node15 -->
<g id="edge2" class="edge"><title>Node14&#45;&gt;Node15</title>
<path fill="none" stroke="midnightblue" d="M190.261,-76.7187C202.891,-86.0589 223.563,-99.5369 244,-105 298.959,-119.691 317.62,-121.709 372,-105 386.039,-100.686 399.719,-91.5255 410.044,-83.2793"/>
<polygon fill="midnightblue" stroke="midnightblue" points="412.469,-85.8134 417.862,-76.6941 407.959,-80.4595 412.469,-85.8134"/>
</g>
<!-- Node16 -->
<g id="node4" class="node"><title>Node16</title>
<g id="a_node4"><a xlink:href="a00110.html#ad2327b94227019b6753b6b09400c0522" target="_top" xlink:title="gk_GetCurMemoryUsed">
<polygon fill="white" stroke="black" points="246,-76.5 246,-95.5 370,-95.5 370,-76.5 246,-76.5"/>
<text text-anchor="middle" x="308" y="-83.5" font-family="Helvetica,sans-Serif" font-size="10.00">gk_GetCurMemoryUsed</text>
</a>
</g>
</g>
<!-- Node14&#45;&gt;Node16 -->
<g id="edge3" class="edge"><title>Node14&#45;&gt;Node16</title>
<path fill="none" stroke="midnightblue" d="M208.245,-71.4547C216.646,-72.692 226.139,-74.0903 235.836,-75.5184"/>
<polygon fill="midnightblue" stroke="midnightblue" points="235.573,-79.0175 245.977,-77.0121 236.593,-72.0922 235.573,-79.0175"/>
</g>
<!-- Node17 -->
<g id="node5" class="node"><title>Node17</title>
<g id="a_node5"><a xlink:href="a00110.html#a656fd5266ae12a96e53125486f8fea52" target="_top" xlink:title="gk_GetMaxMemoryUsed">
<polygon fill="white" stroke="black" points="244.5,-38.5 244.5,-57.5 371.5,-57.5 371.5,-38.5 244.5,-38.5"/>
<text text-anchor="middle" x="308" y="-45.5" font-family="Helvetica,sans-Serif" font-size="10.00">gk_GetMaxMemoryUsed</text>
</a>
</g>
</g>
<!-- Node14&#45;&gt;Node17 -->
<g id="edge4" class="edge"><title>Node14&#45;&gt;Node17</title>
<path fill="none" stroke="midnightblue" d="M208.245,-62.5453C216.229,-61.3693 225.2,-60.048 234.395,-58.6938"/>
<polygon fill="midnightblue" stroke="midnightblue" points="235.04,-62.1366 244.423,-57.2167 234.02,-55.2113 235.04,-62.1366"/>
</g>
<!-- Node18 -->
<g id="node6" class="node"><title>Node18</title>
<g id="a_node6"><a xlink:href="a00026.html#a4c320c13bcdc9967613253ef4c73f59f" target="_top" xlink:title="gk_errexit">
<polygon fill="white" stroke="black" points="278,-0.5 278,-19.5 338,-19.5 338,-0.5 278,-0.5"/>
<text text-anchor="middle" x="308" y="-7.5" font-family="Helvetica,sans-Serif" font-size="10.00">gk_errexit</text>
</a>
</g>
</g>
<!-- Node14&#45;&gt;Node18 -->
<g id="edge5" class="edge"><title>Node14&#45;&gt;Node18</title>
<path fill="none" stroke="midnightblue" d="M192.436,-57.3905C205.481,-49.027 225.428,-37.0202 244,-29 251.68,-25.6834 260.121,-22.7096 268.259,-20.1539"/>
<polygon fill="midnightblue" stroke="midnightblue" points="269.388,-23.4695 277.965,-17.2488 267.381,-16.7634 269.388,-23.4695"/>
</g>
<!-- Node18&#45;&gt;Node15 -->
<g id="edge6" class="edge"><title>Node18&#45;&gt;Node15</title>
<path fill="none" stroke="midnightblue" d="M338.228,-16.8252C349.104,-19.8755 361.377,-23.9396 372,-29 384.634,-35.0184 397.634,-43.6626 407.925,-51.1863"/>
<polygon fill="midnightblue" stroke="midnightblue" points="406.101,-54.1937 416.194,-57.4154 410.313,-48.6027 406.101,-54.1937"/>
</g>
</g>
</svg>
