<?xml version="1.0" encoding="UTF-8" standalone="no"?>
<!DOCTYPE svg PUBLIC "-//W3C//DTD SVG 1.1//EN"
 "http://www.w3.org/Graphics/SVG/1.1/DTD/svg11.dtd">
<!-- Generated by graphviz version 2.36.0 (20140111.2315)
 -->
<!-- Title: AllocateKWayPartitionMemory Pages: 1 -->
<svg width="416pt" height="28pt"
 viewBox="0.00 0.00 416.00 28.00" xmlns="http://www.w3.org/2000/svg" xmlns:xlink="http://www.w3.org/1999/xlink">
<g id="graph0" class="graph" transform="scale(1 1) rotate(0) translate(4 24)">
<title>AllocateKWayPartitionMemory</title>
<polygon fill="white" stroke="none" points="-4,4 -4,-24 412,-24 412,4 -4,4"/>
<!-- Node19 -->
<g id="node1" class="node"><title>Node19</title>
<polygon fill="#bfbfbf" stroke="black" points="0,-0.5 0,-19.5 152,-19.5 152,-0.5 0,-0.5"/>
<text text-anchor="middle" x="76" y="-7.5" font-family="Helvetica,sans-Serif" font-size="10.00">AllocateKWayPartitionMemory</text>
</g>
<!-- Node20 -->
<g id="node2" class="node"><title>Node20</title>
<g id="a_node2"><a xlink:href="a00948.html#a974cb62c010e195c90f8fb900359957c" target="_top" xlink:title="ProjectKWayPartition">
<polygon fill="white" stroke="black" points="188.5,-0.5 188.5,-19.5 299.5,-19.5 299.5,-0.5 188.5,-0.5"/>
<text text-anchor="middle" x="244" y="-7.5" font-family="Helvetica,sans-Serif" font-size="10.00">ProjectKWayPartition</text>
</a>
</g>
</g>
<!-- Node19&#45;&gt;Node20 -->
<g id="edge1" class="edge"><title>Node19&#45;&gt;Node20</title>
<path fill="none" stroke="midnightblue" d="M162.25,-10C171.133,-10 179.98,-10 188.387,-10"/>
<polygon fill="midnightblue" stroke="midnightblue" points="162.229,-6.5001 152.229,-10 162.229,-13.5001 162.229,-6.5001"/>
</g>
<!-- Node21 -->
<g id="node3" class="node"><title>Node21</title>
<g id="a_node3"><a xlink:href="a00948.html#adeb3fad496482fea745a00c7b39ca7cf" target="_top" xlink:title="RefineKWay">
<polygon fill="white" stroke="black" points="336,-0.5 336,-19.5 408,-19.5 408,-0.5 336,-0.5"/>
<text text-anchor="middle" x="372" y="-7.5" font-family="Helvetica,sans-Serif" font-size="10.00">RefineKWay</text>
</a>
</g>
</g>
<!-- Node20&#45;&gt;Node21 -->
<g id="edge2" class="edge"><title>Node20&#45;&gt;Node21</title>
<path fill="none" stroke="midnightblue" d="M309.63,-10C318.591,-10 327.509,-10 335.656,-10"/>
<polygon fill="midnightblue" stroke="midnightblue" points="309.533,-6.5001 299.533,-10 309.533,-13.5001 309.533,-6.5001"/>
</g>
</g>
</svg>
