<?xml version="1.0" encoding="UTF-8" standalone="no"?>
<!DOCTYPE svg PUBLIC "-//W3C//DTD SVG 1.1//EN"
 "http://www.w3.org/Graphics/SVG/1.1/DTD/svg11.dtd">
<!-- Generated by graphviz version 2.36.0 (20140111.2315)
 -->
<!-- Title: CreateGraphNodal Pages: 1 -->
<svg width="492pt" height="66pt"
 viewBox="0.00 0.00 492.00 66.00" xmlns="http://www.w3.org/2000/svg" xmlns:xlink="http://www.w3.org/1999/xlink">
<g id="graph0" class="graph" transform="scale(1 1) rotate(0) translate(4 62)">
<title>CreateGraphNodal</title>
<polygon fill="white" stroke="none" points="-4,4 -4,-62 488,-62 488,4 -4,4"/>
<!-- Node234 -->
<g id="node1" class="node"><title>Node234</title>
<polygon fill="#bfbfbf" stroke="black" points="0,-19.5 0,-38.5 100,-38.5 100,-19.5 0,-19.5"/>
<text text-anchor="middle" x="50" y="-26.5" font-family="Helvetica,sans-Serif" font-size="10.00">CreateGraphNodal</text>
</g>
<!-- Node235 -->
<g id="node2" class="node"><title>Node235</title>
<g id="a_node2"><a xlink:href="a00930.html#ae9390485cd2d3654742f779a7188c125" target="_top" xlink:title="METIS_MeshToNodal">
<polygon fill="white" stroke="black" points="136.5,-19.5 136.5,-38.5 251.5,-38.5 251.5,-19.5 136.5,-19.5"/>
<text text-anchor="middle" x="194" y="-26.5" font-family="Helvetica,sans-Serif" font-size="10.00">METIS_MeshToNodal</text>
</a>
</g>
</g>
<!-- Node234&#45;&gt;Node235 -->
<g id="edge1" class="edge"><title>Node234&#45;&gt;Node235</title>
<path fill="none" stroke="midnightblue" d="M110.448,-29C118.914,-29 127.606,-29 136.023,-29"/>
<polygon fill="midnightblue" stroke="midnightblue" points="110.266,-25.5001 100.266,-29 110.266,-32.5001 110.266,-25.5001"/>
</g>
<!-- Node236 -->
<g id="node3" class="node"><title>Node236</title>
<g id="a_node3"><a xlink:href="a00236.html#ade1e7e23ad687989a6343b4fb8d61ba7" target="_top" xlink:title="METIS_PartMeshNodal">
<polygon fill="white" stroke="black" points="288,-38.5 288,-57.5 410,-57.5 410,-38.5 288,-38.5"/>
<text text-anchor="middle" x="349" y="-45.5" font-family="Helvetica,sans-Serif" font-size="10.00">METIS_PartMeshNodal</text>
</a>
</g>
</g>
<!-- Node235&#45;&gt;Node236 -->
<g id="edge2" class="edge"><title>Node235&#45;&gt;Node236</title>
<path fill="none" stroke="midnightblue" d="M261.655,-37.2775C270.366,-38.3592 279.25,-39.4624 287.845,-40.5298"/>
<polygon fill="midnightblue" stroke="midnightblue" points="261.892,-33.78 251.537,-36.0209 261.029,-40.7267 261.892,-33.78"/>
</g>
<!-- Node238 -->
<g id="node5" class="node"><title>Node238</title>
<g id="a_node5"><a xlink:href="a00317.html#a0ddf1224851353fc92bfbff6f499fa97" target="_top" xlink:title="main">
<polygon fill="white" stroke="black" points="330,-0.5 330,-19.5 368,-19.5 368,-0.5 330,-0.5"/>
<text text-anchor="middle" x="349" y="-7.5" font-family="Helvetica,sans-Serif" font-size="10.00">main</text>
</a>
</g>
</g>
<!-- Node235&#45;&gt;Node238 -->
<g id="edge4" class="edge"><title>Node235&#45;&gt;Node238</title>
<path fill="none" stroke="midnightblue" d="M261.692,-20.718C286.522,-17.6345 312.754,-14.377 329.689,-12.2739"/>
<polygon fill="midnightblue" stroke="midnightblue" points="261.029,-17.2733 251.537,-21.9791 261.892,-24.22 261.029,-17.2733"/>
</g>
<!-- Node237 -->
<g id="node4" class="node"><title>Node237</title>
<g id="a_node4"><a xlink:href="a00323.html#a0ddf1224851353fc92bfbff6f499fa97" target="_top" xlink:title="main">
<polygon fill="white" stroke="black" points="446,-38.5 446,-57.5 484,-57.5 484,-38.5 446,-38.5"/>
<text text-anchor="middle" x="465" y="-45.5" font-family="Helvetica,sans-Serif" font-size="10.00">main</text>
</a>
</g>
</g>
<!-- Node236&#45;&gt;Node237 -->
<g id="edge3" class="edge"><title>Node236&#45;&gt;Node237</title>
<path fill="none" stroke="midnightblue" d="M420.038,-48C429.534,-48 438.52,-48 445.864,-48"/>
<polygon fill="midnightblue" stroke="midnightblue" points="420.005,-44.5001 410.005,-48 420.005,-51.5001 420.005,-44.5001"/>
</g>
</g>
</svg>
