<?xml version="1.0" encoding="UTF-8" standalone="no"?>
<!DOCTYPE svg PUBLIC "-//W3C//DTD SVG 1.1//EN"
 "http://www.w3.org/Graphics/SVG/1.1/DTD/svg11.dtd">
<!-- Generated by graphviz version 2.36.0 (20140111.2315)
 -->
<!-- Title: Match_RM Pages: 1 -->
<svg width="538pt" height="170pt"
 viewBox="0.00 0.00 538.00 170.00" xmlns="http://www.w3.org/2000/svg" xmlns:xlink="http://www.w3.org/1999/xlink">
<g id="graph0" class="graph" transform="scale(1 1) rotate(0) translate(4 166)">
<title>Match_RM</title>
<polygon fill="white" stroke="none" points="-4,4 -4,-166 534,-166 534,4 -4,4"/>
<!-- Node533 -->
<g id="node1" class="node"><title>Node533</title>
<polygon fill="#bfbfbf" stroke="black" points="0.5,-85.5 0.5,-104.5 65.5,-104.5 65.5,-85.5 0.5,-85.5"/>
<text text-anchor="middle" x="33" y="-92.5" font-family="Helvetica,sans-Serif" font-size="10.00">Match_RM</text>
</g>
<!-- Node534 -->
<g id="node2" class="node"><title>Node534</title>
<g id="a_node2"><a xlink:href="a00182.html#aead846b2c69509c914426ff087509934" target="_top" xlink:title="Match_2Hop">
<polygon fill="white" stroke="black" points="119.5,-104.5 119.5,-123.5 192.5,-123.5 192.5,-104.5 119.5,-104.5"/>
<text text-anchor="middle" x="156" y="-111.5" font-family="Helvetica,sans-Serif" font-size="10.00">Match_2Hop</text>
</a>
</g>
</g>
<!-- Node533&#45;&gt;Node534 -->
<g id="edge1" class="edge"><title>Node533&#45;&gt;Node534</title>
<path fill="none" stroke="midnightblue" d="M65.7913,-99.992C78.9759,-102.062 94.5284,-104.504 108.924,-106.765"/>
<polygon fill="midnightblue" stroke="midnightblue" points="108.729,-110.277 119.151,-108.371 109.815,-103.362 108.729,-110.277"/>
</g>
<!-- Node537 -->
<g id="node5" class="node"><title>Node537</title>
<g id="a_node5"><a xlink:href="a00182.html#aac8820421b1c25698140c1b470c50e07" target="_top" xlink:title="CreateCoarseGraph">
<polygon fill="white" stroke="black" points="102.5,-47.5 102.5,-66.5 209.5,-66.5 209.5,-47.5 102.5,-47.5"/>
<text text-anchor="middle" x="156" y="-54.5" font-family="Helvetica,sans-Serif" font-size="10.00">CreateCoarseGraph</text>
</a>
</g>
</g>
<!-- Node533&#45;&gt;Node537 -->
<g id="edge4" class="edge"><title>Node533&#45;&gt;Node537</title>
<path fill="none" stroke="midnightblue" d="M64.5334,-85.411C79.7234,-80.6406 98.2853,-74.8112 114.633,-69.6771"/>
<polygon fill="midnightblue" stroke="midnightblue" points="115.984,-72.9214 124.476,-66.5859 113.887,-66.243 115.984,-72.9214"/>
</g>
<!-- Node535 -->
<g id="node3" class="node"><title>Node535</title>
<g id="a_node3"><a xlink:href="a00182.html#a838a4013e3b5cc5278ecc7a8757ce0ef" target="_top" xlink:title="Match_2HopAny">
<polygon fill="white" stroke="black" points="273,-142.5 273,-161.5 363,-161.5 363,-142.5 273,-142.5"/>
<text text-anchor="middle" x="318" y="-149.5" font-family="Helvetica,sans-Serif" font-size="10.00">Match_2HopAny</text>
</a>
</g>
</g>
<!-- Node534&#45;&gt;Node535 -->
<g id="edge2" class="edge"><title>Node534&#45;&gt;Node535</title>
<path fill="none" stroke="midnightblue" d="M192.509,-122.433C214.34,-127.618 242.652,-134.342 266.76,-140.068"/>
<polygon fill="midnightblue" stroke="midnightblue" points="266.265,-143.548 276.803,-142.453 267.882,-136.737 266.265,-143.548"/>
</g>
<!-- Node536 -->
<g id="node4" class="node"><title>Node536</title>
<g id="a_node4"><a xlink:href="a00182.html#aa56d53cace160be27fb1750dcaffbc04" target="_top" xlink:title="Match_2HopAll">
<polygon fill="white" stroke="black" points="276,-104.5 276,-123.5 360,-123.5 360,-104.5 276,-104.5"/>
<text text-anchor="middle" x="318" y="-111.5" font-family="Helvetica,sans-Serif" font-size="10.00">Match_2HopAll</text>
</a>
</g>
</g>
<!-- Node534&#45;&gt;Node536 -->
<g id="edge3" class="edge"><title>Node534&#45;&gt;Node536</title>
<path fill="none" stroke="midnightblue" d="M192.509,-114C214.002,-114 241.777,-114 265.637,-114"/>
<polygon fill="midnightblue" stroke="midnightblue" points="265.939,-117.5 275.939,-114 265.939,-110.5 265.939,-117.5"/>
</g>
<!-- Node538 -->
<g id="node6" class="node"><title>Node538</title>
<g id="a_node6"><a xlink:href="a00182.html#a70dc59d4c7190507e7ad9a4cc0d80707" target="_top" xlink:title="CreateCoarseGraphNoMask">
<polygon fill="white" stroke="black" points="246.5,-28.5 246.5,-47.5 389.5,-47.5 389.5,-28.5 246.5,-28.5"/>
<text text-anchor="middle" x="318" y="-35.5" font-family="Helvetica,sans-Serif" font-size="10.00">CreateCoarseGraphNoMask</text>
</a>
</g>
</g>
<!-- Node537&#45;&gt;Node538 -->
<g id="edge5" class="edge"><title>Node537&#45;&gt;Node538</title>
<path fill="none" stroke="midnightblue" d="M209.833,-50.726C218.299,-49.7208 227.224,-48.6608 236.164,-47.5993"/>
<polygon fill="midnightblue" stroke="midnightblue" points="236.722,-51.0577 246.239,-46.4028 235.896,-44.1065 236.722,-51.0577"/>
</g>
<!-- Node539 -->
<g id="node7" class="node"><title>Node539</title>
<g id="a_node7"><a xlink:href="a00182.html#a113522304bf628b09d0b69b4db05050e" target="_top" xlink:title="SetupCoarseGraph">
<polygon fill="white" stroke="black" points="426.5,-47.5 426.5,-66.5 529.5,-66.5 529.5,-47.5 426.5,-47.5"/>
<text text-anchor="middle" x="478" y="-54.5" font-family="Helvetica,sans-Serif" font-size="10.00">SetupCoarseGraph</text>
</a>
</g>
</g>
<!-- Node537&#45;&gt;Node539 -->
<g id="edge8" class="edge"><title>Node537&#45;&gt;Node539</title>
<path fill="none" stroke="midnightblue" d="M209.841,-57C266.645,-57 356.798,-57 416.428,-57"/>
<polygon fill="midnightblue" stroke="midnightblue" points="416.458,-60.5001 426.458,-57 416.458,-53.5001 416.458,-60.5001"/>
</g>
<!-- Node540 -->
<g id="node8" class="node"><title>Node540</title>
<g id="a_node8"><a xlink:href="a00182.html#ab69ab96ec78174da232dff05e9c79d2f" target="_top" xlink:title="ReAdjustMemory">
<polygon fill="white" stroke="black" points="431.5,-0.5 431.5,-19.5 524.5,-19.5 524.5,-0.5 431.5,-0.5"/>
<text text-anchor="middle" x="478" y="-7.5" font-family="Helvetica,sans-Serif" font-size="10.00">ReAdjustMemory</text>
</a>
</g>
</g>
<!-- Node537&#45;&gt;Node540 -->
<g id="edge9" class="edge"><title>Node537&#45;&gt;Node540</title>
<path fill="none" stroke="midnightblue" d="M174.096,-47.4651C191.565,-38.2678 219.774,-24.8988 246,-19 304.732,-5.78995 373.942,-4.97016 421.188,-6.55632"/>
<polygon fill="midnightblue" stroke="midnightblue" points="421.094,-10.0552 431.221,-6.94039 421.362,-3.06031 421.094,-10.0552"/>
</g>
<!-- Node538&#45;&gt;Node539 -->
<g id="edge6" class="edge"><title>Node538&#45;&gt;Node539</title>
<path fill="none" stroke="midnightblue" d="M389.682,-46.4997C398.54,-47.5649 407.54,-48.6472 416.228,-49.692"/>
<polygon fill="midnightblue" stroke="midnightblue" points="415.911,-53.179 426.257,-50.898 416.747,-46.229 415.911,-53.179"/>
</g>
<!-- Node538&#45;&gt;Node540 -->
<g id="edge7" class="edge"><title>Node538&#45;&gt;Node540</title>
<path fill="none" stroke="midnightblue" d="M372.933,-28.4423C388.553,-25.6742 405.631,-22.6476 421.354,-19.8613"/>
<polygon fill="midnightblue" stroke="midnightblue" points="422.226,-23.2615 431.461,-18.0701 421.004,-16.3689 422.226,-23.2615"/>
</g>
</g>
</svg>
