<?xml version="1.0" encoding="UTF-8" standalone="no"?>
<!DOCTYPE svg PUBLIC "-//W3C//DTD SVG 1.1//EN"
 "http://www.w3.org/Graphics/SVG/1.1/DTD/svg11.dtd">
<!-- Generated by graphviz version 2.36.0 (20140111.2315)
 -->
<!-- Title: Allocate2WayPartitionMemory Pages: 1 -->
<svg width="412pt" height="28pt"
 viewBox="0.00 0.00 412.00 28.00" xmlns="http://www.w3.org/2000/svg" xmlns:xlink="http://www.w3.org/1999/xlink">
<g id="graph0" class="graph" transform="scale(1 1) rotate(0) translate(4 24)">
<title>Allocate2WayPartitionMemory</title>
<polygon fill="white" stroke="none" points="-4,4 -4,-24 408,-24 408,4 -4,4"/>
<!-- Node10 -->
<g id="node1" class="node"><title>Node10</title>
<polygon fill="#bfbfbf" stroke="black" points="0,-0.5 0,-19.5 150,-19.5 150,-0.5 0,-0.5"/>
<text text-anchor="middle" x="75" y="-7.5" font-family="Helvetica,sans-Serif" font-size="10.00">Allocate2WayPartitionMemory</text>
</g>
<!-- Node11 -->
<g id="node2" class="node"><title>Node11</title>
<g id="a_node2"><a xlink:href="a00266.html#a99814e73a646480f8af05e7d8bcfe4bc" target="_top" xlink:title="Project2WayPartition">
<polygon fill="white" stroke="black" points="186,-0.5 186,-19.5 296,-19.5 296,-0.5 186,-0.5"/>
<text text-anchor="middle" x="241" y="-7.5" font-family="Helvetica,sans-Serif" font-size="10.00">Project2WayPartition</text>
</a>
</g>
</g>
<!-- Node10&#45;&gt;Node11 -->
<g id="edge1" class="edge"><title>Node10&#45;&gt;Node11</title>
<path fill="none" stroke="midnightblue" d="M160.363,-10C168.921,-10 177.445,-10 185.561,-10"/>
<polygon fill="midnightblue" stroke="midnightblue" points="160.323,-6.5001 150.323,-10 160.322,-13.5001 160.323,-6.5001"/>
</g>
<!-- Node12 -->
<g id="node3" class="node"><title>Node12</title>
<g id="a_node3"><a xlink:href="a00266.html#ab35c6c9d407568ece9d8398fb2757df8" target="_top" xlink:title="Refine2Way">
<polygon fill="white" stroke="black" points="332.5,-0.5 332.5,-19.5 403.5,-19.5 403.5,-0.5 332.5,-0.5"/>
<text text-anchor="middle" x="368" y="-7.5" font-family="Helvetica,sans-Serif" font-size="10.00">Refine2Way</text>
</a>
</g>
</g>
<!-- Node11&#45;&gt;Node12 -->
<g id="edge2" class="edge"><title>Node11&#45;&gt;Node12</title>
<path fill="none" stroke="midnightblue" d="M306.226,-10C315.213,-10 324.151,-10 332.299,-10"/>
<polygon fill="midnightblue" stroke="midnightblue" points="306.1,-6.5001 296.1,-10 306.1,-13.5001 306.1,-6.5001"/>
</g>
</g>
</svg>
