<?xml version="1.0" encoding="UTF-8" standalone="no"?>
<!DOCTYPE svg PUBLIC "-//W3C//DTD SVG 1.1//EN"
 "http://www.w3.org/Graphics/SVG/1.1/DTD/svg11.dtd">
<!-- Generated by graphviz version 2.36.0 (20140111.2315)
 -->
<!-- Title: AllocateNodePartitionParams Pages: 1 -->
<svg width="496pt" height="125pt"
 viewBox="0.00 0.00 496.00 124.90" xmlns="http://www.w3.org/2000/svg" xmlns:xlink="http://www.w3.org/1999/xlink">
<g id="graph0" class="graph" transform="scale(1 1) rotate(0) translate(4 120.901)">
<title>AllocateNodePartitionParams</title>
<polygon fill="white" stroke="none" points="-4,4 -4,-120.901 492,-120.901 492,4 -4,4"/>
<!-- Node5 -->
<g id="node1" class="node"><title>Node5</title>
<polygon fill="#bfbfbf" stroke="black" points="0.5,-38.5 0.5,-57.5 147.5,-57.5 147.5,-38.5 0.5,-38.5"/>
<text text-anchor="middle" x="74" y="-45.5" font-family="Helvetica,sans-Serif" font-size="10.00">AllocateNodePartitionParams</text>
</g>
<!-- Node6 -->
<g id="node2" class="node"><title>Node6</title>
<g id="a_node2"><a xlink:href="a00077.html#aba6f76f5c67b9b7e9c2e45988d3d3e9d" target="_top" xlink:title="gk_malloc">
<polygon fill="white" stroke="black" points="184,-57.5 184,-76.5 246,-76.5 246,-57.5 184,-57.5"/>
<text text-anchor="middle" x="215" y="-64.5" font-family="Helvetica,sans-Serif" font-size="10.00">gk_malloc</text>
</a>
</g>
</g>
<!-- Node5&#45;&gt;Node6 -->
<g id="edge1" class="edge"><title>Node5&#45;&gt;Node6</title>
<path fill="none" stroke="midnightblue" d="M144.907,-57.5557C154.723,-58.8973 164.527,-60.2375 173.538,-61.4692"/>
<polygon fill="midnightblue" stroke="midnightblue" points="173.322,-64.9722 183.704,-62.8588 174.27,-58.0366 173.322,-64.9722"/>
</g>
<!-- Node11 -->
<g id="node7" class="node"><title>Node11</title>
<g id="a_node7"><a xlink:href="a00077.html#ac8df62c4e3d0910711a9874f9cc58884" target="_top" xlink:title="gk_free">
<polygon fill="white" stroke="black" points="190,-19.5 190,-38.5 240,-38.5 240,-19.5 190,-19.5"/>
<text text-anchor="middle" x="215" y="-26.5" font-family="Helvetica,sans-Serif" font-size="10.00">gk_free</text>
</a>
</g>
</g>
<!-- Node5&#45;&gt;Node11 -->
<g id="edge7" class="edge"><title>Node5&#45;&gt;Node11</title>
<path fill="none" stroke="midnightblue" d="M144.907,-38.4443C157.076,-36.781 169.228,-35.1199 179.872,-33.665"/>
<polygon fill="midnightblue" stroke="midnightblue" points="180.523,-37.1087 189.957,-32.2865 179.575,-30.1731 180.523,-37.1087"/>
</g>
<!-- Node7 -->
<g id="node3" class="node"><title>Node7</title>
<g id="a_node3"><a xlink:href="a01017.html#a2e311a777ffe9c80e405efa7cd2757be" target="_top" xlink:title="fprintf">
<polygon fill="white" stroke="black" points="446,-57.5 446,-76.5 488,-76.5 488,-57.5 446,-57.5"/>
<text text-anchor="middle" x="467" y="-64.5" font-family="Helvetica,sans-Serif" font-size="10.00">fprintf</text>
</a>
</g>
</g>
<!-- Node6&#45;&gt;Node7 -->
<g id="edge2" class="edge"><title>Node6&#45;&gt;Node7</title>
<path fill="none" stroke="midnightblue" d="M228.261,-76.7187C240.891,-86.0589 261.563,-99.5369 282,-105 336.959,-119.691 355.62,-121.709 410,-105 424.039,-100.686 437.719,-91.5255 448.044,-83.2793"/>
<polygon fill="midnightblue" stroke="midnightblue" points="450.469,-85.8134 455.862,-76.6941 445.959,-80.4595 450.469,-85.8134"/>
</g>
<!-- Node8 -->
<g id="node4" class="node"><title>Node8</title>
<g id="a_node4"><a xlink:href="a00110.html#ad2327b94227019b6753b6b09400c0522" target="_top" xlink:title="gk_GetCurMemoryUsed">
<polygon fill="white" stroke="black" points="284,-76.5 284,-95.5 408,-95.5 408,-76.5 284,-76.5"/>
<text text-anchor="middle" x="346" y="-83.5" font-family="Helvetica,sans-Serif" font-size="10.00">gk_GetCurMemoryUsed</text>
</a>
</g>
</g>
<!-- Node6&#45;&gt;Node8 -->
<g id="edge3" class="edge"><title>Node6&#45;&gt;Node8</title>
<path fill="none" stroke="midnightblue" d="M246.245,-71.4547C254.646,-72.692 264.139,-74.0903 273.836,-75.5184"/>
<polygon fill="midnightblue" stroke="midnightblue" points="273.573,-79.0175 283.977,-77.0121 274.593,-72.0922 273.573,-79.0175"/>
</g>
<!-- Node9 -->
<g id="node5" class="node"><title>Node9</title>
<g id="a_node5"><a xlink:href="a00110.html#a656fd5266ae12a96e53125486f8fea52" target="_top" xlink:title="gk_GetMaxMemoryUsed">
<polygon fill="white" stroke="black" points="282.5,-38.5 282.5,-57.5 409.5,-57.5 409.5,-38.5 282.5,-38.5"/>
<text text-anchor="middle" x="346" y="-45.5" font-family="Helvetica,sans-Serif" font-size="10.00">gk_GetMaxMemoryUsed</text>
</a>
</g>
</g>
<!-- Node6&#45;&gt;Node9 -->
<g id="edge4" class="edge"><title>Node6&#45;&gt;Node9</title>
<path fill="none" stroke="midnightblue" d="M246.245,-62.5453C254.229,-61.3693 263.2,-60.048 272.395,-58.6938"/>
<polygon fill="midnightblue" stroke="midnightblue" points="273.04,-62.1366 282.423,-57.2167 272.02,-55.2113 273.04,-62.1366"/>
</g>
<!-- Node10 -->
<g id="node6" class="node"><title>Node10</title>
<g id="a_node6"><a xlink:href="a00026.html#a4c320c13bcdc9967613253ef4c73f59f" target="_top" xlink:title="gk_errexit">
<polygon fill="white" stroke="black" points="316,-0.5 316,-19.5 376,-19.5 376,-0.5 316,-0.5"/>
<text text-anchor="middle" x="346" y="-7.5" font-family="Helvetica,sans-Serif" font-size="10.00">gk_errexit</text>
</a>
</g>
</g>
<!-- Node6&#45;&gt;Node10 -->
<g id="edge5" class="edge"><title>Node6&#45;&gt;Node10</title>
<path fill="none" stroke="midnightblue" d="M231.589,-57.4697C247.76,-47.6847 272.047,-33.2984 282,-29 289.68,-25.6834 298.121,-22.7096 306.259,-20.1539"/>
<polygon fill="midnightblue" stroke="midnightblue" points="307.388,-23.4695 315.965,-17.2488 305.381,-16.7634 307.388,-23.4695"/>
</g>
<!-- Node10&#45;&gt;Node7 -->
<g id="edge6" class="edge"><title>Node10&#45;&gt;Node7</title>
<path fill="none" stroke="midnightblue" d="M376.228,-16.8252C387.104,-19.8755 399.377,-23.9396 410,-29 422.634,-35.0184 435.634,-43.6626 445.925,-51.1863"/>
<polygon fill="midnightblue" stroke="midnightblue" points="444.101,-54.1937 454.194,-57.4154 448.313,-48.6027 444.101,-54.1937"/>
</g>
</g>
</svg>
