<?xml version="1.0" encoding="UTF-8" standalone="no"?>
<!DOCTYPE svg PUBLIC "-//W3C//DTD SVG 1.1//EN"
 "http://www.w3.org/Graphics/SVG/1.1/DTD/svg11.dtd">
<!-- Generated by graphviz version 2.36.0 (20140111.2315)
 -->
<!-- Title: ReadMesh Pages: 1 -->
<!--zoomable 280 -->
<svg id="main" version="1.1" xmlns="http://www.w3.org/2000/svg" xmlns:xlink="http://www.w3.org/1999/xlink" xml:space="preserve" onload="init(evt)">
<style type="text/css"><![CDATA[
.edge:hover path { stroke: red; }
.edge:hover polygon { stroke: red; fill: red; }
]]></style>
<script type="text/javascript"><![CDATA[
var edges = document.getElementsByTagName('g');
if (edges && edges.length) {
  for (var i=0;i<edges.length;i++) {
    if (edges[i].id.substr(0,4)=='edge') {
      edges[i].setAttribute('class','edge');
    }
  }
}
]]></script>
        <defs>
                <circle id="rim" cx="0" cy="0" r="7"/>
                <circle id="rim2" cx="0" cy="0" r="3.5"/>
                <g id="zoomPlus">
                        <use xlink:href="#rim" fill="#404040">
                                <set attributeName="fill" to="#808080" begin="zoomplus.mouseover" end="zoomplus.mouseout"/>
                        </use>
                        <path d="M-4,0h8M0,-4v8" fill="none" stroke="white" stroke-width="1.5" pointer-events="none"/>
                </g>
                <g id="zoomMin">
                        <use xlink:href="#rim" fill="#404040">
                                <set attributeName="fill" to="#808080" begin="zoomminus.mouseover" end="zoomminus.mouseout"/>
                        </use>
                        <path d="M-4,0h8" fill="none" stroke="white" stroke-width="1.5" pointer-events="none"/>
                </g>
                <g id="dirArrow">
                        <path fill="none" stroke="white" stroke-width="1.5" d="M0,-3.0v7 M-2.5,-0.5L0,-3.0L2.5,-0.5"/>
                </g>
               <g id="resetDef">
                       <use xlink:href="#rim2" fill="#404040">
                               <set attributeName="fill" to="#808080" begin="reset.mouseover" end="reset.mouseout"/>
                       </use>
               </g>
        </defs>

<script type="text/javascript">
var viewWidth = 530;
var viewHeight = 280;
var sectionId = 'dynsection-19';
</script>
<script xlink:href="svgpan.js"/>
<svg id="graph" class="graph">
<g id="viewport">
<title>ReadMesh</title>
<polygon fill="white" stroke="none" points="-4,4 -4,-276.323 526,-276.323 526,4 -4,4"/>
<!-- Node75 -->
<g id="node1" class="node"><title>Node75</title>
<polygon fill="#bfbfbf" stroke="black" points="0.5,-138.823 0.5,-157.823 65.5,-157.823 65.5,-138.823 0.5,-138.823"/>
<text text-anchor="middle" x="33" y="-145.823" font-family="Helvetica,sans-Serif" font-size="10.00">ReadMesh</text>
</g>
<!-- Node76 -->
<g id="node2" class="node"><title>Node76</title>
<g id="a_node2"><a xlink:href="a00035.html#a627221a374552b5b6659d855b7446187" target="_top" xlink:title="gk_fexists">
<polygon fill="white" stroke="black" points="111.5,-252.823 111.5,-271.823 172.5,-271.823 172.5,-252.823 111.5,-252.823"/>
<text text-anchor="middle" x="142" y="-259.823" font-family="Helvetica,sans-Serif" font-size="10.00">gk_fexists</text>
</a>
</g>
</g>
<!-- Node75&#45;&gt;Node76 -->
<g id="edge1" class="edge"><title>Node75&#45;&gt;Node76</title>
<path fill="none" stroke="midnightblue" d="M38.7444,-157.873C48.3892,-176.467 71.9412,-217.931 102,-243.323 103.73,-244.785 105.591,-246.165 107.529,-247.462"/>
<polygon fill="midnightblue" stroke="midnightblue" points="105.949,-250.593 116.348,-252.622 109.484,-244.551 105.949,-250.593"/>
</g>
<!-- Node77 -->
<g id="node3" class="node"><title>Node77</title>
<g id="a_node3"><a xlink:href="a00026.html#a56d0f2cc40cd8633a784582d6200d8b5" target="_top" xlink:title="errexit">
<polygon fill="white" stroke="black" points="358,-138.823 358,-157.823 402,-157.823 402,-138.823 358,-138.823"/>
<text text-anchor="middle" x="380" y="-145.823" font-family="Helvetica,sans-Serif" font-size="10.00">errexit</text>
</a>
</g>
</g>
<!-- Node75&#45;&gt;Node77 -->
<g id="edge2" class="edge"><title>Node75&#45;&gt;Node77</title>
<path fill="none" stroke="midnightblue" d="M65.8752,-142.364C112.806,-134.383 203.242,-122.024 280,-129.323 303.039,-131.514 328.691,-136.511 348.11,-140.831"/>
<polygon fill="midnightblue" stroke="midnightblue" points="347.396,-144.258 357.925,-143.074 348.956,-137.434 347.396,-144.258"/>
</g>
<!-- Node79 -->
<g id="node5" class="node"><title>Node79</title>
<g id="a_node5"><a xlink:href="a00035.html#a739112cb142f2e96d6952140c66cd31c" target="_top" xlink:title="gk_getfilestats">
<polygon fill="white" stroke="black" points="102,-176.823 102,-195.823 182,-195.823 182,-176.823 102,-176.823"/>
<text text-anchor="middle" x="142" y="-183.823" font-family="Helvetica,sans-Serif" font-size="10.00">gk_getfilestats</text>
</a>
</g>
</g>
<!-- Node75&#45;&gt;Node79 -->
<g id="edge4" class="edge"><title>Node75&#45;&gt;Node79</title>
<path fill="none" stroke="midnightblue" d="M61.0006,-157.912C74.1797,-162.593 90.229,-168.293 104.484,-173.355"/>
<polygon fill="midnightblue" stroke="midnightblue" points="103.413,-176.689 114.008,-176.738 105.756,-170.093 103.413,-176.689"/>
</g>
<!-- Node84 -->
<g id="node10" class="node"><title>Node84</title>
<g id="a_node10"><a xlink:href="a00858.html#abff04948821f625a3e59666e61c70e2f" target="_top" xlink:title="gk_fopen">
<polygon fill="white" stroke="black" points="220,-138.823 220,-157.823 278,-157.823 278,-138.823 220,-138.823"/>
<text text-anchor="middle" x="249" y="-145.823" font-family="Helvetica,sans-Serif" font-size="10.00">gk_fopen</text>
</a>
</g>
</g>
<!-- Node75&#45;&gt;Node84 -->
<g id="edge10" class="edge"><title>Node75&#45;&gt;Node84</title>
<path fill="none" stroke="midnightblue" d="M65.5764,-148.323C103.866,-148.323 168.374,-148.323 209.53,-148.323"/>
<polygon fill="midnightblue" stroke="midnightblue" points="209.714,-151.824 219.714,-148.323 209.714,-144.824 209.714,-151.824"/>
</g>
<!-- Node85 -->
<g id="node11" class="node"><title>Node85</title>
<g id="a_node11"><a xlink:href="a00858.html#ad8263f64108434d7ebab9799b5ab9632" target="_top" xlink:title="gk_getline">
<polygon fill="white" stroke="black" points="111,-62.8235 111,-81.8235 173,-81.8235 173,-62.8235 111,-62.8235"/>
<text text-anchor="middle" x="142" y="-69.8235" font-family="Helvetica,sans-Serif" font-size="10.00">gk_getline</text>
</a>
</g>
</g>
<!-- Node75&#45;&gt;Node85 -->
<g id="edge13" class="edge"><title>Node75&#45;&gt;Node85</title>
<path fill="none" stroke="midnightblue" d="M45.766,-138.744C59.1134,-128.015 81.6699,-110.299 102,-96.3235 106.392,-93.3046 111.157,-90.2211 115.8,-87.314"/>
<polygon fill="midnightblue" stroke="midnightblue" points="117.756,-90.2199 124.446,-82.004 114.093,-84.255 117.756,-90.2199"/>
</g>
<!-- Node91 -->
<g id="node17" class="node"><title>Node91</title>
<g id="a_node17"><a xlink:href="a00858.html#a70dec19fefaf0c84f3948b4679a73fec" target="_top" xlink:title="gk_fclose">
<polygon fill="white" stroke="black" points="112.5,-214.823 112.5,-233.823 171.5,-233.823 171.5,-214.823 112.5,-214.823"/>
<text text-anchor="middle" x="142" y="-221.823" font-family="Helvetica,sans-Serif" font-size="10.00">gk_fclose</text>
</a>
</g>
</g>
<!-- Node75&#45;&gt;Node91 -->
<g id="edge21" class="edge"><title>Node75&#45;&gt;Node91</title>
<path fill="none" stroke="midnightblue" d="M43.9796,-158.049C56.7165,-170.13 79.7719,-190.903 102,-205.323 104.571,-206.991 107.31,-208.609 110.098,-210.15"/>
<polygon fill="midnightblue" stroke="midnightblue" points="108.54,-213.285 119.029,-214.781 111.763,-207.071 108.54,-213.285"/>
</g>
<!-- Node92 -->
<g id="node18" class="node"><title>Node92</title>
<g id="a_node18"><a xlink:href="a00077.html#ac8df62c4e3d0910711a9874f9cc58884" target="_top" xlink:title="gk_free">
<polygon fill="white" stroke="black" points="117,-24.8235 117,-43.8235 167,-43.8235 167,-24.8235 117,-24.8235"/>
<text text-anchor="middle" x="142" y="-31.8235" font-family="Helvetica,sans-Serif" font-size="10.00">gk_free</text>
</a>
</g>
</g>
<!-- Node75&#45;&gt;Node92 -->
<g id="edge23" class="edge"><title>Node75&#45;&gt;Node92</title>
<path fill="none" stroke="midnightblue" d="M38.7444,-138.774C48.3892,-120.18 71.9412,-78.716 102,-53.3235 103.776,-51.8229 105.692,-50.4078 107.686,-49.0796"/>
<polygon fill="midnightblue" stroke="midnightblue" points="109.864,-51.8624 116.756,-43.8155 106.35,-45.8081 109.864,-51.8624"/>
</g>
<!-- Node78 -->
<g id="node4" class="node"><title>Node78</title>
<g id="a_node4"><a xlink:href="a01017.html#a2e311a777ffe9c80e405efa7cd2757be" target="_top" xlink:title="fprintf">
<polygon fill="white" stroke="black" points="480,-100.823 480,-119.823 522,-119.823 522,-100.823 480,-100.823"/>
<text text-anchor="middle" x="501" y="-107.823" font-family="Helvetica,sans-Serif" font-size="10.00">fprintf</text>
</a>
</g>
</g>
<!-- Node77&#45;&gt;Node78 -->
<g id="edge3" class="edge"><title>Node77&#45;&gt;Node78</title>
<path fill="none" stroke="midnightblue" d="M402.056,-142.169C414.324,-138.534 430.074,-133.784 444,-129.323 452.573,-126.577 461.844,-123.483 470.328,-120.602"/>
<polygon fill="midnightblue" stroke="midnightblue" points="471.507,-123.897 479.837,-117.35 469.243,-117.274 471.507,-123.897"/>
</g>
<!-- Node80 -->
<g id="node6" class="node"><title>Node80</title>
<g id="a_node6"><a xlink:href="a00077.html#ab2b996e10c5bccb30204d81804adfd24" target="_top" xlink:title="gk_fopen">
<polygon fill="white" stroke="black" points="220,-176.823 220,-195.823 278,-195.823 278,-176.823 220,-176.823"/>
<text text-anchor="middle" x="249" y="-183.823" font-family="Helvetica,sans-Serif" font-size="10.00">gk_fopen</text>
</a>
</g>
</g>
<!-- Node79&#45;&gt;Node80 -->
<g id="edge5" class="edge"><title>Node79&#45;&gt;Node80</title>
<path fill="none" stroke="midnightblue" d="M182.098,-186.323C191.066,-186.323 200.594,-186.323 209.535,-186.323"/>
<polygon fill="midnightblue" stroke="midnightblue" points="209.694,-189.824 219.694,-186.323 209.694,-182.824 209.694,-189.824"/>
</g>
<!-- Node82 -->
<g id="node8" class="node"><title>Node82</title>
<g id="a_node8"><a xlink:href="a00077.html#a0fd03cab5187904b005485109d9fa2b5" target="_top" xlink:title="gk_fclose">
<polygon fill="white" stroke="black" points="219.5,-214.823 219.5,-233.823 278.5,-233.823 278.5,-214.823 219.5,-214.823"/>
<text text-anchor="middle" x="249" y="-221.823" font-family="Helvetica,sans-Serif" font-size="10.00">gk_fclose</text>
</a>
</g>
</g>
<!-- Node79&#45;&gt;Node82 -->
<g id="edge8" class="edge"><title>Node79&#45;&gt;Node82</title>
<path fill="none" stroke="midnightblue" d="M169.496,-195.912C182.304,-200.548 197.875,-206.183 211.762,-211.209"/>
<polygon fill="midnightblue" stroke="midnightblue" points="210.918,-214.626 221.513,-214.738 213.3,-208.043 210.918,-214.626"/>
</g>
<!-- Node80&#45;&gt;Node77 -->
<g id="edge7" class="edge"><title>Node80&#45;&gt;Node77</title>
<path fill="none" stroke="midnightblue" d="M278.31,-177.984C298.96,-171.901 326.929,-163.662 348.149,-157.411"/>
<polygon fill="midnightblue" stroke="midnightblue" points="349.359,-160.704 357.962,-154.521 347.381,-153.989 349.359,-160.704"/>
</g>
<!-- Node81 -->
<g id="node7" class="node"><title>Node81</title>
<g id="a_node7"><a xlink:href="a00575.html#ae6aab5c308faac0fc539cc9c6da9fbd0" target="_top" xlink:title="sprintf">
<polygon fill="white" stroke="black" points="358,-176.823 358,-195.823 402,-195.823 402,-176.823 358,-176.823"/>
<text text-anchor="middle" x="380" y="-183.823" font-family="Helvetica,sans-Serif" font-size="10.00">sprintf</text>
</a>
</g>
</g>
<!-- Node80&#45;&gt;Node81 -->
<g id="edge6" class="edge"><title>Node80&#45;&gt;Node81</title>
<path fill="none" stroke="midnightblue" d="M278.31,-186.323C298.866,-186.323 326.675,-186.323 347.859,-186.323"/>
<polygon fill="midnightblue" stroke="midnightblue" points="347.962,-189.824 357.962,-186.323 347.962,-182.824 347.962,-189.824"/>
</g>
<!-- Node83 -->
<g id="node9" class="node"><title>Node83</title>
<g id="a_node9"><a xlink:href="a01017.html#a355ed4cdac2a27aa04a6689ac2d7e86e" target="_top" xlink:title="fclose">
<polygon fill="white" stroke="black" points="358.5,-233.823 358.5,-252.823 401.5,-252.823 401.5,-233.823 358.5,-233.823"/>
<text text-anchor="middle" x="380" y="-240.823" font-family="Helvetica,sans-Serif" font-size="10.00">fclose</text>
</a>
</g>
</g>
<!-- Node82&#45;&gt;Node83 -->
<g id="edge9" class="edge"><title>Node82&#45;&gt;Node83</title>
<path fill="none" stroke="midnightblue" d="M278.629,-228.54C299.33,-231.589 327.259,-235.703 348.4,-238.816"/>
<polygon fill="midnightblue" stroke="midnightblue" points="348.063,-242.305 358.466,-240.299 349.083,-235.379 348.063,-242.305"/>
</g>
<!-- Node84&#45;&gt;Node77 -->
<g id="edge12" class="edge"><title>Node84&#45;&gt;Node77</title>
<path fill="none" stroke="midnightblue" d="M278.31,-148.323C298.866,-148.323 326.675,-148.323 347.859,-148.323"/>
<polygon fill="midnightblue" stroke="midnightblue" points="347.962,-151.824 357.962,-148.323 347.962,-144.824 347.962,-151.824"/>
</g>
<!-- Node84&#45;&gt;Node81 -->
<g id="edge11" class="edge"><title>Node84&#45;&gt;Node81</title>
<path fill="none" stroke="midnightblue" d="M278.31,-156.663C298.96,-162.746 326.929,-170.985 348.149,-177.236"/>
<polygon fill="midnightblue" stroke="midnightblue" points="347.381,-180.658 357.962,-180.126 349.359,-173.943 347.381,-180.658"/>
</g>
<!-- Node86 -->
<g id="node12" class="node"><title>Node86</title>
<g id="a_node12"><a xlink:href="a00077.html#aba6f76f5c67b9b7e9c2e45988d3d3e9d" target="_top" xlink:title="gk_malloc">
<polygon fill="white" stroke="black" points="218,-24.8235 218,-43.8235 280,-43.8235 280,-24.8235 218,-24.8235"/>
<text text-anchor="middle" x="249" y="-31.8235" font-family="Helvetica,sans-Serif" font-size="10.00">gk_malloc</text>
</a>
</g>
</g>
<!-- Node85&#45;&gt;Node86 -->
<g id="edge14" class="edge"><title>Node85&#45;&gt;Node86</title>
<path fill="none" stroke="midnightblue" d="M169.496,-62.7345C182.304,-58.0991 197.875,-52.4638 211.762,-47.4382"/>
<polygon fill="midnightblue" stroke="midnightblue" points="213.3,-50.6036 221.513,-43.9094 210.918,-44.0214 213.3,-50.6036"/>
</g>
<!-- Node90 -->
<g id="node16" class="node"><title>Node90</title>
<g id="a_node16"><a xlink:href="a00077.html#ab76a07ccd25288dd9acc99f5f24a7600" target="_top" xlink:title="gk_realloc">
<polygon fill="white" stroke="black" points="218,-62.8235 218,-81.8235 280,-81.8235 280,-62.8235 218,-62.8235"/>
<text text-anchor="middle" x="249" y="-69.8235" font-family="Helvetica,sans-Serif" font-size="10.00">gk_realloc</text>
</a>
</g>
</g>
<!-- Node85&#45;&gt;Node90 -->
<g id="edge20" class="edge"><title>Node85&#45;&gt;Node90</title>
<path fill="none" stroke="midnightblue" d="M173.089,-72.3235C183.853,-72.3235 196.164,-72.3235 207.654,-72.3235"/>
<polygon fill="midnightblue" stroke="midnightblue" points="207.907,-75.8236 217.907,-72.3235 207.907,-68.8236 207.907,-75.8236"/>
</g>
<!-- Node86&#45;&gt;Node78 -->
<g id="edge15" class="edge"><title>Node86&#45;&gt;Node78</title>
<path fill="none" stroke="midnightblue" d="M271.199,-24.7032C308.769,-9.20637 388.317,16.49 444,-15.3235 472.286,-31.4842 487.71,-68.1318 494.874,-90.8925"/>
<polygon fill="midnightblue" stroke="midnightblue" points="491.6,-92.1705 497.748,-100.8 498.323,-90.2206 491.6,-92.1705"/>
</g>
<!-- Node87 -->
<g id="node13" class="node"><title>Node87</title>
<g id="a_node13"><a xlink:href="a00110.html#ad2327b94227019b6753b6b09400c0522" target="_top" xlink:title="gk_GetCurMemoryUsed">
<polygon fill="white" stroke="black" points="318,-62.8235 318,-81.8235 442,-81.8235 442,-62.8235 318,-62.8235"/>
<text text-anchor="middle" x="380" y="-69.8235" font-family="Helvetica,sans-Serif" font-size="10.00">gk_GetCurMemoryUsed</text>
</a>
</g>
</g>
<!-- Node86&#45;&gt;Node87 -->
<g id="edge16" class="edge"><title>Node86&#45;&gt;Node87</title>
<path fill="none" stroke="midnightblue" d="M280.245,-43.2328C297.162,-48.2162 318.509,-54.5044 337.024,-59.9584"/>
<polygon fill="midnightblue" stroke="midnightblue" points="336.108,-63.3373 346.69,-62.8057 338.086,-56.6226 336.108,-63.3373"/>
</g>
<!-- Node88 -->
<g id="node14" class="node"><title>Node88</title>
<g id="a_node14"><a xlink:href="a00110.html#a656fd5266ae12a96e53125486f8fea52" target="_top" xlink:title="gk_GetMaxMemoryUsed">
<polygon fill="white" stroke="black" points="316.5,-24.8235 316.5,-43.8235 443.5,-43.8235 443.5,-24.8235 316.5,-24.8235"/>
<text text-anchor="middle" x="380" y="-31.8235" font-family="Helvetica,sans-Serif" font-size="10.00">gk_GetMaxMemoryUsed</text>
</a>
</g>
</g>
<!-- Node86&#45;&gt;Node88 -->
<g id="edge17" class="edge"><title>Node86&#45;&gt;Node88</title>
<path fill="none" stroke="midnightblue" d="M280.245,-34.3235C288.229,-34.3235 297.2,-34.3235 306.395,-34.3235"/>
<polygon fill="midnightblue" stroke="midnightblue" points="306.423,-37.8236 316.423,-34.3235 306.423,-30.8236 306.423,-37.8236"/>
</g>
<!-- Node89 -->
<g id="node15" class="node"><title>Node89</title>
<g id="a_node15"><a xlink:href="a00026.html#a4c320c13bcdc9967613253ef4c73f59f" target="_top" xlink:title="gk_errexit">
<polygon fill="white" stroke="black" points="350,-100.823 350,-119.823 410,-119.823 410,-100.823 350,-100.823"/>
<text text-anchor="middle" x="380" y="-107.823" font-family="Helvetica,sans-Serif" font-size="10.00">gk_errexit</text>
</a>
</g>
</g>
<!-- Node86&#45;&gt;Node89 -->
<g id="edge18" class="edge"><title>Node86&#45;&gt;Node89</title>
<path fill="none" stroke="midnightblue" d="M266.702,-43.8749C271.177,-46.7052 275.906,-49.9548 280,-53.3235 297.965,-68.1051 296.199,-79.1106 316,-91.3235 323.338,-95.8495 331.825,-99.3582 340.145,-102.056"/>
<polygon fill="midnightblue" stroke="midnightblue" points="339.177,-105.419 349.757,-104.863 341.139,-98.7001 339.177,-105.419"/>
</g>
<!-- Node89&#45;&gt;Node78 -->
<g id="edge19" class="edge"><title>Node89&#45;&gt;Node78</title>
<path fill="none" stroke="midnightblue" d="M410.111,-110.323C428.172,-110.323 451.339,-110.323 469.631,-110.323"/>
<polygon fill="midnightblue" stroke="midnightblue" points="469.762,-113.824 479.762,-110.323 469.762,-106.824 469.762,-113.824"/>
</g>
<!-- Node91&#45;&gt;Node83 -->
<g id="edge22" class="edge"><title>Node91&#45;&gt;Node83</title>
<path fill="none" stroke="midnightblue" d="M171.529,-233.325C185.399,-237.243 202.405,-241.379 218,-243.323 262.98,-248.932 315.58,-247.435 348.096,-245.584"/>
<polygon fill="midnightblue" stroke="midnightblue" points="348.548,-249.063 358.313,-244.952 348.116,-242.076 348.548,-249.063"/>
</g>
</g>
</svg>
        <g id="navigator" transform="translate(0 0)" fill="#404254">
                <rect fill="#f2f5e9" fill-opacity="0.5" stroke="#606060" stroke-width=".5" x="0" y="0" width="60" height="60"/>
                <use id="zoomplus" xlink:href="#zoomPlus" x="17" y="9" onmousedown="handleZoom(evt,'in')"/>
                <use id="zoomminus" xlink:href="#zoomMin" x="42" y="9" onmousedown="handleZoom(evt,'out')"/>
                <use id="reset" xlink:href="#resetDef" x="30" y="36" onmousedown="handleReset()"/>
                <g id="arrowUp" xlink:href="#dirArrow" transform="translate(30 24)" onmousedown="handlePan(0,-1)">
                  <use xlink:href="#rim" fill="#404040">
                        <set attributeName="fill" to="#808080" begin="arrowUp.mouseover" end="arrowUp.mouseout"/>
                  </use>
                  <path fill="none" stroke="white" stroke-width="1.5" d="M0,-3.0v7 M-2.5,-0.5L0,-3.0L2.5,-0.5"/>
                </g>
                <g id="arrowRight" xlink:href="#dirArrow" transform="rotate(90) translate(36 -43)" onmousedown="handlePan(1,0)">
                  <use xlink:href="#rim" fill="#404040">
                        <set attributeName="fill" to="#808080" begin="arrowRight.mouseover" end="arrowRight.mouseout"/>
                  </use>
                  <path fill="none" stroke="white" stroke-width="1.5" d="M0,-3.0v7 M-2.5,-0.5L0,-3.0L2.5,-0.5"/>
                </g>
                <g id="arrowDown" xlink:href="#dirArrow" transform="rotate(180) translate(-30 -48)" onmousedown="handlePan(0,1)">
                  <use xlink:href="#rim" fill="#404040">
                        <set attributeName="fill" to="#808080" begin="arrowDown.mouseover" end="arrowDown.mouseout"/>
                  </use>
                  <path fill="none" stroke="white" stroke-width="1.5" d="M0,-3.0v7 M-2.5,-0.5L0,-3.0L2.5,-0.5"/>
                </g>
                <g id="arrowLeft" xlink:href="#dirArrow" transform="rotate(270) translate(-36 17)" onmousedown="handlePan(-1,0)">
                  <use xlink:href="#rim" fill="#404040">
                        <set attributeName="fill" to="#808080" begin="arrowLeft.mouseover" end="arrowLeft.mouseout"/>
                  </use>
                  <path fill="none" stroke="white" stroke-width="1.5" d="M0,-3.0v7 M-2.5,-0.5L0,-3.0L2.5,-0.5"/>
                </g>
        </g>
        <svg viewBox="0 0 15 15" width="100%" height="30px" preserveAspectRatio="xMaxYMin meet">
         <g id="arrow_out" transform="scale(0.3 0.3)">
          <a xlink:href="a00951_aef01a8b2c6432d21be77abeabeeeced8_cgraph_org.svg" target="_base">
           <rect id="button" ry="5" rx="5" y="6" x="6" height="38" width="38"
                fill="#f2f5e9" fill-opacity="0.5" stroke="#606060" stroke-width="1.0"/>
           <path id="arrow"
             d="M 11.500037,31.436501 C 11.940474,20.09759 22.043105,11.32322 32.158766,21.979434 L 37.068811,17.246167 C 37.068811,17.246167 37.088388,32 37.088388,32 L 22.160133,31.978069 C 22.160133,31.978069 26.997745,27.140456 26.997745,27.140456 C 18.528582,18.264221 13.291696,25.230495 11.500037,31.436501 z"
             style="fill:#404040;"/>
          </a>
         </g>
        </svg>
</svg>
