<?xml version="1.0" encoding="UTF-8" standalone="no"?>
<!DOCTYPE svg PUBLIC "-//W3C//DTD SVG 1.1//EN"
 "http://www.w3.org/Graphics/SVG/1.1/DTD/svg11.dtd">
<!-- Generated by graphviz version 2.36.0 (20140111.2315)
 -->
<!-- Title: WriteMeshPartition Pages: 1 -->
<svg width="364pt" height="142pt"
 viewBox="0.00 0.00 364.00 142.00" xmlns="http://www.w3.org/2000/svg" xmlns:xlink="http://www.w3.org/1999/xlink">
<g id="graph0" class="graph" transform="scale(1 1) rotate(0) translate(4 138)">
<title>WriteMeshPartition</title>
<polygon fill="white" stroke="none" points="-4,4 -4,-138 360,-138 360,4 -4,4"/>
<!-- Node138 -->
<g id="node1" class="node"><title>Node138</title>
<polygon fill="#bfbfbf" stroke="black" points="0.5,-57.5 0.5,-76.5 101.5,-76.5 101.5,-57.5 0.5,-57.5"/>
<text text-anchor="middle" x="51" y="-64.5" font-family="Helvetica,sans-Serif" font-size="10.00">WriteMeshPartition</text>
</g>
<!-- Node139 -->
<g id="node2" class="node"><title>Node139</title>
<g id="a_node2"><a xlink:href="a00575.html#ae6aab5c308faac0fc539cc9c6da9fbd0" target="_top" xlink:title="sprintf">
<polygon fill="white" stroke="black" points="234,-114.5 234,-133.5 278,-133.5 278,-114.5 234,-114.5"/>
<text text-anchor="middle" x="256" y="-121.5" font-family="Helvetica,sans-Serif" font-size="10.00">sprintf</text>
</a>
</g>
</g>
<!-- Node138&#45;&gt;Node139 -->
<g id="edge1" class="edge"><title>Node138&#45;&gt;Node139</title>
<path fill="none" stroke="midnightblue" d="M69.941,-76.5483C86.9934,-85.2286 113.588,-97.7545 138,-105 166.399,-113.429 199.855,-118.386 223.701,-121.111"/>
<polygon fill="midnightblue" stroke="midnightblue" points="223.611,-124.621 233.928,-122.21 224.36,-117.662 223.611,-124.621"/>
</g>
<!-- Node140 -->
<g id="node3" class="node"><title>Node140</title>
<g id="a_node3"><a xlink:href="a00858.html#abff04948821f625a3e59666e61c70e2f" target="_top" xlink:title="gk_fopen">
<polygon fill="white" stroke="black" points="139,-76.5 139,-95.5 197,-95.5 197,-76.5 139,-76.5"/>
<text text-anchor="middle" x="168" y="-83.5" font-family="Helvetica,sans-Serif" font-size="10.00">gk_fopen</text>
</a>
</g>
</g>
<!-- Node138&#45;&gt;Node140 -->
<g id="edge2" class="edge"><title>Node138&#45;&gt;Node140</title>
<path fill="none" stroke="midnightblue" d="M101.772,-75.2232C110.934,-76.737 120.363,-78.2948 129.105,-79.7392"/>
<polygon fill="midnightblue" stroke="midnightblue" points="128.559,-83.1962 138.995,-81.3731 129.7,-76.2898 128.559,-83.1962"/>
</g>
<!-- Node142 -->
<g id="node5" class="node"><title>Node142</title>
<g id="a_node5"><a xlink:href="a01017.html#a2e311a777ffe9c80e405efa7cd2757be" target="_top" xlink:title="fprintf">
<polygon fill="white" stroke="black" points="314,-57.5 314,-76.5 356,-76.5 356,-57.5 314,-57.5"/>
<text text-anchor="middle" x="335" y="-64.5" font-family="Helvetica,sans-Serif" font-size="10.00">fprintf</text>
</a>
</g>
</g>
<!-- Node138&#45;&gt;Node142 -->
<g id="edge6" class="edge"><title>Node138&#45;&gt;Node142</title>
<path fill="none" stroke="midnightblue" d="M101.767,-67C160.273,-67 255.506,-67 303.825,-67"/>
<polygon fill="midnightblue" stroke="midnightblue" points="303.947,-70.5001 313.947,-67 303.947,-63.5001 303.947,-70.5001"/>
</g>
<!-- Node143 -->
<g id="node6" class="node"><title>Node143</title>
<g id="a_node6"><a xlink:href="a00858.html#a70dec19fefaf0c84f3948b4679a73fec" target="_top" xlink:title="gk_fclose">
<polygon fill="white" stroke="black" points="138.5,-0.5 138.5,-19.5 197.5,-19.5 197.5,-0.5 138.5,-0.5"/>
<text text-anchor="middle" x="168" y="-7.5" font-family="Helvetica,sans-Serif" font-size="10.00">gk_fclose</text>
</a>
</g>
</g>
<!-- Node138&#45;&gt;Node143 -->
<g id="edge7" class="edge"><title>Node138&#45;&gt;Node143</title>
<path fill="none" stroke="midnightblue" d="M71.2484,-57.4595C89.6574,-48.335 117.64,-34.4656 138.608,-24.0726"/>
<polygon fill="midnightblue" stroke="midnightblue" points="140.283,-27.1486 147.689,-19.5716 137.175,-20.8767 140.283,-27.1486"/>
</g>
<!-- Node140&#45;&gt;Node139 -->
<g id="edge3" class="edge"><title>Node140&#45;&gt;Node139</title>
<path fill="none" stroke="midnightblue" d="M190.701,-95.589C200.939,-100.112 213.331,-105.588 224.493,-110.52"/>
<polygon fill="midnightblue" stroke="midnightblue" points="223.339,-113.836 233.9,-114.677 226.168,-107.434 223.339,-113.836"/>
</g>
<!-- Node141 -->
<g id="node4" class="node"><title>Node141</title>
<g id="a_node4"><a xlink:href="a00026.html#a56d0f2cc40cd8633a784582d6200d8b5" target="_top" xlink:title="errexit">
<polygon fill="white" stroke="black" points="234,-76.5 234,-95.5 278,-95.5 278,-76.5 234,-76.5"/>
<text text-anchor="middle" x="256" y="-83.5" font-family="Helvetica,sans-Serif" font-size="10.00">errexit</text>
</a>
</g>
</g>
<!-- Node140&#45;&gt;Node141 -->
<g id="edge4" class="edge"><title>Node140&#45;&gt;Node141</title>
<path fill="none" stroke="midnightblue" d="M197.16,-86C205.657,-86 215.036,-86 223.724,-86"/>
<polygon fill="midnightblue" stroke="midnightblue" points="223.873,-89.5001 233.873,-86 223.873,-82.5001 223.873,-89.5001"/>
</g>
<!-- Node141&#45;&gt;Node142 -->
<g id="edge5" class="edge"><title>Node141&#45;&gt;Node142</title>
<path fill="none" stroke="midnightblue" d="M278.041,-80.8082C286.042,-78.8339 295.319,-76.5446 303.992,-74.4047"/>
<polygon fill="midnightblue" stroke="midnightblue" points="304.911,-77.7828 313.782,-71.9889 303.234,-70.9866 304.911,-77.7828"/>
</g>
<!-- Node144 -->
<g id="node7" class="node"><title>Node144</title>
<g id="a_node7"><a xlink:href="a01017.html#a355ed4cdac2a27aa04a6689ac2d7e86e" target="_top" xlink:title="fclose">
<polygon fill="white" stroke="black" points="234.5,-0.5 234.5,-19.5 277.5,-19.5 277.5,-0.5 234.5,-0.5"/>
<text text-anchor="middle" x="256" y="-7.5" font-family="Helvetica,sans-Serif" font-size="10.00">fclose</text>
</a>
</g>
</g>
<!-- Node143&#45;&gt;Node144 -->
<g id="edge8" class="edge"><title>Node143&#45;&gt;Node144</title>
<path fill="none" stroke="midnightblue" d="M197.637,-10C206.182,-10 215.583,-10 224.257,-10"/>
<polygon fill="midnightblue" stroke="midnightblue" points="224.372,-13.5001 234.372,-10 224.372,-6.5001 224.372,-13.5001"/>
</g>
</g>
</svg>
