<?xml version="1.0" encoding="UTF-8" standalone="no"?>
<!DOCTYPE svg PUBLIC "-//W3C//DTD SVG 1.1//EN"
 "http://www.w3.org/Graphics/SVG/1.1/DTD/svg11.dtd">
<!-- Generated by graphviz version 2.36.0 (20140111.2315)
 -->
<!-- Title: InitKWayPartitioning Pages: 1 -->
<svg width="700pt" height="294pt"
 viewBox="0.00 0.00 700.00 294.00" xmlns="http://www.w3.org/2000/svg" xmlns:xlink="http://www.w3.org/1999/xlink">
<g id="graph0" class="graph" transform="scale(1 1) rotate(0) translate(4 290)">
<title>InitKWayPartitioning</title>
<polygon fill="white" stroke="none" points="-4,4 -4,-290 696,-290 696,4 -4,4"/>
<!-- Node429 -->
<g id="node1" class="node"><title>Node429</title>
<polygon fill="#bfbfbf" stroke="black" points="0.5,-133.5 0.5,-152.5 107.5,-152.5 107.5,-133.5 0.5,-133.5"/>
<text text-anchor="middle" x="54" y="-140.5" font-family="Helvetica,sans-Serif" font-size="10.00">InitKWayPartitioning</text>
</g>
<!-- Node430 -->
<g id="node2" class="node"><title>Node430</title>
<g id="a_node2"><a xlink:href="a00948.html#a7973c78504ad6711d3516082b1112805" target="_top" xlink:title="MlevelKWayPartitioning">
<polygon fill="white" stroke="black" points="144,-133.5 144,-152.5 266,-152.5 266,-133.5 144,-133.5"/>
<text text-anchor="middle" x="205" y="-140.5" font-family="Helvetica,sans-Serif" font-size="10.00">MlevelKWayPartitioning</text>
</a>
</g>
</g>
<!-- Node429&#45;&gt;Node430 -->
<g id="edge1" class="edge"><title>Node429&#45;&gt;Node430</title>
<path fill="none" stroke="midnightblue" d="M117.589,-143C126.268,-143 135.168,-143 143.802,-143"/>
<polygon fill="midnightblue" stroke="midnightblue" points="117.532,-139.5 107.532,-143 117.532,-146.5 117.532,-139.5"/>
</g>
<!-- Node431 -->
<g id="node3" class="node"><title>Node431</title>
<g id="a_node3"><a xlink:href="a00912.html#af89851458c047aba436b36ed567441e4" target="_top" xlink:title="METIS_PartGraphKway">
<polygon fill="white" stroke="black" points="302.5,-133.5 302.5,-152.5 425.5,-152.5 425.5,-133.5 302.5,-133.5"/>
<text text-anchor="middle" x="364" y="-140.5" font-family="Helvetica,sans-Serif" font-size="10.00">METIS_PartGraphKway</text>
</a>
</g>
</g>
<!-- Node430&#45;&gt;Node431 -->
<g id="edge2" class="edge"><title>Node430&#45;&gt;Node431</title>
<path fill="none" stroke="midnightblue" d="M276.361,-143C285.047,-143 293.868,-143 302.391,-143"/>
<polygon fill="midnightblue" stroke="midnightblue" points="276.251,-139.5 266.251,-143 276.251,-146.5 276.251,-139.5"/>
</g>
<!-- Node432 -->
<g id="node4" class="node"><title>Node432</title>
<g id="a_node4"><a xlink:href="a00846.html#a6df93293cf3d1ccb4659bd1b3091623d" target="_top" xlink:title="ParMETIS_V3_PartGeomKway">
<polygon fill="white" stroke="black" points="462,-266.5 462,-285.5 618,-285.5 618,-266.5 462,-266.5"/>
<text text-anchor="middle" x="540" y="-273.5" font-family="Helvetica,sans-Serif" font-size="10.00">ParMETIS_V3_PartGeomKway</text>
</a>
</g>
</g>
<!-- Node431&#45;&gt;Node432 -->
<g id="edge3" class="edge"><title>Node431&#45;&gt;Node432</title>
<path fill="none" stroke="midnightblue" d="M375.51,-161.425C391.049,-186.942 422.608,-232.639 462,-257 468.324,-260.911 475.406,-264.017 482.645,-266.484"/>
<polygon fill="midnightblue" stroke="midnightblue" points="378.463,-159.542 370.356,-152.721 372.44,-163.109 378.463,-159.542"/>
</g>
<!-- Node433 -->
<g id="node5" class="node"><title>Node433</title>
<g id="a_node5"><a xlink:href="a00954.html#aa24ead3c2c8fb3e58110f1f79453ce29" target="_top" xlink:title="Balance_Partition">
<polygon fill="white" stroke="black" points="492.5,-228.5 492.5,-247.5 587.5,-247.5 587.5,-228.5 492.5,-228.5"/>
<text text-anchor="middle" x="540" y="-235.5" font-family="Helvetica,sans-Serif" font-size="10.00">Balance_Partition</text>
</a>
</g>
</g>
<!-- Node431&#45;&gt;Node433 -->
<g id="edge4" class="edge"><title>Node431&#45;&gt;Node433</title>
<path fill="none" stroke="midnightblue" d="M381.68,-159.747C399.885,-177.084 430.644,-203.727 462,-219 471.408,-223.582 482.016,-227.119 492.283,-229.826"/>
<polygon fill="midnightblue" stroke="midnightblue" points="383.851,-156.975 374.242,-152.51 378.969,-161.992 383.851,-156.975"/>
</g>
<!-- Node434 -->
<g id="node6" class="node"><title>Node434</title>
<g id="a_node6"><a xlink:href="a00416.html#af4fae82dc1fc688ae704c61e647d33e4" target="_top" xlink:title="PartitionSmallGraph">
<polygon fill="white" stroke="black" points="487,-190.5 487,-209.5 593,-209.5 593,-190.5 487,-190.5"/>
<text text-anchor="middle" x="540" y="-197.5" font-family="Helvetica,sans-Serif" font-size="10.00">PartitionSmallGraph</text>
</a>
</g>
</g>
<!-- Node431&#45;&gt;Node434 -->
<g id="edge5" class="edge"><title>Node431&#45;&gt;Node434</title>
<path fill="none" stroke="midnightblue" d="M396.323,-156.482C415.141,-164.276 439.689,-173.911 462,-181 472.892,-184.461 484.815,-187.675 495.956,-190.438"/>
<polygon fill="midnightblue" stroke="midnightblue" points="397.623,-153.232 387.047,-152.597 394.919,-159.688 397.623,-153.232"/>
</g>
<!-- Node435 -->
<g id="node7" class="node"><title>Node435</title>
<g id="a_node7"><a xlink:href="a00954.html#a5358042c354702d9e8128f7cc342a322" target="_top" xlink:title="InitPartition">
<polygon fill="white" stroke="black" points="506.5,-152.5 506.5,-171.5 573.5,-171.5 573.5,-152.5 506.5,-152.5"/>
<text text-anchor="middle" x="540" y="-159.5" font-family="Helvetica,sans-Serif" font-size="10.00">InitPartition</text>
</a>
</g>
</g>
<!-- Node431&#45;&gt;Node435 -->
<g id="edge6" class="edge"><title>Node431&#45;&gt;Node435</title>
<path fill="none" stroke="midnightblue" d="M435.825,-150.734C460.236,-153.399 486.409,-156.257 506.285,-158.428"/>
<polygon fill="midnightblue" stroke="midnightblue" points="436.178,-147.252 425.857,-149.645 435.418,-154.21 436.178,-147.252"/>
</g>
<!-- Node436 -->
<g id="node8" class="node"><title>Node436</title>
<g id="a_node8"><a xlink:href="a00846.html#af418d1e76eaf4f80116da4caf51bd54e" target="_top" xlink:title="ParMETIS_V3_PartKway">
<polygon fill="white" stroke="black" points="475.5,-114.5 475.5,-133.5 604.5,-133.5 604.5,-114.5 475.5,-114.5"/>
<text text-anchor="middle" x="540" y="-121.5" font-family="Helvetica,sans-Serif" font-size="10.00">ParMETIS_V3_PartKway</text>
</a>
</g>
</g>
<!-- Node431&#45;&gt;Node436 -->
<g id="edge7" class="edge"><title>Node431&#45;&gt;Node436</title>
<path fill="none" stroke="midnightblue" d="M436.116,-135.235C449.066,-133.82 462.502,-132.353 475.224,-130.964"/>
<polygon fill="midnightblue" stroke="midnightblue" points="435.418,-131.79 425.857,-136.355 436.178,-138.748 435.418,-131.79"/>
</g>
<!-- Node437 -->
<g id="node9" class="node"><title>Node437</title>
<g id="a_node9"><a xlink:href="a00236.html#ade1e7e23ad687989a6343b4fb8d61ba7" target="_top" xlink:title="METIS_PartMeshNodal">
<polygon fill="white" stroke="black" points="479,-76.5 479,-95.5 601,-95.5 601,-76.5 479,-76.5"/>
<text text-anchor="middle" x="540" y="-83.5" font-family="Helvetica,sans-Serif" font-size="10.00">METIS_PartMeshNodal</text>
</a>
</g>
</g>
<!-- Node431&#45;&gt;Node437 -->
<g id="edge8" class="edge"><title>Node431&#45;&gt;Node437</title>
<path fill="none" stroke="midnightblue" d="M396.323,-129.518C415.141,-121.724 439.689,-112.089 462,-105 472.892,-101.539 484.815,-98.3254 495.956,-95.5621"/>
<polygon fill="midnightblue" stroke="midnightblue" points="394.919,-126.312 387.047,-133.403 397.623,-132.768 394.919,-126.312"/>
</g>
<!-- Node439 -->
<g id="node11" class="node"><title>Node439</title>
<g id="a_node11"><a xlink:href="a00236.html#a8f496ac1cd2246b124da246b5c6f9193" target="_top" xlink:title="METIS_PartMeshDual">
<polygon fill="white" stroke="black" points="482,-38.5 482,-57.5 598,-57.5 598,-38.5 482,-38.5"/>
<text text-anchor="middle" x="540" y="-45.5" font-family="Helvetica,sans-Serif" font-size="10.00">METIS_PartMeshDual</text>
</a>
</g>
</g>
<!-- Node431&#45;&gt;Node439 -->
<g id="edge10" class="edge"><title>Node431&#45;&gt;Node439</title>
<path fill="none" stroke="midnightblue" d="M381.68,-126.253C399.885,-108.916 430.644,-82.2732 462,-67 469.922,-63.1412 478.696,-60.0242 487.4,-57.5194"/>
<polygon fill="midnightblue" stroke="midnightblue" points="378.969,-124.008 374.242,-133.49 383.851,-129.025 378.969,-124.008"/>
</g>
<!-- Node440 -->
<g id="node12" class="node"><title>Node440</title>
<g id="a_node12"><a xlink:href="a00311.html#a0ddf1224851353fc92bfbff6f499fa97" target="_top" xlink:title="main">
<polygon fill="white" stroke="black" points="521,-0.5 521,-19.5 559,-19.5 559,-0.5 521,-0.5"/>
<text text-anchor="middle" x="540" y="-7.5" font-family="Helvetica,sans-Serif" font-size="10.00">main</text>
</a>
</g>
</g>
<!-- Node431&#45;&gt;Node440 -->
<g id="edge12" class="edge"><title>Node431&#45;&gt;Node440</title>
<path fill="none" stroke="midnightblue" d="M375.51,-124.575C391.049,-99.0583 422.608,-53.3609 462,-29 480.151,-17.7747 504.55,-13.1773 520.977,-11.2969"/>
<polygon fill="midnightblue" stroke="midnightblue" points="372.44,-122.891 370.356,-133.279 378.463,-126.458 372.44,-122.891"/>
</g>
<!-- Node438 -->
<g id="node10" class="node"><title>Node438</title>
<g id="a_node10"><a xlink:href="a00323.html#a0ddf1224851353fc92bfbff6f499fa97" target="_top" xlink:title="main">
<polygon fill="white" stroke="black" points="654,-57.5 654,-76.5 692,-76.5 692,-57.5 654,-57.5"/>
<text text-anchor="middle" x="673" y="-64.5" font-family="Helvetica,sans-Serif" font-size="10.00">main</text>
</a>
</g>
</g>
<!-- Node437&#45;&gt;Node438 -->
<g id="edge9" class="edge"><title>Node437&#45;&gt;Node438</title>
<path fill="none" stroke="midnightblue" d="M611.451,-75.7819C627.128,-73.5082 642.424,-71.2896 653.72,-69.6512"/>
<polygon fill="midnightblue" stroke="midnightblue" points="610.526,-72.3793 601.132,-77.2785 611.531,-79.3068 610.526,-72.3793"/>
</g>
<!-- Node439&#45;&gt;Node438 -->
<g id="edge11" class="edge"><title>Node439&#45;&gt;Node438</title>
<path fill="none" stroke="midnightblue" d="M608.039,-57.7233C624.991,-60.1818 641.804,-62.6204 653.935,-64.3799"/>
<polygon fill="midnightblue" stroke="midnightblue" points="608.476,-54.2501 598.077,-56.2784 607.471,-61.1776 608.476,-54.2501"/>
</g>
</g>
</svg>
