<?xml version="1.0" encoding="UTF-8" standalone="no"?>
<!DOCTYPE svg PUBLIC "-//W3C//DTD SVG 1.1//EN"
 "http://www.w3.org/Graphics/SVG/1.1/DTD/svg11.dtd">
<!-- Generated by graphviz version 2.36.0 (20140111.2315)
 -->
<!-- Title: FindCommonElements Pages: 1 -->
<svg width="630pt" height="66pt"
 viewBox="0.00 0.00 630.00 66.00" xmlns="http://www.w3.org/2000/svg" xmlns:xlink="http://www.w3.org/1999/xlink">
<g id="graph0" class="graph" transform="scale(1 1) rotate(0) translate(4 62)">
<title>FindCommonElements</title>
<polygon fill="white" stroke="none" points="-4,4 -4,-62 626,-62 626,4 -4,4"/>
<!-- Node23 -->
<g id="node1" class="node"><title>Node23</title>
<polygon fill="#bfbfbf" stroke="black" points="0,-19.5 0,-38.5 118,-38.5 118,-19.5 0,-19.5"/>
<text text-anchor="middle" x="59" y="-26.5" font-family="Helvetica,sans-Serif" font-size="10.00">FindCommonElements</text>
</g>
<!-- Node24 -->
<g id="node2" class="node"><title>Node24</title>
<g id="a_node2"><a xlink:href="a00948.html#a10400dffe4954a697990134da62b387d" target="_top" xlink:title="CreateGraphDual">
<polygon fill="white" stroke="black" points="154.5,-19.5 154.5,-38.5 249.5,-38.5 249.5,-19.5 154.5,-19.5"/>
<text text-anchor="middle" x="202" y="-26.5" font-family="Helvetica,sans-Serif" font-size="10.00">CreateGraphDual</text>
</a>
</g>
</g>
<!-- Node23&#45;&gt;Node24 -->
<g id="edge1" class="edge"><title>Node23&#45;&gt;Node24</title>
<path fill="none" stroke="midnightblue" d="M128.362,-29C137.093,-29 145.868,-29 154.15,-29"/>
<polygon fill="midnightblue" stroke="midnightblue" points="128.164,-25.5001 118.164,-29 128.164,-32.5001 128.164,-25.5001"/>
</g>
<!-- Node25 -->
<g id="node3" class="node"><title>Node25</title>
<g id="a_node3"><a xlink:href="a00930.html#a2cf4672355fcfed039c04a2d1d134136" target="_top" xlink:title="METIS_MeshToDual">
<polygon fill="white" stroke="black" points="286.5,-19.5 286.5,-38.5 395.5,-38.5 395.5,-19.5 286.5,-19.5"/>
<text text-anchor="middle" x="341" y="-26.5" font-family="Helvetica,sans-Serif" font-size="10.00">METIS_MeshToDual</text>
</a>
</g>
</g>
<!-- Node24&#45;&gt;Node25 -->
<g id="edge2" class="edge"><title>Node24&#45;&gt;Node25</title>
<path fill="none" stroke="midnightblue" d="M259.897,-29C268.661,-29 277.687,-29 286.376,-29"/>
<polygon fill="midnightblue" stroke="midnightblue" points="259.764,-25.5001 249.764,-29 259.764,-32.5001 259.764,-25.5001"/>
</g>
<!-- Node26 -->
<g id="node4" class="node"><title>Node26</title>
<g id="a_node4"><a xlink:href="a00236.html#a8f496ac1cd2246b124da246b5c6f9193" target="_top" xlink:title="METIS_PartMeshDual">
<polygon fill="white" stroke="black" points="432,-38.5 432,-57.5 548,-57.5 548,-38.5 432,-38.5"/>
<text text-anchor="middle" x="490" y="-45.5" font-family="Helvetica,sans-Serif" font-size="10.00">METIS_PartMeshDual</text>
</a>
</g>
</g>
<!-- Node25&#45;&gt;Node26 -->
<g id="edge3" class="edge"><title>Node25&#45;&gt;Node26</title>
<path fill="none" stroke="midnightblue" d="M405.859,-37.2539C414.435,-38.3623 423.189,-39.4938 431.643,-40.5865"/>
<polygon fill="midnightblue" stroke="midnightblue" points="406.269,-33.7778 395.903,-35.967 405.371,-40.7201 406.269,-33.7778"/>
</g>
<!-- Node28 -->
<g id="node6" class="node"><title>Node28</title>
<g id="a_node6"><a xlink:href="a00317.html#a0ddf1224851353fc92bfbff6f499fa97" target="_top" xlink:title="main">
<polygon fill="white" stroke="black" points="471,-0.5 471,-19.5 509,-19.5 509,-0.5 471,-0.5"/>
<text text-anchor="middle" x="490" y="-7.5" font-family="Helvetica,sans-Serif" font-size="10.00">main</text>
</a>
</g>
</g>
<!-- Node25&#45;&gt;Node28 -->
<g id="edge5" class="edge"><title>Node25&#45;&gt;Node28</title>
<path fill="none" stroke="midnightblue" d="M405.938,-20.7359C429.615,-17.6756 454.638,-14.4413 470.954,-12.3324"/>
<polygon fill="midnightblue" stroke="midnightblue" points="405.371,-17.2799 395.903,-22.033 406.269,-24.2222 405.371,-17.2799"/>
</g>
<!-- Node27 -->
<g id="node5" class="node"><title>Node27</title>
<g id="a_node5"><a xlink:href="a00323.html#a0ddf1224851353fc92bfbff6f499fa97" target="_top" xlink:title="main">
<polygon fill="white" stroke="black" points="584,-38.5 584,-57.5 622,-57.5 622,-38.5 584,-38.5"/>
<text text-anchor="middle" x="603" y="-45.5" font-family="Helvetica,sans-Serif" font-size="10.00">main</text>
</a>
</g>
</g>
<!-- Node26&#45;&gt;Node27 -->
<g id="edge4" class="edge"><title>Node26&#45;&gt;Node27</title>
<path fill="none" stroke="midnightblue" d="M558.376,-48C567.702,-48 576.558,-48 583.824,-48"/>
<polygon fill="midnightblue" stroke="midnightblue" points="558.126,-44.5001 548.126,-48 558.126,-51.5001 558.126,-44.5001"/>
</g>
</g>
</svg>
