<?xml version="1.0" encoding="UTF-8" standalone="no"?>
<!DOCTYPE svg PUBLIC "-//W3C//DTD SVG 1.1//EN"
 "http://www.w3.org/Graphics/SVG/1.1/DTD/svg11.dtd">
<!-- Generated by graphviz version 2.36.0 (20140111.2315)
 -->
<!-- Title: MlevelNestedDissectionP Pages: 1 -->
<svg width="304pt" height="46pt"
 viewBox="0.00 0.00 304.00 46.00" xmlns="http://www.w3.org/2000/svg" xmlns:xlink="http://www.w3.org/1999/xlink">
<g id="graph0" class="graph" transform="scale(1 1) rotate(0) translate(4 42)">
<title>MlevelNestedDissectionP</title>
<polygon fill="white" stroke="none" points="-4,4 -4,-42 300,-42 300,4 -4,4"/>
<!-- Node682 -->
<g id="node1" class="node"><title>Node682</title>
<polygon fill="#bfbfbf" stroke="black" points="0,-0.5 0,-19.5 130,-19.5 130,-0.5 0,-0.5"/>
<text text-anchor="middle" x="65" y="-7.5" font-family="Helvetica,sans-Serif" font-size="10.00">MlevelNestedDissectionP</text>
</g>
<!-- Node683 -->
<g id="node2" class="node"><title>Node683</title>
<g id="a_node2"><a xlink:href="a00942.html#a55cff7f4deda5d27c8736089a878964c" target="_top" xlink:title="MlevelNestedDissectionP">
<polygon fill="white" stroke="black" points="166,-0.5 166,-19.5 296,-19.5 296,-0.5 166,-0.5"/>
<text text-anchor="middle" x="231" y="-7.5" font-family="Helvetica,sans-Serif" font-size="10.00">MlevelNestedDissectionP</text>
</a>
</g>
</g>
<!-- Node682&#45;&gt;Node683 -->
<g id="edge1" class="edge"><title>Node682&#45;&gt;Node683</title>
<path fill="none" stroke="midnightblue" d="M130.346,-10C138.64,-10 147.187,-10 155.625,-10"/>
<polygon fill="midnightblue" stroke="midnightblue" points="155.839,-13.5001 165.839,-10 155.839,-6.5001 155.839,-13.5001"/>
</g>
<!-- Node683&#45;&gt;Node683 -->
<g id="edge2" class="edge"><title>Node683&#45;&gt;Node683</title>
<path fill="none" stroke="midnightblue" d="M205.415,-19.7571C192.968,-28.5653 201.496,-38 231,-38 250.823,-38 261.177,-33.741 262.063,-28.2746"/>
<polygon fill="midnightblue" stroke="midnightblue" points="264.938,-26.2749 256.585,-19.7571 259.051,-30.0611 264.938,-26.2749"/>
</g>
</g>
</svg>
