<?xml version="1.0" encoding="UTF-8" standalone="no"?>
<!DOCTYPE svg PUBLIC "-//W3C//DTD SVG 1.1//EN"
 "http://www.w3.org/Graphics/SVG/1.1/DTD/svg11.dtd">
<!-- Generated by graphviz version 2.36.0 (20140111.2315)
 -->
<!-- Title: MlevelNestedDissectionP Pages: 1 -->
<svg width="606pt" height="57pt"
 viewBox="0.00 0.00 606.00 57.19" xmlns="http://www.w3.org/2000/svg" xmlns:xlink="http://www.w3.org/1999/xlink">
<g id="graph0" class="graph" transform="scale(1 1) rotate(0) translate(4 53.189)">
<title>MlevelNestedDissectionP</title>
<polygon fill="white" stroke="none" points="-4,4 -4,-53.189 602,-53.189 602,4 -4,4"/>
<!-- Node21 -->
<g id="node1" class="node"><title>Node21</title>
<polygon fill="#bfbfbf" stroke="black" points="0,-28.5 0,-47.5 130,-47.5 130,-28.5 0,-28.5"/>
<text text-anchor="middle" x="65" y="-35.5" font-family="Helvetica,sans-Serif" font-size="10.00">MlevelNestedDissectionP</text>
</g>
<!-- Node22 -->
<g id="node2" class="node"><title>Node22</title>
<g id="a_node2"><a xlink:href="a00942.html#a6cb045354f114552086ac2f3ce8d3586" target="_top" xlink:title="METIS_NodeNDP">
<polygon fill="white" stroke="black" points="332,-28.5 332,-47.5 430,-47.5 430,-28.5 332,-28.5"/>
<text text-anchor="middle" x="381" y="-35.5" font-family="Helvetica,sans-Serif" font-size="10.00">METIS_NodeNDP</text>
</a>
</g>
</g>
<!-- Node21&#45;&gt;Node22 -->
<g id="edge1" class="edge"><title>Node21&#45;&gt;Node22</title>
<path fill="none" stroke="midnightblue" d="M140.328,-45.4342C148.976,-46.0783 157.677,-46.6262 166,-47 223.72,-49.5921 238.304,-50.082 296,-47 307.57,-46.3819 319.999,-45.2883 331.654,-44.0714"/>
<polygon fill="midnightblue" stroke="midnightblue" points="140.47,-41.9347 130.226,-44.6387 139.921,-48.9131 140.47,-41.9347"/>
</g>
<!-- Node24 -->
<g id="node4" class="node"><title>Node24</title>
<g id="a_node4"><a xlink:href="a00948.html#a55cff7f4deda5d27c8736089a878964c" target="_top" xlink:title="MlevelNestedDissectionP">
<polygon fill="white" stroke="black" points="166,-0.5 166,-19.5 296,-19.5 296,-0.5 166,-0.5"/>
<text text-anchor="middle" x="231" y="-7.5" font-family="Helvetica,sans-Serif" font-size="10.00">MlevelNestedDissectionP</text>
</a>
</g>
</g>
<!-- Node21&#45;&gt;Node24 -->
<g id="edge3" class="edge"><title>Node21&#45;&gt;Node24</title>
<path fill="none" stroke="midnightblue" d="M132.04,-26.7249C146.044,-24.3339 160.695,-21.8326 174.271,-19.5146"/>
<polygon fill="midnightblue" stroke="midnightblue" points="131.249,-23.3092 121.981,-28.4423 132.427,-30.2093 131.249,-23.3092"/>
</g>
<!-- Node23 -->
<g id="node3" class="node"><title>Node23</title>
<g id="a_node3"><a xlink:href="a00846.html#a8bd1a6399ac304da6616cb5329304df6" target="_top" xlink:title="ParMETIS_SerialNodeND">
<polygon fill="white" stroke="black" points="466,-28.5 466,-47.5 598,-47.5 598,-28.5 466,-28.5"/>
<text text-anchor="middle" x="532" y="-35.5" font-family="Helvetica,sans-Serif" font-size="10.00">ParMETIS_SerialNodeND</text>
</a>
</g>
</g>
<!-- Node22&#45;&gt;Node23 -->
<g id="edge2" class="edge"><title>Node22&#45;&gt;Node23</title>
<path fill="none" stroke="midnightblue" d="M440.377,-38C448.716,-38 457.337,-38 465.796,-38"/>
<polygon fill="midnightblue" stroke="midnightblue" points="440.376,-34.5001 430.376,-38 440.376,-41.5001 440.376,-34.5001"/>
</g>
<!-- Node24&#45;&gt;Node22 -->
<g id="edge4" class="edge"><title>Node24&#45;&gt;Node22</title>
<path fill="none" stroke="midnightblue" d="M292.386,-21.4244C305.476,-23.9009 319.155,-26.4888 331.707,-28.8635"/>
<polygon fill="midnightblue" stroke="midnightblue" points="292.996,-17.9777 282.519,-19.5577 291.694,-24.8557 292.996,-17.9777"/>
</g>
<!-- Node24&#45;&gt;Node24 -->
<g id="edge5" class="edge"><title>Node24&#45;&gt;Node24</title>
<path fill="none" stroke="midnightblue" d="M203.001,-28.6539C204.171,-33.9368 213.504,-38 231,-38 257.66,-38 265.367,-28.5653 254.119,-19.7571"/>
<polygon fill="midnightblue" stroke="midnightblue" points="206.14,-30.208 207.881,-19.7571 200.003,-26.8417 206.14,-30.208"/>
</g>
</g>
</svg>
