<?xml version="1.0" encoding="UTF-8" standalone="no"?>
<!DOCTYPE svg PUBLIC "-//W3C//DTD SVG 1.1//EN"
 "http://www.w3.org/Graphics/SVG/1.1/DTD/svg11.dtd">
<!-- Generated by graphviz version 2.36.0 (20140111.2315)
 -->
<!-- Title: GrowBisection Pages: 1 -->
<svg width="218pt" height="66pt"
 viewBox="0.00 0.00 218.00 66.00" xmlns="http://www.w3.org/2000/svg" xmlns:xlink="http://www.w3.org/1999/xlink">
<g id="graph0" class="graph" transform="scale(1 1) rotate(0) translate(4 62)">
<title>GrowBisection</title>
<polygon fill="white" stroke="none" points="-4,4 -4,-62 214,-62 214,4 -4,4"/>
<!-- Node2 -->
<g id="node1" class="node"><title>Node2</title>
<polygon fill="#bfbfbf" stroke="black" points="0.5,-19.5 0.5,-38.5 81.5,-38.5 81.5,-19.5 0.5,-19.5"/>
<text text-anchor="middle" x="41" y="-26.5" font-family="Helvetica,sans-Serif" font-size="10.00">GrowBisection</text>
</g>
<!-- Node3 -->
<g id="node2" class="node"><title>Node3</title>
<g id="a_node2"><a xlink:href="a00948.html#af566aa1abb139c5b46b29c95b9ed075d" target="_top" xlink:title="Init2WayPartition">
<polygon fill="white" stroke="black" points="118,-38.5 118,-57.5 210,-57.5 210,-38.5 118,-38.5"/>
<text text-anchor="middle" x="164" y="-45.5" font-family="Helvetica,sans-Serif" font-size="10.00">Init2WayPartition</text>
</a>
</g>
</g>
<!-- Node2&#45;&gt;Node3 -->
<g id="edge1" class="edge"><title>Node2&#45;&gt;Node3</title>
<path fill="none" stroke="midnightblue" d="M91.6211,-36.7917C100.3,-38.1545 109.287,-39.5657 117.837,-40.9082"/>
<polygon fill="midnightblue" stroke="midnightblue" points="92.0418,-33.315 81.6199,-35.2213 90.9559,-40.2303 92.0418,-33.315"/>
</g>
<!-- Node4 -->
<g id="node3" class="node"><title>Node4</title>
<g id="a_node3"><a xlink:href="a00948.html#a2927ed69df973d68e918bb74f75b0b70" target="_top" xlink:title="InitSeparator">
<polygon fill="white" stroke="black" points="127,-0.5 127,-19.5 201,-19.5 201,-0.5 127,-0.5"/>
<text text-anchor="middle" x="164" y="-7.5" font-family="Helvetica,sans-Serif" font-size="10.00">InitSeparator</text>
</a>
</g>
</g>
<!-- Node2&#45;&gt;Node4 -->
<g id="edge2" class="edge"><title>Node2&#45;&gt;Node4</title>
<path fill="none" stroke="midnightblue" d="M91.7896,-21.1818C103.58,-19.3305 115.93,-17.3911 126.972,-15.6572"/>
<polygon fill="midnightblue" stroke="midnightblue" points="90.9559,-17.7697 81.6199,-22.7787 92.0418,-24.685 90.9559,-17.7697"/>
</g>
</g>
</svg>
