<?xml version="1.0" encoding="UTF-8" standalone="no"?>
<!DOCTYPE svg PUBLIC "-//W3C//DTD SVG 1.1//EN"
 "http://www.w3.org/Graphics/SVG/1.1/DTD/svg11.dtd">
<!-- Generated by graphviz version 2.36.0 (20140111.2315)
 -->
<!-- Title: FindPartitionInducedComponents Pages: 1 -->
<svg width="324pt" height="66pt"
 viewBox="0.00 0.00 324.00 66.00" xmlns="http://www.w3.org/2000/svg" xmlns:xlink="http://www.w3.org/1999/xlink">
<g id="graph0" class="graph" transform="scale(1 1) rotate(0) translate(4 62)">
<title>FindPartitionInducedComponents</title>
<polygon fill="white" stroke="none" points="-4,4 -4,-62 320,-62 320,4 -4,4"/>
<!-- Node273 -->
<g id="node1" class="node"><title>Node273</title>
<polygon fill="#bfbfbf" stroke="black" points="0.5,-19.5 0.5,-38.5 165.5,-38.5 165.5,-19.5 0.5,-19.5"/>
<text text-anchor="middle" x="83" y="-26.5" font-family="Helvetica,sans-Serif" font-size="10.00">FindPartitionInducedComponents</text>
</g>
<!-- Node274 -->
<g id="node2" class="node"><title>Node274</title>
<g id="a_node2"><a xlink:href="a00948.html#a06638e74c8e49f9fb9881b960f8c4f05" target="_top" xlink:title="IsConnected">
<polygon fill="white" stroke="black" points="222.5,-38.5 222.5,-57.5 295.5,-57.5 295.5,-38.5 222.5,-38.5"/>
<text text-anchor="middle" x="259" y="-45.5" font-family="Helvetica,sans-Serif" font-size="10.00">IsConnected</text>
</a>
</g>
</g>
<!-- Node273&#45;&gt;Node274 -->
<g id="edge1" class="edge"><title>Node273&#45;&gt;Node274</title>
<path fill="none" stroke="midnightblue" d="M175.952,-39.0407C192.481,-40.8456 208.771,-42.6244 222.425,-44.1154"/>
<polygon fill="midnightblue" stroke="midnightblue" points="175.971,-35.5221 165.65,-37.9159 175.211,-42.4808 175.971,-35.5221"/>
</g>
<!-- Node275 -->
<g id="node3" class="node"><title>Node275</title>
<g id="a_node3"><a xlink:href="a00948.html#a002ad59e8624946cc9450cb9b3c10741" target="_top" xlink:title="EliminateComponents">
<polygon fill="white" stroke="black" points="202,-0.5 202,-19.5 316,-19.5 316,-0.5 202,-0.5"/>
<text text-anchor="middle" x="259" y="-7.5" font-family="Helvetica,sans-Serif" font-size="10.00">EliminateComponents</text>
</a>
</g>
</g>
<!-- Node273&#45;&gt;Node275 -->
<g id="edge2" class="edge"><title>Node273&#45;&gt;Node275</title>
<path fill="none" stroke="midnightblue" d="M175.658,-18.9914C184.515,-18.0243 193.307,-17.0642 201.666,-16.1514"/>
<polygon fill="midnightblue" stroke="midnightblue" points="175.211,-15.5192 165.65,-20.0841 175.971,-22.4779 175.211,-15.5192"/>
</g>
</g>
</svg>
