<?xml version="1.0" encoding="UTF-8" standalone="no"?>
<!DOCTYPE svg PUBLIC "-//W3C//DTD SVG 1.1//EN"
 "http://www.w3.org/Graphics/SVG/1.1/DTD/svg11.dtd">
<!-- Generated by graphviz version 2.36.0 (20140111.2315)
 -->
<!-- Title: Mc_Serial_Balance2Way Pages: 1 -->
<svg width="362pt" height="104pt"
 viewBox="0.00 0.00 362.00 104.00" xmlns="http://www.w3.org/2000/svg" xmlns:xlink="http://www.w3.org/1999/xlink">
<g id="graph0" class="graph" transform="scale(1 1) rotate(0) translate(4 100)">
<title>Mc_Serial_Balance2Way</title>
<polygon fill="white" stroke="none" points="-4,4 -4,-100 358,-100 358,4 -4,4"/>
<!-- Node416 -->
<g id="node1" class="node"><title>Node416</title>
<polygon fill="#bfbfbf" stroke="black" points="0,-38.5 0,-57.5 128,-57.5 128,-38.5 0,-38.5"/>
<text text-anchor="middle" x="64" y="-45.5" font-family="Helvetica,sans-Serif" font-size="10.00">Mc_Serial_Balance2Way</text>
</g>
<!-- Node417 -->
<g id="node2" class="node"><title>Node417</title>
<g id="a_node2"><a xlink:href="a00407.html#afa6aadaf308fc164c98e67d2511daf03" target="_top" xlink:title="Serial_Compute2WayHLoadImbalance">
<polygon fill="white" stroke="black" points="164.5,-76.5 164.5,-95.5 353.5,-95.5 353.5,-76.5 164.5,-76.5"/>
<text text-anchor="middle" x="259" y="-83.5" font-family="Helvetica,sans-Serif" font-size="10.00">Serial_Compute2WayHLoadImbalance</text>
</a>
</g>
</g>
<!-- Node416&#45;&gt;Node417 -->
<g id="edge1" class="edge"><title>Node416&#45;&gt;Node417</title>
<path fill="none" stroke="midnightblue" d="M113.702,-57.589C139.859,-62.739 172.284,-69.1232 199.767,-74.5344"/>
<polygon fill="midnightblue" stroke="midnightblue" points="199.16,-77.9821 209.648,-76.4799 200.513,-71.114 199.16,-77.9821"/>
</g>
<!-- Node418 -->
<g id="node3" class="node"><title>Node418</title>
<g id="a_node3"><a xlink:href="a00407.html#a9f3e61c58695c143989d96c57154fb80" target="_top" xlink:title="Serial_SelectQueue">
<polygon fill="white" stroke="black" points="206.5,-38.5 206.5,-57.5 311.5,-57.5 311.5,-38.5 206.5,-38.5"/>
<text text-anchor="middle" x="259" y="-45.5" font-family="Helvetica,sans-Serif" font-size="10.00">Serial_SelectQueue</text>
</a>
</g>
</g>
<!-- Node416&#45;&gt;Node418 -->
<g id="edge2" class="edge"><title>Node416&#45;&gt;Node418</title>
<path fill="none" stroke="midnightblue" d="M128.195,-48C150.024,-48 174.443,-48 196.161,-48"/>
<polygon fill="midnightblue" stroke="midnightblue" points="196.256,-51.5001 206.256,-48 196.256,-44.5001 196.256,-51.5001"/>
</g>
<!-- Node419 -->
<g id="node4" class="node"><title>Node419</title>
<g id="a_node4"><a xlink:href="a00407.html#a62ce727c3eee17b8d8add92ffeb8adbe" target="_top" xlink:title="Serial_BetterBalance">
<polygon fill="white" stroke="black" points="204,-0.5 204,-19.5 314,-19.5 314,-0.5 204,-0.5"/>
<text text-anchor="middle" x="259" y="-7.5" font-family="Helvetica,sans-Serif" font-size="10.00">Serial_BetterBalance</text>
</a>
</g>
</g>
<!-- Node416&#45;&gt;Node419 -->
<g id="edge3" class="edge"><title>Node416&#45;&gt;Node419</title>
<path fill="none" stroke="midnightblue" d="M113.702,-38.411C139.859,-33.261 172.284,-26.8768 199.767,-21.4656"/>
<polygon fill="midnightblue" stroke="midnightblue" points="200.513,-24.886 209.648,-19.5201 199.16,-18.0179 200.513,-24.886"/>
</g>
</g>
</svg>
