<?xml version="1.0" encoding="UTF-8" standalone="no"?>
<!DOCTYPE svg PUBLIC "-//W3C//DTD SVG 1.1//EN"
 "http://www.w3.org/Graphics/SVG/1.1/DTD/svg11.dtd">
<!-- Generated by graphviz version 2.36.0 (20140111.2315)
 -->
<!-- Title: Global_Partition Pages: 1 -->
<svg width="262pt" height="46pt"
 viewBox="0.00 0.00 262.00 46.00" xmlns="http://www.w3.org/2000/svg" xmlns:xlink="http://www.w3.org/1999/xlink">
<g id="graph0" class="graph" transform="scale(1 1) rotate(0) translate(4 42)">
<title>Global_Partition</title>
<polygon fill="white" stroke="none" points="-4,4 -4,-42 258,-42 258,4 -4,4"/>
<!-- Node269 -->
<g id="node1" class="node"><title>Node269</title>
<polygon fill="#bfbfbf" stroke="black" points="0,-0.5 0,-19.5 88,-19.5 88,-0.5 0,-0.5"/>
<text text-anchor="middle" x="44" y="-7.5" font-family="Helvetica,sans-Serif" font-size="10.00">Global_Partition</text>
</g>
<!-- Node269&#45;&gt;Node269 -->
<g id="edge2" class="edge"><title>Node269&#45;&gt;Node269</title>
<path fill="none" stroke="midnightblue" d="M17.1208,-28.6539C18.2444,-33.9368 27.2041,-38 44,-38 69.5938,-38 76.9919,-28.5653 66.1946,-19.7571"/>
<polygon fill="midnightblue" stroke="midnightblue" points="20.2433,-30.2361 21.8054,-19.7571 14.0494,-26.9747 20.2433,-30.2361"/>
</g>
<!-- Node270 -->
<g id="node2" class="node"><title>Node270</title>
<g id="a_node2"><a xlink:href="a00846.html#af418d1e76eaf4f80116da4caf51bd54e" target="_top" xlink:title="ParMETIS_V3_PartKway">
<polygon fill="white" stroke="black" points="124.5,-0.5 124.5,-19.5 253.5,-19.5 253.5,-0.5 124.5,-0.5"/>
<text text-anchor="middle" x="189" y="-7.5" font-family="Helvetica,sans-Serif" font-size="10.00">ParMETIS_V3_PartKway</text>
</a>
</g>
</g>
<!-- Node269&#45;&gt;Node270 -->
<g id="edge1" class="edge"><title>Node269&#45;&gt;Node270</title>
<path fill="none" stroke="midnightblue" d="M98.3785,-10C106.822,-10 115.627,-10 124.278,-10"/>
<polygon fill="midnightblue" stroke="midnightblue" points="98.2928,-6.5001 88.2928,-10 98.2927,-13.5001 98.2928,-6.5001"/>
</g>
</g>
</svg>
