<?xml version="1.0" encoding="UTF-8" standalone="no"?>
<!DOCTYPE svg PUBLIC "-//W3C//DTD SVG 1.1//EN"
 "http://www.w3.org/Graphics/SVG/1.1/DTD/svg11.dtd">
<!-- Generated by graphviz version 2.36.0 (20140111.2315)
 -->
<!-- Title: SetupCtrl Pages: 1 -->
<svg width="424pt" height="240pt"
 viewBox="0.00 0.00 424.00 240.17" xmlns="http://www.w3.org/2000/svg" xmlns:xlink="http://www.w3.org/1999/xlink">
<g id="graph0" class="graph" transform="scale(1 1) rotate(0) translate(4 236.167)">
<title>SetupCtrl</title>
<polygon fill="white" stroke="none" points="-4,4 -4,-236.167 420,-236.167 420,4 -4,4"/>
<!-- Node936 -->
<g id="node1" class="node"><title>Node936</title>
<polygon fill="#bfbfbf" stroke="black" points="0,-76.5 0,-95.5 58,-95.5 58,-76.5 0,-76.5"/>
<text text-anchor="middle" x="29" y="-83.5" font-family="Helvetica,sans-Serif" font-size="10.00">SetupCtrl</text>
</g>
<!-- Node937 -->
<g id="node2" class="node"><title>Node937</title>
<g id="a_node2"><a xlink:href="a00077.html#aba6f76f5c67b9b7e9c2e45988d3d3e9d" target="_top" xlink:title="gk_malloc">
<polygon fill="white" stroke="black" points="103,-152.5 103,-171.5 165,-171.5 165,-152.5 103,-152.5"/>
<text text-anchor="middle" x="134" y="-159.5" font-family="Helvetica,sans-Serif" font-size="10.00">gk_malloc</text>
</a>
</g>
</g>
<!-- Node936&#45;&gt;Node937 -->
<g id="edge1" class="edge"><title>Node936&#45;&gt;Node937</title>
<path fill="none" stroke="midnightblue" d="M40.9815,-95.6637C53.4609,-106.468 74.6165,-124.25 94,-138 98.3466,-141.083 103.091,-144.197 107.726,-147.115"/>
<polygon fill="midnightblue" stroke="midnightblue" points="106.02,-150.174 116.374,-152.423 109.682,-144.208 106.02,-150.174"/>
</g>
<!-- Node941 -->
<g id="node6" class="node"><title>Node941</title>
<g id="a_node6"><a xlink:href="a00026.html#a4c320c13bcdc9967613253ef4c73f59f" target="_top" xlink:title="gk_errexit">
<polygon fill="white" stroke="black" points="244,-114.5 244,-133.5 304,-133.5 304,-114.5 244,-114.5"/>
<text text-anchor="middle" x="274" y="-121.5" font-family="Helvetica,sans-Serif" font-size="10.00">gk_errexit</text>
</a>
</g>
</g>
<!-- Node936&#45;&gt;Node941 -->
<g id="edge7" class="edge"><title>Node936&#45;&gt;Node941</title>
<path fill="none" stroke="midnightblue" d="M58.0759,-95.5447C69.1548,-98.9913 82.0659,-102.616 94,-105 141.556,-114.5 197.231,-119.464 233.708,-121.901"/>
<polygon fill="midnightblue" stroke="midnightblue" points="233.72,-125.409 243.922,-122.55 234.164,-118.423 233.72,-125.409"/>
</g>
<!-- Node942 -->
<g id="node7" class="node"><title>Node942</title>
<g id="a_node7"><a xlink:href="a00254.html#a2c75ede1a41b19cb3705b998aba3200b" target="_top" xlink:title="PrintCtrl">
<polygon fill="white" stroke="black" points="107.5,-76.5 107.5,-95.5 160.5,-95.5 160.5,-76.5 107.5,-76.5"/>
<text text-anchor="middle" x="134" y="-83.5" font-family="Helvetica,sans-Serif" font-size="10.00">PrintCtrl</text>
</a>
</g>
</g>
<!-- Node936&#45;&gt;Node942 -->
<g id="edge8" class="edge"><title>Node936&#45;&gt;Node942</title>
<path fill="none" stroke="midnightblue" d="M58.1452,-86C70.1509,-86 84.305,-86 97.0553,-86"/>
<polygon fill="midnightblue" stroke="midnightblue" points="97.3573,-89.5001 107.357,-86 97.3573,-82.5001 97.3573,-89.5001"/>
</g>
<!-- Node943 -->
<g id="node8" class="node"><title>Node943</title>
<g id="a_node8"><a xlink:href="a00254.html#a279ffe27d8412909f9117b5ca4721dce" target="_top" xlink:title="CheckParams">
<polygon fill="white" stroke="black" points="94.5,-38.5 94.5,-57.5 173.5,-57.5 173.5,-38.5 94.5,-38.5"/>
<text text-anchor="middle" x="134" y="-45.5" font-family="Helvetica,sans-Serif" font-size="10.00">CheckParams</text>
</a>
</g>
</g>
<!-- Node936&#45;&gt;Node943 -->
<g id="edge9" class="edge"><title>Node936&#45;&gt;Node943</title>
<path fill="none" stroke="midnightblue" d="M55.9912,-76.411C68.5557,-71.7756 83.8301,-66.1404 97.4523,-61.1147"/>
<polygon fill="midnightblue" stroke="midnightblue" points="98.8467,-64.3309 107.017,-57.5859 96.4237,-57.7636 98.8467,-64.3309"/>
</g>
<!-- Node944 -->
<g id="node9" class="node"><title>Node944</title>
<g id="a_node9"><a xlink:href="a00254.html#ab44b3384fa925eae532b7bcc825159d7" target="_top" xlink:title="FreeCtrl">
<polygon fill="white" stroke="black" points="107.5,-0.5 107.5,-19.5 160.5,-19.5 160.5,-0.5 107.5,-0.5"/>
<text text-anchor="middle" x="134" y="-7.5" font-family="Helvetica,sans-Serif" font-size="10.00">FreeCtrl</text>
</a>
</g>
</g>
<!-- Node936&#45;&gt;Node944 -->
<g id="edge10" class="edge"><title>Node936&#45;&gt;Node944</title>
<path fill="none" stroke="midnightblue" d="M39.2834,-76.2187C51.1585,-64.0812 72.7414,-43.2484 94,-29 96.4048,-27.3882 98.9666,-25.8321 101.584,-24.3513"/>
<polygon fill="midnightblue" stroke="midnightblue" points="103.33,-27.3879 110.551,-19.6352 100.071,-21.1925 103.33,-27.3879"/>
</g>
<!-- Node938 -->
<g id="node3" class="node"><title>Node938</title>
<g id="a_node3"><a xlink:href="a01017.html#a2e311a777ffe9c80e405efa7cd2757be" target="_top" xlink:title="fprintf">
<polygon fill="white" stroke="black" points="374,-171.5 374,-190.5 416,-190.5 416,-171.5 374,-171.5"/>
<text text-anchor="middle" x="395" y="-178.5" font-family="Helvetica,sans-Serif" font-size="10.00">fprintf</text>
</a>
</g>
</g>
<!-- Node937&#45;&gt;Node938 -->
<g id="edge2" class="edge"><title>Node937&#45;&gt;Node938</title>
<path fill="none" stroke="midnightblue" d="M143.529,-171.603C156.357,-185.24 182.102,-209.602 210,-219 263.912,-237.162 283.62,-235.709 338,-219 352.039,-214.686 365.719,-205.525 376.044,-197.279"/>
<polygon fill="midnightblue" stroke="midnightblue" points="378.469,-199.813 383.862,-190.694 373.959,-194.46 378.469,-199.813"/>
</g>
<!-- Node939 -->
<g id="node4" class="node"><title>Node939</title>
<g id="a_node4"><a xlink:href="a00110.html#ad2327b94227019b6753b6b09400c0522" target="_top" xlink:title="gk_GetCurMemoryUsed">
<polygon fill="white" stroke="black" points="212,-190.5 212,-209.5 336,-209.5 336,-190.5 212,-190.5"/>
<text text-anchor="middle" x="274" y="-197.5" font-family="Helvetica,sans-Serif" font-size="10.00">gk_GetCurMemoryUsed</text>
</a>
</g>
</g>
<!-- Node937&#45;&gt;Node939 -->
<g id="edge3" class="edge"><title>Node937&#45;&gt;Node939</title>
<path fill="none" stroke="midnightblue" d="M165.285,-170.339C183.831,-175.446 207.894,-182.072 228.571,-187.766"/>
<polygon fill="midnightblue" stroke="midnightblue" points="227.84,-191.195 238.411,-190.475 229.699,-184.446 227.84,-191.195"/>
</g>
<!-- Node940 -->
<g id="node5" class="node"><title>Node940</title>
<g id="a_node5"><a xlink:href="a00110.html#a656fd5266ae12a96e53125486f8fea52" target="_top" xlink:title="gk_GetMaxMemoryUsed">
<polygon fill="white" stroke="black" points="210.5,-152.5 210.5,-171.5 337.5,-171.5 337.5,-152.5 210.5,-152.5"/>
<text text-anchor="middle" x="274" y="-159.5" font-family="Helvetica,sans-Serif" font-size="10.00">gk_GetMaxMemoryUsed</text>
</a>
</g>
</g>
<!-- Node937&#45;&gt;Node940 -->
<g id="edge4" class="edge"><title>Node937&#45;&gt;Node940</title>
<path fill="none" stroke="midnightblue" d="M165.285,-162C175.636,-162 187.707,-162 199.948,-162"/>
<polygon fill="midnightblue" stroke="midnightblue" points="200.236,-165.5 210.236,-162 200.236,-158.5 200.236,-165.5"/>
</g>
<!-- Node937&#45;&gt;Node941 -->
<g id="edge5" class="edge"><title>Node937&#45;&gt;Node941</title>
<path fill="none" stroke="midnightblue" d="M165.285,-153.661C185.422,-148.116 212.063,-140.78 233.813,-134.791"/>
<polygon fill="midnightblue" stroke="midnightblue" points="235.02,-138.088 243.732,-132.059 233.162,-131.34 235.02,-138.088"/>
</g>
<!-- Node941&#45;&gt;Node938 -->
<g id="edge6" class="edge"><title>Node941&#45;&gt;Node938</title>
<path fill="none" stroke="midnightblue" d="M304.228,-130.825C315.104,-133.876 327.377,-137.94 338,-143 350.634,-149.018 363.634,-157.663 373.925,-165.186"/>
<polygon fill="midnightblue" stroke="midnightblue" points="372.101,-168.194 382.194,-171.415 376.313,-162.603 372.101,-168.194"/>
</g>
<!-- Node945 -->
<g id="node10" class="node"><title>Node945</title>
<g id="a_node10"><a xlink:href="a00077.html#ac8df62c4e3d0910711a9874f9cc58884" target="_top" xlink:title="gk_free">
<polygon fill="white" stroke="black" points="249,-0.5 249,-19.5 299,-19.5 299,-0.5 249,-0.5"/>
<text text-anchor="middle" x="274" y="-7.5" font-family="Helvetica,sans-Serif" font-size="10.00">gk_free</text>
</a>
</g>
</g>
<!-- Node944&#45;&gt;Node945 -->
<g id="edge11" class="edge"><title>Node944&#45;&gt;Node945</title>
<path fill="none" stroke="midnightblue" d="M160.633,-10C182.632,-10 214.522,-10 238.714,-10"/>
<polygon fill="midnightblue" stroke="midnightblue" points="238.891,-13.5001 248.891,-10 238.891,-6.5001 238.891,-13.5001"/>
</g>
</g>
</svg>
