<?xml version="1.0" encoding="UTF-8" standalone="no"?>
<!DOCTYPE svg PUBLIC "-//W3C//DTD SVG 1.1//EN"
 "http://www.w3.org/Graphics/SVG/1.1/DTD/svg11.dtd">
<!-- Generated by graphviz version 2.36.0 (20140111.2315)
 -->
<!-- Title: MlevelNestedDissectionCC Pages: 1 -->
<svg width="1444pt" height="300pt"
 viewBox="0.00 0.00 1444.00 300.00" xmlns="http://www.w3.org/2000/svg" xmlns:xlink="http://www.w3.org/1999/xlink">
<g id="graph0" class="graph" transform="scale(1 1) rotate(0) translate(4 296)">
<title>MlevelNestedDissectionCC</title>
<polygon fill="white" stroke="none" points="-4,4 -4,-296 1440,-296 1440,4 -4,4"/>
<!-- Node654 -->
<g id="node1" class="node"><title>Node654</title>
<polygon fill="#bfbfbf" stroke="black" points="0,-75.5 0,-94.5 138,-94.5 138,-75.5 0,-75.5"/>
<text text-anchor="middle" x="69" y="-82.5" font-family="Helvetica,sans-Serif" font-size="10.00">MlevelNestedDissectionCC</text>
</g>
<!-- Node655 -->
<g id="node2" class="node"><title>Node655</title>
<g id="a_node2"><a xlink:href="a00936.html#a59c8030c5429e219a8535c2a11cef724" target="_top" xlink:title="MlevelNodeBisectionMultiple">
<polygon fill="white" stroke="black" points="348,-167.5 348,-186.5 492,-186.5 492,-167.5 348,-167.5"/>
<text text-anchor="middle" x="420" y="-174.5" font-family="Helvetica,sans-Serif" font-size="10.00">MlevelNodeBisectionMultiple</text>
</a>
</g>
</g>
<!-- Node654&#45;&gt;Node655 -->
<g id="edge1" class="edge"><title>Node654&#45;&gt;Node655</title>
<path fill="none" stroke="midnightblue" d="M84.4501,-94.6759C103.917,-107.223 140.05,-128.818 174,-140 227.021,-157.463 289.243,-166.729 337.714,-171.621"/>
<polygon fill="midnightblue" stroke="midnightblue" points="337.55,-175.122 347.84,-172.6 338.223,-168.154 337.55,-175.122"/>
</g>
<!-- Node672 -->
<g id="node19" class="node"><title>Node672</title>
<g id="a_node19"><a xlink:href="a00936.html#a52a083cfb474124f22728e79cfba695f" target="_top" xlink:title="SplitGraphOrderCC">
<polygon fill="white" stroke="black" points="368,-78.5 368,-97.5 472,-97.5 472,-78.5 368,-78.5"/>
<text text-anchor="middle" x="420" y="-85.5" font-family="Helvetica,sans-Serif" font-size="10.00">SplitGraphOrderCC</text>
</a>
</g>
</g>
<!-- Node654&#45;&gt;Node672 -->
<g id="edge22" class="edge"><title>Node654&#45;&gt;Node672</title>
<path fill="none" stroke="midnightblue" d="M90.1589,-94.507C110.713,-103.636 143.784,-116.785 174,-122 234.44,-132.431 251.391,-131.398 312,-122 337.774,-118.004 365.837,-108.896 386.755,-101.112"/>
<polygon fill="midnightblue" stroke="midnightblue" points="388.023,-104.374 396.118,-97.5391 385.527,-97.8344 388.023,-104.374"/>
</g>
<!-- Node676 -->
<g id="node23" class="node"><title>Node676</title>
<g id="a_node23"><a xlink:href="a00936.html#a3ef15d1ffff55a81b8486bee09239073" target="_top" xlink:title="MlevelNestedDissectionCC">
<polygon fill="white" stroke="black" points="174,-75.5 174,-94.5 312,-94.5 312,-75.5 174,-75.5"/>
<text text-anchor="middle" x="243" y="-82.5" font-family="Helvetica,sans-Serif" font-size="10.00">MlevelNestedDissectionCC</text>
</a>
</g>
</g>
<!-- Node654&#45;&gt;Node676 -->
<g id="edge28" class="edge"><title>Node654&#45;&gt;Node676</title>
<path fill="none" stroke="midnightblue" d="M138.473,-85C146.732,-85 155.216,-85 163.602,-85"/>
<polygon fill="midnightblue" stroke="midnightblue" points="163.762,-88.5001 173.762,-85 163.762,-81.5001 163.762,-88.5001"/>
</g>
<!-- Node677 -->
<g id="node24" class="node"><title>Node677</title>
<g id="a_node24"><a xlink:href="a00936.html#acafb70c0e49cde8105dc62f6c34dfa6c" target="_top" xlink:title="MMDOrder">
<polygon fill="white" stroke="black" points="387,-38.5 387,-57.5 453,-57.5 453,-38.5 387,-38.5"/>
<text text-anchor="middle" x="420" y="-45.5" font-family="Helvetica,sans-Serif" font-size="10.00">MMDOrder</text>
</a>
</g>
</g>
<!-- Node654&#45;&gt;Node677 -->
<g id="edge34" class="edge"><title>Node654&#45;&gt;Node677</title>
<path fill="none" stroke="midnightblue" d="M116.17,-75.466C134.152,-72.0418 154.974,-68.4297 174,-66 244.748,-56.9651 327.612,-52.0531 376.573,-49.7329"/>
<polygon fill="midnightblue" stroke="midnightblue" points="376.956,-53.2191 386.785,-49.2634 376.635,-46.2265 376.956,-53.2191"/>
</g>
<!-- Node678 -->
<g id="node25" class="node"><title>Node678</title>
<g id="a_node25"><a xlink:href="a00077.html#ac8df62c4e3d0910711a9874f9cc58884" target="_top" xlink:title="gk_free">
<polygon fill="white" stroke="black" points="395,-0.5 395,-19.5 445,-19.5 445,-0.5 395,-0.5"/>
<text text-anchor="middle" x="420" y="-7.5" font-family="Helvetica,sans-Serif" font-size="10.00">gk_free</text>
</a>
</g>
</g>
<!-- Node654&#45;&gt;Node678 -->
<g id="edge35" class="edge"><title>Node654&#45;&gt;Node678</title>
<path fill="none" stroke="midnightblue" d="M94.8792,-75.3509C115.739,-67.5715 146.45,-56.8364 174,-50 248.082,-31.6167 336.921,-19.5247 384.643,-13.8176"/>
<polygon fill="midnightblue" stroke="midnightblue" points="385.217,-17.2744 394.741,-12.6323 384.401,-10.3221 385.217,-17.2744"/>
</g>
<!-- Node656 -->
<g id="node3" class="node"><title>Node656</title>
<g id="a_node3"><a xlink:href="a00936.html#ac3a0eaeefa34a3865a0be5bb70bd958f" target="_top" xlink:title="MlevelNodeBisectionL2">
<polygon fill="white" stroke="black" points="528.5,-167.5 528.5,-186.5 649.5,-186.5 649.5,-167.5 528.5,-167.5"/>
<text text-anchor="middle" x="589" y="-174.5" font-family="Helvetica,sans-Serif" font-size="10.00">MlevelNodeBisectionL2</text>
</a>
</g>
</g>
<!-- Node655&#45;&gt;Node656 -->
<g id="edge2" class="edge"><title>Node655&#45;&gt;Node656</title>
<path fill="none" stroke="midnightblue" d="M492.307,-177C500.973,-177 509.818,-177 518.458,-177"/>
<polygon fill="midnightblue" stroke="midnightblue" points="518.483,-180.5 528.483,-177 518.483,-173.5 518.483,-180.5"/>
</g>
<!-- Node657 -->
<g id="node4" class="node"><title>Node657</title>
<g id="a_node4"><a xlink:href="a00936.html#aeeaa7f4ed9878ae2f7faff0e2402fd87" target="_top" xlink:title="MlevelNodeBisectionL1">
<polygon fill="white" stroke="black" points="686.5,-158.5 686.5,-177.5 807.5,-177.5 807.5,-158.5 686.5,-158.5"/>
<text text-anchor="middle" x="747" y="-165.5" font-family="Helvetica,sans-Serif" font-size="10.00">MlevelNodeBisectionL1</text>
</a>
</g>
</g>
<!-- Node656&#45;&gt;Node657 -->
<g id="edge3" class="edge"><title>Node656&#45;&gt;Node657</title>
<path fill="none" stroke="midnightblue" d="M649.868,-173.546C658.452,-173.051 667.346,-172.538 676.103,-172.033"/>
<polygon fill="midnightblue" stroke="midnightblue" points="676.511,-175.515 686.293,-171.445 676.108,-168.527 676.511,-175.515"/>
</g>
<!-- Node658 -->
<g id="node5" class="node"><title>Node658</title>
<g id="a_node5"><a xlink:href="a00182.html#afa83320e3b311e0feef90d0bf4303716" target="_top" xlink:title="CoarsenGraphNlevels">
<polygon fill="white" stroke="black" points="689.5,-196.5 689.5,-215.5 804.5,-215.5 804.5,-196.5 689.5,-196.5"/>
<text text-anchor="middle" x="747" y="-203.5" font-family="Helvetica,sans-Serif" font-size="10.00">CoarsenGraphNlevels</text>
</a>
</g>
</g>
<!-- Node656&#45;&gt;Node658 -->
<g id="edge4" class="edge"><title>Node656&#45;&gt;Node658</title>
<path fill="none" stroke="midnightblue" d="M641.513,-186.576C655.296,-189.138 670.331,-191.933 684.59,-194.584"/>
<polygon fill="midnightblue" stroke="midnightblue" points="684.336,-198.097 694.808,-196.483 685.616,-191.215 684.336,-198.097"/>
</g>
<!-- Node659 -->
<g id="node6" class="node"><title>Node659</title>
<g id="a_node6"><a xlink:href="a00623.html#ad1e7380d51df1e0043d24d3c8a860e0a" target="_top" xlink:title="for">
<polygon fill="white" stroke="black" points="893.5,-272.5 893.5,-291.5 922.5,-291.5 922.5,-272.5 893.5,-272.5"/>
<text text-anchor="middle" x="908" y="-279.5" font-family="Helvetica,sans-Serif" font-size="10.00">for</text>
</a>
</g>
</g>
<!-- Node658&#45;&gt;Node659 -->
<g id="edge5" class="edge"><title>Node658&#45;&gt;Node659</title>
<path fill="none" stroke="midnightblue" d="M761.736,-215.619C779.873,-227.969 813.128,-249.421 844,-263 856.617,-268.549 871.336,-273.088 883.372,-276.337"/>
<polygon fill="midnightblue" stroke="midnightblue" points="882.582,-279.747 893.139,-278.852 884.328,-272.969 882.582,-279.747"/>
</g>
<!-- Node660 -->
<g id="node7" class="node"><title>Node660</title>
<g id="a_node7"><a xlink:href="a00182.html#aac3e480e7e3bd02bfdf001d858a93562" target="_top" xlink:title="PrintCGraphStats">
<polygon fill="white" stroke="black" points="860.5,-234.5 860.5,-253.5 955.5,-253.5 955.5,-234.5 860.5,-234.5"/>
<text text-anchor="middle" x="908" y="-241.5" font-family="Helvetica,sans-Serif" font-size="10.00">PrintCGraphStats</text>
</a>
</g>
</g>
<!-- Node658&#45;&gt;Node660 -->
<g id="edge6" class="edge"><title>Node658&#45;&gt;Node660</title>
<path fill="none" stroke="midnightblue" d="M788.122,-215.589C809.104,-220.604 834.982,-226.788 857.23,-232.105"/>
<polygon fill="midnightblue" stroke="midnightblue" points="856.626,-235.56 867.166,-234.48 858.254,-228.751 856.626,-235.56"/>
</g>
<!-- Node661 -->
<g id="node8" class="node"><title>Node661</title>
<g id="a_node8"><a xlink:href="a00182.html#a892d2ea16d613abc2276ad5fc6999724" target="_top" xlink:title="Match_RM">
<polygon fill="white" stroke="black" points="875.5,-196.5 875.5,-215.5 940.5,-215.5 940.5,-196.5 875.5,-196.5"/>
<text text-anchor="middle" x="908" y="-203.5" font-family="Helvetica,sans-Serif" font-size="10.00">Match_RM</text>
</a>
</g>
</g>
<!-- Node658&#45;&gt;Node661 -->
<g id="edge7" class="edge"><title>Node658&#45;&gt;Node661</title>
<path fill="none" stroke="midnightblue" d="M804.505,-206C824.446,-206 846.498,-206 865.023,-206"/>
<polygon fill="midnightblue" stroke="midnightblue" points="865.197,-209.5 875.197,-206 865.197,-202.5 865.197,-209.5"/>
</g>
<!-- Node669 -->
<g id="node16" class="node"><title>Node669</title>
<g id="a_node16"><a xlink:href="a00182.html#af3ec72f3170ccdca06d8ad018d86cc58" target="_top" xlink:title="Match_SHEM">
<polygon fill="white" stroke="black" points="869,-158.5 869,-177.5 947,-177.5 947,-158.5 869,-158.5"/>
<text text-anchor="middle" x="908" y="-165.5" font-family="Helvetica,sans-Serif" font-size="10.00">Match_SHEM</text>
</a>
</g>
</g>
<!-- Node658&#45;&gt;Node669 -->
<g id="edge17" class="edge"><title>Node658&#45;&gt;Node669</title>
<path fill="none" stroke="midnightblue" d="M788.122,-196.411C809.68,-191.259 836.405,-184.872 859.052,-179.459"/>
<polygon fill="midnightblue" stroke="midnightblue" points="859.896,-182.856 868.808,-177.128 858.268,-176.048 859.896,-182.856"/>
</g>
<!-- Node670 -->
<g id="node17" class="node"><title>Node670</title>
<g id="a_node17"><a xlink:href="a00026.html#a4c320c13bcdc9967613253ef4c73f59f" target="_top" xlink:title="gk_errexit">
<polygon fill="white" stroke="black" points="878,-120.5 878,-139.5 938,-139.5 938,-120.5 878,-120.5"/>
<text text-anchor="middle" x="908" y="-127.5" font-family="Helvetica,sans-Serif" font-size="10.00">gk_errexit</text>
</a>
</g>
</g>
<!-- Node658&#45;&gt;Node670 -->
<g id="edge20" class="edge"><title>Node658&#45;&gt;Node670</title>
<path fill="none" stroke="midnightblue" d="M787.992,-196.463C794.94,-193.945 801.888,-190.828 808,-187 827.717,-174.651 824.199,-161.213 844,-149 851.338,-144.474 859.825,-140.965 868.145,-138.267"/>
<polygon fill="midnightblue" stroke="midnightblue" points="869.139,-141.623 877.757,-135.46 867.177,-134.904 869.139,-141.623"/>
</g>
<!-- Node662 -->
<g id="node9" class="node"><title>Node662</title>
<g id="a_node9"><a xlink:href="a00182.html#aead846b2c69509c914426ff087509934" target="_top" xlink:title="Match_2Hop">
<polygon fill="white" stroke="black" points="1025.5,-158.5 1025.5,-177.5 1098.5,-177.5 1098.5,-158.5 1025.5,-158.5"/>
<text text-anchor="middle" x="1062" y="-165.5" font-family="Helvetica,sans-Serif" font-size="10.00">Match_2Hop</text>
</a>
</g>
</g>
<!-- Node661&#45;&gt;Node662 -->
<g id="edge8" class="edge"><title>Node661&#45;&gt;Node662</title>
<path fill="none" stroke="midnightblue" d="M940.864,-198.034C962.497,-192.626 991.431,-185.392 1015.48,-179.379"/>
<polygon fill="midnightblue" stroke="midnightblue" points="1016.6,-182.707 1025.46,-176.886 1014.91,-175.916 1016.6,-182.707"/>
</g>
<!-- Node665 -->
<g id="node12" class="node"><title>Node665</title>
<g id="a_node12"><a xlink:href="a00182.html#aac8820421b1c25698140c1b470c50e07" target="_top" xlink:title="CreateCoarseGraph">
<polygon fill="white" stroke="black" points="1008.5,-196.5 1008.5,-215.5 1115.5,-215.5 1115.5,-196.5 1008.5,-196.5"/>
<text text-anchor="middle" x="1062" y="-203.5" font-family="Helvetica,sans-Serif" font-size="10.00">CreateCoarseGraph</text>
</a>
</g>
</g>
<!-- Node661&#45;&gt;Node665 -->
<g id="edge11" class="edge"><title>Node661&#45;&gt;Node665</title>
<path fill="none" stroke="midnightblue" d="M940.864,-206C957.47,-206 978.377,-206 998.076,-206"/>
<polygon fill="midnightblue" stroke="midnightblue" points="998.238,-209.5 1008.24,-206 998.238,-202.5 998.238,-209.5"/>
</g>
<!-- Node663 -->
<g id="node10" class="node"><title>Node663</title>
<g id="a_node10"><a xlink:href="a00182.html#a838a4013e3b5cc5278ecc7a8757ce0ef" target="_top" xlink:title="Match_2HopAny">
<polygon fill="white" stroke="black" points="1179,-120.5 1179,-139.5 1269,-139.5 1269,-120.5 1179,-120.5"/>
<text text-anchor="middle" x="1224" y="-127.5" font-family="Helvetica,sans-Serif" font-size="10.00">Match_2HopAny</text>
</a>
</g>
</g>
<!-- Node662&#45;&gt;Node663 -->
<g id="edge9" class="edge"><title>Node662&#45;&gt;Node663</title>
<path fill="none" stroke="midnightblue" d="M1098.51,-159.567C1120.34,-154.382 1148.65,-147.658 1172.76,-141.932"/>
<polygon fill="midnightblue" stroke="midnightblue" points="1173.88,-145.263 1182.8,-139.547 1172.26,-138.452 1173.88,-145.263"/>
</g>
<!-- Node664 -->
<g id="node11" class="node"><title>Node664</title>
<g id="a_node11"><a xlink:href="a00182.html#aa56d53cace160be27fb1750dcaffbc04" target="_top" xlink:title="Match_2HopAll">
<polygon fill="white" stroke="black" points="1182,-158.5 1182,-177.5 1266,-177.5 1266,-158.5 1182,-158.5"/>
<text text-anchor="middle" x="1224" y="-165.5" font-family="Helvetica,sans-Serif" font-size="10.00">Match_2HopAll</text>
</a>
</g>
</g>
<!-- Node662&#45;&gt;Node664 -->
<g id="edge10" class="edge"><title>Node662&#45;&gt;Node664</title>
<path fill="none" stroke="midnightblue" d="M1098.51,-168C1120,-168 1147.78,-168 1171.64,-168"/>
<polygon fill="midnightblue" stroke="midnightblue" points="1171.94,-171.5 1181.94,-168 1171.94,-164.5 1171.94,-171.5"/>
</g>
<!-- Node666 -->
<g id="node13" class="node"><title>Node666</title>
<g id="a_node13"><a xlink:href="a00182.html#a70dc59d4c7190507e7ad9a4cc0d80707" target="_top" xlink:title="CreateCoarseGraphNoMask">
<polygon fill="white" stroke="black" points="1152.5,-234.5 1152.5,-253.5 1295.5,-253.5 1295.5,-234.5 1152.5,-234.5"/>
<text text-anchor="middle" x="1224" y="-241.5" font-family="Helvetica,sans-Serif" font-size="10.00">CreateCoarseGraphNoMask</text>
</a>
</g>
</g>
<!-- Node665&#45;&gt;Node666 -->
<g id="edge12" class="edge"><title>Node665&#45;&gt;Node666</title>
<path fill="none" stroke="midnightblue" d="M1103.37,-215.589C1124.49,-220.604 1150.53,-226.788 1172.92,-232.105"/>
<polygon fill="midnightblue" stroke="midnightblue" points="1172.38,-235.574 1182.92,-234.48 1173.99,-228.764 1172.38,-235.574"/>
</g>
<!-- Node667 -->
<g id="node14" class="node"><title>Node667</title>
<g id="a_node14"><a xlink:href="a00182.html#a113522304bf628b09d0b69b4db05050e" target="_top" xlink:title="SetupCoarseGraph">
<polygon fill="white" stroke="black" points="1332.5,-262.5 1332.5,-281.5 1435.5,-281.5 1435.5,-262.5 1332.5,-262.5"/>
<text text-anchor="middle" x="1384" y="-269.5" font-family="Helvetica,sans-Serif" font-size="10.00">SetupCoarseGraph</text>
</a>
</g>
</g>
<!-- Node665&#45;&gt;Node667 -->
<g id="edge15" class="edge"><title>Node665&#45;&gt;Node667</title>
<path fill="none" stroke="midnightblue" d="M1073.81,-215.697C1089.64,-229.213 1120.66,-253.159 1152,-263 1207.65,-280.476 1274.57,-281.01 1322.02,-278.206"/>
<polygon fill="midnightblue" stroke="midnightblue" points="1322.39,-281.689 1332.14,-277.54 1321.93,-274.704 1322.39,-281.689"/>
</g>
<!-- Node668 -->
<g id="node15" class="node"><title>Node668</title>
<g id="a_node15"><a xlink:href="a00182.html#ab69ab96ec78174da232dff05e9c79d2f" target="_top" xlink:title="ReAdjustMemory">
<polygon fill="white" stroke="black" points="1337.5,-205.5 1337.5,-224.5 1430.5,-224.5 1430.5,-205.5 1337.5,-205.5"/>
<text text-anchor="middle" x="1384" y="-212.5" font-family="Helvetica,sans-Serif" font-size="10.00">ReAdjustMemory</text>
</a>
</g>
</g>
<!-- Node665&#45;&gt;Node668 -->
<g id="edge16" class="edge"><title>Node665&#45;&gt;Node668</title>
<path fill="none" stroke="midnightblue" d="M1115.84,-207.486C1174.12,-209.125 1267.5,-211.751 1327.01,-213.425"/>
<polygon fill="midnightblue" stroke="midnightblue" points="1327.25,-216.933 1337.34,-213.716 1327.45,-209.936 1327.25,-216.933"/>
</g>
<!-- Node666&#45;&gt;Node667 -->
<g id="edge13" class="edge"><title>Node666&#45;&gt;Node667</title>
<path fill="none" stroke="midnightblue" d="M1278.93,-253.558C1292.82,-256.018 1307.85,-258.683 1322.06,-261.201"/>
<polygon fill="midnightblue" stroke="midnightblue" points="1321.78,-264.706 1332.24,-263.004 1323,-257.813 1321.78,-264.706"/>
</g>
<!-- Node666&#45;&gt;Node668 -->
<g id="edge14" class="edge"><title>Node666&#45;&gt;Node668</title>
<path fill="none" stroke="midnightblue" d="M1277.17,-234.424C1293.25,-231.473 1311.01,-228.213 1327.32,-225.22"/>
<polygon fill="midnightblue" stroke="midnightblue" points="1328.05,-228.644 1337.25,-223.397 1326.79,-221.759 1328.05,-228.644"/>
</g>
<!-- Node669&#45;&gt;Node662 -->
<g id="edge18" class="edge"><title>Node669&#45;&gt;Node662</title>
<path fill="none" stroke="midnightblue" d="M947.356,-168C967.914,-168 993.387,-168 1015,-168"/>
<polygon fill="midnightblue" stroke="midnightblue" points="1015.27,-171.5 1025.27,-168 1015.27,-164.5 1015.27,-171.5"/>
</g>
<!-- Node669&#45;&gt;Node665 -->
<g id="edge19" class="edge"><title>Node669&#45;&gt;Node665</title>
<path fill="none" stroke="midnightblue" d="M947.356,-177.589C967.324,-182.581 991.93,-188.732 1013.13,-194.033"/>
<polygon fill="midnightblue" stroke="midnightblue" points="1012.37,-197.45 1022.92,-196.48 1014.07,-190.659 1012.37,-197.45"/>
</g>
<!-- Node671 -->
<g id="node18" class="node"><title>Node671</title>
<g id="a_node18"><a xlink:href="a01017.html#a2e311a777ffe9c80e405efa7cd2757be" target="_top" xlink:title="fprintf">
<polygon fill="white" stroke="black" points="1041,-101.5 1041,-120.5 1083,-120.5 1083,-101.5 1041,-101.5"/>
<text text-anchor="middle" x="1062" y="-108.5" font-family="Helvetica,sans-Serif" font-size="10.00">fprintf</text>
</a>
</g>
</g>
<!-- Node670&#45;&gt;Node671 -->
<g id="edge21" class="edge"><title>Node670&#45;&gt;Node671</title>
<path fill="none" stroke="midnightblue" d="M938.307,-126.337C964.963,-123.005 1004.13,-118.109 1031,-114.75"/>
<polygon fill="midnightblue" stroke="midnightblue" points="1031.5,-118.214 1040.99,-113.501 1030.63,-111.268 1031.5,-118.214"/>
</g>
<!-- Node673 -->
<g id="node20" class="node"><title>Node673</title>
<g id="a_node20"><a xlink:href="a00077.html#aba6f76f5c67b9b7e9c2e45988d3d3e9d" target="_top" xlink:title="gk_malloc">
<polygon fill="white" stroke="black" points="716,-78.5 716,-97.5 778,-97.5 778,-78.5 716,-78.5"/>
<text text-anchor="middle" x="747" y="-85.5" font-family="Helvetica,sans-Serif" font-size="10.00">gk_malloc</text>
</a>
</g>
</g>
<!-- Node672&#45;&gt;Node673 -->
<g id="edge23" class="edge"><title>Node672&#45;&gt;Node673</title>
<path fill="none" stroke="midnightblue" d="M472.139,-88C536.726,-88 646.535,-88 705.579,-88"/>
<polygon fill="midnightblue" stroke="midnightblue" points="705.644,-91.5001 715.644,-88 705.644,-84.5001 705.644,-91.5001"/>
</g>
<!-- Node673&#45;&gt;Node670 -->
<g id="edge27" class="edge"><title>Node673&#45;&gt;Node670</title>
<path fill="none" stroke="midnightblue" d="M778.281,-95.9987C803.8,-102.74 840.473,-112.427 868.152,-119.738"/>
<polygon fill="midnightblue" stroke="midnightblue" points="867.343,-123.144 877.905,-122.314 869.13,-116.377 867.343,-123.144"/>
</g>
<!-- Node673&#45;&gt;Node671 -->
<g id="edge24" class="edge"><title>Node673&#45;&gt;Node671</title>
<path fill="none" stroke="midnightblue" d="M778.012,-90.2053C837.646,-94.5874 970.469,-104.348 1030.5,-108.759"/>
<polygon fill="midnightblue" stroke="midnightblue" points="1030.6,-112.275 1040.83,-109.518 1031.11,-105.294 1030.6,-112.275"/>
</g>
<!-- Node674 -->
<g id="node21" class="node"><title>Node674</title>
<g id="a_node21"><a xlink:href="a00110.html#ad2327b94227019b6753b6b09400c0522" target="_top" xlink:title="gk_GetCurMemoryUsed">
<polygon fill="white" stroke="black" points="846,-44.5 846,-63.5 970,-63.5 970,-44.5 846,-44.5"/>
<text text-anchor="middle" x="908" y="-51.5" font-family="Helvetica,sans-Serif" font-size="10.00">gk_GetCurMemoryUsed</text>
</a>
</g>
</g>
<!-- Node673&#45;&gt;Node674 -->
<g id="edge25" class="edge"><title>Node673&#45;&gt;Node674</title>
<path fill="none" stroke="midnightblue" d="M778.281,-81.5248C799.187,-77.0542 827.581,-70.9827 852.382,-65.6794"/>
<polygon fill="midnightblue" stroke="midnightblue" points="853.352,-69.0511 862.399,-63.5373 851.888,-62.2059 853.352,-69.0511"/>
</g>
<!-- Node675 -->
<g id="node22" class="node"><title>Node675</title>
<g id="a_node22"><a xlink:href="a00110.html#a656fd5266ae12a96e53125486f8fea52" target="_top" xlink:title="gk_GetMaxMemoryUsed">
<polygon fill="white" stroke="black" points="844.5,-6.5 844.5,-25.5 971.5,-25.5 971.5,-6.5 844.5,-6.5"/>
<text text-anchor="middle" x="908" y="-13.5" font-family="Helvetica,sans-Serif" font-size="10.00">gk_GetMaxMemoryUsed</text>
</a>
</g>
</g>
<!-- Node673&#45;&gt;Node675 -->
<g id="edge26" class="edge"><title>Node673&#45;&gt;Node675</title>
<path fill="none" stroke="midnightblue" d="M763.125,-78.3285C781.626,-66.8132 814.174,-47.5639 844,-35 849.396,-32.7272 855.156,-30.6028 860.918,-28.6587"/>
<polygon fill="midnightblue" stroke="midnightblue" points="862.105,-31.9538 870.555,-25.5625 859.963,-25.2894 862.105,-31.9538"/>
</g>
<!-- Node676&#45;&gt;Node655 -->
<g id="edge29" class="edge"><title>Node676&#45;&gt;Node655</title>
<path fill="none" stroke="midnightblue" d="M262.397,-94.6717C293.331,-110.934 355.9,-143.827 391.882,-162.743"/>
<polygon fill="midnightblue" stroke="midnightblue" points="390.369,-165.902 400.849,-167.458 393.626,-159.707 390.369,-165.902"/>
</g>
<!-- Node676&#45;&gt;Node672 -->
<g id="edge30" class="edge"><title>Node676&#45;&gt;Node672</title>
<path fill="none" stroke="midnightblue" d="M312.161,-86.1685C327.21,-86.4265 343.063,-86.6982 357.815,-86.9511"/>
<polygon fill="midnightblue" stroke="midnightblue" points="357.771,-90.4508 367.83,-87.1228 357.891,-83.4518 357.771,-90.4508"/>
</g>
<!-- Node676&#45;&gt;Node676 -->
<g id="edge31" class="edge"><title>Node676&#45;&gt;Node676</title>
<path fill="none" stroke="midnightblue" d="M216.182,-94.7571C203.135,-103.565 212.074,-113 243,-113 263.778,-113 274.632,-108.741 275.56,-103.275"/>
<polygon fill="midnightblue" stroke="midnightblue" points="278.31,-101.093 269.818,-94.7571 272.506,-105.005 278.31,-101.093"/>
</g>
<!-- Node676&#45;&gt;Node677 -->
<g id="edge32" class="edge"><title>Node676&#45;&gt;Node677</title>
<path fill="none" stroke="midnightblue" d="M289.067,-75.4716C316.067,-69.763 350.179,-62.5506 376.676,-56.9485"/>
<polygon fill="midnightblue" stroke="midnightblue" points="377.731,-60.3029 386.791,-54.8099 376.283,-53.4543 377.731,-60.3029"/>
</g>
<!-- Node676&#45;&gt;Node678 -->
<g id="edge33" class="edge"><title>Node676&#45;&gt;Node678</title>
<path fill="none" stroke="midnightblue" d="M258.967,-75.4944C278.707,-63.3007 314.833,-42.1591 348,-29 359.742,-24.3412 373.021,-20.4442 384.891,-17.4166"/>
<polygon fill="midnightblue" stroke="midnightblue" points="385.998,-20.7493 394.886,-14.9824 384.342,-13.948 385.998,-20.7493"/>
</g>
</g>
</svg>
