<?xml version="1.0" encoding="UTF-8" standalone="no"?>
<!DOCTYPE svg PUBLIC "-//W3C//DTD SVG 1.1//EN"
 "http://www.w3.org/Graphics/SVG/1.1/DTD/svg11.dtd">
<!-- Generated by graphviz version 2.36.0 (20140111.2315)
 -->
<!-- Title: wspacemalloc Pages: 1 -->
<svg width="218pt" height="142pt"
 viewBox="0.00 0.00 218.00 142.00" xmlns="http://www.w3.org/2000/svg" xmlns:xlink="http://www.w3.org/1999/xlink">
<g id="graph0" class="graph" transform="scale(1 1) rotate(0) translate(4 138)">
<title>wspacemalloc</title>
<polygon fill="white" stroke="none" points="-4,4 -4,-138 214,-138 214,4 -4,4"/>
<!-- Node33 -->
<g id="node1" class="node"><title>Node33</title>
<polygon fill="#bfbfbf" stroke="black" points="0.5,-57.5 0.5,-76.5 79.5,-76.5 79.5,-57.5 0.5,-57.5"/>
<text text-anchor="middle" x="40" y="-64.5" font-family="Helvetica,sans-Serif" font-size="10.00">wspacemalloc</text>
</g>
<!-- Node34 -->
<g id="node2" class="node"><title>Node34</title>
<g id="a_node2"><a xlink:href="a00984.html#a24ba749ade92aef079e88d233317c068" target="_top" xlink:title="iwspacemalloc">
<polygon fill="white" stroke="black" points="122,-114.5 122,-133.5 204,-133.5 204,-114.5 122,-114.5"/>
<text text-anchor="middle" x="163" y="-121.5" font-family="Helvetica,sans-Serif" font-size="10.00">iwspacemalloc</text>
</a>
</g>
</g>
<!-- Node33&#45;&gt;Node34 -->
<g id="edge1" class="edge"><title>Node33&#45;&gt;Node34</title>
<path fill="none" stroke="midnightblue" d="M68.1596,-81.3986C82.2969,-88.7304 99.9399,-97.628 116,-105 123.067,-108.244 130.851,-111.556 137.974,-114.486"/>
<polygon fill="midnightblue" stroke="midnightblue" points="69.479,-78.1391 58.9949,-76.611 66.2378,-84.3435 69.479,-78.1391"/>
</g>
<!-- Node35 -->
<g id="node3" class="node"><title>Node35</title>
<g id="a_node3"><a xlink:href="a00984.html#a194ce386758eefa7996960b928c5d0aa" target="_top" xlink:title="rwspacemalloc">
<polygon fill="white" stroke="black" points="121.5,-76.5 121.5,-95.5 204.5,-95.5 204.5,-76.5 121.5,-76.5"/>
<text text-anchor="middle" x="163" y="-83.5" font-family="Helvetica,sans-Serif" font-size="10.00">rwspacemalloc</text>
</a>
</g>
</g>
<!-- Node33&#45;&gt;Node35 -->
<g id="edge2" class="edge"><title>Node33&#45;&gt;Node35</title>
<path fill="none" stroke="midnightblue" d="M89.5083,-74.617C100.031,-76.2693 111.058,-78.0008 121.246,-79.6006"/>
<polygon fill="midnightblue" stroke="midnightblue" points="90.0398,-71.1576 79.6178,-73.064 88.9538,-78.0729 90.0398,-71.1576"/>
</g>
<!-- Node36 -->
<g id="node4" class="node"><title>Node36</title>
<g id="a_node4"><a xlink:href="a00984.html#a84ec1bdf52bc3f92ae3f2e43c42545ca" target="_top" xlink:title="ikvwspacemalloc">
<polygon fill="white" stroke="black" points="117,-38.5 117,-57.5 209,-57.5 209,-38.5 117,-38.5"/>
<text text-anchor="middle" x="163" y="-45.5" font-family="Helvetica,sans-Serif" font-size="10.00">ikvwspacemalloc</text>
</a>
</g>
</g>
<!-- Node33&#45;&gt;Node36 -->
<g id="edge3" class="edge"><title>Node33&#45;&gt;Node36</title>
<path fill="none" stroke="midnightblue" d="M89.5049,-59.3835C98.4376,-57.9809 107.734,-56.5212 116.572,-55.1334"/>
<polygon fill="midnightblue" stroke="midnightblue" points="88.9538,-55.9271 79.6178,-60.936 90.0398,-62.8424 88.9538,-55.9271"/>
</g>
<!-- Node37 -->
<g id="node5" class="node"><title>Node37</title>
<g id="a_node5"><a xlink:href="a00987.html#adfa1dc5e723d63f32672d993e3f52e4f" target="_top" xlink:title="rkvwspacemalloc">
<polygon fill="white" stroke="black" points="116.5,-0.5 116.5,-19.5 209.5,-19.5 209.5,-0.5 116.5,-0.5"/>
<text text-anchor="middle" x="163" y="-7.5" font-family="Helvetica,sans-Serif" font-size="10.00">rkvwspacemalloc</text>
</a>
</g>
</g>
<!-- Node33&#45;&gt;Node37 -->
<g id="edge4" class="edge"><title>Node33&#45;&gt;Node37</title>
<path fill="none" stroke="midnightblue" d="M68.1596,-52.6014C82.2969,-45.2696 99.9399,-36.372 116,-29 123.067,-25.7559 130.851,-22.4444 137.974,-19.514"/>
<polygon fill="midnightblue" stroke="midnightblue" points="66.2378,-49.6565 58.9949,-57.389 69.479,-55.8609 66.2378,-49.6565"/>
</g>
</g>
</svg>
