<?xml version="1.0" encoding="UTF-8" standalone="no"?>
<!DOCTYPE svg PUBLIC "-//W3C//DTD SVG 1.1//EN"
 "http://www.w3.org/Graphics/SVG/1.1/DTD/svg11.dtd">
<!-- Generated by graphviz version 2.36.0 (20140111.2315)
 -->
<!-- Title: METIS_MeshToDual Pages: 1 -->
<svg width="488pt" height="180pt"
 viewBox="0.00 0.00 488.00 180.00" xmlns="http://www.w3.org/2000/svg" xmlns:xlink="http://www.w3.org/1999/xlink">
<g id="graph0" class="graph" transform="scale(1 1) rotate(0) translate(4 176)">
<title>METIS_MeshToDual</title>
<polygon fill="white" stroke="none" points="-4,4 -4,-176 484,-176 484,4 -4,4"/>
<!-- Node43 -->
<g id="node1" class="node"><title>Node43</title>
<polygon fill="#bfbfbf" stroke="black" points="0.5,-76.5 0.5,-95.5 109.5,-95.5 109.5,-76.5 0.5,-76.5"/>
<text text-anchor="middle" x="55" y="-83.5" font-family="Helvetica,sans-Serif" font-size="10.00">METIS_MeshToDual</text>
</g>
<!-- Node44 -->
<g id="node2" class="node"><title>Node44</title>
<g id="a_node2"><a xlink:href="a00077.html#a24633cc1c72a7e92836912c2adcf570a" target="_top" xlink:title="gk_malloc_init">
<polygon fill="white" stroke="black" points="157,-152.5 157,-171.5 237,-171.5 237,-152.5 157,-152.5"/>
<text text-anchor="middle" x="197" y="-159.5" font-family="Helvetica,sans-Serif" font-size="10.00">gk_malloc_init</text>
</a>
</g>
</g>
<!-- Node43&#45;&gt;Node44 -->
<g id="edge1" class="edge"><title>Node43&#45;&gt;Node44</title>
<path fill="none" stroke="midnightblue" d="M69.2232,-95.5755C86.3434,-107.687 117.384,-128.685 146,-143 149.985,-144.994 154.233,-146.907 158.505,-148.701"/>
<polygon fill="midnightblue" stroke="midnightblue" points="157.219,-151.956 167.803,-152.421 159.819,-145.457 157.219,-151.956"/>
</g>
<!-- Node45 -->
<g id="node3" class="node"><title>Node45</title>
<g id="a_node3"><a xlink:href="a00026.html#a05869524d1c30cfaab2a8690e7da6fd4" target="_top" xlink:title="gk_sigtrap">
<polygon fill="white" stroke="black" points="165.5,-114.5 165.5,-133.5 228.5,-133.5 228.5,-114.5 165.5,-114.5"/>
<text text-anchor="middle" x="197" y="-121.5" font-family="Helvetica,sans-Serif" font-size="10.00">gk_sigtrap</text>
</a>
</g>
</g>
<!-- Node43&#45;&gt;Node45 -->
<g id="edge2" class="edge"><title>Node43&#45;&gt;Node45</title>
<path fill="none" stroke="midnightblue" d="M91.3279,-95.589C110.869,-100.893 135.234,-107.506 155.538,-113.017"/>
<polygon fill="midnightblue" stroke="midnightblue" points="154.871,-116.463 165.439,-115.705 156.705,-109.707 154.871,-116.463"/>
</g>
<!-- Node46 -->
<g id="node4" class="node"><title>Node46</title>
<g id="a_node4"><a xlink:href="a00930.html#a10400dffe4954a697990134da62b387d" target="_top" xlink:title="CreateGraphDual">
<polygon fill="white" stroke="black" points="149.5,-76.5 149.5,-95.5 244.5,-95.5 244.5,-76.5 149.5,-76.5"/>
<text text-anchor="middle" x="197" y="-83.5" font-family="Helvetica,sans-Serif" font-size="10.00">CreateGraphDual</text>
</a>
</g>
</g>
<!-- Node43&#45;&gt;Node46 -->
<g id="edge3" class="edge"><title>Node43&#45;&gt;Node46</title>
<path fill="none" stroke="midnightblue" d="M109.727,-86C119.456,-86 129.63,-86 139.437,-86"/>
<polygon fill="midnightblue" stroke="midnightblue" points="139.491,-89.5001 149.491,-86 139.491,-82.5001 139.491,-89.5001"/>
</g>
<!-- Node51 -->
<g id="node9" class="node"><title>Node51</title>
<g id="a_node9"><a xlink:href="a00026.html#a08f287b6dbdc0779c916ecbd49540a1e" target="_top" xlink:title="gk_siguntrap">
<polygon fill="white" stroke="black" points="160,-38.5 160,-57.5 234,-57.5 234,-38.5 160,-38.5"/>
<text text-anchor="middle" x="197" y="-45.5" font-family="Helvetica,sans-Serif" font-size="10.00">gk_siguntrap</text>
</a>
</g>
</g>
<!-- Node43&#45;&gt;Node51 -->
<g id="edge8" class="edge"><title>Node43&#45;&gt;Node51</title>
<path fill="none" stroke="midnightblue" d="M91.3279,-76.411C109.401,-71.5056 131.598,-65.4804 150.895,-60.2429"/>
<polygon fill="midnightblue" stroke="midnightblue" points="151.949,-63.5833 160.683,-57.5859 150.116,-56.8277 151.949,-63.5833"/>
</g>
<!-- Node52 -->
<g id="node10" class="node"><title>Node52</title>
<g id="a_node10"><a xlink:href="a00077.html#a47156a22528b5bc8c7c6e9849af34e62" target="_top" xlink:title="gk_malloc_cleanup">
<polygon fill="white" stroke="black" points="146,-0.5 146,-19.5 248,-19.5 248,-0.5 146,-0.5"/>
<text text-anchor="middle" x="197" y="-7.5" font-family="Helvetica,sans-Serif" font-size="10.00">gk_malloc_cleanup</text>
</a>
</g>
</g>
<!-- Node43&#45;&gt;Node52 -->
<g id="edge9" class="edge"><title>Node43&#45;&gt;Node52</title>
<path fill="none" stroke="midnightblue" d="M69.2232,-76.4245C86.3434,-64.3134 117.384,-43.3153 146,-29 149.985,-27.0064 154.233,-25.0927 158.505,-23.2988"/>
<polygon fill="midnightblue" stroke="midnightblue" points="159.819,-26.543 167.803,-19.579 157.219,-20.0437 159.819,-26.543"/>
</g>
<!-- Node47 -->
<g id="node5" class="node"><title>Node47</title>
<g id="a_node5"><a xlink:href="a00026.html#a4c320c13bcdc9967613253ef4c73f59f" target="_top" xlink:title="gk_errexit">
<polygon fill="white" stroke="black" points="313,-114.5 313,-133.5 373,-133.5 373,-114.5 313,-114.5"/>
<text text-anchor="middle" x="343" y="-121.5" font-family="Helvetica,sans-Serif" font-size="10.00">gk_errexit</text>
</a>
</g>
</g>
<!-- Node46&#45;&gt;Node47 -->
<g id="edge4" class="edge"><title>Node46&#45;&gt;Node47</title>
<path fill="none" stroke="midnightblue" d="M234.337,-95.589C255.34,-101.131 281.759,-108.103 303.17,-113.753"/>
<polygon fill="midnightblue" stroke="midnightblue" points="302.362,-117.16 312.924,-116.327 304.149,-110.392 302.362,-117.16"/>
</g>
<!-- Node49 -->
<g id="node7" class="node"><title>Node49</title>
<g id="a_node7"><a xlink:href="a00930.html#ab05bd1b0bb5bdaaf2e9dc8906675145c" target="_top" xlink:title="FindCommonElements">
<polygon fill="white" stroke="black" points="284,-76.5 284,-95.5 402,-95.5 402,-76.5 284,-76.5"/>
<text text-anchor="middle" x="343" y="-83.5" font-family="Helvetica,sans-Serif" font-size="10.00">FindCommonElements</text>
</a>
</g>
</g>
<!-- Node46&#45;&gt;Node49 -->
<g id="edge6" class="edge"><title>Node46&#45;&gt;Node49</title>
<path fill="none" stroke="midnightblue" d="M244.753,-86C254.017,-86 263.92,-86 273.731,-86"/>
<polygon fill="midnightblue" stroke="midnightblue" points="273.89,-89.5001 283.89,-86 273.89,-82.5001 273.89,-89.5001"/>
</g>
<!-- Node50 -->
<g id="node8" class="node"><title>Node50</title>
<g id="a_node8"><a xlink:href="a00077.html#ac8df62c4e3d0910711a9874f9cc58884" target="_top" xlink:title="gk_free">
<polygon fill="white" stroke="black" points="318,-38.5 318,-57.5 368,-57.5 368,-38.5 318,-38.5"/>
<text text-anchor="middle" x="343" y="-45.5" font-family="Helvetica,sans-Serif" font-size="10.00">gk_free</text>
</a>
</g>
</g>
<!-- Node46&#45;&gt;Node50 -->
<g id="edge7" class="edge"><title>Node46&#45;&gt;Node50</title>
<path fill="none" stroke="midnightblue" d="M234.337,-76.411C256.922,-70.4511 285.771,-62.8383 307.92,-56.9934"/>
<polygon fill="midnightblue" stroke="midnightblue" points="309.112,-60.2988 317.887,-54.363 307.325,-53.5305 309.112,-60.2988"/>
</g>
<!-- Node48 -->
<g id="node6" class="node"><title>Node48</title>
<g id="a_node6"><a xlink:href="a01017.html#a2e311a777ffe9c80e405efa7cd2757be" target="_top" xlink:title="fprintf">
<polygon fill="white" stroke="black" points="438,-114.5 438,-133.5 480,-133.5 480,-114.5 438,-114.5"/>
<text text-anchor="middle" x="459" y="-121.5" font-family="Helvetica,sans-Serif" font-size="10.00">fprintf</text>
</a>
</g>
</g>
<!-- Node47&#45;&gt;Node48 -->
<g id="edge5" class="edge"><title>Node47&#45;&gt;Node48</title>
<path fill="none" stroke="midnightblue" d="M373.062,-124C389.729,-124 410.63,-124 427.528,-124"/>
<polygon fill="midnightblue" stroke="midnightblue" points="427.969,-127.5 437.969,-124 427.969,-120.5 427.969,-127.5"/>
</g>
</g>
</svg>
