<?xml version="1.0" encoding="UTF-8" standalone="no"?>
<!DOCTYPE svg PUBLIC "-//W3C//DTD SVG 1.1//EN"
 "http://www.w3.org/Graphics/SVG/1.1/DTD/svg11.dtd">
<!-- Generated by graphviz version 2.36.0 (20140111.2315)
 -->
<!-- Title: CreateGraphDual Pages: 1 -->
<svg width="336pt" height="104pt"
 viewBox="0.00 0.00 336.00 104.00" xmlns="http://www.w3.org/2000/svg" xmlns:xlink="http://www.w3.org/1999/xlink">
<g id="graph0" class="graph" transform="scale(1 1) rotate(0) translate(4 100)">
<title>CreateGraphDual</title>
<polygon fill="white" stroke="none" points="-4,4 -4,-100 332,-100 332,4 -4,4"/>
<!-- Node219 -->
<g id="node1" class="node"><title>Node219</title>
<polygon fill="#bfbfbf" stroke="black" points="0.5,-38.5 0.5,-57.5 95.5,-57.5 95.5,-38.5 0.5,-38.5"/>
<text text-anchor="middle" x="48" y="-45.5" font-family="Helvetica,sans-Serif" font-size="10.00">CreateGraphDual</text>
</g>
<!-- Node220 -->
<g id="node2" class="node"><title>Node220</title>
<g id="a_node2"><a xlink:href="a00026.html#a4c320c13bcdc9967613253ef4c73f59f" target="_top" xlink:title="gk_errexit">
<polygon fill="white" stroke="black" points="161,-76.5 161,-95.5 221,-95.5 221,-76.5 161,-76.5"/>
<text text-anchor="middle" x="191" y="-83.5" font-family="Helvetica,sans-Serif" font-size="10.00">gk_errexit</text>
</a>
</g>
</g>
<!-- Node219&#45;&gt;Node220 -->
<g id="edge1" class="edge"><title>Node219&#45;&gt;Node220</title>
<path fill="none" stroke="midnightblue" d="M84.5803,-57.589C104.772,-63.0307 130.076,-69.8503 150.832,-75.4441"/>
<polygon fill="midnightblue" stroke="midnightblue" points="150.047,-78.8574 160.613,-78.0802 151.869,-72.0985 150.047,-78.8574"/>
</g>
<!-- Node222 -->
<g id="node4" class="node"><title>Node222</title>
<g id="a_node4"><a xlink:href="a00930.html#ab05bd1b0bb5bdaaf2e9dc8906675145c" target="_top" xlink:title="FindCommonElements">
<polygon fill="white" stroke="black" points="132,-38.5 132,-57.5 250,-57.5 250,-38.5 132,-38.5"/>
<text text-anchor="middle" x="191" y="-45.5" font-family="Helvetica,sans-Serif" font-size="10.00">FindCommonElements</text>
</a>
</g>
</g>
<!-- Node219&#45;&gt;Node222 -->
<g id="edge3" class="edge"><title>Node219&#45;&gt;Node222</title>
<path fill="none" stroke="midnightblue" d="M95.5594,-48C104.01,-48 112.982,-48 121.902,-48"/>
<polygon fill="midnightblue" stroke="midnightblue" points="121.921,-51.5001 131.921,-48 121.921,-44.5001 121.921,-51.5001"/>
</g>
<!-- Node223 -->
<g id="node5" class="node"><title>Node223</title>
<g id="a_node5"><a xlink:href="a00077.html#ac8df62c4e3d0910711a9874f9cc58884" target="_top" xlink:title="gk_free">
<polygon fill="white" stroke="black" points="166,-0.5 166,-19.5 216,-19.5 216,-0.5 166,-0.5"/>
<text text-anchor="middle" x="191" y="-7.5" font-family="Helvetica,sans-Serif" font-size="10.00">gk_free</text>
</a>
</g>
</g>
<!-- Node219&#45;&gt;Node223 -->
<g id="edge4" class="edge"><title>Node219&#45;&gt;Node223</title>
<path fill="none" stroke="midnightblue" d="M84.5803,-38.411C106.554,-32.489 134.583,-24.9352 156.215,-19.1053"/>
<polygon fill="midnightblue" stroke="midnightblue" points="157.217,-22.4602 165.961,-16.4785 155.395,-15.7013 157.217,-22.4602"/>
</g>
<!-- Node221 -->
<g id="node3" class="node"><title>Node221</title>
<g id="a_node3"><a xlink:href="a01017.html#a2e311a777ffe9c80e405efa7cd2757be" target="_top" xlink:title="fprintf">
<polygon fill="white" stroke="black" points="286,-76.5 286,-95.5 328,-95.5 328,-76.5 286,-76.5"/>
<text text-anchor="middle" x="307" y="-83.5" font-family="Helvetica,sans-Serif" font-size="10.00">fprintf</text>
</a>
</g>
</g>
<!-- Node220&#45;&gt;Node221 -->
<g id="edge2" class="edge"><title>Node220&#45;&gt;Node221</title>
<path fill="none" stroke="midnightblue" d="M221.062,-86C237.729,-86 258.63,-86 275.528,-86"/>
<polygon fill="midnightblue" stroke="midnightblue" points="275.969,-89.5001 285.969,-86 275.969,-82.5001 275.969,-89.5001"/>
</g>
</g>
</svg>
