<?xml version="1.0" encoding="UTF-8" standalone="no"?>
<!DOCTYPE svg PUBLIC "-//W3C//DTD SVG 1.1//EN"
 "http://www.w3.org/Graphics/SVG/1.1/DTD/svg11.dtd">
<!-- Generated by graphviz version 2.36.0 (20140111.2315)
 -->
<!-- Title: ProjectKWayPartition Pages: 1 -->
<svg width="648pt" height="182pt"
 viewBox="0.00 0.00 648.00 181.90" xmlns="http://www.w3.org/2000/svg" xmlns:xlink="http://www.w3.org/1999/xlink">
<g id="graph0" class="graph" transform="scale(1 1) rotate(0) translate(4 177.901)">
<title>ProjectKWayPartition</title>
<polygon fill="white" stroke="none" points="-4,4 -4,-177.901 644,-177.901 644,4 -4,4"/>
<!-- Node842 -->
<g id="node1" class="node"><title>Node842</title>
<polygon fill="#bfbfbf" stroke="black" points="0.5,-38.5 0.5,-57.5 111.5,-57.5 111.5,-38.5 0.5,-38.5"/>
<text text-anchor="middle" x="56" y="-45.5" font-family="Helvetica,sans-Serif" font-size="10.00">ProjectKWayPartition</text>
</g>
<!-- Node843 -->
<g id="node2" class="node"><title>Node843</title>
<g id="a_node2"><a xlink:href="a00918.html#a22a23a687ef7ed0d4f66ab58e3a81d12" target="_top" xlink:title="AllocateKWayPartitionMemory">
<polygon fill="white" stroke="black" points="148,-76.5 148,-95.5 300,-95.5 300,-76.5 148,-76.5"/>
<text text-anchor="middle" x="224" y="-83.5" font-family="Helvetica,sans-Serif" font-size="10.00">AllocateKWayPartitionMemory</text>
</a>
</g>
</g>
<!-- Node842&#45;&gt;Node843 -->
<g id="edge1" class="edge"><title>Node842&#45;&gt;Node843</title>
<path fill="none" stroke="midnightblue" d="M98.8888,-57.589C120.893,-62.6261 148.055,-68.8438 171.352,-74.1771"/>
<polygon fill="midnightblue" stroke="midnightblue" points="170.884,-77.6602 181.412,-76.4799 172.446,-70.8367 170.884,-77.6602"/>
</g>
<!-- Node848 -->
<g id="node7" class="node"><title>Node848</title>
<g id="a_node7"><a xlink:href="a00026.html#a4c320c13bcdc9967613253ef4c73f59f" target="_top" xlink:title="gk_errexit">
<polygon fill="white" stroke="black" points="468,-57.5 468,-76.5 528,-76.5 528,-57.5 468,-57.5"/>
<text text-anchor="middle" x="498" y="-64.5" font-family="Helvetica,sans-Serif" font-size="10.00">gk_errexit</text>
</a>
</g>
</g>
<!-- Node842&#45;&gt;Node848 -->
<g id="edge10" class="edge"><title>Node842&#45;&gt;Node848</title>
<path fill="none" stroke="midnightblue" d="M111.837,-50.3679C201.826,-54.2538 378.698,-61.8915 457.499,-65.2943"/>
<polygon fill="midnightblue" stroke="midnightblue" points="457.807,-68.8107 467.948,-65.7455 458.109,-61.8172 457.807,-68.8107"/>
</g>
<!-- Node849 -->
<g id="node8" class="node"><title>Node849</title>
<g id="a_node8"><a xlink:href="a00918.html#acd248e19a1ba82c235d52479e231e2f7" target="_top" xlink:title="ComputeKWayVolGains">
<polygon fill="white" stroke="black" points="162,-0.5 162,-19.5 286,-19.5 286,-0.5 162,-0.5"/>
<text text-anchor="middle" x="224" y="-7.5" font-family="Helvetica,sans-Serif" font-size="10.00">ComputeKWayVolGains</text>
</a>
</g>
</g>
<!-- Node842&#45;&gt;Node849 -->
<g id="edge9" class="edge"><title>Node842&#45;&gt;Node849</title>
<path fill="none" stroke="midnightblue" d="M98.8888,-38.411C120.893,-33.3739 148.055,-27.1562 171.352,-21.8229"/>
<polygon fill="midnightblue" stroke="midnightblue" points="172.446,-25.1633 181.412,-19.5201 170.884,-18.3398 172.446,-25.1633"/>
</g>
<!-- Node844 -->
<g id="node3" class="node"><title>Node844</title>
<g id="a_node3"><a xlink:href="a00077.html#aba6f76f5c67b9b7e9c2e45988d3d3e9d" target="_top" xlink:title="gk_malloc">
<polygon fill="white" stroke="black" points="336,-114.5 336,-133.5 398,-133.5 398,-114.5 336,-114.5"/>
<text text-anchor="middle" x="367" y="-121.5" font-family="Helvetica,sans-Serif" font-size="10.00">gk_malloc</text>
</a>
</g>
</g>
<!-- Node843&#45;&gt;Node844 -->
<g id="edge2" class="edge"><title>Node843&#45;&gt;Node844</title>
<path fill="none" stroke="midnightblue" d="M260.58,-95.589C280.491,-100.955 305.374,-107.661 325.964,-113.21"/>
<polygon fill="midnightblue" stroke="midnightblue" points="325.121,-116.608 335.687,-115.831 326.942,-109.849 325.121,-116.608"/>
</g>
<!-- Node843&#45;&gt;Node848 -->
<g id="edge8" class="edge"><title>Node843&#45;&gt;Node848</title>
<path fill="none" stroke="midnightblue" d="M300.045,-80.7579C351.108,-77.191 416.626,-72.6143 457.723,-69.7436"/>
<polygon fill="midnightblue" stroke="midnightblue" points="458.142,-73.2229 467.874,-69.0345 457.654,-66.24 458.142,-73.2229"/>
</g>
<!-- Node845 -->
<g id="node4" class="node"><title>Node845</title>
<g id="a_node4"><a xlink:href="a01017.html#a2e311a777ffe9c80e405efa7cd2757be" target="_top" xlink:title="fprintf">
<polygon fill="white" stroke="black" points="598,-114.5 598,-133.5 640,-133.5 640,-114.5 598,-114.5"/>
<text text-anchor="middle" x="619" y="-121.5" font-family="Helvetica,sans-Serif" font-size="10.00">fprintf</text>
</a>
</g>
</g>
<!-- Node844&#45;&gt;Node845 -->
<g id="edge3" class="edge"><title>Node844&#45;&gt;Node845</title>
<path fill="none" stroke="midnightblue" d="M380.261,-133.719C392.891,-143.059 413.563,-156.537 434,-162 488.959,-176.691 507.62,-178.709 562,-162 576.039,-157.686 589.719,-148.525 600.044,-140.279"/>
<polygon fill="midnightblue" stroke="midnightblue" points="602.469,-142.813 607.862,-133.694 597.959,-137.46 602.469,-142.813"/>
</g>
<!-- Node846 -->
<g id="node5" class="node"><title>Node846</title>
<g id="a_node5"><a xlink:href="a00110.html#ad2327b94227019b6753b6b09400c0522" target="_top" xlink:title="gk_GetCurMemoryUsed">
<polygon fill="white" stroke="black" points="436,-133.5 436,-152.5 560,-152.5 560,-133.5 436,-133.5"/>
<text text-anchor="middle" x="498" y="-140.5" font-family="Helvetica,sans-Serif" font-size="10.00">gk_GetCurMemoryUsed</text>
</a>
</g>
</g>
<!-- Node844&#45;&gt;Node846 -->
<g id="edge4" class="edge"><title>Node844&#45;&gt;Node846</title>
<path fill="none" stroke="midnightblue" d="M398.245,-128.455C406.646,-129.692 416.139,-131.09 425.836,-132.518"/>
<polygon fill="midnightblue" stroke="midnightblue" points="425.573,-136.017 435.977,-134.012 426.593,-129.092 425.573,-136.017"/>
</g>
<!-- Node847 -->
<g id="node6" class="node"><title>Node847</title>
<g id="a_node6"><a xlink:href="a00110.html#a656fd5266ae12a96e53125486f8fea52" target="_top" xlink:title="gk_GetMaxMemoryUsed">
<polygon fill="white" stroke="black" points="434.5,-95.5 434.5,-114.5 561.5,-114.5 561.5,-95.5 434.5,-95.5"/>
<text text-anchor="middle" x="498" y="-102.5" font-family="Helvetica,sans-Serif" font-size="10.00">gk_GetMaxMemoryUsed</text>
</a>
</g>
</g>
<!-- Node844&#45;&gt;Node847 -->
<g id="edge5" class="edge"><title>Node844&#45;&gt;Node847</title>
<path fill="none" stroke="midnightblue" d="M398.245,-119.545C406.229,-118.369 415.2,-117.048 424.395,-115.694"/>
<polygon fill="midnightblue" stroke="midnightblue" points="425.04,-119.137 434.423,-114.217 424.02,-112.211 425.04,-119.137"/>
</g>
<!-- Node844&#45;&gt;Node848 -->
<g id="edge6" class="edge"><title>Node844&#45;&gt;Node848</title>
<path fill="none" stroke="midnightblue" d="M382.436,-114.391C395.481,-106.027 415.428,-94.0202 434,-86 441.68,-82.6834 450.121,-79.7096 458.259,-77.1539"/>
<polygon fill="midnightblue" stroke="midnightblue" points="459.388,-80.4695 467.965,-74.2488 457.381,-73.7634 459.388,-80.4695"/>
</g>
<!-- Node848&#45;&gt;Node845 -->
<g id="edge7" class="edge"><title>Node848&#45;&gt;Node845</title>
<path fill="none" stroke="midnightblue" d="M528.228,-73.8252C539.104,-76.8755 551.377,-80.9396 562,-86 574.634,-92.0184 587.634,-100.663 597.925,-108.186"/>
<polygon fill="midnightblue" stroke="midnightblue" points="596.101,-111.194 606.194,-114.415 600.313,-105.603 596.101,-111.194"/>
</g>
</g>
</svg>
