<?xml version="1.0" encoding="UTF-8" standalone="no"?>
<!DOCTYPE svg PUBLIC "-//W3C//DTD SVG 1.1//EN"
 "http://www.w3.org/Graphics/SVG/1.1/DTD/svg11.dtd">
<!-- Generated by graphviz version 2.36.0 (20140111.2315)
 -->
<!-- Title: RefineKWay Pages: 1 -->
<!--zoomable 256 -->
<svg id="main" version="1.1" xmlns="http://www.w3.org/2000/svg" xmlns:xlink="http://www.w3.org/1999/xlink" xml:space="preserve" onload="init(evt)">
<style type="text/css"><![CDATA[
.edge:hover path { stroke: red; }
.edge:hover polygon { stroke: red; fill: red; }
]]></style>
<script type="text/javascript"><![CDATA[
var edges = document.getElementsByTagName('g');
if (edges && edges.length) {
  for (var i=0;i<edges.length;i++) {
    if (edges[i].id.substr(0,4)=='edge') {
      edges[i].setAttribute('class','edge');
    }
  }
}
]]></script>
        <defs>
                <circle id="rim" cx="0" cy="0" r="7"/>
                <circle id="rim2" cx="0" cy="0" r="3.5"/>
                <g id="zoomPlus">
                        <use xlink:href="#rim" fill="#404040">
                                <set attributeName="fill" to="#808080" begin="zoomplus.mouseover" end="zoomplus.mouseout"/>
                        </use>
                        <path d="M-4,0h8M0,-4v8" fill="none" stroke="white" stroke-width="1.5" pointer-events="none"/>
                </g>
                <g id="zoomMin">
                        <use xlink:href="#rim" fill="#404040">
                                <set attributeName="fill" to="#808080" begin="zoomminus.mouseover" end="zoomminus.mouseout"/>
                        </use>
                        <path d="M-4,0h8" fill="none" stroke="white" stroke-width="1.5" pointer-events="none"/>
                </g>
                <g id="dirArrow">
                        <path fill="none" stroke="white" stroke-width="1.5" d="M0,-3.0v7 M-2.5,-0.5L0,-3.0L2.5,-0.5"/>
                </g>
               <g id="resetDef">
                       <use xlink:href="#rim2" fill="#404040">
                               <set attributeName="fill" to="#808080" begin="reset.mouseover" end="reset.mouseout"/>
                       </use>
               </g>
        </defs>

<script type="text/javascript">
var viewWidth = 866;
var viewHeight = 256;
var sectionId = 'dynsection-11';
</script>
<script xlink:href="svgpan.js"/>
<svg id="graph" class="graph">
<g id="viewport">
<title>RefineKWay</title>
<polygon fill="white" stroke="none" points="-4,4 -4,-252 862,-252 862,4 -4,4"/>
<!-- Node38 -->
<g id="node1" class="node"><title>Node38</title>
<polygon fill="#bfbfbf" stroke="black" points="0,-152.5 0,-171.5 72,-171.5 72,-152.5 0,-152.5"/>
<text text-anchor="middle" x="36" y="-159.5" font-family="Helvetica,sans-Serif" font-size="10.00">RefineKWay</text>
</g>
<!-- Node39 -->
<g id="node2" class="node"><title>Node39</title>
<g id="a_node2"><a xlink:href="a00918.html#afd723ab2f44ffaa25d1d9f1909e06dfd" target="_top" xlink:title="ComputeKWayPartitionParams">
<polygon fill="white" stroke="black" points="108.5,-171.5 108.5,-190.5 263.5,-190.5 263.5,-171.5 108.5,-171.5"/>
<text text-anchor="middle" x="186" y="-178.5" font-family="Helvetica,sans-Serif" font-size="10.00">ComputeKWayPartitionParams</text>
</a>
</g>
</g>
<!-- Node38&#45;&gt;Node39 -->
<g id="edge1" class="edge"><title>Node38&#45;&gt;Node39</title>
<path fill="none" stroke="midnightblue" d="M72.0739,-166.503C80.857,-167.63 90.6628,-168.889 100.727,-170.181"/>
<polygon fill="midnightblue" stroke="midnightblue" points="100.485,-173.679 110.849,-171.481 101.376,-166.736 100.485,-173.679"/>
</g>
<!-- Node43 -->
<g id="node6" class="node"><title>Node43</title>
<g id="a_node6"><a xlink:href="a00918.html#aa23b4d433fc175282f237653d3edb8a5" target="_top" xlink:title="ComputeKWayBoundary">
<polygon fill="white" stroke="black" points="488.5,-228.5 488.5,-247.5 615.5,-247.5 615.5,-228.5 488.5,-228.5"/>
<text text-anchor="middle" x="552" y="-235.5" font-family="Helvetica,sans-Serif" font-size="10.00">ComputeKWayBoundary</text>
</a>
</g>
</g>
<!-- Node38&#45;&gt;Node43 -->
<g id="edge5" class="edge"><title>Node38&#45;&gt;Node43</title>
<path fill="none" stroke="midnightblue" d="M50.6769,-171.509C64.4616,-180.548 86.6892,-193.676 108,-200 234.301,-237.483 389.097,-241.877 478.256,-240.642"/>
<polygon fill="midnightblue" stroke="midnightblue" points="478.326,-244.141 488.267,-240.476 478.21,-237.142 478.326,-244.141"/>
</g>
<!-- Node44 -->
<g id="node7" class="node"><title>Node44</title>
<g id="a_node7"><a xlink:href="a00918.html#ae2f5446999d83461cf5763dc4946182a" target="_top" xlink:title="IsBalanced">
<polygon fill="white" stroke="black" points="153,-95.5 153,-114.5 219,-114.5 219,-95.5 153,-95.5"/>
<text text-anchor="middle" x="186" y="-102.5" font-family="Helvetica,sans-Serif" font-size="10.00">IsBalanced</text>
</a>
</g>
</g>
<!-- Node38&#45;&gt;Node44 -->
<g id="edge7" class="edge"><title>Node38&#45;&gt;Node44</title>
<path fill="none" stroke="midnightblue" d="M52.2599,-152.386C66.2901,-143.902 87.9007,-131.719 108,-124 119.135,-119.724 131.55,-116.166 143.105,-113.33"/>
<polygon fill="midnightblue" stroke="midnightblue" points="144.042,-116.706 152.984,-111.024 142.45,-109.889 144.042,-116.706"/>
</g>
<!-- Node45 -->
<g id="node8" class="node"><title>Node45</title>
<g id="a_node8"><a xlink:href="a00918.html#a974cb62c010e195c90f8fb900359957c" target="_top" xlink:title="ProjectKWayPartition">
<polygon fill="white" stroke="black" points="130.5,-133.5 130.5,-152.5 241.5,-152.5 241.5,-133.5 130.5,-133.5"/>
<text text-anchor="middle" x="186" y="-140.5" font-family="Helvetica,sans-Serif" font-size="10.00">ProjectKWayPartition</text>
</a>
</g>
</g>
<!-- Node38&#45;&gt;Node45 -->
<g id="edge8" class="edge"><title>Node38&#45;&gt;Node45</title>
<path fill="none" stroke="midnightblue" d="M72.0739,-157.497C86.4439,-155.652 103.552,-153.456 120.05,-151.338"/>
<polygon fill="midnightblue" stroke="midnightblue" points="120.741,-154.778 130.214,-150.033 119.85,-147.835 120.741,-154.778"/>
</g>
<!-- Node40 -->
<g id="node3" class="node"><title>Node40</title>
<g id="a_node3"><a xlink:href="a00918.html#acd248e19a1ba82c235d52479e231e2f7" target="_top" xlink:title="ComputeKWayVolGains">
<polygon fill="white" stroke="black" points="314,-152.5 314,-171.5 438,-171.5 438,-152.5 314,-152.5"/>
<text text-anchor="middle" x="376" y="-159.5" font-family="Helvetica,sans-Serif" font-size="10.00">ComputeKWayVolGains</text>
</a>
</g>
</g>
<!-- Node39&#45;&gt;Node40 -->
<g id="edge2" class="edge"><title>Node39&#45;&gt;Node40</title>
<path fill="none" stroke="midnightblue" d="M263.738,-173.245C276.877,-171.917 290.481,-170.542 303.477,-169.228"/>
<polygon fill="midnightblue" stroke="midnightblue" points="304.151,-172.678 313.749,-168.19 303.447,-165.714 304.151,-172.678"/>
</g>
<!-- Node41 -->
<g id="node4" class="node"><title>Node41</title>
<g id="a_node4"><a xlink:href="a00026.html#a4c320c13bcdc9967613253ef4c73f59f" target="_top" xlink:title="gk_errexit">
<polygon fill="white" stroke="black" points="686,-114.5 686,-133.5 746,-133.5 746,-114.5 686,-114.5"/>
<text text-anchor="middle" x="716" y="-121.5" font-family="Helvetica,sans-Serif" font-size="10.00">gk_errexit</text>
</a>
</g>
</g>
<!-- Node39&#45;&gt;Node41 -->
<g id="edge3" class="edge"><title>Node39&#45;&gt;Node41</title>
<path fill="none" stroke="midnightblue" d="M263.767,-185.31C316.798,-187.234 388.872,-187.762 452,-181 532.618,-172.364 624.797,-149.242 675.813,-135.243"/>
<polygon fill="midnightblue" stroke="midnightblue" points="677.052,-138.532 685.754,-132.487 675.182,-131.786 677.052,-138.532"/>
</g>
<!-- Node42 -->
<g id="node5" class="node"><title>Node42</title>
<g id="a_node5"><a xlink:href="a01017.html#a2e311a777ffe9c80e405efa7cd2757be" target="_top" xlink:title="fprintf">
<polygon fill="white" stroke="black" points="816,-76.5 816,-95.5 858,-95.5 858,-76.5 816,-76.5"/>
<text text-anchor="middle" x="837" y="-83.5" font-family="Helvetica,sans-Serif" font-size="10.00">fprintf</text>
</a>
</g>
</g>
<!-- Node41&#45;&gt;Node42 -->
<g id="edge4" class="edge"><title>Node41&#45;&gt;Node42</title>
<path fill="none" stroke="midnightblue" d="M746.234,-115.41C756.888,-112.22 769.012,-108.52 780,-105 788.573,-102.254 797.844,-99.1595 806.328,-96.2781"/>
<polygon fill="midnightblue" stroke="midnightblue" points="807.507,-99.5738 815.837,-93.0268 805.243,-92.9502 807.507,-99.5738"/>
</g>
<!-- Node43&#45;&gt;Node41 -->
<g id="edge6" class="edge"><title>Node43&#45;&gt;Node41</title>
<path fill="none" stroke="midnightblue" d="M584.847,-228.486C595.173,-224.727 606.426,-219.882 616,-214 649.25,-193.573 681.495,-161.197 699.735,-141.352"/>
<polygon fill="midnightblue" stroke="midnightblue" points="702.553,-143.453 706.656,-133.685 697.357,-138.762 702.553,-143.453"/>
</g>
<!-- Node45&#45;&gt;Node40 -->
<g id="edge16" class="edge"><title>Node45&#45;&gt;Node40</title>
<path fill="none" stroke="midnightblue" d="M241.63,-148.521C261.102,-150.489 283.325,-152.735 303.973,-154.822"/>
<polygon fill="midnightblue" stroke="midnightblue" points="303.662,-158.308 313.963,-155.831 304.366,-151.344 303.662,-158.308"/>
</g>
<!-- Node45&#45;&gt;Node41 -->
<g id="edge17" class="edge"><title>Node45&#45;&gt;Node41</title>
<path fill="none" stroke="midnightblue" d="M241.517,-141.038C348.326,-137.195 582.815,-128.757 675.847,-125.409"/>
<polygon fill="midnightblue" stroke="midnightblue" points="676.09,-128.903 685.958,-125.045 675.838,-121.907 676.09,-128.903"/>
</g>
<!-- Node46 -->
<g id="node9" class="node"><title>Node46</title>
<g id="a_node9"><a xlink:href="a00918.html#a22a23a687ef7ed0d4f66ab58e3a81d12" target="_top" xlink:title="AllocateKWayPartitionMemory">
<polygon fill="white" stroke="black" points="300,-76.5 300,-95.5 452,-95.5 452,-76.5 300,-76.5"/>
<text text-anchor="middle" x="376" y="-83.5" font-family="Helvetica,sans-Serif" font-size="10.00">AllocateKWayPartitionMemory</text>
</a>
</g>
</g>
<!-- Node45&#45;&gt;Node46 -->
<g id="edge9" class="edge"><title>Node45&#45;&gt;Node46</title>
<path fill="none" stroke="midnightblue" d="M230.038,-133.419C241.179,-130.656 253.104,-127.447 264,-124 280.368,-118.822 283.817,-115.73 300,-110 310.952,-106.122 322.898,-102.174 333.971,-98.6297"/>
<polygon fill="midnightblue" stroke="midnightblue" points="335.366,-101.859 343.841,-95.5018 333.251,-95.1865 335.366,-101.859"/>
</g>
<!-- Node46&#45;&gt;Node41 -->
<g id="edge15" class="edge"><title>Node46&#45;&gt;Node41</title>
<path fill="none" stroke="midnightblue" d="M452.168,-92.7634C499.282,-97.197 561.248,-103.382 616,-110 635.683,-112.379 657.51,-115.422 675.649,-118.063"/>
<polygon fill="midnightblue" stroke="midnightblue" points="675.181,-121.532 685.584,-119.523 676.199,-114.606 675.181,-121.532"/>
</g>
<!-- Node47 -->
<g id="node10" class="node"><title>Node47</title>
<g id="a_node10"><a xlink:href="a00077.html#aba6f76f5c67b9b7e9c2e45988d3d3e9d" target="_top" xlink:title="gk_malloc">
<polygon fill="white" stroke="black" points="521,-38.5 521,-57.5 583,-57.5 583,-38.5 521,-38.5"/>
<text text-anchor="middle" x="552" y="-45.5" font-family="Helvetica,sans-Serif" font-size="10.00">gk_malloc</text>
</a>
</g>
</g>
<!-- Node46&#45;&gt;Node47 -->
<g id="edge10" class="edge"><title>Node46&#45;&gt;Node47</title>
<path fill="none" stroke="midnightblue" d="M420.908,-76.411C448.582,-70.3672 484.038,-62.6238 510.944,-56.7478"/>
<polygon fill="midnightblue" stroke="midnightblue" points="511.78,-60.1478 520.803,-54.5947 510.287,-53.309 511.78,-60.1478"/>
</g>
<!-- Node47&#45;&gt;Node41 -->
<g id="edge14" class="edge"><title>Node47&#45;&gt;Node41</title>
<path fill="none" stroke="midnightblue" d="M583.256,-56.9124C594.012,-60.746 605.94,-65.7913 616,-72 634.47,-83.3998 633.136,-94.2636 652,-105 659.493,-109.265 668.043,-112.666 676.376,-115.343"/>
<polygon fill="midnightblue" stroke="midnightblue" points="675.401,-118.704 685.982,-118.16 677.371,-111.987 675.401,-118.704"/>
</g>
<!-- Node47&#45;&gt;Node42 -->
<g id="edge11" class="edge"><title>Node47&#45;&gt;Node42</title>
<path fill="none" stroke="midnightblue" d="M583.079,-48.1991C626.862,-49.0097 710.503,-52.5282 780,-67 788.741,-68.8202 798.006,-71.5965 806.43,-74.4692"/>
<polygon fill="midnightblue" stroke="midnightblue" points="805.257,-77.7666 815.852,-77.8343 807.612,-71.1745 805.257,-77.7666"/>
</g>
<!-- Node48 -->
<g id="node11" class="node"><title>Node48</title>
<g id="a_node11"><a xlink:href="a00110.html#ad2327b94227019b6753b6b09400c0522" target="_top" xlink:title="gk_GetCurMemoryUsed">
<polygon fill="white" stroke="black" points="654,-0.5 654,-19.5 778,-19.5 778,-0.5 654,-0.5"/>
<text text-anchor="middle" x="716" y="-7.5" font-family="Helvetica,sans-Serif" font-size="10.00">gk_GetCurMemoryUsed</text>
</a>
</g>
</g>
<!-- Node47&#45;&gt;Node48 -->
<g id="edge12" class="edge"><title>Node47&#45;&gt;Node48</title>
<path fill="none" stroke="midnightblue" d="M583.091,-40.9415C605.891,-35.5935 637.74,-28.1228 664.43,-21.862"/>
<polygon fill="midnightblue" stroke="midnightblue" points="665.441,-25.2199 674.378,-19.5287 663.843,-18.4049 665.441,-25.2199"/>
</g>
<!-- Node49 -->
<g id="node12" class="node"><title>Node49</title>
<g id="a_node12"><a xlink:href="a00110.html#a656fd5266ae12a96e53125486f8fea52" target="_top" xlink:title="gk_GetMaxMemoryUsed">
<polygon fill="white" stroke="black" points="652.5,-76.5 652.5,-95.5 779.5,-95.5 779.5,-76.5 652.5,-76.5"/>
<text text-anchor="middle" x="716" y="-83.5" font-family="Helvetica,sans-Serif" font-size="10.00">gk_GetMaxMemoryUsed</text>
</a>
</g>
</g>
<!-- Node47&#45;&gt;Node49 -->
<g id="edge13" class="edge"><title>Node47&#45;&gt;Node49</title>
<path fill="none" stroke="midnightblue" d="M583.091,-55.0585C605.891,-60.4065 637.74,-67.8772 664.43,-74.138"/>
<polygon fill="midnightblue" stroke="midnightblue" points="663.843,-77.5951 674.378,-76.4713 665.441,-70.7801 663.843,-77.5951"/>
</g>
</g>
</svg>
        <g id="navigator" transform="translate(0 0)" fill="#404254">
                <rect fill="#f2f5e9" fill-opacity="0.5" stroke="#606060" stroke-width=".5" x="0" y="0" width="60" height="60"/>
                <use id="zoomplus" xlink:href="#zoomPlus" x="17" y="9" onmousedown="handleZoom(evt,'in')"/>
                <use id="zoomminus" xlink:href="#zoomMin" x="42" y="9" onmousedown="handleZoom(evt,'out')"/>
                <use id="reset" xlink:href="#resetDef" x="30" y="36" onmousedown="handleReset()"/>
                <g id="arrowUp" xlink:href="#dirArrow" transform="translate(30 24)" onmousedown="handlePan(0,-1)">
                  <use xlink:href="#rim" fill="#404040">
                        <set attributeName="fill" to="#808080" begin="arrowUp.mouseover" end="arrowUp.mouseout"/>
                  </use>
                  <path fill="none" stroke="white" stroke-width="1.5" d="M0,-3.0v7 M-2.5,-0.5L0,-3.0L2.5,-0.5"/>
                </g>
                <g id="arrowRight" xlink:href="#dirArrow" transform="rotate(90) translate(36 -43)" onmousedown="handlePan(1,0)">
                  <use xlink:href="#rim" fill="#404040">
                        <set attributeName="fill" to="#808080" begin="arrowRight.mouseover" end="arrowRight.mouseout"/>
                  </use>
                  <path fill="none" stroke="white" stroke-width="1.5" d="M0,-3.0v7 M-2.5,-0.5L0,-3.0L2.5,-0.5"/>
                </g>
                <g id="arrowDown" xlink:href="#dirArrow" transform="rotate(180) translate(-30 -48)" onmousedown="handlePan(0,1)">
                  <use xlink:href="#rim" fill="#404040">
                        <set attributeName="fill" to="#808080" begin="arrowDown.mouseover" end="arrowDown.mouseout"/>
                  </use>
                  <path fill="none" stroke="white" stroke-width="1.5" d="M0,-3.0v7 M-2.5,-0.5L0,-3.0L2.5,-0.5"/>
                </g>
                <g id="arrowLeft" xlink:href="#dirArrow" transform="rotate(270) translate(-36 17)" onmousedown="handlePan(-1,0)">
                  <use xlink:href="#rim" fill="#404040">
                        <set attributeName="fill" to="#808080" begin="arrowLeft.mouseover" end="arrowLeft.mouseout"/>
                  </use>
                  <path fill="none" stroke="white" stroke-width="1.5" d="M0,-3.0v7 M-2.5,-0.5L0,-3.0L2.5,-0.5"/>
                </g>
        </g>
        <svg viewBox="0 0 15 15" width="100%" height="30px" preserveAspectRatio="xMaxYMin meet">
         <g id="arrow_out" transform="scale(0.3 0.3)">
          <a xlink:href="a00918_adeb3fad496482fea745a00c7b39ca7cf_cgraph_org.svg" target="_base">
           <rect id="button" ry="5" rx="5" y="6" x="6" height="38" width="38"
                fill="#f2f5e9" fill-opacity="0.5" stroke="#606060" stroke-width="1.0"/>
           <path id="arrow"
             d="M 11.500037,31.436501 C 11.940474,20.09759 22.043105,11.32322 32.158766,21.979434 L 37.068811,17.246167 C 37.068811,17.246167 37.088388,32 37.088388,32 L 22.160133,31.978069 C 22.160133,31.978069 26.997745,27.140456 26.997745,27.140456 C 18.528582,18.264221 13.291696,25.230495 11.500037,31.436501 z"
             style="fill:#404040;"/>
          </a>
         </g>
        </svg>
</svg>
