<?xml version="1.0" encoding="UTF-8" standalone="no"?>
<!DOCTYPE svg PUBLIC "-//W3C//DTD SVG 1.1//EN"
 "http://www.w3.org/Graphics/SVG/1.1/DTD/svg11.dtd">
<!-- Generated by graphviz version 2.36.0 (20140111.2315)
 -->
<!-- Title: ComputePartitionParams Pages: 1 -->
<svg width="476pt" height="125pt"
 viewBox="0.00 0.00 476.00 124.90" xmlns="http://www.w3.org/2000/svg" xmlns:xlink="http://www.w3.org/1999/xlink">
<g id="graph0" class="graph" transform="scale(1 1) rotate(0) translate(4 120.901)">
<title>ComputePartitionParams</title>
<polygon fill="white" stroke="none" points="-4,4 -4,-120.901 472,-120.901 472,4 -4,4"/>
<!-- Node0 -->
<g id="node1" class="node"><title>Node0</title>
<polygon fill="#bfbfbf" stroke="black" points="0,-38.5 0,-57.5 128,-57.5 128,-38.5 0,-38.5"/>
<text text-anchor="middle" x="64" y="-45.5" font-family="Helvetica,sans-Serif" font-size="10.00">ComputePartitionParams</text>
</g>
<!-- Node1 -->
<g id="node2" class="node"><title>Node1</title>
<g id="a_node2"><a xlink:href="a00077.html#aba6f76f5c67b9b7e9c2e45988d3d3e9d" target="_top" xlink:title="gk_malloc">
<polygon fill="white" stroke="black" points="164,-57.5 164,-76.5 226,-76.5 226,-57.5 164,-57.5"/>
<text text-anchor="middle" x="195" y="-64.5" font-family="Helvetica,sans-Serif" font-size="10.00">gk_malloc</text>
</a>
</g>
</g>
<!-- Node0&#45;&gt;Node1 -->
<g id="edge1" class="edge"><title>Node0&#45;&gt;Node1</title>
<path fill="none" stroke="midnightblue" d="M128.366,-57.333C137.058,-58.6132 145.777,-59.8973 153.892,-61.0926"/>
<polygon fill="midnightblue" stroke="midnightblue" points="153.396,-64.5573 163.8,-62.5519 154.417,-57.632 153.396,-64.5573"/>
</g>
<!-- Node6 -->
<g id="node7" class="node"><title>Node6</title>
<g id="a_node7"><a xlink:href="a00623.html#ad1e7380d51df1e0043d24d3c8a860e0a" target="_top" xlink:title="for">
<polygon fill="white" stroke="black" points="180.5,-19.5 180.5,-38.5 209.5,-38.5 209.5,-19.5 180.5,-19.5"/>
<text text-anchor="middle" x="195" y="-26.5" font-family="Helvetica,sans-Serif" font-size="10.00">for</text>
</a>
</g>
</g>
<!-- Node0&#45;&gt;Node6 -->
<g id="edge7" class="edge"><title>Node0&#45;&gt;Node6</title>
<path fill="none" stroke="midnightblue" d="M128.366,-38.667C143.392,-36.4539 158.499,-34.2288 170.426,-32.4722"/>
<polygon fill="midnightblue" stroke="midnightblue" points="171.008,-35.9243 180.391,-31.0044 169.988,-28.999 171.008,-35.9243"/>
</g>
<!-- Node2 -->
<g id="node3" class="node"><title>Node2</title>
<g id="a_node3"><a xlink:href="a01017.html#a2e311a777ffe9c80e405efa7cd2757be" target="_top" xlink:title="fprintf">
<polygon fill="white" stroke="black" points="426,-57.5 426,-76.5 468,-76.5 468,-57.5 426,-57.5"/>
<text text-anchor="middle" x="447" y="-64.5" font-family="Helvetica,sans-Serif" font-size="10.00">fprintf</text>
</a>
</g>
</g>
<!-- Node1&#45;&gt;Node2 -->
<g id="edge2" class="edge"><title>Node1&#45;&gt;Node2</title>
<path fill="none" stroke="midnightblue" d="M208.261,-76.7187C220.891,-86.0589 241.563,-99.5369 262,-105 316.959,-119.691 335.62,-121.709 390,-105 404.039,-100.686 417.719,-91.5255 428.044,-83.2793"/>
<polygon fill="midnightblue" stroke="midnightblue" points="430.469,-85.8134 435.862,-76.6941 425.959,-80.4595 430.469,-85.8134"/>
</g>
<!-- Node3 -->
<g id="node4" class="node"><title>Node3</title>
<g id="a_node4"><a xlink:href="a00110.html#ad2327b94227019b6753b6b09400c0522" target="_top" xlink:title="gk_GetCurMemoryUsed">
<polygon fill="white" stroke="black" points="264,-76.5 264,-95.5 388,-95.5 388,-76.5 264,-76.5"/>
<text text-anchor="middle" x="326" y="-83.5" font-family="Helvetica,sans-Serif" font-size="10.00">gk_GetCurMemoryUsed</text>
</a>
</g>
</g>
<!-- Node1&#45;&gt;Node3 -->
<g id="edge3" class="edge"><title>Node1&#45;&gt;Node3</title>
<path fill="none" stroke="midnightblue" d="M226.245,-71.4547C234.646,-72.692 244.139,-74.0903 253.836,-75.5184"/>
<polygon fill="midnightblue" stroke="midnightblue" points="253.573,-79.0175 263.977,-77.0121 254.593,-72.0922 253.573,-79.0175"/>
</g>
<!-- Node4 -->
<g id="node5" class="node"><title>Node4</title>
<g id="a_node5"><a xlink:href="a00110.html#a656fd5266ae12a96e53125486f8fea52" target="_top" xlink:title="gk_GetMaxMemoryUsed">
<polygon fill="white" stroke="black" points="262.5,-38.5 262.5,-57.5 389.5,-57.5 389.5,-38.5 262.5,-38.5"/>
<text text-anchor="middle" x="326" y="-45.5" font-family="Helvetica,sans-Serif" font-size="10.00">gk_GetMaxMemoryUsed</text>
</a>
</g>
</g>
<!-- Node1&#45;&gt;Node4 -->
<g id="edge4" class="edge"><title>Node1&#45;&gt;Node4</title>
<path fill="none" stroke="midnightblue" d="M226.245,-62.5453C234.229,-61.3693 243.2,-60.048 252.395,-58.6938"/>
<polygon fill="midnightblue" stroke="midnightblue" points="253.04,-62.1366 262.423,-57.2167 252.02,-55.2113 253.04,-62.1366"/>
</g>
<!-- Node5 -->
<g id="node6" class="node"><title>Node5</title>
<g id="a_node6"><a xlink:href="a00026.html#a4c320c13bcdc9967613253ef4c73f59f" target="_top" xlink:title="gk_errexit">
<polygon fill="white" stroke="black" points="296,-0.5 296,-19.5 356,-19.5 356,-0.5 296,-0.5"/>
<text text-anchor="middle" x="326" y="-7.5" font-family="Helvetica,sans-Serif" font-size="10.00">gk_errexit</text>
</a>
</g>
</g>
<!-- Node1&#45;&gt;Node5 -->
<g id="edge5" class="edge"><title>Node1&#45;&gt;Node5</title>
<path fill="none" stroke="midnightblue" d="M211.589,-57.4697C227.76,-47.6847 252.047,-33.2984 262,-29 269.68,-25.6834 278.121,-22.7096 286.259,-20.1539"/>
<polygon fill="midnightblue" stroke="midnightblue" points="287.388,-23.4695 295.965,-17.2488 285.381,-16.7634 287.388,-23.4695"/>
</g>
<!-- Node5&#45;&gt;Node2 -->
<g id="edge6" class="edge"><title>Node5&#45;&gt;Node2</title>
<path fill="none" stroke="midnightblue" d="M356.228,-16.8252C367.104,-19.8755 379.377,-23.9396 390,-29 402.634,-35.0184 415.634,-43.6626 425.925,-51.1863"/>
<polygon fill="midnightblue" stroke="midnightblue" points="424.101,-54.1937 434.194,-57.4154 428.313,-48.6027 424.101,-54.1937"/>
</g>
</g>
</svg>
