<?xml version="1.0" encoding="UTF-8" standalone="no"?>
<!DOCTYPE svg PUBLIC "-//W3C//DTD SVG 1.1//EN"
 "http://www.w3.org/Graphics/SVG/1.1/DTD/svg11.dtd">
<!-- Generated by graphviz version 2.36.0 (20140111.2315)
 -->
<!-- Title: ReadGraph Pages: 1 -->
<!--zoomable 256 -->
<svg id="main" version="1.1" xmlns="http://www.w3.org/2000/svg" xmlns:xlink="http://www.w3.org/1999/xlink" xml:space="preserve" onload="init(evt)">
<style type="text/css"><![CDATA[
.edge:hover path { stroke: red; }
.edge:hover polygon { stroke: red; fill: red; }
]]></style>
<script type="text/javascript"><![CDATA[
var edges = document.getElementsByTagName('g');
if (edges && edges.length) {
  for (var i=0;i<edges.length;i++) {
    if (edges[i].id.substr(0,4)=='edge') {
      edges[i].setAttribute('class','edge');
    }
  }
}
]]></script>
        <defs>
                <circle id="rim" cx="0" cy="0" r="7"/>
                <circle id="rim2" cx="0" cy="0" r="3.5"/>
                <g id="zoomPlus">
                        <use xlink:href="#rim" fill="#404040">
                                <set attributeName="fill" to="#808080" begin="zoomplus.mouseover" end="zoomplus.mouseout"/>
                        </use>
                        <path d="M-4,0h8M0,-4v8" fill="none" stroke="white" stroke-width="1.5" pointer-events="none"/>
                </g>
                <g id="zoomMin">
                        <use xlink:href="#rim" fill="#404040">
                                <set attributeName="fill" to="#808080" begin="zoomminus.mouseover" end="zoomminus.mouseout"/>
                        </use>
                        <path d="M-4,0h8" fill="none" stroke="white" stroke-width="1.5" pointer-events="none"/>
                </g>
                <g id="dirArrow">
                        <path fill="none" stroke="white" stroke-width="1.5" d="M0,-3.0v7 M-2.5,-0.5L0,-3.0L2.5,-0.5"/>
                </g>
               <g id="resetDef">
                       <use xlink:href="#rim2" fill="#404040">
                               <set attributeName="fill" to="#808080" begin="reset.mouseover" end="reset.mouseout"/>
                       </use>
               </g>
        </defs>

<script type="text/javascript">
var viewWidth = 514;
var viewHeight = 256;
var sectionId = 'dynsection-17';
</script>
<script xlink:href="svgpan.js"/>
<svg id="graph" class="graph">
<g id="viewport">
<title>ReadGraph</title>
<polygon fill="white" stroke="none" points="-4,4 -4,-252 510,-252 510,4 -4,4"/>
<!-- Node58 -->
<g id="node1" class="node"><title>Node58</title>
<polygon fill="#bfbfbf" stroke="black" points="0,-114.5 0,-133.5 68,-133.5 68,-114.5 0,-114.5"/>
<text text-anchor="middle" x="34" y="-121.5" font-family="Helvetica,sans-Serif" font-size="10.00">ReadGraph</text>
</g>
<!-- Node59 -->
<g id="node2" class="node"><title>Node59</title>
<g id="a_node2"><a xlink:href="a00035.html#a627221a374552b5b6659d855b7446187" target="_top" xlink:title="gk_fexists">
<polygon fill="white" stroke="black" points="104.5,-228.5 104.5,-247.5 165.5,-247.5 165.5,-228.5 104.5,-228.5"/>
<text text-anchor="middle" x="135" y="-235.5" font-family="Helvetica,sans-Serif" font-size="10.00">gk_fexists</text>
</a>
</g>
</g>
<!-- Node58&#45;&gt;Node59 -->
<g id="edge1" class="edge"><title>Node58&#45;&gt;Node59</title>
<path fill="none" stroke="midnightblue" d="M41.1742,-133.533C52.4943,-150.645 77.8229,-187.276 104,-214 106.678,-216.734 109.662,-219.448 112.681,-222.013"/>
<polygon fill="midnightblue" stroke="midnightblue" points="110.585,-224.819 120.567,-228.37 114.978,-219.369 110.585,-224.819"/>
</g>
<!-- Node60 -->
<g id="node3" class="node"><title>Node60</title>
<g id="a_node3"><a xlink:href="a00026.html#a56d0f2cc40cd8633a784582d6200d8b5" target="_top" xlink:title="errexit">
<polygon fill="white" stroke="black" points="211,-190.5 211,-209.5 255,-209.5 255,-190.5 211,-190.5"/>
<text text-anchor="middle" x="233" y="-197.5" font-family="Helvetica,sans-Serif" font-size="10.00">errexit</text>
</a>
</g>
</g>
<!-- Node58&#45;&gt;Node60 -->
<g id="edge2" class="edge"><title>Node58&#45;&gt;Node60</title>
<path fill="none" stroke="midnightblue" d="M43.2766,-133.517C55.2447,-146.587 78.7338,-169.75 104,-181 134.845,-194.734 173.59,-198.891 200.328,-199.982"/>
<polygon fill="midnightblue" stroke="midnightblue" points="200.548,-203.489 210.644,-200.275 200.747,-196.492 200.548,-203.489"/>
</g>
<!-- Node62 -->
<g id="node5" class="node"><title>Node62</title>
<g id="a_node5"><a xlink:href="a00858.html#abff04948821f625a3e59666e61c70e2f" target="_top" xlink:title="gk_fopen">
<polygon fill="white" stroke="black" points="106,-152.5 106,-171.5 164,-171.5 164,-152.5 106,-152.5"/>
<text text-anchor="middle" x="135" y="-159.5" font-family="Helvetica,sans-Serif" font-size="10.00">gk_fopen</text>
</a>
</g>
</g>
<!-- Node58&#45;&gt;Node62 -->
<g id="edge4" class="edge"><title>Node58&#45;&gt;Node62</title>
<path fill="none" stroke="midnightblue" d="M59.9819,-133.589C71.9411,-138.179 86.4548,-143.75 99.451,-148.739"/>
<polygon fill="midnightblue" stroke="midnightblue" points="98.436,-152.098 109.026,-152.414 100.944,-145.563 98.436,-152.098"/>
</g>
<!-- Node63 -->
<g id="node6" class="node"><title>Node63</title>
<g id="a_node6"><a xlink:href="a00575.html#ae6aab5c308faac0fc539cc9c6da9fbd0" target="_top" xlink:title="sprintf">
<polygon fill="white" stroke="black" points="211,-152.5 211,-171.5 255,-171.5 255,-152.5 211,-152.5"/>
<text text-anchor="middle" x="233" y="-159.5" font-family="Helvetica,sans-Serif" font-size="10.00">sprintf</text>
</a>
</g>
</g>
<!-- Node58&#45;&gt;Node63 -->
<g id="edge15" class="edge"><title>Node58&#45;&gt;Node63</title>
<path fill="none" stroke="midnightblue" d="M68.0621,-127.531C94.6832,-130.677 132.975,-135.886 166,-143 177.602,-145.499 190.159,-148.927 201.174,-152.184"/>
<polygon fill="midnightblue" stroke="midnightblue" points="200.201,-155.546 210.786,-155.095 202.23,-148.846 200.201,-155.546"/>
</g>
<!-- Node64 -->
<g id="node7" class="node"><title>Node64</title>
<g id="a_node7"><a xlink:href="a00858.html#ad8263f64108434d7ebab9799b5ab9632" target="_top" xlink:title="gk_getline">
<polygon fill="white" stroke="black" points="104,-76.5 104,-95.5 166,-95.5 166,-76.5 104,-76.5"/>
<text text-anchor="middle" x="135" y="-83.5" font-family="Helvetica,sans-Serif" font-size="10.00">gk_getline</text>
</a>
</g>
</g>
<!-- Node58&#45;&gt;Node64 -->
<g id="edge7" class="edge"><title>Node58&#45;&gt;Node64</title>
<path fill="none" stroke="midnightblue" d="M59.9819,-114.411C71.9411,-109.821 86.4548,-104.25 99.451,-99.2612"/>
<polygon fill="midnightblue" stroke="midnightblue" points="100.944,-102.437 109.026,-95.5859 98.436,-95.9019 100.944,-102.437"/>
</g>
<!-- Node70 -->
<g id="node13" class="node"><title>Node70</title>
<g id="a_node13"><a xlink:href="a00858.html#a70dec19fefaf0c84f3948b4679a73fec" target="_top" xlink:title="gk_fclose">
<polygon fill="white" stroke="black" points="105.5,-38.5 105.5,-57.5 164.5,-57.5 164.5,-38.5 105.5,-38.5"/>
<text text-anchor="middle" x="135" y="-45.5" font-family="Helvetica,sans-Serif" font-size="10.00">gk_fclose</text>
</a>
</g>
</g>
<!-- Node58&#45;&gt;Node70 -->
<g id="edge16" class="edge"><title>Node58&#45;&gt;Node70</title>
<path fill="none" stroke="midnightblue" d="M45.8897,-114.275C59.2062,-102.556 82.6176,-82.5087 104,-67 105.647,-65.8055 107.368,-64.6033 109.116,-63.4151"/>
<polygon fill="midnightblue" stroke="midnightblue" points="111.416,-66.0934 117.872,-57.6928 107.586,-60.2338 111.416,-66.0934"/>
</g>
<!-- Node72 -->
<g id="node15" class="node"><title>Node72</title>
<g id="a_node15"><a xlink:href="a00077.html#ac8df62c4e3d0910711a9874f9cc58884" target="_top" xlink:title="gk_free">
<polygon fill="white" stroke="black" points="110,-0.5 110,-19.5 160,-19.5 160,-0.5 110,-0.5"/>
<text text-anchor="middle" x="135" y="-7.5" font-family="Helvetica,sans-Serif" font-size="10.00">gk_free</text>
</a>
</g>
</g>
<!-- Node58&#45;&gt;Node72 -->
<g id="edge18" class="edge"><title>Node58&#45;&gt;Node72</title>
<path fill="none" stroke="midnightblue" d="M40.2672,-114.463C50.6616,-96.2454 75.3107,-55.9203 104,-29 105.267,-27.8109 106.619,-26.6533 108.022,-25.5347"/>
<polygon fill="midnightblue" stroke="midnightblue" points="110.244,-28.2495 116.371,-19.6065 106.191,-22.5418 110.244,-28.2495"/>
</g>
<!-- Node61 -->
<g id="node4" class="node"><title>Node61</title>
<g id="a_node4"><a xlink:href="a01017.html#a2e311a777ffe9c80e405efa7cd2757be" target="_top" xlink:title="fprintf">
<polygon fill="white" stroke="black" points="464,-152.5 464,-171.5 506,-171.5 506,-152.5 464,-152.5"/>
<text text-anchor="middle" x="485" y="-159.5" font-family="Helvetica,sans-Serif" font-size="10.00">fprintf</text>
</a>
</g>
</g>
<!-- Node60&#45;&gt;Node61 -->
<g id="edge3" class="edge"><title>Node60&#45;&gt;Node61</title>
<path fill="none" stroke="midnightblue" d="M255.086,-198.24C290.852,-195.066 365.609,-187.613 428,-176 436.545,-174.409 445.728,-172.29 454.136,-170.182"/>
<polygon fill="midnightblue" stroke="midnightblue" points="455.108,-173.546 463.912,-167.653 453.355,-166.769 455.108,-173.546"/>
</g>
<!-- Node62&#45;&gt;Node60 -->
<g id="edge6" class="edge"><title>Node62&#45;&gt;Node60</title>
<path fill="none" stroke="midnightblue" d="M160.225,-171.589C172.618,-176.495 187.841,-182.52 201.073,-187.758"/>
<polygon fill="midnightblue" stroke="midnightblue" points="200.138,-191.152 210.724,-191.578 202.714,-184.643 200.138,-191.152"/>
</g>
<!-- Node62&#45;&gt;Node63 -->
<g id="edge5" class="edge"><title>Node62&#45;&gt;Node63</title>
<path fill="none" stroke="midnightblue" d="M164.025,-162C175.466,-162 188.749,-162 200.522,-162"/>
<polygon fill="midnightblue" stroke="midnightblue" points="200.813,-165.5 210.813,-162 200.813,-158.5 200.813,-165.5"/>
</g>
<!-- Node65 -->
<g id="node8" class="node"><title>Node65</title>
<g id="a_node8"><a xlink:href="a00077.html#aba6f76f5c67b9b7e9c2e45988d3d3e9d" target="_top" xlink:title="gk_malloc">
<polygon fill="white" stroke="black" points="202,-114.5 202,-133.5 264,-133.5 264,-114.5 202,-114.5"/>
<text text-anchor="middle" x="233" y="-121.5" font-family="Helvetica,sans-Serif" font-size="10.00">gk_malloc</text>
</a>
</g>
</g>
<!-- Node64&#45;&gt;Node65 -->
<g id="edge8" class="edge"><title>Node64&#45;&gt;Node65</title>
<path fill="none" stroke="midnightblue" d="M160.225,-95.589C171.708,-100.134 185.62,-105.641 198.127,-110.592"/>
<polygon fill="midnightblue" stroke="midnightblue" points="197.197,-113.988 207.783,-114.414 199.773,-107.479 197.197,-113.988"/>
</g>
<!-- Node69 -->
<g id="node12" class="node"><title>Node69</title>
<g id="a_node12"><a xlink:href="a00077.html#ab76a07ccd25288dd9acc99f5f24a7600" target="_top" xlink:title="gk_realloc">
<polygon fill="white" stroke="black" points="202,-76.5 202,-95.5 264,-95.5 264,-76.5 202,-76.5"/>
<text text-anchor="middle" x="233" y="-83.5" font-family="Helvetica,sans-Serif" font-size="10.00">gk_realloc</text>
</a>
</g>
</g>
<!-- Node64&#45;&gt;Node69 -->
<g id="edge14" class="edge"><title>Node64&#45;&gt;Node69</title>
<path fill="none" stroke="midnightblue" d="M166.112,-86C174.243,-86 183.173,-86 191.763,-86"/>
<polygon fill="midnightblue" stroke="midnightblue" points="191.995,-89.5001 201.995,-86 191.995,-82.5001 191.995,-89.5001"/>
</g>
<!-- Node65&#45;&gt;Node61 -->
<g id="edge9" class="edge"><title>Node65&#45;&gt;Node61</title>
<path fill="none" stroke="midnightblue" d="M262.97,-133.545C274.398,-136.991 287.709,-140.616 300,-143 353.658,-153.408 417.298,-158.375 453.93,-160.535"/>
<polygon fill="midnightblue" stroke="midnightblue" points="453.773,-164.032 463.953,-161.096 454.164,-157.043 453.773,-164.032"/>
</g>
<!-- Node66 -->
<g id="node9" class="node"><title>Node66</title>
<g id="a_node9"><a xlink:href="a00110.html#ad2327b94227019b6753b6b09400c0522" target="_top" xlink:title="gk_GetCurMemoryUsed">
<polygon fill="white" stroke="black" points="302,-114.5 302,-133.5 426,-133.5 426,-114.5 302,-114.5"/>
<text text-anchor="middle" x="364" y="-121.5" font-family="Helvetica,sans-Serif" font-size="10.00">gk_GetCurMemoryUsed</text>
</a>
</g>
</g>
<!-- Node65&#45;&gt;Node66 -->
<g id="edge10" class="edge"><title>Node65&#45;&gt;Node66</title>
<path fill="none" stroke="midnightblue" d="M264.245,-124C272.646,-124 282.139,-124 291.836,-124"/>
<polygon fill="midnightblue" stroke="midnightblue" points="291.977,-127.5 301.977,-124 291.977,-120.5 291.977,-127.5"/>
</g>
<!-- Node67 -->
<g id="node10" class="node"><title>Node67</title>
<g id="a_node10"><a xlink:href="a00110.html#a656fd5266ae12a96e53125486f8fea52" target="_top" xlink:title="gk_GetMaxMemoryUsed">
<polygon fill="white" stroke="black" points="300.5,-76.5 300.5,-95.5 427.5,-95.5 427.5,-76.5 300.5,-76.5"/>
<text text-anchor="middle" x="364" y="-83.5" font-family="Helvetica,sans-Serif" font-size="10.00">gk_GetMaxMemoryUsed</text>
</a>
</g>
</g>
<!-- Node65&#45;&gt;Node67 -->
<g id="edge11" class="edge"><title>Node65&#45;&gt;Node67</title>
<path fill="none" stroke="midnightblue" d="M264.245,-115.091C281.162,-110.107 302.509,-103.819 321.024,-98.3651"/>
<polygon fill="midnightblue" stroke="midnightblue" points="322.086,-101.701 330.69,-95.5178 320.108,-94.9861 322.086,-101.701"/>
</g>
<!-- Node68 -->
<g id="node11" class="node"><title>Node68</title>
<g id="a_node11"><a xlink:href="a00026.html#a4c320c13bcdc9967613253ef4c73f59f" target="_top" xlink:title="gk_errexit">
<polygon fill="white" stroke="black" points="334,-38.5 334,-57.5 394,-57.5 394,-38.5 334,-38.5"/>
<text text-anchor="middle" x="364" y="-45.5" font-family="Helvetica,sans-Serif" font-size="10.00">gk_errexit</text>
</a>
</g>
</g>
<!-- Node65&#45;&gt;Node68 -->
<g id="edge12" class="edge"><title>Node65&#45;&gt;Node68</title>
<path fill="none" stroke="midnightblue" d="M250.702,-114.449C255.177,-111.618 259.906,-108.369 264,-105 281.965,-90.2184 280.199,-79.2129 300,-67 307.338,-62.474 315.825,-58.9653 324.145,-56.2675"/>
<polygon fill="midnightblue" stroke="midnightblue" points="325.139,-59.6234 333.757,-53.4605 323.177,-52.904 325.139,-59.6234"/>
</g>
<!-- Node68&#45;&gt;Node61 -->
<g id="edge13" class="edge"><title>Node68&#45;&gt;Node61</title>
<path fill="none" stroke="midnightblue" d="M394.092,-52.0695C405.566,-54.8096 418.295,-59.3815 428,-67 453.122,-86.7207 469.282,-121.079 477.493,-142.625"/>
<polygon fill="midnightblue" stroke="midnightblue" points="474.3,-144.09 480.979,-152.315 480.887,-141.721 474.3,-144.09"/>
</g>
<!-- Node71 -->
<g id="node14" class="node"><title>Node71</title>
<g id="a_node14"><a xlink:href="a01017.html#a355ed4cdac2a27aa04a6689ac2d7e86e" target="_top" xlink:title="fclose">
<polygon fill="white" stroke="black" points="211.5,-38.5 211.5,-57.5 254.5,-57.5 254.5,-38.5 211.5,-38.5"/>
<text text-anchor="middle" x="233" y="-45.5" font-family="Helvetica,sans-Serif" font-size="10.00">fclose</text>
</a>
</g>
</g>
<!-- Node70&#45;&gt;Node71 -->
<g id="edge17" class="edge"><title>Node70&#45;&gt;Node71</title>
<path fill="none" stroke="midnightblue" d="M164.543,-48C176.053,-48 189.36,-48 201.097,-48"/>
<polygon fill="midnightblue" stroke="midnightblue" points="201.339,-51.5001 211.339,-48 201.339,-44.5001 201.339,-51.5001"/>
</g>
</g>
</svg>
        <g id="navigator" transform="translate(0 0)" fill="#404254">
                <rect fill="#f2f5e9" fill-opacity="0.5" stroke="#606060" stroke-width=".5" x="0" y="0" width="60" height="60"/>
                <use id="zoomplus" xlink:href="#zoomPlus" x="17" y="9" onmousedown="handleZoom(evt,'in')"/>
                <use id="zoomminus" xlink:href="#zoomMin" x="42" y="9" onmousedown="handleZoom(evt,'out')"/>
                <use id="reset" xlink:href="#resetDef" x="30" y="36" onmousedown="handleReset()"/>
                <g id="arrowUp" xlink:href="#dirArrow" transform="translate(30 24)" onmousedown="handlePan(0,-1)">
                  <use xlink:href="#rim" fill="#404040">
                        <set attributeName="fill" to="#808080" begin="arrowUp.mouseover" end="arrowUp.mouseout"/>
                  </use>
                  <path fill="none" stroke="white" stroke-width="1.5" d="M0,-3.0v7 M-2.5,-0.5L0,-3.0L2.5,-0.5"/>
                </g>
                <g id="arrowRight" xlink:href="#dirArrow" transform="rotate(90) translate(36 -43)" onmousedown="handlePan(1,0)">
                  <use xlink:href="#rim" fill="#404040">
                        <set attributeName="fill" to="#808080" begin="arrowRight.mouseover" end="arrowRight.mouseout"/>
                  </use>
                  <path fill="none" stroke="white" stroke-width="1.5" d="M0,-3.0v7 M-2.5,-0.5L0,-3.0L2.5,-0.5"/>
                </g>
                <g id="arrowDown" xlink:href="#dirArrow" transform="rotate(180) translate(-30 -48)" onmousedown="handlePan(0,1)">
                  <use xlink:href="#rim" fill="#404040">
                        <set attributeName="fill" to="#808080" begin="arrowDown.mouseover" end="arrowDown.mouseout"/>
                  </use>
                  <path fill="none" stroke="white" stroke-width="1.5" d="M0,-3.0v7 M-2.5,-0.5L0,-3.0L2.5,-0.5"/>
                </g>
                <g id="arrowLeft" xlink:href="#dirArrow" transform="rotate(270) translate(-36 17)" onmousedown="handlePan(-1,0)">
                  <use xlink:href="#rim" fill="#404040">
                        <set attributeName="fill" to="#808080" begin="arrowLeft.mouseover" end="arrowLeft.mouseout"/>
                  </use>
                  <path fill="none" stroke="white" stroke-width="1.5" d="M0,-3.0v7 M-2.5,-0.5L0,-3.0L2.5,-0.5"/>
                </g>
        </g>
        <svg viewBox="0 0 15 15" width="100%" height="30px" preserveAspectRatio="xMaxYMin meet">
         <g id="arrow_out" transform="scale(0.3 0.3)">
          <a xlink:href="a00951_ac8fe4a21ae3e0e01afdba3fedf1c6123_cgraph_org.svg" target="_base">
           <rect id="button" ry="5" rx="5" y="6" x="6" height="38" width="38"
                fill="#f2f5e9" fill-opacity="0.5" stroke="#606060" stroke-width="1.0"/>
           <path id="arrow"
             d="M 11.500037,31.436501 C 11.940474,20.09759 22.043105,11.32322 32.158766,21.979434 L 37.068811,17.246167 C 37.068811,17.246167 37.088388,32 37.088388,32 L 22.160133,31.978069 C 22.160133,31.978069 26.997745,27.140456 26.997745,27.140456 C 18.528582,18.264221 13.291696,25.230495 11.500037,31.436501 z"
             style="fill:#404040;"/>
          </a>
         </g>
        </svg>
</svg>
