<?xml version="1.0" encoding="UTF-8" standalone="no"?>
<!DOCTYPE svg PUBLIC "-//W3C//DTD SVG 1.1//EN"
 "http://www.w3.org/Graphics/SVG/1.1/DTD/svg11.dtd">
<!-- Generated by graphviz version 2.36.0 (20140111.2315)
 -->
<!-- Title: MlevelNodeBisectionL2 Pages: 1 -->
<svg width="686pt" height="102pt"
 viewBox="0.00 0.00 686.00 102.00" xmlns="http://www.w3.org/2000/svg" xmlns:xlink="http://www.w3.org/1999/xlink">
<g id="graph0" class="graph" transform="scale(1 1) rotate(0) translate(4 98)">
<title>MlevelNodeBisectionL2</title>
<polygon fill="white" stroke="none" points="-4,4 -4,-98 682,-98 682,4 -4,4"/>
<!-- Node711 -->
<g id="node1" class="node"><title>Node711</title>
<polygon fill="#bfbfbf" stroke="black" points="0.5,-28.5 0.5,-47.5 121.5,-47.5 121.5,-28.5 0.5,-28.5"/>
<text text-anchor="middle" x="61" y="-35.5" font-family="Helvetica,sans-Serif" font-size="10.00">MlevelNodeBisectionL2</text>
</g>
<!-- Node712 -->
<g id="node2" class="node"><title>Node712</title>
<g id="a_node2"><a xlink:href="a00948.html#a59c8030c5429e219a8535c2a11cef724" target="_top" xlink:title="MlevelNodeBisectionMultiple">
<polygon fill="white" stroke="black" points="158,-28.5 158,-47.5 302,-47.5 302,-28.5 158,-28.5"/>
<text text-anchor="middle" x="230" y="-35.5" font-family="Helvetica,sans-Serif" font-size="10.00">MlevelNodeBisectionMultiple</text>
</a>
</g>
</g>
<!-- Node711&#45;&gt;Node712 -->
<g id="edge1" class="edge"><title>Node711&#45;&gt;Node712</title>
<path fill="none" stroke="midnightblue" d="M131.828,-38C140.451,-38 149.275,-38 157.917,-38"/>
<polygon fill="midnightblue" stroke="midnightblue" points="131.819,-34.5001 121.819,-38 131.819,-41.5001 131.819,-34.5001"/>
</g>
<!-- Node713 -->
<g id="node3" class="node"><title>Node713</title>
<g id="a_node3"><a xlink:href="a00948.html#af853e9d8bbb2188f871fac436e631ed1" target="_top" xlink:title="MlevelNestedDissection">
<polygon fill="white" stroke="black" points="345.5,-56.5 345.5,-75.5 468.5,-75.5 468.5,-56.5 345.5,-56.5"/>
<text text-anchor="middle" x="407" y="-63.5" font-family="Helvetica,sans-Serif" font-size="10.00">MlevelNestedDissection</text>
</a>
</g>
</g>
<!-- Node712&#45;&gt;Node713 -->
<g id="edge2" class="edge"><title>Node712&#45;&gt;Node713</title>
<path fill="none" stroke="midnightblue" d="M301.034,-49.2054C316.109,-51.6175 331.906,-54.1449 346.534,-56.4854"/>
<polygon fill="midnightblue" stroke="midnightblue" points="301.163,-45.6816 290.736,-47.5577 300.057,-52.5937 301.163,-45.6816"/>
</g>
<!-- Node716 -->
<g id="node6" class="node"><title>Node716</title>
<g id="a_node6"><a xlink:href="a00948.html#a3ef15d1ffff55a81b8486bee09239073" target="_top" xlink:title="MlevelNestedDissectionCC">
<polygon fill="white" stroke="black" points="338,-0.5 338,-19.5 476,-19.5 476,-0.5 338,-0.5"/>
<text text-anchor="middle" x="407" y="-7.5" font-family="Helvetica,sans-Serif" font-size="10.00">MlevelNestedDissectionCC</text>
</a>
</g>
</g>
<!-- Node712&#45;&gt;Node716 -->
<g id="edge6" class="edge"><title>Node712&#45;&gt;Node716</title>
<path fill="none" stroke="midnightblue" d="M301.034,-26.7946C316.109,-24.3825 331.906,-21.8551 346.534,-19.5146"/>
<polygon fill="midnightblue" stroke="midnightblue" points="300.057,-23.4063 290.736,-28.4423 301.163,-30.3184 300.057,-23.4063"/>
</g>
<!-- Node713&#45;&gt;Node713 -->
<g id="edge5" class="edge"><title>Node713&#45;&gt;Node713</title>
<path fill="none" stroke="midnightblue" d="M379.001,-84.6539C380.171,-89.9368 389.504,-94 407,-94 433.66,-94 441.367,-84.5653 430.119,-75.7571"/>
<polygon fill="midnightblue" stroke="midnightblue" points="382.14,-86.208 383.881,-75.7571 376.003,-82.8417 382.14,-86.208"/>
</g>
<!-- Node714 -->
<g id="node4" class="node"><title>Node714</title>
<g id="a_node4"><a xlink:href="a00936.html#a8304f0dd6d180587f73b0b70de3b01b7" target="_top" xlink:title="METIS_NodeND">
<polygon fill="white" stroke="black" points="512.5,-28.5 512.5,-47.5 603.5,-47.5 603.5,-28.5 512.5,-28.5"/>
<text text-anchor="middle" x="558" y="-35.5" font-family="Helvetica,sans-Serif" font-size="10.00">METIS_NodeND</text>
</a>
</g>
</g>
<!-- Node713&#45;&gt;Node714 -->
<g id="edge3" class="edge"><title>Node713&#45;&gt;Node714</title>
<path fill="none" stroke="midnightblue" d="M468.802,-54.574C483.371,-51.8363 498.664,-48.9625 512.347,-46.3911"/>
<polygon fill="midnightblue" stroke="midnightblue" points="468.042,-51.1556 458.861,-56.4423 469.335,-58.0351 468.042,-51.1556"/>
</g>
<!-- Node715 -->
<g id="node5" class="node"><title>Node715</title>
<g id="a_node5"><a xlink:href="a00326.html#a0ddf1224851353fc92bfbff6f499fa97" target="_top" xlink:title="main">
<polygon fill="white" stroke="black" points="640,-28.5 640,-47.5 678,-47.5 678,-28.5 640,-28.5"/>
<text text-anchor="middle" x="659" y="-35.5" font-family="Helvetica,sans-Serif" font-size="10.00">main</text>
</a>
</g>
</g>
<!-- Node714&#45;&gt;Node715 -->
<g id="edge4" class="edge"><title>Node714&#45;&gt;Node715</title>
<path fill="none" stroke="midnightblue" d="M613.748,-38C623.09,-38 632.179,-38 639.665,-38"/>
<polygon fill="midnightblue" stroke="midnightblue" points="613.577,-34.5001 603.577,-38 613.577,-41.5001 613.577,-34.5001"/>
</g>
<!-- Node716&#45;&gt;Node714 -->
<g id="edge7" class="edge"><title>Node716&#45;&gt;Node714</title>
<path fill="none" stroke="midnightblue" d="M468.802,-21.426C483.371,-24.1637 498.664,-27.0375 512.347,-29.6089"/>
<polygon fill="midnightblue" stroke="midnightblue" points="469.335,-17.9649 458.861,-19.5577 468.042,-24.8444 469.335,-17.9649"/>
</g>
<!-- Node716&#45;&gt;Node716 -->
<g id="edge8" class="edge"><title>Node716&#45;&gt;Node716</title>
<path fill="none" stroke="midnightblue" d="M379.001,-28.6539C380.171,-33.9368 389.504,-38 407,-38 433.66,-38 441.367,-28.5653 430.119,-19.7571"/>
<polygon fill="midnightblue" stroke="midnightblue" points="382.14,-30.208 383.881,-19.7571 376.003,-26.8417 382.14,-30.208"/>
</g>
</g>
</svg>
