<?xml version="1.0" encoding="UTF-8" standalone="no"?>
<!DOCTYPE svg PUBLIC "-//W3C//DTD SVG 1.1//EN"
 "http://www.w3.org/Graphics/SVG/1.1/DTD/svg11.dtd">
<!-- Generated by graphviz version 2.36.0 (20140111.2315)
 -->
<!-- Title: TestMoveGraph Pages: 1 -->
<svg width="314pt" height="66pt"
 viewBox="0.00 0.00 314.00 66.00" xmlns="http://www.w3.org/2000/svg" xmlns:xlink="http://www.w3.org/1999/xlink">
<g id="graph0" class="graph" transform="scale(1 1) rotate(0) translate(4 62)">
<title>TestMoveGraph</title>
<polygon fill="white" stroke="none" points="-4,4 -4,-62 310,-62 310,4 -4,4"/>
<!-- Node86 -->
<g id="node1" class="node"><title>Node86</title>
<polygon fill="#bfbfbf" stroke="black" points="0,-19.5 0,-38.5 88,-38.5 88,-19.5 0,-19.5"/>
<text text-anchor="middle" x="44" y="-26.5" font-family="Helvetica,sans-Serif" font-size="10.00">TestMoveGraph</text>
</g>
<!-- Node87 -->
<g id="node2" class="node"><title>Node87</title>
<g id="a_node2"><a xlink:href="a00428.html#ac0ca0065f1dc35b0f4fe4d1968313dca" target="_top" xlink:title="TestParMetis">
<polygon fill="white" stroke="black" points="140.5,-38.5 140.5,-57.5 215.5,-57.5 215.5,-38.5 140.5,-38.5"/>
<text text-anchor="middle" x="178" y="-45.5" font-family="Helvetica,sans-Serif" font-size="10.00">TestParMetis</text>
</a>
</g>
</g>
<!-- Node86&#45;&gt;Node87 -->
<g id="edge1" class="edge"><title>Node86&#45;&gt;Node87</title>
<path fill="none" stroke="midnightblue" d="M98.3097,-36.6734C112.412,-38.7032 127.318,-40.8487 140.318,-42.7201"/>
<polygon fill="midnightblue" stroke="midnightblue" points="98.6184,-33.1818 88.2217,-35.2213 97.621,-40.1104 98.6184,-33.1818"/>
</g>
<!-- Node88 -->
<g id="node3" class="node"><title>Node88</title>
<g id="a_node3"><a xlink:href="a00437.html#adb0c2dc0c5138f35c71739328c702074" target="_top" xlink:title="TestParMetis_GPart">
<polygon fill="white" stroke="black" points="124.5,-0.5 124.5,-19.5 231.5,-19.5 231.5,-0.5 124.5,-0.5"/>
<text text-anchor="middle" x="178" y="-7.5" font-family="Helvetica,sans-Serif" font-size="10.00">TestParMetis_GPart</text>
</a>
</g>
</g>
<!-- Node86&#45;&gt;Node88 -->
<g id="edge2" class="edge"><title>Node86&#45;&gt;Node88</title>
<path fill="none" stroke="midnightblue" d="M98.207,-21.3414C106.865,-20.0953 115.827,-18.8051 124.469,-17.5613"/>
<polygon fill="midnightblue" stroke="midnightblue" points="97.621,-17.8896 88.2217,-22.7787 98.6184,-24.8182 97.621,-17.8896"/>
</g>
<!-- Node89 -->
<g id="node4" class="node"><title>Node89</title>
<g id="a_node4"><a xlink:href="a00428.html#a8f4019835796a39a97c345864d80fcbb" target="_top" xlink:title="main">
<polygon fill="white" stroke="black" points="268,-0.5 268,-19.5 306,-19.5 306,-0.5 268,-0.5"/>
<text text-anchor="middle" x="287" y="-7.5" font-family="Helvetica,sans-Serif" font-size="10.00">main</text>
</a>
</g>
</g>
<!-- Node88&#45;&gt;Node89 -->
<g id="edge3" class="edge"><title>Node88&#45;&gt;Node89</title>
<path fill="none" stroke="midnightblue" d="M241.658,-10C251.26,-10 260.455,-10 267.959,-10"/>
<polygon fill="midnightblue" stroke="midnightblue" points="241.56,-6.5001 231.56,-10 241.56,-13.5001 241.56,-6.5001"/>
</g>
</g>
</svg>
