<?xml version="1.0" encoding="UTF-8" standalone="no"?>
<!DOCTYPE svg PUBLIC "-//W3C//DTD SVG 1.1//EN"
 "http://www.w3.org/Graphics/SVG/1.1/DTD/svg11.dtd">
<!-- Generated by graphviz version 2.36.0 (20140111.2315)
 -->
<!-- Title: MlevelNodeBisectionMultiple Pages: 1 -->
<svg width="528pt" height="102pt"
 viewBox="0.00 0.00 528.00 102.00" xmlns="http://www.w3.org/2000/svg" xmlns:xlink="http://www.w3.org/1999/xlink">
<g id="graph0" class="graph" transform="scale(1 1) rotate(0) translate(4 98)">
<title>MlevelNodeBisectionMultiple</title>
<polygon fill="white" stroke="none" points="-4,4 -4,-98 524,-98 524,4 -4,4"/>
<!-- Node132 -->
<g id="node1" class="node"><title>Node132</title>
<polygon fill="#bfbfbf" stroke="black" points="0,-28.5 0,-47.5 144,-47.5 144,-28.5 0,-28.5"/>
<text text-anchor="middle" x="72" y="-35.5" font-family="Helvetica,sans-Serif" font-size="10.00">MlevelNodeBisectionMultiple</text>
</g>
<!-- Node133 -->
<g id="node2" class="node"><title>Node133</title>
<g id="a_node2"><a xlink:href="a00948.html#af853e9d8bbb2188f871fac436e631ed1" target="_top" xlink:title="MlevelNestedDissection">
<polygon fill="white" stroke="black" points="187.5,-56.5 187.5,-75.5 310.5,-75.5 310.5,-56.5 187.5,-56.5"/>
<text text-anchor="middle" x="249" y="-63.5" font-family="Helvetica,sans-Serif" font-size="10.00">MlevelNestedDissection</text>
</a>
</g>
</g>
<!-- Node132&#45;&gt;Node133 -->
<g id="edge1" class="edge"><title>Node132&#45;&gt;Node133</title>
<path fill="none" stroke="midnightblue" d="M143.034,-49.2054C158.109,-51.6175 173.906,-54.1449 188.534,-56.4854"/>
<polygon fill="midnightblue" stroke="midnightblue" points="143.163,-45.6816 132.736,-47.5577 142.057,-52.5937 143.163,-45.6816"/>
</g>
<!-- Node136 -->
<g id="node5" class="node"><title>Node136</title>
<g id="a_node5"><a xlink:href="a00948.html#a3ef15d1ffff55a81b8486bee09239073" target="_top" xlink:title="MlevelNestedDissectionCC">
<polygon fill="white" stroke="black" points="180,-0.5 180,-19.5 318,-19.5 318,-0.5 180,-0.5"/>
<text text-anchor="middle" x="249" y="-7.5" font-family="Helvetica,sans-Serif" font-size="10.00">MlevelNestedDissectionCC</text>
</a>
</g>
</g>
<!-- Node132&#45;&gt;Node136 -->
<g id="edge5" class="edge"><title>Node132&#45;&gt;Node136</title>
<path fill="none" stroke="midnightblue" d="M143.034,-26.7946C158.109,-24.3825 173.906,-21.8551 188.534,-19.5146"/>
<polygon fill="midnightblue" stroke="midnightblue" points="142.057,-23.4063 132.736,-28.4423 143.163,-30.3184 142.057,-23.4063"/>
</g>
<!-- Node133&#45;&gt;Node133 -->
<g id="edge4" class="edge"><title>Node133&#45;&gt;Node133</title>
<path fill="none" stroke="midnightblue" d="M221.001,-84.6539C222.171,-89.9368 231.504,-94 249,-94 275.66,-94 283.367,-84.5653 272.119,-75.7571"/>
<polygon fill="midnightblue" stroke="midnightblue" points="224.14,-86.208 225.881,-75.7571 218.003,-82.8417 224.14,-86.208"/>
</g>
<!-- Node134 -->
<g id="node3" class="node"><title>Node134</title>
<g id="a_node3"><a xlink:href="a00936.html#a8304f0dd6d180587f73b0b70de3b01b7" target="_top" xlink:title="METIS_NodeND">
<polygon fill="white" stroke="black" points="354.5,-28.5 354.5,-47.5 445.5,-47.5 445.5,-28.5 354.5,-28.5"/>
<text text-anchor="middle" x="400" y="-35.5" font-family="Helvetica,sans-Serif" font-size="10.00">METIS_NodeND</text>
</a>
</g>
</g>
<!-- Node133&#45;&gt;Node134 -->
<g id="edge2" class="edge"><title>Node133&#45;&gt;Node134</title>
<path fill="none" stroke="midnightblue" d="M310.802,-54.574C325.371,-51.8363 340.664,-48.9625 354.347,-46.3911"/>
<polygon fill="midnightblue" stroke="midnightblue" points="310.042,-51.1556 300.861,-56.4423 311.335,-58.0351 310.042,-51.1556"/>
</g>
<!-- Node135 -->
<g id="node4" class="node"><title>Node135</title>
<g id="a_node4"><a xlink:href="a00326.html#a0ddf1224851353fc92bfbff6f499fa97" target="_top" xlink:title="main">
<polygon fill="white" stroke="black" points="482,-28.5 482,-47.5 520,-47.5 520,-28.5 482,-28.5"/>
<text text-anchor="middle" x="501" y="-35.5" font-family="Helvetica,sans-Serif" font-size="10.00">main</text>
</a>
</g>
</g>
<!-- Node134&#45;&gt;Node135 -->
<g id="edge3" class="edge"><title>Node134&#45;&gt;Node135</title>
<path fill="none" stroke="midnightblue" d="M455.748,-38C465.09,-38 474.179,-38 481.665,-38"/>
<polygon fill="midnightblue" stroke="midnightblue" points="455.577,-34.5001 445.577,-38 455.577,-41.5001 455.577,-34.5001"/>
</g>
<!-- Node136&#45;&gt;Node134 -->
<g id="edge6" class="edge"><title>Node136&#45;&gt;Node134</title>
<path fill="none" stroke="midnightblue" d="M310.802,-21.426C325.371,-24.1637 340.664,-27.0375 354.347,-29.6089"/>
<polygon fill="midnightblue" stroke="midnightblue" points="311.335,-17.9649 300.861,-19.5577 310.042,-24.8444 311.335,-17.9649"/>
</g>
<!-- Node136&#45;&gt;Node136 -->
<g id="edge7" class="edge"><title>Node136&#45;&gt;Node136</title>
<path fill="none" stroke="midnightblue" d="M221.001,-28.6539C222.171,-33.9368 231.504,-38 249,-38 275.66,-38 283.367,-28.5653 272.119,-19.7571"/>
<polygon fill="midnightblue" stroke="midnightblue" points="224.14,-30.208 225.881,-19.7571 218.003,-26.8417 224.14,-30.208"/>
</g>
</g>
</svg>
