<?xml version="1.0" encoding="UTF-8" standalone="no"?>
<!DOCTYPE svg PUBLIC "-//W3C//DTD SVG 1.1//EN"
 "http://www.w3.org/Graphics/SVG/1.1/DTD/svg11.dtd">
<!-- Generated by graphviz version 2.36.0 (20140111.2315)
 -->
<!-- Title: WritePermutation Pages: 1 -->
<svg width="356pt" height="142pt"
 viewBox="0.00 0.00 356.00 142.00" xmlns="http://www.w3.org/2000/svg" xmlns:xlink="http://www.w3.org/1999/xlink">
<g id="graph0" class="graph" transform="scale(1 1) rotate(0) translate(4 138)">
<title>WritePermutation</title>
<polygon fill="white" stroke="none" points="-4,4 -4,-138 352,-138 352,4 -4,4"/>
<!-- Node156 -->
<g id="node1" class="node"><title>Node156</title>
<polygon fill="#bfbfbf" stroke="black" points="0,-57.5 0,-76.5 94,-76.5 94,-57.5 0,-57.5"/>
<text text-anchor="middle" x="47" y="-64.5" font-family="Helvetica,sans-Serif" font-size="10.00">WritePermutation</text>
</g>
<!-- Node157 -->
<g id="node2" class="node"><title>Node157</title>
<g id="a_node2"><a xlink:href="a00575.html#ae6aab5c308faac0fc539cc9c6da9fbd0" target="_top" xlink:title="sprintf">
<polygon fill="white" stroke="black" points="226,-114.5 226,-133.5 270,-133.5 270,-114.5 226,-114.5"/>
<text text-anchor="middle" x="248" y="-121.5" font-family="Helvetica,sans-Serif" font-size="10.00">sprintf</text>
</a>
</g>
</g>
<!-- Node156&#45;&gt;Node157 -->
<g id="edge1" class="edge"><title>Node156&#45;&gt;Node157</title>
<path fill="none" stroke="midnightblue" d="M65.0488,-76.5809C81.2674,-85.2842 106.598,-97.8257 130,-105 158.322,-113.683 191.788,-118.608 215.657,-121.257"/>
<polygon fill="midnightblue" stroke="midnightblue" points="215.588,-124.768 225.895,-122.319 216.31,-117.806 215.588,-124.768"/>
</g>
<!-- Node158 -->
<g id="node3" class="node"><title>Node158</title>
<g id="a_node3"><a xlink:href="a00858.html#abff04948821f625a3e59666e61c70e2f" target="_top" xlink:title="gk_fopen">
<polygon fill="white" stroke="black" points="131,-76.5 131,-95.5 189,-95.5 189,-76.5 131,-76.5"/>
<text text-anchor="middle" x="160" y="-83.5" font-family="Helvetica,sans-Serif" font-size="10.00">gk_fopen</text>
</a>
</g>
</g>
<!-- Node156&#45;&gt;Node158 -->
<g id="edge2" class="edge"><title>Node156&#45;&gt;Node158</title>
<path fill="none" stroke="midnightblue" d="M94.1097,-74.8926C103.002,-76.4148 112.227,-77.9937 120.833,-79.4668"/>
<polygon fill="midnightblue" stroke="midnightblue" points="120.513,-82.9629 130.96,-81.2003 121.694,-76.0632 120.513,-82.9629"/>
</g>
<!-- Node160 -->
<g id="node5" class="node"><title>Node160</title>
<g id="a_node5"><a xlink:href="a01017.html#a2e311a777ffe9c80e405efa7cd2757be" target="_top" xlink:title="fprintf">
<polygon fill="white" stroke="black" points="306,-57.5 306,-76.5 348,-76.5 348,-57.5 306,-57.5"/>
<text text-anchor="middle" x="327" y="-64.5" font-family="Helvetica,sans-Serif" font-size="10.00">fprintf</text>
</a>
</g>
</g>
<!-- Node156&#45;&gt;Node160 -->
<g id="edge6" class="edge"><title>Node156&#45;&gt;Node160</title>
<path fill="none" stroke="midnightblue" d="M94.2181,-67C151.347,-67 246.957,-67 295.592,-67"/>
<polygon fill="midnightblue" stroke="midnightblue" points="295.784,-70.5001 305.784,-67 295.784,-63.5001 295.784,-70.5001"/>
</g>
<!-- Node161 -->
<g id="node6" class="node"><title>Node161</title>
<g id="a_node6"><a xlink:href="a00858.html#a70dec19fefaf0c84f3948b4679a73fec" target="_top" xlink:title="gk_fclose">
<polygon fill="white" stroke="black" points="130.5,-0.5 130.5,-19.5 189.5,-19.5 189.5,-0.5 130.5,-0.5"/>
<text text-anchor="middle" x="160" y="-7.5" font-family="Helvetica,sans-Serif" font-size="10.00">gk_fclose</text>
</a>
</g>
</g>
<!-- Node156&#45;&gt;Node161 -->
<g id="edge7" class="edge"><title>Node156&#45;&gt;Node161</title>
<path fill="none" stroke="midnightblue" d="M66.5789,-57.4595C84.2675,-48.3761 111.113,-34.5904 131.322,-24.2133"/>
<polygon fill="midnightblue" stroke="midnightblue" points="133.064,-27.2532 140.36,-19.5716 129.866,-21.0263 133.064,-27.2532"/>
</g>
<!-- Node158&#45;&gt;Node157 -->
<g id="edge3" class="edge"><title>Node158&#45;&gt;Node157</title>
<path fill="none" stroke="midnightblue" d="M182.701,-95.589C192.939,-100.112 205.331,-105.588 216.493,-110.52"/>
<polygon fill="midnightblue" stroke="midnightblue" points="215.339,-113.836 225.9,-114.677 218.168,-107.434 215.339,-113.836"/>
</g>
<!-- Node159 -->
<g id="node4" class="node"><title>Node159</title>
<g id="a_node4"><a xlink:href="a00026.html#a56d0f2cc40cd8633a784582d6200d8b5" target="_top" xlink:title="errexit">
<polygon fill="white" stroke="black" points="226,-76.5 226,-95.5 270,-95.5 270,-76.5 226,-76.5"/>
<text text-anchor="middle" x="248" y="-83.5" font-family="Helvetica,sans-Serif" font-size="10.00">errexit</text>
</a>
</g>
</g>
<!-- Node158&#45;&gt;Node159 -->
<g id="edge4" class="edge"><title>Node158&#45;&gt;Node159</title>
<path fill="none" stroke="midnightblue" d="M189.16,-86C197.657,-86 207.036,-86 215.724,-86"/>
<polygon fill="midnightblue" stroke="midnightblue" points="215.873,-89.5001 225.873,-86 215.873,-82.5001 215.873,-89.5001"/>
</g>
<!-- Node159&#45;&gt;Node160 -->
<g id="edge5" class="edge"><title>Node159&#45;&gt;Node160</title>
<path fill="none" stroke="midnightblue" d="M270.041,-80.8082C278.042,-78.8339 287.319,-76.5446 295.992,-74.4047"/>
<polygon fill="midnightblue" stroke="midnightblue" points="296.911,-77.7828 305.782,-71.9889 295.234,-70.9866 296.911,-77.7828"/>
</g>
<!-- Node162 -->
<g id="node7" class="node"><title>Node162</title>
<g id="a_node7"><a xlink:href="a01017.html#a355ed4cdac2a27aa04a6689ac2d7e86e" target="_top" xlink:title="fclose">
<polygon fill="white" stroke="black" points="226.5,-0.5 226.5,-19.5 269.5,-19.5 269.5,-0.5 226.5,-0.5"/>
<text text-anchor="middle" x="248" y="-7.5" font-family="Helvetica,sans-Serif" font-size="10.00">fclose</text>
</a>
</g>
</g>
<!-- Node161&#45;&gt;Node162 -->
<g id="edge8" class="edge"><title>Node161&#45;&gt;Node162</title>
<path fill="none" stroke="midnightblue" d="M189.637,-10C198.182,-10 207.583,-10 216.257,-10"/>
<polygon fill="midnightblue" stroke="midnightblue" points="216.372,-13.5001 226.372,-10 216.372,-6.5001 216.372,-13.5001"/>
</g>
</g>
</svg>
