<?xml version="1.0" encoding="UTF-8" standalone="no"?>
<!DOCTYPE svg PUBLIC "-//W3C//DTD SVG 1.1//EN"
 "http://www.w3.org/Graphics/SVG/1.1/DTD/svg11.dtd">
<!-- Generated by graphviz version 2.36.0 (20140111.2315)
 -->
<!-- Title: MlevelNestedDissectionCC Pages: 1 -->
<svg width="522pt" height="57pt"
 viewBox="0.00 0.00 522.00 57.36" xmlns="http://www.w3.org/2000/svg" xmlns:xlink="http://www.w3.org/1999/xlink">
<g id="graph0" class="graph" transform="scale(1 1) rotate(0) translate(4 53.3575)">
<title>MlevelNestedDissectionCC</title>
<polygon fill="white" stroke="none" points="-4,4 -4,-53.3575 518,-53.3575 518,4 -4,4"/>
<!-- Node81 -->
<g id="node1" class="node"><title>Node81</title>
<polygon fill="#bfbfbf" stroke="black" points="0,-28.5 0,-47.5 138,-47.5 138,-28.5 0,-28.5"/>
<text text-anchor="middle" x="69" y="-35.5" font-family="Helvetica,sans-Serif" font-size="10.00">MlevelNestedDissectionCC</text>
</g>
<!-- Node82 -->
<g id="node2" class="node"><title>Node82</title>
<g id="a_node2"><a xlink:href="a00936.html#a8304f0dd6d180587f73b0b70de3b01b7" target="_top" xlink:title="METIS_NodeND">
<polygon fill="white" stroke="black" points="348.5,-28.5 348.5,-47.5 439.5,-47.5 439.5,-28.5 348.5,-28.5"/>
<text text-anchor="middle" x="394" y="-35.5" font-family="Helvetica,sans-Serif" font-size="10.00">METIS_NodeND</text>
</a>
</g>
</g>
<!-- Node81&#45;&gt;Node82 -->
<g id="edge1" class="edge"><title>Node81&#45;&gt;Node82</title>
<path fill="none" stroke="midnightblue" d="M148.319,-45.5065C156.978,-46.1193 165.671,-46.6403 174,-47 235.276,-49.6464 250.761,-50.3918 312,-47 323.726,-46.3506 336.363,-45.1762 348.087,-43.8855"/>
<polygon fill="midnightblue" stroke="midnightblue" points="148.429,-42.005 138.195,-44.7492 147.906,-48.9855 148.429,-42.005"/>
</g>
<!-- Node84 -->
<g id="node4" class="node"><title>Node84</title>
<g id="a_node4"><a xlink:href="a00948.html#a3ef15d1ffff55a81b8486bee09239073" target="_top" xlink:title="MlevelNestedDissectionCC">
<polygon fill="white" stroke="black" points="174,-0.5 174,-19.5 312,-19.5 312,-0.5 174,-0.5"/>
<text text-anchor="middle" x="243" y="-7.5" font-family="Helvetica,sans-Serif" font-size="10.00">MlevelNestedDissectionCC</text>
</a>
</g>
</g>
<!-- Node81&#45;&gt;Node84 -->
<g id="edge3" class="edge"><title>Node81&#45;&gt;Node84</title>
<path fill="none" stroke="midnightblue" d="M138.833,-26.7946C153.65,-24.3825 169.176,-21.8551 183.553,-19.5146"/>
<polygon fill="midnightblue" stroke="midnightblue" points="138.019,-23.3809 128.712,-28.4423 139.144,-30.29 138.019,-23.3809"/>
</g>
<!-- Node83 -->
<g id="node3" class="node"><title>Node83</title>
<g id="a_node3"><a xlink:href="a00326.html#a0ddf1224851353fc92bfbff6f499fa97" target="_top" xlink:title="main">
<polygon fill="white" stroke="black" points="476,-28.5 476,-47.5 514,-47.5 514,-28.5 476,-28.5"/>
<text text-anchor="middle" x="495" y="-35.5" font-family="Helvetica,sans-Serif" font-size="10.00">main</text>
</a>
</g>
</g>
<!-- Node82&#45;&gt;Node83 -->
<g id="edge2" class="edge"><title>Node82&#45;&gt;Node83</title>
<path fill="none" stroke="midnightblue" d="M449.748,-38C459.09,-38 468.179,-38 475.665,-38"/>
<polygon fill="midnightblue" stroke="midnightblue" points="449.577,-34.5001 439.577,-38 449.577,-41.5001 449.577,-34.5001"/>
</g>
<!-- Node84&#45;&gt;Node82 -->
<g id="edge4" class="edge"><title>Node84&#45;&gt;Node82</title>
<path fill="none" stroke="midnightblue" d="M304.802,-21.426C319.371,-24.1637 334.664,-27.0375 348.347,-29.6089"/>
<polygon fill="midnightblue" stroke="midnightblue" points="305.335,-17.9649 294.861,-19.5577 304.042,-24.8444 305.335,-17.9649"/>
</g>
<!-- Node84&#45;&gt;Node84 -->
<g id="edge5" class="edge"><title>Node84&#45;&gt;Node84</title>
<path fill="none" stroke="midnightblue" d="M215.001,-28.6539C216.171,-33.9368 225.504,-38 243,-38 269.66,-38 277.367,-28.5653 266.119,-19.7571"/>
<polygon fill="midnightblue" stroke="midnightblue" points="218.14,-30.208 219.881,-19.7571 212.003,-26.8417 218.14,-30.208"/>
</g>
</g>
</svg>
