<?xml version="1.0" encoding="UTF-8" standalone="no"?>
<!DOCTYPE svg PUBLIC "-//W3C//DTD SVG 1.1//EN"
 "http://www.w3.org/Graphics/SVG/1.1/DTD/svg11.dtd">
<!-- Generated by graphviz version 2.36.0 (20140111.2315)
 -->
<!-- Title: KWayNodeRefineInterior Pages: 1 -->
<svg width="468pt" height="28pt"
 viewBox="0.00 0.00 468.00 28.00" xmlns="http://www.w3.org/2000/svg" xmlns:xlink="http://www.w3.org/1999/xlink">
<g id="graph0" class="graph" transform="scale(1 1) rotate(0) translate(4 24)">
<title>KWayNodeRefineInterior</title>
<polygon fill="white" stroke="none" points="-4,4 -4,-24 464,-24 464,4 -4,4"/>
<!-- Node368 -->
<g id="node1" class="node"><title>Node368</title>
<polygon fill="#bfbfbf" stroke="black" points="0.5,-0.5 0.5,-19.5 127.5,-19.5 127.5,-0.5 0.5,-0.5"/>
<text text-anchor="middle" x="64" y="-7.5" font-family="Helvetica,sans-Serif" font-size="10.00">KWayNodeRefineInterior</text>
</g>
<!-- Node369 -->
<g id="node2" class="node"><title>Node369</title>
<g id="a_node2"><a xlink:href="a00942.html#a7181616e1bdb4454ac4a54aab65a4fab" target="_top" xlink:title="METIS_NodeRefine">
<polygon fill="white" stroke="black" points="164.5,-0.5 164.5,-19.5 269.5,-19.5 269.5,-0.5 164.5,-0.5"/>
<text text-anchor="middle" x="217" y="-7.5" font-family="Helvetica,sans-Serif" font-size="10.00">METIS_NodeRefine</text>
</a>
</g>
</g>
<!-- Node368&#45;&gt;Node369 -->
<g id="edge1" class="edge"><title>Node368&#45;&gt;Node369</title>
<path fill="none" stroke="midnightblue" d="M127.726,-10C136.462,-10 145.433,-10 154.152,-10"/>
<polygon fill="midnightblue" stroke="midnightblue" points="154.244,-13.5001 164.244,-10 154.244,-6.5001 154.244,-13.5001"/>
</g>
<!-- Node370 -->
<g id="node3" class="node"><title>Node370</title>
<g id="a_node3"><a xlink:href="a00942.html#a1d2b2b5145f4556102f25c25570bb80e" target="_top" xlink:title="FM_2WayNodeRefine1SidedP">
<polygon fill="white" stroke="black" points="306.5,-0.5 306.5,-19.5 459.5,-19.5 459.5,-0.5 306.5,-0.5"/>
<text text-anchor="middle" x="383" y="-7.5" font-family="Helvetica,sans-Serif" font-size="10.00">FM_2WayNodeRefine1SidedP</text>
</a>
</g>
</g>
<!-- Node369&#45;&gt;Node370 -->
<g id="edge2" class="edge"><title>Node369&#45;&gt;Node370</title>
<path fill="none" stroke="midnightblue" d="M269.891,-10C278.345,-10 287.296,-10 296.306,-10"/>
<polygon fill="midnightblue" stroke="midnightblue" points="296.48,-13.5001 306.48,-10 296.48,-6.5001 296.48,-13.5001"/>
</g>
</g>
</svg>
