<?xml version="1.0" encoding="UTF-8" standalone="no"?>
<!DOCTYPE svg PUBLIC "-//W3C//DTD SVG 1.1//EN"
 "http://www.w3.org/Graphics/SVG/1.1/DTD/svg11.dtd">
<!-- Generated by graphviz version 2.36.0 (20140111.2315)
 -->
<!-- Title: ReadTPwgts Pages: 1 -->
<svg width="554pt" height="256pt"
 viewBox="0.00 0.00 554.00 256.00" xmlns="http://www.w3.org/2000/svg" xmlns:xlink="http://www.w3.org/1999/xlink">
<g id="graph0" class="graph" transform="scale(1 1) rotate(0) translate(4 252)">
<title>ReadTPwgts</title>
<polygon fill="white" stroke="none" points="-4,4 -4,-252 550,-252 550,4 -4,4"/>
<!-- Node104 -->
<g id="node1" class="node"><title>Node104</title>
<polygon fill="#bfbfbf" stroke="black" points="0,-114.5 0,-133.5 74,-133.5 74,-114.5 0,-114.5"/>
<text text-anchor="middle" x="37" y="-121.5" font-family="Helvetica,sans-Serif" font-size="10.00">ReadTPwgts</text>
</g>
<!-- Node105 -->
<g id="node2" class="node"><title>Node105</title>
<g id="a_node2"><a xlink:href="a00035.html#a627221a374552b5b6659d855b7446187" target="_top" xlink:title="gk_fexists">
<polygon fill="white" stroke="black" points="127.5,-228.5 127.5,-247.5 188.5,-247.5 188.5,-228.5 127.5,-228.5"/>
<text text-anchor="middle" x="158" y="-235.5" font-family="Helvetica,sans-Serif" font-size="10.00">gk_fexists</text>
</a>
</g>
</g>
<!-- Node104&#45;&gt;Node105 -->
<g id="edge1" class="edge"><title>Node104&#45;&gt;Node105</title>
<path fill="none" stroke="midnightblue" d="M43.6673,-133.51C54.6128,-151.235 80.2257,-189.721 110,-214 114.349,-217.546 119.308,-220.77 124.335,-223.621"/>
<polygon fill="midnightblue" stroke="midnightblue" points="122.86,-226.8 133.341,-228.343 126.11,-220.6 122.86,-226.8"/>
</g>
<!-- Node106 -->
<g id="node3" class="node"><title>Node106</title>
<g id="a_node3"><a xlink:href="a00026.html#a56d0f2cc40cd8633a784582d6200d8b5" target="_top" xlink:title="errexit">
<polygon fill="white" stroke="black" points="251,-190.5 251,-209.5 295,-209.5 295,-190.5 251,-190.5"/>
<text text-anchor="middle" x="273" y="-197.5" font-family="Helvetica,sans-Serif" font-size="10.00">errexit</text>
</a>
</g>
</g>
<!-- Node104&#45;&gt;Node106 -->
<g id="edge2" class="edge"><title>Node104&#45;&gt;Node106</title>
<path fill="none" stroke="midnightblue" d="M46.6788,-133.622C59.2174,-146.817 83.7871,-170.127 110,-181 152.838,-198.769 207.168,-201.579 240.753,-201.297"/>
<polygon fill="midnightblue" stroke="midnightblue" points="240.953,-204.794 250.888,-201.112 240.826,-197.796 240.953,-204.794"/>
</g>
<!-- Node108 -->
<g id="node5" class="node"><title>Node108</title>
<g id="a_node5"><a xlink:href="a00858.html#abff04948821f625a3e59666e61c70e2f" target="_top" xlink:title="gk_fopen">
<polygon fill="white" stroke="black" points="129,-152.5 129,-171.5 187,-171.5 187,-152.5 129,-152.5"/>
<text text-anchor="middle" x="158" y="-159.5" font-family="Helvetica,sans-Serif" font-size="10.00">gk_fopen</text>
</a>
</g>
</g>
<!-- Node104&#45;&gt;Node108 -->
<g id="edge4" class="edge"><title>Node104&#45;&gt;Node108</title>
<path fill="none" stroke="midnightblue" d="M68.0287,-133.589C83.4238,-138.505 102.341,-144.546 118.767,-149.791"/>
<polygon fill="midnightblue" stroke="midnightblue" points="118.029,-153.229 128.619,-152.937 120.158,-146.561 118.029,-153.229"/>
</g>
<!-- Node110 -->
<g id="node7" class="node"><title>Node110</title>
<g id="a_node7"><a xlink:href="a00858.html#ad8263f64108434d7ebab9799b5ab9632" target="_top" xlink:title="gk_getline">
<polygon fill="white" stroke="black" points="127,-114.5 127,-133.5 189,-133.5 189,-114.5 127,-114.5"/>
<text text-anchor="middle" x="158" y="-121.5" font-family="Helvetica,sans-Serif" font-size="10.00">gk_getline</text>
</a>
</g>
</g>
<!-- Node104&#45;&gt;Node110 -->
<g id="edge7" class="edge"><title>Node104&#45;&gt;Node110</title>
<path fill="none" stroke="midnightblue" d="M74.0269,-124C87.4369,-124 102.741,-124 116.524,-124"/>
<polygon fill="midnightblue" stroke="midnightblue" points="116.71,-127.5 126.71,-124 116.71,-120.5 116.71,-127.5"/>
</g>
<!-- Node116 -->
<g id="node13" class="node"><title>Node116</title>
<g id="a_node13"><a xlink:href="a00077.html#a29b909254dcbcae417f8c09ce21d5423" target="_top" xlink:title="Replaces certain characters in a string. ">
<polygon fill="white" stroke="black" points="110,-76.5 110,-95.5 206,-95.5 206,-76.5 110,-76.5"/>
<text text-anchor="middle" x="158" y="-83.5" font-family="Helvetica,sans-Serif" font-size="10.00">gk_strchr_replace</text>
</a>
</g>
</g>
<!-- Node104&#45;&gt;Node116 -->
<g id="edge15" class="edge"><title>Node104&#45;&gt;Node116</title>
<path fill="none" stroke="midnightblue" d="M68.0287,-114.411C82.9677,-109.641 101.223,-103.811 117.301,-98.6771"/>
<polygon fill="midnightblue" stroke="midnightblue" points="118.519,-101.962 126.981,-95.5859 116.39,-95.2938 118.519,-101.962"/>
</g>
<!-- Node117 -->
<g id="node14" class="node"><title>Node117</title>
<g id="a_node14"><a xlink:href="a00858.html#a70dec19fefaf0c84f3948b4679a73fec" target="_top" xlink:title="gk_fclose">
<polygon fill="white" stroke="black" points="128.5,-38.5 128.5,-57.5 187.5,-57.5 187.5,-38.5 128.5,-38.5"/>
<text text-anchor="middle" x="158" y="-45.5" font-family="Helvetica,sans-Serif" font-size="10.00">gk_fclose</text>
</a>
</g>
</g>
<!-- Node104&#45;&gt;Node117 -->
<g id="edge16" class="edge"><title>Node104&#45;&gt;Node117</title>
<path fill="none" stroke="midnightblue" d="M48.0487,-114.496C61.3768,-102.269 86.0218,-80.9497 110,-67 113.233,-65.119 116.688,-63.339 120.202,-61.6781"/>
<polygon fill="midnightblue" stroke="midnightblue" points="121.788,-64.8044 129.531,-57.5728 118.968,-58.3974 121.788,-64.8044"/>
</g>
<!-- Node119 -->
<g id="node16" class="node"><title>Node119</title>
<g id="a_node16"><a xlink:href="a00077.html#ac8df62c4e3d0910711a9874f9cc58884" target="_top" xlink:title="gk_free">
<polygon fill="white" stroke="black" points="133,-0.5 133,-19.5 183,-19.5 183,-0.5 133,-0.5"/>
<text text-anchor="middle" x="158" y="-7.5" font-family="Helvetica,sans-Serif" font-size="10.00">gk_free</text>
</a>
</g>
</g>
<!-- Node104&#45;&gt;Node119 -->
<g id="edge18" class="edge"><title>Node104&#45;&gt;Node119</title>
<path fill="none" stroke="midnightblue" d="M43.0136,-114.276C53.2087,-95.3751 78.1173,-53.3995 110,-29 113.984,-25.9511 118.524,-23.318 123.175,-21.0667"/>
<polygon fill="midnightblue" stroke="midnightblue" points="124.921,-24.1263 132.734,-16.9708 122.164,-17.6921 124.921,-24.1263"/>
</g>
<!-- Node107 -->
<g id="node4" class="node"><title>Node107</title>
<g id="a_node4"><a xlink:href="a01017.html#a2e311a777ffe9c80e405efa7cd2757be" target="_top" xlink:title="fprintf">
<polygon fill="white" stroke="black" points="504,-152.5 504,-171.5 546,-171.5 546,-152.5 504,-152.5"/>
<text text-anchor="middle" x="525" y="-159.5" font-family="Helvetica,sans-Serif" font-size="10.00">fprintf</text>
</a>
</g>
</g>
<!-- Node106&#45;&gt;Node107 -->
<g id="edge3" class="edge"><title>Node106&#45;&gt;Node107</title>
<path fill="none" stroke="midnightblue" d="M295.086,-198.24C330.852,-195.066 405.609,-187.613 468,-176 476.545,-174.409 485.728,-172.29 494.136,-170.182"/>
<polygon fill="midnightblue" stroke="midnightblue" points="495.108,-173.546 503.912,-167.653 493.355,-166.769 495.108,-173.546"/>
</g>
<!-- Node108&#45;&gt;Node106 -->
<g id="edge6" class="edge"><title>Node108&#45;&gt;Node106</title>
<path fill="none" stroke="midnightblue" d="M187.223,-171.491C203.572,-176.989 224.177,-183.918 240.979,-189.568"/>
<polygon fill="midnightblue" stroke="midnightblue" points="240.283,-193.027 250.877,-192.897 242.514,-186.392 240.283,-193.027"/>
</g>
<!-- Node109 -->
<g id="node6" class="node"><title>Node109</title>
<g id="a_node6"><a xlink:href="a00575.html#ae6aab5c308faac0fc539cc9c6da9fbd0" target="_top" xlink:title="sprintf">
<polygon fill="white" stroke="black" points="251,-152.5 251,-171.5 295,-171.5 295,-152.5 251,-152.5"/>
<text text-anchor="middle" x="273" y="-159.5" font-family="Helvetica,sans-Serif" font-size="10.00">sprintf</text>
</a>
</g>
</g>
<!-- Node108&#45;&gt;Node109 -->
<g id="edge5" class="edge"><title>Node108&#45;&gt;Node109</title>
<path fill="none" stroke="midnightblue" d="M187.223,-162C203.418,-162 223.788,-162 240.502,-162"/>
<polygon fill="midnightblue" stroke="midnightblue" points="240.877,-165.5 250.877,-162 240.877,-158.5 240.877,-165.5"/>
</g>
<!-- Node111 -->
<g id="node8" class="node"><title>Node111</title>
<g id="a_node8"><a xlink:href="a00077.html#aba6f76f5c67b9b7e9c2e45988d3d3e9d" target="_top" xlink:title="gk_malloc">
<polygon fill="white" stroke="black" points="242,-114.5 242,-133.5 304,-133.5 304,-114.5 242,-114.5"/>
<text text-anchor="middle" x="273" y="-121.5" font-family="Helvetica,sans-Serif" font-size="10.00">gk_malloc</text>
</a>
</g>
</g>
<!-- Node110&#45;&gt;Node111 -->
<g id="edge8" class="edge"><title>Node110&#45;&gt;Node111</title>
<path fill="none" stroke="midnightblue" d="M189.282,-124C202.202,-124 217.471,-124 231.352,-124"/>
<polygon fill="midnightblue" stroke="midnightblue" points="231.635,-127.5 241.634,-124 231.634,-120.5 231.635,-127.5"/>
</g>
<!-- Node115 -->
<g id="node12" class="node"><title>Node115</title>
<g id="a_node12"><a xlink:href="a00077.html#ab76a07ccd25288dd9acc99f5f24a7600" target="_top" xlink:title="gk_realloc">
<polygon fill="white" stroke="black" points="242,-76.5 242,-95.5 304,-95.5 304,-76.5 242,-76.5"/>
<text text-anchor="middle" x="273" y="-83.5" font-family="Helvetica,sans-Serif" font-size="10.00">gk_realloc</text>
</a>
</g>
</g>
<!-- Node110&#45;&gt;Node115 -->
<g id="edge14" class="edge"><title>Node110&#45;&gt;Node115</title>
<path fill="none" stroke="midnightblue" d="M187.515,-114.411C201.567,-109.686 218.708,-103.921 233.87,-98.8226"/>
<polygon fill="midnightblue" stroke="midnightblue" points="235.132,-102.091 243.494,-95.5859 232.9,-95.456 235.132,-102.091"/>
</g>
<!-- Node111&#45;&gt;Node107 -->
<g id="edge9" class="edge"><title>Node111&#45;&gt;Node107</title>
<path fill="none" stroke="midnightblue" d="M302.97,-133.545C314.398,-136.991 327.709,-140.616 340,-143 393.658,-153.408 457.298,-158.375 493.93,-160.535"/>
<polygon fill="midnightblue" stroke="midnightblue" points="493.773,-164.032 503.953,-161.096 494.164,-157.043 493.773,-164.032"/>
</g>
<!-- Node112 -->
<g id="node9" class="node"><title>Node112</title>
<g id="a_node9"><a xlink:href="a00110.html#ad2327b94227019b6753b6b09400c0522" target="_top" xlink:title="gk_GetCurMemoryUsed">
<polygon fill="white" stroke="black" points="342,-114.5 342,-133.5 466,-133.5 466,-114.5 342,-114.5"/>
<text text-anchor="middle" x="404" y="-121.5" font-family="Helvetica,sans-Serif" font-size="10.00">gk_GetCurMemoryUsed</text>
</a>
</g>
</g>
<!-- Node111&#45;&gt;Node112 -->
<g id="edge10" class="edge"><title>Node111&#45;&gt;Node112</title>
<path fill="none" stroke="midnightblue" d="M304.245,-124C312.646,-124 322.139,-124 331.836,-124"/>
<polygon fill="midnightblue" stroke="midnightblue" points="331.977,-127.5 341.977,-124 331.977,-120.5 331.977,-127.5"/>
</g>
<!-- Node113 -->
<g id="node10" class="node"><title>Node113</title>
<g id="a_node10"><a xlink:href="a00110.html#a656fd5266ae12a96e53125486f8fea52" target="_top" xlink:title="gk_GetMaxMemoryUsed">
<polygon fill="white" stroke="black" points="340.5,-76.5 340.5,-95.5 467.5,-95.5 467.5,-76.5 340.5,-76.5"/>
<text text-anchor="middle" x="404" y="-83.5" font-family="Helvetica,sans-Serif" font-size="10.00">gk_GetMaxMemoryUsed</text>
</a>
</g>
</g>
<!-- Node111&#45;&gt;Node113 -->
<g id="edge11" class="edge"><title>Node111&#45;&gt;Node113</title>
<path fill="none" stroke="midnightblue" d="M304.245,-115.091C321.162,-110.107 342.509,-103.819 361.024,-98.3651"/>
<polygon fill="midnightblue" stroke="midnightblue" points="362.086,-101.701 370.69,-95.5178 360.108,-94.9861 362.086,-101.701"/>
</g>
<!-- Node114 -->
<g id="node11" class="node"><title>Node114</title>
<g id="a_node11"><a xlink:href="a00026.html#a4c320c13bcdc9967613253ef4c73f59f" target="_top" xlink:title="gk_errexit">
<polygon fill="white" stroke="black" points="374,-38.5 374,-57.5 434,-57.5 434,-38.5 374,-38.5"/>
<text text-anchor="middle" x="404" y="-45.5" font-family="Helvetica,sans-Serif" font-size="10.00">gk_errexit</text>
</a>
</g>
</g>
<!-- Node111&#45;&gt;Node114 -->
<g id="edge12" class="edge"><title>Node111&#45;&gt;Node114</title>
<path fill="none" stroke="midnightblue" d="M290.702,-114.449C295.177,-111.618 299.906,-108.369 304,-105 321.965,-90.2184 320.199,-79.2129 340,-67 347.338,-62.474 355.825,-58.9653 364.145,-56.2675"/>
<polygon fill="midnightblue" stroke="midnightblue" points="365.139,-59.6234 373.757,-53.4605 363.177,-52.904 365.139,-59.6234"/>
</g>
<!-- Node114&#45;&gt;Node107 -->
<g id="edge13" class="edge"><title>Node114&#45;&gt;Node107</title>
<path fill="none" stroke="midnightblue" d="M434.092,-52.0695C445.566,-54.8096 458.295,-59.3815 468,-67 493.122,-86.7207 509.282,-121.079 517.493,-142.625"/>
<polygon fill="midnightblue" stroke="midnightblue" points="514.3,-144.09 520.979,-152.315 520.887,-141.721 514.3,-144.09"/>
</g>
<!-- Node118 -->
<g id="node15" class="node"><title>Node118</title>
<g id="a_node15"><a xlink:href="a01017.html#a355ed4cdac2a27aa04a6689ac2d7e86e" target="_top" xlink:title="fclose">
<polygon fill="white" stroke="black" points="251.5,-38.5 251.5,-57.5 294.5,-57.5 294.5,-38.5 251.5,-38.5"/>
<text text-anchor="middle" x="273" y="-45.5" font-family="Helvetica,sans-Serif" font-size="10.00">fclose</text>
</a>
</g>
</g>
<!-- Node117&#45;&gt;Node118 -->
<g id="edge17" class="edge"><title>Node117&#45;&gt;Node118</title>
<path fill="none" stroke="midnightblue" d="M187.515,-48C203.819,-48 224.283,-48 240.987,-48"/>
<polygon fill="midnightblue" stroke="midnightblue" points="241.34,-51.5001 251.34,-48 241.34,-44.5001 241.34,-51.5001"/>
</g>
</g>
</svg>
