<?xml version="1.0" encoding="UTF-8" standalone="no"?>
<!DOCTYPE svg PUBLIC "-//W3C//DTD SVG 1.1//EN"
 "http://www.w3.org/Graphics/SVG/1.1/DTD/svg11.dtd">
<!-- Generated by graphviz version 2.36.0 (20140111.2315)
 -->
<!-- Title: WavefrontDiffusion Pages: 1 -->
<svg width="450pt" height="125pt"
 viewBox="0.00 0.00 450.00 124.90" xmlns="http://www.w3.org/2000/svg" xmlns:xlink="http://www.w3.org/1999/xlink">
<g id="graph0" class="graph" transform="scale(1 1) rotate(0) translate(4 120.901)">
<title>WavefrontDiffusion</title>
<polygon fill="white" stroke="none" points="-4,4 -4,-120.901 446,-120.901 446,4 -4,4"/>
<!-- Node597 -->
<g id="node1" class="node"><title>Node597</title>
<polygon fill="#bfbfbf" stroke="black" points="0.5,-38.5 0.5,-57.5 101.5,-57.5 101.5,-38.5 0.5,-38.5"/>
<text text-anchor="middle" x="51" y="-45.5" font-family="Helvetica,sans-Serif" font-size="10.00">WavefrontDiffusion</text>
</g>
<!-- Node598 -->
<g id="node2" class="node"><title>Node598</title>
<g id="a_node2"><a xlink:href="a00077.html#aba6f76f5c67b9b7e9c2e45988d3d3e9d" target="_top" xlink:title="gk_malloc">
<polygon fill="white" stroke="black" points="138,-57.5 138,-76.5 200,-76.5 200,-57.5 138,-57.5"/>
<text text-anchor="middle" x="169" y="-64.5" font-family="Helvetica,sans-Serif" font-size="10.00">gk_malloc</text>
</a>
</g>
</g>
<!-- Node597&#45;&gt;Node598 -->
<g id="edge1" class="edge"><title>Node597&#45;&gt;Node598</title>
<path fill="none" stroke="midnightblue" d="M101.531,-56.1128C110.287,-57.547 119.306,-59.0242 127.766,-60.41"/>
<polygon fill="midnightblue" stroke="midnightblue" points="127.32,-63.8835 137.754,-62.046 128.452,-56.9755 127.32,-63.8835"/>
</g>
<!-- Node603 -->
<g id="node7" class="node"><title>Node603</title>
<g id="a_node7"><a xlink:href="a00077.html#ac8df62c4e3d0910711a9874f9cc58884" target="_top" xlink:title="gk_free">
<polygon fill="white" stroke="black" points="144,-19.5 144,-38.5 194,-38.5 194,-19.5 144,-19.5"/>
<text text-anchor="middle" x="169" y="-26.5" font-family="Helvetica,sans-Serif" font-size="10.00">gk_free</text>
</a>
</g>
</g>
<!-- Node597&#45;&gt;Node603 -->
<g id="edge7" class="edge"><title>Node597&#45;&gt;Node603</title>
<path fill="none" stroke="midnightblue" d="M101.531,-39.8872C112.408,-38.1055 123.692,-36.2574 133.806,-34.6007"/>
<polygon fill="midnightblue" stroke="midnightblue" points="134.555,-38.0248 143.858,-32.9543 133.424,-31.1168 134.555,-38.0248"/>
</g>
<!-- Node599 -->
<g id="node3" class="node"><title>Node599</title>
<g id="a_node3"><a xlink:href="a01017.html#a2e311a777ffe9c80e405efa7cd2757be" target="_top" xlink:title="fprintf">
<polygon fill="white" stroke="black" points="400,-57.5 400,-76.5 442,-76.5 442,-57.5 400,-57.5"/>
<text text-anchor="middle" x="421" y="-64.5" font-family="Helvetica,sans-Serif" font-size="10.00">fprintf</text>
</a>
</g>
</g>
<!-- Node598&#45;&gt;Node599 -->
<g id="edge2" class="edge"><title>Node598&#45;&gt;Node599</title>
<path fill="none" stroke="midnightblue" d="M182.261,-76.7187C194.891,-86.0589 215.563,-99.5369 236,-105 290.959,-119.691 309.62,-121.709 364,-105 378.039,-100.686 391.719,-91.5255 402.044,-83.2793"/>
<polygon fill="midnightblue" stroke="midnightblue" points="404.469,-85.8134 409.862,-76.6941 399.959,-80.4595 404.469,-85.8134"/>
</g>
<!-- Node600 -->
<g id="node4" class="node"><title>Node600</title>
<g id="a_node4"><a xlink:href="a00110.html#ad2327b94227019b6753b6b09400c0522" target="_top" xlink:title="gk_GetCurMemoryUsed">
<polygon fill="white" stroke="black" points="238,-76.5 238,-95.5 362,-95.5 362,-76.5 238,-76.5"/>
<text text-anchor="middle" x="300" y="-83.5" font-family="Helvetica,sans-Serif" font-size="10.00">gk_GetCurMemoryUsed</text>
</a>
</g>
</g>
<!-- Node598&#45;&gt;Node600 -->
<g id="edge3" class="edge"><title>Node598&#45;&gt;Node600</title>
<path fill="none" stroke="midnightblue" d="M200.245,-71.4547C208.646,-72.692 218.139,-74.0903 227.836,-75.5184"/>
<polygon fill="midnightblue" stroke="midnightblue" points="227.573,-79.0175 237.977,-77.0121 228.593,-72.0922 227.573,-79.0175"/>
</g>
<!-- Node601 -->
<g id="node5" class="node"><title>Node601</title>
<g id="a_node5"><a xlink:href="a00110.html#a656fd5266ae12a96e53125486f8fea52" target="_top" xlink:title="gk_GetMaxMemoryUsed">
<polygon fill="white" stroke="black" points="236.5,-38.5 236.5,-57.5 363.5,-57.5 363.5,-38.5 236.5,-38.5"/>
<text text-anchor="middle" x="300" y="-45.5" font-family="Helvetica,sans-Serif" font-size="10.00">gk_GetMaxMemoryUsed</text>
</a>
</g>
</g>
<!-- Node598&#45;&gt;Node601 -->
<g id="edge4" class="edge"><title>Node598&#45;&gt;Node601</title>
<path fill="none" stroke="midnightblue" d="M200.245,-62.5453C208.229,-61.3693 217.2,-60.048 226.395,-58.6938"/>
<polygon fill="midnightblue" stroke="midnightblue" points="227.04,-62.1366 236.423,-57.2167 226.02,-55.2113 227.04,-62.1366"/>
</g>
<!-- Node602 -->
<g id="node6" class="node"><title>Node602</title>
<g id="a_node6"><a xlink:href="a00026.html#a4c320c13bcdc9967613253ef4c73f59f" target="_top" xlink:title="gk_errexit">
<polygon fill="white" stroke="black" points="270,-0.5 270,-19.5 330,-19.5 330,-0.5 270,-0.5"/>
<text text-anchor="middle" x="300" y="-7.5" font-family="Helvetica,sans-Serif" font-size="10.00">gk_errexit</text>
</a>
</g>
</g>
<!-- Node598&#45;&gt;Node602 -->
<g id="edge5" class="edge"><title>Node598&#45;&gt;Node602</title>
<path fill="none" stroke="midnightblue" d="M185.589,-57.4697C201.76,-47.6847 226.047,-33.2984 236,-29 243.68,-25.6834 252.121,-22.7096 260.259,-20.1539"/>
<polygon fill="midnightblue" stroke="midnightblue" points="261.388,-23.4695 269.965,-17.2488 259.381,-16.7634 261.388,-23.4695"/>
</g>
<!-- Node602&#45;&gt;Node599 -->
<g id="edge6" class="edge"><title>Node602&#45;&gt;Node599</title>
<path fill="none" stroke="midnightblue" d="M330.228,-16.8252C341.104,-19.8755 353.377,-23.9396 364,-29 376.634,-35.0184 389.634,-43.6626 399.925,-51.1863"/>
<polygon fill="midnightblue" stroke="midnightblue" points="398.101,-54.1937 408.194,-57.4154 402.313,-48.6027 398.101,-54.1937"/>
</g>
</g>
</svg>
