<?xml version="1.0" encoding="UTF-8" standalone="no"?>
<!DOCTYPE svg PUBLIC "-//W3C//DTD SVG 1.1//EN"
 "http://www.w3.org/Graphics/SVG/1.1/DTD/svg11.dtd">
<!-- Generated by graphviz version 2.36.0 (20140111.2315)
 -->
<!-- Title: CreateGraph Pages: 1 -->
<svg width="208pt" height="66pt"
 viewBox="0.00 0.00 208.00 66.00" xmlns="http://www.w3.org/2000/svg" xmlns:xlink="http://www.w3.org/1999/xlink">
<g id="graph0" class="graph" transform="scale(1 1) rotate(0) translate(4 62)">
<title>CreateGraph</title>
<polygon fill="white" stroke="none" points="-4,4 -4,-62 204,-62 204,4 -4,4"/>
<!-- Node167 -->
<g id="node1" class="node"><title>Node167</title>
<polygon fill="#bfbfbf" stroke="black" points="0,-19.5 0,-38.5 74,-38.5 74,-19.5 0,-19.5"/>
<text text-anchor="middle" x="37" y="-26.5" font-family="Helvetica,sans-Serif" font-size="10.00">CreateGraph</text>
</g>
<!-- Node168 -->
<g id="node2" class="node"><title>Node168</title>
<g id="a_node2"><a xlink:href="a00948.html#a9192cba632de98d1759721a5676eaf05" target="_top" xlink:title="SetupGraph">
<polygon fill="white" stroke="black" points="120,-38.5 120,-57.5 190,-57.5 190,-38.5 120,-38.5"/>
<text text-anchor="middle" x="155" y="-45.5" font-family="Helvetica,sans-Serif" font-size="10.00">SetupGraph</text>
</a>
</g>
</g>
<!-- Node167&#45;&gt;Node168 -->
<g id="edge1" class="edge"><title>Node167&#45;&gt;Node168</title>
<path fill="none" stroke="midnightblue" d="M84.2953,-36.5829C96.1957,-38.5321 108.782,-40.5936 119.936,-42.4206"/>
<polygon fill="midnightblue" stroke="midnightblue" points="84.5015,-33.0701 74.0673,-34.9076 83.37,-39.978 84.5015,-33.0701"/>
</g>
<!-- Node169 -->
<g id="node3" class="node"><title>Node169</title>
<g id="a_node3"><a xlink:href="a00948.html#ad1dfd83fc2dc5e9f855c2d86b960c809" target="_top" xlink:title="SetupSplitGraph">
<polygon fill="white" stroke="black" points="110,-0.5 110,-19.5 200,-19.5 200,-0.5 110,-0.5"/>
<text text-anchor="middle" x="155" y="-7.5" font-family="Helvetica,sans-Serif" font-size="10.00">SetupSplitGraph</text>
</a>
</g>
</g>
<!-- Node167&#45;&gt;Node169 -->
<g id="edge2" class="edge"><title>Node167&#45;&gt;Node169</title>
<path fill="none" stroke="midnightblue" d="M84.1478,-21.4413C92.5964,-20.0575 101.396,-18.6163 109.786,-17.2419"/>
<polygon fill="midnightblue" stroke="midnightblue" points="83.37,-18.022 74.0673,-23.0924 84.5015,-24.9299 83.37,-18.022"/>
</g>
</g>
</svg>
