<?xml version="1.0" encoding="UTF-8" standalone="no"?>
<!DOCTYPE svg PUBLIC "-//W3C//DTD SVG 1.1//EN"
 "http://www.w3.org/Graphics/SVG/1.1/DTD/svg11.dtd">
<!-- Generated by graphviz version 2.36.0 (20140111.2315)
 -->
<!-- Title: AllocateRefinementWorkSpace Pages: 1 -->
<svg width="504pt" height="127pt"
 viewBox="0.00 0.00 504.00 126.90" xmlns="http://www.w3.org/2000/svg" xmlns:xlink="http://www.w3.org/1999/xlink">
<g id="graph0" class="graph" transform="scale(1 1) rotate(0) translate(4 122.9)">
<title>AllocateRefinementWorkSpace</title>
<polygon fill="white" stroke="none" points="-4,4 -4,-122.9 500,-122.9 500,4 -4,4"/>
<!-- Node13 -->
<g id="node1" class="node"><title>Node13</title>
<polygon fill="#bfbfbf" stroke="black" points="0.5,-19.5 0.5,-38.5 155.5,-38.5 155.5,-19.5 0.5,-19.5"/>
<text text-anchor="middle" x="78" y="-26.5" font-family="Helvetica,sans-Serif" font-size="10.00">AllocateRefinementWorkSpace</text>
</g>
<!-- Node14 -->
<g id="node2" class="node"><title>Node14</title>
<g id="a_node2"><a xlink:href="a00077.html#aba6f76f5c67b9b7e9c2e45988d3d3e9d" target="_top" xlink:title="gk_malloc">
<polygon fill="white" stroke="black" points="192,-38.5 192,-57.5 254,-57.5 254,-38.5 192,-38.5"/>
<text text-anchor="middle" x="223" y="-45.5" font-family="Helvetica,sans-Serif" font-size="10.00">gk_malloc</text>
</a>
</g>
</g>
<!-- Node13&#45;&gt;Node14 -->
<g id="edge1" class="edge"><title>Node13&#45;&gt;Node14</title>
<path fill="none" stroke="midnightblue" d="M150.919,-38.5557C161.543,-39.9672 172.154,-41.3771 181.815,-42.6608"/>
<polygon fill="midnightblue" stroke="midnightblue" points="181.507,-46.1505 191.881,-43.9982 182.429,-39.2115 181.507,-46.1505"/>
</g>
<!-- Node18 -->
<g id="node6" class="node"><title>Node18</title>
<g id="a_node6"><a xlink:href="a00026.html#a4c320c13bcdc9967613253ef4c73f59f" target="_top" xlink:title="gk_errexit">
<polygon fill="white" stroke="black" points="324,-0.5 324,-19.5 384,-19.5 384,-0.5 324,-0.5"/>
<text text-anchor="middle" x="354" y="-7.5" font-family="Helvetica,sans-Serif" font-size="10.00">gk_errexit</text>
</a>
</g>
</g>
<!-- Node13&#45;&gt;Node18 -->
<g id="edge7" class="edge"><title>Node13&#45;&gt;Node18</title>
<path fill="none" stroke="midnightblue" d="M155.689,-23.6822C207.1,-20.1172 272.668,-15.5705 313.754,-12.7214"/>
<polygon fill="midnightblue" stroke="midnightblue" points="314.168,-16.2012 323.902,-12.0178 313.684,-9.21801 314.168,-16.2012"/>
</g>
<!-- Node15 -->
<g id="node3" class="node"><title>Node15</title>
<g id="a_node3"><a xlink:href="a01017.html#a2e311a777ffe9c80e405efa7cd2757be" target="_top" xlink:title="fprintf">
<polygon fill="white" stroke="black" points="454,-57.5 454,-76.5 496,-76.5 496,-57.5 454,-57.5"/>
<text text-anchor="middle" x="475" y="-64.5" font-family="Helvetica,sans-Serif" font-size="10.00">fprintf</text>
</a>
</g>
</g>
<!-- Node14&#45;&gt;Node15 -->
<g id="edge2" class="edge"><title>Node14&#45;&gt;Node15</title>
<path fill="none" stroke="midnightblue" d="M231.244,-57.5757C242.205,-71.1779 264.458,-95.4973 290,-105 343.318,-124.837 363.62,-121.709 418,-105 432.039,-100.686 445.719,-91.5255 456.044,-83.2793"/>
<polygon fill="midnightblue" stroke="midnightblue" points="458.469,-85.8134 463.862,-76.6941 453.959,-80.4595 458.469,-85.8134"/>
</g>
<!-- Node16 -->
<g id="node4" class="node"><title>Node16</title>
<g id="a_node4"><a xlink:href="a00110.html#ad2327b94227019b6753b6b09400c0522" target="_top" xlink:title="gk_GetCurMemoryUsed">
<polygon fill="white" stroke="black" points="292,-76.5 292,-95.5 416,-95.5 416,-76.5 292,-76.5"/>
<text text-anchor="middle" x="354" y="-83.5" font-family="Helvetica,sans-Serif" font-size="10.00">gk_GetCurMemoryUsed</text>
</a>
</g>
</g>
<!-- Node14&#45;&gt;Node16 -->
<g id="edge3" class="edge"><title>Node14&#45;&gt;Node16</title>
<path fill="none" stroke="midnightblue" d="M254.245,-56.9093C271.162,-61.8927 292.509,-68.1809 311.024,-73.6349"/>
<polygon fill="midnightblue" stroke="midnightblue" points="310.108,-77.0139 320.69,-76.4822 312.086,-70.2991 310.108,-77.0139"/>
</g>
<!-- Node17 -->
<g id="node5" class="node"><title>Node17</title>
<g id="a_node5"><a xlink:href="a00110.html#a656fd5266ae12a96e53125486f8fea52" target="_top" xlink:title="gk_GetMaxMemoryUsed">
<polygon fill="white" stroke="black" points="290.5,-38.5 290.5,-57.5 417.5,-57.5 417.5,-38.5 290.5,-38.5"/>
<text text-anchor="middle" x="354" y="-45.5" font-family="Helvetica,sans-Serif" font-size="10.00">gk_GetMaxMemoryUsed</text>
</a>
</g>
</g>
<!-- Node14&#45;&gt;Node17 -->
<g id="edge4" class="edge"><title>Node14&#45;&gt;Node17</title>
<path fill="none" stroke="midnightblue" d="M254.245,-48C262.229,-48 271.2,-48 280.395,-48"/>
<polygon fill="midnightblue" stroke="midnightblue" points="280.423,-51.5001 290.423,-48 280.423,-44.5001 280.423,-51.5001"/>
</g>
<!-- Node14&#45;&gt;Node18 -->
<g id="edge5" class="edge"><title>Node14&#45;&gt;Node18</title>
<path fill="none" stroke="midnightblue" d="M254.245,-39.0907C272.128,-33.8228 294.96,-27.0969 314.165,-21.4396"/>
<polygon fill="midnightblue" stroke="midnightblue" points="315.229,-24.7751 323.832,-18.592 313.251,-18.0604 315.229,-24.7751"/>
</g>
<!-- Node18&#45;&gt;Node15 -->
<g id="edge6" class="edge"><title>Node18&#45;&gt;Node15</title>
<path fill="none" stroke="midnightblue" d="M384.228,-16.8252C395.104,-19.8755 407.377,-23.9396 418,-29 430.634,-35.0184 443.634,-43.6626 453.925,-51.1863"/>
<polygon fill="midnightblue" stroke="midnightblue" points="452.101,-54.1937 462.194,-57.4154 456.313,-48.6027 452.101,-54.1937"/>
</g>
</g>
</svg>
