<?xml version="1.0" encoding="UTF-8" standalone="no"?>
<!DOCTYPE svg PUBLIC "-//W3C//DTD SVG 1.1//EN"
 "http://www.w3.org/Graphics/SVG/1.1/DTD/svg11.dtd">
<!-- Generated by graphviz version 2.36.0 (20140111.2315)
 -->
<!-- Title: SplitGraphOrderCC Pages: 1 -->
<svg width="452pt" height="125pt"
 viewBox="0.00 0.00 452.00 124.90" xmlns="http://www.w3.org/2000/svg" xmlns:xlink="http://www.w3.org/1999/xlink">
<g id="graph0" class="graph" transform="scale(1 1) rotate(0) translate(4 120.901)">
<title>SplitGraphOrderCC</title>
<polygon fill="white" stroke="none" points="-4,4 -4,-120.901 448,-120.901 448,4 -4,4"/>
<!-- Node148 -->
<g id="node1" class="node"><title>Node148</title>
<polygon fill="#bfbfbf" stroke="black" points="0,-57.5 0,-76.5 104,-76.5 104,-57.5 0,-57.5"/>
<text text-anchor="middle" x="52" y="-64.5" font-family="Helvetica,sans-Serif" font-size="10.00">SplitGraphOrderCC</text>
</g>
<!-- Node149 -->
<g id="node2" class="node"><title>Node149</title>
<g id="a_node2"><a xlink:href="a00077.html#aba6f76f5c67b9b7e9c2e45988d3d3e9d" target="_top" xlink:title="gk_malloc">
<polygon fill="white" stroke="black" points="140,-57.5 140,-76.5 202,-76.5 202,-57.5 140,-57.5"/>
<text text-anchor="middle" x="171" y="-64.5" font-family="Helvetica,sans-Serif" font-size="10.00">gk_malloc</text>
</a>
</g>
</g>
<!-- Node148&#45;&gt;Node149 -->
<g id="edge1" class="edge"><title>Node148&#45;&gt;Node149</title>
<path fill="none" stroke="midnightblue" d="M104.318,-67C112.866,-67 121.621,-67 129.84,-67"/>
<polygon fill="midnightblue" stroke="midnightblue" points="129.906,-70.5001 139.906,-67 129.906,-63.5001 129.906,-70.5001"/>
</g>
<!-- Node150 -->
<g id="node3" class="node"><title>Node150</title>
<g id="a_node3"><a xlink:href="a01017.html#a2e311a777ffe9c80e405efa7cd2757be" target="_top" xlink:title="fprintf">
<polygon fill="white" stroke="black" points="402,-57.5 402,-76.5 444,-76.5 444,-57.5 402,-57.5"/>
<text text-anchor="middle" x="423" y="-64.5" font-family="Helvetica,sans-Serif" font-size="10.00">fprintf</text>
</a>
</g>
</g>
<!-- Node149&#45;&gt;Node150 -->
<g id="edge2" class="edge"><title>Node149&#45;&gt;Node150</title>
<path fill="none" stroke="midnightblue" d="M184.261,-76.7187C196.891,-86.0589 217.563,-99.5369 238,-105 292.959,-119.691 311.62,-121.709 366,-105 380.039,-100.686 393.719,-91.5255 404.044,-83.2793"/>
<polygon fill="midnightblue" stroke="midnightblue" points="406.469,-85.8134 411.862,-76.6941 401.959,-80.4595 406.469,-85.8134"/>
</g>
<!-- Node151 -->
<g id="node4" class="node"><title>Node151</title>
<g id="a_node4"><a xlink:href="a00110.html#ad2327b94227019b6753b6b09400c0522" target="_top" xlink:title="gk_GetCurMemoryUsed">
<polygon fill="white" stroke="black" points="240,-76.5 240,-95.5 364,-95.5 364,-76.5 240,-76.5"/>
<text text-anchor="middle" x="302" y="-83.5" font-family="Helvetica,sans-Serif" font-size="10.00">gk_GetCurMemoryUsed</text>
</a>
</g>
</g>
<!-- Node149&#45;&gt;Node151 -->
<g id="edge3" class="edge"><title>Node149&#45;&gt;Node151</title>
<path fill="none" stroke="midnightblue" d="M202.245,-71.4547C210.646,-72.692 220.139,-74.0903 229.836,-75.5184"/>
<polygon fill="midnightblue" stroke="midnightblue" points="229.573,-79.0175 239.977,-77.0121 230.593,-72.0922 229.573,-79.0175"/>
</g>
<!-- Node152 -->
<g id="node5" class="node"><title>Node152</title>
<g id="a_node5"><a xlink:href="a00110.html#a656fd5266ae12a96e53125486f8fea52" target="_top" xlink:title="gk_GetMaxMemoryUsed">
<polygon fill="white" stroke="black" points="238.5,-38.5 238.5,-57.5 365.5,-57.5 365.5,-38.5 238.5,-38.5"/>
<text text-anchor="middle" x="302" y="-45.5" font-family="Helvetica,sans-Serif" font-size="10.00">gk_GetMaxMemoryUsed</text>
</a>
</g>
</g>
<!-- Node149&#45;&gt;Node152 -->
<g id="edge4" class="edge"><title>Node149&#45;&gt;Node152</title>
<path fill="none" stroke="midnightblue" d="M202.245,-62.5453C210.229,-61.3693 219.2,-60.048 228.395,-58.6938"/>
<polygon fill="midnightblue" stroke="midnightblue" points="229.04,-62.1366 238.423,-57.2167 228.02,-55.2113 229.04,-62.1366"/>
</g>
<!-- Node153 -->
<g id="node6" class="node"><title>Node153</title>
<g id="a_node6"><a xlink:href="a00026.html#a4c320c13bcdc9967613253ef4c73f59f" target="_top" xlink:title="gk_errexit">
<polygon fill="white" stroke="black" points="272,-0.5 272,-19.5 332,-19.5 332,-0.5 272,-0.5"/>
<text text-anchor="middle" x="302" y="-7.5" font-family="Helvetica,sans-Serif" font-size="10.00">gk_errexit</text>
</a>
</g>
</g>
<!-- Node149&#45;&gt;Node153 -->
<g id="edge5" class="edge"><title>Node149&#45;&gt;Node153</title>
<path fill="none" stroke="midnightblue" d="M186.436,-57.3905C199.481,-49.027 219.428,-37.0202 238,-29 245.68,-25.6834 254.121,-22.7096 262.259,-20.1539"/>
<polygon fill="midnightblue" stroke="midnightblue" points="263.388,-23.4695 271.965,-17.2488 261.381,-16.7634 263.388,-23.4695"/>
</g>
<!-- Node153&#45;&gt;Node150 -->
<g id="edge6" class="edge"><title>Node153&#45;&gt;Node150</title>
<path fill="none" stroke="midnightblue" d="M332.228,-16.8252C343.104,-19.8755 355.377,-23.9396 366,-29 378.634,-35.0184 391.634,-43.6626 401.925,-51.1863"/>
<polygon fill="midnightblue" stroke="midnightblue" points="400.101,-54.1937 410.194,-57.4154 404.313,-48.6027 400.101,-54.1937"/>
</g>
</g>
</svg>
