<?xml version="1.0" encoding="UTF-8" standalone="no"?>
<!DOCTYPE svg PUBLIC "-//W3C//DTD SVG 1.1//EN"
 "http://www.w3.org/Graphics/SVG/1.1/DTD/svg11.dtd">
<!-- Generated by graphviz version 2.36.0 (20140111.2315)
 -->
<!-- Title: MlevelNestedDissection Pages: 1 -->
<svg width="334pt" height="46pt"
 viewBox="0.00 0.00 334.00 46.00" xmlns="http://www.w3.org/2000/svg" xmlns:xlink="http://www.w3.org/1999/xlink">
<g id="graph0" class="graph" transform="scale(1 1) rotate(0) translate(4 42)">
<title>MlevelNestedDissection</title>
<polygon fill="white" stroke="none" points="-4,4 -4,-42 330,-42 330,4 -4,4"/>
<!-- Node651 -->
<g id="node1" class="node"><title>Node651</title>
<polygon fill="#bfbfbf" stroke="black" points="0.5,-0.5 0.5,-19.5 123.5,-19.5 123.5,-0.5 0.5,-0.5"/>
<text text-anchor="middle" x="62" y="-7.5" font-family="Helvetica,sans-Serif" font-size="10.00">MlevelNestedDissection</text>
</g>
<!-- Node651&#45;&gt;Node651 -->
<g id="edge3" class="edge"><title>Node651&#45;&gt;Node651</title>
<path fill="none" stroke="midnightblue" d="M35.1208,-28.6539C36.2444,-33.9368 45.2041,-38 62,-38 87.5938,-38 94.9919,-28.5653 84.1946,-19.7571"/>
<polygon fill="midnightblue" stroke="midnightblue" points="38.2433,-30.2361 39.8054,-19.7571 32.0494,-26.9747 38.2433,-30.2361"/>
</g>
<!-- Node652 -->
<g id="node2" class="node"><title>Node652</title>
<g id="a_node2"><a xlink:href="a00936.html#a8304f0dd6d180587f73b0b70de3b01b7" target="_top" xlink:title="METIS_NodeND">
<polygon fill="white" stroke="black" points="160.5,-0.5 160.5,-19.5 251.5,-19.5 251.5,-0.5 160.5,-0.5"/>
<text text-anchor="middle" x="206" y="-7.5" font-family="Helvetica,sans-Serif" font-size="10.00">METIS_NodeND</text>
</a>
</g>
</g>
<!-- Node651&#45;&gt;Node652 -->
<g id="edge1" class="edge"><title>Node651&#45;&gt;Node652</title>
<path fill="none" stroke="midnightblue" d="M133.838,-10C142.907,-10 151.979,-10 160.463,-10"/>
<polygon fill="midnightblue" stroke="midnightblue" points="133.633,-6.5001 123.633,-10 133.633,-13.5001 133.633,-6.5001"/>
</g>
<!-- Node653 -->
<g id="node3" class="node"><title>Node653</title>
<g id="a_node3"><a xlink:href="a00326.html#a0ddf1224851353fc92bfbff6f499fa97" target="_top" xlink:title="main">
<polygon fill="white" stroke="black" points="288,-0.5 288,-19.5 326,-19.5 326,-0.5 288,-0.5"/>
<text text-anchor="middle" x="307" y="-7.5" font-family="Helvetica,sans-Serif" font-size="10.00">main</text>
</a>
</g>
</g>
<!-- Node652&#45;&gt;Node653 -->
<g id="edge2" class="edge"><title>Node652&#45;&gt;Node653</title>
<path fill="none" stroke="midnightblue" d="M261.748,-10C271.09,-10 280.179,-10 287.665,-10"/>
<polygon fill="midnightblue" stroke="midnightblue" points="261.577,-6.5001 251.577,-10 261.577,-13.5001 261.577,-6.5001"/>
</g>
</g>
</svg>
