<?xml version="1.0" encoding="UTF-8" standalone="no"?>
<!DOCTYPE svg PUBLIC "-//W3C//DTD SVG 1.1//EN"
 "http://www.w3.org/Graphics/SVG/1.1/DTD/svg11.dtd">
<!-- Generated by graphviz version 2.36.0 (20140111.2315)
 -->
<!-- Title: FindCommonElements Pages: 1 -->
<!--zoomable 66 -->
<svg id="main" version="1.1" xmlns="http://www.w3.org/2000/svg" xmlns:xlink="http://www.w3.org/1999/xlink" xml:space="preserve" onload="init(evt)">
<style type="text/css"><![CDATA[
.edge:hover path { stroke: red; }
.edge:hover polygon { stroke: red; fill: red; }
]]></style>
<script type="text/javascript"><![CDATA[
var edges = document.getElementsByTagName('g');
if (edges && edges.length) {
  for (var i=0;i<edges.length;i++) {
    if (edges[i].id.substr(0,4)=='edge') {
      edges[i].setAttribute('class','edge');
    }
  }
}
]]></script>
        <defs>
                <circle id="rim" cx="0" cy="0" r="7"/>
                <circle id="rim2" cx="0" cy="0" r="3.5"/>
                <g id="zoomPlus">
                        <use xlink:href="#rim" fill="#404040">
                                <set attributeName="fill" to="#808080" begin="zoomplus.mouseover" end="zoomplus.mouseout"/>
                        </use>
                        <path d="M-4,0h8M0,-4v8" fill="none" stroke="white" stroke-width="1.5" pointer-events="none"/>
                </g>
                <g id="zoomMin">
                        <use xlink:href="#rim" fill="#404040">
                                <set attributeName="fill" to="#808080" begin="zoomminus.mouseover" end="zoomminus.mouseout"/>
                        </use>
                        <path d="M-4,0h8" fill="none" stroke="white" stroke-width="1.5" pointer-events="none"/>
                </g>
                <g id="dirArrow">
                        <path fill="none" stroke="white" stroke-width="1.5" d="M0,-3.0v7 M-2.5,-0.5L0,-3.0L2.5,-0.5"/>
                </g>
               <g id="resetDef">
                       <use xlink:href="#rim2" fill="#404040">
                               <set attributeName="fill" to="#808080" begin="reset.mouseover" end="reset.mouseout"/>
                       </use>
               </g>
        </defs>

<script type="text/javascript">
var viewWidth = 630;
var viewHeight = 66;
var sectionId = 'dynsection-40';
</script>
<script xlink:href="svgpan.js"/>
<svg id="graph" class="graph">
<g id="viewport">
<title>FindCommonElements</title>
<polygon fill="white" stroke="none" points="-4,4 -4,-62 626,-62 626,4 -4,4"/>
<!-- Node258 -->
<g id="node1" class="node"><title>Node258</title>
<polygon fill="#bfbfbf" stroke="black" points="0,-19.5 0,-38.5 118,-38.5 118,-19.5 0,-19.5"/>
<text text-anchor="middle" x="59" y="-26.5" font-family="Helvetica,sans-Serif" font-size="10.00">FindCommonElements</text>
</g>
<!-- Node259 -->
<g id="node2" class="node"><title>Node259</title>
<g id="a_node2"><a xlink:href="a00948.html#a10400dffe4954a697990134da62b387d" target="_top" xlink:title="CreateGraphDual">
<polygon fill="white" stroke="black" points="154.5,-19.5 154.5,-38.5 249.5,-38.5 249.5,-19.5 154.5,-19.5"/>
<text text-anchor="middle" x="202" y="-26.5" font-family="Helvetica,sans-Serif" font-size="10.00">CreateGraphDual</text>
</a>
</g>
</g>
<!-- Node258&#45;&gt;Node259 -->
<g id="edge1" class="edge"><title>Node258&#45;&gt;Node259</title>
<path fill="none" stroke="midnightblue" d="M128.362,-29C137.093,-29 145.868,-29 154.15,-29"/>
<polygon fill="midnightblue" stroke="midnightblue" points="128.164,-25.5001 118.164,-29 128.164,-32.5001 128.164,-25.5001"/>
</g>
<!-- Node260 -->
<g id="node3" class="node"><title>Node260</title>
<g id="a_node3"><a xlink:href="a00930.html#a2cf4672355fcfed039c04a2d1d134136" target="_top" xlink:title="METIS_MeshToDual">
<polygon fill="white" stroke="black" points="286.5,-19.5 286.5,-38.5 395.5,-38.5 395.5,-19.5 286.5,-19.5"/>
<text text-anchor="middle" x="341" y="-26.5" font-family="Helvetica,sans-Serif" font-size="10.00">METIS_MeshToDual</text>
</a>
</g>
</g>
<!-- Node259&#45;&gt;Node260 -->
<g id="edge2" class="edge"><title>Node259&#45;&gt;Node260</title>
<path fill="none" stroke="midnightblue" d="M259.897,-29C268.661,-29 277.687,-29 286.376,-29"/>
<polygon fill="midnightblue" stroke="midnightblue" points="259.764,-25.5001 249.764,-29 259.764,-32.5001 259.764,-25.5001"/>
</g>
<!-- Node261 -->
<g id="node4" class="node"><title>Node261</title>
<g id="a_node4"><a xlink:href="a00236.html#a8f496ac1cd2246b124da246b5c6f9193" target="_top" xlink:title="METIS_PartMeshDual">
<polygon fill="white" stroke="black" points="432,-38.5 432,-57.5 548,-57.5 548,-38.5 432,-38.5"/>
<text text-anchor="middle" x="490" y="-45.5" font-family="Helvetica,sans-Serif" font-size="10.00">METIS_PartMeshDual</text>
</a>
</g>
</g>
<!-- Node260&#45;&gt;Node261 -->
<g id="edge3" class="edge"><title>Node260&#45;&gt;Node261</title>
<path fill="none" stroke="midnightblue" d="M405.859,-37.2539C414.435,-38.3623 423.189,-39.4938 431.643,-40.5865"/>
<polygon fill="midnightblue" stroke="midnightblue" points="406.269,-33.7778 395.903,-35.967 405.371,-40.7201 406.269,-33.7778"/>
</g>
<!-- Node263 -->
<g id="node6" class="node"><title>Node263</title>
<g id="a_node6"><a xlink:href="a00317.html#a0ddf1224851353fc92bfbff6f499fa97" target="_top" xlink:title="main">
<polygon fill="white" stroke="black" points="471,-0.5 471,-19.5 509,-19.5 509,-0.5 471,-0.5"/>
<text text-anchor="middle" x="490" y="-7.5" font-family="Helvetica,sans-Serif" font-size="10.00">main</text>
</a>
</g>
</g>
<!-- Node260&#45;&gt;Node263 -->
<g id="edge5" class="edge"><title>Node260&#45;&gt;Node263</title>
<path fill="none" stroke="midnightblue" d="M405.938,-20.7359C429.615,-17.6756 454.638,-14.4413 470.954,-12.3324"/>
<polygon fill="midnightblue" stroke="midnightblue" points="405.371,-17.2799 395.903,-22.033 406.269,-24.2222 405.371,-17.2799"/>
</g>
<!-- Node262 -->
<g id="node5" class="node"><title>Node262</title>
<g id="a_node5"><a xlink:href="a00323.html#a0ddf1224851353fc92bfbff6f499fa97" target="_top" xlink:title="main">
<polygon fill="white" stroke="black" points="584,-38.5 584,-57.5 622,-57.5 622,-38.5 584,-38.5"/>
<text text-anchor="middle" x="603" y="-45.5" font-family="Helvetica,sans-Serif" font-size="10.00">main</text>
</a>
</g>
</g>
<!-- Node261&#45;&gt;Node262 -->
<g id="edge4" class="edge"><title>Node261&#45;&gt;Node262</title>
<path fill="none" stroke="midnightblue" d="M558.376,-48C567.702,-48 576.558,-48 583.824,-48"/>
<polygon fill="midnightblue" stroke="midnightblue" points="558.126,-44.5001 548.126,-48 558.126,-51.5001 558.126,-44.5001"/>
</g>
</g>
</svg>
        <g id="navigator" transform="translate(0 0)" fill="#404254">
                <rect fill="#f2f5e9" fill-opacity="0.5" stroke="#606060" stroke-width=".5" x="0" y="0" width="60" height="60"/>
                <use id="zoomplus" xlink:href="#zoomPlus" x="17" y="9" onmousedown="handleZoom(evt,'in')"/>
                <use id="zoomminus" xlink:href="#zoomMin" x="42" y="9" onmousedown="handleZoom(evt,'out')"/>
                <use id="reset" xlink:href="#resetDef" x="30" y="36" onmousedown="handleReset()"/>
                <g id="arrowUp" xlink:href="#dirArrow" transform="translate(30 24)" onmousedown="handlePan(0,-1)">
                  <use xlink:href="#rim" fill="#404040">
                        <set attributeName="fill" to="#808080" begin="arrowUp.mouseover" end="arrowUp.mouseout"/>
                  </use>
                  <path fill="none" stroke="white" stroke-width="1.5" d="M0,-3.0v7 M-2.5,-0.5L0,-3.0L2.5,-0.5"/>
                </g>
                <g id="arrowRight" xlink:href="#dirArrow" transform="rotate(90) translate(36 -43)" onmousedown="handlePan(1,0)">
                  <use xlink:href="#rim" fill="#404040">
                        <set attributeName="fill" to="#808080" begin="arrowRight.mouseover" end="arrowRight.mouseout"/>
                  </use>
                  <path fill="none" stroke="white" stroke-width="1.5" d="M0,-3.0v7 M-2.5,-0.5L0,-3.0L2.5,-0.5"/>
                </g>
                <g id="arrowDown" xlink:href="#dirArrow" transform="rotate(180) translate(-30 -48)" onmousedown="handlePan(0,1)">
                  <use xlink:href="#rim" fill="#404040">
                        <set attributeName="fill" to="#808080" begin="arrowDown.mouseover" end="arrowDown.mouseout"/>
                  </use>
                  <path fill="none" stroke="white" stroke-width="1.5" d="M0,-3.0v7 M-2.5,-0.5L0,-3.0L2.5,-0.5"/>
                </g>
                <g id="arrowLeft" xlink:href="#dirArrow" transform="rotate(270) translate(-36 17)" onmousedown="handlePan(-1,0)">
                  <use xlink:href="#rim" fill="#404040">
                        <set attributeName="fill" to="#808080" begin="arrowLeft.mouseover" end="arrowLeft.mouseout"/>
                  </use>
                  <path fill="none" stroke="white" stroke-width="1.5" d="M0,-3.0v7 M-2.5,-0.5L0,-3.0L2.5,-0.5"/>
                </g>
        </g>
        <svg viewBox="0 0 15 15" width="100%" height="30px" preserveAspectRatio="xMaxYMin meet">
         <g id="arrow_out" transform="scale(0.3 0.3)">
          <a xlink:href="a00948_ab05bd1b0bb5bdaaf2e9dc8906675145c_icgraph_org.svg" target="_base">
           <rect id="button" ry="5" rx="5" y="6" x="6" height="38" width="38"
                fill="#f2f5e9" fill-opacity="0.5" stroke="#606060" stroke-width="1.0"/>
           <path id="arrow"
             d="M 11.500037,31.436501 C 11.940474,20.09759 22.043105,11.32322 32.158766,21.979434 L 37.068811,17.246167 C 37.068811,17.246167 37.088388,32 37.088388,32 L 22.160133,31.978069 C 22.160133,31.978069 26.997745,27.140456 26.997745,27.140456 C 18.528582,18.264221 13.291696,25.230495 11.500037,31.436501 z"
             style="fill:#404040;"/>
          </a>
         </g>
        </svg>
</svg>
