<?xml version="1.0" encoding="UTF-8" standalone="no"?>
<!DOCTYPE svg PUBLIC "-//W3C//DTD SVG 1.1//EN"
 "http://www.w3.org/Graphics/SVG/1.1/DTD/svg11.dtd">
<!-- Generated by graphviz version 2.36.0 (20140111.2315)
 -->
<!-- Title: KWayNodeRefine2Phase Pages: 1 -->
<!--zoomable 142 -->
<svg id="main" version="1.1" xmlns="http://www.w3.org/2000/svg" xmlns:xlink="http://www.w3.org/1999/xlink" xml:space="preserve" onload="init(evt)">
<style type="text/css"><![CDATA[
.edge:hover path { stroke: red; }
.edge:hover polygon { stroke: red; fill: red; }
]]></style>
<script type="text/javascript"><![CDATA[
var edges = document.getElementsByTagName('g');
if (edges && edges.length) {
  for (var i=0;i<edges.length;i++) {
    if (edges[i].id.substr(0,4)=='edge') {
      edges[i].setAttribute('class','edge');
    }
  }
}
]]></script>
        <defs>
                <circle id="rim" cx="0" cy="0" r="7"/>
                <circle id="rim2" cx="0" cy="0" r="3.5"/>
                <g id="zoomPlus">
                        <use xlink:href="#rim" fill="#404040">
                                <set attributeName="fill" to="#808080" begin="zoomplus.mouseover" end="zoomplus.mouseout"/>
                        </use>
                        <path d="M-4,0h8M0,-4v8" fill="none" stroke="white" stroke-width="1.5" pointer-events="none"/>
                </g>
                <g id="zoomMin">
                        <use xlink:href="#rim" fill="#404040">
                                <set attributeName="fill" to="#808080" begin="zoomminus.mouseover" end="zoomminus.mouseout"/>
                        </use>
                        <path d="M-4,0h8" fill="none" stroke="white" stroke-width="1.5" pointer-events="none"/>
                </g>
                <g id="dirArrow">
                        <path fill="none" stroke="white" stroke-width="1.5" d="M0,-3.0v7 M-2.5,-0.5L0,-3.0L2.5,-0.5"/>
                </g>
               <g id="resetDef">
                       <use xlink:href="#rim2" fill="#404040">
                               <set attributeName="fill" to="#808080" begin="reset.mouseover" end="reset.mouseout"/>
                       </use>
               </g>
        </defs>

<script type="text/javascript">
var viewWidth = 658;
var viewHeight = 142;
var sectionId = 'dynsection-61';
</script>
<script xlink:href="svgpan.js"/>
<svg id="graph" class="graph">
<g id="viewport">
<title>KWayNodeRefine2Phase</title>
<polygon fill="white" stroke="none" points="-4,4 -4,-138 654,-138 654,4 -4,4"/>
<!-- Node354 -->
<g id="node1" class="node"><title>Node354</title>
<polygon fill="#bfbfbf" stroke="black" points="0,-38.5 0,-57.5 130,-57.5 130,-38.5 0,-38.5"/>
<text text-anchor="middle" x="65" y="-45.5" font-family="Helvetica,sans-Serif" font-size="10.00">KWayNodeRefine2Phase</text>
</g>
<!-- Node355 -->
<g id="node2" class="node"><title>Node355</title>
<g id="a_node2"><a xlink:href="a00383.html#a5c9aaeced318b88b4ad50dcb484d47b1" target="_top" xlink:title="KWayNodeRefine_Greedy">
<polygon fill="white" stroke="black" points="171,-76.5 171,-95.5 305,-95.5 305,-76.5 171,-76.5"/>
<text text-anchor="middle" x="238" y="-83.5" font-family="Helvetica,sans-Serif" font-size="10.00">KWayNodeRefine_Greedy</text>
</a>
</g>
</g>
<!-- Node354&#45;&gt;Node355 -->
<g id="edge1" class="edge"><title>Node354&#45;&gt;Node355</title>
<path fill="none" stroke="midnightblue" d="M109.151,-57.589C131.919,-62.6487 160.048,-68.8996 184.119,-74.2488"/>
<polygon fill="midnightblue" stroke="midnightblue" points="183.639,-77.7272 194.16,-76.4799 185.157,-70.8939 183.639,-77.7272"/>
</g>
<!-- Node358 -->
<g id="node5" class="node"><title>Node358</title>
<g id="a_node5"><a xlink:href="a00383.html#ad38351510bbf07393425b90ea3c4f5bd" target="_top" xlink:title="KWayNodeRefineInterior">
<polygon fill="white" stroke="black" points="174.5,-38.5 174.5,-57.5 301.5,-57.5 301.5,-38.5 174.5,-38.5"/>
<text text-anchor="middle" x="238" y="-45.5" font-family="Helvetica,sans-Serif" font-size="10.00">KWayNodeRefineInterior</text>
</a>
</g>
</g>
<!-- Node354&#45;&gt;Node358 -->
<g id="edge4" class="edge"><title>Node354&#45;&gt;Node358</title>
<path fill="none" stroke="midnightblue" d="M130.161,-48C141.262,-48 152.876,-48 164.187,-48"/>
<polygon fill="midnightblue" stroke="midnightblue" points="164.466,-51.5001 174.466,-48 164.466,-44.5001 164.466,-51.5001"/>
</g>
<!-- Node361 -->
<g id="node8" class="node"><title>Node361</title>
<g id="a_node8"><a xlink:href="a00383.html#a78090b8f3c50c64cc9541791df72d3cb" target="_top" xlink:title="UpdateNodePartitionParams">
<polygon fill="white" stroke="black" points="166,-0.5 166,-19.5 310,-19.5 310,-0.5 166,-0.5"/>
<text text-anchor="middle" x="238" y="-7.5" font-family="Helvetica,sans-Serif" font-size="10.00">UpdateNodePartitionParams</text>
</a>
</g>
</g>
<!-- Node354&#45;&gt;Node361 -->
<g id="edge7" class="edge"><title>Node354&#45;&gt;Node361</title>
<path fill="none" stroke="midnightblue" d="M109.151,-38.411C131.919,-33.3513 160.048,-27.1004 184.119,-21.7512"/>
<polygon fill="midnightblue" stroke="midnightblue" points="185.157,-25.1061 194.16,-19.5201 183.639,-18.2728 185.157,-25.1061"/>
</g>
<!-- Node356 -->
<g id="node3" class="node"><title>Node356</title>
<g id="a_node3"><a xlink:href="a00383.html#a209dbc8b8ae14de6f02ff22f00a60d3c" target="_top" xlink:title="PrintNodeBalanceInfo">
<polygon fill="white" stroke="black" points="346,-114.5 346,-133.5 460,-133.5 460,-114.5 346,-114.5"/>
<text text-anchor="middle" x="403" y="-121.5" font-family="Helvetica,sans-Serif" font-size="10.00">PrintNodeBalanceInfo</text>
</a>
</g>
</g>
<!-- Node355&#45;&gt;Node356 -->
<g id="edge2" class="edge"><title>Node355&#45;&gt;Node356</title>
<path fill="none" stroke="midnightblue" d="M280.132,-95.589C301.738,-100.626 328.409,-106.844 351.286,-112.177"/>
<polygon fill="midnightblue" stroke="midnightblue" points="350.63,-115.618 361.164,-114.48 352.22,-108.801 350.63,-115.618"/>
</g>
<!-- Node357 -->
<g id="node4" class="node"><title>Node357</title>
<g id="a_node4"><a xlink:href="a00575.html#ae6aab5c308faac0fc539cc9c6da9fbd0" target="_top" xlink:title="sprintf">
<polygon fill="white" stroke="black" points="381,-76.5 381,-95.5 425,-95.5 425,-76.5 381,-76.5"/>
<text text-anchor="middle" x="403" y="-83.5" font-family="Helvetica,sans-Serif" font-size="10.00">sprintf</text>
</a>
</g>
</g>
<!-- Node355&#45;&gt;Node357 -->
<g id="edge3" class="edge"><title>Node355&#45;&gt;Node357</title>
<path fill="none" stroke="midnightblue" d="M305.298,-86C327.844,-86 351.999,-86 370.528,-86"/>
<polygon fill="midnightblue" stroke="midnightblue" points="370.732,-89.5001 380.732,-86 370.732,-82.5001 370.732,-89.5001"/>
</g>
<!-- Node359 -->
<g id="node6" class="node"><title>Node359</title>
<g id="a_node6"><a xlink:href="a00942.html#a7181616e1bdb4454ac4a54aab65a4fab" target="_top" xlink:title="METIS_NodeRefine">
<polygon fill="white" stroke="black" points="350.5,-38.5 350.5,-57.5 455.5,-57.5 455.5,-38.5 350.5,-38.5"/>
<text text-anchor="middle" x="403" y="-45.5" font-family="Helvetica,sans-Serif" font-size="10.00">METIS_NodeRefine</text>
</a>
</g>
</g>
<!-- Node358&#45;&gt;Node359 -->
<g id="edge5" class="edge"><title>Node358&#45;&gt;Node359</title>
<path fill="none" stroke="midnightblue" d="M301.554,-48C314.305,-48 327.712,-48 340.429,-48"/>
<polygon fill="midnightblue" stroke="midnightblue" points="340.454,-51.5001 350.454,-48 340.454,-44.5001 340.454,-51.5001"/>
</g>
<!-- Node360 -->
<g id="node7" class="node"><title>Node360</title>
<g id="a_node7"><a xlink:href="a00942.html#a1d2b2b5145f4556102f25c25570bb80e" target="_top" xlink:title="FM_2WayNodeRefine1SidedP">
<polygon fill="white" stroke="black" points="496.5,-38.5 496.5,-57.5 649.5,-57.5 649.5,-38.5 496.5,-38.5"/>
<text text-anchor="middle" x="573" y="-45.5" font-family="Helvetica,sans-Serif" font-size="10.00">FM_2WayNodeRefine1SidedP</text>
</a>
</g>
</g>
<!-- Node359&#45;&gt;Node360 -->
<g id="edge6" class="edge"><title>Node359&#45;&gt;Node360</title>
<path fill="none" stroke="midnightblue" d="M455.776,-48C465.393,-48 475.675,-48 485.996,-48"/>
<polygon fill="midnightblue" stroke="midnightblue" points="486.308,-51.5001 496.308,-48 486.308,-44.5001 486.308,-51.5001"/>
</g>
</g>
</svg>
        <g id="navigator" transform="translate(0 0)" fill="#404254">
                <rect fill="#f2f5e9" fill-opacity="0.5" stroke="#606060" stroke-width=".5" x="0" y="0" width="60" height="60"/>
                <use id="zoomplus" xlink:href="#zoomPlus" x="17" y="9" onmousedown="handleZoom(evt,'in')"/>
                <use id="zoomminus" xlink:href="#zoomMin" x="42" y="9" onmousedown="handleZoom(evt,'out')"/>
                <use id="reset" xlink:href="#resetDef" x="30" y="36" onmousedown="handleReset()"/>
                <g id="arrowUp" xlink:href="#dirArrow" transform="translate(30 24)" onmousedown="handlePan(0,-1)">
                  <use xlink:href="#rim" fill="#404040">
                        <set attributeName="fill" to="#808080" begin="arrowUp.mouseover" end="arrowUp.mouseout"/>
                  </use>
                  <path fill="none" stroke="white" stroke-width="1.5" d="M0,-3.0v7 M-2.5,-0.5L0,-3.0L2.5,-0.5"/>
                </g>
                <g id="arrowRight" xlink:href="#dirArrow" transform="rotate(90) translate(36 -43)" onmousedown="handlePan(1,0)">
                  <use xlink:href="#rim" fill="#404040">
                        <set attributeName="fill" to="#808080" begin="arrowRight.mouseover" end="arrowRight.mouseout"/>
                  </use>
                  <path fill="none" stroke="white" stroke-width="1.5" d="M0,-3.0v7 M-2.5,-0.5L0,-3.0L2.5,-0.5"/>
                </g>
                <g id="arrowDown" xlink:href="#dirArrow" transform="rotate(180) translate(-30 -48)" onmousedown="handlePan(0,1)">
                  <use xlink:href="#rim" fill="#404040">
                        <set attributeName="fill" to="#808080" begin="arrowDown.mouseover" end="arrowDown.mouseout"/>
                  </use>
                  <path fill="none" stroke="white" stroke-width="1.5" d="M0,-3.0v7 M-2.5,-0.5L0,-3.0L2.5,-0.5"/>
                </g>
                <g id="arrowLeft" xlink:href="#dirArrow" transform="rotate(270) translate(-36 17)" onmousedown="handlePan(-1,0)">
                  <use xlink:href="#rim" fill="#404040">
                        <set attributeName="fill" to="#808080" begin="arrowLeft.mouseover" end="arrowLeft.mouseout"/>
                  </use>
                  <path fill="none" stroke="white" stroke-width="1.5" d="M0,-3.0v7 M-2.5,-0.5L0,-3.0L2.5,-0.5"/>
                </g>
        </g>
        <svg viewBox="0 0 15 15" width="100%" height="30px" preserveAspectRatio="xMaxYMin meet">
         <g id="arrow_out" transform="scale(0.3 0.3)">
          <a xlink:href="a00954_a5c42d043dc7f9e6d0b955a4d004a7470_cgraph_org.svg" target="_base">
           <rect id="button" ry="5" rx="5" y="6" x="6" height="38" width="38"
                fill="#f2f5e9" fill-opacity="0.5" stroke="#606060" stroke-width="1.0"/>
           <path id="arrow"
             d="M 11.500037,31.436501 C 11.940474,20.09759 22.043105,11.32322 32.158766,21.979434 L 37.068811,17.246167 C 37.068811,17.246167 37.088388,32 37.088388,32 L 22.160133,31.978069 C 22.160133,31.978069 26.997745,27.140456 26.997745,27.140456 C 18.528582,18.264221 13.291696,25.230495 11.500037,31.436501 z"
             style="fill:#404040;"/>
          </a>
         </g>
        </svg>
</svg>
