<?xml version="1.0" encoding="UTF-8" standalone="no"?>
<!DOCTYPE svg PUBLIC "-//W3C//DTD SVG 1.1//EN"
 "http://www.w3.org/Graphics/SVG/1.1/DTD/svg11.dtd">
<!-- Generated by graphviz version 2.36.0 (20140111.2315)
 -->
<!-- Title: MultilevelBisect Pages: 1 -->
<!--zoomable 294 -->
<svg id="main" version="1.1" xmlns="http://www.w3.org/2000/svg" xmlns:xlink="http://www.w3.org/1999/xlink" xml:space="preserve" onload="init(evt)">
<style type="text/css"><![CDATA[
.edge:hover path { stroke: red; }
.edge:hover polygon { stroke: red; fill: red; }
]]></style>
<script type="text/javascript"><![CDATA[
var edges = document.getElementsByTagName('g');
if (edges && edges.length) {
  for (var i=0;i<edges.length;i++) {
    if (edges[i].id.substr(0,4)=='edge') {
      edges[i].setAttribute('class','edge');
    }
  }
}
]]></script>
        <defs>
                <circle id="rim" cx="0" cy="0" r="7"/>
                <circle id="rim2" cx="0" cy="0" r="3.5"/>
                <g id="zoomPlus">
                        <use xlink:href="#rim" fill="#404040">
                                <set attributeName="fill" to="#808080" begin="zoomplus.mouseover" end="zoomplus.mouseout"/>
                        </use>
                        <path d="M-4,0h8M0,-4v8" fill="none" stroke="white" stroke-width="1.5" pointer-events="none"/>
                </g>
                <g id="zoomMin">
                        <use xlink:href="#rim" fill="#404040">
                                <set attributeName="fill" to="#808080" begin="zoomminus.mouseover" end="zoomminus.mouseout"/>
                        </use>
                        <path d="M-4,0h8" fill="none" stroke="white" stroke-width="1.5" pointer-events="none"/>
                </g>
                <g id="dirArrow">
                        <path fill="none" stroke="white" stroke-width="1.5" d="M0,-3.0v7 M-2.5,-0.5L0,-3.0L2.5,-0.5"/>
                </g>
               <g id="resetDef">
                       <use xlink:href="#rim2" fill="#404040">
                               <set attributeName="fill" to="#808080" begin="reset.mouseover" end="reset.mouseout"/>
                       </use>
               </g>
        </defs>

<script type="text/javascript">
var viewWidth = 1168;
var viewHeight = 294;
var sectionId = 'dynsection-132';
</script>
<script xlink:href="svgpan.js"/>
<svg id="graph" class="graph">
<g id="viewport">
<title>MultilevelBisect</title>
<polygon fill="white" stroke="none" points="-4,4 -4,-290 1164,-290 1164,4 -4,4"/>
<!-- Node790 -->
<g id="node1" class="node"><title>Node790</title>
<polygon fill="#bfbfbf" stroke="black" points="0.5,-95.5 0.5,-114.5 85.5,-114.5 85.5,-95.5 0.5,-95.5"/>
<text text-anchor="middle" x="43" y="-102.5" font-family="Helvetica,sans-Serif" font-size="10.00">MultilevelBisect</text>
</g>
<!-- Node791 -->
<g id="node2" class="node"><title>Node791</title>
<g id="a_node2"><a xlink:href="a00948.html#a5510f276b321a8450b2e9cc913c2f00f" target="_top" xlink:title="MlevelRecursiveBisection">
<polygon fill="white" stroke="black" points="122,-95.5 122,-114.5 252,-114.5 252,-95.5 122,-95.5"/>
<text text-anchor="middle" x="187" y="-102.5" font-family="Helvetica,sans-Serif" font-size="10.00">MlevelRecursiveBisection</text>
</a>
</g>
</g>
<!-- Node790&#45;&gt;Node791 -->
<g id="edge1" class="edge"><title>Node790&#45;&gt;Node791</title>
<path fill="none" stroke="midnightblue" d="M95.8901,-105C104.319,-105 113.136,-105 121.816,-105"/>
<polygon fill="midnightblue" stroke="midnightblue" points="95.8367,-101.5 85.8367,-105 95.8366,-108.5 95.8367,-101.5"/>
</g>
<!-- Node791&#45;&gt;Node791 -->
<g id="edge21" class="edge"><title>Node791&#45;&gt;Node791</title>
<path fill="none" stroke="midnightblue" d="M160.121,-123.654C161.244,-128.937 170.204,-133 187,-133 212.594,-133 219.992,-123.565 209.195,-114.757"/>
<polygon fill="midnightblue" stroke="midnightblue" points="163.243,-125.236 164.805,-114.757 157.049,-121.975 163.243,-125.236"/>
</g>
<!-- Node792 -->
<g id="node3" class="node"><title>Node792</title>
<g id="a_node3"><a xlink:href="a00260.html#a25fc90fd934931239b3c98ac4bdbce76" target="_top" xlink:title="Recursive partitioning routine. ">
<polygon fill="white" stroke="black" points="288.5,-95.5 288.5,-114.5 431.5,-114.5 431.5,-95.5 288.5,-95.5"/>
<text text-anchor="middle" x="360" y="-102.5" font-family="Helvetica,sans-Serif" font-size="10.00">METIS_PartGraphRecursive</text>
</a>
</g>
</g>
<!-- Node791&#45;&gt;Node792 -->
<g id="edge2" class="edge"><title>Node791&#45;&gt;Node792</title>
<path fill="none" stroke="midnightblue" d="M262.272,-105C270.966,-105 279.818,-105 288.46,-105"/>
<polygon fill="midnightblue" stroke="midnightblue" points="262.161,-101.5 252.161,-105 262.161,-108.5 262.161,-101.5"/>
</g>
<!-- Node793 -->
<g id="node4" class="node"><title>Node793</title>
<g id="a_node4"><a xlink:href="a00954.html#aa24ead3c2c8fb3e58110f1f79453ce29" target="_top" xlink:title="Balance_Partition">
<polygon fill="white" stroke="black" points="960.5,-266.5 960.5,-285.5 1055.5,-285.5 1055.5,-266.5 960.5,-266.5"/>
<text text-anchor="middle" x="1008" y="-273.5" font-family="Helvetica,sans-Serif" font-size="10.00">Balance_Partition</text>
</a>
</g>
</g>
<!-- Node792&#45;&gt;Node793 -->
<g id="edge3" class="edge"><title>Node792&#45;&gt;Node793</title>
<path fill="none" stroke="midnightblue" d="M382.198,-120.487C403.054,-135.026 436.292,-156.377 468,-169 641.507,-238.071 864.817,-264.074 960.319,-272.487"/>
<polygon fill="midnightblue" stroke="midnightblue" points="383.979,-117.459 373.798,-114.53 379.93,-123.169 383.979,-117.459"/>
</g>
<!-- Node794 -->
<g id="node5" class="node"><title>Node794</title>
<g id="a_node5"><a xlink:href="a00954.html#a5358042c354702d9e8128f7cc342a322" target="_top" xlink:title="InitPartition">
<polygon fill="white" stroke="black" points="974.5,-228.5 974.5,-247.5 1041.5,-247.5 1041.5,-228.5 974.5,-228.5"/>
<text text-anchor="middle" x="1008" y="-235.5" font-family="Helvetica,sans-Serif" font-size="10.00">InitPartition</text>
</a>
</g>
</g>
<!-- Node792&#45;&gt;Node794 -->
<g id="edge4" class="edge"><title>Node792&#45;&gt;Node794</title>
<path fill="none" stroke="midnightblue" d="M393.835,-118.267C414.781,-126.327 442.659,-136.317 468,-143 656.808,-192.793 889.813,-223.861 974.393,-234.181"/>
<polygon fill="midnightblue" stroke="midnightblue" points="395.031,-114.977 384.443,-114.604 392.488,-121.498 395.031,-114.977"/>
</g>
<!-- Node795 -->
<g id="node6" class="node"><title>Node795</title>
<g id="a_node6"><a xlink:href="a00948.html#a870e37cc14eb1033c62d83d3a7c33a91" target="_top" xlink:title="InitKWayPartitioning">
<polygon fill="white" stroke="black" points="468.5,-114.5 468.5,-133.5 575.5,-133.5 575.5,-114.5 468.5,-114.5"/>
<text text-anchor="middle" x="522" y="-121.5" font-family="Helvetica,sans-Serif" font-size="10.00">InitKWayPartitioning</text>
</a>
</g>
</g>
<!-- Node792&#45;&gt;Node795 -->
<g id="edge5" class="edge"><title>Node792&#45;&gt;Node795</title>
<path fill="none" stroke="midnightblue" d="M441.713,-114.585C450.647,-115.646 459.57,-116.705 468.035,-117.71"/>
<polygon fill="midnightblue" stroke="midnightblue" points="441.987,-111.093 431.644,-113.389 441.162,-118.044 441.987,-111.093"/>
</g>
<!-- Node801 -->
<g id="node12" class="node"><title>Node801</title>
<g id="a_node12"><a xlink:href="a00236.html#ade1e7e23ad687989a6343b4fb8d61ba7" target="_top" xlink:title="METIS_PartMeshNodal">
<polygon fill="white" stroke="black" points="947,-76.5 947,-95.5 1069,-95.5 1069,-76.5 947,-76.5"/>
<text text-anchor="middle" x="1008" y="-83.5" font-family="Helvetica,sans-Serif" font-size="10.00">METIS_PartMeshNodal</text>
</a>
</g>
</g>
<!-- Node792&#45;&gt;Node801 -->
<g id="edge18" class="edge"><title>Node792&#45;&gt;Node801</title>
<path fill="none" stroke="midnightblue" d="M441.675,-102.627C573.005,-98.7646 830.059,-91.2041 946.779,-87.7712"/>
<polygon fill="midnightblue" stroke="midnightblue" points="441.565,-99.1288 431.672,-102.921 441.77,-106.126 441.565,-99.1288"/>
</g>
<!-- Node803 -->
<g id="node14" class="node"><title>Node803</title>
<g id="a_node14"><a xlink:href="a00236.html#a8f496ac1cd2246b124da246b5c6f9193" target="_top" xlink:title="METIS_PartMeshDual">
<polygon fill="white" stroke="black" points="950,-38.5 950,-57.5 1066,-57.5 1066,-38.5 950,-38.5"/>
<text text-anchor="middle" x="1008" y="-45.5" font-family="Helvetica,sans-Serif" font-size="10.00">METIS_PartMeshDual</text>
</a>
</g>
</g>
<!-- Node792&#45;&gt;Node803 -->
<g id="edge19" class="edge"><title>Node792&#45;&gt;Node803</title>
<path fill="none" stroke="midnightblue" d="M441.744,-96.5488C450.602,-95.6665 459.49,-94.8005 468,-94 643.553,-77.4863 851.519,-60.4527 949.93,-52.544"/>
<polygon fill="midnightblue" stroke="midnightblue" points="441.377,-93.0679 431.777,-97.5494 442.076,-100.033 441.377,-93.0679"/>
</g>
<!-- Node804 -->
<g id="node15" class="node"><title>Node804</title>
<g id="a_node15"><a xlink:href="a00311.html#a0ddf1224851353fc92bfbff6f499fa97" target="_top" xlink:title="main">
<polygon fill="white" stroke="black" points="989,-0.5 989,-19.5 1027,-19.5 1027,-0.5 989,-0.5"/>
<text text-anchor="middle" x="1008" y="-7.5" font-family="Helvetica,sans-Serif" font-size="10.00">main</text>
</a>
</g>
</g>
<!-- Node792&#45;&gt;Node804 -->
<g id="edge20" class="edge"><title>Node792&#45;&gt;Node804</title>
<path fill="none" stroke="midnightblue" d="M407.687,-93.0187C426.356,-88.5092 448.111,-83.6056 468,-80 670.875,-43.2219 920.091,-18.2309 988.751,-11.6985"/>
<polygon fill="midnightblue" stroke="midnightblue" points="406.83,-89.6251 397.948,-95.4021 408.494,-96.4244 406.83,-89.6251"/>
</g>
<!-- Node796 -->
<g id="node7" class="node"><title>Node796</title>
<g id="a_node7"><a xlink:href="a00948.html#a7973c78504ad6711d3516082b1112805" target="_top" xlink:title="MlevelKWayPartitioning">
<polygon fill="white" stroke="black" points="612,-114.5 612,-133.5 734,-133.5 734,-114.5 612,-114.5"/>
<text text-anchor="middle" x="673" y="-121.5" font-family="Helvetica,sans-Serif" font-size="10.00">MlevelKWayPartitioning</text>
</a>
</g>
</g>
<!-- Node795&#45;&gt;Node796 -->
<g id="edge6" class="edge"><title>Node795&#45;&gt;Node796</title>
<path fill="none" stroke="midnightblue" d="M585.589,-124C594.268,-124 603.168,-124 611.802,-124"/>
<polygon fill="midnightblue" stroke="midnightblue" points="585.532,-120.5 575.532,-124 585.532,-127.5 585.532,-120.5"/>
</g>
<!-- Node797 -->
<g id="node8" class="node"><title>Node797</title>
<g id="a_node8"><a xlink:href="a00912.html#af89851458c047aba436b36ed567441e4" target="_top" xlink:title="METIS_PartGraphKway">
<polygon fill="white" stroke="black" points="770.5,-114.5 770.5,-133.5 893.5,-133.5 893.5,-114.5 770.5,-114.5"/>
<text text-anchor="middle" x="832" y="-121.5" font-family="Helvetica,sans-Serif" font-size="10.00">METIS_PartGraphKway</text>
</a>
</g>
</g>
<!-- Node796&#45;&gt;Node797 -->
<g id="edge7" class="edge"><title>Node796&#45;&gt;Node797</title>
<path fill="none" stroke="midnightblue" d="M744.361,-124C753.047,-124 761.868,-124 770.391,-124"/>
<polygon fill="midnightblue" stroke="midnightblue" points="744.251,-120.5 734.251,-124 744.251,-127.5 744.251,-120.5"/>
</g>
<!-- Node797&#45;&gt;Node793 -->
<g id="edge9" class="edge"><title>Node797&#45;&gt;Node793</title>
<path fill="none" stroke="midnightblue" d="M841.485,-142.983C855.542,-172.181 886.49,-227.786 930,-257 939.031,-263.063 949.821,-267.194 960.424,-270.007"/>
<polygon fill="midnightblue" stroke="midnightblue" points="844.622,-141.429 837.224,-133.844 838.277,-144.386 844.622,-141.429"/>
</g>
<!-- Node797&#45;&gt;Node794 -->
<g id="edge11" class="edge"><title>Node797&#45;&gt;Node794</title>
<path fill="none" stroke="midnightblue" d="M849.858,-140.967C876.349,-167.564 925.221,-216.337 930,-219 943.591,-226.575 960.186,-231.164 974.485,-233.928"/>
<polygon fill="midnightblue" stroke="midnightblue" points="852.265,-138.424 842.731,-133.804 847.303,-143.362 852.265,-138.424"/>
</g>
<!-- Node798 -->
<g id="node9" class="node"><title>Node798</title>
<g id="a_node9"><a xlink:href="a00846.html#a6df93293cf3d1ccb4659bd1b3091623d" target="_top" xlink:title="ParMETIS_V3_PartGeomKway">
<polygon fill="white" stroke="black" points="930,-190.5 930,-209.5 1086,-209.5 1086,-190.5 930,-190.5"/>
<text text-anchor="middle" x="1008" y="-197.5" font-family="Helvetica,sans-Serif" font-size="10.00">ParMETIS_V3_PartGeomKway</text>
</a>
</g>
</g>
<!-- Node797&#45;&gt;Node798 -->
<g id="edge8" class="edge"><title>Node797&#45;&gt;Node798</title>
<path fill="none" stroke="midnightblue" d="M854.754,-139.27C873.815,-152.029 902.669,-169.874 930,-181 939.182,-184.738 949.29,-187.876 959.077,-190.456"/>
<polygon fill="midnightblue" stroke="midnightblue" points="856.715,-136.371 846.479,-133.637 852.776,-142.158 856.715,-136.371"/>
</g>
<!-- Node799 -->
<g id="node10" class="node"><title>Node799</title>
<g id="a_node10"><a xlink:href="a00416.html#af4fae82dc1fc688ae704c61e647d33e4" target="_top" xlink:title="PartitionSmallGraph">
<polygon fill="white" stroke="black" points="955,-152.5 955,-171.5 1061,-171.5 1061,-152.5 955,-152.5"/>
<text text-anchor="middle" x="1008" y="-159.5" font-family="Helvetica,sans-Serif" font-size="10.00">PartitionSmallGraph</text>
</a>
</g>
</g>
<!-- Node797&#45;&gt;Node799 -->
<g id="edge10" class="edge"><title>Node797&#45;&gt;Node799</title>
<path fill="none" stroke="midnightblue" d="M886.814,-135.753C911.418,-141.126 940.187,-147.409 963.408,-152.48"/>
<polygon fill="midnightblue" stroke="midnightblue" points="887.424,-132.303 876.908,-133.589 885.93,-139.142 887.424,-132.303"/>
</g>
<!-- Node800 -->
<g id="node11" class="node"><title>Node800</title>
<g id="a_node11"><a xlink:href="a00846.html#af418d1e76eaf4f80116da4caf51bd54e" target="_top" xlink:title="ParMETIS_V3_PartKway">
<polygon fill="white" stroke="black" points="943.5,-114.5 943.5,-133.5 1072.5,-133.5 1072.5,-114.5 943.5,-114.5"/>
<text text-anchor="middle" x="1008" y="-121.5" font-family="Helvetica,sans-Serif" font-size="10.00">ParMETIS_V3_PartKway</text>
</a>
</g>
</g>
<!-- Node797&#45;&gt;Node800 -->
<g id="edge12" class="edge"><title>Node797&#45;&gt;Node800</title>
<path fill="none" stroke="midnightblue" d="M904.116,-124C917.066,-124 930.502,-124 943.224,-124"/>
<polygon fill="midnightblue" stroke="midnightblue" points="903.857,-120.5 893.857,-124 903.857,-127.5 903.857,-120.5"/>
</g>
<!-- Node797&#45;&gt;Node801 -->
<g id="edge13" class="edge"><title>Node797&#45;&gt;Node801</title>
<path fill="none" stroke="midnightblue" d="M886.814,-112.247C911.418,-106.874 940.187,-100.591 963.408,-95.5201"/>
<polygon fill="midnightblue" stroke="midnightblue" points="885.93,-108.858 876.908,-114.411 887.424,-115.697 885.93,-108.858"/>
</g>
<!-- Node797&#45;&gt;Node803 -->
<g id="edge15" class="edge"><title>Node797&#45;&gt;Node803</title>
<path fill="none" stroke="midnightblue" d="M854.754,-108.73C873.815,-95.971 902.669,-78.1259 930,-67 939.182,-63.2622 949.29,-60.1239 959.077,-57.5437"/>
<polygon fill="midnightblue" stroke="midnightblue" points="852.776,-105.842 846.479,-114.363 856.715,-111.629 852.776,-105.842"/>
</g>
<!-- Node797&#45;&gt;Node804 -->
<g id="edge17" class="edge"><title>Node797&#45;&gt;Node804</title>
<path fill="none" stroke="midnightblue" d="M845.96,-106.502C862.874,-84.9487 894.531,-48.7678 930,-29 948.522,-18.6772 972.624,-13.8984 988.89,-11.729"/>
<polygon fill="midnightblue" stroke="midnightblue" points="843.139,-104.43 839.837,-114.497 848.696,-108.686 843.139,-104.43"/>
</g>
<!-- Node802 -->
<g id="node13" class="node"><title>Node802</title>
<g id="a_node13"><a xlink:href="a00323.html#a0ddf1224851353fc92bfbff6f499fa97" target="_top" xlink:title="main">
<polygon fill="white" stroke="black" points="1122,-57.5 1122,-76.5 1160,-76.5 1160,-57.5 1122,-57.5"/>
<text text-anchor="middle" x="1141" y="-64.5" font-family="Helvetica,sans-Serif" font-size="10.00">main</text>
</a>
</g>
</g>
<!-- Node801&#45;&gt;Node802 -->
<g id="edge14" class="edge"><title>Node801&#45;&gt;Node802</title>
<path fill="none" stroke="midnightblue" d="M1079.45,-75.7819C1095.13,-73.5082 1110.42,-71.2896 1121.72,-69.6512"/>
<polygon fill="midnightblue" stroke="midnightblue" points="1078.53,-72.3793 1069.13,-77.2785 1079.53,-79.3068 1078.53,-72.3793"/>
</g>
<!-- Node803&#45;&gt;Node802 -->
<g id="edge16" class="edge"><title>Node803&#45;&gt;Node802</title>
<path fill="none" stroke="midnightblue" d="M1076.04,-57.7233C1092.99,-60.1818 1109.8,-62.6204 1121.94,-64.3799"/>
<polygon fill="midnightblue" stroke="midnightblue" points="1076.48,-54.2501 1066.08,-56.2784 1075.47,-61.1776 1076.48,-54.2501"/>
</g>
</g>
</svg>
        <g id="navigator" transform="translate(0 0)" fill="#404254">
                <rect fill="#f2f5e9" fill-opacity="0.5" stroke="#606060" stroke-width=".5" x="0" y="0" width="60" height="60"/>
                <use id="zoomplus" xlink:href="#zoomPlus" x="17" y="9" onmousedown="handleZoom(evt,'in')"/>
                <use id="zoomminus" xlink:href="#zoomMin" x="42" y="9" onmousedown="handleZoom(evt,'out')"/>
                <use id="reset" xlink:href="#resetDef" x="30" y="36" onmousedown="handleReset()"/>
                <g id="arrowUp" xlink:href="#dirArrow" transform="translate(30 24)" onmousedown="handlePan(0,-1)">
                  <use xlink:href="#rim" fill="#404040">
                        <set attributeName="fill" to="#808080" begin="arrowUp.mouseover" end="arrowUp.mouseout"/>
                  </use>
                  <path fill="none" stroke="white" stroke-width="1.5" d="M0,-3.0v7 M-2.5,-0.5L0,-3.0L2.5,-0.5"/>
                </g>
                <g id="arrowRight" xlink:href="#dirArrow" transform="rotate(90) translate(36 -43)" onmousedown="handlePan(1,0)">
                  <use xlink:href="#rim" fill="#404040">
                        <set attributeName="fill" to="#808080" begin="arrowRight.mouseover" end="arrowRight.mouseout"/>
                  </use>
                  <path fill="none" stroke="white" stroke-width="1.5" d="M0,-3.0v7 M-2.5,-0.5L0,-3.0L2.5,-0.5"/>
                </g>
                <g id="arrowDown" xlink:href="#dirArrow" transform="rotate(180) translate(-30 -48)" onmousedown="handlePan(0,1)">
                  <use xlink:href="#rim" fill="#404040">
                        <set attributeName="fill" to="#808080" begin="arrowDown.mouseover" end="arrowDown.mouseout"/>
                  </use>
                  <path fill="none" stroke="white" stroke-width="1.5" d="M0,-3.0v7 M-2.5,-0.5L0,-3.0L2.5,-0.5"/>
                </g>
                <g id="arrowLeft" xlink:href="#dirArrow" transform="rotate(270) translate(-36 17)" onmousedown="handlePan(-1,0)">
                  <use xlink:href="#rim" fill="#404040">
                        <set attributeName="fill" to="#808080" begin="arrowLeft.mouseover" end="arrowLeft.mouseout"/>
                  </use>
                  <path fill="none" stroke="white" stroke-width="1.5" d="M0,-3.0v7 M-2.5,-0.5L0,-3.0L2.5,-0.5"/>
                </g>
        </g>
        <svg viewBox="0 0 15 15" width="100%" height="30px" preserveAspectRatio="xMaxYMin meet">
         <g id="arrow_out" transform="scale(0.3 0.3)">
          <a xlink:href="a00948_a33c48a23cc94ea0221fa5c7317cd0222_icgraph_org.svg" target="_base">
           <rect id="button" ry="5" rx="5" y="6" x="6" height="38" width="38"
                fill="#f2f5e9" fill-opacity="0.5" stroke="#606060" stroke-width="1.0"/>
           <path id="arrow"
             d="M 11.500037,31.436501 C 11.940474,20.09759 22.043105,11.32322 32.158766,21.979434 L 37.068811,17.246167 C 37.068811,17.246167 37.088388,32 37.088388,32 L 22.160133,31.978069 C 22.160133,31.978069 26.997745,27.140456 26.997745,27.140456 C 18.528582,18.264221 13.291696,25.230495 11.500037,31.436501 z"
             style="fill:#404040;"/>
          </a>
         </g>
        </svg>
</svg>
