<?xml version="1.0" encoding="UTF-8" standalone="no"?>
<!DOCTYPE svg PUBLIC "-//W3C//DTD SVG 1.1//EN"
 "http://www.w3.org/Graphics/SVG/1.1/DTD/svg11.dtd">
<!-- Generated by graphviz version 2.36.0 (20140111.2315)
 -->
<!-- Title: Refine2Way Pages: 1 -->
<svg width="456pt" height="66pt"
 viewBox="0.00 0.00 456.00 66.00" xmlns="http://www.w3.org/2000/svg" xmlns:xlink="http://www.w3.org/1999/xlink">
<g id="graph0" class="graph" transform="scale(1 1) rotate(0) translate(4 62)">
<title>Refine2Way</title>
<polygon fill="white" stroke="none" points="-4,4 -4,-62 452,-62 452,4 -4,4"/>
<!-- Node876 -->
<g id="node1" class="node"><title>Node876</title>
<polygon fill="#bfbfbf" stroke="black" points="0.5,-19.5 0.5,-38.5 71.5,-38.5 71.5,-19.5 0.5,-19.5"/>
<text text-anchor="middle" x="36" y="-26.5" font-family="Helvetica,sans-Serif" font-size="10.00">Refine2Way</text>
</g>
<!-- Node877 -->
<g id="node2" class="node"><title>Node877</title>
<g id="a_node2"><a xlink:href="a00266.html#a0ed9efb4761e829a24f4066856640f86" target="_top" xlink:title="Compute2WayPartitionParams">
<polygon fill="white" stroke="black" points="108,-38.5 108,-57.5 262,-57.5 262,-38.5 108,-38.5"/>
<text text-anchor="middle" x="185" y="-45.5" font-family="Helvetica,sans-Serif" font-size="10.00">Compute2WayPartitionParams</text>
</a>
</g>
</g>
<!-- Node876&#45;&gt;Node877 -->
<g id="edge1" class="edge"><title>Node876&#45;&gt;Node877</title>
<path fill="none" stroke="midnightblue" d="M71.8369,-33.5027C80.5606,-34.6303 90.3002,-35.8891 100.296,-37.1812"/>
<polygon fill="midnightblue" stroke="midnightblue" points="99.9841,-40.6698 110.35,-38.4806 100.881,-33.7276 99.9841,-40.6698"/>
</g>
<!-- Node878 -->
<g id="node3" class="node"><title>Node878</title>
<g id="a_node3"><a xlink:href="a00266.html#a99814e73a646480f8af05e7d8bcfe4bc" target="_top" xlink:title="Project2WayPartition">
<polygon fill="white" stroke="black" points="130,-0.5 130,-19.5 240,-19.5 240,-0.5 130,-0.5"/>
<text text-anchor="middle" x="185" y="-7.5" font-family="Helvetica,sans-Serif" font-size="10.00">Project2WayPartition</text>
</a>
</g>
</g>
<!-- Node876&#45;&gt;Node878 -->
<g id="edge2" class="edge"><title>Node876&#45;&gt;Node878</title>
<path fill="none" stroke="midnightblue" d="M71.8369,-24.4973C86.1801,-22.6434 103.269,-20.4346 119.731,-18.3069"/>
<polygon fill="midnightblue" stroke="midnightblue" points="120.401,-21.7495 129.869,-16.9965 119.503,-14.8073 120.401,-21.7495"/>
</g>
<!-- Node879 -->
<g id="node4" class="node"><title>Node879</title>
<g id="a_node4"><a xlink:href="a00266.html#aadcb666600c1f5ded03cdd998b6ffd8f" target="_top" xlink:title="Allocate2WayPartitionMemory">
<polygon fill="white" stroke="black" points="298,-0.5 298,-19.5 448,-19.5 448,-0.5 298,-0.5"/>
<text text-anchor="middle" x="373" y="-7.5" font-family="Helvetica,sans-Serif" font-size="10.00">Allocate2WayPartitionMemory</text>
</a>
</g>
</g>
<!-- Node878&#45;&gt;Node879 -->
<g id="edge3" class="edge"><title>Node878&#45;&gt;Node879</title>
<path fill="none" stroke="midnightblue" d="M240.049,-10C254.971,-10 271.527,-10 287.726,-10"/>
<polygon fill="midnightblue" stroke="midnightblue" points="287.749,-13.5001 297.749,-10 287.749,-6.5001 287.749,-13.5001"/>
</g>
</g>
</svg>
