<?xml version="1.0" encoding="UTF-8" standalone="no"?>
<!DOCTYPE svg PUBLIC "-//W3C//DTD SVG 1.1//EN"
 "http://www.w3.org/Graphics/SVG/1.1/DTD/svg11.dtd">
<!-- Generated by graphviz version 2.36.0 (20140111.2315)
 -->
<!-- Title: Match_SHEM Pages: 1 -->
<svg width="550pt" height="170pt"
 viewBox="0.00 0.00 550.00 170.00" xmlns="http://www.w3.org/2000/svg" xmlns:xlink="http://www.w3.org/1999/xlink">
<g id="graph0" class="graph" transform="scale(1 1) rotate(0) translate(4 166)">
<title>Match_SHEM</title>
<polygon fill="white" stroke="none" points="-4,4 -4,-166 546,-166 546,4 -4,4"/>
<!-- Node550 -->
<g id="node1" class="node"><title>Node550</title>
<polygon fill="#bfbfbf" stroke="black" points="0,-85.5 0,-104.5 78,-104.5 78,-85.5 0,-85.5"/>
<text text-anchor="middle" x="39" y="-92.5" font-family="Helvetica,sans-Serif" font-size="10.00">Match_SHEM</text>
</g>
<!-- Node551 -->
<g id="node2" class="node"><title>Node551</title>
<g id="a_node2"><a xlink:href="a00182.html#aead846b2c69509c914426ff087509934" target="_top" xlink:title="Match_2Hop">
<polygon fill="white" stroke="black" points="131.5,-104.5 131.5,-123.5 204.5,-123.5 204.5,-104.5 131.5,-104.5"/>
<text text-anchor="middle" x="168" y="-111.5" font-family="Helvetica,sans-Serif" font-size="10.00">Match_2Hop</text>
</a>
</g>
</g>
<!-- Node550&#45;&gt;Node551 -->
<g id="edge1" class="edge"><title>Node550&#45;&gt;Node551</title>
<path fill="none" stroke="midnightblue" d="M78.1042,-100.701C91.6267,-102.724 106.989,-105.022 121.094,-107.132"/>
<polygon fill="midnightblue" stroke="midnightblue" points="120.69,-110.611 131.098,-108.629 121.726,-103.688 120.69,-110.611"/>
</g>
<!-- Node554 -->
<g id="node5" class="node"><title>Node554</title>
<g id="a_node5"><a xlink:href="a00182.html#aac8820421b1c25698140c1b470c50e07" target="_top" xlink:title="CreateCoarseGraph">
<polygon fill="white" stroke="black" points="114.5,-47.5 114.5,-66.5 221.5,-66.5 221.5,-47.5 114.5,-47.5"/>
<text text-anchor="middle" x="168" y="-54.5" font-family="Helvetica,sans-Serif" font-size="10.00">CreateCoarseGraph</text>
</a>
</g>
</g>
<!-- Node550&#45;&gt;Node554 -->
<g id="edge4" class="edge"><title>Node550&#45;&gt;Node554</title>
<path fill="none" stroke="midnightblue" d="M72.0475,-85.411C88.1411,-80.5956 107.841,-74.7012 125.117,-69.532"/>
<polygon fill="midnightblue" stroke="midnightblue" points="126.386,-72.8057 134.963,-66.5859 124.379,-66.0994 126.386,-72.8057"/>
</g>
<!-- Node552 -->
<g id="node3" class="node"><title>Node552</title>
<g id="a_node3"><a xlink:href="a00182.html#a838a4013e3b5cc5278ecc7a8757ce0ef" target="_top" xlink:title="Match_2HopAny">
<polygon fill="white" stroke="black" points="285,-142.5 285,-161.5 375,-161.5 375,-142.5 285,-142.5"/>
<text text-anchor="middle" x="330" y="-149.5" font-family="Helvetica,sans-Serif" font-size="10.00">Match_2HopAny</text>
</a>
</g>
</g>
<!-- Node551&#45;&gt;Node552 -->
<g id="edge2" class="edge"><title>Node551&#45;&gt;Node552</title>
<path fill="none" stroke="midnightblue" d="M204.509,-122.433C226.34,-127.618 254.652,-134.342 278.76,-140.068"/>
<polygon fill="midnightblue" stroke="midnightblue" points="278.265,-143.548 288.803,-142.453 279.882,-136.737 278.265,-143.548"/>
</g>
<!-- Node553 -->
<g id="node4" class="node"><title>Node553</title>
<g id="a_node4"><a xlink:href="a00182.html#aa56d53cace160be27fb1750dcaffbc04" target="_top" xlink:title="Match_2HopAll">
<polygon fill="white" stroke="black" points="288,-104.5 288,-123.5 372,-123.5 372,-104.5 288,-104.5"/>
<text text-anchor="middle" x="330" y="-111.5" font-family="Helvetica,sans-Serif" font-size="10.00">Match_2HopAll</text>
</a>
</g>
</g>
<!-- Node551&#45;&gt;Node553 -->
<g id="edge3" class="edge"><title>Node551&#45;&gt;Node553</title>
<path fill="none" stroke="midnightblue" d="M204.509,-114C226.002,-114 253.777,-114 277.637,-114"/>
<polygon fill="midnightblue" stroke="midnightblue" points="277.939,-117.5 287.939,-114 277.939,-110.5 277.939,-117.5"/>
</g>
<!-- Node555 -->
<g id="node6" class="node"><title>Node555</title>
<g id="a_node6"><a xlink:href="a00182.html#a70dc59d4c7190507e7ad9a4cc0d80707" target="_top" xlink:title="CreateCoarseGraphNoMask">
<polygon fill="white" stroke="black" points="258.5,-28.5 258.5,-47.5 401.5,-47.5 401.5,-28.5 258.5,-28.5"/>
<text text-anchor="middle" x="330" y="-35.5" font-family="Helvetica,sans-Serif" font-size="10.00">CreateCoarseGraphNoMask</text>
</a>
</g>
</g>
<!-- Node554&#45;&gt;Node555 -->
<g id="edge5" class="edge"><title>Node554&#45;&gt;Node555</title>
<path fill="none" stroke="midnightblue" d="M221.833,-50.726C230.299,-49.7208 239.224,-48.6608 248.164,-47.5993"/>
<polygon fill="midnightblue" stroke="midnightblue" points="248.722,-51.0577 258.239,-46.4028 247.896,-44.1065 248.722,-51.0577"/>
</g>
<!-- Node556 -->
<g id="node7" class="node"><title>Node556</title>
<g id="a_node7"><a xlink:href="a00182.html#a113522304bf628b09d0b69b4db05050e" target="_top" xlink:title="SetupCoarseGraph">
<polygon fill="white" stroke="black" points="438.5,-47.5 438.5,-66.5 541.5,-66.5 541.5,-47.5 438.5,-47.5"/>
<text text-anchor="middle" x="490" y="-54.5" font-family="Helvetica,sans-Serif" font-size="10.00">SetupCoarseGraph</text>
</a>
</g>
</g>
<!-- Node554&#45;&gt;Node556 -->
<g id="edge8" class="edge"><title>Node554&#45;&gt;Node556</title>
<path fill="none" stroke="midnightblue" d="M221.841,-57C278.645,-57 368.798,-57 428.428,-57"/>
<polygon fill="midnightblue" stroke="midnightblue" points="428.458,-60.5001 438.458,-57 428.458,-53.5001 428.458,-60.5001"/>
</g>
<!-- Node557 -->
<g id="node8" class="node"><title>Node557</title>
<g id="a_node8"><a xlink:href="a00182.html#ab69ab96ec78174da232dff05e9c79d2f" target="_top" xlink:title="ReAdjustMemory">
<polygon fill="white" stroke="black" points="443.5,-0.5 443.5,-19.5 536.5,-19.5 536.5,-0.5 443.5,-0.5"/>
<text text-anchor="middle" x="490" y="-7.5" font-family="Helvetica,sans-Serif" font-size="10.00">ReAdjustMemory</text>
</a>
</g>
</g>
<!-- Node554&#45;&gt;Node557 -->
<g id="edge9" class="edge"><title>Node554&#45;&gt;Node557</title>
<path fill="none" stroke="midnightblue" d="M186.096,-47.4651C203.565,-38.2678 231.774,-24.8988 258,-19 316.732,-5.78995 385.942,-4.97016 433.188,-6.55632"/>
<polygon fill="midnightblue" stroke="midnightblue" points="433.094,-10.0552 443.221,-6.94039 433.362,-3.06031 433.094,-10.0552"/>
</g>
<!-- Node555&#45;&gt;Node556 -->
<g id="edge6" class="edge"><title>Node555&#45;&gt;Node556</title>
<path fill="none" stroke="midnightblue" d="M401.682,-46.4997C410.54,-47.5649 419.54,-48.6472 428.228,-49.692"/>
<polygon fill="midnightblue" stroke="midnightblue" points="427.911,-53.179 438.257,-50.898 428.747,-46.229 427.911,-53.179"/>
</g>
<!-- Node555&#45;&gt;Node557 -->
<g id="edge7" class="edge"><title>Node555&#45;&gt;Node557</title>
<path fill="none" stroke="midnightblue" d="M384.933,-28.4423C400.553,-25.6742 417.631,-22.6476 433.354,-19.8613"/>
<polygon fill="midnightblue" stroke="midnightblue" points="434.226,-23.2615 443.461,-18.0701 433.004,-16.3689 434.226,-23.2615"/>
</g>
</g>
</svg>
