<?xml version="1.0" encoding="UTF-8" standalone="no"?>
<!DOCTYPE svg PUBLIC "-//W3C//DTD SVG 1.1//EN"
 "http://www.w3.org/Graphics/SVG/1.1/DTD/svg11.dtd">
<!-- Generated by graphviz version 2.36.0 (20140111.2315)
 -->
<!-- Title: NDReportResults Pages: 1 -->
<svg width="384pt" height="104pt"
 viewBox="0.00 0.00 384.00 104.00" xmlns="http://www.w3.org/2000/svg" xmlns:xlink="http://www.w3.org/1999/xlink">
<g id="graph0" class="graph" transform="scale(1 1) rotate(0) translate(4 100)">
<title>NDReportResults</title>
<polygon fill="white" stroke="none" points="-4,4 -4,-100 380,-100 380,4 -4,4"/>
<!-- Node37 -->
<g id="node1" class="node"><title>Node37</title>
<polygon fill="#bfbfbf" stroke="black" points="0,-38.5 0,-57.5 94,-57.5 94,-38.5 0,-38.5"/>
<text text-anchor="middle" x="47" y="-45.5" font-family="Helvetica,sans-Serif" font-size="10.00">NDReportResults</text>
</g>
<!-- Node38 -->
<g id="node2" class="node"><title>Node38</title>
<g id="a_node2"><a xlink:href="a00951.html#a929cf6af13d6bf71bc61657211472eed" target="_top" xlink:title="ComputeFillIn">
<polygon fill="white" stroke="black" points="130,-38.5 130,-57.5 208,-57.5 208,-38.5 130,-38.5"/>
<text text-anchor="middle" x="169" y="-45.5" font-family="Helvetica,sans-Serif" font-size="10.00">ComputeFillIn</text>
</a>
</g>
</g>
<!-- Node37&#45;&gt;Node38 -->
<g id="edge1" class="edge"><title>Node37&#45;&gt;Node38</title>
<path fill="none" stroke="midnightblue" d="M94.0519,-48C102.416,-48 111.163,-48 119.593,-48"/>
<polygon fill="midnightblue" stroke="midnightblue" points="119.67,-51.5001 129.67,-48 119.67,-44.5001 119.67,-51.5001"/>
</g>
<!-- Node39 -->
<g id="node3" class="node"><title>Node39</title>
<g id="a_node3"><a xlink:href="a00329.html#a4c231449fdf45c79d8d5107ad63b3451" target="_top" xlink:title="smbfct">
<polygon fill="white" stroke="black" points="244,-76.5 244,-95.5 290,-95.5 290,-76.5 244,-76.5"/>
<text text-anchor="middle" x="267" y="-83.5" font-family="Helvetica,sans-Serif" font-size="10.00">smbfct</text>
</a>
</g>
</g>
<!-- Node38&#45;&gt;Node39 -->
<g id="edge2" class="edge"><title>Node38&#45;&gt;Node39</title>
<path fill="none" stroke="midnightblue" d="M194.225,-57.589C206.353,-62.3897 221.19,-68.2627 234.22,-73.4204"/>
<polygon fill="midnightblue" stroke="midnightblue" points="233.171,-76.7693 243.757,-77.1955 235.747,-70.2606 233.171,-76.7693"/>
</g>
<!-- Node40 -->
<g id="node4" class="node"><title>Node40</title>
<g id="a_node4"><a xlink:href="a00077.html#ac8df62c4e3d0910711a9874f9cc58884" target="_top" xlink:title="gk_free">
<polygon fill="white" stroke="black" points="326,-57.5 326,-76.5 376,-76.5 376,-57.5 326,-57.5"/>
<text text-anchor="middle" x="351" y="-64.5" font-family="Helvetica,sans-Serif" font-size="10.00">gk_free</text>
</a>
</g>
</g>
<!-- Node38&#45;&gt;Node40 -->
<g id="edge4" class="edge"><title>Node38&#45;&gt;Node40</title>
<path fill="none" stroke="midnightblue" d="M208.173,-52.0294C240.022,-55.3912 285.005,-60.1394 315.717,-63.3812"/>
<polygon fill="midnightblue" stroke="midnightblue" points="315.628,-66.8912 325.94,-64.4604 316.363,-59.9299 315.628,-66.8912"/>
</g>
<!-- Node41 -->
<g id="node5" class="node"><title>Node41</title>
<g id="a_node5"><a xlink:href="a00026.html#a56d0f2cc40cd8633a784582d6200d8b5" target="_top" xlink:title="errexit">
<polygon fill="white" stroke="black" points="245,-0.5 245,-19.5 289,-19.5 289,-0.5 245,-0.5"/>
<text text-anchor="middle" x="267" y="-7.5" font-family="Helvetica,sans-Serif" font-size="10.00">errexit</text>
</a>
</g>
</g>
<!-- Node38&#45;&gt;Node41 -->
<g id="edge5" class="edge"><title>Node38&#45;&gt;Node41</title>
<path fill="none" stroke="midnightblue" d="M194.225,-38.411C206.618,-33.5052 221.841,-27.4796 235.073,-22.2418"/>
<polygon fill="midnightblue" stroke="midnightblue" points="236.714,-25.3565 244.724,-18.4216 234.138,-18.8479 236.714,-25.3565"/>
</g>
<!-- Node39&#45;&gt;Node40 -->
<g id="edge3" class="edge"><title>Node39&#45;&gt;Node40</title>
<path fill="none" stroke="midnightblue" d="M290.407,-80.8082C298.314,-78.976 307.392,-76.8726 316.039,-74.869"/>
<polygon fill="midnightblue" stroke="midnightblue" points="316.944,-78.2521 325.896,-72.5851 315.364,-71.4327 316.944,-78.2521"/>
</g>
<!-- Node42 -->
<g id="node6" class="node"><title>Node42</title>
<g id="a_node6"><a xlink:href="a01017.html#a2e311a777ffe9c80e405efa7cd2757be" target="_top" xlink:title="fprintf">
<polygon fill="white" stroke="black" points="330,-0.5 330,-19.5 372,-19.5 372,-0.5 330,-0.5"/>
<text text-anchor="middle" x="351" y="-7.5" font-family="Helvetica,sans-Serif" font-size="10.00">fprintf</text>
</a>
</g>
</g>
<!-- Node41&#45;&gt;Node42 -->
<g id="edge6" class="edge"><title>Node41&#45;&gt;Node42</title>
<path fill="none" stroke="midnightblue" d="M289.117,-10C298.415,-10 309.513,-10 319.671,-10"/>
<polygon fill="midnightblue" stroke="midnightblue" points="319.803,-13.5001 329.803,-10 319.803,-6.5001 319.803,-13.5001"/>
</g>
</g>
</svg>
