<?xml version="1.0" encoding="UTF-8" standalone="no"?>
<!DOCTYPE svg PUBLIC "-//W3C//DTD SVG 1.1//EN"
 "http://www.w3.org/Graphics/SVG/1.1/DTD/svg11.dtd">
<!-- Generated by graphviz version 2.36.0 (20140111.2315)
 -->
<!-- Title: SplitGraphOrderCC Pages: 1 -->
<svg width="488pt" height="46pt"
 viewBox="0.00 0.00 488.00 46.00" xmlns="http://www.w3.org/2000/svg" xmlns:xlink="http://www.w3.org/1999/xlink">
<g id="graph0" class="graph" transform="scale(1 1) rotate(0) translate(4 42)">
<title>SplitGraphOrderCC</title>
<polygon fill="white" stroke="none" points="-4,4 -4,-42 484,-42 484,4 -4,4"/>
<!-- Node974 -->
<g id="node1" class="node"><title>Node974</title>
<polygon fill="#bfbfbf" stroke="black" points="0,-0.5 0,-19.5 104,-19.5 104,-0.5 0,-0.5"/>
<text text-anchor="middle" x="52" y="-7.5" font-family="Helvetica,sans-Serif" font-size="10.00">SplitGraphOrderCC</text>
</g>
<!-- Node975 -->
<g id="node2" class="node"><title>Node975</title>
<g id="a_node2"><a xlink:href="a00948.html#a3ef15d1ffff55a81b8486bee09239073" target="_top" xlink:title="MlevelNestedDissectionCC">
<polygon fill="white" stroke="black" points="140,-0.5 140,-19.5 278,-19.5 278,-0.5 140,-0.5"/>
<text text-anchor="middle" x="209" y="-7.5" font-family="Helvetica,sans-Serif" font-size="10.00">MlevelNestedDissectionCC</text>
</a>
</g>
</g>
<!-- Node974&#45;&gt;Node975 -->
<g id="edge1" class="edge"><title>Node974&#45;&gt;Node975</title>
<path fill="none" stroke="midnightblue" d="M114.234,-10C122.605,-10 131.242,-10 139.728,-10"/>
<polygon fill="midnightblue" stroke="midnightblue" points="114.182,-6.5001 104.182,-10 114.182,-13.5001 114.182,-6.5001"/>
</g>
<!-- Node975&#45;&gt;Node975 -->
<g id="edge4" class="edge"><title>Node975&#45;&gt;Node975</title>
<path fill="none" stroke="midnightblue" d="M181.001,-28.6539C182.171,-33.9368 191.504,-38 209,-38 235.66,-38 243.367,-28.5653 232.119,-19.7571"/>
<polygon fill="midnightblue" stroke="midnightblue" points="184.14,-30.208 185.881,-19.7571 178.003,-26.8417 184.14,-30.208"/>
</g>
<!-- Node976 -->
<g id="node3" class="node"><title>Node976</title>
<g id="a_node3"><a xlink:href="a00936.html#a8304f0dd6d180587f73b0b70de3b01b7" target="_top" xlink:title="METIS_NodeND">
<polygon fill="white" stroke="black" points="314.5,-0.5 314.5,-19.5 405.5,-19.5 405.5,-0.5 314.5,-0.5"/>
<text text-anchor="middle" x="360" y="-7.5" font-family="Helvetica,sans-Serif" font-size="10.00">METIS_NodeND</text>
</a>
</g>
</g>
<!-- Node975&#45;&gt;Node976 -->
<g id="edge2" class="edge"><title>Node975&#45;&gt;Node976</title>
<path fill="none" stroke="midnightblue" d="M288.458,-10C297.367,-10 306.2,-10 314.446,-10"/>
<polygon fill="midnightblue" stroke="midnightblue" points="288.395,-6.5001 278.395,-10 288.395,-13.5001 288.395,-6.5001"/>
</g>
<!-- Node977 -->
<g id="node4" class="node"><title>Node977</title>
<g id="a_node4"><a xlink:href="a00326.html#a0ddf1224851353fc92bfbff6f499fa97" target="_top" xlink:title="main">
<polygon fill="white" stroke="black" points="442,-0.5 442,-19.5 480,-19.5 480,-0.5 442,-0.5"/>
<text text-anchor="middle" x="461" y="-7.5" font-family="Helvetica,sans-Serif" font-size="10.00">main</text>
</a>
</g>
</g>
<!-- Node976&#45;&gt;Node977 -->
<g id="edge3" class="edge"><title>Node976&#45;&gt;Node977</title>
<path fill="none" stroke="midnightblue" d="M415.748,-10C425.09,-10 434.179,-10 441.665,-10"/>
<polygon fill="midnightblue" stroke="midnightblue" points="415.577,-6.5001 405.577,-10 415.577,-13.5001 415.577,-6.5001"/>
</g>
</g>
</svg>
