<?xml version="1.0" encoding="UTF-8" standalone="no"?>
<!DOCTYPE svg PUBLIC "-//W3C//DTD SVG 1.1//EN"
 "http://www.w3.org/Graphics/SVG/1.1/DTD/svg11.dtd">
<!-- Generated by graphviz version 2.36.0 (20140111.2315)
 -->
<!-- Title: ComputeKWayVolGains Pages: 1 -->
<svg width="432pt" height="66pt"
 viewBox="0.00 0.00 432.00 66.00" xmlns="http://www.w3.org/2000/svg" xmlns:xlink="http://www.w3.org/1999/xlink">
<g id="graph0" class="graph" transform="scale(1 1) rotate(0) translate(4 62)">
<title>ComputeKWayVolGains</title>
<polygon fill="white" stroke="none" points="-4,4 -4,-62 428,-62 428,4 -4,4"/>
<!-- Node21 -->
<g id="node1" class="node"><title>Node21</title>
<polygon fill="#bfbfbf" stroke="black" points="0,-19.5 0,-38.5 124,-38.5 124,-19.5 0,-19.5"/>
<text text-anchor="middle" x="62" y="-26.5" font-family="Helvetica,sans-Serif" font-size="10.00">ComputeKWayVolGains</text>
</g>
<!-- Node22 -->
<g id="node2" class="node"><title>Node22</title>
<g id="a_node2"><a xlink:href="a00948.html#afd723ab2f44ffaa25d1d9f1909e06dfd" target="_top" xlink:title="ComputeKWayPartitionParams">
<polygon fill="white" stroke="black" points="160.5,-38.5 160.5,-57.5 315.5,-57.5 315.5,-38.5 160.5,-38.5"/>
<text text-anchor="middle" x="238" y="-45.5" font-family="Helvetica,sans-Serif" font-size="10.00">ComputeKWayPartitionParams</text>
</a>
</g>
</g>
<!-- Node21&#45;&gt;Node22 -->
<g id="edge1" class="edge"><title>Node21&#45;&gt;Node22</title>
<path fill="none" stroke="midnightblue" d="M134.309,-36.7866C142.896,-37.7243 151.694,-38.685 160.354,-39.6306"/>
<polygon fill="midnightblue" stroke="midnightblue" points="134.667,-33.305 124.346,-35.6987 133.907,-40.2636 134.667,-33.305"/>
</g>
<!-- Node24 -->
<g id="node4" class="node"><title>Node24</title>
<g id="a_node4"><a xlink:href="a00948.html#a974cb62c010e195c90f8fb900359957c" target="_top" xlink:title="ProjectKWayPartition">
<polygon fill="white" stroke="black" points="182.5,-0.5 182.5,-19.5 293.5,-19.5 293.5,-0.5 182.5,-0.5"/>
<text text-anchor="middle" x="238" y="-7.5" font-family="Helvetica,sans-Serif" font-size="10.00">ProjectKWayPartition</text>
</a>
</g>
</g>
<!-- Node21&#45;&gt;Node24 -->
<g id="edge3" class="edge"><title>Node21&#45;&gt;Node24</title>
<path fill="none" stroke="midnightblue" d="M134.674,-21.1736C150.58,-19.4367 167.192,-17.6227 182.291,-15.9739"/>
<polygon fill="midnightblue" stroke="midnightblue" points="133.907,-17.7364 124.346,-22.3013 134.667,-24.695 133.907,-17.7364"/>
</g>
<!-- Node23 -->
<g id="node3" class="node"><title>Node23</title>
<g id="a_node3"><a xlink:href="a00948.html#adeb3fad496482fea745a00c7b39ca7cf" target="_top" xlink:title="RefineKWay">
<polygon fill="white" stroke="black" points="352,-19.5 352,-38.5 424,-38.5 424,-19.5 352,-19.5"/>
<text text-anchor="middle" x="388" y="-26.5" font-family="Helvetica,sans-Serif" font-size="10.00">RefineKWay</text>
</a>
</g>
</g>
<!-- Node22&#45;&gt;Node23 -->
<g id="edge2" class="edge"><title>Node22&#45;&gt;Node23</title>
<path fill="none" stroke="midnightblue" d="M323.444,-37.1592C333.396,-35.8815 343.091,-34.6369 351.79,-33.5202"/>
<polygon fill="midnightblue" stroke="midnightblue" points="322.906,-33.6994 313.434,-38.4443 323.798,-40.6424 322.906,-33.6994"/>
</g>
<!-- Node24&#45;&gt;Node23 -->
<g id="edge4" class="edge"><title>Node24&#45;&gt;Node23</title>
<path fill="none" stroke="midnightblue" d="M303.849,-18.3252C320.341,-20.4425 337.45,-22.6388 351.829,-24.4848"/>
<polygon fill="midnightblue" stroke="midnightblue" points="304.054,-14.8228 293.689,-17.0209 303.162,-21.7658 304.054,-14.8228"/>
</g>
</g>
</svg>
