<?xml version="1.0" encoding="UTF-8" standalone="no"?>
<!DOCTYPE svg PUBLIC "-//W3C//DTD SVG 1.1//EN"
 "http://www.w3.org/Graphics/SVG/1.1/DTD/svg11.dtd">
<!-- Generated by graphviz version 2.36.0 (20140111.2315)
 -->
<!-- Title: parse_cmdline Pages: 1 -->
<!--zoomable 167 -->
<svg id="main" version="1.1" xmlns="http://www.w3.org/2000/svg" xmlns:xlink="http://www.w3.org/1999/xlink" xml:space="preserve" onload="init(evt)">
<style type="text/css"><![CDATA[
.edge:hover path { stroke: red; }
.edge:hover polygon { stroke: red; fill: red; }
]]></style>
<script type="text/javascript"><![CDATA[
var edges = document.getElementsByTagName('g');
if (edges && edges.length) {
  for (var i=0;i<edges.length;i++) {
    if (edges[i].id.substr(0,4)=='edge') {
      edges[i].setAttribute('class','edge');
    }
  }
}
]]></script>
        <defs>
                <circle id="rim" cx="0" cy="0" r="7"/>
                <circle id="rim2" cx="0" cy="0" r="3.5"/>
                <g id="zoomPlus">
                        <use xlink:href="#rim" fill="#404040">
                                <set attributeName="fill" to="#808080" begin="zoomplus.mouseover" end="zoomplus.mouseout"/>
                        </use>
                        <path d="M-4,0h8M0,-4v8" fill="none" stroke="white" stroke-width="1.5" pointer-events="none"/>
                </g>
                <g id="zoomMin">
                        <use xlink:href="#rim" fill="#404040">
                                <set attributeName="fill" to="#808080" begin="zoomminus.mouseover" end="zoomminus.mouseout"/>
                        </use>
                        <path d="M-4,0h8" fill="none" stroke="white" stroke-width="1.5" pointer-events="none"/>
                </g>
                <g id="dirArrow">
                        <path fill="none" stroke="white" stroke-width="1.5" d="M0,-3.0v7 M-2.5,-0.5L0,-3.0L2.5,-0.5"/>
                </g>
               <g id="resetDef">
                       <use xlink:href="#rim2" fill="#404040">
                               <set attributeName="fill" to="#808080" begin="reset.mouseover" end="reset.mouseout"/>
                       </use>
               </g>
        </defs>

<script type="text/javascript">
var viewWidth = 598;
var viewHeight = 167;
var sectionId = 'dynsection-15';
</script>
<script xlink:href="svgpan.js"/>
<svg id="graph" class="graph">
<g id="viewport">
<title>parse_cmdline</title>
<polygon fill="white" stroke="none" points="-4,4 -4,-163.386 594,-163.386 594,4 -4,4"/>
<!-- Node45 -->
<g id="node1" class="node"><title>Node45</title>
<polygon fill="#bfbfbf" stroke="black" points="0,-76.5 0,-95.5 82,-95.5 82,-76.5 0,-76.5"/>
<text text-anchor="middle" x="41" y="-83.5" font-family="Helvetica,sans-Serif" font-size="10.00">parse_cmdline</text>
</g>
<!-- Node46 -->
<g id="node2" class="node"><title>Node46</title>
<g id="a_node2"><a xlink:href="a00077.html#aba6f76f5c67b9b7e9c2e45988d3d3e9d" target="_top" xlink:title="gk_malloc">
<polygon fill="white" stroke="black" points="275,-95.5 275,-114.5 337,-114.5 337,-95.5 275,-95.5"/>
<text text-anchor="middle" x="306" y="-102.5" font-family="Helvetica,sans-Serif" font-size="10.00">gk_malloc</text>
</a>
</g>
</g>
<!-- Node45&#45;&gt;Node46 -->
<g id="edge1" class="edge"><title>Node45&#45;&gt;Node46</title>
<path fill="none" stroke="midnightblue" d="M50.671,-95.606C63.7044,-109.246 89.836,-133.612 118,-143 164.38,-158.46 180.39,-154.108 228,-143 247.173,-138.527 267.057,-128.555 281.816,-119.949"/>
<polygon fill="midnightblue" stroke="midnightblue" points="283.972,-122.735 290.715,-114.562 280.348,-116.746 283.972,-122.735"/>
</g>
<!-- Node51 -->
<g id="node7" class="node"><title>Node51</title>
<g id="a_node7"><a xlink:href="a00038.html#abb224612ca0aae2d39bd87f6146bd67d" target="_top" xlink:title="Parse command&#45;line arguments with only long options. ">
<polygon fill="white" stroke="black" points="118.5,-114.5 118.5,-133.5 227.5,-133.5 227.5,-114.5 118.5,-114.5"/>
<text text-anchor="middle" x="173" y="-121.5" font-family="Helvetica,sans-Serif" font-size="10.00">gk_getopt_long_only</text>
</a>
</g>
</g>
<!-- Node45&#45;&gt;Node51 -->
<g id="edge7" class="edge"><title>Node45&#45;&gt;Node51</title>
<path fill="none" stroke="midnightblue" d="M74.8045,-95.589C91.2783,-100.404 111.443,-106.299 129.127,-111.468"/>
<polygon fill="midnightblue" stroke="midnightblue" points="128.626,-114.968 139.206,-114.414 130.59,-108.249 128.626,-114.968"/>
</g>
<!-- Node52 -->
<g id="node8" class="node"><title>Node52</title>
<g id="a_node8"><a xlink:href="a00077.html#af62038e97ca55f14ec2557a01bd85ca2" target="_top" xlink:title="Duplicates a string. ">
<polygon fill="white" stroke="black" points="143,-76.5 143,-95.5 203,-95.5 203,-76.5 143,-76.5"/>
<text text-anchor="middle" x="173" y="-83.5" font-family="Helvetica,sans-Serif" font-size="10.00">gk_strdup</text>
</a>
</g>
</g>
<!-- Node45&#45;&gt;Node52 -->
<g id="edge8" class="edge"><title>Node45&#45;&gt;Node52</title>
<path fill="none" stroke="midnightblue" d="M82.065,-86C98.099,-86 116.519,-86 132.496,-86"/>
<polygon fill="midnightblue" stroke="midnightblue" points="132.594,-89.5001 142.594,-86 132.594,-82.5001 132.594,-89.5001"/>
</g>
<!-- Node53 -->
<g id="node9" class="node"><title>Node53</title>
<g id="a_node9"><a xlink:href="a00077.html#acd02cb328067e37baaeff8c7d887dc10" target="_top" xlink:title="gk_GetStringID">
<polygon fill="white" stroke="black" points="130.5,-38.5 130.5,-57.5 215.5,-57.5 215.5,-38.5 130.5,-38.5"/>
<text text-anchor="middle" x="173" y="-45.5" font-family="Helvetica,sans-Serif" font-size="10.00">gk_GetStringID</text>
</a>
</g>
</g>
<!-- Node45&#45;&gt;Node53 -->
<g id="edge10" class="edge"><title>Node45&#45;&gt;Node53</title>
<path fill="none" stroke="midnightblue" d="M74.8045,-76.411C91.2783,-71.5956 111.443,-65.7012 129.127,-60.532"/>
<polygon fill="midnightblue" stroke="midnightblue" points="130.59,-63.7511 139.206,-57.5859 128.626,-57.0323 130.59,-63.7511"/>
</g>
<!-- Node55 -->
<g id="node11" class="node"><title>Node55</title>
<g id="a_node11"><a xlink:href="a00026.html#a56d0f2cc40cd8633a784582d6200d8b5" target="_top" xlink:title="errexit">
<polygon fill="white" stroke="black" points="284,-0.5 284,-19.5 328,-19.5 328,-0.5 284,-0.5"/>
<text text-anchor="middle" x="306" y="-7.5" font-family="Helvetica,sans-Serif" font-size="10.00">errexit</text>
</a>
</g>
</g>
<!-- Node45&#45;&gt;Node55 -->
<g id="edge12" class="edge"><title>Node45&#45;&gt;Node55</title>
<path fill="none" stroke="midnightblue" d="M51.251,-76.3246C64.5934,-63.0661 90.6544,-39.6813 118,-29 169.734,-8.7927 235.334,-7.05642 273.497,-8.16248"/>
<polygon fill="midnightblue" stroke="midnightblue" points="273.831,-11.6775 283.956,-8.55808 274.095,-4.68254 273.831,-11.6775"/>
</g>
<!-- Node47 -->
<g id="node3" class="node"><title>Node47</title>
<g id="a_node3"><a xlink:href="a01017.html#a2e311a777ffe9c80e405efa7cd2757be" target="_top" xlink:title="fprintf">
<polygon fill="white" stroke="black" points="548,-38.5 548,-57.5 590,-57.5 590,-38.5 548,-38.5"/>
<text text-anchor="middle" x="569" y="-45.5" font-family="Helvetica,sans-Serif" font-size="10.00">fprintf</text>
</a>
</g>
</g>
<!-- Node46&#45;&gt;Node47 -->
<g id="edge2" class="edge"><title>Node46&#45;&gt;Node47</title>
<path fill="none" stroke="midnightblue" d="M321.285,-114.562C336.198,-123.923 360.627,-137.547 384,-143 439.401,-155.926 462.605,-171.221 512,-143 540.286,-126.839 555.71,-90.1917 562.874,-67.431"/>
<polygon fill="midnightblue" stroke="midnightblue" points="566.323,-68.1029 565.748,-57.5237 559.6,-66.153 566.323,-68.1029"/>
</g>
<!-- Node48 -->
<g id="node4" class="node"><title>Node48</title>
<g id="a_node4"><a xlink:href="a00110.html#ad2327b94227019b6753b6b09400c0522" target="_top" xlink:title="gk_GetCurMemoryUsed">
<polygon fill="white" stroke="black" points="386,-114.5 386,-133.5 510,-133.5 510,-114.5 386,-114.5"/>
<text text-anchor="middle" x="448" y="-121.5" font-family="Helvetica,sans-Serif" font-size="10.00">gk_GetCurMemoryUsed</text>
</a>
</g>
</g>
<!-- Node46&#45;&gt;Node48 -->
<g id="edge3" class="edge"><title>Node46&#45;&gt;Node48</title>
<path fill="none" stroke="midnightblue" d="M337.034,-109.076C348.542,-110.638 362.217,-112.494 375.947,-114.357"/>
<polygon fill="midnightblue" stroke="midnightblue" points="375.543,-117.834 385.923,-115.711 376.485,-110.898 375.543,-117.834"/>
</g>
<!-- Node49 -->
<g id="node5" class="node"><title>Node49</title>
<g id="a_node5"><a xlink:href="a00110.html#a656fd5266ae12a96e53125486f8fea52" target="_top" xlink:title="gk_GetMaxMemoryUsed">
<polygon fill="white" stroke="black" points="384.5,-76.5 384.5,-95.5 511.5,-95.5 511.5,-76.5 384.5,-76.5"/>
<text text-anchor="middle" x="448" y="-83.5" font-family="Helvetica,sans-Serif" font-size="10.00">gk_GetMaxMemoryUsed</text>
</a>
</g>
</g>
<!-- Node46&#45;&gt;Node49 -->
<g id="edge4" class="edge"><title>Node46&#45;&gt;Node49</title>
<path fill="none" stroke="midnightblue" d="M337.034,-100.924C348.11,-99.4208 361.194,-97.6451 374.401,-95.8527"/>
<polygon fill="midnightblue" stroke="midnightblue" points="375.056,-99.296 384.494,-94.4829 374.114,-92.3596 375.056,-99.296"/>
</g>
<!-- Node50 -->
<g id="node6" class="node"><title>Node50</title>
<g id="a_node6"><a xlink:href="a00026.html#a4c320c13bcdc9967613253ef4c73f59f" target="_top" xlink:title="gk_errexit">
<polygon fill="white" stroke="black" points="418,-38.5 418,-57.5 478,-57.5 478,-38.5 418,-38.5"/>
<text text-anchor="middle" x="448" y="-45.5" font-family="Helvetica,sans-Serif" font-size="10.00">gk_errexit</text>
</a>
</g>
</g>
<!-- Node46&#45;&gt;Node50 -->
<g id="edge5" class="edge"><title>Node46&#45;&gt;Node50</title>
<path fill="none" stroke="midnightblue" d="M324.362,-95.3974C339.728,-87.1513 362.921,-75.3137 384,-67 391.707,-63.9605 400.102,-61.1184 408.178,-58.6058"/>
<polygon fill="midnightblue" stroke="midnightblue" points="409.233,-61.9435 417.803,-55.7133 407.218,-55.2397 409.233,-61.9435"/>
</g>
<!-- Node50&#45;&gt;Node47 -->
<g id="edge6" class="edge"><title>Node50&#45;&gt;Node47</title>
<path fill="none" stroke="midnightblue" d="M478.111,-48C496.172,-48 519.339,-48 537.631,-48"/>
<polygon fill="midnightblue" stroke="midnightblue" points="537.762,-51.5001 547.762,-48 537.762,-44.5001 537.762,-51.5001"/>
</g>
<!-- Node52&#45;&gt;Node46 -->
<g id="edge9" class="edge"><title>Node52&#45;&gt;Node46</title>
<path fill="none" stroke="midnightblue" d="M203.073,-90.2167C221.175,-92.8421 244.718,-96.2568 264.617,-99.1429"/>
<polygon fill="midnightblue" stroke="midnightblue" points="264.244,-102.625 274.642,-100.597 265.248,-95.6978 264.244,-102.625"/>
</g>
<!-- Node54 -->
<g id="node10" class="node"><title>Node54</title>
<g id="a_node10"><a xlink:href="a00143.html#a47570da67818e57e97fdd464bc60fbd1" target="_top" xlink:title="Case insensitive string comparison. ">
<polygon fill="white" stroke="black" points="264,-38.5 264,-57.5 348,-57.5 348,-38.5 264,-38.5"/>
<text text-anchor="middle" x="306" y="-45.5" font-family="Helvetica,sans-Serif" font-size="10.00">gk_strcasecmp</text>
</a>
</g>
</g>
<!-- Node53&#45;&gt;Node54 -->
<g id="edge11" class="edge"><title>Node53&#45;&gt;Node54</title>
<path fill="none" stroke="midnightblue" d="M215.809,-48C227.743,-48 240.89,-48 253.337,-48"/>
<polygon fill="midnightblue" stroke="midnightblue" points="253.587,-51.5001 263.587,-48 253.587,-44.5001 253.587,-51.5001"/>
</g>
<!-- Node55&#45;&gt;Node47 -->
<g id="edge13" class="edge"><title>Node55&#45;&gt;Node47</title>
<path fill="none" stroke="midnightblue" d="M328.198,-10.3326C365.678,-11.281 445.927,-14.9337 512,-29 520.733,-30.8592 529.995,-33.6479 538.42,-36.5201"/>
<polygon fill="midnightblue" stroke="midnightblue" points="537.247,-39.8179 547.842,-39.8795 539.598,-33.2244 537.247,-39.8179"/>
</g>
</g>
</svg>
        <g id="navigator" transform="translate(0 0)" fill="#404254">
                <rect fill="#f2f5e9" fill-opacity="0.5" stroke="#606060" stroke-width=".5" x="0" y="0" width="60" height="60"/>
                <use id="zoomplus" xlink:href="#zoomPlus" x="17" y="9" onmousedown="handleZoom(evt,'in')"/>
                <use id="zoomminus" xlink:href="#zoomMin" x="42" y="9" onmousedown="handleZoom(evt,'out')"/>
                <use id="reset" xlink:href="#resetDef" x="30" y="36" onmousedown="handleReset()"/>
                <g id="arrowUp" xlink:href="#dirArrow" transform="translate(30 24)" onmousedown="handlePan(0,-1)">
                  <use xlink:href="#rim" fill="#404040">
                        <set attributeName="fill" to="#808080" begin="arrowUp.mouseover" end="arrowUp.mouseout"/>
                  </use>
                  <path fill="none" stroke="white" stroke-width="1.5" d="M0,-3.0v7 M-2.5,-0.5L0,-3.0L2.5,-0.5"/>
                </g>
                <g id="arrowRight" xlink:href="#dirArrow" transform="rotate(90) translate(36 -43)" onmousedown="handlePan(1,0)">
                  <use xlink:href="#rim" fill="#404040">
                        <set attributeName="fill" to="#808080" begin="arrowRight.mouseover" end="arrowRight.mouseout"/>
                  </use>
                  <path fill="none" stroke="white" stroke-width="1.5" d="M0,-3.0v7 M-2.5,-0.5L0,-3.0L2.5,-0.5"/>
                </g>
                <g id="arrowDown" xlink:href="#dirArrow" transform="rotate(180) translate(-30 -48)" onmousedown="handlePan(0,1)">
                  <use xlink:href="#rim" fill="#404040">
                        <set attributeName="fill" to="#808080" begin="arrowDown.mouseover" end="arrowDown.mouseout"/>
                  </use>
                  <path fill="none" stroke="white" stroke-width="1.5" d="M0,-3.0v7 M-2.5,-0.5L0,-3.0L2.5,-0.5"/>
                </g>
                <g id="arrowLeft" xlink:href="#dirArrow" transform="rotate(270) translate(-36 17)" onmousedown="handlePan(-1,0)">
                  <use xlink:href="#rim" fill="#404040">
                        <set attributeName="fill" to="#808080" begin="arrowLeft.mouseover" end="arrowLeft.mouseout"/>
                  </use>
                  <path fill="none" stroke="white" stroke-width="1.5" d="M0,-3.0v7 M-2.5,-0.5L0,-3.0L2.5,-0.5"/>
                </g>
        </g>
        <svg viewBox="0 0 15 15" width="100%" height="30px" preserveAspectRatio="xMaxYMin meet">
         <g id="arrow_out" transform="scale(0.3 0.3)">
          <a xlink:href="a00951_a0e7ce196a2f8882777957bf898739f6f_cgraph_org.svg" target="_base">
           <rect id="button" ry="5" rx="5" y="6" x="6" height="38" width="38"
                fill="#f2f5e9" fill-opacity="0.5" stroke="#606060" stroke-width="1.0"/>
           <path id="arrow"
             d="M 11.500037,31.436501 C 11.940474,20.09759 22.043105,11.32322 32.158766,21.979434 L 37.068811,17.246167 C 37.068811,17.246167 37.088388,32 37.088388,32 L 22.160133,31.978069 C 22.160133,31.978069 26.997745,27.140456 26.997745,27.140456 C 18.528582,18.264221 13.291696,25.230495 11.500037,31.436501 z"
             style="fill:#404040;"/>
          </a>
         </g>
        </svg>
</svg>
