<?xml version="1.0" encoding="UTF-8" standalone="no"?>
<!DOCTYPE svg PUBLIC "-//W3C//DTD SVG 1.1//EN"
 "http://www.w3.org/Graphics/SVG/1.1/DTD/svg11.dtd">
<!-- Generated by graphviz version 2.36.0 (20140111.2315)
 -->
<!-- Title: MMDOrder Pages: 1 -->
<svg width="450pt" height="102pt"
 viewBox="0.00 0.00 450.00 102.00" xmlns="http://www.w3.org/2000/svg" xmlns:xlink="http://www.w3.org/1999/xlink">
<g id="graph0" class="graph" transform="scale(1 1) rotate(0) translate(4 98)">
<title>MMDOrder</title>
<polygon fill="white" stroke="none" points="-4,4 -4,-98 446,-98 446,4 -4,4"/>
<!-- Node767 -->
<g id="node1" class="node"><title>Node767</title>
<polygon fill="#bfbfbf" stroke="black" points="0,-28.5 0,-47.5 66,-47.5 66,-28.5 0,-28.5"/>
<text text-anchor="middle" x="33" y="-35.5" font-family="Helvetica,sans-Serif" font-size="10.00">MMDOrder</text>
</g>
<!-- Node768 -->
<g id="node2" class="node"><title>Node768</title>
<g id="a_node2"><a xlink:href="a00948.html#af853e9d8bbb2188f871fac436e631ed1" target="_top" xlink:title="MlevelNestedDissection">
<polygon fill="white" stroke="black" points="109.5,-56.5 109.5,-75.5 232.5,-75.5 232.5,-56.5 109.5,-56.5"/>
<text text-anchor="middle" x="171" y="-63.5" font-family="Helvetica,sans-Serif" font-size="10.00">MlevelNestedDissection</text>
</a>
</g>
</g>
<!-- Node767&#45;&gt;Node768 -->
<g id="edge1" class="edge"><title>Node767&#45;&gt;Node768</title>
<path fill="none" stroke="midnightblue" d="M76.3118,-46.7113C91.3952,-49.8167 108.455,-53.3291 123.845,-56.4976"/>
<polygon fill="midnightblue" stroke="midnightblue" points="76.7305,-43.2241 66.2301,-44.6356 75.3189,-50.0803 76.7305,-43.2241"/>
</g>
<!-- Node771 -->
<g id="node5" class="node"><title>Node771</title>
<g id="a_node5"><a xlink:href="a00948.html#a3ef15d1ffff55a81b8486bee09239073" target="_top" xlink:title="MlevelNestedDissectionCC">
<polygon fill="white" stroke="black" points="102,-0.5 102,-19.5 240,-19.5 240,-0.5 102,-0.5"/>
<text text-anchor="middle" x="171" y="-7.5" font-family="Helvetica,sans-Serif" font-size="10.00">MlevelNestedDissectionCC</text>
</a>
</g>
</g>
<!-- Node767&#45;&gt;Node771 -->
<g id="edge5" class="edge"><title>Node767&#45;&gt;Node771</title>
<path fill="none" stroke="midnightblue" d="M76.3118,-29.2887C91.3952,-26.1833 108.455,-22.6709 123.845,-19.5024"/>
<polygon fill="midnightblue" stroke="midnightblue" points="75.3189,-25.9197 66.2301,-31.3644 76.7305,-32.7759 75.3189,-25.9197"/>
</g>
<!-- Node768&#45;&gt;Node768 -->
<g id="edge4" class="edge"><title>Node768&#45;&gt;Node768</title>
<path fill="none" stroke="midnightblue" d="M145.33,-85.0292C146.731,-90.128 155.287,-94 171,-94 195.527,-94 202.617,-84.5653 192.27,-75.7571"/>
<polygon fill="midnightblue" stroke="midnightblue" points="148.605,-86.292 149.73,-75.7571 142.281,-83.2911 148.605,-86.292"/>
</g>
<!-- Node769 -->
<g id="node3" class="node"><title>Node769</title>
<g id="a_node3"><a xlink:href="a00936.html#a8304f0dd6d180587f73b0b70de3b01b7" target="_top" xlink:title="METIS_NodeND">
<polygon fill="white" stroke="black" points="276.5,-28.5 276.5,-47.5 367.5,-47.5 367.5,-28.5 276.5,-28.5"/>
<text text-anchor="middle" x="322" y="-35.5" font-family="Helvetica,sans-Serif" font-size="10.00">METIS_NodeND</text>
</a>
</g>
</g>
<!-- Node768&#45;&gt;Node769 -->
<g id="edge2" class="edge"><title>Node768&#45;&gt;Node769</title>
<path fill="none" stroke="midnightblue" d="M232.802,-54.574C247.371,-51.8363 262.664,-48.9625 276.347,-46.3911"/>
<polygon fill="midnightblue" stroke="midnightblue" points="232.042,-51.1556 222.861,-56.4423 233.335,-58.0351 232.042,-51.1556"/>
</g>
<!-- Node770 -->
<g id="node4" class="node"><title>Node770</title>
<g id="a_node4"><a xlink:href="a00326.html#a0ddf1224851353fc92bfbff6f499fa97" target="_top" xlink:title="main">
<polygon fill="white" stroke="black" points="404,-28.5 404,-47.5 442,-47.5 442,-28.5 404,-28.5"/>
<text text-anchor="middle" x="423" y="-35.5" font-family="Helvetica,sans-Serif" font-size="10.00">main</text>
</a>
</g>
</g>
<!-- Node769&#45;&gt;Node770 -->
<g id="edge3" class="edge"><title>Node769&#45;&gt;Node770</title>
<path fill="none" stroke="midnightblue" d="M377.748,-38C387.09,-38 396.179,-38 403.665,-38"/>
<polygon fill="midnightblue" stroke="midnightblue" points="377.577,-34.5001 367.577,-38 377.577,-41.5001 377.577,-34.5001"/>
</g>
<!-- Node771&#45;&gt;Node769 -->
<g id="edge6" class="edge"><title>Node771&#45;&gt;Node769</title>
<path fill="none" stroke="midnightblue" d="M232.802,-21.426C247.371,-24.1637 262.664,-27.0375 276.347,-29.6089"/>
<polygon fill="midnightblue" stroke="midnightblue" points="233.335,-17.9649 222.861,-19.5577 232.042,-24.8444 233.335,-17.9649"/>
</g>
<!-- Node771&#45;&gt;Node771 -->
<g id="edge7" class="edge"><title>Node771&#45;&gt;Node771</title>
<path fill="none" stroke="midnightblue" d="M145.33,-29.0292C146.731,-34.128 155.287,-38 171,-38 195.527,-38 202.617,-28.5653 192.27,-19.7571"/>
<polygon fill="midnightblue" stroke="midnightblue" points="148.605,-30.292 149.73,-19.7571 142.281,-27.2911 148.605,-30.292"/>
</g>
</g>
</svg>
