<?xml version="1.0" encoding="UTF-8" standalone="no"?>
<!DOCTYPE svg PUBLIC "-//W3C//DTD SVG 1.1//EN"
 "http://www.w3.org/Graphics/SVG/1.1/DTD/svg11.dtd">
<!-- Generated by graphviz version 2.36.0 (20140111.2315)
 -->
<!-- Title: MlevelKWayPartitioning Pages: 1 -->
<svg width="556pt" height="294pt"
 viewBox="0.00 0.00 556.00 294.00" xmlns="http://www.w3.org/2000/svg" xmlns:xlink="http://www.w3.org/1999/xlink">
<g id="graph0" class="graph" transform="scale(1 1) rotate(0) translate(4 290)">
<title>MlevelKWayPartitioning</title>
<polygon fill="white" stroke="none" points="-4,4 -4,-290 552,-290 552,4 -4,4"/>
<!-- Node65 -->
<g id="node1" class="node"><title>Node65</title>
<polygon fill="#bfbfbf" stroke="black" points="0,-133.5 0,-152.5 122,-152.5 122,-133.5 0,-133.5"/>
<text text-anchor="middle" x="61" y="-140.5" font-family="Helvetica,sans-Serif" font-size="10.00">MlevelKWayPartitioning</text>
</g>
<!-- Node66 -->
<g id="node2" class="node"><title>Node66</title>
<g id="a_node2"><a xlink:href="a00912.html#af89851458c047aba436b36ed567441e4" target="_top" xlink:title="METIS_PartGraphKway">
<polygon fill="white" stroke="black" points="158.5,-133.5 158.5,-152.5 281.5,-152.5 281.5,-133.5 158.5,-133.5"/>
<text text-anchor="middle" x="220" y="-140.5" font-family="Helvetica,sans-Serif" font-size="10.00">METIS_PartGraphKway</text>
</a>
</g>
</g>
<!-- Node65&#45;&gt;Node66 -->
<g id="edge1" class="edge"><title>Node65&#45;&gt;Node66</title>
<path fill="none" stroke="midnightblue" d="M132.361,-143C141.047,-143 149.868,-143 158.391,-143"/>
<polygon fill="midnightblue" stroke="midnightblue" points="132.251,-139.5 122.251,-143 132.251,-146.5 132.251,-139.5"/>
</g>
<!-- Node67 -->
<g id="node3" class="node"><title>Node67</title>
<g id="a_node3"><a xlink:href="a00846.html#a6df93293cf3d1ccb4659bd1b3091623d" target="_top" xlink:title="ParMETIS_V3_PartGeomKway">
<polygon fill="white" stroke="black" points="318,-266.5 318,-285.5 474,-285.5 474,-266.5 318,-266.5"/>
<text text-anchor="middle" x="396" y="-273.5" font-family="Helvetica,sans-Serif" font-size="10.00">ParMETIS_V3_PartGeomKway</text>
</a>
</g>
</g>
<!-- Node66&#45;&gt;Node67 -->
<g id="edge2" class="edge"><title>Node66&#45;&gt;Node67</title>
<path fill="none" stroke="midnightblue" d="M231.51,-161.425C247.049,-186.942 278.608,-232.639 318,-257 324.324,-260.911 331.406,-264.017 338.645,-266.484"/>
<polygon fill="midnightblue" stroke="midnightblue" points="234.463,-159.542 226.356,-152.721 228.44,-163.109 234.463,-159.542"/>
</g>
<!-- Node68 -->
<g id="node4" class="node"><title>Node68</title>
<g id="a_node4"><a xlink:href="a00954.html#aa24ead3c2c8fb3e58110f1f79453ce29" target="_top" xlink:title="Balance_Partition">
<polygon fill="white" stroke="black" points="348.5,-228.5 348.5,-247.5 443.5,-247.5 443.5,-228.5 348.5,-228.5"/>
<text text-anchor="middle" x="396" y="-235.5" font-family="Helvetica,sans-Serif" font-size="10.00">Balance_Partition</text>
</a>
</g>
</g>
<!-- Node66&#45;&gt;Node68 -->
<g id="edge3" class="edge"><title>Node66&#45;&gt;Node68</title>
<path fill="none" stroke="midnightblue" d="M237.68,-159.747C255.885,-177.084 286.644,-203.727 318,-219 327.408,-223.582 338.016,-227.119 348.283,-229.826"/>
<polygon fill="midnightblue" stroke="midnightblue" points="239.851,-156.975 230.242,-152.51 234.969,-161.992 239.851,-156.975"/>
</g>
<!-- Node69 -->
<g id="node5" class="node"><title>Node69</title>
<g id="a_node5"><a xlink:href="a00416.html#af4fae82dc1fc688ae704c61e647d33e4" target="_top" xlink:title="PartitionSmallGraph">
<polygon fill="white" stroke="black" points="343,-190.5 343,-209.5 449,-209.5 449,-190.5 343,-190.5"/>
<text text-anchor="middle" x="396" y="-197.5" font-family="Helvetica,sans-Serif" font-size="10.00">PartitionSmallGraph</text>
</a>
</g>
</g>
<!-- Node66&#45;&gt;Node69 -->
<g id="edge4" class="edge"><title>Node66&#45;&gt;Node69</title>
<path fill="none" stroke="midnightblue" d="M252.323,-156.482C271.141,-164.276 295.689,-173.911 318,-181 328.892,-184.461 340.815,-187.675 351.956,-190.438"/>
<polygon fill="midnightblue" stroke="midnightblue" points="253.623,-153.232 243.047,-152.597 250.919,-159.688 253.623,-153.232"/>
</g>
<!-- Node70 -->
<g id="node6" class="node"><title>Node70</title>
<g id="a_node6"><a xlink:href="a00954.html#a5358042c354702d9e8128f7cc342a322" target="_top" xlink:title="InitPartition">
<polygon fill="white" stroke="black" points="362.5,-152.5 362.5,-171.5 429.5,-171.5 429.5,-152.5 362.5,-152.5"/>
<text text-anchor="middle" x="396" y="-159.5" font-family="Helvetica,sans-Serif" font-size="10.00">InitPartition</text>
</a>
</g>
</g>
<!-- Node66&#45;&gt;Node70 -->
<g id="edge5" class="edge"><title>Node66&#45;&gt;Node70</title>
<path fill="none" stroke="midnightblue" d="M291.825,-150.734C316.236,-153.399 342.409,-156.257 362.285,-158.428"/>
<polygon fill="midnightblue" stroke="midnightblue" points="292.178,-147.252 281.857,-149.645 291.418,-154.21 292.178,-147.252"/>
</g>
<!-- Node71 -->
<g id="node7" class="node"><title>Node71</title>
<g id="a_node7"><a xlink:href="a00846.html#af418d1e76eaf4f80116da4caf51bd54e" target="_top" xlink:title="ParMETIS_V3_PartKway">
<polygon fill="white" stroke="black" points="331.5,-114.5 331.5,-133.5 460.5,-133.5 460.5,-114.5 331.5,-114.5"/>
<text text-anchor="middle" x="396" y="-121.5" font-family="Helvetica,sans-Serif" font-size="10.00">ParMETIS_V3_PartKway</text>
</a>
</g>
</g>
<!-- Node66&#45;&gt;Node71 -->
<g id="edge6" class="edge"><title>Node66&#45;&gt;Node71</title>
<path fill="none" stroke="midnightblue" d="M292.116,-135.235C305.066,-133.82 318.502,-132.353 331.224,-130.964"/>
<polygon fill="midnightblue" stroke="midnightblue" points="291.418,-131.79 281.857,-136.355 292.178,-138.748 291.418,-131.79"/>
</g>
<!-- Node72 -->
<g id="node8" class="node"><title>Node72</title>
<g id="a_node8"><a xlink:href="a00236.html#ade1e7e23ad687989a6343b4fb8d61ba7" target="_top" xlink:title="METIS_PartMeshNodal">
<polygon fill="white" stroke="black" points="335,-76.5 335,-95.5 457,-95.5 457,-76.5 335,-76.5"/>
<text text-anchor="middle" x="396" y="-83.5" font-family="Helvetica,sans-Serif" font-size="10.00">METIS_PartMeshNodal</text>
</a>
</g>
</g>
<!-- Node66&#45;&gt;Node72 -->
<g id="edge7" class="edge"><title>Node66&#45;&gt;Node72</title>
<path fill="none" stroke="midnightblue" d="M252.323,-129.518C271.141,-121.724 295.689,-112.089 318,-105 328.892,-101.539 340.815,-98.3254 351.956,-95.5621"/>
<polygon fill="midnightblue" stroke="midnightblue" points="250.919,-126.312 243.047,-133.403 253.623,-132.768 250.919,-126.312"/>
</g>
<!-- Node74 -->
<g id="node10" class="node"><title>Node74</title>
<g id="a_node10"><a xlink:href="a00236.html#a8f496ac1cd2246b124da246b5c6f9193" target="_top" xlink:title="METIS_PartMeshDual">
<polygon fill="white" stroke="black" points="338,-38.5 338,-57.5 454,-57.5 454,-38.5 338,-38.5"/>
<text text-anchor="middle" x="396" y="-45.5" font-family="Helvetica,sans-Serif" font-size="10.00">METIS_PartMeshDual</text>
</a>
</g>
</g>
<!-- Node66&#45;&gt;Node74 -->
<g id="edge9" class="edge"><title>Node66&#45;&gt;Node74</title>
<path fill="none" stroke="midnightblue" d="M237.68,-126.253C255.885,-108.916 286.644,-82.2732 318,-67 325.922,-63.1412 334.696,-60.0242 343.4,-57.5194"/>
<polygon fill="midnightblue" stroke="midnightblue" points="234.969,-124.008 230.242,-133.49 239.851,-129.025 234.969,-124.008"/>
</g>
<!-- Node75 -->
<g id="node11" class="node"><title>Node75</title>
<g id="a_node11"><a xlink:href="a00311.html#a0ddf1224851353fc92bfbff6f499fa97" target="_top" xlink:title="main">
<polygon fill="white" stroke="black" points="377,-0.5 377,-19.5 415,-19.5 415,-0.5 377,-0.5"/>
<text text-anchor="middle" x="396" y="-7.5" font-family="Helvetica,sans-Serif" font-size="10.00">main</text>
</a>
</g>
</g>
<!-- Node66&#45;&gt;Node75 -->
<g id="edge11" class="edge"><title>Node66&#45;&gt;Node75</title>
<path fill="none" stroke="midnightblue" d="M231.51,-124.575C247.049,-99.0583 278.608,-53.3609 318,-29 336.151,-17.7747 360.55,-13.1773 376.977,-11.2969"/>
<polygon fill="midnightblue" stroke="midnightblue" points="228.44,-122.891 226.356,-133.279 234.463,-126.458 228.44,-122.891"/>
</g>
<!-- Node73 -->
<g id="node9" class="node"><title>Node73</title>
<g id="a_node9"><a xlink:href="a00323.html#a0ddf1224851353fc92bfbff6f499fa97" target="_top" xlink:title="main">
<polygon fill="white" stroke="black" points="510,-57.5 510,-76.5 548,-76.5 548,-57.5 510,-57.5"/>
<text text-anchor="middle" x="529" y="-64.5" font-family="Helvetica,sans-Serif" font-size="10.00">main</text>
</a>
</g>
</g>
<!-- Node72&#45;&gt;Node73 -->
<g id="edge8" class="edge"><title>Node72&#45;&gt;Node73</title>
<path fill="none" stroke="midnightblue" d="M467.451,-75.7819C483.128,-73.5082 498.424,-71.2896 509.72,-69.6512"/>
<polygon fill="midnightblue" stroke="midnightblue" points="466.526,-72.3793 457.132,-77.2785 467.531,-79.3068 466.526,-72.3793"/>
</g>
<!-- Node74&#45;&gt;Node73 -->
<g id="edge10" class="edge"><title>Node74&#45;&gt;Node73</title>
<path fill="none" stroke="midnightblue" d="M464.039,-57.7233C480.991,-60.1818 497.804,-62.6204 509.935,-64.3799"/>
<polygon fill="midnightblue" stroke="midnightblue" points="464.476,-54.2501 454.077,-56.2784 463.471,-61.1776 464.476,-54.2501"/>
</g>
</g>
</svg>
