<?xml version="1.0" encoding="UTF-8" standalone="no"?>
<!DOCTYPE svg PUBLIC "-//W3C//DTD SVG 1.1//EN"
 "http://www.w3.org/Graphics/SVG/1.1/DTD/svg11.dtd">
<!-- Generated by graphviz version 2.36.0 (20140111.2315)
 -->
<!-- Title: MinCover_Augment Pages: 1 -->
<svg width="210pt" height="46pt"
 viewBox="0.00 0.00 210.00 46.00" xmlns="http://www.w3.org/2000/svg" xmlns:xlink="http://www.w3.org/1999/xlink">
<g id="graph0" class="graph" transform="scale(1 1) rotate(0) translate(4 42)">
<title>MinCover_Augment</title>
<polygon fill="white" stroke="none" points="-4,4 -4,-42 206,-42 206,4 -4,4"/>
<!-- Node587 -->
<g id="node1" class="node"><title>Node587</title>
<polygon fill="#bfbfbf" stroke="black" points="0.5,-0.5 0.5,-19.5 105.5,-19.5 105.5,-0.5 0.5,-0.5"/>
<text text-anchor="middle" x="53" y="-7.5" font-family="Helvetica,sans-Serif" font-size="10.00">MinCover_Augment</text>
</g>
<!-- Node587&#45;&gt;Node587 -->
<g id="edge2" class="edge"><title>Node587&#45;&gt;Node587</title>
<path fill="none" stroke="midnightblue" d="M31.0507,-29.0292C32.248,-34.128 39.5644,-38 53,-38 73.9727,-38 80.0351,-28.5653 71.1872,-19.7571"/>
<polygon fill="midnightblue" stroke="midnightblue" points="34.2962,-30.3393 34.8128,-19.7571 27.8098,-27.7074 34.2962,-30.3393"/>
</g>
<!-- Node588 -->
<g id="node2" class="node"><title>Node588</title>
<g id="a_node2"><a xlink:href="a00948.html#a0e648504c6fd9044875e7783b9916f9b" target="_top" xlink:title="MinCover">
<polygon fill="white" stroke="black" points="142.5,-0.5 142.5,-19.5 201.5,-19.5 201.5,-0.5 142.5,-0.5"/>
<text text-anchor="middle" x="172" y="-7.5" font-family="Helvetica,sans-Serif" font-size="10.00">MinCover</text>
</a>
</g>
</g>
<!-- Node587&#45;&gt;Node588 -->
<g id="edge1" class="edge"><title>Node587&#45;&gt;Node588</title>
<path fill="none" stroke="midnightblue" d="M115.754,-10C125.059,-10 134.253,-10 142.393,-10"/>
<polygon fill="midnightblue" stroke="midnightblue" points="115.659,-6.5001 105.658,-10 115.658,-13.5001 115.659,-6.5001"/>
</g>
</g>
</svg>
