<?xml version="1.0" encoding="UTF-8" standalone="no"?>
<!DOCTYPE svg PUBLIC "-//W3C//DTD SVG 1.1//EN"
 "http://www.w3.org/Graphics/SVG/1.1/DTD/svg11.dtd">
<!-- Generated by graphviz version 2.36.0 (20140111.2315)
 -->
<!-- Title: METIS_NodeND Pages: 1 -->
<svg width="1398pt" height="408pt"
 viewBox="0.00 0.00 1398.00 408.00" xmlns="http://www.w3.org/2000/svg" xmlns:xlink="http://www.w3.org/1999/xlink">
<g id="graph0" class="graph" transform="scale(1 1) rotate(0) translate(4 404)">
<title>METIS_NodeND</title>
<polygon fill="white" stroke="none" points="-4,4 -4,-404 1394,-404 1394,4 -4,4"/>
<!-- Node0 -->
<g id="node1" class="node"><title>Node0</title>
<polygon fill="#bfbfbf" stroke="black" points="0.5,-266.5 0.5,-285.5 91.5,-285.5 91.5,-266.5 0.5,-266.5"/>
<text text-anchor="middle" x="46" y="-273.5" font-family="Helvetica,sans-Serif" font-size="10.00">METIS_NodeND</text>
</g>
<!-- Node1 -->
<g id="node2" class="node"><title>Node1</title>
<g id="a_node2"><a xlink:href="a00077.html#a24633cc1c72a7e92836912c2adcf570a" target="_top" xlink:title="gk_malloc_init">
<polygon fill="white" stroke="black" points="157,-380.5 157,-399.5 237,-399.5 237,-380.5 157,-380.5"/>
<text text-anchor="middle" x="197" y="-387.5" font-family="Helvetica,sans-Serif" font-size="10.00">gk_malloc_init</text>
</a>
</g>
</g>
<!-- Node0&#45;&gt;Node1 -->
<g id="edge1" class="edge"><title>Node0&#45;&gt;Node1</title>
<path fill="none" stroke="midnightblue" d="M52.539,-285.735C64.0301,-305.034 92.3857,-348.242 128,-371 133.829,-374.725 140.393,-377.731 147.085,-380.154"/>
<polygon fill="midnightblue" stroke="midnightblue" points="146.318,-383.584 156.909,-383.303 148.455,-376.918 146.318,-383.584"/>
</g>
<!-- Node2 -->
<g id="node3" class="node"><title>Node2</title>
<g id="a_node3"><a xlink:href="a00026.html#a05869524d1c30cfaab2a8690e7da6fd4" target="_top" xlink:title="gk_sigtrap">
<polygon fill="white" stroke="black" points="165.5,-342.5 165.5,-361.5 228.5,-361.5 228.5,-342.5 165.5,-342.5"/>
<text text-anchor="middle" x="197" y="-349.5" font-family="Helvetica,sans-Serif" font-size="10.00">gk_sigtrap</text>
</a>
</g>
</g>
<!-- Node0&#45;&gt;Node2 -->
<g id="edge2" class="edge"><title>Node0&#45;&gt;Node2</title>
<path fill="none" stroke="midnightblue" d="M58.0299,-285.635C72.943,-298.204 100.811,-320.106 128,-333 136.621,-337.089 146.287,-340.448 155.565,-343.143"/>
<polygon fill="midnightblue" stroke="midnightblue" points="154.845,-346.574 165.412,-345.809 156.675,-339.817 154.845,-346.574"/>
</g>
<!-- Node3 -->
<g id="node4" class="node"><title>Node3</title>
<g id="a_node4"><a xlink:href="a00026.html#a08f287b6dbdc0779c916ecbd49540a1e" target="_top" xlink:title="gk_siguntrap">
<polygon fill="white" stroke="black" points="160,-304.5 160,-323.5 234,-323.5 234,-304.5 160,-304.5"/>
<text text-anchor="middle" x="197" y="-311.5" font-family="Helvetica,sans-Serif" font-size="10.00">gk_siguntrap</text>
</a>
</g>
</g>
<!-- Node0&#45;&gt;Node3 -->
<g id="edge3" class="edge"><title>Node0&#45;&gt;Node3</title>
<path fill="none" stroke="midnightblue" d="M84.599,-285.589C104.545,-290.676 129.211,-296.967 150.26,-302.335"/>
<polygon fill="midnightblue" stroke="midnightblue" points="149.4,-305.727 159.955,-304.807 151.13,-298.945 149.4,-305.727"/>
</g>
<!-- Node4 -->
<g id="node5" class="node"><title>Node4</title>
<g id="a_node5"><a xlink:href="a00077.html#ac8df62c4e3d0910711a9874f9cc58884" target="_top" xlink:title="gk_free">
<polygon fill="white" stroke="black" points="349,-267.5 349,-286.5 399,-286.5 399,-267.5 349,-267.5"/>
<text text-anchor="middle" x="374" y="-274.5" font-family="Helvetica,sans-Serif" font-size="10.00">gk_free</text>
</a>
</g>
</g>
<!-- Node0&#45;&gt;Node4 -->
<g id="edge4" class="edge"><title>Node0&#45;&gt;Node4</title>
<path fill="none" stroke="midnightblue" d="M91.6454,-276.137C157.475,-276.339 279.183,-276.712 338.583,-276.894"/>
<polygon fill="midnightblue" stroke="midnightblue" points="338.911,-280.395 348.922,-276.926 338.933,-273.395 338.911,-280.395"/>
</g>
<!-- Node5 -->
<g id="node6" class="node"><title>Node5</title>
<g id="a_node6"><a xlink:href="a00936.html#a3ef15d1ffff55a81b8486bee09239073" target="_top" xlink:title="MlevelNestedDissectionCC">
<polygon fill="white" stroke="black" points="128,-210.5 128,-229.5 266,-229.5 266,-210.5 128,-210.5"/>
<text text-anchor="middle" x="197" y="-217.5" font-family="Helvetica,sans-Serif" font-size="10.00">MlevelNestedDissectionCC</text>
</a>
</g>
</g>
<!-- Node0&#45;&gt;Node5 -->
<g id="edge5" class="edge"><title>Node0&#45;&gt;Node5</title>
<path fill="none" stroke="midnightblue" d="M72.614,-266.373C97.0687,-257.182 134.105,-243.262 161.221,-233.071"/>
<polygon fill="midnightblue" stroke="midnightblue" points="162.591,-236.296 170.72,-229.501 160.128,-229.743 162.591,-236.296"/>
</g>
<!-- Node28 -->
<g id="node29" class="node"><title>Node28</title>
<g id="a_node29"><a xlink:href="a00936.html#af853e9d8bbb2188f871fac436e631ed1" target="_top" xlink:title="MlevelNestedDissection">
<polygon fill="white" stroke="black" points="135.5,-154.5 135.5,-173.5 258.5,-173.5 258.5,-154.5 135.5,-154.5"/>
<text text-anchor="middle" x="197" y="-161.5" font-family="Helvetica,sans-Serif" font-size="10.00">MlevelNestedDissection</text>
</a>
</g>
</g>
<!-- Node0&#45;&gt;Node28 -->
<g id="edge36" class="edge"><title>Node0&#45;&gt;Node28</title>
<path fill="none" stroke="midnightblue" d="M55.8198,-266.419C70.0418,-251.313 99.3539,-221.565 128,-201 139.919,-192.443 154.039,-184.456 166.315,-178.108"/>
<polygon fill="midnightblue" stroke="midnightblue" points="167.922,-181.218 175.276,-173.591 164.771,-174.967 167.922,-181.218"/>
</g>
<!-- Node30 -->
<g id="node31" class="node"><title>Node30</title>
<g id="a_node31"><a xlink:href="a00077.html#a47156a22528b5bc8c7c6e9849af34e62" target="_top" xlink:title="gk_malloc_cleanup">
<polygon fill="white" stroke="black" points="146,-116.5 146,-135.5 248,-135.5 248,-116.5 146,-116.5"/>
<text text-anchor="middle" x="197" y="-123.5" font-family="Helvetica,sans-Serif" font-size="10.00">gk_malloc_cleanup</text>
</a>
</g>
</g>
<!-- Node0&#45;&gt;Node30 -->
<g id="edge41" class="edge"><title>Node0&#45;&gt;Node30</title>
<path fill="none" stroke="midnightblue" d="M50.1469,-266.397C58.6023,-242.13 84.188,-177.944 128,-145 130.645,-143.011 133.489,-141.23 136.46,-139.636"/>
<polygon fill="midnightblue" stroke="midnightblue" points="138.062,-142.751 145.682,-135.39 135.135,-136.393 138.062,-142.751"/>
</g>
<!-- Node5&#45;&gt;Node4 -->
<g id="edge35" class="edge"><title>Node5&#45;&gt;Node4</title>
<path fill="none" stroke="midnightblue" d="M227.291,-229.541C258.242,-239.622 306.976,-255.495 339.45,-266.072"/>
<polygon fill="midnightblue" stroke="midnightblue" points="338.377,-269.404 348.969,-269.173 340.544,-262.748 338.377,-269.404"/>
</g>
<!-- Node5&#45;&gt;Node5 -->
<g id="edge33" class="edge"><title>Node5&#45;&gt;Node5</title>
<path fill="none" stroke="midnightblue" d="M173.881,-229.757C162.633,-238.565 170.34,-248 197,-248 214.496,-248 223.829,-243.937 224.999,-238.654"/>
<polygon fill="midnightblue" stroke="midnightblue" points="227.997,-236.842 220.119,-229.757 221.86,-240.208 227.997,-236.842"/>
</g>
<!-- Node6 -->
<g id="node7" class="node"><title>Node6</title>
<g id="a_node7"><a xlink:href="a00936.html#a59c8030c5429e219a8535c2a11cef724" target="_top" xlink:title="MlevelNodeBisectionMultiple">
<polygon fill="white" stroke="black" points="302,-191.5 302,-210.5 446,-210.5 446,-191.5 302,-191.5"/>
<text text-anchor="middle" x="374" y="-198.5" font-family="Helvetica,sans-Serif" font-size="10.00">MlevelNodeBisectionMultiple</text>
</a>
</g>
</g>
<!-- Node5&#45;&gt;Node6 -->
<g id="edge6" class="edge"><title>Node5&#45;&gt;Node6</title>
<path fill="none" stroke="midnightblue" d="M266.161,-212.6C274.576,-211.686 283.243,-210.745 291.828,-209.813"/>
<polygon fill="midnightblue" stroke="midnightblue" points="292.285,-213.284 301.848,-208.725 291.529,-206.325 292.285,-213.284"/>
</g>
<!-- Node23 -->
<g id="node24" class="node"><title>Node23</title>
<g id="a_node24"><a xlink:href="a00936.html#a52a083cfb474124f22728e79cfba695f" target="_top" xlink:title="SplitGraphOrderCC">
<polygon fill="white" stroke="black" points="491,-248.5 491,-267.5 595,-267.5 595,-248.5 491,-248.5"/>
<text text-anchor="middle" x="543" y="-255.5" font-family="Helvetica,sans-Serif" font-size="10.00">SplitGraphOrderCC</text>
</a>
</g>
</g>
<!-- Node5&#45;&gt;Node23 -->
<g id="edge27" class="edge"><title>Node5&#45;&gt;Node23</title>
<path fill="none" stroke="midnightblue" d="M266.375,-227.553C328.888,-234.459 420.516,-244.58 480.701,-251.229"/>
<polygon fill="midnightblue" stroke="midnightblue" points="480.496,-254.727 490.819,-252.346 481.264,-247.769 480.496,-254.727"/>
</g>
<!-- Node27 -->
<g id="node28" class="node"><title>Node27</title>
<g id="a_node28"><a xlink:href="a00936.html#acafb70c0e49cde8105dc62f6c34dfa6c" target="_top" xlink:title="MMDOrder">
<polygon fill="white" stroke="black" points="341,-153.5 341,-172.5 407,-172.5 407,-153.5 341,-153.5"/>
<text text-anchor="middle" x="374" y="-160.5" font-family="Helvetica,sans-Serif" font-size="10.00">MMDOrder</text>
</a>
</g>
</g>
<!-- Node5&#45;&gt;Node27 -->
<g id="edge34" class="edge"><title>Node5&#45;&gt;Node27</title>
<path fill="none" stroke="midnightblue" d="M237.668,-210.45C247.084,-207.764 257.004,-204.583 266,-201 282.808,-194.306 285.156,-188.602 302,-182 311.17,-178.406 321.265,-175.252 330.893,-172.599"/>
<polygon fill="midnightblue" stroke="midnightblue" points="331.92,-175.948 340.7,-170.019 330.138,-169.179 331.92,-175.948"/>
</g>
<!-- Node7 -->
<g id="node8" class="node"><title>Node7</title>
<g id="a_node8"><a xlink:href="a00936.html#ac3a0eaeefa34a3865a0be5bb70bd958f" target="_top" xlink:title="MlevelNodeBisectionL2">
<polygon fill="white" stroke="black" points="482.5,-188.5 482.5,-207.5 603.5,-207.5 603.5,-188.5 482.5,-188.5"/>
<text text-anchor="middle" x="543" y="-195.5" font-family="Helvetica,sans-Serif" font-size="10.00">MlevelNodeBisectionL2</text>
</a>
</g>
</g>
<!-- Node6&#45;&gt;Node7 -->
<g id="edge7" class="edge"><title>Node6&#45;&gt;Node7</title>
<path fill="none" stroke="midnightblue" d="M446.307,-199.719C454.973,-199.563 463.818,-199.404 472.458,-199.249"/>
<polygon fill="midnightblue" stroke="midnightblue" points="472.547,-202.748 482.483,-199.069 472.421,-195.749 472.547,-202.748"/>
</g>
<!-- Node8 -->
<g id="node9" class="node"><title>Node8</title>
<g id="a_node9"><a xlink:href="a00936.html#aeeaa7f4ed9878ae2f7faff0e2402fd87" target="_top" xlink:title="MlevelNodeBisectionL1">
<polygon fill="white" stroke="black" points="640.5,-188.5 640.5,-207.5 761.5,-207.5 761.5,-188.5 640.5,-188.5"/>
<text text-anchor="middle" x="701" y="-195.5" font-family="Helvetica,sans-Serif" font-size="10.00">MlevelNodeBisectionL1</text>
</a>
</g>
</g>
<!-- Node7&#45;&gt;Node8 -->
<g id="edge8" class="edge"><title>Node7&#45;&gt;Node8</title>
<path fill="none" stroke="midnightblue" d="M603.868,-198C612.452,-198 621.346,-198 630.103,-198"/>
<polygon fill="midnightblue" stroke="midnightblue" points="630.293,-201.5 640.293,-198 630.293,-194.5 630.293,-201.5"/>
</g>
<!-- Node9 -->
<g id="node10" class="node"><title>Node9</title>
<g id="a_node10"><a xlink:href="a00182.html#afa83320e3b311e0feef90d0bf4303716" target="_top" xlink:title="CoarsenGraphNlevels">
<polygon fill="white" stroke="black" points="643.5,-145.5 643.5,-164.5 758.5,-164.5 758.5,-145.5 643.5,-145.5"/>
<text text-anchor="middle" x="701" y="-152.5" font-family="Helvetica,sans-Serif" font-size="10.00">CoarsenGraphNlevels</text>
</a>
</g>
</g>
<!-- Node7&#45;&gt;Node9 -->
<g id="edge9" class="edge"><title>Node7&#45;&gt;Node9</title>
<path fill="none" stroke="midnightblue" d="M578.621,-188.457C601.343,-182.194 631.265,-173.946 655.714,-167.207"/>
<polygon fill="midnightblue" stroke="midnightblue" points="656.765,-170.548 665.475,-164.516 654.905,-163.8 656.765,-170.548"/>
</g>
<!-- Node10 -->
<g id="node11" class="node"><title>Node10</title>
<g id="a_node11"><a xlink:href="a00623.html#ad1e7380d51df1e0043d24d3c8a860e0a" target="_top" xlink:title="for">
<polygon fill="white" stroke="black" points="847.5,-181.5 847.5,-200.5 876.5,-200.5 876.5,-181.5 847.5,-181.5"/>
<text text-anchor="middle" x="862" y="-188.5" font-family="Helvetica,sans-Serif" font-size="10.00">for</text>
</a>
</g>
</g>
<!-- Node9&#45;&gt;Node10 -->
<g id="edge10" class="edge"><title>Node9&#45;&gt;Node10</title>
<path fill="none" stroke="midnightblue" d="M744.192,-164.553C774.004,-171.303 812.869,-180.103 837.386,-185.654"/>
<polygon fill="midnightblue" stroke="midnightblue" points="836.726,-189.093 847.252,-187.887 838.272,-182.265 836.726,-189.093"/>
</g>
<!-- Node11 -->
<g id="node12" class="node"><title>Node11</title>
<g id="a_node12"><a xlink:href="a00182.html#aac3e480e7e3bd02bfdf001d858a93562" target="_top" xlink:title="PrintCGraphStats">
<polygon fill="white" stroke="black" points="814.5,-143.5 814.5,-162.5 909.5,-162.5 909.5,-143.5 814.5,-143.5"/>
<text text-anchor="middle" x="862" y="-150.5" font-family="Helvetica,sans-Serif" font-size="10.00">PrintCGraphStats</text>
</a>
</g>
</g>
<!-- Node9&#45;&gt;Node11 -->
<g id="edge11" class="edge"><title>Node9&#45;&gt;Node11</title>
<path fill="none" stroke="midnightblue" d="M758.505,-154.289C773.373,-154.102 789.414,-153.9 804.292,-153.713"/>
<polygon fill="midnightblue" stroke="midnightblue" points="804.422,-157.212 814.377,-153.586 804.334,-150.213 804.422,-157.212"/>
</g>
<!-- Node12 -->
<g id="node13" class="node"><title>Node12</title>
<g id="a_node13"><a xlink:href="a00182.html#a892d2ea16d613abc2276ad5fc6999724" target="_top" xlink:title="Match_RM">
<polygon fill="white" stroke="black" points="829.5,-105.5 829.5,-124.5 894.5,-124.5 894.5,-105.5 829.5,-105.5"/>
<text text-anchor="middle" x="862" y="-112.5" font-family="Helvetica,sans-Serif" font-size="10.00">Match_RM</text>
</a>
</g>
</g>
<!-- Node9&#45;&gt;Node12 -->
<g id="edge12" class="edge"><title>Node9&#45;&gt;Node12</title>
<path fill="none" stroke="midnightblue" d="M740.084,-145.419C764.066,-139.386 795.024,-131.598 819.612,-125.412"/>
<polygon fill="midnightblue" stroke="midnightblue" points="820.533,-128.79 829.377,-122.956 818.825,-122.001 820.533,-128.79"/>
</g>
<!-- Node20 -->
<g id="node21" class="node"><title>Node20</title>
<g id="a_node21"><a xlink:href="a00182.html#af3ec72f3170ccdca06d8ad018d86cc58" target="_top" xlink:title="Match_SHEM">
<polygon fill="white" stroke="black" points="823,-67.5 823,-86.5 901,-86.5 901,-67.5 823,-67.5"/>
<text text-anchor="middle" x="862" y="-74.5" font-family="Helvetica,sans-Serif" font-size="10.00">Match_SHEM</text>
</a>
</g>
</g>
<!-- Node9&#45;&gt;Node20 -->
<g id="edge22" class="edge"><title>Node9&#45;&gt;Node20</title>
<path fill="none" stroke="midnightblue" d="M715.064,-145.447C732.994,-132.7 766.59,-110.102 798,-96 803.016,-93.7482 808.372,-91.6716 813.763,-89.7838"/>
<polygon fill="midnightblue" stroke="midnightblue" points="815.039,-93.0485 823.44,-86.5929 812.847,-86.4006 815.039,-93.0485"/>
</g>
<!-- Node21 -->
<g id="node22" class="node"><title>Node21</title>
<g id="a_node22"><a xlink:href="a00026.html#a4c320c13bcdc9967613253ef4c73f59f" target="_top" xlink:title="gk_errexit">
<polygon fill="white" stroke="black" points="832,-219.5 832,-238.5 892,-238.5 892,-219.5 832,-219.5"/>
<text text-anchor="middle" x="862" y="-226.5" font-family="Helvetica,sans-Serif" font-size="10.00">gk_errexit</text>
</a>
</g>
</g>
<!-- Node9&#45;&gt;Node21 -->
<g id="edge25" class="edge"><title>Node9&#45;&gt;Node21</title>
<path fill="none" stroke="midnightblue" d="M731.309,-164.504C741.382,-168.34 752.506,-173.235 762,-179 780.048,-189.959 779.49,-199.842 798,-210 805.405,-214.064 813.788,-217.365 821.966,-220.005"/>
<polygon fill="midnightblue" stroke="midnightblue" points="821.178,-223.422 831.76,-222.905 823.165,-216.71 821.178,-223.422"/>
</g>
<!-- Node13 -->
<g id="node14" class="node"><title>Node13</title>
<g id="a_node14"><a xlink:href="a00182.html#aead846b2c69509c914426ff087509934" target="_top" xlink:title="Match_2Hop">
<polygon fill="white" stroke="black" points="979.5,-105.5 979.5,-124.5 1052.5,-124.5 1052.5,-105.5 979.5,-105.5"/>
<text text-anchor="middle" x="1016" y="-112.5" font-family="Helvetica,sans-Serif" font-size="10.00">Match_2Hop</text>
</a>
</g>
</g>
<!-- Node12&#45;&gt;Node13 -->
<g id="edge13" class="edge"><title>Node12&#45;&gt;Node13</title>
<path fill="none" stroke="midnightblue" d="M894.864,-115C916.4,-115 945.172,-115 969.16,-115"/>
<polygon fill="midnightblue" stroke="midnightblue" points="969.456,-118.5 979.456,-115 969.456,-111.5 969.456,-118.5"/>
</g>
<!-- Node16 -->
<g id="node17" class="node"><title>Node16</title>
<g id="a_node17"><a xlink:href="a00182.html#aac8820421b1c25698140c1b470c50e07" target="_top" xlink:title="CreateCoarseGraph">
<polygon fill="white" stroke="black" points="962.5,-67.5 962.5,-86.5 1069.5,-86.5 1069.5,-67.5 962.5,-67.5"/>
<text text-anchor="middle" x="1016" y="-74.5" font-family="Helvetica,sans-Serif" font-size="10.00">CreateCoarseGraph</text>
</a>
</g>
</g>
<!-- Node12&#45;&gt;Node16 -->
<g id="edge16" class="edge"><title>Node12&#45;&gt;Node16</title>
<path fill="none" stroke="midnightblue" d="M894.864,-107.034C915.811,-101.797 943.604,-94.849 967.181,-88.9547"/>
<polygon fill="midnightblue" stroke="midnightblue" points="968.143,-92.322 976.996,-86.5011 966.445,-85.531 968.143,-92.322"/>
</g>
<!-- Node14 -->
<g id="node15" class="node"><title>Node14</title>
<g id="a_node15"><a xlink:href="a00182.html#a838a4013e3b5cc5278ecc7a8757ce0ef" target="_top" xlink:title="Match_2HopAny">
<polygon fill="white" stroke="black" points="1133,-143.5 1133,-162.5 1223,-162.5 1223,-143.5 1133,-143.5"/>
<text text-anchor="middle" x="1178" y="-150.5" font-family="Helvetica,sans-Serif" font-size="10.00">Match_2HopAny</text>
</a>
</g>
</g>
<!-- Node13&#45;&gt;Node14 -->
<g id="edge14" class="edge"><title>Node13&#45;&gt;Node14</title>
<path fill="none" stroke="midnightblue" d="M1052.51,-123.433C1074.34,-128.618 1102.65,-135.342 1126.76,-141.068"/>
<polygon fill="midnightblue" stroke="midnightblue" points="1126.26,-144.548 1136.8,-143.453 1127.88,-137.737 1126.26,-144.548"/>
</g>
<!-- Node15 -->
<g id="node16" class="node"><title>Node15</title>
<g id="a_node16"><a xlink:href="a00182.html#aa56d53cace160be27fb1750dcaffbc04" target="_top" xlink:title="Match_2HopAll">
<polygon fill="white" stroke="black" points="1136,-105.5 1136,-124.5 1220,-124.5 1220,-105.5 1136,-105.5"/>
<text text-anchor="middle" x="1178" y="-112.5" font-family="Helvetica,sans-Serif" font-size="10.00">Match_2HopAll</text>
</a>
</g>
</g>
<!-- Node13&#45;&gt;Node15 -->
<g id="edge15" class="edge"><title>Node13&#45;&gt;Node15</title>
<path fill="none" stroke="midnightblue" d="M1052.51,-115C1074,-115 1101.78,-115 1125.64,-115"/>
<polygon fill="midnightblue" stroke="midnightblue" points="1125.94,-118.5 1135.94,-115 1125.94,-111.5 1125.94,-118.5"/>
</g>
<!-- Node17 -->
<g id="node18" class="node"><title>Node17</title>
<g id="a_node18"><a xlink:href="a00182.html#a70dc59d4c7190507e7ad9a4cc0d80707" target="_top" xlink:title="CreateCoarseGraphNoMask">
<polygon fill="white" stroke="black" points="1106.5,-29.5 1106.5,-48.5 1249.5,-48.5 1249.5,-29.5 1106.5,-29.5"/>
<text text-anchor="middle" x="1178" y="-36.5" font-family="Helvetica,sans-Serif" font-size="10.00">CreateCoarseGraphNoMask</text>
</a>
</g>
</g>
<!-- Node16&#45;&gt;Node17 -->
<g id="edge17" class="edge"><title>Node16&#45;&gt;Node17</title>
<path fill="none" stroke="midnightblue" d="M1057.37,-67.411C1078.49,-62.3965 1104.53,-56.2119 1126.92,-50.8947"/>
<polygon fill="midnightblue" stroke="midnightblue" points="1127.99,-54.2361 1136.92,-48.5201 1126.38,-47.4256 1127.99,-54.2361"/>
</g>
<!-- Node18 -->
<g id="node19" class="node"><title>Node18</title>
<g id="a_node19"><a xlink:href="a00182.html#a113522304bf628b09d0b69b4db05050e" target="_top" xlink:title="SetupCoarseGraph">
<polygon fill="white" stroke="black" points="1286.5,-57.5 1286.5,-76.5 1389.5,-76.5 1389.5,-57.5 1286.5,-57.5"/>
<text text-anchor="middle" x="1338" y="-64.5" font-family="Helvetica,sans-Serif" font-size="10.00">SetupCoarseGraph</text>
</a>
</g>
</g>
<!-- Node16&#45;&gt;Node18 -->
<g id="edge20" class="edge"><title>Node16&#45;&gt;Node18</title>
<path fill="none" stroke="midnightblue" d="M1069.84,-75.3487C1126.65,-73.5736 1216.8,-70.7563 1276.43,-68.8929"/>
<polygon fill="midnightblue" stroke="midnightblue" points="1276.57,-72.3902 1286.46,-68.5794 1276.35,-65.3936 1276.57,-72.3902"/>
</g>
<!-- Node19 -->
<g id="node20" class="node"><title>Node19</title>
<g id="a_node20"><a xlink:href="a00182.html#ab69ab96ec78174da232dff05e9c79d2f" target="_top" xlink:title="ReAdjustMemory">
<polygon fill="white" stroke="black" points="1291.5,-0.5 1291.5,-19.5 1384.5,-19.5 1384.5,-0.5 1291.5,-0.5"/>
<text text-anchor="middle" x="1338" y="-7.5" font-family="Helvetica,sans-Serif" font-size="10.00">ReAdjustMemory</text>
</a>
</g>
</g>
<!-- Node16&#45;&gt;Node19 -->
<g id="edge21" class="edge"><title>Node16&#45;&gt;Node19</title>
<path fill="none" stroke="midnightblue" d="M1027.81,-67.321C1043.65,-53.8281 1074.69,-29.9082 1106,-20 1163.58,-1.77975 1233.27,-1.52252 1280.95,-4.40719"/>
<polygon fill="midnightblue" stroke="midnightblue" points="1280.86,-7.90916 1291.07,-5.08707 1281.33,-0.924889 1280.86,-7.90916"/>
</g>
<!-- Node17&#45;&gt;Node18 -->
<g id="edge18" class="edge"><title>Node17&#45;&gt;Node18</title>
<path fill="none" stroke="midnightblue" d="M1232.93,-48.5577C1246.82,-51.0181 1261.85,-53.6828 1276.06,-56.2013"/>
<polygon fill="midnightblue" stroke="midnightblue" points="1275.78,-59.7057 1286.24,-58.0044 1277,-52.8131 1275.78,-59.7057"/>
</g>
<!-- Node17&#45;&gt;Node19 -->
<g id="edge19" class="edge"><title>Node17&#45;&gt;Node19</title>
<path fill="none" stroke="midnightblue" d="M1231.17,-29.4239C1247.25,-26.4728 1265.01,-23.2129 1281.32,-20.2202"/>
<polygon fill="midnightblue" stroke="midnightblue" points="1282.05,-23.6444 1291.25,-18.3965 1280.79,-16.7594 1282.05,-23.6444"/>
</g>
<!-- Node20&#45;&gt;Node13 -->
<g id="edge23" class="edge"><title>Node20&#45;&gt;Node13</title>
<path fill="none" stroke="midnightblue" d="M901.356,-86.589C922.007,-91.7518 947.619,-98.1547 969.298,-103.574"/>
<polygon fill="midnightblue" stroke="midnightblue" points="968.716,-107.037 979.267,-106.067 970.414,-100.246 968.716,-107.037"/>
</g>
<!-- Node20&#45;&gt;Node16 -->
<g id="edge24" class="edge"><title>Node20&#45;&gt;Node16</title>
<path fill="none" stroke="midnightblue" d="M901.356,-77C916.795,-77 935.006,-77 952.274,-77"/>
<polygon fill="midnightblue" stroke="midnightblue" points="952.304,-80.5001 962.304,-77 952.304,-73.5001 952.304,-80.5001"/>
</g>
<!-- Node22 -->
<g id="node23" class="node"><title>Node22</title>
<g id="a_node23"><a xlink:href="a01017.html#a2e311a777ffe9c80e405efa7cd2757be" target="_top" xlink:title="fprintf">
<polygon fill="white" stroke="black" points="995,-276.5 995,-295.5 1037,-295.5 1037,-276.5 995,-276.5"/>
<text text-anchor="middle" x="1016" y="-283.5" font-family="Helvetica,sans-Serif" font-size="10.00">fprintf</text>
</a>
</g>
</g>
<!-- Node21&#45;&gt;Node22 -->
<g id="edge26" class="edge"><title>Node21&#45;&gt;Node22</title>
<path fill="none" stroke="midnightblue" d="M892.075,-237.038C902.821,-240.2 915.047,-244.024 926,-248 946.066,-255.284 968.139,-264.699 985.282,-272.335"/>
<polygon fill="midnightblue" stroke="midnightblue" points="984.198,-275.685 994.754,-276.596 987.07,-269.301 984.198,-275.685"/>
</g>
<!-- Node24 -->
<g id="node25" class="node"><title>Node24</title>
<g id="a_node25"><a xlink:href="a00077.html#aba6f76f5c67b9b7e9c2e45988d3d3e9d" target="_top" xlink:title="gk_malloc">
<polygon fill="white" stroke="black" points="670,-257.5 670,-276.5 732,-276.5 732,-257.5 670,-257.5"/>
<text text-anchor="middle" x="701" y="-264.5" font-family="Helvetica,sans-Serif" font-size="10.00">gk_malloc</text>
</a>
</g>
</g>
<!-- Node23&#45;&gt;Node24 -->
<g id="edge28" class="edge"><title>Node23&#45;&gt;Node24</title>
<path fill="none" stroke="midnightblue" d="M595.08,-260.947C616.02,-262.155 639.91,-263.533 659.599,-264.669"/>
<polygon fill="midnightblue" stroke="midnightblue" points="659.581,-268.174 669.766,-265.256 659.984,-261.185 659.581,-268.174"/>
</g>
<!-- Node24&#45;&gt;Node21 -->
<g id="edge32" class="edge"><title>Node24&#45;&gt;Node21</title>
<path fill="none" stroke="midnightblue" d="M732.281,-259.763C757.8,-253.664 794.473,-244.9 822.152,-238.285"/>
<polygon fill="midnightblue" stroke="midnightblue" points="822.992,-241.682 831.905,-235.954 821.365,-234.874 822.992,-241.682"/>
</g>
<!-- Node24&#45;&gt;Node22 -->
<g id="edge29" class="edge"><title>Node24&#45;&gt;Node22</title>
<path fill="none" stroke="midnightblue" d="M713.463,-276.646C730.562,-290.336 764.355,-314.764 798,-324 852.86,-339.059 870.265,-335.401 926,-324 948.36,-319.426 972.05,-309.007 989.363,-300.233"/>
<polygon fill="midnightblue" stroke="midnightblue" points="991.034,-303.309 998.276,-295.576 987.792,-297.105 991.034,-303.309"/>
</g>
<!-- Node25 -->
<g id="node26" class="node"><title>Node25</title>
<g id="a_node26"><a xlink:href="a00110.html#ad2327b94227019b6753b6b09400c0522" target="_top" xlink:title="gk_GetCurMemoryUsed">
<polygon fill="white" stroke="black" points="800,-295.5 800,-314.5 924,-314.5 924,-295.5 800,-295.5"/>
<text text-anchor="middle" x="862" y="-302.5" font-family="Helvetica,sans-Serif" font-size="10.00">gk_GetCurMemoryUsed</text>
</a>
</g>
</g>
<!-- Node24&#45;&gt;Node25 -->
<g id="edge30" class="edge"><title>Node24&#45;&gt;Node25</title>
<path fill="none" stroke="midnightblue" d="M732.281,-274.237C754.553,-279.56 785.322,-286.913 811.192,-293.096"/>
<polygon fill="midnightblue" stroke="midnightblue" points="810.665,-296.569 821.205,-295.489 812.292,-289.76 810.665,-296.569"/>
</g>
<!-- Node26 -->
<g id="node27" class="node"><title>Node26</title>
<g id="a_node27"><a xlink:href="a00110.html#a656fd5266ae12a96e53125486f8fea52" target="_top" xlink:title="gk_GetMaxMemoryUsed">
<polygon fill="white" stroke="black" points="798.5,-257.5 798.5,-276.5 925.5,-276.5 925.5,-257.5 798.5,-257.5"/>
<text text-anchor="middle" x="862" y="-264.5" font-family="Helvetica,sans-Serif" font-size="10.00">gk_GetMaxMemoryUsed</text>
</a>
</g>
</g>
<!-- Node24&#45;&gt;Node26 -->
<g id="edge31" class="edge"><title>Node24&#45;&gt;Node26</title>
<path fill="none" stroke="midnightblue" d="M732.281,-267C748.164,-267 768.367,-267 788.034,-267"/>
<polygon fill="midnightblue" stroke="midnightblue" points="788.244,-270.5 798.244,-267 788.244,-263.5 788.244,-270.5"/>
</g>
<!-- Node28&#45;&gt;Node6 -->
<g id="edge37" class="edge"><title>Node28&#45;&gt;Node6</title>
<path fill="none" stroke="midnightblue" d="M243.067,-173.528C265.84,-178.343 293.674,-184.228 317.73,-189.314"/>
<polygon fill="midnightblue" stroke="midnightblue" points="317.274,-192.795 327.782,-191.44 318.722,-185.947 317.274,-192.795"/>
</g>
<!-- Node28&#45;&gt;Node27 -->
<g id="edge40" class="edge"><title>Node28&#45;&gt;Node27</title>
<path fill="none" stroke="midnightblue" d="M258.715,-163.653C282.47,-163.517 309.139,-163.365 330.736,-163.242"/>
<polygon fill="midnightblue" stroke="midnightblue" points="330.916,-166.741 340.896,-163.183 330.876,-159.741 330.916,-166.741"/>
</g>
<!-- Node28&#45;&gt;Node28 -->
<g id="edge39" class="edge"><title>Node28&#45;&gt;Node28</title>
<path fill="none" stroke="midnightblue" d="M173.881,-173.757C162.633,-182.565 170.34,-192 197,-192 214.496,-192 223.829,-187.937 224.999,-182.654"/>
<polygon fill="midnightblue" stroke="midnightblue" points="227.997,-180.842 220.119,-173.757 221.86,-184.208 227.997,-180.842"/>
</g>
<!-- Node29 -->
<g id="node30" class="node"><title>Node29</title>
<g id="a_node30"><a xlink:href="a00936.html#a2554253b42e739ac3bb63e676741e1cd" target="_top" xlink:title="SplitGraphOrder">
<polygon fill="white" stroke="black" points="329.5,-115.5 329.5,-134.5 418.5,-134.5 418.5,-115.5 329.5,-115.5"/>
<text text-anchor="middle" x="374" y="-122.5" font-family="Helvetica,sans-Serif" font-size="10.00">SplitGraphOrder</text>
</a>
</g>
</g>
<!-- Node28&#45;&gt;Node29 -->
<g id="edge38" class="edge"><title>Node28&#45;&gt;Node29</title>
<path fill="none" stroke="midnightblue" d="M240.81,-154.46C264.84,-149.104 295.017,-142.379 320.469,-136.707"/>
<polygon fill="midnightblue" stroke="midnightblue" points="321.33,-140.101 330.329,-134.509 319.807,-133.269 321.33,-140.101"/>
</g>
</g>
</svg>
