<?xml version="1.0" encoding="UTF-8" standalone="no"?>
<!DOCTYPE svg PUBLIC "-//W3C//DTD SVG 1.1//EN"
 "http://www.w3.org/Graphics/SVG/1.1/DTD/svg11.dtd">
<!-- Generated by graphviz version 2.36.0 (20140111.2315)
 -->
<!-- Title: IsArticulationNode Pages: 1 -->
<svg width="450pt" height="142pt"
 viewBox="0.00 0.00 450.00 142.00" xmlns="http://www.w3.org/2000/svg" xmlns:xlink="http://www.w3.org/1999/xlink">
<g id="graph0" class="graph" transform="scale(1 1) rotate(0) translate(4 138)">
<title>IsArticulationNode</title>
<polygon fill="white" stroke="none" points="-4,4 -4,-138 446,-138 446,4 -4,4"/>
<!-- Node459 -->
<g id="node1" class="node"><title>Node459</title>
<polygon fill="#bfbfbf" stroke="black" points="0,-57.5 0,-76.5 98,-76.5 98,-57.5 0,-57.5"/>
<text text-anchor="middle" x="49" y="-64.5" font-family="Helvetica,sans-Serif" font-size="10.00">IsArticulationNode</text>
</g>
<!-- Node460 -->
<g id="node2" class="node"><title>Node460</title>
<g id="a_node2"><a xlink:href="a00948.html#aaa70dea85e3a1149132362c93099d543" target="_top" xlink:title="Greedy_KWayCutOptimize">
<polygon fill="white" stroke="black" points="140.5,-114.5 140.5,-133.5 277.5,-133.5 277.5,-114.5 140.5,-114.5"/>
<text text-anchor="middle" x="209" y="-121.5" font-family="Helvetica,sans-Serif" font-size="10.00">Greedy_KWayCutOptimize</text>
</a>
</g>
</g>
<!-- Node459&#45;&gt;Node460 -->
<g id="edge1" class="edge"><title>Node459&#45;&gt;Node460</title>
<path fill="none" stroke="midnightblue" d="M77.9968,-81.1411C94.0972,-88.8969 114.868,-98.2735 134,-105 144.136,-108.563 155.266,-111.774 165.746,-114.498"/>
<polygon fill="midnightblue" stroke="midnightblue" points="79.1527,-77.8103 68.6319,-76.5597 76.0766,-84.0982 79.1527,-77.8103"/>
</g>
<!-- Node462 -->
<g id="node4" class="node"><title>Node462</title>
<g id="a_node4"><a xlink:href="a00948.html#af249da13cad4e148e2a6efcacad5d5da" target="_top" xlink:title="Greedy_KWayVolOptimize">
<polygon fill="white" stroke="black" points="141.5,-76.5 141.5,-95.5 276.5,-95.5 276.5,-76.5 141.5,-76.5"/>
<text text-anchor="middle" x="209" y="-83.5" font-family="Helvetica,sans-Serif" font-size="10.00">Greedy_KWayVolOptimize</text>
</a>
</g>
</g>
<!-- Node459&#45;&gt;Node462 -->
<g id="edge3" class="edge"><title>Node459&#45;&gt;Node462</title>
<path fill="none" stroke="midnightblue" d="M108.379,-74.0203C119.135,-75.3138 130.44,-76.6731 141.416,-77.9931"/>
<polygon fill="midnightblue" stroke="midnightblue" points="108.61,-70.5229 98.2637,-72.8039 107.774,-77.4728 108.61,-70.5229"/>
</g>
<!-- Node463 -->
<g id="node5" class="node"><title>Node463</title>
<g id="a_node5"><a xlink:href="a00948.html#a68223b074be60fa4ac030e3c52071410" target="_top" xlink:title="Greedy_McKWayCutOptimize">
<polygon fill="white" stroke="black" points="134,-38.5 134,-57.5 284,-57.5 284,-38.5 134,-38.5"/>
<text text-anchor="middle" x="209" y="-45.5" font-family="Helvetica,sans-Serif" font-size="10.00">Greedy_McKWayCutOptimize</text>
</a>
</g>
</g>
<!-- Node459&#45;&gt;Node463 -->
<g id="edge5" class="edge"><title>Node459&#45;&gt;Node463</title>
<path fill="none" stroke="midnightblue" d="M108.242,-59.9962C116.58,-58.9936 125.25,-57.951 133.843,-56.9176"/>
<polygon fill="midnightblue" stroke="midnightblue" points="107.774,-56.5272 98.2637,-61.1961 108.61,-63.4771 107.774,-56.5272"/>
</g>
<!-- Node464 -->
<g id="node6" class="node"><title>Node464</title>
<g id="a_node6"><a xlink:href="a00948.html#a4177983ff9528ecb665a71f0ab1785e9" target="_top" xlink:title="Greedy_McKWayVolOptimize">
<polygon fill="white" stroke="black" points="134.5,-0.5 134.5,-19.5 283.5,-19.5 283.5,-0.5 134.5,-0.5"/>
<text text-anchor="middle" x="209" y="-7.5" font-family="Helvetica,sans-Serif" font-size="10.00">Greedy_McKWayVolOptimize</text>
</a>
</g>
</g>
<!-- Node459&#45;&gt;Node464 -->
<g id="edge7" class="edge"><title>Node459&#45;&gt;Node464</title>
<path fill="none" stroke="midnightblue" d="M77.9968,-52.8589C94.0972,-45.1031 114.868,-35.7265 134,-29 144.136,-25.4365 155.266,-22.2259 165.746,-19.5016"/>
<polygon fill="midnightblue" stroke="midnightblue" points="76.0766,-49.9018 68.6319,-57.4403 79.1527,-56.1897 76.0766,-49.9018"/>
</g>
<!-- Node461 -->
<g id="node3" class="node"><title>Node461</title>
<g id="a_node3"><a xlink:href="a00948.html#a063b67f1b75662342f8db5aefba11cc5" target="_top" xlink:title="Greedy_KWayOptimize">
<polygon fill="white" stroke="black" points="320.5,-57.5 320.5,-76.5 441.5,-76.5 441.5,-57.5 320.5,-57.5"/>
<text text-anchor="middle" x="381" y="-64.5" font-family="Helvetica,sans-Serif" font-size="10.00">Greedy_KWayOptimize</text>
</a>
</g>
</g>
<!-- Node460&#45;&gt;Node461 -->
<g id="edge2" class="edge"><title>Node460&#45;&gt;Node461</title>
<path fill="none" stroke="midnightblue" d="M260.773,-111.865C268.598,-109.736 276.549,-107.421 284,-105 309.913,-96.5816 338.898,-84.7636 358.172,-76.5508"/>
<polygon fill="midnightblue" stroke="midnightblue" points="259.749,-108.515 250.976,-114.457 261.539,-115.282 259.749,-108.515"/>
</g>
<!-- Node462&#45;&gt;Node461 -->
<g id="edge4" class="edge"><title>Node462&#45;&gt;Node461</title>
<path fill="none" stroke="midnightblue" d="M286.937,-77.4011C298.166,-76.1461 309.585,-74.8699 320.4,-73.6612"/>
<polygon fill="midnightblue" stroke="midnightblue" points="286.25,-73.9561 276.701,-78.5452 287.027,-80.9128 286.25,-73.9561"/>
</g>
<!-- Node463&#45;&gt;Node461 -->
<g id="edge6" class="edge"><title>Node463&#45;&gt;Node461</title>
<path fill="none" stroke="midnightblue" d="M294.099,-57.3993C303.006,-58.3948 311.926,-59.3917 320.468,-60.3464"/>
<polygon fill="midnightblue" stroke="midnightblue" points="294.397,-53.9109 284.07,-56.2784 293.619,-60.8676 294.397,-53.9109"/>
</g>
<!-- Node464&#45;&gt;Node461 -->
<g id="edge8" class="edge"><title>Node464&#45;&gt;Node461</title>
<path fill="none" stroke="midnightblue" d="M260.773,-22.1352C268.598,-24.2645 276.549,-26.5795 284,-29 309.913,-37.4184 338.898,-49.2364 358.172,-57.4492"/>
<polygon fill="midnightblue" stroke="midnightblue" points="261.539,-18.7175 250.976,-19.5434 259.749,-25.4847 261.539,-18.7175"/>
</g>
</g>
</svg>
