<?xml version="1.0" encoding="UTF-8" standalone="no"?>
<!DOCTYPE svg PUBLIC "-//W3C//DTD SVG 1.1//EN"
 "http://www.w3.org/Graphics/SVG/1.1/DTD/svg11.dtd">
<!-- Generated by graphviz version 2.36.0 (20140111.2315)
 -->
<!-- Title: ParMETIS_V3_PartKway Pages: 1 -->
<!--zoomable 474 -->
<svg id="main" version="1.1" xmlns="http://www.w3.org/2000/svg" xmlns:xlink="http://www.w3.org/1999/xlink" xml:space="preserve" onload="init(evt)">
<style type="text/css"><![CDATA[
.edge:hover path { stroke: red; }
.edge:hover polygon { stroke: red; fill: red; }
]]></style>
<script type="text/javascript"><![CDATA[
var edges = document.getElementsByTagName('g');
if (edges && edges.length) {
  for (var i=0;i<edges.length;i++) {
    if (edges[i].id.substr(0,4)=='edge') {
      edges[i].setAttribute('class','edge');
    }
  }
}
]]></script>
        <defs>
                <circle id="rim" cx="0" cy="0" r="7"/>
                <circle id="rim2" cx="0" cy="0" r="3.5"/>
                <g id="zoomPlus">
                        <use xlink:href="#rim" fill="#404040">
                                <set attributeName="fill" to="#808080" begin="zoomplus.mouseover" end="zoomplus.mouseout"/>
                        </use>
                        <path d="M-4,0h8M0,-4v8" fill="none" stroke="white" stroke-width="1.5" pointer-events="none"/>
                </g>
                <g id="zoomMin">
                        <use xlink:href="#rim" fill="#404040">
                                <set attributeName="fill" to="#808080" begin="zoomminus.mouseover" end="zoomminus.mouseout"/>
                        </use>
                        <path d="M-4,0h8" fill="none" stroke="white" stroke-width="1.5" pointer-events="none"/>
                </g>
                <g id="dirArrow">
                        <path fill="none" stroke="white" stroke-width="1.5" d="M0,-3.0v7 M-2.5,-0.5L0,-3.0L2.5,-0.5"/>
                </g>
               <g id="resetDef">
                       <use xlink:href="#rim2" fill="#404040">
                               <set attributeName="fill" to="#808080" begin="reset.mouseover" end="reset.mouseout"/>
                       </use>
               </g>
        </defs>

<script type="text/javascript">
var viewWidth = 1068;
var viewHeight = 474;
var sectionId = 'dynsection-3';
</script>
<script xlink:href="svgpan.js"/>
<svg id="graph" class="graph">
<g id="viewport">
<title>ParMETIS_V3_PartKway</title>
<polygon fill="white" stroke="none" points="-4,4 -4,-470 1064,-470 1064,4 -4,4"/>
<!-- Node5 -->
<g id="node1" class="node"><title>Node5</title>
<polygon fill="#bfbfbf" stroke="black" points="0.5,-152.5 0.5,-171.5 129.5,-171.5 129.5,-152.5 0.5,-152.5"/>
<text text-anchor="middle" x="65" y="-159.5" font-family="Helvetica,sans-Serif" font-size="10.00">ParMETIS_V3_PartKway</text>
</g>
<!-- Node6 -->
<g id="node2" class="node"><title>Node6</title>
<g id="a_node2"><a xlink:href="a00077.html#a24633cc1c72a7e92836912c2adcf570a" target="_top" xlink:title="gk_malloc_init">
<polygon fill="white" stroke="black" points="833,-342.5 833,-361.5 913,-361.5 913,-342.5 833,-342.5"/>
<text text-anchor="middle" x="873" y="-349.5" font-family="Helvetica,sans-Serif" font-size="10.00">gk_malloc_init</text>
</a>
</g>
</g>
<!-- Node5&#45;&gt;Node6 -->
<g id="edge1" class="edge"><title>Node5&#45;&gt;Node6</title>
<path fill="none" stroke="midnightblue" d="M72.567,-171.588C87.3153,-192.59 124.999,-243.385 166,-276 229.181,-326.258 249.416,-336.453 326,-362 514.129,-424.756 575.776,-404.758 772,-376 790.902,-373.23 811.473,-368.583 829.015,-364.111"/>
<polygon fill="midnightblue" stroke="midnightblue" points="830.168,-367.428 838.959,-361.515 828.399,-360.655 830.168,-367.428"/>
</g>
<!-- Node7 -->
<g id="node3" class="node"><title>Node7</title>
<g id="a_node3"><a xlink:href="a00077.html#ad2327b94227019b6753b6b09400c0522" target="_top" xlink:title="gk_GetCurMemoryUsed">
<polygon fill="white" stroke="black" points="166,-0.5 166,-19.5 290,-19.5 290,-0.5 166,-0.5"/>
<text text-anchor="middle" x="228" y="-7.5" font-family="Helvetica,sans-Serif" font-size="10.00">gk_GetCurMemoryUsed</text>
</a>
</g>
</g>
<!-- Node5&#45;&gt;Node7 -->
<g id="edge2" class="edge"><title>Node5&#45;&gt;Node7</title>
<path fill="none" stroke="midnightblue" d="M71.185,-152.216C84.1249,-128.665 120.125,-68.2428 166,-34 171.453,-29.9293 177.687,-26.4509 184.04,-23.5101"/>
<polygon fill="midnightblue" stroke="midnightblue" points="185.502,-26.6922 193.354,-19.5798 182.78,-20.2428 185.502,-26.6922"/>
</g>
<!-- Node8 -->
<g id="node4" class="node"><title>Node8</title>
<g id="a_node4"><a xlink:href="a00170.html#abea67bb0c6286795ac5fc9bee605dc5d" target="_top" xlink:title="METIS_SetDefaultOptions">
<polygon fill="white" stroke="black" points="633,-152.5 633,-171.5 767,-171.5 767,-152.5 633,-152.5"/>
<text text-anchor="middle" x="700" y="-159.5" font-family="Helvetica,sans-Serif" font-size="10.00">METIS_SetDefaultOptions</text>
</a>
</g>
</g>
<!-- Node5&#45;&gt;Node8 -->
<g id="edge3" class="edge"><title>Node5&#45;&gt;Node8</title>
<path fill="none" stroke="midnightblue" d="M129.691,-154.624C228.75,-144.296 425.649,-128.345 592,-143 609.432,-144.536 628.277,-147.453 645.225,-150.548"/>
<polygon fill="midnightblue" stroke="midnightblue" points="645.026,-154.073 655.502,-152.488 646.324,-147.194 645.026,-154.073"/>
</g>
<!-- Node9 -->
<g id="node5" class="node"><title>Node9</title>
<g id="a_node5"><a xlink:href="a00912.html#af89851458c047aba436b36ed567441e4" target="_top" xlink:title="METIS_PartGraphKway">
<polygon fill="white" stroke="black" points="166.5,-247.5 166.5,-266.5 289.5,-266.5 289.5,-247.5 166.5,-247.5"/>
<text text-anchor="middle" x="228" y="-254.5" font-family="Helvetica,sans-Serif" font-size="10.00">METIS_PartGraphKway</text>
</a>
</g>
</g>
<!-- Node5&#45;&gt;Node9 -->
<g id="edge4" class="edge"><title>Node5&#45;&gt;Node9</title>
<path fill="none" stroke="midnightblue" d="M82.3235,-171.632C110.53,-188.275 168.566,-222.52 201.924,-242.204"/>
<polygon fill="midnightblue" stroke="midnightblue" points="200.242,-245.275 210.633,-247.343 203.799,-239.246 200.242,-245.275"/>
</g>
<!-- Node21 -->
<g id="node17" class="node"><title>Node21</title>
<g id="a_node17"><a xlink:href="a00077.html#a47156a22528b5bc8c7c6e9849af34e62" target="_top" xlink:title="gk_malloc_cleanup">
<polygon fill="white" stroke="black" points="822,-418.5 822,-437.5 924,-437.5 924,-418.5 822,-418.5"/>
<text text-anchor="middle" x="873" y="-425.5" font-family="Helvetica,sans-Serif" font-size="10.00">gk_malloc_cleanup</text>
</a>
</g>
</g>
<!-- Node5&#45;&gt;Node21 -->
<g id="edge30" class="edge"><title>Node5&#45;&gt;Node21</title>
<path fill="none" stroke="midnightblue" d="M70.223,-171.77C93.4391,-223.805 210.904,-466 386,-466 386,-466 386,-466 539,-466 642.799,-466 669.254,-464.747 772,-450 789.34,-447.511 808.149,-443.678 824.726,-439.905"/>
<polygon fill="midnightblue" stroke="midnightblue" points="825.78,-443.253 834.726,-437.576 824.192,-436.436 825.78,-443.253"/>
</g>
<!-- Node23 -->
<g id="node19" class="node"><title>Node23</title>
<g id="a_node19"><a xlink:href="a00915.html#af4c32961457a508271104065d135e675" target="_top" xlink:title="Global_Partition">
<polygon fill="white" stroke="black" points="494,-20.5 494,-39.5 582,-39.5 582,-20.5 494,-20.5"/>
<text text-anchor="middle" x="538" y="-27.5" font-family="Helvetica,sans-Serif" font-size="10.00">Global_Partition</text>
</a>
</g>
</g>
<!-- Node5&#45;&gt;Node23 -->
<g id="edge27" class="edge"><title>Node5&#45;&gt;Node23</title>
<path fill="none" stroke="midnightblue" d="M73.2526,-152.288C88.1839,-133.125 124.464,-90.6871 166,-72 271.154,-24.6912 409.302,-22.8494 483.821,-26.1304"/>
<polygon fill="midnightblue" stroke="midnightblue" points="483.745,-29.6307 493.904,-26.6232 484.087,-22.6391 483.745,-29.6307"/>
</g>
<!-- Node9&#45;&gt;Node6 -->
<g id="edge5" class="edge"><title>Node9&#45;&gt;Node6</title>
<path fill="none" stroke="midnightblue" d="M237.16,-266.503C252.51,-283.585 287.611,-319 326,-333 499.417,-396.242 724.709,-374.31 822.785,-360.156"/>
<polygon fill="midnightblue" stroke="midnightblue" points="823.332,-363.613 832.712,-358.686 822.307,-356.689 823.332,-363.613"/>
</g>
<!-- Node10 -->
<g id="node6" class="node"><title>Node10</title>
<g id="a_node6"><a xlink:href="a00026.html#a05869524d1c30cfaab2a8690e7da6fd4" target="_top" xlink:title="gk_sigtrap">
<polygon fill="white" stroke="black" points="841.5,-275.5 841.5,-294.5 904.5,-294.5 904.5,-275.5 841.5,-275.5"/>
<text text-anchor="middle" x="873" y="-282.5" font-family="Helvetica,sans-Serif" font-size="10.00">gk_sigtrap</text>
</a>
</g>
</g>
<!-- Node9&#45;&gt;Node10 -->
<g id="edge6" class="edge"><title>Node9&#45;&gt;Node10</title>
<path fill="none" stroke="midnightblue" d="M289.781,-259.647C419.734,-265.306 721.677,-278.454 831.302,-283.228"/>
<polygon fill="midnightblue" stroke="midnightblue" points="831.156,-286.725 841.299,-283.663 831.46,-279.731 831.156,-286.725"/>
</g>
<!-- Node11 -->
<g id="node7" class="node"><title>Node11</title>
<g id="a_node7"><a xlink:href="a00026.html#a08f287b6dbdc0779c916ecbd49540a1e" target="_top" xlink:title="gk_siguntrap">
<polygon fill="white" stroke="black" points="836,-124.5 836,-143.5 910,-143.5 910,-124.5 836,-124.5"/>
<text text-anchor="middle" x="873" y="-131.5" font-family="Helvetica,sans-Serif" font-size="10.00">gk_siguntrap</text>
</a>
</g>
</g>
<!-- Node9&#45;&gt;Node11 -->
<g id="edge7" class="edge"><title>Node9&#45;&gt;Node11</title>
<path fill="none" stroke="midnightblue" d="M238.231,-247.467C254.45,-231.287 289.789,-198.506 326,-181 495.011,-99.293 727.843,-115.616 825.716,-127.395"/>
<polygon fill="midnightblue" stroke="midnightblue" points="825.512,-130.896 835.868,-128.659 826.377,-123.95 825.512,-130.896"/>
</g>
<!-- Node12 -->
<g id="node8" class="node"><title>Node12</title>
<g id="a_node8"><a xlink:href="a00077.html#a3d153a0a39d7ba54f0943fa586f0c561" target="_top" xlink:title="gk_log2">
<polygon fill="white" stroke="black" points="361,-304.5 361,-323.5 413,-323.5 413,-304.5 361,-304.5"/>
<text text-anchor="middle" x="387" y="-311.5" font-family="Helvetica,sans-Serif" font-size="10.00">gk_log2</text>
</a>
</g>
</g>
<!-- Node9&#45;&gt;Node12 -->
<g id="edge8" class="edge"><title>Node9&#45;&gt;Node12</title>
<path fill="none" stroke="midnightblue" d="M255.278,-266.541C281.593,-276.094 322.237,-290.851 351.215,-301.371"/>
<polygon fill="midnightblue" stroke="midnightblue" points="350.341,-304.777 360.935,-304.9 352.73,-298.197 350.341,-304.777"/>
</g>
<!-- Node13 -->
<g id="node9" class="node"><title>Node13</title>
<g id="a_node9"><a xlink:href="a00026.html#a4c320c13bcdc9967613253ef4c73f59f" target="_top" xlink:title="gk_errexit">
<polygon fill="white" stroke="black" points="670,-190.5 670,-209.5 730,-209.5 730,-190.5 670,-190.5"/>
<text text-anchor="middle" x="700" y="-197.5" font-family="Helvetica,sans-Serif" font-size="10.00">gk_errexit</text>
</a>
</g>
</g>
<!-- Node9&#45;&gt;Node13 -->
<g id="edge9" class="edge"><title>Node9&#45;&gt;Node13</title>
<path fill="none" stroke="midnightblue" d="M289.723,-250.036C361.833,-241.713 485.731,-227.246 592,-214 614.48,-211.198 639.597,-207.919 659.843,-205.24"/>
<polygon fill="midnightblue" stroke="midnightblue" points="660.495,-208.684 669.947,-203.899 659.574,-201.745 660.495,-208.684"/>
</g>
<!-- Node15 -->
<g id="node11" class="node"><title>Node15</title>
<g id="a_node11"><a xlink:href="a00912.html#a7973c78504ad6711d3516082b1112805" target="_top" xlink:title="MlevelKWayPartitioning">
<polygon fill="white" stroke="black" points="326,-190.5 326,-209.5 448,-209.5 448,-190.5 326,-190.5"/>
<text text-anchor="middle" x="387" y="-197.5" font-family="Helvetica,sans-Serif" font-size="10.00">MlevelKWayPartitioning</text>
</a>
</g>
</g>
<!-- Node9&#45;&gt;Node15 -->
<g id="edge11" class="edge"><title>Node9&#45;&gt;Node15</title>
<path fill="none" stroke="midnightblue" d="M255.278,-247.459C281.203,-238.047 321.035,-223.586 349.917,-213.1"/>
<polygon fill="midnightblue" stroke="midnightblue" points="351.431,-216.274 359.636,-209.572 349.042,-209.694 351.431,-216.274"/>
</g>
<!-- Node9&#45;&gt;Node21 -->
<g id="edge26" class="edge"><title>Node9&#45;&gt;Node21</title>
<path fill="none" stroke="midnightblue" d="M234.55,-266.631C247.461,-288.028 281.807,-339.405 326,-362 486.229,-443.924 706.476,-440.993 811.519,-433.746"/>
<polygon fill="midnightblue" stroke="midnightblue" points="811.903,-437.228 821.623,-433.011 811.395,-430.246 811.903,-437.228"/>
</g>
<!-- Node14 -->
<g id="node10" class="node"><title>Node14</title>
<g id="a_node10"><a xlink:href="a01017.html#a2e311a777ffe9c80e405efa7cd2757be" target="_top" xlink:title="fprintf">
<polygon fill="white" stroke="black" points="852,-181.5 852,-200.5 894,-200.5 894,-181.5 852,-181.5"/>
<text text-anchor="middle" x="873" y="-188.5" font-family="Helvetica,sans-Serif" font-size="10.00">fprintf</text>
</a>
</g>
</g>
<!-- Node13&#45;&gt;Node14 -->
<g id="edge10" class="edge"><title>Node13&#45;&gt;Node14</title>
<path fill="none" stroke="midnightblue" d="M730.008,-198.473C761.034,-196.84 810.025,-194.262 841.583,-192.601"/>
<polygon fill="midnightblue" stroke="midnightblue" points="842.158,-196.076 851.96,-192.055 841.79,-189.085 842.158,-196.076"/>
</g>
<!-- Node15&#45;&gt;Node13 -->
<g id="edge25" class="edge"><title>Node15&#45;&gt;Node13</title>
<path fill="none" stroke="midnightblue" d="M448.333,-200C510.764,-200 606.451,-200 659.73,-200"/>
<polygon fill="midnightblue" stroke="midnightblue" points="659.798,-203.5 669.798,-200 659.798,-196.5 659.798,-203.5"/>
</g>
<!-- Node16 -->
<g id="node12" class="node"><title>Node16</title>
<g id="a_node12"><a xlink:href="a00912.html#a870e37cc14eb1033c62d83d3a7c33a91" target="_top" xlink:title="InitKWayPartitioning">
<polygon fill="white" stroke="black" points="484.5,-152.5 484.5,-171.5 591.5,-171.5 591.5,-152.5 484.5,-152.5"/>
<text text-anchor="middle" x="538" y="-159.5" font-family="Helvetica,sans-Serif" font-size="10.00">InitKWayPartitioning</text>
</a>
</g>
</g>
<!-- Node15&#45;&gt;Node16 -->
<g id="edge12" class="edge"><title>Node15&#45;&gt;Node16</title>
<path fill="none" stroke="midnightblue" d="M425.599,-190.411C445.084,-185.442 469.075,-179.323 489.796,-174.039"/>
<polygon fill="midnightblue" stroke="midnightblue" points="490.846,-177.383 499.671,-171.52 489.117,-170.6 490.846,-177.383"/>
</g>
<!-- Node16&#45;&gt;Node8 -->
<g id="edge13" class="edge"><title>Node16&#45;&gt;Node8</title>
<path fill="none" stroke="midnightblue" d="M591.833,-162C601.664,-162 612.116,-162 622.489,-162"/>
<polygon fill="midnightblue" stroke="midnightblue" points="622.81,-165.5 632.81,-162 622.81,-158.5 622.81,-165.5"/>
</g>
<!-- Node16&#45;&gt;Node13 -->
<g id="edge23" class="edge"><title>Node16&#45;&gt;Node13</title>
<path fill="none" stroke="midnightblue" d="M579.375,-171.589C604,-177.437 635.326,-184.877 659.744,-190.677"/>
<polygon fill="midnightblue" stroke="midnightblue" points="659.208,-194.147 669.747,-193.052 660.826,-187.336 659.208,-194.147"/>
</g>
<!-- Node17 -->
<g id="node13" class="node"><title>Node17</title>
<g id="a_node13"><a xlink:href="a00260.html#a25fc90fd934931239b3c98ac4bdbce76" target="_top" xlink:title="Recursive partitioning routine. ">
<polygon fill="white" stroke="black" points="628.5,-228.5 628.5,-247.5 771.5,-247.5 771.5,-228.5 628.5,-228.5"/>
<text text-anchor="middle" x="700" y="-235.5" font-family="Helvetica,sans-Serif" font-size="10.00">METIS_PartGraphRecursive</text>
</a>
</g>
</g>
<!-- Node16&#45;&gt;Node17 -->
<g id="edge14" class="edge"><title>Node16&#45;&gt;Node17</title>
<path fill="none" stroke="midnightblue" d="M551.269,-171.615C567.82,-184.161 598.623,-206.037 628,-219 633.385,-221.376 639.134,-223.513 644.941,-225.419"/>
<polygon fill="midnightblue" stroke="midnightblue" points="644.13,-228.831 654.716,-228.411 646.179,-222.137 644.13,-228.831"/>
</g>
<!-- Node22 -->
<g id="node18" class="node"><title>Node22</title>
<g id="a_node18"><a xlink:href="a00077.html#ac8df62c4e3d0910711a9874f9cc58884" target="_top" xlink:title="gk_free">
<polygon fill="white" stroke="black" points="675,-48.5 675,-67.5 725,-67.5 725,-48.5 675,-48.5"/>
<text text-anchor="middle" x="700" y="-55.5" font-family="Helvetica,sans-Serif" font-size="10.00">gk_free</text>
</a>
</g>
</g>
<!-- Node16&#45;&gt;Node22 -->
<g id="edge24" class="edge"><title>Node16&#45;&gt;Node22</title>
<path fill="none" stroke="midnightblue" d="M553.766,-152.402C581.627,-134.293 642.151,-94.9521 675.602,-73.2084"/>
<polygon fill="midnightblue" stroke="midnightblue" points="677.793,-75.9589 684.27,-67.5745 673.978,-70.0898 677.793,-75.9589"/>
</g>
<!-- Node17&#45;&gt;Node6 -->
<g id="edge15" class="edge"><title>Node17&#45;&gt;Node6</title>
<path fill="none" stroke="midnightblue" d="M715.285,-247.523C744.885,-267.256 813.138,-312.758 849.013,-336.675"/>
<polygon fill="midnightblue" stroke="midnightblue" points="847.131,-339.627 857.393,-342.262 851.014,-333.803 847.131,-339.627"/>
</g>
<!-- Node17&#45;&gt;Node10 -->
<g id="edge16" class="edge"><title>Node17&#45;&gt;Node10</title>
<path fill="none" stroke="midnightblue" d="M735.604,-247.511C763.365,-255.141 802.381,-265.865 831.577,-273.89"/>
<polygon fill="midnightblue" stroke="midnightblue" points="830.889,-277.33 841.459,-276.606 832.745,-270.581 830.889,-277.33"/>
</g>
<!-- Node17&#45;&gt;Node11 -->
<g id="edge17" class="edge"><title>Node17&#45;&gt;Node11</title>
<path fill="none" stroke="midnightblue" d="M752.787,-228.468C759.561,-226.002 766.166,-222.901 772,-219 793.874,-204.376 788.331,-189.478 808,-172 818.366,-162.789 831.287,-154.623 842.8,-148.244"/>
<polygon fill="midnightblue" stroke="midnightblue" points="844.476,-151.317 851.656,-143.526 841.184,-145.139 844.476,-151.317"/>
</g>
<!-- Node18 -->
<g id="node14" class="node"><title>Node18</title>
<g id="a_node14"><a xlink:href="a00260.html#a5510f276b321a8450b2e9cc913c2f00f" target="_top" xlink:title="MlevelRecursiveBisection">
<polygon fill="white" stroke="black" points="808,-219.5 808,-238.5 938,-238.5 938,-219.5 808,-219.5"/>
<text text-anchor="middle" x="873" y="-226.5" font-family="Helvetica,sans-Serif" font-size="10.00">MlevelRecursiveBisection</text>
</a>
</g>
</g>
<!-- Node17&#45;&gt;Node18 -->
<g id="edge18" class="edge"><title>Node17&#45;&gt;Node18</title>
<path fill="none" stroke="midnightblue" d="M771.54,-234.287C780.202,-233.831 789.076,-233.364 797.79,-232.906"/>
<polygon fill="midnightblue" stroke="midnightblue" points="798.123,-236.393 807.925,-232.372 797.755,-229.403 798.123,-236.393"/>
</g>
<!-- Node17&#45;&gt;Node21 -->
<g id="edge22" class="edge"><title>Node17&#45;&gt;Node21</title>
<path fill="none" stroke="midnightblue" d="M708.01,-247.802C724.398,-270.463 766.949,-327.838 808,-371 821.963,-385.681 839.18,-400.872 852.238,-411.875"/>
<polygon fill="midnightblue" stroke="midnightblue" points="850.218,-414.747 860.143,-418.455 854.696,-409.367 850.218,-414.747"/>
</g>
<!-- Node18&#45;&gt;Node18 -->
<g id="edge21" class="edge"><title>Node18&#45;&gt;Node18</title>
<path fill="none" stroke="midnightblue" d="M850.805,-238.757C840.008,-247.565 847.406,-257 873,-257 889.796,-257 898.756,-252.937 899.879,-247.654"/>
<polygon fill="midnightblue" stroke="midnightblue" points="902.951,-245.975 895.195,-238.757 896.757,-249.236 902.951,-245.975"/>
</g>
<!-- Node19 -->
<g id="node15" class="node"><title>Node19</title>
<g id="a_node15"><a xlink:href="a00260.html#a33c48a23cc94ea0221fa5c7317cd0222" target="_top" xlink:title="MultilevelBisect">
<polygon fill="white" stroke="black" points="974.5,-238.5 974.5,-257.5 1059.5,-257.5 1059.5,-238.5 974.5,-238.5"/>
<text text-anchor="middle" x="1017" y="-245.5" font-family="Helvetica,sans-Serif" font-size="10.00">MultilevelBisect</text>
</a>
</g>
</g>
<!-- Node18&#45;&gt;Node19 -->
<g id="edge19" class="edge"><title>Node18&#45;&gt;Node19</title>
<path fill="none" stroke="midnightblue" d="M938.352,-237.611C947.013,-238.769 955.806,-239.946 964.211,-241.07"/>
<polygon fill="midnightblue" stroke="midnightblue" points="963.859,-244.555 974.235,-242.412 964.788,-237.616 963.859,-244.555"/>
</g>
<!-- Node20 -->
<g id="node16" class="node"><title>Node20</title>
<g id="a_node16"><a xlink:href="a00260.html#a49d272affb67ce57b2d20dccd7f15f53" target="_top" xlink:title="SplitGraphPart">
<polygon fill="white" stroke="black" points="976,-200.5 976,-219.5 1058,-219.5 1058,-200.5 976,-200.5"/>
<text text-anchor="middle" x="1017" y="-207.5" font-family="Helvetica,sans-Serif" font-size="10.00">SplitGraphPart</text>
</a>
</g>
</g>
<!-- Node18&#45;&gt;Node20 -->
<g id="edge20" class="edge"><title>Node18&#45;&gt;Node20</title>
<path fill="none" stroke="midnightblue" d="M938.352,-220.389C947.53,-219.162 956.856,-217.914 965.712,-216.729"/>
<polygon fill="midnightblue" stroke="midnightblue" points="966.407,-220.167 975.854,-215.372 965.478,-213.229 966.407,-220.167"/>
</g>
<!-- Node23&#45;&gt;Node22 -->
<g id="edge28" class="edge"><title>Node23&#45;&gt;Node22</title>
<path fill="none" stroke="midnightblue" d="M582.298,-37.5772C608.096,-42.0918 640.395,-47.7441 664.469,-51.9571"/>
<polygon fill="midnightblue" stroke="midnightblue" points="664.115,-55.4483 674.569,-53.7246 665.322,-48.5531 664.115,-55.4483"/>
</g>
<!-- Node23&#45;&gt;Node23 -->
<g id="edge29" class="edge"><title>Node23&#45;&gt;Node23</title>
<path fill="none" stroke="midnightblue" d="M514.881,-39.7571C503.633,-48.5653 511.34,-58 538,-58 555.496,-58 564.829,-53.9368 565.999,-48.6539"/>
<polygon fill="midnightblue" stroke="midnightblue" points="568.997,-46.8417 561.119,-39.7571 562.86,-50.208 568.997,-46.8417"/>
</g>
</g>
</svg>
        <g id="navigator" transform="translate(0 0)" fill="#404254">
                <rect fill="#f2f5e9" fill-opacity="0.5" stroke="#606060" stroke-width=".5" x="0" y="0" width="60" height="60"/>
                <use id="zoomplus" xlink:href="#zoomPlus" x="17" y="9" onmousedown="handleZoom(evt,'in')"/>
                <use id="zoomminus" xlink:href="#zoomMin" x="42" y="9" onmousedown="handleZoom(evt,'out')"/>
                <use id="reset" xlink:href="#resetDef" x="30" y="36" onmousedown="handleReset()"/>
                <g id="arrowUp" xlink:href="#dirArrow" transform="translate(30 24)" onmousedown="handlePan(0,-1)">
                  <use xlink:href="#rim" fill="#404040">
                        <set attributeName="fill" to="#808080" begin="arrowUp.mouseover" end="arrowUp.mouseout"/>
                  </use>
                  <path fill="none" stroke="white" stroke-width="1.5" d="M0,-3.0v7 M-2.5,-0.5L0,-3.0L2.5,-0.5"/>
                </g>
                <g id="arrowRight" xlink:href="#dirArrow" transform="rotate(90) translate(36 -43)" onmousedown="handlePan(1,0)">
                  <use xlink:href="#rim" fill="#404040">
                        <set attributeName="fill" to="#808080" begin="arrowRight.mouseover" end="arrowRight.mouseout"/>
                  </use>
                  <path fill="none" stroke="white" stroke-width="1.5" d="M0,-3.0v7 M-2.5,-0.5L0,-3.0L2.5,-0.5"/>
                </g>
                <g id="arrowDown" xlink:href="#dirArrow" transform="rotate(180) translate(-30 -48)" onmousedown="handlePan(0,1)">
                  <use xlink:href="#rim" fill="#404040">
                        <set attributeName="fill" to="#808080" begin="arrowDown.mouseover" end="arrowDown.mouseout"/>
                  </use>
                  <path fill="none" stroke="white" stroke-width="1.5" d="M0,-3.0v7 M-2.5,-0.5L0,-3.0L2.5,-0.5"/>
                </g>
                <g id="arrowLeft" xlink:href="#dirArrow" transform="rotate(270) translate(-36 17)" onmousedown="handlePan(-1,0)">
                  <use xlink:href="#rim" fill="#404040">
                        <set attributeName="fill" to="#808080" begin="arrowLeft.mouseover" end="arrowLeft.mouseout"/>
                  </use>
                  <path fill="none" stroke="white" stroke-width="1.5" d="M0,-3.0v7 M-2.5,-0.5L0,-3.0L2.5,-0.5"/>
                </g>
        </g>
        <svg viewBox="0 0 15 15" width="100%" height="30px" preserveAspectRatio="xMaxYMin meet">
         <g id="arrow_out" transform="scale(0.3 0.3)">
          <a xlink:href="a00915_aa19849fbf0820dcdbc1d9b6451dc6d2d_cgraph_org.svg" target="_base">
           <rect id="button" ry="5" rx="5" y="6" x="6" height="38" width="38"
                fill="#f2f5e9" fill-opacity="0.5" stroke="#606060" stroke-width="1.0"/>
           <path id="arrow"
             d="M 11.500037,31.436501 C 11.940474,20.09759 22.043105,11.32322 32.158766,21.979434 L 37.068811,17.246167 C 37.068811,17.246167 37.088388,32 37.088388,32 L 22.160133,31.978069 C 22.160133,31.978069 26.997745,27.140456 26.997745,27.140456 C 18.528582,18.264221 13.291696,25.230495 11.500037,31.436501 z"
             style="fill:#404040;"/>
          </a>
         </g>
        </svg>
</svg>
