<?xml version="1.0" encoding="UTF-8" standalone="no"?>
<!DOCTYPE svg PUBLIC "-//W3C//DTD SVG 1.1//EN"
 "http://www.w3.org/Graphics/SVG/1.1/DTD/svg11.dtd">
<!-- Generated by graphviz version 2.36.0 (20140111.2315)
 -->
<!-- Title: PrintNodeBalanceInfo Pages: 1 -->
<svg width="458pt" height="28pt"
 viewBox="0.00 0.00 458.00 28.00" xmlns="http://www.w3.org/2000/svg" xmlns:xlink="http://www.w3.org/1999/xlink">
<g id="graph0" class="graph" transform="scale(1 1) rotate(0) translate(4 24)">
<title>PrintNodeBalanceInfo</title>
<polygon fill="white" stroke="none" points="-4,4 -4,-24 454,-24 454,4 -4,4"/>
<!-- Node484 -->
<g id="node1" class="node"><title>Node484</title>
<polygon fill="#bfbfbf" stroke="black" points="0,-0.5 0,-19.5 114,-19.5 114,-0.5 0,-0.5"/>
<text text-anchor="middle" x="57" y="-7.5" font-family="Helvetica,sans-Serif" font-size="10.00">PrintNodeBalanceInfo</text>
</g>
<!-- Node485 -->
<g id="node2" class="node"><title>Node485</title>
<g id="a_node2"><a xlink:href="a00954.html#a5c9aaeced318b88b4ad50dcb484d47b1" target="_top" xlink:title="KWayNodeRefine_Greedy">
<polygon fill="white" stroke="black" points="150,-0.5 150,-19.5 284,-19.5 284,-0.5 150,-0.5"/>
<text text-anchor="middle" x="217" y="-7.5" font-family="Helvetica,sans-Serif" font-size="10.00">KWayNodeRefine_Greedy</text>
</a>
</g>
</g>
<!-- Node484&#45;&gt;Node485 -->
<g id="edge1" class="edge"><title>Node484&#45;&gt;Node485</title>
<path fill="none" stroke="midnightblue" d="M124.301,-10C132.725,-10 141.347,-10 149.77,-10"/>
<polygon fill="midnightblue" stroke="midnightblue" points="124.15,-6.5001 114.15,-10 124.15,-13.5001 124.15,-6.5001"/>
</g>
<!-- Node486 -->
<g id="node3" class="node"><title>Node486</title>
<g id="a_node3"><a xlink:href="a00954.html#a5c42d043dc7f9e6d0b955a4d004a7470" target="_top" xlink:title="KWayNodeRefine2Phase">
<polygon fill="white" stroke="black" points="320,-0.5 320,-19.5 450,-19.5 450,-0.5 320,-0.5"/>
<text text-anchor="middle" x="385" y="-7.5" font-family="Helvetica,sans-Serif" font-size="10.00">KWayNodeRefine2Phase</text>
</a>
</g>
</g>
<!-- Node485&#45;&gt;Node486 -->
<g id="edge2" class="edge"><title>Node485&#45;&gt;Node486</title>
<path fill="none" stroke="midnightblue" d="M294.092,-10C302.674,-10 311.356,-10 319.766,-10"/>
<polygon fill="midnightblue" stroke="midnightblue" points="294.085,-6.5001 284.085,-10 294.085,-13.5001 294.085,-6.5001"/>
</g>
</g>
</svg>
