<?xml version="1.0" encoding="UTF-8" standalone="no"?>
<!DOCTYPE svg PUBLIC "-//W3C//DTD SVG 1.1//EN"
 "http://www.w3.org/Graphics/SVG/1.1/DTD/svg11.dtd">
<!-- Generated by graphviz version 2.36.0 (20140111.2315)
 -->
<!-- Title: Init2WayPartition Pages: 1 -->
<svg width="322pt" height="180pt"
 viewBox="0.00 0.00 322.00 180.00" xmlns="http://www.w3.org/2000/svg" xmlns:xlink="http://www.w3.org/1999/xlink">
<g id="graph0" class="graph" transform="scale(1 1) rotate(0) translate(4 176)">
<title>Init2WayPartition</title>
<polygon fill="white" stroke="none" points="-4,4 -4,-176 318,-176 318,4 -4,4"/>
<!-- Node20 -->
<g id="node1" class="node"><title>Node20</title>
<polygon fill="#bfbfbf" stroke="black" points="0,-76.5 0,-95.5 92,-95.5 92,-76.5 0,-76.5"/>
<text text-anchor="middle" x="46" y="-83.5" font-family="Helvetica,sans-Serif" font-size="10.00">Init2WayPartition</text>
</g>
<!-- Node21 -->
<g id="node2" class="node"><title>Node21</title>
<g id="a_node2"><a xlink:href="a00906.html#ad9f0573a18d3fcfa45d73c3bef80e5f8" target="_top" xlink:title="RandomBisection">
<polygon fill="white" stroke="black" points="134.5,-152.5 134.5,-171.5 229.5,-171.5 229.5,-152.5 134.5,-152.5"/>
<text text-anchor="middle" x="182" y="-159.5" font-family="Helvetica,sans-Serif" font-size="10.00">RandomBisection</text>
</a>
</g>
</g>
<!-- Node20&#45;&gt;Node21 -->
<g id="edge1" class="edge"><title>Node20&#45;&gt;Node21</title>
<path fill="none" stroke="midnightblue" d="M58.4337,-95.5559C73.5672,-107.838 101.443,-129.218 128,-143 131.962,-145.056 136.198,-146.984 140.483,-148.763"/>
<polygon fill="midnightblue" stroke="midnightblue" points="139.268,-152.045 149.856,-152.413 141.808,-145.523 139.268,-152.045"/>
</g>
<!-- Node22 -->
<g id="node3" class="node"><title>Node22</title>
<g id="a_node3"><a xlink:href="a00906.html#a3ac013a2933e687d40aee2496120367e" target="_top" xlink:title="McRandomBisection">
<polygon fill="white" stroke="black" points="128,-114.5 128,-133.5 236,-133.5 236,-114.5 128,-114.5"/>
<text text-anchor="middle" x="182" y="-121.5" font-family="Helvetica,sans-Serif" font-size="10.00">McRandomBisection</text>
</a>
</g>
</g>
<!-- Node20&#45;&gt;Node22 -->
<g id="edge2" class="edge"><title>Node20&#45;&gt;Node22</title>
<path fill="none" stroke="midnightblue" d="M80.8139,-95.589C98.0326,-100.472 119.164,-106.464 137.573,-111.685"/>
<polygon fill="midnightblue" stroke="midnightblue" points="136.621,-115.053 147.197,-114.414 138.531,-108.319 136.621,-115.053"/>
</g>
<!-- Node23 -->
<g id="node4" class="node"><title>Node23</title>
<g id="a_node4"><a xlink:href="a00906.html#aa565fcd8af582579b67153287a07ea69" target="_top" xlink:title="GrowBisection">
<polygon fill="white" stroke="black" points="141.5,-76.5 141.5,-95.5 222.5,-95.5 222.5,-76.5 141.5,-76.5"/>
<text text-anchor="middle" x="182" y="-83.5" font-family="Helvetica,sans-Serif" font-size="10.00">GrowBisection</text>
</a>
</g>
</g>
<!-- Node20&#45;&gt;Node23 -->
<g id="edge3" class="edge"><title>Node20&#45;&gt;Node23</title>
<path fill="none" stroke="midnightblue" d="M92.3663,-86C104.704,-86 118.139,-86 130.731,-86"/>
<polygon fill="midnightblue" stroke="midnightblue" points="131.068,-89.5001 141.068,-86 131.068,-82.5001 131.068,-89.5001"/>
</g>
<!-- Node25 -->
<g id="node6" class="node"><title>Node25</title>
<g id="a_node6"><a xlink:href="a00906.html#af361dc8ba850849b9230c5c7c8c8c582" target="_top" xlink:title="McGrowBisection">
<polygon fill="white" stroke="black" points="135,-38.5 135,-57.5 229,-57.5 229,-38.5 135,-38.5"/>
<text text-anchor="middle" x="182" y="-45.5" font-family="Helvetica,sans-Serif" font-size="10.00">McGrowBisection</text>
</a>
</g>
</g>
<!-- Node20&#45;&gt;Node25 -->
<g id="edge5" class="edge"><title>Node20&#45;&gt;Node25</title>
<path fill="none" stroke="midnightblue" d="M80.8139,-76.411C98.0326,-71.5281 119.164,-65.5357 137.573,-60.315"/>
<polygon fill="midnightblue" stroke="midnightblue" points="138.531,-63.6815 147.197,-57.5859 136.621,-56.947 138.531,-63.6815"/>
</g>
<!-- Node26 -->
<g id="node7" class="node"><title>Node26</title>
<g id="a_node7"><a xlink:href="a00026.html#a4c320c13bcdc9967613253ef4c73f59f" target="_top" xlink:title="gk_errexit">
<polygon fill="white" stroke="black" points="152,-0.5 152,-19.5 212,-19.5 212,-0.5 152,-0.5"/>
<text text-anchor="middle" x="182" y="-7.5" font-family="Helvetica,sans-Serif" font-size="10.00">gk_errexit</text>
</a>
</g>
</g>
<!-- Node20&#45;&gt;Node26 -->
<g id="edge6" class="edge"><title>Node20&#45;&gt;Node26</title>
<path fill="none" stroke="midnightblue" d="M58.4337,-76.4441C73.5672,-64.1618 101.443,-42.7823 128,-29 132.547,-26.6403 137.453,-24.4505 142.381,-22.46"/>
<polygon fill="midnightblue" stroke="midnightblue" points="143.69,-25.707 151.796,-18.8852 141.205,-19.1628 143.69,-25.707"/>
</g>
<!-- Node24 -->
<g id="node5" class="node"><title>Node24</title>
<g id="a_node5"><a xlink:href="a00623.html#ad1e7380d51df1e0043d24d3c8a860e0a" target="_top" xlink:title="for">
<polygon fill="white" stroke="black" points="278.5,-76.5 278.5,-95.5 307.5,-95.5 307.5,-76.5 278.5,-76.5"/>
<text text-anchor="middle" x="293" y="-83.5" font-family="Helvetica,sans-Serif" font-size="10.00">for</text>
</a>
</g>
</g>
<!-- Node23&#45;&gt;Node24 -->
<g id="edge4" class="edge"><title>Node23&#45;&gt;Node24</title>
<path fill="none" stroke="midnightblue" d="M222.66,-86C237.878,-86 254.766,-86 268.066,-86"/>
<polygon fill="midnightblue" stroke="midnightblue" points="268.278,-89.5001 278.278,-86 268.278,-82.5001 268.278,-89.5001"/>
</g>
<!-- Node27 -->
<g id="node8" class="node"><title>Node27</title>
<g id="a_node8"><a xlink:href="a01017.html#a2e311a777ffe9c80e405efa7cd2757be" target="_top" xlink:title="fprintf">
<polygon fill="white" stroke="black" points="272,-0.5 272,-19.5 314,-19.5 314,-0.5 272,-0.5"/>
<text text-anchor="middle" x="293" y="-7.5" font-family="Helvetica,sans-Serif" font-size="10.00">fprintf</text>
</a>
</g>
</g>
<!-- Node26&#45;&gt;Node27 -->
<g id="edge7" class="edge"><title>Node26&#45;&gt;Node27</title>
<path fill="none" stroke="midnightblue" d="M212.21,-10C227.479,-10 246.15,-10 261.591,-10"/>
<polygon fill="midnightblue" stroke="midnightblue" points="261.684,-13.5001 271.684,-10 261.684,-6.5001 261.684,-13.5001"/>
</g>
</g>
</svg>
