<?xml version="1.0" encoding="UTF-8" standalone="no"?>
<!DOCTYPE svg PUBLIC "-//W3C//DTD SVG 1.1//EN"
 "http://www.w3.org/Graphics/SVG/1.1/DTD/svg11.dtd">
<!-- Generated by graphviz version 2.36.0 (20140111.2315)
 -->
<!-- Title: WriteMetisGraph Pages: 1 -->
<svg width="180pt" height="66pt"
 viewBox="0.00 0.00 180.00 66.00" xmlns="http://www.w3.org/2000/svg" xmlns:xlink="http://www.w3.org/1999/xlink">
<g id="graph0" class="graph" transform="scale(1 1) rotate(0) translate(4 62)">
<title>WriteMetisGraph</title>
<polygon fill="white" stroke="none" points="-4,4 -4,-62 176,-62 176,4 -4,4"/>
<!-- Node605 -->
<g id="node1" class="node"><title>Node605</title>
<polygon fill="#bfbfbf" stroke="black" points="0,-19.5 0,-38.5 92,-38.5 92,-19.5 0,-19.5"/>
<text text-anchor="middle" x="46" y="-26.5" font-family="Helvetica,sans-Serif" font-size="10.00">WriteMetisGraph</text>
</g>
<!-- Node606 -->
<g id="node2" class="node"><title>Node606</title>
<g id="a_node2"><a xlink:href="a01017.html#a2e311a777ffe9c80e405efa7cd2757be" target="_top" xlink:title="fprintf">
<polygon fill="white" stroke="black" points="129,-38.5 129,-57.5 171,-57.5 171,-38.5 129,-38.5"/>
<text text-anchor="middle" x="150" y="-45.5" font-family="Helvetica,sans-Serif" font-size="10.00">fprintf</text>
</a>
</g>
</g>
<!-- Node605&#45;&gt;Node606 -->
<g id="edge1" class="edge"><title>Node605&#45;&gt;Node606</title>
<path fill="none" stroke="midnightblue" d="M92.0356,-37.389C101.116,-39.0805 110.453,-40.8197 118.873,-42.388"/>
<polygon fill="midnightblue" stroke="midnightblue" points="118.487,-45.8762 128.958,-44.2668 119.768,-38.9946 118.487,-45.8762"/>
</g>
<!-- Node607 -->
<g id="node3" class="node"><title>Node607</title>
<g id="a_node3"><a xlink:href="a01017.html#a355ed4cdac2a27aa04a6689ac2d7e86e" target="_top" xlink:title="fclose">
<polygon fill="white" stroke="black" points="128.5,-0.5 128.5,-19.5 171.5,-19.5 171.5,-0.5 128.5,-0.5"/>
<text text-anchor="middle" x="150" y="-7.5" font-family="Helvetica,sans-Serif" font-size="10.00">fclose</text>
</a>
</g>
</g>
<!-- Node605&#45;&gt;Node607 -->
<g id="edge2" class="edge"><title>Node605&#45;&gt;Node607</title>
<path fill="none" stroke="midnightblue" d="M92.0356,-20.611C100.966,-18.9474 110.145,-17.2378 118.454,-15.6899"/>
<polygon fill="midnightblue" stroke="midnightblue" points="119.242,-19.1035 128.432,-13.8314 117.96,-12.2219 119.242,-19.1035"/>
</g>
</g>
</svg>
