<?xml version="1.0" encoding="UTF-8" standalone="no"?>
<!DOCTYPE svg PUBLIC "-//W3C//DTD SVG 1.1//EN"
 "http://www.w3.org/Graphics/SVG/1.1/DTD/svg11.dtd">
<!-- Generated by graphviz version 2.36.0 (20140111.2315)
 -->
<!-- Title: MlevelNodeBisectionL1 Pages: 1 -->
<svg width="844pt" height="102pt"
 viewBox="0.00 0.00 844.00 102.00" xmlns="http://www.w3.org/2000/svg" xmlns:xlink="http://www.w3.org/1999/xlink">
<g id="graph0" class="graph" transform="scale(1 1) rotate(0) translate(4 98)">
<title>MlevelNodeBisectionL1</title>
<polygon fill="white" stroke="none" points="-4,4 -4,-98 840,-98 840,4 -4,4"/>
<!-- Node86 -->
<g id="node1" class="node"><title>Node86</title>
<polygon fill="#bfbfbf" stroke="black" points="0.5,-28.5 0.5,-47.5 121.5,-47.5 121.5,-28.5 0.5,-28.5"/>
<text text-anchor="middle" x="61" y="-35.5" font-family="Helvetica,sans-Serif" font-size="10.00">MlevelNodeBisectionL1</text>
</g>
<!-- Node87 -->
<g id="node2" class="node"><title>Node87</title>
<g id="a_node2"><a xlink:href="a00948.html#ac3a0eaeefa34a3865a0be5bb70bd958f" target="_top" xlink:title="MlevelNodeBisectionL2">
<polygon fill="white" stroke="black" points="158.5,-28.5 158.5,-47.5 279.5,-47.5 279.5,-28.5 158.5,-28.5"/>
<text text-anchor="middle" x="219" y="-35.5" font-family="Helvetica,sans-Serif" font-size="10.00">MlevelNodeBisectionL2</text>
</a>
</g>
</g>
<!-- Node86&#45;&gt;Node87 -->
<g id="edge1" class="edge"><title>Node86&#45;&gt;Node87</title>
<path fill="none" stroke="midnightblue" d="M132.06,-38C140.819,-38 149.712,-38 158.293,-38"/>
<polygon fill="midnightblue" stroke="midnightblue" points="131.868,-34.5001 121.868,-38 131.867,-41.5001 131.868,-34.5001"/>
</g>
<!-- Node88 -->
<g id="node3" class="node"><title>Node88</title>
<g id="a_node3"><a xlink:href="a00948.html#a59c8030c5429e219a8535c2a11cef724" target="_top" xlink:title="MlevelNodeBisectionMultiple">
<polygon fill="white" stroke="black" points="316,-28.5 316,-47.5 460,-47.5 460,-28.5 316,-28.5"/>
<text text-anchor="middle" x="388" y="-35.5" font-family="Helvetica,sans-Serif" font-size="10.00">MlevelNodeBisectionMultiple</text>
</a>
</g>
</g>
<!-- Node87&#45;&gt;Node88 -->
<g id="edge2" class="edge"><title>Node87&#45;&gt;Node88</title>
<path fill="none" stroke="midnightblue" d="M289.828,-38C298.451,-38 307.275,-38 315.917,-38"/>
<polygon fill="midnightblue" stroke="midnightblue" points="289.819,-34.5001 279.819,-38 289.819,-41.5001 289.819,-34.5001"/>
</g>
<!-- Node89 -->
<g id="node4" class="node"><title>Node89</title>
<g id="a_node4"><a xlink:href="a00948.html#af853e9d8bbb2188f871fac436e631ed1" target="_top" xlink:title="MlevelNestedDissection">
<polygon fill="white" stroke="black" points="503.5,-56.5 503.5,-75.5 626.5,-75.5 626.5,-56.5 503.5,-56.5"/>
<text text-anchor="middle" x="565" y="-63.5" font-family="Helvetica,sans-Serif" font-size="10.00">MlevelNestedDissection</text>
</a>
</g>
</g>
<!-- Node88&#45;&gt;Node89 -->
<g id="edge3" class="edge"><title>Node88&#45;&gt;Node89</title>
<path fill="none" stroke="midnightblue" d="M459.034,-49.2054C474.109,-51.6175 489.906,-54.1449 504.534,-56.4854"/>
<polygon fill="midnightblue" stroke="midnightblue" points="459.163,-45.6816 448.736,-47.5577 458.057,-52.5937 459.163,-45.6816"/>
</g>
<!-- Node92 -->
<g id="node7" class="node"><title>Node92</title>
<g id="a_node7"><a xlink:href="a00948.html#a3ef15d1ffff55a81b8486bee09239073" target="_top" xlink:title="MlevelNestedDissectionCC">
<polygon fill="white" stroke="black" points="496,-0.5 496,-19.5 634,-19.5 634,-0.5 496,-0.5"/>
<text text-anchor="middle" x="565" y="-7.5" font-family="Helvetica,sans-Serif" font-size="10.00">MlevelNestedDissectionCC</text>
</a>
</g>
</g>
<!-- Node88&#45;&gt;Node92 -->
<g id="edge7" class="edge"><title>Node88&#45;&gt;Node92</title>
<path fill="none" stroke="midnightblue" d="M459.034,-26.7946C474.109,-24.3825 489.906,-21.8551 504.534,-19.5146"/>
<polygon fill="midnightblue" stroke="midnightblue" points="458.057,-23.4063 448.736,-28.4423 459.163,-30.3184 458.057,-23.4063"/>
</g>
<!-- Node89&#45;&gt;Node89 -->
<g id="edge6" class="edge"><title>Node89&#45;&gt;Node89</title>
<path fill="none" stroke="midnightblue" d="M537.001,-84.6539C538.171,-89.9368 547.504,-94 565,-94 591.66,-94 599.367,-84.5653 588.119,-75.7571"/>
<polygon fill="midnightblue" stroke="midnightblue" points="540.14,-86.208 541.881,-75.7571 534.003,-82.8417 540.14,-86.208"/>
</g>
<!-- Node90 -->
<g id="node5" class="node"><title>Node90</title>
<g id="a_node5"><a xlink:href="a00936.html#a8304f0dd6d180587f73b0b70de3b01b7" target="_top" xlink:title="METIS_NodeND">
<polygon fill="white" stroke="black" points="670.5,-28.5 670.5,-47.5 761.5,-47.5 761.5,-28.5 670.5,-28.5"/>
<text text-anchor="middle" x="716" y="-35.5" font-family="Helvetica,sans-Serif" font-size="10.00">METIS_NodeND</text>
</a>
</g>
</g>
<!-- Node89&#45;&gt;Node90 -->
<g id="edge4" class="edge"><title>Node89&#45;&gt;Node90</title>
<path fill="none" stroke="midnightblue" d="M626.802,-54.574C641.371,-51.8363 656.664,-48.9625 670.347,-46.3911"/>
<polygon fill="midnightblue" stroke="midnightblue" points="626.042,-51.1556 616.861,-56.4423 627.335,-58.0351 626.042,-51.1556"/>
</g>
<!-- Node91 -->
<g id="node6" class="node"><title>Node91</title>
<g id="a_node6"><a xlink:href="a00326.html#a0ddf1224851353fc92bfbff6f499fa97" target="_top" xlink:title="main">
<polygon fill="white" stroke="black" points="798,-28.5 798,-47.5 836,-47.5 836,-28.5 798,-28.5"/>
<text text-anchor="middle" x="817" y="-35.5" font-family="Helvetica,sans-Serif" font-size="10.00">main</text>
</a>
</g>
</g>
<!-- Node90&#45;&gt;Node91 -->
<g id="edge5" class="edge"><title>Node90&#45;&gt;Node91</title>
<path fill="none" stroke="midnightblue" d="M771.748,-38C781.09,-38 790.179,-38 797.665,-38"/>
<polygon fill="midnightblue" stroke="midnightblue" points="771.577,-34.5001 761.577,-38 771.577,-41.5001 771.577,-34.5001"/>
</g>
<!-- Node92&#45;&gt;Node90 -->
<g id="edge8" class="edge"><title>Node92&#45;&gt;Node90</title>
<path fill="none" stroke="midnightblue" d="M626.802,-21.426C641.371,-24.1637 656.664,-27.0375 670.347,-29.6089"/>
<polygon fill="midnightblue" stroke="midnightblue" points="627.335,-17.9649 616.861,-19.5577 626.042,-24.8444 627.335,-17.9649"/>
</g>
<!-- Node92&#45;&gt;Node92 -->
<g id="edge9" class="edge"><title>Node92&#45;&gt;Node92</title>
<path fill="none" stroke="midnightblue" d="M537.001,-28.6539C538.171,-33.9368 547.504,-38 565,-38 591.66,-38 599.367,-28.5653 588.119,-19.7571"/>
<polygon fill="midnightblue" stroke="midnightblue" points="540.14,-30.208 541.881,-19.7571 534.003,-26.8417 540.14,-30.208"/>
</g>
</g>
</svg>
