<?xml version="1.0" encoding="UTF-8" standalone="no"?>
<!DOCTYPE svg PUBLIC "-//W3C//DTD SVG 1.1//EN"
 "http://www.w3.org/Graphics/SVG/1.1/DTD/svg11.dtd">
<!-- Generated by graphviz version 2.36.0 (20140111.2315)
 -->
<!-- Title: CreateCoarseGraph Pages: 1 -->
<svg width="436pt" height="75pt"
 viewBox="0.00 0.00 436.00 75.00" xmlns="http://www.w3.org/2000/svg" xmlns:xlink="http://www.w3.org/1999/xlink">
<g id="graph0" class="graph" transform="scale(1 1) rotate(0) translate(4 71)">
<title>CreateCoarseGraph</title>
<polygon fill="white" stroke="none" points="-4,4 -4,-71 432,-71 432,4 -4,4"/>
<!-- Node183 -->
<g id="node1" class="node"><title>Node183</title>
<polygon fill="#bfbfbf" stroke="black" points="0.5,-28.5 0.5,-47.5 107.5,-47.5 107.5,-28.5 0.5,-28.5"/>
<text text-anchor="middle" x="54" y="-35.5" font-family="Helvetica,sans-Serif" font-size="10.00">CreateCoarseGraph</text>
</g>
<!-- Node184 -->
<g id="node2" class="node"><title>Node184</title>
<g id="a_node2"><a xlink:href="a00182.html#a70dc59d4c7190507e7ad9a4cc0d80707" target="_top" xlink:title="CreateCoarseGraphNoMask">
<polygon fill="white" stroke="black" points="144.5,-28.5 144.5,-47.5 287.5,-47.5 287.5,-28.5 144.5,-28.5"/>
<text text-anchor="middle" x="216" y="-35.5" font-family="Helvetica,sans-Serif" font-size="10.00">CreateCoarseGraphNoMask</text>
</a>
</g>
</g>
<!-- Node183&#45;&gt;Node184 -->
<g id="edge1" class="edge"><title>Node183&#45;&gt;Node184</title>
<path fill="none" stroke="midnightblue" d="M107.833,-38C116.299,-38 125.224,-38 134.164,-38"/>
<polygon fill="midnightblue" stroke="midnightblue" points="134.239,-41.5001 144.239,-38 134.239,-34.5001 134.239,-41.5001"/>
</g>
<!-- Node185 -->
<g id="node3" class="node"><title>Node185</title>
<g id="a_node3"><a xlink:href="a00182.html#a113522304bf628b09d0b69b4db05050e" target="_top" xlink:title="SetupCoarseGraph">
<polygon fill="white" stroke="black" points="324.5,-47.5 324.5,-66.5 427.5,-66.5 427.5,-47.5 324.5,-47.5"/>
<text text-anchor="middle" x="376" y="-54.5" font-family="Helvetica,sans-Serif" font-size="10.00">SetupCoarseGraph</text>
</a>
</g>
</g>
<!-- Node183&#45;&gt;Node185 -->
<g id="edge4" class="edge"><title>Node183&#45;&gt;Node185</title>
<path fill="none" stroke="midnightblue" d="M91.0962,-47.5088C107.167,-51.2736 126.402,-55.1425 144,-57 201.471,-63.0662 267.435,-62.3032 314.12,-60.477"/>
<polygon fill="midnightblue" stroke="midnightblue" points="314.525,-63.9632 324.37,-60.047 314.232,-56.9694 314.525,-63.9632"/>
</g>
<!-- Node186 -->
<g id="node4" class="node"><title>Node186</title>
<g id="a_node4"><a xlink:href="a00182.html#ab69ab96ec78174da232dff05e9c79d2f" target="_top" xlink:title="ReAdjustMemory">
<polygon fill="white" stroke="black" points="329.5,-0.5 329.5,-19.5 422.5,-19.5 422.5,-0.5 329.5,-0.5"/>
<text text-anchor="middle" x="376" y="-7.5" font-family="Helvetica,sans-Serif" font-size="10.00">ReAdjustMemory</text>
</a>
</g>
</g>
<!-- Node183&#45;&gt;Node186 -->
<g id="edge5" class="edge"><title>Node183&#45;&gt;Node186</title>
<path fill="none" stroke="midnightblue" d="M92.8682,-28.4184C108.583,-24.8342 127.069,-21.1212 144,-19 203.422,-11.5554 272.053,-9.73164 318.97,-9.50548"/>
<polygon fill="midnightblue" stroke="midnightblue" points="319.237,-13.0049 329.229,-9.47984 319.22,-6.00494 319.237,-13.0049"/>
</g>
<!-- Node184&#45;&gt;Node185 -->
<g id="edge2" class="edge"><title>Node184&#45;&gt;Node185</title>
<path fill="none" stroke="midnightblue" d="M287.682,-46.4997C296.54,-47.5649 305.54,-48.6472 314.228,-49.692"/>
<polygon fill="midnightblue" stroke="midnightblue" points="313.911,-53.179 324.257,-50.898 314.747,-46.229 313.911,-53.179"/>
</g>
<!-- Node184&#45;&gt;Node186 -->
<g id="edge3" class="edge"><title>Node184&#45;&gt;Node186</title>
<path fill="none" stroke="midnightblue" d="M270.933,-28.4423C286.553,-25.6742 303.631,-22.6476 319.354,-19.8613"/>
<polygon fill="midnightblue" stroke="midnightblue" points="320.226,-23.2615 329.461,-18.0701 319.004,-16.3689 320.226,-23.2615"/>
</g>
</g>
</svg>
