<?xml version="1.0" encoding="UTF-8" standalone="no"?>
<!DOCTYPE svg PUBLIC "-//W3C//DTD SVG 1.1//EN"
 "http://www.w3.org/Graphics/SVG/1.1/DTD/svg11.dtd">
<!-- Generated by graphviz version 2.36.0 (20140111.2315)
 -->
<!-- Title: WritePVector Pages: 1 -->
<svg width="248pt" height="180pt"
 viewBox="0.00 0.00 248.00 180.00" xmlns="http://www.w3.org/2000/svg" xmlns:xlink="http://www.w3.org/1999/xlink">
<g id="graph0" class="graph" transform="scale(1 1) rotate(0) translate(4 176)">
<title>WritePVector</title>
<polygon fill="white" stroke="none" points="-4,4 -4,-176 244,-176 244,4 -4,4"/>
<!-- Node125 -->
<g id="node1" class="node"><title>Node125</title>
<polygon fill="#bfbfbf" stroke="black" points="0.5,-76.5 0.5,-95.5 75.5,-95.5 75.5,-76.5 0.5,-76.5"/>
<text text-anchor="middle" x="38" y="-83.5" font-family="Helvetica,sans-Serif" font-size="10.00">WritePVector</text>
</g>
<!-- Node126 -->
<g id="node2" class="node"><title>Node126</title>
<g id="a_node2"><a xlink:href="a00575.html#ae6aab5c308faac0fc539cc9c6da9fbd0" target="_top" xlink:title="sprintf">
<polygon fill="white" stroke="black" points="115,-152.5 115,-171.5 159,-171.5 159,-152.5 115,-152.5"/>
<text text-anchor="middle" x="137" y="-159.5" font-family="Helvetica,sans-Serif" font-size="10.00">sprintf</text>
</a>
</g>
</g>
<!-- Node125&#45;&gt;Node126 -->
<g id="edge1" class="edge"><title>Node125&#45;&gt;Node126</title>
<path fill="none" stroke="midnightblue" d="M51.2851,-95.6255C67.5383,-108.36 96.3981,-130.972 115.862,-146.222"/>
<polygon fill="midnightblue" stroke="midnightblue" points="113.784,-149.04 123.815,-152.453 118.102,-143.53 113.784,-149.04"/>
</g>
<!-- Node127 -->
<g id="node3" class="node"><title>Node127</title>
<g id="a_node3"><a xlink:href="a00026.html#a56d0f2cc40cd8633a784582d6200d8b5" target="_top" xlink:title="errexit">
<polygon fill="white" stroke="black" points="115,-114.5 115,-133.5 159,-133.5 159,-114.5 115,-114.5"/>
<text text-anchor="middle" x="137" y="-121.5" font-family="Helvetica,sans-Serif" font-size="10.00">errexit</text>
</a>
</g>
</g>
<!-- Node125&#45;&gt;Node127 -->
<g id="edge2" class="edge"><title>Node125&#45;&gt;Node127</title>
<path fill="none" stroke="midnightblue" d="M63.4772,-95.589C76.2129,-100.578 91.9054,-106.726 105.432,-112.025"/>
<polygon fill="midnightblue" stroke="midnightblue" points="104.238,-115.316 114.825,-115.705 106.791,-108.798 104.238,-115.316"/>
</g>
<!-- Node128 -->
<g id="node4" class="node"><title>Node128</title>
<g id="a_node4"><a xlink:href="a01017.html#a2e311a777ffe9c80e405efa7cd2757be" target="_top" xlink:title="fprintf">
<polygon fill="white" stroke="black" points="198,-95.5 198,-114.5 240,-114.5 240,-95.5 198,-95.5"/>
<text text-anchor="middle" x="219" y="-102.5" font-family="Helvetica,sans-Serif" font-size="10.00">fprintf</text>
</a>
</g>
</g>
<!-- Node125&#45;&gt;Node128 -->
<g id="edge4" class="edge"><title>Node125&#45;&gt;Node128</title>
<path fill="none" stroke="midnightblue" d="M75.6553,-89.8908C108.594,-93.387 156.409,-98.4624 187.357,-101.747"/>
<polygon fill="midnightblue" stroke="midnightblue" points="187.235,-105.254 197.548,-102.829 187.974,-98.2931 187.235,-105.254"/>
</g>
<!-- Node129 -->
<g id="node5" class="node"><title>Node129</title>
<g id="a_node5"><a xlink:href="a00077.html#ac8df62c4e3d0910711a9874f9cc58884" target="_top" xlink:title="gk_free">
<polygon fill="white" stroke="black" points="112,-38.5 112,-57.5 162,-57.5 162,-38.5 112,-38.5"/>
<text text-anchor="middle" x="137" y="-45.5" font-family="Helvetica,sans-Serif" font-size="10.00">gk_free</text>
</a>
</g>
</g>
<!-- Node125&#45;&gt;Node129 -->
<g id="edge5" class="edge"><title>Node125&#45;&gt;Node129</title>
<path fill="none" stroke="midnightblue" d="M63.4772,-76.411C75.2843,-71.7855 89.6325,-66.1646 102.44,-61.1471"/>
<polygon fill="midnightblue" stroke="midnightblue" points="103.832,-64.3608 111.867,-57.4543 101.279,-57.8431 103.832,-64.3608"/>
</g>
<!-- Node130 -->
<g id="node6" class="node"><title>Node130</title>
<g id="a_node6"><a xlink:href="a01017.html#a355ed4cdac2a27aa04a6689ac2d7e86e" target="_top" xlink:title="fclose">
<polygon fill="white" stroke="black" points="115.5,-0.5 115.5,-19.5 158.5,-19.5 158.5,-0.5 115.5,-0.5"/>
<text text-anchor="middle" x="137" y="-7.5" font-family="Helvetica,sans-Serif" font-size="10.00">fclose</text>
</a>
</g>
</g>
<!-- Node125&#45;&gt;Node130 -->
<g id="edge6" class="edge"><title>Node125&#45;&gt;Node130</title>
<path fill="none" stroke="midnightblue" d="M51.2851,-76.3745C67.5383,-63.6401 96.3981,-41.0283 115.862,-25.7781"/>
<polygon fill="midnightblue" stroke="midnightblue" points="118.102,-28.4699 123.815,-19.5473 113.784,-22.9597 118.102,-28.4699"/>
</g>
<!-- Node127&#45;&gt;Node128 -->
<g id="edge3" class="edge"><title>Node127&#45;&gt;Node128</title>
<path fill="none" stroke="midnightblue" d="M159.019,-119.008C167.858,-116.909 178.308,-114.427 187.937,-112.14"/>
<polygon fill="midnightblue" stroke="midnightblue" points="189.028,-115.478 197.948,-109.762 187.41,-108.668 189.028,-115.478"/>
</g>
</g>
</svg>
