<?xml version="1.0" encoding="UTF-8" standalone="no"?>
<!DOCTYPE svg PUBLIC "-//W3C//DTD SVG 1.1//EN"
 "http://www.w3.org/Graphics/SVG/1.1/DTD/svg11.dtd">
<!-- Generated by graphviz version 2.36.0 (20140111.2315)
 -->
<!-- Title: MlevelKWayPartitioning Pages: 1 -->
<!--zoomable 236 -->
<svg id="main" version="1.1" xmlns="http://www.w3.org/2000/svg" xmlns:xlink="http://www.w3.org/1999/xlink" xml:space="preserve" onload="init(evt)">
<style type="text/css"><![CDATA[
.edge:hover path { stroke: red; }
.edge:hover polygon { stroke: red; fill: red; }
]]></style>
<script type="text/javascript"><![CDATA[
var edges = document.getElementsByTagName('g');
if (edges && edges.length) {
  for (var i=0;i<edges.length;i++) {
    if (edges[i].id.substr(0,4)=='edge') {
      edges[i].setAttribute('class','edge');
    }
  }
}
]]></script>
        <defs>
                <circle id="rim" cx="0" cy="0" r="7"/>
                <circle id="rim2" cx="0" cy="0" r="3.5"/>
                <g id="zoomPlus">
                        <use xlink:href="#rim" fill="#404040">
                                <set attributeName="fill" to="#808080" begin="zoomplus.mouseover" end="zoomplus.mouseout"/>
                        </use>
                        <path d="M-4,0h8M0,-4v8" fill="none" stroke="white" stroke-width="1.5" pointer-events="none"/>
                </g>
                <g id="zoomMin">
                        <use xlink:href="#rim" fill="#404040">
                                <set attributeName="fill" to="#808080" begin="zoomminus.mouseover" end="zoomminus.mouseout"/>
                        </use>
                        <path d="M-4,0h8" fill="none" stroke="white" stroke-width="1.5" pointer-events="none"/>
                </g>
                <g id="dirArrow">
                        <path fill="none" stroke="white" stroke-width="1.5" d="M0,-3.0v7 M-2.5,-0.5L0,-3.0L2.5,-0.5"/>
                </g>
               <g id="resetDef">
                       <use xlink:href="#rim2" fill="#404040">
                               <set attributeName="fill" to="#808080" begin="reset.mouseover" end="reset.mouseout"/>
                       </use>
               </g>
        </defs>

<script type="text/javascript">
var viewWidth = 742;
var viewHeight = 236;
var sectionId = 'dynsection-106';
</script>
<script xlink:href="svgpan.js"/>
<svg id="graph" class="graph">
<g id="viewport">
<title>MlevelKWayPartitioning</title>
<polygon fill="white" stroke="none" points="-4,4 -4,-232 738,-232 738,4 -4,4"/>
<!-- Node605 -->
<g id="node1" class="node"><title>Node605</title>
<polygon fill="#bfbfbf" stroke="black" points="0,-19.5 0,-38.5 122,-38.5 122,-19.5 0,-19.5"/>
<text text-anchor="middle" x="61" y="-26.5" font-family="Helvetica,sans-Serif" font-size="10.00">MlevelKWayPartitioning</text>
</g>
<!-- Node606 -->
<g id="node2" class="node"><title>Node606</title>
<g id="a_node2"><a xlink:href="a00912.html#a870e37cc14eb1033c62d83d3a7c33a91" target="_top" xlink:title="InitKWayPartitioning">
<polygon fill="white" stroke="black" points="158.5,-38.5 158.5,-57.5 265.5,-57.5 265.5,-38.5 158.5,-38.5"/>
<text text-anchor="middle" x="212" y="-45.5" font-family="Helvetica,sans-Serif" font-size="10.00">InitKWayPartitioning</text>
</a>
</g>
</g>
<!-- Node605&#45;&gt;Node606 -->
<g id="edge1" class="edge"><title>Node605&#45;&gt;Node606</title>
<path fill="none" stroke="midnightblue" d="M122.175,-36.6733C130.766,-37.7688 139.622,-38.8981 148.261,-39.9998"/>
<polygon fill="midnightblue" stroke="midnightblue" points="147.912,-43.4835 158.275,-41.2767 148.798,-36.5398 147.912,-43.4835"/>
</g>
<!-- Node616 -->
<g id="node12" class="node"><title>Node616</title>
<g id="a_node12"><a xlink:href="a00026.html#a4c320c13bcdc9967613253ef4c73f59f" target="_top" xlink:title="gk_errexit">
<polygon fill="white" stroke="black" points="344,-0.5 344,-19.5 404,-19.5 404,-0.5 344,-0.5"/>
<text text-anchor="middle" x="374" y="-7.5" font-family="Helvetica,sans-Serif" font-size="10.00">gk_errexit</text>
</a>
</g>
</g>
<!-- Node605&#45;&gt;Node616 -->
<g id="edge15" class="edge"><title>Node605&#45;&gt;Node616</title>
<path fill="none" stroke="midnightblue" d="M122.333,-25.3141C184.764,-21.4999 280.451,-15.6541 333.73,-12.3991"/>
<polygon fill="midnightblue" stroke="midnightblue" points="334.03,-15.8874 343.798,-11.784 333.603,-8.90044 334.03,-15.8874"/>
</g>
<!-- Node607 -->
<g id="node3" class="node"><title>Node607</title>
<g id="a_node3"><a xlink:href="a00170.html#abea67bb0c6286795ac5fc9bee605dc5d" target="_top" xlink:title="METIS_SetDefaultOptions">
<polygon fill="white" stroke="black" points="307,-114.5 307,-133.5 441,-133.5 441,-114.5 307,-114.5"/>
<text text-anchor="middle" x="374" y="-121.5" font-family="Helvetica,sans-Serif" font-size="10.00">METIS_SetDefaultOptions</text>
</a>
</g>
</g>
<!-- Node606&#45;&gt;Node607 -->
<g id="edge2" class="edge"><title>Node606&#45;&gt;Node607</title>
<path fill="none" stroke="midnightblue" d="M225.269,-57.615C241.82,-70.1609 272.623,-92.0372 302,-105 307.385,-107.376 313.134,-109.513 318.941,-111.419"/>
<polygon fill="midnightblue" stroke="midnightblue" points="318.13,-114.831 328.716,-114.411 320.179,-108.137 318.13,-114.831"/>
</g>
<!-- Node608 -->
<g id="node4" class="node"><title>Node608</title>
<g id="a_node4"><a xlink:href="a00260.html#a25fc90fd934931239b3c98ac4bdbce76" target="_top" xlink:title="Recursive partitioning routine. ">
<polygon fill="white" stroke="black" points="302.5,-76.5 302.5,-95.5 445.5,-95.5 445.5,-76.5 302.5,-76.5"/>
<text text-anchor="middle" x="374" y="-83.5" font-family="Helvetica,sans-Serif" font-size="10.00">METIS_PartGraphRecursive</text>
</a>
</g>
</g>
<!-- Node606&#45;&gt;Node608 -->
<g id="edge3" class="edge"><title>Node606&#45;&gt;Node608</title>
<path fill="none" stroke="midnightblue" d="M253.375,-57.589C274.488,-62.6035 300.529,-68.7881 322.917,-74.1053"/>
<polygon fill="midnightblue" stroke="midnightblue" points="322.377,-77.5744 332.916,-76.4799 323.995,-70.7639 322.377,-77.5744"/>
</g>
<!-- Node606&#45;&gt;Node616 -->
<g id="edge12" class="edge"><title>Node606&#45;&gt;Node616</title>
<path fill="none" stroke="midnightblue" d="M253.375,-38.411C278,-32.5625 309.326,-25.1225 333.744,-19.3232"/>
<polygon fill="midnightblue" stroke="midnightblue" points="334.826,-22.6638 343.747,-16.9477 333.208,-15.8532 334.826,-22.6638"/>
</g>
<!-- Node618 -->
<g id="node14" class="node"><title>Node618</title>
<g id="a_node14"><a xlink:href="a00077.html#ac8df62c4e3d0910711a9874f9cc58884" target="_top" xlink:title="gk_free">
<polygon fill="white" stroke="black" points="349,-38.5 349,-57.5 399,-57.5 399,-38.5 349,-38.5"/>
<text text-anchor="middle" x="374" y="-45.5" font-family="Helvetica,sans-Serif" font-size="10.00">gk_free</text>
</a>
</g>
</g>
<!-- Node606&#45;&gt;Node618 -->
<g id="edge14" class="edge"><title>Node606&#45;&gt;Node618</title>
<path fill="none" stroke="midnightblue" d="M265.833,-48C289.817,-48 317.497,-48 338.717,-48"/>
<polygon fill="midnightblue" stroke="midnightblue" points="338.87,-51.5001 348.87,-48 338.87,-44.5001 338.87,-51.5001"/>
</g>
<!-- Node609 -->
<g id="node5" class="node"><title>Node609</title>
<g id="a_node5"><a xlink:href="a00077.html#a24633cc1c72a7e92836912c2adcf570a" target="_top" xlink:title="gk_malloc_init">
<polygon fill="white" stroke="black" points="507,-208.5 507,-227.5 587,-227.5 587,-208.5 507,-208.5"/>
<text text-anchor="middle" x="547" y="-215.5" font-family="Helvetica,sans-Serif" font-size="10.00">gk_malloc_init</text>
</a>
</g>
</g>
<!-- Node608&#45;&gt;Node609 -->
<g id="edge4" class="edge"><title>Node608&#45;&gt;Node609</title>
<path fill="none" stroke="midnightblue" d="M431.495,-95.6128C436.773,-98.0777 441.734,-101.157 446,-105 479.239,-134.942 449.17,-168.61 482,-199 486.414,-203.086 491.668,-206.296 497.24,-208.817"/>
<polygon fill="midnightblue" stroke="midnightblue" points="496.234,-212.179 506.826,-212.443 498.711,-205.631 496.234,-212.179"/>
</g>
<!-- Node610 -->
<g id="node6" class="node"><title>Node610</title>
<g id="a_node6"><a xlink:href="a00026.html#a05869524d1c30cfaab2a8690e7da6fd4" target="_top" xlink:title="gk_sigtrap">
<polygon fill="white" stroke="black" points="515.5,-170.5 515.5,-189.5 578.5,-189.5 578.5,-170.5 515.5,-170.5"/>
<text text-anchor="middle" x="547" y="-177.5" font-family="Helvetica,sans-Serif" font-size="10.00">gk_sigtrap</text>
</a>
</g>
</g>
<!-- Node608&#45;&gt;Node610 -->
<g id="edge5" class="edge"><title>Node608&#45;&gt;Node610</title>
<path fill="none" stroke="midnightblue" d="M428.191,-95.5149C434.529,-97.9819 440.64,-101.088 446,-105 469.9,-122.443 458.339,-143.235 482,-161 488.928,-166.202 497.267,-169.986 505.602,-172.737"/>
<polygon fill="midnightblue" stroke="midnightblue" points="504.723,-176.125 515.3,-175.514 506.65,-169.396 504.723,-176.125"/>
</g>
<!-- Node611 -->
<g id="node7" class="node"><title>Node611</title>
<g id="a_node7"><a xlink:href="a00026.html#a08f287b6dbdc0779c916ecbd49540a1e" target="_top" xlink:title="gk_siguntrap">
<polygon fill="white" stroke="black" points="510,-132.5 510,-151.5 584,-151.5 584,-132.5 510,-132.5"/>
<text text-anchor="middle" x="547" y="-139.5" font-family="Helvetica,sans-Serif" font-size="10.00">gk_siguntrap</text>
</a>
</g>
</g>
<!-- Node608&#45;&gt;Node611 -->
<g id="edge6" class="edge"><title>Node608&#45;&gt;Node611</title>
<path fill="none" stroke="midnightblue" d="M416.372,-95.5612C426.205,-98.2467 436.575,-101.425 446,-105 462.726,-111.345 465.362,-116.429 482,-123 487.801,-125.291 493.991,-127.458 500.151,-129.453"/>
<polygon fill="midnightblue" stroke="midnightblue" points="499.156,-132.809 509.744,-132.438 501.235,-126.125 499.156,-132.809"/>
</g>
<!-- Node612 -->
<g id="node8" class="node"><title>Node612</title>
<g id="a_node8"><a xlink:href="a00260.html#a5510f276b321a8450b2e9cc913c2f00f" target="_top" xlink:title="MlevelRecursiveBisection">
<polygon fill="white" stroke="black" points="482,-76.5 482,-95.5 612,-95.5 612,-76.5 482,-76.5"/>
<text text-anchor="middle" x="547" y="-83.5" font-family="Helvetica,sans-Serif" font-size="10.00">MlevelRecursiveBisection</text>
</a>
</g>
</g>
<!-- Node608&#45;&gt;Node612 -->
<g id="edge7" class="edge"><title>Node608&#45;&gt;Node612</title>
<path fill="none" stroke="midnightblue" d="M445.54,-86C454.202,-86 463.076,-86 471.79,-86"/>
<polygon fill="midnightblue" stroke="midnightblue" points="471.925,-89.5001 481.925,-86 471.925,-82.5001 471.925,-89.5001"/>
</g>
<!-- Node615 -->
<g id="node11" class="node"><title>Node615</title>
<g id="a_node11"><a xlink:href="a00077.html#a47156a22528b5bc8c7c6e9849af34e62" target="_top" xlink:title="gk_malloc_cleanup">
<polygon fill="white" stroke="black" points="496,-38.5 496,-57.5 598,-57.5 598,-38.5 496,-38.5"/>
<text text-anchor="middle" x="547" y="-45.5" font-family="Helvetica,sans-Serif" font-size="10.00">gk_malloc_cleanup</text>
</a>
</g>
</g>
<!-- Node608&#45;&gt;Node615 -->
<g id="edge11" class="edge"><title>Node608&#45;&gt;Node615</title>
<path fill="none" stroke="midnightblue" d="M418.151,-76.411C440.919,-71.3513 469.048,-65.1004 493.119,-59.7512"/>
<polygon fill="midnightblue" stroke="midnightblue" points="494.157,-63.1061 503.16,-57.5201 492.639,-56.2728 494.157,-63.1061"/>
</g>
<!-- Node612&#45;&gt;Node612 -->
<g id="edge10" class="edge"><title>Node612&#45;&gt;Node612</title>
<path fill="none" stroke="midnightblue" d="M524.805,-95.7571C514.008,-104.565 521.406,-114 547,-114 563.796,-114 572.756,-109.937 573.879,-104.654"/>
<polygon fill="midnightblue" stroke="midnightblue" points="576.951,-102.975 569.195,-95.7571 570.757,-106.236 576.951,-102.975"/>
</g>
<!-- Node613 -->
<g id="node9" class="node"><title>Node613</title>
<g id="a_node9"><a xlink:href="a00260.html#a33c48a23cc94ea0221fa5c7317cd0222" target="_top" xlink:title="MultilevelBisect">
<polygon fill="white" stroke="black" points="648.5,-95.5 648.5,-114.5 733.5,-114.5 733.5,-95.5 648.5,-95.5"/>
<text text-anchor="middle" x="691" y="-102.5" font-family="Helvetica,sans-Serif" font-size="10.00">MultilevelBisect</text>
</a>
</g>
</g>
<!-- Node612&#45;&gt;Node613 -->
<g id="edge8" class="edge"><title>Node612&#45;&gt;Node613</title>
<path fill="none" stroke="midnightblue" d="M612.352,-94.6105C621.013,-95.7693 629.806,-96.9459 638.211,-98.0705"/>
<polygon fill="midnightblue" stroke="midnightblue" points="637.859,-101.555 648.235,-99.4117 638.788,-94.6164 637.859,-101.555"/>
</g>
<!-- Node614 -->
<g id="node10" class="node"><title>Node614</title>
<g id="a_node10"><a xlink:href="a00260.html#a49d272affb67ce57b2d20dccd7f15f53" target="_top" xlink:title="SplitGraphPart">
<polygon fill="white" stroke="black" points="650,-57.5 650,-76.5 732,-76.5 732,-57.5 650,-57.5"/>
<text text-anchor="middle" x="691" y="-64.5" font-family="Helvetica,sans-Serif" font-size="10.00">SplitGraphPart</text>
</a>
</g>
</g>
<!-- Node612&#45;&gt;Node614 -->
<g id="edge9" class="edge"><title>Node612&#45;&gt;Node614</title>
<path fill="none" stroke="midnightblue" d="M612.352,-77.3895C621.53,-76.1615 630.856,-74.9136 639.712,-73.7287"/>
<polygon fill="midnightblue" stroke="midnightblue" points="640.407,-77.167 649.854,-72.3716 639.478,-70.2288 640.407,-77.167"/>
</g>
<!-- Node617 -->
<g id="node13" class="node"><title>Node617</title>
<g id="a_node13"><a xlink:href="a01017.html#a2e311a777ffe9c80e405efa7cd2757be" target="_top" xlink:title="fprintf">
<polygon fill="white" stroke="black" points="526,-0.5 526,-19.5 568,-19.5 568,-0.5 526,-0.5"/>
<text text-anchor="middle" x="547" y="-7.5" font-family="Helvetica,sans-Serif" font-size="10.00">fprintf</text>
</a>
</g>
</g>
<!-- Node616&#45;&gt;Node617 -->
<g id="edge13" class="edge"><title>Node616&#45;&gt;Node617</title>
<path fill="none" stroke="midnightblue" d="M404.008,-10C435.034,-10 484.025,-10 515.583,-10"/>
<polygon fill="midnightblue" stroke="midnightblue" points="515.96,-13.5001 525.96,-10 515.96,-6.5001 515.96,-13.5001"/>
</g>
</g>
</svg>
        <g id="navigator" transform="translate(0 0)" fill="#404254">
                <rect fill="#f2f5e9" fill-opacity="0.5" stroke="#606060" stroke-width=".5" x="0" y="0" width="60" height="60"/>
                <use id="zoomplus" xlink:href="#zoomPlus" x="17" y="9" onmousedown="handleZoom(evt,'in')"/>
                <use id="zoomminus" xlink:href="#zoomMin" x="42" y="9" onmousedown="handleZoom(evt,'out')"/>
                <use id="reset" xlink:href="#resetDef" x="30" y="36" onmousedown="handleReset()"/>
                <g id="arrowUp" xlink:href="#dirArrow" transform="translate(30 24)" onmousedown="handlePan(0,-1)">
                  <use xlink:href="#rim" fill="#404040">
                        <set attributeName="fill" to="#808080" begin="arrowUp.mouseover" end="arrowUp.mouseout"/>
                  </use>
                  <path fill="none" stroke="white" stroke-width="1.5" d="M0,-3.0v7 M-2.5,-0.5L0,-3.0L2.5,-0.5"/>
                </g>
                <g id="arrowRight" xlink:href="#dirArrow" transform="rotate(90) translate(36 -43)" onmousedown="handlePan(1,0)">
                  <use xlink:href="#rim" fill="#404040">
                        <set attributeName="fill" to="#808080" begin="arrowRight.mouseover" end="arrowRight.mouseout"/>
                  </use>
                  <path fill="none" stroke="white" stroke-width="1.5" d="M0,-3.0v7 M-2.5,-0.5L0,-3.0L2.5,-0.5"/>
                </g>
                <g id="arrowDown" xlink:href="#dirArrow" transform="rotate(180) translate(-30 -48)" onmousedown="handlePan(0,1)">
                  <use xlink:href="#rim" fill="#404040">
                        <set attributeName="fill" to="#808080" begin="arrowDown.mouseover" end="arrowDown.mouseout"/>
                  </use>
                  <path fill="none" stroke="white" stroke-width="1.5" d="M0,-3.0v7 M-2.5,-0.5L0,-3.0L2.5,-0.5"/>
                </g>
                <g id="arrowLeft" xlink:href="#dirArrow" transform="rotate(270) translate(-36 17)" onmousedown="handlePan(-1,0)">
                  <use xlink:href="#rim" fill="#404040">
                        <set attributeName="fill" to="#808080" begin="arrowLeft.mouseover" end="arrowLeft.mouseout"/>
                  </use>
                  <path fill="none" stroke="white" stroke-width="1.5" d="M0,-3.0v7 M-2.5,-0.5L0,-3.0L2.5,-0.5"/>
                </g>
        </g>
        <svg viewBox="0 0 15 15" width="100%" height="30px" preserveAspectRatio="xMaxYMin meet">
         <g id="arrow_out" transform="scale(0.3 0.3)">
          <a xlink:href="a00948_a7973c78504ad6711d3516082b1112805_cgraph_org.svg" target="_base">
           <rect id="button" ry="5" rx="5" y="6" x="6" height="38" width="38"
                fill="#f2f5e9" fill-opacity="0.5" stroke="#606060" stroke-width="1.0"/>
           <path id="arrow"
             d="M 11.500037,31.436501 C 11.940474,20.09759 22.043105,11.32322 32.158766,21.979434 L 37.068811,17.246167 C 37.068811,17.246167 37.088388,32 37.088388,32 L 22.160133,31.978069 C 22.160133,31.978069 26.997745,27.140456 26.997745,27.140456 C 18.528582,18.264221 13.291696,25.230495 11.500037,31.436501 z"
             style="fill:#404040;"/>
          </a>
         </g>
        </svg>
</svg>
