<?xml version="1.0" encoding="UTF-8" standalone="no"?>
<!DOCTYPE svg PUBLIC "-//W3C//DTD SVG 1.1//EN"
 "http://www.w3.org/Graphics/SVG/1.1/DTD/svg11.dtd">
<!-- Generated by graphviz version 2.36.0 (20140111.2315)
 -->
<!-- Title: SetupGraph Pages: 1 -->
<svg width="222pt" height="104pt"
 viewBox="0.00 0.00 222.00 104.00" xmlns="http://www.w3.org/2000/svg" xmlns:xlink="http://www.w3.org/1999/xlink">
<g id="graph0" class="graph" transform="scale(1 1) rotate(0) translate(4 100)">
<title>SetupGraph</title>
<polygon fill="white" stroke="none" points="-4,4 -4,-100 218,-100 218,4 -4,4"/>
<!-- Node570 -->
<g id="node1" class="node"><title>Node570</title>
<polygon fill="#bfbfbf" stroke="black" points="0,-38.5 0,-57.5 70,-57.5 70,-38.5 0,-38.5"/>
<text text-anchor="middle" x="35" y="-45.5" font-family="Helvetica,sans-Serif" font-size="10.00">SetupGraph</text>
</g>
<!-- Node571 -->
<g id="node2" class="node"><title>Node571</title>
<g id="a_node2"><a xlink:href="a00852.html#a01903fa912de9fc7f01dace993a3fc85" target="_top" xlink:title="CreateGraph">
<polygon fill="white" stroke="black" points="123,-76.5 123,-95.5 197,-95.5 197,-76.5 123,-76.5"/>
<text text-anchor="middle" x="160" y="-83.5" font-family="Helvetica,sans-Serif" font-size="10.00">CreateGraph</text>
</a>
</g>
</g>
<!-- Node570&#45;&gt;Node571 -->
<g id="edge1" class="edge"><title>Node570&#45;&gt;Node571</title>
<path fill="none" stroke="midnightblue" d="M67.0381,-57.589C82.4792,-62.3594 101.348,-68.1888 117.966,-73.3229"/>
<polygon fill="midnightblue" stroke="midnightblue" points="117.384,-76.8063 127.972,-76.4141 119.451,-70.1182 117.384,-76.8063"/>
</g>
<!-- Node572 -->
<g id="node3" class="node"><title>Node572</title>
<g id="a_node3"><a xlink:href="a00954.html#addb1218f833155110864d49f0d1879ab" target="_top" xlink:title="SetupCtrl_invtvwgts">
<polygon fill="white" stroke="black" points="107.5,-38.5 107.5,-57.5 212.5,-57.5 212.5,-38.5 107.5,-38.5"/>
<text text-anchor="middle" x="160" y="-45.5" font-family="Helvetica,sans-Serif" font-size="10.00">SetupCtrl_invtvwgts</text>
</a>
</g>
</g>
<!-- Node570&#45;&gt;Node572 -->
<g id="edge2" class="edge"><title>Node570&#45;&gt;Node572</title>
<path fill="none" stroke="midnightblue" d="M70.2624,-48C78.7191,-48 88.0368,-48 97.3589,-48"/>
<polygon fill="midnightblue" stroke="midnightblue" points="97.4356,-51.5001 107.436,-48 97.4355,-44.5001 97.4356,-51.5001"/>
</g>
<!-- Node573 -->
<g id="node4" class="node"><title>Node573</title>
<g id="a_node4"><a xlink:href="a00855.html#adc4ae6f6575afd6ae777f535ea8c439f" target="_top" xlink:title="SetupGraph_nvwgts">
<polygon fill="white" stroke="black" points="106.5,-0.5 106.5,-19.5 213.5,-19.5 213.5,-0.5 106.5,-0.5"/>
<text text-anchor="middle" x="160" y="-7.5" font-family="Helvetica,sans-Serif" font-size="10.00">SetupGraph_nvwgts</text>
</a>
</g>
</g>
<!-- Node570&#45;&gt;Node573 -->
<g id="edge3" class="edge"><title>Node570&#45;&gt;Node573</title>
<path fill="none" stroke="midnightblue" d="M67.0381,-38.411C82.4792,-33.6406 101.348,-27.8112 117.966,-22.6771"/>
<polygon fill="midnightblue" stroke="midnightblue" points="119.451,-25.8818 127.972,-19.5859 117.384,-19.1937 119.451,-25.8818"/>
</g>
</g>
</svg>
