<?xml version="1.0" encoding="UTF-8" standalone="no"?>
<!DOCTYPE svg PUBLIC "-//W3C//DTD SVG 1.1//EN"
 "http://www.w3.org/Graphics/SVG/1.1/DTD/svg11.dtd">
<!-- Generated by graphviz version 2.36.0 (20140111.2315)
 -->
<!-- Title: MinCover_ColDFS Pages: 1 -->
<svg width="358pt" height="46pt"
 viewBox="0.00 0.00 358.00 46.00" xmlns="http://www.w3.org/2000/svg" xmlns:xlink="http://www.w3.org/1999/xlink">
<g id="graph0" class="graph" transform="scale(1 1) rotate(0) translate(4 42)">
<title>MinCover_ColDFS</title>
<polygon fill="white" stroke="none" points="-4,4 -4,-42 354,-42 354,4 -4,4"/>
<!-- Node591 -->
<g id="node1" class="node"><title>Node591</title>
<polygon fill="#bfbfbf" stroke="black" points="0,-0.5 0,-19.5 100,-19.5 100,-0.5 0,-0.5"/>
<text text-anchor="middle" x="50" y="-7.5" font-family="Helvetica,sans-Serif" font-size="10.00">MinCover_ColDFS</text>
</g>
<!-- Node591&#45;&gt;Node591 -->
<g id="edge3" class="edge"><title>Node591&#45;&gt;Node591</title>
<path fill="none" stroke="midnightblue" d="M23.1208,-28.6539C24.2444,-33.9368 33.2041,-38 50,-38 75.5938,-38 82.9919,-28.5653 72.1946,-19.7571"/>
<polygon fill="midnightblue" stroke="midnightblue" points="26.2433,-30.2361 27.8054,-19.7571 20.0494,-26.9747 26.2433,-30.2361"/>
</g>
<!-- Node592 -->
<g id="node2" class="node"><title>Node592</title>
<g id="a_node2"><a xlink:href="a00948.html#adafb285aeb4295e7bbdddef0499e209c" target="_top" xlink:title="MinCover_Decompose">
<polygon fill="white" stroke="black" points="136,-0.5 136,-19.5 254,-19.5 254,-0.5 136,-0.5"/>
<text text-anchor="middle" x="195" y="-7.5" font-family="Helvetica,sans-Serif" font-size="10.00">MinCover_Decompose</text>
</a>
</g>
</g>
<!-- Node591&#45;&gt;Node592 -->
<g id="edge1" class="edge"><title>Node591&#45;&gt;Node592</title>
<path fill="none" stroke="midnightblue" d="M110.342,-10C118.767,-10 127.424,-10 135.827,-10"/>
<polygon fill="midnightblue" stroke="midnightblue" points="110.213,-6.5001 100.212,-10 110.212,-13.5001 110.213,-6.5001"/>
</g>
<!-- Node593 -->
<g id="node3" class="node"><title>Node593</title>
<g id="a_node3"><a xlink:href="a00948.html#a0e648504c6fd9044875e7783b9916f9b" target="_top" xlink:title="MinCover">
<polygon fill="white" stroke="black" points="290.5,-0.5 290.5,-19.5 349.5,-19.5 349.5,-0.5 290.5,-0.5"/>
<text text-anchor="middle" x="320" y="-7.5" font-family="Helvetica,sans-Serif" font-size="10.00">MinCover</text>
</a>
</g>
</g>
<!-- Node592&#45;&gt;Node593 -->
<g id="edge2" class="edge"><title>Node592&#45;&gt;Node593</title>
<path fill="none" stroke="midnightblue" d="M264.545,-10C273.616,-10 282.48,-10 290.333,-10"/>
<polygon fill="midnightblue" stroke="midnightblue" points="264.258,-6.5001 254.258,-10 264.258,-13.5001 264.258,-6.5001"/>
</g>
</g>
</svg>
