<?xml version="1.0" encoding="UTF-8" standalone="no"?>
<!DOCTYPE svg PUBLIC "-//W3C//DTD SVG 1.1//EN"
 "http://www.w3.org/Graphics/SVG/1.1/DTD/svg11.dtd">
<!-- Generated by graphviz version 2.36.0 (20140111.2315)
 -->
<!-- Title: FM_Mc2WayCutRefine Pages: 1 -->
<svg width="278pt" height="66pt"
 viewBox="0.00 0.00 278.00 66.00" xmlns="http://www.w3.org/2000/svg" xmlns:xlink="http://www.w3.org/1999/xlink">
<g id="graph0" class="graph" transform="scale(1 1) rotate(0) translate(4 62)">
<title>FM_Mc2WayCutRefine</title>
<polygon fill="white" stroke="none" points="-4,4 -4,-62 274,-62 274,4 -4,4"/>
<!-- Node311 -->
<g id="node1" class="node"><title>Node311</title>
<polygon fill="#bfbfbf" stroke="black" points="0,-19.5 0,-38.5 120,-38.5 120,-19.5 0,-19.5"/>
<text text-anchor="middle" x="60" y="-26.5" font-family="Helvetica,sans-Serif" font-size="10.00">FM_Mc2WayCutRefine</text>
</g>
<!-- Node312 -->
<g id="node2" class="node"><title>Node312</title>
<g id="a_node2"><a xlink:href="a00197.html#a6e4663b4acc63be2c1b33533e7827f1a" target="_top" xlink:title="Print2WayRefineStats">
<polygon fill="white" stroke="black" points="156,-38.5 156,-57.5 270,-57.5 270,-38.5 156,-38.5"/>
<text text-anchor="middle" x="213" y="-45.5" font-family="Helvetica,sans-Serif" font-size="10.00">Print2WayRefineStats</text>
</a>
</g>
</g>
<!-- Node311&#45;&gt;Node312 -->
<g id="edge1" class="edge"><title>Node311&#45;&gt;Node312</title>
<path fill="none" stroke="midnightblue" d="M120.246,-36.4548C128.679,-37.5159 137.395,-38.6127 145.948,-39.6888"/>
<polygon fill="midnightblue" stroke="midnightblue" points="145.527,-43.1633 155.886,-40.9392 146.401,-36.2181 145.527,-43.1633"/>
</g>
<!-- Node313 -->
<g id="node3" class="node"><title>Node313</title>
<g id="a_node3"><a xlink:href="a00197.html#a51193f4b76d298d94234642136879390" target="_top" xlink:title="SelectQueue">
<polygon fill="white" stroke="black" points="176,-0.5 176,-19.5 250,-19.5 250,-0.5 176,-0.5"/>
<text text-anchor="middle" x="213" y="-7.5" font-family="Helvetica,sans-Serif" font-size="10.00">SelectQueue</text>
</a>
</g>
</g>
<!-- Node311&#45;&gt;Node313 -->
<g id="edge2" class="edge"><title>Node311&#45;&gt;Node313</title>
<path fill="none" stroke="midnightblue" d="M120.246,-21.5452C135.272,-19.6545 151.199,-17.6504 165.493,-15.8519"/>
<polygon fill="midnightblue" stroke="midnightblue" points="166.09,-19.3044 175.575,-14.5833 165.216,-12.3592 166.09,-19.3044"/>
</g>
</g>
</svg>
