<?xml version="1.0" encoding="UTF-8" standalone="no"?>
<!DOCTYPE svg PUBLIC "-//W3C//DTD SVG 1.1//EN"
 "http://www.w3.org/Graphics/SVG/1.1/DTD/svg11.dtd">
<!-- Generated by graphviz version 2.36.0 (20140111.2315)
 -->
<!-- Title: METIS_MeshToNodal Pages: 1 -->
<svg width="482pt" height="180pt"
 viewBox="0.00 0.00 482.00 180.00" xmlns="http://www.w3.org/2000/svg" xmlns:xlink="http://www.w3.org/1999/xlink">
<g id="graph0" class="graph" transform="scale(1 1) rotate(0) translate(4 176)">
<title>METIS_MeshToNodal</title>
<polygon fill="white" stroke="none" points="-4,4 -4,-176 478,-176 478,4 -4,4"/>
<!-- Node57 -->
<g id="node1" class="node"><title>Node57</title>
<polygon fill="#bfbfbf" stroke="black" points="0.5,-76.5 0.5,-95.5 115.5,-95.5 115.5,-76.5 0.5,-76.5"/>
<text text-anchor="middle" x="58" y="-83.5" font-family="Helvetica,sans-Serif" font-size="10.00">METIS_MeshToNodal</text>
</g>
<!-- Node58 -->
<g id="node2" class="node"><title>Node58</title>
<g id="a_node2"><a xlink:href="a00077.html#a24633cc1c72a7e92836912c2adcf570a" target="_top" xlink:title="gk_malloc_init">
<polygon fill="white" stroke="black" points="163,-152.5 163,-171.5 243,-171.5 243,-152.5 163,-152.5"/>
<text text-anchor="middle" x="203" y="-159.5" font-family="Helvetica,sans-Serif" font-size="10.00">gk_malloc_init</text>
</a>
</g>
</g>
<!-- Node57&#45;&gt;Node58 -->
<g id="edge1" class="edge"><title>Node57&#45;&gt;Node58</title>
<path fill="none" stroke="midnightblue" d="M72.7153,-95.5357C90.4604,-107.605 122.593,-128.559 152,-143 156.048,-144.988 160.359,-146.905 164.688,-148.707"/>
<polygon fill="midnightblue" stroke="midnightblue" points="163.514,-152.007 174.099,-152.451 166.101,-145.503 163.514,-152.007"/>
</g>
<!-- Node59 -->
<g id="node3" class="node"><title>Node59</title>
<g id="a_node3"><a xlink:href="a00026.html#a05869524d1c30cfaab2a8690e7da6fd4" target="_top" xlink:title="gk_sigtrap">
<polygon fill="white" stroke="black" points="171.5,-114.5 171.5,-133.5 234.5,-133.5 234.5,-114.5 171.5,-114.5"/>
<text text-anchor="middle" x="203" y="-121.5" font-family="Helvetica,sans-Serif" font-size="10.00">gk_sigtrap</text>
</a>
</g>
</g>
<!-- Node57&#45;&gt;Node59 -->
<g id="edge2" class="edge"><title>Node57&#45;&gt;Node59</title>
<path fill="none" stroke="midnightblue" d="M95.0849,-95.589C115.279,-100.955 140.514,-107.661 161.397,-113.21"/>
<polygon fill="midnightblue" stroke="midnightblue" points="160.694,-116.645 171.257,-115.831 162.491,-109.88 160.694,-116.645"/>
</g>
<!-- Node60 -->
<g id="node4" class="node"><title>Node60</title>
<g id="a_node4"><a xlink:href="a00930.html#ac6018a712a429b3c401adba913c2cae3" target="_top" xlink:title="CreateGraphNodal">
<polygon fill="white" stroke="black" points="153,-76.5 153,-95.5 253,-95.5 253,-76.5 153,-76.5"/>
<text text-anchor="middle" x="203" y="-83.5" font-family="Helvetica,sans-Serif" font-size="10.00">CreateGraphNodal</text>
</a>
</g>
</g>
<!-- Node57&#45;&gt;Node60 -->
<g id="edge3" class="edge"><title>Node57&#45;&gt;Node60</title>
<path fill="none" stroke="midnightblue" d="M115.517,-86C124.479,-86 133.77,-86 142.792,-86"/>
<polygon fill="midnightblue" stroke="midnightblue" points="142.831,-89.5001 152.831,-86 142.831,-82.5001 142.831,-89.5001"/>
</g>
<!-- Node65 -->
<g id="node9" class="node"><title>Node65</title>
<g id="a_node9"><a xlink:href="a00026.html#a08f287b6dbdc0779c916ecbd49540a1e" target="_top" xlink:title="gk_siguntrap">
<polygon fill="white" stroke="black" points="166,-38.5 166,-57.5 240,-57.5 240,-38.5 166,-38.5"/>
<text text-anchor="middle" x="203" y="-45.5" font-family="Helvetica,sans-Serif" font-size="10.00">gk_siguntrap</text>
</a>
</g>
</g>
<!-- Node57&#45;&gt;Node65 -->
<g id="edge8" class="edge"><title>Node57&#45;&gt;Node65</title>
<path fill="none" stroke="midnightblue" d="M95.0849,-76.411C113.63,-71.4831 136.426,-65.4251 156.199,-60.1709"/>
<polygon fill="midnightblue" stroke="midnightblue" points="157.161,-63.5368 165.927,-57.5859 155.363,-56.7716 157.161,-63.5368"/>
</g>
<!-- Node66 -->
<g id="node10" class="node"><title>Node66</title>
<g id="a_node10"><a xlink:href="a00077.html#a47156a22528b5bc8c7c6e9849af34e62" target="_top" xlink:title="gk_malloc_cleanup">
<polygon fill="white" stroke="black" points="152,-0.5 152,-19.5 254,-19.5 254,-0.5 152,-0.5"/>
<text text-anchor="middle" x="203" y="-7.5" font-family="Helvetica,sans-Serif" font-size="10.00">gk_malloc_cleanup</text>
</a>
</g>
</g>
<!-- Node57&#45;&gt;Node66 -->
<g id="edge9" class="edge"><title>Node57&#45;&gt;Node66</title>
<path fill="none" stroke="midnightblue" d="M72.7153,-76.4643C90.4604,-64.3952 122.593,-43.4415 152,-29 156.048,-27.0121 160.359,-25.0947 164.688,-23.2926"/>
<polygon fill="midnightblue" stroke="midnightblue" points="166.101,-26.4975 174.099,-19.5489 163.514,-19.9932 166.101,-26.4975"/>
</g>
<!-- Node61 -->
<g id="node5" class="node"><title>Node61</title>
<g id="a_node5"><a xlink:href="a00026.html#a4c320c13bcdc9967613253ef4c73f59f" target="_top" xlink:title="gk_errexit">
<polygon fill="white" stroke="black" points="313,-114.5 313,-133.5 373,-133.5 373,-114.5 313,-114.5"/>
<text text-anchor="middle" x="343" y="-121.5" font-family="Helvetica,sans-Serif" font-size="10.00">gk_errexit</text>
</a>
</g>
</g>
<!-- Node60&#45;&gt;Node61 -->
<g id="edge4" class="edge"><title>Node60&#45;&gt;Node61</title>
<path fill="none" stroke="midnightblue" d="M238.823,-95.589C258.359,-100.968 282.784,-107.694 302.965,-113.251"/>
<polygon fill="midnightblue" stroke="midnightblue" points="302.216,-116.675 312.786,-115.956 304.075,-109.926 302.216,-116.675"/>
</g>
<!-- Node63 -->
<g id="node7" class="node"><title>Node63</title>
<g id="a_node7"><a xlink:href="a00930.html#aa3fb3adf98a0168ead1ff715114ebea1" target="_top" xlink:title="FindCommonNodes">
<polygon fill="white" stroke="black" points="290.5,-76.5 290.5,-95.5 395.5,-95.5 395.5,-76.5 290.5,-76.5"/>
<text text-anchor="middle" x="343" y="-83.5" font-family="Helvetica,sans-Serif" font-size="10.00">FindCommonNodes</text>
</a>
</g>
</g>
<!-- Node60&#45;&gt;Node63 -->
<g id="edge6" class="edge"><title>Node60&#45;&gt;Node63</title>
<path fill="none" stroke="midnightblue" d="M253.042,-86C261.823,-86 271.076,-86 280.161,-86"/>
<polygon fill="midnightblue" stroke="midnightblue" points="280.313,-89.5001 290.313,-86 280.313,-82.5001 280.313,-89.5001"/>
</g>
<!-- Node64 -->
<g id="node8" class="node"><title>Node64</title>
<g id="a_node8"><a xlink:href="a00077.html#ac8df62c4e3d0910711a9874f9cc58884" target="_top" xlink:title="gk_free">
<polygon fill="white" stroke="black" points="318,-38.5 318,-57.5 368,-57.5 368,-38.5 318,-38.5"/>
<text text-anchor="middle" x="343" y="-45.5" font-family="Helvetica,sans-Serif" font-size="10.00">gk_free</text>
</a>
</g>
</g>
<!-- Node60&#45;&gt;Node64 -->
<g id="edge7" class="edge"><title>Node60&#45;&gt;Node64</title>
<path fill="none" stroke="midnightblue" d="M238.823,-76.411C259.958,-70.5914 286.815,-63.1959 307.83,-57.4092"/>
<polygon fill="midnightblue" stroke="midnightblue" points="308.914,-60.7409 317.626,-54.7116 307.056,-53.9921 308.914,-60.7409"/>
</g>
<!-- Node62 -->
<g id="node6" class="node"><title>Node62</title>
<g id="a_node6"><a xlink:href="a01017.html#a2e311a777ffe9c80e405efa7cd2757be" target="_top" xlink:title="fprintf">
<polygon fill="white" stroke="black" points="432,-114.5 432,-133.5 474,-133.5 474,-114.5 432,-114.5"/>
<text text-anchor="middle" x="453" y="-121.5" font-family="Helvetica,sans-Serif" font-size="10.00">fprintf</text>
</a>
</g>
</g>
<!-- Node61&#45;&gt;Node62 -->
<g id="edge5" class="edge"><title>Node61&#45;&gt;Node62</title>
<path fill="none" stroke="midnightblue" d="M373.226,-124C388.206,-124 406.434,-124 421.581,-124"/>
<polygon fill="midnightblue" stroke="midnightblue" points="421.976,-127.5 431.976,-124 421.976,-120.5 421.976,-127.5"/>
</g>
</g>
</svg>
