<?xml version="1.0" encoding="UTF-8" standalone="no"?>
<!DOCTYPE svg PUBLIC "-//W3C//DTD SVG 1.1//EN"
 "http://www.w3.org/Graphics/SVG/1.1/DTD/svg11.dtd">
<!-- Generated by graphviz version 2.36.0 (20140111.2315)
 -->
<!-- Title: MinCover_RowDFS Pages: 1 -->
<svg width="364pt" height="46pt"
 viewBox="0.00 0.00 364.00 46.00" xmlns="http://www.w3.org/2000/svg" xmlns:xlink="http://www.w3.org/1999/xlink">
<g id="graph0" class="graph" transform="scale(1 1) rotate(0) translate(4 42)">
<title>MinCover_RowDFS</title>
<polygon fill="white" stroke="none" points="-4,4 -4,-42 360,-42 360,4 -4,4"/>
<!-- Node602 -->
<g id="node1" class="node"><title>Node602</title>
<polygon fill="#bfbfbf" stroke="black" points="0.5,-0.5 0.5,-19.5 105.5,-19.5 105.5,-0.5 0.5,-0.5"/>
<text text-anchor="middle" x="53" y="-7.5" font-family="Helvetica,sans-Serif" font-size="10.00">MinCover_RowDFS</text>
</g>
<!-- Node602&#45;&gt;Node602 -->
<g id="edge3" class="edge"><title>Node602&#45;&gt;Node602</title>
<path fill="none" stroke="midnightblue" d="M25.3742,-28.6539C26.5289,-33.9368 35.7375,-38 53,-38 79.3047,-38 86.9084,-28.5653 75.8111,-19.7571"/>
<polygon fill="midnightblue" stroke="midnightblue" points="28.5076,-30.2176 30.1889,-19.7571 22.3512,-26.886 28.5076,-30.2176"/>
</g>
<!-- Node603 -->
<g id="node2" class="node"><title>Node603</title>
<g id="a_node2"><a xlink:href="a00948.html#adafb285aeb4295e7bbdddef0499e209c" target="_top" xlink:title="MinCover_Decompose">
<polygon fill="white" stroke="black" points="142,-0.5 142,-19.5 260,-19.5 260,-0.5 142,-0.5"/>
<text text-anchor="middle" x="201" y="-7.5" font-family="Helvetica,sans-Serif" font-size="10.00">MinCover_Decompose</text>
</a>
</g>
</g>
<!-- Node602&#45;&gt;Node603 -->
<g id="edge1" class="edge"><title>Node602&#45;&gt;Node603</title>
<path fill="none" stroke="midnightblue" d="M116.142,-10C124.66,-10 133.379,-10 141.822,-10"/>
<polygon fill="midnightblue" stroke="midnightblue" points="115.885,-6.5001 105.885,-10 115.885,-13.5001 115.885,-6.5001"/>
</g>
<!-- Node604 -->
<g id="node3" class="node"><title>Node604</title>
<g id="a_node3"><a xlink:href="a00948.html#a0e648504c6fd9044875e7783b9916f9b" target="_top" xlink:title="MinCover">
<polygon fill="white" stroke="black" points="296.5,-0.5 296.5,-19.5 355.5,-19.5 355.5,-0.5 296.5,-0.5"/>
<text text-anchor="middle" x="326" y="-7.5" font-family="Helvetica,sans-Serif" font-size="10.00">MinCover</text>
</a>
</g>
</g>
<!-- Node603&#45;&gt;Node604 -->
<g id="edge2" class="edge"><title>Node603&#45;&gt;Node604</title>
<path fill="none" stroke="midnightblue" d="M270.545,-10C279.616,-10 288.48,-10 296.333,-10"/>
<polygon fill="midnightblue" stroke="midnightblue" points="270.258,-6.5001 260.258,-10 270.258,-13.5001 270.258,-6.5001"/>
</g>
</g>
</svg>
