<?xml version="1.0" encoding="UTF-8" standalone="no"?>
<!DOCTYPE svg PUBLIC "-//W3C//DTD SVG 1.1//EN"
 "http://www.w3.org/Graphics/SVG/1.1/DTD/svg11.dtd">
<!-- Generated by graphviz version 2.36.0 (20140111.2315)
 -->
<!-- Title: MlevelNodeBisectionMultiple Pages: 1 -->
<!--zoomable 180 -->
<svg id="main" version="1.1" xmlns="http://www.w3.org/2000/svg" xmlns:xlink="http://www.w3.org/1999/xlink" xml:space="preserve" onload="init(evt)">
<style type="text/css"><![CDATA[
.edge:hover path { stroke: red; }
.edge:hover polygon { stroke: red; fill: red; }
]]></style>
<script type="text/javascript"><![CDATA[
var edges = document.getElementsByTagName('g');
if (edges && edges.length) {
  for (var i=0;i<edges.length;i++) {
    if (edges[i].id.substr(0,4)=='edge') {
      edges[i].setAttribute('class','edge');
    }
  }
}
]]></script>
        <defs>
                <circle id="rim" cx="0" cy="0" r="7"/>
                <circle id="rim2" cx="0" cy="0" r="3.5"/>
                <g id="zoomPlus">
                        <use xlink:href="#rim" fill="#404040">
                                <set attributeName="fill" to="#808080" begin="zoomplus.mouseover" end="zoomplus.mouseout"/>
                        </use>
                        <path d="M-4,0h8M0,-4v8" fill="none" stroke="white" stroke-width="1.5" pointer-events="none"/>
                </g>
                <g id="zoomMin">
                        <use xlink:href="#rim" fill="#404040">
                                <set attributeName="fill" to="#808080" begin="zoomminus.mouseover" end="zoomminus.mouseout"/>
                        </use>
                        <path d="M-4,0h8" fill="none" stroke="white" stroke-width="1.5" pointer-events="none"/>
                </g>
                <g id="dirArrow">
                        <path fill="none" stroke="white" stroke-width="1.5" d="M0,-3.0v7 M-2.5,-0.5L0,-3.0L2.5,-0.5"/>
                </g>
               <g id="resetDef">
                       <use xlink:href="#rim2" fill="#404040">
                               <set attributeName="fill" to="#808080" begin="reset.mouseover" end="reset.mouseout"/>
                       </use>
               </g>
        </defs>

<script type="text/javascript">
var viewWidth = 1064;
var viewHeight = 180;
var sectionId = 'dynsection-117';
</script>
<script xlink:href="svgpan.js"/>
<svg id="graph" class="graph">
<g id="viewport">
<title>MlevelNodeBisectionMultiple</title>
<polygon fill="white" stroke="none" points="-4,4 -4,-176 1060,-176 1060,4 -4,4"/>
<!-- Node717 -->
<g id="node1" class="node"><title>Node717</title>
<polygon fill="#bfbfbf" stroke="black" points="0,-95.5 0,-114.5 144,-114.5 144,-95.5 0,-95.5"/>
<text text-anchor="middle" x="72" y="-102.5" font-family="Helvetica,sans-Serif" font-size="10.00">MlevelNodeBisectionMultiple</text>
</g>
<!-- Node718 -->
<g id="node2" class="node"><title>Node718</title>
<g id="a_node2"><a xlink:href="a00936.html#ac3a0eaeefa34a3865a0be5bb70bd958f" target="_top" xlink:title="MlevelNodeBisectionL2">
<polygon fill="white" stroke="black" points="180.5,-95.5 180.5,-114.5 301.5,-114.5 301.5,-95.5 180.5,-95.5"/>
<text text-anchor="middle" x="241" y="-102.5" font-family="Helvetica,sans-Serif" font-size="10.00">MlevelNodeBisectionL2</text>
</a>
</g>
</g>
<!-- Node717&#45;&gt;Node718 -->
<g id="edge1" class="edge"><title>Node717&#45;&gt;Node718</title>
<path fill="none" stroke="midnightblue" d="M144.307,-105C152.973,-105 161.818,-105 170.458,-105"/>
<polygon fill="midnightblue" stroke="midnightblue" points="170.483,-108.5 180.483,-105 170.483,-101.5 170.483,-108.5"/>
</g>
<!-- Node719 -->
<g id="node3" class="node"><title>Node719</title>
<g id="a_node3"><a xlink:href="a00936.html#aeeaa7f4ed9878ae2f7faff0e2402fd87" target="_top" xlink:title="MlevelNodeBisectionL1">
<polygon fill="white" stroke="black" points="338.5,-114.5 338.5,-133.5 459.5,-133.5 459.5,-114.5 338.5,-114.5"/>
<text text-anchor="middle" x="399" y="-121.5" font-family="Helvetica,sans-Serif" font-size="10.00">MlevelNodeBisectionL1</text>
</a>
</g>
</g>
<!-- Node718&#45;&gt;Node719 -->
<g id="edge2" class="edge"><title>Node718&#45;&gt;Node719</title>
<path fill="none" stroke="midnightblue" d="M301.868,-112.292C310.452,-113.337 319.346,-114.42 328.103,-115.487"/>
<polygon fill="midnightblue" stroke="midnightblue" points="327.943,-118.993 338.293,-116.728 328.789,-112.045 327.943,-118.993"/>
</g>
<!-- Node720 -->
<g id="node4" class="node"><title>Node720</title>
<g id="a_node4"><a xlink:href="a00182.html#afa83320e3b311e0feef90d0bf4303716" target="_top" xlink:title="CoarsenGraphNlevels">
<polygon fill="white" stroke="black" points="341.5,-76.5 341.5,-95.5 456.5,-95.5 456.5,-76.5 341.5,-76.5"/>
<text text-anchor="middle" x="399" y="-83.5" font-family="Helvetica,sans-Serif" font-size="10.00">CoarsenGraphNlevels</text>
</a>
</g>
</g>
<!-- Node718&#45;&gt;Node720 -->
<g id="edge3" class="edge"><title>Node718&#45;&gt;Node720</title>
<path fill="none" stroke="midnightblue" d="M301.868,-97.7084C311.497,-96.5356 321.517,-95.3153 331.295,-94.1244"/>
<polygon fill="midnightblue" stroke="midnightblue" points="331.867,-97.5806 341.37,-92.8972 331.02,-90.632 331.867,-97.5806"/>
</g>
<!-- Node721 -->
<g id="node5" class="node"><title>Node721</title>
<g id="a_node5"><a xlink:href="a00623.html#ad1e7380d51df1e0043d24d3c8a860e0a" target="_top" xlink:title="for">
<polygon fill="white" stroke="black" points="529.5,-152.5 529.5,-171.5 558.5,-171.5 558.5,-152.5 529.5,-152.5"/>
<text text-anchor="middle" x="544" y="-159.5" font-family="Helvetica,sans-Serif" font-size="10.00">for</text>
</a>
</g>
</g>
<!-- Node720&#45;&gt;Node721 -->
<g id="edge4" class="edge"><title>Node720&#45;&gt;Node721</title>
<path fill="none" stroke="midnightblue" d="M439.992,-95.5369C446.94,-98.0551 453.888,-101.172 460,-105 479.717,-117.349 476.777,-129.897 496,-143 503.261,-147.949 512.008,-151.928 519.976,-154.941"/>
<polygon fill="midnightblue" stroke="midnightblue" points="518.889,-158.268 529.484,-158.24 521.184,-151.655 518.889,-158.268"/>
</g>
<!-- Node722 -->
<g id="node6" class="node"><title>Node722</title>
<g id="a_node6"><a xlink:href="a00182.html#aac3e480e7e3bd02bfdf001d858a93562" target="_top" xlink:title="PrintCGraphStats">
<polygon fill="white" stroke="black" points="496.5,-114.5 496.5,-133.5 591.5,-133.5 591.5,-114.5 496.5,-114.5"/>
<text text-anchor="middle" x="544" y="-121.5" font-family="Helvetica,sans-Serif" font-size="10.00">PrintCGraphStats</text>
</a>
</g>
</g>
<!-- Node720&#45;&gt;Node722 -->
<g id="edge5" class="edge"><title>Node720&#45;&gt;Node722</title>
<path fill="none" stroke="midnightblue" d="M436.085,-95.589C454.63,-100.517 477.426,-106.575 497.199,-111.829"/>
<polygon fill="midnightblue" stroke="midnightblue" points="496.363,-115.228 506.927,-114.414 498.161,-108.463 496.363,-115.228"/>
</g>
<!-- Node723 -->
<g id="node7" class="node"><title>Node723</title>
<g id="a_node7"><a xlink:href="a00182.html#a892d2ea16d613abc2276ad5fc6999724" target="_top" xlink:title="Match_RM">
<polygon fill="white" stroke="black" points="511.5,-38.5 511.5,-57.5 576.5,-57.5 576.5,-38.5 511.5,-38.5"/>
<text text-anchor="middle" x="544" y="-45.5" font-family="Helvetica,sans-Serif" font-size="10.00">Match_RM</text>
</a>
</g>
</g>
<!-- Node720&#45;&gt;Node723 -->
<g id="edge6" class="edge"><title>Node720&#45;&gt;Node723</title>
<path fill="none" stroke="midnightblue" d="M436.085,-76.411C455.994,-71.1204 480.804,-64.5275 501.512,-59.0249"/>
<polygon fill="midnightblue" stroke="midnightblue" points="502.542,-62.3725 511.308,-56.4216 500.745,-55.6073 502.542,-62.3725"/>
</g>
<!-- Node731 -->
<g id="node15" class="node"><title>Node731</title>
<g id="a_node15"><a xlink:href="a00182.html#af3ec72f3170ccdca06d8ad018d86cc58" target="_top" xlink:title="Match_SHEM">
<polygon fill="white" stroke="black" points="505,-76.5 505,-95.5 583,-95.5 583,-76.5 505,-76.5"/>
<text text-anchor="middle" x="544" y="-83.5" font-family="Helvetica,sans-Serif" font-size="10.00">Match_SHEM</text>
</a>
</g>
</g>
<!-- Node720&#45;&gt;Node731 -->
<g id="edge16" class="edge"><title>Node720&#45;&gt;Node731</title>
<path fill="none" stroke="midnightblue" d="M456.517,-86C469.203,-86 482.548,-86 494.856,-86"/>
<polygon fill="midnightblue" stroke="midnightblue" points="494.913,-89.5001 504.913,-86 494.913,-82.5001 494.913,-89.5001"/>
</g>
<!-- Node732 -->
<g id="node16" class="node"><title>Node732</title>
<g id="a_node16"><a xlink:href="a00026.html#a4c320c13bcdc9967613253ef4c73f59f" target="_top" xlink:title="gk_errexit">
<polygon fill="white" stroke="black" points="514,-0.5 514,-19.5 574,-19.5 574,-0.5 514,-0.5"/>
<text text-anchor="middle" x="544" y="-7.5" font-family="Helvetica,sans-Serif" font-size="10.00">gk_errexit</text>
</a>
</g>
</g>
<!-- Node720&#45;&gt;Node732 -->
<g id="edge19" class="edge"><title>Node720&#45;&gt;Node732</title>
<path fill="none" stroke="midnightblue" d="M414.576,-76.397C433.06,-64.4435 466.126,-43.8005 496,-29 499.815,-27.1099 503.867,-25.2557 507.929,-23.4912"/>
<polygon fill="midnightblue" stroke="midnightblue" points="509.446,-26.6504 517.321,-19.5626 506.745,-20.1926 509.446,-26.6504"/>
</g>
<!-- Node724 -->
<g id="node8" class="node"><title>Node724</title>
<g id="a_node8"><a xlink:href="a00182.html#aead846b2c69509c914426ff087509934" target="_top" xlink:title="Match_2Hop">
<polygon fill="white" stroke="black" points="645.5,-38.5 645.5,-57.5 718.5,-57.5 718.5,-38.5 645.5,-38.5"/>
<text text-anchor="middle" x="682" y="-45.5" font-family="Helvetica,sans-Serif" font-size="10.00">Match_2Hop</text>
</a>
</g>
</g>
<!-- Node723&#45;&gt;Node724 -->
<g id="edge7" class="edge"><title>Node723&#45;&gt;Node724</title>
<path fill="none" stroke="midnightblue" d="M576.543,-48C593.97,-48 615.932,-48 635.216,-48"/>
<polygon fill="midnightblue" stroke="midnightblue" points="635.312,-51.5001 645.312,-48 635.312,-44.5001 635.312,-51.5001"/>
</g>
<!-- Node727 -->
<g id="node11" class="node"><title>Node727</title>
<g id="a_node11"><a xlink:href="a00182.html#aac8820421b1c25698140c1b470c50e07" target="_top" xlink:title="CreateCoarseGraph">
<polygon fill="white" stroke="black" points="628.5,-76.5 628.5,-95.5 735.5,-95.5 735.5,-76.5 628.5,-76.5"/>
<text text-anchor="middle" x="682" y="-83.5" font-family="Helvetica,sans-Serif" font-size="10.00">CreateCoarseGraph</text>
</a>
</g>
</g>
<!-- Node723&#45;&gt;Node727 -->
<g id="edge10" class="edge"><title>Node723&#45;&gt;Node727</title>
<path fill="none" stroke="midnightblue" d="M576.543,-56.8135C594.533,-61.8401 617.357,-68.2173 637.078,-73.7276"/>
<polygon fill="midnightblue" stroke="midnightblue" points="636.196,-77.1153 646.769,-76.4355 638.08,-70.3735 636.196,-77.1153"/>
</g>
<!-- Node725 -->
<g id="node9" class="node"><title>Node725</title>
<g id="a_node9"><a xlink:href="a00182.html#a838a4013e3b5cc5278ecc7a8757ce0ef" target="_top" xlink:title="Match_2HopAny">
<polygon fill="white" stroke="black" points="799,-0.5 799,-19.5 889,-19.5 889,-0.5 799,-0.5"/>
<text text-anchor="middle" x="844" y="-7.5" font-family="Helvetica,sans-Serif" font-size="10.00">Match_2HopAny</text>
</a>
</g>
</g>
<!-- Node724&#45;&gt;Node725 -->
<g id="edge8" class="edge"><title>Node724&#45;&gt;Node725</title>
<path fill="none" stroke="midnightblue" d="M718.509,-39.5666C740.34,-34.3817 768.652,-27.6576 792.76,-21.9321"/>
<polygon fill="midnightblue" stroke="midnightblue" points="793.882,-25.2629 802.803,-19.5468 792.265,-18.4524 793.882,-25.2629"/>
</g>
<!-- Node726 -->
<g id="node10" class="node"><title>Node726</title>
<g id="a_node10"><a xlink:href="a00182.html#aa56d53cace160be27fb1750dcaffbc04" target="_top" xlink:title="Match_2HopAll">
<polygon fill="white" stroke="black" points="802,-38.5 802,-57.5 886,-57.5 886,-38.5 802,-38.5"/>
<text text-anchor="middle" x="844" y="-45.5" font-family="Helvetica,sans-Serif" font-size="10.00">Match_2HopAll</text>
</a>
</g>
</g>
<!-- Node724&#45;&gt;Node726 -->
<g id="edge9" class="edge"><title>Node724&#45;&gt;Node726</title>
<path fill="none" stroke="midnightblue" d="M718.509,-48C740.002,-48 767.777,-48 791.637,-48"/>
<polygon fill="midnightblue" stroke="midnightblue" points="791.939,-51.5001 801.939,-48 791.939,-44.5001 791.939,-51.5001"/>
</g>
<!-- Node728 -->
<g id="node12" class="node"><title>Node728</title>
<g id="a_node12"><a xlink:href="a00182.html#a70dc59d4c7190507e7ad9a4cc0d80707" target="_top" xlink:title="CreateCoarseGraphNoMask">
<polygon fill="white" stroke="black" points="772.5,-114.5 772.5,-133.5 915.5,-133.5 915.5,-114.5 772.5,-114.5"/>
<text text-anchor="middle" x="844" y="-121.5" font-family="Helvetica,sans-Serif" font-size="10.00">CreateCoarseGraphNoMask</text>
</a>
</g>
</g>
<!-- Node727&#45;&gt;Node728 -->
<g id="edge11" class="edge"><title>Node727&#45;&gt;Node728</title>
<path fill="none" stroke="midnightblue" d="M723.375,-95.589C744.488,-100.604 770.529,-106.788 792.917,-112.105"/>
<polygon fill="midnightblue" stroke="midnightblue" points="792.377,-115.574 802.916,-114.48 793.995,-108.764 792.377,-115.574"/>
</g>
<!-- Node729 -->
<g id="node13" class="node"><title>Node729</title>
<g id="a_node13"><a xlink:href="a00182.html#a113522304bf628b09d0b69b4db05050e" target="_top" xlink:title="SetupCoarseGraph">
<polygon fill="white" stroke="black" points="952.5,-142.5 952.5,-161.5 1055.5,-161.5 1055.5,-142.5 952.5,-142.5"/>
<text text-anchor="middle" x="1004" y="-149.5" font-family="Helvetica,sans-Serif" font-size="10.00">SetupCoarseGraph</text>
</a>
</g>
</g>
<!-- Node727&#45;&gt;Node729 -->
<g id="edge14" class="edge"><title>Node727&#45;&gt;Node729</title>
<path fill="none" stroke="midnightblue" d="M693.807,-95.6974C709.637,-109.213 740.665,-133.159 772,-143 827.65,-160.476 894.566,-161.01 942.019,-158.206"/>
<polygon fill="midnightblue" stroke="midnightblue" points="942.389,-161.689 952.138,-157.54 941.93,-154.704 942.389,-161.689"/>
</g>
<!-- Node730 -->
<g id="node14" class="node"><title>Node730</title>
<g id="a_node14"><a xlink:href="a00182.html#ab69ab96ec78174da232dff05e9c79d2f" target="_top" xlink:title="ReAdjustMemory">
<polygon fill="white" stroke="black" points="957.5,-85.5 957.5,-104.5 1050.5,-104.5 1050.5,-85.5 957.5,-85.5"/>
<text text-anchor="middle" x="1004" y="-92.5" font-family="Helvetica,sans-Serif" font-size="10.00">ReAdjustMemory</text>
</a>
</g>
</g>
<!-- Node727&#45;&gt;Node730 -->
<g id="edge15" class="edge"><title>Node727&#45;&gt;Node730</title>
<path fill="none" stroke="midnightblue" d="M735.841,-87.4862C794.119,-89.1252 887.498,-91.7515 947.006,-93.4252"/>
<polygon fill="midnightblue" stroke="midnightblue" points="947.249,-96.9333 957.343,-93.7159 947.445,-89.936 947.249,-96.9333"/>
</g>
<!-- Node728&#45;&gt;Node729 -->
<g id="edge12" class="edge"><title>Node728&#45;&gt;Node729</title>
<path fill="none" stroke="midnightblue" d="M898.933,-133.558C912.817,-136.018 927.853,-138.683 942.065,-141.201"/>
<polygon fill="midnightblue" stroke="midnightblue" points="941.782,-144.706 952.239,-143.004 943.004,-137.813 941.782,-144.706"/>
</g>
<!-- Node728&#45;&gt;Node730 -->
<g id="edge13" class="edge"><title>Node728&#45;&gt;Node730</title>
<path fill="none" stroke="midnightblue" d="M897.173,-114.424C913.251,-111.473 931.012,-108.213 947.317,-105.22"/>
<polygon fill="midnightblue" stroke="midnightblue" points="948.05,-108.644 957.253,-103.397 946.786,-101.759 948.05,-108.644"/>
</g>
<!-- Node731&#45;&gt;Node724 -->
<g id="edge17" class="edge"><title>Node731&#45;&gt;Node724</title>
<path fill="none" stroke="midnightblue" d="M579.319,-76.411C596.794,-71.5281 618.241,-65.5357 636.925,-60.315"/>
<polygon fill="midnightblue" stroke="midnightblue" points="638.003,-63.6479 646.692,-57.5859 636.119,-56.9062 638.003,-63.6479"/>
</g>
<!-- Node731&#45;&gt;Node727 -->
<g id="edge18" class="edge"><title>Node731&#45;&gt;Node727</title>
<path fill="none" stroke="midnightblue" d="M583.246,-86C594.062,-86 606.129,-86 617.993,-86"/>
<polygon fill="midnightblue" stroke="midnightblue" points="618.329,-89.5001 628.329,-86 618.329,-82.5001 618.329,-89.5001"/>
</g>
<!-- Node733 -->
<g id="node17" class="node"><title>Node733</title>
<g id="a_node17"><a xlink:href="a01017.html#a2e311a777ffe9c80e405efa7cd2757be" target="_top" xlink:title="fprintf">
<polygon fill="white" stroke="black" points="661,-0.5 661,-19.5 703,-19.5 703,-0.5 661,-0.5"/>
<text text-anchor="middle" x="682" y="-7.5" font-family="Helvetica,sans-Serif" font-size="10.00">fprintf</text>
</a>
</g>
</g>
<!-- Node732&#45;&gt;Node733 -->
<g id="edge20" class="edge"><title>Node732&#45;&gt;Node733</title>
<path fill="none" stroke="midnightblue" d="M574.175,-10C596.68,-10 627.716,-10 650.538,-10"/>
<polygon fill="midnightblue" stroke="midnightblue" points="650.696,-13.5001 660.696,-10 650.696,-6.5001 650.696,-13.5001"/>
</g>
</g>
</svg>
        <g id="navigator" transform="translate(0 0)" fill="#404254">
                <rect fill="#f2f5e9" fill-opacity="0.5" stroke="#606060" stroke-width=".5" x="0" y="0" width="60" height="60"/>
                <use id="zoomplus" xlink:href="#zoomPlus" x="17" y="9" onmousedown="handleZoom(evt,'in')"/>
                <use id="zoomminus" xlink:href="#zoomMin" x="42" y="9" onmousedown="handleZoom(evt,'out')"/>
                <use id="reset" xlink:href="#resetDef" x="30" y="36" onmousedown="handleReset()"/>
                <g id="arrowUp" xlink:href="#dirArrow" transform="translate(30 24)" onmousedown="handlePan(0,-1)">
                  <use xlink:href="#rim" fill="#404040">
                        <set attributeName="fill" to="#808080" begin="arrowUp.mouseover" end="arrowUp.mouseout"/>
                  </use>
                  <path fill="none" stroke="white" stroke-width="1.5" d="M0,-3.0v7 M-2.5,-0.5L0,-3.0L2.5,-0.5"/>
                </g>
                <g id="arrowRight" xlink:href="#dirArrow" transform="rotate(90) translate(36 -43)" onmousedown="handlePan(1,0)">
                  <use xlink:href="#rim" fill="#404040">
                        <set attributeName="fill" to="#808080" begin="arrowRight.mouseover" end="arrowRight.mouseout"/>
                  </use>
                  <path fill="none" stroke="white" stroke-width="1.5" d="M0,-3.0v7 M-2.5,-0.5L0,-3.0L2.5,-0.5"/>
                </g>
                <g id="arrowDown" xlink:href="#dirArrow" transform="rotate(180) translate(-30 -48)" onmousedown="handlePan(0,1)">
                  <use xlink:href="#rim" fill="#404040">
                        <set attributeName="fill" to="#808080" begin="arrowDown.mouseover" end="arrowDown.mouseout"/>
                  </use>
                  <path fill="none" stroke="white" stroke-width="1.5" d="M0,-3.0v7 M-2.5,-0.5L0,-3.0L2.5,-0.5"/>
                </g>
                <g id="arrowLeft" xlink:href="#dirArrow" transform="rotate(270) translate(-36 17)" onmousedown="handlePan(-1,0)">
                  <use xlink:href="#rim" fill="#404040">
                        <set attributeName="fill" to="#808080" begin="arrowLeft.mouseover" end="arrowLeft.mouseout"/>
                  </use>
                  <path fill="none" stroke="white" stroke-width="1.5" d="M0,-3.0v7 M-2.5,-0.5L0,-3.0L2.5,-0.5"/>
                </g>
        </g>
        <svg viewBox="0 0 15 15" width="100%" height="30px" preserveAspectRatio="xMaxYMin meet">
         <g id="arrow_out" transform="scale(0.3 0.3)">
          <a xlink:href="a00948_a59c8030c5429e219a8535c2a11cef724_cgraph_org.svg" target="_base">
           <rect id="button" ry="5" rx="5" y="6" x="6" height="38" width="38"
                fill="#f2f5e9" fill-opacity="0.5" stroke="#606060" stroke-width="1.0"/>
           <path id="arrow"
             d="M 11.500037,31.436501 C 11.940474,20.09759 22.043105,11.32322 32.158766,21.979434 L 37.068811,17.246167 C 37.068811,17.246167 37.088388,32 37.088388,32 L 22.160133,31.978069 C 22.160133,31.978069 26.997745,27.140456 26.997745,27.140456 C 18.528582,18.264221 13.291696,25.230495 11.500037,31.436501 z"
             style="fill:#404040;"/>
          </a>
         </g>
        </svg>
</svg>
