<?xml version="1.0" encoding="UTF-8" standalone="no"?>
<!DOCTYPE svg PUBLIC "-//W3C//DTD SVG 1.1//EN"
 "http://www.w3.org/Graphics/SVG/1.1/DTD/svg11.dtd">
<!-- Generated by graphviz version 2.36.0 (20140111.2315)
 -->
<!-- Title: Adaptive_Partition Pages: 1 -->
<svg width="298pt" height="46pt"
 viewBox="0.00 0.00 298.00 46.00" xmlns="http://www.w3.org/2000/svg" xmlns:xlink="http://www.w3.org/1999/xlink">
<g id="graph0" class="graph" transform="scale(1 1) rotate(0) translate(4 42)">
<title>Adaptive_Partition</title>
<polygon fill="white" stroke="none" points="-4,4 -4,-42 294,-42 294,4 -4,4"/>
<!-- Node3 -->
<g id="node1" class="node"><title>Node3</title>
<polygon fill="#bfbfbf" stroke="black" points="0,-0.5 0,-19.5 98,-19.5 98,-0.5 0,-0.5"/>
<text text-anchor="middle" x="49" y="-7.5" font-family="Helvetica,sans-Serif" font-size="10.00">Adaptive_Partition</text>
</g>
<!-- Node3&#45;&gt;Node3 -->
<g id="edge2" class="edge"><title>Node3&#45;&gt;Node3</title>
<path fill="none" stroke="midnightblue" d="M18.6856,-28.2746C19.5499,-33.741 29.6547,-38 49,-38 77.793,-38 86.1159,-28.5653 73.9689,-19.7571"/>
<polygon fill="midnightblue" stroke="midnightblue" points="21.6799,-30.0877 24.0311,-19.7571 15.7508,-26.3667 21.6799,-30.0877"/>
</g>
<!-- Node4 -->
<g id="node2" class="node"><title>Node4</title>
<g id="a_node2"><a xlink:href="a00846.html#ac00c3da2cf618cbfa9158463a851491e" target="_top" xlink:title="ParMETIS_V3_AdaptiveRepart">
<polygon fill="white" stroke="black" points="134.5,-0.5 134.5,-19.5 289.5,-19.5 289.5,-0.5 134.5,-0.5"/>
<text text-anchor="middle" x="212" y="-7.5" font-family="Helvetica,sans-Serif" font-size="10.00">ParMETIS_V3_AdaptiveRepart</text>
</a>
</g>
</g>
<!-- Node3&#45;&gt;Node4 -->
<g id="edge1" class="edge"><title>Node3&#45;&gt;Node4</title>
<path fill="none" stroke="midnightblue" d="M108.415,-10C116.87,-10 125.676,-10 134.421,-10"/>
<polygon fill="midnightblue" stroke="midnightblue" points="108.305,-6.5001 98.3053,-10 108.305,-13.5001 108.305,-6.5001"/>
</g>
</g>
</svg>
