<?xml version="1.0" encoding="UTF-8" standalone="no"?>
<!DOCTYPE svg PUBLIC "-//W3C//DTD SVG 1.1//EN"
 "http://www.w3.org/Graphics/SVG/1.1/DTD/svg11.dtd">
<!-- Generated by graphviz version 2.36.0 (20140111.2315)
 -->
<!-- Title: SplitGraphOrder Pages: 1 -->
<svg width="460pt" height="46pt"
 viewBox="0.00 0.00 460.00 46.00" xmlns="http://www.w3.org/2000/svg" xmlns:xlink="http://www.w3.org/1999/xlink">
<g id="graph0" class="graph" transform="scale(1 1) rotate(0) translate(4 42)">
<title>SplitGraphOrder</title>
<polygon fill="white" stroke="none" points="-4,4 -4,-42 456,-42 456,4 -4,4"/>
<!-- Node144 -->
<g id="node1" class="node"><title>Node144</title>
<polygon fill="#bfbfbf" stroke="black" points="0.5,-0.5 0.5,-19.5 89.5,-19.5 89.5,-0.5 0.5,-0.5"/>
<text text-anchor="middle" x="45" y="-7.5" font-family="Helvetica,sans-Serif" font-size="10.00">SplitGraphOrder</text>
</g>
<!-- Node145 -->
<g id="node2" class="node"><title>Node145</title>
<g id="a_node2"><a xlink:href="a00948.html#af853e9d8bbb2188f871fac436e631ed1" target="_top" xlink:title="MlevelNestedDissection">
<polygon fill="white" stroke="black" points="126.5,-0.5 126.5,-19.5 249.5,-19.5 249.5,-0.5 126.5,-0.5"/>
<text text-anchor="middle" x="188" y="-7.5" font-family="Helvetica,sans-Serif" font-size="10.00">MlevelNestedDissection</text>
</a>
</g>
</g>
<!-- Node144&#45;&gt;Node145 -->
<g id="edge1" class="edge"><title>Node144&#45;&gt;Node145</title>
<path fill="none" stroke="midnightblue" d="M100.11,-10C108.698,-10 117.631,-10 126.358,-10"/>
<polygon fill="midnightblue" stroke="midnightblue" points="99.8404,-6.5001 89.8404,-10 99.8403,-13.5001 99.8404,-6.5001"/>
</g>
<!-- Node145&#45;&gt;Node145 -->
<g id="edge4" class="edge"><title>Node145&#45;&gt;Node145</title>
<path fill="none" stroke="midnightblue" d="M161.494,-28.6539C162.602,-33.9368 171.437,-38 188,-38 213.238,-38 220.534,-28.5653 209.886,-19.7571"/>
<polygon fill="midnightblue" stroke="midnightblue" points="164.612,-30.2449 166.114,-19.7571 158.399,-27.0192 164.612,-30.2449"/>
</g>
<!-- Node146 -->
<g id="node3" class="node"><title>Node146</title>
<g id="a_node3"><a xlink:href="a00936.html#a8304f0dd6d180587f73b0b70de3b01b7" target="_top" xlink:title="METIS_NodeND">
<polygon fill="white" stroke="black" points="286.5,-0.5 286.5,-19.5 377.5,-19.5 377.5,-0.5 286.5,-0.5"/>
<text text-anchor="middle" x="332" y="-7.5" font-family="Helvetica,sans-Serif" font-size="10.00">METIS_NodeND</text>
</a>
</g>
</g>
<!-- Node145&#45;&gt;Node146 -->
<g id="edge2" class="edge"><title>Node145&#45;&gt;Node146</title>
<path fill="none" stroke="midnightblue" d="M259.838,-10C268.907,-10 277.979,-10 286.463,-10"/>
<polygon fill="midnightblue" stroke="midnightblue" points="259.633,-6.5001 249.633,-10 259.633,-13.5001 259.633,-6.5001"/>
</g>
<!-- Node147 -->
<g id="node4" class="node"><title>Node147</title>
<g id="a_node4"><a xlink:href="a00326.html#a0ddf1224851353fc92bfbff6f499fa97" target="_top" xlink:title="main">
<polygon fill="white" stroke="black" points="414,-0.5 414,-19.5 452,-19.5 452,-0.5 414,-0.5"/>
<text text-anchor="middle" x="433" y="-7.5" font-family="Helvetica,sans-Serif" font-size="10.00">main</text>
</a>
</g>
</g>
<!-- Node146&#45;&gt;Node147 -->
<g id="edge3" class="edge"><title>Node146&#45;&gt;Node147</title>
<path fill="none" stroke="midnightblue" d="M387.748,-10C397.09,-10 406.179,-10 413.665,-10"/>
<polygon fill="midnightblue" stroke="midnightblue" points="387.577,-6.5001 377.577,-10 387.577,-13.5001 387.577,-6.5001"/>
</g>
</g>
</svg>
