<?xml version="1.0" encoding="UTF-8" standalone="no"?>
<!DOCTYPE svg PUBLIC "-//W3C//DTD SVG 1.1//EN"
 "http://www.w3.org/Graphics/SVG/1.1/DTD/svg11.dtd">
<!-- Generated by graphviz version 2.36.0 (20140111.2315)
 -->
<!-- Title: Global_Partition Pages: 1 -->
<svg width="386pt" height="57pt"
 viewBox="0.00 0.00 386.00 56.55" xmlns="http://www.w3.org/2000/svg" xmlns:xlink="http://www.w3.org/1999/xlink">
<g id="graph0" class="graph" transform="scale(1 1) rotate(0) translate(4 52.5472)">
<title>Global_Partition</title>
<polygon fill="white" stroke="none" points="-4,4 -4,-52.5472 382,-52.5472 382,4 -4,4"/>
<!-- Node2 -->
<g id="node1" class="node"><title>Node2</title>
<polygon fill="#bfbfbf" stroke="black" points="0,-28.5 0,-47.5 88,-47.5 88,-28.5 0,-28.5"/>
<text text-anchor="middle" x="44" y="-35.5" font-family="Helvetica,sans-Serif" font-size="10.00">Global_Partition</text>
</g>
<!-- Node3 -->
<g id="node2" class="node"><title>Node3</title>
<g id="a_node2"><a xlink:href="a00846.html#af418d1e76eaf4f80116da4caf51bd54e" target="_top" xlink:title="ParMETIS_V3_PartKway">
<polygon fill="white" stroke="black" points="248.5,-28.5 248.5,-47.5 377.5,-47.5 377.5,-28.5 248.5,-28.5"/>
<text text-anchor="middle" x="313" y="-35.5" font-family="Helvetica,sans-Serif" font-size="10.00">ParMETIS_V3_PartKway</text>
</a>
</g>
</g>
<!-- Node2&#45;&gt;Node3 -->
<g id="edge1" class="edge"><title>Node2&#45;&gt;Node3</title>
<path fill="none" stroke="midnightblue" d="M98.5937,-44.9351C107.08,-45.7937 115.77,-46.5327 124,-47 163.048,-49.2171 172.928,-48.7547 212,-47 223.754,-46.4721 236.262,-45.5969 248.309,-44.5942"/>
<polygon fill="midnightblue" stroke="midnightblue" points="98.7039,-41.4269 88.3872,-43.8388 97.9562,-48.3868 98.7039,-41.4269"/>
</g>
<!-- Node4 -->
<g id="node3" class="node"><title>Node4</title>
<g id="a_node3"><a xlink:href="a00954.html#a979ec26537f665b3e2b098595fde106c" target="_top" xlink:title="Global_Partition">
<polygon fill="white" stroke="black" points="124,-0.5 124,-19.5 212,-19.5 212,-0.5 124,-0.5"/>
<text text-anchor="middle" x="168" y="-7.5" font-family="Helvetica,sans-Serif" font-size="10.00">Global_Partition</text>
</a>
</g>
</g>
<!-- Node2&#45;&gt;Node4 -->
<g id="edge2" class="edge"><title>Node2&#45;&gt;Node4</title>
<path fill="none" stroke="midnightblue" d="M96.5626,-26.166C106.233,-23.9465 116.228,-21.6525 125.543,-19.5146"/>
<polygon fill="midnightblue" stroke="midnightblue" points="95.6079,-22.794 86.6443,-28.4423 97.1738,-29.6166 95.6079,-22.794"/>
</g>
<!-- Node4&#45;&gt;Node3 -->
<g id="edge3" class="edge"><title>Node4&#45;&gt;Node3</title>
<path fill="none" stroke="midnightblue" d="M222.358,-20.4478C235.799,-23.0796 250.157,-25.8908 263.353,-28.4747"/>
<polygon fill="midnightblue" stroke="midnightblue" points="222.779,-16.9638 212.293,-18.4769 221.434,-23.8333 222.779,-16.9638"/>
</g>
<!-- Node4&#45;&gt;Node4 -->
<g id="edge4" class="edge"><title>Node4&#45;&gt;Node4</title>
<path fill="none" stroke="midnightblue" d="M144.935,-29.0292C146.193,-34.128 153.881,-38 168,-38 190.039,-38 196.41,-28.5653 187.112,-19.7571"/>
<polygon fill="midnightblue" stroke="midnightblue" points="148.185,-30.3286 148.888,-19.7571 141.746,-27.5831 148.185,-30.3286"/>
</g>
</g>
</svg>
