<?xml version="1.0" encoding="UTF-8" standalone="no"?>
<!DOCTYPE svg PUBLIC "-//W3C//DTD SVG 1.1//EN"
 "http://www.w3.org/Graphics/SVG/1.1/DTD/svg11.dtd">
<!-- Generated by graphviz version 2.36.0 (20140111.2315)
 -->
<!-- Title: WritePartition Pages: 1 -->
<svg width="340pt" height="142pt"
 viewBox="0.00 0.00 340.00 142.00" xmlns="http://www.w3.org/2000/svg" xmlns:xlink="http://www.w3.org/1999/xlink">
<g id="graph0" class="graph" transform="scale(1 1) rotate(0) translate(4 138)">
<title>WritePartition</title>
<polygon fill="white" stroke="none" points="-4,4 -4,-138 336,-138 336,4 -4,4"/>
<!-- Node147 -->
<g id="node1" class="node"><title>Node147</title>
<polygon fill="#bfbfbf" stroke="black" points="0.5,-57.5 0.5,-76.5 77.5,-76.5 77.5,-57.5 0.5,-57.5"/>
<text text-anchor="middle" x="39" y="-64.5" font-family="Helvetica,sans-Serif" font-size="10.00">WritePartition</text>
</g>
<!-- Node148 -->
<g id="node2" class="node"><title>Node148</title>
<g id="a_node2"><a xlink:href="a00575.html#ae6aab5c308faac0fc539cc9c6da9fbd0" target="_top" xlink:title="sprintf">
<polygon fill="white" stroke="black" points="210,-114.5 210,-133.5 254,-133.5 254,-114.5 210,-114.5"/>
<text text-anchor="middle" x="232" y="-121.5" font-family="Helvetica,sans-Serif" font-size="10.00">sprintf</text>
</a>
</g>
</g>
<!-- Node147&#45;&gt;Node148 -->
<g id="edge1" class="edge"><title>Node147&#45;&gt;Node148</title>
<path fill="none" stroke="midnightblue" d="M55.2558,-76.6434C69.8005,-85.3909 92.5977,-97.9623 114,-105 142.141,-114.254 175.629,-119.108 199.553,-121.585"/>
<polygon fill="midnightblue" stroke="midnightblue" points="199.531,-125.099 209.818,-122.563 200.195,-118.13 199.531,-125.099"/>
</g>
<!-- Node149 -->
<g id="node3" class="node"><title>Node149</title>
<g id="a_node3"><a xlink:href="a00858.html#abff04948821f625a3e59666e61c70e2f" target="_top" xlink:title="gk_fopen">
<polygon fill="white" stroke="black" points="115,-76.5 115,-95.5 173,-95.5 173,-76.5 115,-76.5"/>
<text text-anchor="middle" x="144" y="-83.5" font-family="Helvetica,sans-Serif" font-size="10.00">gk_fopen</text>
</a>
</g>
</g>
<!-- Node147&#45;&gt;Node149 -->
<g id="edge2" class="edge"><title>Node147&#45;&gt;Node149</title>
<path fill="none" stroke="midnightblue" d="M77.7685,-73.967C86.5996,-75.596 96.0118,-77.3323 104.859,-78.9643"/>
<polygon fill="midnightblue" stroke="midnightblue" points="104.447,-82.4473 114.916,-80.8195 105.717,-75.5635 104.447,-82.4473"/>
</g>
<!-- Node151 -->
<g id="node5" class="node"><title>Node151</title>
<g id="a_node5"><a xlink:href="a01017.html#a2e311a777ffe9c80e405efa7cd2757be" target="_top" xlink:title="fprintf">
<polygon fill="white" stroke="black" points="290,-57.5 290,-76.5 332,-76.5 332,-57.5 290,-57.5"/>
<text text-anchor="middle" x="311" y="-64.5" font-family="Helvetica,sans-Serif" font-size="10.00">fprintf</text>
</a>
</g>
</g>
<!-- Node147&#45;&gt;Node151 -->
<g id="edge6" class="edge"><title>Node147&#45;&gt;Node151</title>
<path fill="none" stroke="midnightblue" d="M77.5423,-67C131.54,-67 230.08,-67 279.717,-67"/>
<polygon fill="midnightblue" stroke="midnightblue" points="279.817,-70.5001 289.817,-67 279.817,-63.5001 279.817,-70.5001"/>
</g>
<!-- Node152 -->
<g id="node6" class="node"><title>Node152</title>
<g id="a_node6"><a xlink:href="a00858.html#a70dec19fefaf0c84f3948b4679a73fec" target="_top" xlink:title="gk_fclose">
<polygon fill="white" stroke="black" points="114.5,-0.5 114.5,-19.5 173.5,-19.5 173.5,-0.5 114.5,-0.5"/>
<text text-anchor="middle" x="144" y="-7.5" font-family="Helvetica,sans-Serif" font-size="10.00">gk_fclose</text>
</a>
</g>
</g>
<!-- Node147&#45;&gt;Node152 -->
<g id="edge7" class="edge"><title>Node147&#45;&gt;Node152</title>
<path fill="none" stroke="midnightblue" d="M57.4725,-57.3307C73.7737,-48.3097 98.3076,-34.7327 116.924,-24.4302"/>
<polygon fill="midnightblue" stroke="midnightblue" points="118.731,-27.4309 125.785,-19.5265 115.341,-21.3062 118.731,-27.4309"/>
</g>
<!-- Node149&#45;&gt;Node148 -->
<g id="edge3" class="edge"><title>Node149&#45;&gt;Node148</title>
<path fill="none" stroke="midnightblue" d="M166.701,-95.589C176.939,-100.112 189.331,-105.588 200.493,-110.52"/>
<polygon fill="midnightblue" stroke="midnightblue" points="199.339,-113.836 209.9,-114.677 202.168,-107.434 199.339,-113.836"/>
</g>
<!-- Node150 -->
<g id="node4" class="node"><title>Node150</title>
<g id="a_node4"><a xlink:href="a00026.html#a56d0f2cc40cd8633a784582d6200d8b5" target="_top" xlink:title="errexit">
<polygon fill="white" stroke="black" points="210,-76.5 210,-95.5 254,-95.5 254,-76.5 210,-76.5"/>
<text text-anchor="middle" x="232" y="-83.5" font-family="Helvetica,sans-Serif" font-size="10.00">errexit</text>
</a>
</g>
</g>
<!-- Node149&#45;&gt;Node150 -->
<g id="edge4" class="edge"><title>Node149&#45;&gt;Node150</title>
<path fill="none" stroke="midnightblue" d="M173.16,-86C181.657,-86 191.036,-86 199.724,-86"/>
<polygon fill="midnightblue" stroke="midnightblue" points="199.873,-89.5001 209.873,-86 199.873,-82.5001 199.873,-89.5001"/>
</g>
<!-- Node150&#45;&gt;Node151 -->
<g id="edge5" class="edge"><title>Node150&#45;&gt;Node151</title>
<path fill="none" stroke="midnightblue" d="M254.041,-80.8082C262.042,-78.8339 271.319,-76.5446 279.992,-74.4047"/>
<polygon fill="midnightblue" stroke="midnightblue" points="280.911,-77.7828 289.782,-71.9889 279.234,-70.9866 280.911,-77.7828"/>
</g>
<!-- Node153 -->
<g id="node7" class="node"><title>Node153</title>
<g id="a_node7"><a xlink:href="a01017.html#a355ed4cdac2a27aa04a6689ac2d7e86e" target="_top" xlink:title="fclose">
<polygon fill="white" stroke="black" points="210.5,-0.5 210.5,-19.5 253.5,-19.5 253.5,-0.5 210.5,-0.5"/>
<text text-anchor="middle" x="232" y="-7.5" font-family="Helvetica,sans-Serif" font-size="10.00">fclose</text>
</a>
</g>
</g>
<!-- Node152&#45;&gt;Node153 -->
<g id="edge8" class="edge"><title>Node152&#45;&gt;Node153</title>
<path fill="none" stroke="midnightblue" d="M173.637,-10C182.182,-10 191.583,-10 200.257,-10"/>
<polygon fill="midnightblue" stroke="midnightblue" points="200.372,-13.5001 210.372,-10 200.372,-6.5001 200.372,-13.5001"/>
</g>
</g>
</svg>
