<?xml version="1.0" encoding="UTF-8" standalone="no"?>
<!DOCTYPE svg PUBLIC "-//W3C//DTD SVG 1.1//EN"
 "http://www.w3.org/Graphics/SVG/1.1/DTD/svg11.dtd">
<!-- Generated by graphviz version 2.36.0 (20140111.2315)
 -->
<!-- Title: wspacepop Pages: 1 -->
<svg width="364pt" height="104pt"
 viewBox="0.00 0.00 364.00 104.00" xmlns="http://www.w3.org/2000/svg" xmlns:xlink="http://www.w3.org/1999/xlink">
<g id="graph0" class="graph" transform="scale(1 1) rotate(0) translate(4 100)">
<title>wspacepop</title>
<polygon fill="white" stroke="none" points="-4,4 -4,-100 360,-100 360,4 -4,4"/>
<!-- Node38 -->
<g id="node1" class="node"><title>Node38</title>
<polygon fill="#bfbfbf" stroke="black" points="0.5,-38.5 0.5,-57.5 67.5,-57.5 67.5,-38.5 0.5,-38.5"/>
<text text-anchor="middle" x="34" y="-45.5" font-family="Helvetica,sans-Serif" font-size="10.00">wspacepop</text>
</g>
<!-- Node39 -->
<g id="node2" class="node"><title>Node39</title>
<g id="a_node2"><a xlink:href="a00077.html#ac7b3189a2be11b6736dc4c27d3d30f3a" target="_top" xlink:title="gk_mcorePop">
<polygon fill="white" stroke="black" points="104,-38.5 104,-57.5 182,-57.5 182,-38.5 104,-38.5"/>
<text text-anchor="middle" x="143" y="-45.5" font-family="Helvetica,sans-Serif" font-size="10.00">gk_mcorePop</text>
</a>
</g>
</g>
<!-- Node38&#45;&gt;Node39 -->
<g id="edge1" class="edge"><title>Node38&#45;&gt;Node39</title>
<path fill="none" stroke="midnightblue" d="M67.6849,-48C75.9012,-48 84.8934,-48 93.6961,-48"/>
<polygon fill="midnightblue" stroke="midnightblue" points="93.885,-51.5001 103.885,-48 93.885,-44.5001 93.885,-51.5001"/>
</g>
<!-- Node40 -->
<g id="node3" class="node"><title>Node40</title>
<g id="a_node3"><a xlink:href="a00026.html#a56d0f2cc40cd8633a784582d6200d8b5" target="_top" xlink:title="errexit">
<polygon fill="white" stroke="black" points="226,-76.5 226,-95.5 270,-95.5 270,-76.5 226,-76.5"/>
<text text-anchor="middle" x="248" y="-83.5" font-family="Helvetica,sans-Serif" font-size="10.00">errexit</text>
</a>
</g>
</g>
<!-- Node39&#45;&gt;Node40 -->
<g id="edge2" class="edge"><title>Node39&#45;&gt;Node40</title>
<path fill="none" stroke="midnightblue" d="M169.991,-57.589C184.033,-62.7696 201.461,-69.1991 216.183,-74.6307"/>
<polygon fill="midnightblue" stroke="midnightblue" points="215.276,-78.0264 225.869,-78.2041 217.699,-71.4591 215.276,-78.0264"/>
</g>
<!-- Node42 -->
<g id="node5" class="node"><title>Node42</title>
<g id="a_node5"><a xlink:href="a00077.html#ac8df62c4e3d0910711a9874f9cc58884" target="_top" xlink:title="gk_free">
<polygon fill="white" stroke="black" points="223,-38.5 223,-57.5 273,-57.5 273,-38.5 223,-38.5"/>
<text text-anchor="middle" x="248" y="-45.5" font-family="Helvetica,sans-Serif" font-size="10.00">gk_free</text>
</a>
</g>
</g>
<!-- Node39&#45;&gt;Node42 -->
<g id="edge4" class="edge"><title>Node39&#45;&gt;Node42</title>
<path fill="none" stroke="midnightblue" d="M182.061,-48C192.077,-48 202.822,-48 212.632,-48"/>
<polygon fill="midnightblue" stroke="midnightblue" points="212.83,-51.5001 222.83,-48 212.83,-44.5001 212.83,-51.5001"/>
</g>
<!-- Node43 -->
<g id="node6" class="node"><title>Node43</title>
<g id="a_node6"><a xlink:href="a00026.html#a4c320c13bcdc9967613253ef4c73f59f" target="_top" xlink:title="gk_errexit">
<polygon fill="white" stroke="black" points="218,-0.5 218,-19.5 278,-19.5 278,-0.5 218,-0.5"/>
<text text-anchor="middle" x="248" y="-7.5" font-family="Helvetica,sans-Serif" font-size="10.00">gk_errexit</text>
</a>
</g>
</g>
<!-- Node39&#45;&gt;Node43 -->
<g id="edge5" class="edge"><title>Node39&#45;&gt;Node43</title>
<path fill="none" stroke="midnightblue" d="M169.991,-38.411C182.556,-33.7756 197.83,-28.1404 211.452,-23.1147"/>
<polygon fill="midnightblue" stroke="midnightblue" points="212.847,-26.3309 221.017,-19.5859 210.424,-19.7636 212.847,-26.3309"/>
</g>
<!-- Node41 -->
<g id="node4" class="node"><title>Node41</title>
<g id="a_node4"><a xlink:href="a01017.html#a2e311a777ffe9c80e405efa7cd2757be" target="_top" xlink:title="fprintf">
<polygon fill="white" stroke="black" points="314,-38.5 314,-57.5 356,-57.5 356,-38.5 314,-38.5"/>
<text text-anchor="middle" x="335" y="-45.5" font-family="Helvetica,sans-Serif" font-size="10.00">fprintf</text>
</a>
</g>
</g>
<!-- Node40&#45;&gt;Node41 -->
<g id="edge3" class="edge"><title>Node40&#45;&gt;Node41</title>
<path fill="none" stroke="midnightblue" d="M270.011,-76.6067C280.458,-71.9364 293.256,-66.215 304.653,-61.1196"/>
<polygon fill="midnightblue" stroke="midnightblue" points="306.115,-64.3001 313.816,-57.0235 303.258,-57.9097 306.115,-64.3001"/>
</g>
<!-- Node43&#45;&gt;Node41 -->
<g id="edge6" class="edge"><title>Node43&#45;&gt;Node41</title>
<path fill="none" stroke="midnightblue" d="M270.449,-19.589C280.719,-24.1804 293.184,-29.7528 304.344,-34.7421"/>
<polygon fill="midnightblue" stroke="midnightblue" points="303.17,-38.0512 313.728,-38.9373 306.027,-31.6607 303.17,-38.0512"/>
</g>
</g>
</svg>
