<?xml version="1.0" encoding="UTF-8" standalone="no"?>
<!DOCTYPE svg PUBLIC "-//W3C//DTD SVG 1.1//EN"
 "http://www.w3.org/Graphics/SVG/1.1/DTD/svg11.dtd">
<!-- Generated by graphviz version 2.36.0 (20140111.2315)
 -->
<!-- Title: Coordinate_Partition Pages: 1 -->
<svg width="256pt" height="66pt"
 viewBox="0.00 0.00 256.00 66.00" xmlns="http://www.w3.org/2000/svg" xmlns:xlink="http://www.w3.org/1999/xlink">
<g id="graph0" class="graph" transform="scale(1 1) rotate(0) translate(4 62)">
<title>Coordinate_Partition</title>
<polygon fill="white" stroke="none" points="-4,4 -4,-62 252,-62 252,4 -4,4"/>
<!-- Node146 -->
<g id="node1" class="node"><title>Node146</title>
<polygon fill="#bfbfbf" stroke="black" points="0,-19.5 0,-38.5 108,-38.5 108,-19.5 0,-19.5"/>
<text text-anchor="middle" x="54" y="-26.5" font-family="Helvetica,sans-Serif" font-size="10.00">Coordinate_Partition</text>
</g>
<!-- Node147 -->
<g id="node2" class="node"><title>Node147</title>
<g id="a_node2"><a xlink:href="a00419.html#a868c9811f572c62917c5e8cc22dd92a9" target="_top" xlink:title="IRBinCoordinates">
<polygon fill="white" stroke="black" points="148.5,-38.5 148.5,-57.5 243.5,-57.5 243.5,-38.5 148.5,-38.5"/>
<text text-anchor="middle" x="196" y="-45.5" font-family="Helvetica,sans-Serif" font-size="10.00">IRBinCoordinates</text>
</a>
</g>
</g>
<!-- Node146&#45;&gt;Node147 -->
<g id="edge1" class="edge"><title>Node146&#45;&gt;Node147</title>
<path fill="none" stroke="midnightblue" d="M108.327,-36.2373C118.077,-37.5605 128.285,-38.9458 138.133,-40.2824"/>
<polygon fill="midnightblue" stroke="midnightblue" points="137.852,-43.7762 148.231,-41.6528 138.793,-36.8397 137.852,-43.7762"/>
</g>
<!-- Node148 -->
<g id="node3" class="node"><title>Node148</title>
<g id="a_node3"><a xlink:href="a00419.html#a2faf7ef22f45b689c53efc937cd67502" target="_top" xlink:title="PseudoSampleSort">
<polygon fill="white" stroke="black" points="144.5,-0.5 144.5,-19.5 247.5,-19.5 247.5,-0.5 144.5,-0.5"/>
<text text-anchor="middle" x="196" y="-7.5" font-family="Helvetica,sans-Serif" font-size="10.00">PseudoSampleSort</text>
</a>
</g>
</g>
<!-- Node146&#45;&gt;Node148 -->
<g id="edge2" class="edge"><title>Node146&#45;&gt;Node148</title>
<path fill="none" stroke="midnightblue" d="M108.327,-21.7627C116.769,-20.617 125.555,-19.4247 134.153,-18.2578"/>
<polygon fill="midnightblue" stroke="midnightblue" points="134.69,-21.717 144.129,-16.9039 133.749,-14.7806 134.69,-21.717"/>
</g>
</g>
</svg>
