<?xml version="1.0" encoding="UTF-8" standalone="no"?>
<!DOCTYPE svg PUBLIC "-//W3C//DTD SVG 1.1//EN"
 "http://www.w3.org/Graphics/SVG/1.1/DTD/svg11.dtd">
<!-- Generated by graphviz version 2.36.0 (20140111.2315)
 -->
<!-- Title: WriteGraph Pages: 1 -->
<svg width="330pt" height="142pt"
 viewBox="0.00 0.00 330.00 142.00" xmlns="http://www.w3.org/2000/svg" xmlns:xlink="http://www.w3.org/1999/xlink">
<g id="graph0" class="graph" transform="scale(1 1) rotate(0) translate(4 138)">
<title>WriteGraph</title>
<polygon fill="white" stroke="none" points="-4,4 -4,-138 326,-138 326,4 -4,4"/>
<!-- Node129 -->
<g id="node1" class="node"><title>Node129</title>
<polygon fill="#bfbfbf" stroke="black" points="0,-38.5 0,-57.5 68,-57.5 68,-38.5 0,-38.5"/>
<text text-anchor="middle" x="34" y="-45.5" font-family="Helvetica,sans-Serif" font-size="10.00">WriteGraph</text>
</g>
<!-- Node130 -->
<g id="node2" class="node"><title>Node130</title>
<g id="a_node2"><a xlink:href="a00858.html#abff04948821f625a3e59666e61c70e2f" target="_top" xlink:title="gk_fopen">
<polygon fill="white" stroke="black" points="105,-76.5 105,-95.5 163,-95.5 163,-76.5 105,-76.5"/>
<text text-anchor="middle" x="134" y="-83.5" font-family="Helvetica,sans-Serif" font-size="10.00">gk_fopen</text>
</a>
</g>
</g>
<!-- Node129&#45;&gt;Node130 -->
<g id="edge1" class="edge"><title>Node129&#45;&gt;Node130</title>
<path fill="none" stroke="midnightblue" d="M59.7295,-57.589C71.568,-62.1794 85.935,-67.7503 98.8,-72.7388"/>
<polygon fill="midnightblue" stroke="midnightblue" points="97.6894,-76.062 108.278,-76.4141 100.22,-69.5355 97.6894,-76.062"/>
</g>
<!-- Node133 -->
<g id="node5" class="node"><title>Node133</title>
<g id="a_node5"><a xlink:href="a01017.html#a2e311a777ffe9c80e405efa7cd2757be" target="_top" xlink:title="fprintf">
<polygon fill="white" stroke="black" points="280,-57.5 280,-76.5 322,-76.5 322,-57.5 280,-57.5"/>
<text text-anchor="middle" x="301" y="-64.5" font-family="Helvetica,sans-Serif" font-size="10.00">fprintf</text>
</a>
</g>
</g>
<!-- Node129&#45;&gt;Node133 -->
<g id="edge5" class="edge"><title>Node129&#45;&gt;Node133</title>
<path fill="none" stroke="midnightblue" d="M68.0266,-50.3679C119.86,-54.0843 219.557,-61.2324 269.671,-64.8255"/>
<polygon fill="midnightblue" stroke="midnightblue" points="269.639,-68.3321 279.864,-65.5563 270.14,-61.35 269.639,-68.3321"/>
</g>
<!-- Node134 -->
<g id="node6" class="node"><title>Node134</title>
<g id="a_node6"><a xlink:href="a00858.html#a70dec19fefaf0c84f3948b4679a73fec" target="_top" xlink:title="gk_fclose">
<polygon fill="white" stroke="black" points="104.5,-0.5 104.5,-19.5 163.5,-19.5 163.5,-0.5 104.5,-0.5"/>
<text text-anchor="middle" x="134" y="-7.5" font-family="Helvetica,sans-Serif" font-size="10.00">gk_fclose</text>
</a>
</g>
</g>
<!-- Node129&#45;&gt;Node134 -->
<g id="edge6" class="edge"><title>Node129&#45;&gt;Node134</title>
<path fill="none" stroke="midnightblue" d="M59.7295,-38.411C71.568,-33.8206 85.935,-28.2497 98.8,-23.2612"/>
<polygon fill="midnightblue" stroke="midnightblue" points="100.22,-26.4645 108.278,-19.5859 97.6894,-19.938 100.22,-26.4645"/>
</g>
<!-- Node131 -->
<g id="node3" class="node"><title>Node131</title>
<g id="a_node3"><a xlink:href="a00575.html#ae6aab5c308faac0fc539cc9c6da9fbd0" target="_top" xlink:title="sprintf">
<polygon fill="white" stroke="black" points="200,-114.5 200,-133.5 244,-133.5 244,-114.5 200,-114.5"/>
<text text-anchor="middle" x="222" y="-121.5" font-family="Helvetica,sans-Serif" font-size="10.00">sprintf</text>
</a>
</g>
</g>
<!-- Node130&#45;&gt;Node131 -->
<g id="edge2" class="edge"><title>Node130&#45;&gt;Node131</title>
<path fill="none" stroke="midnightblue" d="M156.701,-95.589C166.939,-100.112 179.331,-105.588 190.493,-110.52"/>
<polygon fill="midnightblue" stroke="midnightblue" points="189.339,-113.836 199.9,-114.677 192.168,-107.434 189.339,-113.836"/>
</g>
<!-- Node132 -->
<g id="node4" class="node"><title>Node132</title>
<g id="a_node4"><a xlink:href="a00026.html#a56d0f2cc40cd8633a784582d6200d8b5" target="_top" xlink:title="errexit">
<polygon fill="white" stroke="black" points="200,-76.5 200,-95.5 244,-95.5 244,-76.5 200,-76.5"/>
<text text-anchor="middle" x="222" y="-83.5" font-family="Helvetica,sans-Serif" font-size="10.00">errexit</text>
</a>
</g>
</g>
<!-- Node130&#45;&gt;Node132 -->
<g id="edge3" class="edge"><title>Node130&#45;&gt;Node132</title>
<path fill="none" stroke="midnightblue" d="M163.16,-86C171.657,-86 181.036,-86 189.724,-86"/>
<polygon fill="midnightblue" stroke="midnightblue" points="189.873,-89.5001 199.873,-86 189.873,-82.5001 189.873,-89.5001"/>
</g>
<!-- Node132&#45;&gt;Node133 -->
<g id="edge4" class="edge"><title>Node132&#45;&gt;Node133</title>
<path fill="none" stroke="midnightblue" d="M244.041,-80.8082C252.042,-78.8339 261.319,-76.5446 269.992,-74.4047"/>
<polygon fill="midnightblue" stroke="midnightblue" points="270.911,-77.7828 279.782,-71.9889 269.234,-70.9866 270.911,-77.7828"/>
</g>
<!-- Node135 -->
<g id="node7" class="node"><title>Node135</title>
<g id="a_node7"><a xlink:href="a01017.html#a355ed4cdac2a27aa04a6689ac2d7e86e" target="_top" xlink:title="fclose">
<polygon fill="white" stroke="black" points="200.5,-0.5 200.5,-19.5 243.5,-19.5 243.5,-0.5 200.5,-0.5"/>
<text text-anchor="middle" x="222" y="-7.5" font-family="Helvetica,sans-Serif" font-size="10.00">fclose</text>
</a>
</g>
</g>
<!-- Node134&#45;&gt;Node135 -->
<g id="edge7" class="edge"><title>Node134&#45;&gt;Node135</title>
<path fill="none" stroke="midnightblue" d="M163.637,-10C172.182,-10 181.583,-10 190.257,-10"/>
<polygon fill="midnightblue" stroke="midnightblue" points="190.372,-13.5001 200.372,-10 190.372,-6.5001 190.372,-13.5001"/>
</g>
</g>
</svg>
