<?xml version="1.0" encoding="UTF-8" standalone="no"?>
<!DOCTYPE svg PUBLIC "-//W3C//DTD SVG 1.1//EN"
 "http://www.w3.org/Graphics/SVG/1.1/DTD/svg11.dtd">
<!-- Generated by graphviz version 2.36.0 (20140111.2315)
 -->
<!-- Title: ArcSyn3sis/3rdParty/parmetis&#45;4.0.3/metis/libmetis/kwayrefine.c Pages: 1 -->
<!--zoomable 274 -->
<svg id="main" version="1.1" xmlns="http://www.w3.org/2000/svg" xmlns:xlink="http://www.w3.org/1999/xlink" xml:space="preserve" onload="init(evt)">
<style type="text/css"><![CDATA[
.edge:hover path { stroke: red; }
.edge:hover polygon { stroke: red; fill: red; }
]]></style>
<script type="text/javascript"><![CDATA[
var edges = document.getElementsByTagName('g');
if (edges && edges.length) {
  for (var i=0;i<edges.length;i++) {
    if (edges[i].id.substr(0,4)=='edge') {
      edges[i].setAttribute('class','edge');
    }
  }
}
]]></script>
        <defs>
                <circle id="rim" cx="0" cy="0" r="7"/>
                <circle id="rim2" cx="0" cy="0" r="3.5"/>
                <g id="zoomPlus">
                        <use xlink:href="#rim" fill="#404040">
                                <set attributeName="fill" to="#808080" begin="zoomplus.mouseover" end="zoomplus.mouseout"/>
                        </use>
                        <path d="M-4,0h8M0,-4v8" fill="none" stroke="white" stroke-width="1.5" pointer-events="none"/>
                </g>
                <g id="zoomMin">
                        <use xlink:href="#rim" fill="#404040">
                                <set attributeName="fill" to="#808080" begin="zoomminus.mouseover" end="zoomminus.mouseout"/>
                        </use>
                        <path d="M-4,0h8" fill="none" stroke="white" stroke-width="1.5" pointer-events="none"/>
                </g>
                <g id="dirArrow">
                        <path fill="none" stroke="white" stroke-width="1.5" d="M0,-3.0v7 M-2.5,-0.5L0,-3.0L2.5,-0.5"/>
                </g>
               <g id="resetDef">
                       <use xlink:href="#rim2" fill="#404040">
                               <set attributeName="fill" to="#808080" begin="reset.mouseover" end="reset.mouseout"/>
                       </use>
               </g>
        </defs>

<script type="text/javascript">
var viewWidth = 2706;
var viewHeight = 274;
var sectionId = 'dynsection-0';
</script>
<script xlink:href="svgpan.js"/>
<svg id="graph" class="graph">
<g id="viewport">
<title>ArcSyn3sis/3rdParty/parmetis&#45;4.0.3/metis/libmetis/kwayrefine.c</title>
<polygon fill="white" stroke="none" points="-4,4 -4,-270 2702,-270 2702,4 -4,4"/>
<!-- Node0 -->
<g id="node1" class="node"><title>Node0</title>
<polygon fill="#bfbfbf" stroke="black" points="2054,-224.5 2054,-265.5 2166,-265.5 2166,-224.5 2054,-224.5"/>
<text text-anchor="start" x="2062" y="-253.5" font-family="Helvetica,sans-Serif" font-size="10.00">ArcSyn3sis/3rdParty</text>
<text text-anchor="start" x="2062" y="-242.5" font-family="Helvetica,sans-Serif" font-size="10.00">/parmetis&#45;4.0.3/metis</text>
<text text-anchor="middle" x="2110" y="-231.5" font-family="Helvetica,sans-Serif" font-size="10.00">/libmetis/kwayrefine.c</text>
</g>
<!-- Node1 -->
<g id="node2" class="node"><title>Node1</title>
<g id="a_node2"><a xlink:href="a00239.html" target="_top" xlink:title="metislib.h">
<polygon fill="white" stroke="black" points="2080.5,-168.5 2080.5,-187.5 2139.5,-187.5 2139.5,-168.5 2080.5,-168.5"/>
<text text-anchor="middle" x="2110" y="-175.5" font-family="Helvetica,sans-Serif" font-size="10.00">metislib.h</text>
</a>
</g>
</g>
<!-- Node0&#45;&gt;Node1 -->
<g id="edge1" class="edge"><title>Node0&#45;&gt;Node1</title>
<path fill="none" stroke="midnightblue" d="M2110,-224.498C2110,-216.065 2110,-206.235 2110,-197.874"/>
<polygon fill="midnightblue" stroke="midnightblue" points="2113.5,-197.652 2110,-187.652 2106.5,-197.653 2113.5,-197.652"/>
</g>
<!-- Node2 -->
<g id="node3" class="node"><title>Node2</title>
<g id="a_node3"><a xlink:href="a00086.html" target="_top" xlink:title="GKlib.h">
<polygon fill="white" stroke="black" points="1207.5,-112.5 1207.5,-131.5 1256.5,-131.5 1256.5,-112.5 1207.5,-112.5"/>
<text text-anchor="middle" x="1232" y="-119.5" font-family="Helvetica,sans-Serif" font-size="10.00">GKlib.h</text>
</a>
</g>
</g>
<!-- Node1&#45;&gt;Node2 -->
<g id="edge2" class="edge"><title>Node1&#45;&gt;Node2</title>
<path fill="none" stroke="midnightblue" d="M2080.28,-175.172C1947.6,-167.012 1409.56,-133.921 1266.87,-125.145"/>
<polygon fill="midnightblue" stroke="midnightblue" points="1266.74,-121.63 1256.54,-124.509 1266.31,-128.617 1266.74,-121.63"/>
</g>
<!-- Node39 -->
<g id="node40" class="node"><title>Node39</title>
<polygon fill="white" stroke="#bfbfbf" points="1893.5,-112.5 1893.5,-131.5 1942.5,-131.5 1942.5,-112.5 1893.5,-112.5"/>
<text text-anchor="middle" x="1918" y="-119.5" font-family="Helvetica,sans-Serif" font-size="10.00">metis.h</text>
</g>
<!-- Node1&#45;&gt;Node39 -->
<g id="edge39" class="edge"><title>Node1&#45;&gt;Node39</title>
<path fill="none" stroke="midnightblue" d="M2080.42,-168.681C2045.9,-158.973 1988.91,-142.944 1952.44,-132.685"/>
<polygon fill="midnightblue" stroke="midnightblue" points="1953.3,-129.293 1942.73,-129.954 1951.41,-136.031 1953.3,-129.293"/>
</g>
<!-- Node40 -->
<g id="node41" class="node"><title>Node40</title>
<g id="a_node41"><a xlink:href="a00960.html" target="_top" xlink:title="rename.h">
<polygon fill="white" stroke="black" points="1960.5,-112.5 1960.5,-131.5 2019.5,-131.5 2019.5,-112.5 1960.5,-112.5"/>
<text text-anchor="middle" x="1990" y="-119.5" font-family="Helvetica,sans-Serif" font-size="10.00">rename.h</text>
</a>
</g>
</g>
<!-- Node1&#45;&gt;Node40 -->
<g id="edge40" class="edge"><title>Node1&#45;&gt;Node40</title>
<path fill="none" stroke="midnightblue" d="M2090.99,-168.444C2071.41,-159.636 2040.69,-145.812 2018.27,-135.722"/>
<polygon fill="midnightblue" stroke="midnightblue" points="2019.48,-132.428 2008.93,-131.516 2016.61,-138.812 2019.48,-132.428"/>
</g>
<!-- Node41 -->
<g id="node42" class="node"><title>Node41</title>
<g id="a_node42"><a xlink:href="a00209.html" target="_top" xlink:title="Data structures and prototypes for GKlib integration. ">
<polygon fill="white" stroke="black" points="2038,-112.5 2038,-131.5 2108,-131.5 2108,-112.5 2038,-112.5"/>
<text text-anchor="middle" x="2073" y="-119.5" font-family="Helvetica,sans-Serif" font-size="10.00">gklib_defs.h</text>
</a>
</g>
</g>
<!-- Node1&#45;&gt;Node41 -->
<g id="edge41" class="edge"><title>Node1&#45;&gt;Node41</title>
<path fill="none" stroke="midnightblue" d="M2103.89,-168.083C2098.72,-160.534 2091.15,-149.495 2084.81,-140.23"/>
<polygon fill="midnightblue" stroke="midnightblue" points="2087.54,-138.022 2079,-131.751 2081.76,-141.979 2087.54,-138.022"/>
</g>
<!-- Node43 -->
<g id="node44" class="node"><title>Node43</title>
<g id="a_node44"><a xlink:href="a00891.html" target="_top" xlink:title="defs.h">
<polygon fill="white" stroke="black" points="2126,-112.5 2126,-131.5 2170,-131.5 2170,-112.5 2126,-112.5"/>
<text text-anchor="middle" x="2148" y="-119.5" font-family="Helvetica,sans-Serif" font-size="10.00">defs.h</text>
</a>
</g>
</g>
<!-- Node1&#45;&gt;Node43 -->
<g id="edge43" class="edge"><title>Node1&#45;&gt;Node43</title>
<path fill="none" stroke="midnightblue" d="M2116.27,-168.083C2121.64,-160.455 2129.52,-149.264 2136.08,-139.941"/>
<polygon fill="midnightblue" stroke="midnightblue" points="2138.95,-141.943 2141.84,-131.751 2133.22,-137.915 2138.95,-141.943"/>
</g>
<!-- Node44 -->
<g id="node45" class="node"><title>Node44</title>
<g id="a_node45"><a xlink:href="a00975.html" target="_top" xlink:title="struct.h">
<polygon fill="white" stroke="black" points="2188.5,-112.5 2188.5,-131.5 2237.5,-131.5 2237.5,-112.5 2188.5,-112.5"/>
<text text-anchor="middle" x="2213" y="-119.5" font-family="Helvetica,sans-Serif" font-size="10.00">struct.h</text>
</a>
</g>
</g>
<!-- Node1&#45;&gt;Node44 -->
<g id="edge44" class="edge"><title>Node1&#45;&gt;Node44</title>
<path fill="none" stroke="midnightblue" d="M2126.55,-168.324C2142.99,-159.703 2168.43,-146.364 2187.47,-136.386"/>
<polygon fill="midnightblue" stroke="midnightblue" points="2189.26,-139.398 2196.49,-131.655 2186.01,-133.198 2189.26,-139.398"/>
</g>
<!-- Node45 -->
<g id="node46" class="node"><title>Node45</title>
<g id="a_node46"><a xlink:href="a00924.html" target="_top" xlink:title="macros.h">
<polygon fill="white" stroke="black" points="2256,-112.5 2256,-131.5 2314,-131.5 2314,-112.5 2256,-112.5"/>
<text text-anchor="middle" x="2285" y="-119.5" font-family="Helvetica,sans-Serif" font-size="10.00">macros.h</text>
</a>
</g>
</g>
<!-- Node1&#45;&gt;Node45 -->
<g id="edge45" class="edge"><title>Node1&#45;&gt;Node45</title>
<path fill="none" stroke="midnightblue" d="M2137.73,-168.444C2167.43,-159.28 2214.72,-144.688 2247.67,-134.519"/>
<polygon fill="midnightblue" stroke="midnightblue" points="2248.88,-137.809 2257.4,-131.516 2246.81,-131.121 2248.88,-137.809"/>
</g>
<!-- Node46 -->
<g id="node47" class="node"><title>Node46</title>
<g id="a_node47"><a xlink:href="a00948.html" target="_top" xlink:title="proto.h">
<polygon fill="white" stroke="black" points="2332,-112.5 2332,-131.5 2380,-131.5 2380,-112.5 2332,-112.5"/>
<text text-anchor="middle" x="2356" y="-119.5" font-family="Helvetica,sans-Serif" font-size="10.00">proto.h</text>
</a>
</g>
</g>
<!-- Node1&#45;&gt;Node46 -->
<g id="edge46" class="edge"><title>Node1&#45;&gt;Node46</title>
<path fill="none" stroke="midnightblue" d="M2139.76,-171.28C2179.19,-163.577 2251.14,-149.099 2321.92,-132.155"/>
<polygon fill="midnightblue" stroke="midnightblue" points="2322.99,-135.496 2331.89,-129.749 2321.35,-128.692 2322.99,-135.496"/>
</g>
<!-- Node3 -->
<g id="node4" class="node"><title>Node3</title>
<g id="a_node4"><a xlink:href="a00041.html" target="_top" xlink:title="This file contains various architecture&#45;specific declerations. ">
<polygon fill="white" stroke="black" points="147,-56.5 147,-75.5 207,-75.5 207,-56.5 147,-56.5"/>
<text text-anchor="middle" x="177" y="-63.5" font-family="Helvetica,sans-Serif" font-size="10.00">gk_arch.h</text>
</a>
</g>
</g>
<!-- Node2&#45;&gt;Node3 -->
<g id="edge3" class="edge"><title>Node2&#45;&gt;Node3</title>
<path fill="none" stroke="midnightblue" d="M1207.16,-120.515C1073.37,-117.813 436.649,-103.764 217.261,-75.8651"/>
<polygon fill="midnightblue" stroke="midnightblue" points="217.506,-72.367 207.133,-74.5261 216.588,-79.3067 217.506,-72.367"/>
</g>
<!-- Node9 -->
<g id="node10" class="node"><title>Node9</title>
<polygon fill="white" stroke="#bfbfbf" points="225,-56.5 225,-75.5 277,-75.5 277,-56.5 225,-56.5"/>
<text text-anchor="middle" x="251" y="-63.5" font-family="Helvetica,sans-Serif" font-size="10.00">stddef.h</text>
</g>
<!-- Node2&#45;&gt;Node9 -->
<g id="edge9" class="edge"><title>Node2&#45;&gt;Node9</title>
<path fill="none" stroke="midnightblue" d="M1207.18,-120.505C1079.09,-117.851 491.323,-104.396 287.258,-75.8242"/>
<polygon fill="midnightblue" stroke="midnightblue" points="287.655,-72.3453 277.255,-74.3642 286.644,-79.2719 287.655,-72.3453"/>
</g>
<!-- Node10 -->
<g id="node11" class="node"><title>Node10</title>
<polygon fill="white" stroke="#bfbfbf" points="295,-56.5 295,-75.5 343,-75.5 343,-56.5 295,-56.5"/>
<text text-anchor="middle" x="319" y="-63.5" font-family="Helvetica,sans-Serif" font-size="10.00">stdlib.h</text>
</g>
<!-- Node2&#45;&gt;Node10 -->
<g id="edge10" class="edge"><title>Node2&#45;&gt;Node10</title>
<path fill="none" stroke="midnightblue" d="M1207.28,-120.455C1085.01,-117.649 543.516,-103.943 353.165,-75.7629"/>
<polygon fill="midnightblue" stroke="midnightblue" points="353.437,-72.2635 343.02,-74.1928 352.367,-79.1811 353.437,-72.2635"/>
</g>
<!-- Node11 -->
<g id="node12" class="node"><title>Node11</title>
<polygon fill="white" stroke="#bfbfbf" points="361.5,-56.5 361.5,-75.5 414.5,-75.5 414.5,-56.5 361.5,-56.5"/>
<text text-anchor="middle" x="388" y="-63.5" font-family="Helvetica,sans-Serif" font-size="10.00">stdarg.h</text>
</g>
<!-- Node2&#45;&gt;Node11 -->
<g id="edge11" class="edge"><title>Node2&#45;&gt;Node11</title>
<path fill="none" stroke="midnightblue" d="M1207.37,-121.32C1109.46,-122.241 738.39,-122.386 424.817,-75.787"/>
<polygon fill="midnightblue" stroke="midnightblue" points="425.032,-72.28 414.623,-74.2524 423.99,-79.2021 425.032,-72.28"/>
</g>
<!-- Node12 -->
<g id="node13" class="node"><title>Node12</title>
<polygon fill="white" stroke="#bfbfbf" points="433,-56.5 433,-75.5 479,-75.5 479,-56.5 433,-56.5"/>
<text text-anchor="middle" x="456" y="-63.5" font-family="Helvetica,sans-Serif" font-size="10.00">stdio.h</text>
</g>
<!-- Node2&#45;&gt;Node12 -->
<g id="edge12" class="edge"><title>Node2&#45;&gt;Node12</title>
<path fill="none" stroke="midnightblue" d="M1207.38,-121.409C1114.36,-122.559 775.506,-123.173 489.441,-75.8737"/>
<polygon fill="midnightblue" stroke="midnightblue" points="489.729,-72.3731 479.288,-74.1708 488.571,-79.2767 489.729,-72.3731"/>
</g>
<!-- Node13 -->
<g id="node14" class="node"><title>Node13</title>
<polygon fill="white" stroke="#bfbfbf" points="497,-56.5 497,-75.5 545,-75.5 545,-56.5 497,-56.5"/>
<text text-anchor="middle" x="521" y="-63.5" font-family="Helvetica,sans-Serif" font-size="10.00">errno.h</text>
</g>
<!-- Node2&#45;&gt;Node13 -->
<g id="edge13" class="edge"><title>Node2&#45;&gt;Node13</title>
<path fill="none" stroke="midnightblue" d="M1207.47,-121.134C1119.92,-121.247 814.637,-118.486 555.019,-75.8155"/>
<polygon fill="midnightblue" stroke="midnightblue" points="555.466,-72.3419 545.027,-74.1496 554.315,-79.2466 555.466,-72.3419"/>
</g>
<!-- Node14 -->
<g id="node15" class="node"><title>Node14</title>
<polygon fill="white" stroke="#bfbfbf" points="563.5,-56.5 563.5,-75.5 612.5,-75.5 612.5,-56.5 563.5,-56.5"/>
<text text-anchor="middle" x="588" y="-63.5" font-family="Helvetica,sans-Serif" font-size="10.00">ctype.h</text>
</g>
<!-- Node2&#45;&gt;Node14 -->
<g id="edge14" class="edge"><title>Node2&#45;&gt;Node14</title>
<path fill="none" stroke="midnightblue" d="M1207.35,-120.882C1125.33,-120.135 854.217,-114.817 622.702,-75.994"/>
<polygon fill="midnightblue" stroke="midnightblue" points="623.197,-72.528 612.751,-74.3003 622.022,-79.4287 623.197,-72.528"/>
</g>
<!-- Node15 -->
<g id="node16" class="node"><title>Node15</title>
<polygon fill="white" stroke="#bfbfbf" points="630.5,-56.5 630.5,-75.5 677.5,-75.5 677.5,-56.5 630.5,-56.5"/>
<text text-anchor="middle" x="654" y="-63.5" font-family="Helvetica,sans-Serif" font-size="10.00">math.h</text>
</g>
<!-- Node2&#45;&gt;Node15 -->
<g id="edge15" class="edge"><title>Node2&#45;&gt;Node15</title>
<path fill="none" stroke="midnightblue" d="M1207.35,-120.575C1131.29,-118.925 893.521,-111.243 687.758,-75.7813"/>
<polygon fill="midnightblue" stroke="midnightblue" points="688.129,-72.2931 677.675,-74.0166 686.922,-79.1883 688.129,-72.2931"/>
</g>
<!-- Node16 -->
<g id="node17" class="node"><title>Node16</title>
<polygon fill="white" stroke="#bfbfbf" points="696,-56.5 696,-75.5 740,-75.5 740,-56.5 696,-56.5"/>
<text text-anchor="middle" x="718" y="-63.5" font-family="Helvetica,sans-Serif" font-size="10.00">float.h</text>
</g>
<!-- Node2&#45;&gt;Node16 -->
<g id="edge16" class="edge"><title>Node2&#45;&gt;Node16</title>
<path fill="none" stroke="midnightblue" d="M1207.39,-120.352C1137.24,-118.161 930.207,-109.295 750.139,-75.8707"/>
<polygon fill="midnightblue" stroke="midnightblue" points="750.704,-72.4156 740.228,-74.0008 749.406,-79.2943 750.704,-72.4156"/>
</g>
<!-- Node17 -->
<g id="node18" class="node"><title>Node17</title>
<polygon fill="white" stroke="#bfbfbf" points="758,-56.5 758,-75.5 802,-75.5 802,-56.5 758,-56.5"/>
<text text-anchor="middle" x="780" y="-63.5" font-family="Helvetica,sans-Serif" font-size="10.00">time.h</text>
</g>
<!-- Node2&#45;&gt;Node17 -->
<g id="edge17" class="edge"><title>Node2&#45;&gt;Node17</title>
<path fill="none" stroke="midnightblue" d="M1207.1,-119.87C1143.05,-116.643 967.338,-105.751 812.409,-75.9539"/>
<polygon fill="midnightblue" stroke="midnightblue" points="812.722,-72.4488 802.236,-73.9637 811.378,-79.3186 812.722,-72.4488"/>
</g>
<!-- Node18 -->
<g id="node19" class="node"><title>Node18</title>
<polygon fill="white" stroke="#bfbfbf" points="820.5,-56.5 820.5,-75.5 869.5,-75.5 869.5,-56.5 820.5,-56.5"/>
<text text-anchor="middle" x="845" y="-63.5" font-family="Helvetica,sans-Serif" font-size="10.00">string.h</text>
</g>
<!-- Node2&#45;&gt;Node18 -->
<g id="edge18" class="edge"><title>Node2&#45;&gt;Node18</title>
<path fill="none" stroke="midnightblue" d="M1207.43,-118.993C1151.19,-114.16 1008.67,-100.565 879.834,-75.9168"/>
<polygon fill="midnightblue" stroke="midnightblue" points="880.279,-72.4378 869.795,-73.9679 878.944,-79.3095 880.279,-72.4378"/>
</g>
<!-- Node19 -->
<g id="node20" class="node"><title>Node19</title>
<polygon fill="white" stroke="#bfbfbf" points="888,-56.5 888,-75.5 936,-75.5 936,-56.5 888,-56.5"/>
<text text-anchor="middle" x="912" y="-63.5" font-family="Helvetica,sans-Serif" font-size="10.00">limits.h</text>
</g>
<!-- Node2&#45;&gt;Node19 -->
<g id="edge19" class="edge"><title>Node2&#45;&gt;Node19</title>
<path fill="none" stroke="midnightblue" d="M1207.26,-118.059C1158.91,-112.113 1048.37,-97.5367 945.958,-76.0024"/>
<polygon fill="midnightblue" stroke="midnightblue" points="946.585,-72.5575 936.075,-73.8967 945.126,-79.4038 946.585,-72.5575"/>
</g>
<!-- Node20 -->
<g id="node21" class="node"><title>Node20</title>
<polygon fill="white" stroke="#bfbfbf" points="954.5,-56.5 954.5,-75.5 1005.5,-75.5 1005.5,-56.5 954.5,-56.5"/>
<text text-anchor="middle" x="980" y="-63.5" font-family="Helvetica,sans-Serif" font-size="10.00">signal.h</text>
</g>
<!-- Node2&#45;&gt;Node20 -->
<g id="edge20" class="edge"><title>Node2&#45;&gt;Node20</title>
<path fill="none" stroke="midnightblue" d="M1207.18,-116.25C1168.52,-108.764 1091.34,-93.4822 1015.75,-76.0822"/>
<polygon fill="midnightblue" stroke="midnightblue" points="1016.11,-72.5737 1005.58,-73.7263 1014.53,-79.3931 1016.11,-72.5737"/>
</g>
<!-- Node21 -->
<g id="node22" class="node"><title>Node21</title>
<polygon fill="white" stroke="#bfbfbf" points="1024,-56.5 1024,-75.5 1078,-75.5 1078,-56.5 1024,-56.5"/>
<text text-anchor="middle" x="1051" y="-63.5" font-family="Helvetica,sans-Serif" font-size="10.00">setjmp.h</text>
</g>
<!-- Node2&#45;&gt;Node21 -->
<g id="edge21" class="edge"><title>Node2&#45;&gt;Node21</title>
<path fill="none" stroke="midnightblue" d="M1207.21,-113.605C1176.46,-104.43 1123.74,-88.7009 1088.14,-78.0819"/>
<polygon fill="midnightblue" stroke="midnightblue" points="1088.73,-74.6029 1078.14,-75.0978 1086.72,-81.3107 1088.73,-74.6029"/>
</g>
<!-- Node22 -->
<g id="node23" class="node"><title>Node22</title>
<polygon fill="white" stroke="#bfbfbf" points="1096,-56.5 1096,-75.5 1148,-75.5 1148,-56.5 1096,-56.5"/>
<text text-anchor="middle" x="1122" y="-63.5" font-family="Helvetica,sans-Serif" font-size="10.00">assert.h</text>
</g>
<!-- Node2&#45;&gt;Node22 -->
<g id="edge22" class="edge"><title>Node2&#45;&gt;Node22</title>
<path fill="none" stroke="midnightblue" d="M1214.33,-112.324C1196.61,-103.625 1169.1,-90.1202 1148.71,-80.113"/>
<polygon fill="midnightblue" stroke="midnightblue" points="1150.15,-76.9195 1139.63,-75.6545 1147.06,-83.2031 1150.15,-76.9195"/>
</g>
<!-- Node23 -->
<g id="node24" class="node"><title>Node23</title>
<polygon fill="white" stroke="#bfbfbf" points="1166.5,-56.5 1166.5,-75.5 1225.5,-75.5 1225.5,-56.5 1166.5,-56.5"/>
<text text-anchor="middle" x="1196" y="-63.5" font-family="Helvetica,sans-Serif" font-size="10.00">sys/stat.h</text>
</g>
<!-- Node2&#45;&gt;Node23 -->
<g id="edge23" class="edge"><title>Node2&#45;&gt;Node23</title>
<path fill="none" stroke="midnightblue" d="M1226.06,-112.083C1221.02,-104.534 1213.66,-93.4948 1207.49,-84.2298"/>
<polygon fill="midnightblue" stroke="midnightblue" points="1210.29,-82.1301 1201.83,-75.7511 1204.47,-86.0131 1210.29,-82.1301"/>
</g>
<!-- Node24 -->
<g id="node25" class="node"><title>Node24</title>
<polygon fill="white" stroke="#bfbfbf" points="1244,-56.5 1244,-75.5 1294,-75.5 1294,-56.5 1244,-56.5"/>
<text text-anchor="middle" x="1269" y="-63.5" font-family="Helvetica,sans-Serif" font-size="10.00">regex.h</text>
</g>
<!-- Node2&#45;&gt;Node24 -->
<g id="edge24" class="edge"><title>Node2&#45;&gt;Node24</title>
<path fill="none" stroke="midnightblue" d="M1238.11,-112.083C1243.28,-104.534 1250.85,-93.4948 1257.19,-84.2298"/>
<polygon fill="midnightblue" stroke="midnightblue" points="1260.24,-85.9787 1263,-75.7511 1254.46,-82.0221 1260.24,-85.9787"/>
</g>
<!-- Node25 -->
<g id="node26" class="node"><title>Node25</title>
<g id="a_node26"><a xlink:href="a00083.html" target="_top" xlink:title="This file contains basic scalar datatype used in GKlib. ">
<polygon fill="white" stroke="black" points="1312.5,-56.5 1312.5,-75.5 1377.5,-75.5 1377.5,-56.5 1312.5,-56.5"/>
<text text-anchor="middle" x="1345" y="-63.5" font-family="Helvetica,sans-Serif" font-size="10.00">gk_types.h</text>
</a>
</g>
</g>
<!-- Node2&#45;&gt;Node25 -->
<g id="edge25" class="edge"><title>Node2&#45;&gt;Node25</title>
<path fill="none" stroke="midnightblue" d="M1249.91,-112.444C1268.25,-103.675 1297.01,-89.9355 1318.09,-79.8579"/>
<polygon fill="midnightblue" stroke="midnightblue" points="1319.67,-82.9862 1327.18,-75.5164 1316.65,-76.6703 1319.67,-82.9862"/>
</g>
<!-- Node26 -->
<g id="node27" class="node"><title>Node26</title>
<g id="a_node27"><a xlink:href="a00080.html" target="_top" xlink:title="This file contains various datastructures used/provided by GKlib. ">
<polygon fill="white" stroke="black" points="1395.5,-56.5 1395.5,-75.5 1460.5,-75.5 1460.5,-56.5 1395.5,-56.5"/>
<text text-anchor="middle" x="1428" y="-63.5" font-family="Helvetica,sans-Serif" font-size="10.00">gk_struct.h</text>
</a>
</g>
</g>
<!-- Node2&#45;&gt;Node26 -->
<g id="edge26" class="edge"><title>Node2&#45;&gt;Node26</title>
<path fill="none" stroke="midnightblue" d="M1256.82,-114.161C1289.61,-105.128 1347.79,-89.0995 1387.11,-78.2645"/>
<polygon fill="midnightblue" stroke="midnightblue" points="1388.22,-81.5916 1396.93,-75.5611 1386.36,-74.843 1388.22,-81.5916"/>
</g>
<!-- Node27 -->
<g id="node28" class="node"><title>Node27</title>
<g id="a_node28"><a xlink:href="a00047.html" target="_top" xlink:title="This file contains definitions of external variables created by GKlib. ">
<polygon fill="white" stroke="black" points="1479,-56.5 1479,-75.5 1553,-75.5 1553,-56.5 1479,-56.5"/>
<text text-anchor="middle" x="1516" y="-63.5" font-family="Helvetica,sans-Serif" font-size="10.00">gk_externs.h</text>
</a>
</g>
</g>
<!-- Node2&#45;&gt;Node27 -->
<g id="edge27" class="edge"><title>Node2&#45;&gt;Node27</title>
<path fill="none" stroke="midnightblue" d="M1256.57,-116.348C1297.97,-108.506 1384.53,-92.0997 1468.8,-76.0349"/>
<polygon fill="midnightblue" stroke="midnightblue" points="1469.63,-79.4399 1478.8,-74.1288 1468.32,-72.5637 1469.63,-79.4399"/>
</g>
<!-- Node28 -->
<g id="node29" class="node"><title>Node28</title>
<g id="a_node29"><a xlink:href="a00044.html" target="_top" xlink:title="This file contains various constants definitions. ">
<polygon fill="white" stroke="black" points="1571,-56.5 1571,-75.5 1631,-75.5 1631,-56.5 1571,-56.5"/>
<text text-anchor="middle" x="1601" y="-63.5" font-family="Helvetica,sans-Serif" font-size="10.00">gk_defs.h</text>
</a>
</g>
</g>
<!-- Node2&#45;&gt;Node28 -->
<g id="edge28" class="edge"><title>Node2&#45;&gt;Node28</title>
<path fill="none" stroke="midnightblue" d="M1256.55,-118.429C1310,-112.665 1441.1,-97.6362 1560.76,-76.0835"/>
<polygon fill="midnightblue" stroke="midnightblue" points="1561.61,-79.486 1570.82,-74.2504 1560.36,-72.5993 1561.61,-79.486"/>
</g>
<!-- Node29 -->
<g id="node30" class="node"><title>Node29</title>
<g id="a_node30"><a xlink:href="a00053.html" target="_top" xlink:title="This file contains various macros. ">
<polygon fill="white" stroke="black" points="1649,-56.5 1649,-75.5 1723,-75.5 1723,-56.5 1649,-56.5"/>
<text text-anchor="middle" x="1686" y="-63.5" font-family="Helvetica,sans-Serif" font-size="10.00">gk_macros.h</text>
</a>
</g>
</g>
<!-- Node2&#45;&gt;Node29 -->
<g id="edge29" class="edge"><title>Node2&#45;&gt;Node29</title>
<path fill="none" stroke="midnightblue" d="M1256.93,-118.979C1319.46,-113.757 1488.13,-98.7175 1638.98,-76.041"/>
<polygon fill="midnightblue" stroke="midnightblue" points="1639.53,-79.498 1648.89,-74.5364 1638.48,-72.5774 1639.53,-79.498"/>
</g>
<!-- Node30 -->
<g id="node31" class="node"><title>Node30</title>
<g id="a_node31"><a xlink:href="a00050.html" target="_top" xlink:title="This file contains GNU&#39;s externs/structs/prototypes. ">
<polygon fill="white" stroke="black" points="1741.5,-56.5 1741.5,-75.5 1810.5,-75.5 1810.5,-56.5 1741.5,-56.5"/>
<text text-anchor="middle" x="1776" y="-63.5" font-family="Helvetica,sans-Serif" font-size="10.00">gk_getopt.h</text>
</a>
</g>
</g>
<!-- Node2&#45;&gt;Node30 -->
<g id="edge30" class="edge"><title>Node2&#45;&gt;Node30</title>
<path fill="none" stroke="midnightblue" d="M1256.57,-119.766C1328.13,-115.966 1542.76,-103.11 1731.38,-75.9156"/>
<polygon fill="midnightblue" stroke="midnightblue" points="1732.09,-79.3492 1741.48,-74.442 1731.08,-72.4226 1732.09,-79.3492"/>
</g>
<!-- Node31 -->
<g id="node32" class="node"><title>Node31</title>
<g id="a_node32"><a xlink:href="a00071.html" target="_top" xlink:title="Templates for the qsort routine. ">
<polygon fill="white" stroke="black" points="1828.5,-56.5 1828.5,-75.5 1899.5,-75.5 1899.5,-56.5 1828.5,-56.5"/>
<text text-anchor="middle" x="1864" y="-63.5" font-family="Helvetica,sans-Serif" font-size="10.00">gk_mksort.h</text>
</a>
</g>
</g>
<!-- Node2&#45;&gt;Node31 -->
<g id="edge31" class="edge"><title>Node2&#45;&gt;Node31</title>
<path fill="none" stroke="midnightblue" d="M1256.72,-120.175C1336.53,-117.287 1594.61,-106.193 1818.25,-75.9273"/>
<polygon fill="midnightblue" stroke="midnightblue" points="1818.77,-79.3891 1828.2,-74.5648 1817.82,-72.4539 1818.77,-79.3891"/>
</g>
<!-- Node32 -->
<g id="node33" class="node"><title>Node32</title>
<g id="a_node33"><a xlink:href="a00056.html" target="_top" xlink:title="Templates for BLAS&#45;like routines. ">
<polygon fill="white" stroke="black" points="1917.5,-56.5 1917.5,-75.5 1990.5,-75.5 1990.5,-56.5 1917.5,-56.5"/>
<text text-anchor="middle" x="1954" y="-63.5" font-family="Helvetica,sans-Serif" font-size="10.00">gk_mkblas.h</text>
</a>
</g>
</g>
<!-- Node2&#45;&gt;Node32 -->
<g id="edge32" class="edge"><title>Node2&#45;&gt;Node32</title>
<path fill="none" stroke="midnightblue" d="M1256.67,-120.486C1344.04,-118.429 1647.08,-109.284 1907.39,-75.8931"/>
<polygon fill="midnightblue" stroke="midnightblue" points="1907.94,-79.3507 1917.41,-74.593 1907.04,-72.4089 1907.94,-79.3507"/>
</g>
<!-- Node33 -->
<g id="node34" class="node"><title>Node33</title>
<g id="a_node34"><a xlink:href="a00059.html" target="_top" xlink:title="Templates for memory allocation routines. ">
<polygon fill="white" stroke="black" points="2009,-56.5 2009,-75.5 2099,-75.5 2099,-56.5 2009,-56.5"/>
<text text-anchor="middle" x="2054" y="-63.5" font-family="Helvetica,sans-Serif" font-size="10.00">gk_mkmemory.h</text>
</a>
</g>
</g>
<!-- Node2&#45;&gt;Node33 -->
<g id="edge33" class="edge"><title>Node2&#45;&gt;Node33</title>
<path fill="none" stroke="midnightblue" d="M1256.58,-120.484C1351.07,-118.306 1700.03,-108.483 1998.58,-75.9079"/>
<polygon fill="midnightblue" stroke="midnightblue" points="1999.17,-79.3634 2008.73,-74.7891 1998.41,-72.4056 1999.17,-79.3634"/>
</g>
<!-- Node34 -->
<g id="node35" class="node"><title>Node34</title>
<g id="a_node35"><a xlink:href="a00062.html" target="_top" xlink:title="Templates for priority queues. ">
<polygon fill="white" stroke="black" points="2117,-56.5 2117,-75.5 2205,-75.5 2205,-56.5 2117,-56.5"/>
<text text-anchor="middle" x="2161" y="-63.5" font-family="Helvetica,sans-Serif" font-size="10.00">gk_mkpqueue.h</text>
</a>
</g>
</g>
<!-- Node2&#45;&gt;Node34 -->
<g id="edge34" class="edge"><title>Node2&#45;&gt;Node34</title>
<path fill="none" stroke="midnightblue" d="M1256.82,-120.786C1359.89,-119.674 1764.34,-113.122 2106.7,-76.0085"/>
<polygon fill="midnightblue" stroke="midnightblue" points="2107.25,-79.4692 2116.81,-74.9015 2106.49,-72.5108 2107.25,-79.4692"/>
</g>
<!-- Node35 -->
<g id="node36" class="node"><title>Node35</title>
<g id="a_node36"><a xlink:href="a00065.html" target="_top" xlink:title="Templates for priority queues that do not utilize locators and as such they can use different types o...">
<polygon fill="white" stroke="black" points="2223.5,-56.5 2223.5,-75.5 2316.5,-75.5 2316.5,-56.5 2223.5,-56.5"/>
<text text-anchor="middle" x="2270" y="-63.5" font-family="Helvetica,sans-Serif" font-size="10.00">gk_mkpqueue2.h</text>
</a>
</g>
</g>
<!-- Node2&#45;&gt;Node35 -->
<g id="edge35" class="edge"><title>Node2&#45;&gt;Node35</title>
<path fill="none" stroke="midnightblue" d="M1256.74,-120.899C1367.18,-120.233 1826.21,-115.187 2213.31,-75.9343"/>
<polygon fill="midnightblue" stroke="midnightblue" points="2213.71,-79.4116 2223.3,-74.9117 2213,-72.448 2213.71,-79.4116"/>
</g>
<!-- Node36 -->
<g id="node37" class="node"><title>Node36</title>
<g id="a_node37"><a xlink:href="a00068.html" target="_top" xlink:title="Templates for portable random number generation. ">
<polygon fill="white" stroke="black" points="2335,-56.5 2335,-75.5 2423,-75.5 2423,-56.5 2335,-56.5"/>
<text text-anchor="middle" x="2379" y="-63.5" font-family="Helvetica,sans-Serif" font-size="10.00">gk_mkrandom.h</text>
</a>
</g>
</g>
<!-- Node2&#45;&gt;Node36 -->
<g id="edge36" class="edge"><title>Node2&#45;&gt;Node36</title>
<path fill="none" stroke="midnightblue" d="M1256.71,-121.114C1374.49,-121.421 1890.86,-120.117 2324.63,-75.8685"/>
<polygon fill="midnightblue" stroke="midnightblue" points="2325.27,-79.321 2334.86,-74.8153 2324.55,-72.3578 2325.27,-79.321"/>
</g>
<!-- Node37 -->
<g id="node38" class="node"><title>Node37</title>
<g id="a_node38"><a xlink:href="a00074.html" target="_top" xlink:title="Templates for various utility routines. ">
<polygon fill="white" stroke="black" points="2441,-56.5 2441,-75.5 2513,-75.5 2513,-56.5 2441,-56.5"/>
<text text-anchor="middle" x="2477" y="-63.5" font-family="Helvetica,sans-Serif" font-size="10.00">gk_mkutils.h</text>
</a>
</g>
</g>
<!-- Node2&#45;&gt;Node37 -->
<g id="edge37" class="edge"><title>Node2&#45;&gt;Node37</title>
<path fill="none" stroke="midnightblue" d="M1256.77,-120.611C1404.55,-118.213 2171.99,-104.61 2430.64,-75.9291"/>
<polygon fill="midnightblue" stroke="midnightblue" points="2431.19,-79.3885 2440.73,-74.7715 2430.4,-72.4341 2431.19,-79.3885"/>
</g>
<!-- Node38 -->
<g id="node39" class="node"><title>Node38</title>
<g id="a_node39"><a xlink:href="a00077.html" target="_top" xlink:title="This file contains function prototypes. ">
<polygon fill="white" stroke="black" points="2531,-56.5 2531,-75.5 2595,-75.5 2595,-56.5 2531,-56.5"/>
<text text-anchor="middle" x="2563" y="-63.5" font-family="Helvetica,sans-Serif" font-size="10.00">gk_proto.h</text>
</a>
</g>
</g>
<!-- Node2&#45;&gt;Node38 -->
<g id="edge38" class="edge"><title>Node2&#45;&gt;Node38</title>
<path fill="none" stroke="midnightblue" d="M1256.58,-120.751C1410.45,-119.101 2243.13,-108.823 2520.83,-75.8627"/>
<polygon fill="midnightblue" stroke="midnightblue" points="2521.37,-79.3228 2530.87,-74.6303 2520.51,-72.375 2521.37,-79.3228"/>
</g>
<!-- Node4 -->
<g id="node5" class="node"><title>Node4</title>
<polygon fill="white" stroke="#bfbfbf" points="-0.5,-0.5 -0.5,-19.5 48.5,-19.5 48.5,-0.5 -0.5,-0.5"/>
<text text-anchor="middle" x="24" y="-7.5" font-family="Helvetica,sans-Serif" font-size="10.00">stdint.h</text>
</g>
<!-- Node3&#45;&gt;Node4 -->
<g id="edge4" class="edge"><title>Node3&#45;&gt;Node4</title>
<path fill="none" stroke="midnightblue" d="M152.757,-56.4435C127.129,-47.3986 86.5148,-33.064 57.7616,-22.9158"/>
<polygon fill="midnightblue" stroke="midnightblue" points="58.7247,-19.5442 48.1299,-19.5164 56.3949,-26.1452 58.7247,-19.5442"/>
</g>
<!-- Node5 -->
<g id="node6" class="node"><title>Node5</title>
<polygon fill="white" stroke="#bfbfbf" points="66.5,-0.5 66.5,-19.5 125.5,-19.5 125.5,-0.5 66.5,-0.5"/>
<text text-anchor="middle" x="96" y="-7.5" font-family="Helvetica,sans-Serif" font-size="10.00">inttypes.h</text>
</g>
<!-- Node3&#45;&gt;Node5 -->
<g id="edge5" class="edge"><title>Node3&#45;&gt;Node5</title>
<path fill="none" stroke="midnightblue" d="M163.986,-56.324C151.468,-47.979 132.318,-35.2122 117.529,-25.3524"/>
<polygon fill="midnightblue" stroke="midnightblue" points="119.244,-22.2894 108.982,-19.6545 115.361,-28.1137 119.244,-22.2894"/>
</g>
<!-- Node6 -->
<g id="node7" class="node"><title>Node6</title>
<polygon fill="white" stroke="#bfbfbf" points="143.5,-0.5 143.5,-19.5 210.5,-19.5 210.5,-0.5 143.5,-0.5"/>
<text text-anchor="middle" x="177" y="-7.5" font-family="Helvetica,sans-Serif" font-size="10.00">sys/types.h</text>
</g>
<!-- Node3&#45;&gt;Node6 -->
<g id="edge6" class="edge"><title>Node3&#45;&gt;Node6</title>
<path fill="none" stroke="midnightblue" d="M177,-56.083C177,-49.0059 177,-38.8611 177,-29.9865"/>
<polygon fill="midnightblue" stroke="midnightblue" points="180.5,-29.751 177,-19.7511 173.5,-29.7511 180.5,-29.751"/>
</g>
<!-- Node7 -->
<g id="node8" class="node"><title>Node7</title>
<polygon fill="white" stroke="#bfbfbf" points="229,-0.5 229,-19.5 311,-19.5 311,-0.5 229,-0.5"/>
<text text-anchor="middle" x="270" y="-7.5" font-family="Helvetica,sans-Serif" font-size="10.00">sys/resource.h</text>
</g>
<!-- Node3&#45;&gt;Node7 -->
<g id="edge7" class="edge"><title>Node3&#45;&gt;Node7</title>
<path fill="none" stroke="midnightblue" d="M191.942,-56.324C206.585,-47.8215 229.134,-34.7288 246.238,-24.7975"/>
<polygon fill="midnightblue" stroke="midnightblue" points="248.205,-27.7027 255.095,-19.6545 244.69,-21.6491 248.205,-27.7027"/>
</g>
<!-- Node8 -->
<g id="node9" class="node"><title>Node8</title>
<polygon fill="white" stroke="#bfbfbf" points="329,-0.5 329,-19.5 391,-19.5 391,-0.5 329,-0.5"/>
<text text-anchor="middle" x="360" y="-7.5" font-family="Helvetica,sans-Serif" font-size="10.00">sys/time.h</text>
</g>
<!-- Node3&#45;&gt;Node8 -->
<g id="edge8" class="edge"><title>Node3&#45;&gt;Node8</title>
<path fill="none" stroke="midnightblue" d="M205.997,-56.4435C237.185,-47.2406 286.93,-32.5617 321.408,-22.3879"/>
<polygon fill="midnightblue" stroke="midnightblue" points="322.538,-25.7036 331.139,-19.5164 320.557,-18.9898 322.538,-25.7036"/>
</g>
<!-- Node42 -->
<g id="node43" class="node"><title>Node42</title>
<g id="a_node43"><a xlink:href="a00212.html" target="_top" xlink:title="gklib_rename.h">
<polygon fill="white" stroke="black" points="2613.5,-56.5 2613.5,-75.5 2698.5,-75.5 2698.5,-56.5 2613.5,-56.5"/>
<text text-anchor="middle" x="2656" y="-63.5" font-family="Helvetica,sans-Serif" font-size="10.00">gklib_rename.h</text>
</a>
</g>
</g>
<!-- Node41&#45;&gt;Node42 -->
<g id="edge42" class="edge"><title>Node41&#45;&gt;Node42</title>
<path fill="none" stroke="midnightblue" d="M2108.47,-113.338C2111.35,-112.841 2114.22,-112.386 2117,-112 2328.72,-82.6437 2386.84,-101.934 2603.39,-75.9377"/>
<polygon fill="midnightblue" stroke="midnightblue" points="2603.98,-79.3911 2613.48,-74.7066 2603.13,-72.4426 2603.98,-79.3911"/>
</g>
</g>
</svg>
        <g id="navigator" transform="translate(0 0)" fill="#404254">
                <rect fill="#f2f5e9" fill-opacity="0.5" stroke="#606060" stroke-width=".5" x="0" y="0" width="60" height="60"/>
                <use id="zoomplus" xlink:href="#zoomPlus" x="17" y="9" onmousedown="handleZoom(evt,'in')"/>
                <use id="zoomminus" xlink:href="#zoomMin" x="42" y="9" onmousedown="handleZoom(evt,'out')"/>
                <use id="reset" xlink:href="#resetDef" x="30" y="36" onmousedown="handleReset()"/>
                <g id="arrowUp" xlink:href="#dirArrow" transform="translate(30 24)" onmousedown="handlePan(0,-1)">
                  <use xlink:href="#rim" fill="#404040">
                        <set attributeName="fill" to="#808080" begin="arrowUp.mouseover" end="arrowUp.mouseout"/>
                  </use>
                  <path fill="none" stroke="white" stroke-width="1.5" d="M0,-3.0v7 M-2.5,-0.5L0,-3.0L2.5,-0.5"/>
                </g>
                <g id="arrowRight" xlink:href="#dirArrow" transform="rotate(90) translate(36 -43)" onmousedown="handlePan(1,0)">
                  <use xlink:href="#rim" fill="#404040">
                        <set attributeName="fill" to="#808080" begin="arrowRight.mouseover" end="arrowRight.mouseout"/>
                  </use>
                  <path fill="none" stroke="white" stroke-width="1.5" d="M0,-3.0v7 M-2.5,-0.5L0,-3.0L2.5,-0.5"/>
                </g>
                <g id="arrowDown" xlink:href="#dirArrow" transform="rotate(180) translate(-30 -48)" onmousedown="handlePan(0,1)">
                  <use xlink:href="#rim" fill="#404040">
                        <set attributeName="fill" to="#808080" begin="arrowDown.mouseover" end="arrowDown.mouseout"/>
                  </use>
                  <path fill="none" stroke="white" stroke-width="1.5" d="M0,-3.0v7 M-2.5,-0.5L0,-3.0L2.5,-0.5"/>
                </g>
                <g id="arrowLeft" xlink:href="#dirArrow" transform="rotate(270) translate(-36 17)" onmousedown="handlePan(-1,0)">
                  <use xlink:href="#rim" fill="#404040">
                        <set attributeName="fill" to="#808080" begin="arrowLeft.mouseover" end="arrowLeft.mouseout"/>
                  </use>
                  <path fill="none" stroke="white" stroke-width="1.5" d="M0,-3.0v7 M-2.5,-0.5L0,-3.0L2.5,-0.5"/>
                </g>
        </g>
        <svg viewBox="0 0 15 15" width="100%" height="30px" preserveAspectRatio="xMaxYMin meet">
         <g id="arrow_out" transform="scale(0.3 0.3)">
          <a xlink:href="a00919_org.svg" target="_base">
           <rect id="button" ry="5" rx="5" y="6" x="6" height="38" width="38"
                fill="#f2f5e9" fill-opacity="0.5" stroke="#606060" stroke-width="1.0"/>
           <path id="arrow"
             d="M 11.500037,31.436501 C 11.940474,20.09759 22.043105,11.32322 32.158766,21.979434 L 37.068811,17.246167 C 37.068811,17.246167 37.088388,32 37.088388,32 L 22.160133,31.978069 C 22.160133,31.978069 26.997745,27.140456 26.997745,27.140456 C 18.528582,18.264221 13.291696,25.230495 11.500037,31.436501 z"
             style="fill:#404040;"/>
          </a>
         </g>
        </svg>
</svg>
