<?xml version="1.0" encoding="UTF-8" standalone="no"?>
<!DOCTYPE svg PUBLIC "-//W3C//DTD SVG 1.1//EN"
 "http://www.w3.org/Graphics/SVG/1.1/DTD/svg11.dtd">
<!-- Generated by graphviz version 2.36.0 (20140111.2315)
 -->
<!-- Title: MlevelNestedDissectionCC Pages: 1 -->
<svg width="348pt" height="46pt"
 viewBox="0.00 0.00 348.00 46.00" xmlns="http://www.w3.org/2000/svg" xmlns:xlink="http://www.w3.org/1999/xlink">
<g id="graph0" class="graph" transform="scale(1 1) rotate(0) translate(4 42)">
<title>MlevelNestedDissectionCC</title>
<polygon fill="white" stroke="none" points="-4,4 -4,-42 344,-42 344,4 -4,4"/>
<!-- Node679 -->
<g id="node1" class="node"><title>Node679</title>
<polygon fill="#bfbfbf" stroke="black" points="0,-0.5 0,-19.5 138,-19.5 138,-0.5 0,-0.5"/>
<text text-anchor="middle" x="69" y="-7.5" font-family="Helvetica,sans-Serif" font-size="10.00">MlevelNestedDissectionCC</text>
</g>
<!-- Node679&#45;&gt;Node679 -->
<g id="edge3" class="edge"><title>Node679&#45;&gt;Node679</title>
<path fill="none" stroke="midnightblue" d="M41.0009,-28.6539C42.1712,-33.9368 51.5043,-38 69,-38 95.6602,-38 103.367,-28.5653 92.1194,-19.7571"/>
<polygon fill="midnightblue" stroke="midnightblue" points="44.1403,-30.208 45.8806,-19.7571 38.0029,-26.8417 44.1403,-30.208"/>
</g>
<!-- Node680 -->
<g id="node2" class="node"><title>Node680</title>
<g id="a_node2"><a xlink:href="a00936.html#a8304f0dd6d180587f73b0b70de3b01b7" target="_top" xlink:title="METIS_NodeND">
<polygon fill="white" stroke="black" points="174.5,-0.5 174.5,-19.5 265.5,-19.5 265.5,-0.5 174.5,-0.5"/>
<text text-anchor="middle" x="220" y="-7.5" font-family="Helvetica,sans-Serif" font-size="10.00">METIS_NodeND</text>
</a>
</g>
</g>
<!-- Node679&#45;&gt;Node680 -->
<g id="edge1" class="edge"><title>Node679&#45;&gt;Node680</title>
<path fill="none" stroke="midnightblue" d="M148.458,-10C157.367,-10 166.2,-10 174.446,-10"/>
<polygon fill="midnightblue" stroke="midnightblue" points="148.395,-6.5001 138.395,-10 148.395,-13.5001 148.395,-6.5001"/>
</g>
<!-- Node681 -->
<g id="node3" class="node"><title>Node681</title>
<g id="a_node3"><a xlink:href="a00326.html#a0ddf1224851353fc92bfbff6f499fa97" target="_top" xlink:title="main">
<polygon fill="white" stroke="black" points="302,-0.5 302,-19.5 340,-19.5 340,-0.5 302,-0.5"/>
<text text-anchor="middle" x="321" y="-7.5" font-family="Helvetica,sans-Serif" font-size="10.00">main</text>
</a>
</g>
</g>
<!-- Node680&#45;&gt;Node681 -->
<g id="edge2" class="edge"><title>Node680&#45;&gt;Node681</title>
<path fill="none" stroke="midnightblue" d="M275.748,-10C285.09,-10 294.179,-10 301.665,-10"/>
<polygon fill="midnightblue" stroke="midnightblue" points="275.577,-6.5001 265.577,-10 275.577,-13.5001 275.577,-6.5001"/>
</g>
</g>
</svg>
