<?xml version="1.0" encoding="UTF-8" standalone="no"?>
<!DOCTYPE svg PUBLIC "-//W3C//DTD SVG 1.1//EN"
 "http://www.w3.org/Graphics/SVG/1.1/DTD/svg11.dtd">
<!-- Generated by graphviz version 2.36.0 (20140111.2315)
 -->
<!-- Title: FindCommonNodes Pages: 1 -->
<svg width="634pt" height="66pt"
 viewBox="0.00 0.00 634.00 66.00" xmlns="http://www.w3.org/2000/svg" xmlns:xlink="http://www.w3.org/1999/xlink">
<g id="graph0" class="graph" transform="scale(1 1) rotate(0) translate(4 62)">
<title>FindCommonNodes</title>
<polygon fill="white" stroke="none" points="-4,4 -4,-62 630,-62 630,4 -4,4"/>
<!-- Node265 -->
<g id="node1" class="node"><title>Node265</title>
<polygon fill="#bfbfbf" stroke="black" points="0.5,-19.5 0.5,-38.5 105.5,-38.5 105.5,-19.5 0.5,-19.5"/>
<text text-anchor="middle" x="53" y="-26.5" font-family="Helvetica,sans-Serif" font-size="10.00">FindCommonNodes</text>
</g>
<!-- Node266 -->
<g id="node2" class="node"><title>Node266</title>
<g id="a_node2"><a xlink:href="a00948.html#ac6018a712a429b3c401adba913c2cae3" target="_top" xlink:title="CreateGraphNodal">
<polygon fill="white" stroke="black" points="142,-19.5 142,-38.5 242,-38.5 242,-19.5 142,-19.5"/>
<text text-anchor="middle" x="192" y="-26.5" font-family="Helvetica,sans-Serif" font-size="10.00">CreateGraphNodal</text>
</a>
</g>
</g>
<!-- Node265&#45;&gt;Node266 -->
<g id="edge1" class="edge"><title>Node265&#45;&gt;Node266</title>
<path fill="none" stroke="midnightblue" d="M115.901,-29C124.596,-29 133.434,-29 141.848,-29"/>
<polygon fill="midnightblue" stroke="midnightblue" points="115.794,-25.5001 105.794,-29 115.794,-32.5001 115.794,-25.5001"/>
</g>
<!-- Node267 -->
<g id="node3" class="node"><title>Node267</title>
<g id="a_node3"><a xlink:href="a00930.html#ae9390485cd2d3654742f779a7188c125" target="_top" xlink:title="METIS_MeshToNodal">
<polygon fill="white" stroke="black" points="278.5,-19.5 278.5,-38.5 393.5,-38.5 393.5,-19.5 278.5,-19.5"/>
<text text-anchor="middle" x="336" y="-26.5" font-family="Helvetica,sans-Serif" font-size="10.00">METIS_MeshToNodal</text>
</a>
</g>
</g>
<!-- Node266&#45;&gt;Node267 -->
<g id="edge2" class="edge"><title>Node266&#45;&gt;Node267</title>
<path fill="none" stroke="midnightblue" d="M252.448,-29C260.914,-29 269.606,-29 278.023,-29"/>
<polygon fill="midnightblue" stroke="midnightblue" points="252.266,-25.5001 242.266,-29 252.266,-32.5001 252.266,-25.5001"/>
</g>
<!-- Node268 -->
<g id="node4" class="node"><title>Node268</title>
<g id="a_node4"><a xlink:href="a00236.html#ade1e7e23ad687989a6343b4fb8d61ba7" target="_top" xlink:title="METIS_PartMeshNodal">
<polygon fill="white" stroke="black" points="430,-38.5 430,-57.5 552,-57.5 552,-38.5 430,-38.5"/>
<text text-anchor="middle" x="491" y="-45.5" font-family="Helvetica,sans-Serif" font-size="10.00">METIS_PartMeshNodal</text>
</a>
</g>
</g>
<!-- Node267&#45;&gt;Node268 -->
<g id="edge3" class="edge"><title>Node267&#45;&gt;Node268</title>
<path fill="none" stroke="midnightblue" d="M403.655,-37.2775C412.366,-38.3592 421.25,-39.4624 429.845,-40.5298"/>
<polygon fill="midnightblue" stroke="midnightblue" points="403.892,-33.78 393.537,-36.0209 403.029,-40.7267 403.892,-33.78"/>
</g>
<!-- Node270 -->
<g id="node6" class="node"><title>Node270</title>
<g id="a_node6"><a xlink:href="a00317.html#a0ddf1224851353fc92bfbff6f499fa97" target="_top" xlink:title="main">
<polygon fill="white" stroke="black" points="472,-0.5 472,-19.5 510,-19.5 510,-0.5 472,-0.5"/>
<text text-anchor="middle" x="491" y="-7.5" font-family="Helvetica,sans-Serif" font-size="10.00">main</text>
</a>
</g>
</g>
<!-- Node267&#45;&gt;Node270 -->
<g id="edge5" class="edge"><title>Node267&#45;&gt;Node270</title>
<path fill="none" stroke="midnightblue" d="M403.692,-20.718C428.522,-17.6345 454.754,-14.377 471.689,-12.2739"/>
<polygon fill="midnightblue" stroke="midnightblue" points="403.029,-17.2733 393.537,-21.9791 403.892,-24.22 403.029,-17.2733"/>
</g>
<!-- Node269 -->
<g id="node5" class="node"><title>Node269</title>
<g id="a_node5"><a xlink:href="a00323.html#a0ddf1224851353fc92bfbff6f499fa97" target="_top" xlink:title="main">
<polygon fill="white" stroke="black" points="588,-38.5 588,-57.5 626,-57.5 626,-38.5 588,-38.5"/>
<text text-anchor="middle" x="607" y="-45.5" font-family="Helvetica,sans-Serif" font-size="10.00">main</text>
</a>
</g>
</g>
<!-- Node268&#45;&gt;Node269 -->
<g id="edge4" class="edge"><title>Node268&#45;&gt;Node269</title>
<path fill="none" stroke="midnightblue" d="M562.038,-48C571.534,-48 580.52,-48 587.864,-48"/>
<polygon fill="midnightblue" stroke="midnightblue" points="562.005,-44.5001 552.005,-48 562.005,-51.5001 562.005,-44.5001"/>
</g>
</g>
</svg>
