<?xml version="1.0" encoding="UTF-8" standalone="no"?>
<!DOCTYPE svg PUBLIC "-//W3C//DTD SVG 1.1//EN"
 "http://www.w3.org/Graphics/SVG/1.1/DTD/svg11.dtd">
<!-- Generated by graphviz version 2.36.0 (20140111.2315)
 -->
<!-- Title: TestParMetis_GPart Pages: 1 -->
<svg width="622pt" height="522pt"
 viewBox="0.00 0.00 622.00 522.00" xmlns="http://www.w3.org/2000/svg" xmlns:xlink="http://www.w3.org/1999/xlink">
<g id="graph0" class="graph" transform="scale(1 1) rotate(0) translate(4 518)">
<title>TestParMetis_GPart</title>
<polygon fill="white" stroke="none" points="-4,4 -4,-518 618,-518 618,4 -4,4"/>
<!-- Node90 -->
<g id="node1" class="node"><title>Node90</title>
<polygon fill="#bfbfbf" stroke="black" points="0.5,-228.5 0.5,-247.5 107.5,-247.5 107.5,-228.5 0.5,-228.5"/>
<text text-anchor="middle" x="54" y="-235.5" font-family="Helvetica,sans-Serif" font-size="10.00">TestParMetis_GPart</text>
</g>
<!-- Node91 -->
<g id="node2" class="node"><title>Node91</title>
<g id="a_node2"><a xlink:href="a00864.html#abcd3804c62bf4464f2c8de37a42e6ef8" target="_top" xlink:title="ParallelReadGraph">
<polygon fill="white" stroke="black" points="342,-456.5 342,-475.5 444,-475.5 444,-456.5 342,-456.5"/>
<text text-anchor="middle" x="393" y="-463.5" font-family="Helvetica,sans-Serif" font-size="10.00">ParallelReadGraph</text>
</a>
</g>
</g>
<!-- Node90&#45;&gt;Node91 -->
<g id="edge1" class="edge"><title>Node90&#45;&gt;Node91</title>
<path fill="none" stroke="midnightblue" d="M57.0101,-247.571C63.6732,-276.807 87.8797,-365.587 144,-409 198.001,-450.774 277.181,-462.884 331.46,-465.922"/>
<polygon fill="midnightblue" stroke="midnightblue" points="331.478,-469.426 341.631,-466.402 331.807,-462.434 331.478,-469.426"/>
</g>
<!-- Node93 -->
<g id="node4" class="node"><title>Node93</title>
<g id="a_node4"><a xlink:href="a00077.html#ac8df62c4e3d0910711a9874f9cc58884" target="_top" xlink:title="gk_free">
<polygon fill="white" stroke="black" points="486,-399.5 486,-418.5 536,-418.5 536,-399.5 486,-399.5"/>
<text text-anchor="middle" x="511" y="-406.5" font-family="Helvetica,sans-Serif" font-size="10.00">gk_free</text>
</a>
</g>
</g>
<!-- Node90&#45;&gt;Node93 -->
<g id="edge22" class="edge"><title>Node90&#45;&gt;Node93</title>
<path fill="none" stroke="midnightblue" d="M66.5416,-247.588C82.7588,-260.522 113.709,-283.287 144,-295 272.665,-344.753 327.963,-282.68 450,-347 469.752,-357.411 486.845,-376.718 497.678,-391.032"/>
<polygon fill="midnightblue" stroke="midnightblue" points="494.879,-393.134 503.582,-399.175 500.546,-389.025 494.879,-393.134"/>
</g>
<!-- Node94 -->
<g id="node5" class="node"><title>Node94</title>
<g id="a_node5"><a xlink:href="a00864.html#a4c1a88b3f492be37fe35e779692fb84c" target="_top" xlink:title="ReadTestCoordinates">
<polygon fill="white" stroke="black" points="336,-494.5 336,-513.5 450,-513.5 450,-494.5 336,-494.5"/>
<text text-anchor="middle" x="393" y="-501.5" font-family="Helvetica,sans-Serif" font-size="10.00">ReadTestCoordinates</text>
</a>
</g>
</g>
<!-- Node90&#45;&gt;Node94 -->
<g id="edge4" class="edge"><title>Node90&#45;&gt;Node94</title>
<path fill="none" stroke="midnightblue" d="M56.0084,-247.817C60.027,-281.602 78.0395,-394.01 144,-449 194.758,-491.316 271.062,-502.938 325.617,-505.3"/>
<polygon fill="midnightblue" stroke="midnightblue" points="325.768,-508.807 335.881,-505.647 326.005,-501.811 325.768,-508.807"/>
</g>
<!-- Node97 -->
<g id="node8" class="node"><title>Node97</title>
<g id="a_node8"><a xlink:href="a00422.html#a82918f9e496dea47e55d3f6b23db0449" target="_top" xlink:title="Mc_AdaptGraph">
<polygon fill="white" stroke="black" points="177.5,-266.5 177.5,-285.5 266.5,-285.5 266.5,-266.5 177.5,-266.5"/>
<text text-anchor="middle" x="222" y="-273.5" font-family="Helvetica,sans-Serif" font-size="10.00">Mc_AdaptGraph</text>
</a>
</g>
</g>
<!-- Node90&#45;&gt;Node97 -->
<g id="edge9" class="edge"><title>Node90&#45;&gt;Node97</title>
<path fill="none" stroke="midnightblue" d="M96.8888,-247.589C118.893,-252.626 146.055,-258.844 169.352,-264.177"/>
<polygon fill="midnightblue" stroke="midnightblue" points="168.884,-267.66 179.412,-266.48 170.446,-260.837 168.884,-267.66"/>
</g>
<!-- Node98 -->
<g id="node9" class="node"><title>Node98</title>
<g id="a_node9"><a xlink:href="a00843.html#af418d1e76eaf4f80116da4caf51bd54e" target="_top" xlink:title="ParMETIS_V3_PartKway">
<polygon fill="white" stroke="black" points="157.5,-228.5 157.5,-247.5 286.5,-247.5 286.5,-228.5 157.5,-228.5"/>
<text text-anchor="middle" x="222" y="-235.5" font-family="Helvetica,sans-Serif" font-size="10.00">ParMETIS_V3_PartKway</text>
</a>
</g>
</g>
<!-- Node90&#45;&gt;Node98 -->
<g id="edge10" class="edge"><title>Node90&#45;&gt;Node98</title>
<path fill="none" stroke="midnightblue" d="M107.523,-238C120.164,-238 133.9,-238 147.307,-238"/>
<polygon fill="midnightblue" stroke="midnightblue" points="147.473,-241.5 157.473,-238 147.473,-234.5 147.473,-241.5"/>
</g>
<!-- Node99 -->
<g id="node10" class="node"><title>Node99</title>
<g id="a_node10"><a xlink:href="a00437.html#a725d56a999dc467b3f7883eea465bab2" target="_top" xlink:title="ComputeRealCut">
<polygon fill="white" stroke="black" points="175.5,-342.5 175.5,-361.5 268.5,-361.5 268.5,-342.5 175.5,-342.5"/>
<text text-anchor="middle" x="222" y="-349.5" font-family="Helvetica,sans-Serif" font-size="10.00">ComputeRealCut</text>
</a>
</g>
</g>
<!-- Node90&#45;&gt;Node99 -->
<g id="edge11" class="edge"><title>Node90&#45;&gt;Node99</title>
<path fill="none" stroke="midnightblue" d="M61.9342,-247.664C75.5815,-265.997 107.768,-305.957 144,-328 151.308,-332.446 159.514,-336.137 167.772,-339.18"/>
<polygon fill="midnightblue" stroke="midnightblue" points="166.845,-342.562 177.44,-342.461 169.095,-335.933 166.845,-342.562"/>
</g>
<!-- Node101 -->
<g id="node12" class="node"><title>Node101</title>
<g id="a_node12"><a xlink:href="a00843.html#ad40a7809c9bdf183926da011220bad75" target="_top" xlink:title="ParMETIS_V3_RefineKway">
<polygon fill="white" stroke="black" points="152.5,-190.5 152.5,-209.5 291.5,-209.5 291.5,-190.5 152.5,-190.5"/>
<text text-anchor="middle" x="222" y="-197.5" font-family="Helvetica,sans-Serif" font-size="10.00">ParMETIS_V3_RefineKway</text>
</a>
</g>
</g>
<!-- Node90&#45;&gt;Node101 -->
<g id="edge16" class="edge"><title>Node90&#45;&gt;Node101</title>
<path fill="none" stroke="midnightblue" d="M96.8888,-228.411C118.893,-223.374 146.055,-217.156 169.352,-211.823"/>
<polygon fill="midnightblue" stroke="midnightblue" points="170.446,-215.163 179.412,-209.52 168.884,-208.34 170.446,-215.163"/>
</g>
<!-- Node102 -->
<g id="node13" class="node"><title>Node102</title>
<g id="a_node13"><a xlink:href="a00843.html#a6df93293cf3d1ccb4659bd1b3091623d" target="_top" xlink:title="ParMETIS_V3_PartGeomKway">
<polygon fill="white" stroke="black" points="144,-152.5 144,-171.5 300,-171.5 300,-152.5 144,-152.5"/>
<text text-anchor="middle" x="222" y="-159.5" font-family="Helvetica,sans-Serif" font-size="10.00">ParMETIS_V3_PartGeomKway</text>
</a>
</g>
</g>
<!-- Node90&#45;&gt;Node102 -->
<g id="edge17" class="edge"><title>Node90&#45;&gt;Node102</title>
<path fill="none" stroke="midnightblue" d="M67.231,-228.299C83.7406,-215.657 114.497,-193.675 144,-181 149.728,-178.539 155.84,-176.354 162.019,-174.425"/>
<polygon fill="midnightblue" stroke="midnightblue" points="163.113,-177.751 171.739,-171.6 161.16,-171.029 163.113,-177.751"/>
</g>
<!-- Node103 -->
<g id="node14" class="node"><title>Node103</title>
<g id="a_node14"><a xlink:href="a00843.html#aab31b6450a3228063206eddded9de65e" target="_top" xlink:title="ParMETIS_V3_PartGeom">
<polygon fill="white" stroke="black" points="156,-114.5 156,-133.5 288,-133.5 288,-114.5 156,-114.5"/>
<text text-anchor="middle" x="222" y="-121.5" font-family="Helvetica,sans-Serif" font-size="10.00">ParMETIS_V3_PartGeom</text>
</a>
</g>
</g>
<!-- Node90&#45;&gt;Node103 -->
<g id="edge18" class="edge"><title>Node90&#45;&gt;Node103</title>
<path fill="none" stroke="midnightblue" d="M61.0766,-228.481C73.9142,-209.183 105.78,-165.392 144,-143 147.846,-140.747 151.951,-138.759 156.188,-137.007"/>
<polygon fill="midnightblue" stroke="midnightblue" points="157.448,-140.272 165.624,-133.533 155.03,-133.703 157.448,-140.272"/>
</g>
<!-- Node104 -->
<g id="node15" class="node"><title>Node104</title>
<g id="a_node15"><a xlink:href="a00437.html#a136ad3b21ef4f877c3100a997814e8ce" target="_top" xlink:title="TestMoveGraph">
<polygon fill="white" stroke="black" points="178,-76.5 178,-95.5 266,-95.5 266,-76.5 178,-76.5"/>
<text text-anchor="middle" x="222" y="-83.5" font-family="Helvetica,sans-Serif" font-size="10.00">TestMoveGraph</text>
</a>
</g>
</g>
<!-- Node90&#45;&gt;Node104 -->
<g id="edge19" class="edge"><title>Node90&#45;&gt;Node104</title>
<path fill="none" stroke="midnightblue" d="M58.6368,-228.161C68.3476,-203.314 97.3652,-137.698 144,-105 151.208,-99.946 159.619,-96.2313 168.182,-93.5022"/>
<polygon fill="midnightblue" stroke="midnightblue" points="169.156,-96.8642 177.859,-90.821 167.287,-90.1184 169.156,-96.8642"/>
</g>
<!-- Node107 -->
<g id="node18" class="node"><title>Node107</title>
<g id="a_node18"><a xlink:href="a00437.html#a8003a74d9258bf251cc16e3b964c4b69" target="_top" xlink:title="ComputeRealCutFromMoved">
<polygon fill="white" stroke="black" points="148.5,-380.5 148.5,-399.5 295.5,-399.5 295.5,-380.5 148.5,-380.5"/>
<text text-anchor="middle" x="222" y="-387.5" font-family="Helvetica,sans-Serif" font-size="10.00">ComputeRealCutFromMoved</text>
</a>
</g>
</g>
<!-- Node90&#45;&gt;Node107 -->
<g id="edge23" class="edge"><title>Node90&#45;&gt;Node107</title>
<path fill="none" stroke="midnightblue" d="M58.6368,-247.839C68.3476,-272.686 97.3652,-338.302 144,-371 146.848,-372.997 149.885,-374.785 153.044,-376.386"/>
<polygon fill="midnightblue" stroke="midnightblue" points="151.656,-379.599 162.219,-380.419 154.473,-373.191 151.656,-379.599"/>
</g>
<!-- Node108 -->
<g id="node19" class="node"><title>Node108</title>
<g id="a_node19"><a xlink:href="a00422.html#abe7cfd52605c309687e45b1d1e0d936c" target="_top" xlink:title="AdaptGraph">
<polygon fill="white" stroke="black" points="187,-38.5 187,-57.5 257,-57.5 257,-38.5 187,-38.5"/>
<text text-anchor="middle" x="222" y="-45.5" font-family="Helvetica,sans-Serif" font-size="10.00">AdaptGraph</text>
</a>
</g>
</g>
<!-- Node90&#45;&gt;Node108 -->
<g id="edge26" class="edge"><title>Node90&#45;&gt;Node108</title>
<path fill="none" stroke="midnightblue" d="M57.0411,-228.469C63.7933,-199.347 88.2289,-110.86 144,-67 153.375,-59.6268 165.223,-55.068 176.795,-52.2631"/>
<polygon fill="midnightblue" stroke="midnightblue" points="177.723,-55.646 186.825,-50.2231 176.328,-48.7865 177.723,-55.646"/>
</g>
<!-- Node109 -->
<g id="node20" class="node"><title>Node109</title>
<g id="a_node20"><a xlink:href="a00843.html#ac00c3da2cf618cbfa9158463a851491e" target="_top" xlink:title="ParMETIS_V3_AdaptiveRepart">
<polygon fill="white" stroke="black" points="144.5,-0.5 144.5,-19.5 299.5,-19.5 299.5,-0.5 144.5,-0.5"/>
<text text-anchor="middle" x="222" y="-7.5" font-family="Helvetica,sans-Serif" font-size="10.00">ParMETIS_V3_AdaptiveRepart</text>
</a>
</g>
</g>
<!-- Node90&#45;&gt;Node109 -->
<g id="edge27" class="edge"><title>Node90&#45;&gt;Node109</title>
<path fill="none" stroke="midnightblue" d="M56.088,-228.33C60.3664,-195.042 79.1257,-84.2074 144,-29 145.973,-27.3213 148.071,-25.7867 150.267,-24.384"/>
<polygon fill="midnightblue" stroke="midnightblue" points="152.004,-27.4236 159.152,-19.6029 148.687,-21.2593 152.004,-27.4236"/>
</g>
<!-- Node92 -->
<g id="node3" class="node"><title>Node92</title>
<g id="a_node3"><a xlink:href="a01017.html#a355ed4cdac2a27aa04a6689ac2d7e86e" target="_top" xlink:title="fclose">
<polygon fill="white" stroke="black" points="489.5,-456.5 489.5,-475.5 532.5,-475.5 532.5,-456.5 489.5,-456.5"/>
<text text-anchor="middle" x="511" y="-463.5" font-family="Helvetica,sans-Serif" font-size="10.00">fclose</text>
</a>
</g>
</g>
<!-- Node91&#45;&gt;Node92 -->
<g id="edge2" class="edge"><title>Node91&#45;&gt;Node92</title>
<path fill="none" stroke="midnightblue" d="M444.205,-466C456.145,-466 468.534,-466 479.298,-466"/>
<polygon fill="midnightblue" stroke="midnightblue" points="479.443,-469.5 489.443,-466 479.443,-462.5 479.443,-469.5"/>
</g>
<!-- Node91&#45;&gt;Node93 -->
<g id="edge3" class="edge"><title>Node91&#45;&gt;Node93</title>
<path fill="none" stroke="midnightblue" d="M417.663,-456.463C427.733,-452.25 439.543,-447.101 450,-442 461.652,-436.316 474.265,-429.486 484.906,-423.518"/>
<polygon fill="midnightblue" stroke="midnightblue" points="486.702,-426.523 493.675,-418.546 483.25,-420.433 486.702,-426.523"/>
</g>
<!-- Node94&#45;&gt;Node92 -->
<g id="edge7" class="edge"><title>Node94&#45;&gt;Node92</title>
<path fill="none" stroke="midnightblue" d="M423.272,-494.411C440.44,-488.787 462.101,-481.691 479.481,-475.998"/>
<polygon fill="midnightblue" stroke="midnightblue" points="480.739,-479.269 489.153,-472.829 478.56,-472.616 480.739,-479.269"/>
</g>
<!-- Node94&#45;&gt;Node93 -->
<g id="edge8" class="edge"><title>Node94&#45;&gt;Node93</title>
<path fill="none" stroke="midnightblue" d="M431.899,-494.481C438.255,-491.969 444.549,-488.849 450,-485 461.551,-476.844 483.832,-446.586 497.752,-426.797"/>
<polygon fill="midnightblue" stroke="midnightblue" points="500.647,-428.765 503.491,-418.559 494.903,-424.764 500.647,-428.765"/>
</g>
<!-- Node95 -->
<g id="node6" class="node"><title>Node95</title>
<g id="a_node6"><a xlink:href="a00026.html#a56d0f2cc40cd8633a784582d6200d8b5" target="_top" xlink:title="errexit">
<polygon fill="white" stroke="black" points="489,-494.5 489,-513.5 533,-513.5 533,-494.5 489,-494.5"/>
<text text-anchor="middle" x="511" y="-501.5" font-family="Helvetica,sans-Serif" font-size="10.00">errexit</text>
</a>
</g>
</g>
<!-- Node94&#45;&gt;Node95 -->
<g id="edge5" class="edge"><title>Node94&#45;&gt;Node95</title>
<path fill="none" stroke="midnightblue" d="M450.301,-504C460.068,-504 469.9,-504 478.686,-504"/>
<polygon fill="midnightblue" stroke="midnightblue" points="478.811,-507.5 488.811,-504 478.811,-500.5 478.811,-507.5"/>
</g>
<!-- Node96 -->
<g id="node7" class="node"><title>Node96</title>
<g id="a_node7"><a xlink:href="a01017.html#a2e311a777ffe9c80e405efa7cd2757be" target="_top" xlink:title="fprintf">
<polygon fill="white" stroke="black" points="572,-494.5 572,-513.5 614,-513.5 614,-494.5 572,-494.5"/>
<text text-anchor="middle" x="593" y="-501.5" font-family="Helvetica,sans-Serif" font-size="10.00">fprintf</text>
</a>
</g>
</g>
<!-- Node95&#45;&gt;Node96 -->
<g id="edge6" class="edge"><title>Node95&#45;&gt;Node96</title>
<path fill="none" stroke="midnightblue" d="M533.019,-504C541.858,-504 552.308,-504 561.937,-504"/>
<polygon fill="midnightblue" stroke="midnightblue" points="561.948,-507.5 571.948,-504 561.948,-500.5 561.948,-507.5"/>
</g>
<!-- Node99&#45;&gt;Node93 -->
<g id="edge15" class="edge"><title>Node99&#45;&gt;Node93</title>
<path fill="none" stroke="midnightblue" d="M268.644,-349.532C315.419,-348.439 389.642,-350.727 450,-371 464.572,-375.894 479.181,-385.034 490.335,-393.123"/>
<polygon fill="midnightblue" stroke="midnightblue" points="488.387,-396.039 498.473,-399.284 492.613,-390.458 488.387,-396.039"/>
</g>
<!-- Node100 -->
<g id="node11" class="node"><title>Node100</title>
<g id="a_node11"><a xlink:href="a00864.html#a4ff02bbc05033b431cc3b60bc2f2a1a4" target="_top" xlink:title="ReadMetisGraph">
<polygon fill="white" stroke="black" points="347,-380.5 347,-399.5 439,-399.5 439,-380.5 347,-380.5"/>
<text text-anchor="middle" x="393" y="-387.5" font-family="Helvetica,sans-Serif" font-size="10.00">ReadMetisGraph</text>
</a>
</g>
</g>
<!-- Node99&#45;&gt;Node100 -->
<g id="edge12" class="edge"><title>Node99&#45;&gt;Node100</title>
<path fill="none" stroke="midnightblue" d="M265.646,-361.589C288.148,-366.649 315.948,-372.9 339.738,-378.249"/>
<polygon fill="midnightblue" stroke="midnightblue" points="339.137,-381.701 349.661,-380.48 340.672,-374.871 339.137,-381.701"/>
</g>
<!-- Node100&#45;&gt;Node92 -->
<g id="edge13" class="edge"><title>Node100&#45;&gt;Node92</title>
<path fill="none" stroke="midnightblue" d="M408.691,-399.625C428.39,-412.531 463.572,-435.582 486.851,-450.833"/>
<polygon fill="midnightblue" stroke="midnightblue" points="485.145,-453.9 495.428,-456.453 488.981,-448.045 485.145,-453.9"/>
</g>
<!-- Node100&#45;&gt;Node93 -->
<g id="edge14" class="edge"><title>Node100&#45;&gt;Node93</title>
<path fill="none" stroke="midnightblue" d="M439.181,-397.4C451.357,-399.395 464.327,-401.519 475.795,-403.397"/>
<polygon fill="midnightblue" stroke="midnightblue" points="475.405,-406.88 485.839,-405.043 476.536,-399.972 475.405,-406.88"/>
</g>
<!-- Node105 -->
<g id="node16" class="node"><title>Node105</title>
<g id="a_node16"><a xlink:href="a00428.html#ac5472d28ea064341acff9be6744eea92" target="_top" xlink:title="SetUpGraph">
<polygon fill="white" stroke="black" points="357,-95.5 357,-114.5 429,-114.5 429,-95.5 357,-95.5"/>
<text text-anchor="middle" x="393" y="-102.5" font-family="Helvetica,sans-Serif" font-size="10.00">SetUpGraph</text>
</a>
</g>
</g>
<!-- Node104&#45;&gt;Node105 -->
<g id="edge20" class="edge"><title>Node104&#45;&gt;Node105</title>
<path fill="none" stroke="midnightblue" d="M266.083,-90.8437C290.837,-93.6267 321.891,-97.118 346.966,-99.937"/>
<polygon fill="midnightblue" stroke="midnightblue" points="346.629,-103.421 356.957,-101.06 347.411,-96.4649 346.629,-103.421"/>
</g>
<!-- Node106 -->
<g id="node17" class="node"><title>Node106</title>
<g id="a_node17"><a xlink:href="a00437.html#aff9e935a0b03f0424e9c241573bb437b" target="_top" xlink:title="TestSetUpGraph">
<polygon fill="white" stroke="black" points="347,-57.5 347,-76.5 439,-76.5 439,-57.5 347,-57.5"/>
<text text-anchor="middle" x="393" y="-64.5" font-family="Helvetica,sans-Serif" font-size="10.00">TestSetUpGraph</text>
</a>
</g>
</g>
<!-- Node104&#45;&gt;Node106 -->
<g id="edge21" class="edge"><title>Node104&#45;&gt;Node106</title>
<path fill="none" stroke="midnightblue" d="M266.083,-81.1563C287.636,-78.7333 313.964,-75.7733 336.963,-73.1876"/>
<polygon fill="midnightblue" stroke="midnightblue" points="337.382,-76.6626 346.929,-72.0672 336.6,-69.7064 337.382,-76.6626"/>
</g>
<!-- Node107&#45;&gt;Node93 -->
<g id="edge25" class="edge"><title>Node107&#45;&gt;Node93</title>
<path fill="none" stroke="midnightblue" d="M268.963,-399.512C289.392,-403.278 313.797,-407.146 336,-409 384.288,-413.031 440.377,-412.011 475.533,-410.686"/>
<polygon fill="midnightblue" stroke="midnightblue" points="475.89,-414.175 485.739,-410.271 475.605,-407.181 475.89,-414.175"/>
</g>
<!-- Node107&#45;&gt;Node100 -->
<g id="edge24" class="edge"><title>Node107&#45;&gt;Node100</title>
<path fill="none" stroke="midnightblue" d="M295.652,-390C309.347,-390 323.465,-390 336.529,-390"/>
<polygon fill="midnightblue" stroke="midnightblue" points="336.753,-393.5 346.753,-390 336.753,-386.5 336.753,-393.5"/>
</g>
</g>
</svg>
