<?xml version="1.0" encoding="UTF-8" standalone="no"?>
<!DOCTYPE svg PUBLIC "-//W3C//DTD SVG 1.1//EN"
 "http://www.w3.org/Graphics/SVG/1.1/DTD/svg11.dtd">
<!-- Generated by graphviz version 2.36.0 (20140111.2315)
 -->
<!-- Title: SetupCoarseGraph Pages: 1 -->
<!--zoomable 112 -->
<svg id="main" version="1.1" xmlns="http://www.w3.org/2000/svg" xmlns:xlink="http://www.w3.org/1999/xlink" xml:space="preserve" onload="init(evt)">
<style type="text/css"><![CDATA[
.edge:hover path { stroke: red; }
.edge:hover polygon { stroke: red; fill: red; }
]]></style>
<script type="text/javascript"><![CDATA[
var edges = document.getElementsByTagName('g');
if (edges && edges.length) {
  for (var i=0;i<edges.length;i++) {
    if (edges[i].id.substr(0,4)=='edge') {
      edges[i].setAttribute('class','edge');
    }
  }
}
]]></script>
        <defs>
                <circle id="rim" cx="0" cy="0" r="7"/>
                <circle id="rim2" cx="0" cy="0" r="3.5"/>
                <g id="zoomPlus">
                        <use xlink:href="#rim" fill="#404040">
                                <set attributeName="fill" to="#808080" begin="zoomplus.mouseover" end="zoomplus.mouseout"/>
                        </use>
                        <path d="M-4,0h8M0,-4v8" fill="none" stroke="white" stroke-width="1.5" pointer-events="none"/>
                </g>
                <g id="zoomMin">
                        <use xlink:href="#rim" fill="#404040">
                                <set attributeName="fill" to="#808080" begin="zoomminus.mouseover" end="zoomminus.mouseout"/>
                        </use>
                        <path d="M-4,0h8" fill="none" stroke="white" stroke-width="1.5" pointer-events="none"/>
                </g>
                <g id="dirArrow">
                        <path fill="none" stroke="white" stroke-width="1.5" d="M0,-3.0v7 M-2.5,-0.5L0,-3.0L2.5,-0.5"/>
                </g>
               <g id="resetDef">
                       <use xlink:href="#rim2" fill="#404040">
                               <set attributeName="fill" to="#808080" begin="reset.mouseover" end="reset.mouseout"/>
                       </use>
               </g>
        </defs>

<script type="text/javascript">
var viewWidth = 1416;
var viewHeight = 112;
var sectionId = 'dynsection-151';
</script>
<script xlink:href="svgpan.js"/>
<svg id="graph" class="graph">
<g id="viewport">
<title>SetupCoarseGraph</title>
<polygon fill="white" stroke="none" points="-4,4 -4,-108 1412,-108 1412,4 -4,4"/>
<!-- Node922 -->
<g id="node1" class="node"><title>Node922</title>
<polygon fill="#bfbfbf" stroke="black" points="0.5,-38.5 0.5,-57.5 103.5,-57.5 103.5,-38.5 0.5,-38.5"/>
<text text-anchor="middle" x="52" y="-45.5" font-family="Helvetica,sans-Serif" font-size="10.00">SetupCoarseGraph</text>
</g>
<!-- Node923 -->
<g id="node2" class="node"><title>Node923</title>
<g id="a_node2"><a xlink:href="a00948.html#aac8820421b1c25698140c1b470c50e07" target="_top" xlink:title="CreateCoarseGraph">
<polygon fill="white" stroke="black" points="320.5,-57.5 320.5,-76.5 427.5,-76.5 427.5,-57.5 320.5,-57.5"/>
<text text-anchor="middle" x="374" y="-64.5" font-family="Helvetica,sans-Serif" font-size="10.00">CreateCoarseGraph</text>
</a>
</g>
</g>
<!-- Node922&#45;&gt;Node923 -->
<g id="edge1" class="edge"><title>Node922&#45;&gt;Node923</title>
<path fill="none" stroke="midnightblue" d="M113.751,-51.6071C173.468,-55.1528 263.673,-60.5087 320.405,-63.8772"/>
<polygon fill="midnightblue" stroke="midnightblue" points="113.895,-48.1096 103.705,-51.0106 113.48,-55.0973 113.895,-48.1096"/>
</g>
<!-- Node934 -->
<g id="node13" class="node"><title>Node934</title>
<g id="a_node13"><a xlink:href="a00948.html#a70dc59d4c7190507e7ad9a4cc0d80707" target="_top" xlink:title="CreateCoarseGraphNoMask">
<polygon fill="white" stroke="black" points="140.5,-76.5 140.5,-95.5 283.5,-95.5 283.5,-76.5 140.5,-76.5"/>
<text text-anchor="middle" x="212" y="-83.5" font-family="Helvetica,sans-Serif" font-size="10.00">CreateCoarseGraphNoMask</text>
</a>
</g>
</g>
<!-- Node922&#45;&gt;Node934 -->
<g id="edge17" class="edge"><title>Node922&#45;&gt;Node934</title>
<path fill="none" stroke="midnightblue" d="M102.762,-59.968C124.903,-65.2931 150.612,-71.4762 171.417,-76.4799"/>
<polygon fill="midnightblue" stroke="midnightblue" points="103.411,-56.5245 92.8701,-57.589 101.774,-63.3304 103.411,-56.5245"/>
</g>
<!-- Node935 -->
<g id="node14" class="node"><title>Node935</title>
<g id="a_node14"><a xlink:href="a00948.html#a0aba484ba693edd6d56426d04bd7fd4b" target="_top" xlink:title="CreateCoarseGraphPerm">
<polygon fill="white" stroke="black" points="147,-0.5 147,-19.5 277,-19.5 277,-0.5 147,-0.5"/>
<text text-anchor="middle" x="212" y="-7.5" font-family="Helvetica,sans-Serif" font-size="10.00">CreateCoarseGraphPerm</text>
</a>
</g>
</g>
<!-- Node922&#45;&gt;Node935 -->
<g id="edge19" class="edge"><title>Node922&#45;&gt;Node935</title>
<path fill="none" stroke="midnightblue" d="M102.762,-36.032C124.903,-30.7069 150.612,-24.5238 171.417,-19.5201"/>
<polygon fill="midnightblue" stroke="midnightblue" points="101.774,-32.6696 92.8701,-38.411 103.411,-39.4755 101.774,-32.6696"/>
</g>
<!-- Node924 -->
<g id="node3" class="node"><title>Node924</title>
<g id="a_node3"><a xlink:href="a00948.html#a892d2ea16d613abc2276ad5fc6999724" target="_top" xlink:title="Match_RM">
<polygon fill="white" stroke="black" points="470.5,-76.5 470.5,-95.5 535.5,-95.5 535.5,-76.5 470.5,-76.5"/>
<text text-anchor="middle" x="503" y="-83.5" font-family="Helvetica,sans-Serif" font-size="10.00">Match_RM</text>
</a>
</g>
</g>
<!-- Node923&#45;&gt;Node924 -->
<g id="edge2" class="edge"><title>Node923&#45;&gt;Node924</title>
<path fill="none" stroke="midnightblue" d="M437.658,-76.374C448.977,-78.0674 460.331,-79.7661 470.283,-81.2549"/>
<polygon fill="midnightblue" stroke="midnightblue" points="438.164,-72.9109 427.756,-74.8926 437.128,-79.8338 438.164,-72.9109"/>
</g>
<!-- Node933 -->
<g id="node12" class="node"><title>Node933</title>
<g id="a_node12"><a xlink:href="a00948.html#af3ec72f3170ccdca06d8ad018d86cc58" target="_top" xlink:title="Match_SHEM">
<polygon fill="white" stroke="black" points="464,-38.5 464,-57.5 542,-57.5 542,-38.5 464,-38.5"/>
<text text-anchor="middle" x="503" y="-45.5" font-family="Helvetica,sans-Serif" font-size="10.00">Match_SHEM</text>
</a>
</g>
</g>
<!-- Node923&#45;&gt;Node933 -->
<g id="edge14" class="edge"><title>Node923&#45;&gt;Node933</title>
<path fill="none" stroke="midnightblue" d="M437.79,-57.6062C446.718,-56.2705 455.665,-54.932 463.924,-53.6964"/>
<polygon fill="midnightblue" stroke="midnightblue" points="437.128,-54.1662 427.756,-59.1074 438.164,-61.0891 437.128,-54.1662"/>
</g>
<!-- Node925 -->
<g id="node4" class="node"><title>Node925</title>
<g id="a_node4"><a xlink:href="a00948.html#adeb2c7c9bffbeca00fcc97854fb88ada" target="_top" xlink:title="CoarsenGraph">
<polygon fill="white" stroke="black" points="595,-76.5 595,-95.5 677,-95.5 677,-76.5 595,-76.5"/>
<text text-anchor="middle" x="636" y="-83.5" font-family="Helvetica,sans-Serif" font-size="10.00">CoarsenGraph</text>
</a>
</g>
</g>
<!-- Node924&#45;&gt;Node925 -->
<g id="edge3" class="edge"><title>Node924&#45;&gt;Node925</title>
<path fill="none" stroke="midnightblue" d="M546.106,-86C561.662,-86 579.246,-86 594.644,-86"/>
<polygon fill="midnightblue" stroke="midnightblue" points="545.711,-82.5001 535.711,-86 545.711,-89.5001 545.711,-82.5001"/>
</g>
<!-- Node926 -->
<g id="node5" class="node"><title>Node926</title>
<g id="a_node5"><a xlink:href="a00948.html#afa83320e3b311e0feef90d0bf4303716" target="_top" xlink:title="CoarsenGraphNlevels">
<polygon fill="white" stroke="black" points="578.5,-38.5 578.5,-57.5 693.5,-57.5 693.5,-38.5 578.5,-38.5"/>
<text text-anchor="middle" x="636" y="-45.5" font-family="Helvetica,sans-Serif" font-size="10.00">CoarsenGraphNlevels</text>
</a>
</g>
</g>
<!-- Node924&#45;&gt;Node926 -->
<g id="edge4" class="edge"><title>Node924&#45;&gt;Node926</title>
<path fill="none" stroke="midnightblue" d="M545.539,-73.9505C563.844,-68.6406 585.045,-62.4907 602.213,-57.5109"/>
<polygon fill="midnightblue" stroke="midnightblue" points="544.34,-70.6538 535.711,-76.8013 546.291,-77.3767 544.34,-70.6538"/>
</g>
<!-- Node927 -->
<g id="node6" class="node"><title>Node927</title>
<g id="a_node6"><a xlink:href="a00948.html#ac3a0eaeefa34a3865a0be5bb70bd958f" target="_top" xlink:title="MlevelNodeBisectionL2">
<polygon fill="white" stroke="black" points="730.5,-38.5 730.5,-57.5 851.5,-57.5 851.5,-38.5 730.5,-38.5"/>
<text text-anchor="middle" x="791" y="-45.5" font-family="Helvetica,sans-Serif" font-size="10.00">MlevelNodeBisectionL2</text>
</a>
</g>
</g>
<!-- Node926&#45;&gt;Node927 -->
<g id="edge5" class="edge"><title>Node926&#45;&gt;Node927</title>
<path fill="none" stroke="midnightblue" d="M703.802,-48C712.641,-48 721.654,-48 730.361,-48"/>
<polygon fill="midnightblue" stroke="midnightblue" points="703.537,-44.5001 693.537,-48 703.537,-51.5001 703.537,-44.5001"/>
</g>
<!-- Node928 -->
<g id="node7" class="node"><title>Node928</title>
<g id="a_node7"><a xlink:href="a00948.html#a59c8030c5429e219a8535c2a11cef724" target="_top" xlink:title="MlevelNodeBisectionMultiple">
<polygon fill="white" stroke="black" points="888,-38.5 888,-57.5 1032,-57.5 1032,-38.5 888,-38.5"/>
<text text-anchor="middle" x="960" y="-45.5" font-family="Helvetica,sans-Serif" font-size="10.00">MlevelNodeBisectionMultiple</text>
</a>
</g>
</g>
<!-- Node927&#45;&gt;Node928 -->
<g id="edge6" class="edge"><title>Node927&#45;&gt;Node928</title>
<path fill="none" stroke="midnightblue" d="M861.828,-48C870.451,-48 879.275,-48 887.917,-48"/>
<polygon fill="midnightblue" stroke="midnightblue" points="861.819,-44.5001 851.819,-48 861.819,-51.5001 861.819,-44.5001"/>
</g>
<!-- Node929 -->
<g id="node8" class="node"><title>Node929</title>
<g id="a_node8"><a xlink:href="a00948.html#af853e9d8bbb2188f871fac436e631ed1" target="_top" xlink:title="MlevelNestedDissection">
<polygon fill="white" stroke="black" points="1075.5,-66.5 1075.5,-85.5 1198.5,-85.5 1198.5,-66.5 1075.5,-66.5"/>
<text text-anchor="middle" x="1137" y="-73.5" font-family="Helvetica,sans-Serif" font-size="10.00">MlevelNestedDissection</text>
</a>
</g>
</g>
<!-- Node928&#45;&gt;Node929 -->
<g id="edge7" class="edge"><title>Node928&#45;&gt;Node929</title>
<path fill="none" stroke="midnightblue" d="M1031.03,-59.2054C1046.11,-61.6175 1061.91,-64.1449 1076.53,-66.4854"/>
<polygon fill="midnightblue" stroke="midnightblue" points="1031.16,-55.6816 1020.74,-57.5577 1030.06,-62.5937 1031.16,-55.6816"/>
</g>
<!-- Node932 -->
<g id="node11" class="node"><title>Node932</title>
<g id="a_node11"><a xlink:href="a00948.html#a3ef15d1ffff55a81b8486bee09239073" target="_top" xlink:title="MlevelNestedDissectionCC">
<polygon fill="white" stroke="black" points="1068,-10.5 1068,-29.5 1206,-29.5 1206,-10.5 1068,-10.5"/>
<text text-anchor="middle" x="1137" y="-17.5" font-family="Helvetica,sans-Serif" font-size="10.00">MlevelNestedDissectionCC</text>
</a>
</g>
</g>
<!-- Node928&#45;&gt;Node932 -->
<g id="edge11" class="edge"><title>Node928&#45;&gt;Node932</title>
<path fill="none" stroke="midnightblue" d="M1031.03,-36.7946C1046.11,-34.3825 1061.91,-31.8551 1076.53,-29.5146"/>
<polygon fill="midnightblue" stroke="midnightblue" points="1030.06,-33.4063 1020.74,-38.4423 1031.16,-40.3184 1030.06,-33.4063"/>
</g>
<!-- Node929&#45;&gt;Node929 -->
<g id="edge10" class="edge"><title>Node929&#45;&gt;Node929</title>
<path fill="none" stroke="midnightblue" d="M1109,-94.6539C1110.17,-99.9368 1119.5,-104 1137,-104 1163.66,-104 1171.37,-94.5653 1160.12,-85.7571"/>
<polygon fill="midnightblue" stroke="midnightblue" points="1112.14,-96.208 1113.88,-85.7571 1106,-92.8417 1112.14,-96.208"/>
</g>
<!-- Node930 -->
<g id="node9" class="node"><title>Node930</title>
<g id="a_node9"><a xlink:href="a00936.html#a8304f0dd6d180587f73b0b70de3b01b7" target="_top" xlink:title="METIS_NodeND">
<polygon fill="white" stroke="black" points="1242.5,-38.5 1242.5,-57.5 1333.5,-57.5 1333.5,-38.5 1242.5,-38.5"/>
<text text-anchor="middle" x="1288" y="-45.5" font-family="Helvetica,sans-Serif" font-size="10.00">METIS_NodeND</text>
</a>
</g>
</g>
<!-- Node929&#45;&gt;Node930 -->
<g id="edge8" class="edge"><title>Node929&#45;&gt;Node930</title>
<path fill="none" stroke="midnightblue" d="M1198.8,-64.574C1213.37,-61.8363 1228.66,-58.9625 1242.35,-56.3911"/>
<polygon fill="midnightblue" stroke="midnightblue" points="1198.04,-61.1556 1188.86,-66.4423 1199.34,-68.0351 1198.04,-61.1556"/>
</g>
<!-- Node931 -->
<g id="node10" class="node"><title>Node931</title>
<g id="a_node10"><a xlink:href="a00326.html#a0ddf1224851353fc92bfbff6f499fa97" target="_top" xlink:title="main">
<polygon fill="white" stroke="black" points="1370,-38.5 1370,-57.5 1408,-57.5 1408,-38.5 1370,-38.5"/>
<text text-anchor="middle" x="1389" y="-45.5" font-family="Helvetica,sans-Serif" font-size="10.00">main</text>
</a>
</g>
</g>
<!-- Node930&#45;&gt;Node931 -->
<g id="edge9" class="edge"><title>Node930&#45;&gt;Node931</title>
<path fill="none" stroke="midnightblue" d="M1343.75,-48C1353.09,-48 1362.18,-48 1369.67,-48"/>
<polygon fill="midnightblue" stroke="midnightblue" points="1343.58,-44.5001 1333.58,-48 1343.58,-51.5001 1343.58,-44.5001"/>
</g>
<!-- Node932&#45;&gt;Node930 -->
<g id="edge12" class="edge"><title>Node932&#45;&gt;Node930</title>
<path fill="none" stroke="midnightblue" d="M1198.8,-31.426C1213.37,-34.1637 1228.66,-37.0375 1242.35,-39.6089"/>
<polygon fill="midnightblue" stroke="midnightblue" points="1199.34,-27.9649 1188.86,-29.5577 1198.04,-34.8444 1199.34,-27.9649"/>
</g>
<!-- Node932&#45;&gt;Node932 -->
<g id="edge13" class="edge"><title>Node932&#45;&gt;Node932</title>
<path fill="none" stroke="midnightblue" d="M1109,-38.6539C1110.17,-43.9368 1119.5,-48 1137,-48 1163.66,-48 1171.37,-38.5653 1160.12,-29.7571"/>
<polygon fill="midnightblue" stroke="midnightblue" points="1112.14,-40.208 1113.88,-29.7571 1106,-36.8417 1112.14,-40.208"/>
</g>
<!-- Node933&#45;&gt;Node925 -->
<g id="edge15" class="edge"><title>Node933&#45;&gt;Node925</title>
<path fill="none" stroke="midnightblue" d="M546.715,-60.3906C564.655,-65.5945 585.2,-71.5541 601.954,-76.4141"/>
<polygon fill="midnightblue" stroke="midnightblue" points="547.636,-57.0136 537.057,-57.589 545.686,-63.7364 547.636,-57.0136"/>
</g>
<!-- Node933&#45;&gt;Node926 -->
<g id="edge16" class="edge"><title>Node933&#45;&gt;Node926</title>
<path fill="none" stroke="midnightblue" d="M552.356,-48C560.85,-48 569.757,-48 578.451,-48"/>
<polygon fill="midnightblue" stroke="midnightblue" points="552.243,-44.5001 542.243,-48 552.243,-51.5001 552.243,-44.5001"/>
</g>
<!-- Node934&#45;&gt;Node923 -->
<g id="edge18" class="edge"><title>Node934&#45;&gt;Node923</title>
<path fill="none" stroke="midnightblue" d="M293.713,-76.4154C302.647,-75.3544 311.57,-74.2948 320.035,-73.2896"/>
<polygon fill="midnightblue" stroke="midnightblue" points="293.162,-72.9561 283.644,-77.611 293.987,-79.9073 293.162,-72.9561"/>
</g>
</g>
</svg>
        <g id="navigator" transform="translate(0 0)" fill="#404254">
                <rect fill="#f2f5e9" fill-opacity="0.5" stroke="#606060" stroke-width=".5" x="0" y="0" width="60" height="60"/>
                <use id="zoomplus" xlink:href="#zoomPlus" x="17" y="9" onmousedown="handleZoom(evt,'in')"/>
                <use id="zoomminus" xlink:href="#zoomMin" x="42" y="9" onmousedown="handleZoom(evt,'out')"/>
                <use id="reset" xlink:href="#resetDef" x="30" y="36" onmousedown="handleReset()"/>
                <g id="arrowUp" xlink:href="#dirArrow" transform="translate(30 24)" onmousedown="handlePan(0,-1)">
                  <use xlink:href="#rim" fill="#404040">
                        <set attributeName="fill" to="#808080" begin="arrowUp.mouseover" end="arrowUp.mouseout"/>
                  </use>
                  <path fill="none" stroke="white" stroke-width="1.5" d="M0,-3.0v7 M-2.5,-0.5L0,-3.0L2.5,-0.5"/>
                </g>
                <g id="arrowRight" xlink:href="#dirArrow" transform="rotate(90) translate(36 -43)" onmousedown="handlePan(1,0)">
                  <use xlink:href="#rim" fill="#404040">
                        <set attributeName="fill" to="#808080" begin="arrowRight.mouseover" end="arrowRight.mouseout"/>
                  </use>
                  <path fill="none" stroke="white" stroke-width="1.5" d="M0,-3.0v7 M-2.5,-0.5L0,-3.0L2.5,-0.5"/>
                </g>
                <g id="arrowDown" xlink:href="#dirArrow" transform="rotate(180) translate(-30 -48)" onmousedown="handlePan(0,1)">
                  <use xlink:href="#rim" fill="#404040">
                        <set attributeName="fill" to="#808080" begin="arrowDown.mouseover" end="arrowDown.mouseout"/>
                  </use>
                  <path fill="none" stroke="white" stroke-width="1.5" d="M0,-3.0v7 M-2.5,-0.5L0,-3.0L2.5,-0.5"/>
                </g>
                <g id="arrowLeft" xlink:href="#dirArrow" transform="rotate(270) translate(-36 17)" onmousedown="handlePan(-1,0)">
                  <use xlink:href="#rim" fill="#404040">
                        <set attributeName="fill" to="#808080" begin="arrowLeft.mouseover" end="arrowLeft.mouseout"/>
                  </use>
                  <path fill="none" stroke="white" stroke-width="1.5" d="M0,-3.0v7 M-2.5,-0.5L0,-3.0L2.5,-0.5"/>
                </g>
        </g>
        <svg viewBox="0 0 15 15" width="100%" height="30px" preserveAspectRatio="xMaxYMin meet">
         <g id="arrow_out" transform="scale(0.3 0.3)">
          <a xlink:href="a00948_a113522304bf628b09d0b69b4db05050e_icgraph_org.svg" target="_base">
           <rect id="button" ry="5" rx="5" y="6" x="6" height="38" width="38"
                fill="#f2f5e9" fill-opacity="0.5" stroke="#606060" stroke-width="1.0"/>
           <path id="arrow"
             d="M 11.500037,31.436501 C 11.940474,20.09759 22.043105,11.32322 32.158766,21.979434 L 37.068811,17.246167 C 37.068811,17.246167 37.088388,32 37.088388,32 L 22.160133,31.978069 C 22.160133,31.978069 26.997745,27.140456 26.997745,27.140456 C 18.528582,18.264221 13.291696,25.230495 11.500037,31.436501 z"
             style="fill:#404040;"/>
          </a>
         </g>
        </svg>
</svg>
