<?xml version="1.0" encoding="UTF-8" standalone="no"?>
<!DOCTYPE svg PUBLIC "-//W3C//DTD SVG 1.1//EN"
 "http://www.w3.org/Graphics/SVG/1.1/DTD/svg11.dtd">
<!-- Generated by graphviz version 2.36.0 (20140111.2315)
 -->
<!-- Title: METIS_NodeNDP Pages: 1 -->
<svg width="272pt" height="84pt"
 viewBox="0.00 0.00 272.00 84.00" xmlns="http://www.w3.org/2000/svg" xmlns:xlink="http://www.w3.org/1999/xlink">
<g id="graph0" class="graph" transform="scale(1 1) rotate(0) translate(4 80)">
<title>METIS_NodeNDP</title>
<polygon fill="white" stroke="none" points="-4,4 -4,-80 268,-80 268,4 -4,4"/>
<!-- Node10 -->
<g id="node1" class="node"><title>Node10</title>
<polygon fill="#bfbfbf" stroke="black" points="0,-28.5 0,-47.5 98,-47.5 98,-28.5 0,-28.5"/>
<text text-anchor="middle" x="49" y="-35.5" font-family="Helvetica,sans-Serif" font-size="10.00">METIS_NodeNDP</text>
</g>
<!-- Node11 -->
<g id="node2" class="node"><title>Node11</title>
<g id="a_node2"><a xlink:href="a00077.html#ac8df62c4e3d0910711a9874f9cc58884" target="_top" xlink:title="gk_free">
<polygon fill="white" stroke="black" points="174,-56.5 174,-75.5 224,-75.5 224,-56.5 174,-56.5"/>
<text text-anchor="middle" x="199" y="-63.5" font-family="Helvetica,sans-Serif" font-size="10.00">gk_free</text>
</a>
</g>
</g>
<!-- Node10&#45;&gt;Node11 -->
<g id="edge1" class="edge"><title>Node10&#45;&gt;Node11</title>
<path fill="none" stroke="midnightblue" d="M98.0514,-47.0908C119.515,-51.1515 144.314,-55.8431 163.84,-59.5372"/>
<polygon fill="midnightblue" stroke="midnightblue" points="163.33,-63.0029 173.807,-61.4229 164.632,-56.1249 163.33,-63.0029"/>
</g>
<!-- Node12 -->
<g id="node3" class="node"><title>Node12</title>
<g id="a_node3"><a xlink:href="a00942.html#a55cff7f4deda5d27c8736089a878964c" target="_top" xlink:title="MlevelNestedDissectionP">
<polygon fill="white" stroke="black" points="134,-0.5 134,-19.5 264,-19.5 264,-0.5 134,-0.5"/>
<text text-anchor="middle" x="199" y="-7.5" font-family="Helvetica,sans-Serif" font-size="10.00">MlevelNestedDissectionP</text>
</a>
</g>
</g>
<!-- Node10&#45;&gt;Node12 -->
<g id="edge2" class="edge"><title>Node10&#45;&gt;Node12</title>
<path fill="none" stroke="midnightblue" d="M98.0514,-28.9092C110.696,-26.5169 124.498,-23.9057 137.698,-21.4085"/>
<polygon fill="midnightblue" stroke="midnightblue" points="138.47,-24.8245 147.645,-19.5265 137.169,-17.9465 138.47,-24.8245"/>
</g>
<!-- Node12&#45;&gt;Node12 -->
<g id="edge3" class="edge"><title>Node12&#45;&gt;Node12</title>
<path fill="none" stroke="midnightblue" d="M175.881,-19.7571C164.633,-28.5653 172.34,-38 199,-38 216.496,-38 225.829,-33.9368 226.999,-28.6539"/>
<polygon fill="midnightblue" stroke="midnightblue" points="229.997,-26.8417 222.119,-19.7571 223.86,-30.208 229.997,-26.8417"/>
</g>
</g>
</svg>
