<?xml version="1.0" encoding="UTF-8" standalone="no"?>
<!DOCTYPE svg PUBLIC "-//W3C//DTD SVG 1.1//EN"
 "http://www.w3.org/Graphics/SVG/1.1/DTD/svg11.dtd">
<!-- Generated by graphviz version 2.36.0 (20140111.2315)
 -->
<!-- Title: MlevelRecursiveBisection Pages: 1 -->
<svg width="426pt" height="89pt"
 viewBox="0.00 0.00 426.00 89.50" xmlns="http://www.w3.org/2000/svg" xmlns:xlink="http://www.w3.org/1999/xlink">
<g id="graph0" class="graph" transform="scale(1 1) rotate(0) translate(4 85.4987)">
<title>MlevelRecursiveBisection</title>
<polygon fill="white" stroke="none" points="-4,4 -4,-85.4987 422,-85.4987 422,4 -4,4"/>
<!-- Node739 -->
<g id="node1" class="node"><title>Node739</title>
<polygon fill="#bfbfbf" stroke="black" points="0,-28.5 0,-47.5 130,-47.5 130,-28.5 0,-28.5"/>
<text text-anchor="middle" x="65" y="-35.5" font-family="Helvetica,sans-Serif" font-size="10.00">MlevelRecursiveBisection</text>
</g>
<!-- Node740 -->
<g id="node2" class="node"><title>Node740</title>
<g id="a_node2"><a xlink:href="a00260.html#a33c48a23cc94ea0221fa5c7317cd0222" target="_top" xlink:title="MultilevelBisect">
<polygon fill="white" stroke="black" points="332.5,-47.5 332.5,-66.5 417.5,-66.5 417.5,-47.5 332.5,-47.5"/>
<text text-anchor="middle" x="375" y="-54.5" font-family="Helvetica,sans-Serif" font-size="10.00">MultilevelBisect</text>
</a>
</g>
</g>
<!-- Node739&#45;&gt;Node740 -->
<g id="edge1" class="edge"><title>Node739&#45;&gt;Node740</title>
<path fill="none" stroke="midnightblue" d="M85.3411,-47.5046C105.072,-56.6314 136.846,-69.7794 166,-75 222.873,-85.1842 238.593,-81.5379 296,-75 307.206,-73.7237 319.146,-71.4477 330.229,-68.934"/>
<polygon fill="midnightblue" stroke="midnightblue" points="331.202,-72.3003 340.12,-66.5806 329.581,-65.4904 331.202,-72.3003"/>
</g>
<!-- Node741 -->
<g id="node3" class="node"><title>Node741</title>
<g id="a_node3"><a xlink:href="a00260.html#a49d272affb67ce57b2d20dccd7f15f53" target="_top" xlink:title="SplitGraphPart">
<polygon fill="white" stroke="black" points="334,-0.5 334,-19.5 416,-19.5 416,-0.5 334,-0.5"/>
<text text-anchor="middle" x="375" y="-7.5" font-family="Helvetica,sans-Serif" font-size="10.00">SplitGraphPart</text>
</a>
</g>
</g>
<!-- Node739&#45;&gt;Node741 -->
<g id="edge2" class="edge"><title>Node739&#45;&gt;Node741</title>
<path fill="none" stroke="midnightblue" d="M108.614,-28.497C126.282,-24.9248 147.042,-21.1995 166,-19 219.734,-12.7659 281.729,-10.7449 323.962,-10.1416"/>
<polygon fill="midnightblue" stroke="midnightblue" points="324.033,-13.6411 333.989,-10.0197 323.948,-6.64159 324.033,-13.6411"/>
</g>
<!-- Node742 -->
<g id="node4" class="node"><title>Node742</title>
<g id="a_node4"><a xlink:href="a00260.html#a5510f276b321a8450b2e9cc913c2f00f" target="_top" xlink:title="MlevelRecursiveBisection">
<polygon fill="white" stroke="black" points="166,-28.5 166,-47.5 296,-47.5 296,-28.5 166,-28.5"/>
<text text-anchor="middle" x="231" y="-35.5" font-family="Helvetica,sans-Serif" font-size="10.00">MlevelRecursiveBisection</text>
</a>
</g>
</g>
<!-- Node739&#45;&gt;Node742 -->
<g id="edge3" class="edge"><title>Node739&#45;&gt;Node742</title>
<path fill="none" stroke="midnightblue" d="M130.346,-38C138.64,-38 147.187,-38 155.625,-38"/>
<polygon fill="midnightblue" stroke="midnightblue" points="155.839,-41.5001 165.839,-38 155.839,-34.5001 155.839,-41.5001"/>
</g>
<!-- Node742&#45;&gt;Node740 -->
<g id="edge4" class="edge"><title>Node742&#45;&gt;Node740</title>
<path fill="none" stroke="midnightblue" d="M296.352,-46.6105C305.013,-47.7693 313.806,-48.9459 322.211,-50.0705"/>
<polygon fill="midnightblue" stroke="midnightblue" points="321.859,-53.5545 332.235,-51.4117 322.788,-46.6164 321.859,-53.5545"/>
</g>
<!-- Node742&#45;&gt;Node741 -->
<g id="edge5" class="edge"><title>Node742&#45;&gt;Node741</title>
<path fill="none" stroke="midnightblue" d="M280.471,-28.4423C294.436,-25.6887 309.698,-22.6792 323.767,-19.905"/>
<polygon fill="midnightblue" stroke="midnightblue" points="324.631,-23.3021 333.765,-17.9336 323.277,-16.4344 324.631,-23.3021"/>
</g>
<!-- Node742&#45;&gt;Node742 -->
<g id="edge6" class="edge"><title>Node742&#45;&gt;Node742</title>
<path fill="none" stroke="midnightblue" d="M208.805,-47.7571C198.008,-56.5653 205.406,-66 231,-66 247.796,-66 256.756,-61.9368 257.879,-56.6539"/>
<polygon fill="midnightblue" stroke="midnightblue" points="260.951,-54.9747 253.195,-47.7571 254.757,-58.2361 260.951,-54.9747"/>
</g>
</g>
</svg>
