<?xml version="1.0" encoding="UTF-8" standalone="no"?>
<!DOCTYPE svg PUBLIC "-//W3C//DTD SVG 1.1//EN"
 "http://www.w3.org/Graphics/SVG/1.1/DTD/svg11.dtd">
<!-- Generated by graphviz version 2.36.0 (20140111.2315)
 -->
<!-- Title: Match_2Hop Pages: 1 -->
<svg width="1062pt" height="102pt"
 viewBox="0.00 0.00 1062.00 102.00" xmlns="http://www.w3.org/2000/svg" xmlns:xlink="http://www.w3.org/1999/xlink">
<g id="graph0" class="graph" transform="scale(1 1) rotate(0) translate(4 98)">
<title>Match_2Hop</title>
<polygon fill="white" stroke="none" points="-4,4 -4,-98 1058,-98 1058,4 -4,4"/>
<!-- Node496 -->
<g id="node1" class="node"><title>Node496</title>
<polygon fill="#bfbfbf" stroke="black" points="0.5,-47.5 0.5,-66.5 73.5,-66.5 73.5,-47.5 0.5,-47.5"/>
<text text-anchor="middle" x="37" y="-54.5" font-family="Helvetica,sans-Serif" font-size="10.00">Match_2Hop</text>
</g>
<!-- Node497 -->
<g id="node2" class="node"><title>Node497</title>
<g id="a_node2"><a xlink:href="a00948.html#a892d2ea16d613abc2276ad5fc6999724" target="_top" xlink:title="Match_RM">
<polygon fill="white" stroke="black" points="116.5,-66.5 116.5,-85.5 181.5,-85.5 181.5,-66.5 116.5,-66.5"/>
<text text-anchor="middle" x="149" y="-73.5" font-family="Helvetica,sans-Serif" font-size="10.00">Match_RM</text>
</a>
</g>
</g>
<!-- Node496&#45;&gt;Node497 -->
<g id="edge1" class="edge"><title>Node496&#45;&gt;Node497</title>
<path fill="none" stroke="midnightblue" d="M83.5779,-64.8726C94.5327,-66.7647 106.001,-68.7457 116.175,-70.503"/>
<polygon fill="midnightblue" stroke="midnightblue" points="84.1637,-61.422 73.7138,-63.1688 82.9722,-68.3198 84.1637,-61.422"/>
</g>
<!-- Node506 -->
<g id="node11" class="node"><title>Node506</title>
<g id="a_node11"><a xlink:href="a00948.html#af3ec72f3170ccdca06d8ad018d86cc58" target="_top" xlink:title="Match_SHEM">
<polygon fill="white" stroke="black" points="110,-28.5 110,-47.5 188,-47.5 188,-28.5 110,-28.5"/>
<text text-anchor="middle" x="149" y="-35.5" font-family="Helvetica,sans-Serif" font-size="10.00">Match_SHEM</text>
</a>
</g>
</g>
<!-- Node496&#45;&gt;Node506 -->
<g id="edge13" class="edge"><title>Node496&#45;&gt;Node506</title>
<path fill="none" stroke="midnightblue" d="M83.7072,-49.1051C92.3905,-47.6053 101.392,-46.0505 109.812,-44.5961"/>
<polygon fill="midnightblue" stroke="midnightblue" points="82.9722,-45.6802 73.7138,-50.8312 84.1637,-52.578 82.9722,-45.6802"/>
</g>
<!-- Node498 -->
<g id="node3" class="node"><title>Node498</title>
<g id="a_node3"><a xlink:href="a00948.html#adeb2c7c9bffbeca00fcc97854fb88ada" target="_top" xlink:title="CoarsenGraph">
<polygon fill="white" stroke="black" points="241,-66.5 241,-85.5 323,-85.5 323,-66.5 241,-66.5"/>
<text text-anchor="middle" x="282" y="-73.5" font-family="Helvetica,sans-Serif" font-size="10.00">CoarsenGraph</text>
</a>
</g>
</g>
<!-- Node497&#45;&gt;Node498 -->
<g id="edge2" class="edge"><title>Node497&#45;&gt;Node498</title>
<path fill="none" stroke="midnightblue" d="M192.106,-76C207.662,-76 225.246,-76 240.644,-76"/>
<polygon fill="midnightblue" stroke="midnightblue" points="191.711,-72.5001 181.711,-76 191.711,-79.5001 191.711,-72.5001"/>
</g>
<!-- Node499 -->
<g id="node4" class="node"><title>Node499</title>
<g id="a_node4"><a xlink:href="a00948.html#afa83320e3b311e0feef90d0bf4303716" target="_top" xlink:title="CoarsenGraphNlevels">
<polygon fill="white" stroke="black" points="224.5,-28.5 224.5,-47.5 339.5,-47.5 339.5,-28.5 224.5,-28.5"/>
<text text-anchor="middle" x="282" y="-35.5" font-family="Helvetica,sans-Serif" font-size="10.00">CoarsenGraphNlevels</text>
</a>
</g>
</g>
<!-- Node497&#45;&gt;Node499 -->
<g id="edge3" class="edge"><title>Node497&#45;&gt;Node499</title>
<path fill="none" stroke="midnightblue" d="M191.539,-63.9505C209.844,-58.6406 231.045,-52.4907 248.213,-47.5109"/>
<polygon fill="midnightblue" stroke="midnightblue" points="190.34,-60.6538 181.711,-66.8013 192.291,-67.3767 190.34,-60.6538"/>
</g>
<!-- Node500 -->
<g id="node5" class="node"><title>Node500</title>
<g id="a_node5"><a xlink:href="a00948.html#ac3a0eaeefa34a3865a0be5bb70bd958f" target="_top" xlink:title="MlevelNodeBisectionL2">
<polygon fill="white" stroke="black" points="376.5,-28.5 376.5,-47.5 497.5,-47.5 497.5,-28.5 376.5,-28.5"/>
<text text-anchor="middle" x="437" y="-35.5" font-family="Helvetica,sans-Serif" font-size="10.00">MlevelNodeBisectionL2</text>
</a>
</g>
</g>
<!-- Node499&#45;&gt;Node500 -->
<g id="edge4" class="edge"><title>Node499&#45;&gt;Node500</title>
<path fill="none" stroke="midnightblue" d="M349.802,-38C358.641,-38 367.654,-38 376.361,-38"/>
<polygon fill="midnightblue" stroke="midnightblue" points="349.537,-34.5001 339.537,-38 349.537,-41.5001 349.537,-34.5001"/>
</g>
<!-- Node501 -->
<g id="node6" class="node"><title>Node501</title>
<g id="a_node6"><a xlink:href="a00948.html#a59c8030c5429e219a8535c2a11cef724" target="_top" xlink:title="MlevelNodeBisectionMultiple">
<polygon fill="white" stroke="black" points="534,-28.5 534,-47.5 678,-47.5 678,-28.5 534,-28.5"/>
<text text-anchor="middle" x="606" y="-35.5" font-family="Helvetica,sans-Serif" font-size="10.00">MlevelNodeBisectionMultiple</text>
</a>
</g>
</g>
<!-- Node500&#45;&gt;Node501 -->
<g id="edge5" class="edge"><title>Node500&#45;&gt;Node501</title>
<path fill="none" stroke="midnightblue" d="M507.828,-38C516.451,-38 525.275,-38 533.917,-38"/>
<polygon fill="midnightblue" stroke="midnightblue" points="507.819,-34.5001 497.819,-38 507.819,-41.5001 507.819,-34.5001"/>
</g>
<!-- Node502 -->
<g id="node7" class="node"><title>Node502</title>
<g id="a_node7"><a xlink:href="a00948.html#af853e9d8bbb2188f871fac436e631ed1" target="_top" xlink:title="MlevelNestedDissection">
<polygon fill="white" stroke="black" points="721.5,-56.5 721.5,-75.5 844.5,-75.5 844.5,-56.5 721.5,-56.5"/>
<text text-anchor="middle" x="783" y="-63.5" font-family="Helvetica,sans-Serif" font-size="10.00">MlevelNestedDissection</text>
</a>
</g>
</g>
<!-- Node501&#45;&gt;Node502 -->
<g id="edge6" class="edge"><title>Node501&#45;&gt;Node502</title>
<path fill="none" stroke="midnightblue" d="M677.034,-49.2054C692.109,-51.6175 707.906,-54.1449 722.534,-56.4854"/>
<polygon fill="midnightblue" stroke="midnightblue" points="677.163,-45.6816 666.736,-47.5577 676.057,-52.5937 677.163,-45.6816"/>
</g>
<!-- Node505 -->
<g id="node10" class="node"><title>Node505</title>
<g id="a_node10"><a xlink:href="a00948.html#a3ef15d1ffff55a81b8486bee09239073" target="_top" xlink:title="MlevelNestedDissectionCC">
<polygon fill="white" stroke="black" points="714,-0.5 714,-19.5 852,-19.5 852,-0.5 714,-0.5"/>
<text text-anchor="middle" x="783" y="-7.5" font-family="Helvetica,sans-Serif" font-size="10.00">MlevelNestedDissectionCC</text>
</a>
</g>
</g>
<!-- Node501&#45;&gt;Node505 -->
<g id="edge10" class="edge"><title>Node501&#45;&gt;Node505</title>
<path fill="none" stroke="midnightblue" d="M677.034,-26.7946C692.109,-24.3825 707.906,-21.8551 722.534,-19.5146"/>
<polygon fill="midnightblue" stroke="midnightblue" points="676.057,-23.4063 666.736,-28.4423 677.163,-30.3184 676.057,-23.4063"/>
</g>
<!-- Node502&#45;&gt;Node502 -->
<g id="edge9" class="edge"><title>Node502&#45;&gt;Node502</title>
<path fill="none" stroke="midnightblue" d="M755.001,-84.6539C756.171,-89.9368 765.504,-94 783,-94 809.66,-94 817.367,-84.5653 806.119,-75.7571"/>
<polygon fill="midnightblue" stroke="midnightblue" points="758.14,-86.208 759.881,-75.7571 752.003,-82.8417 758.14,-86.208"/>
</g>
<!-- Node503 -->
<g id="node8" class="node"><title>Node503</title>
<g id="a_node8"><a xlink:href="a00936.html#a8304f0dd6d180587f73b0b70de3b01b7" target="_top" xlink:title="METIS_NodeND">
<polygon fill="white" stroke="black" points="888.5,-28.5 888.5,-47.5 979.5,-47.5 979.5,-28.5 888.5,-28.5"/>
<text text-anchor="middle" x="934" y="-35.5" font-family="Helvetica,sans-Serif" font-size="10.00">METIS_NodeND</text>
</a>
</g>
</g>
<!-- Node502&#45;&gt;Node503 -->
<g id="edge7" class="edge"><title>Node502&#45;&gt;Node503</title>
<path fill="none" stroke="midnightblue" d="M844.802,-54.574C859.371,-51.8363 874.664,-48.9625 888.347,-46.3911"/>
<polygon fill="midnightblue" stroke="midnightblue" points="844.042,-51.1556 834.861,-56.4423 845.335,-58.0351 844.042,-51.1556"/>
</g>
<!-- Node504 -->
<g id="node9" class="node"><title>Node504</title>
<g id="a_node9"><a xlink:href="a00326.html#a0ddf1224851353fc92bfbff6f499fa97" target="_top" xlink:title="main">
<polygon fill="white" stroke="black" points="1016,-28.5 1016,-47.5 1054,-47.5 1054,-28.5 1016,-28.5"/>
<text text-anchor="middle" x="1035" y="-35.5" font-family="Helvetica,sans-Serif" font-size="10.00">main</text>
</a>
</g>
</g>
<!-- Node503&#45;&gt;Node504 -->
<g id="edge8" class="edge"><title>Node503&#45;&gt;Node504</title>
<path fill="none" stroke="midnightblue" d="M989.748,-38C999.09,-38 1008.18,-38 1015.67,-38"/>
<polygon fill="midnightblue" stroke="midnightblue" points="989.577,-34.5001 979.577,-38 989.577,-41.5001 989.577,-34.5001"/>
</g>
<!-- Node505&#45;&gt;Node503 -->
<g id="edge11" class="edge"><title>Node505&#45;&gt;Node503</title>
<path fill="none" stroke="midnightblue" d="M844.802,-21.426C859.371,-24.1637 874.664,-27.0375 888.347,-29.6089"/>
<polygon fill="midnightblue" stroke="midnightblue" points="845.335,-17.9649 834.861,-19.5577 844.042,-24.8444 845.335,-17.9649"/>
</g>
<!-- Node505&#45;&gt;Node505 -->
<g id="edge12" class="edge"><title>Node505&#45;&gt;Node505</title>
<path fill="none" stroke="midnightblue" d="M755.001,-28.6539C756.171,-33.9368 765.504,-38 783,-38 809.66,-38 817.367,-28.5653 806.119,-19.7571"/>
<polygon fill="midnightblue" stroke="midnightblue" points="758.14,-30.208 759.881,-19.7571 752.003,-26.8417 758.14,-30.208"/>
</g>
<!-- Node506&#45;&gt;Node498 -->
<g id="edge14" class="edge"><title>Node506&#45;&gt;Node498</title>
<path fill="none" stroke="midnightblue" d="M192.715,-50.3906C210.655,-55.5945 231.2,-61.5541 247.954,-66.4141"/>
<polygon fill="midnightblue" stroke="midnightblue" points="193.636,-47.0136 183.057,-47.589 191.686,-53.7364 193.636,-47.0136"/>
</g>
<!-- Node506&#45;&gt;Node499 -->
<g id="edge15" class="edge"><title>Node506&#45;&gt;Node499</title>
<path fill="none" stroke="midnightblue" d="M198.356,-38C206.85,-38 215.757,-38 224.451,-38"/>
<polygon fill="midnightblue" stroke="midnightblue" points="198.243,-34.5001 188.243,-38 198.243,-41.5001 198.243,-34.5001"/>
</g>
</g>
</svg>
