<?xml version="1.0" encoding="UTF-8" standalone="no"?>
<!DOCTYPE svg PUBLIC "-//W3C//DTD SVG 1.1//EN"
 "http://www.w3.org/Graphics/SVG/1.1/DTD/svg11.dtd">
<!-- Generated by graphviz version 2.36.0 (20140111.2315)
 -->
<!-- Title: ComputePartitionInfo Pages: 1 -->
<svg width="322pt" height="28pt"
 viewBox="0.00 0.00 322.00 28.00" xmlns="http://www.w3.org/2000/svg" xmlns:xlink="http://www.w3.org/1999/xlink">
<g id="graph0" class="graph" transform="scale(1 1) rotate(0) translate(4 24)">
<title>ComputePartitionInfo</title>
<polygon fill="white" stroke="none" points="-4,4 -4,-24 318,-24 318,4 -4,4"/>
<!-- Node11 -->
<g id="node1" class="node"><title>Node11</title>
<polygon fill="#bfbfbf" stroke="black" points="0,-0.5 0,-19.5 110,-19.5 110,-0.5 0,-0.5"/>
<text text-anchor="middle" x="55" y="-7.5" font-family="Helvetica,sans-Serif" font-size="10.00">ComputePartitionInfo</text>
</g>
<!-- Node12 -->
<g id="node2" class="node"><title>Node12</title>
<g id="a_node2"><a xlink:href="a00951.html#aee005b8826ce55da90165e4a207f8f03" target="_top" xlink:title="GPReportResults">
<polygon fill="white" stroke="black" points="146,-0.5 146,-19.5 240,-19.5 240,-0.5 146,-0.5"/>
<text text-anchor="middle" x="193" y="-7.5" font-family="Helvetica,sans-Serif" font-size="10.00">GPReportResults</text>
</a>
</g>
</g>
<!-- Node11&#45;&gt;Node12 -->
<g id="edge1" class="edge"><title>Node11&#45;&gt;Node12</title>
<path fill="none" stroke="midnightblue" d="M120.247,-10C128.916,-10 137.667,-10 145.933,-10"/>
<polygon fill="midnightblue" stroke="midnightblue" points="120.142,-6.5001 110.142,-10 120.142,-13.5001 120.142,-6.5001"/>
</g>
<!-- Node13 -->
<g id="node3" class="node"><title>Node13</title>
<g id="a_node3"><a xlink:href="a00311.html#a0ddf1224851353fc92bfbff6f499fa97" target="_top" xlink:title="main">
<polygon fill="white" stroke="black" points="276,-0.5 276,-19.5 314,-19.5 314,-0.5 276,-0.5"/>
<text text-anchor="middle" x="295" y="-7.5" font-family="Helvetica,sans-Serif" font-size="10.00">main</text>
</a>
</g>
</g>
<!-- Node12&#45;&gt;Node13 -->
<g id="edge2" class="edge"><title>Node12&#45;&gt;Node13</title>
<path fill="none" stroke="midnightblue" d="M250.316,-10C259.594,-10 268.577,-10 275.96,-10"/>
<polygon fill="midnightblue" stroke="midnightblue" points="250.195,-6.5001 240.195,-10 250.195,-13.5001 250.195,-6.5001"/>
</g>
</g>
</svg>
