<?xml version="1.0" encoding="UTF-8" standalone="no"?>
<!DOCTYPE svg PUBLIC "-//W3C//DTD SVG 1.1//EN"
 "http://www.w3.org/Graphics/SVG/1.1/DTD/svg11.dtd">
<!-- Generated by graphviz version 2.36.0 (20140111.2315)
 -->
<!-- Title: Greedy_KWayVolOptimize Pages: 1 -->
<svg width="278pt" height="66pt"
 viewBox="0.00 0.00 278.00 66.00" xmlns="http://www.w3.org/2000/svg" xmlns:xlink="http://www.w3.org/1999/xlink">
<g id="graph0" class="graph" transform="scale(1 1) rotate(0) translate(4 62)">
<title>Greedy_KWayVolOptimize</title>
<polygon fill="white" stroke="none" points="-4,4 -4,-62 274,-62 274,4 -4,4"/>
<!-- Node356 -->
<g id="node1" class="node"><title>Node356</title>
<polygon fill="#bfbfbf" stroke="black" points="0.5,-19.5 0.5,-38.5 135.5,-38.5 135.5,-19.5 0.5,-19.5"/>
<text text-anchor="middle" x="68" y="-26.5" font-family="Helvetica,sans-Serif" font-size="10.00">Greedy_KWayVolOptimize</text>
</g>
<!-- Node357 -->
<g id="node2" class="node"><title>Node357</title>
<g id="a_node2"><a xlink:href="a00221.html#af791bf8cc50b3b218224e0560decc422" target="_top" xlink:title="IsArticulationNode">
<polygon fill="white" stroke="black" points="172,-38.5 172,-57.5 270,-57.5 270,-38.5 172,-38.5"/>
<text text-anchor="middle" x="221" y="-45.5" font-family="Helvetica,sans-Serif" font-size="10.00">IsArticulationNode</text>
</a>
</g>
</g>
<!-- Node356&#45;&gt;Node357 -->
<g id="edge1" class="edge"><title>Node356&#45;&gt;Node357</title>
<path fill="none" stroke="midnightblue" d="M135.67,-37.389C144.32,-38.4774 153.127,-39.5855 161.628,-40.6551"/>
<polygon fill="midnightblue" stroke="midnightblue" points="161.455,-44.161 171.814,-41.9369 162.329,-37.2157 161.455,-44.161"/>
</g>
<!-- Node358 -->
<g id="node3" class="node"><title>Node358</title>
<g id="a_node3"><a xlink:href="a00221.html#ac4e797b3ea2db37f88f436fc6481b989" target="_top" xlink:title="KWayVolUpdate">
<polygon fill="white" stroke="black" points="176,-0.5 176,-19.5 266,-19.5 266,-0.5 176,-0.5"/>
<text text-anchor="middle" x="221" y="-7.5" font-family="Helvetica,sans-Serif" font-size="10.00">KWayVolUpdate</text>
</a>
</g>
</g>
<!-- Node356&#45;&gt;Node358 -->
<g id="edge2" class="edge"><title>Node356&#45;&gt;Node358</title>
<path fill="none" stroke="midnightblue" d="M135.67,-20.611C145.756,-19.342 156.055,-18.0461 165.833,-16.8157"/>
<polygon fill="midnightblue" stroke="midnightblue" points="166.32,-20.2822 175.804,-15.5611 165.446,-13.337 166.32,-20.2822"/>
</g>
</g>
</svg>
