<?xml version="1.0" encoding="UTF-8" standalone="no"?>
<!DOCTYPE svg PUBLIC "-//W3C//DTD SVG 1.1//EN"
 "http://www.w3.org/Graphics/SVG/1.1/DTD/svg11.dtd">
<!-- Generated by graphviz version 2.36.0 (20140111.2315)
 -->
<!-- Title: Adaptive_Partition Pages: 1 -->
<svg width="326pt" height="57pt"
 viewBox="0.00 0.00 326.00 57.20" xmlns="http://www.w3.org/2000/svg" xmlns:xlink="http://www.w3.org/1999/xlink">
<g id="graph0" class="graph" transform="scale(1 1) rotate(0) translate(4 53.2006)">
<title>Adaptive_Partition</title>
<polygon fill="white" stroke="none" points="-4,4 -4,-53.2006 322,-53.2006 322,4 -4,4"/>
<!-- Node0 -->
<g id="node1" class="node"><title>Node0</title>
<polygon fill="#bfbfbf" stroke="black" points="0,-28.5 0,-47.5 98,-47.5 98,-28.5 0,-28.5"/>
<text text-anchor="middle" x="49" y="-35.5" font-family="Helvetica,sans-Serif" font-size="10.00">Adaptive_Partition</text>
</g>
<!-- Node1 -->
<g id="node2" class="node"><title>Node1</title>
<g id="a_node2"><a xlink:href="a00077.html#ac8df62c4e3d0910711a9874f9cc58884" target="_top" xlink:title="gk_free">
<polygon fill="white" stroke="black" points="268,-28.5 268,-47.5 318,-47.5 318,-28.5 268,-28.5"/>
<text text-anchor="middle" x="293" y="-35.5" font-family="Helvetica,sans-Serif" font-size="10.00">gk_free</text>
</a>
</g>
</g>
<!-- Node0&#45;&gt;Node1 -->
<g id="edge1" class="edge"><title>Node0&#45;&gt;Node1</title>
<path fill="none" stroke="midnightblue" d="M98.3458,-44.0714C110.001,-45.2883 122.43,-46.3819 134,-47 177.494,-49.3234 188.565,-50.2395 232,-47 240.439,-46.3706 249.489,-45.25 257.938,-44.0083"/>
<polygon fill="midnightblue" stroke="midnightblue" points="258.521,-47.4597 267.862,-42.4587 257.441,-40.5435 258.521,-47.4597"/>
</g>
<!-- Node2 -->
<g id="node3" class="node"><title>Node2</title>
<g id="a_node3"><a xlink:href="a00338.html#a4bfface1ffce942d966b638a079f0833" target="_top" xlink:title="Adaptive_Partition">
<polygon fill="white" stroke="black" points="134,-0.5 134,-19.5 232,-19.5 232,-0.5 134,-0.5"/>
<text text-anchor="middle" x="183" y="-7.5" font-family="Helvetica,sans-Serif" font-size="10.00">Adaptive_Partition</text>
</a>
</g>
</g>
<!-- Node0&#45;&gt;Node2 -->
<g id="edge2" class="edge"><title>Node0&#45;&gt;Node2</title>
<path fill="none" stroke="midnightblue" d="M95.0577,-28.4423C105.359,-26.2573 116.419,-23.9112 127.082,-21.6493"/>
<polygon fill="midnightblue" stroke="midnightblue" points="128.089,-25.0136 137.145,-19.5146 126.637,-18.1659 128.089,-25.0136"/>
</g>
<!-- Node2&#45;&gt;Node1 -->
<g id="edge3" class="edge"><title>Node2&#45;&gt;Node1</title>
<path fill="none" stroke="midnightblue" d="M220.865,-19.5577C232.87,-22.67 246.135,-26.1091 257.926,-29.166"/>
<polygon fill="midnightblue" stroke="midnightblue" points="257.281,-32.6144 267.839,-31.7361 259.038,-25.8385 257.281,-32.6144"/>
</g>
<!-- Node2&#45;&gt;Node2 -->
<g id="edge4" class="edge"><title>Node2&#45;&gt;Node2</title>
<path fill="none" stroke="midnightblue" d="M166.046,-19.7571C157.798,-28.5653 163.449,-38 183,-38 195.219,-38 202.009,-34.3146 203.369,-29.4"/>
<polygon fill="midnightblue" stroke="midnightblue" points="206.592,-28.0149 199.954,-19.7571 199.993,-30.3518 206.592,-28.0149"/>
</g>
</g>
</svg>
