<?xml version="1.0" encoding="UTF-8" standalone="no"?>
<!DOCTYPE svg PUBLIC "-//W3C//DTD SVG 1.1//EN"
 "http://www.w3.org/Graphics/SVG/1.1/DTD/svg11.dtd">
<!-- Generated by graphviz version 2.36.0 (20140111.2315)
 -->
<!-- Title: METIS_NodeRefine Pages: 1 -->
<svg width="444pt" height="28pt"
 viewBox="0.00 0.00 444.00 28.00" xmlns="http://www.w3.org/2000/svg" xmlns:xlink="http://www.w3.org/1999/xlink">
<g id="graph0" class="graph" transform="scale(1 1) rotate(0) translate(4 24)">
<title>METIS_NodeRefine</title>
<polygon fill="white" stroke="none" points="-4,4 -4,-24 440,-24 440,4 -4,4"/>
<!-- Node17 -->
<g id="node1" class="node"><title>Node17</title>
<polygon fill="#bfbfbf" stroke="black" points="0.5,-0.5 0.5,-19.5 105.5,-19.5 105.5,-0.5 0.5,-0.5"/>
<text text-anchor="middle" x="53" y="-7.5" font-family="Helvetica,sans-Serif" font-size="10.00">METIS_NodeRefine</text>
</g>
<!-- Node18 -->
<g id="node2" class="node"><title>Node18</title>
<g id="a_node2"><a xlink:href="a00954.html#ad38351510bbf07393425b90ea3c4f5bd" target="_top" xlink:title="KWayNodeRefineInterior">
<polygon fill="white" stroke="black" points="142.5,-0.5 142.5,-19.5 269.5,-19.5 269.5,-0.5 142.5,-0.5"/>
<text text-anchor="middle" x="206" y="-7.5" font-family="Helvetica,sans-Serif" font-size="10.00">KWayNodeRefineInterior</text>
</a>
</g>
</g>
<!-- Node17&#45;&gt;Node18 -->
<g id="edge1" class="edge"><title>Node17&#45;&gt;Node18</title>
<path fill="none" stroke="midnightblue" d="M115.743,-10C124.558,-10 133.632,-10 142.463,-10"/>
<polygon fill="midnightblue" stroke="midnightblue" points="115.543,-6.5001 105.543,-10 115.543,-13.5001 115.543,-6.5001"/>
</g>
<!-- Node19 -->
<g id="node3" class="node"><title>Node19</title>
<g id="a_node3"><a xlink:href="a00954.html#a5c42d043dc7f9e6d0b955a4d004a7470" target="_top" xlink:title="KWayNodeRefine2Phase">
<polygon fill="white" stroke="black" points="306,-0.5 306,-19.5 436,-19.5 436,-0.5 306,-0.5"/>
<text text-anchor="middle" x="371" y="-7.5" font-family="Helvetica,sans-Serif" font-size="10.00">KWayNodeRefine2Phase</text>
</a>
</g>
</g>
<!-- Node18&#45;&gt;Node19 -->
<g id="edge2" class="edge"><title>Node18&#45;&gt;Node19</title>
<path fill="none" stroke="midnightblue" d="M279.741,-10C288.492,-10 297.38,-10 305.995,-10"/>
<polygon fill="midnightblue" stroke="midnightblue" points="279.554,-6.5001 269.554,-10 279.554,-13.5001 279.554,-6.5001"/>
</g>
</g>
</svg>
