<?xml version="1.0" encoding="UTF-8" standalone="no"?>
<!DOCTYPE svg PUBLIC "-//W3C//DTD SVG 1.1//EN"
 "http://www.w3.org/Graphics/SVG/1.1/DTD/svg11.dtd">
<!-- Generated by graphviz version 2.36.0 (20140111.2315)
 -->
<!-- Title: ArcSyn3sis/3rdParty/parmetis&#45;4.0.3/programs/proto.h Pages: 1 -->
<svg width="1032pt" height="206pt"
 viewBox="0.00 0.00 1032.00 206.00" xmlns="http://www.w3.org/2000/svg" xmlns:xlink="http://www.w3.org/1999/xlink">
<g id="graph0" class="graph" transform="scale(1 1) rotate(0) translate(4 202)">
<title>ArcSyn3sis/3rdParty/parmetis&#45;4.0.3/programs/proto.h</title>
<polygon fill="white" stroke="none" points="-4,4 -4,-202 1028,-202 1028,4 -4,4"/>
<!-- Node1 -->
<g id="node1" class="node"><title>Node1</title>
<polygon fill="#bfbfbf" stroke="black" points="458,-156.5 458,-197.5 586,-197.5 586,-156.5 458,-156.5"/>
<text text-anchor="start" x="466" y="-185.5" font-family="Helvetica,sans-Serif" font-size="10.00">ArcSyn3sis/3rdParty</text>
<text text-anchor="start" x="466" y="-174.5" font-family="Helvetica,sans-Serif" font-size="10.00">/parmetis&#45;4.0.3/programs</text>
<text text-anchor="middle" x="522" y="-163.5" font-family="Helvetica,sans-Serif" font-size="10.00">/proto.h</text>
</g>
<!-- Node2 -->
<g id="node2" class="node"><title>Node2</title>
<g id="a_node2"><a xlink:href="a00431.html" target="_top" xlink:title="ArcSyn3sis/3rdParty\l/parmetis&#45;4.0.3/programs\l/parmetisbin.h">
<polygon fill="white" stroke="black" points="458,-78.5 458,-119.5 586,-119.5 586,-78.5 458,-78.5"/>
<text text-anchor="start" x="466" y="-107.5" font-family="Helvetica,sans-Serif" font-size="10.00">ArcSyn3sis/3rdParty</text>
<text text-anchor="start" x="466" y="-96.5" font-family="Helvetica,sans-Serif" font-size="10.00">/parmetis&#45;4.0.3/programs</text>
<text text-anchor="middle" x="522" y="-85.5" font-family="Helvetica,sans-Serif" font-size="10.00">/parmetisbin.h</text>
</a>
</g>
</g>
<!-- Node1&#45;&gt;Node2 -->
<g id="edge1" class="edge"><title>Node1&#45;&gt;Node2</title>
<path fill="none" stroke="midnightblue" d="M522,-146.297C522,-137.301 522,-127.653 522,-119.506"/>
<polygon fill="midnightblue" stroke="midnightblue" points="518.5,-146.428 522,-156.428 525.5,-146.428 518.5,-146.428"/>
</g>
<!-- Node3 -->
<g id="node3" class="node"><title>Node3</title>
<g id="a_node3"><a xlink:href="a00422.html" target="_top" xlink:title="ArcSyn3sis/3rdParty\l/parmetis&#45;4.0.3/programs\l/adaptgraph.c">
<polygon fill="white" stroke="black" points="0,-0.5 0,-41.5 128,-41.5 128,-0.5 0,-0.5"/>
<text text-anchor="start" x="8" y="-29.5" font-family="Helvetica,sans-Serif" font-size="10.00">ArcSyn3sis/3rdParty</text>
<text text-anchor="start" x="8" y="-18.5" font-family="Helvetica,sans-Serif" font-size="10.00">/parmetis&#45;4.0.3/programs</text>
<text text-anchor="middle" x="64" y="-7.5" font-family="Helvetica,sans-Serif" font-size="10.00">/adaptgraph.c</text>
</a>
</g>
</g>
<!-- Node2&#45;&gt;Node3 -->
<g id="edge2" class="edge"><title>Node2&#45;&gt;Node3</title>
<path fill="none" stroke="midnightblue" d="M447.686,-89.9398C369.797,-80.8514 244.094,-64.3706 137,-42 134.17,-41.4089 131.288,-40.7716 128.382,-40.1006"/>
<polygon fill="midnightblue" stroke="midnightblue" points="447.546,-93.4469 457.882,-91.1191 448.351,-86.4932 447.546,-93.4469"/>
</g>
<!-- Node4 -->
<g id="node4" class="node"><title>Node4</title>
<g id="a_node4"><a xlink:href="a00864.html" target="_top" xlink:title="ArcSyn3sis/3rdParty\l/parmetis&#45;4.0.3/programs/io.c">
<polygon fill="white" stroke="black" points="146.5,-6 146.5,-36 293.5,-36 293.5,-6 146.5,-6"/>
<text text-anchor="start" x="154.5" y="-24" font-family="Helvetica,sans-Serif" font-size="10.00">ArcSyn3sis/3rdParty</text>
<text text-anchor="middle" x="220" y="-13" font-family="Helvetica,sans-Serif" font-size="10.00">/parmetis&#45;4.0.3/programs/io.c</text>
</a>
</g>
</g>
<!-- Node2&#45;&gt;Node4 -->
<g id="edge3" class="edge"><title>Node2&#45;&gt;Node4</title>
<path fill="none" stroke="midnightblue" d="M448.235,-79.4367C395.049,-66.052 324.368,-48.2647 275.832,-36.0503"/>
<polygon fill="midnightblue" stroke="midnightblue" points="447.402,-82.836 457.954,-81.8824 449.11,-76.0476 447.402,-82.836"/>
</g>
<!-- Node5 -->
<g id="node5" class="node"><title>Node5</title>
<g id="a_node5"><a xlink:href="a00425.html" target="_top" xlink:title="ArcSyn3sis/3rdParty\l/parmetis&#45;4.0.3/programs\l/mtest.c">
<polygon fill="white" stroke="black" points="312,-0.5 312,-41.5 440,-41.5 440,-0.5 312,-0.5"/>
<text text-anchor="start" x="320" y="-29.5" font-family="Helvetica,sans-Serif" font-size="10.00">ArcSyn3sis/3rdParty</text>
<text text-anchor="start" x="320" y="-18.5" font-family="Helvetica,sans-Serif" font-size="10.00">/parmetis&#45;4.0.3/programs</text>
<text text-anchor="middle" x="376" y="-7.5" font-family="Helvetica,sans-Serif" font-size="10.00">/mtest.c</text>
</a>
</g>
</g>
<!-- Node2&#45;&gt;Node5 -->
<g id="edge4" class="edge"><title>Node2&#45;&gt;Node5</title>
<path fill="none" stroke="midnightblue" d="M475.448,-73.7675C455.435,-63.3498 432.356,-51.3358 413.471,-41.5056"/>
<polygon fill="midnightblue" stroke="midnightblue" points="473.915,-76.9153 484.401,-78.4281 477.147,-70.7061 473.915,-76.9153"/>
</g>
<!-- Node6 -->
<g id="node6" class="node"><title>Node6</title>
<g id="a_node6"><a xlink:href="a00428.html" target="_top" xlink:title="ArcSyn3sis/3rdParty\l/parmetis&#45;4.0.3/programs\l/otest.c">
<polygon fill="white" stroke="black" points="458,-0.5 458,-41.5 586,-41.5 586,-0.5 458,-0.5"/>
<text text-anchor="start" x="466" y="-29.5" font-family="Helvetica,sans-Serif" font-size="10.00">ArcSyn3sis/3rdParty</text>
<text text-anchor="start" x="466" y="-18.5" font-family="Helvetica,sans-Serif" font-size="10.00">/parmetis&#45;4.0.3/programs</text>
<text text-anchor="middle" x="522" y="-7.5" font-family="Helvetica,sans-Serif" font-size="10.00">/otest.c</text>
</a>
</g>
</g>
<!-- Node2&#45;&gt;Node6 -->
<g id="edge5" class="edge"><title>Node2&#45;&gt;Node6</title>
<path fill="none" stroke="midnightblue" d="M522,-68.2965C522,-59.3009 522,-49.6532 522,-41.5056"/>
<polygon fill="midnightblue" stroke="midnightblue" points="518.5,-68.4281 522,-78.4281 525.5,-68.4281 518.5,-68.4281"/>
</g>
<!-- Node7 -->
<g id="node7" class="node"><title>Node7</title>
<g id="a_node7"><a xlink:href="a00945.html" target="_top" xlink:title="ArcSyn3sis/3rdParty\l/parmetis&#45;4.0.3/programs\l/parmetis.c">
<polygon fill="white" stroke="black" points="604,-0.5 604,-41.5 732,-41.5 732,-0.5 604,-0.5"/>
<text text-anchor="start" x="612" y="-29.5" font-family="Helvetica,sans-Serif" font-size="10.00">ArcSyn3sis/3rdParty</text>
<text text-anchor="start" x="612" y="-18.5" font-family="Helvetica,sans-Serif" font-size="10.00">/parmetis&#45;4.0.3/programs</text>
<text text-anchor="middle" x="668" y="-7.5" font-family="Helvetica,sans-Serif" font-size="10.00">/parmetis.c</text>
</a>
</g>
</g>
<!-- Node2&#45;&gt;Node7 -->
<g id="edge6" class="edge"><title>Node2&#45;&gt;Node7</title>
<path fill="none" stroke="midnightblue" d="M568.552,-73.7675C588.565,-63.3498 611.644,-51.3358 630.529,-41.5056"/>
<polygon fill="midnightblue" stroke="midnightblue" points="566.853,-70.7061 559.599,-78.4281 570.085,-76.9153 566.853,-70.7061"/>
</g>
<!-- Node8 -->
<g id="node8" class="node"><title>Node8</title>
<g id="a_node8"><a xlink:href="a00434.html" target="_top" xlink:title="ArcSyn3sis/3rdParty\l/parmetis&#45;4.0.3/programs\l/pometis.c">
<polygon fill="white" stroke="black" points="750,-0.5 750,-41.5 878,-41.5 878,-0.5 750,-0.5"/>
<text text-anchor="start" x="758" y="-29.5" font-family="Helvetica,sans-Serif" font-size="10.00">ArcSyn3sis/3rdParty</text>
<text text-anchor="start" x="758" y="-18.5" font-family="Helvetica,sans-Serif" font-size="10.00">/parmetis&#45;4.0.3/programs</text>
<text text-anchor="middle" x="814" y="-7.5" font-family="Helvetica,sans-Serif" font-size="10.00">/pometis.c</text>
</a>
</g>
</g>
<!-- Node2&#45;&gt;Node8 -->
<g id="edge7" class="edge"><title>Node2&#45;&gt;Node8</title>
<path fill="none" stroke="midnightblue" d="M595.982,-79.4164C638.461,-68.6624 692.783,-54.7688 741,-42 743.922,-41.2263 746.908,-40.4302 749.923,-39.6219"/>
<polygon fill="midnightblue" stroke="midnightblue" points="595.116,-76.0252 586.279,-81.8703 596.832,-82.8115 595.116,-76.0252"/>
</g>
<!-- Node9 -->
<g id="node9" class="node"><title>Node9</title>
<g id="a_node9"><a xlink:href="a00437.html" target="_top" xlink:title="ArcSyn3sis/3rdParty\l/parmetis&#45;4.0.3/programs\l/ptest.c">
<polygon fill="white" stroke="black" points="896,-0.5 896,-41.5 1024,-41.5 1024,-0.5 896,-0.5"/>
<text text-anchor="start" x="904" y="-29.5" font-family="Helvetica,sans-Serif" font-size="10.00">ArcSyn3sis/3rdParty</text>
<text text-anchor="start" x="904" y="-18.5" font-family="Helvetica,sans-Serif" font-size="10.00">/parmetis&#45;4.0.3/programs</text>
<text text-anchor="middle" x="960" y="-7.5" font-family="Helvetica,sans-Serif" font-size="10.00">/ptest.c</text>
</a>
</g>
</g>
<!-- Node2&#45;&gt;Node9 -->
<g id="edge8" class="edge"><title>Node2&#45;&gt;Node9</title>
<path fill="none" stroke="midnightblue" d="M596.194,-89.1637C670.265,-79.7457 787.139,-63.2663 887,-42 889.828,-41.3979 892.708,-40.7515 895.612,-40.073"/>
<polygon fill="midnightblue" stroke="midnightblue" points="595.516,-85.7215 586.033,-90.4456 596.392,-92.6664 595.516,-85.7215"/>
</g>
</g>
</svg>
