<?xml version="1.0" encoding="UTF-8" standalone="no"?>
<!DOCTYPE svg PUBLIC "-//W3C//DTD SVG 1.1//EN"
 "http://www.w3.org/Graphics/SVG/1.1/DTD/svg11.dtd">
<!-- Generated by graphviz version 2.36.0 (20140111.2315)
 -->
<!-- Title: PrintCGraphStats Pages: 1 -->
<svg width="970pt" height="102pt"
 viewBox="0.00 0.00 970.00 102.00" xmlns="http://www.w3.org/2000/svg" xmlns:xlink="http://www.w3.org/1999/xlink">
<g id="graph0" class="graph" transform="scale(1 1) rotate(0) translate(4 98)">
<title>PrintCGraphStats</title>
<polygon fill="white" stroke="none" points="-4,4 -4,-98 966,-98 966,4 -4,4"/>
<!-- Node811 -->
<g id="node1" class="node"><title>Node811</title>
<polygon fill="#bfbfbf" stroke="black" points="0.5,-47.5 0.5,-66.5 95.5,-66.5 95.5,-47.5 0.5,-47.5"/>
<text text-anchor="middle" x="48" y="-54.5" font-family="Helvetica,sans-Serif" font-size="10.00">PrintCGraphStats</text>
</g>
<!-- Node812 -->
<g id="node2" class="node"><title>Node812</title>
<g id="a_node2"><a xlink:href="a00948.html#adeb2c7c9bffbeca00fcc97854fb88ada" target="_top" xlink:title="CoarsenGraph">
<polygon fill="white" stroke="black" points="149,-66.5 149,-85.5 231,-85.5 231,-66.5 149,-66.5"/>
<text text-anchor="middle" x="190" y="-73.5" font-family="Helvetica,sans-Serif" font-size="10.00">CoarsenGraph</text>
</a>
</g>
</g>
<!-- Node811&#45;&gt;Node812 -->
<g id="edge1" class="edge"><title>Node811&#45;&gt;Node812</title>
<path fill="none" stroke="midnightblue" d="M105.892,-64.7211C120.236,-66.6678 135.342,-68.7178 148.682,-70.5283"/>
<polygon fill="midnightblue" stroke="midnightblue" points="105.998,-61.2034 95.618,-63.3267 105.056,-68.1398 105.998,-61.2034"/>
</g>
<!-- Node813 -->
<g id="node3" class="node"><title>Node813</title>
<g id="a_node3"><a xlink:href="a00948.html#afa83320e3b311e0feef90d0bf4303716" target="_top" xlink:title="CoarsenGraphNlevels">
<polygon fill="white" stroke="black" points="132.5,-28.5 132.5,-47.5 247.5,-47.5 247.5,-28.5 132.5,-28.5"/>
<text text-anchor="middle" x="190" y="-35.5" font-family="Helvetica,sans-Serif" font-size="10.00">CoarsenGraphNlevels</text>
</a>
</g>
</g>
<!-- Node811&#45;&gt;Node813 -->
<g id="edge2" class="edge"><title>Node811&#45;&gt;Node813</title>
<path fill="none" stroke="midnightblue" d="M105.753,-49.2978C114.528,-48.1068 123.593,-46.8767 132.366,-45.6861"/>
<polygon fill="midnightblue" stroke="midnightblue" points="105.056,-45.8602 95.618,-50.6733 105.998,-52.7966 105.056,-45.8602"/>
</g>
<!-- Node814 -->
<g id="node4" class="node"><title>Node814</title>
<g id="a_node4"><a xlink:href="a00948.html#ac3a0eaeefa34a3865a0be5bb70bd958f" target="_top" xlink:title="MlevelNodeBisectionL2">
<polygon fill="white" stroke="black" points="284.5,-28.5 284.5,-47.5 405.5,-47.5 405.5,-28.5 284.5,-28.5"/>
<text text-anchor="middle" x="345" y="-35.5" font-family="Helvetica,sans-Serif" font-size="10.00">MlevelNodeBisectionL2</text>
</a>
</g>
</g>
<!-- Node813&#45;&gt;Node814 -->
<g id="edge3" class="edge"><title>Node813&#45;&gt;Node814</title>
<path fill="none" stroke="midnightblue" d="M257.802,-38C266.641,-38 275.654,-38 284.361,-38"/>
<polygon fill="midnightblue" stroke="midnightblue" points="257.537,-34.5001 247.537,-38 257.537,-41.5001 257.537,-34.5001"/>
</g>
<!-- Node815 -->
<g id="node5" class="node"><title>Node815</title>
<g id="a_node5"><a xlink:href="a00948.html#a59c8030c5429e219a8535c2a11cef724" target="_top" xlink:title="MlevelNodeBisectionMultiple">
<polygon fill="white" stroke="black" points="442,-28.5 442,-47.5 586,-47.5 586,-28.5 442,-28.5"/>
<text text-anchor="middle" x="514" y="-35.5" font-family="Helvetica,sans-Serif" font-size="10.00">MlevelNodeBisectionMultiple</text>
</a>
</g>
</g>
<!-- Node814&#45;&gt;Node815 -->
<g id="edge4" class="edge"><title>Node814&#45;&gt;Node815</title>
<path fill="none" stroke="midnightblue" d="M415.828,-38C424.451,-38 433.275,-38 441.917,-38"/>
<polygon fill="midnightblue" stroke="midnightblue" points="415.819,-34.5001 405.819,-38 415.819,-41.5001 415.819,-34.5001"/>
</g>
<!-- Node816 -->
<g id="node6" class="node"><title>Node816</title>
<g id="a_node6"><a xlink:href="a00948.html#af853e9d8bbb2188f871fac436e631ed1" target="_top" xlink:title="MlevelNestedDissection">
<polygon fill="white" stroke="black" points="629.5,-56.5 629.5,-75.5 752.5,-75.5 752.5,-56.5 629.5,-56.5"/>
<text text-anchor="middle" x="691" y="-63.5" font-family="Helvetica,sans-Serif" font-size="10.00">MlevelNestedDissection</text>
</a>
</g>
</g>
<!-- Node815&#45;&gt;Node816 -->
<g id="edge5" class="edge"><title>Node815&#45;&gt;Node816</title>
<path fill="none" stroke="midnightblue" d="M585.034,-49.2054C600.109,-51.6175 615.906,-54.1449 630.534,-56.4854"/>
<polygon fill="midnightblue" stroke="midnightblue" points="585.163,-45.6816 574.736,-47.5577 584.057,-52.5937 585.163,-45.6816"/>
</g>
<!-- Node819 -->
<g id="node9" class="node"><title>Node819</title>
<g id="a_node9"><a xlink:href="a00948.html#a3ef15d1ffff55a81b8486bee09239073" target="_top" xlink:title="MlevelNestedDissectionCC">
<polygon fill="white" stroke="black" points="622,-0.5 622,-19.5 760,-19.5 760,-0.5 622,-0.5"/>
<text text-anchor="middle" x="691" y="-7.5" font-family="Helvetica,sans-Serif" font-size="10.00">MlevelNestedDissectionCC</text>
</a>
</g>
</g>
<!-- Node815&#45;&gt;Node819 -->
<g id="edge9" class="edge"><title>Node815&#45;&gt;Node819</title>
<path fill="none" stroke="midnightblue" d="M585.034,-26.7946C600.109,-24.3825 615.906,-21.8551 630.534,-19.5146"/>
<polygon fill="midnightblue" stroke="midnightblue" points="584.057,-23.4063 574.736,-28.4423 585.163,-30.3184 584.057,-23.4063"/>
</g>
<!-- Node816&#45;&gt;Node816 -->
<g id="edge8" class="edge"><title>Node816&#45;&gt;Node816</title>
<path fill="none" stroke="midnightblue" d="M663.001,-84.6539C664.171,-89.9368 673.504,-94 691,-94 717.66,-94 725.367,-84.5653 714.119,-75.7571"/>
<polygon fill="midnightblue" stroke="midnightblue" points="666.14,-86.208 667.881,-75.7571 660.003,-82.8417 666.14,-86.208"/>
</g>
<!-- Node817 -->
<g id="node7" class="node"><title>Node817</title>
<g id="a_node7"><a xlink:href="a00936.html#a8304f0dd6d180587f73b0b70de3b01b7" target="_top" xlink:title="METIS_NodeND">
<polygon fill="white" stroke="black" points="796.5,-28.5 796.5,-47.5 887.5,-47.5 887.5,-28.5 796.5,-28.5"/>
<text text-anchor="middle" x="842" y="-35.5" font-family="Helvetica,sans-Serif" font-size="10.00">METIS_NodeND</text>
</a>
</g>
</g>
<!-- Node816&#45;&gt;Node817 -->
<g id="edge6" class="edge"><title>Node816&#45;&gt;Node817</title>
<path fill="none" stroke="midnightblue" d="M752.802,-54.574C767.371,-51.8363 782.664,-48.9625 796.347,-46.3911"/>
<polygon fill="midnightblue" stroke="midnightblue" points="752.042,-51.1556 742.861,-56.4423 753.335,-58.0351 752.042,-51.1556"/>
</g>
<!-- Node818 -->
<g id="node8" class="node"><title>Node818</title>
<g id="a_node8"><a xlink:href="a00326.html#a0ddf1224851353fc92bfbff6f499fa97" target="_top" xlink:title="main">
<polygon fill="white" stroke="black" points="924,-28.5 924,-47.5 962,-47.5 962,-28.5 924,-28.5"/>
<text text-anchor="middle" x="943" y="-35.5" font-family="Helvetica,sans-Serif" font-size="10.00">main</text>
</a>
</g>
</g>
<!-- Node817&#45;&gt;Node818 -->
<g id="edge7" class="edge"><title>Node817&#45;&gt;Node818</title>
<path fill="none" stroke="midnightblue" d="M897.748,-38C907.09,-38 916.179,-38 923.665,-38"/>
<polygon fill="midnightblue" stroke="midnightblue" points="897.577,-34.5001 887.577,-38 897.577,-41.5001 897.577,-34.5001"/>
</g>
<!-- Node819&#45;&gt;Node817 -->
<g id="edge10" class="edge"><title>Node819&#45;&gt;Node817</title>
<path fill="none" stroke="midnightblue" d="M752.802,-21.426C767.371,-24.1637 782.664,-27.0375 796.347,-29.6089"/>
<polygon fill="midnightblue" stroke="midnightblue" points="753.335,-17.9649 742.861,-19.5577 752.042,-24.8444 753.335,-17.9649"/>
</g>
<!-- Node819&#45;&gt;Node819 -->
<g id="edge11" class="edge"><title>Node819&#45;&gt;Node819</title>
<path fill="none" stroke="midnightblue" d="M663.001,-28.6539C664.171,-33.9368 673.504,-38 691,-38 717.66,-38 725.367,-28.5653 714.119,-19.7571"/>
<polygon fill="midnightblue" stroke="midnightblue" points="666.14,-30.208 667.881,-19.7571 660.003,-26.8417 666.14,-30.208"/>
</g>
</g>
</svg>
