<?xml version="1.0" encoding="UTF-8" standalone="no"?>
<!DOCTYPE svg PUBLIC "-//W3C//DTD SVG 1.1//EN"
 "http://www.w3.org/Graphics/SVG/1.1/DTD/svg11.dtd">
<!-- Generated by graphviz version 2.36.0 (20140111.2315)
 -->
<!-- Title: MlevelNestedDissection Pages: 1 -->
<svg width="1384pt" height="189pt"
 viewBox="0.00 0.00 1384.00 189.00" xmlns="http://www.w3.org/2000/svg" xmlns:xlink="http://www.w3.org/1999/xlink">
<g id="graph0" class="graph" transform="scale(1 1) rotate(0) translate(4 185)">
<title>MlevelNestedDissection</title>
<polygon fill="white" stroke="none" points="-4,4 -4,-185 1380,-185 1380,4 -4,4"/>
<!-- Node630 -->
<g id="node1" class="node"><title>Node630</title>
<polygon fill="#bfbfbf" stroke="black" points="0.5,-43.5 0.5,-62.5 123.5,-62.5 123.5,-43.5 0.5,-43.5"/>
<text text-anchor="middle" x="62" y="-50.5" font-family="Helvetica,sans-Serif" font-size="10.00">MlevelNestedDissection</text>
</g>
<!-- Node631 -->
<g id="node2" class="node"><title>Node631</title>
<g id="a_node2"><a xlink:href="a00936.html#a59c8030c5429e219a8535c2a11cef724" target="_top" xlink:title="MlevelNodeBisectionMultiple">
<polygon fill="white" stroke="black" points="320,-104.5 320,-123.5 464,-123.5 464,-104.5 320,-104.5"/>
<text text-anchor="middle" x="392" y="-111.5" font-family="Helvetica,sans-Serif" font-size="10.00">MlevelNodeBisectionMultiple</text>
</a>
</g>
</g>
<!-- Node630&#45;&gt;Node631 -->
<g id="edge1" class="edge"><title>Node630&#45;&gt;Node631</title>
<path fill="none" stroke="midnightblue" d="M74.9495,-62.6076C92.4107,-75.9836 126.478,-99.6284 160,-109 208.486,-122.555 264.954,-124.021 309.922,-121.993"/>
<polygon fill="midnightblue" stroke="midnightblue" points="310.113,-125.488 319.919,-121.477 309.752,-118.497 310.113,-125.488"/>
</g>
<!-- Node648 -->
<g id="node19" class="node"><title>Node648</title>
<g id="a_node19"><a xlink:href="a00936.html#a2554253b42e739ac3bb63e676741e1cd" target="_top" xlink:title="SplitGraphOrder">
<polygon fill="white" stroke="black" points="347.5,-38.5 347.5,-57.5 436.5,-57.5 436.5,-38.5 347.5,-38.5"/>
<text text-anchor="middle" x="392" y="-45.5" font-family="Helvetica,sans-Serif" font-size="10.00">SplitGraphOrder</text>
</a>
</g>
</g>
<!-- Node630&#45;&gt;Node648 -->
<g id="edge22" class="edge"><title>Node630&#45;&gt;Node648</title>
<path fill="none" stroke="midnightblue" d="M123.542,-52.0771C184.66,-51.1454 278.177,-49.7199 336.89,-48.8249"/>
<polygon fill="midnightblue" stroke="midnightblue" points="337.129,-52.3217 347.074,-48.6696 337.022,-45.3225 337.129,-52.3217"/>
</g>
<!-- Node649 -->
<g id="node20" class="node"><title>Node649</title>
<g id="a_node20"><a xlink:href="a00936.html#af853e9d8bbb2188f871fac436e631ed1" target="_top" xlink:title="MlevelNestedDissection">
<polygon fill="white" stroke="black" points="160.5,-62.5 160.5,-81.5 283.5,-81.5 283.5,-62.5 160.5,-62.5"/>
<text text-anchor="middle" x="222" y="-69.5" font-family="Helvetica,sans-Serif" font-size="10.00">MlevelNestedDissection</text>
</a>
</g>
</g>
<!-- Node630&#45;&gt;Node649 -->
<g id="edge23" class="edge"><title>Node630&#45;&gt;Node649</title>
<path fill="none" stroke="midnightblue" d="M123.635,-60.2916C132.361,-61.3408 141.403,-62.4282 150.303,-63.4984"/>
<polygon fill="midnightblue" stroke="midnightblue" points="149.92,-66.9775 160.266,-64.6966 150.756,-60.0276 149.92,-66.9775"/>
</g>
<!-- Node650 -->
<g id="node21" class="node"><title>Node650</title>
<g id="a_node21"><a xlink:href="a00936.html#acafb70c0e49cde8105dc62f6c34dfa6c" target="_top" xlink:title="MMDOrder">
<polygon fill="white" stroke="black" points="359,-0.5 359,-19.5 425,-19.5 425,-0.5 359,-0.5"/>
<text text-anchor="middle" x="392" y="-7.5" font-family="Helvetica,sans-Serif" font-size="10.00">MMDOrder</text>
</a>
</g>
</g>
<!-- Node630&#45;&gt;Node650 -->
<g id="edge28" class="edge"><title>Node630&#45;&gt;Node650</title>
<path fill="none" stroke="midnightblue" d="M123.542,-45.063C188.89,-36.4962 291.277,-23.0735 348.558,-15.5641"/>
<polygon fill="midnightblue" stroke="midnightblue" points="349.249,-19.0035 358.709,-14.2332 348.339,-12.0628 349.249,-19.0035"/>
</g>
<!-- Node632 -->
<g id="node3" class="node"><title>Node632</title>
<g id="a_node3"><a xlink:href="a00936.html#ac3a0eaeefa34a3865a0be5bb70bd958f" target="_top" xlink:title="MlevelNodeBisectionL2">
<polygon fill="white" stroke="black" points="500.5,-104.5 500.5,-123.5 621.5,-123.5 621.5,-104.5 500.5,-104.5"/>
<text text-anchor="middle" x="561" y="-111.5" font-family="Helvetica,sans-Serif" font-size="10.00">MlevelNodeBisectionL2</text>
</a>
</g>
</g>
<!-- Node631&#45;&gt;Node632 -->
<g id="edge2" class="edge"><title>Node631&#45;&gt;Node632</title>
<path fill="none" stroke="midnightblue" d="M464.307,-114C472.973,-114 481.818,-114 490.458,-114"/>
<polygon fill="midnightblue" stroke="midnightblue" points="490.483,-117.5 500.483,-114 490.483,-110.5 490.483,-117.5"/>
</g>
<!-- Node633 -->
<g id="node4" class="node"><title>Node633</title>
<g id="a_node4"><a xlink:href="a00936.html#aeeaa7f4ed9878ae2f7faff0e2402fd87" target="_top" xlink:title="MlevelNodeBisectionL1">
<polygon fill="white" stroke="black" points="658.5,-123.5 658.5,-142.5 779.5,-142.5 779.5,-123.5 658.5,-123.5"/>
<text text-anchor="middle" x="719" y="-130.5" font-family="Helvetica,sans-Serif" font-size="10.00">MlevelNodeBisectionL1</text>
</a>
</g>
</g>
<!-- Node632&#45;&gt;Node633 -->
<g id="edge3" class="edge"><title>Node632&#45;&gt;Node633</title>
<path fill="none" stroke="midnightblue" d="M621.868,-121.292C630.452,-122.337 639.346,-123.42 648.103,-124.487"/>
<polygon fill="midnightblue" stroke="midnightblue" points="647.943,-127.993 658.293,-125.728 648.789,-121.045 647.943,-127.993"/>
</g>
<!-- Node634 -->
<g id="node5" class="node"><title>Node634</title>
<g id="a_node5"><a xlink:href="a00182.html#afa83320e3b311e0feef90d0bf4303716" target="_top" xlink:title="CoarsenGraphNlevels">
<polygon fill="white" stroke="black" points="661.5,-85.5 661.5,-104.5 776.5,-104.5 776.5,-85.5 661.5,-85.5"/>
<text text-anchor="middle" x="719" y="-92.5" font-family="Helvetica,sans-Serif" font-size="10.00">CoarsenGraphNlevels</text>
</a>
</g>
</g>
<!-- Node632&#45;&gt;Node634 -->
<g id="edge4" class="edge"><title>Node632&#45;&gt;Node634</title>
<path fill="none" stroke="midnightblue" d="M621.868,-106.708C631.497,-105.536 641.517,-104.315 651.295,-103.124"/>
<polygon fill="midnightblue" stroke="midnightblue" points="651.867,-106.581 661.37,-101.897 651.02,-99.632 651.867,-106.581"/>
</g>
<!-- Node635 -->
<g id="node6" class="node"><title>Node635</title>
<g id="a_node6"><a xlink:href="a00623.html#ad1e7380d51df1e0043d24d3c8a860e0a" target="_top" xlink:title="for">
<polygon fill="white" stroke="black" points="849.5,-161.5 849.5,-180.5 878.5,-180.5 878.5,-161.5 849.5,-161.5"/>
<text text-anchor="middle" x="864" y="-168.5" font-family="Helvetica,sans-Serif" font-size="10.00">for</text>
</a>
</g>
</g>
<!-- Node634&#45;&gt;Node635 -->
<g id="edge5" class="edge"><title>Node634&#45;&gt;Node635</title>
<path fill="none" stroke="midnightblue" d="M759.992,-104.537C766.94,-107.055 773.888,-110.172 780,-114 799.717,-126.349 796.777,-138.897 816,-152 823.261,-156.949 832.008,-160.928 839.976,-163.941"/>
<polygon fill="midnightblue" stroke="midnightblue" points="838.889,-167.268 849.484,-167.24 841.184,-160.655 838.889,-167.268"/>
</g>
<!-- Node636 -->
<g id="node7" class="node"><title>Node636</title>
<g id="a_node7"><a xlink:href="a00182.html#aac3e480e7e3bd02bfdf001d858a93562" target="_top" xlink:title="PrintCGraphStats">
<polygon fill="white" stroke="black" points="816.5,-123.5 816.5,-142.5 911.5,-142.5 911.5,-123.5 816.5,-123.5"/>
<text text-anchor="middle" x="864" y="-130.5" font-family="Helvetica,sans-Serif" font-size="10.00">PrintCGraphStats</text>
</a>
</g>
</g>
<!-- Node634&#45;&gt;Node636 -->
<g id="edge6" class="edge"><title>Node634&#45;&gt;Node636</title>
<path fill="none" stroke="midnightblue" d="M756.085,-104.589C774.63,-109.517 797.426,-115.575 817.199,-120.829"/>
<polygon fill="midnightblue" stroke="midnightblue" points="816.363,-124.228 826.927,-123.414 818.161,-117.463 816.363,-124.228"/>
</g>
<!-- Node637 -->
<g id="node8" class="node"><title>Node637</title>
<g id="a_node8"><a xlink:href="a00182.html#a892d2ea16d613abc2276ad5fc6999724" target="_top" xlink:title="Match_RM">
<polygon fill="white" stroke="black" points="831.5,-47.5 831.5,-66.5 896.5,-66.5 896.5,-47.5 831.5,-47.5"/>
<text text-anchor="middle" x="864" y="-54.5" font-family="Helvetica,sans-Serif" font-size="10.00">Match_RM</text>
</a>
</g>
</g>
<!-- Node634&#45;&gt;Node637 -->
<g id="edge7" class="edge"><title>Node634&#45;&gt;Node637</title>
<path fill="none" stroke="midnightblue" d="M756.085,-85.411C775.994,-80.1204 800.804,-73.5275 821.512,-68.0249"/>
<polygon fill="midnightblue" stroke="midnightblue" points="822.542,-71.3725 831.308,-65.4216 820.745,-64.6073 822.542,-71.3725"/>
</g>
<!-- Node645 -->
<g id="node16" class="node"><title>Node645</title>
<g id="a_node16"><a xlink:href="a00182.html#af3ec72f3170ccdca06d8ad018d86cc58" target="_top" xlink:title="Match_SHEM">
<polygon fill="white" stroke="black" points="825,-85.5 825,-104.5 903,-104.5 903,-85.5 825,-85.5"/>
<text text-anchor="middle" x="864" y="-92.5" font-family="Helvetica,sans-Serif" font-size="10.00">Match_SHEM</text>
</a>
</g>
</g>
<!-- Node634&#45;&gt;Node645 -->
<g id="edge17" class="edge"><title>Node634&#45;&gt;Node645</title>
<path fill="none" stroke="midnightblue" d="M776.517,-95C789.203,-95 802.548,-95 814.856,-95"/>
<polygon fill="midnightblue" stroke="midnightblue" points="814.913,-98.5001 824.913,-95 814.913,-91.5001 814.913,-98.5001"/>
</g>
<!-- Node646 -->
<g id="node17" class="node"><title>Node646</title>
<g id="a_node17"><a xlink:href="a00026.html#a4c320c13bcdc9967613253ef4c73f59f" target="_top" xlink:title="gk_errexit">
<polygon fill="white" stroke="black" points="834,-9.5 834,-28.5 894,-28.5 894,-9.5 834,-9.5"/>
<text text-anchor="middle" x="864" y="-16.5" font-family="Helvetica,sans-Serif" font-size="10.00">gk_errexit</text>
</a>
</g>
</g>
<!-- Node634&#45;&gt;Node646 -->
<g id="edge20" class="edge"><title>Node634&#45;&gt;Node646</title>
<path fill="none" stroke="midnightblue" d="M734.576,-85.397C753.06,-73.4435 786.126,-52.8005 816,-38 819.815,-36.1099 823.867,-34.2557 827.929,-32.4912"/>
<polygon fill="midnightblue" stroke="midnightblue" points="829.446,-35.6504 837.321,-28.5626 826.745,-29.1926 829.446,-35.6504"/>
</g>
<!-- Node638 -->
<g id="node9" class="node"><title>Node638</title>
<g id="a_node9"><a xlink:href="a00182.html#aead846b2c69509c914426ff087509934" target="_top" xlink:title="Match_2Hop">
<polygon fill="white" stroke="black" points="965.5,-47.5 965.5,-66.5 1038.5,-66.5 1038.5,-47.5 965.5,-47.5"/>
<text text-anchor="middle" x="1002" y="-54.5" font-family="Helvetica,sans-Serif" font-size="10.00">Match_2Hop</text>
</a>
</g>
</g>
<!-- Node637&#45;&gt;Node638 -->
<g id="edge8" class="edge"><title>Node637&#45;&gt;Node638</title>
<path fill="none" stroke="midnightblue" d="M896.543,-57C913.97,-57 935.932,-57 955.216,-57"/>
<polygon fill="midnightblue" stroke="midnightblue" points="955.312,-60.5001 965.312,-57 955.312,-53.5001 955.312,-60.5001"/>
</g>
<!-- Node641 -->
<g id="node12" class="node"><title>Node641</title>
<g id="a_node12"><a xlink:href="a00182.html#aac8820421b1c25698140c1b470c50e07" target="_top" xlink:title="CreateCoarseGraph">
<polygon fill="white" stroke="black" points="948.5,-85.5 948.5,-104.5 1055.5,-104.5 1055.5,-85.5 948.5,-85.5"/>
<text text-anchor="middle" x="1002" y="-92.5" font-family="Helvetica,sans-Serif" font-size="10.00">CreateCoarseGraph</text>
</a>
</g>
</g>
<!-- Node637&#45;&gt;Node641 -->
<g id="edge11" class="edge"><title>Node637&#45;&gt;Node641</title>
<path fill="none" stroke="midnightblue" d="M896.543,-65.8135C914.533,-70.8401 937.357,-77.2173 957.078,-82.7276"/>
<polygon fill="midnightblue" stroke="midnightblue" points="956.196,-86.1153 966.769,-85.4355 958.08,-79.3735 956.196,-86.1153"/>
</g>
<!-- Node639 -->
<g id="node10" class="node"><title>Node639</title>
<g id="a_node10"><a xlink:href="a00182.html#a838a4013e3b5cc5278ecc7a8757ce0ef" target="_top" xlink:title="Match_2HopAny">
<polygon fill="white" stroke="black" points="1119,-9.5 1119,-28.5 1209,-28.5 1209,-9.5 1119,-9.5"/>
<text text-anchor="middle" x="1164" y="-16.5" font-family="Helvetica,sans-Serif" font-size="10.00">Match_2HopAny</text>
</a>
</g>
</g>
<!-- Node638&#45;&gt;Node639 -->
<g id="edge9" class="edge"><title>Node638&#45;&gt;Node639</title>
<path fill="none" stroke="midnightblue" d="M1038.51,-48.5666C1060.34,-43.3817 1088.65,-36.6576 1112.76,-30.9321"/>
<polygon fill="midnightblue" stroke="midnightblue" points="1113.88,-34.2629 1122.8,-28.5468 1112.26,-27.4524 1113.88,-34.2629"/>
</g>
<!-- Node640 -->
<g id="node11" class="node"><title>Node640</title>
<g id="a_node11"><a xlink:href="a00182.html#aa56d53cace160be27fb1750dcaffbc04" target="_top" xlink:title="Match_2HopAll">
<polygon fill="white" stroke="black" points="1122,-47.5 1122,-66.5 1206,-66.5 1206,-47.5 1122,-47.5"/>
<text text-anchor="middle" x="1164" y="-54.5" font-family="Helvetica,sans-Serif" font-size="10.00">Match_2HopAll</text>
</a>
</g>
</g>
<!-- Node638&#45;&gt;Node640 -->
<g id="edge10" class="edge"><title>Node638&#45;&gt;Node640</title>
<path fill="none" stroke="midnightblue" d="M1038.51,-57C1060,-57 1087.78,-57 1111.64,-57"/>
<polygon fill="midnightblue" stroke="midnightblue" points="1111.94,-60.5001 1121.94,-57 1111.94,-53.5001 1111.94,-60.5001"/>
</g>
<!-- Node642 -->
<g id="node13" class="node"><title>Node642</title>
<g id="a_node13"><a xlink:href="a00182.html#a70dc59d4c7190507e7ad9a4cc0d80707" target="_top" xlink:title="CreateCoarseGraphNoMask">
<polygon fill="white" stroke="black" points="1092.5,-123.5 1092.5,-142.5 1235.5,-142.5 1235.5,-123.5 1092.5,-123.5"/>
<text text-anchor="middle" x="1164" y="-130.5" font-family="Helvetica,sans-Serif" font-size="10.00">CreateCoarseGraphNoMask</text>
</a>
</g>
</g>
<!-- Node641&#45;&gt;Node642 -->
<g id="edge12" class="edge"><title>Node641&#45;&gt;Node642</title>
<path fill="none" stroke="midnightblue" d="M1043.37,-104.589C1064.49,-109.604 1090.53,-115.788 1112.92,-121.105"/>
<polygon fill="midnightblue" stroke="midnightblue" points="1112.38,-124.574 1122.92,-123.48 1113.99,-117.764 1112.38,-124.574"/>
</g>
<!-- Node643 -->
<g id="node14" class="node"><title>Node643</title>
<g id="a_node14"><a xlink:href="a00182.html#a113522304bf628b09d0b69b4db05050e" target="_top" xlink:title="SetupCoarseGraph">
<polygon fill="white" stroke="black" points="1272.5,-151.5 1272.5,-170.5 1375.5,-170.5 1375.5,-151.5 1272.5,-151.5"/>
<text text-anchor="middle" x="1324" y="-158.5" font-family="Helvetica,sans-Serif" font-size="10.00">SetupCoarseGraph</text>
</a>
</g>
</g>
<!-- Node641&#45;&gt;Node643 -->
<g id="edge15" class="edge"><title>Node641&#45;&gt;Node643</title>
<path fill="none" stroke="midnightblue" d="M1013.81,-104.697C1029.64,-118.213 1060.66,-142.159 1092,-152 1147.65,-169.476 1214.57,-170.01 1262.02,-167.206"/>
<polygon fill="midnightblue" stroke="midnightblue" points="1262.39,-170.689 1272.14,-166.54 1261.93,-163.704 1262.39,-170.689"/>
</g>
<!-- Node644 -->
<g id="node15" class="node"><title>Node644</title>
<g id="a_node15"><a xlink:href="a00182.html#ab69ab96ec78174da232dff05e9c79d2f" target="_top" xlink:title="ReAdjustMemory">
<polygon fill="white" stroke="black" points="1277.5,-94.5 1277.5,-113.5 1370.5,-113.5 1370.5,-94.5 1277.5,-94.5"/>
<text text-anchor="middle" x="1324" y="-101.5" font-family="Helvetica,sans-Serif" font-size="10.00">ReAdjustMemory</text>
</a>
</g>
</g>
<!-- Node641&#45;&gt;Node644 -->
<g id="edge16" class="edge"><title>Node641&#45;&gt;Node644</title>
<path fill="none" stroke="midnightblue" d="M1055.84,-96.4862C1114.12,-98.1252 1207.5,-100.751 1267.01,-102.425"/>
<polygon fill="midnightblue" stroke="midnightblue" points="1267.25,-105.933 1277.34,-102.716 1267.45,-98.936 1267.25,-105.933"/>
</g>
<!-- Node642&#45;&gt;Node643 -->
<g id="edge13" class="edge"><title>Node642&#45;&gt;Node643</title>
<path fill="none" stroke="midnightblue" d="M1218.93,-142.558C1232.82,-145.018 1247.85,-147.683 1262.06,-150.201"/>
<polygon fill="midnightblue" stroke="midnightblue" points="1261.78,-153.706 1272.24,-152.004 1263,-146.813 1261.78,-153.706"/>
</g>
<!-- Node642&#45;&gt;Node644 -->
<g id="edge14" class="edge"><title>Node642&#45;&gt;Node644</title>
<path fill="none" stroke="midnightblue" d="M1217.17,-123.424C1233.25,-120.473 1251.01,-117.213 1267.32,-114.22"/>
<polygon fill="midnightblue" stroke="midnightblue" points="1268.05,-117.644 1277.25,-112.397 1266.79,-110.759 1268.05,-117.644"/>
</g>
<!-- Node645&#45;&gt;Node638 -->
<g id="edge18" class="edge"><title>Node645&#45;&gt;Node638</title>
<path fill="none" stroke="midnightblue" d="M899.319,-85.411C916.794,-80.5281 938.241,-74.5357 956.925,-69.315"/>
<polygon fill="midnightblue" stroke="midnightblue" points="958.003,-72.6479 966.692,-66.5859 956.119,-65.9062 958.003,-72.6479"/>
</g>
<!-- Node645&#45;&gt;Node641 -->
<g id="edge19" class="edge"><title>Node645&#45;&gt;Node641</title>
<path fill="none" stroke="midnightblue" d="M903.246,-95C914.062,-95 926.129,-95 937.993,-95"/>
<polygon fill="midnightblue" stroke="midnightblue" points="938.329,-98.5001 948.329,-95 938.329,-91.5001 938.329,-98.5001"/>
</g>
<!-- Node647 -->
<g id="node18" class="node"><title>Node647</title>
<g id="a_node18"><a xlink:href="a01017.html#a2e311a777ffe9c80e405efa7cd2757be" target="_top" xlink:title="fprintf">
<polygon fill="white" stroke="black" points="981,-9.5 981,-28.5 1023,-28.5 1023,-9.5 981,-9.5"/>
<text text-anchor="middle" x="1002" y="-16.5" font-family="Helvetica,sans-Serif" font-size="10.00">fprintf</text>
</a>
</g>
</g>
<!-- Node646&#45;&gt;Node647 -->
<g id="edge21" class="edge"><title>Node646&#45;&gt;Node647</title>
<path fill="none" stroke="midnightblue" d="M894.175,-19C916.68,-19 947.716,-19 970.538,-19"/>
<polygon fill="midnightblue" stroke="midnightblue" points="970.696,-22.5001 980.696,-19 970.696,-15.5001 970.696,-22.5001"/>
</g>
<!-- Node649&#45;&gt;Node631 -->
<g id="edge24" class="edge"><title>Node649&#45;&gt;Node631</title>
<path fill="none" stroke="midnightblue" d="M261.122,-81.5305C285.309,-87.5771 316.816,-95.4539 342.74,-101.935"/>
<polygon fill="midnightblue" stroke="midnightblue" points="342.188,-105.405 352.739,-104.435 343.886,-98.6137 342.188,-105.405"/>
</g>
<!-- Node649&#45;&gt;Node648 -->
<g id="edge25" class="edge"><title>Node649&#45;&gt;Node648</title>
<path fill="none" stroke="midnightblue" d="M283.652,-63.3354C301.087,-60.8448 319.979,-58.1459 336.984,-55.7166"/>
<polygon fill="midnightblue" stroke="midnightblue" points="337.894,-59.1222 347.299,-54.2431 336.904,-52.1925 337.894,-59.1222"/>
</g>
<!-- Node649&#45;&gt;Node649 -->
<g id="edge26" class="edge"><title>Node649&#45;&gt;Node649</title>
<path fill="none" stroke="midnightblue" d="M197.339,-81.7571C185.342,-90.5653 193.562,-100 222,-100 241.106,-100 251.086,-95.741 251.94,-90.2746"/>
<polygon fill="midnightblue" stroke="midnightblue" points="254.904,-88.4128 246.661,-81.7571 248.954,-92.1007 254.904,-88.4128"/>
</g>
<!-- Node649&#45;&gt;Node650 -->
<g id="edge27" class="edge"><title>Node649&#45;&gt;Node650</title>
<path fill="none" stroke="midnightblue" d="M242.33,-62.3573C261.652,-52.9764 292.381,-38.7502 320,-29 329.287,-25.7212 339.429,-22.6924 349.065,-20.0607"/>
<polygon fill="midnightblue" stroke="midnightblue" points="350.095,-23.4089 358.867,-17.4683 348.305,-16.6416 350.095,-23.4089"/>
</g>
</g>
</svg>
