<?xml version="1.0" encoding="UTF-8" standalone="no"?>
<!DOCTYPE svg PUBLIC "-//W3C//DTD SVG 1.1//EN"
 "http://www.w3.org/Graphics/SVG/1.1/DTD/svg11.dtd">
<!-- Generated by graphviz version 2.36.0 (20140111.2315)
 -->
<!-- Title: main Pages: 1 -->
<svg width="402pt" height="481pt"
 viewBox="0.00 0.00 402.00 481.22" xmlns="http://www.w3.org/2000/svg" xmlns:xlink="http://www.w3.org/1999/xlink">
<g id="graph0" class="graph" transform="scale(1 1) rotate(0) translate(4 477.223)">
<title>main</title>
<polygon fill="white" stroke="none" points="-4,4 -4,-477.223 398,-477.223 398,4 -4,4"/>
<!-- Node2 -->
<g id="node1" class="node"><title>Node2</title>
<polygon fill="#bfbfbf" stroke="black" points="0,-228.5 0,-247.5 38,-247.5 38,-228.5 0,-228.5"/>
<text text-anchor="middle" x="19" y="-235.5" font-family="Helvetica,sans-Serif" font-size="10.00">main</text>
</g>
<!-- Node3 -->
<g id="node2" class="node"><title>Node3</title>
<g id="a_node2"><a xlink:href="a00864.html#abcd3804c62bf4464f2c8de37a42e6ef8" target="_top" xlink:title="ParallelReadGraph">
<polygon fill="white" stroke="black" points="101,-418.5 101,-437.5 203,-437.5 203,-418.5 101,-418.5"/>
<text text-anchor="middle" x="152" y="-425.5" font-family="Helvetica,sans-Serif" font-size="10.00">ParallelReadGraph</text>
</a>
</g>
</g>
<!-- Node2&#45;&gt;Node3 -->
<g id="edge1" class="edge"><title>Node2&#45;&gt;Node3</title>
<path fill="none" stroke="midnightblue" d="M19.9778,-247.828C20.4721,-277.034 26.0889,-364.059 74,-409 78.993,-413.683 84.9509,-417.264 91.3107,-419.994"/>
<polygon fill="midnightblue" stroke="midnightblue" points="90.2558,-423.334 100.85,-423.415 92.6183,-416.745 90.2558,-423.334"/>
</g>
<!-- Node5 -->
<g id="node4" class="node"><title>Node5</title>
<g id="a_node4"><a xlink:href="a00077.html#ac8df62c4e3d0910711a9874f9cc58884" target="_top" xlink:title="gk_free">
<polygon fill="white" stroke="black" points="266,-437.5 266,-456.5 316,-456.5 316,-437.5 266,-437.5"/>
<text text-anchor="middle" x="291" y="-444.5" font-family="Helvetica,sans-Serif" font-size="10.00">gk_free</text>
</a>
</g>
</g>
<!-- Node2&#45;&gt;Node5 -->
<g id="edge24" class="edge"><title>Node2&#45;&gt;Node5</title>
<path fill="none" stroke="midnightblue" d="M20.9697,-247.739C24.953,-285.549 41.4076,-421.758 74,-447 126.509,-487.666 209.745,-472.065 256.061,-458.587"/>
<polygon fill="midnightblue" stroke="midnightblue" points="257.36,-461.85 265.907,-455.591 255.322,-455.154 257.36,-461.85"/>
</g>
<!-- Node6 -->
<g id="node5" class="node"><title>Node6</title>
<g id="a_node5"><a xlink:href="a00575.html#ae6aab5c308faac0fc539cc9c6da9fbd0" target="_top" xlink:title="sprintf">
<polygon fill="white" stroke="black" points="269,-285.5 269,-304.5 313,-304.5 313,-285.5 269,-285.5"/>
<text text-anchor="middle" x="291" y="-292.5" font-family="Helvetica,sans-Serif" font-size="10.00">sprintf</text>
</a>
</g>
</g>
<!-- Node2&#45;&gt;Node6 -->
<g id="edge4" class="edge"><title>Node2&#45;&gt;Node6</title>
<path fill="none" stroke="midnightblue" d="M25.4923,-247.525C33.9201,-261.064 51.4599,-285.305 74,-295 135.262,-321.351 215.646,-311.091 259.021,-302.369"/>
<polygon fill="midnightblue" stroke="midnightblue" points="259.905,-305.76 268.964,-300.265 258.456,-298.912 259.905,-305.76"/>
</g>
<!-- Node7 -->
<g id="node6" class="node"><title>Node7</title>
<g id="a_node6"><a xlink:href="a00864.html#a4c1a88b3f492be37fe35e779692fb84c" target="_top" xlink:title="ReadTestCoordinates">
<polygon fill="white" stroke="black" points="95,-380.5 95,-399.5 209,-399.5 209,-380.5 95,-380.5"/>
<text text-anchor="middle" x="152" y="-387.5" font-family="Helvetica,sans-Serif" font-size="10.00">ReadTestCoordinates</text>
</a>
</g>
</g>
<!-- Node2&#45;&gt;Node7 -->
<g id="edge5" class="edge"><title>Node2&#45;&gt;Node7</title>
<path fill="none" stroke="midnightblue" d="M20.9766,-247.751C23.9825,-272.391 35.3743,-337.563 74,-371 77.4907,-374.022 81.388,-376.578 85.5254,-378.739"/>
<polygon fill="midnightblue" stroke="midnightblue" points="84.3394,-382.04 94.9022,-382.864 87.1585,-375.633 84.3394,-382.04"/>
</g>
<!-- Node10 -->
<g id="node9" class="node"><title>Node10</title>
<g id="a_node9"><a xlink:href="a00843.html#af418d1e76eaf4f80116da4caf51bd54e" target="_top" xlink:title="ParMETIS_V3_PartKway">
<polygon fill="white" stroke="black" points="87.5,-266.5 87.5,-285.5 216.5,-285.5 216.5,-266.5 87.5,-266.5"/>
<text text-anchor="middle" x="152" y="-273.5" font-family="Helvetica,sans-Serif" font-size="10.00">ParMETIS_V3_PartKway</text>
</a>
</g>
</g>
<!-- Node2&#45;&gt;Node10 -->
<g id="edge10" class="edge"><title>Node2&#45;&gt;Node10</title>
<path fill="none" stroke="midnightblue" d="M38.3501,-244.951C48.7321,-248.759 62.001,-253.418 74,-257 82.1553,-259.435 90.8614,-261.801 99.377,-263.991"/>
<polygon fill="midnightblue" stroke="midnightblue" points="98.6897,-267.427 109.242,-266.473 100.398,-260.639 98.6897,-267.427"/>
</g>
<!-- Node11 -->
<g id="node10" class="node"><title>Node11</title>
<g id="a_node10"><a xlink:href="a00864.html#a19b5376612558b2381990f2e7a06bffc" target="_top" xlink:title="WritePVector">
<polygon fill="white" stroke="black" points="114.5,-342.5 114.5,-361.5 189.5,-361.5 189.5,-342.5 114.5,-342.5"/>
<text text-anchor="middle" x="152" y="-349.5" font-family="Helvetica,sans-Serif" font-size="10.00">WritePVector</text>
</a>
</g>
</g>
<!-- Node2&#45;&gt;Node11 -->
<g id="edge11" class="edge"><title>Node2&#45;&gt;Node11</title>
<path fill="none" stroke="midnightblue" d="M23.1784,-247.72C29.7003,-266.148 46.3532,-306.264 74,-328 82.8492,-334.957 93.7338,-339.912 104.503,-343.435"/>
<polygon fill="midnightblue" stroke="midnightblue" points="103.719,-346.852 114.299,-346.285 105.674,-340.131 103.719,-346.852"/>
</g>
<!-- Node12 -->
<g id="node11" class="node"><title>Node12</title>
<g id="a_node11"><a xlink:href="a00843.html#ad40a7809c9bdf183926da011220bad75" target="_top" xlink:title="ParMETIS_V3_RefineKway">
<polygon fill="white" stroke="black" points="82.5,-228.5 82.5,-247.5 221.5,-247.5 221.5,-228.5 82.5,-228.5"/>
<text text-anchor="middle" x="152" y="-235.5" font-family="Helvetica,sans-Serif" font-size="10.00">ParMETIS_V3_RefineKway</text>
</a>
</g>
</g>
<!-- Node2&#45;&gt;Node12 -->
<g id="edge17" class="edge"><title>Node2&#45;&gt;Node12</title>
<path fill="none" stroke="midnightblue" d="M38.215,-238C47.4791,-238 59.4454,-238 72.1093,-238"/>
<polygon fill="midnightblue" stroke="midnightblue" points="72.3768,-241.5 82.3768,-238 72.3767,-234.5 72.3768,-241.5"/>
</g>
<!-- Node13 -->
<g id="node12" class="node"><title>Node13</title>
<g id="a_node12"><a xlink:href="a00422.html#abe7cfd52605c309687e45b1d1e0d936c" target="_top" xlink:title="AdaptGraph">
<polygon fill="white" stroke="black" points="117,-190.5 117,-209.5 187,-209.5 187,-190.5 117,-190.5"/>
<text text-anchor="middle" x="152" y="-197.5" font-family="Helvetica,sans-Serif" font-size="10.00">AdaptGraph</text>
</a>
</g>
</g>
<!-- Node2&#45;&gt;Node13 -->
<g id="edge18" class="edge"><title>Node2&#45;&gt;Node13</title>
<path fill="none" stroke="midnightblue" d="M38.3501,-231.049C48.7321,-227.241 62.001,-222.582 74,-219 84.4982,-215.866 95.9092,-212.844 106.651,-210.168"/>
<polygon fill="midnightblue" stroke="midnightblue" points="107.81,-213.488 116.694,-207.716 106.149,-206.688 107.81,-213.488"/>
</g>
<!-- Node14 -->
<g id="node13" class="node"><title>Node14</title>
<g id="a_node13"><a xlink:href="a00843.html#ac00c3da2cf618cbfa9158463a851491e" target="_top" xlink:title="ParMETIS_V3_AdaptiveRepart">
<polygon fill="white" stroke="black" points="74.5,-152.5 74.5,-171.5 229.5,-171.5 229.5,-152.5 74.5,-152.5"/>
<text text-anchor="middle" x="152" y="-159.5" font-family="Helvetica,sans-Serif" font-size="10.00">ParMETIS_V3_AdaptiveRepart</text>
</a>
</g>
</g>
<!-- Node2&#45;&gt;Node14 -->
<g id="edge19" class="edge"><title>Node2&#45;&gt;Node14</title>
<path fill="none" stroke="midnightblue" d="M26.4499,-228.316C35.5177,-215.485 53.2658,-193.07 74,-181 77.8525,-178.757 81.9621,-176.778 86.2021,-175.031"/>
<polygon fill="midnightblue" stroke="midnightblue" points="87.4611,-178.298 95.6435,-171.567 85.0499,-171.726 87.4611,-178.298"/>
</g>
<!-- Node15 -->
<g id="node14" class="node"><title>Node15</title>
<g id="a_node14"><a xlink:href="a00843.html#add23df29b4f232ac4c2cca94cc083a32" target="_top" xlink:title="ParMETIS_V3_NodeND">
<polygon fill="white" stroke="black" points="90,-114.5 90,-133.5 214,-133.5 214,-114.5 90,-114.5"/>
<text text-anchor="middle" x="152" y="-121.5" font-family="Helvetica,sans-Serif" font-size="10.00">ParMETIS_V3_NodeND</text>
</a>
</g>
</g>
<!-- Node2&#45;&gt;Node15 -->
<g id="edge20" class="edge"><title>Node2&#45;&gt;Node15</title>
<path fill="none" stroke="midnightblue" d="M22.6226,-228.489C28.4486,-209.207 44.3518,-165.442 74,-143 76.4993,-141.108 79.1631,-139.403 81.9423,-137.865"/>
<polygon fill="midnightblue" stroke="midnightblue" points="83.611,-140.947 91.1508,-133.504 80.615,-134.621 83.611,-140.947"/>
</g>
<!-- Node16 -->
<g id="node15" class="node"><title>Node16</title>
<g id="a_node15"><a xlink:href="a00843.html#a8bd1a6399ac304da6616cb5329304df6" target="_top" xlink:title="ParMETIS_SerialNodeND">
<polygon fill="white" stroke="black" points="86,-76.5 86,-95.5 218,-95.5 218,-76.5 86,-76.5"/>
<text text-anchor="middle" x="152" y="-83.5" font-family="Helvetica,sans-Serif" font-size="10.00">ParMETIS_SerialNodeND</text>
</a>
</g>
</g>
<!-- Node2&#45;&gt;Node16 -->
<g id="edge21" class="edge"><title>Node2&#45;&gt;Node16</title>
<path fill="none" stroke="midnightblue" d="M20.9766,-228.249C23.9825,-203.609 35.3743,-138.437 74,-105 75.9584,-103.305 78.0448,-101.756 80.2299,-100.341"/>
<polygon fill="midnightblue" stroke="midnightblue" points="81.9728,-103.378 89.0842,-95.5241 78.6274,-97.2287 81.9728,-103.378"/>
</g>
<!-- Node17 -->
<g id="node16" class="node"><title>Node17</title>
<g id="a_node16"><a xlink:href="a00843.html#a6df93293cf3d1ccb4659bd1b3091623d" target="_top" xlink:title="ParMETIS_V3_PartGeomKway">
<polygon fill="white" stroke="black" points="74,-38.5 74,-57.5 230,-57.5 230,-38.5 74,-38.5"/>
<text text-anchor="middle" x="152" y="-45.5" font-family="Helvetica,sans-Serif" font-size="10.00">ParMETIS_V3_PartGeomKway</text>
</a>
</g>
</g>
<!-- Node2&#45;&gt;Node17 -->
<g id="edge22" class="edge"><title>Node2&#45;&gt;Node17</title>
<path fill="none" stroke="midnightblue" d="M19.9778,-228.172C20.4721,-198.966 26.0889,-111.941 74,-67 75.6727,-65.431 77.4537,-63.9857 79.3218,-62.6548"/>
<polygon fill="midnightblue" stroke="midnightblue" points="81.1778,-65.6235 88.005,-57.5217 77.6156,-59.5976 81.1778,-65.6235"/>
</g>
<!-- Node18 -->
<g id="node17" class="node"><title>Node18</title>
<g id="a_node17"><a xlink:href="a00843.html#aab31b6450a3228063206eddded9de65e" target="_top" xlink:title="ParMETIS_V3_PartGeom">
<polygon fill="white" stroke="black" points="86,-0.5 86,-19.5 218,-19.5 218,-0.5 86,-0.5"/>
<text text-anchor="middle" x="152" y="-7.5" font-family="Helvetica,sans-Serif" font-size="10.00">ParMETIS_V3_PartGeom</text>
</a>
</g>
</g>
<!-- Node2&#45;&gt;Node18 -->
<g id="edge23" class="edge"><title>Node2&#45;&gt;Node18</title>
<path fill="none" stroke="midnightblue" d="M21.1645,-228.483C25.8766,-191.505 44.6915,-57.9901 74,-29 75.4317,-27.5839 76.9511,-26.2676 78.5435,-25.0442"/>
<polygon fill="midnightblue" stroke="midnightblue" points="80.4622,-27.9721 87.0462,-19.6714 76.7228,-22.0545 80.4622,-27.9721"/>
</g>
<!-- Node4 -->
<g id="node3" class="node"><title>Node4</title>
<g id="a_node3"><a xlink:href="a01017.html#a355ed4cdac2a27aa04a6689ac2d7e86e" target="_top" xlink:title="fclose">
<polygon fill="white" stroke="black" points="269.5,-399.5 269.5,-418.5 312.5,-418.5 312.5,-399.5 269.5,-399.5"/>
<text text-anchor="middle" x="291" y="-406.5" font-family="Helvetica,sans-Serif" font-size="10.00">fclose</text>
</a>
</g>
</g>
<!-- Node3&#45;&gt;Node4 -->
<g id="edge2" class="edge"><title>Node3&#45;&gt;Node4</title>
<path fill="none" stroke="midnightblue" d="M203.236,-421.033C222.029,-418.427 242.801,-415.546 259.308,-413.257"/>
<polygon fill="midnightblue" stroke="midnightblue" points="260.051,-416.687 269.476,-411.846 259.09,-409.753 260.051,-416.687"/>
</g>
<!-- Node3&#45;&gt;Node5 -->
<g id="edge3" class="edge"><title>Node3&#45;&gt;Node5</title>
<path fill="none" stroke="midnightblue" d="M203.236,-434.967C220.776,-437.4 240.04,-440.071 255.952,-442.278"/>
<polygon fill="midnightblue" stroke="midnightblue" points="255.486,-445.747 265.872,-443.654 256.447,-438.813 255.486,-445.747"/>
</g>
<!-- Node7&#45;&gt;Node4 -->
<g id="edge8" class="edge"><title>Node7&#45;&gt;Node4</title>
<path fill="none" stroke="midnightblue" d="M209.118,-397.783C226.244,-400.158 244.437,-402.681 259.223,-404.732"/>
<polygon fill="midnightblue" stroke="midnightblue" points="258.937,-408.225 269.323,-406.132 259.898,-401.292 258.937,-408.225"/>
</g>
<!-- Node7&#45;&gt;Node5 -->
<g id="edge9" class="edge"><title>Node7&#45;&gt;Node5</title>
<path fill="none" stroke="midnightblue" d="M201.837,-399.525C211.361,-402.084 221.135,-405.218 230,-409 243.781,-414.879 257.998,-423.739 269.132,-431.425"/>
<polygon fill="midnightblue" stroke="midnightblue" points="267.155,-434.314 277.333,-437.258 271.213,-428.61 267.155,-434.314"/>
</g>
<!-- Node8 -->
<g id="node7" class="node"><title>Node8</title>
<g id="a_node7"><a xlink:href="a00026.html#a56d0f2cc40cd8633a784582d6200d8b5" target="_top" xlink:title="errexit">
<polygon fill="white" stroke="black" points="269,-361.5 269,-380.5 313,-380.5 313,-361.5 269,-361.5"/>
<text text-anchor="middle" x="291" y="-368.5" font-family="Helvetica,sans-Serif" font-size="10.00">errexit</text>
</a>
</g>
</g>
<!-- Node7&#45;&gt;Node8 -->
<g id="edge6" class="edge"><title>Node7&#45;&gt;Node8</title>
<path fill="none" stroke="midnightblue" d="M209.118,-382.217C226.125,-379.859 244.184,-377.354 258.914,-375.311"/>
<polygon fill="midnightblue" stroke="midnightblue" points="259.564,-378.755 268.989,-373.914 258.603,-371.821 259.564,-378.755"/>
</g>
<!-- Node9 -->
<g id="node8" class="node"><title>Node9</title>
<g id="a_node8"><a xlink:href="a01017.html#a2e311a777ffe9c80e405efa7cd2757be" target="_top" xlink:title="fprintf">
<polygon fill="white" stroke="black" points="352,-342.5 352,-361.5 394,-361.5 394,-342.5 352,-342.5"/>
<text text-anchor="middle" x="373" y="-349.5" font-family="Helvetica,sans-Serif" font-size="10.00">fprintf</text>
</a>
</g>
</g>
<!-- Node8&#45;&gt;Node9 -->
<g id="edge7" class="edge"><title>Node8&#45;&gt;Node9</title>
<path fill="none" stroke="midnightblue" d="M313.019,-366.008C321.858,-363.909 332.308,-361.427 341.937,-359.14"/>
<polygon fill="midnightblue" stroke="midnightblue" points="343.028,-362.478 351.948,-356.762 341.41,-355.668 343.028,-362.478"/>
</g>
<!-- Node11&#45;&gt;Node4 -->
<g id="edge16" class="edge"><title>Node11&#45;&gt;Node4</title>
<path fill="none" stroke="midnightblue" d="M189.823,-358.548C202.816,-361.516 217.335,-365.597 230,-371 243.781,-376.879 257.998,-385.739 269.132,-393.425"/>
<polygon fill="midnightblue" stroke="midnightblue" points="267.155,-396.314 277.333,-399.258 271.213,-390.61 267.155,-396.314"/>
</g>
<!-- Node11&#45;&gt;Node5 -->
<g id="edge15" class="edge"><title>Node11&#45;&gt;Node5</title>
<path fill="none" stroke="midnightblue" d="M189.525,-355.208C203.212,-357.829 218.273,-362.544 230,-371 254.304,-388.524 245.969,-405.717 266,-428 266.746,-428.83 267.531,-429.652 268.344,-430.461"/>
<polygon fill="midnightblue" stroke="midnightblue" points="266.28,-433.307 276.098,-437.29 270.907,-428.054 266.28,-433.307"/>
</g>
<!-- Node11&#45;&gt;Node6 -->
<g id="edge12" class="edge"><title>Node11&#45;&gt;Node6</title>
<path fill="none" stroke="midnightblue" d="M188.803,-342.468C201.966,-338.541 216.859,-333.595 230,-328 242.182,-322.813 255.121,-315.894 265.853,-309.731"/>
<polygon fill="midnightblue" stroke="midnightblue" points="267.788,-312.653 274.64,-304.572 264.244,-306.616 267.788,-312.653"/>
</g>
<!-- Node11&#45;&gt;Node8 -->
<g id="edge13" class="edge"><title>Node11&#45;&gt;Node8</title>
<path fill="none" stroke="midnightblue" d="M189.713,-357.092C211.312,-360.087 238.327,-363.834 258.876,-366.684"/>
<polygon fill="midnightblue" stroke="midnightblue" points="258.583,-370.176 268.969,-368.083 259.544,-363.243 258.583,-370.176"/>
</g>
<!-- Node11&#45;&gt;Node9 -->
<g id="edge14" class="edge"><title>Node11&#45;&gt;Node9</title>
<path fill="none" stroke="midnightblue" d="M189.656,-352C232.375,-352 302.166,-352 341.87,-352"/>
<polygon fill="midnightblue" stroke="midnightblue" points="341.988,-355.5 351.988,-352 341.988,-348.5 341.988,-355.5"/>
</g>
</g>
</svg>
