<?xml version="1.0" encoding="UTF-8" standalone="no"?>
<!DOCTYPE svg PUBLIC "-//W3C//DTD SVG 1.1//EN"
 "http://www.w3.org/Graphics/SVG/1.1/DTD/svg11.dtd">
<!-- Generated by graphviz version 2.36.0 (20140111.2315)
 -->
<!-- Title: MlevelNodeBisectionL2 Pages: 1 -->
<!--zoomable 180 -->
<svg id="main" version="1.1" xmlns="http://www.w3.org/2000/svg" xmlns:xlink="http://www.w3.org/1999/xlink" xml:space="preserve" onload="init(evt)">
<style type="text/css"><![CDATA[
.edge:hover path { stroke: red; }
.edge:hover polygon { stroke: red; fill: red; }
]]></style>
<script type="text/javascript"><![CDATA[
var edges = document.getElementsByTagName('g');
if (edges && edges.length) {
  for (var i=0;i<edges.length;i++) {
    if (edges[i].id.substr(0,4)=='edge') {
      edges[i].setAttribute('class','edge');
    }
  }
}
]]></script>
        <defs>
                <circle id="rim" cx="0" cy="0" r="7"/>
                <circle id="rim2" cx="0" cy="0" r="3.5"/>
                <g id="zoomPlus">
                        <use xlink:href="#rim" fill="#404040">
                                <set attributeName="fill" to="#808080" begin="zoomplus.mouseover" end="zoomplus.mouseout"/>
                        </use>
                        <path d="M-4,0h8M0,-4v8" fill="none" stroke="white" stroke-width="1.5" pointer-events="none"/>
                </g>
                <g id="zoomMin">
                        <use xlink:href="#rim" fill="#404040">
                                <set attributeName="fill" to="#808080" begin="zoomminus.mouseover" end="zoomminus.mouseout"/>
                        </use>
                        <path d="M-4,0h8" fill="none" stroke="white" stroke-width="1.5" pointer-events="none"/>
                </g>
                <g id="dirArrow">
                        <path fill="none" stroke="white" stroke-width="1.5" d="M0,-3.0v7 M-2.5,-0.5L0,-3.0L2.5,-0.5"/>
                </g>
               <g id="resetDef">
                       <use xlink:href="#rim2" fill="#404040">
                               <set attributeName="fill" to="#808080" begin="reset.mouseover" end="reset.mouseout"/>
                       </use>
               </g>
        </defs>

<script type="text/javascript">
var viewWidth = 884;
var viewHeight = 180;
var sectionId = 'dynsection-115';
</script>
<script xlink:href="svgpan.js"/>
<svg id="graph" class="graph">
<g id="viewport">
<title>MlevelNodeBisectionL2</title>
<polygon fill="white" stroke="none" points="-4,4 -4,-176 880,-176 880,4 -4,4"/>
<!-- Node695 -->
<g id="node1" class="node"><title>Node695</title>
<polygon fill="#bfbfbf" stroke="black" points="0.5,-95.5 0.5,-114.5 121.5,-114.5 121.5,-95.5 0.5,-95.5"/>
<text text-anchor="middle" x="61" y="-102.5" font-family="Helvetica,sans-Serif" font-size="10.00">MlevelNodeBisectionL2</text>
</g>
<!-- Node696 -->
<g id="node2" class="node"><title>Node696</title>
<g id="a_node2"><a xlink:href="a00936.html#aeeaa7f4ed9878ae2f7faff0e2402fd87" target="_top" xlink:title="MlevelNodeBisectionL1">
<polygon fill="white" stroke="black" points="158.5,-114.5 158.5,-133.5 279.5,-133.5 279.5,-114.5 158.5,-114.5"/>
<text text-anchor="middle" x="219" y="-121.5" font-family="Helvetica,sans-Serif" font-size="10.00">MlevelNodeBisectionL1</text>
</a>
</g>
</g>
<!-- Node695&#45;&gt;Node696 -->
<g id="edge1" class="edge"><title>Node695&#45;&gt;Node696</title>
<path fill="none" stroke="midnightblue" d="M121.868,-112.292C130.452,-113.337 139.346,-114.42 148.103,-115.487"/>
<polygon fill="midnightblue" stroke="midnightblue" points="147.943,-118.993 158.293,-116.728 148.789,-112.045 147.943,-118.993"/>
</g>
<!-- Node697 -->
<g id="node3" class="node"><title>Node697</title>
<g id="a_node3"><a xlink:href="a00182.html#afa83320e3b311e0feef90d0bf4303716" target="_top" xlink:title="CoarsenGraphNlevels">
<polygon fill="white" stroke="black" points="161.5,-76.5 161.5,-95.5 276.5,-95.5 276.5,-76.5 161.5,-76.5"/>
<text text-anchor="middle" x="219" y="-83.5" font-family="Helvetica,sans-Serif" font-size="10.00">CoarsenGraphNlevels</text>
</a>
</g>
</g>
<!-- Node695&#45;&gt;Node697 -->
<g id="edge2" class="edge"><title>Node695&#45;&gt;Node697</title>
<path fill="none" stroke="midnightblue" d="M121.868,-97.7084C131.497,-96.5356 141.517,-95.3153 151.295,-94.1244"/>
<polygon fill="midnightblue" stroke="midnightblue" points="151.867,-97.5806 161.37,-92.8972 151.02,-90.632 151.867,-97.5806"/>
</g>
<!-- Node698 -->
<g id="node4" class="node"><title>Node698</title>
<g id="a_node4"><a xlink:href="a00623.html#ad1e7380d51df1e0043d24d3c8a860e0a" target="_top" xlink:title="for">
<polygon fill="white" stroke="black" points="349.5,-152.5 349.5,-171.5 378.5,-171.5 378.5,-152.5 349.5,-152.5"/>
<text text-anchor="middle" x="364" y="-159.5" font-family="Helvetica,sans-Serif" font-size="10.00">for</text>
</a>
</g>
</g>
<!-- Node697&#45;&gt;Node698 -->
<g id="edge3" class="edge"><title>Node697&#45;&gt;Node698</title>
<path fill="none" stroke="midnightblue" d="M259.992,-95.5369C266.94,-98.0551 273.888,-101.172 280,-105 299.717,-117.349 296.777,-129.897 316,-143 323.261,-147.949 332.008,-151.928 339.976,-154.941"/>
<polygon fill="midnightblue" stroke="midnightblue" points="338.889,-158.268 349.484,-158.24 341.184,-151.655 338.889,-158.268"/>
</g>
<!-- Node699 -->
<g id="node5" class="node"><title>Node699</title>
<g id="a_node5"><a xlink:href="a00182.html#aac3e480e7e3bd02bfdf001d858a93562" target="_top" xlink:title="PrintCGraphStats">
<polygon fill="white" stroke="black" points="316.5,-114.5 316.5,-133.5 411.5,-133.5 411.5,-114.5 316.5,-114.5"/>
<text text-anchor="middle" x="364" y="-121.5" font-family="Helvetica,sans-Serif" font-size="10.00">PrintCGraphStats</text>
</a>
</g>
</g>
<!-- Node697&#45;&gt;Node699 -->
<g id="edge4" class="edge"><title>Node697&#45;&gt;Node699</title>
<path fill="none" stroke="midnightblue" d="M256.085,-95.589C274.63,-100.517 297.426,-106.575 317.199,-111.829"/>
<polygon fill="midnightblue" stroke="midnightblue" points="316.363,-115.228 326.927,-114.414 318.161,-108.463 316.363,-115.228"/>
</g>
<!-- Node700 -->
<g id="node6" class="node"><title>Node700</title>
<g id="a_node6"><a xlink:href="a00182.html#a892d2ea16d613abc2276ad5fc6999724" target="_top" xlink:title="Match_RM">
<polygon fill="white" stroke="black" points="331.5,-38.5 331.5,-57.5 396.5,-57.5 396.5,-38.5 331.5,-38.5"/>
<text text-anchor="middle" x="364" y="-45.5" font-family="Helvetica,sans-Serif" font-size="10.00">Match_RM</text>
</a>
</g>
</g>
<!-- Node697&#45;&gt;Node700 -->
<g id="edge5" class="edge"><title>Node697&#45;&gt;Node700</title>
<path fill="none" stroke="midnightblue" d="M256.085,-76.411C275.994,-71.1204 300.804,-64.5275 321.512,-59.0249"/>
<polygon fill="midnightblue" stroke="midnightblue" points="322.542,-62.3725 331.308,-56.4216 320.745,-55.6073 322.542,-62.3725"/>
</g>
<!-- Node708 -->
<g id="node14" class="node"><title>Node708</title>
<g id="a_node14"><a xlink:href="a00182.html#af3ec72f3170ccdca06d8ad018d86cc58" target="_top" xlink:title="Match_SHEM">
<polygon fill="white" stroke="black" points="325,-76.5 325,-95.5 403,-95.5 403,-76.5 325,-76.5"/>
<text text-anchor="middle" x="364" y="-83.5" font-family="Helvetica,sans-Serif" font-size="10.00">Match_SHEM</text>
</a>
</g>
</g>
<!-- Node697&#45;&gt;Node708 -->
<g id="edge15" class="edge"><title>Node697&#45;&gt;Node708</title>
<path fill="none" stroke="midnightblue" d="M276.517,-86C289.203,-86 302.548,-86 314.856,-86"/>
<polygon fill="midnightblue" stroke="midnightblue" points="314.913,-89.5001 324.913,-86 314.913,-82.5001 314.913,-89.5001"/>
</g>
<!-- Node709 -->
<g id="node15" class="node"><title>Node709</title>
<g id="a_node15"><a xlink:href="a00026.html#a4c320c13bcdc9967613253ef4c73f59f" target="_top" xlink:title="gk_errexit">
<polygon fill="white" stroke="black" points="334,-0.5 334,-19.5 394,-19.5 394,-0.5 334,-0.5"/>
<text text-anchor="middle" x="364" y="-7.5" font-family="Helvetica,sans-Serif" font-size="10.00">gk_errexit</text>
</a>
</g>
</g>
<!-- Node697&#45;&gt;Node709 -->
<g id="edge18" class="edge"><title>Node697&#45;&gt;Node709</title>
<path fill="none" stroke="midnightblue" d="M234.576,-76.397C253.06,-64.4435 286.126,-43.8005 316,-29 319.815,-27.1099 323.867,-25.2557 327.929,-23.4912"/>
<polygon fill="midnightblue" stroke="midnightblue" points="329.446,-26.6504 337.321,-19.5626 326.745,-20.1926 329.446,-26.6504"/>
</g>
<!-- Node701 -->
<g id="node7" class="node"><title>Node701</title>
<g id="a_node7"><a xlink:href="a00182.html#aead846b2c69509c914426ff087509934" target="_top" xlink:title="Match_2Hop">
<polygon fill="white" stroke="black" points="465.5,-38.5 465.5,-57.5 538.5,-57.5 538.5,-38.5 465.5,-38.5"/>
<text text-anchor="middle" x="502" y="-45.5" font-family="Helvetica,sans-Serif" font-size="10.00">Match_2Hop</text>
</a>
</g>
</g>
<!-- Node700&#45;&gt;Node701 -->
<g id="edge6" class="edge"><title>Node700&#45;&gt;Node701</title>
<path fill="none" stroke="midnightblue" d="M396.543,-48C413.97,-48 435.932,-48 455.216,-48"/>
<polygon fill="midnightblue" stroke="midnightblue" points="455.312,-51.5001 465.312,-48 455.312,-44.5001 455.312,-51.5001"/>
</g>
<!-- Node704 -->
<g id="node10" class="node"><title>Node704</title>
<g id="a_node10"><a xlink:href="a00182.html#aac8820421b1c25698140c1b470c50e07" target="_top" xlink:title="CreateCoarseGraph">
<polygon fill="white" stroke="black" points="448.5,-76.5 448.5,-95.5 555.5,-95.5 555.5,-76.5 448.5,-76.5"/>
<text text-anchor="middle" x="502" y="-83.5" font-family="Helvetica,sans-Serif" font-size="10.00">CreateCoarseGraph</text>
</a>
</g>
</g>
<!-- Node700&#45;&gt;Node704 -->
<g id="edge9" class="edge"><title>Node700&#45;&gt;Node704</title>
<path fill="none" stroke="midnightblue" d="M396.543,-56.8135C414.533,-61.8401 437.357,-68.2173 457.078,-73.7276"/>
<polygon fill="midnightblue" stroke="midnightblue" points="456.196,-77.1153 466.769,-76.4355 458.08,-70.3735 456.196,-77.1153"/>
</g>
<!-- Node702 -->
<g id="node8" class="node"><title>Node702</title>
<g id="a_node8"><a xlink:href="a00182.html#a838a4013e3b5cc5278ecc7a8757ce0ef" target="_top" xlink:title="Match_2HopAny">
<polygon fill="white" stroke="black" points="619,-0.5 619,-19.5 709,-19.5 709,-0.5 619,-0.5"/>
<text text-anchor="middle" x="664" y="-7.5" font-family="Helvetica,sans-Serif" font-size="10.00">Match_2HopAny</text>
</a>
</g>
</g>
<!-- Node701&#45;&gt;Node702 -->
<g id="edge7" class="edge"><title>Node701&#45;&gt;Node702</title>
<path fill="none" stroke="midnightblue" d="M538.509,-39.5666C560.34,-34.3817 588.652,-27.6576 612.76,-21.9321"/>
<polygon fill="midnightblue" stroke="midnightblue" points="613.882,-25.2629 622.803,-19.5468 612.265,-18.4524 613.882,-25.2629"/>
</g>
<!-- Node703 -->
<g id="node9" class="node"><title>Node703</title>
<g id="a_node9"><a xlink:href="a00182.html#aa56d53cace160be27fb1750dcaffbc04" target="_top" xlink:title="Match_2HopAll">
<polygon fill="white" stroke="black" points="622,-38.5 622,-57.5 706,-57.5 706,-38.5 622,-38.5"/>
<text text-anchor="middle" x="664" y="-45.5" font-family="Helvetica,sans-Serif" font-size="10.00">Match_2HopAll</text>
</a>
</g>
</g>
<!-- Node701&#45;&gt;Node703 -->
<g id="edge8" class="edge"><title>Node701&#45;&gt;Node703</title>
<path fill="none" stroke="midnightblue" d="M538.509,-48C560.002,-48 587.777,-48 611.637,-48"/>
<polygon fill="midnightblue" stroke="midnightblue" points="611.939,-51.5001 621.939,-48 611.939,-44.5001 611.939,-51.5001"/>
</g>
<!-- Node705 -->
<g id="node11" class="node"><title>Node705</title>
<g id="a_node11"><a xlink:href="a00182.html#a70dc59d4c7190507e7ad9a4cc0d80707" target="_top" xlink:title="CreateCoarseGraphNoMask">
<polygon fill="white" stroke="black" points="592.5,-114.5 592.5,-133.5 735.5,-133.5 735.5,-114.5 592.5,-114.5"/>
<text text-anchor="middle" x="664" y="-121.5" font-family="Helvetica,sans-Serif" font-size="10.00">CreateCoarseGraphNoMask</text>
</a>
</g>
</g>
<!-- Node704&#45;&gt;Node705 -->
<g id="edge10" class="edge"><title>Node704&#45;&gt;Node705</title>
<path fill="none" stroke="midnightblue" d="M543.375,-95.589C564.488,-100.604 590.529,-106.788 612.917,-112.105"/>
<polygon fill="midnightblue" stroke="midnightblue" points="612.377,-115.574 622.916,-114.48 613.995,-108.764 612.377,-115.574"/>
</g>
<!-- Node706 -->
<g id="node12" class="node"><title>Node706</title>
<g id="a_node12"><a xlink:href="a00182.html#a113522304bf628b09d0b69b4db05050e" target="_top" xlink:title="SetupCoarseGraph">
<polygon fill="white" stroke="black" points="772.5,-142.5 772.5,-161.5 875.5,-161.5 875.5,-142.5 772.5,-142.5"/>
<text text-anchor="middle" x="824" y="-149.5" font-family="Helvetica,sans-Serif" font-size="10.00">SetupCoarseGraph</text>
</a>
</g>
</g>
<!-- Node704&#45;&gt;Node706 -->
<g id="edge13" class="edge"><title>Node704&#45;&gt;Node706</title>
<path fill="none" stroke="midnightblue" d="M513.807,-95.6974C529.637,-109.213 560.665,-133.159 592,-143 647.65,-160.476 714.566,-161.01 762.019,-158.206"/>
<polygon fill="midnightblue" stroke="midnightblue" points="762.389,-161.689 772.138,-157.54 761.93,-154.704 762.389,-161.689"/>
</g>
<!-- Node707 -->
<g id="node13" class="node"><title>Node707</title>
<g id="a_node13"><a xlink:href="a00182.html#ab69ab96ec78174da232dff05e9c79d2f" target="_top" xlink:title="ReAdjustMemory">
<polygon fill="white" stroke="black" points="777.5,-85.5 777.5,-104.5 870.5,-104.5 870.5,-85.5 777.5,-85.5"/>
<text text-anchor="middle" x="824" y="-92.5" font-family="Helvetica,sans-Serif" font-size="10.00">ReAdjustMemory</text>
</a>
</g>
</g>
<!-- Node704&#45;&gt;Node707 -->
<g id="edge14" class="edge"><title>Node704&#45;&gt;Node707</title>
<path fill="none" stroke="midnightblue" d="M555.841,-87.4862C614.119,-89.1252 707.498,-91.7515 767.006,-93.4252"/>
<polygon fill="midnightblue" stroke="midnightblue" points="767.249,-96.9333 777.343,-93.7159 767.445,-89.936 767.249,-96.9333"/>
</g>
<!-- Node705&#45;&gt;Node706 -->
<g id="edge11" class="edge"><title>Node705&#45;&gt;Node706</title>
<path fill="none" stroke="midnightblue" d="M718.933,-133.558C732.817,-136.018 747.853,-138.683 762.065,-141.201"/>
<polygon fill="midnightblue" stroke="midnightblue" points="761.782,-144.706 772.239,-143.004 763.004,-137.813 761.782,-144.706"/>
</g>
<!-- Node705&#45;&gt;Node707 -->
<g id="edge12" class="edge"><title>Node705&#45;&gt;Node707</title>
<path fill="none" stroke="midnightblue" d="M717.173,-114.424C733.251,-111.473 751.012,-108.213 767.317,-105.22"/>
<polygon fill="midnightblue" stroke="midnightblue" points="768.05,-108.644 777.253,-103.397 766.786,-101.759 768.05,-108.644"/>
</g>
<!-- Node708&#45;&gt;Node701 -->
<g id="edge16" class="edge"><title>Node708&#45;&gt;Node701</title>
<path fill="none" stroke="midnightblue" d="M399.319,-76.411C416.794,-71.5281 438.241,-65.5357 456.925,-60.315"/>
<polygon fill="midnightblue" stroke="midnightblue" points="458.003,-63.6479 466.692,-57.5859 456.119,-56.9062 458.003,-63.6479"/>
</g>
<!-- Node708&#45;&gt;Node704 -->
<g id="edge17" class="edge"><title>Node708&#45;&gt;Node704</title>
<path fill="none" stroke="midnightblue" d="M403.246,-86C414.062,-86 426.129,-86 437.993,-86"/>
<polygon fill="midnightblue" stroke="midnightblue" points="438.329,-89.5001 448.329,-86 438.329,-82.5001 438.329,-89.5001"/>
</g>
<!-- Node710 -->
<g id="node16" class="node"><title>Node710</title>
<g id="a_node16"><a xlink:href="a01017.html#a2e311a777ffe9c80e405efa7cd2757be" target="_top" xlink:title="fprintf">
<polygon fill="white" stroke="black" points="481,-0.5 481,-19.5 523,-19.5 523,-0.5 481,-0.5"/>
<text text-anchor="middle" x="502" y="-7.5" font-family="Helvetica,sans-Serif" font-size="10.00">fprintf</text>
</a>
</g>
</g>
<!-- Node709&#45;&gt;Node710 -->
<g id="edge19" class="edge"><title>Node709&#45;&gt;Node710</title>
<path fill="none" stroke="midnightblue" d="M394.175,-10C416.68,-10 447.716,-10 470.538,-10"/>
<polygon fill="midnightblue" stroke="midnightblue" points="470.696,-13.5001 480.696,-10 470.696,-6.5001 470.696,-13.5001"/>
</g>
</g>
</svg>
        <g id="navigator" transform="translate(0 0)" fill="#404254">
                <rect fill="#f2f5e9" fill-opacity="0.5" stroke="#606060" stroke-width=".5" x="0" y="0" width="60" height="60"/>
                <use id="zoomplus" xlink:href="#zoomPlus" x="17" y="9" onmousedown="handleZoom(evt,'in')"/>
                <use id="zoomminus" xlink:href="#zoomMin" x="42" y="9" onmousedown="handleZoom(evt,'out')"/>
                <use id="reset" xlink:href="#resetDef" x="30" y="36" onmousedown="handleReset()"/>
                <g id="arrowUp" xlink:href="#dirArrow" transform="translate(30 24)" onmousedown="handlePan(0,-1)">
                  <use xlink:href="#rim" fill="#404040">
                        <set attributeName="fill" to="#808080" begin="arrowUp.mouseover" end="arrowUp.mouseout"/>
                  </use>
                  <path fill="none" stroke="white" stroke-width="1.5" d="M0,-3.0v7 M-2.5,-0.5L0,-3.0L2.5,-0.5"/>
                </g>
                <g id="arrowRight" xlink:href="#dirArrow" transform="rotate(90) translate(36 -43)" onmousedown="handlePan(1,0)">
                  <use xlink:href="#rim" fill="#404040">
                        <set attributeName="fill" to="#808080" begin="arrowRight.mouseover" end="arrowRight.mouseout"/>
                  </use>
                  <path fill="none" stroke="white" stroke-width="1.5" d="M0,-3.0v7 M-2.5,-0.5L0,-3.0L2.5,-0.5"/>
                </g>
                <g id="arrowDown" xlink:href="#dirArrow" transform="rotate(180) translate(-30 -48)" onmousedown="handlePan(0,1)">
                  <use xlink:href="#rim" fill="#404040">
                        <set attributeName="fill" to="#808080" begin="arrowDown.mouseover" end="arrowDown.mouseout"/>
                  </use>
                  <path fill="none" stroke="white" stroke-width="1.5" d="M0,-3.0v7 M-2.5,-0.5L0,-3.0L2.5,-0.5"/>
                </g>
                <g id="arrowLeft" xlink:href="#dirArrow" transform="rotate(270) translate(-36 17)" onmousedown="handlePan(-1,0)">
                  <use xlink:href="#rim" fill="#404040">
                        <set attributeName="fill" to="#808080" begin="arrowLeft.mouseover" end="arrowLeft.mouseout"/>
                  </use>
                  <path fill="none" stroke="white" stroke-width="1.5" d="M0,-3.0v7 M-2.5,-0.5L0,-3.0L2.5,-0.5"/>
                </g>
        </g>
        <svg viewBox="0 0 15 15" width="100%" height="30px" preserveAspectRatio="xMaxYMin meet">
         <g id="arrow_out" transform="scale(0.3 0.3)">
          <a xlink:href="a00948_ac3a0eaeefa34a3865a0be5bb70bd958f_cgraph_org.svg" target="_base">
           <rect id="button" ry="5" rx="5" y="6" x="6" height="38" width="38"
                fill="#f2f5e9" fill-opacity="0.5" stroke="#606060" stroke-width="1.0"/>
           <path id="arrow"
             d="M 11.500037,31.436501 C 11.940474,20.09759 22.043105,11.32322 32.158766,21.979434 L 37.068811,17.246167 C 37.068811,17.246167 37.088388,32 37.088388,32 L 22.160133,31.978069 C 22.160133,31.978069 26.997745,27.140456 26.997745,27.140456 C 18.528582,18.264221 13.291696,25.230495 11.500037,31.436501 z"
             style="fill:#404040;"/>
          </a>
         </g>
        </svg>
</svg>
