<?xml version="1.0" encoding="UTF-8" standalone="no"?>
<!DOCTYPE svg PUBLIC "-//W3C//DTD SVG 1.1//EN"
 "http://www.w3.org/Graphics/SVG/1.1/DTD/svg11.dtd">
<!-- Generated by graphviz version 2.36.0 (20140111.2315)
 -->
<!-- Title: InitKWayPartitioning Pages: 1 -->
<!--zoomable 236 -->
<svg id="main" version="1.1" xmlns="http://www.w3.org/2000/svg" xmlns:xlink="http://www.w3.org/1999/xlink" xml:space="preserve" onload="init(evt)">
<style type="text/css"><![CDATA[
.edge:hover path { stroke: red; }
.edge:hover polygon { stroke: red; fill: red; }
]]></style>
<script type="text/javascript"><![CDATA[
var edges = document.getElementsByTagName('g');
if (edges && edges.length) {
  for (var i=0;i<edges.length;i++) {
    if (edges[i].id.substr(0,4)=='edge') {
      edges[i].setAttribute('class','edge');
    }
  }
}
]]></script>
        <defs>
                <circle id="rim" cx="0" cy="0" r="7"/>
                <circle id="rim2" cx="0" cy="0" r="3.5"/>
                <g id="zoomPlus">
                        <use xlink:href="#rim" fill="#404040">
                                <set attributeName="fill" to="#808080" begin="zoomplus.mouseover" end="zoomplus.mouseout"/>
                        </use>
                        <path d="M-4,0h8M0,-4v8" fill="none" stroke="white" stroke-width="1.5" pointer-events="none"/>
                </g>
                <g id="zoomMin">
                        <use xlink:href="#rim" fill="#404040">
                                <set attributeName="fill" to="#808080" begin="zoomminus.mouseover" end="zoomminus.mouseout"/>
                        </use>
                        <path d="M-4,0h8" fill="none" stroke="white" stroke-width="1.5" pointer-events="none"/>
                </g>
                <g id="dirArrow">
                        <path fill="none" stroke="white" stroke-width="1.5" d="M0,-3.0v7 M-2.5,-0.5L0,-3.0L2.5,-0.5"/>
                </g>
               <g id="resetDef">
                       <use xlink:href="#rim2" fill="#404040">
                               <set attributeName="fill" to="#808080" begin="reset.mouseover" end="reset.mouseout"/>
                       </use>
               </g>
        </defs>

<script type="text/javascript">
var viewWidth = 584;
var viewHeight = 236;
var sectionId = 'dynsection-77';
</script>
<script xlink:href="svgpan.js"/>
<svg id="graph" class="graph">
<g id="viewport">
<title>InitKWayPartitioning</title>
<polygon fill="white" stroke="none" points="-4,4 -4,-232 580,-232 580,4 -4,4"/>
<!-- Node416 -->
<g id="node1" class="node"><title>Node416</title>
<polygon fill="#bfbfbf" stroke="black" points="0.5,-85.5 0.5,-104.5 107.5,-104.5 107.5,-85.5 0.5,-85.5"/>
<text text-anchor="middle" x="54" y="-92.5" font-family="Helvetica,sans-Serif" font-size="10.00">InitKWayPartitioning</text>
</g>
<!-- Node417 -->
<g id="node2" class="node"><title>Node417</title>
<g id="a_node2"><a xlink:href="a00170.html#abea67bb0c6286795ac5fc9bee605dc5d" target="_top" xlink:title="METIS_SetDefaultOptions">
<polygon fill="white" stroke="black" points="149,-142.5 149,-161.5 283,-161.5 283,-142.5 149,-142.5"/>
<text text-anchor="middle" x="216" y="-149.5" font-family="Helvetica,sans-Serif" font-size="10.00">METIS_SetDefaultOptions</text>
</a>
</g>
</g>
<!-- Node416&#45;&gt;Node417 -->
<g id="edge1" class="edge"><title>Node416&#45;&gt;Node417</title>
<path fill="none" stroke="midnightblue" d="M75.1796,-104.592C93.0115,-112.831 119.861,-124.664 144,-133 150.882,-135.377 158.224,-137.638 165.479,-139.717"/>
<polygon fill="midnightblue" stroke="midnightblue" points="164.694,-143.131 175.266,-142.433 166.566,-136.386 164.694,-143.131"/>
</g>
<!-- Node418 -->
<g id="node3" class="node"><title>Node418</title>
<g id="a_node3"><a xlink:href="a00260.html#a25fc90fd934931239b3c98ac4bdbce76" target="_top" xlink:title="Recursive partitioning routine. ">
<polygon fill="white" stroke="black" points="144.5,-104.5 144.5,-123.5 287.5,-123.5 287.5,-104.5 144.5,-104.5"/>
<text text-anchor="middle" x="216" y="-111.5" font-family="Helvetica,sans-Serif" font-size="10.00">METIS_PartGraphRecursive</text>
</a>
</g>
</g>
<!-- Node416&#45;&gt;Node418 -->
<g id="edge2" class="edge"><title>Node416&#45;&gt;Node418</title>
<path fill="none" stroke="midnightblue" d="M107.833,-101.274C116.299,-102.279 125.224,-103.339 134.164,-104.401"/>
<polygon fill="midnightblue" stroke="midnightblue" points="133.896,-107.893 144.239,-105.597 134.722,-100.942 133.896,-107.893"/>
</g>
<!-- Node426 -->
<g id="node11" class="node"><title>Node426</title>
<g id="a_node11"><a xlink:href="a00026.html#a4c320c13bcdc9967613253ef4c73f59f" target="_top" xlink:title="gk_errexit">
<polygon fill="white" stroke="black" points="186,-66.5 186,-85.5 246,-85.5 246,-66.5 186,-66.5"/>
<text text-anchor="middle" x="216" y="-73.5" font-family="Helvetica,sans-Serif" font-size="10.00">gk_errexit</text>
</a>
</g>
</g>
<!-- Node416&#45;&gt;Node426 -->
<g id="edge11" class="edge"><title>Node416&#45;&gt;Node426</title>
<path fill="none" stroke="midnightblue" d="M107.833,-88.726C129.847,-86.1119 154.975,-83.128 175.363,-80.7068"/>
<polygon fill="midnightblue" stroke="midnightblue" points="176.034,-84.1519 185.552,-79.497 175.209,-77.2007 176.034,-84.1519"/>
</g>
<!-- Node428 -->
<g id="node13" class="node"><title>Node428</title>
<g id="a_node13"><a xlink:href="a00077.html#ac8df62c4e3d0910711a9874f9cc58884" target="_top" xlink:title="gk_free">
<polygon fill="white" stroke="black" points="191,-28.5 191,-47.5 241,-47.5 241,-28.5 191,-28.5"/>
<text text-anchor="middle" x="216" y="-35.5" font-family="Helvetica,sans-Serif" font-size="10.00">gk_free</text>
</a>
</g>
</g>
<!-- Node416&#45;&gt;Node428 -->
<g id="edge13" class="edge"><title>Node416&#45;&gt;Node428</title>
<path fill="none" stroke="midnightblue" d="M75.1796,-85.4083C93.0115,-77.1693 119.861,-65.3357 144,-57 155.847,-52.9088 169.056,-49.1599 180.837,-46.093"/>
<polygon fill="midnightblue" stroke="midnightblue" points="181.918,-49.4298 190.753,-43.5819 180.199,-42.644 181.918,-49.4298"/>
</g>
<!-- Node419 -->
<g id="node4" class="node"><title>Node419</title>
<g id="a_node4"><a xlink:href="a00077.html#a24633cc1c72a7e92836912c2adcf570a" target="_top" xlink:title="gk_malloc_init">
<polygon fill="white" stroke="black" points="349,-208.5 349,-227.5 429,-227.5 429,-208.5 349,-208.5"/>
<text text-anchor="middle" x="389" y="-215.5" font-family="Helvetica,sans-Serif" font-size="10.00">gk_malloc_init</text>
</a>
</g>
</g>
<!-- Node418&#45;&gt;Node419 -->
<g id="edge3" class="edge"><title>Node418&#45;&gt;Node419</title>
<path fill="none" stroke="midnightblue" d="M271.553,-123.596C277.451,-126.053 283.085,-129.135 288,-133 314.263,-153.656 298.019,-177.99 324,-199 328.561,-202.688 333.82,-205.661 339.323,-208.057"/>
<polygon fill="midnightblue" stroke="midnightblue" points="338.141,-211.351 348.733,-211.569 340.588,-204.793 338.141,-211.351"/>
</g>
<!-- Node420 -->
<g id="node5" class="node"><title>Node420</title>
<g id="a_node5"><a xlink:href="a00026.html#a05869524d1c30cfaab2a8690e7da6fd4" target="_top" xlink:title="gk_sigtrap">
<polygon fill="white" stroke="black" points="357.5,-170.5 357.5,-189.5 420.5,-189.5 420.5,-170.5 357.5,-170.5"/>
<text text-anchor="middle" x="389" y="-177.5" font-family="Helvetica,sans-Serif" font-size="10.00">gk_sigtrap</text>
</a>
</g>
</g>
<!-- Node418&#45;&gt;Node420 -->
<g id="edge4" class="edge"><title>Node418&#45;&gt;Node420</title>
<path fill="none" stroke="midnightblue" d="M263.437,-123.555C271.832,-126.08 280.344,-129.195 288,-133 306.151,-142.022 305.973,-151.733 324,-161 331.402,-164.805 339.686,-167.97 347.776,-170.555"/>
<polygon fill="midnightblue" stroke="midnightblue" points="346.893,-173.944 357.475,-173.425 348.879,-167.231 346.893,-173.944"/>
</g>
<!-- Node421 -->
<g id="node6" class="node"><title>Node421</title>
<g id="a_node6"><a xlink:href="a00026.html#a08f287b6dbdc0779c916ecbd49540a1e" target="_top" xlink:title="gk_siguntrap">
<polygon fill="white" stroke="black" points="352,-132.5 352,-151.5 426,-151.5 426,-132.5 352,-132.5"/>
<text text-anchor="middle" x="389" y="-139.5" font-family="Helvetica,sans-Serif" font-size="10.00">gk_siguntrap</text>
</a>
</g>
</g>
<!-- Node418&#45;&gt;Node421 -->
<g id="edge5" class="edge"><title>Node418&#45;&gt;Node421</title>
<path fill="none" stroke="midnightblue" d="M275.37,-123.558C297.056,-127.109 321.339,-131.085 341.789,-134.433"/>
<polygon fill="midnightblue" stroke="midnightblue" points="341.362,-137.91 351.796,-136.072 342.493,-131.002 341.362,-137.91"/>
</g>
<!-- Node422 -->
<g id="node7" class="node"><title>Node422</title>
<g id="a_node7"><a xlink:href="a00260.html#a5510f276b321a8450b2e9cc913c2f00f" target="_top" xlink:title="MlevelRecursiveBisection">
<polygon fill="white" stroke="black" points="324,-76.5 324,-95.5 454,-95.5 454,-76.5 324,-76.5"/>
<text text-anchor="middle" x="389" y="-83.5" font-family="Helvetica,sans-Serif" font-size="10.00">MlevelRecursiveBisection</text>
</a>
</g>
</g>
<!-- Node418&#45;&gt;Node422 -->
<g id="edge6" class="edge"><title>Node418&#45;&gt;Node422</title>
<path fill="none" stroke="midnightblue" d="M275.37,-104.442C289.678,-102.1 305.116,-99.5717 319.838,-97.1611"/>
<polygon fill="midnightblue" stroke="midnightblue" points="320.59,-100.585 329.893,-95.5146 319.459,-93.6766 320.59,-100.585"/>
</g>
<!-- Node425 -->
<g id="node10" class="node"><title>Node425</title>
<g id="a_node10"><a xlink:href="a00077.html#a47156a22528b5bc8c7c6e9849af34e62" target="_top" xlink:title="gk_malloc_cleanup">
<polygon fill="white" stroke="black" points="338,-38.5 338,-57.5 440,-57.5 440,-38.5 338,-38.5"/>
<text text-anchor="middle" x="389" y="-45.5" font-family="Helvetica,sans-Serif" font-size="10.00">gk_malloc_cleanup</text>
</a>
</g>
</g>
<!-- Node418&#45;&gt;Node425 -->
<g id="edge10" class="edge"><title>Node418&#45;&gt;Node425</title>
<path fill="none" stroke="midnightblue" d="M263.437,-104.445C271.832,-101.92 280.344,-98.8051 288,-95 306.151,-85.9784 305.973,-76.2668 324,-67 328.346,-64.7662 332.995,-62.7529 337.732,-60.948"/>
<polygon fill="midnightblue" stroke="midnightblue" points="339.219,-64.1357 347.504,-57.5321 336.909,-57.5277 339.219,-64.1357"/>
</g>
<!-- Node422&#45;&gt;Node422 -->
<g id="edge9" class="edge"><title>Node422&#45;&gt;Node422</title>
<path fill="none" stroke="midnightblue" d="M366.805,-95.7571C356.008,-104.565 363.406,-114 389,-114 405.796,-114 414.756,-109.937 415.879,-104.654"/>
<polygon fill="midnightblue" stroke="midnightblue" points="418.951,-102.975 411.195,-95.7571 412.757,-106.236 418.951,-102.975"/>
</g>
<!-- Node423 -->
<g id="node8" class="node"><title>Node423</title>
<g id="a_node8"><a xlink:href="a00260.html#a33c48a23cc94ea0221fa5c7317cd0222" target="_top" xlink:title="MultilevelBisect">
<polygon fill="white" stroke="black" points="490.5,-95.5 490.5,-114.5 575.5,-114.5 575.5,-95.5 490.5,-95.5"/>
<text text-anchor="middle" x="533" y="-102.5" font-family="Helvetica,sans-Serif" font-size="10.00">MultilevelBisect</text>
</a>
</g>
</g>
<!-- Node422&#45;&gt;Node423 -->
<g id="edge7" class="edge"><title>Node422&#45;&gt;Node423</title>
<path fill="none" stroke="midnightblue" d="M454.352,-94.6105C463.013,-95.7693 471.806,-96.9459 480.211,-98.0705"/>
<polygon fill="midnightblue" stroke="midnightblue" points="479.859,-101.555 490.235,-99.4117 480.788,-94.6164 479.859,-101.555"/>
</g>
<!-- Node424 -->
<g id="node9" class="node"><title>Node424</title>
<g id="a_node9"><a xlink:href="a00260.html#a49d272affb67ce57b2d20dccd7f15f53" target="_top" xlink:title="SplitGraphPart">
<polygon fill="white" stroke="black" points="492,-57.5 492,-76.5 574,-76.5 574,-57.5 492,-57.5"/>
<text text-anchor="middle" x="533" y="-64.5" font-family="Helvetica,sans-Serif" font-size="10.00">SplitGraphPart</text>
</a>
</g>
</g>
<!-- Node422&#45;&gt;Node424 -->
<g id="edge8" class="edge"><title>Node422&#45;&gt;Node424</title>
<path fill="none" stroke="midnightblue" d="M454.352,-77.3895C463.53,-76.1615 472.856,-74.9136 481.712,-73.7287"/>
<polygon fill="midnightblue" stroke="midnightblue" points="482.407,-77.167 491.854,-72.3716 481.478,-70.2288 482.407,-77.167"/>
</g>
<!-- Node427 -->
<g id="node12" class="node"><title>Node427</title>
<g id="a_node12"><a xlink:href="a01017.html#a2e311a777ffe9c80e405efa7cd2757be" target="_top" xlink:title="fprintf">
<polygon fill="white" stroke="black" points="368,-0.5 368,-19.5 410,-19.5 410,-0.5 368,-0.5"/>
<text text-anchor="middle" x="389" y="-7.5" font-family="Helvetica,sans-Serif" font-size="10.00">fprintf</text>
</a>
</g>
</g>
<!-- Node426&#45;&gt;Node427 -->
<g id="edge12" class="edge"><title>Node426&#45;&gt;Node427</title>
<path fill="none" stroke="midnightblue" d="M246.277,-70.9237C259.469,-67.9502 274.974,-63.4743 288,-57 306.151,-47.9784 305.973,-38.2668 324,-29 334.655,-23.5232 347.138,-19.3716 358.238,-16.368"/>
<polygon fill="midnightblue" stroke="midnightblue" points="359.104,-19.7592 367.949,-13.9272 357.398,-12.9703 359.104,-19.7592"/>
</g>
</g>
</svg>
        <g id="navigator" transform="translate(0 0)" fill="#404254">
                <rect fill="#f2f5e9" fill-opacity="0.5" stroke="#606060" stroke-width=".5" x="0" y="0" width="60" height="60"/>
                <use id="zoomplus" xlink:href="#zoomPlus" x="17" y="9" onmousedown="handleZoom(evt,'in')"/>
                <use id="zoomminus" xlink:href="#zoomMin" x="42" y="9" onmousedown="handleZoom(evt,'out')"/>
                <use id="reset" xlink:href="#resetDef" x="30" y="36" onmousedown="handleReset()"/>
                <g id="arrowUp" xlink:href="#dirArrow" transform="translate(30 24)" onmousedown="handlePan(0,-1)">
                  <use xlink:href="#rim" fill="#404040">
                        <set attributeName="fill" to="#808080" begin="arrowUp.mouseover" end="arrowUp.mouseout"/>
                  </use>
                  <path fill="none" stroke="white" stroke-width="1.5" d="M0,-3.0v7 M-2.5,-0.5L0,-3.0L2.5,-0.5"/>
                </g>
                <g id="arrowRight" xlink:href="#dirArrow" transform="rotate(90) translate(36 -43)" onmousedown="handlePan(1,0)">
                  <use xlink:href="#rim" fill="#404040">
                        <set attributeName="fill" to="#808080" begin="arrowRight.mouseover" end="arrowRight.mouseout"/>
                  </use>
                  <path fill="none" stroke="white" stroke-width="1.5" d="M0,-3.0v7 M-2.5,-0.5L0,-3.0L2.5,-0.5"/>
                </g>
                <g id="arrowDown" xlink:href="#dirArrow" transform="rotate(180) translate(-30 -48)" onmousedown="handlePan(0,1)">
                  <use xlink:href="#rim" fill="#404040">
                        <set attributeName="fill" to="#808080" begin="arrowDown.mouseover" end="arrowDown.mouseout"/>
                  </use>
                  <path fill="none" stroke="white" stroke-width="1.5" d="M0,-3.0v7 M-2.5,-0.5L0,-3.0L2.5,-0.5"/>
                </g>
                <g id="arrowLeft" xlink:href="#dirArrow" transform="rotate(270) translate(-36 17)" onmousedown="handlePan(-1,0)">
                  <use xlink:href="#rim" fill="#404040">
                        <set attributeName="fill" to="#808080" begin="arrowLeft.mouseover" end="arrowLeft.mouseout"/>
                  </use>
                  <path fill="none" stroke="white" stroke-width="1.5" d="M0,-3.0v7 M-2.5,-0.5L0,-3.0L2.5,-0.5"/>
                </g>
        </g>
        <svg viewBox="0 0 15 15" width="100%" height="30px" preserveAspectRatio="xMaxYMin meet">
         <g id="arrow_out" transform="scale(0.3 0.3)">
          <a xlink:href="a00948_a870e37cc14eb1033c62d83d3a7c33a91_cgraph_org.svg" target="_base">
           <rect id="button" ry="5" rx="5" y="6" x="6" height="38" width="38"
                fill="#f2f5e9" fill-opacity="0.5" stroke="#606060" stroke-width="1.0"/>
           <path id="arrow"
             d="M 11.500037,31.436501 C 11.940474,20.09759 22.043105,11.32322 32.158766,21.979434 L 37.068811,17.246167 C 37.068811,17.246167 37.088388,32 37.088388,32 L 22.160133,31.978069 C 22.160133,31.978069 26.997745,27.140456 26.997745,27.140456 C 18.528582,18.264221 13.291696,25.230495 11.500037,31.436501 z"
             style="fill:#404040;"/>
          </a>
         </g>
        </svg>
</svg>
