<?xml version="1.0" encoding="UTF-8" standalone="no"?>
<!DOCTYPE svg PUBLIC "-//W3C//DTD SVG 1.1//EN"
 "http://www.w3.org/Graphics/SVG/1.1/DTD/svg11.dtd">
<!-- Generated by graphviz version 2.36.0 (20140111.2315)
 -->
<!-- Title: ReAdjustMemory Pages: 1 -->
<svg width="1406pt" height="112pt"
 viewBox="0.00 0.00 1406.00 112.00" xmlns="http://www.w3.org/2000/svg" xmlns:xlink="http://www.w3.org/1999/xlink">
<g id="graph0" class="graph" transform="scale(1 1) rotate(0) translate(4 108)">
<title>ReAdjustMemory</title>
<polygon fill="white" stroke="none" points="-4,4 -4,-108 1402,-108 1402,4 -4,4"/>
<!-- Node862 -->
<g id="node1" class="node"><title>Node862</title>
<polygon fill="#bfbfbf" stroke="black" points="0.5,-38.5 0.5,-57.5 93.5,-57.5 93.5,-38.5 0.5,-38.5"/>
<text text-anchor="middle" x="47" y="-45.5" font-family="Helvetica,sans-Serif" font-size="10.00">ReAdjustMemory</text>
</g>
<!-- Node863 -->
<g id="node2" class="node"><title>Node863</title>
<g id="a_node2"><a xlink:href="a00948.html#aac8820421b1c25698140c1b470c50e07" target="_top" xlink:title="CreateCoarseGraph">
<polygon fill="white" stroke="black" points="310.5,-57.5 310.5,-76.5 417.5,-76.5 417.5,-57.5 310.5,-57.5"/>
<text text-anchor="middle" x="364" y="-64.5" font-family="Helvetica,sans-Serif" font-size="10.00">CreateCoarseGraph</text>
</a>
</g>
</g>
<!-- Node862&#45;&gt;Node863 -->
<g id="edge1" class="edge"><title>Node862&#45;&gt;Node863</title>
<path fill="none" stroke="midnightblue" d="M103.954,-51.375C162.336,-54.8965 253.168,-60.3752 310.305,-63.8216"/>
<polygon fill="midnightblue" stroke="midnightblue" points="103.996,-47.8713 93.8037,-50.7628 103.575,-54.8586 103.996,-47.8713"/>
</g>
<!-- Node874 -->
<g id="node13" class="node"><title>Node874</title>
<g id="a_node13"><a xlink:href="a00948.html#a70dc59d4c7190507e7ad9a4cc0d80707" target="_top" xlink:title="CreateCoarseGraphNoMask">
<polygon fill="white" stroke="black" points="130.5,-76.5 130.5,-95.5 273.5,-95.5 273.5,-76.5 130.5,-76.5"/>
<text text-anchor="middle" x="202" y="-83.5" font-family="Helvetica,sans-Serif" font-size="10.00">CreateCoarseGraphNoMask</text>
</a>
</g>
</g>
<!-- Node862&#45;&gt;Node874 -->
<g id="edge17" class="edge"><title>Node862&#45;&gt;Node874</title>
<path fill="none" stroke="midnightblue" d="M96.4768,-60.04C117.852,-65.3488 142.613,-71.4988 162.669,-76.4799"/>
<polygon fill="midnightblue" stroke="midnightblue" points="97.1572,-56.6027 86.6084,-57.589 95.4698,-63.3963 97.1572,-56.6027"/>
</g>
<!-- Node875 -->
<g id="node14" class="node"><title>Node875</title>
<g id="a_node14"><a xlink:href="a00948.html#a0aba484ba693edd6d56426d04bd7fd4b" target="_top" xlink:title="CreateCoarseGraphPerm">
<polygon fill="white" stroke="black" points="137,-0.5 137,-19.5 267,-19.5 267,-0.5 137,-0.5"/>
<text text-anchor="middle" x="202" y="-7.5" font-family="Helvetica,sans-Serif" font-size="10.00">CreateCoarseGraphPerm</text>
</a>
</g>
</g>
<!-- Node862&#45;&gt;Node875 -->
<g id="edge19" class="edge"><title>Node862&#45;&gt;Node875</title>
<path fill="none" stroke="midnightblue" d="M96.4768,-35.96C117.852,-30.6512 142.613,-24.5012 162.669,-19.5201"/>
<polygon fill="midnightblue" stroke="midnightblue" points="95.4698,-32.6037 86.6084,-38.411 97.1572,-39.3973 95.4698,-32.6037"/>
</g>
<!-- Node864 -->
<g id="node3" class="node"><title>Node864</title>
<g id="a_node3"><a xlink:href="a00948.html#a892d2ea16d613abc2276ad5fc6999724" target="_top" xlink:title="Match_RM">
<polygon fill="white" stroke="black" points="460.5,-76.5 460.5,-95.5 525.5,-95.5 525.5,-76.5 460.5,-76.5"/>
<text text-anchor="middle" x="493" y="-83.5" font-family="Helvetica,sans-Serif" font-size="10.00">Match_RM</text>
</a>
</g>
</g>
<!-- Node863&#45;&gt;Node864 -->
<g id="edge2" class="edge"><title>Node863&#45;&gt;Node864</title>
<path fill="none" stroke="midnightblue" d="M427.658,-76.374C438.977,-78.0674 450.331,-79.7661 460.283,-81.2549"/>
<polygon fill="midnightblue" stroke="midnightblue" points="428.164,-72.9109 417.756,-74.8926 427.128,-79.8338 428.164,-72.9109"/>
</g>
<!-- Node873 -->
<g id="node12" class="node"><title>Node873</title>
<g id="a_node12"><a xlink:href="a00948.html#af3ec72f3170ccdca06d8ad018d86cc58" target="_top" xlink:title="Match_SHEM">
<polygon fill="white" stroke="black" points="454,-38.5 454,-57.5 532,-57.5 532,-38.5 454,-38.5"/>
<text text-anchor="middle" x="493" y="-45.5" font-family="Helvetica,sans-Serif" font-size="10.00">Match_SHEM</text>
</a>
</g>
</g>
<!-- Node863&#45;&gt;Node873 -->
<g id="edge14" class="edge"><title>Node863&#45;&gt;Node873</title>
<path fill="none" stroke="midnightblue" d="M427.79,-57.6062C436.718,-56.2705 445.665,-54.932 453.924,-53.6964"/>
<polygon fill="midnightblue" stroke="midnightblue" points="427.128,-54.1662 417.756,-59.1074 428.164,-61.0891 427.128,-54.1662"/>
</g>
<!-- Node865 -->
<g id="node4" class="node"><title>Node865</title>
<g id="a_node4"><a xlink:href="a00948.html#adeb2c7c9bffbeca00fcc97854fb88ada" target="_top" xlink:title="CoarsenGraph">
<polygon fill="white" stroke="black" points="585,-76.5 585,-95.5 667,-95.5 667,-76.5 585,-76.5"/>
<text text-anchor="middle" x="626" y="-83.5" font-family="Helvetica,sans-Serif" font-size="10.00">CoarsenGraph</text>
</a>
</g>
</g>
<!-- Node864&#45;&gt;Node865 -->
<g id="edge3" class="edge"><title>Node864&#45;&gt;Node865</title>
<path fill="none" stroke="midnightblue" d="M536.106,-86C551.662,-86 569.246,-86 584.644,-86"/>
<polygon fill="midnightblue" stroke="midnightblue" points="535.711,-82.5001 525.711,-86 535.711,-89.5001 535.711,-82.5001"/>
</g>
<!-- Node866 -->
<g id="node5" class="node"><title>Node866</title>
<g id="a_node5"><a xlink:href="a00948.html#afa83320e3b311e0feef90d0bf4303716" target="_top" xlink:title="CoarsenGraphNlevels">
<polygon fill="white" stroke="black" points="568.5,-38.5 568.5,-57.5 683.5,-57.5 683.5,-38.5 568.5,-38.5"/>
<text text-anchor="middle" x="626" y="-45.5" font-family="Helvetica,sans-Serif" font-size="10.00">CoarsenGraphNlevels</text>
</a>
</g>
</g>
<!-- Node864&#45;&gt;Node866 -->
<g id="edge4" class="edge"><title>Node864&#45;&gt;Node866</title>
<path fill="none" stroke="midnightblue" d="M535.539,-73.9505C553.844,-68.6406 575.045,-62.4907 592.213,-57.5109"/>
<polygon fill="midnightblue" stroke="midnightblue" points="534.34,-70.6538 525.711,-76.8013 536.291,-77.3767 534.34,-70.6538"/>
</g>
<!-- Node867 -->
<g id="node6" class="node"><title>Node867</title>
<g id="a_node6"><a xlink:href="a00948.html#ac3a0eaeefa34a3865a0be5bb70bd958f" target="_top" xlink:title="MlevelNodeBisectionL2">
<polygon fill="white" stroke="black" points="720.5,-38.5 720.5,-57.5 841.5,-57.5 841.5,-38.5 720.5,-38.5"/>
<text text-anchor="middle" x="781" y="-45.5" font-family="Helvetica,sans-Serif" font-size="10.00">MlevelNodeBisectionL2</text>
</a>
</g>
</g>
<!-- Node866&#45;&gt;Node867 -->
<g id="edge5" class="edge"><title>Node866&#45;&gt;Node867</title>
<path fill="none" stroke="midnightblue" d="M693.802,-48C702.641,-48 711.654,-48 720.361,-48"/>
<polygon fill="midnightblue" stroke="midnightblue" points="693.537,-44.5001 683.537,-48 693.537,-51.5001 693.537,-44.5001"/>
</g>
<!-- Node868 -->
<g id="node7" class="node"><title>Node868</title>
<g id="a_node7"><a xlink:href="a00948.html#a59c8030c5429e219a8535c2a11cef724" target="_top" xlink:title="MlevelNodeBisectionMultiple">
<polygon fill="white" stroke="black" points="878,-38.5 878,-57.5 1022,-57.5 1022,-38.5 878,-38.5"/>
<text text-anchor="middle" x="950" y="-45.5" font-family="Helvetica,sans-Serif" font-size="10.00">MlevelNodeBisectionMultiple</text>
</a>
</g>
</g>
<!-- Node867&#45;&gt;Node868 -->
<g id="edge6" class="edge"><title>Node867&#45;&gt;Node868</title>
<path fill="none" stroke="midnightblue" d="M851.828,-48C860.451,-48 869.275,-48 877.917,-48"/>
<polygon fill="midnightblue" stroke="midnightblue" points="851.819,-44.5001 841.819,-48 851.819,-51.5001 851.819,-44.5001"/>
</g>
<!-- Node869 -->
<g id="node8" class="node"><title>Node869</title>
<g id="a_node8"><a xlink:href="a00948.html#af853e9d8bbb2188f871fac436e631ed1" target="_top" xlink:title="MlevelNestedDissection">
<polygon fill="white" stroke="black" points="1065.5,-66.5 1065.5,-85.5 1188.5,-85.5 1188.5,-66.5 1065.5,-66.5"/>
<text text-anchor="middle" x="1127" y="-73.5" font-family="Helvetica,sans-Serif" font-size="10.00">MlevelNestedDissection</text>
</a>
</g>
</g>
<!-- Node868&#45;&gt;Node869 -->
<g id="edge7" class="edge"><title>Node868&#45;&gt;Node869</title>
<path fill="none" stroke="midnightblue" d="M1021.03,-59.2054C1036.11,-61.6175 1051.91,-64.1449 1066.53,-66.4854"/>
<polygon fill="midnightblue" stroke="midnightblue" points="1021.16,-55.6816 1010.74,-57.5577 1020.06,-62.5937 1021.16,-55.6816"/>
</g>
<!-- Node872 -->
<g id="node11" class="node"><title>Node872</title>
<g id="a_node11"><a xlink:href="a00948.html#a3ef15d1ffff55a81b8486bee09239073" target="_top" xlink:title="MlevelNestedDissectionCC">
<polygon fill="white" stroke="black" points="1058,-10.5 1058,-29.5 1196,-29.5 1196,-10.5 1058,-10.5"/>
<text text-anchor="middle" x="1127" y="-17.5" font-family="Helvetica,sans-Serif" font-size="10.00">MlevelNestedDissectionCC</text>
</a>
</g>
</g>
<!-- Node868&#45;&gt;Node872 -->
<g id="edge11" class="edge"><title>Node868&#45;&gt;Node872</title>
<path fill="none" stroke="midnightblue" d="M1021.03,-36.7946C1036.11,-34.3825 1051.91,-31.8551 1066.53,-29.5146"/>
<polygon fill="midnightblue" stroke="midnightblue" points="1020.06,-33.4063 1010.74,-38.4423 1021.16,-40.3184 1020.06,-33.4063"/>
</g>
<!-- Node869&#45;&gt;Node869 -->
<g id="edge10" class="edge"><title>Node869&#45;&gt;Node869</title>
<path fill="none" stroke="midnightblue" d="M1099,-94.6539C1100.17,-99.9368 1109.5,-104 1127,-104 1153.66,-104 1161.37,-94.5653 1150.12,-85.7571"/>
<polygon fill="midnightblue" stroke="midnightblue" points="1102.14,-96.208 1103.88,-85.7571 1096,-92.8417 1102.14,-96.208"/>
</g>
<!-- Node870 -->
<g id="node9" class="node"><title>Node870</title>
<g id="a_node9"><a xlink:href="a00936.html#a8304f0dd6d180587f73b0b70de3b01b7" target="_top" xlink:title="METIS_NodeND">
<polygon fill="white" stroke="black" points="1232.5,-38.5 1232.5,-57.5 1323.5,-57.5 1323.5,-38.5 1232.5,-38.5"/>
<text text-anchor="middle" x="1278" y="-45.5" font-family="Helvetica,sans-Serif" font-size="10.00">METIS_NodeND</text>
</a>
</g>
</g>
<!-- Node869&#45;&gt;Node870 -->
<g id="edge8" class="edge"><title>Node869&#45;&gt;Node870</title>
<path fill="none" stroke="midnightblue" d="M1188.8,-64.574C1203.37,-61.8363 1218.66,-58.9625 1232.35,-56.3911"/>
<polygon fill="midnightblue" stroke="midnightblue" points="1188.04,-61.1556 1178.86,-66.4423 1189.34,-68.0351 1188.04,-61.1556"/>
</g>
<!-- Node871 -->
<g id="node10" class="node"><title>Node871</title>
<g id="a_node10"><a xlink:href="a00326.html#a0ddf1224851353fc92bfbff6f499fa97" target="_top" xlink:title="main">
<polygon fill="white" stroke="black" points="1360,-38.5 1360,-57.5 1398,-57.5 1398,-38.5 1360,-38.5"/>
<text text-anchor="middle" x="1379" y="-45.5" font-family="Helvetica,sans-Serif" font-size="10.00">main</text>
</a>
</g>
</g>
<!-- Node870&#45;&gt;Node871 -->
<g id="edge9" class="edge"><title>Node870&#45;&gt;Node871</title>
<path fill="none" stroke="midnightblue" d="M1333.75,-48C1343.09,-48 1352.18,-48 1359.67,-48"/>
<polygon fill="midnightblue" stroke="midnightblue" points="1333.58,-44.5001 1323.58,-48 1333.58,-51.5001 1333.58,-44.5001"/>
</g>
<!-- Node872&#45;&gt;Node870 -->
<g id="edge12" class="edge"><title>Node872&#45;&gt;Node870</title>
<path fill="none" stroke="midnightblue" d="M1188.8,-31.426C1203.37,-34.1637 1218.66,-37.0375 1232.35,-39.6089"/>
<polygon fill="midnightblue" stroke="midnightblue" points="1189.34,-27.9649 1178.86,-29.5577 1188.04,-34.8444 1189.34,-27.9649"/>
</g>
<!-- Node872&#45;&gt;Node872 -->
<g id="edge13" class="edge"><title>Node872&#45;&gt;Node872</title>
<path fill="none" stroke="midnightblue" d="M1099,-38.6539C1100.17,-43.9368 1109.5,-48 1127,-48 1153.66,-48 1161.37,-38.5653 1150.12,-29.7571"/>
<polygon fill="midnightblue" stroke="midnightblue" points="1102.14,-40.208 1103.88,-29.7571 1096,-36.8417 1102.14,-40.208"/>
</g>
<!-- Node873&#45;&gt;Node865 -->
<g id="edge15" class="edge"><title>Node873&#45;&gt;Node865</title>
<path fill="none" stroke="midnightblue" d="M536.715,-60.3906C554.655,-65.5945 575.2,-71.5541 591.954,-76.4141"/>
<polygon fill="midnightblue" stroke="midnightblue" points="537.636,-57.0136 527.057,-57.589 535.686,-63.7364 537.636,-57.0136"/>
</g>
<!-- Node873&#45;&gt;Node866 -->
<g id="edge16" class="edge"><title>Node873&#45;&gt;Node866</title>
<path fill="none" stroke="midnightblue" d="M542.356,-48C550.85,-48 559.757,-48 568.451,-48"/>
<polygon fill="midnightblue" stroke="midnightblue" points="542.243,-44.5001 532.243,-48 542.243,-51.5001 542.243,-44.5001"/>
</g>
<!-- Node874&#45;&gt;Node863 -->
<g id="edge18" class="edge"><title>Node874&#45;&gt;Node863</title>
<path fill="none" stroke="midnightblue" d="M283.713,-76.4154C292.647,-75.3544 301.57,-74.2948 310.035,-73.2896"/>
<polygon fill="midnightblue" stroke="midnightblue" points="283.162,-72.9561 273.644,-77.611 283.987,-79.9073 283.162,-72.9561"/>
</g>
</g>
</svg>
