<?xml version="1.0" encoding="UTF-8" standalone="no"?>
<!DOCTYPE svg PUBLIC "-//W3C//DTD SVG 1.1//EN"
 "http://www.w3.org/Graphics/SVG/1.1/DTD/svg11.dtd">
<!-- Generated by graphviz version 2.36.0 (20140111.2315)
 -->
<!-- Title: Match_RM Pages: 1 -->
<!--zoomable 102 -->
<svg id="main" version="1.1" xmlns="http://www.w3.org/2000/svg" xmlns:xlink="http://www.w3.org/1999/xlink" xml:space="preserve" onload="init(evt)">
<style type="text/css"><![CDATA[
.edge:hover path { stroke: red; }
.edge:hover polygon { stroke: red; fill: red; }
]]></style>
<script type="text/javascript"><![CDATA[
var edges = document.getElementsByTagName('g');
if (edges && edges.length) {
  for (var i=0;i<edges.length;i++) {
    if (edges[i].id.substr(0,4)=='edge') {
      edges[i].setAttribute('class','edge');
    }
  }
}
]]></script>
        <defs>
                <circle id="rim" cx="0" cy="0" r="7"/>
                <circle id="rim2" cx="0" cy="0" r="3.5"/>
                <g id="zoomPlus">
                        <use xlink:href="#rim" fill="#404040">
                                <set attributeName="fill" to="#808080" begin="zoomplus.mouseover" end="zoomplus.mouseout"/>
                        </use>
                        <path d="M-4,0h8M0,-4v8" fill="none" stroke="white" stroke-width="1.5" pointer-events="none"/>
                </g>
                <g id="zoomMin">
                        <use xlink:href="#rim" fill="#404040">
                                <set attributeName="fill" to="#808080" begin="zoomminus.mouseover" end="zoomminus.mouseout"/>
                        </use>
                        <path d="M-4,0h8" fill="none" stroke="white" stroke-width="1.5" pointer-events="none"/>
                </g>
                <g id="dirArrow">
                        <path fill="none" stroke="white" stroke-width="1.5" d="M0,-3.0v7 M-2.5,-0.5L0,-3.0L2.5,-0.5"/>
                </g>
               <g id="resetDef">
                       <use xlink:href="#rim2" fill="#404040">
                               <set attributeName="fill" to="#808080" begin="reset.mouseover" end="reset.mouseout"/>
                       </use>
               </g>
        </defs>

<script type="text/javascript">
var viewWidth = 940;
var viewHeight = 102;
var sectionId = 'dynsection-91';
</script>
<script xlink:href="svgpan.js"/>
<svg id="graph" class="graph">
<g id="viewport">
<title>Match_RM</title>
<polygon fill="white" stroke="none" points="-4,4 -4,-98 936,-98 936,4 -4,4"/>
<!-- Node541 -->
<g id="node1" class="node"><title>Node541</title>
<polygon fill="#bfbfbf" stroke="black" points="0.5,-47.5 0.5,-66.5 65.5,-66.5 65.5,-47.5 0.5,-47.5"/>
<text text-anchor="middle" x="33" y="-54.5" font-family="Helvetica,sans-Serif" font-size="10.00">Match_RM</text>
</g>
<!-- Node542 -->
<g id="node2" class="node"><title>Node542</title>
<g id="a_node2"><a xlink:href="a00948.html#adeb2c7c9bffbeca00fcc97854fb88ada" target="_top" xlink:title="CoarsenGraph">
<polygon fill="white" stroke="black" points="119,-66.5 119,-85.5 201,-85.5 201,-66.5 119,-66.5"/>
<text text-anchor="middle" x="160" y="-73.5" font-family="Helvetica,sans-Serif" font-size="10.00">CoarsenGraph</text>
</a>
</g>
</g>
<!-- Node541&#45;&gt;Node542 -->
<g id="edge1" class="edge"><title>Node541&#45;&gt;Node542</title>
<path fill="none" stroke="midnightblue" d="M75.8214,-63.3569C89.7245,-65.4701 105.166,-67.8173 118.933,-69.9099"/>
<polygon fill="midnightblue" stroke="midnightblue" points="75.9552,-59.8371 65.5428,-61.7945 74.9032,-66.7576 75.9552,-59.8371"/>
</g>
<!-- Node543 -->
<g id="node3" class="node"><title>Node543</title>
<g id="a_node3"><a xlink:href="a00948.html#afa83320e3b311e0feef90d0bf4303716" target="_top" xlink:title="CoarsenGraphNlevels">
<polygon fill="white" stroke="black" points="102.5,-28.5 102.5,-47.5 217.5,-47.5 217.5,-28.5 102.5,-28.5"/>
<text text-anchor="middle" x="160" y="-35.5" font-family="Helvetica,sans-Serif" font-size="10.00">CoarsenGraphNlevels</text>
</a>
</g>
</g>
<!-- Node541&#45;&gt;Node543 -->
<g id="edge2" class="edge"><title>Node541&#45;&gt;Node543</title>
<path fill="none" stroke="midnightblue" d="M75.5916,-50.6781C84.1087,-49.3835 93.2112,-47.9999 102.158,-46.64"/>
<polygon fill="midnightblue" stroke="midnightblue" points="74.9032,-47.2424 65.5428,-52.2055 75.9552,-54.1629 74.9032,-47.2424"/>
</g>
<!-- Node544 -->
<g id="node4" class="node"><title>Node544</title>
<g id="a_node4"><a xlink:href="a00948.html#ac3a0eaeefa34a3865a0be5bb70bd958f" target="_top" xlink:title="MlevelNodeBisectionL2">
<polygon fill="white" stroke="black" points="254.5,-28.5 254.5,-47.5 375.5,-47.5 375.5,-28.5 254.5,-28.5"/>
<text text-anchor="middle" x="315" y="-35.5" font-family="Helvetica,sans-Serif" font-size="10.00">MlevelNodeBisectionL2</text>
</a>
</g>
</g>
<!-- Node543&#45;&gt;Node544 -->
<g id="edge3" class="edge"><title>Node543&#45;&gt;Node544</title>
<path fill="none" stroke="midnightblue" d="M227.802,-38C236.641,-38 245.654,-38 254.361,-38"/>
<polygon fill="midnightblue" stroke="midnightblue" points="227.537,-34.5001 217.537,-38 227.537,-41.5001 227.537,-34.5001"/>
</g>
<!-- Node545 -->
<g id="node5" class="node"><title>Node545</title>
<g id="a_node5"><a xlink:href="a00948.html#a59c8030c5429e219a8535c2a11cef724" target="_top" xlink:title="MlevelNodeBisectionMultiple">
<polygon fill="white" stroke="black" points="412,-28.5 412,-47.5 556,-47.5 556,-28.5 412,-28.5"/>
<text text-anchor="middle" x="484" y="-35.5" font-family="Helvetica,sans-Serif" font-size="10.00">MlevelNodeBisectionMultiple</text>
</a>
</g>
</g>
<!-- Node544&#45;&gt;Node545 -->
<g id="edge4" class="edge"><title>Node544&#45;&gt;Node545</title>
<path fill="none" stroke="midnightblue" d="M385.828,-38C394.451,-38 403.275,-38 411.917,-38"/>
<polygon fill="midnightblue" stroke="midnightblue" points="385.819,-34.5001 375.819,-38 385.819,-41.5001 385.819,-34.5001"/>
</g>
<!-- Node546 -->
<g id="node6" class="node"><title>Node546</title>
<g id="a_node6"><a xlink:href="a00948.html#af853e9d8bbb2188f871fac436e631ed1" target="_top" xlink:title="MlevelNestedDissection">
<polygon fill="white" stroke="black" points="599.5,-56.5 599.5,-75.5 722.5,-75.5 722.5,-56.5 599.5,-56.5"/>
<text text-anchor="middle" x="661" y="-63.5" font-family="Helvetica,sans-Serif" font-size="10.00">MlevelNestedDissection</text>
</a>
</g>
</g>
<!-- Node545&#45;&gt;Node546 -->
<g id="edge5" class="edge"><title>Node545&#45;&gt;Node546</title>
<path fill="none" stroke="midnightblue" d="M555.034,-49.2054C570.109,-51.6175 585.906,-54.1449 600.534,-56.4854"/>
<polygon fill="midnightblue" stroke="midnightblue" points="555.163,-45.6816 544.736,-47.5577 554.057,-52.5937 555.163,-45.6816"/>
</g>
<!-- Node549 -->
<g id="node9" class="node"><title>Node549</title>
<g id="a_node9"><a xlink:href="a00948.html#a3ef15d1ffff55a81b8486bee09239073" target="_top" xlink:title="MlevelNestedDissectionCC">
<polygon fill="white" stroke="black" points="592,-0.5 592,-19.5 730,-19.5 730,-0.5 592,-0.5"/>
<text text-anchor="middle" x="661" y="-7.5" font-family="Helvetica,sans-Serif" font-size="10.00">MlevelNestedDissectionCC</text>
</a>
</g>
</g>
<!-- Node545&#45;&gt;Node549 -->
<g id="edge9" class="edge"><title>Node545&#45;&gt;Node549</title>
<path fill="none" stroke="midnightblue" d="M555.034,-26.7946C570.109,-24.3825 585.906,-21.8551 600.534,-19.5146"/>
<polygon fill="midnightblue" stroke="midnightblue" points="554.057,-23.4063 544.736,-28.4423 555.163,-30.3184 554.057,-23.4063"/>
</g>
<!-- Node546&#45;&gt;Node546 -->
<g id="edge8" class="edge"><title>Node546&#45;&gt;Node546</title>
<path fill="none" stroke="midnightblue" d="M633.001,-84.6539C634.171,-89.9368 643.504,-94 661,-94 687.66,-94 695.367,-84.5653 684.119,-75.7571"/>
<polygon fill="midnightblue" stroke="midnightblue" points="636.14,-86.208 637.881,-75.7571 630.003,-82.8417 636.14,-86.208"/>
</g>
<!-- Node547 -->
<g id="node7" class="node"><title>Node547</title>
<g id="a_node7"><a xlink:href="a00936.html#a8304f0dd6d180587f73b0b70de3b01b7" target="_top" xlink:title="METIS_NodeND">
<polygon fill="white" stroke="black" points="766.5,-28.5 766.5,-47.5 857.5,-47.5 857.5,-28.5 766.5,-28.5"/>
<text text-anchor="middle" x="812" y="-35.5" font-family="Helvetica,sans-Serif" font-size="10.00">METIS_NodeND</text>
</a>
</g>
</g>
<!-- Node546&#45;&gt;Node547 -->
<g id="edge6" class="edge"><title>Node546&#45;&gt;Node547</title>
<path fill="none" stroke="midnightblue" d="M722.802,-54.574C737.371,-51.8363 752.664,-48.9625 766.347,-46.3911"/>
<polygon fill="midnightblue" stroke="midnightblue" points="722.042,-51.1556 712.861,-56.4423 723.335,-58.0351 722.042,-51.1556"/>
</g>
<!-- Node548 -->
<g id="node8" class="node"><title>Node548</title>
<g id="a_node8"><a xlink:href="a00326.html#a0ddf1224851353fc92bfbff6f499fa97" target="_top" xlink:title="main">
<polygon fill="white" stroke="black" points="894,-28.5 894,-47.5 932,-47.5 932,-28.5 894,-28.5"/>
<text text-anchor="middle" x="913" y="-35.5" font-family="Helvetica,sans-Serif" font-size="10.00">main</text>
</a>
</g>
</g>
<!-- Node547&#45;&gt;Node548 -->
<g id="edge7" class="edge"><title>Node547&#45;&gt;Node548</title>
<path fill="none" stroke="midnightblue" d="M867.748,-38C877.09,-38 886.179,-38 893.665,-38"/>
<polygon fill="midnightblue" stroke="midnightblue" points="867.577,-34.5001 857.577,-38 867.577,-41.5001 867.577,-34.5001"/>
</g>
<!-- Node549&#45;&gt;Node547 -->
<g id="edge10" class="edge"><title>Node549&#45;&gt;Node547</title>
<path fill="none" stroke="midnightblue" d="M722.802,-21.426C737.371,-24.1637 752.664,-27.0375 766.347,-29.6089"/>
<polygon fill="midnightblue" stroke="midnightblue" points="723.335,-17.9649 712.861,-19.5577 722.042,-24.8444 723.335,-17.9649"/>
</g>
<!-- Node549&#45;&gt;Node549 -->
<g id="edge11" class="edge"><title>Node549&#45;&gt;Node549</title>
<path fill="none" stroke="midnightblue" d="M633.001,-28.6539C634.171,-33.9368 643.504,-38 661,-38 687.66,-38 695.367,-28.5653 684.119,-19.7571"/>
<polygon fill="midnightblue" stroke="midnightblue" points="636.14,-30.208 637.881,-19.7571 630.003,-26.8417 636.14,-30.208"/>
</g>
</g>
</svg>
        <g id="navigator" transform="translate(0 0)" fill="#404254">
                <rect fill="#f2f5e9" fill-opacity="0.5" stroke="#606060" stroke-width=".5" x="0" y="0" width="60" height="60"/>
                <use id="zoomplus" xlink:href="#zoomPlus" x="17" y="9" onmousedown="handleZoom(evt,'in')"/>
                <use id="zoomminus" xlink:href="#zoomMin" x="42" y="9" onmousedown="handleZoom(evt,'out')"/>
                <use id="reset" xlink:href="#resetDef" x="30" y="36" onmousedown="handleReset()"/>
                <g id="arrowUp" xlink:href="#dirArrow" transform="translate(30 24)" onmousedown="handlePan(0,-1)">
                  <use xlink:href="#rim" fill="#404040">
                        <set attributeName="fill" to="#808080" begin="arrowUp.mouseover" end="arrowUp.mouseout"/>
                  </use>
                  <path fill="none" stroke="white" stroke-width="1.5" d="M0,-3.0v7 M-2.5,-0.5L0,-3.0L2.5,-0.5"/>
                </g>
                <g id="arrowRight" xlink:href="#dirArrow" transform="rotate(90) translate(36 -43)" onmousedown="handlePan(1,0)">
                  <use xlink:href="#rim" fill="#404040">
                        <set attributeName="fill" to="#808080" begin="arrowRight.mouseover" end="arrowRight.mouseout"/>
                  </use>
                  <path fill="none" stroke="white" stroke-width="1.5" d="M0,-3.0v7 M-2.5,-0.5L0,-3.0L2.5,-0.5"/>
                </g>
                <g id="arrowDown" xlink:href="#dirArrow" transform="rotate(180) translate(-30 -48)" onmousedown="handlePan(0,1)">
                  <use xlink:href="#rim" fill="#404040">
                        <set attributeName="fill" to="#808080" begin="arrowDown.mouseover" end="arrowDown.mouseout"/>
                  </use>
                  <path fill="none" stroke="white" stroke-width="1.5" d="M0,-3.0v7 M-2.5,-0.5L0,-3.0L2.5,-0.5"/>
                </g>
                <g id="arrowLeft" xlink:href="#dirArrow" transform="rotate(270) translate(-36 17)" onmousedown="handlePan(-1,0)">
                  <use xlink:href="#rim" fill="#404040">
                        <set attributeName="fill" to="#808080" begin="arrowLeft.mouseover" end="arrowLeft.mouseout"/>
                  </use>
                  <path fill="none" stroke="white" stroke-width="1.5" d="M0,-3.0v7 M-2.5,-0.5L0,-3.0L2.5,-0.5"/>
                </g>
        </g>
        <svg viewBox="0 0 15 15" width="100%" height="30px" preserveAspectRatio="xMaxYMin meet">
         <g id="arrow_out" transform="scale(0.3 0.3)">
          <a xlink:href="a00948_a892d2ea16d613abc2276ad5fc6999724_icgraph_org.svg" target="_base">
           <rect id="button" ry="5" rx="5" y="6" x="6" height="38" width="38"
                fill="#f2f5e9" fill-opacity="0.5" stroke="#606060" stroke-width="1.0"/>
           <path id="arrow"
             d="M 11.500037,31.436501 C 11.940474,20.09759 22.043105,11.32322 32.158766,21.979434 L 37.068811,17.246167 C 37.068811,17.246167 37.088388,32 37.088388,32 L 22.160133,31.978069 C 22.160133,31.978069 26.997745,27.140456 26.997745,27.140456 C 18.528582,18.264221 13.291696,25.230495 11.500037,31.436501 z"
             style="fill:#404040;"/>
          </a>
         </g>
        </svg>
</svg>
