<?xml version="1.0" encoding="UTF-8" standalone="no"?>
<!DOCTYPE svg PUBLIC "-//W3C//DTD SVG 1.1//EN"
 "http://www.w3.org/Graphics/SVG/1.1/DTD/svg11.dtd">
<!-- Generated by graphviz version 2.36.0 (20140111.2315)
 -->
<!-- Title: EliminateSubDomainEdges Pages: 1 -->
<!--zoomable 142 -->
<svg id="main" version="1.1" xmlns="http://www.w3.org/2000/svg" xmlns:xlink="http://www.w3.org/1999/xlink" xml:space="preserve" onload="init(evt)">
<style type="text/css"><![CDATA[
.edge:hover path { stroke: red; }
.edge:hover polygon { stroke: red; fill: red; }
]]></style>
<script type="text/javascript"><![CDATA[
var edges = document.getElementsByTagName('g');
if (edges && edges.length) {
  for (var i=0;i<edges.length;i++) {
    if (edges[i].id.substr(0,4)=='edge') {
      edges[i].setAttribute('class','edge');
    }
  }
}
]]></script>
        <defs>
                <circle id="rim" cx="0" cy="0" r="7"/>
                <circle id="rim2" cx="0" cy="0" r="3.5"/>
                <g id="zoomPlus">
                        <use xlink:href="#rim" fill="#404040">
                                <set attributeName="fill" to="#808080" begin="zoomplus.mouseover" end="zoomplus.mouseout"/>
                        </use>
                        <path d="M-4,0h8M0,-4v8" fill="none" stroke="white" stroke-width="1.5" pointer-events="none"/>
                </g>
                <g id="zoomMin">
                        <use xlink:href="#rim" fill="#404040">
                                <set attributeName="fill" to="#808080" begin="zoomminus.mouseover" end="zoomminus.mouseout"/>
                        </use>
                        <path d="M-4,0h8" fill="none" stroke="white" stroke-width="1.5" pointer-events="none"/>
                </g>
                <g id="dirArrow">
                        <path fill="none" stroke="white" stroke-width="1.5" d="M0,-3.0v7 M-2.5,-0.5L0,-3.0L2.5,-0.5"/>
                </g>
               <g id="resetDef">
                       <use xlink:href="#rim2" fill="#404040">
                               <set attributeName="fill" to="#808080" begin="reset.mouseover" end="reset.mouseout"/>
                       </use>
               </g>
        </defs>

<script type="text/javascript">
var viewWidth = 588;
var viewHeight = 142;
var sectionId = 'dynsection-39';
</script>
<script xlink:href="svgpan.js"/>
<svg id="graph" class="graph">
<g id="viewport">
<title>EliminateSubDomainEdges</title>
<polygon fill="white" stroke="none" points="-4,4 -4,-138 584,-138 584,4 -4,4"/>
<!-- Node249 -->
<g id="node1" class="node"><title>Node249</title>
<polygon fill="#bfbfbf" stroke="black" points="0,-57.5 0,-76.5 138,-76.5 138,-57.5 0,-57.5"/>
<text text-anchor="middle" x="69" y="-64.5" font-family="Helvetica,sans-Serif" font-size="10.00">EliminateSubDomainEdges</text>
</g>
<!-- Node250 -->
<g id="node2" class="node"><title>Node250</title>
<g id="a_node2"><a xlink:href="a00242.html#a78c50bcdffefbd90914a77c4add573cc" target="_top" xlink:title="ComputeSubDomainGraph">
<polygon fill="white" stroke="black" points="175.5,-114.5 175.5,-133.5 312.5,-133.5 312.5,-114.5 175.5,-114.5"/>
<text text-anchor="middle" x="244" y="-121.5" font-family="Helvetica,sans-Serif" font-size="10.00">ComputeSubDomainGraph</text>
</a>
</g>
</g>
<!-- Node249&#45;&gt;Node250 -->
<g id="edge1" class="edge"><title>Node249&#45;&gt;Node250</title>
<path fill="none" stroke="midnightblue" d="M98.9563,-76.5405C127.772,-86.0349 172.182,-100.667 204.071,-111.174"/>
<polygon fill="midnightblue" stroke="midnightblue" points="203.356,-114.623 213.949,-114.428 205.547,-107.975 203.356,-114.623"/>
</g>
<!-- Node251 -->
<g id="node3" class="node"><title>Node251</title>
<g id="a_node3"><a xlink:href="a00026.html#a4c320c13bcdc9967613253ef4c73f59f" target="_top" xlink:title="gk_errexit">
<polygon fill="white" stroke="black" points="396,-85.5 396,-104.5 456,-104.5 456,-85.5 396,-85.5"/>
<text text-anchor="middle" x="426" y="-92.5" font-family="Helvetica,sans-Serif" font-size="10.00">gk_errexit</text>
</a>
</g>
</g>
<!-- Node249&#45;&gt;Node251 -->
<g id="edge8" class="edge"><title>Node249&#45;&gt;Node251</title>
<path fill="none" stroke="midnightblue" d="M138.028,-72.3656C211.529,-78.1628 326.117,-87.2008 385.828,-91.9104"/>
<polygon fill="midnightblue" stroke="midnightblue" points="385.725,-95.4131 395.969,-92.7103 386.276,-88.4347 385.725,-95.4131"/>
</g>
<!-- Node253 -->
<g id="node5" class="node"><title>Node253</title>
<g id="a_node5"><a xlink:href="a00242.html#a39d997df18cf07ea8609a66db133a8b6" target="_top" xlink:title="MoveGroupMinConnForCut">
<polygon fill="white" stroke="black" points="174.5,-38.5 174.5,-57.5 313.5,-57.5 313.5,-38.5 174.5,-38.5"/>
<text text-anchor="middle" x="244" y="-45.5" font-family="Helvetica,sans-Serif" font-size="10.00">MoveGroupMinConnForCut</text>
</a>
</g>
</g>
<!-- Node249&#45;&gt;Node253 -->
<g id="edge4" class="edge"><title>Node249&#45;&gt;Node253</title>
<path fill="none" stroke="midnightblue" d="M138.374,-59.4907C146.86,-58.5588 155.589,-57.6001 164.215,-56.6527"/>
<polygon fill="midnightblue" stroke="midnightblue" points="164.714,-60.119 174.272,-55.5481 163.95,-53.1608 164.714,-60.119"/>
</g>
<!-- Node255 -->
<g id="node7" class="node"><title>Node255</title>
<g id="a_node7"><a xlink:href="a00242.html#acab0293e31c438218cd4b37b608466c6" target="_top" xlink:title="MoveGroupMinConnForVol">
<polygon fill="white" stroke="black" points="175,-0.5 175,-19.5 313,-19.5 313,-0.5 175,-0.5"/>
<text text-anchor="middle" x="244" y="-7.5" font-family="Helvetica,sans-Serif" font-size="10.00">MoveGroupMinConnForVol</text>
</a>
</g>
</g>
<!-- Node249&#45;&gt;Node255 -->
<g id="edge6" class="edge"><title>Node249&#45;&gt;Node255</title>
<path fill="none" stroke="midnightblue" d="M94.5996,-57.3676C115.55,-49.3195 146.536,-37.7828 174,-29 181.241,-26.6843 188.963,-24.3902 196.521,-22.2396"/>
<polygon fill="midnightblue" stroke="midnightblue" points="197.62,-25.5667 206.31,-19.5053 195.737,-18.8248 197.62,-25.5667"/>
</g>
<!-- Node250&#45;&gt;Node251 -->
<g id="edge2" class="edge"><title>Node250&#45;&gt;Node251</title>
<path fill="none" stroke="midnightblue" d="M304.438,-114.424C331.198,-110.113 362.05,-105.142 385.844,-101.308"/>
<polygon fill="midnightblue" stroke="midnightblue" points="386.592,-104.733 395.908,-99.687 385.479,-97.8223 386.592,-104.733"/>
</g>
<!-- Node252 -->
<g id="node4" class="node"><title>Node252</title>
<g id="a_node4"><a xlink:href="a01017.html#a2e311a777ffe9c80e405efa7cd2757be" target="_top" xlink:title="fprintf">
<polygon fill="white" stroke="black" points="538,-85.5 538,-104.5 580,-104.5 580,-85.5 538,-85.5"/>
<text text-anchor="middle" x="559" y="-92.5" font-family="Helvetica,sans-Serif" font-size="10.00">fprintf</text>
</a>
</g>
</g>
<!-- Node251&#45;&gt;Node252 -->
<g id="edge3" class="edge"><title>Node251&#45;&gt;Node252</title>
<path fill="none" stroke="midnightblue" d="M456.073,-95C477.353,-95 506.154,-95 527.712,-95"/>
<polygon fill="midnightblue" stroke="midnightblue" points="527.948,-98.5001 537.948,-95 527.948,-91.5001 527.948,-98.5001"/>
</g>
<!-- Node254 -->
<g id="node6" class="node"><title>Node254</title>
<g id="a_node6"><a xlink:href="a00242.html#a004451dc6b5a9ebe36a063f7bcd6495a" target="_top" xlink:title="UpdateEdgeSubDomainGraph">
<polygon fill="white" stroke="black" points="350,-28.5 350,-47.5 502,-47.5 502,-28.5 350,-28.5"/>
<text text-anchor="middle" x="426" y="-35.5" font-family="Helvetica,sans-Serif" font-size="10.00">UpdateEdgeSubDomainGraph</text>
</a>
</g>
</g>
<!-- Node253&#45;&gt;Node254 -->
<g id="edge5" class="edge"><title>Node253&#45;&gt;Node254</title>
<path fill="none" stroke="midnightblue" d="M313.564,-44.1909C322.061,-43.7188 330.83,-43.2317 339.541,-42.7477"/>
<polygon fill="midnightblue" stroke="midnightblue" points="339.932,-46.2315 349.722,-42.1821 339.543,-39.2423 339.932,-46.2315"/>
</g>
<!-- Node255&#45;&gt;Node254 -->
<g id="edge7" class="edge"><title>Node255&#45;&gt;Node254</title>
<path fill="none" stroke="midnightblue" d="M306.191,-19.5186C321.407,-21.8855 337.851,-24.4435 353.514,-26.8799"/>
<polygon fill="midnightblue" stroke="midnightblue" points="353.253,-30.3814 363.673,-28.4602 354.329,-23.4646 353.253,-30.3814"/>
</g>
</g>
</svg>
        <g id="navigator" transform="translate(0 0)" fill="#404254">
                <rect fill="#f2f5e9" fill-opacity="0.5" stroke="#606060" stroke-width=".5" x="0" y="0" width="60" height="60"/>
                <use id="zoomplus" xlink:href="#zoomPlus" x="17" y="9" onmousedown="handleZoom(evt,'in')"/>
                <use id="zoomminus" xlink:href="#zoomMin" x="42" y="9" onmousedown="handleZoom(evt,'out')"/>
                <use id="reset" xlink:href="#resetDef" x="30" y="36" onmousedown="handleReset()"/>
                <g id="arrowUp" xlink:href="#dirArrow" transform="translate(30 24)" onmousedown="handlePan(0,-1)">
                  <use xlink:href="#rim" fill="#404040">
                        <set attributeName="fill" to="#808080" begin="arrowUp.mouseover" end="arrowUp.mouseout"/>
                  </use>
                  <path fill="none" stroke="white" stroke-width="1.5" d="M0,-3.0v7 M-2.5,-0.5L0,-3.0L2.5,-0.5"/>
                </g>
                <g id="arrowRight" xlink:href="#dirArrow" transform="rotate(90) translate(36 -43)" onmousedown="handlePan(1,0)">
                  <use xlink:href="#rim" fill="#404040">
                        <set attributeName="fill" to="#808080" begin="arrowRight.mouseover" end="arrowRight.mouseout"/>
                  </use>
                  <path fill="none" stroke="white" stroke-width="1.5" d="M0,-3.0v7 M-2.5,-0.5L0,-3.0L2.5,-0.5"/>
                </g>
                <g id="arrowDown" xlink:href="#dirArrow" transform="rotate(180) translate(-30 -48)" onmousedown="handlePan(0,1)">
                  <use xlink:href="#rim" fill="#404040">
                        <set attributeName="fill" to="#808080" begin="arrowDown.mouseover" end="arrowDown.mouseout"/>
                  </use>
                  <path fill="none" stroke="white" stroke-width="1.5" d="M0,-3.0v7 M-2.5,-0.5L0,-3.0L2.5,-0.5"/>
                </g>
                <g id="arrowLeft" xlink:href="#dirArrow" transform="rotate(270) translate(-36 17)" onmousedown="handlePan(-1,0)">
                  <use xlink:href="#rim" fill="#404040">
                        <set attributeName="fill" to="#808080" begin="arrowLeft.mouseover" end="arrowLeft.mouseout"/>
                  </use>
                  <path fill="none" stroke="white" stroke-width="1.5" d="M0,-3.0v7 M-2.5,-0.5L0,-3.0L2.5,-0.5"/>
                </g>
        </g>
        <svg viewBox="0 0 15 15" width="100%" height="30px" preserveAspectRatio="xMaxYMin meet">
         <g id="arrow_out" transform="scale(0.3 0.3)">
          <a xlink:href="a00948_a6dab60a85abb88ada807831e84cb84fc_cgraph_org.svg" target="_base">
           <rect id="button" ry="5" rx="5" y="6" x="6" height="38" width="38"
                fill="#f2f5e9" fill-opacity="0.5" stroke="#606060" stroke-width="1.0"/>
           <path id="arrow"
             d="M 11.500037,31.436501 C 11.940474,20.09759 22.043105,11.32322 32.158766,21.979434 L 37.068811,17.246167 C 37.068811,17.246167 37.088388,32 37.088388,32 L 22.160133,31.978069 C 22.160133,31.978069 26.997745,27.140456 26.997745,27.140456 C 18.528582,18.264221 13.291696,25.230495 11.500037,31.436501 z"
             style="fill:#404040;"/>
          </a>
         </g>
        </svg>
</svg>
