<?xml version="1.0" encoding="UTF-8" standalone="no"?>
<!DOCTYPE svg PUBLIC "-//W3C//DTD SVG 1.1//EN"
 "http://www.w3.org/Graphics/SVG/1.1/DTD/svg11.dtd">
<!-- Generated by graphviz version 2.36.0 (20140111.2315)
 -->
<!-- Title: ParallelReadGraph Pages: 1 -->
<svg width="328pt" height="104pt"
 viewBox="0.00 0.00 328.00 104.00" xmlns="http://www.w3.org/2000/svg" xmlns:xlink="http://www.w3.org/1999/xlink">
<g id="graph0" class="graph" transform="scale(1 1) rotate(0) translate(4 100)">
<title>ParallelReadGraph</title>
<polygon fill="white" stroke="none" points="-4,4 -4,-100 324,-100 324,4 -4,4"/>
<!-- Node48 -->
<g id="node1" class="node"><title>Node48</title>
<polygon fill="#bfbfbf" stroke="black" points="0,-38.5 0,-57.5 102,-57.5 102,-38.5 0,-38.5"/>
<text text-anchor="middle" x="51" y="-45.5" font-family="Helvetica,sans-Serif" font-size="10.00">ParallelReadGraph</text>
</g>
<!-- Node49 -->
<g id="node2" class="node"><title>Node49</title>
<g id="a_node2"><a xlink:href="a00945.html#a0ddf1224851353fc92bfbff6f499fa97" target="_top" xlink:title="main">
<polygon fill="white" stroke="black" points="173,-76.5 173,-95.5 211,-95.5 211,-76.5 173,-76.5"/>
<text text-anchor="middle" x="192" y="-83.5" font-family="Helvetica,sans-Serif" font-size="10.00">main</text>
</a>
</g>
</g>
<!-- Node48&#45;&gt;Node49 -->
<g id="edge1" class="edge"><title>Node48&#45;&gt;Node49</title>
<path fill="none" stroke="midnightblue" d="M97.041,-60.3134C122.85,-67.369 153.816,-75.8347 172.953,-81.0663"/>
<polygon fill="midnightblue" stroke="midnightblue" points="97.6446,-56.85 87.0756,-57.589 95.7986,-63.6022 97.6446,-56.85"/>
</g>
<!-- Node50 -->
<g id="node3" class="node"><title>Node50</title>
<g id="a_node3"><a xlink:href="a00428.html#ac0ca0065f1dc35b0f4fe4d1968313dca" target="_top" xlink:title="TestParMetis">
<polygon fill="white" stroke="black" points="154.5,-38.5 154.5,-57.5 229.5,-57.5 229.5,-38.5 154.5,-38.5"/>
<text text-anchor="middle" x="192" y="-45.5" font-family="Helvetica,sans-Serif" font-size="10.00">TestParMetis</text>
</a>
</g>
</g>
<!-- Node48&#45;&gt;Node50 -->
<g id="edge2" class="edge"><title>Node48&#45;&gt;Node50</title>
<path fill="none" stroke="midnightblue" d="M112.46,-48C126.749,-48 141.557,-48 154.411,-48"/>
<polygon fill="midnightblue" stroke="midnightblue" points="112.182,-44.5001 102.182,-48 112.182,-51.5001 112.182,-44.5001"/>
</g>
<!-- Node51 -->
<g id="node4" class="node"><title>Node51</title>
<g id="a_node4"><a xlink:href="a00437.html#adb0c2dc0c5138f35c71739328c702074" target="_top" xlink:title="TestParMetis_GPart">
<polygon fill="white" stroke="black" points="138.5,-0.5 138.5,-19.5 245.5,-19.5 245.5,-0.5 138.5,-0.5"/>
<text text-anchor="middle" x="192" y="-7.5" font-family="Helvetica,sans-Serif" font-size="10.00">TestParMetis_GPart</text>
</a>
</g>
</g>
<!-- Node48&#45;&gt;Node51 -->
<g id="edge3" class="edge"><title>Node48&#45;&gt;Node51</title>
<path fill="none" stroke="midnightblue" d="M96.7953,-35.7538C115.955,-30.516 137.994,-24.4909 155.936,-19.5859"/>
<polygon fill="midnightblue" stroke="midnightblue" points="95.7986,-32.3978 87.0756,-38.411 97.6446,-39.15 95.7986,-32.3978"/>
</g>
<!-- Node52 -->
<g id="node5" class="node"><title>Node52</title>
<g id="a_node5"><a xlink:href="a00428.html#a8f4019835796a39a97c345864d80fcbb" target="_top" xlink:title="main">
<polygon fill="white" stroke="black" points="282,-0.5 282,-19.5 320,-19.5 320,-0.5 282,-0.5"/>
<text text-anchor="middle" x="301" y="-7.5" font-family="Helvetica,sans-Serif" font-size="10.00">main</text>
</a>
</g>
</g>
<!-- Node51&#45;&gt;Node52 -->
<g id="edge4" class="edge"><title>Node51&#45;&gt;Node52</title>
<path fill="none" stroke="midnightblue" d="M255.658,-10C265.26,-10 274.455,-10 281.959,-10"/>
<polygon fill="midnightblue" stroke="midnightblue" points="255.56,-6.5001 245.56,-10 255.56,-13.5001 255.56,-6.5001"/>
</g>
</g>
</svg>
