<?xml version="1.0" encoding="UTF-8" standalone="no"?>
<!DOCTYPE svg PUBLIC "-//W3C//DTD SVG 1.1//EN"
 "http://www.w3.org/Graphics/SVG/1.1/DTD/svg11.dtd">
<!-- Generated by graphviz version 2.36.0 (20140111.2315)
 -->
<!-- Title: AllocateWorkSpace Pages: 1 -->
<svg width="578pt" height="125pt"
 viewBox="0.00 0.00 578.00 124.90" xmlns="http://www.w3.org/2000/svg" xmlns:xlink="http://www.w3.org/1999/xlink">
<g id="graph0" class="graph" transform="scale(1 1) rotate(0) translate(4 120.901)">
<title>AllocateWorkSpace</title>
<polygon fill="white" stroke="none" points="-4,4 -4,-120.901 574,-120.901 574,4 -4,4"/>
<!-- Node2 -->
<g id="node1" class="node"><title>Node2</title>
<polygon fill="#bfbfbf" stroke="black" points="0,-57.5 0,-76.5 104,-76.5 104,-57.5 0,-57.5"/>
<text text-anchor="middle" x="52" y="-64.5" font-family="Helvetica,sans-Serif" font-size="10.00">AllocateWorkSpace</text>
</g>
<!-- Node3 -->
<g id="node2" class="node"><title>Node3</title>
<g id="a_node2"><a xlink:href="a00077.html#aba5df0f5155d88c0331fd6c996b483ed" target="_top" xlink:title="gk_mcoreCreate">
<polygon fill="white" stroke="black" points="140,-57.5 140,-76.5 230,-76.5 230,-57.5 140,-57.5"/>
<text text-anchor="middle" x="185" y="-64.5" font-family="Helvetica,sans-Serif" font-size="10.00">gk_mcoreCreate</text>
</a>
</g>
</g>
<!-- Node2&#45;&gt;Node3 -->
<g id="edge1" class="edge"><title>Node2&#45;&gt;Node3</title>
<path fill="none" stroke="midnightblue" d="M104.023,-67C112.399,-67 121.108,-67 129.563,-67"/>
<polygon fill="midnightblue" stroke="midnightblue" points="129.712,-70.5001 139.712,-67 129.712,-63.5001 129.712,-70.5001"/>
</g>
<!-- Node4 -->
<g id="node3" class="node"><title>Node4</title>
<g id="a_node3"><a xlink:href="a00077.html#aba6f76f5c67b9b7e9c2e45988d3d3e9d" target="_top" xlink:title="gk_malloc">
<polygon fill="white" stroke="black" points="266,-57.5 266,-76.5 328,-76.5 328,-57.5 266,-57.5"/>
<text text-anchor="middle" x="297" y="-64.5" font-family="Helvetica,sans-Serif" font-size="10.00">gk_malloc</text>
</a>
</g>
</g>
<!-- Node3&#45;&gt;Node4 -->
<g id="edge2" class="edge"><title>Node3&#45;&gt;Node4</title>
<path fill="none" stroke="midnightblue" d="M230.107,-67C238.513,-67 247.272,-67 255.556,-67"/>
<polygon fill="midnightblue" stroke="midnightblue" points="255.733,-70.5001 265.733,-67 255.733,-63.5001 255.733,-70.5001"/>
</g>
<!-- Node5 -->
<g id="node4" class="node"><title>Node5</title>
<g id="a_node4"><a xlink:href="a01017.html#a2e311a777ffe9c80e405efa7cd2757be" target="_top" xlink:title="fprintf">
<polygon fill="white" stroke="black" points="528,-57.5 528,-76.5 570,-76.5 570,-57.5 528,-57.5"/>
<text text-anchor="middle" x="549" y="-64.5" font-family="Helvetica,sans-Serif" font-size="10.00">fprintf</text>
</a>
</g>
</g>
<!-- Node4&#45;&gt;Node5 -->
<g id="edge3" class="edge"><title>Node4&#45;&gt;Node5</title>
<path fill="none" stroke="midnightblue" d="M310.261,-76.7187C322.891,-86.0589 343.563,-99.5369 364,-105 418.959,-119.691 437.62,-121.709 492,-105 506.039,-100.686 519.719,-91.5255 530.044,-83.2793"/>
<polygon fill="midnightblue" stroke="midnightblue" points="532.469,-85.8134 537.862,-76.6941 527.959,-80.4595 532.469,-85.8134"/>
</g>
<!-- Node6 -->
<g id="node5" class="node"><title>Node6</title>
<g id="a_node5"><a xlink:href="a00110.html#ad2327b94227019b6753b6b09400c0522" target="_top" xlink:title="gk_GetCurMemoryUsed">
<polygon fill="white" stroke="black" points="366,-76.5 366,-95.5 490,-95.5 490,-76.5 366,-76.5"/>
<text text-anchor="middle" x="428" y="-83.5" font-family="Helvetica,sans-Serif" font-size="10.00">gk_GetCurMemoryUsed</text>
</a>
</g>
</g>
<!-- Node4&#45;&gt;Node6 -->
<g id="edge4" class="edge"><title>Node4&#45;&gt;Node6</title>
<path fill="none" stroke="midnightblue" d="M328.245,-71.4547C336.646,-72.692 346.139,-74.0903 355.836,-75.5184"/>
<polygon fill="midnightblue" stroke="midnightblue" points="355.573,-79.0175 365.977,-77.0121 356.593,-72.0922 355.573,-79.0175"/>
</g>
<!-- Node7 -->
<g id="node6" class="node"><title>Node7</title>
<g id="a_node6"><a xlink:href="a00110.html#a656fd5266ae12a96e53125486f8fea52" target="_top" xlink:title="gk_GetMaxMemoryUsed">
<polygon fill="white" stroke="black" points="364.5,-38.5 364.5,-57.5 491.5,-57.5 491.5,-38.5 364.5,-38.5"/>
<text text-anchor="middle" x="428" y="-45.5" font-family="Helvetica,sans-Serif" font-size="10.00">gk_GetMaxMemoryUsed</text>
</a>
</g>
</g>
<!-- Node4&#45;&gt;Node7 -->
<g id="edge5" class="edge"><title>Node4&#45;&gt;Node7</title>
<path fill="none" stroke="midnightblue" d="M328.245,-62.5453C336.229,-61.3693 345.2,-60.048 354.395,-58.6938"/>
<polygon fill="midnightblue" stroke="midnightblue" points="355.04,-62.1366 364.423,-57.2167 354.02,-55.2113 355.04,-62.1366"/>
</g>
<!-- Node8 -->
<g id="node7" class="node"><title>Node8</title>
<g id="a_node7"><a xlink:href="a00026.html#a4c320c13bcdc9967613253ef4c73f59f" target="_top" xlink:title="gk_errexit">
<polygon fill="white" stroke="black" points="398,-0.5 398,-19.5 458,-19.5 458,-0.5 398,-0.5"/>
<text text-anchor="middle" x="428" y="-7.5" font-family="Helvetica,sans-Serif" font-size="10.00">gk_errexit</text>
</a>
</g>
</g>
<!-- Node4&#45;&gt;Node8 -->
<g id="edge6" class="edge"><title>Node4&#45;&gt;Node8</title>
<path fill="none" stroke="midnightblue" d="M312.436,-57.3905C325.481,-49.027 345.428,-37.0202 364,-29 371.68,-25.6834 380.121,-22.7096 388.259,-20.1539"/>
<polygon fill="midnightblue" stroke="midnightblue" points="389.388,-23.4695 397.965,-17.2488 387.381,-16.7634 389.388,-23.4695"/>
</g>
<!-- Node8&#45;&gt;Node5 -->
<g id="edge7" class="edge"><title>Node8&#45;&gt;Node5</title>
<path fill="none" stroke="midnightblue" d="M458.228,-16.8252C469.104,-19.8755 481.377,-23.9396 492,-29 504.634,-35.0184 517.634,-43.6626 527.925,-51.1863"/>
<polygon fill="midnightblue" stroke="midnightblue" points="526.101,-54.1937 536.194,-57.4154 530.313,-48.6027 526.101,-54.1937"/>
</g>
</g>
</svg>
