<?xml version="1.0" encoding="UTF-8" standalone="no"?>
<!DOCTYPE svg PUBLIC "-//W3C//DTD SVG 1.1//EN"
 "http://www.w3.org/Graphics/SVG/1.1/DTD/svg11.dtd">
<!-- Generated by graphviz version 2.36.0 (20140111.2315)
 -->
<!-- Title: ReadTestCoordinates Pages: 1 -->
<svg width="340pt" height="104pt"
 viewBox="0.00 0.00 340.00 104.00" xmlns="http://www.w3.org/2000/svg" xmlns:xlink="http://www.w3.org/1999/xlink">
<g id="graph0" class="graph" transform="scale(1 1) rotate(0) translate(4 100)">
<title>ReadTestCoordinates</title>
<polygon fill="white" stroke="none" points="-4,4 -4,-100 336,-100 336,4 -4,4"/>
<!-- Node73 -->
<g id="node1" class="node"><title>Node73</title>
<polygon fill="#bfbfbf" stroke="black" points="0,-38.5 0,-57.5 114,-57.5 114,-38.5 0,-38.5"/>
<text text-anchor="middle" x="57" y="-45.5" font-family="Helvetica,sans-Serif" font-size="10.00">ReadTestCoordinates</text>
</g>
<!-- Node74 -->
<g id="node2" class="node"><title>Node74</title>
<g id="a_node2"><a xlink:href="a00945.html#a0ddf1224851353fc92bfbff6f499fa97" target="_top" xlink:title="main">
<polygon fill="white" stroke="black" points="185,-76.5 185,-95.5 223,-95.5 223,-76.5 185,-76.5"/>
<text text-anchor="middle" x="204" y="-83.5" font-family="Helvetica,sans-Serif" font-size="10.00">main</text>
</a>
</g>
</g>
<!-- Node73&#45;&gt;Node74 -->
<g id="edge1" class="edge"><title>Node73&#45;&gt;Node74</title>
<path fill="none" stroke="midnightblue" d="M104.389,-60.1571C131.787,-67.3374 164.928,-76.0226 184.965,-81.2737"/>
<polygon fill="midnightblue" stroke="midnightblue" points="105.15,-56.7385 94.5896,-57.589 103.376,-63.5098 105.15,-56.7385"/>
</g>
<!-- Node75 -->
<g id="node3" class="node"><title>Node75</title>
<g id="a_node3"><a xlink:href="a00428.html#ac0ca0065f1dc35b0f4fe4d1968313dca" target="_top" xlink:title="TestParMetis">
<polygon fill="white" stroke="black" points="166.5,-38.5 166.5,-57.5 241.5,-57.5 241.5,-38.5 166.5,-38.5"/>
<text text-anchor="middle" x="204" y="-45.5" font-family="Helvetica,sans-Serif" font-size="10.00">TestParMetis</text>
</a>
</g>
</g>
<!-- Node73&#45;&gt;Node75 -->
<g id="edge2" class="edge"><title>Node73&#45;&gt;Node75</title>
<path fill="none" stroke="midnightblue" d="M124.456,-48C138.855,-48 153.574,-48 166.32,-48"/>
<polygon fill="midnightblue" stroke="midnightblue" points="124.061,-44.5001 114.061,-48 124.061,-51.5001 124.061,-44.5001"/>
</g>
<!-- Node76 -->
<g id="node4" class="node"><title>Node76</title>
<g id="a_node4"><a xlink:href="a00437.html#adb0c2dc0c5138f35c71739328c702074" target="_top" xlink:title="TestParMetis_GPart">
<polygon fill="white" stroke="black" points="150.5,-0.5 150.5,-19.5 257.5,-19.5 257.5,-0.5 150.5,-0.5"/>
<text text-anchor="middle" x="204" y="-7.5" font-family="Helvetica,sans-Serif" font-size="10.00">TestParMetis_GPart</text>
</a>
</g>
</g>
<!-- Node73&#45;&gt;Node76 -->
<g id="edge3" class="edge"><title>Node73&#45;&gt;Node76</title>
<path fill="none" stroke="midnightblue" d="M104.493,-35.8157C124.624,-30.54 147.838,-24.4562 166.673,-19.5201"/>
<polygon fill="midnightblue" stroke="midnightblue" points="103.376,-32.4902 94.5896,-38.411 105.15,-39.2615 103.376,-32.4902"/>
</g>
<!-- Node77 -->
<g id="node5" class="node"><title>Node77</title>
<g id="a_node5"><a xlink:href="a00428.html#a8f4019835796a39a97c345864d80fcbb" target="_top" xlink:title="main">
<polygon fill="white" stroke="black" points="294,-0.5 294,-19.5 332,-19.5 332,-0.5 294,-0.5"/>
<text text-anchor="middle" x="313" y="-7.5" font-family="Helvetica,sans-Serif" font-size="10.00">main</text>
</a>
</g>
</g>
<!-- Node76&#45;&gt;Node77 -->
<g id="edge4" class="edge"><title>Node76&#45;&gt;Node77</title>
<path fill="none" stroke="midnightblue" d="M267.658,-10C277.26,-10 286.455,-10 293.959,-10"/>
<polygon fill="midnightblue" stroke="midnightblue" points="267.56,-6.5001 257.56,-10 267.56,-13.5001 267.56,-6.5001"/>
</g>
</g>
</svg>
