<?xml version="1.0" encoding="UTF-8" standalone="no"?>
<!DOCTYPE svg PUBLIC "-//W3C//DTD SVG 1.1//EN"
 "http://www.w3.org/Graphics/SVG/1.1/DTD/svg11.dtd">
<!-- Generated by graphviz version 2.36.0 (20140111.2315)
 -->
<!-- Title: InitSeparator Pages: 1 -->
<!--zoomable 142 -->
<svg id="main" version="1.1" xmlns="http://www.w3.org/2000/svg" xmlns:xlink="http://www.w3.org/1999/xlink" xml:space="preserve" onload="init(evt)">
<style type="text/css"><![CDATA[
.edge:hover path { stroke: red; }
.edge:hover polygon { stroke: red; fill: red; }
]]></style>
<script type="text/javascript"><![CDATA[
var edges = document.getElementsByTagName('g');
if (edges && edges.length) {
  for (var i=0;i<edges.length;i++) {
    if (edges[i].id.substr(0,4)=='edge') {
      edges[i].setAttribute('class','edge');
    }
  }
}
]]></script>
        <defs>
                <circle id="rim" cx="0" cy="0" r="7"/>
                <circle id="rim2" cx="0" cy="0" r="3.5"/>
                <g id="zoomPlus">
                        <use xlink:href="#rim" fill="#404040">
                                <set attributeName="fill" to="#808080" begin="zoomplus.mouseover" end="zoomplus.mouseout"/>
                        </use>
                        <path d="M-4,0h8M0,-4v8" fill="none" stroke="white" stroke-width="1.5" pointer-events="none"/>
                </g>
                <g id="zoomMin">
                        <use xlink:href="#rim" fill="#404040">
                                <set attributeName="fill" to="#808080" begin="zoomminus.mouseover" end="zoomminus.mouseout"/>
                        </use>
                        <path d="M-4,0h8" fill="none" stroke="white" stroke-width="1.5" pointer-events="none"/>
                </g>
                <g id="dirArrow">
                        <path fill="none" stroke="white" stroke-width="1.5" d="M0,-3.0v7 M-2.5,-0.5L0,-3.0L2.5,-0.5"/>
                </g>
               <g id="resetDef">
                       <use xlink:href="#rim2" fill="#404040">
                               <set attributeName="fill" to="#808080" begin="reset.mouseover" end="reset.mouseout"/>
                       </use>
               </g>
        </defs>

<script type="text/javascript">
var viewWidth = 564;
var viewHeight = 142;
var sectionId = 'dynsection-79';
</script>
<script xlink:href="svgpan.js"/>
<svg id="graph" class="graph">
<g id="viewport">
<title>InitSeparator</title>
<polygon fill="white" stroke="none" points="-4,4 -4,-138 560,-138 560,4 -4,4"/>
<!-- Node445 -->
<g id="node1" class="node"><title>Node445</title>
<polygon fill="#bfbfbf" stroke="black" points="0,-57.5 0,-76.5 74,-76.5 74,-57.5 0,-57.5"/>
<text text-anchor="middle" x="37" y="-64.5" font-family="Helvetica,sans-Serif" font-size="10.00">InitSeparator</text>
</g>
<!-- Node446 -->
<g id="node2" class="node"><title>Node446</title>
<g id="a_node2"><a xlink:href="a00906.html#ad9f0573a18d3fcfa45d73c3bef80e5f8" target="_top" xlink:title="RandomBisection">
<polygon fill="white" stroke="black" points="115.5,-114.5 115.5,-133.5 210.5,-133.5 210.5,-114.5 115.5,-114.5"/>
<text text-anchor="middle" x="163" y="-121.5" font-family="Helvetica,sans-Serif" font-size="10.00">RandomBisection</text>
</a>
</g>
</g>
<!-- Node445&#45;&gt;Node446 -->
<g id="edge1" class="edge"><title>Node445&#45;&gt;Node446</title>
<path fill="none" stroke="midnightblue" d="M54.5573,-76.5619C68.9497,-84.6728 90.4947,-96.337 110,-105 114.485,-106.992 119.25,-108.945 124.005,-110.796"/>
<polygon fill="midnightblue" stroke="midnightblue" points="123.064,-114.182 133.656,-114.431 125.531,-107.631 123.064,-114.182"/>
</g>
<!-- Node447 -->
<g id="node3" class="node"><title>Node447</title>
<g id="a_node3"><a xlink:href="a00906.html#aa565fcd8af582579b67153287a07ea69" target="_top" xlink:title="GrowBisection">
<polygon fill="white" stroke="black" points="122.5,-76.5 122.5,-95.5 203.5,-95.5 203.5,-76.5 122.5,-76.5"/>
<text text-anchor="middle" x="163" y="-83.5" font-family="Helvetica,sans-Serif" font-size="10.00">GrowBisection</text>
</a>
</g>
</g>
<!-- Node445&#45;&gt;Node447 -->
<g id="edge2" class="edge"><title>Node445&#45;&gt;Node447</title>
<path fill="none" stroke="midnightblue" d="M74.1993,-72.5467C86.0446,-74.3617 99.4191,-76.411 112.092,-78.3529"/>
<polygon fill="midnightblue" stroke="midnightblue" points="111.648,-81.8256 122.063,-79.8806 112.709,-74.9063 111.648,-81.8256"/>
</g>
<!-- Node449 -->
<g id="node5" class="node"><title>Node449</title>
<g id="a_node5"><a xlink:href="a00906.html#a5882ab0f565a5e97581ad5c4847effbc" target="_top" xlink:title="GrowBisectionNode">
<polygon fill="white" stroke="black" points="110.5,-38.5 110.5,-57.5 215.5,-57.5 215.5,-38.5 110.5,-38.5"/>
<text text-anchor="middle" x="163" y="-45.5" font-family="Helvetica,sans-Serif" font-size="10.00">GrowBisectionNode</text>
</a>
</g>
</g>
<!-- Node445&#45;&gt;Node449 -->
<g id="edge4" class="edge"><title>Node445&#45;&gt;Node449</title>
<path fill="none" stroke="midnightblue" d="M74.1993,-61.4533C82.4055,-60.1959 91.3457,-58.8261 100.278,-57.4574"/>
<polygon fill="midnightblue" stroke="midnightblue" points="100.966,-60.8929 110.321,-55.9186 99.9058,-53.9737 100.966,-60.8929"/>
</g>
<!-- Node454 -->
<g id="node10" class="node"><title>Node454</title>
<g id="a_node10"><a xlink:href="a00026.html#a4c320c13bcdc9967613253ef4c73f59f" target="_top" xlink:title="gk_errexit">
<polygon fill="white" stroke="black" points="384,-0.5 384,-19.5 444,-19.5 444,-0.5 384,-0.5"/>
<text text-anchor="middle" x="414" y="-7.5" font-family="Helvetica,sans-Serif" font-size="10.00">gk_errexit</text>
</a>
</g>
</g>
<!-- Node445&#45;&gt;Node454 -->
<g id="edge11" class="edge"><title>Node445&#45;&gt;Node454</title>
<path fill="none" stroke="midnightblue" d="M51.8595,-57.3876C65.8308,-48.269 88.3658,-35.0836 110,-29 201.712,-3.21046 314.966,-4.36682 373.623,-7.27495"/>
<polygon fill="midnightblue" stroke="midnightblue" points="373.748,-10.7867 383.922,-7.83224 374.126,-3.79697 373.748,-10.7867"/>
</g>
<!-- Node448 -->
<g id="node4" class="node"><title>Node448</title>
<g id="a_node4"><a xlink:href="a00623.html#ad1e7380d51df1e0043d24d3c8a860e0a" target="_top" xlink:title="for">
<polygon fill="white" stroke="black" points="268.5,-76.5 268.5,-95.5 297.5,-95.5 297.5,-76.5 268.5,-76.5"/>
<text text-anchor="middle" x="283" y="-83.5" font-family="Helvetica,sans-Serif" font-size="10.00">for</text>
</a>
</g>
</g>
<!-- Node447&#45;&gt;Node448 -->
<g id="edge3" class="edge"><title>Node447&#45;&gt;Node448</title>
<path fill="none" stroke="midnightblue" d="M203.621,-86C221.615,-86 242.316,-86 257.923,-86"/>
<polygon fill="midnightblue" stroke="midnightblue" points="258.276,-89.5001 268.275,-86 258.275,-82.5001 258.276,-89.5001"/>
</g>
<!-- Node450 -->
<g id="node6" class="node"><title>Node450</title>
<g id="a_node6"><a xlink:href="a00077.html#aba6f76f5c67b9b7e9c2e45988d3d3e9d" target="_top" xlink:title="gk_malloc">
<polygon fill="white" stroke="black" points="252,-38.5 252,-57.5 314,-57.5 314,-38.5 252,-38.5"/>
<text text-anchor="middle" x="283" y="-45.5" font-family="Helvetica,sans-Serif" font-size="10.00">gk_malloc</text>
</a>
</g>
</g>
<!-- Node449&#45;&gt;Node450 -->
<g id="edge5" class="edge"><title>Node449&#45;&gt;Node450</title>
<path fill="none" stroke="midnightblue" d="M215.757,-48C224.465,-48 233.386,-48 241.748,-48"/>
<polygon fill="midnightblue" stroke="midnightblue" points="241.98,-51.5001 251.98,-48 241.98,-44.5001 241.98,-51.5001"/>
</g>
<!-- Node451 -->
<g id="node7" class="node"><title>Node451</title>
<g id="a_node7"><a xlink:href="a01017.html#a2e311a777ffe9c80e405efa7cd2757be" target="_top" xlink:title="fprintf">
<polygon fill="white" stroke="black" points="514,-57.5 514,-76.5 556,-76.5 556,-57.5 514,-57.5"/>
<text text-anchor="middle" x="535" y="-64.5" font-family="Helvetica,sans-Serif" font-size="10.00">fprintf</text>
</a>
</g>
</g>
<!-- Node450&#45;&gt;Node451 -->
<g id="edge6" class="edge"><title>Node450&#45;&gt;Node451</title>
<path fill="none" stroke="midnightblue" d="M300.702,-57.5514C305.177,-60.3817 309.906,-63.6313 314,-67 331.965,-81.7816 328.629,-95.8075 350,-105 402.26,-127.479 423.62,-121.709 478,-105 492.039,-100.686 505.719,-91.5255 516.044,-83.2793"/>
<polygon fill="midnightblue" stroke="midnightblue" points="518.469,-85.8134 523.862,-76.6941 513.959,-80.4595 518.469,-85.8134"/>
</g>
<!-- Node452 -->
<g id="node8" class="node"><title>Node452</title>
<g id="a_node8"><a xlink:href="a00110.html#ad2327b94227019b6753b6b09400c0522" target="_top" xlink:title="gk_GetCurMemoryUsed">
<polygon fill="white" stroke="black" points="352,-76.5 352,-95.5 476,-95.5 476,-76.5 352,-76.5"/>
<text text-anchor="middle" x="414" y="-83.5" font-family="Helvetica,sans-Serif" font-size="10.00">gk_GetCurMemoryUsed</text>
</a>
</g>
</g>
<!-- Node450&#45;&gt;Node452 -->
<g id="edge7" class="edge"><title>Node450&#45;&gt;Node452</title>
<path fill="none" stroke="midnightblue" d="M314.245,-56.9093C331.162,-61.8927 352.509,-68.1809 371.024,-73.6349"/>
<polygon fill="midnightblue" stroke="midnightblue" points="370.108,-77.0139 380.69,-76.4822 372.086,-70.2991 370.108,-77.0139"/>
</g>
<!-- Node453 -->
<g id="node9" class="node"><title>Node453</title>
<g id="a_node9"><a xlink:href="a00110.html#a656fd5266ae12a96e53125486f8fea52" target="_top" xlink:title="gk_GetMaxMemoryUsed">
<polygon fill="white" stroke="black" points="350.5,-38.5 350.5,-57.5 477.5,-57.5 477.5,-38.5 350.5,-38.5"/>
<text text-anchor="middle" x="414" y="-45.5" font-family="Helvetica,sans-Serif" font-size="10.00">gk_GetMaxMemoryUsed</text>
</a>
</g>
</g>
<!-- Node450&#45;&gt;Node453 -->
<g id="edge8" class="edge"><title>Node450&#45;&gt;Node453</title>
<path fill="none" stroke="midnightblue" d="M314.245,-48C322.229,-48 331.2,-48 340.395,-48"/>
<polygon fill="midnightblue" stroke="midnightblue" points="340.423,-51.5001 350.423,-48 340.423,-44.5001 340.423,-51.5001"/>
</g>
<!-- Node450&#45;&gt;Node454 -->
<g id="edge9" class="edge"><title>Node450&#45;&gt;Node454</title>
<path fill="none" stroke="midnightblue" d="M314.245,-39.0907C332.128,-33.8228 354.96,-27.0969 374.165,-21.4396"/>
<polygon fill="midnightblue" stroke="midnightblue" points="375.229,-24.7751 383.832,-18.592 373.251,-18.0604 375.229,-24.7751"/>
</g>
<!-- Node454&#45;&gt;Node451 -->
<g id="edge10" class="edge"><title>Node454&#45;&gt;Node451</title>
<path fill="none" stroke="midnightblue" d="M444.228,-16.8252C455.104,-19.8755 467.377,-23.9396 478,-29 490.634,-35.0184 503.634,-43.6626 513.925,-51.1863"/>
<polygon fill="midnightblue" stroke="midnightblue" points="512.101,-54.1937 522.194,-57.4154 516.313,-48.6027 512.101,-54.1937"/>
</g>
</g>
</svg>
        <g id="navigator" transform="translate(0 0)" fill="#404254">
                <rect fill="#f2f5e9" fill-opacity="0.5" stroke="#606060" stroke-width=".5" x="0" y="0" width="60" height="60"/>
                <use id="zoomplus" xlink:href="#zoomPlus" x="17" y="9" onmousedown="handleZoom(evt,'in')"/>
                <use id="zoomminus" xlink:href="#zoomMin" x="42" y="9" onmousedown="handleZoom(evt,'out')"/>
                <use id="reset" xlink:href="#resetDef" x="30" y="36" onmousedown="handleReset()"/>
                <g id="arrowUp" xlink:href="#dirArrow" transform="translate(30 24)" onmousedown="handlePan(0,-1)">
                  <use xlink:href="#rim" fill="#404040">
                        <set attributeName="fill" to="#808080" begin="arrowUp.mouseover" end="arrowUp.mouseout"/>
                  </use>
                  <path fill="none" stroke="white" stroke-width="1.5" d="M0,-3.0v7 M-2.5,-0.5L0,-3.0L2.5,-0.5"/>
                </g>
                <g id="arrowRight" xlink:href="#dirArrow" transform="rotate(90) translate(36 -43)" onmousedown="handlePan(1,0)">
                  <use xlink:href="#rim" fill="#404040">
                        <set attributeName="fill" to="#808080" begin="arrowRight.mouseover" end="arrowRight.mouseout"/>
                  </use>
                  <path fill="none" stroke="white" stroke-width="1.5" d="M0,-3.0v7 M-2.5,-0.5L0,-3.0L2.5,-0.5"/>
                </g>
                <g id="arrowDown" xlink:href="#dirArrow" transform="rotate(180) translate(-30 -48)" onmousedown="handlePan(0,1)">
                  <use xlink:href="#rim" fill="#404040">
                        <set attributeName="fill" to="#808080" begin="arrowDown.mouseover" end="arrowDown.mouseout"/>
                  </use>
                  <path fill="none" stroke="white" stroke-width="1.5" d="M0,-3.0v7 M-2.5,-0.5L0,-3.0L2.5,-0.5"/>
                </g>
                <g id="arrowLeft" xlink:href="#dirArrow" transform="rotate(270) translate(-36 17)" onmousedown="handlePan(-1,0)">
                  <use xlink:href="#rim" fill="#404040">
                        <set attributeName="fill" to="#808080" begin="arrowLeft.mouseover" end="arrowLeft.mouseout"/>
                  </use>
                  <path fill="none" stroke="white" stroke-width="1.5" d="M0,-3.0v7 M-2.5,-0.5L0,-3.0L2.5,-0.5"/>
                </g>
        </g>
        <svg viewBox="0 0 15 15" width="100%" height="30px" preserveAspectRatio="xMaxYMin meet">
         <g id="arrow_out" transform="scale(0.3 0.3)">
          <a xlink:href="a00948_a2927ed69df973d68e918bb74f75b0b70_cgraph_org.svg" target="_base">
           <rect id="button" ry="5" rx="5" y="6" x="6" height="38" width="38"
                fill="#f2f5e9" fill-opacity="0.5" stroke="#606060" stroke-width="1.0"/>
           <path id="arrow"
             d="M 11.500037,31.436501 C 11.940474,20.09759 22.043105,11.32322 32.158766,21.979434 L 37.068811,17.246167 C 37.068811,17.246167 37.088388,32 37.088388,32 L 22.160133,31.978069 C 22.160133,31.978069 26.997745,27.140456 26.997745,27.140456 C 18.528582,18.264221 13.291696,25.230495 11.500037,31.436501 z"
             style="fill:#404040;"/>
          </a>
         </g>
        </svg>
</svg>
