<?xml version="1.0" encoding="UTF-8" standalone="no"?>
<!DOCTYPE svg PUBLIC "-//W3C//DTD SVG 1.1//EN"
 "http://www.w3.org/Graphics/SVG/1.1/DTD/svg11.dtd">
<!-- Generated by graphviz version 2.36.0 (20140111.2315)
 -->
<!-- Title: AllocateKWayPartitionMemory Pages: 1 -->
<svg width="500pt" height="127pt"
 viewBox="0.00 0.00 500.00 126.90" xmlns="http://www.w3.org/2000/svg" xmlns:xlink="http://www.w3.org/1999/xlink">
<g id="graph0" class="graph" transform="scale(1 1) rotate(0) translate(4 122.9)">
<title>AllocateKWayPartitionMemory</title>
<polygon fill="white" stroke="none" points="-4,4 -4,-122.9 496,-122.9 496,4 -4,4"/>
<!-- Node13 -->
<g id="node1" class="node"><title>Node13</title>
<polygon fill="#bfbfbf" stroke="black" points="0,-19.5 0,-38.5 152,-38.5 152,-19.5 0,-19.5"/>
<text text-anchor="middle" x="76" y="-26.5" font-family="Helvetica,sans-Serif" font-size="10.00">AllocateKWayPartitionMemory</text>
</g>
<!-- Node14 -->
<g id="node2" class="node"><title>Node14</title>
<g id="a_node2"><a xlink:href="a00077.html#aba6f76f5c67b9b7e9c2e45988d3d3e9d" target="_top" xlink:title="gk_malloc">
<polygon fill="white" stroke="black" points="188,-38.5 188,-57.5 250,-57.5 250,-38.5 188,-38.5"/>
<text text-anchor="middle" x="219" y="-45.5" font-family="Helvetica,sans-Serif" font-size="10.00">gk_malloc</text>
</a>
</g>
</g>
<!-- Node13&#45;&gt;Node14 -->
<g id="edge1" class="edge"><title>Node13&#45;&gt;Node14</title>
<path fill="none" stroke="midnightblue" d="M147.913,-38.5557C158.177,-39.9388 168.43,-41.3203 177.8,-42.583"/>
<polygon fill="midnightblue" stroke="midnightblue" points="177.581,-46.085 187.959,-43.9519 178.516,-39.1477 177.581,-46.085"/>
</g>
<!-- Node18 -->
<g id="node6" class="node"><title>Node18</title>
<g id="a_node6"><a xlink:href="a00026.html#a4c320c13bcdc9967613253ef4c73f59f" target="_top" xlink:title="gk_errexit">
<polygon fill="white" stroke="black" points="320,-0.5 320,-19.5 380,-19.5 380,-0.5 320,-0.5"/>
<text text-anchor="middle" x="350" y="-7.5" font-family="Helvetica,sans-Serif" font-size="10.00">gk_errexit</text>
</a>
</g>
</g>
<!-- Node13&#45;&gt;Node18 -->
<g id="edge7" class="edge"><title>Node13&#45;&gt;Node18</title>
<path fill="none" stroke="midnightblue" d="M152.045,-23.7579C203.108,-20.191 268.626,-15.6143 309.723,-12.7436"/>
<polygon fill="midnightblue" stroke="midnightblue" points="310.142,-16.2229 319.874,-12.0345 309.654,-9.23996 310.142,-16.2229"/>
</g>
<!-- Node15 -->
<g id="node3" class="node"><title>Node15</title>
<g id="a_node3"><a xlink:href="a01017.html#a2e311a777ffe9c80e405efa7cd2757be" target="_top" xlink:title="fprintf">
<polygon fill="white" stroke="black" points="450,-57.5 450,-76.5 492,-76.5 492,-57.5 450,-57.5"/>
<text text-anchor="middle" x="471" y="-64.5" font-family="Helvetica,sans-Serif" font-size="10.00">fprintf</text>
</a>
</g>
</g>
<!-- Node14&#45;&gt;Node15 -->
<g id="edge2" class="edge"><title>Node14&#45;&gt;Node15</title>
<path fill="none" stroke="midnightblue" d="M227.244,-57.5757C238.205,-71.1779 260.458,-95.4973 286,-105 339.318,-124.837 359.62,-121.709 414,-105 428.039,-100.686 441.719,-91.5255 452.044,-83.2793"/>
<polygon fill="midnightblue" stroke="midnightblue" points="454.469,-85.8134 459.862,-76.6941 449.959,-80.4595 454.469,-85.8134"/>
</g>
<!-- Node16 -->
<g id="node4" class="node"><title>Node16</title>
<g id="a_node4"><a xlink:href="a00110.html#ad2327b94227019b6753b6b09400c0522" target="_top" xlink:title="gk_GetCurMemoryUsed">
<polygon fill="white" stroke="black" points="288,-76.5 288,-95.5 412,-95.5 412,-76.5 288,-76.5"/>
<text text-anchor="middle" x="350" y="-83.5" font-family="Helvetica,sans-Serif" font-size="10.00">gk_GetCurMemoryUsed</text>
</a>
</g>
</g>
<!-- Node14&#45;&gt;Node16 -->
<g id="edge3" class="edge"><title>Node14&#45;&gt;Node16</title>
<path fill="none" stroke="midnightblue" d="M250.245,-56.9093C267.162,-61.8927 288.509,-68.1809 307.024,-73.6349"/>
<polygon fill="midnightblue" stroke="midnightblue" points="306.108,-77.0139 316.69,-76.4822 308.086,-70.2991 306.108,-77.0139"/>
</g>
<!-- Node17 -->
<g id="node5" class="node"><title>Node17</title>
<g id="a_node5"><a xlink:href="a00110.html#a656fd5266ae12a96e53125486f8fea52" target="_top" xlink:title="gk_GetMaxMemoryUsed">
<polygon fill="white" stroke="black" points="286.5,-38.5 286.5,-57.5 413.5,-57.5 413.5,-38.5 286.5,-38.5"/>
<text text-anchor="middle" x="350" y="-45.5" font-family="Helvetica,sans-Serif" font-size="10.00">gk_GetMaxMemoryUsed</text>
</a>
</g>
</g>
<!-- Node14&#45;&gt;Node17 -->
<g id="edge4" class="edge"><title>Node14&#45;&gt;Node17</title>
<path fill="none" stroke="midnightblue" d="M250.245,-48C258.229,-48 267.2,-48 276.395,-48"/>
<polygon fill="midnightblue" stroke="midnightblue" points="276.423,-51.5001 286.423,-48 276.423,-44.5001 276.423,-51.5001"/>
</g>
<!-- Node14&#45;&gt;Node18 -->
<g id="edge5" class="edge"><title>Node14&#45;&gt;Node18</title>
<path fill="none" stroke="midnightblue" d="M250.245,-39.0907C268.128,-33.8228 290.96,-27.0969 310.165,-21.4396"/>
<polygon fill="midnightblue" stroke="midnightblue" points="311.229,-24.7751 319.832,-18.592 309.251,-18.0604 311.229,-24.7751"/>
</g>
<!-- Node18&#45;&gt;Node15 -->
<g id="edge6" class="edge"><title>Node18&#45;&gt;Node15</title>
<path fill="none" stroke="midnightblue" d="M380.228,-16.8252C391.104,-19.8755 403.377,-23.9396 414,-29 426.634,-35.0184 439.634,-43.6626 449.925,-51.1863"/>
<polygon fill="midnightblue" stroke="midnightblue" points="448.101,-54.1937 458.194,-57.4154 452.313,-48.6027 448.101,-54.1937"/>
</g>
</g>
</svg>
