<?xml version="1.0" encoding="UTF-8" standalone="no"?>
<!DOCTYPE svg PUBLIC "-//W3C//DTD SVG 1.1//EN"
 "http://www.w3.org/Graphics/SVG/1.1/DTD/svg11.dtd">
<!-- Generated by graphviz version 2.36.0 (20140111.2315)
 -->
<!-- Title: Allocate2WayNodePartitionMemory Pages: 1 -->
<svg width="486pt" height="125pt"
 viewBox="0.00 0.00 486.00 124.90" xmlns="http://www.w3.org/2000/svg" xmlns:xlink="http://www.w3.org/1999/xlink">
<g id="graph0" class="graph" transform="scale(1 1) rotate(0) translate(4 120.901)">
<title>Allocate2WayNodePartitionMemory</title>
<polygon fill="white" stroke="none" points="-4,4 -4,-120.901 482,-120.901 482,4 -4,4"/>
<!-- Node0 -->
<g id="node1" class="node"><title>Node0</title>
<polygon fill="#bfbfbf" stroke="black" points="0,-52 0,-82 138,-82 138,-52 0,-52"/>
<text text-anchor="start" x="8" y="-70" font-family="Helvetica,sans-Serif" font-size="10.00">Allocate2WayNodePartition</text>
<text text-anchor="middle" x="69" y="-59" font-family="Helvetica,sans-Serif" font-size="10.00">Memory</text>
</g>
<!-- Node1 -->
<g id="node2" class="node"><title>Node1</title>
<g id="a_node2"><a xlink:href="a00077.html#aba6f76f5c67b9b7e9c2e45988d3d3e9d" target="_top" xlink:title="gk_malloc">
<polygon fill="white" stroke="black" points="174,-57.5 174,-76.5 236,-76.5 236,-57.5 174,-57.5"/>
<text text-anchor="middle" x="205" y="-64.5" font-family="Helvetica,sans-Serif" font-size="10.00">gk_malloc</text>
</a>
</g>
</g>
<!-- Node0&#45;&gt;Node1 -->
<g id="edge1" class="edge"><title>Node0&#45;&gt;Node1</title>
<path fill="none" stroke="midnightblue" d="M138.178,-67C146.899,-67 155.594,-67 163.67,-67"/>
<polygon fill="midnightblue" stroke="midnightblue" points="163.882,-70.5001 173.882,-67 163.882,-63.5001 163.882,-70.5001"/>
</g>
<!-- Node2 -->
<g id="node3" class="node"><title>Node2</title>
<g id="a_node3"><a xlink:href="a01017.html#a2e311a777ffe9c80e405efa7cd2757be" target="_top" xlink:title="fprintf">
<polygon fill="white" stroke="black" points="436,-57.5 436,-76.5 478,-76.5 478,-57.5 436,-57.5"/>
<text text-anchor="middle" x="457" y="-64.5" font-family="Helvetica,sans-Serif" font-size="10.00">fprintf</text>
</a>
</g>
</g>
<!-- Node1&#45;&gt;Node2 -->
<g id="edge2" class="edge"><title>Node1&#45;&gt;Node2</title>
<path fill="none" stroke="midnightblue" d="M218.261,-76.7187C230.891,-86.0589 251.563,-99.5369 272,-105 326.959,-119.691 345.62,-121.709 400,-105 414.039,-100.686 427.719,-91.5255 438.044,-83.2793"/>
<polygon fill="midnightblue" stroke="midnightblue" points="440.469,-85.8134 445.862,-76.6941 435.959,-80.4595 440.469,-85.8134"/>
</g>
<!-- Node3 -->
<g id="node4" class="node"><title>Node3</title>
<g id="a_node4"><a xlink:href="a00110.html#ad2327b94227019b6753b6b09400c0522" target="_top" xlink:title="gk_GetCurMemoryUsed">
<polygon fill="white" stroke="black" points="274,-76.5 274,-95.5 398,-95.5 398,-76.5 274,-76.5"/>
<text text-anchor="middle" x="336" y="-83.5" font-family="Helvetica,sans-Serif" font-size="10.00">gk_GetCurMemoryUsed</text>
</a>
</g>
</g>
<!-- Node1&#45;&gt;Node3 -->
<g id="edge3" class="edge"><title>Node1&#45;&gt;Node3</title>
<path fill="none" stroke="midnightblue" d="M236.245,-71.4547C244.646,-72.692 254.139,-74.0903 263.836,-75.5184"/>
<polygon fill="midnightblue" stroke="midnightblue" points="263.573,-79.0175 273.977,-77.0121 264.593,-72.0922 263.573,-79.0175"/>
</g>
<!-- Node4 -->
<g id="node5" class="node"><title>Node4</title>
<g id="a_node5"><a xlink:href="a00110.html#a656fd5266ae12a96e53125486f8fea52" target="_top" xlink:title="gk_GetMaxMemoryUsed">
<polygon fill="white" stroke="black" points="272.5,-38.5 272.5,-57.5 399.5,-57.5 399.5,-38.5 272.5,-38.5"/>
<text text-anchor="middle" x="336" y="-45.5" font-family="Helvetica,sans-Serif" font-size="10.00">gk_GetMaxMemoryUsed</text>
</a>
</g>
</g>
<!-- Node1&#45;&gt;Node4 -->
<g id="edge4" class="edge"><title>Node1&#45;&gt;Node4</title>
<path fill="none" stroke="midnightblue" d="M236.245,-62.5453C244.229,-61.3693 253.2,-60.048 262.395,-58.6938"/>
<polygon fill="midnightblue" stroke="midnightblue" points="263.04,-62.1366 272.423,-57.2167 262.02,-55.2113 263.04,-62.1366"/>
</g>
<!-- Node5 -->
<g id="node6" class="node"><title>Node5</title>
<g id="a_node6"><a xlink:href="a00026.html#a4c320c13bcdc9967613253ef4c73f59f" target="_top" xlink:title="gk_errexit">
<polygon fill="white" stroke="black" points="306,-0.5 306,-19.5 366,-19.5 366,-0.5 306,-0.5"/>
<text text-anchor="middle" x="336" y="-7.5" font-family="Helvetica,sans-Serif" font-size="10.00">gk_errexit</text>
</a>
</g>
</g>
<!-- Node1&#45;&gt;Node5 -->
<g id="edge5" class="edge"><title>Node1&#45;&gt;Node5</title>
<path fill="none" stroke="midnightblue" d="M220.436,-57.3905C233.481,-49.027 253.428,-37.0202 272,-29 279.68,-25.6834 288.121,-22.7096 296.259,-20.1539"/>
<polygon fill="midnightblue" stroke="midnightblue" points="297.388,-23.4695 305.965,-17.2488 295.381,-16.7634 297.388,-23.4695"/>
</g>
<!-- Node5&#45;&gt;Node2 -->
<g id="edge6" class="edge"><title>Node5&#45;&gt;Node2</title>
<path fill="none" stroke="midnightblue" d="M366.228,-16.8252C377.104,-19.8755 389.377,-23.9396 400,-29 412.634,-35.0184 425.634,-43.6626 435.925,-51.1863"/>
<polygon fill="midnightblue" stroke="midnightblue" points="434.101,-54.1937 444.194,-57.4154 438.313,-48.6027 434.101,-54.1937"/>
</g>
</g>
</svg>
