<?xml version="1.0" encoding="UTF-8" standalone="no"?>
<!DOCTYPE svg PUBLIC "-//W3C//DTD SVG 1.1//EN"
 "http://www.w3.org/Graphics/SVG/1.1/DTD/svg11.dtd">
<!-- Generated by graphviz version 2.36.0 (20140111.2315)
 -->
<!-- Title: Global_Partition Pages: 1 -->
<svg width="306pt" height="57pt"
 viewBox="0.00 0.00 306.00 57.01" xmlns="http://www.w3.org/2000/svg" xmlns:xlink="http://www.w3.org/1999/xlink">
<g id="graph0" class="graph" transform="scale(1 1) rotate(0) translate(4 53.0087)">
<title>Global_Partition</title>
<polygon fill="white" stroke="none" points="-4,4 -4,-53.0087 302,-53.0087 302,4 -4,4"/>
<!-- Node266 -->
<g id="node1" class="node"><title>Node266</title>
<polygon fill="#bfbfbf" stroke="black" points="0,-28.5 0,-47.5 88,-47.5 88,-28.5 0,-28.5"/>
<text text-anchor="middle" x="44" y="-35.5" font-family="Helvetica,sans-Serif" font-size="10.00">Global_Partition</text>
</g>
<!-- Node267 -->
<g id="node2" class="node"><title>Node267</title>
<g id="a_node2"><a xlink:href="a00077.html#ac8df62c4e3d0910711a9874f9cc58884" target="_top" xlink:title="gk_free">
<polygon fill="white" stroke="black" points="248,-28.5 248,-47.5 298,-47.5 298,-28.5 248,-28.5"/>
<text text-anchor="middle" x="273" y="-35.5" font-family="Helvetica,sans-Serif" font-size="10.00">gk_free</text>
</a>
</g>
</g>
<!-- Node266&#45;&gt;Node267 -->
<g id="edge1" class="edge"><title>Node266&#45;&gt;Node267</title>
<path fill="none" stroke="midnightblue" d="M88.3872,-43.8388C99.9382,-45.1477 112.423,-46.3427 124,-47 163.048,-49.2171 172.997,-49.9089 212,-47 220.439,-46.3706 229.489,-45.25 237.938,-44.0083"/>
<polygon fill="midnightblue" stroke="midnightblue" points="238.521,-47.4597 247.862,-42.4587 237.441,-40.5435 238.521,-47.4597"/>
</g>
<!-- Node268 -->
<g id="node3" class="node"><title>Node268</title>
<g id="a_node3"><a xlink:href="a00915.html#af4c32961457a508271104065d135e675" target="_top" xlink:title="Global_Partition">
<polygon fill="white" stroke="black" points="124,-0.5 124,-19.5 212,-19.5 212,-0.5 124,-0.5"/>
<text text-anchor="middle" x="168" y="-7.5" font-family="Helvetica,sans-Serif" font-size="10.00">Global_Partition</text>
</a>
</g>
</g>
<!-- Node266&#45;&gt;Node268 -->
<g id="edge2" class="edge"><title>Node266&#45;&gt;Node268</title>
<path fill="none" stroke="midnightblue" d="M86.6443,-28.4423C95.9685,-26.3023 105.966,-24.0079 115.632,-21.7894"/>
<polygon fill="midnightblue" stroke="midnightblue" points="116.58,-25.1629 125.543,-19.5146 115.014,-18.3403 116.58,-25.1629"/>
</g>
<!-- Node268&#45;&gt;Node267 -->
<g id="edge3" class="edge"><title>Node268&#45;&gt;Node267</title>
<path fill="none" stroke="midnightblue" d="M204.159,-19.5577C215.023,-22.5111 226.97,-25.7587 237.77,-28.6948"/>
<polygon fill="midnightblue" stroke="midnightblue" points="237.134,-32.1487 247.702,-31.3946 238.97,-25.3938 237.134,-32.1487"/>
</g>
<!-- Node268&#45;&gt;Node268 -->
<g id="edge4" class="edge"><title>Node268&#45;&gt;Node268</title>
<path fill="none" stroke="midnightblue" d="M151.971,-19.7571C144.172,-28.5653 149.516,-38 168,-38 179.553,-38 185.972,-34.3146 187.258,-29.4"/>
<polygon fill="midnightblue" stroke="midnightblue" points="190.524,-28.1283 184.029,-19.7571 183.886,-30.3509 190.524,-28.1283"/>
</g>
</g>
</svg>
