<?xml version="1.0" encoding="UTF-8" standalone="no"?>
<!DOCTYPE svg PUBLIC "-//W3C//DTD SVG 1.1//EN"
 "http://www.w3.org/Graphics/SVG/1.1/DTD/svg11.dtd">
<!-- Generated by graphviz version 2.36.0 (20140111.2315)
 -->
<!-- Title: WriteOVector Pages: 1 -->
<svg width="250pt" height="180pt"
 viewBox="0.00 0.00 250.00 180.00" xmlns="http://www.w3.org/2000/svg" xmlns:xlink="http://www.w3.org/1999/xlink">
<g id="graph0" class="graph" transform="scale(1 1) rotate(0) translate(4 176)">
<title>WriteOVector</title>
<polygon fill="white" stroke="none" points="-4,4 -4,-176 246,-176 246,4 -4,4"/>
<!-- Node117 -->
<g id="node1" class="node"><title>Node117</title>
<polygon fill="#bfbfbf" stroke="black" points="0.5,-76.5 0.5,-95.5 77.5,-95.5 77.5,-76.5 0.5,-76.5"/>
<text text-anchor="middle" x="39" y="-83.5" font-family="Helvetica,sans-Serif" font-size="10.00">WriteOVector</text>
</g>
<!-- Node118 -->
<g id="node2" class="node"><title>Node118</title>
<g id="a_node2"><a xlink:href="a00575.html#ae6aab5c308faac0fc539cc9c6da9fbd0" target="_top" xlink:title="sprintf">
<polygon fill="white" stroke="black" points="117,-152.5 117,-171.5 161,-171.5 161,-152.5 117,-152.5"/>
<text text-anchor="middle" x="139" y="-159.5" font-family="Helvetica,sans-Serif" font-size="10.00">sprintf</text>
</a>
</g>
</g>
<!-- Node117&#45;&gt;Node118 -->
<g id="edge1" class="edge"><title>Node117&#45;&gt;Node118</title>
<path fill="none" stroke="midnightblue" d="M52.4118,-95.6255C68.8325,-108.36 97.9899,-130.972 117.655,-146.222"/>
<polygon fill="midnightblue" stroke="midnightblue" points="115.642,-149.09 125.689,-152.453 119.932,-143.559 115.642,-149.09"/>
</g>
<!-- Node119 -->
<g id="node3" class="node"><title>Node119</title>
<g id="a_node3"><a xlink:href="a00026.html#a56d0f2cc40cd8633a784582d6200d8b5" target="_top" xlink:title="errexit">
<polygon fill="white" stroke="black" points="117,-114.5 117,-133.5 161,-133.5 161,-114.5 117,-114.5"/>
<text text-anchor="middle" x="139" y="-121.5" font-family="Helvetica,sans-Serif" font-size="10.00">errexit</text>
</a>
</g>
</g>
<!-- Node117&#45;&gt;Node119 -->
<g id="edge2" class="edge"><title>Node117&#45;&gt;Node119</title>
<path fill="none" stroke="midnightblue" d="M64.7295,-95.589C77.6878,-100.614 93.6758,-106.813 107.407,-112.137"/>
<polygon fill="midnightblue" stroke="midnightblue" points="106.342,-115.478 116.931,-115.831 108.873,-108.952 106.342,-115.478"/>
</g>
<!-- Node120 -->
<g id="node4" class="node"><title>Node120</title>
<g id="a_node4"><a xlink:href="a01017.html#a2e311a777ffe9c80e405efa7cd2757be" target="_top" xlink:title="fprintf">
<polygon fill="white" stroke="black" points="200,-95.5 200,-114.5 242,-114.5 242,-95.5 200,-95.5"/>
<text text-anchor="middle" x="221" y="-102.5" font-family="Helvetica,sans-Serif" font-size="10.00">fprintf</text>
</a>
</g>
</g>
<!-- Node117&#45;&gt;Node120 -->
<g id="edge4" class="edge"><title>Node117&#45;&gt;Node120</title>
<path fill="none" stroke="midnightblue" d="M77.7339,-89.983C110.932,-93.4873 158.649,-98.5241 189.489,-101.779"/>
<polygon fill="midnightblue" stroke="midnightblue" points="189.329,-105.282 199.642,-102.851 190.064,-98.3206 189.329,-105.282"/>
</g>
<!-- Node121 -->
<g id="node5" class="node"><title>Node121</title>
<g id="a_node5"><a xlink:href="a00077.html#ac8df62c4e3d0910711a9874f9cc58884" target="_top" xlink:title="gk_free">
<polygon fill="white" stroke="black" points="114,-38.5 114,-57.5 164,-57.5 164,-38.5 114,-38.5"/>
<text text-anchor="middle" x="139" y="-45.5" font-family="Helvetica,sans-Serif" font-size="10.00">gk_free</text>
</a>
</g>
</g>
<!-- Node117&#45;&gt;Node121 -->
<g id="edge5" class="edge"><title>Node117&#45;&gt;Node121</title>
<path fill="none" stroke="midnightblue" d="M64.7295,-76.411C76.7487,-71.7505 91.3743,-66.0793 104.388,-61.0332"/>
<polygon fill="midnightblue" stroke="midnightblue" points="105.898,-64.2018 113.956,-57.3232 103.367,-57.6753 105.898,-64.2018"/>
</g>
<!-- Node122 -->
<g id="node6" class="node"><title>Node122</title>
<g id="a_node6"><a xlink:href="a01017.html#a355ed4cdac2a27aa04a6689ac2d7e86e" target="_top" xlink:title="fclose">
<polygon fill="white" stroke="black" points="117.5,-0.5 117.5,-19.5 160.5,-19.5 160.5,-0.5 117.5,-0.5"/>
<text text-anchor="middle" x="139" y="-7.5" font-family="Helvetica,sans-Serif" font-size="10.00">fclose</text>
</a>
</g>
</g>
<!-- Node117&#45;&gt;Node122 -->
<g id="edge6" class="edge"><title>Node117&#45;&gt;Node122</title>
<path fill="none" stroke="midnightblue" d="M52.4118,-76.3745C68.8325,-63.6401 97.9899,-41.0283 117.655,-25.7781"/>
<polygon fill="midnightblue" stroke="midnightblue" points="119.932,-28.4413 125.689,-19.5473 115.642,-22.9098 119.932,-28.4413"/>
</g>
<!-- Node119&#45;&gt;Node120 -->
<g id="edge3" class="edge"><title>Node119&#45;&gt;Node120</title>
<path fill="none" stroke="midnightblue" d="M161.019,-119.008C169.858,-116.909 180.308,-114.427 189.937,-112.14"/>
<polygon fill="midnightblue" stroke="midnightblue" points="191.028,-115.478 199.948,-109.762 189.41,-108.668 191.028,-115.478"/>
</g>
</g>
</svg>
