<?xml version="1.0" encoding="UTF-8" standalone="no"?>
<!DOCTYPE svg PUBLIC "-//W3C//DTD SVG 1.1//EN"
 "http://www.w3.org/Graphics/SVG/1.1/DTD/svg11.dtd">
<!-- Generated by graphviz version 2.36.0 (20140111.2315)
 -->
<!-- Title: CreateMesh Pages: 1 -->
<svg width="420pt" height="125pt"
 viewBox="0.00 0.00 420.00 124.90" xmlns="http://www.w3.org/2000/svg" xmlns:xlink="http://www.w3.org/1999/xlink">
<g id="graph0" class="graph" transform="scale(1 1) rotate(0) translate(4 120.901)">
<title>CreateMesh</title>
<polygon fill="white" stroke="none" points="-4,4 -4,-120.901 416,-120.901 416,4 -4,4"/>
<!-- Node170 -->
<g id="node1" class="node"><title>Node170</title>
<polygon fill="#bfbfbf" stroke="black" points="0.5,-38.5 0.5,-57.5 71.5,-57.5 71.5,-38.5 0.5,-38.5"/>
<text text-anchor="middle" x="36" y="-45.5" font-family="Helvetica,sans-Serif" font-size="10.00">CreateMesh</text>
</g>
<!-- Node171 -->
<g id="node2" class="node"><title>Node171</title>
<g id="a_node2"><a xlink:href="a00077.html#aba6f76f5c67b9b7e9c2e45988d3d3e9d" target="_top" xlink:title="gk_malloc">
<polygon fill="white" stroke="black" points="108,-57.5 108,-76.5 170,-76.5 170,-57.5 108,-57.5"/>
<text text-anchor="middle" x="139" y="-64.5" font-family="Helvetica,sans-Serif" font-size="10.00">gk_malloc</text>
</a>
</g>
</g>
<!-- Node170&#45;&gt;Node171 -->
<g id="edge1" class="edge"><title>Node170&#45;&gt;Node171</title>
<path fill="none" stroke="midnightblue" d="M71.7585,-54.5387C80.2072,-56.1281 89.3091,-57.8403 97.9798,-59.4714"/>
<polygon fill="midnightblue" stroke="midnightblue" points="97.4207,-62.9276 107.895,-61.3368 98.7149,-56.0483 97.4207,-62.9276"/>
</g>
<!-- Node176 -->
<g id="node7" class="node"><title>Node176</title>
<g id="a_node7"><a xlink:href="a00380.html#a82cd62ea70eaae4395fee538d40cf12b" target="_top" xlink:title="InitMesh">
<polygon fill="white" stroke="black" points="112,-19.5 112,-38.5 166,-38.5 166,-19.5 112,-19.5"/>
<text text-anchor="middle" x="139" y="-26.5" font-family="Helvetica,sans-Serif" font-size="10.00">InitMesh</text>
</a>
</g>
</g>
<!-- Node170&#45;&gt;Node176 -->
<g id="edge7" class="edge"><title>Node170&#45;&gt;Node176</title>
<path fill="none" stroke="midnightblue" d="M71.7585,-41.4613C81.4991,-39.6289 92.1079,-37.6332 101.923,-35.7867"/>
<polygon fill="midnightblue" stroke="midnightblue" points="102.614,-39.2182 111.795,-33.9297 101.32,-32.3388 102.614,-39.2182"/>
</g>
<!-- Node172 -->
<g id="node3" class="node"><title>Node172</title>
<g id="a_node3"><a xlink:href="a01017.html#a2e311a777ffe9c80e405efa7cd2757be" target="_top" xlink:title="fprintf">
<polygon fill="white" stroke="black" points="370,-57.5 370,-76.5 412,-76.5 412,-57.5 370,-57.5"/>
<text text-anchor="middle" x="391" y="-64.5" font-family="Helvetica,sans-Serif" font-size="10.00">fprintf</text>
</a>
</g>
</g>
<!-- Node171&#45;&gt;Node172 -->
<g id="edge2" class="edge"><title>Node171&#45;&gt;Node172</title>
<path fill="none" stroke="midnightblue" d="M152.261,-76.7187C164.891,-86.0589 185.563,-99.5369 206,-105 260.959,-119.691 279.62,-121.709 334,-105 348.039,-100.686 361.719,-91.5255 372.044,-83.2793"/>
<polygon fill="midnightblue" stroke="midnightblue" points="374.469,-85.8134 379.862,-76.6941 369.959,-80.4595 374.469,-85.8134"/>
</g>
<!-- Node173 -->
<g id="node4" class="node"><title>Node173</title>
<g id="a_node4"><a xlink:href="a00110.html#ad2327b94227019b6753b6b09400c0522" target="_top" xlink:title="gk_GetCurMemoryUsed">
<polygon fill="white" stroke="black" points="208,-76.5 208,-95.5 332,-95.5 332,-76.5 208,-76.5"/>
<text text-anchor="middle" x="270" y="-83.5" font-family="Helvetica,sans-Serif" font-size="10.00">gk_GetCurMemoryUsed</text>
</a>
</g>
</g>
<!-- Node171&#45;&gt;Node173 -->
<g id="edge3" class="edge"><title>Node171&#45;&gt;Node173</title>
<path fill="none" stroke="midnightblue" d="M170.245,-71.4547C178.646,-72.692 188.139,-74.0903 197.836,-75.5184"/>
<polygon fill="midnightblue" stroke="midnightblue" points="197.573,-79.0175 207.977,-77.0121 198.593,-72.0922 197.573,-79.0175"/>
</g>
<!-- Node174 -->
<g id="node5" class="node"><title>Node174</title>
<g id="a_node5"><a xlink:href="a00110.html#a656fd5266ae12a96e53125486f8fea52" target="_top" xlink:title="gk_GetMaxMemoryUsed">
<polygon fill="white" stroke="black" points="206.5,-38.5 206.5,-57.5 333.5,-57.5 333.5,-38.5 206.5,-38.5"/>
<text text-anchor="middle" x="270" y="-45.5" font-family="Helvetica,sans-Serif" font-size="10.00">gk_GetMaxMemoryUsed</text>
</a>
</g>
</g>
<!-- Node171&#45;&gt;Node174 -->
<g id="edge4" class="edge"><title>Node171&#45;&gt;Node174</title>
<path fill="none" stroke="midnightblue" d="M170.245,-62.5453C178.229,-61.3693 187.2,-60.048 196.395,-58.6938"/>
<polygon fill="midnightblue" stroke="midnightblue" points="197.04,-62.1366 206.423,-57.2167 196.02,-55.2113 197.04,-62.1366"/>
</g>
<!-- Node175 -->
<g id="node6" class="node"><title>Node175</title>
<g id="a_node6"><a xlink:href="a00026.html#a4c320c13bcdc9967613253ef4c73f59f" target="_top" xlink:title="gk_errexit">
<polygon fill="white" stroke="black" points="240,-0.5 240,-19.5 300,-19.5 300,-0.5 240,-0.5"/>
<text text-anchor="middle" x="270" y="-7.5" font-family="Helvetica,sans-Serif" font-size="10.00">gk_errexit</text>
</a>
</g>
</g>
<!-- Node171&#45;&gt;Node175 -->
<g id="edge5" class="edge"><title>Node171&#45;&gt;Node175</title>
<path fill="none" stroke="midnightblue" d="M155.589,-57.4697C171.76,-47.6847 196.047,-33.2984 206,-29 213.68,-25.6834 222.121,-22.7096 230.259,-20.1539"/>
<polygon fill="midnightblue" stroke="midnightblue" points="231.388,-23.4695 239.965,-17.2488 229.381,-16.7634 231.388,-23.4695"/>
</g>
<!-- Node175&#45;&gt;Node172 -->
<g id="edge6" class="edge"><title>Node175&#45;&gt;Node172</title>
<path fill="none" stroke="midnightblue" d="M300.228,-16.8252C311.104,-19.8755 323.377,-23.9396 334,-29 346.634,-35.0184 359.634,-43.6626 369.925,-51.1863"/>
<polygon fill="midnightblue" stroke="midnightblue" points="368.101,-54.1937 378.194,-57.4154 372.313,-48.6027 368.101,-54.1937"/>
</g>
</g>
</svg>
