<?xml version="1.0" encoding="UTF-8" standalone="no"?>
<!DOCTYPE svg PUBLIC "-//W3C//DTD SVG 1.1//EN"
 "http://www.w3.org/Graphics/SVG/1.1/DTD/svg11.dtd">
<!-- Generated by graphviz version 2.36.0 (20140111.2315)
 -->
<!-- Title: Mc_ParallelWriteGraph Pages: 1 -->
<svg width="286pt" height="142pt"
 viewBox="0.00 0.00 286.00 142.00" xmlns="http://www.w3.org/2000/svg" xmlns:xlink="http://www.w3.org/1999/xlink">
<g id="graph0" class="graph" transform="scale(1 1) rotate(0) translate(4 138)">
<title>Mc_ParallelWriteGraph</title>
<polygon fill="white" stroke="none" points="-4,4 -4,-138 282,-138 282,4 -4,4"/>
<!-- Node27 -->
<g id="node1" class="node"><title>Node27</title>
<polygon fill="#bfbfbf" stroke="black" points="0,-57.5 0,-76.5 120,-76.5 120,-57.5 0,-57.5"/>
<text text-anchor="middle" x="60" y="-64.5" font-family="Helvetica,sans-Serif" font-size="10.00">Mc_ParallelWriteGraph</text>
</g>
<!-- Node28 -->
<g id="node2" class="node"><title>Node28</title>
<g id="a_node2"><a xlink:href="a00575.html#ae6aab5c308faac0fc539cc9c6da9fbd0" target="_top" xlink:title="sprintf">
<polygon fill="white" stroke="black" points="156,-114.5 156,-133.5 200,-133.5 200,-114.5 156,-114.5"/>
<text text-anchor="middle" x="178" y="-121.5" font-family="Helvetica,sans-Serif" font-size="10.00">sprintf</text>
</a>
</g>
</g>
<!-- Node27&#45;&gt;Node28 -->
<g id="edge1" class="edge"><title>Node27&#45;&gt;Node28</title>
<path fill="none" stroke="midnightblue" d="M80.4158,-76.5405C98.9848,-85.665 127.21,-99.5344 148.361,-109.927"/>
<polygon fill="midnightblue" stroke="midnightblue" points="147.002,-113.159 157.521,-114.428 150.089,-106.877 147.002,-113.159"/>
</g>
<!-- Node29 -->
<g id="node3" class="node"><title>Node29</title>
<g id="a_node3"><a xlink:href="a00026.html#a56d0f2cc40cd8633a784582d6200d8b5" target="_top" xlink:title="errexit">
<polygon fill="white" stroke="black" points="156,-76.5 156,-95.5 200,-95.5 200,-76.5 156,-76.5"/>
<text text-anchor="middle" x="178" y="-83.5" font-family="Helvetica,sans-Serif" font-size="10.00">errexit</text>
</a>
</g>
</g>
<!-- Node27&#45;&gt;Node29 -->
<g id="edge2" class="edge"><title>Node27&#45;&gt;Node29</title>
<path fill="none" stroke="midnightblue" d="M119.34,-76.5557C128.543,-78.0631 137.735,-79.5687 145.988,-80.9205"/>
<polygon fill="midnightblue" stroke="midnightblue" points="145.437,-84.3768 155.871,-82.5393 146.569,-77.4688 145.437,-84.3768"/>
</g>
<!-- Node30 -->
<g id="node4" class="node"><title>Node30</title>
<g id="a_node4"><a xlink:href="a01017.html#a2e311a777ffe9c80e405efa7cd2757be" target="_top" xlink:title="fprintf">
<polygon fill="white" stroke="black" points="236,-57.5 236,-76.5 278,-76.5 278,-57.5 236,-57.5"/>
<text text-anchor="middle" x="257" y="-64.5" font-family="Helvetica,sans-Serif" font-size="10.00">fprintf</text>
</a>
</g>
</g>
<!-- Node27&#45;&gt;Node30 -->
<g id="edge4" class="edge"><title>Node27&#45;&gt;Node30</title>
<path fill="none" stroke="midnightblue" d="M120.036,-67C154.825,-67 197.395,-67 225.531,-67"/>
<polygon fill="midnightblue" stroke="midnightblue" points="225.562,-70.5001 235.562,-67 225.562,-63.5001 225.562,-70.5001"/>
</g>
<!-- Node31 -->
<g id="node5" class="node"><title>Node31</title>
<g id="a_node5"><a xlink:href="a01017.html#a355ed4cdac2a27aa04a6689ac2d7e86e" target="_top" xlink:title="fclose">
<polygon fill="white" stroke="black" points="156.5,-0.5 156.5,-19.5 199.5,-19.5 199.5,-0.5 156.5,-0.5"/>
<text text-anchor="middle" x="178" y="-7.5" font-family="Helvetica,sans-Serif" font-size="10.00">fclose</text>
</a>
</g>
</g>
<!-- Node27&#45;&gt;Node31 -->
<g id="edge5" class="edge"><title>Node27&#45;&gt;Node31</title>
<path fill="none" stroke="midnightblue" d="M80.4158,-57.4595C98.9848,-48.335 127.21,-34.4656 148.361,-24.0726"/>
<polygon fill="midnightblue" stroke="midnightblue" points="150.089,-27.1231 157.521,-19.5716 147.002,-20.8406 150.089,-27.1231"/>
</g>
<!-- Node29&#45;&gt;Node30 -->
<g id="edge3" class="edge"><title>Node29&#45;&gt;Node30</title>
<path fill="none" stroke="midnightblue" d="M200.041,-80.8082C208.042,-78.8339 217.319,-76.5446 225.992,-74.4047"/>
<polygon fill="midnightblue" stroke="midnightblue" points="226.911,-77.7828 235.782,-71.9889 225.234,-70.9866 226.911,-77.7828"/>
</g>
</g>
</svg>
