<?xml version="1.0" encoding="UTF-8" standalone="no"?>
<!DOCTYPE svg PUBLIC "-//W3C//DTD SVG 1.1//EN"
 "http://www.w3.org/Graphics/SVG/1.1/DTD/svg11.dtd">
<!-- Generated by graphviz version 2.36.0 (20140111.2315)
 -->
<!-- Title: MlevelNestedDissection Pages: 1 -->
<!--zoomable 180 -->
<svg id="main" version="1.1" xmlns="http://www.w3.org/2000/svg" xmlns:xlink="http://www.w3.org/1999/xlink" xml:space="preserve" onload="init(evt)">
<style type="text/css"><![CDATA[
.edge:hover path { stroke: red; }
.edge:hover polygon { stroke: red; fill: red; }
]]></style>
<script type="text/javascript"><![CDATA[
var edges = document.getElementsByTagName('g');
if (edges && edges.length) {
  for (var i=0;i<edges.length;i++) {
    if (edges[i].id.substr(0,4)=='edge') {
      edges[i].setAttribute('class','edge');
    }
  }
}
]]></script>
        <defs>
                <circle id="rim" cx="0" cy="0" r="7"/>
                <circle id="rim2" cx="0" cy="0" r="3.5"/>
                <g id="zoomPlus">
                        <use xlink:href="#rim" fill="#404040">
                                <set attributeName="fill" to="#808080" begin="zoomplus.mouseover" end="zoomplus.mouseout"/>
                        </use>
                        <path d="M-4,0h8M0,-4v8" fill="none" stroke="white" stroke-width="1.5" pointer-events="none"/>
                </g>
                <g id="zoomMin">
                        <use xlink:href="#rim" fill="#404040">
                                <set attributeName="fill" to="#808080" begin="zoomminus.mouseover" end="zoomminus.mouseout"/>
                        </use>
                        <path d="M-4,0h8" fill="none" stroke="white" stroke-width="1.5" pointer-events="none"/>
                </g>
                <g id="dirArrow">
                        <path fill="none" stroke="white" stroke-width="1.5" d="M0,-3.0v7 M-2.5,-0.5L0,-3.0L2.5,-0.5"/>
                </g>
               <g id="resetDef">
                       <use xlink:href="#rim2" fill="#404040">
                               <set attributeName="fill" to="#808080" begin="reset.mouseover" end="reset.mouseout"/>
                       </use>
               </g>
        </defs>

<script type="text/javascript">
var viewWidth = 1224;
var viewHeight = 180;
var sectionId = 'dynsection-3';
</script>
<script xlink:href="svgpan.js"/>
<svg id="graph" class="graph">
<g id="viewport">
<title>MlevelNestedDissection</title>
<polygon fill="white" stroke="none" points="-4,4 -4,-176 1220,-176 1220,4 -4,4"/>
<!-- Node33 -->
<g id="node1" class="node"><title>Node33</title>
<polygon fill="#bfbfbf" stroke="black" points="0.5,-57.5 0.5,-76.5 123.5,-76.5 123.5,-57.5 0.5,-57.5"/>
<text text-anchor="middle" x="62" y="-64.5" font-family="Helvetica,sans-Serif" font-size="10.00">MlevelNestedDissection</text>
</g>
<!-- Node33&#45;&gt;Node33 -->
<g id="edge23" class="edge"><title>Node33&#45;&gt;Node33</title>
<path fill="none" stroke="midnightblue" d="M35.7981,-76.7571C23.0512,-85.5653 31.7852,-95 62,-95 82.3006,-95 92.9044,-90.741 93.8114,-85.2746"/>
<polygon fill="midnightblue" stroke="midnightblue" points="96.6252,-83.1836 88.2019,-76.7571 90.7791,-87.0337 96.6252,-83.1836"/>
</g>
<!-- Node34 -->
<g id="node2" class="node"><title>Node34</title>
<g id="a_node2"><a xlink:href="a00936.html#a59c8030c5429e219a8535c2a11cef724" target="_top" xlink:title="MlevelNodeBisectionMultiple">
<polygon fill="white" stroke="black" points="160,-95.5 160,-114.5 304,-114.5 304,-95.5 160,-95.5"/>
<text text-anchor="middle" x="232" y="-102.5" font-family="Helvetica,sans-Serif" font-size="10.00">MlevelNodeBisectionMultiple</text>
</a>
</g>
</g>
<!-- Node33&#45;&gt;Node34 -->
<g id="edge1" class="edge"><title>Node33&#45;&gt;Node34</title>
<path fill="none" stroke="midnightblue" d="M105.393,-76.589C127.763,-81.6487 155.398,-87.8996 179.047,-93.2488"/>
<polygon fill="midnightblue" stroke="midnightblue" points="178.386,-96.6875 188.911,-95.4799 179.93,-89.8599 178.386,-96.6875"/>
</g>
<!-- Node51 -->
<g id="node19" class="node"><title>Node51</title>
<g id="a_node19"><a xlink:href="a00936.html#a2554253b42e739ac3bb63e676741e1cd" target="_top" xlink:title="SplitGraphOrder">
<polygon fill="white" stroke="black" points="187.5,-57.5 187.5,-76.5 276.5,-76.5 276.5,-57.5 187.5,-57.5"/>
<text text-anchor="middle" x="232" y="-64.5" font-family="Helvetica,sans-Serif" font-size="10.00">SplitGraphOrder</text>
</a>
</g>
</g>
<!-- Node33&#45;&gt;Node51 -->
<g id="edge22" class="edge"><title>Node33&#45;&gt;Node51</title>
<path fill="none" stroke="midnightblue" d="M123.652,-67C141.087,-67 159.979,-67 176.984,-67"/>
<polygon fill="midnightblue" stroke="midnightblue" points="177.299,-70.5001 187.299,-67 177.299,-63.5001 177.299,-70.5001"/>
</g>
<!-- Node52 -->
<g id="node20" class="node"><title>Node52</title>
<g id="a_node20"><a xlink:href="a00936.html#acafb70c0e49cde8105dc62f6c34dfa6c" target="_top" xlink:title="MMDOrder">
<polygon fill="white" stroke="black" points="199,-19.5 199,-38.5 265,-38.5 265,-19.5 199,-19.5"/>
<text text-anchor="middle" x="232" y="-26.5" font-family="Helvetica,sans-Serif" font-size="10.00">MMDOrder</text>
</a>
</g>
</g>
<!-- Node33&#45;&gt;Node52 -->
<g id="edge24" class="edge"><title>Node33&#45;&gt;Node52</title>
<path fill="none" stroke="midnightblue" d="M105.393,-57.411C131.052,-51.6074 163.639,-44.2365 189.191,-38.4569"/>
<polygon fill="midnightblue" stroke="midnightblue" points="189.98,-41.8668 198.962,-36.2468 188.436,-35.0392 189.98,-41.8668"/>
</g>
<!-- Node35 -->
<g id="node3" class="node"><title>Node35</title>
<g id="a_node3"><a xlink:href="a00936.html#ac3a0eaeefa34a3865a0be5bb70bd958f" target="_top" xlink:title="MlevelNodeBisectionL2">
<polygon fill="white" stroke="black" points="340.5,-95.5 340.5,-114.5 461.5,-114.5 461.5,-95.5 340.5,-95.5"/>
<text text-anchor="middle" x="401" y="-102.5" font-family="Helvetica,sans-Serif" font-size="10.00">MlevelNodeBisectionL2</text>
</a>
</g>
</g>
<!-- Node34&#45;&gt;Node35 -->
<g id="edge2" class="edge"><title>Node34&#45;&gt;Node35</title>
<path fill="none" stroke="midnightblue" d="M304.307,-105C312.973,-105 321.818,-105 330.458,-105"/>
<polygon fill="midnightblue" stroke="midnightblue" points="330.483,-108.5 340.483,-105 330.483,-101.5 330.483,-108.5"/>
</g>
<!-- Node36 -->
<g id="node4" class="node"><title>Node36</title>
<g id="a_node4"><a xlink:href="a00936.html#aeeaa7f4ed9878ae2f7faff0e2402fd87" target="_top" xlink:title="MlevelNodeBisectionL1">
<polygon fill="white" stroke="black" points="498.5,-114.5 498.5,-133.5 619.5,-133.5 619.5,-114.5 498.5,-114.5"/>
<text text-anchor="middle" x="559" y="-121.5" font-family="Helvetica,sans-Serif" font-size="10.00">MlevelNodeBisectionL1</text>
</a>
</g>
</g>
<!-- Node35&#45;&gt;Node36 -->
<g id="edge3" class="edge"><title>Node35&#45;&gt;Node36</title>
<path fill="none" stroke="midnightblue" d="M461.868,-112.292C470.452,-113.337 479.346,-114.42 488.103,-115.487"/>
<polygon fill="midnightblue" stroke="midnightblue" points="487.943,-118.993 498.293,-116.728 488.789,-112.045 487.943,-118.993"/>
</g>
<!-- Node37 -->
<g id="node5" class="node"><title>Node37</title>
<g id="a_node5"><a xlink:href="a00182.html#afa83320e3b311e0feef90d0bf4303716" target="_top" xlink:title="CoarsenGraphNlevels">
<polygon fill="white" stroke="black" points="501.5,-76.5 501.5,-95.5 616.5,-95.5 616.5,-76.5 501.5,-76.5"/>
<text text-anchor="middle" x="559" y="-83.5" font-family="Helvetica,sans-Serif" font-size="10.00">CoarsenGraphNlevels</text>
</a>
</g>
</g>
<!-- Node35&#45;&gt;Node37 -->
<g id="edge4" class="edge"><title>Node35&#45;&gt;Node37</title>
<path fill="none" stroke="midnightblue" d="M461.868,-97.7084C471.497,-96.5356 481.517,-95.3153 491.295,-94.1244"/>
<polygon fill="midnightblue" stroke="midnightblue" points="491.867,-97.5806 501.37,-92.8972 491.02,-90.632 491.867,-97.5806"/>
</g>
<!-- Node38 -->
<g id="node6" class="node"><title>Node38</title>
<g id="a_node6"><a xlink:href="a00623.html#ad1e7380d51df1e0043d24d3c8a860e0a" target="_top" xlink:title="for">
<polygon fill="white" stroke="black" points="689.5,-152.5 689.5,-171.5 718.5,-171.5 718.5,-152.5 689.5,-152.5"/>
<text text-anchor="middle" x="704" y="-159.5" font-family="Helvetica,sans-Serif" font-size="10.00">for</text>
</a>
</g>
</g>
<!-- Node37&#45;&gt;Node38 -->
<g id="edge5" class="edge"><title>Node37&#45;&gt;Node38</title>
<path fill="none" stroke="midnightblue" d="M599.992,-95.5369C606.94,-98.0551 613.888,-101.172 620,-105 639.717,-117.349 636.777,-129.897 656,-143 663.261,-147.949 672.008,-151.928 679.976,-154.941"/>
<polygon fill="midnightblue" stroke="midnightblue" points="678.889,-158.268 689.484,-158.24 681.184,-151.655 678.889,-158.268"/>
</g>
<!-- Node39 -->
<g id="node7" class="node"><title>Node39</title>
<g id="a_node7"><a xlink:href="a00182.html#aac3e480e7e3bd02bfdf001d858a93562" target="_top" xlink:title="PrintCGraphStats">
<polygon fill="white" stroke="black" points="656.5,-114.5 656.5,-133.5 751.5,-133.5 751.5,-114.5 656.5,-114.5"/>
<text text-anchor="middle" x="704" y="-121.5" font-family="Helvetica,sans-Serif" font-size="10.00">PrintCGraphStats</text>
</a>
</g>
</g>
<!-- Node37&#45;&gt;Node39 -->
<g id="edge6" class="edge"><title>Node37&#45;&gt;Node39</title>
<path fill="none" stroke="midnightblue" d="M596.085,-95.589C614.63,-100.517 637.426,-106.575 657.199,-111.829"/>
<polygon fill="midnightblue" stroke="midnightblue" points="656.363,-115.228 666.927,-114.414 658.161,-108.463 656.363,-115.228"/>
</g>
<!-- Node40 -->
<g id="node8" class="node"><title>Node40</title>
<g id="a_node8"><a xlink:href="a00182.html#a892d2ea16d613abc2276ad5fc6999724" target="_top" xlink:title="Match_RM">
<polygon fill="white" stroke="black" points="671.5,-38.5 671.5,-57.5 736.5,-57.5 736.5,-38.5 671.5,-38.5"/>
<text text-anchor="middle" x="704" y="-45.5" font-family="Helvetica,sans-Serif" font-size="10.00">Match_RM</text>
</a>
</g>
</g>
<!-- Node37&#45;&gt;Node40 -->
<g id="edge7" class="edge"><title>Node37&#45;&gt;Node40</title>
<path fill="none" stroke="midnightblue" d="M596.085,-76.411C615.994,-71.1204 640.804,-64.5275 661.512,-59.0249"/>
<polygon fill="midnightblue" stroke="midnightblue" points="662.542,-62.3725 671.308,-56.4216 660.745,-55.6073 662.542,-62.3725"/>
</g>
<!-- Node48 -->
<g id="node16" class="node"><title>Node48</title>
<g id="a_node16"><a xlink:href="a00182.html#af3ec72f3170ccdca06d8ad018d86cc58" target="_top" xlink:title="Match_SHEM">
<polygon fill="white" stroke="black" points="665,-76.5 665,-95.5 743,-95.5 743,-76.5 665,-76.5"/>
<text text-anchor="middle" x="704" y="-83.5" font-family="Helvetica,sans-Serif" font-size="10.00">Match_SHEM</text>
</a>
</g>
</g>
<!-- Node37&#45;&gt;Node48 -->
<g id="edge17" class="edge"><title>Node37&#45;&gt;Node48</title>
<path fill="none" stroke="midnightblue" d="M616.517,-86C629.203,-86 642.548,-86 654.856,-86"/>
<polygon fill="midnightblue" stroke="midnightblue" points="654.913,-89.5001 664.913,-86 654.913,-82.5001 654.913,-89.5001"/>
</g>
<!-- Node49 -->
<g id="node17" class="node"><title>Node49</title>
<g id="a_node17"><a xlink:href="a00026.html#a4c320c13bcdc9967613253ef4c73f59f" target="_top" xlink:title="gk_errexit">
<polygon fill="white" stroke="black" points="674,-0.5 674,-19.5 734,-19.5 734,-0.5 674,-0.5"/>
<text text-anchor="middle" x="704" y="-7.5" font-family="Helvetica,sans-Serif" font-size="10.00">gk_errexit</text>
</a>
</g>
</g>
<!-- Node37&#45;&gt;Node49 -->
<g id="edge20" class="edge"><title>Node37&#45;&gt;Node49</title>
<path fill="none" stroke="midnightblue" d="M574.576,-76.397C593.06,-64.4435 626.126,-43.8005 656,-29 659.815,-27.1099 663.867,-25.2557 667.929,-23.4912"/>
<polygon fill="midnightblue" stroke="midnightblue" points="669.446,-26.6504 677.321,-19.5626 666.745,-20.1926 669.446,-26.6504"/>
</g>
<!-- Node41 -->
<g id="node9" class="node"><title>Node41</title>
<g id="a_node9"><a xlink:href="a00182.html#aead846b2c69509c914426ff087509934" target="_top" xlink:title="Match_2Hop">
<polygon fill="white" stroke="black" points="805.5,-38.5 805.5,-57.5 878.5,-57.5 878.5,-38.5 805.5,-38.5"/>
<text text-anchor="middle" x="842" y="-45.5" font-family="Helvetica,sans-Serif" font-size="10.00">Match_2Hop</text>
</a>
</g>
</g>
<!-- Node40&#45;&gt;Node41 -->
<g id="edge8" class="edge"><title>Node40&#45;&gt;Node41</title>
<path fill="none" stroke="midnightblue" d="M736.543,-48C753.97,-48 775.932,-48 795.216,-48"/>
<polygon fill="midnightblue" stroke="midnightblue" points="795.312,-51.5001 805.312,-48 795.312,-44.5001 795.312,-51.5001"/>
</g>
<!-- Node44 -->
<g id="node12" class="node"><title>Node44</title>
<g id="a_node12"><a xlink:href="a00182.html#aac8820421b1c25698140c1b470c50e07" target="_top" xlink:title="CreateCoarseGraph">
<polygon fill="white" stroke="black" points="788.5,-76.5 788.5,-95.5 895.5,-95.5 895.5,-76.5 788.5,-76.5"/>
<text text-anchor="middle" x="842" y="-83.5" font-family="Helvetica,sans-Serif" font-size="10.00">CreateCoarseGraph</text>
</a>
</g>
</g>
<!-- Node40&#45;&gt;Node44 -->
<g id="edge11" class="edge"><title>Node40&#45;&gt;Node44</title>
<path fill="none" stroke="midnightblue" d="M736.543,-56.8135C754.533,-61.8401 777.357,-68.2173 797.078,-73.7276"/>
<polygon fill="midnightblue" stroke="midnightblue" points="796.196,-77.1153 806.769,-76.4355 798.08,-70.3735 796.196,-77.1153"/>
</g>
<!-- Node42 -->
<g id="node10" class="node"><title>Node42</title>
<g id="a_node10"><a xlink:href="a00182.html#a838a4013e3b5cc5278ecc7a8757ce0ef" target="_top" xlink:title="Match_2HopAny">
<polygon fill="white" stroke="black" points="959,-0.5 959,-19.5 1049,-19.5 1049,-0.5 959,-0.5"/>
<text text-anchor="middle" x="1004" y="-7.5" font-family="Helvetica,sans-Serif" font-size="10.00">Match_2HopAny</text>
</a>
</g>
</g>
<!-- Node41&#45;&gt;Node42 -->
<g id="edge9" class="edge"><title>Node41&#45;&gt;Node42</title>
<path fill="none" stroke="midnightblue" d="M878.509,-39.5666C900.34,-34.3817 928.652,-27.6576 952.76,-21.9321"/>
<polygon fill="midnightblue" stroke="midnightblue" points="953.882,-25.2629 962.803,-19.5468 952.265,-18.4524 953.882,-25.2629"/>
</g>
<!-- Node43 -->
<g id="node11" class="node"><title>Node43</title>
<g id="a_node11"><a xlink:href="a00182.html#aa56d53cace160be27fb1750dcaffbc04" target="_top" xlink:title="Match_2HopAll">
<polygon fill="white" stroke="black" points="962,-38.5 962,-57.5 1046,-57.5 1046,-38.5 962,-38.5"/>
<text text-anchor="middle" x="1004" y="-45.5" font-family="Helvetica,sans-Serif" font-size="10.00">Match_2HopAll</text>
</a>
</g>
</g>
<!-- Node41&#45;&gt;Node43 -->
<g id="edge10" class="edge"><title>Node41&#45;&gt;Node43</title>
<path fill="none" stroke="midnightblue" d="M878.509,-48C900.002,-48 927.777,-48 951.637,-48"/>
<polygon fill="midnightblue" stroke="midnightblue" points="951.939,-51.5001 961.939,-48 951.939,-44.5001 951.939,-51.5001"/>
</g>
<!-- Node45 -->
<g id="node13" class="node"><title>Node45</title>
<g id="a_node13"><a xlink:href="a00182.html#a70dc59d4c7190507e7ad9a4cc0d80707" target="_top" xlink:title="CreateCoarseGraphNoMask">
<polygon fill="white" stroke="black" points="932.5,-114.5 932.5,-133.5 1075.5,-133.5 1075.5,-114.5 932.5,-114.5"/>
<text text-anchor="middle" x="1004" y="-121.5" font-family="Helvetica,sans-Serif" font-size="10.00">CreateCoarseGraphNoMask</text>
</a>
</g>
</g>
<!-- Node44&#45;&gt;Node45 -->
<g id="edge12" class="edge"><title>Node44&#45;&gt;Node45</title>
<path fill="none" stroke="midnightblue" d="M883.375,-95.589C904.488,-100.604 930.529,-106.788 952.917,-112.105"/>
<polygon fill="midnightblue" stroke="midnightblue" points="952.377,-115.574 962.916,-114.48 953.995,-108.764 952.377,-115.574"/>
</g>
<!-- Node46 -->
<g id="node14" class="node"><title>Node46</title>
<g id="a_node14"><a xlink:href="a00182.html#a113522304bf628b09d0b69b4db05050e" target="_top" xlink:title="SetupCoarseGraph">
<polygon fill="white" stroke="black" points="1112.5,-142.5 1112.5,-161.5 1215.5,-161.5 1215.5,-142.5 1112.5,-142.5"/>
<text text-anchor="middle" x="1164" y="-149.5" font-family="Helvetica,sans-Serif" font-size="10.00">SetupCoarseGraph</text>
</a>
</g>
</g>
<!-- Node44&#45;&gt;Node46 -->
<g id="edge15" class="edge"><title>Node44&#45;&gt;Node46</title>
<path fill="none" stroke="midnightblue" d="M853.807,-95.6974C869.637,-109.213 900.665,-133.159 932,-143 987.65,-160.476 1054.57,-161.01 1102.02,-158.206"/>
<polygon fill="midnightblue" stroke="midnightblue" points="1102.39,-161.689 1112.14,-157.54 1101.93,-154.704 1102.39,-161.689"/>
</g>
<!-- Node47 -->
<g id="node15" class="node"><title>Node47</title>
<g id="a_node15"><a xlink:href="a00182.html#ab69ab96ec78174da232dff05e9c79d2f" target="_top" xlink:title="ReAdjustMemory">
<polygon fill="white" stroke="black" points="1117.5,-85.5 1117.5,-104.5 1210.5,-104.5 1210.5,-85.5 1117.5,-85.5"/>
<text text-anchor="middle" x="1164" y="-92.5" font-family="Helvetica,sans-Serif" font-size="10.00">ReAdjustMemory</text>
</a>
</g>
</g>
<!-- Node44&#45;&gt;Node47 -->
<g id="edge16" class="edge"><title>Node44&#45;&gt;Node47</title>
<path fill="none" stroke="midnightblue" d="M895.841,-87.4862C954.119,-89.1252 1047.5,-91.7515 1107.01,-93.4252"/>
<polygon fill="midnightblue" stroke="midnightblue" points="1107.25,-96.9333 1117.34,-93.7159 1107.45,-89.936 1107.25,-96.9333"/>
</g>
<!-- Node45&#45;&gt;Node46 -->
<g id="edge13" class="edge"><title>Node45&#45;&gt;Node46</title>
<path fill="none" stroke="midnightblue" d="M1058.93,-133.558C1072.82,-136.018 1087.85,-138.683 1102.06,-141.201"/>
<polygon fill="midnightblue" stroke="midnightblue" points="1101.78,-144.706 1112.24,-143.004 1103,-137.813 1101.78,-144.706"/>
</g>
<!-- Node45&#45;&gt;Node47 -->
<g id="edge14" class="edge"><title>Node45&#45;&gt;Node47</title>
<path fill="none" stroke="midnightblue" d="M1057.17,-114.424C1073.25,-111.473 1091.01,-108.213 1107.32,-105.22"/>
<polygon fill="midnightblue" stroke="midnightblue" points="1108.05,-108.644 1117.25,-103.397 1106.79,-101.759 1108.05,-108.644"/>
</g>
<!-- Node48&#45;&gt;Node41 -->
<g id="edge18" class="edge"><title>Node48&#45;&gt;Node41</title>
<path fill="none" stroke="midnightblue" d="M739.319,-76.411C756.794,-71.5281 778.241,-65.5357 796.925,-60.315"/>
<polygon fill="midnightblue" stroke="midnightblue" points="798.003,-63.6479 806.692,-57.5859 796.119,-56.9062 798.003,-63.6479"/>
</g>
<!-- Node48&#45;&gt;Node44 -->
<g id="edge19" class="edge"><title>Node48&#45;&gt;Node44</title>
<path fill="none" stroke="midnightblue" d="M743.246,-86C754.062,-86 766.129,-86 777.993,-86"/>
<polygon fill="midnightblue" stroke="midnightblue" points="778.329,-89.5001 788.329,-86 778.329,-82.5001 778.329,-89.5001"/>
</g>
<!-- Node50 -->
<g id="node18" class="node"><title>Node50</title>
<g id="a_node18"><a xlink:href="a01017.html#a2e311a777ffe9c80e405efa7cd2757be" target="_top" xlink:title="fprintf">
<polygon fill="white" stroke="black" points="821,-0.5 821,-19.5 863,-19.5 863,-0.5 821,-0.5"/>
<text text-anchor="middle" x="842" y="-7.5" font-family="Helvetica,sans-Serif" font-size="10.00">fprintf</text>
</a>
</g>
</g>
<!-- Node49&#45;&gt;Node50 -->
<g id="edge21" class="edge"><title>Node49&#45;&gt;Node50</title>
<path fill="none" stroke="midnightblue" d="M734.175,-10C756.68,-10 787.716,-10 810.538,-10"/>
<polygon fill="midnightblue" stroke="midnightblue" points="810.696,-13.5001 820.696,-10 810.696,-6.5001 810.696,-13.5001"/>
</g>
</g>
</svg>
        <g id="navigator" transform="translate(0 0)" fill="#404254">
                <rect fill="#f2f5e9" fill-opacity="0.5" stroke="#606060" stroke-width=".5" x="0" y="0" width="60" height="60"/>
                <use id="zoomplus" xlink:href="#zoomPlus" x="17" y="9" onmousedown="handleZoom(evt,'in')"/>
                <use id="zoomminus" xlink:href="#zoomMin" x="42" y="9" onmousedown="handleZoom(evt,'out')"/>
                <use id="reset" xlink:href="#resetDef" x="30" y="36" onmousedown="handleReset()"/>
                <g id="arrowUp" xlink:href="#dirArrow" transform="translate(30 24)" onmousedown="handlePan(0,-1)">
                  <use xlink:href="#rim" fill="#404040">
                        <set attributeName="fill" to="#808080" begin="arrowUp.mouseover" end="arrowUp.mouseout"/>
                  </use>
                  <path fill="none" stroke="white" stroke-width="1.5" d="M0,-3.0v7 M-2.5,-0.5L0,-3.0L2.5,-0.5"/>
                </g>
                <g id="arrowRight" xlink:href="#dirArrow" transform="rotate(90) translate(36 -43)" onmousedown="handlePan(1,0)">
                  <use xlink:href="#rim" fill="#404040">
                        <set attributeName="fill" to="#808080" begin="arrowRight.mouseover" end="arrowRight.mouseout"/>
                  </use>
                  <path fill="none" stroke="white" stroke-width="1.5" d="M0,-3.0v7 M-2.5,-0.5L0,-3.0L2.5,-0.5"/>
                </g>
                <g id="arrowDown" xlink:href="#dirArrow" transform="rotate(180) translate(-30 -48)" onmousedown="handlePan(0,1)">
                  <use xlink:href="#rim" fill="#404040">
                        <set attributeName="fill" to="#808080" begin="arrowDown.mouseover" end="arrowDown.mouseout"/>
                  </use>
                  <path fill="none" stroke="white" stroke-width="1.5" d="M0,-3.0v7 M-2.5,-0.5L0,-3.0L2.5,-0.5"/>
                </g>
                <g id="arrowLeft" xlink:href="#dirArrow" transform="rotate(270) translate(-36 17)" onmousedown="handlePan(-1,0)">
                  <use xlink:href="#rim" fill="#404040">
                        <set attributeName="fill" to="#808080" begin="arrowLeft.mouseover" end="arrowLeft.mouseout"/>
                  </use>
                  <path fill="none" stroke="white" stroke-width="1.5" d="M0,-3.0v7 M-2.5,-0.5L0,-3.0L2.5,-0.5"/>
                </g>
        </g>
        <svg viewBox="0 0 15 15" width="100%" height="30px" preserveAspectRatio="xMaxYMin meet">
         <g id="arrow_out" transform="scale(0.3 0.3)">
          <a xlink:href="a00936_af853e9d8bbb2188f871fac436e631ed1_cgraph_org.svg" target="_base">
           <rect id="button" ry="5" rx="5" y="6" x="6" height="38" width="38"
                fill="#f2f5e9" fill-opacity="0.5" stroke="#606060" stroke-width="1.0"/>
           <path id="arrow"
             d="M 11.500037,31.436501 C 11.940474,20.09759 22.043105,11.32322 32.158766,21.979434 L 37.068811,17.246167 C 37.068811,17.246167 37.088388,32 37.088388,32 L 22.160133,31.978069 C 22.160133,31.978069 26.997745,27.140456 26.997745,27.140456 C 18.528582,18.264221 13.291696,25.230495 11.500037,31.436501 z"
             style="fill:#404040;"/>
          </a>
         </g>
        </svg>
</svg>
