<?xml version="1.0" encoding="UTF-8" standalone="no"?>
<!DOCTYPE svg PUBLIC "-//W3C//DTD SVG 1.1//EN"
 "http://www.w3.org/Graphics/SVG/1.1/DTD/svg11.dtd">
<!-- Generated by graphviz version 2.36.0 (20140111.2315)
 -->
<!-- Title: FM_2WayNodeRefine1SidedP Pages: 1 -->
<svg width="634pt" height="28pt"
 viewBox="0.00 0.00 634.00 28.00" xmlns="http://www.w3.org/2000/svg" xmlns:xlink="http://www.w3.org/1999/xlink">
<g id="graph0" class="graph" transform="scale(1 1) rotate(0) translate(4 24)">
<title>FM_2WayNodeRefine1SidedP</title>
<polygon fill="white" stroke="none" points="-4,4 -4,-24 630,-24 630,4 -4,4"/>
<!-- Node297 -->
<g id="node1" class="node"><title>Node297</title>
<polygon fill="#bfbfbf" stroke="black" points="0.5,-0.5 0.5,-19.5 153.5,-19.5 153.5,-0.5 0.5,-0.5"/>
<text text-anchor="middle" x="77" y="-7.5" font-family="Helvetica,sans-Serif" font-size="10.00">FM_2WayNodeRefine1SidedP</text>
</g>
<!-- Node298 -->
<g id="node2" class="node"><title>Node298</title>
<g id="a_node2"><a xlink:href="a00942.html#a7181616e1bdb4454ac4a54aab65a4fab" target="_top" xlink:title="METIS_NodeRefine">
<polygon fill="white" stroke="black" points="190.5,-0.5 190.5,-19.5 295.5,-19.5 295.5,-0.5 190.5,-0.5"/>
<text text-anchor="middle" x="243" y="-7.5" font-family="Helvetica,sans-Serif" font-size="10.00">METIS_NodeRefine</text>
</a>
</g>
</g>
<!-- Node297&#45;&gt;Node298 -->
<g id="edge1" class="edge"><title>Node297&#45;&gt;Node298</title>
<path fill="none" stroke="midnightblue" d="M163.968,-10C173.007,-10 181.981,-10 190.45,-10"/>
<polygon fill="midnightblue" stroke="midnightblue" points="163.759,-6.5001 153.759,-10 163.759,-13.5001 163.759,-6.5001"/>
</g>
<!-- Node299 -->
<g id="node3" class="node"><title>Node299</title>
<g id="a_node3"><a xlink:href="a00954.html#ad38351510bbf07393425b90ea3c4f5bd" target="_top" xlink:title="KWayNodeRefineInterior">
<polygon fill="white" stroke="black" points="332.5,-0.5 332.5,-19.5 459.5,-19.5 459.5,-0.5 332.5,-0.5"/>
<text text-anchor="middle" x="396" y="-7.5" font-family="Helvetica,sans-Serif" font-size="10.00">KWayNodeRefineInterior</text>
</a>
</g>
</g>
<!-- Node298&#45;&gt;Node299 -->
<g id="edge2" class="edge"><title>Node298&#45;&gt;Node299</title>
<path fill="none" stroke="midnightblue" d="M305.743,-10C314.558,-10 323.632,-10 332.463,-10"/>
<polygon fill="midnightblue" stroke="midnightblue" points="305.543,-6.5001 295.543,-10 305.543,-13.5001 305.543,-6.5001"/>
</g>
<!-- Node300 -->
<g id="node4" class="node"><title>Node300</title>
<g id="a_node4"><a xlink:href="a00954.html#a5c42d043dc7f9e6d0b955a4d004a7470" target="_top" xlink:title="KWayNodeRefine2Phase">
<polygon fill="white" stroke="black" points="496,-0.5 496,-19.5 626,-19.5 626,-0.5 496,-0.5"/>
<text text-anchor="middle" x="561" y="-7.5" font-family="Helvetica,sans-Serif" font-size="10.00">KWayNodeRefine2Phase</text>
</a>
</g>
</g>
<!-- Node299&#45;&gt;Node300 -->
<g id="edge3" class="edge"><title>Node299&#45;&gt;Node300</title>
<path fill="none" stroke="midnightblue" d="M469.741,-10C478.492,-10 487.38,-10 495.995,-10"/>
<polygon fill="midnightblue" stroke="midnightblue" points="469.554,-6.5001 459.554,-10 469.554,-13.5001 469.554,-6.5001"/>
</g>
</g>
</svg>
