<?xml version="1.0" encoding="UTF-8" standalone="no"?>
<!DOCTYPE svg PUBLIC "-//W3C//DTD SVG 1.1//EN"
 "http://www.w3.org/Graphics/SVG/1.1/DTD/svg11.dtd">
<!-- Generated by graphviz version 2.36.0 (20140111.2315)
 -->
<!-- Title: Match_SHEM Pages: 1 -->
<svg width="952pt" height="102pt"
 viewBox="0.00 0.00 952.00 102.00" xmlns="http://www.w3.org/2000/svg" xmlns:xlink="http://www.w3.org/1999/xlink">
<g id="graph0" class="graph" transform="scale(1 1) rotate(0) translate(4 98)">
<title>Match_SHEM</title>
<polygon fill="white" stroke="none" points="-4,4 -4,-98 948,-98 948,4 -4,4"/>
<!-- Node558 -->
<g id="node1" class="node"><title>Node558</title>
<polygon fill="#bfbfbf" stroke="black" points="0,-47.5 0,-66.5 78,-66.5 78,-47.5 0,-47.5"/>
<text text-anchor="middle" x="39" y="-54.5" font-family="Helvetica,sans-Serif" font-size="10.00">Match_SHEM</text>
</g>
<!-- Node559 -->
<g id="node2" class="node"><title>Node559</title>
<g id="a_node2"><a xlink:href="a00948.html#adeb2c7c9bffbeca00fcc97854fb88ada" target="_top" xlink:title="CoarsenGraph">
<polygon fill="white" stroke="black" points="131,-66.5 131,-85.5 213,-85.5 213,-66.5 131,-66.5"/>
<text text-anchor="middle" x="172" y="-73.5" font-family="Helvetica,sans-Serif" font-size="10.00">CoarsenGraph</text>
</a>
</g>
</g>
<!-- Node558&#45;&gt;Node559 -->
<g id="edge1" class="edge"><title>Node558&#45;&gt;Node559</title>
<path fill="none" stroke="midnightblue" d="M88.1694,-63.9864C102.132,-66.0114 117.226,-68.2007 130.656,-70.1486"/>
<polygon fill="midnightblue" stroke="midnightblue" points="88.6416,-60.5184 78.2428,-62.5467 87.6368,-67.4459 88.6416,-60.5184"/>
</g>
<!-- Node560 -->
<g id="node3" class="node"><title>Node560</title>
<g id="a_node3"><a xlink:href="a00948.html#afa83320e3b311e0feef90d0bf4303716" target="_top" xlink:title="CoarsenGraphNlevels">
<polygon fill="white" stroke="black" points="114.5,-28.5 114.5,-47.5 229.5,-47.5 229.5,-28.5 114.5,-28.5"/>
<text text-anchor="middle" x="172" y="-35.5" font-family="Helvetica,sans-Serif" font-size="10.00">CoarsenGraphNlevels</text>
</a>
</g>
</g>
<!-- Node558&#45;&gt;Node560 -->
<g id="edge2" class="edge"><title>Node558&#45;&gt;Node560</title>
<path fill="none" stroke="midnightblue" d="M88.356,-49.9865C96.8498,-48.7546 105.757,-47.4627 114.451,-46.2018"/>
<polygon fill="midnightblue" stroke="midnightblue" points="87.6368,-46.5541 78.2428,-51.4533 88.6416,-53.4816 87.6368,-46.5541"/>
</g>
<!-- Node561 -->
<g id="node4" class="node"><title>Node561</title>
<g id="a_node4"><a xlink:href="a00948.html#ac3a0eaeefa34a3865a0be5bb70bd958f" target="_top" xlink:title="MlevelNodeBisectionL2">
<polygon fill="white" stroke="black" points="266.5,-28.5 266.5,-47.5 387.5,-47.5 387.5,-28.5 266.5,-28.5"/>
<text text-anchor="middle" x="327" y="-35.5" font-family="Helvetica,sans-Serif" font-size="10.00">MlevelNodeBisectionL2</text>
</a>
</g>
</g>
<!-- Node560&#45;&gt;Node561 -->
<g id="edge3" class="edge"><title>Node560&#45;&gt;Node561</title>
<path fill="none" stroke="midnightblue" d="M239.802,-38C248.641,-38 257.654,-38 266.361,-38"/>
<polygon fill="midnightblue" stroke="midnightblue" points="239.537,-34.5001 229.537,-38 239.537,-41.5001 239.537,-34.5001"/>
</g>
<!-- Node562 -->
<g id="node5" class="node"><title>Node562</title>
<g id="a_node5"><a xlink:href="a00948.html#a59c8030c5429e219a8535c2a11cef724" target="_top" xlink:title="MlevelNodeBisectionMultiple">
<polygon fill="white" stroke="black" points="424,-28.5 424,-47.5 568,-47.5 568,-28.5 424,-28.5"/>
<text text-anchor="middle" x="496" y="-35.5" font-family="Helvetica,sans-Serif" font-size="10.00">MlevelNodeBisectionMultiple</text>
</a>
</g>
</g>
<!-- Node561&#45;&gt;Node562 -->
<g id="edge4" class="edge"><title>Node561&#45;&gt;Node562</title>
<path fill="none" stroke="midnightblue" d="M397.828,-38C406.451,-38 415.275,-38 423.917,-38"/>
<polygon fill="midnightblue" stroke="midnightblue" points="397.819,-34.5001 387.819,-38 397.819,-41.5001 397.819,-34.5001"/>
</g>
<!-- Node563 -->
<g id="node6" class="node"><title>Node563</title>
<g id="a_node6"><a xlink:href="a00948.html#af853e9d8bbb2188f871fac436e631ed1" target="_top" xlink:title="MlevelNestedDissection">
<polygon fill="white" stroke="black" points="611.5,-56.5 611.5,-75.5 734.5,-75.5 734.5,-56.5 611.5,-56.5"/>
<text text-anchor="middle" x="673" y="-63.5" font-family="Helvetica,sans-Serif" font-size="10.00">MlevelNestedDissection</text>
</a>
</g>
</g>
<!-- Node562&#45;&gt;Node563 -->
<g id="edge5" class="edge"><title>Node562&#45;&gt;Node563</title>
<path fill="none" stroke="midnightblue" d="M567.034,-49.2054C582.109,-51.6175 597.906,-54.1449 612.534,-56.4854"/>
<polygon fill="midnightblue" stroke="midnightblue" points="567.163,-45.6816 556.736,-47.5577 566.057,-52.5937 567.163,-45.6816"/>
</g>
<!-- Node566 -->
<g id="node9" class="node"><title>Node566</title>
<g id="a_node9"><a xlink:href="a00948.html#a3ef15d1ffff55a81b8486bee09239073" target="_top" xlink:title="MlevelNestedDissectionCC">
<polygon fill="white" stroke="black" points="604,-0.5 604,-19.5 742,-19.5 742,-0.5 604,-0.5"/>
<text text-anchor="middle" x="673" y="-7.5" font-family="Helvetica,sans-Serif" font-size="10.00">MlevelNestedDissectionCC</text>
</a>
</g>
</g>
<!-- Node562&#45;&gt;Node566 -->
<g id="edge9" class="edge"><title>Node562&#45;&gt;Node566</title>
<path fill="none" stroke="midnightblue" d="M567.034,-26.7946C582.109,-24.3825 597.906,-21.8551 612.534,-19.5146"/>
<polygon fill="midnightblue" stroke="midnightblue" points="566.057,-23.4063 556.736,-28.4423 567.163,-30.3184 566.057,-23.4063"/>
</g>
<!-- Node563&#45;&gt;Node563 -->
<g id="edge8" class="edge"><title>Node563&#45;&gt;Node563</title>
<path fill="none" stroke="midnightblue" d="M645.001,-84.6539C646.171,-89.9368 655.504,-94 673,-94 699.66,-94 707.367,-84.5653 696.119,-75.7571"/>
<polygon fill="midnightblue" stroke="midnightblue" points="648.14,-86.208 649.881,-75.7571 642.003,-82.8417 648.14,-86.208"/>
</g>
<!-- Node564 -->
<g id="node7" class="node"><title>Node564</title>
<g id="a_node7"><a xlink:href="a00936.html#a8304f0dd6d180587f73b0b70de3b01b7" target="_top" xlink:title="METIS_NodeND">
<polygon fill="white" stroke="black" points="778.5,-28.5 778.5,-47.5 869.5,-47.5 869.5,-28.5 778.5,-28.5"/>
<text text-anchor="middle" x="824" y="-35.5" font-family="Helvetica,sans-Serif" font-size="10.00">METIS_NodeND</text>
</a>
</g>
</g>
<!-- Node563&#45;&gt;Node564 -->
<g id="edge6" class="edge"><title>Node563&#45;&gt;Node564</title>
<path fill="none" stroke="midnightblue" d="M734.802,-54.574C749.371,-51.8363 764.664,-48.9625 778.347,-46.3911"/>
<polygon fill="midnightblue" stroke="midnightblue" points="734.042,-51.1556 724.861,-56.4423 735.335,-58.0351 734.042,-51.1556"/>
</g>
<!-- Node565 -->
<g id="node8" class="node"><title>Node565</title>
<g id="a_node8"><a xlink:href="a00326.html#a0ddf1224851353fc92bfbff6f499fa97" target="_top" xlink:title="main">
<polygon fill="white" stroke="black" points="906,-28.5 906,-47.5 944,-47.5 944,-28.5 906,-28.5"/>
<text text-anchor="middle" x="925" y="-35.5" font-family="Helvetica,sans-Serif" font-size="10.00">main</text>
</a>
</g>
</g>
<!-- Node564&#45;&gt;Node565 -->
<g id="edge7" class="edge"><title>Node564&#45;&gt;Node565</title>
<path fill="none" stroke="midnightblue" d="M879.748,-38C889.09,-38 898.179,-38 905.665,-38"/>
<polygon fill="midnightblue" stroke="midnightblue" points="879.577,-34.5001 869.577,-38 879.577,-41.5001 879.577,-34.5001"/>
</g>
<!-- Node566&#45;&gt;Node564 -->
<g id="edge10" class="edge"><title>Node566&#45;&gt;Node564</title>
<path fill="none" stroke="midnightblue" d="M734.802,-21.426C749.371,-24.1637 764.664,-27.0375 778.347,-29.6089"/>
<polygon fill="midnightblue" stroke="midnightblue" points="735.335,-17.9649 724.861,-19.5577 734.042,-24.8444 735.335,-17.9649"/>
</g>
<!-- Node566&#45;&gt;Node566 -->
<g id="edge11" class="edge"><title>Node566&#45;&gt;Node566</title>
<path fill="none" stroke="midnightblue" d="M645.001,-28.6539C646.171,-33.9368 655.504,-38 673,-38 699.66,-38 707.367,-28.5653 696.119,-19.7571"/>
<polygon fill="midnightblue" stroke="midnightblue" points="648.14,-30.208 649.881,-19.7571 642.003,-26.8417 648.14,-30.208"/>
</g>
</g>
</svg>
