<?xml version="1.0" encoding="UTF-8" standalone="no"?>
<!DOCTYPE svg PUBLIC "-//W3C//DTD SVG 1.1//EN"
 "http://www.w3.org/Graphics/SVG/1.1/DTD/svg11.dtd">
<!-- Generated by graphviz version 2.36.0 (20140111.2315)
 -->
<!-- Title: MlevelRecursiveBisection Pages: 1 -->
<svg width="1046pt" height="294pt"
 viewBox="0.00 0.00 1046.00 294.00" xmlns="http://www.w3.org/2000/svg" xmlns:xlink="http://www.w3.org/1999/xlink">
<g id="graph0" class="graph" transform="scale(1 1) rotate(0) translate(4 290)">
<title>MlevelRecursiveBisection</title>
<polygon fill="white" stroke="none" points="-4,4 -4,-290 1042,-290 1042,4 -4,4"/>
<!-- Node743 -->
<g id="node1" class="node"><title>Node743</title>
<polygon fill="#bfbfbf" stroke="black" points="0,-95.5 0,-114.5 130,-114.5 130,-95.5 0,-95.5"/>
<text text-anchor="middle" x="65" y="-102.5" font-family="Helvetica,sans-Serif" font-size="10.00">MlevelRecursiveBisection</text>
</g>
<!-- Node743&#45;&gt;Node743 -->
<g id="edge20" class="edge"><title>Node743&#45;&gt;Node743</title>
<path fill="none" stroke="midnightblue" d="M32.8144,-123.275C33.732,-128.741 44.4606,-133 65,-133 95.5703,-133 104.407,-123.565 91.5102,-114.757"/>
<polygon fill="midnightblue" stroke="midnightblue" points="35.8574,-125.02 38.4898,-114.757 30.0321,-121.138 35.8574,-125.02"/>
</g>
<!-- Node744 -->
<g id="node2" class="node"><title>Node744</title>
<g id="a_node2"><a xlink:href="a00260.html#a25fc90fd934931239b3c98ac4bdbce76" target="_top" xlink:title="Recursive partitioning routine. ">
<polygon fill="white" stroke="black" points="166.5,-95.5 166.5,-114.5 309.5,-114.5 309.5,-95.5 166.5,-95.5"/>
<text text-anchor="middle" x="238" y="-102.5" font-family="Helvetica,sans-Serif" font-size="10.00">METIS_PartGraphRecursive</text>
</a>
</g>
</g>
<!-- Node743&#45;&gt;Node744 -->
<g id="edge1" class="edge"><title>Node743&#45;&gt;Node744</title>
<path fill="none" stroke="midnightblue" d="M140.272,-105C148.966,-105 157.818,-105 166.46,-105"/>
<polygon fill="midnightblue" stroke="midnightblue" points="140.161,-101.5 130.161,-105 140.161,-108.5 140.161,-101.5"/>
</g>
<!-- Node745 -->
<g id="node3" class="node"><title>Node745</title>
<g id="a_node3"><a xlink:href="a00954.html#aa24ead3c2c8fb3e58110f1f79453ce29" target="_top" xlink:title="Balance_Partition">
<polygon fill="white" stroke="black" points="838.5,-266.5 838.5,-285.5 933.5,-285.5 933.5,-266.5 838.5,-266.5"/>
<text text-anchor="middle" x="886" y="-273.5" font-family="Helvetica,sans-Serif" font-size="10.00">Balance_Partition</text>
</a>
</g>
</g>
<!-- Node744&#45;&gt;Node745 -->
<g id="edge2" class="edge"><title>Node744&#45;&gt;Node745</title>
<path fill="none" stroke="midnightblue" d="M260.198,-120.487C281.054,-135.026 314.292,-156.377 346,-169 519.507,-238.071 742.817,-264.074 838.319,-272.487"/>
<polygon fill="midnightblue" stroke="midnightblue" points="261.979,-117.459 251.798,-114.53 257.93,-123.169 261.979,-117.459"/>
</g>
<!-- Node746 -->
<g id="node4" class="node"><title>Node746</title>
<g id="a_node4"><a xlink:href="a00954.html#a5358042c354702d9e8128f7cc342a322" target="_top" xlink:title="InitPartition">
<polygon fill="white" stroke="black" points="852.5,-228.5 852.5,-247.5 919.5,-247.5 919.5,-228.5 852.5,-228.5"/>
<text text-anchor="middle" x="886" y="-235.5" font-family="Helvetica,sans-Serif" font-size="10.00">InitPartition</text>
</a>
</g>
</g>
<!-- Node744&#45;&gt;Node746 -->
<g id="edge3" class="edge"><title>Node744&#45;&gt;Node746</title>
<path fill="none" stroke="midnightblue" d="M271.835,-118.267C292.781,-126.327 320.659,-136.317 346,-143 534.808,-192.793 767.813,-223.861 852.393,-234.181"/>
<polygon fill="midnightblue" stroke="midnightblue" points="273.031,-114.977 262.443,-114.604 270.488,-121.498 273.031,-114.977"/>
</g>
<!-- Node747 -->
<g id="node5" class="node"><title>Node747</title>
<g id="a_node5"><a xlink:href="a00948.html#a870e37cc14eb1033c62d83d3a7c33a91" target="_top" xlink:title="InitKWayPartitioning">
<polygon fill="white" stroke="black" points="346.5,-114.5 346.5,-133.5 453.5,-133.5 453.5,-114.5 346.5,-114.5"/>
<text text-anchor="middle" x="400" y="-121.5" font-family="Helvetica,sans-Serif" font-size="10.00">InitKWayPartitioning</text>
</a>
</g>
</g>
<!-- Node744&#45;&gt;Node747 -->
<g id="edge4" class="edge"><title>Node744&#45;&gt;Node747</title>
<path fill="none" stroke="midnightblue" d="M319.713,-114.585C328.647,-115.646 337.57,-116.705 346.035,-117.71"/>
<polygon fill="midnightblue" stroke="midnightblue" points="319.987,-111.093 309.644,-113.389 319.162,-118.044 319.987,-111.093"/>
</g>
<!-- Node753 -->
<g id="node11" class="node"><title>Node753</title>
<g id="a_node11"><a xlink:href="a00236.html#ade1e7e23ad687989a6343b4fb8d61ba7" target="_top" xlink:title="METIS_PartMeshNodal">
<polygon fill="white" stroke="black" points="825,-76.5 825,-95.5 947,-95.5 947,-76.5 825,-76.5"/>
<text text-anchor="middle" x="886" y="-83.5" font-family="Helvetica,sans-Serif" font-size="10.00">METIS_PartMeshNodal</text>
</a>
</g>
</g>
<!-- Node744&#45;&gt;Node753 -->
<g id="edge17" class="edge"><title>Node744&#45;&gt;Node753</title>
<path fill="none" stroke="midnightblue" d="M319.675,-102.627C451.005,-98.7646 708.059,-91.2041 824.779,-87.7712"/>
<polygon fill="midnightblue" stroke="midnightblue" points="319.565,-99.1288 309.672,-102.921 319.77,-106.126 319.565,-99.1288"/>
</g>
<!-- Node755 -->
<g id="node13" class="node"><title>Node755</title>
<g id="a_node13"><a xlink:href="a00236.html#a8f496ac1cd2246b124da246b5c6f9193" target="_top" xlink:title="METIS_PartMeshDual">
<polygon fill="white" stroke="black" points="828,-38.5 828,-57.5 944,-57.5 944,-38.5 828,-38.5"/>
<text text-anchor="middle" x="886" y="-45.5" font-family="Helvetica,sans-Serif" font-size="10.00">METIS_PartMeshDual</text>
</a>
</g>
</g>
<!-- Node744&#45;&gt;Node755 -->
<g id="edge18" class="edge"><title>Node744&#45;&gt;Node755</title>
<path fill="none" stroke="midnightblue" d="M319.744,-96.5488C328.602,-95.6665 337.49,-94.8005 346,-94 521.553,-77.4863 729.519,-60.4527 827.93,-52.544"/>
<polygon fill="midnightblue" stroke="midnightblue" points="319.377,-93.0679 309.777,-97.5494 320.076,-100.033 319.377,-93.0679"/>
</g>
<!-- Node756 -->
<g id="node14" class="node"><title>Node756</title>
<g id="a_node14"><a xlink:href="a00311.html#a0ddf1224851353fc92bfbff6f499fa97" target="_top" xlink:title="main">
<polygon fill="white" stroke="black" points="867,-0.5 867,-19.5 905,-19.5 905,-0.5 867,-0.5"/>
<text text-anchor="middle" x="886" y="-7.5" font-family="Helvetica,sans-Serif" font-size="10.00">main</text>
</a>
</g>
</g>
<!-- Node744&#45;&gt;Node756 -->
<g id="edge19" class="edge"><title>Node744&#45;&gt;Node756</title>
<path fill="none" stroke="midnightblue" d="M285.687,-93.0187C304.356,-88.5092 326.111,-83.6056 346,-80 548.875,-43.2219 798.091,-18.2309 866.751,-11.6985"/>
<polygon fill="midnightblue" stroke="midnightblue" points="284.83,-89.6251 275.948,-95.4021 286.494,-96.4244 284.83,-89.6251"/>
</g>
<!-- Node748 -->
<g id="node6" class="node"><title>Node748</title>
<g id="a_node6"><a xlink:href="a00948.html#a7973c78504ad6711d3516082b1112805" target="_top" xlink:title="MlevelKWayPartitioning">
<polygon fill="white" stroke="black" points="490,-114.5 490,-133.5 612,-133.5 612,-114.5 490,-114.5"/>
<text text-anchor="middle" x="551" y="-121.5" font-family="Helvetica,sans-Serif" font-size="10.00">MlevelKWayPartitioning</text>
</a>
</g>
</g>
<!-- Node747&#45;&gt;Node748 -->
<g id="edge5" class="edge"><title>Node747&#45;&gt;Node748</title>
<path fill="none" stroke="midnightblue" d="M463.589,-124C472.268,-124 481.168,-124 489.802,-124"/>
<polygon fill="midnightblue" stroke="midnightblue" points="463.532,-120.5 453.532,-124 463.532,-127.5 463.532,-120.5"/>
</g>
<!-- Node749 -->
<g id="node7" class="node"><title>Node749</title>
<g id="a_node7"><a xlink:href="a00912.html#af89851458c047aba436b36ed567441e4" target="_top" xlink:title="METIS_PartGraphKway">
<polygon fill="white" stroke="black" points="648.5,-114.5 648.5,-133.5 771.5,-133.5 771.5,-114.5 648.5,-114.5"/>
<text text-anchor="middle" x="710" y="-121.5" font-family="Helvetica,sans-Serif" font-size="10.00">METIS_PartGraphKway</text>
</a>
</g>
</g>
<!-- Node748&#45;&gt;Node749 -->
<g id="edge6" class="edge"><title>Node748&#45;&gt;Node749</title>
<path fill="none" stroke="midnightblue" d="M622.361,-124C631.047,-124 639.868,-124 648.391,-124"/>
<polygon fill="midnightblue" stroke="midnightblue" points="622.251,-120.5 612.251,-124 622.251,-127.5 622.251,-120.5"/>
</g>
<!-- Node749&#45;&gt;Node745 -->
<g id="edge8" class="edge"><title>Node749&#45;&gt;Node745</title>
<path fill="none" stroke="midnightblue" d="M719.485,-142.983C733.542,-172.181 764.49,-227.786 808,-257 817.031,-263.063 827.821,-267.194 838.424,-270.007"/>
<polygon fill="midnightblue" stroke="midnightblue" points="722.622,-141.429 715.224,-133.844 716.277,-144.386 722.622,-141.429"/>
</g>
<!-- Node749&#45;&gt;Node746 -->
<g id="edge10" class="edge"><title>Node749&#45;&gt;Node746</title>
<path fill="none" stroke="midnightblue" d="M727.858,-140.967C754.349,-167.564 803.221,-216.337 808,-219 821.591,-226.575 838.186,-231.164 852.485,-233.928"/>
<polygon fill="midnightblue" stroke="midnightblue" points="730.265,-138.424 720.731,-133.804 725.303,-143.362 730.265,-138.424"/>
</g>
<!-- Node750 -->
<g id="node8" class="node"><title>Node750</title>
<g id="a_node8"><a xlink:href="a00846.html#a6df93293cf3d1ccb4659bd1b3091623d" target="_top" xlink:title="ParMETIS_V3_PartGeomKway">
<polygon fill="white" stroke="black" points="808,-190.5 808,-209.5 964,-209.5 964,-190.5 808,-190.5"/>
<text text-anchor="middle" x="886" y="-197.5" font-family="Helvetica,sans-Serif" font-size="10.00">ParMETIS_V3_PartGeomKway</text>
</a>
</g>
</g>
<!-- Node749&#45;&gt;Node750 -->
<g id="edge7" class="edge"><title>Node749&#45;&gt;Node750</title>
<path fill="none" stroke="midnightblue" d="M732.754,-139.27C751.815,-152.029 780.669,-169.874 808,-181 817.182,-184.738 827.29,-187.876 837.077,-190.456"/>
<polygon fill="midnightblue" stroke="midnightblue" points="734.715,-136.371 724.479,-133.637 730.776,-142.158 734.715,-136.371"/>
</g>
<!-- Node751 -->
<g id="node9" class="node"><title>Node751</title>
<g id="a_node9"><a xlink:href="a00416.html#af4fae82dc1fc688ae704c61e647d33e4" target="_top" xlink:title="PartitionSmallGraph">
<polygon fill="white" stroke="black" points="833,-152.5 833,-171.5 939,-171.5 939,-152.5 833,-152.5"/>
<text text-anchor="middle" x="886" y="-159.5" font-family="Helvetica,sans-Serif" font-size="10.00">PartitionSmallGraph</text>
</a>
</g>
</g>
<!-- Node749&#45;&gt;Node751 -->
<g id="edge9" class="edge"><title>Node749&#45;&gt;Node751</title>
<path fill="none" stroke="midnightblue" d="M764.814,-135.753C789.418,-141.126 818.187,-147.409 841.408,-152.48"/>
<polygon fill="midnightblue" stroke="midnightblue" points="765.424,-132.303 754.908,-133.589 763.93,-139.142 765.424,-132.303"/>
</g>
<!-- Node752 -->
<g id="node10" class="node"><title>Node752</title>
<g id="a_node10"><a xlink:href="a00846.html#af418d1e76eaf4f80116da4caf51bd54e" target="_top" xlink:title="ParMETIS_V3_PartKway">
<polygon fill="white" stroke="black" points="821.5,-114.5 821.5,-133.5 950.5,-133.5 950.5,-114.5 821.5,-114.5"/>
<text text-anchor="middle" x="886" y="-121.5" font-family="Helvetica,sans-Serif" font-size="10.00">ParMETIS_V3_PartKway</text>
</a>
</g>
</g>
<!-- Node749&#45;&gt;Node752 -->
<g id="edge11" class="edge"><title>Node749&#45;&gt;Node752</title>
<path fill="none" stroke="midnightblue" d="M782.116,-124C795.066,-124 808.502,-124 821.224,-124"/>
<polygon fill="midnightblue" stroke="midnightblue" points="781.857,-120.5 771.857,-124 781.857,-127.5 781.857,-120.5"/>
</g>
<!-- Node749&#45;&gt;Node753 -->
<g id="edge12" class="edge"><title>Node749&#45;&gt;Node753</title>
<path fill="none" stroke="midnightblue" d="M764.814,-112.247C789.418,-106.874 818.187,-100.591 841.408,-95.5201"/>
<polygon fill="midnightblue" stroke="midnightblue" points="763.93,-108.858 754.908,-114.411 765.424,-115.697 763.93,-108.858"/>
</g>
<!-- Node749&#45;&gt;Node755 -->
<g id="edge14" class="edge"><title>Node749&#45;&gt;Node755</title>
<path fill="none" stroke="midnightblue" d="M732.754,-108.73C751.815,-95.971 780.669,-78.1259 808,-67 817.182,-63.2622 827.29,-60.1239 837.077,-57.5437"/>
<polygon fill="midnightblue" stroke="midnightblue" points="730.776,-105.842 724.479,-114.363 734.715,-111.629 730.776,-105.842"/>
</g>
<!-- Node749&#45;&gt;Node756 -->
<g id="edge16" class="edge"><title>Node749&#45;&gt;Node756</title>
<path fill="none" stroke="midnightblue" d="M723.96,-106.502C740.874,-84.9487 772.531,-48.7678 808,-29 826.522,-18.6772 850.624,-13.8984 866.89,-11.729"/>
<polygon fill="midnightblue" stroke="midnightblue" points="721.139,-104.43 717.837,-114.497 726.696,-108.686 721.139,-104.43"/>
</g>
<!-- Node754 -->
<g id="node12" class="node"><title>Node754</title>
<g id="a_node12"><a xlink:href="a00323.html#a0ddf1224851353fc92bfbff6f499fa97" target="_top" xlink:title="main">
<polygon fill="white" stroke="black" points="1000,-57.5 1000,-76.5 1038,-76.5 1038,-57.5 1000,-57.5"/>
<text text-anchor="middle" x="1019" y="-64.5" font-family="Helvetica,sans-Serif" font-size="10.00">main</text>
</a>
</g>
</g>
<!-- Node753&#45;&gt;Node754 -->
<g id="edge13" class="edge"><title>Node753&#45;&gt;Node754</title>
<path fill="none" stroke="midnightblue" d="M957.451,-75.7819C973.128,-73.5082 988.424,-71.2896 999.72,-69.6512"/>
<polygon fill="midnightblue" stroke="midnightblue" points="956.526,-72.3793 947.132,-77.2785 957.531,-79.3068 956.526,-72.3793"/>
</g>
<!-- Node755&#45;&gt;Node754 -->
<g id="edge15" class="edge"><title>Node755&#45;&gt;Node754</title>
<path fill="none" stroke="midnightblue" d="M954.039,-57.7233C970.991,-60.1818 987.804,-62.6204 999.935,-64.3799"/>
<polygon fill="midnightblue" stroke="midnightblue" points="954.476,-54.2501 944.077,-56.2784 953.471,-61.1776 954.476,-54.2501"/>
</g>
</g>
</svg>
