<?xml version="1.0" encoding="UTF-8" standalone="no"?>
<!DOCTYPE svg PUBLIC "-//W3C//DTD SVG 1.1//EN"
 "http://www.w3.org/Graphics/SVG/1.1/DTD/svg11.dtd">
<!-- Generated by graphviz version 2.36.0 (20140111.2315)
 -->
<!-- Title: MlevelNestedDissectionCC Pages: 1 -->
<!--zoomable 294 -->
<svg id="main" version="1.1" xmlns="http://www.w3.org/2000/svg" xmlns:xlink="http://www.w3.org/1999/xlink" xml:space="preserve" onload="init(evt)">
<style type="text/css"><![CDATA[
.edge:hover path { stroke: red; }
.edge:hover polygon { stroke: red; fill: red; }
]]></style>
<script type="text/javascript"><![CDATA[
var edges = document.getElementsByTagName('g');
if (edges && edges.length) {
  for (var i=0;i<edges.length;i++) {
    if (edges[i].id.substr(0,4)=='edge') {
      edges[i].setAttribute('class','edge');
    }
  }
}
]]></script>
        <defs>
                <circle id="rim" cx="0" cy="0" r="7"/>
                <circle id="rim2" cx="0" cy="0" r="3.5"/>
                <g id="zoomPlus">
                        <use xlink:href="#rim" fill="#404040">
                                <set attributeName="fill" to="#808080" begin="zoomplus.mouseover" end="zoomplus.mouseout"/>
                        </use>
                        <path d="M-4,0h8M0,-4v8" fill="none" stroke="white" stroke-width="1.5" pointer-events="none"/>
                </g>
                <g id="zoomMin">
                        <use xlink:href="#rim" fill="#404040">
                                <set attributeName="fill" to="#808080" begin="zoomminus.mouseover" end="zoomminus.mouseout"/>
                        </use>
                        <path d="M-4,0h8" fill="none" stroke="white" stroke-width="1.5" pointer-events="none"/>
                </g>
                <g id="dirArrow">
                        <path fill="none" stroke="white" stroke-width="1.5" d="M0,-3.0v7 M-2.5,-0.5L0,-3.0L2.5,-0.5"/>
                </g>
               <g id="resetDef">
                       <use xlink:href="#rim2" fill="#404040">
                               <set attributeName="fill" to="#808080" begin="reset.mouseover" end="reset.mouseout"/>
                       </use>
               </g>
        </defs>

<script type="text/javascript">
var viewWidth = 1270;
var viewHeight = 294;
var sectionId = 'dynsection-5';
</script>
<script xlink:href="svgpan.js"/>
<svg id="graph" class="graph">
<g id="viewport">
<title>MlevelNestedDissectionCC</title>
<polygon fill="white" stroke="none" points="-4,4 -4,-290 1266,-290 1266,4 -4,4"/>
<!-- Node57 -->
<g id="node1" class="node"><title>Node57</title>
<polygon fill="#bfbfbf" stroke="black" points="0,-76.5 0,-95.5 138,-95.5 138,-76.5 0,-76.5"/>
<text text-anchor="middle" x="69" y="-83.5" font-family="Helvetica,sans-Serif" font-size="10.00">MlevelNestedDissectionCC</text>
</g>
<!-- Node57&#45;&gt;Node57 -->
<g id="edge28" class="edge"><title>Node57&#45;&gt;Node57</title>
<path fill="none" stroke="midnightblue" d="M41.8733,-95.7571C28.6765,-104.565 37.7188,-114 69,-114 90.5059,-114 101.5,-109.541 101.983,-103.891"/>
<polygon fill="midnightblue" stroke="midnightblue" points="104.81,-101.827 96.1267,-95.7571 99.1294,-105.917 104.81,-101.827"/>
</g>
<!-- Node58 -->
<g id="node2" class="node"><title>Node58</title>
<g id="a_node2"><a xlink:href="a00936.html#a59c8030c5429e219a8535c2a11cef724" target="_top" xlink:title="MlevelNodeBisectionMultiple">
<polygon fill="white" stroke="black" points="174,-133.5 174,-152.5 318,-152.5 318,-133.5 174,-133.5"/>
<text text-anchor="middle" x="246" y="-140.5" font-family="Helvetica,sans-Serif" font-size="10.00">MlevelNodeBisectionMultiple</text>
</a>
</g>
</g>
<!-- Node57&#45;&gt;Node58 -->
<g id="edge1" class="edge"><title>Node57&#45;&gt;Node58</title>
<path fill="none" stroke="midnightblue" d="M99.2911,-95.5405C128.567,-105.076 173.752,-119.794 206.039,-130.31"/>
<polygon fill="midnightblue" stroke="midnightblue" points="205.021,-133.659 215.613,-133.428 207.189,-127.003 205.021,-133.659"/>
</g>
<!-- Node75 -->
<g id="node19" class="node"><title>Node75</title>
<g id="a_node19"><a xlink:href="a00936.html#a52a083cfb474124f22728e79cfba695f" target="_top" xlink:title="SplitGraphOrderCC">
<polygon fill="white" stroke="black" points="363,-76.5 363,-95.5 467,-95.5 467,-76.5 363,-76.5"/>
<text text-anchor="middle" x="415" y="-83.5" font-family="Helvetica,sans-Serif" font-size="10.00">SplitGraphOrderCC</text>
</a>
</g>
</g>
<!-- Node57&#45;&gt;Node75 -->
<g id="edge22" class="edge"><title>Node57&#45;&gt;Node75</title>
<path fill="none" stroke="midnightblue" d="M138.375,-86C200.888,-86 292.516,-86 352.701,-86"/>
<polygon fill="midnightblue" stroke="midnightblue" points="352.819,-89.5001 362.819,-86 352.819,-82.5001 352.819,-89.5001"/>
</g>
<!-- Node79 -->
<g id="node23" class="node"><title>Node79</title>
<g id="a_node23"><a xlink:href="a00936.html#acafb70c0e49cde8105dc62f6c34dfa6c" target="_top" xlink:title="MMDOrder">
<polygon fill="white" stroke="black" points="213,-57.5 213,-76.5 279,-76.5 279,-57.5 213,-57.5"/>
<text text-anchor="middle" x="246" y="-64.5" font-family="Helvetica,sans-Serif" font-size="10.00">MMDOrder</text>
</a>
</g>
</g>
<!-- Node57&#45;&gt;Node79 -->
<g id="edge29" class="edge"><title>Node57&#45;&gt;Node79</title>
<path fill="none" stroke="midnightblue" d="M138.161,-78.5997C159.963,-76.2326 183.451,-73.6825 202.837,-71.5777"/>
<polygon fill="midnightblue" stroke="midnightblue" points="203.294,-75.0487 212.858,-70.4897 202.538,-68.0896 203.294,-75.0487"/>
</g>
<!-- Node80 -->
<g id="node24" class="node"><title>Node80</title>
<g id="a_node24"><a xlink:href="a00077.html#ac8df62c4e3d0910711a9874f9cc58884" target="_top" xlink:title="gk_free">
<polygon fill="white" stroke="black" points="221,-19.5 221,-38.5 271,-38.5 271,-19.5 221,-19.5"/>
<text text-anchor="middle" x="246" y="-26.5" font-family="Helvetica,sans-Serif" font-size="10.00">gk_free</text>
</a>
</g>
</g>
<!-- Node57&#45;&gt;Node80 -->
<g id="edge30" class="edge"><title>Node57&#45;&gt;Node80</title>
<path fill="none" stroke="midnightblue" d="M94.1659,-76.4776C115.111,-68.3915 146.321,-56.7414 174,-48 185.952,-44.2255 199.185,-40.5502 210.956,-37.4538"/>
<polygon fill="midnightblue" stroke="midnightblue" points="212.05,-40.7861 220.856,-34.8938 210.298,-34.009 212.05,-40.7861"/>
</g>
<!-- Node59 -->
<g id="node3" class="node"><title>Node59</title>
<g id="a_node3"><a xlink:href="a00936.html#ac3a0eaeefa34a3865a0be5bb70bd958f" target="_top" xlink:title="MlevelNodeBisectionL2">
<polygon fill="white" stroke="black" points="354.5,-133.5 354.5,-152.5 475.5,-152.5 475.5,-133.5 354.5,-133.5"/>
<text text-anchor="middle" x="415" y="-140.5" font-family="Helvetica,sans-Serif" font-size="10.00">MlevelNodeBisectionL2</text>
</a>
</g>
</g>
<!-- Node58&#45;&gt;Node59 -->
<g id="edge2" class="edge"><title>Node58&#45;&gt;Node59</title>
<path fill="none" stroke="midnightblue" d="M318.307,-143C326.973,-143 335.818,-143 344.458,-143"/>
<polygon fill="midnightblue" stroke="midnightblue" points="344.483,-146.5 354.483,-143 344.483,-139.5 344.483,-146.5"/>
</g>
<!-- Node60 -->
<g id="node4" class="node"><title>Node60</title>
<g id="a_node4"><a xlink:href="a00936.html#aeeaa7f4ed9878ae2f7faff0e2402fd87" target="_top" xlink:title="MlevelNodeBisectionL1">
<polygon fill="white" stroke="black" points="512.5,-133.5 512.5,-152.5 633.5,-152.5 633.5,-133.5 512.5,-133.5"/>
<text text-anchor="middle" x="573" y="-140.5" font-family="Helvetica,sans-Serif" font-size="10.00">MlevelNodeBisectionL1</text>
</a>
</g>
</g>
<!-- Node59&#45;&gt;Node60 -->
<g id="edge3" class="edge"><title>Node59&#45;&gt;Node60</title>
<path fill="none" stroke="midnightblue" d="M475.868,-143C484.452,-143 493.346,-143 502.103,-143"/>
<polygon fill="midnightblue" stroke="midnightblue" points="502.293,-146.5 512.293,-143 502.293,-139.5 502.293,-146.5"/>
</g>
<!-- Node61 -->
<g id="node5" class="node"><title>Node61</title>
<g id="a_node5"><a xlink:href="a00182.html#afa83320e3b311e0feef90d0bf4303716" target="_top" xlink:title="CoarsenGraphNlevels">
<polygon fill="white" stroke="black" points="515.5,-171.5 515.5,-190.5 630.5,-190.5 630.5,-171.5 515.5,-171.5"/>
<text text-anchor="middle" x="573" y="-178.5" font-family="Helvetica,sans-Serif" font-size="10.00">CoarsenGraphNlevels</text>
</a>
</g>
</g>
<!-- Node59&#45;&gt;Node61 -->
<g id="edge4" class="edge"><title>Node59&#45;&gt;Node61</title>
<path fill="none" stroke="midnightblue" d="M455.365,-152.589C475.951,-157.604 501.34,-163.788 523.169,-169.105"/>
<polygon fill="midnightblue" stroke="midnightblue" points="522.373,-172.514 532.918,-171.48 524.03,-165.713 522.373,-172.514"/>
</g>
<!-- Node62 -->
<g id="node6" class="node"><title>Node62</title>
<g id="a_node6"><a xlink:href="a00623.html#ad1e7380d51df1e0043d24d3c8a860e0a" target="_top" xlink:title="for">
<polygon fill="white" stroke="black" points="719.5,-266.5 719.5,-285.5 748.5,-285.5 748.5,-266.5 719.5,-266.5"/>
<text text-anchor="middle" x="734" y="-273.5" font-family="Helvetica,sans-Serif" font-size="10.00">for</text>
</a>
</g>
</g>
<!-- Node61&#45;&gt;Node62 -->
<g id="edge5" class="edge"><title>Node61&#45;&gt;Node62</title>
<path fill="none" stroke="midnightblue" d="M583.484,-190.577C599.782,-206.528 634.764,-238.599 670,-257 682.375,-263.463 697.291,-268.085 709.502,-271.151"/>
<polygon fill="midnightblue" stroke="midnightblue" points="708.873,-274.598 719.405,-273.452 710.457,-267.779 708.873,-274.598"/>
</g>
<!-- Node63 -->
<g id="node7" class="node"><title>Node63</title>
<g id="a_node7"><a xlink:href="a00182.html#aac3e480e7e3bd02bfdf001d858a93562" target="_top" xlink:title="PrintCGraphStats">
<polygon fill="white" stroke="black" points="686.5,-228.5 686.5,-247.5 781.5,-247.5 781.5,-228.5 686.5,-228.5"/>
<text text-anchor="middle" x="734" y="-235.5" font-family="Helvetica,sans-Serif" font-size="10.00">PrintCGraphStats</text>
</a>
</g>
</g>
<!-- Node61&#45;&gt;Node63 -->
<g id="edge6" class="edge"><title>Node61&#45;&gt;Node63</title>
<path fill="none" stroke="midnightblue" d="M596.686,-190.604C616.012,-198.635 644.607,-210.163 670,-219 676.379,-221.22 683.172,-223.428 689.848,-225.511"/>
<polygon fill="midnightblue" stroke="midnightblue" points="688.895,-228.88 699.482,-228.461 690.945,-222.187 688.895,-228.88"/>
</g>
<!-- Node64 -->
<g id="node8" class="node"><title>Node64</title>
<g id="a_node8"><a xlink:href="a00182.html#a892d2ea16d613abc2276ad5fc6999724" target="_top" xlink:title="Match_RM">
<polygon fill="white" stroke="black" points="701.5,-190.5 701.5,-209.5 766.5,-209.5 766.5,-190.5 701.5,-190.5"/>
<text text-anchor="middle" x="734" y="-197.5" font-family="Helvetica,sans-Serif" font-size="10.00">Match_RM</text>
</a>
</g>
</g>
<!-- Node61&#45;&gt;Node64 -->
<g id="edge7" class="edge"><title>Node61&#45;&gt;Node64</title>
<path fill="none" stroke="midnightblue" d="M630.505,-187.752C650.446,-190.135 672.498,-192.77 691.023,-194.984"/>
<polygon fill="midnightblue" stroke="midnightblue" points="690.853,-198.488 701.197,-196.2 691.683,-191.538 690.853,-198.488"/>
</g>
<!-- Node72 -->
<g id="node16" class="node"><title>Node72</title>
<g id="a_node16"><a xlink:href="a00182.html#af3ec72f3170ccdca06d8ad018d86cc58" target="_top" xlink:title="Match_SHEM">
<polygon fill="white" stroke="black" points="695,-152.5 695,-171.5 773,-171.5 773,-152.5 695,-152.5"/>
<text text-anchor="middle" x="734" y="-159.5" font-family="Helvetica,sans-Serif" font-size="10.00">Match_SHEM</text>
</a>
</g>
</g>
<!-- Node61&#45;&gt;Node72 -->
<g id="edge17" class="edge"><title>Node61&#45;&gt;Node72</title>
<path fill="none" stroke="midnightblue" d="M630.505,-174.248C648.098,-172.146 667.334,-169.847 684.342,-167.815"/>
<polygon fill="midnightblue" stroke="midnightblue" points="685.095,-171.25 694.609,-166.588 684.264,-164.299 685.095,-171.25"/>
</g>
<!-- Node73 -->
<g id="node17" class="node"><title>Node73</title>
<g id="a_node17"><a xlink:href="a00026.html#a4c320c13bcdc9967613253ef4c73f59f" target="_top" xlink:title="gk_errexit">
<polygon fill="white" stroke="black" points="704,-114.5 704,-133.5 764,-133.5 764,-114.5 704,-114.5"/>
<text text-anchor="middle" x="734" y="-121.5" font-family="Helvetica,sans-Serif" font-size="10.00">gk_errexit</text>
</a>
</g>
</g>
<!-- Node61&#45;&gt;Node73 -->
<g id="edge20" class="edge"><title>Node61&#45;&gt;Node73</title>
<path fill="none" stroke="midnightblue" d="M607.706,-171.491C616.385,-168.727 625.633,-165.499 634,-162 650.691,-155.019 653.262,-149.866 670,-143 677.664,-139.856 686.042,-136.969 694.113,-134.445"/>
<polygon fill="midnightblue" stroke="midnightblue" points="695.168,-137.783 703.738,-131.554 693.154,-131.078 695.168,-137.783"/>
</g>
<!-- Node65 -->
<g id="node9" class="node"><title>Node65</title>
<g id="a_node9"><a xlink:href="a00182.html#aead846b2c69509c914426ff087509934" target="_top" xlink:title="Match_2Hop">
<polygon fill="white" stroke="black" points="851.5,-152.5 851.5,-171.5 924.5,-171.5 924.5,-152.5 851.5,-152.5"/>
<text text-anchor="middle" x="888" y="-159.5" font-family="Helvetica,sans-Serif" font-size="10.00">Match_2Hop</text>
</a>
</g>
</g>
<!-- Node64&#45;&gt;Node65 -->
<g id="edge8" class="edge"><title>Node64&#45;&gt;Node65</title>
<path fill="none" stroke="midnightblue" d="M766.864,-192.034C788.497,-186.626 817.431,-179.392 841.482,-173.379"/>
<polygon fill="midnightblue" stroke="midnightblue" points="842.603,-176.707 851.456,-170.886 840.905,-169.916 842.603,-176.707"/>
</g>
<!-- Node68 -->
<g id="node12" class="node"><title>Node68</title>
<g id="a_node12"><a xlink:href="a00182.html#aac8820421b1c25698140c1b470c50e07" target="_top" xlink:title="CreateCoarseGraph">
<polygon fill="white" stroke="black" points="834.5,-190.5 834.5,-209.5 941.5,-209.5 941.5,-190.5 834.5,-190.5"/>
<text text-anchor="middle" x="888" y="-197.5" font-family="Helvetica,sans-Serif" font-size="10.00">CreateCoarseGraph</text>
</a>
</g>
</g>
<!-- Node64&#45;&gt;Node68 -->
<g id="edge11" class="edge"><title>Node64&#45;&gt;Node68</title>
<path fill="none" stroke="midnightblue" d="M766.864,-200C783.47,-200 804.377,-200 824.076,-200"/>
<polygon fill="midnightblue" stroke="midnightblue" points="824.238,-203.5 834.238,-200 824.238,-196.5 824.238,-203.5"/>
</g>
<!-- Node66 -->
<g id="node10" class="node"><title>Node66</title>
<g id="a_node10"><a xlink:href="a00182.html#a838a4013e3b5cc5278ecc7a8757ce0ef" target="_top" xlink:title="Match_2HopAny">
<polygon fill="white" stroke="black" points="1005,-114.5 1005,-133.5 1095,-133.5 1095,-114.5 1005,-114.5"/>
<text text-anchor="middle" x="1050" y="-121.5" font-family="Helvetica,sans-Serif" font-size="10.00">Match_2HopAny</text>
</a>
</g>
</g>
<!-- Node65&#45;&gt;Node66 -->
<g id="edge9" class="edge"><title>Node65&#45;&gt;Node66</title>
<path fill="none" stroke="midnightblue" d="M924.509,-153.567C946.34,-148.382 974.652,-141.658 998.76,-135.932"/>
<polygon fill="midnightblue" stroke="midnightblue" points="999.882,-139.263 1008.8,-133.547 998.265,-132.452 999.882,-139.263"/>
</g>
<!-- Node67 -->
<g id="node11" class="node"><title>Node67</title>
<g id="a_node11"><a xlink:href="a00182.html#aa56d53cace160be27fb1750dcaffbc04" target="_top" xlink:title="Match_2HopAll">
<polygon fill="white" stroke="black" points="1008,-152.5 1008,-171.5 1092,-171.5 1092,-152.5 1008,-152.5"/>
<text text-anchor="middle" x="1050" y="-159.5" font-family="Helvetica,sans-Serif" font-size="10.00">Match_2HopAll</text>
</a>
</g>
</g>
<!-- Node65&#45;&gt;Node67 -->
<g id="edge10" class="edge"><title>Node65&#45;&gt;Node67</title>
<path fill="none" stroke="midnightblue" d="M924.509,-162C946.002,-162 973.777,-162 997.637,-162"/>
<polygon fill="midnightblue" stroke="midnightblue" points="997.939,-165.5 1007.94,-162 997.939,-158.5 997.939,-165.5"/>
</g>
<!-- Node69 -->
<g id="node13" class="node"><title>Node69</title>
<g id="a_node13"><a xlink:href="a00182.html#a70dc59d4c7190507e7ad9a4cc0d80707" target="_top" xlink:title="CreateCoarseGraphNoMask">
<polygon fill="white" stroke="black" points="978.5,-228.5 978.5,-247.5 1121.5,-247.5 1121.5,-228.5 978.5,-228.5"/>
<text text-anchor="middle" x="1050" y="-235.5" font-family="Helvetica,sans-Serif" font-size="10.00">CreateCoarseGraphNoMask</text>
</a>
</g>
</g>
<!-- Node68&#45;&gt;Node69 -->
<g id="edge12" class="edge"><title>Node68&#45;&gt;Node69</title>
<path fill="none" stroke="midnightblue" d="M929.375,-209.589C950.488,-214.604 976.529,-220.788 998.917,-226.105"/>
<polygon fill="midnightblue" stroke="midnightblue" points="998.377,-229.574 1008.92,-228.48 999.995,-222.764 998.377,-229.574"/>
</g>
<!-- Node70 -->
<g id="node14" class="node"><title>Node70</title>
<g id="a_node14"><a xlink:href="a00182.html#a113522304bf628b09d0b69b4db05050e" target="_top" xlink:title="SetupCoarseGraph">
<polygon fill="white" stroke="black" points="1158.5,-256.5 1158.5,-275.5 1261.5,-275.5 1261.5,-256.5 1158.5,-256.5"/>
<text text-anchor="middle" x="1210" y="-263.5" font-family="Helvetica,sans-Serif" font-size="10.00">SetupCoarseGraph</text>
</a>
</g>
</g>
<!-- Node68&#45;&gt;Node70 -->
<g id="edge15" class="edge"><title>Node68&#45;&gt;Node70</title>
<path fill="none" stroke="midnightblue" d="M899.807,-209.697C915.637,-223.213 946.665,-247.159 978,-257 1033.65,-274.476 1100.57,-275.01 1148.02,-272.206"/>
<polygon fill="midnightblue" stroke="midnightblue" points="1148.39,-275.689 1158.14,-271.54 1147.93,-268.704 1148.39,-275.689"/>
</g>
<!-- Node71 -->
<g id="node15" class="node"><title>Node71</title>
<g id="a_node15"><a xlink:href="a00182.html#ab69ab96ec78174da232dff05e9c79d2f" target="_top" xlink:title="ReAdjustMemory">
<polygon fill="white" stroke="black" points="1163.5,-199.5 1163.5,-218.5 1256.5,-218.5 1256.5,-199.5 1163.5,-199.5"/>
<text text-anchor="middle" x="1210" y="-206.5" font-family="Helvetica,sans-Serif" font-size="10.00">ReAdjustMemory</text>
</a>
</g>
</g>
<!-- Node68&#45;&gt;Node71 -->
<g id="edge16" class="edge"><title>Node68&#45;&gt;Node71</title>
<path fill="none" stroke="midnightblue" d="M941.841,-201.486C1000.12,-203.125 1093.5,-205.751 1153.01,-207.425"/>
<polygon fill="midnightblue" stroke="midnightblue" points="1153.25,-210.933 1163.34,-207.716 1153.45,-203.936 1153.25,-210.933"/>
</g>
<!-- Node69&#45;&gt;Node70 -->
<g id="edge13" class="edge"><title>Node69&#45;&gt;Node70</title>
<path fill="none" stroke="midnightblue" d="M1104.93,-247.558C1118.82,-250.018 1133.85,-252.683 1148.06,-255.201"/>
<polygon fill="midnightblue" stroke="midnightblue" points="1147.78,-258.706 1158.24,-257.004 1149,-251.813 1147.78,-258.706"/>
</g>
<!-- Node69&#45;&gt;Node71 -->
<g id="edge14" class="edge"><title>Node69&#45;&gt;Node71</title>
<path fill="none" stroke="midnightblue" d="M1103.17,-228.424C1119.25,-225.473 1137.01,-222.213 1153.32,-219.22"/>
<polygon fill="midnightblue" stroke="midnightblue" points="1154.05,-222.644 1163.25,-217.397 1152.79,-215.759 1154.05,-222.644"/>
</g>
<!-- Node72&#45;&gt;Node65 -->
<g id="edge18" class="edge"><title>Node72&#45;&gt;Node65</title>
<path fill="none" stroke="midnightblue" d="M773.356,-162C793.914,-162 819.387,-162 841.003,-162"/>
<polygon fill="midnightblue" stroke="midnightblue" points="841.267,-165.5 851.267,-162 841.267,-158.5 841.267,-165.5"/>
</g>
<!-- Node72&#45;&gt;Node68 -->
<g id="edge19" class="edge"><title>Node72&#45;&gt;Node68</title>
<path fill="none" stroke="midnightblue" d="M773.356,-171.589C793.324,-176.581 817.93,-182.732 839.133,-188.033"/>
<polygon fill="midnightblue" stroke="midnightblue" points="838.369,-191.45 848.92,-190.48 840.067,-184.659 838.369,-191.45"/>
</g>
<!-- Node74 -->
<g id="node18" class="node"><title>Node74</title>
<g id="a_node18"><a xlink:href="a01017.html#a2e311a777ffe9c80e405efa7cd2757be" target="_top" xlink:title="fprintf">
<polygon fill="white" stroke="black" points="867,-95.5 867,-114.5 909,-114.5 909,-95.5 867,-95.5"/>
<text text-anchor="middle" x="888" y="-102.5" font-family="Helvetica,sans-Serif" font-size="10.00">fprintf</text>
</a>
</g>
</g>
<!-- Node73&#45;&gt;Node74 -->
<g id="edge21" class="edge"><title>Node73&#45;&gt;Node74</title>
<path fill="none" stroke="midnightblue" d="M764.307,-120.337C790.963,-117.005 830.13,-112.109 857,-108.75"/>
<polygon fill="midnightblue" stroke="midnightblue" points="857.503,-112.214 866.992,-107.501 856.635,-105.268 857.503,-112.214"/>
</g>
<!-- Node76 -->
<g id="node20" class="node"><title>Node76</title>
<g id="a_node20"><a xlink:href="a00077.html#aba6f76f5c67b9b7e9c2e45988d3d3e9d" target="_top" xlink:title="gk_malloc">
<polygon fill="white" stroke="black" points="542,-76.5 542,-95.5 604,-95.5 604,-76.5 542,-76.5"/>
<text text-anchor="middle" x="573" y="-83.5" font-family="Helvetica,sans-Serif" font-size="10.00">gk_malloc</text>
</a>
</g>
</g>
<!-- Node75&#45;&gt;Node76 -->
<g id="edge23" class="edge"><title>Node75&#45;&gt;Node76</title>
<path fill="none" stroke="midnightblue" d="M467.08,-86C488.02,-86 511.91,-86 531.599,-86"/>
<polygon fill="midnightblue" stroke="midnightblue" points="531.766,-89.5001 541.766,-86 531.766,-82.5001 531.766,-89.5001"/>
</g>
<!-- Node76&#45;&gt;Node73 -->
<g id="edge27" class="edge"><title>Node76&#45;&gt;Node73</title>
<path fill="none" stroke="midnightblue" d="M604.281,-93.237C629.8,-99.3358 666.473,-108.1 694.152,-114.715"/>
<polygon fill="midnightblue" stroke="midnightblue" points="693.365,-118.126 703.905,-117.046 694.992,-111.318 693.365,-118.126"/>
</g>
<!-- Node76&#45;&gt;Node74 -->
<g id="edge24" class="edge"><title>Node76&#45;&gt;Node74</title>
<path fill="none" stroke="midnightblue" d="M604.012,-87.8218C663.646,-91.4418 796.469,-99.5045 856.5,-103.149"/>
<polygon fill="midnightblue" stroke="midnightblue" points="856.635,-106.663 866.828,-103.776 857.059,-99.6759 856.635,-106.663"/>
</g>
<!-- Node77 -->
<g id="node21" class="node"><title>Node77</title>
<g id="a_node21"><a xlink:href="a00110.html#ad2327b94227019b6753b6b09400c0522" target="_top" xlink:title="gk_GetCurMemoryUsed">
<polygon fill="white" stroke="black" points="672,-38.5 672,-57.5 796,-57.5 796,-38.5 672,-38.5"/>
<text text-anchor="middle" x="734" y="-45.5" font-family="Helvetica,sans-Serif" font-size="10.00">gk_GetCurMemoryUsed</text>
</a>
</g>
</g>
<!-- Node76&#45;&gt;Node77 -->
<g id="edge25" class="edge"><title>Node76&#45;&gt;Node77</title>
<path fill="none" stroke="midnightblue" d="M604.281,-78.763C626.553,-73.4401 657.322,-66.0865 683.192,-59.9037"/>
<polygon fill="midnightblue" stroke="midnightblue" points="684.292,-63.2395 693.205,-57.5109 682.665,-56.4313 684.292,-63.2395"/>
</g>
<!-- Node78 -->
<g id="node22" class="node"><title>Node78</title>
<g id="a_node22"><a xlink:href="a00110.html#a656fd5266ae12a96e53125486f8fea52" target="_top" xlink:title="gk_GetMaxMemoryUsed">
<polygon fill="white" stroke="black" points="670.5,-0.5 670.5,-19.5 797.5,-19.5 797.5,-0.5 670.5,-0.5"/>
<text text-anchor="middle" x="734" y="-7.5" font-family="Helvetica,sans-Serif" font-size="10.00">gk_GetMaxMemoryUsed</text>
</a>
</g>
</g>
<!-- Node76&#45;&gt;Node78 -->
<g id="edge26" class="edge"><title>Node76&#45;&gt;Node78</title>
<path fill="none" stroke="midnightblue" d="M587.736,-76.3814C605.873,-64.0313 639.128,-42.5785 670,-29 675.098,-26.7578 680.539,-24.6805 686.007,-22.7867"/>
<polygon fill="midnightblue" stroke="midnightblue" points="687.395,-26.0152 695.812,-19.58 685.219,-19.362 687.395,-26.0152"/>
</g>
</g>
</svg>
        <g id="navigator" transform="translate(0 0)" fill="#404254">
                <rect fill="#f2f5e9" fill-opacity="0.5" stroke="#606060" stroke-width=".5" x="0" y="0" width="60" height="60"/>
                <use id="zoomplus" xlink:href="#zoomPlus" x="17" y="9" onmousedown="handleZoom(evt,'in')"/>
                <use id="zoomminus" xlink:href="#zoomMin" x="42" y="9" onmousedown="handleZoom(evt,'out')"/>
                <use id="reset" xlink:href="#resetDef" x="30" y="36" onmousedown="handleReset()"/>
                <g id="arrowUp" xlink:href="#dirArrow" transform="translate(30 24)" onmousedown="handlePan(0,-1)">
                  <use xlink:href="#rim" fill="#404040">
                        <set attributeName="fill" to="#808080" begin="arrowUp.mouseover" end="arrowUp.mouseout"/>
                  </use>
                  <path fill="none" stroke="white" stroke-width="1.5" d="M0,-3.0v7 M-2.5,-0.5L0,-3.0L2.5,-0.5"/>
                </g>
                <g id="arrowRight" xlink:href="#dirArrow" transform="rotate(90) translate(36 -43)" onmousedown="handlePan(1,0)">
                  <use xlink:href="#rim" fill="#404040">
                        <set attributeName="fill" to="#808080" begin="arrowRight.mouseover" end="arrowRight.mouseout"/>
                  </use>
                  <path fill="none" stroke="white" stroke-width="1.5" d="M0,-3.0v7 M-2.5,-0.5L0,-3.0L2.5,-0.5"/>
                </g>
                <g id="arrowDown" xlink:href="#dirArrow" transform="rotate(180) translate(-30 -48)" onmousedown="handlePan(0,1)">
                  <use xlink:href="#rim" fill="#404040">
                        <set attributeName="fill" to="#808080" begin="arrowDown.mouseover" end="arrowDown.mouseout"/>
                  </use>
                  <path fill="none" stroke="white" stroke-width="1.5" d="M0,-3.0v7 M-2.5,-0.5L0,-3.0L2.5,-0.5"/>
                </g>
                <g id="arrowLeft" xlink:href="#dirArrow" transform="rotate(270) translate(-36 17)" onmousedown="handlePan(-1,0)">
                  <use xlink:href="#rim" fill="#404040">
                        <set attributeName="fill" to="#808080" begin="arrowLeft.mouseover" end="arrowLeft.mouseout"/>
                  </use>
                  <path fill="none" stroke="white" stroke-width="1.5" d="M0,-3.0v7 M-2.5,-0.5L0,-3.0L2.5,-0.5"/>
                </g>
        </g>
        <svg viewBox="0 0 15 15" width="100%" height="30px" preserveAspectRatio="xMaxYMin meet">
         <g id="arrow_out" transform="scale(0.3 0.3)">
          <a xlink:href="a00936_a3ef15d1ffff55a81b8486bee09239073_cgraph_org.svg" target="_base">
           <rect id="button" ry="5" rx="5" y="6" x="6" height="38" width="38"
                fill="#f2f5e9" fill-opacity="0.5" stroke="#606060" stroke-width="1.0"/>
           <path id="arrow"
             d="M 11.500037,31.436501 C 11.940474,20.09759 22.043105,11.32322 32.158766,21.979434 L 37.068811,17.246167 C 37.068811,17.246167 37.088388,32 37.088388,32 L 22.160133,31.978069 C 22.160133,31.978069 26.997745,27.140456 26.997745,27.140456 C 18.528582,18.264221 13.291696,25.230495 11.500037,31.436501 z"
             style="fill:#404040;"/>
          </a>
         </g>
        </svg>
</svg>
