<?xml version="1.0" encoding="UTF-8" standalone="no"?>
<!DOCTYPE svg PUBLIC "-//W3C//DTD SVG 1.1//EN"
 "http://www.w3.org/Graphics/SVG/1.1/DTD/svg11.dtd">
<!-- Generated by graphviz version 2.36.0 (20140111.2315)
 -->
<!-- Title: TestMoveGraph Pages: 1 -->
<svg width="224pt" height="66pt"
 viewBox="0.00 0.00 224.00 66.00" xmlns="http://www.w3.org/2000/svg" xmlns:xlink="http://www.w3.org/1999/xlink">
<g id="graph0" class="graph" transform="scale(1 1) rotate(0) translate(4 62)">
<title>TestMoveGraph</title>
<polygon fill="white" stroke="none" points="-4,4 -4,-62 220,-62 220,4 -4,4"/>
<!-- Node83 -->
<g id="node1" class="node"><title>Node83</title>
<polygon fill="#bfbfbf" stroke="black" points="0,-19.5 0,-38.5 88,-38.5 88,-19.5 0,-19.5"/>
<text text-anchor="middle" x="44" y="-26.5" font-family="Helvetica,sans-Serif" font-size="10.00">TestMoveGraph</text>
</g>
<!-- Node84 -->
<g id="node2" class="node"><title>Node84</title>
<g id="a_node2"><a xlink:href="a00428.html#ac5472d28ea064341acff9be6744eea92" target="_top" xlink:title="SetUpGraph">
<polygon fill="white" stroke="black" points="134,-38.5 134,-57.5 206,-57.5 206,-38.5 134,-38.5"/>
<text text-anchor="middle" x="170" y="-45.5" font-family="Helvetica,sans-Serif" font-size="10.00">SetUpGraph</text>
</a>
</g>
</g>
<!-- Node83&#45;&gt;Node84 -->
<g id="edge1" class="edge"><title>Node83&#45;&gt;Node84</title>
<path fill="none" stroke="midnightblue" d="M88.0212,-35.592C99.5989,-37.366 112.154,-39.2897 123.844,-41.081"/>
<polygon fill="midnightblue" stroke="midnightblue" points="123.434,-44.5589 133.849,-42.6139 124.494,-37.6396 123.434,-44.5589"/>
</g>
<!-- Node85 -->
<g id="node3" class="node"><title>Node85</title>
<g id="a_node3"><a xlink:href="a00437.html#aff9e935a0b03f0424e9c241573bb437b" target="_top" xlink:title="TestSetUpGraph">
<polygon fill="white" stroke="black" points="124,-0.5 124,-19.5 216,-19.5 216,-0.5 124,-0.5"/>
<text text-anchor="middle" x="170" y="-7.5" font-family="Helvetica,sans-Serif" font-size="10.00">TestSetUpGraph</text>
</a>
</g>
</g>
<!-- Node83&#45;&gt;Node85 -->
<g id="edge2" class="edge"><title>Node83&#45;&gt;Node85</title>
<path fill="none" stroke="midnightblue" d="M88.0212,-22.408C96.367,-21.1292 105.221,-19.7726 113.892,-18.4439"/>
<polygon fill="midnightblue" stroke="midnightblue" points="114.592,-21.8776 123.947,-16.9033 113.532,-14.9584 114.592,-21.8776"/>
</g>
</g>
</svg>
