<?xml version="1.0" encoding="UTF-8" standalone="no"?>
<!DOCTYPE svg PUBLIC "-//W3C//DTD SVG 1.1//EN"
 "http://www.w3.org/Graphics/SVG/1.1/DTD/svg11.dtd">
<!-- Generated by graphviz version 2.36.0 (20140111.2315)
 -->
<!-- Title: PartitionSmallGraph Pages: 1 -->
<!--zoomable 313 -->
<svg id="main" version="1.1" xmlns="http://www.w3.org/2000/svg" xmlns:xlink="http://www.w3.org/1999/xlink" xml:space="preserve" onload="init(evt)">
<style type="text/css"><![CDATA[
.edge:hover path { stroke: red; }
.edge:hover polygon { stroke: red; fill: red; }
]]></style>
<script type="text/javascript"><![CDATA[
var edges = document.getElementsByTagName('g');
if (edges && edges.length) {
  for (var i=0;i<edges.length;i++) {
    if (edges[i].id.substr(0,4)=='edge') {
      edges[i].setAttribute('class','edge');
    }
  }
}
]]></script>
        <defs>
                <circle id="rim" cx="0" cy="0" r="7"/>
                <circle id="rim2" cx="0" cy="0" r="3.5"/>
                <g id="zoomPlus">
                        <use xlink:href="#rim" fill="#404040">
                                <set attributeName="fill" to="#808080" begin="zoomplus.mouseover" end="zoomplus.mouseout"/>
                        </use>
                        <path d="M-4,0h8M0,-4v8" fill="none" stroke="white" stroke-width="1.5" pointer-events="none"/>
                </g>
                <g id="zoomMin">
                        <use xlink:href="#rim" fill="#404040">
                                <set attributeName="fill" to="#808080" begin="zoomminus.mouseover" end="zoomminus.mouseout"/>
                        </use>
                        <path d="M-4,0h8" fill="none" stroke="white" stroke-width="1.5" pointer-events="none"/>
                </g>
                <g id="dirArrow">
                        <path fill="none" stroke="white" stroke-width="1.5" d="M0,-3.0v7 M-2.5,-0.5L0,-3.0L2.5,-0.5"/>
                </g>
               <g id="resetDef">
                       <use xlink:href="#rim2" fill="#404040">
                               <set attributeName="fill" to="#808080" begin="reset.mouseover" end="reset.mouseout"/>
                       </use>
               </g>
        </defs>

<script type="text/javascript">
var viewWidth = 1044;
var viewHeight = 313;
var sectionId = 'dynsection-82';
</script>
<script xlink:href="svgpan.js"/>
<svg id="graph" class="graph">
<g id="viewport">
<title>PartitionSmallGraph</title>
<polygon fill="white" stroke="none" points="-4,4 -4,-309.187 1040,-309.187 1040,4 -4,4"/>
<!-- Node461 -->
<g id="node1" class="node"><title>Node461</title>
<polygon fill="#bfbfbf" stroke="black" points="0,-75.5 0,-94.5 106,-94.5 106,-75.5 0,-75.5"/>
<text text-anchor="middle" x="53" y="-82.5" font-family="Helvetica,sans-Serif" font-size="10.00">PartitionSmallGraph</text>
</g>
<!-- Node462 -->
<g id="node2" class="node"><title>Node462</title>
<g id="a_node2"><a xlink:href="a00170.html#abea67bb0c6286795ac5fc9bee605dc5d" target="_top" xlink:title="METIS_SetDefaultOptions">
<polygon fill="white" stroke="black" points="609,-66.5 609,-85.5 743,-85.5 743,-66.5 609,-66.5"/>
<text text-anchor="middle" x="676" y="-73.5" font-family="Helvetica,sans-Serif" font-size="10.00">METIS_SetDefaultOptions</text>
</a>
</g>
</g>
<!-- Node461&#45;&gt;Node462 -->
<g id="edge1" class="edge"><title>Node461&#45;&gt;Node462</title>
<path fill="none" stroke="midnightblue" d="M106.144,-84.2443C215.727,-82.6561 470.349,-78.966 598.47,-77.1091"/>
<polygon fill="midnightblue" stroke="midnightblue" points="598.647,-80.607 608.595,-76.9624 598.546,-73.6078 598.647,-80.607"/>
</g>
<!-- Node463 -->
<g id="node3" class="node"><title>Node463</title>
<g id="a_node3"><a xlink:href="a00912.html#af89851458c047aba436b36ed567441e4" target="_top" xlink:title="METIS_PartGraphKway">
<polygon fill="white" stroke="black" points="142.5,-123.5 142.5,-142.5 265.5,-142.5 265.5,-123.5 142.5,-123.5"/>
<text text-anchor="middle" x="204" y="-130.5" font-family="Helvetica,sans-Serif" font-size="10.00">METIS_PartGraphKway</text>
</a>
</g>
</g>
<!-- Node461&#45;&gt;Node463 -->
<g id="edge2" class="edge"><title>Node461&#45;&gt;Node463</title>
<path fill="none" stroke="midnightblue" d="M83.7943,-94.5982C106.736,-101.989 138.654,-112.271 163.689,-120.336"/>
<polygon fill="midnightblue" stroke="midnightblue" points="162.666,-123.684 173.257,-123.418 164.812,-117.021 162.666,-123.684"/>
</g>
<!-- Node464 -->
<g id="node4" class="node"><title>Node464</title>
<g id="a_node4"><a xlink:href="a00077.html#a24633cc1c72a7e92836912c2adcf570a" target="_top" xlink:title="gk_malloc_init">
<polygon fill="white" stroke="black" points="809,-38.5 809,-57.5 889,-57.5 889,-38.5 809,-38.5"/>
<text text-anchor="middle" x="849" y="-45.5" font-family="Helvetica,sans-Serif" font-size="10.00">gk_malloc_init</text>
</a>
</g>
</g>
<!-- Node463&#45;&gt;Node464 -->
<g id="edge3" class="edge"><title>Node463&#45;&gt;Node464</title>
<path fill="none" stroke="midnightblue" d="M244.34,-123.451C315.567,-106.623 470.867,-72.0471 604,-57 671.245,-49.3998 749.51,-47.7787 798.9,-47.6351"/>
<polygon fill="midnightblue" stroke="midnightblue" points="798.99,-51.1351 808.986,-47.6253 798.983,-44.1351 798.99,-51.1351"/>
</g>
<!-- Node465 -->
<g id="node5" class="node"><title>Node465</title>
<g id="a_node5"><a xlink:href="a00026.html#a05869524d1c30cfaab2a8690e7da6fd4" target="_top" xlink:title="gk_sigtrap">
<polygon fill="white" stroke="black" points="817.5,-0.5 817.5,-19.5 880.5,-19.5 880.5,-0.5 817.5,-0.5"/>
<text text-anchor="middle" x="849" y="-7.5" font-family="Helvetica,sans-Serif" font-size="10.00">gk_sigtrap</text>
</a>
</g>
</g>
<!-- Node463&#45;&gt;Node465 -->
<g id="edge4" class="edge"><title>Node463&#45;&gt;Node465</title>
<path fill="none" stroke="midnightblue" d="M219.087,-123.439C237.365,-111.519 270.637,-91.4429 302,-81 483.425,-20.5913 714.703,-11.2378 807.145,-10.0351"/>
<polygon fill="midnightblue" stroke="midnightblue" points="807.241,-13.5344 817.204,-9.92987 807.168,-6.53474 807.241,-13.5344"/>
</g>
<!-- Node466 -->
<g id="node6" class="node"><title>Node466</title>
<g id="a_node6"><a xlink:href="a00026.html#a08f287b6dbdc0779c916ecbd49540a1e" target="_top" xlink:title="gk_siguntrap">
<polygon fill="white" stroke="black" points="812,-180.5 812,-199.5 886,-199.5 886,-180.5 812,-180.5"/>
<text text-anchor="middle" x="849" y="-187.5" font-family="Helvetica,sans-Serif" font-size="10.00">gk_siguntrap</text>
</a>
</g>
</g>
<!-- Node463&#45;&gt;Node466 -->
<g id="edge5" class="edge"><title>Node463&#45;&gt;Node466</title>
<path fill="none" stroke="midnightblue" d="M210.569,-142.511C223.52,-163.628 257.94,-214.272 302,-236 479.834,-323.699 566.958,-327.869 748,-247 769.242,-237.512 764.173,-221.17 784,-209 789.51,-205.618 795.658,-202.808 801.903,-200.481"/>
<polygon fill="midnightblue" stroke="midnightblue" points="803.34,-203.691 811.72,-197.209 801.127,-197.05 803.34,-203.691"/>
</g>
<!-- Node467 -->
<g id="node7" class="node"><title>Node467</title>
<g id="a_node7"><a xlink:href="a00077.html#a3d153a0a39d7ba54f0943fa586f0c561" target="_top" xlink:title="gk_log2">
<polygon fill="white" stroke="black" points="337,-142.5 337,-161.5 389,-161.5 389,-142.5 337,-142.5"/>
<text text-anchor="middle" x="363" y="-149.5" font-family="Helvetica,sans-Serif" font-size="10.00">gk_log2</text>
</a>
</g>
</g>
<!-- Node463&#45;&gt;Node467 -->
<g id="edge6" class="edge"><title>Node463&#45;&gt;Node467</title>
<path fill="none" stroke="midnightblue" d="M265.7,-140.346C286.33,-142.842 308.691,-145.549 326.668,-147.724"/>
<polygon fill="midnightblue" stroke="midnightblue" points="326.352,-151.211 336.7,-148.938 327.193,-144.262 326.352,-151.211"/>
</g>
<!-- Node468 -->
<g id="node8" class="node"><title>Node468</title>
<g id="a_node8"><a xlink:href="a00026.html#a4c320c13bcdc9967613253ef4c73f59f" target="_top" xlink:title="gk_errexit">
<polygon fill="white" stroke="black" points="646,-218.5 646,-237.5 706,-237.5 706,-218.5 646,-218.5"/>
<text text-anchor="middle" x="676" y="-225.5" font-family="Helvetica,sans-Serif" font-size="10.00">gk_errexit</text>
</a>
</g>
</g>
<!-- Node463&#45;&gt;Node468 -->
<g id="edge7" class="edge"><title>Node463&#45;&gt;Node468</title>
<path fill="none" stroke="midnightblue" d="M213.425,-142.712C228.936,-159.797 263.926,-194.766 302,-209 416.962,-251.977 565.838,-241.788 635.628,-233.558"/>
<polygon fill="midnightblue" stroke="midnightblue" points="636.238,-237.009 645.735,-232.314 635.382,-230.062 636.238,-237.009"/>
</g>
<!-- Node470 -->
<g id="node10" class="node"><title>Node470</title>
<g id="a_node10"><a xlink:href="a00912.html#a7973c78504ad6711d3516082b1112805" target="_top" xlink:title="MlevelKWayPartitioning">
<polygon fill="white" stroke="black" points="302,-180.5 302,-199.5 424,-199.5 424,-180.5 302,-180.5"/>
<text text-anchor="middle" x="363" y="-187.5" font-family="Helvetica,sans-Serif" font-size="10.00">MlevelKWayPartitioning</text>
</a>
</g>
</g>
<!-- Node463&#45;&gt;Node470 -->
<g id="edge9" class="edge"><title>Node463&#45;&gt;Node470</title>
<path fill="none" stroke="midnightblue" d="M228.357,-142.656C247.903,-150.614 276.594,-162.012 302,-171 308.016,-173.128 314.411,-175.275 320.697,-177.32"/>
<polygon fill="midnightblue" stroke="midnightblue" points="319.826,-180.716 330.417,-180.433 321.962,-174.049 319.826,-180.716"/>
</g>
<!-- Node476 -->
<g id="node16" class="node"><title>Node476</title>
<g id="a_node16"><a xlink:href="a00077.html#a47156a22528b5bc8c7c6e9849af34e62" target="_top" xlink:title="gk_malloc_cleanup">
<polygon fill="white" stroke="black" points="798,-142.5 798,-161.5 900,-161.5 900,-142.5 798,-142.5"/>
<text text-anchor="middle" x="849" y="-149.5" font-family="Helvetica,sans-Serif" font-size="10.00">gk_malloc_cleanup</text>
</a>
</g>
</g>
<!-- Node463&#45;&gt;Node476 -->
<g id="edge24" class="edge"><title>Node463&#45;&gt;Node476</title>
<path fill="none" stroke="midnightblue" d="M265.596,-129.63C309.66,-127.999 370.68,-127.433 424,-133 505.321,-141.49 522.679,-162.51 604,-171 667.654,-177.646 684.282,-177 748,-171 764.164,-169.478 781.606,-166.601 797.327,-163.538"/>
<polygon fill="midnightblue" stroke="midnightblue" points="798.268,-166.919 807.378,-161.511 796.884,-160.057 798.268,-166.919"/>
</g>
<!-- Node469 -->
<g id="node9" class="node"><title>Node469</title>
<g id="a_node9"><a xlink:href="a01017.html#a2e311a777ffe9c80e405efa7cd2757be" target="_top" xlink:title="fprintf">
<polygon fill="white" stroke="black" points="828,-218.5 828,-237.5 870,-237.5 870,-218.5 828,-218.5"/>
<text text-anchor="middle" x="849" y="-225.5" font-family="Helvetica,sans-Serif" font-size="10.00">fprintf</text>
</a>
</g>
</g>
<!-- Node468&#45;&gt;Node469 -->
<g id="edge8" class="edge"><title>Node468&#45;&gt;Node469</title>
<path fill="none" stroke="midnightblue" d="M706.008,-228C737.034,-228 786.025,-228 817.583,-228"/>
<polygon fill="midnightblue" stroke="midnightblue" points="817.96,-231.5 827.96,-228 817.96,-224.5 817.96,-231.5"/>
</g>
<!-- Node470&#45;&gt;Node468 -->
<g id="edge23" class="edge"><title>Node470&#45;&gt;Node468</title>
<path fill="none" stroke="midnightblue" d="M424.277,-196.883C464.904,-201.574 519.694,-207.999 568,-214 590.482,-216.793 615.598,-220.071 635.844,-222.753"/>
<polygon fill="midnightblue" stroke="midnightblue" points="635.574,-226.248 645.948,-224.095 636.496,-219.309 635.574,-226.248"/>
</g>
<!-- Node471 -->
<g id="node11" class="node"><title>Node471</title>
<g id="a_node11"><a xlink:href="a00912.html#a870e37cc14eb1033c62d83d3a7c33a91" target="_top" xlink:title="InitKWayPartitioning">
<polygon fill="white" stroke="black" points="460.5,-104.5 460.5,-123.5 567.5,-123.5 567.5,-104.5 460.5,-104.5"/>
<text text-anchor="middle" x="514" y="-111.5" font-family="Helvetica,sans-Serif" font-size="10.00">InitKWayPartitioning</text>
</a>
</g>
</g>
<!-- Node470&#45;&gt;Node471 -->
<g id="edge10" class="edge"><title>Node470&#45;&gt;Node471</title>
<path fill="none" stroke="midnightblue" d="M399.491,-180.461C407.698,-177.792 416.282,-174.616 424,-171 448.619,-159.465 474.555,-142.188 492.036,-129.679"/>
<polygon fill="midnightblue" stroke="midnightblue" points="494.326,-132.341 500.354,-123.629 490.208,-126.68 494.326,-132.341"/>
</g>
<!-- Node471&#45;&gt;Node462 -->
<g id="edge11" class="edge"><title>Node471&#45;&gt;Node462</title>
<path fill="none" stroke="midnightblue" d="M555.375,-104.411C576.488,-99.3965 602.529,-93.2119 624.917,-87.8947"/>
<polygon fill="midnightblue" stroke="midnightblue" points="625.995,-91.2361 634.916,-85.5201 624.377,-84.4256 625.995,-91.2361"/>
</g>
<!-- Node471&#45;&gt;Node468 -->
<g id="edge21" class="edge"><title>Node471&#45;&gt;Node468</title>
<path fill="none" stroke="midnightblue" d="M528.366,-123.523C555.944,-143.173 619.384,-188.373 653.063,-212.37"/>
<polygon fill="midnightblue" stroke="midnightblue" points="651.157,-215.31 661.333,-218.262 655.219,-209.609 651.157,-215.31"/>
</g>
<!-- Node472 -->
<g id="node12" class="node"><title>Node472</title>
<g id="a_node12"><a xlink:href="a00260.html#a25fc90fd934931239b3c98ac4bdbce76" target="_top" xlink:title="Recursive partitioning routine. ">
<polygon fill="white" stroke="black" points="604.5,-142.5 604.5,-161.5 747.5,-161.5 747.5,-142.5 604.5,-142.5"/>
<text text-anchor="middle" x="676" y="-149.5" font-family="Helvetica,sans-Serif" font-size="10.00">METIS_PartGraphRecursive</text>
</a>
</g>
</g>
<!-- Node471&#45;&gt;Node472 -->
<g id="edge12" class="edge"><title>Node471&#45;&gt;Node472</title>
<path fill="none" stroke="midnightblue" d="M555.375,-123.589C576.488,-128.604 602.529,-134.788 624.917,-140.105"/>
<polygon fill="midnightblue" stroke="midnightblue" points="624.377,-143.574 634.916,-142.48 625.995,-136.764 624.377,-143.574"/>
</g>
<!-- Node477 -->
<g id="node17" class="node"><title>Node477</title>
<g id="a_node17"><a xlink:href="a00077.html#ac8df62c4e3d0910711a9874f9cc58884" target="_top" xlink:title="gk_free">
<polygon fill="white" stroke="black" points="651,-104.5 651,-123.5 701,-123.5 701,-104.5 651,-104.5"/>
<text text-anchor="middle" x="676" y="-111.5" font-family="Helvetica,sans-Serif" font-size="10.00">gk_free</text>
</a>
</g>
</g>
<!-- Node471&#45;&gt;Node477 -->
<g id="edge22" class="edge"><title>Node471&#45;&gt;Node477</title>
<path fill="none" stroke="midnightblue" d="M567.833,-114C591.817,-114 619.497,-114 640.717,-114"/>
<polygon fill="midnightblue" stroke="midnightblue" points="640.87,-117.5 650.87,-114 640.87,-110.5 640.87,-117.5"/>
</g>
<!-- Node472&#45;&gt;Node464 -->
<g id="edge13" class="edge"><title>Node472&#45;&gt;Node464</title>
<path fill="none" stroke="midnightblue" d="M730.191,-142.485C736.529,-140.018 742.64,-136.912 748,-133 771.9,-115.557 761.609,-96.3415 784,-77 791.118,-70.8512 799.755,-65.7755 808.349,-61.6842"/>
<polygon fill="midnightblue" stroke="midnightblue" points="809.837,-64.8536 817.585,-57.627 807.022,-58.4447 809.837,-64.8536"/>
</g>
<!-- Node472&#45;&gt;Node465 -->
<g id="edge14" class="edge"><title>Node472&#45;&gt;Node465</title>
<path fill="none" stroke="midnightblue" d="M733.973,-142.36C739.096,-139.896 743.89,-136.825 748,-133 783.805,-99.6763 748.65,-62.806 784,-29 790.512,-22.7724 798.971,-18.5749 807.594,-15.749"/>
<polygon fill="midnightblue" stroke="midnightblue" points="808.575,-19.1095 817.305,-13.106 806.736,-12.3552 808.575,-19.1095"/>
</g>
<!-- Node472&#45;&gt;Node466 -->
<g id="edge15" class="edge"><title>Node472&#45;&gt;Node466</title>
<path fill="none" stroke="midnightblue" d="M720.151,-161.589C745.131,-167.14 776.565,-174.126 802.012,-179.781"/>
<polygon fill="midnightblue" stroke="midnightblue" points="801.279,-183.203 811.801,-181.956 802.798,-176.37 801.279,-183.203"/>
</g>
<!-- Node473 -->
<g id="node13" class="node"><title>Node473</title>
<g id="a_node13"><a xlink:href="a00260.html#a5510f276b321a8450b2e9cc913c2f00f" target="_top" xlink:title="MlevelRecursiveBisection">
<polygon fill="white" stroke="black" points="784,-86.5 784,-105.5 914,-105.5 914,-86.5 784,-86.5"/>
<text text-anchor="middle" x="849" y="-93.5" font-family="Helvetica,sans-Serif" font-size="10.00">MlevelRecursiveBisection</text>
</a>
</g>
</g>
<!-- Node472&#45;&gt;Node473 -->
<g id="edge16" class="edge"><title>Node472&#45;&gt;Node473</title>
<path fill="none" stroke="midnightblue" d="M715.142,-142.491C725.832,-139.637 737.421,-136.365 748,-133 770.383,-125.881 795.144,-116.73 814.427,-109.309"/>
<polygon fill="midnightblue" stroke="midnightblue" points="815.913,-112.487 823.97,-105.607 813.381,-105.961 815.913,-112.487"/>
</g>
<!-- Node472&#45;&gt;Node476 -->
<g id="edge20" class="edge"><title>Node472&#45;&gt;Node476</title>
<path fill="none" stroke="midnightblue" d="M747.54,-152C760.897,-152 774.757,-152 787.76,-152"/>
<polygon fill="midnightblue" stroke="midnightblue" points="787.979,-155.5 797.979,-152 787.979,-148.5 787.979,-155.5"/>
</g>
<!-- Node473&#45;&gt;Node473 -->
<g id="edge19" class="edge"><title>Node473&#45;&gt;Node473</title>
<path fill="none" stroke="midnightblue" d="M826.805,-105.757C816.008,-114.565 823.406,-124 849,-124 865.796,-124 874.756,-119.937 875.879,-114.654"/>
<polygon fill="midnightblue" stroke="midnightblue" points="878.951,-112.975 871.195,-105.757 872.757,-116.236 878.951,-112.975"/>
</g>
<!-- Node474 -->
<g id="node14" class="node"><title>Node474</title>
<g id="a_node14"><a xlink:href="a00260.html#a33c48a23cc94ea0221fa5c7317cd0222" target="_top" xlink:title="MultilevelBisect">
<polygon fill="white" stroke="black" points="950.5,-105.5 950.5,-124.5 1035.5,-124.5 1035.5,-105.5 950.5,-105.5"/>
<text text-anchor="middle" x="993" y="-112.5" font-family="Helvetica,sans-Serif" font-size="10.00">MultilevelBisect</text>
</a>
</g>
</g>
<!-- Node473&#45;&gt;Node474 -->
<g id="edge17" class="edge"><title>Node473&#45;&gt;Node474</title>
<path fill="none" stroke="midnightblue" d="M914.352,-104.611C923.013,-105.769 931.806,-106.946 940.211,-108.07"/>
<polygon fill="midnightblue" stroke="midnightblue" points="939.859,-111.555 950.235,-109.412 940.788,-104.616 939.859,-111.555"/>
</g>
<!-- Node475 -->
<g id="node15" class="node"><title>Node475</title>
<g id="a_node15"><a xlink:href="a00260.html#a49d272affb67ce57b2d20dccd7f15f53" target="_top" xlink:title="SplitGraphPart">
<polygon fill="white" stroke="black" points="952,-67.5 952,-86.5 1034,-86.5 1034,-67.5 952,-67.5"/>
<text text-anchor="middle" x="993" y="-74.5" font-family="Helvetica,sans-Serif" font-size="10.00">SplitGraphPart</text>
</a>
</g>
</g>
<!-- Node473&#45;&gt;Node475 -->
<g id="edge18" class="edge"><title>Node473&#45;&gt;Node475</title>
<path fill="none" stroke="midnightblue" d="M914.352,-87.3895C923.53,-86.1615 932.856,-84.9136 941.712,-83.7287"/>
<polygon fill="midnightblue" stroke="midnightblue" points="942.407,-87.167 951.854,-82.3716 941.478,-80.2288 942.407,-87.167"/>
</g>
</g>
</svg>
        <g id="navigator" transform="translate(0 0)" fill="#404254">
                <rect fill="#f2f5e9" fill-opacity="0.5" stroke="#606060" stroke-width=".5" x="0" y="0" width="60" height="60"/>
                <use id="zoomplus" xlink:href="#zoomPlus" x="17" y="9" onmousedown="handleZoom(evt,'in')"/>
                <use id="zoomminus" xlink:href="#zoomMin" x="42" y="9" onmousedown="handleZoom(evt,'out')"/>
                <use id="reset" xlink:href="#resetDef" x="30" y="36" onmousedown="handleReset()"/>
                <g id="arrowUp" xlink:href="#dirArrow" transform="translate(30 24)" onmousedown="handlePan(0,-1)">
                  <use xlink:href="#rim" fill="#404040">
                        <set attributeName="fill" to="#808080" begin="arrowUp.mouseover" end="arrowUp.mouseout"/>
                  </use>
                  <path fill="none" stroke="white" stroke-width="1.5" d="M0,-3.0v7 M-2.5,-0.5L0,-3.0L2.5,-0.5"/>
                </g>
                <g id="arrowRight" xlink:href="#dirArrow" transform="rotate(90) translate(36 -43)" onmousedown="handlePan(1,0)">
                  <use xlink:href="#rim" fill="#404040">
                        <set attributeName="fill" to="#808080" begin="arrowRight.mouseover" end="arrowRight.mouseout"/>
                  </use>
                  <path fill="none" stroke="white" stroke-width="1.5" d="M0,-3.0v7 M-2.5,-0.5L0,-3.0L2.5,-0.5"/>
                </g>
                <g id="arrowDown" xlink:href="#dirArrow" transform="rotate(180) translate(-30 -48)" onmousedown="handlePan(0,1)">
                  <use xlink:href="#rim" fill="#404040">
                        <set attributeName="fill" to="#808080" begin="arrowDown.mouseover" end="arrowDown.mouseout"/>
                  </use>
                  <path fill="none" stroke="white" stroke-width="1.5" d="M0,-3.0v7 M-2.5,-0.5L0,-3.0L2.5,-0.5"/>
                </g>
                <g id="arrowLeft" xlink:href="#dirArrow" transform="rotate(270) translate(-36 17)" onmousedown="handlePan(-1,0)">
                  <use xlink:href="#rim" fill="#404040">
                        <set attributeName="fill" to="#808080" begin="arrowLeft.mouseover" end="arrowLeft.mouseout"/>
                  </use>
                  <path fill="none" stroke="white" stroke-width="1.5" d="M0,-3.0v7 M-2.5,-0.5L0,-3.0L2.5,-0.5"/>
                </g>
        </g>
        <svg viewBox="0 0 15 15" width="100%" height="30px" preserveAspectRatio="xMaxYMin meet">
         <g id="arrow_out" transform="scale(0.3 0.3)">
          <a xlink:href="a00954_a2d6d8a17368be648ff848288a9d2d514_cgraph_org.svg" target="_base">
           <rect id="button" ry="5" rx="5" y="6" x="6" height="38" width="38"
                fill="#f2f5e9" fill-opacity="0.5" stroke="#606060" stroke-width="1.0"/>
           <path id="arrow"
             d="M 11.500037,31.436501 C 11.940474,20.09759 22.043105,11.32322 32.158766,21.979434 L 37.068811,17.246167 C 37.068811,17.246167 37.088388,32 37.088388,32 L 22.160133,31.978069 C 22.160133,31.978069 26.997745,27.140456 26.997745,27.140456 C 18.528582,18.264221 13.291696,25.230495 11.500037,31.436501 z"
             style="fill:#404040;"/>
          </a>
         </g>
        </svg>
</svg>
