<?xml version="1.0" encoding="UTF-8" standalone="no"?>
<!DOCTYPE svg PUBLIC "-//W3C//DTD SVG 1.1//EN"
 "http://www.w3.org/Graphics/SVG/1.1/DTD/svg11.dtd">
<!-- Generated by graphviz version 2.36.0 (20140111.2315)
 -->
<!-- Title: Greedy_KWayOptimize Pages: 1 -->
<svg width="450pt" height="180pt"
 viewBox="0.00 0.00 450.00 180.00" xmlns="http://www.w3.org/2000/svg" xmlns:xlink="http://www.w3.org/1999/xlink">
<g id="graph0" class="graph" transform="scale(1 1) rotate(0) translate(4 176)">
<title>Greedy_KWayOptimize</title>
<polygon fill="white" stroke="none" points="-4,4 -4,-176 446,-176 446,4 -4,4"/>
<!-- Node346 -->
<g id="node1" class="node"><title>Node346</title>
<polygon fill="#bfbfbf" stroke="black" points="0.5,-76.5 0.5,-95.5 121.5,-95.5 121.5,-76.5 0.5,-76.5"/>
<text text-anchor="middle" x="61" y="-83.5" font-family="Helvetica,sans-Serif" font-size="10.00">Greedy_KWayOptimize</text>
</g>
<!-- Node347 -->
<g id="node2" class="node"><title>Node347</title>
<g id="a_node2"><a xlink:href="a00221.html#aaa70dea85e3a1149132362c93099d543" target="_top" xlink:title="Greedy_KWayCutOptimize">
<polygon fill="white" stroke="black" points="164.5,-114.5 164.5,-133.5 301.5,-133.5 301.5,-114.5 164.5,-114.5"/>
<text text-anchor="middle" x="233" y="-121.5" font-family="Helvetica,sans-Serif" font-size="10.00">Greedy_KWayCutOptimize</text>
</a>
</g>
</g>
<!-- Node346&#45;&gt;Node347 -->
<g id="edge1" class="edge"><title>Node346&#45;&gt;Node347</title>
<path fill="none" stroke="midnightblue" d="M104.898,-95.589C127.534,-100.649 155.498,-106.9 179.429,-112.249"/>
<polygon fill="midnightblue" stroke="midnightblue" points="178.888,-115.714 189.41,-114.48 180.415,-108.883 178.888,-115.714"/>
</g>
<!-- Node349 -->
<g id="node4" class="node"><title>Node349</title>
<g id="a_node4"><a xlink:href="a00221.html#a68223b074be60fa4ac030e3c52071410" target="_top" xlink:title="Greedy_McKWayCutOptimize">
<polygon fill="white" stroke="black" points="158,-152.5 158,-171.5 308,-171.5 308,-152.5 158,-152.5"/>
<text text-anchor="middle" x="233" y="-159.5" font-family="Helvetica,sans-Serif" font-size="10.00">Greedy_McKWayCutOptimize</text>
</a>
</g>
</g>
<!-- Node346&#45;&gt;Node349 -->
<g id="edge3" class="edge"><title>Node346&#45;&gt;Node349</title>
<path fill="none" stroke="midnightblue" d="M75.3419,-95.6014C93.315,-108.132 126.673,-129.992 158,-143 163.868,-145.437 170.132,-147.627 176.437,-149.577"/>
<polygon fill="midnightblue" stroke="midnightblue" points="175.75,-153.022 186.329,-152.446 177.699,-146.299 175.75,-153.022"/>
</g>
<!-- Node350 -->
<g id="node5" class="node"><title>Node350</title>
<g id="a_node5"><a xlink:href="a00221.html#af249da13cad4e148e2a6efcacad5d5da" target="_top" xlink:title="Greedy_KWayVolOptimize">
<polygon fill="white" stroke="black" points="165.5,-38.5 165.5,-57.5 300.5,-57.5 300.5,-38.5 165.5,-38.5"/>
<text text-anchor="middle" x="233" y="-45.5" font-family="Helvetica,sans-Serif" font-size="10.00">Greedy_KWayVolOptimize</text>
</a>
</g>
</g>
<!-- Node346&#45;&gt;Node350 -->
<g id="edge5" class="edge"><title>Node346&#45;&gt;Node350</title>
<path fill="none" stroke="midnightblue" d="M104.898,-76.411C127.534,-71.3513 155.498,-65.1004 179.429,-59.7512"/>
<polygon fill="midnightblue" stroke="midnightblue" points="180.415,-63.1173 189.41,-57.5201 178.888,-56.2859 180.415,-63.1173"/>
</g>
<!-- Node352 -->
<g id="node7" class="node"><title>Node352</title>
<g id="a_node7"><a xlink:href="a00221.html#a4177983ff9528ecb665a71f0ab1785e9" target="_top" xlink:title="Greedy_McKWayVolOptimize">
<polygon fill="white" stroke="black" points="158.5,-76.5 158.5,-95.5 307.5,-95.5 307.5,-76.5 158.5,-76.5"/>
<text text-anchor="middle" x="233" y="-83.5" font-family="Helvetica,sans-Serif" font-size="10.00">Greedy_McKWayVolOptimize</text>
</a>
</g>
</g>
<!-- Node346&#45;&gt;Node352 -->
<g id="edge8" class="edge"><title>Node346&#45;&gt;Node352</title>
<path fill="none" stroke="midnightblue" d="M121.936,-86C130.479,-86 139.393,-86 148.288,-86"/>
<polygon fill="midnightblue" stroke="midnightblue" points="148.302,-89.5001 158.302,-86 148.302,-82.5001 148.302,-89.5001"/>
</g>
<!-- Node353 -->
<g id="node8" class="node"><title>Node353</title>
<g id="a_node8"><a xlink:href="a00026.html#a4c320c13bcdc9967613253ef4c73f59f" target="_top" xlink:title="gk_errexit">
<polygon fill="white" stroke="black" points="203,-0.5 203,-19.5 263,-19.5 263,-0.5 203,-0.5"/>
<text text-anchor="middle" x="233" y="-7.5" font-family="Helvetica,sans-Serif" font-size="10.00">gk_errexit</text>
</a>
</g>
</g>
<!-- Node346&#45;&gt;Node353 -->
<g id="edge11" class="edge"><title>Node346&#45;&gt;Node353</title>
<path fill="none" stroke="midnightblue" d="M75.3419,-76.3986C93.315,-63.8678 126.673,-42.0081 158,-29 169.085,-24.3971 181.58,-20.6742 193.103,-17.7843"/>
<polygon fill="midnightblue" stroke="midnightblue" points="193.995,-21.1698 202.918,-15.458 192.381,-14.3585 193.995,-21.1698"/>
</g>
<!-- Node348 -->
<g id="node3" class="node"><title>Node348</title>
<g id="a_node3"><a xlink:href="a00221.html#af791bf8cc50b3b218224e0560decc422" target="_top" xlink:title="IsArticulationNode">
<polygon fill="white" stroke="black" points="344,-104.5 344,-123.5 442,-123.5 442,-104.5 344,-104.5"/>
<text text-anchor="middle" x="393" y="-111.5" font-family="Helvetica,sans-Serif" font-size="10.00">IsArticulationNode</text>
</a>
</g>
</g>
<!-- Node347&#45;&gt;Node348 -->
<g id="edge2" class="edge"><title>Node347&#45;&gt;Node348</title>
<path fill="none" stroke="midnightblue" d="M301.923,-119.701C312.462,-119.034 323.269,-118.35 333.573,-117.698"/>
<polygon fill="midnightblue" stroke="midnightblue" points="333.924,-121.183 343.682,-117.058 333.481,-114.197 333.924,-121.183"/>
</g>
<!-- Node349&#45;&gt;Node348 -->
<g id="edge4" class="edge"><title>Node349&#45;&gt;Node348</title>
<path fill="none" stroke="midnightblue" d="M273.72,-152.433C284.862,-149.579 296.948,-146.321 308,-143 323.967,-138.203 341.421,-132.288 356.262,-127.054"/>
<polygon fill="midnightblue" stroke="midnightblue" points="357.823,-130.214 366.069,-123.562 355.475,-123.62 357.823,-130.214"/>
</g>
<!-- Node350&#45;&gt;Node348 -->
<g id="edge6" class="edge"><title>Node350&#45;&gt;Node348</title>
<path fill="none" stroke="midnightblue" d="M278.817,-57.5195C288.589,-60.142 298.764,-63.3034 308,-67 329.529,-75.6169 352.399,-88.7018 368.831,-98.8791"/>
<polygon fill="midnightblue" stroke="midnightblue" points="367.378,-102.101 377.703,-104.48 371.115,-96.1819 367.378,-102.101"/>
</g>
<!-- Node351 -->
<g id="node6" class="node"><title>Node351</title>
<g id="a_node6"><a xlink:href="a00221.html#ac4e797b3ea2db37f88f436fc6481b989" target="_top" xlink:title="KWayVolUpdate">
<polygon fill="white" stroke="black" points="348,-47.5 348,-66.5 438,-66.5 438,-47.5 348,-47.5"/>
<text text-anchor="middle" x="393" y="-54.5" font-family="Helvetica,sans-Serif" font-size="10.00">KWayVolUpdate</text>
</a>
</g>
</g>
<!-- Node350&#45;&gt;Node351 -->
<g id="edge7" class="edge"><title>Node350&#45;&gt;Node351</title>
<path fill="none" stroke="midnightblue" d="M300.548,-51.7907C312.942,-52.4967 325.755,-53.2265 337.725,-53.9084"/>
<polygon fill="midnightblue" stroke="midnightblue" points="337.813,-57.419 347.996,-54.4935 338.212,-50.4303 337.813,-57.419"/>
</g>
<!-- Node352&#45;&gt;Node348 -->
<g id="edge9" class="edge"><title>Node352&#45;&gt;Node348</title>
<path fill="none" stroke="midnightblue" d="M287.933,-95.5577C302.678,-98.1707 318.722,-101.014 333.699,-103.668"/>
<polygon fill="midnightblue" stroke="midnightblue" points="333.411,-107.172 343.868,-105.47 334.632,-100.279 333.411,-107.172"/>
</g>
<!-- Node352&#45;&gt;Node351 -->
<g id="edge10" class="edge"><title>Node352&#45;&gt;Node351</title>
<path fill="none" stroke="midnightblue" d="M286.173,-76.4239C302.698,-73.3909 321,-70.0316 337.673,-66.9715"/>
<polygon fill="midnightblue" stroke="midnightblue" points="338.609,-70.3582 347.813,-65.1103 337.345,-63.4732 338.609,-70.3582"/>
</g>
<!-- Node354 -->
<g id="node9" class="node"><title>Node354</title>
<g id="a_node9"><a xlink:href="a01017.html#a2e311a777ffe9c80e405efa7cd2757be" target="_top" xlink:title="fprintf">
<polygon fill="white" stroke="black" points="372,-0.5 372,-19.5 414,-19.5 414,-0.5 372,-0.5"/>
<text text-anchor="middle" x="393" y="-7.5" font-family="Helvetica,sans-Serif" font-size="10.00">fprintf</text>
</a>
</g>
</g>
<!-- Node353&#45;&gt;Node354 -->
<g id="edge12" class="edge"><title>Node353&#45;&gt;Node354</title>
<path fill="none" stroke="midnightblue" d="M263.348,-10C291.362,-10 333.382,-10 361.706,-10"/>
<polygon fill="midnightblue" stroke="midnightblue" points="361.833,-13.5001 371.832,-10 361.832,-6.5001 361.833,-13.5001"/>
</g>
</g>
</svg>
