<?xml version="1.0" encoding="UTF-8" standalone="no"?>
<!DOCTYPE svg PUBLIC "-//W3C//DTD SVG 1.1//EN"
 "http://www.w3.org/Graphics/SVG/1.1/DTD/svg11.dtd">
<!-- Generated by graphviz version 2.36.0 (20140111.2315)
 -->
<!-- Title: InitPartition Pages: 1 -->
<!--zoomable 388 -->
<svg id="main" version="1.1" xmlns="http://www.w3.org/2000/svg" xmlns:xlink="http://www.w3.org/1999/xlink" xml:space="preserve" onload="init(evt)">
<style type="text/css"><![CDATA[
.edge:hover path { stroke: red; }
.edge:hover polygon { stroke: red; fill: red; }
]]></style>
<script type="text/javascript"><![CDATA[
var edges = document.getElementsByTagName('g');
if (edges && edges.length) {
  for (var i=0;i<edges.length;i++) {
    if (edges[i].id.substr(0,4)=='edge') {
      edges[i].setAttribute('class','edge');
    }
  }
}
]]></script>
        <defs>
                <circle id="rim" cx="0" cy="0" r="7"/>
                <circle id="rim2" cx="0" cy="0" r="3.5"/>
                <g id="zoomPlus">
                        <use xlink:href="#rim" fill="#404040">
                                <set attributeName="fill" to="#808080" begin="zoomplus.mouseover" end="zoomplus.mouseout"/>
                        </use>
                        <path d="M-4,0h8M0,-4v8" fill="none" stroke="white" stroke-width="1.5" pointer-events="none"/>
                </g>
                <g id="zoomMin">
                        <use xlink:href="#rim" fill="#404040">
                                <set attributeName="fill" to="#808080" begin="zoomminus.mouseover" end="zoomminus.mouseout"/>
                        </use>
                        <path d="M-4,0h8" fill="none" stroke="white" stroke-width="1.5" pointer-events="none"/>
                </g>
                <g id="dirArrow">
                        <path fill="none" stroke="white" stroke-width="1.5" d="M0,-3.0v7 M-2.5,-0.5L0,-3.0L2.5,-0.5"/>
                </g>
               <g id="resetDef">
                       <use xlink:href="#rim2" fill="#404040">
                               <set attributeName="fill" to="#808080" begin="reset.mouseover" end="reset.mouseout"/>
                       </use>
               </g>
        </defs>

<script type="text/javascript">
var viewWidth = 1006;
var viewHeight = 388;
var sectionId = 'dynsection-54';
</script>
<script xlink:href="svgpan.js"/>
<svg id="graph" class="graph">
<g id="viewport">
<title>InitPartition</title>
<polygon fill="white" stroke="none" points="-4,4 -4,-384 1002,-384 1002,4 -4,4"/>
<!-- Node309 -->
<g id="node1" class="node"><title>Node309</title>
<polygon fill="#bfbfbf" stroke="black" points="0.5,-95.5 0.5,-114.5 67.5,-114.5 67.5,-95.5 0.5,-95.5"/>
<text text-anchor="middle" x="34" y="-102.5" font-family="Helvetica,sans-Serif" font-size="10.00">InitPartition</text>
</g>
<!-- Node310 -->
<g id="node2" class="node"><title>Node310</title>
<g id="a_node2"><a xlink:href="a00170.html#abea67bb0c6286795ac5fc9bee605dc5d" target="_top" xlink:title="METIS_SetDefaultOptions">
<polygon fill="white" stroke="black" points="571,-38.5 571,-57.5 705,-57.5 705,-38.5 571,-38.5"/>
<text text-anchor="middle" x="638" y="-45.5" font-family="Helvetica,sans-Serif" font-size="10.00">METIS_SetDefaultOptions</text>
</a>
</g>
</g>
<!-- Node309&#45;&gt;Node310 -->
<g id="edge1" class="edge"><title>Node309&#45;&gt;Node310</title>
<path fill="none" stroke="midnightblue" d="M67.831,-98.3453C112.152,-89.6389 193.682,-74.6003 264,-67 366.205,-55.9531 484.879,-51.3018 560.423,-49.3613"/>
<polygon fill="midnightblue" stroke="midnightblue" points="560.88,-52.8512 570.79,-49.1051 560.707,-45.8533 560.88,-52.8512"/>
</g>
<!-- Node311 -->
<g id="node3" class="node"><title>Node311</title>
<g id="a_node3"><a xlink:href="a00260.html#a25fc90fd934931239b3c98ac4bdbce76" target="_top" xlink:title="Recursive partitioning routine. ">
<polygon fill="white" stroke="black" points="566.5,-266.5 566.5,-285.5 709.5,-285.5 709.5,-266.5 566.5,-266.5"/>
<text text-anchor="middle" x="638" y="-273.5" font-family="Helvetica,sans-Serif" font-size="10.00">METIS_PartGraphRecursive</text>
</a>
</g>
</g>
<!-- Node309&#45;&gt;Node311 -->
<g id="edge2" class="edge"><title>Node309&#45;&gt;Node311</title>
<path fill="none" stroke="midnightblue" d="M38.8242,-114.511C47.2839,-134.193 69.6009,-179.28 104,-200 245.506,-285.233 445.659,-289.005 556.042,-283.168"/>
<polygon fill="midnightblue" stroke="midnightblue" points="556.328,-286.658 566.113,-282.596 555.93,-279.669 556.328,-286.658"/>
</g>
<!-- Node319 -->
<g id="node11" class="node"><title>Node319</title>
<g id="a_node11"><a xlink:href="a00909.html#a6986183d22bd650674c52d23db011f63" target="_top" xlink:title="KeepPart">
<polygon fill="white" stroke="black" points="137,-0.5 137,-19.5 195,-19.5 195,-0.5 137,-0.5"/>
<text text-anchor="middle" x="166" y="-7.5" font-family="Helvetica,sans-Serif" font-size="10.00">KeepPart</text>
</a>
</g>
</g>
<!-- Node309&#45;&gt;Node319 -->
<g id="edge11" class="edge"><title>Node309&#45;&gt;Node319</title>
<path fill="none" stroke="midnightblue" d="M42.0562,-95.469C53.545,-80.5358 77.6721,-51.5238 104,-34 111.072,-29.2929 119.206,-25.2902 127.182,-21.9815"/>
<polygon fill="midnightblue" stroke="midnightblue" points="128.681,-25.1547 136.75,-18.2889 126.161,-18.6241 128.681,-25.1547"/>
</g>
<!-- Node320 -->
<g id="node12" class="node"><title>Node320</title>
<g id="a_node12"><a xlink:href="a00912.html#af89851458c047aba436b36ed567441e4" target="_top" xlink:title="METIS_PartGraphKway">
<polygon fill="white" stroke="black" points="104.5,-171.5 104.5,-190.5 227.5,-190.5 227.5,-171.5 104.5,-171.5"/>
<text text-anchor="middle" x="166" y="-178.5" font-family="Helvetica,sans-Serif" font-size="10.00">METIS_PartGraphKway</text>
</a>
</g>
</g>
<!-- Node309&#45;&gt;Node320 -->
<g id="edge12" class="edge"><title>Node309&#45;&gt;Node320</title>
<path fill="none" stroke="midnightblue" d="M51.4646,-114.625C73.7356,-127.645 113.668,-150.991 139.747,-166.236"/>
<polygon fill="midnightblue" stroke="midnightblue" points="138.27,-169.427 148.669,-171.453 141.803,-163.384 138.27,-169.427"/>
</g>
<!-- Node312 -->
<g id="node4" class="node"><title>Node312</title>
<g id="a_node4"><a xlink:href="a00077.html#a24633cc1c72a7e92836912c2adcf570a" target="_top" xlink:title="gk_malloc_init">
<polygon fill="white" stroke="black" points="771,-190.5 771,-209.5 851,-209.5 851,-190.5 771,-190.5"/>
<text text-anchor="middle" x="811" y="-197.5" font-family="Helvetica,sans-Serif" font-size="10.00">gk_malloc_init</text>
</a>
</g>
</g>
<!-- Node311&#45;&gt;Node312 -->
<g id="edge3" class="edge"><title>Node311&#45;&gt;Node312</title>
<path fill="none" stroke="midnightblue" d="M654.471,-266.477C674.86,-254.231 712.113,-232.891 746,-219 751.565,-216.719 757.503,-214.582 763.435,-212.624"/>
<polygon fill="midnightblue" stroke="midnightblue" points="764.857,-215.846 773.345,-209.505 762.756,-209.169 764.857,-215.846"/>
</g>
<!-- Node313 -->
<g id="node5" class="node"><title>Node313</title>
<g id="a_node5"><a xlink:href="a00026.html#a05869524d1c30cfaab2a8690e7da6fd4" target="_top" xlink:title="gk_sigtrap">
<polygon fill="white" stroke="black" points="779.5,-360.5 779.5,-379.5 842.5,-379.5 842.5,-360.5 779.5,-360.5"/>
<text text-anchor="middle" x="811" y="-367.5" font-family="Helvetica,sans-Serif" font-size="10.00">gk_sigtrap</text>
</a>
</g>
</g>
<!-- Node311&#45;&gt;Node313 -->
<g id="edge4" class="edge"><title>Node311&#45;&gt;Node313</title>
<path fill="none" stroke="midnightblue" d="M650.103,-285.64C668.737,-301.372 708.005,-332.648 746,-351 753.42,-354.584 761.654,-357.643 769.679,-360.191"/>
<polygon fill="midnightblue" stroke="midnightblue" points="768.711,-363.555 779.294,-363.048 770.705,-356.845 768.711,-363.555"/>
</g>
<!-- Node314 -->
<g id="node6" class="node"><title>Node314</title>
<g id="a_node6"><a xlink:href="a00026.html#a08f287b6dbdc0779c916ecbd49540a1e" target="_top" xlink:title="gk_siguntrap">
<polygon fill="white" stroke="black" points="774,-322.5 774,-341.5 848,-341.5 848,-322.5 774,-322.5"/>
<text text-anchor="middle" x="811" y="-329.5" font-family="Helvetica,sans-Serif" font-size="10.00">gk_siguntrap</text>
</a>
</g>
</g>
<!-- Node311&#45;&gt;Node314 -->
<g id="edge5" class="edge"><title>Node311&#45;&gt;Node314</title>
<path fill="none" stroke="midnightblue" d="M667.719,-285.558C680.66,-289.904 696.12,-295.149 710,-300 726.059,-305.613 729.839,-307.688 746,-313 752.584,-315.164 759.584,-317.354 766.447,-319.439"/>
<polygon fill="midnightblue" stroke="midnightblue" points="765.754,-322.886 776.338,-322.405 767.765,-316.18 765.754,-322.886"/>
</g>
<!-- Node315 -->
<g id="node7" class="node"><title>Node315</title>
<g id="a_node7"><a xlink:href="a00260.html#a5510f276b321a8450b2e9cc913c2f00f" target="_top" xlink:title="MlevelRecursiveBisection">
<polygon fill="white" stroke="black" points="746,-266.5 746,-285.5 876,-285.5 876,-266.5 746,-266.5"/>
<text text-anchor="middle" x="811" y="-273.5" font-family="Helvetica,sans-Serif" font-size="10.00">MlevelRecursiveBisection</text>
</a>
</g>
</g>
<!-- Node311&#45;&gt;Node315 -->
<g id="edge6" class="edge"><title>Node311&#45;&gt;Node315</title>
<path fill="none" stroke="midnightblue" d="M709.54,-276C718.202,-276 727.076,-276 735.79,-276"/>
<polygon fill="midnightblue" stroke="midnightblue" points="735.925,-279.5 745.925,-276 735.925,-272.5 735.925,-279.5"/>
</g>
<!-- Node318 -->
<g id="node10" class="node"><title>Node318</title>
<g id="a_node10"><a xlink:href="a00077.html#a47156a22528b5bc8c7c6e9849af34e62" target="_top" xlink:title="gk_malloc_cleanup">
<polygon fill="white" stroke="black" points="760,-228.5 760,-247.5 862,-247.5 862,-228.5 760,-228.5"/>
<text text-anchor="middle" x="811" y="-235.5" font-family="Helvetica,sans-Serif" font-size="10.00">gk_malloc_cleanup</text>
</a>
</g>
</g>
<!-- Node311&#45;&gt;Node318 -->
<g id="edge10" class="edge"><title>Node311&#45;&gt;Node318</title>
<path fill="none" stroke="midnightblue" d="M682.151,-266.411C704.919,-261.351 733.048,-255.1 757.119,-249.751"/>
<polygon fill="midnightblue" stroke="midnightblue" points="758.157,-253.106 767.16,-247.52 756.639,-246.273 758.157,-253.106"/>
</g>
<!-- Node315&#45;&gt;Node315 -->
<g id="edge9" class="edge"><title>Node315&#45;&gt;Node315</title>
<path fill="none" stroke="midnightblue" d="M788.805,-285.757C778.008,-294.565 785.406,-304 811,-304 827.796,-304 836.756,-299.937 837.879,-294.654"/>
<polygon fill="midnightblue" stroke="midnightblue" points="840.951,-292.975 833.195,-285.757 834.757,-296.236 840.951,-292.975"/>
</g>
<!-- Node316 -->
<g id="node8" class="node"><title>Node316</title>
<g id="a_node8"><a xlink:href="a00260.html#a33c48a23cc94ea0221fa5c7317cd0222" target="_top" xlink:title="MultilevelBisect">
<polygon fill="white" stroke="black" points="912.5,-285.5 912.5,-304.5 997.5,-304.5 997.5,-285.5 912.5,-285.5"/>
<text text-anchor="middle" x="955" y="-292.5" font-family="Helvetica,sans-Serif" font-size="10.00">MultilevelBisect</text>
</a>
</g>
</g>
<!-- Node315&#45;&gt;Node316 -->
<g id="edge7" class="edge"><title>Node315&#45;&gt;Node316</title>
<path fill="none" stroke="midnightblue" d="M876.352,-284.611C885.013,-285.769 893.806,-286.946 902.211,-288.07"/>
<polygon fill="midnightblue" stroke="midnightblue" points="901.859,-291.555 912.235,-289.412 902.788,-284.616 901.859,-291.555"/>
</g>
<!-- Node317 -->
<g id="node9" class="node"><title>Node317</title>
<g id="a_node9"><a xlink:href="a00260.html#a49d272affb67ce57b2d20dccd7f15f53" target="_top" xlink:title="SplitGraphPart">
<polygon fill="white" stroke="black" points="914,-247.5 914,-266.5 996,-266.5 996,-247.5 914,-247.5"/>
<text text-anchor="middle" x="955" y="-254.5" font-family="Helvetica,sans-Serif" font-size="10.00">SplitGraphPart</text>
</a>
</g>
</g>
<!-- Node315&#45;&gt;Node317 -->
<g id="edge8" class="edge"><title>Node315&#45;&gt;Node317</title>
<path fill="none" stroke="midnightblue" d="M876.352,-267.389C885.53,-266.162 894.856,-264.914 903.712,-263.729"/>
<polygon fill="midnightblue" stroke="midnightblue" points="904.407,-267.167 913.854,-262.372 903.478,-260.229 904.407,-267.167"/>
</g>
<!-- Node320&#45;&gt;Node312 -->
<g id="edge13" class="edge"><title>Node320&#45;&gt;Node312</title>
<path fill="none" stroke="midnightblue" d="M227.781,-182.796C354.502,-186.54 644.761,-195.117 760.77,-198.545"/>
<polygon fill="midnightblue" stroke="midnightblue" points="760.689,-202.044 770.788,-198.841 760.896,-195.047 760.689,-202.044"/>
</g>
<!-- Node320&#45;&gt;Node313 -->
<g id="edge14" class="edge"><title>Node320&#45;&gt;Node313</title>
<path fill="none" stroke="midnightblue" d="M218.592,-190.502C221.913,-192.066 225.088,-193.885 228,-196 252.547,-213.831 239.407,-236.232 264,-254 422.996,-368.874 671.903,-374.611 769.143,-371.98"/>
<polygon fill="midnightblue" stroke="midnightblue" points="769.542,-375.469 779.426,-371.654 769.321,-368.473 769.542,-375.469"/>
</g>
<!-- Node320&#45;&gt;Node314 -->
<g id="edge15" class="edge"><title>Node320&#45;&gt;Node314</title>
<path fill="none" stroke="midnightblue" d="M187.474,-190.503C206.877,-199.253 236.988,-212.177 264,-221 395.363,-263.908 430.437,-268.169 566,-295 634.472,-308.552 714.61,-319.84 763.836,-326.257"/>
<polygon fill="midnightblue" stroke="midnightblue" points="763.49,-329.741 773.856,-327.551 764.387,-322.799 763.49,-329.741"/>
</g>
<!-- Node320&#45;&gt;Node318 -->
<g id="edge26" class="edge"><title>Node320&#45;&gt;Node318</title>
<path fill="none" stroke="midnightblue" d="M209.787,-190.568C226.609,-194.017 246.137,-197.638 264,-200 439.544,-223.21 648.836,-232.765 749.726,-236.246"/>
<polygon fill="midnightblue" stroke="midnightblue" points="749.619,-239.745 759.732,-236.584 749.855,-232.749 749.619,-239.745"/>
</g>
<!-- Node321 -->
<g id="node13" class="node"><title>Node321</title>
<g id="a_node13"><a xlink:href="a00077.html#a3d153a0a39d7ba54f0943fa586f0c561" target="_top" xlink:title="gk_log2">
<polygon fill="white" stroke="black" points="299,-114.5 299,-133.5 351,-133.5 351,-114.5 299,-114.5"/>
<text text-anchor="middle" x="325" y="-121.5" font-family="Helvetica,sans-Serif" font-size="10.00">gk_log2</text>
</a>
</g>
</g>
<!-- Node320&#45;&gt;Node321 -->
<g id="edge16" class="edge"><title>Node320&#45;&gt;Node321</title>
<path fill="none" stroke="midnightblue" d="M193.278,-171.459C219.593,-161.906 260.237,-147.149 289.215,-136.629"/>
<polygon fill="midnightblue" stroke="midnightblue" points="290.73,-139.803 298.935,-133.1 288.341,-133.223 290.73,-139.803"/>
</g>
<!-- Node322 -->
<g id="node14" class="node"><title>Node322</title>
<g id="a_node14"><a xlink:href="a00026.html#a4c320c13bcdc9967613253ef4c73f59f" target="_top" xlink:title="gk_errexit">
<polygon fill="white" stroke="black" points="608,-114.5 608,-133.5 668,-133.5 668,-114.5 608,-114.5"/>
<text text-anchor="middle" x="638" y="-121.5" font-family="Helvetica,sans-Serif" font-size="10.00">gk_errexit</text>
</a>
</g>
</g>
<!-- Node320&#45;&gt;Node322 -->
<g id="edge17" class="edge"><title>Node320&#45;&gt;Node322</title>
<path fill="none" stroke="midnightblue" d="M227.962,-173.607C325.998,-161.717 515.967,-138.679 597.866,-128.746"/>
<polygon fill="midnightblue" stroke="midnightblue" points="598.49,-132.196 607.996,-127.518 597.647,-125.247 598.49,-132.196"/>
</g>
<!-- Node324 -->
<g id="node16" class="node"><title>Node324</title>
<g id="a_node16"><a xlink:href="a00912.html#a7973c78504ad6711d3516082b1112805" target="_top" xlink:title="MlevelKWayPartitioning">
<polygon fill="white" stroke="black" points="264,-76.5 264,-95.5 386,-95.5 386,-76.5 264,-76.5"/>
<text text-anchor="middle" x="325" y="-83.5" font-family="Helvetica,sans-Serif" font-size="10.00">MlevelKWayPartitioning</text>
</a>
</g>
</g>
<!-- Node320&#45;&gt;Node324 -->
<g id="edge19" class="edge"><title>Node320&#45;&gt;Node324</title>
<path fill="none" stroke="midnightblue" d="M176.631,-171.483C193.17,-155.619 228.62,-123.674 264,-105 268.188,-102.789 272.678,-100.783 277.248,-98.9742"/>
<polygon fill="midnightblue" stroke="midnightblue" points="278.473,-102.253 286.668,-95.5386 276.074,-95.6769 278.473,-102.253"/>
</g>
<!-- Node323 -->
<g id="node15" class="node"><title>Node323</title>
<g id="a_node15"><a xlink:href="a01017.html#a2e311a777ffe9c80e405efa7cd2757be" target="_top" xlink:title="fprintf">
<polygon fill="white" stroke="black" points="790,-114.5 790,-133.5 832,-133.5 832,-114.5 790,-114.5"/>
<text text-anchor="middle" x="811" y="-121.5" font-family="Helvetica,sans-Serif" font-size="10.00">fprintf</text>
</a>
</g>
</g>
<!-- Node322&#45;&gt;Node323 -->
<g id="edge18" class="edge"><title>Node322&#45;&gt;Node323</title>
<path fill="none" stroke="midnightblue" d="M668.008,-124C699.034,-124 748.025,-124 779.583,-124"/>
<polygon fill="midnightblue" stroke="midnightblue" points="779.96,-127.5 789.96,-124 779.96,-120.5 779.96,-127.5"/>
</g>
<!-- Node324&#45;&gt;Node322 -->
<g id="edge25" class="edge"><title>Node324&#45;&gt;Node322</title>
<path fill="none" stroke="midnightblue" d="M368.842,-95.5001C385.384,-98.8996 404.508,-102.503 422,-105 483.001,-113.706 554.346,-119.067 597.576,-121.788"/>
<polygon fill="midnightblue" stroke="midnightblue" points="597.479,-125.289 607.674,-122.408 597.907,-118.302 597.479,-125.289"/>
</g>
<!-- Node325 -->
<g id="node17" class="node"><title>Node325</title>
<g id="a_node17"><a xlink:href="a00912.html#a870e37cc14eb1033c62d83d3a7c33a91" target="_top" xlink:title="InitKWayPartitioning">
<polygon fill="white" stroke="black" points="422.5,-76.5 422.5,-95.5 529.5,-95.5 529.5,-76.5 422.5,-76.5"/>
<text text-anchor="middle" x="476" y="-83.5" font-family="Helvetica,sans-Serif" font-size="10.00">InitKWayPartitioning</text>
</a>
</g>
</g>
<!-- Node324&#45;&gt;Node325 -->
<g id="edge20" class="edge"><title>Node324&#45;&gt;Node325</title>
<path fill="none" stroke="midnightblue" d="M386.175,-86C394.766,-86 403.622,-86 412.261,-86"/>
<polygon fill="midnightblue" stroke="midnightblue" points="412.275,-89.5001 422.275,-86 412.275,-82.5001 412.275,-89.5001"/>
</g>
<!-- Node325&#45;&gt;Node310 -->
<g id="edge21" class="edge"><title>Node325&#45;&gt;Node310</title>
<path fill="none" stroke="midnightblue" d="M517.375,-76.411C538.488,-71.3965 564.529,-65.2119 586.917,-59.8947"/>
<polygon fill="midnightblue" stroke="midnightblue" points="587.995,-63.2361 596.916,-57.5201 586.377,-56.4256 587.995,-63.2361"/>
</g>
<!-- Node325&#45;&gt;Node311 -->
<g id="edge22" class="edge"><title>Node325&#45;&gt;Node311</title>
<path fill="none" stroke="midnightblue" d="M485.154,-95.6833C510.612,-125.914 588.886,-218.865 621.979,-258.163"/>
<polygon fill="midnightblue" stroke="midnightblue" points="619.552,-260.714 628.67,-266.108 624.906,-256.205 619.552,-260.714"/>
</g>
<!-- Node325&#45;&gt;Node322 -->
<g id="edge23" class="edge"><title>Node325&#45;&gt;Node322</title>
<path fill="none" stroke="midnightblue" d="M517.375,-95.589C542,-101.437 573.326,-108.877 597.744,-114.677"/>
<polygon fill="midnightblue" stroke="midnightblue" points="597.208,-118.147 607.747,-117.052 598.826,-111.336 597.208,-118.147"/>
</g>
<!-- Node326 -->
<g id="node18" class="node"><title>Node326</title>
<g id="a_node18"><a xlink:href="a00077.html#ac8df62c4e3d0910711a9874f9cc58884" target="_top" xlink:title="gk_free">
<polygon fill="white" stroke="black" points="613,-76.5 613,-95.5 663,-95.5 663,-76.5 613,-76.5"/>
<text text-anchor="middle" x="638" y="-83.5" font-family="Helvetica,sans-Serif" font-size="10.00">gk_free</text>
</a>
</g>
</g>
<!-- Node325&#45;&gt;Node326 -->
<g id="edge24" class="edge"><title>Node325&#45;&gt;Node326</title>
<path fill="none" stroke="midnightblue" d="M529.833,-86C553.817,-86 581.497,-86 602.717,-86"/>
<polygon fill="midnightblue" stroke="midnightblue" points="602.87,-89.5001 612.87,-86 602.87,-82.5001 602.87,-89.5001"/>
</g>
</g>
</svg>
        <g id="navigator" transform="translate(0 0)" fill="#404254">
                <rect fill="#f2f5e9" fill-opacity="0.5" stroke="#606060" stroke-width=".5" x="0" y="0" width="60" height="60"/>
                <use id="zoomplus" xlink:href="#zoomPlus" x="17" y="9" onmousedown="handleZoom(evt,'in')"/>
                <use id="zoomminus" xlink:href="#zoomMin" x="42" y="9" onmousedown="handleZoom(evt,'out')"/>
                <use id="reset" xlink:href="#resetDef" x="30" y="36" onmousedown="handleReset()"/>
                <g id="arrowUp" xlink:href="#dirArrow" transform="translate(30 24)" onmousedown="handlePan(0,-1)">
                  <use xlink:href="#rim" fill="#404040">
                        <set attributeName="fill" to="#808080" begin="arrowUp.mouseover" end="arrowUp.mouseout"/>
                  </use>
                  <path fill="none" stroke="white" stroke-width="1.5" d="M0,-3.0v7 M-2.5,-0.5L0,-3.0L2.5,-0.5"/>
                </g>
                <g id="arrowRight" xlink:href="#dirArrow" transform="rotate(90) translate(36 -43)" onmousedown="handlePan(1,0)">
                  <use xlink:href="#rim" fill="#404040">
                        <set attributeName="fill" to="#808080" begin="arrowRight.mouseover" end="arrowRight.mouseout"/>
                  </use>
                  <path fill="none" stroke="white" stroke-width="1.5" d="M0,-3.0v7 M-2.5,-0.5L0,-3.0L2.5,-0.5"/>
                </g>
                <g id="arrowDown" xlink:href="#dirArrow" transform="rotate(180) translate(-30 -48)" onmousedown="handlePan(0,1)">
                  <use xlink:href="#rim" fill="#404040">
                        <set attributeName="fill" to="#808080" begin="arrowDown.mouseover" end="arrowDown.mouseout"/>
                  </use>
                  <path fill="none" stroke="white" stroke-width="1.5" d="M0,-3.0v7 M-2.5,-0.5L0,-3.0L2.5,-0.5"/>
                </g>
                <g id="arrowLeft" xlink:href="#dirArrow" transform="rotate(270) translate(-36 17)" onmousedown="handlePan(-1,0)">
                  <use xlink:href="#rim" fill="#404040">
                        <set attributeName="fill" to="#808080" begin="arrowLeft.mouseover" end="arrowLeft.mouseout"/>
                  </use>
                  <path fill="none" stroke="white" stroke-width="1.5" d="M0,-3.0v7 M-2.5,-0.5L0,-3.0L2.5,-0.5"/>
                </g>
        </g>
        <svg viewBox="0 0 15 15" width="100%" height="30px" preserveAspectRatio="xMaxYMin meet">
         <g id="arrow_out" transform="scale(0.3 0.3)">
          <a xlink:href="a00954_a5358042c354702d9e8128f7cc342a322_cgraph_org.svg" target="_base">
           <rect id="button" ry="5" rx="5" y="6" x="6" height="38" width="38"
                fill="#f2f5e9" fill-opacity="0.5" stroke="#606060" stroke-width="1.0"/>
           <path id="arrow"
             d="M 11.500037,31.436501 C 11.940474,20.09759 22.043105,11.32322 32.158766,21.979434 L 37.068811,17.246167 C 37.068811,17.246167 37.088388,32 37.088388,32 L 22.160133,31.978069 C 22.160133,31.978069 26.997745,27.140456 26.997745,27.140456 C 18.528582,18.264221 13.291696,25.230495 11.500037,31.436501 z"
             style="fill:#404040;"/>
          </a>
         </g>
        </svg>
</svg>
