<?xml version="1.0" encoding="UTF-8" standalone="no"?>
<!DOCTYPE svg PUBLIC "-//W3C//DTD SVG 1.1//EN"
 "http://www.w3.org/Graphics/SVG/1.1/DTD/svg11.dtd">
<!-- Generated by graphviz version 2.36.0 (20140111.2315)
 -->
<!-- Title: CreateGraphDual Pages: 1 -->
<svg width="476pt" height="66pt"
 viewBox="0.00 0.00 476.00 66.00" xmlns="http://www.w3.org/2000/svg" xmlns:xlink="http://www.w3.org/1999/xlink">
<g id="graph0" class="graph" transform="scale(1 1) rotate(0) translate(4 62)">
<title>CreateGraphDual</title>
<polygon fill="white" stroke="none" points="-4,4 -4,-62 472,-62 472,4 -4,4"/>
<!-- Node5 -->
<g id="node1" class="node"><title>Node5</title>
<polygon fill="#bfbfbf" stroke="black" points="0.5,-19.5 0.5,-38.5 95.5,-38.5 95.5,-19.5 0.5,-19.5"/>
<text text-anchor="middle" x="48" y="-26.5" font-family="Helvetica,sans-Serif" font-size="10.00">CreateGraphDual</text>
</g>
<!-- Node6 -->
<g id="node2" class="node"><title>Node6</title>
<g id="a_node2"><a xlink:href="a00930.html#a2cf4672355fcfed039c04a2d1d134136" target="_top" xlink:title="METIS_MeshToDual">
<polygon fill="white" stroke="black" points="132.5,-19.5 132.5,-38.5 241.5,-38.5 241.5,-19.5 132.5,-19.5"/>
<text text-anchor="middle" x="187" y="-26.5" font-family="Helvetica,sans-Serif" font-size="10.00">METIS_MeshToDual</text>
</a>
</g>
</g>
<!-- Node5&#45;&gt;Node6 -->
<g id="edge1" class="edge"><title>Node5&#45;&gt;Node6</title>
<path fill="none" stroke="midnightblue" d="M105.897,-29C114.661,-29 123.687,-29 132.376,-29"/>
<polygon fill="midnightblue" stroke="midnightblue" points="105.764,-25.5001 95.7645,-29 105.764,-32.5001 105.764,-25.5001"/>
</g>
<!-- Node7 -->
<g id="node3" class="node"><title>Node7</title>
<g id="a_node3"><a xlink:href="a00236.html#a8f496ac1cd2246b124da246b5c6f9193" target="_top" xlink:title="METIS_PartMeshDual">
<polygon fill="white" stroke="black" points="278,-38.5 278,-57.5 394,-57.5 394,-38.5 278,-38.5"/>
<text text-anchor="middle" x="336" y="-45.5" font-family="Helvetica,sans-Serif" font-size="10.00">METIS_PartMeshDual</text>
</a>
</g>
</g>
<!-- Node6&#45;&gt;Node7 -->
<g id="edge2" class="edge"><title>Node6&#45;&gt;Node7</title>
<path fill="none" stroke="midnightblue" d="M251.859,-37.2539C260.435,-38.3623 269.189,-39.4938 277.643,-40.5865"/>
<polygon fill="midnightblue" stroke="midnightblue" points="252.269,-33.7778 241.903,-35.967 251.371,-40.7201 252.269,-33.7778"/>
</g>
<!-- Node9 -->
<g id="node5" class="node"><title>Node9</title>
<g id="a_node5"><a xlink:href="a00317.html#a0ddf1224851353fc92bfbff6f499fa97" target="_top" xlink:title="main">
<polygon fill="white" stroke="black" points="317,-0.5 317,-19.5 355,-19.5 355,-0.5 317,-0.5"/>
<text text-anchor="middle" x="336" y="-7.5" font-family="Helvetica,sans-Serif" font-size="10.00">main</text>
</a>
</g>
</g>
<!-- Node6&#45;&gt;Node9 -->
<g id="edge4" class="edge"><title>Node6&#45;&gt;Node9</title>
<path fill="none" stroke="midnightblue" d="M251.938,-20.7359C275.615,-17.6756 300.638,-14.4413 316.954,-12.3324"/>
<polygon fill="midnightblue" stroke="midnightblue" points="251.371,-17.2799 241.903,-22.033 252.269,-24.2222 251.371,-17.2799"/>
</g>
<!-- Node8 -->
<g id="node4" class="node"><title>Node8</title>
<g id="a_node4"><a xlink:href="a00323.html#a0ddf1224851353fc92bfbff6f499fa97" target="_top" xlink:title="main">
<polygon fill="white" stroke="black" points="430,-38.5 430,-57.5 468,-57.5 468,-38.5 430,-38.5"/>
<text text-anchor="middle" x="449" y="-45.5" font-family="Helvetica,sans-Serif" font-size="10.00">main</text>
</a>
</g>
</g>
<!-- Node7&#45;&gt;Node8 -->
<g id="edge3" class="edge"><title>Node7&#45;&gt;Node8</title>
<path fill="none" stroke="midnightblue" d="M404.376,-48C413.702,-48 422.558,-48 429.824,-48"/>
<polygon fill="midnightblue" stroke="midnightblue" points="404.126,-44.5001 394.126,-48 404.126,-51.5001 404.126,-44.5001"/>
</g>
</g>
</svg>
