<?xml version="1.0" encoding="UTF-8" standalone="no"?>
<!DOCTYPE svg PUBLIC "-//W3C//DTD SVG 1.1//EN"
 "http://www.w3.org/Graphics/SVG/1.1/DTD/svg11.dtd">
<!-- Generated by graphviz version 2.36.0 (20140111.2315)
 -->
<!-- Title: Serial_SelectQueue Pages: 1 -->
<svg width="292pt" height="66pt"
 viewBox="0.00 0.00 292.00 66.00" xmlns="http://www.w3.org/2000/svg" xmlns:xlink="http://www.w3.org/1999/xlink">
<g id="graph0" class="graph" transform="scale(1 1) rotate(0) translate(4 62)">
<title>Serial_SelectQueue</title>
<polygon fill="white" stroke="none" points="-4,4 -4,-62 288,-62 288,4 -4,4"/>
<!-- Node554 -->
<g id="node1" class="node"><title>Node554</title>
<polygon fill="#bfbfbf" stroke="black" points="0.5,-19.5 0.5,-38.5 105.5,-38.5 105.5,-19.5 0.5,-19.5"/>
<text text-anchor="middle" x="53" y="-26.5" font-family="Helvetica,sans-Serif" font-size="10.00">Serial_SelectQueue</text>
</g>
<!-- Node555 -->
<g id="node2" class="node"><title>Node555</title>
<g id="a_node2"><a xlink:href="a00407.html#a9e8699c39f355dea5ad38e1dfee7b7cf" target="_top" xlink:title="Mc_Serial_FM_2WayRefine">
<polygon fill="white" stroke="black" points="142.5,-38.5 142.5,-57.5 283.5,-57.5 283.5,-38.5 142.5,-38.5"/>
<text text-anchor="middle" x="213" y="-45.5" font-family="Helvetica,sans-Serif" font-size="10.00">Mc_Serial_FM_2WayRefine</text>
</a>
</g>
</g>
<!-- Node554&#45;&gt;Node555 -->
<g id="edge1" class="edge"><title>Node554&#45;&gt;Node555</title>
<path fill="none" stroke="midnightblue" d="M115.796,-36.4311C124.503,-37.4783 133.504,-38.5606 142.347,-39.624"/>
<polygon fill="midnightblue" stroke="midnightblue" points="116.081,-32.9404 105.735,-35.2213 115.246,-39.8903 116.081,-32.9404"/>
</g>
<!-- Node556 -->
<g id="node3" class="node"><title>Node556</title>
<g id="a_node3"><a xlink:href="a00407.html#a89fa5b7aa9a8bab154de5a47d47d9d60" target="_top" xlink:title="Mc_Serial_Balance2Way">
<polygon fill="white" stroke="black" points="149,-0.5 149,-19.5 277,-19.5 277,-0.5 149,-0.5"/>
<text text-anchor="middle" x="213" y="-7.5" font-family="Helvetica,sans-Serif" font-size="10.00">Mc_Serial_Balance2Way</text>
</a>
</g>
</g>
<!-- Node554&#45;&gt;Node556 -->
<g id="edge2" class="edge"><title>Node554&#45;&gt;Node556</title>
<path fill="none" stroke="midnightblue" d="M115.933,-21.5523C126.742,-20.2525 137.999,-18.8988 148.841,-17.5951"/>
<polygon fill="midnightblue" stroke="midnightblue" points="115.246,-18.1097 105.735,-22.7787 116.081,-25.0596 115.246,-18.1097"/>
</g>
</g>
</svg>
