<?xml version="1.0" encoding="UTF-8" standalone="no"?>
<!DOCTYPE svg PUBLIC "-//W3C//DTD SVG 1.1//EN"
 "http://www.w3.org/Graphics/SVG/1.1/DTD/svg11.dtd">
<!-- Generated by graphviz version 2.36.0 (20140111.2315)
 -->
<!-- Title: Match_Local Pages: 1 -->
<svg width="340pt" height="28pt"
 viewBox="0.00 0.00 340.00 28.00" xmlns="http://www.w3.org/2000/svg" xmlns:xlink="http://www.w3.org/1999/xlink">
<g id="graph0" class="graph" transform="scale(1 1) rotate(0) translate(4 24)">
<title>Match_Local</title>
<polygon fill="white" stroke="none" points="-4,4 -4,-24 336,-24 336,4 -4,4"/>
<!-- Node385 -->
<g id="node1" class="node"><title>Node385</title>
<polygon fill="#bfbfbf" stroke="black" points="0.5,-0.5 0.5,-19.5 73.5,-19.5 73.5,-0.5 0.5,-0.5"/>
<text text-anchor="middle" x="37" y="-7.5" font-family="Helvetica,sans-Serif" font-size="10.00">Match_Local</text>
</g>
<!-- Node386 -->
<g id="node2" class="node"><title>Node386</title>
<g id="a_node2"><a xlink:href="a00368.html#a5070c68f093e9635e0f2bc1c8630ba27" target="_top" xlink:title="CreateCoarseGraph_Local">
<polygon fill="white" stroke="black" points="110,-0.5 110,-19.5 246,-19.5 246,-0.5 110,-0.5"/>
<text text-anchor="middle" x="178" y="-7.5" font-family="Helvetica,sans-Serif" font-size="10.00">CreateCoarseGraph_Local</text>
</a>
</g>
</g>
<!-- Node385&#45;&gt;Node386 -->
<g id="edge1" class="edge"><title>Node385&#45;&gt;Node386</title>
<path fill="none" stroke="midnightblue" d="M73.796,-10C81.8028,-10 90.597,-10 99.57,-10"/>
<polygon fill="midnightblue" stroke="midnightblue" points="99.7442,-13.5001 109.744,-10 99.7441,-6.5001 99.7442,-13.5001"/>
</g>
<!-- Node387 -->
<g id="node3" class="node"><title>Node387</title>
<g id="a_node3"><a xlink:href="a00077.html#ac8df62c4e3d0910711a9874f9cc58884" target="_top" xlink:title="gk_free">
<polygon fill="white" stroke="black" points="282,-0.5 282,-19.5 332,-19.5 332,-0.5 282,-0.5"/>
<text text-anchor="middle" x="307" y="-7.5" font-family="Helvetica,sans-Serif" font-size="10.00">gk_free</text>
</a>
</g>
</g>
<!-- Node386&#45;&gt;Node387 -->
<g id="edge2" class="edge"><title>Node386&#45;&gt;Node387</title>
<path fill="none" stroke="midnightblue" d="M246.219,-10C254.973,-10 263.632,-10 271.528,-10"/>
<polygon fill="midnightblue" stroke="midnightblue" points="271.76,-13.5001 281.759,-10 271.759,-6.5001 271.76,-13.5001"/>
</g>
</g>
</svg>
