<?xml version="1.0" encoding="UTF-8" standalone="no"?>
<!DOCTYPE svg PUBLIC "-//W3C//DTD SVG 1.1//EN"
 "http://www.w3.org/Graphics/SVG/1.1/DTD/svg11.dtd">
<!-- Generated by graphviz version 2.36.0 (20140111.2315)
 -->
<!-- Title: AllocateWSpace Pages: 1 -->
<svg width="564pt" height="125pt"
 viewBox="0.00 0.00 564.00 124.90" xmlns="http://www.w3.org/2000/svg" xmlns:xlink="http://www.w3.org/1999/xlink">
<g id="graph0" class="graph" transform="scale(1 1) rotate(0) translate(4 120.901)">
<title>AllocateWSpace</title>
<polygon fill="white" stroke="none" points="-4,4 -4,-120.901 560,-120.901 560,4 -4,4"/>
<!-- Node7 -->
<g id="node1" class="node"><title>Node7</title>
<polygon fill="#bfbfbf" stroke="black" points="0,-57.5 0,-76.5 90,-76.5 90,-57.5 0,-57.5"/>
<text text-anchor="middle" x="45" y="-64.5" font-family="Helvetica,sans-Serif" font-size="10.00">AllocateWSpace</text>
</g>
<!-- Node8 -->
<g id="node2" class="node"><title>Node8</title>
<g id="a_node2"><a xlink:href="a00077.html#aba5df0f5155d88c0331fd6c996b483ed" target="_top" xlink:title="gk_mcoreCreate">
<polygon fill="white" stroke="black" points="126,-57.5 126,-76.5 216,-76.5 216,-57.5 126,-57.5"/>
<text text-anchor="middle" x="171" y="-64.5" font-family="Helvetica,sans-Serif" font-size="10.00">gk_mcoreCreate</text>
</a>
</g>
</g>
<!-- Node7&#45;&gt;Node8 -->
<g id="edge1" class="edge"><title>Node7&#45;&gt;Node8</title>
<path fill="none" stroke="midnightblue" d="M90.0669,-67C98.2822,-67 106.957,-67 115.443,-67"/>
<polygon fill="midnightblue" stroke="midnightblue" points="115.657,-70.5001 125.657,-67 115.657,-63.5001 115.657,-70.5001"/>
</g>
<!-- Node9 -->
<g id="node3" class="node"><title>Node9</title>
<g id="a_node3"><a xlink:href="a00077.html#aba6f76f5c67b9b7e9c2e45988d3d3e9d" target="_top" xlink:title="gk_malloc">
<polygon fill="white" stroke="black" points="252,-57.5 252,-76.5 314,-76.5 314,-57.5 252,-57.5"/>
<text text-anchor="middle" x="283" y="-64.5" font-family="Helvetica,sans-Serif" font-size="10.00">gk_malloc</text>
</a>
</g>
</g>
<!-- Node8&#45;&gt;Node9 -->
<g id="edge2" class="edge"><title>Node8&#45;&gt;Node9</title>
<path fill="none" stroke="midnightblue" d="M216.107,-67C224.513,-67 233.272,-67 241.556,-67"/>
<polygon fill="midnightblue" stroke="midnightblue" points="241.733,-70.5001 251.733,-67 241.733,-63.5001 241.733,-70.5001"/>
</g>
<!-- Node10 -->
<g id="node4" class="node"><title>Node10</title>
<g id="a_node4"><a xlink:href="a01017.html#a2e311a777ffe9c80e405efa7cd2757be" target="_top" xlink:title="fprintf">
<polygon fill="white" stroke="black" points="514,-57.5 514,-76.5 556,-76.5 556,-57.5 514,-57.5"/>
<text text-anchor="middle" x="535" y="-64.5" font-family="Helvetica,sans-Serif" font-size="10.00">fprintf</text>
</a>
</g>
</g>
<!-- Node9&#45;&gt;Node10 -->
<g id="edge3" class="edge"><title>Node9&#45;&gt;Node10</title>
<path fill="none" stroke="midnightblue" d="M296.261,-76.7187C308.891,-86.0589 329.563,-99.5369 350,-105 404.959,-119.691 423.62,-121.709 478,-105 492.039,-100.686 505.719,-91.5255 516.044,-83.2793"/>
<polygon fill="midnightblue" stroke="midnightblue" points="518.469,-85.8134 523.862,-76.6941 513.959,-80.4595 518.469,-85.8134"/>
</g>
<!-- Node11 -->
<g id="node5" class="node"><title>Node11</title>
<g id="a_node5"><a xlink:href="a00110.html#ad2327b94227019b6753b6b09400c0522" target="_top" xlink:title="gk_GetCurMemoryUsed">
<polygon fill="white" stroke="black" points="352,-76.5 352,-95.5 476,-95.5 476,-76.5 352,-76.5"/>
<text text-anchor="middle" x="414" y="-83.5" font-family="Helvetica,sans-Serif" font-size="10.00">gk_GetCurMemoryUsed</text>
</a>
</g>
</g>
<!-- Node9&#45;&gt;Node11 -->
<g id="edge4" class="edge"><title>Node9&#45;&gt;Node11</title>
<path fill="none" stroke="midnightblue" d="M314.245,-71.4547C322.646,-72.692 332.139,-74.0903 341.836,-75.5184"/>
<polygon fill="midnightblue" stroke="midnightblue" points="341.573,-79.0175 351.977,-77.0121 342.593,-72.0922 341.573,-79.0175"/>
</g>
<!-- Node12 -->
<g id="node6" class="node"><title>Node12</title>
<g id="a_node6"><a xlink:href="a00110.html#a656fd5266ae12a96e53125486f8fea52" target="_top" xlink:title="gk_GetMaxMemoryUsed">
<polygon fill="white" stroke="black" points="350.5,-38.5 350.5,-57.5 477.5,-57.5 477.5,-38.5 350.5,-38.5"/>
<text text-anchor="middle" x="414" y="-45.5" font-family="Helvetica,sans-Serif" font-size="10.00">gk_GetMaxMemoryUsed</text>
</a>
</g>
</g>
<!-- Node9&#45;&gt;Node12 -->
<g id="edge5" class="edge"><title>Node9&#45;&gt;Node12</title>
<path fill="none" stroke="midnightblue" d="M314.245,-62.5453C322.229,-61.3693 331.2,-60.048 340.395,-58.6938"/>
<polygon fill="midnightblue" stroke="midnightblue" points="341.04,-62.1366 350.423,-57.2167 340.02,-55.2113 341.04,-62.1366"/>
</g>
<!-- Node13 -->
<g id="node7" class="node"><title>Node13</title>
<g id="a_node7"><a xlink:href="a00026.html#a4c320c13bcdc9967613253ef4c73f59f" target="_top" xlink:title="gk_errexit">
<polygon fill="white" stroke="black" points="384,-0.5 384,-19.5 444,-19.5 444,-0.5 384,-0.5"/>
<text text-anchor="middle" x="414" y="-7.5" font-family="Helvetica,sans-Serif" font-size="10.00">gk_errexit</text>
</a>
</g>
</g>
<!-- Node9&#45;&gt;Node13 -->
<g id="edge6" class="edge"><title>Node9&#45;&gt;Node13</title>
<path fill="none" stroke="midnightblue" d="M298.436,-57.3905C311.481,-49.027 331.428,-37.0202 350,-29 357.68,-25.6834 366.121,-22.7096 374.259,-20.1539"/>
<polygon fill="midnightblue" stroke="midnightblue" points="375.388,-23.4695 383.965,-17.2488 373.381,-16.7634 375.388,-23.4695"/>
</g>
<!-- Node13&#45;&gt;Node10 -->
<g id="edge7" class="edge"><title>Node13&#45;&gt;Node10</title>
<path fill="none" stroke="midnightblue" d="M444.228,-16.8252C455.104,-19.8755 467.377,-23.9396 478,-29 490.634,-35.0184 503.634,-43.6626 513.925,-51.1863"/>
<polygon fill="midnightblue" stroke="midnightblue" points="512.101,-54.1937 522.194,-57.4154 516.313,-48.6027 512.101,-54.1937"/>
</g>
</g>
</svg>
