<?xml version="1.0" encoding="UTF-8" standalone="no"?>
<!DOCTYPE svg PUBLIC "-//W3C//DTD SVG 1.1//EN"
 "http://www.w3.org/Graphics/SVG/1.1/DTD/svg11.dtd">
<!-- Generated by graphviz version 2.36.0 (20140111.2315)
 -->
<!-- Title: ComputeFillIn Pages: 1 -->
<svg width="254pt" height="104pt"
 viewBox="0.00 0.00 254.00 104.00" xmlns="http://www.w3.org/2000/svg" xmlns:xlink="http://www.w3.org/1999/xlink">
<g id="graph0" class="graph" transform="scale(1 1) rotate(0) translate(4 100)">
<title>ComputeFillIn</title>
<polygon fill="white" stroke="none" points="-4,4 -4,-100 250,-100 250,4 -4,4"/>
<!-- Node0 -->
<g id="node1" class="node"><title>Node0</title>
<polygon fill="#bfbfbf" stroke="black" points="0,-38.5 0,-57.5 78,-57.5 78,-38.5 0,-38.5"/>
<text text-anchor="middle" x="39" y="-45.5" font-family="Helvetica,sans-Serif" font-size="10.00">ComputeFillIn</text>
</g>
<!-- Node1 -->
<g id="node2" class="node"><title>Node1</title>
<g id="a_node2"><a xlink:href="a00329.html#a4c231449fdf45c79d8d5107ad63b3451" target="_top" xlink:title="smbfct">
<polygon fill="white" stroke="black" points="114,-76.5 114,-95.5 160,-95.5 160,-76.5 114,-76.5"/>
<text text-anchor="middle" x="137" y="-83.5" font-family="Helvetica,sans-Serif" font-size="10.00">smbfct</text>
</a>
</g>
</g>
<!-- Node0&#45;&gt;Node1 -->
<g id="edge1" class="edge"><title>Node0&#45;&gt;Node1</title>
<path fill="none" stroke="midnightblue" d="M64.2249,-57.589C76.3528,-62.3897 91.19,-68.2627 104.22,-73.4204"/>
<polygon fill="midnightblue" stroke="midnightblue" points="103.171,-76.7693 113.757,-77.1955 105.747,-70.2606 103.171,-76.7693"/>
</g>
<!-- Node2 -->
<g id="node3" class="node"><title>Node2</title>
<g id="a_node3"><a xlink:href="a00077.html#ac8df62c4e3d0910711a9874f9cc58884" target="_top" xlink:title="gk_free">
<polygon fill="white" stroke="black" points="196,-57.5 196,-76.5 246,-76.5 246,-57.5 196,-57.5"/>
<text text-anchor="middle" x="221" y="-64.5" font-family="Helvetica,sans-Serif" font-size="10.00">gk_free</text>
</a>
</g>
</g>
<!-- Node0&#45;&gt;Node2 -->
<g id="edge3" class="edge"><title>Node0&#45;&gt;Node2</title>
<path fill="none" stroke="midnightblue" d="M78.1734,-52.0294C110.022,-55.3912 155.005,-60.1394 185.717,-63.3812"/>
<polygon fill="midnightblue" stroke="midnightblue" points="185.628,-66.8912 195.94,-64.4604 186.363,-59.9299 185.628,-66.8912"/>
</g>
<!-- Node3 -->
<g id="node4" class="node"><title>Node3</title>
<g id="a_node4"><a xlink:href="a00026.html#a56d0f2cc40cd8633a784582d6200d8b5" target="_top" xlink:title="errexit">
<polygon fill="white" stroke="black" points="115,-0.5 115,-19.5 159,-19.5 159,-0.5 115,-0.5"/>
<text text-anchor="middle" x="137" y="-7.5" font-family="Helvetica,sans-Serif" font-size="10.00">errexit</text>
</a>
</g>
</g>
<!-- Node0&#45;&gt;Node3 -->
<g id="edge4" class="edge"><title>Node0&#45;&gt;Node3</title>
<path fill="none" stroke="midnightblue" d="M64.2249,-38.411C76.6184,-33.5052 91.8411,-27.4796 105.073,-22.2418"/>
<polygon fill="midnightblue" stroke="midnightblue" points="106.714,-25.3565 114.724,-18.4216 104.138,-18.8479 106.714,-25.3565"/>
</g>
<!-- Node1&#45;&gt;Node2 -->
<g id="edge2" class="edge"><title>Node1&#45;&gt;Node2</title>
<path fill="none" stroke="midnightblue" d="M160.407,-80.8082C168.314,-78.976 177.392,-76.8726 186.039,-74.869"/>
<polygon fill="midnightblue" stroke="midnightblue" points="186.944,-78.2521 195.896,-72.5851 185.364,-71.4327 186.944,-78.2521"/>
</g>
<!-- Node4 -->
<g id="node5" class="node"><title>Node4</title>
<g id="a_node5"><a xlink:href="a01017.html#a2e311a777ffe9c80e405efa7cd2757be" target="_top" xlink:title="fprintf">
<polygon fill="white" stroke="black" points="200,-0.5 200,-19.5 242,-19.5 242,-0.5 200,-0.5"/>
<text text-anchor="middle" x="221" y="-7.5" font-family="Helvetica,sans-Serif" font-size="10.00">fprintf</text>
</a>
</g>
</g>
<!-- Node3&#45;&gt;Node4 -->
<g id="edge5" class="edge"><title>Node3&#45;&gt;Node4</title>
<path fill="none" stroke="midnightblue" d="M159.117,-10C168.415,-10 179.513,-10 189.671,-10"/>
<polygon fill="midnightblue" stroke="midnightblue" points="189.803,-13.5001 199.803,-10 189.803,-6.5001 189.803,-13.5001"/>
</g>
</g>
</svg>
