<?xml version="1.0" encoding="UTF-8" standalone="no"?>
<!DOCTYPE svg PUBLIC "-//W3C//DTD SVG 1.1//EN"
 "http://www.w3.org/Graphics/SVG/1.1/DTD/svg11.dtd">
<!-- Generated by graphviz version 2.36.0 (20140111.2315)
 -->
<!-- Title: MlevelNodeBisectionL2 Pages: 1 -->
<svg width="884pt" height="180pt"
 viewBox="0.00 0.00 884.00 180.00" xmlns="http://www.w3.org/2000/svg" xmlns:xlink="http://www.w3.org/1999/xlink">
<g id="graph0" class="graph" transform="scale(1 1) rotate(0) translate(4 176)">
<title>MlevelNodeBisectionL2</title>
<polygon fill="white" stroke="none" points="-4,4 -4,-176 880,-176 880,4 -4,4"/>
<!-- Node93 -->
<g id="node1" class="node"><title>Node93</title>
<polygon fill="#bfbfbf" stroke="black" points="0.5,-95.5 0.5,-114.5 121.5,-114.5 121.5,-95.5 0.5,-95.5"/>
<text text-anchor="middle" x="61" y="-102.5" font-family="Helvetica,sans-Serif" font-size="10.00">MlevelNodeBisectionL2</text>
</g>
<!-- Node94 -->
<g id="node2" class="node"><title>Node94</title>
<g id="a_node2"><a xlink:href="a00936.html#aeeaa7f4ed9878ae2f7faff0e2402fd87" target="_top" xlink:title="MlevelNodeBisectionL1">
<polygon fill="white" stroke="black" points="158.5,-114.5 158.5,-133.5 279.5,-133.5 279.5,-114.5 158.5,-114.5"/>
<text text-anchor="middle" x="219" y="-121.5" font-family="Helvetica,sans-Serif" font-size="10.00">MlevelNodeBisectionL1</text>
</a>
</g>
</g>
<!-- Node93&#45;&gt;Node94 -->
<g id="edge1" class="edge"><title>Node93&#45;&gt;Node94</title>
<path fill="none" stroke="midnightblue" d="M121.868,-112.292C130.452,-113.337 139.346,-114.42 148.103,-115.487"/>
<polygon fill="midnightblue" stroke="midnightblue" points="147.943,-118.993 158.293,-116.728 148.789,-112.045 147.943,-118.993"/>
</g>
<!-- Node95 -->
<g id="node3" class="node"><title>Node95</title>
<g id="a_node3"><a xlink:href="a00182.html#afa83320e3b311e0feef90d0bf4303716" target="_top" xlink:title="CoarsenGraphNlevels">
<polygon fill="white" stroke="black" points="161.5,-76.5 161.5,-95.5 276.5,-95.5 276.5,-76.5 161.5,-76.5"/>
<text text-anchor="middle" x="219" y="-83.5" font-family="Helvetica,sans-Serif" font-size="10.00">CoarsenGraphNlevels</text>
</a>
</g>
</g>
<!-- Node93&#45;&gt;Node95 -->
<g id="edge2" class="edge"><title>Node93&#45;&gt;Node95</title>
<path fill="none" stroke="midnightblue" d="M121.868,-97.7084C131.497,-96.5356 141.517,-95.3153 151.295,-94.1244"/>
<polygon fill="midnightblue" stroke="midnightblue" points="151.867,-97.5806 161.37,-92.8972 151.02,-90.632 151.867,-97.5806"/>
</g>
<!-- Node96 -->
<g id="node4" class="node"><title>Node96</title>
<g id="a_node4"><a xlink:href="a00623.html#ad1e7380d51df1e0043d24d3c8a860e0a" target="_top" xlink:title="for">
<polygon fill="white" stroke="black" points="349.5,-152.5 349.5,-171.5 378.5,-171.5 378.5,-152.5 349.5,-152.5"/>
<text text-anchor="middle" x="364" y="-159.5" font-family="Helvetica,sans-Serif" font-size="10.00">for</text>
</a>
</g>
</g>
<!-- Node95&#45;&gt;Node96 -->
<g id="edge3" class="edge"><title>Node95&#45;&gt;Node96</title>
<path fill="none" stroke="midnightblue" d="M259.992,-95.5369C266.94,-98.0551 273.888,-101.172 280,-105 299.717,-117.349 296.777,-129.897 316,-143 323.261,-147.949 332.008,-151.928 339.976,-154.941"/>
<polygon fill="midnightblue" stroke="midnightblue" points="338.889,-158.268 349.484,-158.24 341.184,-151.655 338.889,-158.268"/>
</g>
<!-- Node97 -->
<g id="node5" class="node"><title>Node97</title>
<g id="a_node5"><a xlink:href="a00182.html#aac3e480e7e3bd02bfdf001d858a93562" target="_top" xlink:title="PrintCGraphStats">
<polygon fill="white" stroke="black" points="316.5,-114.5 316.5,-133.5 411.5,-133.5 411.5,-114.5 316.5,-114.5"/>
<text text-anchor="middle" x="364" y="-121.5" font-family="Helvetica,sans-Serif" font-size="10.00">PrintCGraphStats</text>
</a>
</g>
</g>
<!-- Node95&#45;&gt;Node97 -->
<g id="edge4" class="edge"><title>Node95&#45;&gt;Node97</title>
<path fill="none" stroke="midnightblue" d="M256.085,-95.589C274.63,-100.517 297.426,-106.575 317.199,-111.829"/>
<polygon fill="midnightblue" stroke="midnightblue" points="316.363,-115.228 326.927,-114.414 318.161,-108.463 316.363,-115.228"/>
</g>
<!-- Node98 -->
<g id="node6" class="node"><title>Node98</title>
<g id="a_node6"><a xlink:href="a00182.html#a892d2ea16d613abc2276ad5fc6999724" target="_top" xlink:title="Match_RM">
<polygon fill="white" stroke="black" points="331.5,-38.5 331.5,-57.5 396.5,-57.5 396.5,-38.5 331.5,-38.5"/>
<text text-anchor="middle" x="364" y="-45.5" font-family="Helvetica,sans-Serif" font-size="10.00">Match_RM</text>
</a>
</g>
</g>
<!-- Node95&#45;&gt;Node98 -->
<g id="edge5" class="edge"><title>Node95&#45;&gt;Node98</title>
<path fill="none" stroke="midnightblue" d="M256.085,-76.411C275.994,-71.1204 300.804,-64.5275 321.512,-59.0249"/>
<polygon fill="midnightblue" stroke="midnightblue" points="322.542,-62.3725 331.308,-56.4216 320.745,-55.6073 322.542,-62.3725"/>
</g>
<!-- Node106 -->
<g id="node14" class="node"><title>Node106</title>
<g id="a_node14"><a xlink:href="a00182.html#af3ec72f3170ccdca06d8ad018d86cc58" target="_top" xlink:title="Match_SHEM">
<polygon fill="white" stroke="black" points="325,-76.5 325,-95.5 403,-95.5 403,-76.5 325,-76.5"/>
<text text-anchor="middle" x="364" y="-83.5" font-family="Helvetica,sans-Serif" font-size="10.00">Match_SHEM</text>
</a>
</g>
</g>
<!-- Node95&#45;&gt;Node106 -->
<g id="edge15" class="edge"><title>Node95&#45;&gt;Node106</title>
<path fill="none" stroke="midnightblue" d="M276.517,-86C289.203,-86 302.548,-86 314.856,-86"/>
<polygon fill="midnightblue" stroke="midnightblue" points="314.913,-89.5001 324.913,-86 314.913,-82.5001 314.913,-89.5001"/>
</g>
<!-- Node107 -->
<g id="node15" class="node"><title>Node107</title>
<g id="a_node15"><a xlink:href="a00026.html#a4c320c13bcdc9967613253ef4c73f59f" target="_top" xlink:title="gk_errexit">
<polygon fill="white" stroke="black" points="334,-0.5 334,-19.5 394,-19.5 394,-0.5 334,-0.5"/>
<text text-anchor="middle" x="364" y="-7.5" font-family="Helvetica,sans-Serif" font-size="10.00">gk_errexit</text>
</a>
</g>
</g>
<!-- Node95&#45;&gt;Node107 -->
<g id="edge18" class="edge"><title>Node95&#45;&gt;Node107</title>
<path fill="none" stroke="midnightblue" d="M234.576,-76.397C253.06,-64.4435 286.126,-43.8005 316,-29 319.815,-27.1099 323.867,-25.2557 327.929,-23.4912"/>
<polygon fill="midnightblue" stroke="midnightblue" points="329.446,-26.6504 337.321,-19.5626 326.745,-20.1926 329.446,-26.6504"/>
</g>
<!-- Node99 -->
<g id="node7" class="node"><title>Node99</title>
<g id="a_node7"><a xlink:href="a00182.html#aead846b2c69509c914426ff087509934" target="_top" xlink:title="Match_2Hop">
<polygon fill="white" stroke="black" points="465.5,-38.5 465.5,-57.5 538.5,-57.5 538.5,-38.5 465.5,-38.5"/>
<text text-anchor="middle" x="502" y="-45.5" font-family="Helvetica,sans-Serif" font-size="10.00">Match_2Hop</text>
</a>
</g>
</g>
<!-- Node98&#45;&gt;Node99 -->
<g id="edge6" class="edge"><title>Node98&#45;&gt;Node99</title>
<path fill="none" stroke="midnightblue" d="M396.543,-48C413.97,-48 435.932,-48 455.216,-48"/>
<polygon fill="midnightblue" stroke="midnightblue" points="455.312,-51.5001 465.312,-48 455.312,-44.5001 455.312,-51.5001"/>
</g>
<!-- Node102 -->
<g id="node10" class="node"><title>Node102</title>
<g id="a_node10"><a xlink:href="a00182.html#aac8820421b1c25698140c1b470c50e07" target="_top" xlink:title="CreateCoarseGraph">
<polygon fill="white" stroke="black" points="448.5,-76.5 448.5,-95.5 555.5,-95.5 555.5,-76.5 448.5,-76.5"/>
<text text-anchor="middle" x="502" y="-83.5" font-family="Helvetica,sans-Serif" font-size="10.00">CreateCoarseGraph</text>
</a>
</g>
</g>
<!-- Node98&#45;&gt;Node102 -->
<g id="edge9" class="edge"><title>Node98&#45;&gt;Node102</title>
<path fill="none" stroke="midnightblue" d="M396.543,-56.8135C414.533,-61.8401 437.357,-68.2173 457.078,-73.7276"/>
<polygon fill="midnightblue" stroke="midnightblue" points="456.196,-77.1153 466.769,-76.4355 458.08,-70.3735 456.196,-77.1153"/>
</g>
<!-- Node100 -->
<g id="node8" class="node"><title>Node100</title>
<g id="a_node8"><a xlink:href="a00182.html#a838a4013e3b5cc5278ecc7a8757ce0ef" target="_top" xlink:title="Match_2HopAny">
<polygon fill="white" stroke="black" points="619,-0.5 619,-19.5 709,-19.5 709,-0.5 619,-0.5"/>
<text text-anchor="middle" x="664" y="-7.5" font-family="Helvetica,sans-Serif" font-size="10.00">Match_2HopAny</text>
</a>
</g>
</g>
<!-- Node99&#45;&gt;Node100 -->
<g id="edge7" class="edge"><title>Node99&#45;&gt;Node100</title>
<path fill="none" stroke="midnightblue" d="M538.509,-39.5666C560.34,-34.3817 588.652,-27.6576 612.76,-21.9321"/>
<polygon fill="midnightblue" stroke="midnightblue" points="613.882,-25.2629 622.803,-19.5468 612.265,-18.4524 613.882,-25.2629"/>
</g>
<!-- Node101 -->
<g id="node9" class="node"><title>Node101</title>
<g id="a_node9"><a xlink:href="a00182.html#aa56d53cace160be27fb1750dcaffbc04" target="_top" xlink:title="Match_2HopAll">
<polygon fill="white" stroke="black" points="622,-38.5 622,-57.5 706,-57.5 706,-38.5 622,-38.5"/>
<text text-anchor="middle" x="664" y="-45.5" font-family="Helvetica,sans-Serif" font-size="10.00">Match_2HopAll</text>
</a>
</g>
</g>
<!-- Node99&#45;&gt;Node101 -->
<g id="edge8" class="edge"><title>Node99&#45;&gt;Node101</title>
<path fill="none" stroke="midnightblue" d="M538.509,-48C560.002,-48 587.777,-48 611.637,-48"/>
<polygon fill="midnightblue" stroke="midnightblue" points="611.939,-51.5001 621.939,-48 611.939,-44.5001 611.939,-51.5001"/>
</g>
<!-- Node103 -->
<g id="node11" class="node"><title>Node103</title>
<g id="a_node11"><a xlink:href="a00182.html#a70dc59d4c7190507e7ad9a4cc0d80707" target="_top" xlink:title="CreateCoarseGraphNoMask">
<polygon fill="white" stroke="black" points="592.5,-114.5 592.5,-133.5 735.5,-133.5 735.5,-114.5 592.5,-114.5"/>
<text text-anchor="middle" x="664" y="-121.5" font-family="Helvetica,sans-Serif" font-size="10.00">CreateCoarseGraphNoMask</text>
</a>
</g>
</g>
<!-- Node102&#45;&gt;Node103 -->
<g id="edge10" class="edge"><title>Node102&#45;&gt;Node103</title>
<path fill="none" stroke="midnightblue" d="M543.375,-95.589C564.488,-100.604 590.529,-106.788 612.917,-112.105"/>
<polygon fill="midnightblue" stroke="midnightblue" points="612.377,-115.574 622.916,-114.48 613.995,-108.764 612.377,-115.574"/>
</g>
<!-- Node104 -->
<g id="node12" class="node"><title>Node104</title>
<g id="a_node12"><a xlink:href="a00182.html#a113522304bf628b09d0b69b4db05050e" target="_top" xlink:title="SetupCoarseGraph">
<polygon fill="white" stroke="black" points="772.5,-142.5 772.5,-161.5 875.5,-161.5 875.5,-142.5 772.5,-142.5"/>
<text text-anchor="middle" x="824" y="-149.5" font-family="Helvetica,sans-Serif" font-size="10.00">SetupCoarseGraph</text>
</a>
</g>
</g>
<!-- Node102&#45;&gt;Node104 -->
<g id="edge13" class="edge"><title>Node102&#45;&gt;Node104</title>
<path fill="none" stroke="midnightblue" d="M513.807,-95.6974C529.637,-109.213 560.665,-133.159 592,-143 647.65,-160.476 714.566,-161.01 762.019,-158.206"/>
<polygon fill="midnightblue" stroke="midnightblue" points="762.389,-161.689 772.138,-157.54 761.93,-154.704 762.389,-161.689"/>
</g>
<!-- Node105 -->
<g id="node13" class="node"><title>Node105</title>
<g id="a_node13"><a xlink:href="a00182.html#ab69ab96ec78174da232dff05e9c79d2f" target="_top" xlink:title="ReAdjustMemory">
<polygon fill="white" stroke="black" points="777.5,-85.5 777.5,-104.5 870.5,-104.5 870.5,-85.5 777.5,-85.5"/>
<text text-anchor="middle" x="824" y="-92.5" font-family="Helvetica,sans-Serif" font-size="10.00">ReAdjustMemory</text>
</a>
</g>
</g>
<!-- Node102&#45;&gt;Node105 -->
<g id="edge14" class="edge"><title>Node102&#45;&gt;Node105</title>
<path fill="none" stroke="midnightblue" d="M555.841,-87.4862C614.119,-89.1252 707.498,-91.7515 767.006,-93.4252"/>
<polygon fill="midnightblue" stroke="midnightblue" points="767.249,-96.9333 777.343,-93.7159 767.445,-89.936 767.249,-96.9333"/>
</g>
<!-- Node103&#45;&gt;Node104 -->
<g id="edge11" class="edge"><title>Node103&#45;&gt;Node104</title>
<path fill="none" stroke="midnightblue" d="M718.933,-133.558C732.817,-136.018 747.853,-138.683 762.065,-141.201"/>
<polygon fill="midnightblue" stroke="midnightblue" points="761.782,-144.706 772.239,-143.004 763.004,-137.813 761.782,-144.706"/>
</g>
<!-- Node103&#45;&gt;Node105 -->
<g id="edge12" class="edge"><title>Node103&#45;&gt;Node105</title>
<path fill="none" stroke="midnightblue" d="M717.173,-114.424C733.251,-111.473 751.012,-108.213 767.317,-105.22"/>
<polygon fill="midnightblue" stroke="midnightblue" points="768.05,-108.644 777.253,-103.397 766.786,-101.759 768.05,-108.644"/>
</g>
<!-- Node106&#45;&gt;Node99 -->
<g id="edge16" class="edge"><title>Node106&#45;&gt;Node99</title>
<path fill="none" stroke="midnightblue" d="M399.319,-76.411C416.794,-71.5281 438.241,-65.5357 456.925,-60.315"/>
<polygon fill="midnightblue" stroke="midnightblue" points="458.003,-63.6479 466.692,-57.5859 456.119,-56.9062 458.003,-63.6479"/>
</g>
<!-- Node106&#45;&gt;Node102 -->
<g id="edge17" class="edge"><title>Node106&#45;&gt;Node102</title>
<path fill="none" stroke="midnightblue" d="M403.246,-86C414.062,-86 426.129,-86 437.993,-86"/>
<polygon fill="midnightblue" stroke="midnightblue" points="438.329,-89.5001 448.329,-86 438.329,-82.5001 438.329,-89.5001"/>
</g>
<!-- Node108 -->
<g id="node16" class="node"><title>Node108</title>
<g id="a_node16"><a xlink:href="a01017.html#a2e311a777ffe9c80e405efa7cd2757be" target="_top" xlink:title="fprintf">
<polygon fill="white" stroke="black" points="481,-0.5 481,-19.5 523,-19.5 523,-0.5 481,-0.5"/>
<text text-anchor="middle" x="502" y="-7.5" font-family="Helvetica,sans-Serif" font-size="10.00">fprintf</text>
</a>
</g>
</g>
<!-- Node107&#45;&gt;Node108 -->
<g id="edge19" class="edge"><title>Node107&#45;&gt;Node108</title>
<path fill="none" stroke="midnightblue" d="M394.175,-10C416.68,-10 447.716,-10 470.538,-10"/>
<polygon fill="midnightblue" stroke="midnightblue" points="470.696,-13.5001 480.696,-10 470.696,-6.5001 470.696,-13.5001"/>
</g>
</g>
</svg>
