<?xml version="1.0" encoding="UTF-8" standalone="no"?>
<!DOCTYPE svg PUBLIC "-//W3C//DTD SVG 1.1//EN"
 "http://www.w3.org/Graphics/SVG/1.1/DTD/svg11.dtd">
<!-- Generated by graphviz version 2.36.0 (20140111.2315)
 -->
<!-- Title: MinCover_ColDFS Pages: 1 -->
<svg width="244pt" height="46pt"
 viewBox="0.00 0.00 244.00 46.00" xmlns="http://www.w3.org/2000/svg" xmlns:xlink="http://www.w3.org/1999/xlink">
<g id="graph0" class="graph" transform="scale(1 1) rotate(0) translate(4 42)">
<title>MinCover_ColDFS</title>
<polygon fill="white" stroke="none" points="-4,4 -4,-42 240,-42 240,4 -4,4"/>
<!-- Node589 -->
<g id="node1" class="node"><title>Node589</title>
<polygon fill="#bfbfbf" stroke="black" points="0,-0.5 0,-19.5 100,-19.5 100,-0.5 0,-0.5"/>
<text text-anchor="middle" x="50" y="-7.5" font-family="Helvetica,sans-Serif" font-size="10.00">MinCover_ColDFS</text>
</g>
<!-- Node590 -->
<g id="node2" class="node"><title>Node590</title>
<g id="a_node2"><a xlink:href="a00245.html#a4c92a2e434179f264498adf840127095" target="_top" xlink:title="MinCover_ColDFS">
<polygon fill="white" stroke="black" points="136,-0.5 136,-19.5 236,-19.5 236,-0.5 136,-0.5"/>
<text text-anchor="middle" x="186" y="-7.5" font-family="Helvetica,sans-Serif" font-size="10.00">MinCover_ColDFS</text>
</a>
</g>
</g>
<!-- Node589&#45;&gt;Node590 -->
<g id="edge1" class="edge"><title>Node589&#45;&gt;Node590</title>
<path fill="none" stroke="midnightblue" d="M100.136,-10C108.42,-10 117.097,-10 125.608,-10"/>
<polygon fill="midnightblue" stroke="midnightblue" points="125.87,-13.5001 135.87,-10 125.87,-6.5001 125.87,-13.5001"/>
</g>
<!-- Node590&#45;&gt;Node590 -->
<g id="edge2" class="edge"><title>Node590&#45;&gt;Node590</title>
<path fill="none" stroke="midnightblue" d="M165.038,-19.7571C154.841,-28.5653 161.828,-38 186,-38 201.485,-38 209.918,-34.128 211.298,-29.0292"/>
<polygon fill="midnightblue" stroke="midnightblue" points="214.368,-27.3329 206.962,-19.7571 208.027,-30.2982 214.368,-27.3329"/>
</g>
</g>
</svg>
