<?xml version="1.0" encoding="UTF-8" standalone="no"?>
<!DOCTYPE svg PUBLIC "-//W3C//DTD SVG 1.1//EN"
 "http://www.w3.org/Graphics/SVG/1.1/DTD/svg11.dtd">
<!-- Generated by graphviz version 2.36.0 (20140111.2315)
 -->
<!-- Title: Balance2Way Pages: 1 -->
<svg width="250pt" height="104pt"
 viewBox="0.00 0.00 250.00 104.00" xmlns="http://www.w3.org/2000/svg" xmlns:xlink="http://www.w3.org/1999/xlink">
<g id="graph0" class="graph" transform="scale(1 1) rotate(0) translate(4 100)">
<title>Balance2Way</title>
<polygon fill="white" stroke="none" points="-4,4 -4,-100 246,-100 246,4 -4,4"/>
<!-- Node32 -->
<g id="node1" class="node"><title>Node32</title>
<polygon fill="#bfbfbf" stroke="black" points="0,-38.5 0,-57.5 78,-57.5 78,-38.5 0,-38.5"/>
<text text-anchor="middle" x="39" y="-45.5" font-family="Helvetica,sans-Serif" font-size="10.00">Balance2Way</text>
</g>
<!-- Node33 -->
<g id="node2" class="node"><title>Node33</title>
<g id="a_node2"><a xlink:href="a00173.html#ab06911b71a6e285ceb52bb80b6592e79" target="_top" xlink:title="Bnd2WayBalance">
<polygon fill="white" stroke="black" points="130,-76.5 130,-95.5 226,-95.5 226,-76.5 130,-76.5"/>
<text text-anchor="middle" x="178" y="-83.5" font-family="Helvetica,sans-Serif" font-size="10.00">Bnd2WayBalance</text>
</a>
</g>
</g>
<!-- Node32&#45;&gt;Node33 -->
<g id="edge1" class="edge"><title>Node32&#45;&gt;Node33</title>
<path fill="none" stroke="midnightblue" d="M74.5709,-57.589C92.1752,-62.4719 113.779,-68.4643 132.601,-73.685"/>
<polygon fill="midnightblue" stroke="midnightblue" points="131.868,-77.1138 142.44,-76.4141 133.739,-70.3685 131.868,-77.1138"/>
</g>
<!-- Node34 -->
<g id="node3" class="node"><title>Node34</title>
<g id="a_node3"><a xlink:href="a00173.html#a726f3ab2e1dbf55fcf3c6a31037542f5" target="_top" xlink:title="General2WayBalance">
<polygon fill="white" stroke="black" points="121,-38.5 121,-57.5 235,-57.5 235,-38.5 121,-38.5"/>
<text text-anchor="middle" x="178" y="-45.5" font-family="Helvetica,sans-Serif" font-size="10.00">General2WayBalance</text>
</a>
</g>
</g>
<!-- Node32&#45;&gt;Node34 -->
<g id="edge2" class="edge"><title>Node32&#45;&gt;Node34</title>
<path fill="none" stroke="midnightblue" d="M78.1621,-48C88.2853,-48 99.5162,-48 110.67,-48"/>
<polygon fill="midnightblue" stroke="midnightblue" points="110.858,-51.5001 120.858,-48 110.858,-44.5001 110.858,-51.5001"/>
</g>
<!-- Node35 -->
<g id="node4" class="node"><title>Node35</title>
<g id="a_node4"><a xlink:href="a00173.html#a765ccbdaa41401e55a2b6d350964f289" target="_top" xlink:title="McGeneral2WayBalance">
<polygon fill="white" stroke="black" points="114.5,-0.5 114.5,-19.5 241.5,-19.5 241.5,-0.5 114.5,-0.5"/>
<text text-anchor="middle" x="178" y="-7.5" font-family="Helvetica,sans-Serif" font-size="10.00">McGeneral2WayBalance</text>
</a>
</g>
</g>
<!-- Node32&#45;&gt;Node35 -->
<g id="edge3" class="edge"><title>Node32&#45;&gt;Node35</title>
<path fill="none" stroke="midnightblue" d="M74.5709,-38.411C92.1752,-33.5281 113.779,-27.5357 132.601,-22.315"/>
<polygon fill="midnightblue" stroke="midnightblue" points="133.739,-25.6315 142.44,-19.5859 131.868,-18.8862 133.739,-25.6315"/>
</g>
</g>
</svg>
