<?xml version="1.0" encoding="UTF-8" standalone="no"?>
<!DOCTYPE svg PUBLIC "-//W3C//DTD SVG 1.1//EN"
 "http://www.w3.org/Graphics/SVG/1.1/DTD/svg11.dtd">
<!-- Generated by graphviz version 2.36.0 (20140111.2315)
 -->
<!-- Title: METIS_MeshToNodal Pages: 1 -->
<svg width="356pt" height="66pt"
 viewBox="0.00 0.00 356.00 66.00" xmlns="http://www.w3.org/2000/svg" xmlns:xlink="http://www.w3.org/1999/xlink">
<g id="graph0" class="graph" transform="scale(1 1) rotate(0) translate(4 62)">
<title>METIS_MeshToNodal</title>
<polygon fill="white" stroke="none" points="-4,4 -4,-62 352,-62 352,4 -4,4"/>
<!-- Node67 -->
<g id="node1" class="node"><title>Node67</title>
<polygon fill="#bfbfbf" stroke="black" points="0.5,-19.5 0.5,-38.5 115.5,-38.5 115.5,-19.5 0.5,-19.5"/>
<text text-anchor="middle" x="58" y="-26.5" font-family="Helvetica,sans-Serif" font-size="10.00">METIS_MeshToNodal</text>
</g>
<!-- Node68 -->
<g id="node2" class="node"><title>Node68</title>
<g id="a_node2"><a xlink:href="a00236.html#ade1e7e23ad687989a6343b4fb8d61ba7" target="_top" xlink:title="METIS_PartMeshNodal">
<polygon fill="white" stroke="black" points="152,-38.5 152,-57.5 274,-57.5 274,-38.5 152,-38.5"/>
<text text-anchor="middle" x="213" y="-45.5" font-family="Helvetica,sans-Serif" font-size="10.00">METIS_PartMeshNodal</text>
</a>
</g>
</g>
<!-- Node67&#45;&gt;Node68 -->
<g id="edge1" class="edge"><title>Node67&#45;&gt;Node68</title>
<path fill="none" stroke="midnightblue" d="M125.655,-37.2775C134.366,-38.3592 143.25,-39.4624 151.845,-40.5298"/>
<polygon fill="midnightblue" stroke="midnightblue" points="125.892,-33.78 115.537,-36.0209 125.029,-40.7267 125.892,-33.78"/>
</g>
<!-- Node70 -->
<g id="node4" class="node"><title>Node70</title>
<g id="a_node4"><a xlink:href="a00317.html#a0ddf1224851353fc92bfbff6f499fa97" target="_top" xlink:title="main">
<polygon fill="white" stroke="black" points="194,-0.5 194,-19.5 232,-19.5 232,-0.5 194,-0.5"/>
<text text-anchor="middle" x="213" y="-7.5" font-family="Helvetica,sans-Serif" font-size="10.00">main</text>
</a>
</g>
</g>
<!-- Node67&#45;&gt;Node70 -->
<g id="edge3" class="edge"><title>Node67&#45;&gt;Node70</title>
<path fill="none" stroke="midnightblue" d="M125.692,-20.718C150.522,-17.6345 176.754,-14.377 193.689,-12.2739"/>
<polygon fill="midnightblue" stroke="midnightblue" points="125.029,-17.2733 115.537,-21.9791 125.892,-24.22 125.029,-17.2733"/>
</g>
<!-- Node69 -->
<g id="node3" class="node"><title>Node69</title>
<g id="a_node3"><a xlink:href="a00323.html#a0ddf1224851353fc92bfbff6f499fa97" target="_top" xlink:title="main">
<polygon fill="white" stroke="black" points="310,-38.5 310,-57.5 348,-57.5 348,-38.5 310,-38.5"/>
<text text-anchor="middle" x="329" y="-45.5" font-family="Helvetica,sans-Serif" font-size="10.00">main</text>
</a>
</g>
</g>
<!-- Node68&#45;&gt;Node69 -->
<g id="edge2" class="edge"><title>Node68&#45;&gt;Node69</title>
<path fill="none" stroke="midnightblue" d="M284.038,-48C293.534,-48 302.52,-48 309.864,-48"/>
<polygon fill="midnightblue" stroke="midnightblue" points="284.005,-44.5001 274.005,-48 284.005,-51.5001 284.005,-44.5001"/>
</g>
</g>
</svg>
