<?xml version="1.0" encoding="UTF-8" standalone="no"?>
<!DOCTYPE svg PUBLIC "-//W3C//DTD SVG 1.1//EN"
 "http://www.w3.org/Graphics/SVG/1.1/DTD/svg11.dtd">
<!-- Generated by graphviz version 2.36.0 (20140111.2315)
 -->
<!-- Title: ProjectKWayPartition Pages: 1 -->
<!--zoomable 182 -->
<svg id="main" version="1.1" xmlns="http://www.w3.org/2000/svg" xmlns:xlink="http://www.w3.org/1999/xlink" xml:space="preserve" onload="init(evt)">
<style type="text/css"><![CDATA[
.edge:hover path { stroke: red; }
.edge:hover polygon { stroke: red; fill: red; }
]]></style>
<script type="text/javascript"><![CDATA[
var edges = document.getElementsByTagName('g');
if (edges && edges.length) {
  for (var i=0;i<edges.length;i++) {
    if (edges[i].id.substr(0,4)=='edge') {
      edges[i].setAttribute('class','edge');
    }
  }
}
]]></script>
        <defs>
                <circle id="rim" cx="0" cy="0" r="7"/>
                <circle id="rim2" cx="0" cy="0" r="3.5"/>
                <g id="zoomPlus">
                        <use xlink:href="#rim" fill="#404040">
                                <set attributeName="fill" to="#808080" begin="zoomplus.mouseover" end="zoomplus.mouseout"/>
                        </use>
                        <path d="M-4,0h8M0,-4v8" fill="none" stroke="white" stroke-width="1.5" pointer-events="none"/>
                </g>
                <g id="zoomMin">
                        <use xlink:href="#rim" fill="#404040">
                                <set attributeName="fill" to="#808080" begin="zoomminus.mouseover" end="zoomminus.mouseout"/>
                        </use>
                        <path d="M-4,0h8" fill="none" stroke="white" stroke-width="1.5" pointer-events="none"/>
                </g>
                <g id="dirArrow">
                        <path fill="none" stroke="white" stroke-width="1.5" d="M0,-3.0v7 M-2.5,-0.5L0,-3.0L2.5,-0.5"/>
                </g>
               <g id="resetDef">
                       <use xlink:href="#rim2" fill="#404040">
                               <set attributeName="fill" to="#808080" begin="reset.mouseover" end="reset.mouseout"/>
                       </use>
               </g>
        </defs>

<script type="text/javascript">
var viewWidth = 648;
var viewHeight = 182;
var sectionId = 'dynsection-141';
</script>
<script xlink:href="svgpan.js"/>
<svg id="graph" class="graph">
<g id="viewport">
<title>ProjectKWayPartition</title>
<polygon fill="white" stroke="none" points="-4,4 -4,-177.901 644,-177.901 644,4 -4,4"/>
<!-- Node842 -->
<g id="node1" class="node"><title>Node842</title>
<polygon fill="#bfbfbf" stroke="black" points="0.5,-38.5 0.5,-57.5 111.5,-57.5 111.5,-38.5 0.5,-38.5"/>
<text text-anchor="middle" x="56" y="-45.5" font-family="Helvetica,sans-Serif" font-size="10.00">ProjectKWayPartition</text>
</g>
<!-- Node843 -->
<g id="node2" class="node"><title>Node843</title>
<g id="a_node2"><a xlink:href="a00918.html#a22a23a687ef7ed0d4f66ab58e3a81d12" target="_top" xlink:title="AllocateKWayPartitionMemory">
<polygon fill="white" stroke="black" points="148,-76.5 148,-95.5 300,-95.5 300,-76.5 148,-76.5"/>
<text text-anchor="middle" x="224" y="-83.5" font-family="Helvetica,sans-Serif" font-size="10.00">AllocateKWayPartitionMemory</text>
</a>
</g>
</g>
<!-- Node842&#45;&gt;Node843 -->
<g id="edge1" class="edge"><title>Node842&#45;&gt;Node843</title>
<path fill="none" stroke="midnightblue" d="M98.8888,-57.589C120.893,-62.6261 148.055,-68.8438 171.352,-74.1771"/>
<polygon fill="midnightblue" stroke="midnightblue" points="170.884,-77.6602 181.412,-76.4799 172.446,-70.8367 170.884,-77.6602"/>
</g>
<!-- Node848 -->
<g id="node7" class="node"><title>Node848</title>
<g id="a_node7"><a xlink:href="a00026.html#a4c320c13bcdc9967613253ef4c73f59f" target="_top" xlink:title="gk_errexit">
<polygon fill="white" stroke="black" points="468,-57.5 468,-76.5 528,-76.5 528,-57.5 468,-57.5"/>
<text text-anchor="middle" x="498" y="-64.5" font-family="Helvetica,sans-Serif" font-size="10.00">gk_errexit</text>
</a>
</g>
</g>
<!-- Node842&#45;&gt;Node848 -->
<g id="edge10" class="edge"><title>Node842&#45;&gt;Node848</title>
<path fill="none" stroke="midnightblue" d="M111.837,-50.3679C201.826,-54.2538 378.698,-61.8915 457.499,-65.2943"/>
<polygon fill="midnightblue" stroke="midnightblue" points="457.807,-68.8107 467.948,-65.7455 458.109,-61.8172 457.807,-68.8107"/>
</g>
<!-- Node849 -->
<g id="node8" class="node"><title>Node849</title>
<g id="a_node8"><a xlink:href="a00918.html#acd248e19a1ba82c235d52479e231e2f7" target="_top" xlink:title="ComputeKWayVolGains">
<polygon fill="white" stroke="black" points="162,-0.5 162,-19.5 286,-19.5 286,-0.5 162,-0.5"/>
<text text-anchor="middle" x="224" y="-7.5" font-family="Helvetica,sans-Serif" font-size="10.00">ComputeKWayVolGains</text>
</a>
</g>
</g>
<!-- Node842&#45;&gt;Node849 -->
<g id="edge9" class="edge"><title>Node842&#45;&gt;Node849</title>
<path fill="none" stroke="midnightblue" d="M98.8888,-38.411C120.893,-33.3739 148.055,-27.1562 171.352,-21.8229"/>
<polygon fill="midnightblue" stroke="midnightblue" points="172.446,-25.1633 181.412,-19.5201 170.884,-18.3398 172.446,-25.1633"/>
</g>
<!-- Node844 -->
<g id="node3" class="node"><title>Node844</title>
<g id="a_node3"><a xlink:href="a00077.html#aba6f76f5c67b9b7e9c2e45988d3d3e9d" target="_top" xlink:title="gk_malloc">
<polygon fill="white" stroke="black" points="336,-114.5 336,-133.5 398,-133.5 398,-114.5 336,-114.5"/>
<text text-anchor="middle" x="367" y="-121.5" font-family="Helvetica,sans-Serif" font-size="10.00">gk_malloc</text>
</a>
</g>
</g>
<!-- Node843&#45;&gt;Node844 -->
<g id="edge2" class="edge"><title>Node843&#45;&gt;Node844</title>
<path fill="none" stroke="midnightblue" d="M260.58,-95.589C280.491,-100.955 305.374,-107.661 325.964,-113.21"/>
<polygon fill="midnightblue" stroke="midnightblue" points="325.121,-116.608 335.687,-115.831 326.942,-109.849 325.121,-116.608"/>
</g>
<!-- Node843&#45;&gt;Node848 -->
<g id="edge8" class="edge"><title>Node843&#45;&gt;Node848</title>
<path fill="none" stroke="midnightblue" d="M300.045,-80.7579C351.108,-77.191 416.626,-72.6143 457.723,-69.7436"/>
<polygon fill="midnightblue" stroke="midnightblue" points="458.142,-73.2229 467.874,-69.0345 457.654,-66.24 458.142,-73.2229"/>
</g>
<!-- Node845 -->
<g id="node4" class="node"><title>Node845</title>
<g id="a_node4"><a xlink:href="a01017.html#a2e311a777ffe9c80e405efa7cd2757be" target="_top" xlink:title="fprintf">
<polygon fill="white" stroke="black" points="598,-114.5 598,-133.5 640,-133.5 640,-114.5 598,-114.5"/>
<text text-anchor="middle" x="619" y="-121.5" font-family="Helvetica,sans-Serif" font-size="10.00">fprintf</text>
</a>
</g>
</g>
<!-- Node844&#45;&gt;Node845 -->
<g id="edge3" class="edge"><title>Node844&#45;&gt;Node845</title>
<path fill="none" stroke="midnightblue" d="M380.261,-133.719C392.891,-143.059 413.563,-156.537 434,-162 488.959,-176.691 507.62,-178.709 562,-162 576.039,-157.686 589.719,-148.525 600.044,-140.279"/>
<polygon fill="midnightblue" stroke="midnightblue" points="602.469,-142.813 607.862,-133.694 597.959,-137.46 602.469,-142.813"/>
</g>
<!-- Node846 -->
<g id="node5" class="node"><title>Node846</title>
<g id="a_node5"><a xlink:href="a00110.html#ad2327b94227019b6753b6b09400c0522" target="_top" xlink:title="gk_GetCurMemoryUsed">
<polygon fill="white" stroke="black" points="436,-133.5 436,-152.5 560,-152.5 560,-133.5 436,-133.5"/>
<text text-anchor="middle" x="498" y="-140.5" font-family="Helvetica,sans-Serif" font-size="10.00">gk_GetCurMemoryUsed</text>
</a>
</g>
</g>
<!-- Node844&#45;&gt;Node846 -->
<g id="edge4" class="edge"><title>Node844&#45;&gt;Node846</title>
<path fill="none" stroke="midnightblue" d="M398.245,-128.455C406.646,-129.692 416.139,-131.09 425.836,-132.518"/>
<polygon fill="midnightblue" stroke="midnightblue" points="425.573,-136.017 435.977,-134.012 426.593,-129.092 425.573,-136.017"/>
</g>
<!-- Node847 -->
<g id="node6" class="node"><title>Node847</title>
<g id="a_node6"><a xlink:href="a00110.html#a656fd5266ae12a96e53125486f8fea52" target="_top" xlink:title="gk_GetMaxMemoryUsed">
<polygon fill="white" stroke="black" points="434.5,-95.5 434.5,-114.5 561.5,-114.5 561.5,-95.5 434.5,-95.5"/>
<text text-anchor="middle" x="498" y="-102.5" font-family="Helvetica,sans-Serif" font-size="10.00">gk_GetMaxMemoryUsed</text>
</a>
</g>
</g>
<!-- Node844&#45;&gt;Node847 -->
<g id="edge5" class="edge"><title>Node844&#45;&gt;Node847</title>
<path fill="none" stroke="midnightblue" d="M398.245,-119.545C406.229,-118.369 415.2,-117.048 424.395,-115.694"/>
<polygon fill="midnightblue" stroke="midnightblue" points="425.04,-119.137 434.423,-114.217 424.02,-112.211 425.04,-119.137"/>
</g>
<!-- Node844&#45;&gt;Node848 -->
<g id="edge6" class="edge"><title>Node844&#45;&gt;Node848</title>
<path fill="none" stroke="midnightblue" d="M382.436,-114.391C395.481,-106.027 415.428,-94.0202 434,-86 441.68,-82.6834 450.121,-79.7096 458.259,-77.1539"/>
<polygon fill="midnightblue" stroke="midnightblue" points="459.388,-80.4695 467.965,-74.2488 457.381,-73.7634 459.388,-80.4695"/>
</g>
<!-- Node848&#45;&gt;Node845 -->
<g id="edge7" class="edge"><title>Node848&#45;&gt;Node845</title>
<path fill="none" stroke="midnightblue" d="M528.228,-73.8252C539.104,-76.8755 551.377,-80.9396 562,-86 574.634,-92.0184 587.634,-100.663 597.925,-108.186"/>
<polygon fill="midnightblue" stroke="midnightblue" points="596.101,-111.194 606.194,-114.415 600.313,-105.603 596.101,-111.194"/>
</g>
</g>
</svg>
        <g id="navigator" transform="translate(0 0)" fill="#404254">
                <rect fill="#f2f5e9" fill-opacity="0.5" stroke="#606060" stroke-width=".5" x="0" y="0" width="60" height="60"/>
                <use id="zoomplus" xlink:href="#zoomPlus" x="17" y="9" onmousedown="handleZoom(evt,'in')"/>
                <use id="zoomminus" xlink:href="#zoomMin" x="42" y="9" onmousedown="handleZoom(evt,'out')"/>
                <use id="reset" xlink:href="#resetDef" x="30" y="36" onmousedown="handleReset()"/>
                <g id="arrowUp" xlink:href="#dirArrow" transform="translate(30 24)" onmousedown="handlePan(0,-1)">
                  <use xlink:href="#rim" fill="#404040">
                        <set attributeName="fill" to="#808080" begin="arrowUp.mouseover" end="arrowUp.mouseout"/>
                  </use>
                  <path fill="none" stroke="white" stroke-width="1.5" d="M0,-3.0v7 M-2.5,-0.5L0,-3.0L2.5,-0.5"/>
                </g>
                <g id="arrowRight" xlink:href="#dirArrow" transform="rotate(90) translate(36 -43)" onmousedown="handlePan(1,0)">
                  <use xlink:href="#rim" fill="#404040">
                        <set attributeName="fill" to="#808080" begin="arrowRight.mouseover" end="arrowRight.mouseout"/>
                  </use>
                  <path fill="none" stroke="white" stroke-width="1.5" d="M0,-3.0v7 M-2.5,-0.5L0,-3.0L2.5,-0.5"/>
                </g>
                <g id="arrowDown" xlink:href="#dirArrow" transform="rotate(180) translate(-30 -48)" onmousedown="handlePan(0,1)">
                  <use xlink:href="#rim" fill="#404040">
                        <set attributeName="fill" to="#808080" begin="arrowDown.mouseover" end="arrowDown.mouseout"/>
                  </use>
                  <path fill="none" stroke="white" stroke-width="1.5" d="M0,-3.0v7 M-2.5,-0.5L0,-3.0L2.5,-0.5"/>
                </g>
                <g id="arrowLeft" xlink:href="#dirArrow" transform="rotate(270) translate(-36 17)" onmousedown="handlePan(-1,0)">
                  <use xlink:href="#rim" fill="#404040">
                        <set attributeName="fill" to="#808080" begin="arrowLeft.mouseover" end="arrowLeft.mouseout"/>
                  </use>
                  <path fill="none" stroke="white" stroke-width="1.5" d="M0,-3.0v7 M-2.5,-0.5L0,-3.0L2.5,-0.5"/>
                </g>
        </g>
        <svg viewBox="0 0 15 15" width="100%" height="30px" preserveAspectRatio="xMaxYMin meet">
         <g id="arrow_out" transform="scale(0.3 0.3)">
          <a xlink:href="a00948_a974cb62c010e195c90f8fb900359957c_cgraph_org.svg" target="_base">
           <rect id="button" ry="5" rx="5" y="6" x="6" height="38" width="38"
                fill="#f2f5e9" fill-opacity="0.5" stroke="#606060" stroke-width="1.0"/>
           <path id="arrow"
             d="M 11.500037,31.436501 C 11.940474,20.09759 22.043105,11.32322 32.158766,21.979434 L 37.068811,17.246167 C 37.068811,17.246167 37.088388,32 37.088388,32 L 22.160133,31.978069 C 22.160133,31.978069 26.997745,27.140456 26.997745,27.140456 C 18.528582,18.264221 13.291696,25.230495 11.500037,31.436501 z"
             style="fill:#404040;"/>
          </a>
         </g>
        </svg>
</svg>
