<?xml version="1.0" encoding="UTF-8" standalone="no"?>
<!DOCTYPE svg PUBLIC "-//W3C//DTD SVG 1.1//EN"
 "http://www.w3.org/Graphics/SVG/1.1/DTD/svg11.dtd">
<!-- Generated by graphviz version 2.36.0 (20140111.2315)
 -->
<!-- Title: METIS_PartGraphKway Pages: 1 -->
<svg width="398pt" height="294pt"
 viewBox="0.00 0.00 398.00 294.00" xmlns="http://www.w3.org/2000/svg" xmlns:xlink="http://www.w3.org/1999/xlink">
<g id="graph0" class="graph" transform="scale(1 1) rotate(0) translate(4 290)">
<title>METIS_PartGraphKway</title>
<polygon fill="white" stroke="none" points="-4,4 -4,-290 394,-290 394,4 -4,4"/>
<!-- Node41 -->
<g id="node1" class="node"><title>Node41</title>
<polygon fill="#bfbfbf" stroke="black" points="0.5,-133.5 0.5,-152.5 123.5,-152.5 123.5,-133.5 0.5,-133.5"/>
<text text-anchor="middle" x="62" y="-140.5" font-family="Helvetica,sans-Serif" font-size="10.00">METIS_PartGraphKway</text>
</g>
<!-- Node42 -->
<g id="node2" class="node"><title>Node42</title>
<g id="a_node2"><a xlink:href="a00846.html#a6df93293cf3d1ccb4659bd1b3091623d" target="_top" xlink:title="ParMETIS_V3_PartGeomKway">
<polygon fill="white" stroke="black" points="160,-266.5 160,-285.5 316,-285.5 316,-266.5 160,-266.5"/>
<text text-anchor="middle" x="238" y="-273.5" font-family="Helvetica,sans-Serif" font-size="10.00">ParMETIS_V3_PartGeomKway</text>
</a>
</g>
</g>
<!-- Node41&#45;&gt;Node42 -->
<g id="edge1" class="edge"><title>Node41&#45;&gt;Node42</title>
<path fill="none" stroke="midnightblue" d="M73.5105,-161.425C89.0494,-186.942 120.608,-232.639 160,-257 166.324,-260.911 173.406,-264.017 180.645,-266.484"/>
<polygon fill="midnightblue" stroke="midnightblue" points="76.4631,-159.542 68.3565,-152.721 70.4397,-163.109 76.4631,-159.542"/>
</g>
<!-- Node43 -->
<g id="node3" class="node"><title>Node43</title>
<g id="a_node3"><a xlink:href="a00954.html#aa24ead3c2c8fb3e58110f1f79453ce29" target="_top" xlink:title="Balance_Partition">
<polygon fill="white" stroke="black" points="190.5,-228.5 190.5,-247.5 285.5,-247.5 285.5,-228.5 190.5,-228.5"/>
<text text-anchor="middle" x="238" y="-235.5" font-family="Helvetica,sans-Serif" font-size="10.00">Balance_Partition</text>
</a>
</g>
</g>
<!-- Node41&#45;&gt;Node43 -->
<g id="edge2" class="edge"><title>Node41&#45;&gt;Node43</title>
<path fill="none" stroke="midnightblue" d="M79.6805,-159.747C97.8853,-177.084 128.644,-203.727 160,-219 169.408,-223.582 180.016,-227.119 190.283,-229.826"/>
<polygon fill="midnightblue" stroke="midnightblue" points="81.8506,-156.975 72.2424,-152.51 76.9693,-161.992 81.8506,-156.975"/>
</g>
<!-- Node44 -->
<g id="node4" class="node"><title>Node44</title>
<g id="a_node4"><a xlink:href="a00416.html#af4fae82dc1fc688ae704c61e647d33e4" target="_top" xlink:title="PartitionSmallGraph">
<polygon fill="white" stroke="black" points="185,-190.5 185,-209.5 291,-209.5 291,-190.5 185,-190.5"/>
<text text-anchor="middle" x="238" y="-197.5" font-family="Helvetica,sans-Serif" font-size="10.00">PartitionSmallGraph</text>
</a>
</g>
</g>
<!-- Node41&#45;&gt;Node44 -->
<g id="edge3" class="edge"><title>Node41&#45;&gt;Node44</title>
<path fill="none" stroke="midnightblue" d="M94.3232,-156.482C113.141,-164.276 137.689,-173.911 160,-181 170.892,-184.461 182.815,-187.675 193.956,-190.438"/>
<polygon fill="midnightblue" stroke="midnightblue" points="95.6227,-153.232 85.0469,-152.597 92.9187,-159.688 95.6227,-153.232"/>
</g>
<!-- Node45 -->
<g id="node5" class="node"><title>Node45</title>
<g id="a_node5"><a xlink:href="a00954.html#a5358042c354702d9e8128f7cc342a322" target="_top" xlink:title="InitPartition">
<polygon fill="white" stroke="black" points="204.5,-152.5 204.5,-171.5 271.5,-171.5 271.5,-152.5 204.5,-152.5"/>
<text text-anchor="middle" x="238" y="-159.5" font-family="Helvetica,sans-Serif" font-size="10.00">InitPartition</text>
</a>
</g>
</g>
<!-- Node41&#45;&gt;Node45 -->
<g id="edge4" class="edge"><title>Node41&#45;&gt;Node45</title>
<path fill="none" stroke="midnightblue" d="M133.825,-150.734C158.236,-153.399 184.409,-156.257 204.285,-158.428"/>
<polygon fill="midnightblue" stroke="midnightblue" points="134.178,-147.252 123.857,-149.645 133.418,-154.21 134.178,-147.252"/>
</g>
<!-- Node46 -->
<g id="node6" class="node"><title>Node46</title>
<g id="a_node6"><a xlink:href="a00846.html#af418d1e76eaf4f80116da4caf51bd54e" target="_top" xlink:title="ParMETIS_V3_PartKway">
<polygon fill="white" stroke="black" points="173.5,-114.5 173.5,-133.5 302.5,-133.5 302.5,-114.5 173.5,-114.5"/>
<text text-anchor="middle" x="238" y="-121.5" font-family="Helvetica,sans-Serif" font-size="10.00">ParMETIS_V3_PartKway</text>
</a>
</g>
</g>
<!-- Node41&#45;&gt;Node46 -->
<g id="edge5" class="edge"><title>Node41&#45;&gt;Node46</title>
<path fill="none" stroke="midnightblue" d="M134.116,-135.235C147.066,-133.82 160.502,-132.353 173.224,-130.964"/>
<polygon fill="midnightblue" stroke="midnightblue" points="133.418,-131.79 123.857,-136.355 134.178,-138.748 133.418,-131.79"/>
</g>
<!-- Node47 -->
<g id="node7" class="node"><title>Node47</title>
<g id="a_node7"><a xlink:href="a00236.html#ade1e7e23ad687989a6343b4fb8d61ba7" target="_top" xlink:title="METIS_PartMeshNodal">
<polygon fill="white" stroke="black" points="177,-76.5 177,-95.5 299,-95.5 299,-76.5 177,-76.5"/>
<text text-anchor="middle" x="238" y="-83.5" font-family="Helvetica,sans-Serif" font-size="10.00">METIS_PartMeshNodal</text>
</a>
</g>
</g>
<!-- Node41&#45;&gt;Node47 -->
<g id="edge6" class="edge"><title>Node41&#45;&gt;Node47</title>
<path fill="none" stroke="midnightblue" d="M94.3232,-129.518C113.141,-121.724 137.689,-112.089 160,-105 170.892,-101.539 182.815,-98.3254 193.956,-95.5621"/>
<polygon fill="midnightblue" stroke="midnightblue" points="92.9187,-126.312 85.0469,-133.403 95.6227,-132.768 92.9187,-126.312"/>
</g>
<!-- Node49 -->
<g id="node9" class="node"><title>Node49</title>
<g id="a_node9"><a xlink:href="a00236.html#a8f496ac1cd2246b124da246b5c6f9193" target="_top" xlink:title="METIS_PartMeshDual">
<polygon fill="white" stroke="black" points="180,-38.5 180,-57.5 296,-57.5 296,-38.5 180,-38.5"/>
<text text-anchor="middle" x="238" y="-45.5" font-family="Helvetica,sans-Serif" font-size="10.00">METIS_PartMeshDual</text>
</a>
</g>
</g>
<!-- Node41&#45;&gt;Node49 -->
<g id="edge8" class="edge"><title>Node41&#45;&gt;Node49</title>
<path fill="none" stroke="midnightblue" d="M79.6805,-126.253C97.8853,-108.916 128.644,-82.2732 160,-67 167.922,-63.1412 176.696,-60.0242 185.4,-57.5194"/>
<polygon fill="midnightblue" stroke="midnightblue" points="76.9693,-124.008 72.2424,-133.49 81.8506,-129.025 76.9693,-124.008"/>
</g>
<!-- Node50 -->
<g id="node10" class="node"><title>Node50</title>
<g id="a_node10"><a xlink:href="a00311.html#a0ddf1224851353fc92bfbff6f499fa97" target="_top" xlink:title="main">
<polygon fill="white" stroke="black" points="219,-0.5 219,-19.5 257,-19.5 257,-0.5 219,-0.5"/>
<text text-anchor="middle" x="238" y="-7.5" font-family="Helvetica,sans-Serif" font-size="10.00">main</text>
</a>
</g>
</g>
<!-- Node41&#45;&gt;Node50 -->
<g id="edge10" class="edge"><title>Node41&#45;&gt;Node50</title>
<path fill="none" stroke="midnightblue" d="M73.5105,-124.575C89.0494,-99.0583 120.608,-53.3609 160,-29 178.151,-17.7747 202.55,-13.1773 218.977,-11.2969"/>
<polygon fill="midnightblue" stroke="midnightblue" points="70.4397,-122.891 68.3565,-133.279 76.4631,-126.458 70.4397,-122.891"/>
</g>
<!-- Node48 -->
<g id="node8" class="node"><title>Node48</title>
<g id="a_node8"><a xlink:href="a00323.html#a0ddf1224851353fc92bfbff6f499fa97" target="_top" xlink:title="main">
<polygon fill="white" stroke="black" points="352,-57.5 352,-76.5 390,-76.5 390,-57.5 352,-57.5"/>
<text text-anchor="middle" x="371" y="-64.5" font-family="Helvetica,sans-Serif" font-size="10.00">main</text>
</a>
</g>
</g>
<!-- Node47&#45;&gt;Node48 -->
<g id="edge7" class="edge"><title>Node47&#45;&gt;Node48</title>
<path fill="none" stroke="midnightblue" d="M309.451,-75.7819C325.128,-73.5082 340.424,-71.2896 351.72,-69.6512"/>
<polygon fill="midnightblue" stroke="midnightblue" points="308.526,-72.3793 299.132,-77.2785 309.531,-79.3068 308.526,-72.3793"/>
</g>
<!-- Node49&#45;&gt;Node48 -->
<g id="edge9" class="edge"><title>Node49&#45;&gt;Node48</title>
<path fill="none" stroke="midnightblue" d="M306.039,-57.7233C322.991,-60.1818 339.804,-62.6204 351.935,-64.3799"/>
<polygon fill="midnightblue" stroke="midnightblue" points="306.476,-54.2501 296.077,-56.2784 305.471,-61.1776 306.476,-54.2501"/>
</g>
</g>
</svg>
