<?xml version="1.0" encoding="UTF-8" standalone="no"?>
<!DOCTYPE svg PUBLIC "-//W3C//DTD SVG 1.1//EN"
 "http://www.w3.org/Graphics/SVG/1.1/DTD/svg11.dtd">
<!-- Generated by graphviz version 2.36.0 (20140111.2315)
 -->
<!-- Title: FreeWorkSpace Pages: 1 -->
<svg width="316pt" height="47pt"
 viewBox="0.00 0.00 316.00 47.00" xmlns="http://www.w3.org/2000/svg" xmlns:xlink="http://www.w3.org/1999/xlink">
<g id="graph0" class="graph" transform="scale(1 1) rotate(0) translate(4 43)">
<title>FreeWorkSpace</title>
<polygon fill="white" stroke="none" points="-4,4 -4,-43 312,-43 312,4 -4,4"/>
<!-- Node329 -->
<g id="node1" class="node"><title>Node329</title>
<polygon fill="#bfbfbf" stroke="black" points="0.5,-0.5 0.5,-19.5 89.5,-19.5 89.5,-0.5 0.5,-0.5"/>
<text text-anchor="middle" x="45" y="-7.5" font-family="Helvetica,sans-Serif" font-size="10.00">FreeWorkSpace</text>
</g>
<!-- Node330 -->
<g id="node2" class="node"><title>Node330</title>
<g id="a_node2"><a xlink:href="a00077.html#acecd8b70b01b2b365695f034967c9536" target="_top" xlink:title="gk_mcoreDestroy">
<polygon fill="white" stroke="black" points="126.5,-19.5 126.5,-38.5 221.5,-38.5 221.5,-19.5 126.5,-19.5"/>
<text text-anchor="middle" x="174" y="-26.5" font-family="Helvetica,sans-Serif" font-size="10.00">gk_mcoreDestroy</text>
</a>
</g>
</g>
<!-- Node329&#45;&gt;Node330 -->
<g id="edge1" class="edge"><title>Node329&#45;&gt;Node330</title>
<path fill="none" stroke="midnightblue" d="M89.7062,-16.5387C98.2558,-17.8178 107.337,-19.1764 116.24,-20.5084"/>
<polygon fill="midnightblue" stroke="midnightblue" points="115.77,-23.9769 126.178,-21.9951 116.806,-17.0539 115.77,-23.9769"/>
</g>
<!-- Node331 -->
<g id="node3" class="node"><title>Node331</title>
<g id="a_node3"><a xlink:href="a00077.html#ac8df62c4e3d0910711a9874f9cc58884" target="_top" xlink:title="gk_free">
<polygon fill="white" stroke="black" points="258,-0.5 258,-19.5 308,-19.5 308,-0.5 258,-0.5"/>
<text text-anchor="middle" x="283" y="-7.5" font-family="Helvetica,sans-Serif" font-size="10.00">gk_free</text>
</a>
</g>
</g>
<!-- Node329&#45;&gt;Node331 -->
<g id="edge3" class="edge"><title>Node329&#45;&gt;Node331</title>
<path fill="none" stroke="midnightblue" d="M89.5611,-10C135.139,-10 205.759,-10 247.584,-10"/>
<polygon fill="midnightblue" stroke="midnightblue" points="247.817,-13.5001 257.817,-10 247.817,-6.5001 247.817,-13.5001"/>
</g>
<!-- Node330&#45;&gt;Node331 -->
<g id="edge2" class="edge"><title>Node330&#45;&gt;Node331</title>
<path fill="none" stroke="midnightblue" d="M221.62,-20.7216C230.411,-19.1606 239.454,-17.5549 247.778,-16.0768"/>
<polygon fill="midnightblue" stroke="midnightblue" points="248.63,-19.4803 257.864,-14.2858 247.406,-12.5881 248.63,-19.4803"/>
</g>
</g>
</svg>
