<?xml version="1.0" encoding="UTF-8" standalone="no"?>
<!DOCTYPE svg PUBLIC "-//W3C//DTD SVG 1.1//EN"
 "http://www.w3.org/Graphics/SVG/1.1/DTD/svg11.dtd">
<!-- Generated by graphviz version 2.36.0 (20140111.2315)
 -->
<!-- Title: FreeWSpace Pages: 1 -->
<svg width="302pt" height="47pt"
 viewBox="0.00 0.00 302.00 47.00" xmlns="http://www.w3.org/2000/svg" xmlns:xlink="http://www.w3.org/1999/xlink">
<g id="graph0" class="graph" transform="scale(1 1) rotate(0) translate(4 43)">
<title>FreeWSpace</title>
<polygon fill="white" stroke="none" points="-4,4 -4,-43 298,-43 298,4 -4,4"/>
<!-- Node20 -->
<g id="node1" class="node"><title>Node20</title>
<polygon fill="#bfbfbf" stroke="black" points="0.5,-0.5 0.5,-19.5 75.5,-19.5 75.5,-0.5 0.5,-0.5"/>
<text text-anchor="middle" x="38" y="-7.5" font-family="Helvetica,sans-Serif" font-size="10.00">FreeWSpace</text>
</g>
<!-- Node21 -->
<g id="node2" class="node"><title>Node21</title>
<g id="a_node2"><a xlink:href="a00077.html#acecd8b70b01b2b365695f034967c9536" target="_top" xlink:title="gk_mcoreDestroy">
<polygon fill="white" stroke="black" points="112.5,-19.5 112.5,-38.5 207.5,-38.5 207.5,-19.5 112.5,-19.5"/>
<text text-anchor="middle" x="160" y="-26.5" font-family="Helvetica,sans-Serif" font-size="10.00">gk_mcoreDestroy</text>
</a>
</g>
</g>
<!-- Node20&#45;&gt;Node21 -->
<g id="edge1" class="edge"><title>Node20&#45;&gt;Node21</title>
<path fill="none" stroke="midnightblue" d="M75.656,-15.8039C84.0692,-17.136 93.2079,-18.5829 102.248,-20.0143"/>
<polygon fill="midnightblue" stroke="midnightblue" points="101.944,-23.5097 112.369,-21.6167 103.039,-16.5958 101.944,-23.5097"/>
</g>
<!-- Node22 -->
<g id="node3" class="node"><title>Node22</title>
<g id="a_node3"><a xlink:href="a00077.html#ac8df62c4e3d0910711a9874f9cc58884" target="_top" xlink:title="gk_free">
<polygon fill="white" stroke="black" points="244,-0.5 244,-19.5 294,-19.5 294,-0.5 244,-0.5"/>
<text text-anchor="middle" x="269" y="-7.5" font-family="Helvetica,sans-Serif" font-size="10.00">gk_free</text>
</a>
</g>
</g>
<!-- Node20&#45;&gt;Node22 -->
<g id="edge3" class="edge"><title>Node20&#45;&gt;Node22</title>
<path fill="none" stroke="midnightblue" d="M75.5389,-10C119.076,-10 191.253,-10 233.754,-10"/>
<polygon fill="midnightblue" stroke="midnightblue" points="233.885,-13.5001 243.885,-10 233.884,-6.5001 233.885,-13.5001"/>
</g>
<!-- Node21&#45;&gt;Node22 -->
<g id="edge2" class="edge"><title>Node21&#45;&gt;Node22</title>
<path fill="none" stroke="midnightblue" d="M207.62,-20.7216C216.411,-19.1606 225.454,-17.5549 233.778,-16.0768"/>
<polygon fill="midnightblue" stroke="midnightblue" points="234.63,-19.4803 243.864,-14.2858 233.406,-12.5881 234.63,-19.4803"/>
</g>
</g>
</svg>
