<?xml version="1.0" encoding="UTF-8" standalone="no"?>
<!DOCTYPE svg PUBLIC "-//W3C//DTD SVG 1.1//EN"
 "http://www.w3.org/Graphics/SVG/1.1/DTD/svg11.dtd">
<!-- Generated by graphviz version 2.36.0 (20140111.2315)
 -->
<!-- Title: CreateGraphNodal Pages: 1 -->
<svg width="328pt" height="104pt"
 viewBox="0.00 0.00 328.00 104.00" xmlns="http://www.w3.org/2000/svg" xmlns:xlink="http://www.w3.org/1999/xlink">
<g id="graph0" class="graph" transform="scale(1 1) rotate(0) translate(4 100)">
<title>CreateGraphNodal</title>
<polygon fill="white" stroke="none" points="-4,4 -4,-100 324,-100 324,4 -4,4"/>
<!-- Node229 -->
<g id="node1" class="node"><title>Node229</title>
<polygon fill="#bfbfbf" stroke="black" points="0,-38.5 0,-57.5 100,-57.5 100,-38.5 0,-38.5"/>
<text text-anchor="middle" x="50" y="-45.5" font-family="Helvetica,sans-Serif" font-size="10.00">CreateGraphNodal</text>
</g>
<!-- Node230 -->
<g id="node2" class="node"><title>Node230</title>
<g id="a_node2"><a xlink:href="a00026.html#a4c320c13bcdc9967613253ef4c73f59f" target="_top" xlink:title="gk_errexit">
<polygon fill="white" stroke="black" points="159,-76.5 159,-95.5 219,-95.5 219,-76.5 159,-76.5"/>
<text text-anchor="middle" x="189" y="-83.5" font-family="Helvetica,sans-Serif" font-size="10.00">gk_errexit</text>
</a>
</g>
</g>
<!-- Node229&#45;&gt;Node230 -->
<g id="edge1" class="edge"><title>Node229&#45;&gt;Node230</title>
<path fill="none" stroke="midnightblue" d="M85.5709,-57.589C104.965,-62.9684 129.213,-69.6942 149.248,-75.2513"/>
<polygon fill="midnightblue" stroke="midnightblue" points="148.426,-78.6555 158.998,-77.9557 150.297,-71.9101 148.426,-78.6555"/>
</g>
<!-- Node232 -->
<g id="node4" class="node"><title>Node232</title>
<g id="a_node4"><a xlink:href="a00930.html#aa3fb3adf98a0168ead1ff715114ebea1" target="_top" xlink:title="FindCommonNodes">
<polygon fill="white" stroke="black" points="136.5,-38.5 136.5,-57.5 241.5,-57.5 241.5,-38.5 136.5,-38.5"/>
<text text-anchor="middle" x="189" y="-45.5" font-family="Helvetica,sans-Serif" font-size="10.00">FindCommonNodes</text>
</a>
</g>
</g>
<!-- Node229&#45;&gt;Node232 -->
<g id="edge3" class="edge"><title>Node229&#45;&gt;Node232</title>
<path fill="none" stroke="midnightblue" d="M100.073,-48C108.572,-48 117.505,-48 126.288,-48"/>
<polygon fill="midnightblue" stroke="midnightblue" points="126.494,-51.5001 136.494,-48 126.494,-44.5001 126.494,-51.5001"/>
</g>
<!-- Node233 -->
<g id="node5" class="node"><title>Node233</title>
<g id="a_node5"><a xlink:href="a00077.html#ac8df62c4e3d0910711a9874f9cc58884" target="_top" xlink:title="gk_free">
<polygon fill="white" stroke="black" points="164,-0.5 164,-19.5 214,-19.5 214,-0.5 164,-0.5"/>
<text text-anchor="middle" x="189" y="-7.5" font-family="Helvetica,sans-Serif" font-size="10.00">gk_free</text>
</a>
</g>
</g>
<!-- Node229&#45;&gt;Node233 -->
<g id="edge4" class="edge"><title>Node229&#45;&gt;Node233</title>
<path fill="none" stroke="midnightblue" d="M85.5709,-38.411C106.552,-32.5914 133.215,-25.1959 154.077,-19.4092"/>
<polygon fill="midnightblue" stroke="midnightblue" points="155.102,-22.7572 163.803,-16.7116 153.231,-16.0118 155.102,-22.7572"/>
</g>
<!-- Node231 -->
<g id="node3" class="node"><title>Node231</title>
<g id="a_node3"><a xlink:href="a01017.html#a2e311a777ffe9c80e405efa7cd2757be" target="_top" xlink:title="fprintf">
<polygon fill="white" stroke="black" points="278,-76.5 278,-95.5 320,-95.5 320,-76.5 278,-76.5"/>
<text text-anchor="middle" x="299" y="-83.5" font-family="Helvetica,sans-Serif" font-size="10.00">fprintf</text>
</a>
</g>
</g>
<!-- Node230&#45;&gt;Node231 -->
<g id="edge2" class="edge"><title>Node230&#45;&gt;Node231</title>
<path fill="none" stroke="midnightblue" d="M219.226,-86C234.206,-86 252.434,-86 267.581,-86"/>
<polygon fill="midnightblue" stroke="midnightblue" points="267.976,-89.5001 277.976,-86 267.976,-82.5001 267.976,-89.5001"/>
</g>
</g>
</svg>
