<?xml version="1.0" encoding="UTF-8" standalone="no"?>
<!DOCTYPE svg PUBLIC "-//W3C//DTD SVG 1.1//EN"
 "http://www.w3.org/Graphics/SVG/1.1/DTD/svg11.dtd">
<!-- Generated by graphviz version 2.36.0 (20140111.2315)
 -->
<!-- Title: ArcSyn3sis Pages: 1 -->
<svg width="514pt" height="148pt"
 viewBox="0.00 0.00 514.00 148.00" xmlns="http://www.w3.org/2000/svg" xmlns:xlink="http://www.w3.org/1999/xlink">
<g id="graph0" class="graph" transform="scale(1 1) rotate(0) translate(4 144)">
<title>ArcSyn3sis</title>
<polygon fill="white" stroke="none" points="-4,4 -4,-144 510,-144 510,4 -4,4"/>
<g id="clust1" class="cluster"><title>clusterdir_b8e14937dc9e340114572aecadf76acc</title>
<g id="a_clust1"><a xlink:href="dir_b8e14937dc9e340114572aecadf76acc.html" target="_top">
<polygon fill="#eeeeff" stroke="black" points="8,-8 8,-132 498,-132 498,-8 8,-8"/>
</a>
</g>
</g>
<!-- dir_b8e14937dc9e340114572aecadf76acc -->
<g id="node1" class="node"><title>dir_b8e14937dc9e340114572aecadf76acc</title>
<text text-anchor="middle" x="456" y="-103.5" font-family="Helvetica,sans-Serif" font-size="10.00">ArcSyn3sis</text>
</g>
<!-- dir_d9acc7700b7f1314587142db31da9c77 -->
<g id="node6" class="node"><title>dir_d9acc7700b7f1314587142db31da9c77</title>
<g id="a_node6"><a xlink:href="dir_d9acc7700b7f1314587142db31da9c77.html" target="_top" xlink:title="include">
<polygon fill="white" stroke="red" points="276,-52 222,-52 222,-16 276,-16 276,-52"/>
<text text-anchor="middle" x="249" y="-31.5" font-family="Helvetica,sans-Serif" font-size="10.00">include</text>
</a>
</g>
</g>
<!-- dir_b8e14937dc9e340114572aecadf76acc&#45;&gt;dir_d9acc7700b7f1314587142db31da9c77 -->
<g id="edge2" class="edge"><title>dir_b8e14937dc9e340114572aecadf76acc&#45;&gt;dir_d9acc7700b7f1314587142db31da9c77</title>
<path fill="none" stroke="black" d="M422.745,-91.6099C419.463,-90.3615 416.173,-89.1388 413,-88 369.738,-72.4756 319.346,-56.4993 285.957,-46.2029"/>
<polygon fill="black" stroke="black" points="286.755,-42.7865 276.168,-43.1965 284.7,-49.478 286.755,-42.7865"/>
<g id="a_edge2&#45;headlabel"><a xlink:href="dir_000000_000035.html" target="_top" xlink:title="12">
<text text-anchor="middle" x="291.024" y="-38.6275" font-family="Helvetica,sans-Serif" font-size="10.00">12</text>
</a>
</g>
</g>
<!-- dir_e0e6f84b3e7206283f07d015b7196421 -->
<g id="node2" class="node"><title>dir_e0e6f84b3e7206283f07d015b7196421</title>
<g id="a_node2"><a xlink:href="dir_e0e6f84b3e7206283f07d015b7196421.html" target="_top" xlink:title="3rdParty">
<polygon fill="white" stroke="red" points="404,-124 350,-124 350,-88 404,-88 404,-124"/>
<text text-anchor="middle" x="377" y="-103.5" font-family="Helvetica,sans-Serif" font-size="10.00">3rdParty</text>
</a>
</g>
</g>
<!-- dir_f8e5d9dd0bea395b931f7c357e11787f -->
<g id="node3" class="node"><title>dir_f8e5d9dd0bea395b931f7c357e11787f</title>
<g id="a_node3"><a xlink:href="dir_f8e5d9dd0bea395b931f7c357e11787f.html" target="_top" xlink:title="ArrayPrototype">
<polygon fill="white" stroke="black" points="331.25,-124 248.75,-124 248.75,-88 331.25,-88 331.25,-124"/>
<text text-anchor="middle" x="290" y="-103.5" font-family="Helvetica,sans-Serif" font-size="10.00">ArrayPrototype</text>
</a>
</g>
</g>
<!-- dir_4145f12c39cd1f3e32097b83022153c0 -->
<g id="node4" class="node"><title>dir_4145f12c39cd1f3e32097b83022153c0</title>
<g id="a_node4"><a xlink:href="dir_4145f12c39cd1f3e32097b83022153c0.html" target="_top" xlink:title="build">
<polygon fill="white" stroke="red" points="230,-124 176,-124 176,-88 230,-88 230,-124"/>
<text text-anchor="middle" x="203" y="-103.5" font-family="Helvetica,sans-Serif" font-size="10.00">build</text>
</a>
</g>
</g>
<!-- dir_0d3631e771a5afabe22002409543d365 -->
<g id="node5" class="node"><title>dir_0d3631e771a5afabe22002409543d365</title>
<g id="a_node5"><a xlink:href="dir_0d3631e771a5afabe22002409543d365.html" target="_top" xlink:title="CMakeFiles">
<polygon fill="white" stroke="red" points="157.25,-124 88.75,-124 88.75,-88 157.25,-88 157.25,-124"/>
<text text-anchor="middle" x="123" y="-103.5" font-family="Helvetica,sans-Serif" font-size="10.00">CMakeFiles</text>
</a>
</g>
</g>
<!-- dir_6c20ad973ba772906387331f772470a7 -->
<g id="node7" class="node"><title>dir_6c20ad973ba772906387331f772470a7</title>
<g id="a_node7"><a xlink:href="dir_6c20ad973ba772906387331f772470a7.html" target="_top" xlink:title="src">
<polygon fill="white" stroke="red" points="70,-124 16,-124 16,-88 70,-88 70,-124"/>
<text text-anchor="middle" x="43" y="-103.5" font-family="Helvetica,sans-Serif" font-size="10.00">src</text>
</a>
</g>
</g>
<!-- dir_6c20ad973ba772906387331f772470a7&#45;&gt;dir_d9acc7700b7f1314587142db31da9c77 -->
<g id="edge1" class="edge"><title>dir_6c20ad973ba772906387331f772470a7&#45;&gt;dir_d9acc7700b7f1314587142db31da9c77</title>
<path fill="none" stroke="black" d="M70.3135,-91.982C73.553,-90.5777 76.8331,-89.2185 80,-88 124.665,-70.8149 177.486,-54.936 212.036,-45.1269"/>
<polygon fill="black" stroke="black" points="213.031,-48.483 221.709,-42.4041 211.135,-41.7448 213.031,-48.483"/>
<g id="a_edge1&#45;headlabel"><a xlink:href="dir_000047_000035.html" target="_top" xlink:title="11">
<text text-anchor="middle" x="210.341" y="-49.69" font-family="Helvetica,sans-Serif" font-size="10.00">11</text>
</a>
</g>
</g>
</g>
</svg>
