<?xml version="1.0" encoding="UTF-8" standalone="no"?>
<!DOCTYPE svg PUBLIC "-//W3C//DTD SVG 1.1//EN"
 "http://www.w3.org/Graphics/SVG/1.1/DTD/svg11.dtd">
<!-- Generated by graphviz version 2.36.0 (20140111.2315)
 -->
<!-- Title: ArcSyn3sis/3rdParty/parmetis&#45;4.0.3/programs Pages: 1 -->
<svg width="118pt" height="223pt"
 viewBox="0.00 0.00 118.00 223.00" xmlns="http://www.w3.org/2000/svg" xmlns:xlink="http://www.w3.org/1999/xlink">
<g id="graph0" class="graph" transform="scale(1 1) rotate(0) translate(4 219)">
<title>ArcSyn3sis/3rdParty/parmetis&#45;4.0.3/programs</title>
<polygon fill="white" stroke="none" points="-4,4 -4,-219 114,-219 114,4 -4,4"/>
<g id="clust1" class="cluster"><title>clusterdir_df36b568c8bb6ca16a2b6d971c107e2f</title>
<g id="a_clust1"><a xlink:href="dir_df36b568c8bb6ca16a2b6d971c107e2f.html" target="_top" xlink:title="parmetis&#45;4.0.3">
<polygon fill="#ddddee" stroke="black" points="22,-136 22,-207 102,-207 102,-136 22,-136"/>
<text text-anchor="middle" x="62" y="-195" font-family="Helvetica,sans-Serif" font-size="10.00">parmetis&#45;4.0.3</text>
</a>
</g>
</g>
<!-- dir_f9b5b746b87b05d9f8b891afbd4fcae4 -->
<g id="node1" class="node"><title>dir_f9b5b746b87b05d9f8b891afbd4fcae4</title>
<g id="a_node1"><a xlink:href="dir_f9b5b746b87b05d9f8b891afbd4fcae4.html" target="_top" xlink:title="programs">
<polygon fill="#eeeeff" stroke="black" points="91.25,-180 32.75,-180 32.75,-144 91.25,-144 91.25,-180"/>
<text text-anchor="middle" x="62" y="-159.5" font-family="Helvetica,sans-Serif" font-size="10.00">programs</text>
</a>
</g>
</g>
<!-- dir_92f3111b68bf70c89ac05e404ccf3d48 -->
<g id="node2" class="node"><title>dir_92f3111b68bf70c89ac05e404ccf3d48</title>
<g id="a_node2"><a xlink:href="dir_92f3111b68bf70c89ac05e404ccf3d48.html" target="_top" xlink:title="libparmetis">
<polygon fill="none" stroke="black" points="64.25,-108 -0.25,-108 -0.25,-72 64.25,-72 64.25,-108"/>
<text text-anchor="middle" x="32" y="-87.5" font-family="Helvetica,sans-Serif" font-size="10.00">libparmetis</text>
</a>
</g>
</g>
<!-- dir_f9b5b746b87b05d9f8b891afbd4fcae4&#45;&gt;dir_92f3111b68bf70c89ac05e404ccf3d48 -->
<g id="edge2" class="edge"><title>dir_f9b5b746b87b05d9f8b891afbd4fcae4&#45;&gt;dir_92f3111b68bf70c89ac05e404ccf3d48</title>
<path fill="none" stroke="black" d="M54.5843,-143.697C51.2056,-135.813 47.1304,-126.304 43.377,-117.546"/>
<polygon fill="black" stroke="black" points="46.4867,-115.917 39.3304,-108.104 40.0527,-118.675 46.4867,-115.917"/>
<g id="a_edge2&#45;headlabel"><a xlink:href="dir_000042_000036.html" target="_top" xlink:title="5">
<text text-anchor="middle" x="50.5123" y="-115.603" font-family="Helvetica,sans-Serif" font-size="10.00">5</text>
</a>
</g>
</g>
<!-- dir_2984aea09642dce564a61f6c982fc079 -->
<g id="node3" class="node"><title>dir_2984aea09642dce564a61f6c982fc079</title>
<g id="a_node3"><a xlink:href="dir_2984aea09642dce564a61f6c982fc079.html" target="_top" xlink:title="metis">
<polygon fill="white" stroke="red" points="89,-36 35,-36 35,-0 89,-0 89,-36"/>
<text text-anchor="middle" x="62" y="-15.5" font-family="Helvetica,sans-Serif" font-size="10.00">metis</text>
</a>
</g>
</g>
<!-- dir_f9b5b746b87b05d9f8b891afbd4fcae4&#45;&gt;dir_2984aea09642dce564a61f6c982fc079 -->
<g id="edge3" class="edge"><title>dir_f9b5b746b87b05d9f8b891afbd4fcae4&#45;&gt;dir_2984aea09642dce564a61f6c982fc079</title>
<path fill="none" stroke="black" d="M66.4642,-143.953C68.935,-133.63 71.7522,-120.153 73,-108 74.6343,-92.0837 74.6343,-87.9163 73,-72 72.1226,-63.455 70.4694,-54.2552 68.7062,-45.9576"/>
<polygon fill="black" stroke="black" points="72.0845,-45.0282 66.4642,-36.0469 65.257,-46.5728 72.0845,-45.0282"/>
<g id="a_edge3&#45;headlabel"><a xlink:href="dir_000042_000037.html" target="_top" xlink:title="2">
<text text-anchor="middle" x="75.6469" y="-45.4078" font-family="Helvetica,sans-Serif" font-size="10.00">2</text>
</a>
</g>
</g>
<!-- dir_92f3111b68bf70c89ac05e404ccf3d48&#45;&gt;dir_2984aea09642dce564a61f6c982fc079 -->
<g id="edge1" class="edge"><title>dir_92f3111b68bf70c89ac05e404ccf3d48&#45;&gt;dir_2984aea09642dce564a61f6c982fc079</title>
<path fill="none" stroke="black" d="M39.4157,-71.6966C42.7944,-63.8132 46.8696,-54.3042 50.623,-45.5464"/>
<polygon fill="black" stroke="black" points="53.9473,-46.6745 54.6696,-36.1043 47.5133,-43.9171 53.9473,-46.6745"/>
<g id="a_edge1&#45;headlabel"><a xlink:href="dir_000036_000037.html" target="_top" xlink:title="2">
<text text-anchor="middle" x="55.1411" y="-48.5969" font-family="Helvetica,sans-Serif" font-size="10.00">2</text>
</a>
</g>
</g>
</g>
</svg>
