<?xml version="1.0" encoding="UTF-8" standalone="no"?>
<!DOCTYPE svg PUBLIC "-//W3C//DTD SVG 1.1//EN"
 "http://www.w3.org/Graphics/SVG/1.1/DTD/svg11.dtd">
<!-- Generated by graphviz version 2.36.0 (20140111.2315)
 -->
<!-- Title: ArcSyn3sis/src Pages: 1 -->
<svg width="262pt" height="159pt"
 viewBox="0.00 0.00 262.00 159.00" xmlns="http://www.w3.org/2000/svg" xmlns:xlink="http://www.w3.org/1999/xlink">
<g id="graph0" class="graph" transform="scale(1 1) rotate(0) translate(4 155)">
<title>ArcSyn3sis/src</title>
<polygon fill="white" stroke="none" points="-4,4 -4,-155 258,-155 258,4 -4,4"/>
<g id="clust1" class="cluster"><title>clusterdir_b8e14937dc9e340114572aecadf76acc</title>
<g id="a_clust1"><a xlink:href="dir_b8e14937dc9e340114572aecadf76acc.html" target="_top" xlink:title="ArcSyn3sis">
<polygon fill="#ddddee" stroke="black" points="8,-56 8,-143 246,-143 246,-56 8,-56"/>
<text text-anchor="middle" x="127" y="-131" font-family="Helvetica,sans-Serif" font-size="10.00">ArcSyn3sis</text>
</a>
</g>
</g>
<g id="clust2" class="cluster"><title>clusterdir_6c20ad973ba772906387331f772470a7</title>
<g id="a_clust2"><a xlink:href="dir_6c20ad973ba772906387331f772470a7.html" target="_top">
<polygon fill="#eeeeff" stroke="black" points="16,-64 16,-116 238,-116 238,-64 16,-64"/>
</a>
</g>
</g>
<!-- dir_6c20ad973ba772906387331f772470a7 -->
<g id="node1" class="node"><title>dir_6c20ad973ba772906387331f772470a7</title>
<text text-anchor="middle" x="203" y="-87.5" font-family="Helvetica,sans-Serif" font-size="10.00">src</text>
</g>
<!-- dir_49ea50a38a8add6b39928e7df00002cf -->
<g id="node2" class="node"><title>dir_49ea50a38a8add6b39928e7df00002cf</title>
<g id="a_node2"><a xlink:href="dir_49ea50a38a8add6b39928e7df00002cf.html" target="_top" xlink:title="old">
<polygon fill="white" stroke="black" points="158,-108 104,-108 104,-72 158,-72 158,-108"/>
<text text-anchor="middle" x="131" y="-87.5" font-family="Helvetica,sans-Serif" font-size="10.00">old</text>
</a>
</g>
</g>
<!-- dir_d9acc7700b7f1314587142db31da9c77 -->
<g id="node4" class="node"><title>dir_d9acc7700b7f1314587142db31da9c77</title>
<g id="a_node4"><a xlink:href="dir_d9acc7700b7f1314587142db31da9c77.html" target="_top" xlink:title="include">
<polygon fill="white" stroke="red" points="120,-36 66,-36 66,-0 120,-0 120,-36"/>
<text text-anchor="middle" x="93" y="-15.5" font-family="Helvetica,sans-Serif" font-size="10.00">include</text>
</a>
</g>
</g>
<!-- dir_49ea50a38a8add6b39928e7df00002cf&#45;&gt;dir_d9acc7700b7f1314587142db31da9c77 -->
<g id="edge2" class="edge"><title>dir_49ea50a38a8add6b39928e7df00002cf&#45;&gt;dir_d9acc7700b7f1314587142db31da9c77</title>
<path fill="none" stroke="black" d="M121.607,-71.6966C117.235,-63.6436 111.943,-53.8945 107.105,-44.9824"/>
<polygon fill="black" stroke="black" points="110.132,-43.223 102.285,-36.1043 103.98,-46.5627 110.132,-43.223"/>
<g id="a_edge2&#45;headlabel"><a xlink:href="dir_000007_000003.html" target="_top" xlink:title="3">
<text text-anchor="middle" x="114.342" y="-42.5276" font-family="Helvetica,sans-Serif" font-size="10.00">3</text>
</a>
</g>
</g>
<!-- dir_9c379a38067c55776354015577208b3d -->
<g id="node3" class="node"><title>dir_9c379a38067c55776354015577208b3d</title>
<g id="a_node3"><a xlink:href="dir_9c379a38067c55776354015577208b3d.html" target="_top" xlink:title="write_algs">
<polygon fill="white" stroke="black" points="86,-108 24,-108 24,-72 86,-72 86,-108"/>
<text text-anchor="middle" x="55" y="-87.5" font-family="Helvetica,sans-Serif" font-size="10.00">write_algs</text>
</a>
</g>
</g>
<!-- dir_9c379a38067c55776354015577208b3d&#45;&gt;dir_d9acc7700b7f1314587142db31da9c77 -->
<g id="edge1" class="edge"><title>dir_9c379a38067c55776354015577208b3d&#45;&gt;dir_d9acc7700b7f1314587142db31da9c77</title>
<path fill="none" stroke="black" d="M64.3933,-71.6966C68.7649,-63.6436 74.0573,-53.8945 78.8953,-44.9824"/>
<polygon fill="black" stroke="black" points="82.0198,-46.5627 83.7148,-36.1043 75.8678,-43.223 82.0198,-46.5627"/>
<g id="a_edge1&#45;headlabel"><a xlink:href="dir_000008_000003.html" target="_top" xlink:title="1">
<text text-anchor="middle" x="82.8002" y="-48.5764" font-family="Helvetica,sans-Serif" font-size="10.00">1</text>
</a>
</g>
</g>
</g>
</svg>
