<?xml version="1.0" encoding="UTF-8" standalone="no"?>
<!DOCTYPE svg PUBLIC "-//W3C//DTD SVG 1.1//EN"
 "http://www.w3.org/Graphics/SVG/1.1/DTD/svg11.dtd">
<!-- Generated by graphviz version 2.36.0 (20140111.2315)
 -->
<!-- Title: ArcSyn3sis/3rdParty/parmetis&#45;4.0.3/libparmetis Pages: 1 -->
<svg width="106pt" height="151pt"
 viewBox="0.00 0.00 106.00 151.00" xmlns="http://www.w3.org/2000/svg" xmlns:xlink="http://www.w3.org/1999/xlink">
<g id="graph0" class="graph" transform="scale(1 1) rotate(0) translate(4 147)">
<title>ArcSyn3sis/3rdParty/parmetis&#45;4.0.3/libparmetis</title>
<polygon fill="white" stroke="none" points="-4,4 -4,-147 102,-147 102,4 -4,4"/>
<g id="clust1" class="cluster"><title>clusterdir_df36b568c8bb6ca16a2b6d971c107e2f</title>
<g id="a_clust1"><a xlink:href="dir_df36b568c8bb6ca16a2b6d971c107e2f.html" target="_top" xlink:title="parmetis&#45;4.0.3">
<polygon fill="#ddddee" stroke="black" points="8,-64 8,-135 90,-135 90,-64 8,-64"/>
<text text-anchor="middle" x="49" y="-123" font-family="Helvetica,sans-Serif" font-size="10.00">parmetis&#45;4.0.3</text>
</a>
</g>
</g>
<!-- dir_92f3111b68bf70c89ac05e404ccf3d48 -->
<g id="node1" class="node"><title>dir_92f3111b68bf70c89ac05e404ccf3d48</title>
<g id="a_node1"><a xlink:href="dir_92f3111b68bf70c89ac05e404ccf3d48.html" target="_top" xlink:title="libparmetis">
<polygon fill="#eeeeff" stroke="black" points="81.25,-108 16.75,-108 16.75,-72 81.25,-72 81.25,-108"/>
<text text-anchor="middle" x="49" y="-87.5" font-family="Helvetica,sans-Serif" font-size="10.00">libparmetis</text>
</a>
</g>
</g>
<!-- dir_2984aea09642dce564a61f6c982fc079 -->
<g id="node2" class="node"><title>dir_2984aea09642dce564a61f6c982fc079</title>
<g id="a_node2"><a xlink:href="dir_2984aea09642dce564a61f6c982fc079.html" target="_top" xlink:title="metis">
<polygon fill="white" stroke="red" points="76,-36 22,-36 22,-0 76,-0 76,-36"/>
<text text-anchor="middle" x="49" y="-15.5" font-family="Helvetica,sans-Serif" font-size="10.00">metis</text>
</a>
</g>
</g>
<!-- dir_92f3111b68bf70c89ac05e404ccf3d48&#45;&gt;dir_2984aea09642dce564a61f6c982fc079 -->
<g id="edge1" class="edge"><title>dir_92f3111b68bf70c89ac05e404ccf3d48&#45;&gt;dir_2984aea09642dce564a61f6c982fc079</title>
<path fill="none" stroke="black" d="M49,-71.6966C49,-63.9827 49,-54.7125 49,-46.1124"/>
<polygon fill="black" stroke="black" points="52.5001,-46.1043 49,-36.1043 45.5001,-46.1044 52.5001,-46.1043"/>
<g id="a_edge1&#45;headlabel"><a xlink:href="dir_000036_000037.html" target="_top" xlink:title="2">
<text text-anchor="middle" x="55.3393" y="-47.199" font-family="Helvetica,sans-Serif" font-size="10.00">2</text>
</a>
</g>
</g>
</g>
</svg>
