<?xml version="1.0" encoding="UTF-8" standalone="no"?>
<!DOCTYPE svg PUBLIC "-//W3C//DTD SVG 1.1//EN"
 "http://www.w3.org/Graphics/SVG/1.1/DTD/svg11.dtd">
<!-- Generated by graphviz version 2.36.0 (20140111.2315)
 -->
<!-- Title: ArcSyn3sis/src/write_algs Pages: 1 -->
<svg width="102pt" height="151pt"
 viewBox="0.00 0.00 102.00 151.00" xmlns="http://www.w3.org/2000/svg" xmlns:xlink="http://www.w3.org/1999/xlink">
<g id="graph0" class="graph" transform="scale(1 1) rotate(0) translate(4 147)">
<title>ArcSyn3sis/src/write_algs</title>
<polygon fill="white" stroke="none" points="-4,4 -4,-147 98,-147 98,4 -4,4"/>
<g id="clust1" class="cluster"><title>clusterdir_6c20ad973ba772906387331f772470a7</title>
<g id="a_clust1"><a xlink:href="dir_6c20ad973ba772906387331f772470a7.html" target="_top" xlink:title="src">
<polygon fill="#ddddee" stroke="black" points="8,-64 8,-135 86,-135 86,-64 8,-64"/>
<text text-anchor="middle" x="47" y="-123" font-family="Helvetica,sans-Serif" font-size="10.00">src</text>
</a>
</g>
</g>
<!-- dir_9c379a38067c55776354015577208b3d -->
<g id="node1" class="node"><title>dir_9c379a38067c55776354015577208b3d</title>
<g id="a_node1"><a xlink:href="dir_9c379a38067c55776354015577208b3d.html" target="_top" xlink:title="write_algs">
<polygon fill="#eeeeff" stroke="black" points="78,-108 16,-108 16,-72 78,-72 78,-108"/>
<text text-anchor="middle" x="47" y="-87.5" font-family="Helvetica,sans-Serif" font-size="10.00">write_algs</text>
</a>
</g>
</g>
<!-- dir_d9acc7700b7f1314587142db31da9c77 -->
<g id="node2" class="node"><title>dir_d9acc7700b7f1314587142db31da9c77</title>
<g id="a_node2"><a xlink:href="dir_d9acc7700b7f1314587142db31da9c77.html" target="_top" xlink:title="include">
<polygon fill="white" stroke="red" points="74,-36 20,-36 20,-0 74,-0 74,-36"/>
<text text-anchor="middle" x="47" y="-15.5" font-family="Helvetica,sans-Serif" font-size="10.00">include</text>
</a>
</g>
</g>
<!-- dir_9c379a38067c55776354015577208b3d&#45;&gt;dir_d9acc7700b7f1314587142db31da9c77 -->
<g id="edge1" class="edge"><title>dir_9c379a38067c55776354015577208b3d&#45;&gt;dir_d9acc7700b7f1314587142db31da9c77</title>
<path fill="none" stroke="black" d="M47,-71.6966C47,-63.9827 47,-54.7125 47,-46.1124"/>
<polygon fill="black" stroke="black" points="50.5001,-46.1043 47,-36.1043 43.5001,-46.1044 50.5001,-46.1043"/>
<g id="a_edge1&#45;headlabel"><a xlink:href="dir_000008_000003.html" target="_top" xlink:title="1">
<text text-anchor="middle" x="53.3393" y="-47.199" font-family="Helvetica,sans-Serif" font-size="10.00">1</text>
</a>
</g>
</g>
</g>
</svg>
