<?xml version="1.0" encoding="UTF-8" standalone="no"?>
<!DOCTYPE svg PUBLIC "-//W3C//DTD SVG 1.1//EN"
 "http://www.w3.org/Graphics/SVG/1.1/DTD/svg11.dtd">
<!-- Generated by graphviz version 2.36.0 (20140111.2315)
 -->
<!-- Title: ArcSyn3sis/3rdParty/parmetis&#45;4.0.3/metis/libmetis Pages: 1 -->
<svg width="94pt" height="151pt"
 viewBox="0.00 0.00 94.00 151.00" xmlns="http://www.w3.org/2000/svg" xmlns:xlink="http://www.w3.org/1999/xlink">
<g id="graph0" class="graph" transform="scale(1 1) rotate(0) translate(4 147)">
<title>ArcSyn3sis/3rdParty/parmetis&#45;4.0.3/metis/libmetis</title>
<polygon fill="white" stroke="none" points="-4,4 -4,-147 90,-147 90,4 -4,4"/>
<g id="clust1" class="cluster"><title>clusterdir_2984aea09642dce564a61f6c982fc079</title>
<g id="a_clust1"><a xlink:href="dir_2984aea09642dce564a61f6c982fc079.html" target="_top" xlink:title="metis">
<polygon fill="#ddddee" stroke="black" points="8,-64 8,-135 78,-135 78,-64 8,-64"/>
<text text-anchor="middle" x="43" y="-123" font-family="Helvetica,sans-Serif" font-size="10.00">metis</text>
</a>
</g>
</g>
<!-- dir_9fd0181cac43945a456990422b31626e -->
<g id="node1" class="node"><title>dir_9fd0181cac43945a456990422b31626e</title>
<g id="a_node1"><a xlink:href="dir_9fd0181cac43945a456990422b31626e.html" target="_top" xlink:title="libmetis">
<polygon fill="#eeeeff" stroke="black" points="70,-108 16,-108 16,-72 70,-72 70,-108"/>
<text text-anchor="middle" x="43" y="-87.5" font-family="Helvetica,sans-Serif" font-size="10.00">libmetis</text>
</a>
</g>
</g>
<!-- dir_1a6c51fa27536942076bcd102796ad95 -->
<g id="node2" class="node"><title>dir_1a6c51fa27536942076bcd102796ad95</title>
<g id="a_node2"><a xlink:href="dir_1a6c51fa27536942076bcd102796ad95.html" target="_top" xlink:title="GKlib">
<polygon fill="white" stroke="red" points="70,-36 16,-36 16,-0 70,-0 70,-36"/>
<text text-anchor="middle" x="43" y="-15.5" font-family="Helvetica,sans-Serif" font-size="10.00">GKlib</text>
</a>
</g>
</g>
<!-- dir_9fd0181cac43945a456990422b31626e&#45;&gt;dir_1a6c51fa27536942076bcd102796ad95 -->
<g id="edge1" class="edge"><title>dir_9fd0181cac43945a456990422b31626e&#45;&gt;dir_1a6c51fa27536942076bcd102796ad95</title>
<path fill="none" stroke="black" d="M43,-71.6966C43,-63.9827 43,-54.7125 43,-46.1124"/>
<polygon fill="black" stroke="black" points="46.5001,-46.1043 43,-36.1043 39.5001,-46.1044 46.5001,-46.1043"/>
<g id="a_edge1&#45;headlabel"><a xlink:href="dir_000040_000038.html" target="_top" xlink:title="1">
<text text-anchor="middle" x="49.3393" y="-47.199" font-family="Helvetica,sans-Serif" font-size="10.00">1</text>
</a>
</g>
</g>
</g>
</svg>
