<?xml version="1.0" encoding="UTF-8" standalone="no"?>
<!DOCTYPE svg PUBLIC "-//W3C//DTD SVG 1.1//EN"
 "http://www.w3.org/Graphics/SVG/1.1/DTD/svg11.dtd">
<!-- Generated by graphviz version 2.36.0 (20140111.2315)
 -->
<!-- Title: ArcSyn3sis Pages: 1 -->
<svg width="459pt" height="148pt"
 viewBox="0.00 0.00 459.00 148.00" xmlns="http://www.w3.org/2000/svg" xmlns:xlink="http://www.w3.org/1999/xlink">
<g id="graph0" class="graph" transform="scale(1 1) rotate(0) translate(4 144)">
<title>ArcSyn3sis</title>
<polygon fill="white" stroke="none" points="-4,4 -4,-144 455,-144 455,4 -4,4"/>
<g id="clust1" class="cluster"><title>clusterdir_b8e14937dc9e340114572aecadf76acc</title>
<g id="a_clust1"><a xlink:href="dir_b8e14937dc9e340114572aecadf76acc.html" target="_top">
<polygon fill="#eeeeff" stroke="black" points="8,-8 8,-132 443,-132 443,-8 8,-8"/>
</a>
</g>
</g>
<!-- dir_b8e14937dc9e340114572aecadf76acc -->
<g id="node1" class="node"><title>dir_b8e14937dc9e340114572aecadf76acc</title>
<text text-anchor="middle" x="401" y="-103.5" font-family="Helvetica,sans-Serif" font-size="10.00">ArcSyn3sis</text>
</g>
<!-- dir_d9acc7700b7f1314587142db31da9c77 -->
<g id="node4" class="node"><title>dir_d9acc7700b7f1314587142db31da9c77</title>
<g id="a_node4"><a xlink:href="dir_d9acc7700b7f1314587142db31da9c77.html" target="_top" xlink:title="include">
<polygon fill="white" stroke="red" points="249,-52 195,-52 195,-16 249,-16 249,-52"/>
<text text-anchor="middle" x="222" y="-31.5" font-family="Helvetica,sans-Serif" font-size="10.00">include</text>
</a>
</g>
</g>
<!-- dir_b8e14937dc9e340114572aecadf76acc&#45;&gt;dir_d9acc7700b7f1314587142db31da9c77 -->
<g id="edge2" class="edge"><title>dir_b8e14937dc9e340114572aecadf76acc&#45;&gt;dir_d9acc7700b7f1314587142db31da9c77</title>
<path fill="none" stroke="black" d="M367.672,-91.8052C364.404,-90.5172 361.138,-89.2319 358,-88 324.386,-74.8058 286.055,-59.8785 258.673,-49.2357"/>
<polygon fill="black" stroke="black" points="259.698,-45.8791 249.109,-45.5196 257.162,-52.4039 259.698,-45.8791"/>
<g id="a_edge2&#45;headlabel"><a xlink:href="dir_000000_000003.html" target="_top" xlink:title="14">
<text text-anchor="middle" x="264.077" y="-42.0344" font-family="Helvetica,sans-Serif" font-size="10.00">14</text>
</a>
</g>
</g>
<!-- dir_f8e5d9dd0bea395b931f7c357e11787f -->
<g id="node2" class="node"><title>dir_f8e5d9dd0bea395b931f7c357e11787f</title>
<g id="a_node2"><a xlink:href="dir_f8e5d9dd0bea395b931f7c357e11787f.html" target="_top" xlink:title="ArrayPrototype">
<polygon fill="white" stroke="black" points="349.25,-124 266.75,-124 266.75,-88 349.25,-88 349.25,-124"/>
<text text-anchor="middle" x="308" y="-103.5" font-family="Helvetica,sans-Serif" font-size="10.00">ArrayPrototype</text>
</a>
</g>
</g>
<!-- dir_d97638dc9f77be96854f50665da8ed4b -->
<g id="node3" class="node"><title>dir_d97638dc9f77be96854f50665da8ed4b</title>
<g id="a_node3"><a xlink:href="dir_d97638dc9f77be96854f50665da8ed4b.html" target="_top" xlink:title="BlendedMeshes">
<polygon fill="white" stroke="black" points="248,-124 160,-124 160,-88 248,-88 248,-124"/>
<text text-anchor="middle" x="204" y="-103.5" font-family="Helvetica,sans-Serif" font-size="10.00">BlendedMeshes</text>
</a>
</g>
</g>
<!-- dir_b7dede43224329073d60588be4853376 -->
<g id="node5" class="node"><title>dir_b7dede43224329073d60588be4853376</title>
<g id="a_node5"><a xlink:href="dir_b7dede43224329073d60588be4853376.html" target="_top" xlink:title="scripts">
<polygon fill="white" stroke="black" points="142,-124 88,-124 88,-88 142,-88 142,-124"/>
<text text-anchor="middle" x="115" y="-103.5" font-family="Helvetica,sans-Serif" font-size="10.00">scripts</text>
</a>
</g>
</g>
<!-- dir_6c20ad973ba772906387331f772470a7 -->
<g id="node6" class="node"><title>dir_6c20ad973ba772906387331f772470a7</title>
<g id="a_node6"><a xlink:href="dir_6c20ad973ba772906387331f772470a7.html" target="_top" xlink:title="src">
<polygon fill="white" stroke="red" points="70,-124 16,-124 16,-88 70,-88 70,-124"/>
<text text-anchor="middle" x="43" y="-103.5" font-family="Helvetica,sans-Serif" font-size="10.00">src</text>
</a>
</g>
</g>
<!-- dir_6c20ad973ba772906387331f772470a7&#45;&gt;dir_d9acc7700b7f1314587142db31da9c77 -->
<g id="edge1" class="edge"><title>dir_6c20ad973ba772906387331f772470a7&#45;&gt;dir_d9acc7700b7f1314587142db31da9c77</title>
<path fill="none" stroke="black" d="M70.014,-91.9374C73.0292,-90.5709 76.0691,-89.2324 79,-88 114.587,-73.0355 156.026,-57.9241 185.105,-47.6877"/>
<polygon fill="black" stroke="black" points="186.564,-50.8855 194.846,-44.2785 184.251,-44.2785 186.564,-50.8855"/>
<g id="a_edge1&#45;headlabel"><a xlink:href="dir_000006_000003.html" target="_top" xlink:title="12">
<text text-anchor="middle" x="184.109" y="-52.2528" font-family="Helvetica,sans-Serif" font-size="10.00">12</text>
</a>
</g>
</g>
</g>
</svg>
