<?xml version="1.0" encoding="UTF-8" standalone="no"?>
<!DOCTYPE svg PUBLIC "-//W3C//DTD SVG 1.1//EN"
 "http://www.w3.org/Graphics/SVG/1.1/DTD/svg11.dtd">
<!-- Generated by graphviz version 2.36.0 (20140111.2315)
 -->
<!-- Title: ArcSyn3sis/3rdParty/parmetis&#45;4.0.3/metis/GKlib Pages: 1 -->
<svg width="254pt" height="111pt"
 viewBox="0.00 0.00 254.00 111.00" xmlns="http://www.w3.org/2000/svg" xmlns:xlink="http://www.w3.org/1999/xlink">
<g id="graph0" class="graph" transform="scale(1 1) rotate(0) translate(4 107)">
<title>ArcSyn3sis/3rdParty/parmetis&#45;4.0.3/metis/GKlib</title>
<polygon fill="white" stroke="none" points="-4,4 -4,-107 250,-107 250,4 -4,4"/>
<g id="clust1" class="cluster"><title>clusterdir_2984aea09642dce564a61f6c982fc079</title>
<g id="a_clust1"><a xlink:href="dir_2984aea09642dce564a61f6c982fc079.html" target="_top" xlink:title="metis">
<polygon fill="#ddddee" stroke="black" points="8,-8 8,-95 238,-95 238,-8 8,-8"/>
<text text-anchor="middle" x="123" y="-83" font-family="Helvetica,sans-Serif" font-size="10.00">metis</text>
</a>
</g>
</g>
<g id="clust2" class="cluster"><title>clusterdir_1a6c51fa27536942076bcd102796ad95</title>
<g id="a_clust2"><a xlink:href="dir_1a6c51fa27536942076bcd102796ad95.html" target="_top">
<polygon fill="#eeeeff" stroke="black" points="16,-16 16,-68 230,-68 230,-16 16,-16"/>
</a>
</g>
</g>
<!-- dir_1a6c51fa27536942076bcd102796ad95 -->
<g id="node1" class="node"><title>dir_1a6c51fa27536942076bcd102796ad95</title>
<text text-anchor="middle" x="195" y="-39.5" font-family="Helvetica,sans-Serif" font-size="10.00">GKlib</text>
</g>
<!-- dir_ab4fb53fe5f44334909599c318d2d83b -->
<g id="node2" class="node"><title>dir_ab4fb53fe5f44334909599c318d2d83b</title>
<g id="a_node2"><a xlink:href="dir_ab4fb53fe5f44334909599c318d2d83b.html" target="_top" xlink:title="conf">
<polygon fill="white" stroke="black" points="150,-60 96,-60 96,-24 150,-24 150,-60"/>
<text text-anchor="middle" x="123" y="-39.5" font-family="Helvetica,sans-Serif" font-size="10.00">conf</text>
</a>
</g>
</g>
<!-- dir_4a41993f59b9ed3a752eb118f767fb18 -->
<g id="node3" class="node"><title>dir_4a41993f59b9ed3a752eb118f767fb18</title>
<g id="a_node3"><a xlink:href="dir_4a41993f59b9ed3a752eb118f767fb18.html" target="_top" xlink:title="test">
<polygon fill="white" stroke="black" points="78,-60 24,-60 24,-24 78,-24 78,-60"/>
<text text-anchor="middle" x="51" y="-39.5" font-family="Helvetica,sans-Serif" font-size="10.00">test</text>
</a>
</g>
</g>
</g>
</svg>
