<?xml version="1.0" encoding="UTF-8" standalone="no"?>
<!DOCTYPE svg PUBLIC "-//W3C//DTD SVG 1.1//EN"
 "http://www.w3.org/Graphics/SVG/1.1/DTD/svg11.dtd">
<!-- Generated by graphviz version 2.36.0 (20140111.2315)
 -->
<!-- Title: ArcSyn3sis/3rdParty/parmetis&#45;4.0.3/metis Pages: 1 -->
<svg width="260pt" height="255pt"
 viewBox="0.00 0.00 260.00 255.00" xmlns="http://www.w3.org/2000/svg" xmlns:xlink="http://www.w3.org/1999/xlink">
<g id="graph0" class="graph" transform="scale(1 1) rotate(0) translate(4 251)">
<title>ArcSyn3sis/3rdParty/parmetis&#45;4.0.3/metis</title>
<polygon fill="white" stroke="none" points="-4,4 -4,-251 256,-251 256,4 -4,4"/>
<g id="clust1" class="cluster"><title>clusterdir_df36b568c8bb6ca16a2b6d971c107e2f</title>
<g id="a_clust1"><a xlink:href="dir_df36b568c8bb6ca16a2b6d971c107e2f.html" target="_top" xlink:title="parmetis&#45;4.0.3">
<polygon fill="#ddddee" stroke="black" points="8,-8 8,-239 244,-239 244,-8 8,-8"/>
<text text-anchor="middle" x="126" y="-227" font-family="Helvetica,sans-Serif" font-size="10.00">parmetis&#45;4.0.3</text>
</a>
</g>
</g>
<g id="clust2" class="cluster"><title>clusterdir_2984aea09642dce564a61f6c982fc079</title>
<g id="a_clust2"><a xlink:href="dir_2984aea09642dce564a61f6c982fc079.html" target="_top">
<polygon fill="#eeeeff" stroke="black" points="16,-16 16,-212 236,-212 236,-16 16,-16"/>
</a>
</g>
</g>
<!-- dir_2984aea09642dce564a61f6c982fc079 -->
<g id="node1" class="node"><title>dir_2984aea09642dce564a61f6c982fc079</title>
<text text-anchor="middle" x="201" y="-183.5" font-family="Helvetica,sans-Serif" font-size="10.00">metis</text>
</g>
<!-- dir_1a6c51fa27536942076bcd102796ad95 -->
<g id="node2" class="node"><title>dir_1a6c51fa27536942076bcd102796ad95</title>
<g id="a_node2"><a xlink:href="dir_1a6c51fa27536942076bcd102796ad95.html" target="_top" xlink:title="GKlib">
<polygon fill="white" stroke="red" points="94,-60 40,-60 40,-24 94,-24 94,-60"/>
<text text-anchor="middle" x="67" y="-39.5" font-family="Helvetica,sans-Serif" font-size="10.00">GKlib</text>
</a>
</g>
</g>
<!-- dir_4160787680ba1e0d29936221702e959f -->
<g id="node3" class="node"><title>dir_4160787680ba1e0d29936221702e959f</title>
<g id="a_node3"><a xlink:href="dir_4160787680ba1e0d29936221702e959f.html" target="_top" xlink:title="include">
<polygon fill="white" stroke="black" points="156,-204 102,-204 102,-168 156,-168 156,-204"/>
<text text-anchor="middle" x="129" y="-183.5" font-family="Helvetica,sans-Serif" font-size="10.00">include</text>
</a>
</g>
</g>
<!-- dir_9fd0181cac43945a456990422b31626e -->
<g id="node4" class="node"><title>dir_9fd0181cac43945a456990422b31626e</title>
<g id="a_node4"><a xlink:href="dir_9fd0181cac43945a456990422b31626e.html" target="_top" xlink:title="libmetis">
<polygon fill="white" stroke="black" points="111,-132 57,-132 57,-96 111,-96 111,-132"/>
<text text-anchor="middle" x="84" y="-111.5" font-family="Helvetica,sans-Serif" font-size="10.00">libmetis</text>
</a>
</g>
</g>
<!-- dir_9fd0181cac43945a456990422b31626e&#45;&gt;dir_1a6c51fa27536942076bcd102796ad95 -->
<g id="edge1" class="edge"><title>dir_9fd0181cac43945a456990422b31626e&#45;&gt;dir_1a6c51fa27536942076bcd102796ad95</title>
<path fill="none" stroke="black" d="M79.7978,-95.6966C77.9038,-87.8979 75.6235,-78.5085 73.5157,-69.8292"/>
<polygon fill="black" stroke="black" points="76.9151,-68.9959 71.1539,-60.1043 70.1128,-70.6479 76.9151,-68.9959"/>
<g id="a_edge1&#45;headlabel"><a xlink:href="dir_000040_000038.html" target="_top" xlink:title="1">
<text text-anchor="middle" x="80.5224" y="-69.3189" font-family="Helvetica,sans-Serif" font-size="10.00">1</text>
</a>
</g>
</g>
<!-- dir_009d4a25600a129f1879e3bca57a7382 -->
<g id="node5" class="node"><title>dir_009d4a25600a129f1879e3bca57a7382</title>
<g id="a_node5"><a xlink:href="dir_009d4a25600a129f1879e3bca57a7382.html" target="_top" xlink:title="programs">
<polygon fill="white" stroke="black" points="83.25,-204 24.75,-204 24.75,-168 83.25,-168 83.25,-204"/>
<text text-anchor="middle" x="54" y="-183.5" font-family="Helvetica,sans-Serif" font-size="10.00">programs</text>
</a>
</g>
</g>
<!-- dir_009d4a25600a129f1879e3bca57a7382&#45;&gt;dir_1a6c51fa27536942076bcd102796ad95 -->
<g id="edge3" class="edge"><title>dir_009d4a25600a129f1879e3bca57a7382&#45;&gt;dir_1a6c51fa27536942076bcd102796ad95</title>
<path fill="none" stroke="black" d="M50.4293,-167.811C47.2474,-149.792 43.7034,-120.717 48,-96 49.5234,-87.2364 52.3645,-78.0062 55.3941,-69.7484"/>
<polygon fill="black" stroke="black" points="58.7242,-70.8428 59.1071,-60.2548 52.2051,-68.2931 58.7242,-70.8428"/>
<g id="a_edge3&#45;headlabel"><a xlink:href="dir_000041_000038.html" target="_top" xlink:title="1">
<text text-anchor="middle" x="60.0592" y="-72.7246" font-family="Helvetica,sans-Serif" font-size="10.00">1</text>
</a>
</g>
</g>
<!-- dir_009d4a25600a129f1879e3bca57a7382&#45;&gt;dir_9fd0181cac43945a456990422b31626e -->
<g id="edge2" class="edge"><title>dir_009d4a25600a129f1879e3bca57a7382&#45;&gt;dir_9fd0181cac43945a456990422b31626e</title>
<path fill="none" stroke="black" d="M61.4157,-167.697C64.7944,-159.813 68.8696,-150.304 72.623,-141.546"/>
<polygon fill="black" stroke="black" points="75.9473,-142.675 76.6696,-132.104 69.5133,-139.917 75.9473,-142.675"/>
<g id="a_edge2&#45;headlabel"><a xlink:href="dir_000041_000040.html" target="_top" xlink:title="6">
<text text-anchor="middle" x="77.1411" y="-144.597" font-family="Helvetica,sans-Serif" font-size="10.00">6</text>
</a>
</g>
</g>
</g>
</svg>
